g MainCity_Prop_AlbumStuff_03
v 0.112889096 -0.4216333 -0.06108795
v 0.112889096 -0.42163268 0.06108734
v 0.120372005 -0.44622192 0.06108734
v 0.120372616 -0.4462225 -0.06108795
v 0.13640839 -0.4622589 0.06108734
v 0.136409 -0.4622595 -0.06108795
v 0.16099823 -0.46974304 0.06108734
v 0.16099823 -0.46974304 -0.06108795
v 1.0042648 -0.46974304 0.061087035
v 1.0042654 -0.46974304 -0.061088257
v 1.0288546 -0.4622595 0.061087035
v 1.0288546 -0.4622589 -0.061088257
v 1.044891 -0.44622314 0.061087035
v 1.044891 -0.4462225 -0.061088257
v 1.0523746 -0.4216333 0.061087035
v 1.0523746 -0.42163268 -0.061088257
v 0.112889096 -0.42163268 0.06108734
v 0.13640839 -0.4622589 0.06108734
v 0.120372005 -0.44622192 0.06108734
v 0.16099823 -0.46974304 0.06108734
v 1.0042648 -0.46974304 0.061087035
v 1.0523746 -0.4216333 0.061087035
v 1.0288546 -0.4622595 0.061087035
v 1.044891 -0.44622314 0.061087035
v 1.0523748 0.4216339 0.061087035
v 0.11288879 0.4216339 0.06108734
v 1.0042651 0.46974304 0.061087035
v 1.0448908 0.4462225 0.061087035
v 1.0288544 0.4622589 0.061087035
v 0.16099793 0.46974304 0.06108734
v 0.13640808 0.46226013 0.06108734
v 0.12037292 0.44622374 0.06108734
v 1.0523748 0.4216339 -0.061088257
v 1.0523746 -0.42163268 -0.061088257
v 1.0523746 -0.4216333 0.061087035
v 1.0523748 0.4216339 0.061087035
v 0.11288879 0.4216339 -0.06108795
v 0.11288879 0.4216339 0.06108734
v 0.112889096 -0.42163268 0.06108734
v 0.112889096 -0.4216333 -0.06108795
v 0.12037292 0.44622374 0.06108734
v 0.11288879 0.4216339 0.06108734
v 0.11288879 0.4216339 -0.06108795
v 0.12037292 0.44622374 -0.06108795
v 0.13640808 0.46226013 0.06108734
v 0.1364093 0.46226013 -0.06108795
v 0.16099793 0.46974304 0.06108734
v 0.16099793 0.46974304 -0.06108795
v 1.0042651 0.46974304 0.061087035
v 1.0042657 0.46974242 -0.061088257
v 1.0288544 0.4622589 0.061087035
v 1.0288544 0.4622595 -0.061088257
v 1.0448908 0.4462225 0.061087035
v 1.0448914 0.44622314 -0.061088257
v 1.0523748 0.4216339 0.061087035
v 1.0523748 0.4216339 -0.061088257
v 0.037483826 -0.37875488 0.06108734
v 9.155273E-07 -0.37875488 0.06108734
v -0 0.37875548 0.06108734
v 0.03748291 0.37875548 0.06108734
v 0.03748291 0.37875548 0.06108734
v 0.03748352 0.3124768 0.03547699
v 0.037483826 -0.3124762 0.03547699
v 0.037483826 -0.37875488 0.06108734
v 0.037483826 -0.37875426 -0.06108795
v 0.037483215 -0.3124768 -0.0354776
v 0.03748352 0.3124768 0.03547699
v 0.11288818 0.3124768 0.03547699
v 0.112888485 -0.3124774 0.03547699
v 0.037483826 -0.3124762 0.03547699
v 0.037483215 -0.3124768 -0.0354776
v 0.037483826 -0.3124762 0.03547699
v 0.112888485 -0.3124774 0.03547699
v 0.112888485 -0.3124774 -0.0354776
v 0.037483826 -0.37875488 0.06108734
v 0.037483826 -0.37875426 -0.06108795
v 9.155273E-07 -0.37875488 -0.06108795
v 9.155273E-07 -0.37875488 0.06108734
v 0.03748352 0.37875548 -0.06108795
v -0 0.37875488 -0.06108795
v 9.155273E-07 -0.37875488 -0.06108795
v 0.037483826 -0.37875426 -0.06108795
v 0.037483826 -0.37875426 -0.06108795
v 0.037483215 -0.3124768 -0.0354776
v 0.03748352 0.3124768 -0.0354776
v 0.03748352 0.37875548 -0.06108795
v 0.03748291 0.37875548 0.06108734
v 0.03748352 0.3124768 0.03547699
v 0.037483215 -0.3124768 -0.0354776
v 0.112888485 -0.3124774 -0.0354776
v 0.11288818 0.3124768 -0.0354776
v 0.03748352 0.3124768 -0.0354776
v 0.03748352 0.3124768 0.03547699
v 0.03748352 0.3124768 -0.0354776
v 0.11288818 0.3124768 -0.0354776
v 0.11288818 0.3124768 0.03547699
v 0.03748352 0.37875548 -0.06108795
v 0.03748291 0.37875548 0.06108734
v -0 0.37875548 0.06108734
v -0 0.37875488 -0.06108795
v 1.0042657 0.46974242 -0.061088257
v 1.0448914 0.44622314 -0.061088257
v 1.0288544 0.4622595 -0.061088257
v 1.0523748 0.4216339 -0.061088257
v 0.11288879 0.4216339 -0.06108795
v 0.16099793 0.46974304 -0.06108795
v 0.1364093 0.46226013 -0.06108795
v 0.12037292 0.44622374 -0.06108795
v 0.112889096 -0.4216333 -0.06108795
v 1.0523746 -0.42163268 -0.061088257
v 1.0042654 -0.46974304 -0.061088257
v 1.0288546 -0.4622589 -0.061088257
v 1.044891 -0.4462225 -0.061088257
v 0.16099823 -0.46974304 -0.06108795
v 0.136409 -0.4622595 -0.06108795
v 0.120372616 -0.4462225 -0.06108795
vt 1.0419922 0.8100586
vt 1.0683594 0.8100586
vt 1.0683594 0.8046875
vt 1.0419922 0.8046875
vt 1.0683594 0.80126953
vt 1.0419922 0.80126953
vt 1.0683594 0.79589844
vt 1.0419922 0.79589844
vt 1.0683594 0.61376953
vt 1.0419922 0.61376953
vt 1.0683594 0.60839844
vt 1.0419922 0.60839844
vt 1.0683594 0.60498047
vt 1.0419922 0.60498047
vt 1.0683594 0.5996094
vt 1.0419922 0.5996094
vt 1.1689453 0.80078125
vt 1.1738281 0.7919922
vt 1.1699219 0.79541016
vt 1.1787109 0.79003906
vt 1.3603516 0.79003906
vt 1.3710938 0.80078125
vt 1.3662109 0.7919922
vt 1.3691406 0.79541016
vt 1.3710938 0.9824219
vt 1.1689453 0.9824219
vt 1.3603516 0.9926758
vt 1.3691406 0.98779297
vt 1.3662109 0.99121094
vt 1.1787109 0.9926758
vt 1.1738281 0.99121094
vt 1.1699219 0.98779297
vt 1.0419922 0.41674805
vt 1.0419922 0.5996094
vt 1.0683594 0.5996094
vt 1.0683594 0.41674805
vt 1.0419922 0.9926758
vt 1.0683594 0.9926758
vt 1.0683594 0.8100586
vt 1.0419922 0.8100586
vt 1.0683594 0.8046875
vt 1.0683594 0.8100586
vt 1.0419922 0.8100586
vt 1.0419922 0.8046875
vt 1.0683594 0.80126953
vt 1.0419922 0.80126953
vt 1.0683594 0.79589844
vt 1.0419922 0.79589844
vt 1.0683594 0.61376953
vt 1.0419922 0.61376953
vt 1.0683594 0.60839844
vt 1.0419922 0.60839844
vt 1.0683594 0.60498047
vt 1.0419922 0.60498047
vt 1.0683594 0.5996094
vt 1.0419922 0.5996094
vt 1.1230469 0.79003906
vt 1.1152344 0.79003906
vt 1.1152344 0.953125
vt 1.1230469 0.953125
vt 1.1308594 0.9682617
vt 1.1367188 0.95410156
vt 1.1367188 0.81933594
vt 1.1308594 0.8051758
vt 1.1572266 0.8051758
vt 1.1513672 0.81933594
vt 1.1435547 0.98779297
vt 1.1601562 0.98779297
vt 1.1601562 0.85302734
vt 1.1435547 0.85302734
vt 1.1435547 0.828125
vt 1.1435547 0.8432617
vt 1.1601562 0.8432617
vt 1.1601562 0.828125
vt 1.1308594 0.79785156
vt 1.1572266 0.79785156
vt 1.1572266 0.79003906
vt 1.1308594 0.79003906
vt 1.1230469 0.79003906
vt 1.1152344 0.79003906
vt 1.1152344 0.953125
vt 1.1230469 0.953125
vt 1.1308594 0.9682617
vt 1.1367188 0.95410156
vt 1.1367188 0.81933594
vt 1.1308594 0.8051758
vt 1.1572266 0.8051758
vt 1.1513672 0.81933594
vt 1.1435547 0.98779297
vt 1.1601562 0.98779297
vt 1.1601562 0.85302734
vt 1.1435547 0.85302734
vt 1.1435547 0.828125
vt 1.1435547 0.8432617
vt 1.1601562 0.8432617
vt 1.1601562 0.828125
vt 1.1308594 0.79785156
vt 1.1572266 0.79785156
vt 1.1572266 0.79003906
vt 1.1308594 0.79003906
vt 1.1787109 0.9926758
vt 1.1699219 0.98779297
vt 1.1738281 0.99121094
vt 1.1689453 0.9824219
vt 1.3710938 0.9824219
vt 1.3603516 0.9926758
vt 1.3662109 0.99121094
vt 1.3691406 0.98779297
vt 1.3710938 0.80078125
vt 1.1689453 0.80078125
vt 1.1787109 0.79003906
vt 1.1738281 0.7919922
vt 1.1699219 0.79541016
vt 1.3603516 0.79003906
vt 1.3662109 0.7919922
vt 1.3691406 0.79541016
vn -0.9892578 -0.1472168 -4.7683716E-07
vn -0.9892578 -0.1472168 -4.7683716E-07
vn -0.8574219 -0.51464844 -4.7683716E-07
vn -0.8574219 -0.51464844 -4.7683716E-07
vn -0.51464844 -0.8574219 8.34465E-07
vn -0.51464844 -0.8574219 8.34465E-07
vn -0.1472168 -0.9892578 8.34465E-07
vn -0.1472168 -0.9892578 8.34465E-07
vn 0.1472168 -0.9892578 -8.34465E-07
vn 0.1472168 -0.9892578 -8.34465E-07
vn 0.51464844 -0.8574219 -2.682209E-06
vn 0.51464844 -0.8574219 -2.682209E-06
vn 0.8574219 -0.51464844 -2.5629997E-06
vn 0.8574219 -0.51464844 -2.5629997E-06
vn 0.9892578 -0.1472168 -7.1525574E-07
vn 0.9892578 -0.1472168 -7.1525574E-07
vn -0 0 1
vn -0 0 1
vn -0 0 1
vn -0 0 1
vn 3.5762787E-07 0 1
vn 2.9802322E-07 0 1
vn -0 0 1
vn -0 0 1
vn 2.9802322E-07 0 1
vn 2.9802322E-07 0 1
vn 3.5762787E-07 0 1
vn -0 0 1
vn -0 0 1
vn 3.5762787E-07 0 1
vn -0 0 1
vn -0 0 1
vn 0.9892578 0.1472168 1.5497208E-06
vn 0.9892578 -0.1472168 -7.1525574E-07
vn 0.9892578 -0.1472168 -7.1525574E-07
vn 0.9892578 0.1472168 1.5497208E-06
vn -0.9892578 0.1472168 0
vn -0.9892578 0.1472168 0
vn -0.9892578 -0.1472168 -4.7683716E-07
vn -0.9892578 -0.1472168 -4.7683716E-07
vn -0.8574219 0.51464844 -1.847744E-06
vn -0.9892578 0.1472168 0
vn -0.9892578 0.1472168 0
vn -0.8574219 0.51464844 -1.847744E-06
vn -0.51464844 0.8574219 -2.5629997E-06
vn -0.51464844 0.8574219 -2.5629997E-06
vn -0.1472168 0.9892578 -2.026558E-06
vn -0.1472168 0.9892578 -2.026558E-06
vn 0.1472168 0.9892578 -8.940697E-07
vn 0.1472168 0.9892578 -8.940697E-07
vn 0.51464844 0.8574219 3.0994415E-06
vn 0.51464844 0.8574219 3.0994415E-06
vn 0.8574219 0.51464844 4.351139E-06
vn 0.8574219 0.51464844 4.351139E-06
vn 0.9892578 0.1472168 1.5497208E-06
vn 0.9892578 0.1472168 1.5497208E-06
vn -0 0 1
vn -0 0 1
vn -0 0 1
vn -0 0 1
vn 1 8.940697E-07 1.1920929E-05
vn 1 8.940697E-07 1.1920929E-05
vn 1 2.4437904E-06 5.722046E-06
vn 1 3.7550926E-06 3.5762787E-07
vn 1 4.5895576E-06 -3.1590462E-06
vn 1 4.5895576E-06 -3.1590462E-06
vn -0 0 1
vn -0 0 1
vn -0 0 1
vn -0 0 1
vn -1.21593475E-05 -1 4.2915344E-06
vn -1.21593475E-05 -1 4.2915344E-06
vn -1.21593475E-05 -1 4.2915344E-06
vn -1.21593475E-05 -1 4.2915344E-06
vn 8.165836E-06 -1 -2.503395E-06
vn 8.165836E-06 -1 -2.503395E-06
vn 8.165836E-06 -1 -2.503395E-06
vn 8.165836E-06 -1 -2.503395E-06
vn -0 0 -1
vn -0 0 -1
vn -0 0 -1
vn -0 0 -1
vn 1 0 1.1920929E-05
vn 1 0 1.1920929E-05
vn 1 1.9073486E-06 8.285046E-06
vn 1 3.516674E-06 5.2452087E-06
vn 1 4.5895576E-06 3.1590462E-06
vn 1 4.5895576E-06 3.1590462E-06
vn -0 0 -1
vn -0 0 -1
vn -0 0 -1
vn -0 0 -1
vn -0 1 0
vn -0 1 0
vn -0 1 0
vn -0 1 0
vn -8.165836E-06 1 -2.503395E-06
vn -8.165836E-06 1 -2.503395E-06
vn -8.165836E-06 1 -2.503395E-06
vn -8.165836E-06 1 -2.503395E-06
vn -3.5762787E-07 0 -1
vn -0 0 -1
vn -0 0 -1
vn -2.9802322E-07 0 -1
vn -2.9802322E-07 0 -1
vn -3.5762787E-07 0 -1
vn -0 0 -1
vn -0 0 -1
vn -3.5762787E-07 0 -1
vn -3.5762787E-07 0 -1
vn -3.5762787E-07 0 -1
vn -0 0 -1
vn -0 0 -1
vn -3.5762787E-07 0 -1
vn -0 0 -1
vn -0 0 -1
g MainCity_Prop_AlbumStuff_03_0
f 3/3/3 2/2/2 1/1/1
f 4/4/4 3/3/3 1/1/1
f 3/3/3 4/4/4 5/5/5
f 4/4/4 6/6/6 5/5/5
f 5/5/5 6/6/6 7/7/7
f 6/6/6 8/8/8 7/7/7
f 7/7/7 8/8/8 9/9/9
f 8/8/8 10/10/10 9/9/9
f 11/11/11 9/9/9 10/10/10
f 12/12/12 11/11/11 10/10/10
f 11/11/11 12/12/12 13/13/13
f 12/12/12 14/14/14 13/13/13
f 13/13/13 14/14/14 15/15/15
f 14/14/14 16/16/16 15/15/15
f 19/19/19 18/18/18 17/17/17
f 18/18/18 20/20/20 17/17/17
f 17/17/17 20/20/20 21/21/21
f 22/22/22 17/17/17 21/21/21
f 22/22/22 21/21/21 23/23/23
f 24/24/24 22/22/22 23/23/23
f 17/17/17 22/22/22 25/25/25
f 26/26/26 17/17/17 25/25/25
f 26/26/26 25/25/25 27/27/27
f 27/27/27 25/25/25 28/28/28
f 29/29/29 27/27/27 28/28/28
f 30/30/30 26/26/26 27/27/27
f 26/26/26 30/30/30 31/31/31
f 32/32/32 26/26/26 31/31/31
f 35/35/35 34/34/34 33/33/33
f 36/36/36 35/35/35 33/33/33
f 39/39/39 38/38/38 37/37/37
f 40/40/40 39/39/39 37/37/37
f 43/43/43 42/42/42 41/41/41
f 44/44/44 43/43/43 41/41/41
f 44/44/44 41/41/41 45/45/45
f 46/46/46 44/44/44 45/45/45
f 46/46/46 45/45/45 47/47/47
f 48/48/48 46/46/46 47/47/47
f 48/48/48 47/47/47 49/49/49
f 50/50/50 48/48/48 49/49/49
f 50/50/50 49/49/49 51/51/51
f 52/52/52 50/50/50 51/51/51
f 52/52/52 51/51/51 53/53/53
f 54/54/54 52/52/52 53/53/53
f 54/54/54 53/53/53 55/55/55
f 56/56/56 54/54/54 55/55/55
f 59/59/59 58/58/58 57/57/57
f 60/60/60 59/59/59 57/57/57
f 63/63/63 62/62/62 61/61/61
f 64/64/64 63/63/63 61/61/61
f 63/63/63 64/64/64 65/65/65
f 66/66/66 63/63/63 65/65/65
f 69/69/69 68/68/68 67/67/67
f 70/70/70 69/69/69 67/67/67
f 73/73/73 72/72/72 71/71/71
f 74/74/74 73/73/73 71/71/71
f 77/77/77 76/76/76 75/75/75
f 78/78/78 77/77/77 75/75/75
f 81/81/81 80/80/80 79/79/79
f 82/82/82 81/81/81 79/79/79
f 85/85/85 84/84/84 83/83/83
f 86/86/86 85/85/85 83/83/83
f 85/85/85 86/86/86 87/87/87
f 88/88/88 85/85/85 87/87/87
f 91/91/91 90/90/90 89/89/89
f 92/92/92 91/91/91 89/89/89
f 95/95/95 94/94/94 93/93/93
f 96/96/96 95/95/95 93/93/93
f 99/99/99 98/98/98 97/97/97
f 100/100/100 99/99/99 97/97/97
f 103/103/103 102/102/102 101/101/101
f 102/102/102 104/104/104 101/101/101
f 101/101/101 104/104/104 105/105/105
f 106/106/106 101/101/101 105/105/105
f 107/107/107 106/106/106 105/105/105
f 108/108/108 107/107/107 105/105/105
f 105/105/105 104/104/104 109/109/109
f 104/104/104 110/110/110 109/109/109
f 110/110/110 111/111/111 109/109/109
f 112/112/112 111/111/111 110/110/110
f 113/113/113 112/112/112 110/110/110
f 111/111/111 114/114/114 109/109/109
f 109/109/109 114/114/114 115/115/115
f 116/116/116 109/109/109 115/115/115
