g Eff_Corin_Saw_03
v -0.09258691 -4.6424674E-08 0.2849526
v -0.10149181 -0.024930855 0.28190374
v -0.10149181 -4.5927955E-08 0.28190374
v -0.09258691 -0.024930855 0.2849526
v -0.10149181 -0.04986167 0.28190374
v -0.08359066 -4.6875577E-08 0.28772023
v -0.09258691 -0.04986167 0.2849526
v -0.08359066 -0.024930859 0.28772023
v -0.074511886 -4.7280217E-08 0.2902039
v -0.08359066 -0.04986167 0.28772023
v -0.074511886 -0.024930859 0.2902039
v -0.06535959 -4.76382E-08 0.29240116
v -0.074511886 -0.04986167 0.2902039
v -0.06535959 -0.024930859 0.29240116
v -0.056142796 -4.7949168E-08 0.29430988
v -0.06535959 -0.04986167 0.29240116
v -0.056142796 -0.024930859 0.29430988
v -0.046870593 -4.821282E-08 0.29592815
v -0.056142796 -0.04986167 0.29430988
v -0.046870593 -0.024930859 0.29592815
v -0.037552133 -4.8428888E-08 0.29725435
v -0.046870593 -0.04986167 0.29592815
v -0.037552133 -0.024930859 0.29725435
v -0.028196612 -4.8597162E-08 0.29828724
v -0.037552133 -0.04986167 0.29725435
v -0.028196612 -0.024930859 0.29828724
v -0.018813267 -4.8717474E-08 0.2990257
v -0.028196612 -0.04986167 0.29828724
v -0.018813267 -0.024930859 0.2990257
v -0.009411356 -4.8789712E-08 0.2994691
v -0.018813267 -0.04986167 0.2990257
v -0.009411356 -0.024930859 0.2994691
v -1.5596517E-07 -4.88138E-08 0.29961696
v -0.009411356 -0.04986167 0.2994691
v -1.5596517E-07 -0.024930859 0.29961696
v 0.0094110435 -4.8789715E-08 0.2994691
v -1.5596517E-07 -0.04986167 0.29961696
v 0.0094110435 -0.024930859 0.2994691
v 0.018812958 -4.871748E-08 0.29902574
v 0.0094110435 -0.04986167 0.2994691
v 0.018812958 -0.024930859 0.29902574
v 0.028196303 -4.8597165E-08 0.29828727
v 0.018812958 -0.04986167 0.29902574
v 0.028196303 -0.024930859 0.29828727
v 0.037551824 -4.8428895E-08 0.2972544
v 0.028196303 -0.04986167 0.29828727
v 0.037551824 -0.024930859 0.2972544
v 0.046870284 -4.8212826E-08 0.2959282
v 0.037551824 -0.04986167 0.2972544
v 0.046870284 -0.024930859 0.2959282
v 0.05614249 -4.794918E-08 0.29430994
v 0.046870284 -0.04986167 0.2959282
v 0.05614249 -0.024930859 0.29430994
v 0.06535929 -4.7638213E-08 0.29240125
v 0.05614249 -0.04986167 0.29430994
v 0.06535929 -0.024930859 0.29240125
v 0.07451159 -4.728023E-08 0.290204
v 0.06535929 -0.04986167 0.29240125
v 0.07451159 -0.024930859 0.290204
v 0.08359035 -4.6875588E-08 0.2877203
v 0.07451159 -0.04986167 0.290204
v 0.08359035 -0.024930859 0.2877203
v 0.09258662 -4.642469E-08 0.2849527
v 0.08359035 -0.04986167 0.2877203
v 0.09258662 -0.024930855 0.2849527
v 0.101491526 -4.5927973E-08 0.28190386
v 0.09258662 -0.04986167 0.2849527
v 0.101491526 -0.024930855 0.28190386
v 0.11029626 -4.538593E-08 0.27857685
v 0.101491526 -0.04986167 0.28190386
v 0.11029626 -0.024930855 0.27857685
v 0.11899214 -4.4799098E-08 0.27497488
v 0.11029626 -0.04986167 0.27857685
v 0.11899214 -0.024930855 0.27497488
v 0.12757061 -4.4168054E-08 0.27110156
v 0.11899214 -0.049861662 0.27497488
v 0.12757061 -0.024930855 0.27110156
v 0.13602316 -4.3493422E-08 0.2669607
v 0.12757061 -0.049861662 0.27110156
v 0.13602316 -0.024930853 0.2669607
v 0.1443415 -4.2775866E-08 0.2625564
v 0.13602316 -0.049861662 0.2669607
v 0.1443415 -0.024930853 0.2625564
v 0.15251735 -4.2016094E-08 0.25789294
v 0.1443415 -0.049861662 0.2625564
v 0.15251735 -0.024930853 0.25789294
v 0.16054273 -4.1214864E-08 0.25297502
v 0.15251735 -0.049861662 0.25789294
v 0.16054273 -0.024930852 0.25297502
v 0.16840963 -4.0372957E-08 0.24780743
v 0.16054273 -0.049861662 0.25297502
v 0.16840963 -0.024930852 0.24780743
v 0.17611037 -3.94912E-08 0.24239524
v 0.16840963 -0.04986166 0.24780743
v 0.17611037 -0.024930852 0.24239524
v 0.18363729 -3.8570473E-08 0.23674388
v 0.17611037 -0.04986166 0.24239524
v 0.18363729 -0.024930848 0.23674388
v 0.19098298 -3.7611688E-08 0.23085889
v 0.18363729 -0.04986166 0.23674388
v 0.19098298 -0.024930848 0.23085889
v 0.1981402 -3.661578E-08 0.22474605
v 0.19098298 -0.04986166 0.23085889
v 0.1981402 -0.024930846 0.22474605
v 0.20510186 -3.558374E-08 0.21841142
v 0.1981402 -0.04986166 0.22474605
v 0.20510186 -0.024930846 0.21841142
v 0.21186115 -3.4516578E-08 0.21186124
v 0.20510186 -0.049861655 0.21841142
v 0.21186115 -0.024930844 0.21186124
v 0.21841133 -3.3415354E-08 0.20510197
v 0.21186115 -0.049861655 0.21186124
v 0.21841133 -0.024930844 0.20510197
v 0.22474596 -3.228115E-08 0.1981403
v 0.21841133 -0.049861655 0.20510197
v 0.22474596 -0.024930844 0.1981403
v 0.2308588 -3.1115096E-08 0.19098309
v 0.22474596 -0.049861655 0.1981403
v 0.2308588 -0.024930842 0.19098309
v 0.2308588 -0.049861655 0.19098309
vt 0.02607441 0.0004999845
vt 0.00049996376 0.49860078
vt 0.00049996376 0.0004999845
vt 0.02607441 0.49860078
vt 0.00049996376 0.99670166
vt 0.051648855 0.0004999845
vt 0.02607441 0.99670166
vt 0.051648855 0.49860078
vt 0.0772233 0.0004999845
vt 0.051648855 0.99670166
vt 0.0772233 0.49860078
vt 0.10279775 0.0004999845
vt 0.0772233 0.99670166
vt 0.10279775 0.49860078
vt 0.12837243 0.0004999845
vt 0.10279775 0.99670166
vt 0.12837243 0.49860078
vt 0.15394682 0.0004999845
vt 0.12837243 0.99670166
vt 0.15394682 0.49860078
vt 0.17952132 0.0004999845
vt 0.15394682 0.99670166
vt 0.17952132 0.49860078
vt 0.20509571 0.0004999845
vt 0.17952132 0.99670166
vt 0.20509571 0.49860078
vt 0.23067039 0.0004999845
vt 0.20509571 0.99670166
vt 0.23067039 0.49860078
vt 0.25624484 0.0004999845
vt 0.23067039 0.99670166
vt 0.25624484 0.49860078
vt 0.28181928 0.0004999845
vt 0.25624484 0.99670166
vt 0.28181928 0.49860078
vt 0.3081913 0.0004999845
vt 0.28181928 0.99670166
vt 0.30792552 0.498601
vt 0.33456296 0.0004999845
vt 0.3081913 0.99670213
vt 0.33456296 0.49860132
vt 0.36013728 0.0004999845
vt 0.33456296 0.99670273
vt 0.36013728 0.49860132
vt 0.38571203 0.0004999845
vt 0.36013728 0.99670273
vt 0.38571203 0.49860132
vt 0.41128677 0.0004999845
vt 0.38571203 0.99670273
vt 0.41128677 0.49860132
vt 0.43686116 0.0004999845
vt 0.41128677 0.99670273
vt 0.43686116 0.49860132
vt 0.46243548 0.0004999845
vt 0.43686116 0.99670273
vt 0.46243548 0.49860132
vt 0.4880098 0.0004999845
vt 0.46243548 0.99670273
vt 0.4880098 0.49860132
vt 0.5135846 0.0004999845
vt 0.4880098 0.99670273
vt 0.5135846 0.49860132
vt 0.53915894 0.0004999845
vt 0.5135846 0.99670273
vt 0.53915894 0.49860132
vt 0.56473327 0.0004999845
vt 0.53915894 0.99670273
vt 0.56473327 0.49860132
vt 0.59030807 0.0004999845
vt 0.56473327 0.99670273
vt 0.59030807 0.49860132
vt 0.6158824 0.0004999845
vt 0.59030807 0.99670273
vt 0.6158824 0.49860132
vt 0.6414567 0.0004999845
vt 0.6158824 0.99670273
vt 0.6414567 0.49860132
vt 0.6670315 0.0004999845
vt 0.6414567 0.99670273
vt 0.6670315 0.49860132
vt 0.69260585 0.0004999845
vt 0.6670315 0.99670273
vt 0.69260585 0.49860132
vt 0.7181802 0.0004999845
vt 0.69260585 0.99670273
vt 0.7181802 0.49860132
vt 0.7437549 0.0004999845
vt 0.7181802 0.99670273
vt 0.7437549 0.49860132
vt 0.76932967 0.0004999845
vt 0.7437549 0.99670273
vt 0.76932967 0.49860132
vt 0.79490405 0.0004999845
vt 0.76932967 0.99670273
vt 0.79490405 0.49860132
vt 0.8204784 0.0004999845
vt 0.79490405 0.99670273
vt 0.8204784 0.49860132
vt 0.8460531 0.0004999845
vt 0.8204784 0.99670273
vt 0.8460531 0.49860132
vt 0.87162787 0.0004999845
vt 0.8460531 0.99670273
vt 0.87162787 0.49860132
vt 0.89720225 0.0004999845
vt 0.87162787 0.99670273
vt 0.89720225 0.49860132
vt 0.9227766 0.0004999845
vt 0.89720225 0.99670273
vt 0.9227766 0.49860132
vt 0.9483509 0.0004999845
vt 0.9227766 0.99670273
vt 0.9483509 0.49860132
vt 0.97392565 0.0004999845
vt 0.9483509 0.99670273
vt 0.97392565 0.49860132
vt 0.9995 0.0004999845
vt 0.97392565 0.99670273
vt 0.9995 0.49860132
vt 0.9995 0.99670273
vn -0.309019 0 0.95105594
vn -0.32391855 0 0.946085
vn -0.32391855 0 0.946085
vn -0.30901894 0 0.95105594
vn -0.32391852 0 0.946085
vn -0.27899173 0 0.9602935
vn -0.309019 0 0.95105594
vn -0.27899167 0 0.9602935
vn -0.24868974 0 0.9685832
vn -0.27899173 0 0.9602935
vn -0.24868974 0 0.9685832
vn -0.21814467 0 0.97591645
vn -0.24868974 0 0.9685832
vn -0.21814467 0 0.97591645
vn -0.18738174 0 0.9822872
vn -0.21814467 0 0.97591645
vn -0.18738176 0 0.9822872
vn -0.15643434 0 0.98768836
vn -0.18738176 0 0.9822872
vn -0.15643433 0 0.98768836
vn -0.1253339 0 0.9921146
vn -0.15643434 0 0.98768836
vn -0.12533389 0 0.9921146
vn -0.094108865 0 0.99556196
vn -0.1253339 0 0.9921146
vn -0.09410885 0 0.99556196
vn -0.06279059 0 0.99802667
vn -0.094108865 0 0.99556196
vn -0.06279059 0 0.99802667
vn -0.031411514 0 0.9995066
vn -0.06279059 0 0.99802667
vn -0.031411514 0 0.9995066
vn -1.0130918E-06 0 1
vn -0.031411514 0 0.9995066
vn -1.0132401E-06 0 1
vn 0.03140948 0 0.9995066
vn -1.0133883E-06 0 1
vn 0.03140948 0 0.9995066
vn 0.062789574 0 0.9980268
vn 0.03140948 0 0.9995066
vn 0.06278956 0 0.9980268
vn 0.094107844 0 0.99556196
vn 0.06278956 0 0.9980268
vn 0.094107844 0 0.99556196
vn 0.12533292 0 0.9921147
vn 0.094107844 0 0.99556196
vn 0.12533289 0 0.9921147
vn 0.15643433 0 0.98768836
vn 0.12533289 0 0.9921147
vn 0.15643433 0 0.98768836
vn 0.1873807 0 0.98228735
vn 0.15643433 0 0.98768836
vn 0.1873807 0 0.98228735
vn 0.21814269 0 0.9759169
vn 0.1873807 0 0.98228735
vn 0.21814266 0 0.9759169
vn 0.2486907 0 0.9685829
vn 0.21814266 0 0.9759169
vn 0.2486907 0 0.9685829
vn 0.27899072 0 0.96029377
vn 0.2486907 0 0.9685829
vn 0.27899072 0 0.96029377
vn 0.30901596 0 0.9510569
vn 0.27899072 0 0.96029377
vn 0.30901593 0 0.9510569
vn 0.33873808 0 0.94088066
vn 0.30901593 0 0.9510569
vn 0.33873808 0 0.94088066
vn 0.3681242 0 0.9297766
vn 0.3387381 0 0.94088066
vn 0.3681242 0 0.9297766
vn 0.39714795 0 0.9177546
vn 0.3681242 0 0.9297766
vn 0.39714792 0 0.9177546
vn 0.42577899 0 0.90482724
vn 0.39714795 0 0.9177546
vn 0.42577896 0 0.9048271
vn 0.45398948 0 0.89100707
vn 0.42577899 0 0.90482724
vn 0.45398948 0 0.89100707
vn 0.48175398 0 0.87630653
vn 0.45398942 0 0.89100707
vn 0.48175398 0 0.87630653
vn 0.50904095 0 0.8607423
vn 0.48175398 0 0.87630653
vn 0.5090411 0 0.8607423
vn 0.5358261 0 0.84432834
vn 0.5090411 0 0.8607423
vn 0.5358261 0 0.8443284
vn 0.56208396 0 0.8270802
vn 0.5358261 0 0.8443284
vn 0.5620839 0 0.8270802
vn 0.5877851 0 0.80901706
vn 0.5620839 0 0.8270803
vn 0.5877851 0 0.80901706
vn 0.6129062 0 0.7901557
vn 0.5877851 0 0.80901706
vn 0.61290616 0 0.79015577
vn 0.6374235 0 0.7705136
vn 0.61290616 0 0.7901557
vn 0.6374235 0 0.7705136
vn 0.6613119 0 0.750111
vn 0.63742346 0 0.7705136
vn 0.6613119 0 0.750111
vn 0.68454653 0 0.7289692
vn 0.6613119 0 0.750111
vn 0.68454653 0 0.7289693
vn 0.7071068 0 0.70710677
vn 0.68454653 0 0.7289693
vn 0.70710677 0 0.70710677
vn 0.7289693 0 0.68454653
vn 0.70710677 0 0.70710677
vn 0.7289692 0 0.68454653
vn 0.750111 0 0.661312
vn 0.7289692 0 0.68454653
vn 0.750111 0 0.6613119
vn 0.7604056 0 0.6494485
vn 0.750111 0 0.6613119
vn 0.7604056 0 0.6494485
vn 0.7604056 0 0.6494485
g Eff_Corin_Saw_03_0
f 3/3/3 2/2/2 1/1/1
f 4/4/4 1/1/1 2/2/2
f 2/2/2 5/5/5 4/4/4
f 1/1/1 4/4/4 6/6/6
f 7/7/7 4/4/4 5/5/5
f 8/8/8 6/6/6 4/4/4
f 4/4/4 7/7/7 8/8/8
f 6/6/6 8/8/8 9/9/9
f 10/10/10 8/8/8 7/7/7
f 11/11/11 9/9/9 8/8/8
f 8/8/8 10/10/10 11/11/11
f 9/9/9 11/11/11 12/12/12
f 13/13/13 11/11/11 10/10/10
f 14/14/14 12/12/12 11/11/11
f 11/11/11 13/13/13 14/14/14
f 12/12/12 14/14/14 15/15/15
f 16/16/16 14/14/14 13/13/13
f 17/17/17 15/15/15 14/14/14
f 14/14/14 16/16/16 17/17/17
f 15/15/15 17/17/17 18/18/18
f 19/19/19 17/17/17 16/16/16
f 20/20/20 18/18/18 17/17/17
f 17/17/17 19/19/19 20/20/20
f 18/18/18 20/20/20 21/21/21
f 22/22/22 20/20/20 19/19/19
f 23/23/23 21/21/21 20/20/20
f 20/20/20 22/22/22 23/23/23
f 21/21/21 23/23/23 24/24/24
f 25/25/25 23/23/23 22/22/22
f 26/26/26 24/24/24 23/23/23
f 23/23/23 25/25/25 26/26/26
f 24/24/24 26/26/26 27/27/27
f 28/28/28 26/26/26 25/25/25
f 29/29/29 27/27/27 26/26/26
f 26/26/26 28/28/28 29/29/29
f 27/27/27 29/29/29 30/30/30
f 31/31/31 29/29/29 28/28/28
f 32/32/32 30/30/30 29/29/29
f 29/29/29 31/31/31 32/32/32
f 30/30/30 32/32/32 33/33/33
f 34/34/34 32/32/32 31/31/31
f 35/35/35 33/33/33 32/32/32
f 32/32/32 34/34/34 35/35/35
f 33/33/33 35/35/35 36/36/36
f 37/37/37 35/35/35 34/34/34
f 38/38/38 36/36/36 35/35/35
f 35/35/35 37/37/37 38/38/38
f 36/36/36 38/38/38 39/39/39
f 40/40/40 38/38/38 37/37/37
f 41/41/41 39/39/39 38/38/38
f 38/38/38 40/40/40 41/41/41
f 39/39/39 41/41/41 42/42/42
f 43/43/43 41/41/41 40/40/40
f 44/44/44 42/42/42 41/41/41
f 41/41/41 43/43/43 44/44/44
f 42/42/42 44/44/44 45/45/45
f 46/46/46 44/44/44 43/43/43
f 47/47/47 45/45/45 44/44/44
f 44/44/44 46/46/46 47/47/47
f 45/45/45 47/47/47 48/48/48
f 49/49/49 47/47/47 46/46/46
f 50/50/50 48/48/48 47/47/47
f 47/47/47 49/49/49 50/50/50
f 48/48/48 50/50/50 51/51/51
f 52/52/52 50/50/50 49/49/49
f 53/53/53 51/51/51 50/50/50
f 50/50/50 52/52/52 53/53/53
f 51/51/51 53/53/53 54/54/54
f 55/55/55 53/53/53 52/52/52
f 56/56/56 54/54/54 53/53/53
f 53/53/53 55/55/55 56/56/56
f 54/54/54 56/56/56 57/57/57
f 58/58/58 56/56/56 55/55/55
f 59/59/59 57/57/57 56/56/56
f 56/56/56 58/58/58 59/59/59
f 57/57/57 59/59/59 60/60/60
f 61/61/61 59/59/59 58/58/58
f 62/62/62 60/60/60 59/59/59
f 59/59/59 61/61/61 62/62/62
f 60/60/60 62/62/62 63/63/63
f 64/64/64 62/62/62 61/61/61
f 65/65/65 63/63/63 62/62/62
f 62/62/62 64/64/64 65/65/65
f 63/63/63 65/65/65 66/66/66
f 67/67/67 65/65/65 64/64/64
f 68/68/68 66/66/66 65/65/65
f 65/65/65 67/67/67 68/68/68
f 66/66/66 68/68/68 69/69/69
f 70/70/70 68/68/68 67/67/67
f 71/71/71 69/69/69 68/68/68
f 68/68/68 70/70/70 71/71/71
f 69/69/69 71/71/71 72/72/72
f 73/73/73 71/71/71 70/70/70
f 74/74/74 72/72/72 71/71/71
f 71/71/71 73/73/73 74/74/74
f 72/72/72 74/74/74 75/75/75
f 76/76/76 74/74/74 73/73/73
f 77/77/77 75/75/75 74/74/74
f 74/74/74 76/76/76 77/77/77
f 75/75/75 77/77/77 78/78/78
f 79/79/79 77/77/77 76/76/76
f 80/80/80 78/78/78 77/77/77
f 77/77/77 79/79/79 80/80/80
f 78/78/78 80/80/80 81/81/81
f 82/82/82 80/80/80 79/79/79
f 83/83/83 81/81/81 80/80/80
f 80/80/80 82/82/82 83/83/83
f 81/81/81 83/83/83 84/84/84
f 85/85/85 83/83/83 82/82/82
f 86/86/86 84/84/84 83/83/83
f 83/83/83 85/85/85 86/86/86
f 84/84/84 86/86/86 87/87/87
f 88/88/88 86/86/86 85/85/85
f 89/89/89 87/87/87 86/86/86
f 86/86/86 88/88/88 89/89/89
f 87/87/87 89/89/89 90/90/90
f 91/91/91 89/89/89 88/88/88
f 92/92/92 90/90/90 89/89/89
f 89/89/89 91/91/91 92/92/92
f 90/90/90 92/92/92 93/93/93
f 94/94/94 92/92/92 91/91/91
f 95/95/95 93/93/93 92/92/92
f 92/92/92 94/94/94 95/95/95
f 93/93/93 95/95/95 96/96/96
f 97/97/97 95/95/95 94/94/94
f 98/98/98 96/96/96 95/95/95
f 95/95/95 97/97/97 98/98/98
f 96/96/96 98/98/98 99/99/99
f 100/100/100 98/98/98 97/97/97
f 101/101/101 99/99/99 98/98/98
f 98/98/98 100/100/100 101/101/101
f 99/99/99 101/101/101 102/102/102
f 103/103/103 101/101/101 100/100/100
f 104/104/104 102/102/102 101/101/101
f 101/101/101 103/103/103 104/104/104
f 102/102/102 104/104/104 105/105/105
f 106/106/106 104/104/104 103/103/103
f 107/107/107 105/105/105 104/104/104
f 104/104/104 106/106/106 107/107/107
f 105/105/105 107/107/107 108/108/108
f 109/109/109 107/107/107 106/106/106
f 110/110/110 108/108/108 107/107/107
f 107/107/107 109/109/109 110/110/110
f 108/108/108 110/110/110 111/111/111
f 112/112/112 110/110/110 109/109/109
f 113/113/113 111/111/111 110/110/110
f 110/110/110 112/112/112 113/113/113
f 111/111/111 113/113/113 114/114/114
f 115/115/115 113/113/113 112/112/112
f 116/116/116 114/114/114 113/113/113
f 113/113/113 115/115/115 116/116/116
f 114/114/114 116/116/116 117/117/117
f 118/118/118 116/116/116 115/115/115
f 119/119/119 117/117/117 116/116/116
f 116/116/116 118/118/118 119/119/119
f 120/120/120 119/119/119 118/118/118
