g Monster_GuardianPro_Mod_01
v 0.76007056 0.06738047 0.06612602
v 0.7189615 0.14324573 0.21286537
v 0.6999319 0.18085438 0.18234275
v 0.7189615 0.14324573 0.21286537
v 0.76007056 0.06738047 0.06612602
v 0.760782 0.03901349 0.07884972
v 0.76007056 0.06738047 0.06612602
v 0.6999319 0.18085438 0.18234275
v 0.7494998 0.08372815 0.03338928
v 0.76007056 0.06738047 -0.07304878
v 0.6999319 0.18085438 -0.18926552
v 0.7189615 0.14324573 -0.21978813
v 0.7189615 0.14324573 -0.21978813
v 0.760782 0.03901349 -0.08577248
v 0.76007056 0.06738047 -0.07304878
v 0.76007056 0.06738047 -0.07304878
v 0.7494998 0.08372815 -0.04031204
v 0.6999319 0.18085438 -0.18926552
v 0.6083108 0.16591688 0.16258308
v 0.6410941 0.095424995 0.05220741
v 0.69968367 0.098331906 0.015461578
v 0.6533629 0.18995629 0.16139793
v 0.6083108 0.16591688 0.16258308
v 0.59080464 0.12418 0.18409675
v 0.6183928 0.0656085 0.096474074
v 0.6410941 0.095424995 0.05220741
v 0.609389 0.08860825 0.21315604
v 0.6442156 0.020918569 0.109301835
v 0.6183928 0.0656085 0.096474074
v 0.59080464 0.12418 0.18409675
v 0.6535102 0.07897105 0.23401786
v 0.68550396 -0.003413356 0.108245164
v 0.6442156 0.020918569 0.109301835
v 0.609389 0.08860825 0.21315604
v 0.7189615 0.14324573 0.21286537
v 0.760782 0.03901349 0.07884972
v 0.7396473 -0.0022291436 0.08784248
v 0.6989972 0.100623995 0.2340441
v 0.6533629 0.18995629 0.16139793
v 0.69968367 0.098331906 0.015461578
v 0.7494998 0.08372815 0.03338928
v 0.6999319 0.18085438 0.18234275
v 0.6535102 0.07897105 0.23401786
v 0.6989972 0.100623995 0.2340441
v 0.7396473 -0.0022291436 0.08784248
v 0.68550396 -0.003413356 0.108245164
v 0.6159128 -0.1766444 0.16206536
v 0.66394895 -0.19799402 0.16170631
v 0.704218 -0.10082795 0.014421844
v 0.64207363 -0.10587717 0.04921547
v 0.5958725 -0.1337459 0.1845823
v 0.6159128 -0.1766444 0.16206536
v 0.64207363 -0.10587717 0.04921547
v 0.61462086 -0.073981985 0.094692
v 0.6151019 -0.09678347 0.21437171
v 0.5958725 -0.1337459 0.1845823
v 0.61462086 -0.073981985 0.094692
v 0.64065635 -0.024383634 0.11014579
v 0.659929 -0.08688413 0.23418464
v 0.6151019 -0.09678347 0.21437171
v 0.64065635 -0.024383634 0.11014579
v 0.68550396 -0.003413356 0.108245164
v 0.72481674 -0.14728604 0.21260154
v 0.7045159 -0.10724077 0.23304038
v 0.7396473 -0.0022291436 0.08784248
v 0.75629693 -0.05323514 0.07149529
v 0.7090127 -0.18498951 0.18321952
v 0.72481674 -0.14728604 0.21260154
v 0.75629693 -0.05323514 0.07149529
v 0.74696195 -0.08075752 0.033290405
v 0.66394895 -0.19799402 0.16170631
v 0.7090127 -0.18498951 0.18321952
v 0.74696195 -0.08075752 0.033290405
v 0.704218 -0.10082795 0.014421844
v 0.7396473 -0.0022291436 0.08784248
v 0.7045159 -0.10724077 0.23304038
v 0.659929 -0.08688413 0.23418464
v 0.68550396 -0.003413356 0.108245164
v 0.6083108 0.16591688 -0.16950583
v 0.6533629 0.18995629 -0.16832069
v 0.69968367 0.098331906 -0.022384338
v 0.6410941 0.095424995 -0.059130173
v 0.6083108 0.16591688 -0.16950583
v 0.6410941 0.095424995 -0.059130173
v 0.6183928 0.0656085 -0.10339683
v 0.59080464 0.12418 -0.1910195
v 0.609389 0.08860825 -0.22007881
v 0.59080464 0.12418 -0.1910195
v 0.6183928 0.0656085 -0.10339683
v 0.6442156 0.020918569 -0.116224594
v 0.6535102 0.07897105 -0.24094062
v 0.609389 0.08860825 -0.22007881
v 0.6442156 0.020918569 -0.116224594
v 0.68550396 -0.003413356 -0.11516792
v 0.7189615 0.14324573 -0.21978813
v 0.6989972 0.100623995 -0.24096687
v 0.7396473 -0.0022291436 -0.09476524
v 0.760782 0.03901349 -0.08577248
v 0.6533629 0.18995629 -0.16832069
v 0.6999319 0.18085438 -0.18926552
v 0.7494998 0.08372815 -0.04031204
v 0.69968367 0.098331906 -0.022384338
v 0.6535102 0.07897105 -0.24094062
v 0.68550396 -0.003413356 -0.11516792
v 0.7396473 -0.0022291436 -0.09476524
v 0.6989972 0.100623995 -0.24096687
v 0.6159128 -0.1766444 -0.16898811
v 0.64207363 -0.10587717 -0.05613823
v 0.704218 -0.10082795 -0.021344604
v 0.66394895 -0.19799402 -0.16862907
v 0.5958725 -0.1337459 -0.19150504
v 0.61462086 -0.073981985 -0.10161476
v 0.64207363 -0.10587717 -0.05613823
v 0.6159128 -0.1766444 -0.16898811
v 0.6151019 -0.09678347 -0.22129448
v 0.64065635 -0.024383634 -0.11706855
v 0.61462086 -0.073981985 -0.10161476
v 0.5958725 -0.1337459 -0.19150504
v 0.659929 -0.08688413 -0.2411074
v 0.68550396 -0.003413356 -0.11516792
v 0.64065635 -0.024383634 -0.11706855
v 0.6151019 -0.09678347 -0.22129448
v 0.72481674 -0.14728604 -0.21952431
v 0.75629693 -0.05323514 -0.078418046
v 0.7396473 -0.0022291436 -0.09476524
v 0.7045159 -0.10724077 -0.23996314
v 0.7090127 -0.18498951 -0.19014229
v 0.74696195 -0.08075752 -0.040213164
v 0.75629693 -0.05323514 -0.078418046
v 0.72481674 -0.14728604 -0.21952431
v 0.66394895 -0.19799402 -0.16862907
v 0.704218 -0.10082795 -0.021344604
v 0.74696195 -0.08075752 -0.040213164
v 0.7090127 -0.18498951 -0.19014229
v 0.7396473 -0.0022291436 -0.09476524
v 0.68550396 -0.003413356 -0.11516792
v 0.659929 -0.08688413 -0.2411074
v 0.7045159 -0.10724077 -0.23996314
v -1.0997076 0.0957691 0.38795614
v -1.1600343 0.10015668 0.3639367
v -1.0707084 0.052824225 0.12694083
v -0.9994812 0.0426957 0.12694083
v -1.1600343 0.10015668 0.3639367
v -1.2084312 0.05837817 0.3541619
v -1.1249027 0.012281627 0.12693992
v -1.0707084 0.052824225 0.12694083
v -1.1249027 0.012281627 0.12693992
v -1.2084312 0.05837817 0.3541619
v -1.2170486 -0.0045718155 0.36405602
v -1.1303184 -0.05518261 0.12694083
v -1.1303184 -0.05518261 0.12694083
v -1.2170486 -0.0045718155 0.36405602
v -1.1813534 -0.05236267 0.3877349
v -1.0837827 -0.11004888 0.12694083
v -1.0837827 -0.11004888 0.12694083
v -1.1813534 -0.05236267 0.3877349
v -1.1218076 -0.057517868 0.41160986
v -1.0125554 -0.12017723 0.1269419
v -1.0125554 -0.12017723 0.1269419
v -1.1218076 -0.057517868 0.41160986
v -1.0727364 -0.016510054 0.42180517
v -0.9583608 -0.07963468 0.1269419
v -1.0727364 -0.016510054 0.42180517
v -1.0633361 0.04721063 0.41205558
v -0.9529452 -0.012170646 0.1269419
v -0.9583608 -0.07963468 0.1269419
v -1.0633361 0.04721063 0.41205558
v -1.0997076 0.0957691 0.38795614
v -0.9994812 0.0426957 0.12694083
v -0.9529452 -0.012170646 0.1269419
vt 0.5718477 0.7493627
vt 0.0005771364 0.730212
vt 0.0005771364 0.79748654
vt 0.0005771364 0.730212
vt 0.5718477 0.7493627
vt 0.5868225 0.7095363
vt 0.5718477 0.7493627
vt 0.0005771364 0.79748654
vt 0.6259182 0.79427576
vt 0.5718477 0.7493627
vt 0.0005771364 0.79748654
vt 0.0005771364 0.730212
vt 0.0005771364 0.730212
vt 0.5868225 0.7095363
vt 0.5718477 0.7493627
vt 0.5718477 0.7493627
vt 0.6259182 0.79427576
vt 0.0005771364 0.79748654
vt 0.0005771364 0.93307114
vt 0.45721623 0.93474674
vt 0.6070431 0.86497283
vt 0.0005771364 0.86555123
vt 0.0005771364 0.93307114
vt 0.0005771364 1.0002081
vt 0.35820097 1.0002081
vt 0.45721623 0.93474674
vt 0.0005771364 0.5337813
vt 0.42595935 0.53283143
vt 0.35708842 0.4691527
vt 0.0005771364 0.4691527
vt 0.0005771364 0.5978446
vt 0.51141137 0.58585525
vt 0.42595935 0.53283143
vt 0.0005771364 0.5337813
vt 0.0005771364 0.730212
vt 0.5868225 0.7095363
vt 0.6156253 0.64966154
vt 0.0005771364 0.6632366
vt 0.0005771364 0.86555123
vt 0.6070431 0.86497283
vt 0.6259182 0.79427576
vt 0.0005771364 0.79748654
vt 0.0005771364 0.5978446
vt 0.0005771364 0.6632366
vt 0.6156253 0.64966154
vt 0.51141137 0.58585525
vt -4.79687E-05 0.9301402
vt -4.79687E-05 1.0010278
vt 0.6295247 1.0010278
vt 0.46856293 0.9301402
vt -4.79687E-05 0.86019653
vt -4.79687E-05 0.9301402
vt 0.46856293 0.9301402
vt 0.37784064 0.86019653
vt -4.79687E-05 0.7923979
vt -4.79687E-05 0.86019653
vt 0.37784064 0.86019653
vt 0.4476867 0.7923979
vt -4.79687E-05 0.731777
vt -4.79687E-05 0.7923979
vt 0.4476867 0.7923979
vt 0.5268955 0.731777
vt -4.79687E-05 0.5999146
vt -4.79687E-05 0.6676649
vt 0.6291159 0.6676649
vt 0.5919086 0.5999146
vt -4.79687E-05 0.53705233
vt -4.79687E-05 0.5999146
vt 0.5919086 0.5999146
vt 0.6409965 0.53705233
vt -4.79687E-05 0.47045445
vt -4.79687E-05 0.53705233
vt 0.6409965 0.53705233
vt 0.6266685 0.47045445
vt 0.6291159 0.6676649
vt -4.79687E-05 0.6676649
vt -4.79687E-05 0.731777
vt 0.5268955 0.731777
vt 0.0005771364 0.93307114
vt 0.0005771364 0.86555123
vt 0.6070431 0.86497283
vt 0.45721623 0.93474674
vt 0.0005771364 0.93307114
vt 0.45721623 0.93474674
vt 0.35820097 1.0002081
vt 0.0005771364 1.0002081
vt 0.0005771364 0.5337813
vt 0.0005771364 0.4691527
vt 0.35708842 0.4691527
vt 0.42595935 0.53283143
vt 0.0005771364 0.5978446
vt 0.0005771364 0.5337813
vt 0.42595935 0.53283143
vt 0.51141137 0.58585525
vt 0.0005771364 0.730212
vt 0.0005771364 0.6632366
vt 0.6156253 0.64966154
vt 0.5868225 0.7095363
vt 0.0005771364 0.86555123
vt 0.0005771364 0.79748654
vt 0.6259182 0.79427576
vt 0.6070431 0.86497283
vt 0.0005771364 0.5978446
vt 0.51141137 0.58585525
vt 0.6156253 0.64966154
vt 0.0005771364 0.6632366
vt -4.79687E-05 0.9301402
vt 0.46856293 0.9301402
vt 0.6295247 1.0010278
vt -4.79687E-05 1.0010278
vt -4.79687E-05 0.86019653
vt 0.37784064 0.86019653
vt 0.46856293 0.9301402
vt -4.79687E-05 0.9301402
vt -4.79687E-05 0.7923979
vt 0.4476867 0.7923979
vt 0.37784064 0.86019653
vt -4.79687E-05 0.86019653
vt -4.79687E-05 0.731777
vt 0.5268955 0.731777
vt 0.4476867 0.7923979
vt -4.79687E-05 0.7923979
vt -4.79687E-05 0.5999146
vt 0.5919086 0.5999146
vt 0.6291159 0.6676649
vt -4.79687E-05 0.6676649
vt -4.79687E-05 0.53705233
vt 0.6409965 0.53705233
vt 0.5919086 0.5999146
vt -4.79687E-05 0.5999146
vt -4.79687E-05 0.47045445
vt 0.6266685 0.47045445
vt 0.6409965 0.53705233
vt -4.79687E-05 0.53705233
vt 0.6291159 0.6676649
vt 0.5268955 0.731777
vt -4.79687E-05 0.731777
vt -4.79687E-05 0.6676649
vt 0.0042465143 0.16781843
vt 0.0042465143 0.22138801
vt 0.54221195 0.22138801
vt 0.5956331 0.16781843
vt 0.0042465143 0.22138801
vt 0.0042465143 0.2748487
vt 0.52151424 0.2748487
vt 0.54221195 0.22138801
vt 0.52151424 0.2748487
vt 0.0042465143 0.2748487
vt 0.0042465143 0.32815433
vt 0.54152244 0.32815433
vt 0.54152244 0.32815433
vt 0.0042465143 0.32815433
vt 0.0042465143 0.38135025
vt 0.59564 0.38135025
vt 0.59564 0.38135025
vt 0.0042465143 0.38135025
vt 0.0042465143 0.4345473
vt 0.64721364 0.4345473
vt 0.64419216 0.007481752
vt 0.0042465143 0.007481752
vt 0.0042465143 0.06078762
vt 0.6697548 0.06078762
vt 0.0042465143 0.06078762
vt 0.0042465143 0.11424807
vt 0.6490515 0.11424807
vt 0.6697548 0.06078762
vt 0.0042465143 0.11424807
vt 0.0042465143 0.16781843
vt 0.5956331 0.16781843
vt 0.6490515 0.11424807
vn 0.88839203 0.45893872 0.011608674
vn 0.88839215 0.45893875 0.011608675
vn 0.88839215 0.45893875 0.011608675
vn 0.9703649 0.118735924 0.21046063
vn 0.9703649 0.1187359 0.2104606
vn 0.9703649 0.118735924 0.2104606
vn 0.86849725 0.49456283 -0.03346962
vn 0.86849725 0.49456283 -0.03346962
vn 0.86849725 0.49456283 -0.033469625
vn 0.88839203 0.45893872 -0.011608674
vn 0.88839215 0.45893875 -0.011608675
vn 0.88839215 0.45893875 -0.011608675
vn 0.9703649 0.118735924 -0.21046063
vn 0.9703649 0.118735924 -0.2104606
vn 0.9703649 0.1187359 -0.2104606
vn 0.86849725 0.49456283 0.03346962
vn 0.86849725 0.49456283 0.033469625
vn 0.86849725 0.49456283 0.03346962
vn -0.3965076 0.71564144 -0.5750122
vn -0.39650756 0.7156414 -0.57501227
vn -0.3965076 0.71564144 -0.57501227
vn -0.3965076 0.71564144 -0.5750122
vn -0.91016316 0.16027242 -0.38198912
vn -0.9101633 0.16027242 -0.3819891
vn -0.91016316 0.16027239 -0.38198906
vn -0.91016316 0.16027245 -0.3819891
vn -0.88028646 -0.4737591 0.025457162
vn -0.88028646 -0.47375906 0.025457162
vn -0.88028646 -0.47375906 0.025457162
vn -0.88028646 -0.47375906 0.02545716
vn -0.41754684 -0.8114809 0.40884396
vn -0.41754684 -0.8114809 0.40884393
vn -0.41754684 -0.8114809 0.40884396
vn -0.41754687 -0.8114809 0.40884396
vn 0.85716265 -0.26014182 0.44452044
vn 0.85716265 -0.26014185 0.4445204
vn 0.85716265 -0.26014185 0.4445204
vn 0.85716265 -0.26014182 0.44452044
vn 0.37088603 0.8322398 -0.4120928
vn 0.3708859 0.8322398 -0.4120928
vn 0.37088594 0.8322398 -0.4120928
vn 0.37088594 0.8322398 -0.41209283
vn 0.293123 -0.7519661 0.59044534
vn 0.293123 -0.7519661 0.59044534
vn 0.293123 -0.7519661 0.5904454
vn 0.293123 -0.7519661 0.59044534
vn -0.2953436 -0.76653075 -0.57026565
vn -0.2953436 -0.76653075 -0.5702656
vn -0.2953436 -0.76653075 -0.5702656
vn -0.2953436 -0.76653075 -0.5702656
vn -0.90060395 -0.24633609 -0.35809347
vn -0.90060395 -0.24633609 -0.35809353
vn -0.90060395 -0.24633609 -0.3580935
vn -0.90060395 -0.24633609 -0.3580935
vn -0.9004855 0.42652214 0.084880516
vn -0.9004855 0.42652217 0.08488052
vn -0.9004855 0.42652214 0.08488053
vn -0.9004855 0.42652217 0.08488052
vn -0.36978194 0.8053832 0.46327013
vn -0.36978197 0.8053832 0.46327016
vn -0.36978194 0.8053832 0.46327022
vn -0.36978194 0.8053832 0.46327022
vn 0.9050602 0.22032689 0.36376122
vn 0.9050602 0.22032689 0.36376122
vn 0.9050602 0.22032689 0.36376122
vn 0.9050602 0.22032689 0.36376125
vn 0.93752867 -0.34765744 -0.01320267
vn 0.93752867 -0.34765738 -0.01320267
vn 0.93752867 -0.34765735 -0.013202668
vn 0.93752867 -0.34765735 -0.01320267
vn 0.4789697 -0.78008914 -0.40255314
vn 0.47896963 -0.78008914 -0.40255317
vn 0.47896966 -0.7800892 -0.40255317
vn 0.47896966 -0.7800892 -0.40255317
vn 0.27606887 0.75911707 0.5895144
vn 0.2760689 0.75911707 0.5895144
vn 0.27606887 0.75911707 0.5895144
vn 0.27606887 0.75911707 0.5895144
vn -0.3965076 0.71564144 0.5750122
vn -0.3965076 0.71564144 0.5750122
vn -0.3965076 0.71564144 0.57501227
vn -0.39650756 0.7156414 0.57501227
vn -0.91016316 0.16027243 0.38198912
vn -0.91016316 0.1602725 0.38198912
vn -0.91016316 0.16027242 0.38198912
vn -0.91016316 0.1602725 0.38198912
vn -0.88028646 -0.4737591 -0.025457162
vn -0.88028646 -0.47375906 -0.02545716
vn -0.88028646 -0.47375906 -0.025457162
vn -0.88028646 -0.47375906 -0.025457162
vn -0.41754687 -0.8114809 -0.40884402
vn -0.41754687 -0.8114809 -0.40884402
vn -0.41754687 -0.8114809 -0.40884402
vn -0.41754684 -0.8114809 -0.40884393
vn 0.85716265 -0.26014182 -0.44452044
vn 0.85716265 -0.26014182 -0.44452044
vn 0.85716265 -0.26014185 -0.4445204
vn 0.85716265 -0.26014185 -0.4445204
vn 0.37088603 0.8322398 0.4120928
vn 0.37088594 0.8322398 0.41209283
vn 0.370886 0.8322398 0.4120928
vn 0.3708859 0.8322398 0.4120928
vn 0.293123 -0.7519661 -0.5904454
vn 0.293123 -0.7519661 -0.5904454
vn 0.29312304 -0.7519661 -0.5904454
vn 0.29312304 -0.7519661 -0.5904454
vn -0.2953436 -0.76653075 0.57026553
vn -0.2953436 -0.76653075 0.57026553
vn -0.2953436 -0.76653075 0.57026553
vn -0.2953436 -0.76653075 0.57026553
vn -0.90060407 -0.24633609 0.35809344
vn -0.90060407 -0.24633609 0.35809347
vn -0.90060395 -0.24633609 0.35809347
vn -0.90060407 -0.24633612 0.35809344
vn -0.9004855 0.42652205 -0.084880516
vn -0.9004855 0.42652214 -0.08488053
vn -0.9004855 0.42652214 -0.08488053
vn -0.9004855 0.42652214 -0.08488052
vn -0.36978194 0.8053832 -0.46327013
vn -0.36978194 0.8053832 -0.46327013
vn -0.36978194 0.8053832 -0.46327016
vn -0.36978197 0.8053832 -0.46327016
vn 0.9050602 0.22032689 -0.36376125
vn 0.9050602 0.22032689 -0.36376125
vn 0.9050602 0.22032689 -0.36376122
vn 0.9050602 0.22032689 -0.36376122
vn 0.93752867 -0.34765738 0.013202668
vn 0.93752867 -0.34765735 0.01320267
vn 0.9375288 -0.34765732 0.013202669
vn 0.93752867 -0.34765735 0.013202669
vn 0.4789697 -0.78008914 0.40255308
vn 0.47896966 -0.7800892 0.4025531
vn 0.4789697 -0.78008914 0.40255314
vn 0.47896966 -0.7800892 0.4025531
vn 0.2760688 0.75911707 -0.5895144
vn 0.27606884 0.75911707 -0.5895144
vn 0.2760688 0.75911707 -0.5895144
vn 0.27606887 0.75911707 -0.58951443
vn 0.13484259 0.98001295 -0.14626044
vn 0.13484254 0.98001295 -0.14626044
vn 0.13484254 0.98001295 -0.14626044
vn 0.1348426 0.98001295 -0.14626046
vn -0.5629534 0.7442509 -0.3594078
vn -0.56295335 0.7442509 -0.35940793
vn -0.5629535 0.7442509 -0.35940793
vn -0.5629535 0.7442509 -0.3594079
vn -0.93133944 0.07314979 -0.35672963
vn -0.93133944 0.07314976 -0.3567296
vn -0.93133944 0.07314979 -0.3567296
vn -0.93133944 0.07314976 -0.3567296
vn -0.7565254 -0.63855195 -0.14114054
vn -0.75652534 -0.63855195 -0.14114052
vn -0.7565254 -0.63855195 -0.14114054
vn -0.7565254 -0.63855195 -0.14114054
vn -0.1435177 -0.9764606 0.16101934
vn -0.1435177 -0.9764606 0.16101934
vn -0.1435177 -0.9764606 0.16101934
vn -0.14351767 -0.9764606 0.16101934
vn 0.55157447 -0.7452795 0.3745986
vn 0.55157447 -0.7452795 0.3745986
vn 0.55157447 -0.7452795 0.37459853
vn 0.55157447 -0.7452795 0.37459853
vn 0.92413694 -0.07655323 0.37431353
vn 0.9241368 -0.0765532 0.37431353
vn 0.9241368 -0.07655317 0.37431356
vn 0.9241368 -0.07655317 0.37431353
vn 0.75208235 0.63977426 0.15830685
vn 0.75208235 0.63977426 0.15830685
vn 0.7520823 0.63977426 0.15830685
vn 0.75208235 0.63977426 0.15830685
g Monster_GuardianPro_Mod_01_0
f 3/3/3 2/2/2 1/1/1
f 6/6/6 5/5/5 4/4/4
f 9/9/9 8/8/8 7/7/7
f 12/12/12 11/11/11 10/10/10
f 15/15/15 14/14/14 13/13/13
f 18/18/18 17/17/17 16/16/16
f 21/21/21 20/20/20 19/19/19
f 22/22/22 21/21/21 19/19/19
f 25/25/25 24/24/24 23/23/23
f 26/26/26 25/25/25 23/23/23
f 29/29/29 28/28/28 27/27/27
f 30/30/30 29/29/29 27/27/27
f 33/33/33 32/32/32 31/31/31
f 34/34/34 33/33/33 31/31/31
f 37/37/37 36/36/36 35/35/35
f 38/38/38 37/37/37 35/35/35
f 41/41/41 40/40/40 39/39/39
f 42/42/42 41/41/41 39/39/39
f 45/45/45 44/44/44 43/43/43
f 46/46/46 45/45/45 43/43/43
f 49/49/49 48/48/48 47/47/47
f 50/50/50 49/49/49 47/47/47
f 53/53/53 52/52/52 51/51/51
f 54/54/54 53/53/53 51/51/51
f 57/57/57 56/56/56 55/55/55
f 58/58/58 57/57/57 55/55/55
f 61/61/61 60/60/60 59/59/59
f 62/62/62 61/61/61 59/59/59
f 65/65/65 64/64/64 63/63/63
f 66/66/66 65/65/65 63/63/63
f 69/69/69 68/68/68 67/67/67
f 70/70/70 69/69/69 67/67/67
f 73/73/73 72/72/72 71/71/71
f 74/74/74 73/73/73 71/71/71
f 77/77/77 76/76/76 75/75/75
f 78/78/78 77/77/77 75/75/75
f 81/81/81 80/80/80 79/79/79
f 82/82/82 81/81/81 79/79/79
f 85/85/85 84/84/84 83/83/83
f 86/86/86 85/85/85 83/83/83
f 89/89/89 88/88/88 87/87/87
f 90/90/90 89/89/89 87/87/87
f 93/93/93 92/92/92 91/91/91
f 94/94/94 93/93/93 91/91/91
f 97/97/97 96/96/96 95/95/95
f 98/98/98 97/97/97 95/95/95
f 101/101/101 100/100/100 99/99/99
f 102/102/102 101/101/101 99/99/99
f 105/105/105 104/104/104 103/103/103
f 106/106/106 105/105/105 103/103/103
f 109/109/109 108/108/108 107/107/107
f 110/110/110 109/109/109 107/107/107
f 113/113/113 112/112/112 111/111/111
f 114/114/114 113/113/113 111/111/111
f 117/117/117 116/116/116 115/115/115
f 118/118/118 117/117/117 115/115/115
f 121/121/121 120/120/120 119/119/119
f 122/122/122 121/121/121 119/119/119
f 125/125/125 124/124/124 123/123/123
f 126/126/126 125/125/125 123/123/123
f 129/129/129 128/128/128 127/127/127
f 130/130/130 129/129/129 127/127/127
f 133/133/133 132/132/132 131/131/131
f 134/134/134 133/133/133 131/131/131
f 137/137/137 136/136/136 135/135/135
f 138/138/138 137/137/137 135/135/135
f 141/141/141 140/140/140 139/139/139
f 142/142/142 141/141/141 139/139/139
f 145/145/145 144/144/144 143/143/143
f 146/146/146 145/145/145 143/143/143
f 149/149/149 148/148/148 147/147/147
f 150/150/150 149/149/149 147/147/147
f 153/153/153 152/152/152 151/151/151
f 154/154/154 153/153/153 151/151/151
f 157/157/157 156/156/156 155/155/155
f 158/158/158 157/157/157 155/155/155
f 161/161/161 160/160/160 159/159/159
f 162/162/162 161/161/161 159/159/159
f 165/165/165 164/164/164 163/163/163
f 166/166/166 165/165/165 163/163/163
f 169/169/169 168/168/168 167/167/167
f 170/170/170 169/169/169 167/167/167
