g Plane001
v -12.179999 -5.625 0
v -13.537777 -5.625 0
v -13.537777 5.625 0
v -12.179999 5.625 0
v 12.179999 5.625 0
v 12.179999 -5.625 0
v 13.537777 -5.625 0
v 13.537777 5.625 0
vt 0.050147653 -5.9604645E-08
vt -5.9604645E-08 -5.9604645E-08
vt -5.9604645E-08 1
vt 0.050147653 1
vt 0.94985235 1
vt 0.94985235 -5.9604645E-08
vt 1 -5.9604645E-08
vt 1 1
vn -0 0 1
vn -0 0 1
vn -0 0 1
vn -0 0 1
vn -0 0 1
vn -0 0 1
vn -0 0 1
vn -0 0 1
g Plane001_0
f 3/3/3 2/2/2 1/1/1
f 4/4/4 3/3/3 1/1/1
f 5/5/5 4/4/4 1/1/1
f 6/6/6 5/5/5 1/1/1
f 6/6/6 7/7/7 5/5/5
f 7/7/7 8/8/8 5/5/5
