g Shape62
v -0.02183586 0.009613609 0
v -0.025816841 0.014863815 0
v -0.023588523 0.022621498 0
v -0.021671142 0.010296974 0
v -0.02090725 0.002550354 0
v 0.03237686 0.006062584 0
v -0.025417937 -0.0033813093 0
v 0.022073325 -0.0027558135 0
v 0.019251099 -0.00945858 0
v 0.023659172 -0.017601699 0
vt 0.00073743437 0.6274736
vt 0.00073743437 0.6274736
vt -4.758173E-07 0.6515218
vt -4.758173E-07 0.6515218
vt 0.0629506 0.40425402
vt 0.98693234 0.6438794
vt 0.0629506 0.40425402
vt 0.98693234 0.6438794
vt 0.969135 0.39637813
vt 0.969135 0.39637813
vn -0 0 1
vn -0 0 1
vn -0 0 1
vn -0 0 1
vn -0 0 1
vn -0 0 1
vn -0 0 1
vn -0 0 1
vn -0 0 1
vn -0 0 1
g Shape62_0
f 3/3/3 2/2/2 1/1/1
f 4/4/4 3/3/3 1/1/1
f 1/1/1 2/2/2 5/5/5
f 6/6/6 3/3/3 4/4/4
f 2/2/2 7/7/7 5/5/5
f 8/8/8 6/6/6 4/4/4
f 5/5/5 7/7/7 9/9/9
f 10/10/10 6/6/6 8/8/8
f 7/7/7 10/10/10 9/9/9
f 9/9/9 10/10/10 8/8/8
