g MainCity_Building_Card_08
v 19.902626 41.75771 7.4893775
v 19.912401 41.758217 -7.472884
v 26.815956 41.758427 -7.472884
v 26.815947 41.75843 7.485677
v 14.965268 49.837788 -7.4653955
v 19.912397 45.876797 -7.4729896
v 19.902626 45.879154 7.4893775
v 14.965268 49.837788 7.4931836
v 26.815947 -0.013788305 -7.472888
v 26.815908 -0.013789613 7.485673
v 26.815947 41.75843 7.485677
v 26.815956 41.758427 -7.472884
v 19.912401 41.758217 -7.472884
v 19.902626 41.75771 7.4893775
v 19.902626 45.879154 7.4893775
v 19.912397 45.876797 -7.4729896
v 14.965268 49.837788 7.4931836
v 14.965243 50.407925 7.493149
v 14.965234 50.407913 -6.206544
v 14.965268 49.837788 -7.4653955
v 14.965268 50.40813 -7.4654126
v 23.25414 -0.013789926 11.047373
v 19.892885 41.75843 11.0473585
v 23.254189 41.75843 11.047376
v 19.892841 -0.013798693 11.047338
v 14.965205 41.75843 11.0473585
v 14.965176 -0.013811848 11.047338
v -2.2564502 41.75844 11.0473585
v -2.2565575 -0.0138074625 11.047338
v -5.668213 41.75844 11.0473585
v -5.6682663 -0.0138074625 11.047338
v -12.614136 41.75844 11.0473585
v -12.614164 -0.013789926 11.047338
v -16.165419 41.75844 11.0473585
v -16.16551 -0.013789926 11.047338
v -23.771288 41.75844 11.0473585
v -23.771297 -0.0137943085 11.047338
v -25.04674 41.758442 11.0473585
v -25.046747 -0.0137943085 11.047338
v -26.815973 41.758442 11.0473585
v -26.81597 -0.013785541 11.047338
v -25.04674 45.88152 7.493165
v -23.771297 41.75721 7.4931827
v -25.046747 41.75721 7.4931827
v -23.771288 45.88152 7.493165
v -23.771286 49.837788 7.4931655
v -16.165422 45.88152 7.493165
v -25.046736 49.837788 7.4931655
v -16.165419 41.757206 7.4931827
v -25.046736 50.40772 7.493149
v -23.771286 50.40772 7.493149
v -12.614136 41.757206 7.4931827
v -16.165419 50.40772 7.4931655
v -23.771286 51.45531 7.4931836
v -16.165419 51.45531 7.4931836
v -16.165419 49.837788 7.4931836
v -12.614136 50.40772 7.4931655
v -12.614136 51.45531 7.4931836
v -12.614062 49.837788 7.4931836
v -5.6681495 50.40772 7.4931655
v -5.6681495 51.45531 7.4931836
v -12.6141405 45.88152 7.4931827
v -2.2564502 50.40772 7.4931655
v -2.2564502 51.455307 7.4931836
v -5.6681495 49.837788 7.4931836
v -5.6682224 45.88152 7.4931827
v -5.6682224 41.757206 7.4932003
v -2.2564502 45.88152 7.4931827
v -2.2564502 41.757206 7.4932003
v 14.965243 50.407925 7.493149
v 14.965205 51.45531 7.4931655
v -2.2564502 49.837788 7.4931836
v 14.965268 49.837788 7.4931836
v 14.965205 45.88152 7.4931827
v 14.965205 41.757202 7.4932003
v 19.902626 45.879154 7.4893775
v 19.902626 41.75771 7.4893775
v -5.6682224 54.06502 5.006085
v -2.2564502 54.065018 5.0060678
v -2.2564502 51.4314 5.006067
v -5.6681495 51.43141 5.0060844
v -2.2564502 51.455307 7.4931836
v -5.6681495 51.45531 7.4931836
v -16.165419 51.43141 5.006085
v -16.165419 54.4667 5.006085
v -12.614136 54.46673 5.0060678
v -12.614136 51.43142 5.0060673
v -16.165419 51.45531 7.4931836
v -12.614136 51.45531 7.4931836
v 19.892885 41.75843 11.0473585
v 14.965205 41.757202 7.4932003
v 19.902626 41.75771 7.4893775
v 14.965205 41.75843 11.0473585
v -2.2564502 41.75844 11.0473585
v -2.2564502 41.757206 7.4932003
v -5.6682224 41.757206 7.4932003
v -5.668213 41.75844 11.0473585
v -12.614136 41.757206 7.4931827
v -12.614136 41.75844 11.0473585
v -16.165419 41.75844 11.0473585
v -16.165419 41.757206 7.4931827
v -23.771297 41.75721 7.4931827
v -23.771288 41.75844 11.0473585
v -25.04674 41.758442 11.0473585
v -25.046747 41.75721 7.4931827
v 14.965234 50.407913 -6.206544
v 14.965243 50.407925 7.493149
v 14.965205 51.45531 7.4931655
v 14.965205 51.455315 -6.2191186
v -12.614136 54.466743 2.8024645
v -12.614136 51.431435 2.8024127
v -12.614136 51.43142 5.0060673
v -12.614136 54.46673 5.0060678
v -2.2564502 54.065018 5.0060678
v -2.2564502 54.065014 2.6770885
v -2.2564502 51.431396 2.6770885
v -2.2564502 51.4314 5.006067
v 26.815908 -0.013789613 7.485673
v 23.25414 -0.013789926 11.047373
v 23.254189 41.75843 11.047376
v 26.815947 41.75843 7.485677
v 23.241474 -0.013770456 -11.047355
v 26.815947 -0.013788305 -7.472888
v 26.815956 41.758427 -7.472884
v 23.241455 41.758427 -11.047352
v 19.902626 41.75771 7.4893775
v 26.815947 41.75843 7.485677
v 23.254189 41.75843 11.047376
v 19.892885 41.75843 11.0473585
vt 0.64697266 0.9223633
vt 0.76464844 0.9223633
vt 0.76464844 0.86816406
vt 0.64697266 0.86816406
vt 0.76953125 0.85058594
vt 0.76953125 0.8041992
vt 0.65283203 0.8041992
vt 0.65283203 0.85058594
vt 0.56884766 0.5805664
vt 0.45092773 0.5805664
vt 0.45092773 0.91015625
vt 0.56884766 0.91015625
vt 0.76953125 0.77197266
vt 0.65283203 0.77197266
vt 0.65283203 0.8041992
vt 0.76953125 0.8041992
vt 0.65283203 0.85058594
vt 0.65283203 0.85546875
vt 0.7597656 0.85546875
vt 0.76953125 0.85058594
vt 0.76953125 0.85546875
vt 0.3996582 0.5805664
vt 0.37426758 0.91015625
vt 0.39990234 0.91015625
vt 0.37426758 0.5805664
vt 0.33520508 0.91015625
vt 0.33520508 0.5805664
vt 0.19946289 0.91015625
vt 0.19946289 0.5805664
vt 0.17260742 0.91015625
vt 0.17260742 0.5805664
vt 0.11779785 0.91015625
vt 0.11779785 0.5805664
vt 0.089782715 0.91015625
vt 0.089782715 0.5805664
vt 0.029769897 0.91015625
vt 0.029769897 0.5805664
vt 0.019714355 0.91015625
vt 0.019714355 0.5805664
vt 0.005756378 0.91015625
vt 0.005756378 0.5805664
vt 0.0055389404 0.9472656
vt 0.015602112 0.9135742
vt 0.0055389404 0.9135742
vt 0.015602112 0.9472656
vt 0.015602112 0.9785156
vt 0.07556152 0.9472656
vt 0.005542755 0.9785156
vt 0.07556152 0.9135742
vt 0.0055389404 0.98291016
vt 0.015602112 0.98291016
vt 0.10357666 0.9135742
vt 0.07556152 0.98291016
vt 0.015602112 0.99121094
vt 0.07556152 0.99121094
vt 0.07556152 0.9785156
vt 0.10357666 0.98291016
vt 0.10357666 0.99121094
vt 0.10357666 0.9785156
vt 0.1583252 0.98291016
vt 0.1583252 0.99121094
vt 0.10357666 0.9472656
vt 0.18530273 0.98291016
vt 0.18530273 0.99121094
vt 0.1583252 0.9785156
vt 0.1583252 0.9472656
vt 0.1583252 0.9135742
vt 0.18530273 0.9472656
vt 0.18530273 0.9135742
vt 0.32104492 0.98291016
vt 0.32104492 0.99121094
vt 0.18530273 0.9785156
vt 0.32104492 0.9785156
vt 0.32104492 0.9472656
vt 0.32104492 0.9135742
vt 0.36010742 0.9472656
vt 0.36010742 0.9135742
vt 0.7001953 0.7553711
vt 0.7270508 0.7553711
vt 0.7270508 0.7348633
vt 0.7001953 0.7348633
vt 0.7270508 0.71777344
vt 0.7001953 0.71777344
vt 0.6513672 0.734375
vt 0.6513672 0.7583008
vt 0.6791992 0.7583008
vt 0.6791992 0.734375
vt 0.6513672 0.71728516
vt 0.6791992 0.71728516
vt 0.64208984 0.9213867
vt 0.6147461 0.8828125
vt 0.6147461 0.9213867
vt 0.64208984 0.8828125
vt 0.64208984 0.7470703
vt 0.6147461 0.7470703
vt 0.6147461 0.72021484
vt 0.64208984 0.72021484
vt 0.6147461 0.66503906
vt 0.64208984 0.66503906
vt 0.64208984 0.63720703
vt 0.6147461 0.63720703
vt 0.6147461 0.57714844
vt 0.64208984 0.57714844
vt 0.64208984 0.56689453
vt 0.6147461 0.56689453
vt 0.42919922 0.98291016
vt 0.32104492 0.98291016
vt 0.32104492 0.99121094
vt 0.42919922 0.99121094
vt 0.69677734 0.7583008
vt 0.69677734 0.734375
vt 0.6791992 0.734375
vt 0.6791992 0.7583008
vt 0.7270508 0.7553711
vt 0.7451172 0.7553711
vt 0.7451172 0.7348633
vt 0.7270508 0.7348633
vt 0.45092773 0.5805664
vt 0.41235352 0.5805664
vt 0.41235352 0.91015625
vt 0.45092773 0.91015625
vt 0.6088867 0.5805664
vt 0.56884766 0.5805664
vt 0.56884766 0.91015625
vt 0.6088867 0.91015625
vt 0.74658203 0.8730469
vt 0.6586914 0.875
vt 0.7050781 0.9194336
vt 0.7475586 0.91845703
vn -6.318092E-05 1 -0.00013148785
vn -6.747246E-05 1 1.680851E-05
vn -6.747246E-05 1 1.680851E-05
vn -6.848574E-05 1 -3.439188E-05
vn 0.6254883 0.78027344 0.00014269352
vn 0.6254883 0.78027344 0.00014269352
vn 0.6254883 0.78027344 0.00014269352
vn 0.6254883 0.78027344 0.00014269352
vn 1 -5.9604645E-07 1.6093254E-06
vn 1 -5.9604645E-07 1.6093254E-06
vn 1 -5.9604645E-07 1.6093254E-06
vn 1 -5.9604645E-07 1.6093254E-06
vn 1 5.9604645E-07 0.0006532669
vn 1 5.9604645E-07 0.0006532669
vn 1 5.9604645E-07 0.0006532669
vn 1 5.9604645E-07 0.0006532669
vn 1 5.173683E-05 -3.5762787E-07
vn 1 4.220009E-05 -3.5762787E-07
vn 1 4.0709972E-05 2.1457672E-06
vn 1 1.40070915E-05 1.9729137E-05
vn 1 0 2.7179718E-05
vn -7.8082085E-06 -2.9802322E-07 1
vn -3.874302E-06 -3.5762787E-07 1
vn -7.8082085E-06 -2.9802322E-07 1
vn -3.874302E-06 -3.5762787E-07 1
vn -0 -4.7683716E-07 1
vn -0 -4.7683716E-07 1
vn -0 -4.7683716E-07 1
vn -0 -4.7683716E-07 1
vn -0 -4.7683716E-07 1
vn -0 -4.7683716E-07 1
vn -0 -4.7683716E-07 1
vn -0 -4.7683716E-07 1
vn -0 -4.7683716E-07 1
vn -0 -4.7683716E-07 1
vn -0 -4.7683716E-07 1
vn -0 -4.7683716E-07 1
vn -0 -4.7683716E-07 1
vn -0 -4.7683716E-07 1
vn -0 -4.7683716E-07 1
vn -0 -4.7683716E-07 1
vn -0 2.0861626E-06 1
vn -0 4.2915344E-06 1
vn -0 4.2915344E-06 1
vn -2.9802322E-07 1.4901161E-06 1
vn -8.34465E-07 1.4483929E-05 1
vn -1.5497208E-06 4.172325E-07 1
vn -0 1.4901161E-05 1
vn -1.2516975E-06 3.2186508E-06 1
vn -0 2.9981136E-05 1
vn -1.1324883E-06 1.180172E-05 1
vn -1.9073486E-06 2.1457672E-06 1
vn -8.34465E-07 4.887581E-06 1
vn -1.1324883E-06 -2.503395E-05 1
vn -1.1324883E-06 0.4489746 0.8935547
vn -1.4901161E-06 1.41859055E-05 1
vn -0 7.0929527E-06 1
vn -6.556511E-07 0.4489746 0.8935547
vn -5.9604645E-07 1.4901161E-05 1
vn -0 7.0929527E-06 1
vn 9.536743E-07 0.4489746 0.8935547
vn -1.5497208E-06 4.172325E-07 1
vn 3.5762787E-07 1.090765E-05 1
vn 1.4305115E-06 0.4489746 0.8935547
vn -0 1.5437603E-05 1
vn -2.9802322E-07 1.5497208E-06 1
vn -6.556511E-07 3.2186508E-06 1
vn -0 2.0861626E-06 1
vn -0 4.2915344E-06 1
vn 7.748604E-07 1.4722347E-05 1
vn 1.013279E-06 -1.6629696E-05 1
vn 1.1920929E-07 1.9192696E-05 1
vn 0.00017106533 1.7821789E-05 1
vn 0.00038576126 1.5497208E-06 1
vn 0.0003862381 3.2186508E-06 1
vn 0.00077199936 1.4305115E-06 1
vn 0.0007724762 2.1457672E-06 1
vn 5.1259995E-06 -2.9802322E-07 1
vn 5.1259995E-06 -2.9802322E-07 1
vn 5.185604E-06 0.7104492 0.7036133
vn 5.185604E-06 0.7104492 0.7036133
vn 1.4305115E-06 0.4489746 0.8935547
vn 9.536743E-07 0.4489746 0.8935547
vn 2.503395E-06 0.7104492 0.7036133
vn 4.9471855E-06 0 1
vn 4.9471855E-06 0 1
vn 2.503395E-06 0.7104492 0.7036133
vn -1.1324883E-06 0.4489746 0.8935547
vn -6.556511E-07 0.4489746 0.8935547
vn -6.097555E-05 1 -0.00020587444
vn -2.5629997E-05 1 -0.000310421
vn -6.318092E-05 1 -0.00013148785
vn -2.5629997E-05 1 -0.000310421
vn 1.1920929E-07 1 -0.00034618378
vn 1.1920929E-07 1 -0.00034618378
vn -0 1 -0.00034618378
vn -0 1 -0.00034618378
vn -0 1 -0.00034618378
vn -0 1 -0.00034618378
vn 1.7881393E-07 1 -0.00034594536
vn 1.7881393E-07 1 -0.00034594536
vn 1.1324883E-06 1 -0.00034546852
vn 1.1324883E-06 1 -0.00034546852
vn 1.9073486E-06 1 -0.00034546852
vn 1.9073486E-06 1 -0.00034546852
vn 1 4.0709972E-05 2.1457672E-06
vn 1 4.220009E-05 -3.5762787E-07
vn 1 3.260374E-05 -3.5762787E-07
vn 1 3.260374E-05 -3.5762787E-07
vn 1 0 0
vn 1 0 0
vn 1 0 0
vn 1 0 0
vn 1 0 0
vn 1 0 0
vn 1 0 0
vn 1 0 0
vn 0.70703125 -7.748604E-07 0.70703125
vn 0.70703125 -7.748604E-07 0.70703125
vn 0.70703125 -7.748604E-07 0.70703125
vn 0.70703125 -7.748604E-07 0.70703125
vn 0.70703125 1.1920929E-07 -0.70703125
vn 0.70703125 1.1920929E-07 -0.70703125
vn 0.70703125 1.1920929E-07 -0.70703125
vn 0.70703125 1.1920929E-07 -0.70703125
vn -6.318092E-05 1 -0.00013148785
vn -6.848574E-05 1 -3.439188E-05
vn -7.0393085E-05 1 -0.00013685226
vn -6.097555E-05 1 -0.00020587444
g MainCity_Building_Card_08_0
f 3/3/3 2/2/2 1/1/1
f 4/4/4 3/3/3 1/1/1
f 7/7/7 6/6/6 5/5/5
f 8/8/8 7/7/7 5/5/5
f 11/11/11 10/10/10 9/9/9
f 12/12/12 11/11/11 9/9/9
f 15/15/15 14/14/14 13/13/13
f 16/16/16 15/15/15 13/13/13
f 19/19/19 18/18/18 17/17/17
f 20/20/20 19/19/19 17/17/17
f 21/21/21 19/19/19 20/20/20
f 24/24/24 23/23/23 22/22/22
f 23/23/23 25/25/25 22/22/22
f 23/23/23 26/26/26 25/25/25
f 26/26/26 27/27/27 25/25/25
f 26/26/26 28/28/28 27/27/27
f 28/28/28 29/29/29 27/27/27
f 28/28/28 30/30/30 29/29/29
f 30/30/30 31/31/31 29/29/29
f 30/30/30 32/32/32 31/31/31
f 32/32/32 33/33/33 31/31/31
f 33/33/33 32/32/32 34/34/34
f 35/35/35 33/33/33 34/34/34
f 34/34/34 36/36/36 35/35/35
f 36/36/36 37/37/37 35/35/35
f 37/37/37 36/36/36 38/38/38
f 39/39/39 37/37/37 38/38/38
f 39/39/39 38/38/38 40/40/40
f 41/41/41 39/39/39 40/40/40
f 44/44/44 43/43/43 42/42/42
f 43/43/43 45/45/45 42/42/42
f 45/45/45 46/46/46 42/42/42
f 45/45/45 43/43/43 47/47/47
f 46/46/46 45/45/45 47/47/47
f 46/46/46 48/48/48 42/42/42
f 43/43/43 49/49/49 47/47/47
f 48/48/48 46/46/46 50/50/50
f 46/46/46 51/51/51 50/50/50
f 49/49/49 52/52/52 47/47/47
f 51/51/51 46/46/46 53/53/53
f 51/51/51 53/53/53 54/54/54
f 53/53/53 55/55/55 54/54/54
f 56/56/56 46/46/46 47/47/47
f 46/46/46 56/56/56 53/53/53
f 53/53/53 57/57/57 55/55/55
f 57/57/57 58/58/58 55/55/55
f 56/56/56 59/59/59 53/53/53
f 59/59/59 56/56/56 47/47/47
f 59/59/59 57/57/57 53/53/53
f 58/58/58 57/57/57 60/60/60
f 57/57/57 59/59/59 60/60/60
f 61/61/61 58/58/58 60/60/60
f 52/52/52 62/62/62 47/47/47
f 62/62/62 59/59/59 47/47/47
f 61/61/61 60/60/60 63/63/63
f 64/64/64 61/61/61 63/63/63
f 59/59/59 65/65/65 60/60/60
f 65/65/65 59/59/59 62/62/62
f 60/60/60 65/65/65 63/63/63
f 62/62/62 52/52/52 66/66/66
f 66/66/66 65/65/65 62/62/62
f 52/52/52 67/67/67 66/66/66
f 66/66/66 67/67/67 68/68/68
f 65/65/65 66/66/66 68/68/68
f 67/67/67 69/69/69 68/68/68
f 64/64/64 63/63/63 70/70/70
f 71/71/71 64/64/64 70/70/70
f 65/65/65 72/72/72 63/63/63
f 63/63/63 72/72/72 70/70/70
f 72/72/72 65/65/65 68/68/68
f 72/72/72 73/73/73 70/70/70
f 68/68/68 69/69/69 74/74/74
f 72/72/72 68/68/68 74/74/74
f 73/73/73 72/72/72 74/74/74
f 69/69/69 75/75/75 74/74/74
f 76/76/76 73/73/73 74/74/74
f 74/74/74 75/75/75 76/76/76
f 75/75/75 77/77/77 76/76/76
f 80/80/80 79/79/79 78/78/78
f 81/81/81 80/80/80 78/78/78
f 80/80/80 81/81/81 82/82/82
f 81/81/81 83/83/83 82/82/82
f 86/86/86 85/85/85 84/84/84
f 87/87/87 86/86/86 84/84/84
f 87/87/87 84/84/84 88/88/88
f 89/89/89 87/87/87 88/88/88
f 92/92/92 91/91/91 90/90/90
f 91/91/91 93/93/93 90/90/90
f 94/94/94 93/93/93 91/91/91
f 95/95/95 94/94/94 91/91/91
f 95/95/95 96/96/96 94/94/94
f 96/96/96 97/97/97 94/94/94
f 96/96/96 98/98/98 97/97/97
f 98/98/98 99/99/99 97/97/97
f 99/99/99 98/98/98 100/100/100
f 98/98/98 101/101/101 100/100/100
f 101/101/101 102/102/102 100/100/100
f 102/102/102 103/103/103 100/100/100
f 103/103/103 102/102/102 104/104/104
f 102/102/102 105/105/105 104/104/104
f 108/108/108 107/107/107 106/106/106
f 109/109/109 108/108/108 106/106/106
f 112/112/112 111/111/111 110/110/110
f 113/113/113 112/112/112 110/110/110
f 116/116/116 115/115/115 114/114/114
f 117/117/117 116/116/116 114/114/114
f 120/120/120 119/119/119 118/118/118
f 121/121/121 120/120/120 118/118/118
f 124/124/124 123/123/123 122/122/122
f 125/125/125 124/124/124 122/122/122
f 128/128/128 127/127/127 126/126/126
f 129/129/129 128/128/128 126/126/126
