g Common_Construction_Ruins_06
v -0.56555176 -2.2818576E-17 0.37265563
v -0.32151356 -2.4175679E-17 0.39481878
v -0.56555176 2.7815043E-17 -0.45425415
v -0.20225388 -2.269534E-17 0.370643
v 0.5655493 1.8372598E-17 -0.3000473
v 0.5655493 2.7815043E-17 -0.45425415
v 0.0005284977 -2.5966566E-17 0.4240662
v 0.33292478 -2.7815033E-17 0.45425394
v -0.56555176 0.36951604 0.37265563
v -0.56555176 0.36951604 -0.3000473
v -0.32151356 0.36951604 0.39481878
v -0.20225388 0.36951604 0.370643
v 0.5655493 0.36951604 -0.3000473
v 0.0005284977 0.36951604 0.4240662
v 0.33292478 0.36951604 0.45425394
v -0.56555176 0.36951604 0.37265563
v -0.32151356 -2.4175679E-17 0.39481878
v -0.56555176 -2.2818576E-17 0.37265563
v -0.32151356 0.36951604 0.39481878
v -0.20225388 -2.269534E-17 0.370643
v -0.20225388 0.36951604 0.370643
v 0.0005284977 -2.5966566E-17 0.4240662
v 0.0005284977 0.36951604 0.4240662
v 0.33292478 -2.7815033E-17 0.45425394
v 0.33292478 0.36951604 0.45425394
v 0.5655493 0.44399005 -0.3000473
v -0.56555176 0.44399005 -0.3000473
v 0.5655493 0.44399005 -0.33314085
v 0.25581118 0.44399005 -0.45425415
v -0.56555176 0.44399005 -0.45425415
v 0.5655493 0.26892647 -0.45425415
v 0.5655493 0.44399005 -0.33314085
v 0.25581118 0.44399005 -0.45425415
v -0.56555176 2.7815043E-17 -0.45425415
v 0.5655493 2.7815043E-17 -0.45425415
v -0.56555176 0.44399005 -0.45425415
v -0.56555176 0.44399005 -0.3000473
v 0.5655493 0.36951604 -0.3000473
v -0.56555176 0.36951604 -0.3000473
v 0.5655493 0.44399005 -0.3000473
v -0.56555176 2.7815043E-17 -0.45425415
v -0.56555176 0.36951604 0.37265563
v -0.56555176 -2.2818576E-17 0.37265563
v -0.56555176 0.36951604 -0.3000473
v -0.56555176 0.44399005 -0.45425415
v -0.56555176 0.44399005 -0.3000473
v 0.33292478 0.36951604 0.45425394
v 0.5655493 1.8372598E-17 -0.3000473
v 0.33292478 -2.7815033E-17 0.45425394
v 0.5655493 0.36951604 -0.3000473
v 0.5655493 2.7815043E-17 -0.45425415
v 0.5655493 0.26892647 -0.45425415
v 0.5655493 0.44399005 -0.33314085
v 0.5655493 0.44399005 -0.3000473
vt 0.17468262 0.22766113
vt 0.17272949 0.24938965
vt 0.24829102 0.22753906
vt 0.17492676 0.26000977
vt 0.23474121 0.32836914
vt 0.24853516 0.32836914
vt 0.17016602 0.27807617
vt 0.16748047 0.30786133
vt 0.06854248 0.24328613
vt 0.008605957 0.24328613
vt 0.070495605 0.26489258
vt 0.068359375 0.27563477
vt 0.008621216 0.34423828
vt 0.07312012 0.29370117
vt 0.075805664 0.32348633
vt 0.084350586 0.23400879
vt 0.117248535 0.25585938
vt 0.117248535 0.23400879
vt 0.084350586 0.25585938
vt 0.117248535 0.2668457
vt 0.084350586 0.2668457
vt 0.117248535 0.2854004
vt 0.084350586 0.2854004
vt 0.117248535 0.31518555
vt 0.084350586 0.31518555
vt 0.31958008 0.32788086
vt 0.31958008 0.22705078
vt 0.3166504 0.32788086
vt 0.30566406 0.30029297
vt 0.30566406 0.22705078
vt 0.28100586 0.328125
vt 0.2998047 0.33007812
vt 0.29663086 0.3005371
vt 0.25708008 0.22729492
vt 0.25708008 0.328125
vt 0.29663086 0.22729492
vt 0.32836914 0.22717285
vt 0.33496094 0.32788086
vt 0.33496094 0.22717285
vt 0.32836914 0.32788086
vt 0.34472656 0.32836914
vt 0.37768555 0.25463867
vt 0.34472656 0.25463867
vt 0.37768555 0.31469727
vt 0.38427734 0.32836914
vt 0.38427734 0.31469727
vt 0.15905762 0.30810547
vt 0.12634277 0.23754883
vt 0.12609863 0.30786133
vt 0.15930176 0.2376709
vt 0.12646484 0.22375488
vt 0.15039062 0.22387695
vt 0.16589355 0.23474121
vt 0.16589355 0.2376709
vn -0 -1 0
vn -0 -1 0
vn -0 -1 0
vn -0 -1 0
vn -0 -1 0
vn -0 -1 0
vn -0 -1 0
vn -0 -1 0
vn -0 1 0
vn -0 1 0
vn -0 1 0
vn -0 1 0
vn -0 1 0
vn -0 1 0
vn -0 1 0
vn -0.0904541 0 0.99609375
vn 0.0546875 0 0.99853516
vn -0.0904541 0 0.99609375
vn 0.0546875 0 0.99853516
vn -0.028793335 0 0.9995117
vn -0.028793335 0 0.9995117
vn -0.17321777 0 0.9848633
vn -0.17321777 0 0.9848633
vn -0.0904541 0 0.99609375
vn -0.0904541 0 0.99609375
vn -0 1 0
vn -0 1 0
vn -0 1 0
vn -0 1 0
vn -0 1 0
vn 0.1149292 0.20336914 -0.97216797
vn 0.30615234 0.5415039 -0.78271484
vn 0.060943604 0.10784912 -0.9921875
vn -0 0 -1
vn -0 0 -1
vn -0 0 -1
vn -0 0 1
vn -0 0 1
vn -0 0 1
vn -0 0 1
vn -1 0 0
vn -1 0 0
vn -1 0 0
vn -1 0 0
vn -1 0 0
vn -1 0 0
vn 0.9555664 0 0.29467773
vn 0.98876953 0 0.14904785
vn 0.9555664 0 0.29467773
vn 0.9951172 0 0.099243164
vn 1 0 0
vn 1 0 0
vn 1 0 0
vn 1 0 0
g Common_Construction_Ruins_06_0
f 3/3/3 2/2/2 1/1/1
f 4/4/4 2/2/2 3/3/3
f 4/4/4 3/3/3 5/5/5
f 6/6/6 5/5/5 3/3/3
f 7/7/7 4/4/4 5/5/5
f 8/8/8 7/7/7 5/5/5
f 11/11/11 10/10/10 9/9/9
f 12/12/12 10/10/10 11/11/11
f 13/13/13 10/10/10 12/12/12
f 14/14/14 13/13/13 12/12/12
f 15/15/15 13/13/13 14/14/14
f 18/18/18 17/17/17 16/16/16
f 19/19/19 16/16/16 17/17/17
f 17/17/17 20/20/20 19/19/19
f 21/21/21 19/19/19 20/20/20
f 20/20/20 22/22/22 21/21/21
f 23/23/23 21/21/21 22/22/22
f 22/22/22 24/24/24 23/23/23
f 25/25/25 23/23/23 24/24/24
f 28/28/28 27/27/27 26/26/26
f 29/29/29 27/27/27 28/28/28
f 30/30/30 27/27/27 29/29/29
f 33/33/33 32/32/32 31/31/31
f 34/34/34 33/33/33 31/31/31
f 35/35/35 34/34/34 31/31/31
f 36/36/36 33/33/33 34/34/34
f 39/39/39 38/38/38 37/37/37
f 40/40/40 37/37/37 38/38/38
f 43/43/43 42/42/42 41/41/41
f 44/44/44 41/41/41 42/42/42
f 41/41/41 44/44/44 45/45/45
f 46/46/46 45/45/45 44/44/44
f 49/49/49 48/48/48 47/47/47
f 50/50/50 47/47/47 48/48/48
f 50/50/50 48/48/48 51/51/51
f 52/52/52 50/50/50 51/51/51
f 52/52/52 53/53/53 50/50/50
f 54/54/54 50/50/50 53/53/53
