g Eff_Mesh_GlowCircle_07
v -0.25 -0.4375 0
v 0.25 -0.4375 0
v -0 -0.4375 0
v -0 -0.25 0
v -0.25 -0.25 0
v -0.4375 -0.25 0
v 0.25 -0.25 0
v 0.4375 -0.25 0
v -0.25 0 0
v 0.25 0 0
v -0.4375 0.25 0
v -0.4375 0 0
v -0.25 0.25 0
v -0 0.25 0
v -0.25 0.4375 0
v 0.4375 0.25 0
v 0.4375 0 0
v 0.25 0.25 0
v 0.25 0.4375 0
v -0 0.4375 0
vt 0.25 0.0625
vt 0.75 0.0625
vt 0.5 0.0625
vt 0.5 0.25
vt 0.25 0.25
vt 0.0625 0.25
vt 0.75 0.25
vt 0.9375 0.25
vt 0.25 0.5
vt 0.75 0.5
vt 0.0625 0.75
vt 0.0625 0.5
vt 0.25 0.75
vt 0.5 0.75
vt 0.25 0.9375
vt 0.9375 0.75
vt 0.9375 0.5
vt 0.75 0.75
vt 0.75 0.9375
vt 0.5 0.9375
vn -0 0 1
vn -0 0 1
vn 1 0 0
vn -0 0 1
vn -0 0 1
vn -0 0 1
vn -0 0 1
vn -0 0 1
vn -0 0 1
vn -0 0 1
vn -0 0 1
vn 1 0 0
vn -0 0 1
vn -0 0 1
vn -0 0 1
vn -0 0 1
vn 1 0 0
vn -0 0 1
vn -0 0 1
vn 1 0 0
g Eff_Mesh_GlowCircle_07_0
f 3/3/3 2/2/2 1/1/1
f 1/1/1 2/2/2 4/4/4
f 5/5/5 1/1/1 4/4/4
f 5/5/5 6/6/6 1/1/1
f 2/2/2 7/7/7 4/4/4
f 2/2/2 8/8/8 7/7/7
f 5/5/5 4/4/4 9/9/9
f 6/6/6 5/5/5 9/9/9
f 7/7/7 10/10/10 4/4/4
f 7/7/7 8/8/8 10/10/10
f 11/11/11 6/6/6 9/9/9
f 12/12/12 6/6/6 11/11/11
f 13/13/13 11/11/11 9/9/9
f 9/9/9 14/14/14 13/13/13
f 13/13/13 15/15/15 11/11/11
f 15/15/15 13/13/13 14/14/14
f 8/8/8 16/16/16 10/10/10
f 17/17/17 16/16/16 8/8/8
f 16/16/16 18/18/18 10/10/10
f 10/10/10 18/18/18 14/14/14
f 18/18/18 16/16/16 19/19/19
f 18/18/18 19/19/19 14/14/14
f 19/19/19 15/15/15 14/14/14
f 20/20/20 15/15/15 19/19/19
