g Eff_box_02
v 0.10024575 0.073574625 -0.10000001
v -0.09975423 0.07357461 0.099999994
v -0.099754244 0.073574625 -0.09999999
v 0.10024577 0.07357461 0.09999998
v 0.10024575 -0.072459206 -0.10000001
v -0.09975423 -0.07245921 0.099999994
v -0.099754244 -0.072459206 -0.09999999
v 0.10024577 -0.07245921 0.09999998
v -0.07391657 -0.09958984 -0.10000001
v -0.07391657 0.100410156 0.09999999
v -0.073916554 0.100410156 -0.10000001
v -0.073916584 -0.09958984 0.09999999
v 0.07323713 -0.09958984 -0.10000001
v 0.07323713 0.100410156 0.09999999
v 0.07323714 0.100410156 -0.10000001
v 0.07323711 -0.09958984 0.09999999
vt 0 0
vt 1 1
vt 1 0
vt 0 1
vt 0 0
vt 1 1
vt 1 0
vt 0 1
vt 0 0
vt 1 1
vt 1 0
vt 0 1
vt 0 0
vt 1 1
vt 1 0
vt 0 1
vn -0 1 0
vn -0 1 0
vn -0 1 0
vn -0 1 0
vn -0 1 0
vn -0 1 0
vn -0 1 0
vn -0 1 0
vn 1 0 0
vn 1 0 0
vn 1 0 0
vn 1 0 0
vn 1 0 0
vn 1 0 0
vn 1 0 0
vn 1 0 0
g Eff_box_02_0
f 3/3/3 2/2/2 1/1/1
f 4/4/4 1/1/1 2/2/2
f 7/7/7 6/6/6 5/5/5
f 8/8/8 5/5/5 6/6/6
f 11/11/11 10/10/10 9/9/9
f 12/12/12 9/9/9 10/10/10
f 15/15/15 14/14/14 13/13/13
f 16/16/16 13/13/13 14/14/14
