g Eff_Circleside_06
v 4.1224656 12.68765 0.059472762
v 2.05806 12.994081 0.029736271
v 2.0869262 13.176338 0.059472762
v 4.065444 12.512152 0.029736279
v 6.056499 11.886549 0.059472762
v 5.972724 11.72213 0.029736279
v 7.8413973 10.792757 0.059472755
v 7.7329373 10.643473 0.02973628
v 9.433219 9.433219 0.059472762
v 9.302739 9.302739 0.029736284
v 10.792757 7.8413973 0.059472762
v 10.643473 7.7329364 0.02973629
v 11.886549 6.056499 0.059472762
v 11.72213 5.972724 0.029736299
v 12.68765 4.1224656 0.059472762
v 12.512152 4.065445 0.029736303
v 13.176338 2.0869274 0.059472762
v 12.994081 2.05806 0.029736308
v 13.340584 0 0.059472762
v 13.156055 1.5742822E-08 0.029736314
v 13.176346 -2.0869005 0.059472762
v 12.994087 -2.058035 0.02973632
v 12.687659 -4.1224427 0.059472762
v 12.51216 -4.0654197 0.029736329
v 11.886559 -6.0564766 0.059472762
v 11.722143 -5.972702 0.029736333
v 10.792774 -7.8413787 0.059472762
v 10.643487 -7.7329164 0.029736338
v 9.433236 -9.4332 0.059472762
v 9.302753 -9.30272 0.029736344
v 7.841417 -10.792747 0.059472762
v 7.732956 -10.64346 0.029736347
v 6.056518 -11.886538 0.059472762
v 5.9727435 -11.722121 0.029736351
v 4.122486 -12.687642 0.059472762
v 4.0654664 -12.512146 0.029736357
v 2.0869482 -13.176338 0.059472755
v 2.058081 -12.9940815 0.029736357
v 1.8310548E-05 -13.340584 0.059472762
v 1.8626688E-05 -13.156055 0.02973636
v -2.086909 -13.176343 0.059472755
v -2.0580425 -12.994085 0.029736357
v -4.1224504 -12.6876545 0.059472762
v -4.0654283 -12.512157 0.029736353
v -6.0564837 -11.886555 0.059472762
v -5.97271 -11.722139 0.029736351
v -7.8413863 -10.792769 0.059472755
v -7.732923 -10.643483 0.029736347
v -9.433207 -9.4332285 0.059472762
v -9.302726 -9.302749 0.029736344
v -10.792749 -7.8414106 0.059472762
v -10.643463 -7.7329473 0.029736344
v -11.886541 -6.0565104 0.059472762
v -11.722125 -5.972737 0.029736333
v -12.687646 -4.122479 0.059472755
v -12.512151 -4.065456 0.029736327
v -13.176338 -2.0869384 0.059472755
v -12.994081 -2.058071 0.02973632
v -13.340584 -1.0986328E-05 0.059472762
v -13.156055 -9.954669E-06 0.029736314
v -13.176343 2.0869164 0.059472762
v -12.994085 2.0580487 0.029736308
v -12.687652 4.1224594 0.059472762
v -12.512156 4.065439 0.029736303
v -11.886551 6.0564914 0.059472762
v -11.7221365 5.9727197 0.029736295
v -10.792764 7.84139 0.059472762
v -10.6434765 7.732929 0.02973629
v -9.433223 9.433214 0.059472762
v -9.30274 9.302731 0.029736284
v -7.8414035 10.792755 0.059472762
v -7.73294 10.643467 0.02973628
v -6.056502 11.886544 0.059472762
v -5.9727283 11.72213 0.029736279
v -4.1224704 12.68765 0.059472762
v -4.0654488 12.512156 0.029736279
v -2.08693 13.176338 0.059472762
v -2.0580626 12.994081 0.029736279
v -2.4414062E-06 13.340584 0.059472762
v -1.3141337E-06 13.156055 0.029736271
v 2.0869262 13.176338 0.059472762
v 2.05806 12.994081 0.029736271
vt 0.9730999 0.0019999037
vt 0.99799997 0.998856
vt 0.99799997 0.0019999037
vt 0.9730999 0.998856
vt 0.94819987 0.0019999037
vt 0.94819987 0.998856
vt 0.9232999 0.0019999037
vt 0.9232999 0.998856
vt 0.89839995 0.0019999037
vt 0.89839995 0.998856
vt 0.87349993 0.0019999037
vt 0.87349993 0.998856
vt 0.8486 0.0019999037
vt 0.8486 0.998856
vt 0.8236999 0.0019999037
vt 0.8236999 0.998856
vt 0.79879993 0.0019999037
vt 0.79879993 0.998856
vt 0.7739 0.0019999037
vt 0.7739 0.998856
vt 0.74900025 0.0019999037
vt 0.74900025 0.998856
vt 0.72410023 0.0019999037
vt 0.72410023 0.998856
vt 0.6992003 0.0019999037
vt 0.6992003 0.998856
vt 0.67430025 0.0019999037
vt 0.67430025 0.998856
vt 0.64940023 0.0019999037
vt 0.64940023 0.998856
vt 0.6245002 0.0019999037
vt 0.6245002 0.998856
vt 0.59960026 0.0019999037
vt 0.59960026 0.998856
vt 0.5747002 0.0019999037
vt 0.5747002 0.998856
vt 0.54980016 0.0019999037
vt 0.54980016 0.998856
vt 0.5249002 0.0019999037
vt 0.5249002 0.998856
vt 0.50000024 0.0019999037
vt 0.50000024 0.998856
vt 0.4751002 0.0019999037
vt 0.4751002 0.998856
vt 0.45020017 0.0019999037
vt 0.45020017 0.998856
vt 0.42530018 0.0019999037
vt 0.42530018 0.998856
vt 0.4004002 0.0019999037
vt 0.4004002 0.998856
vt 0.37550017 0.0019999037
vt 0.37550017 0.998856
vt 0.35060015 0.0019999037
vt 0.35060015 0.998856
vt 0.32570013 0.0019999037
vt 0.32570013 0.998856
vt 0.30080014 0.0019999037
vt 0.30080014 0.998856
vt 0.2759001 0.0019999037
vt 0.2759001 0.998856
vt 0.2510001 0.0019999037
vt 0.2510001 0.998856
vt 0.22610009 0.0019999037
vt 0.22610009 0.998856
vt 0.20120011 0.0019999037
vt 0.20120011 0.998856
vt 0.17630008 0.0019999037
vt 0.17630008 0.998856
vt 0.15140007 0.0019999037
vt 0.15140007 0.998856
vt 0.12650006 0.0019999037
vt 0.12650006 0.998856
vt 0.10160005 0.0019999037
vt 0.10160005 0.998856
vt 0.07670005 0.0019999037
vt 0.07670005 0.998856
vt 0.051800042 0.0019999037
vt 0.051800042 0.998856
vt 0.026900006 0.0019999037
vt 0.026900006 0.998856
vt 0.002 0.0019999037
vt 0.002 0.998856
vn -0.023254046 -0.0620108 0.9978046
vn -0.01162868 -0.06201963 0.99800724
vn -0.011629383 -0.062023375 0.998007
vn -0.023253346 -0.06200892 0.9978047
vn -0.030998876 -0.061997753 0.9975948
vn -0.031010978 -0.05426921 0.9980447
vn -0.031010978 -0.05426921 0.9980447
vn -0.03875324 -0.05425453 0.9977748
vn -0.046509493 -0.046509493 0.9978345
vn -0.054215472 -0.054215472 0.99705637
vn -0.054272495 -0.031012854 0.9980445
vn -0.05425453 -0.03875324 0.9977748
vn -0.061997753 -0.030998876 0.9975948
vn -0.054270852 -0.031011915 0.9980446
vn -0.0620108 -0.023254046 0.9978046
vn -0.062012162 -0.019378802 0.9978872
vn -0.062023375 -0.011629383 0.998007
vn -0.0620209 -0.009690766 0.99802774
vn -0.062027562 0 0.9980744
vn -0.06202381 0 0.99807465
vn -0.062024653 0.009691352 0.9980275
vn -0.0620209 0.009690766 0.99802774
vn -0.0620108 0.023254046 0.9978046
vn -0.054282274 0.02326383 0.9982546
vn -0.061997753 0.030998876 0.9975948
vn -0.061994005 0.030997002 0.997595
vn -0.04652487 0.038770728 0.9981645
vn -0.05425453 0.03875324 0.9977748
vn -0.046509493 0.046509493 0.9978345
vn -0.054236624 0.04648853 0.99744534
vn -0.031012854 0.054272495 0.9980445
vn -0.03875324 0.05425453 0.9977748
vn -0.030998876 0.061997753 0.9975948
vn -0.031010978 0.05426921 0.9980447
vn -0.019379972 0.062015913 0.99788696
vn -0.023252646 0.06200705 0.9978048
vn -0.01162868 0.06201963 0.99800724
vn -0.009690766 0.0620209 0.99802774
vn -0 0.062027562 0.9980744
vn -0 0.06202569 0.99807453
vn 0.009690766 0.0620209 0.99802774
vn 0.009695138 0.054292772 0.998478
vn 0.019379972 0.062015913 0.99788696
vn 0.023252646 0.06200705 0.9978048
vn 0.030998876 0.061997753 0.9975948
vn 0.031010978 0.05426921 0.9980447
vn 0.03875324 0.05425453 0.9977748
vn 0.03875324 0.05425453 0.9977748
vn 0.046491336 0.0542399 0.9974451
vn 0.04648853 0.054236624 0.99744534
vn 0.04652206 0.03876839 0.9981647
vn 0.05425453 0.03875324 0.9977748
vn 0.054272495 0.031012854 0.9980445
vn 0.061994005 0.030997002 0.997595
vn 0.062012162 0.019378802 0.9978872
vn 0.06200705 0.023252646 0.9978048
vn 0.06201963 0.01162868 0.99800724
vn 0.06201963 0.01162868 0.99800724
vn 0.062027562 0 0.9980744
vn 0.06202381 0 0.99807465
vn 0.062024653 -0.009691352 0.9980275
vn 0.054291654 -0.011633927 0.99845743
vn 0.054288395 -0.019388715 0.99833703
vn 0.06200705 -0.023252646 0.9978048
vn 0.061997753 -0.030998876 0.9975948
vn 0.061994005 -0.030997002 0.997595
vn 0.05425782 -0.03875558 0.99777454
vn 0.05426921 -0.031010978 0.9980447
vn 0.054218736 -0.054218736 0.997056
vn 0.046506677 -0.046506677 0.99783474
vn 0.03875558 -0.05425782 0.99777454
vn 0.038735792 -0.061977267 0.99732554
vn 0.030998876 -0.061997753 0.9975948
vn 0.031010978 -0.05426921 0.9980447
vn 0.019379972 -0.062015913 0.99788696
vn 0.019379387 -0.06201404 0.9978871
vn 0.011629383 -0.062023375 0.998007
vn 0.009691059 -0.062022775 0.9980276
vn -0 -0.062027562 0.9980744
vn -0 -0.06202381 0.99807465
vn -0.011629383 -0.062023375 0.998007
vn -0.01162868 -0.06201963 0.99800724
g Eff_Circleside_06_0
f 3/3/3 2/2/2 1/1/1
f 2/2/2 4/4/4 1/1/1
f 1/1/1 4/4/4 5/5/5
f 4/4/4 6/6/6 5/5/5
f 5/5/5 6/6/6 7/7/7
f 6/6/6 8/8/8 7/7/7
f 7/7/7 8/8/8 9/9/9
f 8/8/8 10/10/10 9/9/9
f 9/9/9 10/10/10 11/11/11
f 10/10/10 12/12/12 11/11/11
f 11/11/11 12/12/12 13/13/13
f 12/12/12 14/14/14 13/13/13
f 13/13/13 14/14/14 15/15/15
f 14/14/14 16/16/16 15/15/15
f 15/15/15 16/16/16 17/17/17
f 16/16/16 18/18/18 17/17/17
f 17/17/17 18/18/18 19/19/19
f 18/18/18 20/20/20 19/19/19
f 19/19/19 20/20/20 21/21/21
f 20/20/20 22/22/22 21/21/21
f 21/21/21 22/22/22 23/23/23
f 22/22/22 24/24/24 23/23/23
f 23/23/23 24/24/24 25/25/25
f 24/24/24 26/26/26 25/25/25
f 25/25/25 26/26/26 27/27/27
f 26/26/26 28/28/28 27/27/27
f 27/27/27 28/28/28 29/29/29
f 28/28/28 30/30/30 29/29/29
f 29/29/29 30/30/30 31/31/31
f 30/30/30 32/32/32 31/31/31
f 31/31/31 32/32/32 33/33/33
f 32/32/32 34/34/34 33/33/33
f 33/33/33 34/34/34 35/35/35
f 34/34/34 36/36/36 35/35/35
f 35/35/35 36/36/36 37/37/37
f 36/36/36 38/38/38 37/37/37
f 37/37/37 38/38/38 39/39/39
f 38/38/38 40/40/40 39/39/39
f 39/39/39 40/40/40 41/41/41
f 40/40/40 42/42/42 41/41/41
f 41/41/41 42/42/42 43/43/43
f 42/42/42 44/44/44 43/43/43
f 43/43/43 44/44/44 45/45/45
f 44/44/44 46/46/46 45/45/45
f 45/45/45 46/46/46 47/47/47
f 46/46/46 48/48/48 47/47/47
f 47/47/47 48/48/48 49/49/49
f 48/48/48 50/50/50 49/49/49
f 49/49/49 50/50/50 51/51/51
f 50/50/50 52/52/52 51/51/51
f 51/51/51 52/52/52 53/53/53
f 52/52/52 54/54/54 53/53/53
f 53/53/53 54/54/54 55/55/55
f 54/54/54 56/56/56 55/55/55
f 55/55/55 56/56/56 57/57/57
f 56/56/56 58/58/58 57/57/57
f 57/57/57 58/58/58 59/59/59
f 58/58/58 60/60/60 59/59/59
f 59/59/59 60/60/60 61/61/61
f 60/60/60 62/62/62 61/61/61
f 61/61/61 62/62/62 63/63/63
f 62/62/62 64/64/64 63/63/63
f 63/63/63 64/64/64 65/65/65
f 64/64/64 66/66/66 65/65/65
f 65/65/65 66/66/66 67/67/67
f 66/66/66 68/68/68 67/67/67
f 67/67/67 68/68/68 69/69/69
f 68/68/68 70/70/70 69/69/69
f 69/69/69 70/70/70 71/71/71
f 70/70/70 72/72/72 71/71/71
f 71/71/71 72/72/72 73/73/73
f 72/72/72 74/74/74 73/73/73
f 73/73/73 74/74/74 75/75/75
f 74/74/74 76/76/76 75/75/75
f 75/75/75 76/76/76 77/77/77
f 76/76/76 78/78/78 77/77/77
f 77/77/77 78/78/78 79/79/79
f 78/78/78 80/80/80 79/79/79
f 79/79/79 80/80/80 81/81/81
f 80/80/80 82/82/82 81/81/81
