g Eff_Cylinder_01
v 0.46966434 1.752804 3.7266767
v -9.689331E-08 1.8146365 3.726676
v -9.689331E-08 1.6571138 2.7779908
v 0.42889416 1.6006484 2.777991
v 0.90732 1.5715207 3.7266767
v -9.689331E-08 1.40505 1.8537481
v 0.8285583 1.4351015 2.777991
v 1.2831432 1.2831407 3.7266767
v 0.36365533 1.3571742 1.8537477
v -9.689331E-08 1.0865588 1.0571171
v 1.1717576 1.1717548 2.777991
v 1.5715227 0.9073169 3.7266774
v 0.7025263 1.2168083 1.8537481
v 0.28122345 1.0495352 1.0571173
v -0.18114504 0.70944345 0.4590436
v 1.4351033 0.8285552 2.777991
v 1.7528052 0.46966097 3.726678
v 0.9935217 0.9935192 1.8537477
v 0.5432806 0.94098735 1.0571173
v 0.008645305 0.732153 0.45904368
v -0.0906184 0.3549017 0.09408376
v 1.6006494 0.42889097 2.7779915
v 1.8146367 -1.6471863E-06 3.726678
v 1.2168096 0.7025237 1.8537478
v 0.76831436 0.7683128 1.0571173
v 0.19784598 0.7049686 0.4590436
v 0.004324998 0.3662625 0.09408376
v -9.673495E-08 -1.2119834E-07 -0.027884101
v 1.6571136 -1.4533996E-06 2.7779908
v 1.7528044 -0.4696641 3.7266784
v 1.3571749 0.36365262 1.8537481
v 0.9409885 0.54327875 1.0571172
v 0.3735641 0.6297409 0.4590436
v 0.09897326 0.3526631 0.09408376
v -9.673495E-08 -1.2119834E-07 -0.027884101
v 1.600648 -0.42889392 2.777991
v 1.5715213 -0.9073197 3.7266786
v 1.4050499 -1.259613E-06 1.8537478
v 1.0495359 0.2812212 1.0571173
v 0.5238244 0.5115978 0.45904368
v 0.18687683 0.3150299 0.09408374
v -9.673495E-08 -1.2119834E-07 -0.027884101
v 1.4351015 -0.828558 2.7779913
v 1.283141 -1.2831429 3.726678
v 1.3571737 -0.36365503 1.8537478
v 1.0865593 -9.689331E-07 1.0571172
v 0.6383862 0.35858968 0.45904368
v 0.2620447 0.25592852 0.09408378
v -9.673495E-08 -1.2119834E-07 -0.027884101
v 1.171755 -1.1717573 2.777991
v 0.90731746 -1.5715222 3.726678
v 1.2168087 -0.7025261 1.8537477
v 1.0495359 -0.2812231 1.0571175
v 0.70944417 0.1811447 0.45904377
v 0.31935483 0.17938586 0.09408378
v -9.673495E-08 -1.2119834E-07 -0.027884101
v 0.828556 -1.4351033 2.7779915
v 0.46966162 -1.752805 3.7266786
v 0.9935198 -0.9935215 1.8537481
v 0.9409879 -0.5432804 1.0571175
v 0.7321537 -0.008645385 0.45904368
v 0.35490158 0.09061825 0.09408374
v -9.673495E-08 -1.2119834E-07 -0.027884101
v 0.42889184 -1.6006494 2.7779918
v -9.689331E-07 -1.814637 3.7266784
v 0.70252454 -1.21681 1.8537484
v 0.768313 -0.7683141 1.0571172
v 0.70496863 -0.1978463 0.4590436
v 0.36626244 -0.0043248446 0.09408376
v -9.673495E-08 -1.2119834E-07 -0.027884101
v -5.8135987E-07 -1.6571139 2.777992
v -0.4696633 -1.7528043 3.7266784
v 0.363653 -1.3571748 1.8537488
v 0.54327893 -0.9409885 1.0571173
v 0.629741 -0.37356398 0.4590436
v 0.35266298 -0.09897313 0.09408376
v -9.673495E-08 -1.2119834E-07 -0.027884101
v -0.42889306 -1.6006488 2.777992
v -0.90731895 -1.5715213 3.726678
v -4.8446657E-07 -1.4050505 1.8537487
v 0.28122148 -1.0495361 1.0571171
v 0.51159775 -0.523824 0.45904368
v 0.31503025 -0.1868764 0.09408374
v -9.673495E-08 -1.2119834E-07 -0.027884101
v -0.82855725 -1.4351025 2.7779913
v -1.2831426 -1.2831419 3.7266784
v -0.3636542 -1.3571745 1.8537481
v -5.8135987E-07 -1.0865595 1.0571176
v 0.35858986 -0.6383865 0.4590436
v 0.25592855 -0.26204467 0.09408376
v -9.673495E-08 -1.2119834E-07 -0.027884101
v -1.1717566 -1.1717563 2.7779908
v -1.5715215 -0.9073182 3.7266774
v -0.7025255 -1.2168093 1.8537484
v -0.2812226 -1.0495359 1.0571173
v 0.18114482 -0.7094439 0.45904368
v 0.17938583 -0.3193549 0.09408376
v -9.673495E-08 -1.2119834E-07 -0.027884101
v -1.4351029 -0.82855666 2.7779918
v -1.7528048 -0.4696623 3.7266774
v -0.99352103 -0.99352056 1.8537481
v -0.5432799 -0.9409881 1.0571178
v -0.008645181 -0.7321539 0.45904368
v 0.090618305 -0.3549016 0.09408374
v -9.673495E-08 -1.2119834E-07 -0.027884101
v -1.6006486 -0.42889237 2.7779915
v -1.814637 9.689331E-08 3.726678
v -1.2168094 -0.702525 1.8537482
v -0.76831377 -0.7683135 1.0571173
v -0.1978458 -0.7049687 0.45904344
v -0.004324777 -0.36626244 0.09408376
v -9.673495E-08 -1.2119834E-07 -0.027884101
v -1.6571139 2.9067994E-07 2.7779922
v -1.7528046 0.46966252 3.726678
v -1.3571748 -0.36365357 1.8537471
v -0.9409881 -0.5432796 1.0571175
v -0.37356368 -0.62974113 0.45904347
v -0.09897305 -0.35266277 0.09408376
v -9.673495E-08 -1.2119834E-07 -0.027884101
v -1.6006488 0.42889243 2.777992
v -1.5715215 0.90731806 3.7266774
v -1.40505 2.9067994E-07 1.8537487
v -1.0495358 -0.28122222 1.0571175
v -0.52382386 -0.5115979 0.4590436
v -0.18687633 -0.3150301 0.09408374
v -9.673495E-08 -1.2119834E-07 -0.027884101
v -1.4351025 0.8285572 2.7779913
v -1.283142 1.2831416 3.7266774
v -1.3571745 0.36365396 1.8537469
v -1.0865593 9.689331E-08 1.0571178
v -0.6383862 -0.3585903 0.4590436
v -0.2620446 -0.2559284 0.09408378
v -9.673495E-08 -1.2119834E-07 -0.027884101
v -1.1717563 1.1717558 2.7779913
v -0.90731835 1.5715212 3.7266755
v -1.2168094 0.70252514 1.8537481
v -1.0495358 0.28122255 1.0571172
v -0.7094437 -0.18114498 0.45904377
v -0.31935498 -0.1793859 0.09408376
v -9.673495E-08 -1.2119834E-07 -0.027884101
v -0.8285569 1.4351023 2.777991
v -0.4696627 1.7528043 3.7266755
v -0.99352056 0.9935204 1.8537477
v -0.940988 0.5432801 1.0571176
v -0.73215353 0.008644522 0.45904344
v -0.35490164 -0.090618245 0.09408376
v -9.673495E-08 -1.2119834E-07 -0.027884101
v -0.42889282 1.6006486 2.7779913
v -9.689331E-08 1.8146365 3.726676
v -9.689331E-08 1.6571138 2.7779908
v -0.7025253 1.216809 1.8537477
v -0.36365402 1.3571745 1.8537481
v -9.689331E-08 1.40505 1.8537481
v -0.7683136 0.7683128 1.0571172
v -0.7049687 0.19784567 0.45904368
v -0.3662626 0.0043245135 0.09408374
v -9.673495E-08 -1.2119834E-07 -0.027884101
v -0.2812224 1.0495355 1.0571172
v -9.689331E-08 1.0865588 1.0571171
v -0.5432797 0.9409875 1.0571173
v -0.6297414 0.37356386 0.4590436
v -0.3526631 0.09897332 0.09408378
v -9.673495E-08 -1.2119834E-07 -0.027884101
v -0.3585904 0.6383857 0.4590436
v -0.18114504 0.70944345 0.4590436
v -0.51159805 0.52382356 0.4590436
v -0.31503025 0.18687665 0.09408374
v -9.673495E-08 -1.2119834E-07 -0.027884101
v -0.25592855 0.2620446 0.09408376
v -9.673495E-08 -1.2119834E-07 -0.027884101
v -0.17938599 0.31935504 0.09408376
v -9.673495E-08 -1.2119834E-07 -0.027884101
v -0.0906184 0.3549017 0.09408376
v -9.673495E-08 -1.2119834E-07 -0.027884101
vt 0.99522865 0.48623618
vt 0.99511564 0.5278291
vt 0.8297838 0.61442703
vt 0.8298969 0.572834
vt 0.99534106 0.44464412
vt 0.65905213 0.704985
vt 0.8300098 0.531242
vt 0.99545443 0.4030511
vt 0.65916455 0.66339207
vt 0.4563374 0.80777353
vt 0.8301222 0.4896489
vt 0.995566 0.36145797
vt 0.65927744 0.62179965
vt 0.45645058 0.76618105
vt 0.2542457 0.9013995
vt 0.83023524 0.4480563
vt 0.9956802 0.3198652
vt 0.65939057 0.58020663
vt 0.45656312 0.72458786
vt 0.25435844 0.85980666
vt 0.12691922 0.95285684
vt 0.83034754 0.40646282
vt 0.9957925 0.2782726
vt 0.65950334 0.53861386
vt 0.4566754 0.6829957
vt 0.2544708 0.8182136
vt 0.1270319 0.91126376
vt -0.0029940219 1.0037608
vt 0.83046067 0.3648704
vt 0.99590504 0.2366797
vt 0.65961576 0.49702114
vt 0.45678842 0.6414024
vt 0.25458398 0.7766211
vt 0.12714453 0.869671
vt -0.0028817286 0.9621681
vt 0.8305731 0.32327828
vt 0.99601746 0.19508736
vt 0.6597289 0.45542765
vt 0.45690125 0.5998096
vt 0.2546969 0.7350279
vt 0.12725766 0.82807845
vt -0.0027688988 0.9205753
vt 0.83068633 0.28168514
vt 0.99613047 0.15349482
vt 0.65984166 0.41383594
vt 0.45701373 0.5582171
vt 0.25480968 0.69343513
vt 0.12737031 0.7864855
vt -0.0026561287 0.87898266
vt 0.83079886 0.24009264
vt 0.99624336 0.111901924
vt 0.6599545 0.37224263
vt 0.45712703 0.5166236
vt 0.25492206 0.65184236
vt 0.12748307 0.7448927
vt -0.0025433586 0.8373897
vt 0.83091176 0.19849904
vt 0.9963566 0.07030884
vt 0.66006726 0.3306496
vt 0.45723975 0.47503084
vt 0.25503507 0.61024934
vt 0.12759551 0.7033
vt -0.0024301712 0.7957969
vt 0.8310247 0.15690626
vt 0.99646866 0.028715942
vt 0.66018033 0.2890566
vt 0.4573524 0.43343824
vt 0.25514778 0.56865674
vt 0.1277081 0.6617071
vt -0.0023175203 0.7542044
vt 0.83113736 0.11531366
vt 0.9965824 -0.012877269
vt 0.6602926 0.24746387
vt 0.45746523 0.39184564
vt 0.25526062 0.527064
vt 0.1278216 0.62011456
vt -0.0022052862 0.71261185
vt 0.8312499 0.07372089
vt 0.9966949 -0.05447018
vt 0.6604055 0.20587099
vt 0.457578 0.35025275
vt 0.25537315 0.48547092
vt 0.1279343 0.57852185
vt -0.0020920392 0.67101884
vt 0.83136296 0.032128047
vt 0.9968072 -0.09606272
vt 0.66051805 0.16427858
vt 0.45769036 0.30865997
vt 0.25548607 0.44387832
vt 0.12804672 0.53692895
vt -0.001979746 0.6294259
vt 0.8314755 -0.0094646495
vt 0.9969201 -0.13765511
vt 0.6606307 0.122685805
vt 0.4578033 0.26706725
vt 0.25559938 0.40228572
vt 0.12816009 0.49533683
vt -0.0018666182 0.5878331
vt 0.83158815 -0.051057488
vt 0.997033 -0.17924806
vt 0.6607436 0.08109295
vt 0.4579159 0.2254747
vt 0.2557116 0.36069247
vt 0.12827256 0.45374382
vt -0.0017536692 0.5462405
vt 0.8317011 -0.09265068
vt 0.9971458 -0.22084066
vt 0.6608568 0.03950011
vt 0.45802927 0.1838815
vt 0.25582442 0.31910065
vt 0.12838514 0.41215158
vt -0.0016412567 0.5046474
vt 0.8318135 -0.13424274
vt 0.99725807 -0.26243356
vt 0.66096896 -0.0020928527
vt 0.4581418 0.14228891
vt 0.25593683 0.2775077
vt 0.1284978 0.37055874
vt -0.0015281886 0.46305498
vt 0.83192635 -0.17583638
vt 0.9973706 -0.30402598
vt 0.66108185 -0.043685883
vt 0.45825428 0.100696266
vt 0.25605038 0.23591506
vt 0.12861072 0.3289652
vt -0.0014155377 0.42146233
vt 0.8320395 -0.21742812
vt 0.9974843 -0.34562042
vt 0.6611947 -0.08527821
vt 0.45836735 0.059103437
vt 0.2561633 0.19432211
vt 0.12872334 0.28737265
vt -0.0013029464 0.37986997
vt 0.8321523 -0.25902167
vt 0.99759674 -0.3872122
vt 0.66130733 -0.12687081
vt 0.45848012 0.017511204
vt 0.25627553 0.15272881
vt 0.12883656 0.24577945
vt -0.0011899974 0.33827654
vt 0.83226496 -0.3006139
vt 0.99770916 -0.4288046
vt 0.6614204 -0.16846356
vt 0.4585932 -0.024081998
vt 0.25638863 0.111135855
vt 0.12894933 0.20418721
vt -0.0010774061 0.29668418
vt 0.83237785 -0.3422071
vt 0.99782264 -0.47039852
vt 0.83249027 -0.38379923
vt 0.6615326 -0.21005616
vt 0.66164595 -0.25164852
vt 0.6617586 -0.29324245
vt 0.45870572 -0.06567515
vt 0.2565011 0.069543555
vt 0.12906142 0.1625942
vt -0.0009645764 0.25509128
vt 0.45893127 -0.1488613
vt 0.4590438 -0.19045252
vt 0.45881832 -0.10726788
vt 0.2566137 0.027950842
vt 0.12917449 0.1210015
vt -0.0008521639 0.21349868
vt 0.25683984 -0.055234067
vt 0.25695243 -0.09682727
vt 0.25672674 -0.013642589
vt 0.12928757 0.07940853
vt -0.00073909573 0.17190608
vt 0.12939978 0.03781605
vt -0.0006264448 0.13031271
vt 0.12951314 -0.0037768409
vt -0.0005137939 0.08872059
vt 0.12962559 -0.045370273
vt -0.00040108338 0.047126204
vn 0.25532416 0.9528793 -0.16380088
vn -0 0.9864934 -0.16380078
vn -0 0.9770833 -0.21285717
vn 0.25288856 0.9437897 -0.2128572
vn 0.4932476 0.8543278 -0.163801
vn -0 0.94866925 -0.31627
vn 0.48854277 0.8461783 -0.21285728
vn 0.697557 0.6975553 -0.16380098
vn 0.2455344 0.9163439 -0.31627002
vn 3.999061E-07 0.898351 -0.43927813
vn 0.690903 0.69090146 -0.21285728
vn 0.8543289 0.49324593 -0.16380101
vn 0.47433576 0.8215711 -0.31626981
vn 0.2325108 0.8677404 -0.43927813
vn 6.470535E-07 0.7933769 -0.60873073
vn 0.8461794 0.48854095 -0.2128573
vn 0.9528797 0.25532216 -0.16380087
vn 0.6708113 0.67080975 -0.31626981
vn 0.44917604 0.7779947 -0.43927807
vn 0.20534123 0.7663432 -0.6087307
vn 5.151121E-07 0.5385969 -0.8425636
vn 0.94379026 0.2528868 -0.2128572
vn 0.9864934 -1.1977095E-06 -0.16380087
vn 0.8215722 0.47433388 -0.3162697
vn 0.6352308 0.6352297 -0.43927783
vn 0.39668825 0.68708456 -0.6087308
vn 0.13939933 0.52024484 -0.84256345
vn -0 0 -1
vn 0.9770833 -1.2741755E-06 -0.21285729
vn 0.9528792 -0.25532407 -0.16380116
vn 0.9163444 0.2455328 -0.3162698
vn 0.77799547 0.44917467 -0.43927786
vn 0.5610025 0.5610017 -0.608731
vn 0.26929876 0.46643856 -0.84256345
vn -0 0 -1
vn 0.9437897 -0.2528885 -0.21285726
vn 0.854328 -0.49324724 -0.16380121
vn 0.94866925 -1.1157654E-06 -0.31626976
vn 0.86774087 0.23250958 -0.43927792
vn 0.68708503 0.39668742 -0.608731
vn 0.38084587 0.38084477 -0.8425638
vn -0 0 -1
vn 0.84617865 -0.48854217 -0.21285725
vn 0.69755584 -0.69755656 -0.16380094
vn 0.9163441 -0.24553421 -0.31626955
vn 0.89835125 -4.96269E-07 -0.43927783
vn 0.7663432 0.20534045 -0.6087309
vn 0.46643892 0.26929775 -0.8425636
vn -0 0 -1
vn 0.6909018 -0.69090265 -0.21285713
vn 0.49324626 -0.8543286 -0.16380067
vn 0.82157147 -0.4743352 -0.31626958
vn 0.8677406 -0.2325108 -0.43927786
vn 0.7933768 0 -0.60873085
vn 0.5202447 0.13939898 -0.8425636
vn -0 0 -1
vn 0.48854125 -0.8461793 -0.2128571
vn 0.25532266 -0.9528797 -0.16380061
vn 0.6708101 -0.67081094 -0.3162697
vn 0.77799463 -0.4491762 -0.4392779
vn 0.7663429 -0.20534158 -0.60873103
vn 0.5385967 0 -0.8425637
vn -0 0 -1
vn 0.25288716 -0.94379026 -0.21285708
vn -7.128069E-07 -0.98649347 -0.1638006
vn 0.47433415 -0.82157207 -0.3162698
vn 0.6352296 -0.63523084 -0.439278
vn 0.68708414 -0.39668873 -0.60873103
vn 0.5202446 -0.13939956 -0.8425636
vn -0 0 -1
vn -5.5534815E-07 -0.9770833 -0.21285702
vn -0.2553236 -0.9528795 -0.16380055
vn 0.24553296 -0.9163444 -0.3162697
vn 0.44917515 -0.7779952 -0.43927795
vn 0.5610015 -0.5610026 -0.60873103
vn 0.4664384 -0.26929852 -0.8425637
vn -0 0 -1
vn -0.25288808 -0.9437901 -0.21285693
vn -0.49324664 -0.8543285 -0.1638006
vn -3.2463004E-07 -0.9486694 -0.31626967
vn 0.2325098 -0.86774075 -0.43927807
vn 0.39668798 -0.68708456 -0.608731
vn 0.3808452 -0.38084573 -0.8425637
vn -0 0 -1
vn -0.4885416 -0.84617907 -0.21285707
vn -0.69755644 -0.697556 -0.16380063
vn -0.24553385 -0.9163441 -0.3162697
vn -4.1676967E-07 -0.8983513 -0.4392778
vn 0.20534067 -0.76634306 -0.6087311
vn 0.2692981 -0.46643877 -0.8425636
vn -0 0 -1
vn -0.69090253 -0.69090205 -0.21285716
vn -0.8543286 -0.49324638 -0.1638007
vn -0.4743346 -0.8215717 -0.31626976
vn -0.2325107 -0.8677405 -0.43927804
vn -4.0713476E-07 -0.7933767 -0.608731
vn 0.13939898 -0.5202446 -0.8425637
vn -0 0 -1
vn -0.84617925 -0.48854136 -0.21285698
vn -0.9528795 -0.25532317 -0.16380093
vn -0.67081064 -0.6708102 -0.3162699
vn -0.44917586 -0.77799493 -0.43927786
vn -0.20534138 -0.76634294 -0.608731
vn -0 -0.53859663 -0.8425638
vn -0 0 -1
vn -0.9437901 -0.25288758 -0.2128571
vn -0.9864934 0 -0.1638009
vn -0.8215718 -0.47433445 -0.31626976
vn -0.6352303 -0.6352301 -0.43927804
vn -0.3966887 -0.6870841 -0.60873115
vn -0.13939951 -0.5202446 -0.8425635
vn -0 0 -1
vn -0.9770833 0 -0.21285705
vn -0.9528795 0.25532338 -0.16380078
vn -0.9163442 -0.24553315 -0.31626993
vn -0.77799505 -0.44917542 -0.43927804
vn -0.5610022 -0.56100166 -0.60873115
vn -0.26929876 -0.4664381 -0.8425638
vn -0 0 -1
vn -0.9437901 0.2528877 -0.21285693
vn -0.85432833 0.49324673 -0.16380069
vn -0.9486694 0 -0.31626958
vn -0.8677407 -0.2325099 -0.43927813
vn -0.68708444 -0.39668816 -0.6087309
vn -0.38084555 -0.38084513 -0.8425637
vn -0 0 -1
vn -0.8461788 0.48854193 -0.21285701
vn -0.69755626 0.6975562 -0.16380072
vn -0.9163442 0.24553335 -0.3162699
vn -0.89835125 0 -0.4392779
vn -0.7663431 -0.2053407 -0.60873085
vn -0.4664384 -0.2692985 -0.8425637
vn -0 0 -1
vn -0.6909023 0.69090235 -0.21285704
vn -0.49324715 0.8543281 -0.16380093
vn -0.82157147 0.4743352 -0.3162697
vn -0.8677406 0.23251007 -0.43927822
vn -0.7933769 0 -0.6087307
vn -0.5202448 -0.1393991 -0.84256345
vn -0 0 -1
vn -0.48854196 0.8461788 -0.21285713
vn -0.2553235 0.95287937 -0.16380087
vn -0.6708103 0.6708106 -0.31626984
vn -0.77799463 0.44917613 -0.43927798
vn -0.7663431 0.20534068 -0.6087311
vn -0.5385968 0 -0.8425637
vn -0 0 -1
vn -0.25288802 0.94378996 -0.21285708
vn -0 0.9864934 -0.16380078
vn -0 0.9770833 -0.21285717
vn -0.47433499 0.82157147 -0.31626993
vn -0.24553375 0.9163441 -0.31626987
vn -0 0.94866925 -0.31627
vn -0.63523006 0.6352304 -0.43927795
vn -0.6870844 0.39668843 -0.60873085
vn -0.5202448 0.13939889 -0.8425635
vn -0 0 -1
vn -0.23251037 0.8677405 -0.43927813
vn 3.999061E-07 0.898351 -0.43927813
vn -0.44917583 0.7779948 -0.43927795
vn -0.56100184 0.56100243 -0.6087308
vn -0.46643862 0.26929846 -0.8425636
vn -0 0 -1
vn -0.20534113 0.7663432 -0.60873073
vn 6.470535E-07 0.7933769 -0.60873073
vn -0.3966881 0.68708473 -0.60873073
vn -0.38084516 0.3808458 -0.8425637
vn -0 0 -1
vn -0.26929793 0.46643862 -0.8425638
vn -0 0 -1
vn -0.13939929 0.5202449 -0.84256345
vn -0 0 -1
vn 5.151121E-07 0.5385969 -0.8425636
vn -0 0 -1
g Eff_Cylinder_01_0
f 3/3/3 2/2/2 1/1/1
f 4/4/4 3/3/3 1/1/1
f 4/4/4 1/1/1 5/5/5
f 6/6/6 3/3/3 4/4/4
f 7/7/7 4/4/4 5/5/5
f 7/7/7 5/5/5 8/8/8
f 9/9/9 6/6/6 4/4/4
f 9/9/9 4/4/4 7/7/7
f 10/10/10 6/6/6 9/9/9
f 11/11/11 7/7/7 8/8/8
f 11/11/11 8/8/8 12/12/12
f 13/13/13 9/9/9 7/7/7
f 13/13/13 7/7/7 11/11/11
f 14/14/14 10/10/10 9/9/9
f 14/14/14 9/9/9 13/13/13
f 15/15/15 10/10/10 14/14/14
f 16/16/16 11/11/11 12/12/12
f 16/16/16 12/12/12 17/17/17
f 18/18/18 13/13/13 11/11/11
f 18/18/18 11/11/11 16/16/16
f 19/19/19 14/14/14 13/13/13
f 19/19/19 13/13/13 18/18/18
f 20/20/20 15/15/15 14/14/14
f 20/20/20 14/14/14 19/19/19
f 21/21/21 15/15/15 20/20/20
f 22/22/22 16/16/16 17/17/17
f 22/22/22 17/17/17 23/23/23
f 24/24/24 18/18/18 16/16/16
f 24/24/24 16/16/16 22/22/22
f 25/25/25 19/19/19 18/18/18
f 25/25/25 18/18/18 24/24/24
f 26/26/26 20/20/20 19/19/19
f 26/26/26 19/19/19 25/25/25
f 27/27/27 21/21/21 20/20/20
f 27/27/27 20/20/20 26/26/26
f 21/21/21 27/27/27 28/28/28
f 29/29/29 22/22/22 23/23/23
f 29/29/29 23/23/23 30/30/30
f 31/31/31 24/24/24 22/22/22
f 31/31/31 22/22/22 29/29/29
f 32/32/32 25/25/25 24/24/24
f 32/32/32 24/24/24 31/31/31
f 33/33/33 26/26/26 25/25/25
f 33/33/33 25/25/25 32/32/32
f 34/34/34 27/27/27 26/26/26
f 34/34/34 26/26/26 33/33/33
f 27/27/27 34/34/34 35/35/35
f 36/36/36 29/29/29 30/30/30
f 36/36/36 30/30/30 37/37/37
f 38/38/38 31/31/31 29/29/29
f 38/38/38 29/29/29 36/36/36
f 39/39/39 32/32/32 31/31/31
f 39/39/39 31/31/31 38/38/38
f 40/40/40 33/33/33 32/32/32
f 40/40/40 32/32/32 39/39/39
f 41/41/41 34/34/34 33/33/33
f 41/41/41 33/33/33 40/40/40
f 34/34/34 41/41/41 42/42/42
f 43/43/43 36/36/36 37/37/37
f 43/43/43 37/37/37 44/44/44
f 45/45/45 38/38/38 36/36/36
f 45/45/45 36/36/36 43/43/43
f 46/46/46 39/39/39 38/38/38
f 46/46/46 38/38/38 45/45/45
f 47/47/47 40/40/40 39/39/39
f 47/47/47 39/39/39 46/46/46
f 48/48/48 41/41/41 40/40/40
f 48/48/48 40/40/40 47/47/47
f 41/41/41 48/48/48 49/49/49
f 50/50/50 43/43/43 44/44/44
f 50/50/50 44/44/44 51/51/51
f 52/52/52 45/45/45 43/43/43
f 52/52/52 43/43/43 50/50/50
f 53/53/53 46/46/46 45/45/45
f 53/53/53 45/45/45 52/52/52
f 54/54/54 47/47/47 46/46/46
f 54/54/54 46/46/46 53/53/53
f 55/55/55 48/48/48 47/47/47
f 55/55/55 47/47/47 54/54/54
f 48/48/48 55/55/55 56/56/56
f 57/57/57 50/50/50 51/51/51
f 57/57/57 51/51/51 58/58/58
f 59/59/59 52/52/52 50/50/50
f 59/59/59 50/50/50 57/57/57
f 60/60/60 53/53/53 52/52/52
f 60/60/60 52/52/52 59/59/59
f 61/61/61 54/54/54 53/53/53
f 61/61/61 53/53/53 60/60/60
f 62/62/62 55/55/55 54/54/54
f 62/62/62 54/54/54 61/61/61
f 55/55/55 62/62/62 63/63/63
f 64/64/64 57/57/57 58/58/58
f 64/64/64 58/58/58 65/65/65
f 66/66/66 59/59/59 57/57/57
f 66/66/66 57/57/57 64/64/64
f 67/67/67 60/60/60 59/59/59
f 67/67/67 59/59/59 66/66/66
f 68/68/68 61/61/61 60/60/60
f 68/68/68 60/60/60 67/67/67
f 69/69/69 62/62/62 61/61/61
f 69/69/69 61/61/61 68/68/68
f 62/62/62 69/69/69 70/70/70
f 71/71/71 64/64/64 65/65/65
f 71/71/71 65/65/65 72/72/72
f 73/73/73 66/66/66 64/64/64
f 73/73/73 64/64/64 71/71/71
f 74/74/74 67/67/67 66/66/66
f 74/74/74 66/66/66 73/73/73
f 75/75/75 68/68/68 67/67/67
f 75/75/75 67/67/67 74/74/74
f 76/76/76 69/69/69 68/68/68
f 76/76/76 68/68/68 75/75/75
f 69/69/69 76/76/76 77/77/77
f 78/78/78 71/71/71 72/72/72
f 78/78/78 72/72/72 79/79/79
f 80/80/80 73/73/73 71/71/71
f 80/80/80 71/71/71 78/78/78
f 81/81/81 74/74/74 73/73/73
f 81/81/81 73/73/73 80/80/80
f 82/82/82 75/75/75 74/74/74
f 82/82/82 74/74/74 81/81/81
f 83/83/83 76/76/76 75/75/75
f 83/83/83 75/75/75 82/82/82
f 76/76/76 83/83/83 84/84/84
f 85/85/85 78/78/78 79/79/79
f 85/85/85 79/79/79 86/86/86
f 87/87/87 80/80/80 78/78/78
f 87/87/87 78/78/78 85/85/85
f 88/88/88 81/81/81 80/80/80
f 88/88/88 80/80/80 87/87/87
f 89/89/89 82/82/82 81/81/81
f 89/89/89 81/81/81 88/88/88
f 90/90/90 83/83/83 82/82/82
f 90/90/90 82/82/82 89/89/89
f 83/83/83 90/90/90 91/91/91
f 92/92/92 85/85/85 86/86/86
f 92/92/92 86/86/86 93/93/93
f 94/94/94 87/87/87 85/85/85
f 94/94/94 85/85/85 92/92/92
f 95/95/95 88/88/88 87/87/87
f 95/95/95 87/87/87 94/94/94
f 96/96/96 89/89/89 88/88/88
f 96/96/96 88/88/88 95/95/95
f 97/97/97 90/90/90 89/89/89
f 97/97/97 89/89/89 96/96/96
f 90/90/90 97/97/97 98/98/98
f 99/99/99 92/92/92 93/93/93
f 99/99/99 93/93/93 100/100/100
f 101/101/101 94/94/94 92/92/92
f 101/101/101 92/92/92 99/99/99
f 102/102/102 95/95/95 94/94/94
f 102/102/102 94/94/94 101/101/101
f 103/103/103 96/96/96 95/95/95
f 103/103/103 95/95/95 102/102/102
f 104/104/104 97/97/97 96/96/96
f 104/104/104 96/96/96 103/103/103
f 97/97/97 104/104/104 105/105/105
f 106/106/106 99/99/99 100/100/100
f 106/106/106 100/100/100 107/107/107
f 108/108/108 101/101/101 99/99/99
f 108/108/108 99/99/99 106/106/106
f 109/109/109 102/102/102 101/101/101
f 109/109/109 101/101/101 108/108/108
f 110/110/110 103/103/103 102/102/102
f 110/110/110 102/102/102 109/109/109
f 111/111/111 104/104/104 103/103/103
f 111/111/111 103/103/103 110/110/110
f 104/104/104 111/111/111 112/112/112
f 113/113/113 106/106/106 107/107/107
f 113/113/113 107/107/107 114/114/114
f 115/115/115 108/108/108 106/106/106
f 115/115/115 106/106/106 113/113/113
f 116/116/116 109/109/109 108/108/108
f 116/116/116 108/108/108 115/115/115
f 117/117/117 110/110/110 109/109/109
f 117/117/117 109/109/109 116/116/116
f 118/118/118 111/111/111 110/110/110
f 118/118/118 110/110/110 117/117/117
f 111/111/111 118/118/118 119/119/119
f 120/120/120 113/113/113 114/114/114
f 120/120/120 114/114/114 121/121/121
f 122/122/122 115/115/115 113/113/113
f 122/122/122 113/113/113 120/120/120
f 123/123/123 116/116/116 115/115/115
f 123/123/123 115/115/115 122/122/122
f 124/124/124 117/117/117 116/116/116
f 124/124/124 116/116/116 123/123/123
f 125/125/125 118/118/118 117/117/117
f 125/125/125 117/117/117 124/124/124
f 118/118/118 125/125/125 126/126/126
f 127/127/127 120/120/120 121/121/121
f 127/127/127 121/121/121 128/128/128
f 129/129/129 122/122/122 120/120/120
f 129/129/129 120/120/120 127/127/127
f 130/130/130 123/123/123 122/122/122
f 130/130/130 122/122/122 129/129/129
f 131/131/131 124/124/124 123/123/123
f 131/131/131 123/123/123 130/130/130
f 132/132/132 125/125/125 124/124/124
f 132/132/132 124/124/124 131/131/131
f 125/125/125 132/132/132 133/133/133
f 134/134/134 127/127/127 128/128/128
f 134/134/134 128/128/128 135/135/135
f 136/136/136 129/129/129 127/127/127
f 136/136/136 127/127/127 134/134/134
f 137/137/137 130/130/130 129/129/129
f 137/137/137 129/129/129 136/136/136
f 138/138/138 131/131/131 130/130/130
f 138/138/138 130/130/130 137/137/137
f 139/139/139 132/132/132 131/131/131
f 139/139/139 131/131/131 138/138/138
f 132/132/132 139/139/139 140/140/140
f 141/141/141 134/134/134 135/135/135
f 141/141/141 135/135/135 142/142/142
f 143/143/143 136/136/136 134/134/134
f 143/143/143 134/134/134 141/141/141
f 144/144/144 137/137/137 136/136/136
f 144/144/144 136/136/136 143/143/143
f 145/145/145 138/138/138 137/137/137
f 145/145/145 137/137/137 144/144/144
f 146/146/146 139/139/139 138/138/138
f 146/146/146 138/138/138 145/145/145
f 139/139/139 146/146/146 147/147/147
f 148/148/148 141/141/141 142/142/142
f 148/148/148 142/142/142 149/149/149
f 150/150/150 148/148/148 149/149/149
f 151/151/151 143/143/143 141/141/141
f 151/151/151 141/141/141 148/148/148
f 152/152/152 148/148/148 150/150/150
f 152/152/152 151/151/151 148/148/148
f 153/153/153 152/152/152 150/150/150
f 154/154/154 144/144/144 143/143/143
f 154/154/154 143/143/143 151/151/151
f 155/155/155 145/145/145 144/144/144
f 155/155/155 144/144/144 154/154/154
f 156/156/156 146/146/146 145/145/145
f 156/156/156 145/145/145 155/155/155
f 146/146/146 156/156/156 157/157/157
f 158/158/158 152/152/152 153/153/153
f 159/159/159 158/158/158 153/153/153
f 160/160/160 151/151/151 152/152/152
f 160/160/160 154/154/154 151/151/151
f 158/158/158 160/160/160 152/152/152
f 161/161/161 155/155/155 154/154/154
f 161/161/161 154/154/154 160/160/160
f 162/162/162 156/156/156 155/155/155
f 162/162/162 155/155/155 161/161/161
f 156/156/156 162/162/162 163/163/163
f 164/164/164 158/158/158 159/159/159
f 165/165/165 164/164/164 159/159/159
f 166/166/166 160/160/160 158/158/158
f 166/166/166 161/161/161 160/160/160
f 164/164/164 166/166/166 158/158/158
f 167/167/167 162/162/162 161/161/161
f 167/167/167 161/161/161 166/166/166
f 162/162/162 167/167/167 168/168/168
f 169/169/169 167/167/167 166/166/166
f 169/169/169 166/166/166 164/164/164
f 167/167/167 169/169/169 170/170/170
f 171/171/171 164/164/164 165/165/165
f 171/171/171 169/169/169 164/164/164
f 169/169/169 171/171/171 172/172/172
f 173/173/173 171/171/171 165/165/165
f 171/171/171 173/173/173 174/174/174
