g Eff_Xplane_01
v 7.6293944E-08 0.5 -0.5
v 7.6293944E-08 -0.5 -0.5
v -7.6293944E-08 -0.5 0.5
v -7.6293944E-08 0.5 0.5
v -0.4999999 0 -0.50000006
v 0.50000006 0 -0.4999999
v 0.4999999 0 0.50000006
v -0.50000006 0 0.4999999
vt 0.99999976 1.0000001
vt 0.9999999 5.9604645E-08
vt -1.6292068E-07 0
vt -2.3841858E-07 1
vt 0.99999976 1.0000001
vt 0.9999999 5.9604645E-08
vt -1.6292068E-07 0
vt -2.3841858E-07 1
vn 1 0 1.5258789E-07
vn 1 0 1.5258789E-07
vn 1 0 1.5258789E-07
vn 1 0 1.5258789E-07
vn -0 1 0
vn -0 1 0
vn -0 1 0
vn -0 1 0
g Eff_Xplane_01_0
f 3/3/3 2/2/2 1/1/1
f 4/4/4 3/3/3 1/1/1
f 7/7/7 6/6/6 5/5/5
f 8/8/8 7/7/7 5/5/5
