g Eff_StrikeJaeger_Weapon_01
v -1.9378662E-07 0.06445217 -0.04818485
v -1.9378662E-07 -0.0040634633 -0.064500906
v 0.016715936 0.06445202 0.00918413
v -1.9378662E-07 0.15456691 -0.019700736
v -1.9378662E-07 0.06445217 -0.04818485
v 0.016715936 0.18670551 0.04326015
v -1.9378662E-07 -0.0040634633 -0.064500906
v 0.016715936 -0.037330523 -0.008792292
v -1.9378662E-07 -0.0040634633 -0.064500906
v -1.9378662E-07 -0.07059739 -0.06984922
v -1.9378662E-07 0.21884473 -0.002788977
v -1.9378662E-07 0.15456691 -0.019700736
v -1.9378662E-07 -0.07059739 -0.06984922
v 0.016715936 -0.14174096 -0.0006398834
v -1.9378662E-07 -0.07059739 -0.06984922
v -1.9378662E-07 -0.14174086 -0.058770638
v -1.9378662E-07 0.28312224 0.007228241
v -1.9378662E-07 0.21884473 -0.002788977
v 0.016715936 0.28312215 0.058887683
v -1.9378662E-07 -0.14174086 -0.058770638
v -1.9378662E-07 -0.23186651 -0.03692294
v 0.016716033 -0.2318667 0.03449712
v -2.9067994E-07 0.33567762 0.011235942
v -1.9378662E-07 0.28312224 0.007228241
v 0.01671584 0.36195505 0.05982619
v -1.9378662E-07 -0.23186651 -0.03692294
v -0 -0.34240648 -4.185791E-05
v 9.689331E-08 -0.43493754 0.036997158
v 0.013670774 -0.29249033 0.06984922
v -2.9067994E-07 0.3882322 0.006446118
v -2.9067994E-07 0.33567762 0.011235942
v 0.01671584 0.4349374 0.0571562
v -2.9067994E-07 0.43493754 -0.0047386643
v -1.9378662E-07 -0.07059739 -0.06984922
v -0.016716033 -0.14174096 -0.0006396896
v -1.9378662E-07 -0.14174086 -0.058770638
v -1.9378662E-07 -0.23186651 -0.03692294
v -1.9378662E-07 -0.14174086 -0.058770638
v -0.016715936 -0.2318667 0.034497313
v -1.9378662E-07 -0.07059739 -0.06984922
v -0.016716033 -0.037330523 -0.008792099
v -1.9378662E-07 -0.0040634633 -0.064500906
v -1.9378662E-07 -0.07059739 -0.06984922
v -0.016716033 0.06445202 0.009184323
v -1.9378662E-07 -0.0040634633 -0.064500906
v -1.9378662E-07 0.06445217 -0.04818485
v -1.9378662E-07 -0.0040634633 -0.064500906
v -1.9378662E-07 0.15456691 -0.019700736
v -1.9378662E-07 0.06445217 -0.04818485
v -0.016716033 0.18670546 0.043260343
v -1.9378662E-07 0.21884473 -0.002788977
v -1.9378662E-07 0.15456691 -0.019700736
v -1.9378662E-07 0.28312224 0.007228241
v -1.9378662E-07 0.21884473 -0.002788977
v -0.016716033 0.28312215 0.058887877
v -2.9067994E-07 0.33567762 0.011235942
v -1.9378662E-07 0.28312224 0.007228241
v -0.01671613 0.361955 0.05982619
v -2.9067994E-07 0.3882322 0.006446118
v -2.9067994E-07 0.33567762 0.011235942
v -0.01671613 0.4349374 0.0571562
v -2.9067994E-07 0.43493754 -0.0047386643
v 0.013670774 -0.29249033 0.06984922
v 9.689331E-08 -0.43493754 0.036997158
v -0.01367029 -0.29249033 0.06984922
v -1.9378662E-07 -0.23186651 -0.03692294
v -0 -0.34240648 -4.185791E-05
v 9.689331E-08 -0.43493754 0.036997158
v -0.01367029 -0.29249033 0.06984922
vt 0.61568505 0.43269727
vt 0.63067377 0.4298601
vt 0.61522496 0.4456248
vt 0.5959004 0.43792102
vt 0.61568505 0.43269727
vt 0.58800185 0.45177385
vt 0.63067377 0.4298601
vt 0.6373361 0.44273946
vt 0.63067377 0.4298601
vt 0.645137 0.42936346
vt 0.5818357 0.4409742
vt 0.5959004 0.43792102
vt 0.645137 0.42936346
vt 0.65974987 0.44549665
vt 0.645137 0.42936346
vt 0.66044974 0.43243036
vt 0.56786233 0.4425852
vt 0.5818357 0.4409742
vt 0.56706923 0.4543322
vt 0.66044974 0.43243036
vt 0.679742 0.43807933
vt 0.67885685 0.45391604
vt 0.5564849 0.44299886
vt 0.56786233 0.4425852
vt 0.5501261 0.45389113
vt 0.679742 0.43807933
vt 0.70325935 0.44724986
vt 0.7228572 0.45625076
vt 0.69164336 0.4620814
vt 0.5445581 0.4415786
vt 0.5564849 0.44299886
vt 0.53504807 0.45274827
vt 0.53504807 0.4388927
vt 0.6451371 0.42936346
vt 0.65974987 0.44549665
vt 0.66044974 0.43243036
vt 0.679742 0.43807933
vt 0.66044974 0.43243036
vt 0.67885685 0.45391604
vt 0.6451371 0.42936346
vt 0.637336 0.44273946
vt 0.63067377 0.4298601
vt 0.6451371 0.42936346
vt 0.61522496 0.4456248
vt 0.63067377 0.4298601
vt 0.615685 0.43269727
vt 0.63067377 0.4298601
vt 0.5959004 0.43792102
vt 0.615685 0.43269727
vt 0.58800185 0.45177385
vt 0.58183575 0.4409742
vt 0.5959004 0.43792102
vt 0.5678623 0.4425852
vt 0.58183575 0.4409742
vt 0.5670693 0.4543322
vt 0.55648494 0.44299886
vt 0.5678623 0.4425852
vt 0.5501261 0.45389113
vt 0.54455805 0.4415786
vt 0.55648494 0.44299886
vt 0.535048 0.45274827
vt 0.535048 0.4388927
vt 0.67776483 0.6279093
vt 0.7022053 0.6324274
vt 0.67776495 0.63694525
vt 0.679742 0.43807933
vt 0.70325935 0.44724986
vt 0.72285724 0.45625076
vt 0.69164336 0.4620814
vn 0.95625407 0.07399812 -0.28302374
vn 0.96196413 0.041194342 -0.2700518
vn 0.98860824 0.03775934 -0.14569765
vn 0.9537098 0.082591265 -0.2891648
vn 0.95625407 0.07399812 -0.28302374
vn 0.9888659 0.03357261 -0.14497262
vn 0.96196413 0.041194342 -0.2700518
vn 0.98961765 0.00896531 -0.14344496
vn 0.96196413 0.041194342 -0.2700518
vn 0.9638537 -0.010298396 -0.2662326
vn 0.95114046 0.059708573 -0.30293038
vn 0.9537098 0.082591265 -0.2891648
vn 0.9638537 -0.010298396 -0.2662326
vn 0.9894716 -0.03204149 -0.14113513
vn 0.9638537 -0.010298396 -0.2662326
vn 0.962745 -0.058741182 -0.2639539
vn 0.94903785 0.03185075 -0.31354865
vn 0.95114046 0.059708573 -0.30293038
vn 0.9883058 0.0143039245 -0.15181231
vn 0.962745 -0.058741182 -0.2639539
vn 0.96755755 -0.07783192 -0.24036327
vn 0.9932099 -0.05110988 -0.10450827
vn 0.94856584 -0.0024791632 -0.31657004
vn 0.94903785 0.03185075 -0.31354865
vn 0.9883753 -0.008010761 -0.15182298
vn 0.96755755 -0.07783192 -0.24036327
vn 0.98479897 -0.081621595 -0.15332657
vn 0.987515 -0.08238827 -0.13426237
vn 0.9929109 -0.07094946 -0.09536217
vn 0.955352 -0.031571638 -0.29377836
vn 0.94856584 -0.0024791632 -0.31657004
vn 0.98894835 -0.017073855 -0.14727394
vn 0.9578579 -0.033044383 -0.28533563
vn -0.9638537 -0.010298396 -0.2662326
vn -0.9894716 -0.03204149 -0.14113513
vn -0.962745 -0.058741182 -0.2639539
vn -0.96755755 -0.07783192 -0.24036327
vn -0.962745 -0.058741182 -0.2639539
vn -0.9932099 -0.05110988 -0.10450827
vn -0.9638537 -0.010298396 -0.2662326
vn -0.98961765 0.00896531 -0.14344496
vn -0.96196413 0.041194342 -0.2700518
vn -0.9638537 -0.010298396 -0.2662326
vn -0.98860824 0.03775934 -0.14569765
vn -0.96196413 0.041194342 -0.2700518
vn -0.95625407 0.07399812 -0.28302374
vn -0.96196413 0.041194342 -0.2700518
vn -0.9537098 0.082591265 -0.2891648
vn -0.95625407 0.07399812 -0.28302374
vn -0.9888659 0.03357261 -0.14497262
vn -0.95114046 0.059708573 -0.30293038
vn -0.9537098 0.082591265 -0.2891648
vn -0.94903785 0.03185075 -0.31354865
vn -0.95114046 0.059708573 -0.30293038
vn -0.9883058 0.0143039245 -0.15181231
vn -0.94856584 -0.0024791632 -0.31657004
vn -0.94903785 0.03185075 -0.31354865
vn -0.9883768 -0.007820041 -0.15182321
vn -0.955352 -0.031571638 -0.29377836
vn -0.94856584 -0.0024791632 -0.31657004
vn -0.98894835 -0.017073855 -0.14727394
vn -0.9578579 -0.033044383 -0.28533563
vn -0 -0.22886921 0.9734571
vn -0 -0.22435787 0.9745068
vn -0 -0.22886921 0.9734571
vn -0.96755755 -0.07783192 -0.24036327
vn -0.98479897 -0.081621595 -0.15332657
vn -0.987515 -0.08238827 -0.13426237
vn -0.9929109 -0.07094946 -0.09536217
g Eff_StrikeJaeger_Weapon_01_0
f 3/3/3 2/2/2 1/1/1
f 3/3/3 5/5/5 4/4/4
f 6/6/6 3/3/3 4/4/4
f 3/3/3 8/8/8 7/7/7
f 8/8/8 10/10/10 9/9/9
f 6/6/6 12/12/12 11/11/11
f 8/8/8 14/14/14 13/13/13
f 14/14/14 16/16/16 15/15/15
f 6/6/6 18/18/18 17/17/17
f 19/19/19 6/6/6 17/17/17
f 21/21/21 20/20/20 14/14/14
f 22/22/22 21/21/21 14/14/14
f 19/19/19 24/24/24 23/23/23
f 25/25/25 19/19/19 23/23/23
f 22/22/22 27/27/27 26/26/26
f 28/28/28 27/27/27 22/22/22
f 29/29/29 28/28/28 22/22/22
f 25/25/25 31/31/31 30/30/30
f 25/25/25 30/30/30 32/32/32
f 30/30/30 33/33/33 32/32/32
f 36/36/36 35/35/35 34/34/34
f 35/35/35 38/38/38 37/37/37
f 39/39/39 35/35/35 37/37/37
f 35/35/35 41/41/41 40/40/40
f 43/43/43 41/41/41 42/42/42
f 45/45/45 41/41/41 44/44/44
f 47/47/47 44/44/44 46/46/46
f 49/49/49 44/44/44 48/48/48
f 44/44/44 50/50/50 48/48/48
f 52/52/52 50/50/50 51/51/51
f 54/54/54 50/50/50 53/53/53
f 50/50/50 55/55/55 53/53/53
f 57/57/57 55/55/55 56/56/56
f 55/55/55 58/58/58 56/56/56
f 60/60/60 58/58/58 59/59/59
f 58/58/58 61/61/61 59/59/59
f 61/61/61 62/62/62 59/59/59
f 65/65/65 64/64/64 63/63/63
f 67/67/67 39/39/39 66/66/66
f 39/39/39 67/67/67 68/68/68
f 69/69/69 39/39/39 68/68/68
