g stong_03
v 0.026864916 -0.018050794 0.016631888
v 0.01720971 -0.031290174 0.011212959
v -0.0052296543 -0.03353877 0.019147625
v -0.031752996 -0.024780888 0.010216102
v -0.032360766 -0.024716336 0.010870599
v -0.031201115 -0.025347868 0.011019068
v -0.004728999 0.019611174 -0.030747341
v -0.013287578 0.016903197 -0.029487414
v 0.00092818256 0.0058174394 -0.04044797
v -0.029387606 -0.016338121 0.023080254
v -0.0052296543 -0.03353877 0.019147625
v -0.007923675 -0.033409435 0.01945978
v 0.026864916 -0.018050794 0.016631888
v 0.040283427 0.008136256 0.016972799
v -0.0054882905 0.017763788 0.022801485
v 0.008708462 0.0042142845 -0.037103012
v 0.03745507 0.021047136 -0.00011621475
v 0.035069957 0.020995842 -0.0044271755
v 0.0065258956 0.0004198003 -0.037587743
v 0.01720971 -0.031290174 0.011212959
v 0.026864916 -0.018050794 0.016631888
v 0.040283427 0.008136256 0.016972799
v -0.037649892 -0.018586619 0.014038095
v -0.031201115 -0.025347868 0.011019068
v -0.032360766 -0.024716336 0.010870599
v -0.029387606 -0.016338121 0.023080254
v -0.007923675 -0.033409435 0.01945978
v 0.040283427 0.008136256 0.016972799
v -0.0062035033 0.020538164 0.019174986
v 0.03745507 0.021047136 -0.00011621475
v -0.0054882905 0.017763788 0.022801485
v -0.007923675 -0.033409435 0.01945978
v -0.031752996 -0.024780888 0.010216102
v -0.031201115 -0.025347868 0.011019068
v 0.01720971 -0.031290174 0.011212959
v -0.0052296543 -0.03353877 0.019147625
v 0.0027260922 0.0031722903 -0.04126972
v 0.0065258956 0.0004198003 -0.037587743
v 0.002688775 0.0036360596 -0.041438323
v 0.0065258956 0.0004198003 -0.037587743
v 0.008708462 0.0042142845 -0.037103012
v 0.0027260922 0.0031722903 -0.04126972
v -0.0062035033 0.020538164 0.019174986
v -0.030196805 0.01810831 -0.011009817
v -0.02717628 0.020130374 -0.008853631
v -0.029387606 -0.016338121 0.023080254
v -0.0054882905 0.017763788 0.022801485
v -0.037649892 -0.018586619 0.014038095
v 0.0027260922 0.0031722903 -0.04126972
v -0.032360766 -0.024716336 0.010870599
v -0.031752996 -0.024780888 0.010216102
v -0.030196805 0.01810831 -0.011009817
v -0.037649892 -0.018586619 0.014038095
v 0.00092818256 0.0058174394 -0.04044797
v 0.002688775 0.0036360596 -0.041438323
v -0.013287578 0.016903197 -0.029487414
v 0.002688775 0.0036360596 -0.041438323
v -0.004728999 0.019611174 -0.030747341
v 0.00092818256 0.0058174394 -0.04044797
v -0.0040187645 0.020354368 -0.02958734
v 0.035069957 0.020995842 -0.0044271755
v 0.008708462 0.0042142845 -0.037103012
v -0.0062035033 0.020538164 0.019174986
v 0.035069957 0.020995842 -0.0044271755
v 0.03745507 0.021047136 -0.00011621475
v -0.0040187645 0.020354368 -0.02958734
v -0.02717628 0.020130374 -0.008853631
v -0.0040187645 0.020354368 -0.02958734
v -0.013287578 0.016903197 -0.029487414
v -0.004728999 0.019611174 -0.030747341
v -0.030196805 0.01810831 -0.011009817
v -0.02717628 0.020130374 -0.008853631
vt 0.7239952 0.119722806
vt 0.7077601 0.081591606
vt 0.6507189 0.07511529
vt 0.0027774423 0.6256821
vt 0.0013535072 0.6240707
vt 0.0005 0.62714523
vt 0.7348308 0.118101485
vt 0.75530404 0.1107088
vt 0.7146749 0.08044496
vt 0.7306639 0.1378394
vt 0.7893662 0.09643393
vt 0.7828538 0.09674528
vt 0.866627 0.13371666
vt 0.8985553 0.19675423
vt 0.78776836 0.2199297
vt 0.30722275 0.48146525
vt 0.3744304 0.58030987
vt 0.37173754 0.5687891
vt 0.29672667 0.48016974
vt 0.24033485 0.61058635
vt 0.27916592 0.62506807
vt 0.34982234 0.6259791
vt 0.8893038 0.5761037
vt 0.90532094 0.5934071
vt 0.9046143 0.5902955
vt 0.8692352 0.5982731
vt 0.9023362 0.6558651
vt 0.8300345 0.47785467
vt 0.8171819 0.3629171
vt 0.7786309 0.47086164
vt 0.8281382 0.36468548
vt 0.49615872 0.9267535
vt 0.5259566 0.8692352
vt 0.52360004 0.87056726
vt 0.5156557 0.98741955
vt 0.49663055 0.93325615
vt 0.66638166 0.9524595
vt 0.6553821 0.96163136
vt 0.7804523 0.3868535
vt 0.76753414 0.37890616
vt 0.76264197 0.38828224
vt 0.7801378 0.38570753
vt 0.7253343 0.9591915
vt 0.7633551 0.8745649
vt 0.7552034 0.88061005
vt 0.8297788 0.97014034
vt 0.72978324 0.9693589
vt 0.84563977 0.9447896
vt 0.34048936 0.35278246
vt 0.37105897 0.5150327
vt 0.37174886 0.51299596
vt 0.2776425 0.4469452
vt 0.3526561 0.5248893
vt 0.3329834 0.3553396
vt 0.33942312 0.35225782
vt 0.29552224 0.38944662
vt 0.42806205 0.6933563
vt 0.42949554 0.7428117
vt 0.43037784 0.70010936
vt 0.4265699 0.7451125
vt 0.31495014 0.7470983
vt 0.41028434 0.6951463
vt 0.69319713 0.12548171
vt 0.63652676 0.22460051
vt 0.6468791 0.23032838
vt 0.5761037 0.13072838
vt 0.6258886 0.075115286
vt 0.58468765 0.893169
vt 0.58176583 0.8695982
vt 0.58143336 0.8913628
vt 0.6239171 0.82659787
vt 0.6305497 0.8342792
vn 0.3265858 -0.55215555 0.76711535
vn 0.3265858 -0.55215555 0.76711535
vn 0.32658577 -0.55215555 0.7671154
vn -0.42387313 -0.85113907 -0.30966723
vn -0.4238732 -0.8511392 -0.30966723
vn -0.42387313 -0.8511392 -0.30966726
vn -0.2735822 0.47570753 -0.8359756
vn -0.27358216 0.47570753 -0.8359756
vn -0.2735822 0.4757075 -0.8359755
vn 0.11149862 -0.07004438 0.991293
vn 0.11149862 -0.07004438 0.991293
vn 0.11149862 -0.07004438 0.991293
vn 0.111501895 -0.07003977 0.991293
vn 0.1115019 -0.07003962 0.991293
vn 0.11150182 -0.07003936 0.991293
vn 0.8019782 -0.40522775 -0.4388867
vn 0.8019782 -0.4052277 -0.4388867
vn 0.80197823 -0.4052277 -0.43888667
vn 0.8019782 -0.4052277 -0.4388867
vn 0.80197805 -0.40522817 -0.43888634
vn 0.8019782 -0.40522823 -0.43888626
vn 0.8019782 -0.40522817 -0.43888634
vn -0.44619414 -0.68351835 0.5776794
vn -0.44619414 -0.68351835 0.57767946
vn -0.4461941 -0.68351835 0.5776794
vn -0.44619384 -0.68351823 0.57767975
vn -0.44619405 -0.6835181 0.5776797
vn 0.23821548 0.7934725 0.56004894
vn 0.23821548 0.7934725 0.56004894
vn 0.23821554 0.7934729 0.56004846
vn 0.23821548 0.7934725 0.560049
vn -0.10151515 -0.844201 -0.5263263
vn -0.10151515 -0.844201 -0.5263263
vn -0.101515144 -0.84420097 -0.5263263
vn -0.10151353 -0.844205 -0.5263201
vn -0.10151352 -0.84420496 -0.52632016
vn -0.10151562 -0.8442016 -0.5263251
vn -0.10151546 -0.84420156 -0.5263253
vn 0.58274084 -0.23583212 -0.7776866
vn 0.58274084 -0.23583211 -0.7776866
vn 0.5827355 -0.23584011 -0.7776881
vn 0.58274084 -0.23583212 -0.7776866
vn -0.69941074 0.49438184 0.5161504
vn -0.69941074 0.49438182 0.51615036
vn -0.69941074 0.49438182 0.51615036
vn -0.69941044 0.49438047 0.516152
vn -0.69941044 0.49438047 0.516152
vn -0.699411 0.49438092 0.516151
vn -0.7155904 -0.28880733 -0.63601947
vn -0.71559036 -0.28880733 -0.63601947
vn -0.71559036 -0.2888073 -0.63601947
vn -0.71559346 -0.28880203 -0.6360184
vn -0.71559304 -0.28880188 -0.6360189
vn -0.715593 -0.2888007 -0.6360195
vn -0.715593 -0.2888007 -0.6360196
vn -0.71559346 -0.28880203 -0.6360184
vn 0.41247222 0.63114333 -0.6569054
vn 0.41247222 0.63114333 -0.6569054
vn 0.41247222 0.63114333 -0.6569054
vn 0.4124706 0.63114333 -0.6569065
vn 0.41247177 0.6311433 -0.6569057
vn 0.4124704 0.6311447 -0.65690523
vn -0.013591125 0.9998981 -0.004377627
vn -0.013591125 0.9998981 -0.004377627
vn -0.013591124 0.9998981 -0.004377627
vn -0.013591215 0.9998981 -0.004377794
vn -0.013591239 0.9998981 -0.004377795
vn -0.32917234 0.8736867 -0.35821396
vn -0.32917234 0.8736867 -0.35821396
vn -0.3291723 0.8736867 -0.35821393
vn -0.32917228 0.8736865 -0.35821426
vn -0.32917228 0.8736865 -0.35821426
g stong_03_0
f 3/3/3 2/2/2 1/1/1
f 6/6/6 5/5/5 4/4/4
f 9/9/9 8/8/8 7/7/7
f 12/12/12 11/11/11 10/10/10
f 11/11/11 13/13/13 10/10/10
f 13/13/13 14/14/14 10/10/10
f 14/14/14 15/15/15 10/10/10
f 18/18/18 17/17/17 16/16/16
f 17/17/17 19/19/19 16/16/16
f 20/20/20 19/19/19 17/17/17
f 21/21/21 20/20/20 17/17/17
f 22/22/22 21/21/21 17/17/17
f 25/25/25 24/24/24 23/23/23
f 24/24/24 26/26/26 23/23/23
f 27/27/27 26/26/26 24/24/24
f 30/30/30 29/29/29 28/28/28
f 31/31/31 28/28/28 29/29/29
f 34/34/34 33/33/33 32/32/32
f 33/33/33 35/35/35 32/32/32
f 35/35/35 36/36/36 32/32/32
f 37/37/37 35/35/35 33/33/33
f 38/38/38 35/35/35 37/37/37
f 41/41/41 40/40/40 39/39/39
f 42/42/42 39/39/39 40/40/40
f 45/45/45 44/44/44 43/43/43
f 44/44/44 46/46/46 43/43/43
f 46/46/46 47/47/47 43/43/43
f 48/48/48 46/46/46 44/44/44
f 51/51/51 50/50/50 49/49/49
f 50/50/50 52/52/52 49/49/49
f 53/53/53 52/52/52 50/50/50
f 52/52/52 54/54/54 49/49/49
f 54/54/54 55/55/55 49/49/49
f 56/56/56 54/54/54 52/52/52
f 59/59/59 58/58/58 57/57/57
f 58/58/58 60/60/60 57/57/57
f 60/60/60 61/61/61 57/57/57
f 61/61/61 62/62/62 57/57/57
f 65/65/65 64/64/64 63/63/63
f 64/64/64 66/66/66 63/63/63
f 66/66/66 67/67/67 63/63/63
f 70/70/70 69/69/69 68/68/68
f 69/69/69 71/71/71 68/68/68
f 71/71/71 72/72/72 68/68/68
