g Stone_003
v 0.15558386 -0.062274978 0.024999976
v 0.15242587 -0.066273205 0.011351099
v 0.14939621 -0.07010926 0.024999976
v 0.14142416 -0.07036247 -0.024999976
v 0.14939621 -0.07010926 0.024999976
v 0.15242587 -0.066273205 0.011351099
v 0.116202064 -0.08928304 -0.024999976
v 0.08882961 -0.115543745 0.024999976
v -0.021406591 -0.07948318 0.024999976
v -0.122074135 -0.0260448 -0.024999976
v -0.15558392 -0.009617921 0.024999976
v 0.014429303 -0.09814272 0.024999976
v -0.09589211 -0.039677594 -0.024999976
v 0.08882961 -0.115543745 0.024999976
v -0.09589211 -0.039677594 -0.024999976
v 0.014429303 -0.09814272 0.024999976
v -0.0032649655 -0.06134158 -0.024999976
v 0.116202064 -0.08928304 -0.024999976
v -0.0015154113 0.0864198 -0.024999976
v 0.0132598495 0.107994184 0.024999976
v -0.021414341 0.115543745 0.024999976
v 0.016082885 0.08258813 -0.024999976
v -0.122074135 -0.0260448 -0.024999976
v -0.021414341 0.115543745 0.024999976
v -0.15558392 -0.009617921 0.024999976
v -0.0015154113 0.0864198 -0.024999976
v -0.0032649655 -0.06134158 -0.024999976
v -0.122074135 -0.0260448 -0.024999976
v -0.09589211 -0.039677594 -0.024999976
v -0.0015154113 0.0864198 -0.024999976
v 0.016082885 0.08258813 -0.024999976
v 0.08870675 0.030630155 -0.024999976
v 0.116202064 -0.08928304 -0.024999976
v 0.10658375 0.017840263 -0.024999976
v 0.14142416 -0.07036247 -0.024999976
v 0.0132598495 0.107994184 0.024999976
v 0.109777115 0.022156302 -0.010887659
v 0.07612253 0.06301972 0.024999976
v 0.08870675 0.030630155 -0.024999976
v 0.016082885 0.08258813 -0.024999976
v 0.10658375 0.017840263 -0.024999976
v 0.08882961 -0.115543745 0.024999976
v 0.15558386 -0.062274978 0.024999976
v 0.14939621 -0.07010926 0.024999976
v 0.13094665 9.726877E-05 0.024999976
v -0.021406591 -0.07948318 0.024999976
v 0.014429303 -0.09814272 0.024999976
v 0.097062826 0.038986236 0.024999976
v 0.07612253 0.06301972 0.024999976
v -0.021414341 0.115543745 0.024999976
v 0.0132598495 0.107994184 0.024999976
v -0.15558392 -0.009617921 0.024999976
v 0.15558386 -0.062274978 0.024999976
v 0.14142416 -0.07036247 -0.024999976
v 0.15242587 -0.066273205 0.011351099
v 0.10658375 0.017840263 -0.024999976
v 0.13094665 9.726877E-05 0.024999976
v 0.109777115 0.022156302 -0.010887659
v 0.097062826 0.038986236 0.024999976
v 0.109777115 0.022156302 -0.010887659
v 0.13094665 9.726877E-05 0.024999976
v 0.07612253 0.06301972 0.024999976
vt 0.007860742 0.039370082
vt 0.003848943 0.02862293
vt 0 0.039370082
vt 0.9270025 0.77922463
vt 0.40466034 0.8838339
vt 0.55192363 0.9235885
vt 0.9043489 0.4482634
vt 0.3502614 0.08908598
vt 0.2067461 0.72335446
vt 0.9081027 0.4613322
vt 0.859424 0.089167684
vt 0.032429934 0.892732
vt 0.7807461 0.58508056
vt 0.12823117 0.84340715
vt 0.4655739 0.0815959
vt 0.16674733 0.5365727
vt 0.41762173 0.46359968
vt 0.35577488 0.9562938
vt 0.05047193 0.62631977
vt 0.6593528 0.7948741
vt 0.6969032 0.39931527
vt 0.031413853 0.8270787
vt 0.30479217 0.26035887
vt 0.81088054 0.7193782
vt 0.4843942 0.10755056
vt 0.598158 0.81011957
vt 0.46419168 0.41791368
vt 0.82180715 0.5241575
vt 0.7429993 0.48312283
vt 0.45892525 0.8626754
vt 0.40595436 0.8511419
vt 0.18735671 0.69474864
vt 0.10459566 0.33380985
vt 0.13354683 0.65625095
vt 0.028677225 0.3907609
vt 0.7488167 0.09518576
vt 0.24879646 0.9301591
vt 0.61048436 0.6390128
vt 0.18205667 0.747879
vt 0.34186912 0.119607925
vt 0.1427176 0.90253353
vt 0.7824646 0.29479095
vt 0.97999054 0.4524134
vt 0.96168107 0.42923194
vt 0.90708923 0.6369734
vt 0.4562758 0.4014945
vt 0.5623145 0.3462808
vt 0.8068268 0.7520454
vt 0.7448646 0.823161
vt 0.45625323 0.9785794
vt 0.5588542 0.95624036
vt 0.059244964 0.6082257
vt 0.074643135 0.4925355
vt 0.05685094 0.08958563
vt 0.055021882 0.38253918
vt 0.78416425 0.08958556
vt 0.58895993 0.4925355
vt 0.8059531 0.20331661
vt 0.62002593 0.46033132
vt 0.38210943 0.05420579
vt 0.036809802 0.46033132
vt 0.98045516 0.46033132
vn 0.78475153 -0.6198105 -7.073069E-06
vn 0.78475153 -0.6198105 -7.073069E-06
vn 0.78475153 -0.61981046 -7.073068E-06
vn 0.5975742 -0.7966051 -0.09124372
vn 0.5975742 -0.7966051 -0.09124372
vn 0.5975742 -0.7966051 -0.09124373
vn 0.59757787 -0.79660225 -0.09124432
vn 0.59757733 -0.7966027 -0.091243796
vn -0.46176103 -0.8868193 -0.018116737
vn -0.461761 -0.88681936 -0.018116737
vn -0.46176103 -0.8868193 -0.018116737
vn -0.46176162 -0.886819 -0.01811539
vn -0.46176058 -0.88681954 -0.018119017
vn -0.19215752 -0.8215941 -0.53671086
vn -0.19215749 -0.8215941 -0.53671086
vn -0.19215752 -0.8215941 -0.5367109
vn -0.19215755 -0.8215942 -0.5367108
vn -0.19215806 -0.8215944 -0.5367103
vn 0.19145906 0.8793432 -0.4360034
vn 0.19145906 0.8793432 -0.43600333
vn 0.19145824 0.8793435 -0.43600327
vn 0.19145904 0.8793432 -0.43600333
vn -0.55950844 0.5997765 -0.5720301
vn -0.55950844 0.5997765 -0.5720301
vn -0.5595087 0.59977657 -0.57202995
vn -0.55950844 0.5997765 -0.5720301
vn -0 0 -1
vn -0 0 -1
vn -0 0 -1
vn -0 0 -1
vn -0 0 -1
vn -0 0 -1
vn -0 0 -1
vn -0 0 -1
vn -0 0 -1
vn 0.54384094 0.7601493 -0.3555419
vn 0.54384094 0.76014924 -0.3555419
vn 0.54384094 0.7601493 -0.3555419
vn 0.54384077 0.7601492 -0.3555426
vn 0.54384065 0.76014924 -0.3555426
vn 0.5438403 0.76014996 -0.35554162
vn -0 0 1
vn -0 0 1
vn -0 0 1
vn -0 0 1
vn -0 0 1
vn -0 0 1
vn -0 0 1
vn -0 0 1
vn -0 0 1
vn -0 0 1
vn -0 0 1
vn 0.8850914 0.34962615 -0.30720478
vn 0.8850914 0.34962615 -0.3072048
vn 0.8850914 0.34962612 -0.30720475
vn 0.88509554 0.3496161 -0.30720434
vn 0.88509536 0.34961507 -0.30720574
vn 0.88509536 0.34961548 -0.30720565
vn 0.75332725 0.6563713 -0.040923852
vn 0.75332725 0.65637136 -0.04092386
vn 0.7533271 0.6563715 -0.040924065
vn 0.75332725 0.6563713 -0.040923852
g Stone_003_0
f 3/3/3 2/2/2 1/1/1
f 6/6/6 5/5/5 4/4/4
f 5/5/5 7/7/7 4/4/4
f 8/8/8 7/7/7 5/5/5
f 11/11/11 10/10/10 9/9/9
f 10/10/10 12/12/12 9/9/9
f 13/13/13 12/12/12 10/10/10
f 16/16/16 15/15/15 14/14/14
f 15/15/15 17/17/17 14/14/14
f 17/17/17 18/18/18 14/14/14
f 21/21/21 20/20/20 19/19/19
f 22/22/22 19/19/19 20/20/20
f 25/25/25 24/24/24 23/23/23
f 26/26/26 23/23/23 24/24/24
f 29/29/29 28/28/28 27/27/27
f 28/28/28 30/30/30 27/27/27
f 30/30/30 31/31/31 27/27/27
f 31/31/31 32/32/32 27/27/27
f 32/32/32 33/33/33 27/27/27
f 34/34/34 33/33/33 32/32/32
f 35/35/35 33/33/33 34/34/34
f 38/38/38 37/37/37 36/36/36
f 37/37/37 39/39/39 36/36/36
f 39/39/39 40/40/40 36/36/36
f 41/41/41 39/39/39 37/37/37
f 44/44/44 43/43/43 42/42/42
f 43/43/43 45/45/45 42/42/42
f 45/45/45 46/46/46 42/42/42
f 46/46/46 47/47/47 42/42/42
f 48/48/48 46/46/46 45/45/45
f 49/49/49 46/46/46 48/48/48
f 50/50/50 46/46/46 49/49/49
f 51/51/51 50/50/50 49/49/49
f 52/52/52 46/46/46 50/50/50
f 55/55/55 54/54/54 53/53/53
f 54/54/54 56/56/56 53/53/53
f 56/56/56 57/57/57 53/53/53
f 58/58/58 57/57/57 56/56/56
f 61/61/61 60/60/60 59/59/59
f 62/62/62 59/59/59 60/60/60
