g Stone_002
v -0.023221627 0.12986232 0.022413263
v -0.060574386 0.12030932 -0.025000025
v 0.011077618 0.1329415 -0.025000025
v -0.069438465 0.108087 -0.025000025
v 0.011077618 0.1329415 -0.025000025
v -0.060574386 0.12030932 -0.025000025
v 0.045682017 -0.050342955 -0.025000025
v 0.011387089 0.13259481 -0.025000025
v 0.015938532 -0.080086485 -0.025000025
v -0.09079713 0.03179176 -0.025000025
v 0.059895497 -0.12616129 -0.025000025
v 0.07063475 -0.025390213 0.025000025
v 0.059895497 -0.12616129 -0.025000025
v 0.09079713 -0.1329415 0.025000025
v 0.059277717 0.03519107 0.025000025
v 0.045682017 -0.050342955 -0.025000025
v 0.011387089 0.13259481 -0.025000025
v 0.011387089 0.13259481 -0.025000025
v -0.023221627 0.12986232 0.022413263
v 0.011077618 0.1329415 -0.025000025
v -0.02321173 0.12758727 0.025000025
v 0.059277717 0.03519107 0.025000025
v -0.023221627 0.12986232 0.022413263
v -0.069438465 0.108087 -0.025000025
v -0.060574386 0.12030932 -0.025000025
v -0.07375631 0.057893656 0.025000025
v -0.02321173 0.12758727 0.025000025
v 0.059277717 0.03519107 0.025000025
v -0.07375631 0.057893656 0.025000025
v -0.02321173 0.12758727 0.025000025
v 0.07063475 -0.025390213 0.025000025
v 0.028442468 -0.0675825 0.025000025
v -0.07772868 0.043704018 0.025000025
v 0.09079713 -0.1329415 0.025000025
v -0.09079713 0.03179176 -0.025000025
v -0.07375631 0.057893656 0.025000025
v -0.07772868 0.043704018 0.025000025
v -0.069438465 0.108087 -0.025000025
v 0.028442468 -0.0675825 0.025000025
v -0.09079713 0.03179176 -0.025000025
v -0.07772868 0.043704018 0.025000025
v 0.09079713 -0.1329415 0.025000025
v 0.015938532 -0.080086485 -0.025000025
v 0.059895497 -0.12616129 -0.025000025
vt 0.13669804 0.2528847
vt 0.09896773 0.22302125
vt 0.0995891 0.28030685
vt 0.73287606 0.8291738
vt 0.47683477 0.90821123
vt 0.7046883 0.86804056
vt 0.36679268 0.3253665
vt 0.47585082 0.9071088
vt 0.4613769 0.23078227
vt 0.80079675 0.58655477
vt 0.321594 0.08426428
vt 0.3327257 0.5449376
vt 0.20320491 0.118310936
vt 0.013467116 0.25431103
vt 0.51255727 0.70864147
vt 0.42826617 0.32318804
vt 0.97130483 0.8175256
vt 0.75320554 0.11608752
vt 0.8895254 0.47215924
vt 0.7562206 0.11608752
vt 0.87847185 0.4915851
vt 0.07483719 0.4915851
vt 0.054099083 0.5486896
vt 0.46858025 0.05394888
vt 0.3287735 0.05394888
vt 0.8683038 0.575681
vt 0.071098804 0.57568026
vt 0.64231086 0.63142276
vt 0.15673661 0.71428657
vt 0.3412242 0.96866846
vt 0.683764 0.41030073
vt 0.52976227 0.25629902
vt 0.14223766 0.66249466
vt 0.7573569 0.01773882
vt 0.8374661 0.28645107
vt 0.5313266 0.8102952
vt 0.68306303 0.8102952
vt 0.021609928 0.28645107
vt 0.62351906 0.64947075
vt 0.047962792 0.45153588
vt 0.049462922 0.649471
vt 0.96066463 0.64947075
vt 0.62507117 0.45153588
vt 0.8627416 0.45153588
vn -0.17329249 0.98294675 -0.06152578
vn -0.1732925 0.98294675 -0.06152578
vn -0.17329249 0.98294675 -0.06152578
vn -0 0 -1
vn -0 0 -1
vn -0 0 -1
vn -0 0 -1
vn -0 0 -1
vn -0 0 -1
vn -0 0 -1
vn -0 0 -1
vn 0.8493104 0.15921812 -0.5033105
vn 0.8493104 0.15921812 -0.5033105
vn 0.8493104 0.15921812 -0.5033105
vn 0.8493101 0.1592183 -0.5033108
vn 0.84931046 0.15921818 -0.5033104
vn 0.8493104 0.1592183 -0.5033106
vn 0.64450437 0.5753233 0.50360423
vn 0.64450437 0.57532334 0.5036043
vn 0.64450437 0.5753233 0.50360423
vn 0.6444698 0.5753813 0.50358224
vn 0.6444745 0.57537365 0.50358486
vn -0.71837795 0.5209944 0.46097487
vn -0.71837795 0.5209944 0.46097487
vn -0.718378 0.5209944 0.46097487
vn -0.71837753 0.5209962 0.46097368
vn -0.71838087 0.5209984 0.46096593
vn -0 0 1
vn -0 0 1
vn -0 0 1
vn -0 0 1
vn -0 0 1
vn -0 0 1
vn -0 0 1
vn -0.94648933 0.26496735 0.18425591
vn -0.94648933 0.26496735 0.18425591
vn -0.9464891 0.26496845 0.18425527
vn -0.94648933 0.26496738 0.18425593
vn -0.6821574 -0.6508016 0.33334476
vn -0.6821574 -0.6508016 0.33334476
vn -0.6821574 -0.6508016 0.33334476
vn -0.6821574 -0.6508009 0.33334592
vn -0.6821576 -0.65080154 0.33334437
vn -0.6821574 -0.65080196 0.33334383
g Stone_002_0
f 3/3/3 2/2/2 1/1/1
f 6/6/6 5/5/5 4/4/4
f 5/5/5 7/7/7 4/4/4
f 8/8/8 7/7/7 5/5/5
f 7/7/7 9/9/9 4/4/4
f 9/9/9 10/10/10 4/4/4
f 11/11/11 9/9/9 7/7/7
f 14/14/14 13/13/13 12/12/12
f 13/13/13 15/15/15 12/12/12
f 16/16/16 15/15/15 13/13/13
f 17/17/17 15/15/15 16/16/16
f 20/20/20 19/19/19 18/18/18
f 19/19/19 21/21/21 18/18/18
f 21/21/21 22/22/22 18/18/18
f 25/25/25 24/24/24 23/23/23
f 24/24/24 26/26/26 23/23/23
f 26/26/26 27/27/27 23/23/23
f 30/30/30 29/29/29 28/28/28
f 29/29/29 31/31/31 28/28/28
f 32/32/32 31/31/31 29/29/29
f 33/33/33 32/32/32 29/29/29
f 34/34/34 31/31/31 32/32/32
f 37/37/37 36/36/36 35/35/35
f 38/38/38 35/35/35 36/36/36
f 41/41/41 40/40/40 39/39/39
f 40/40/40 42/42/42 39/39/39
f 43/43/43 42/42/42 40/40/40
f 44/44/44 42/42/42 43/43/43
