g stong_07
v -0.022869486 -0.030372739 0.031329382
v -0.020951195 -0.030129127 0.034897767
v -0.019976307 -0.033229936 0.031293888
v -0.02338831 0.007438346 0.028990783
v -0.01943831 0.037723392 -0.021998473
v -0.01959244 0.037045684 0.008440837
v -0.027548961 -0.025529565 0.022427538
v -0.025171211 -0.0077885077 -0.035890713
v -0.027332742 -0.024623355 -0.022786446
v -0.017412253 -0.0011953973 0.04044794
v -0.027548961 -0.025529565 0.022427538
v -0.02338831 0.007438346 0.028990783
v -0.022869486 -0.030372739 0.031329382
v -0.020951195 -0.030129127 0.034897767
v -0.016235277 -0.017250907 0.043224964
v -0.01959244 0.037045684 0.008440837
v -0.017412253 -0.0011953973 0.04044794
v -0.02338831 0.007438346 0.028990783
v -0.009337627 0.041537102 0.0127908895
v 0.0016765665 0.030844208 0.029767932
v -0.01943831 0.037723392 -0.021998473
v -0.009337627 0.041537102 0.0127908895
v -0.01959244 0.037045684 0.008440837
v -0.007362728 0.043293133 -0.030916004
v -0.0009626889 0.046068687 -0.026824206
v 0.03324573 0.022058142 -0.012258463
v -0.009337627 0.041537102 0.0127908895
v -0.0009626889 0.046068687 -0.026824206
v 0.018906536 0.021065738 0.027501239
v 0.037778776 0.015506279 0.0036514567
v 0.0016765665 0.030844208 0.029767932
v -0.027548961 -0.025529565 0.022427538
v -0.005114739 -0.047016818 -0.004817648
v -0.027332742 -0.024623355 -0.022786446
v -0.0036912488 -0.048658736 0.0046991347
v -0.019976307 -0.033229936 0.031293888
v -0.022869486 -0.030372739 0.031329382
v -0.014011254 0.0010629081 -0.042565897
v -0.01943831 0.037723392 -0.021998473
v -0.025171211 -0.0077885077 -0.035890713
v -0.007362728 0.043293133 -0.030916004
v -0.007362728 0.043293133 -0.030916004
v 0.03324573 0.022058142 -0.012258463
v -0.0009626889 0.046068687 -0.026824206
v 0.022268886 -0.019014545 -0.026104964
v -0.014011254 0.0010629081 -0.042565897
v 0.022268886 -0.019014545 -0.026104964
v -0.005114739 -0.047016818 -0.004817648
v 0.024398437 -0.036542077 -0.012367649
v -0.027332742 -0.024623355 -0.022786446
v -0.014011254 0.0010629081 -0.042565897
v -0.025171211 -0.0077885077 -0.035890713
v -0.017412253 -0.0011953973 0.04044794
v 0.022057958 0.000543344 0.03065609
v -0.016235277 -0.017250907 0.043224964
v 0.0016765665 0.030844208 0.029767932
v 0.018906536 0.021065738 0.027501239
v 0.037778776 0.015506279 0.0036514567
v 0.022057958 0.000543344 0.03065609
v 0.018906536 0.021065738 0.027501239
v 0.03741655 -0.0067697763 0.012262525
v 0.022268886 -0.019014545 -0.026104964
v 0.037778776 0.015506279 0.0036514567
v 0.03324573 0.022058142 -0.012258463
v 0.03741655 -0.0067697763 0.012262525
v 0.026088461 -0.037152577 -0.007230215
v 0.024398437 -0.036542077 -0.012367649
v 0.026088461 -0.037152577 -0.007230215
v -0.005114739 -0.047016818 -0.004817648
v -0.0036912488 -0.048658736 0.0046991347
v 0.024398437 -0.036542077 -0.012367649
v 0.026088461 -0.037152577 -0.007230215
v 0.022057958 0.000543344 0.03065609
v 0.03741655 -0.0067697763 0.012262525
v -0.019976307 -0.033229936 0.031293888
v -0.0036912488 -0.048658736 0.0046991347
v -0.016235277 -0.017250907 0.043224964
v -0.020951195 -0.030129127 0.034897767
vt 0.85557884 0.50148845
vt 0.84791654 0.50751114
vt 0.85916144 0.510572
vt 0.9159256 0.53470606
vt 0.84258693 0.4122656
vt 0.8442478 0.4853595
vt 0.9957191 0.51894575
vt 0.95273787 0.37890616
vt 0.99349517 0.4103734
vt 0.53259695 0.85970837
vt 0.5914926 0.81060886
vt 0.5121477 0.82849157
vt 0.60290176 0.8348634
vt 0.60222745 0.84458613
vt 0.57108873 0.86727476
vt 0.666708 0.22617973
vt 0.71780175 0.1177526
vt 0.68963426 0.14223234
vt 0.69258535 0.23891449
vt 0.73842806 0.20859633
vt 0.6777255 0.58183867
vt 0.7610651 0.6084001
vt 0.75083715 0.58143336
vt 0.65604866 0.61359346
vt 0.66573906 0.63042337
vt 0.4317507 0.6624666
vt 0.47926408 0.54412574
vt 0.3842358 0.5674
vt 0.5251249 0.62261736
vt 0.47257826 0.6750642
vt 0.52491325 0.57473457
vt 0.27806577 0.76264197
vt 0.3421919 0.83835506
vt 0.3866584 0.7633717
vt 0.31924874 0.8431592
vt 0.25632384 0.7881989
vt 0.2564085 0.7784347
vt 0.7786309 0.2625819
vt 0.8218591 0.35472354
vt 0.8091584 0.24033485
vt 0.78605014 0.36872253
vt 0.5178694 0.2906945
vt 0.4108841 0.23901996
vt 0.49966145 0.2974487
vt 0.4501007 0.13907124
vt 0.5454396 0.18792892
vt 0.87505436 0.7413666
vt 0.9397003 0.65604866
vt 0.8692352 0.68796337
vt 0.99396425 0.72427756
vt 0.9630003 0.80253905
vt 0.9894491 0.77557033
vt 0.6453893 0.48207232
vt 0.74303883 0.48631868
vt 0.64658344 0.4428621
vt 0.69594234 0.5603184
vt 0.7374456 0.53643775
vt 0.7395011 0.7306639
vt 0.7144688 0.8100016
vt 0.76403993 0.80073285
vt 0.6880266 0.75596255
vt 0.64445925 0.8585758
vt 0.7319695 0.9341154
vt 0.74590933 0.89372647
vt 0.67894316 0.9559755
vt 0.60275203 0.90649116
vt 0.60359836 0.89344937
vt 0.8604574 0.7607645
vt 0.84976643 0.68269694
vt 0.82659787 0.68625844
vt 0.87282383 0.7565362
vt 0.5384085 0.42388064
vt 0.47575554 0.53630227
vt 0.5318245 0.51449215
vt 0.39437646 0.43557924
vt 0.46411115 0.38956544
vt 0.3842358 0.48323393
vt 0.3872847 0.44482687
vn -0.6442368 -0.6572097 0.39119616
vn -0.6442368 -0.6572097 0.39119616
vn -0.6442368 -0.6572097 0.39119613
vn -0.99207264 0.12564574 -0.0022259403
vn -0.99207264 0.12564576 -0.0022259406
vn -0.99207264 0.12564576 -0.0022259403
vn -0.99207264 0.12564573 -0.0022259464
vn -0.99207264 0.12564573 -0.0022259539
vn -0.99207264 0.1256457 -0.002225964
vn -0.8811525 0.017134639 0.47252166
vn -0.8811525 0.017134639 0.47252166
vn -0.8811525 0.017134639 0.47252166
vn -0.8811524 0.017134467 0.4725218
vn -0.88115305 0.017135026 0.4725204
vn -0.8811527 0.017134817 0.47252128
vn -0.51733255 0.531736 0.67054003
vn -0.51733255 0.531736 0.67054003
vn -0.51733255 0.531736 0.67054003
vn -0.5173316 0.5317364 0.67054033
vn -0.51733154 0.53173643 0.6705404
vn -0.40761235 0.91297245 0.018262738
vn -0.4076124 0.91297245 0.018262738
vn -0.40761244 0.91297245 0.01826274
vn -0.40761247 0.91297245 0.018262757
vn -0.4076123 0.91297245 0.018262759
vn 0.50336766 0.84000766 0.20250453
vn 0.5033676 0.84000766 0.20250452
vn 0.50336766 0.84000766 0.20250453
vn 0.50336754 0.84000784 0.2025044
vn 0.5033675 0.84000784 0.2025044
vn 0.5033675 0.8400077 0.20250453
vn -0.7026688 -0.71129894 -0.017616613
vn -0.7026688 -0.71129894 -0.017616613
vn -0.7026688 -0.71129894 -0.017616613
vn -0.7026688 -0.71129906 -0.017616477
vn -0.7026689 -0.7112988 -0.01761682
vn -0.702669 -0.71129876 -0.017616792
vn -0.65195274 0.2953036 -0.69839346
vn -0.65195274 0.29530358 -0.69839346
vn -0.65195256 0.29530364 -0.6983935
vn -0.65195274 0.29530358 -0.69839346
vn 0.48069105 0.16205983 -0.86178464
vn 0.48069105 0.16205983 -0.86178464
vn 0.48069105 0.16205983 -0.86178464
vn 0.48069105 0.16205983 -0.86178464
vn 0.48069072 0.16205971 -0.8617848
vn 0.016883349 -0.61550885 -0.78794914
vn 0.01688335 -0.61550885 -0.78794914
vn 0.01688335 -0.6155088 -0.7879492
vn 0.016883524 -0.6155089 -0.787949
vn 0.016883457 -0.6155087 -0.78794926
vn 0.016882988 -0.61550844 -0.78794944
vn 0.22918573 0.1821856 0.95618117
vn 0.22918573 0.1821856 0.95618117
vn 0.22918573 0.18218563 0.95618117
vn 0.22918575 0.18218502 0.95618117
vn 0.22918546 0.18218483 0.9561813
vn 0.7899375 0.20987354 0.5761526
vn 0.78993744 0.20987353 0.5761526
vn 0.7899377 0.20987324 0.57615256
vn 0.7899375 0.20987354 0.5761526
vn 0.93540144 -0.1406198 -0.32442284
vn 0.93540144 -0.14061981 -0.32442284
vn 0.93540144 -0.1406198 -0.32442284
vn 0.93540144 -0.14061972 -0.3244229
vn 0.93540144 -0.14061972 -0.32442287
vn 0.93540156 -0.14061952 -0.32442266
vn 0.2807385 -0.9378961 -0.20380607
vn 0.2807385 -0.9378961 -0.20380604
vn 0.28073847 -0.9378961 -0.20380586
vn 0.28073847 -0.9378961 -0.20380604
vn 0.48622668 -0.59303886 0.6417855
vn 0.4862267 -0.5930388 0.64178544
vn 0.48622668 -0.5930388 0.6417855
vn 0.4862265 -0.59303933 0.64178497
vn 0.4862265 -0.59303945 0.64178497
vn 0.48622686 -0.59303844 0.64178556
vn 0.4862267 -0.59303856 0.6417856
g stong_07_0
f 3/3/3 2/2/2 1/1/1
f 6/6/6 5/5/5 4/4/4
f 5/5/5 7/7/7 4/4/4
f 8/8/8 7/7/7 5/5/5
f 9/9/9 7/7/7 8/8/8
f 12/12/12 11/11/11 10/10/10
f 11/11/11 13/13/13 10/10/10
f 13/13/13 14/14/14 10/10/10
f 14/14/14 15/15/15 10/10/10
f 18/18/18 17/17/17 16/16/16
f 17/17/17 19/19/19 16/16/16
f 20/20/20 19/19/19 17/17/17
f 23/23/23 22/22/22 21/21/21
f 22/22/22 24/24/24 21/21/21
f 25/25/25 24/24/24 22/22/22
f 28/28/28 27/27/27 26/26/26
f 27/27/27 29/29/29 26/26/26
f 29/29/29 30/30/30 26/26/26
f 31/31/31 29/29/29 27/27/27
f 34/34/34 33/33/33 32/32/32
f 33/33/33 35/35/35 32/32/32
f 35/35/35 36/36/36 32/32/32
f 36/36/36 37/37/37 32/32/32
f 40/40/40 39/39/39 38/38/38
f 41/41/41 38/38/38 39/39/39
f 44/44/44 43/43/43 42/42/42
f 43/43/43 45/45/45 42/42/42
f 45/45/45 46/46/46 42/42/42
f 49/49/49 48/48/48 47/47/47
f 48/48/48 50/50/50 47/47/47
f 50/50/50 51/51/51 47/47/47
f 52/52/52 51/51/51 50/50/50
f 55/55/55 54/54/54 53/53/53
f 54/54/54 56/56/56 53/53/53
f 57/57/57 56/56/56 54/54/54
f 60/60/60 59/59/59 58/58/58
f 61/61/61 58/58/58 59/59/59
f 64/64/64 63/63/63 62/62/62
f 63/63/63 65/65/65 62/62/62
f 65/65/65 66/66/66 62/62/62
f 66/66/66 67/67/67 62/62/62
f 70/70/70 69/69/69 68/68/68
f 71/71/71 68/68/68 69/69/69
f 74/74/74 73/73/73 72/72/72
f 73/73/73 75/75/75 72/72/72
f 75/75/75 76/76/76 72/72/72
f 77/77/77 75/75/75 73/73/73
f 78/78/78 75/75/75 77/77/77
