g MainCity_Prop_Flap_01
v 1.339133 2.572133 0.012612049
v 1.3391327 0.2302272 0.012612081
v -1.3391336 2.572133 0.012612425
v -1.3391336 0.2302272 0.012612401
v 1.339133 2.572133 -0.012031353
v -1.3391336 2.572133 -0.012030977
v 1.3391327 0.2302272 -0.0120313205
v -1.3391336 0.2302272 -0.012031001
v -1.3291333 2.6880236 -0.039823346
v -1.4743261 2.6880236 0.039824687
v -1.4743261 2.6880236 -0.039823346
v -1.3291333 2.6880236 0.039824687
v -1.3291333 2.6880236 0.039824687
v -1.3291333 0.06491775 0.03982356
v -1.4743261 0.0649179 0.039823636
v -1.4743261 2.6880236 0.039824687
v -1.4743261 2.6880236 0.039824687
v -1.4743261 0.0649179 0.039823636
v -1.4743261 0.06491821 -0.039824367
v -1.4743261 2.6880236 -0.039823346
v -1.3291333 2.6880236 0.039824687
v -1.3291333 2.6880236 -0.039823346
v -1.3291333 0.06491814 -0.039824367
v -1.3291333 0.06491775 0.03982356
v -1.4743261 0.06491821 -0.039824367
v -1.3291333 2.6880236 -0.039823346
v -1.4743261 2.6880236 -0.039823346
v -1.3291333 0.06491814 -0.039824367
v 1.3291323 2.6880236 0.03982427
v 1.3291323 2.6880236 -0.03982376
v 1.4743252 2.6880236 0.03982427
v 1.4743252 2.6880236 -0.03982376
v 1.3291323 2.6880236 0.03982427
v 1.4743252 2.6880236 0.03982427
v 1.4743252 0.064917915 0.039823625
v 1.3291323 0.06491776 0.03982355
v 1.4743252 0.064918205 -0.039824374
v 1.4743252 2.6880236 0.03982427
v 1.4743252 2.6880236 -0.03982376
v 1.4743252 0.064917915 0.039823625
v 1.3291323 2.6880236 0.03982427
v 1.3291323 0.06491776 0.03982355
v 1.3291323 0.064918056 -0.039824374
v 1.3291323 2.6880236 -0.03982376
v 1.3291323 2.6880236 -0.03982376
v 1.3291323 0.064918056 -0.039824374
v 1.4743252 0.064918205 -0.039824374
v 1.4743252 2.6880236 -0.03982376
v -1.3391336 2.5721338 0.03192488
v 1.3391327 2.5721338 0.03192456
v 1.3391323 2.5721338 -0.03192401
v -1.3391339 2.5721338 -0.031923722
v -1.3391336 2.5721338 0.03192488
v -1.3391336 2.6752484 0.031924903
v 1.3391327 2.5721338 0.03192456
v 1.339133 2.6752484 0.031924527
v 1.3391325 2.6752484 -0.03192401
v 1.339133 2.6752484 0.031924527
v -1.3391336 2.6752484 0.031924903
v -1.3391339 2.6752484 -0.031923704
v 1.3391323 2.5721338 -0.03192401
v 1.3391325 2.6752484 -0.03192401
v -1.3391339 2.6752484 -0.031923704
v -1.3391339 2.5721338 -0.031923722
v -0.030921606 2.5721338 0.023750365
v -0.030921606 0.22263016 0.02374966
v -0.030921606 0.22263023 -0.023750193
v -0.030921606 2.5721338 -0.023749866
v -0.030921606 2.5721338 0.023750365
v 0.030919766 2.5721338 0.023749676
v 0.030919766 0.2226303 0.023749635
v -0.030921606 0.22263016 0.02374966
v -0.030921606 0.22263016 0.02374966
v 0.030919766 0.2226303 0.023749635
v -0.030921606 0.22263023 -0.023750193
v 0.030919768 0.22263038 -0.02375021
v 0.030919768 0.22263038 -0.02375021
v 0.030919766 2.5721338 0.023749676
v 0.03091977 2.5721338 -0.023750547
v 0.030919766 0.2226303 0.023749635
v -0.030921606 2.5721338 -0.023749866
v -0.030921606 0.22263023 -0.023750193
v 0.030919768 0.22263038 -0.02375021
v 0.03091977 2.5721338 -0.023750547
v -1.2767762 0.014278698 0.09218064
v -1.2767762 -4.7681118E-07 0.09218064
v -1.5266832 -1.7163539E-07 0.09218064
v -1.5266832 0.014279003 0.09218065
v -1.2767762 0.014278698 0.09218064
v -1.2767762 0.014279249 -0.09218138
v -1.2767762 7.471941E-08 -0.09218136
v -1.2767762 -4.7681118E-07 0.09218064
v -1.491531 0.06491789 0.057028584
v -1.3119283 0.064917736 0.0570285
v -1.3119284 0.014278705 0.05702855
v -1.491531 0.01427901 0.057028558
v -1.3119283 0.064917736 0.0570285
v -1.3119284 0.06491821 -0.05702928
v -1.3119284 0.014279249 -0.05702928
v -1.3119284 0.014278705 0.05702855
v -1.5266832 0.014279003 0.09218065
v -1.526683 -7.786848E-08 -0.09218138
v -1.526683 0.014279097 -0.09218138
v -1.5266832 -1.7163539E-07 0.09218064
v -1.491531 0.06491789 0.057028584
v -1.491531 0.014279097 -0.05702928
v -1.491531 0.06491814 -0.05702924
v -1.491531 0.01427901 0.057028558
v -1.2767762 0.014279249 -0.09218138
v -1.2767762 0.014278698 0.09218064
v -1.3119284 0.014278705 0.05702855
v -1.3119284 0.014279249 -0.05702928
v -1.491531 0.01427901 0.057028558
v -1.3119284 0.014278705 0.05702855
v -1.2767762 0.014278698 0.09218064
v -1.5266832 0.014279003 0.09218065
v -1.491531 0.014279097 -0.05702928
v -1.491531 0.01427901 0.057028558
v -1.5266832 0.014279003 0.09218065
v -1.526683 0.014279097 -0.09218138
v -1.3119284 0.06491821 -0.05702928
v -1.3119283 0.064917736 0.0570285
v -1.491531 0.06491789 0.057028584
v -1.491531 0.06491814 -0.05702924
v -1.526683 0.014279097 -0.09218138
v -1.526683 -7.786848E-08 -0.09218138
v -1.2767762 7.471941E-08 -0.09218136
v -1.2767762 0.014279249 -0.09218138
v -1.491531 0.06491814 -0.05702924
v -1.3119284 0.014279249 -0.05702928
v -1.3119284 0.06491821 -0.05702928
v -1.491531 0.014279097 -0.05702928
v -1.526683 0.014279097 -0.09218138
v -1.2767762 0.014279249 -0.09218138
v -1.3119284 0.014279249 -0.05702928
v -1.491531 0.014279097 -0.05702928
v 1.2767745 0.014278712 0.09218064
v 1.5266812 0.014279017 0.09218065
v 1.5266812 -1.5774246E-07 0.09218064
v 1.2767745 -4.6291825E-07 0.09218064
v 1.2767745 5.9990775E-08 -0.09218136
v 1.2767745 0.014279235 -0.09218138
v 1.2767745 0.014278712 0.09218064
v 1.2767745 -4.6291825E-07 0.09218064
v 1.3119266 0.014278713 0.057028554
v 1.3119266 0.06491775 0.05702849
v 1.4915292 0.014279018 0.057028566
v 1.4915292 0.0649179 0.057028577
v 1.3119266 0.014279242 -0.057029273
v 1.3119266 0.064918205 -0.057029285
v 1.3119266 0.06491775 0.05702849
v 1.3119266 0.014278713 0.057028554
v 1.5266812 0.014279017 0.09218065
v 1.5266812 0.014279082 -0.09218138
v 1.5266812 -9.259711E-08 -0.09218138
v 1.5266812 -1.5774246E-07 0.09218064
v 1.4915292 0.0649179 0.057028577
v 1.4915292 0.06491812 -0.057029247
v 1.4915292 0.014279089 -0.057029273
v 1.4915292 0.014279018 0.057028566
v 1.2767745 0.014279235 -0.09218138
v 1.3119266 0.014279242 -0.057029273
v 1.2767745 0.014278712 0.09218064
v 1.3119266 0.014278713 0.057028554
v 1.2767745 0.014278712 0.09218064
v 1.3119266 0.014278713 0.057028554
v 1.4915292 0.014279018 0.057028566
v 1.5266812 0.014279017 0.09218065
v 1.5266812 0.014279017 0.09218065
v 1.4915292 0.014279018 0.057028566
v 1.4915292 0.014279089 -0.057029273
v 1.5266812 0.014279082 -0.09218138
v 1.4915292 0.06491812 -0.057029247
v 1.3119266 0.06491775 0.05702849
v 1.3119266 0.064918205 -0.057029285
v 1.4915292 0.0649179 0.057028577
v 1.5266812 0.014279082 -0.09218138
v 1.2767745 0.014279235 -0.09218138
v 1.2767745 5.9990775E-08 -0.09218136
v 1.5266812 -9.259711E-08 -0.09218138
v 1.4915292 0.014279089 -0.057029273
v 1.4915292 0.06491812 -0.057029247
v 1.3119266 0.014279242 -0.057029273
v 1.3119266 0.064918205 -0.057029285
v 1.5266812 0.014279082 -0.09218138
v 1.4915292 0.014279089 -0.057029273
v 1.2767745 0.014279235 -0.09218138
v 1.3119266 0.014279242 -0.057029273
vt 0.73583984 0.65771484
vt 0.73583984 0.008483887
vt 0.008956909 0.65771484
vt 0.008956909 0.008483887
vt 1.7363281 0.65771484
vt 1.0087891 0.65771484
vt 1.7363281 0.008483887
vt 1.0087891 0.008483887
vt 0.8691406 0.90527344
vt 0.8183594 0.8774414
vt 0.8183594 0.90527344
vt 0.8691406 0.8774414
vt 0.8779297 0.73583984
vt 0.8779297 0.008483887
vt 0.8378906 0.008483887
vt 0.8378906 0.73583984
vt 0.8300781 0.73583984
vt 0.8300781 0.008483887
vt 0.80810547 0.008483887
vt 0.80810547 0.73583984
vt 0.88427734 0.73583984
vt 0.90625 0.73583984
vt 0.90625 0.008483887
vt 0.88427734 0.008483887
vt 1.8378906 0.008483887
vt 1.8779297 0.73583984
vt 1.8378906 0.73583984
vt 1.8779297 0.008483887
vt 1.8691406 0.8774414
vt 1.8691406 0.90527344
vt 1.8183594 0.8774414
vt 1.8183594 0.90527344
vt 1.8779297 0.73583984
vt 1.8378906 0.73583984
vt 1.8378906 0.008483887
vt 1.8779297 0.008483887
vt 1.8076172 0.008483887
vt 1.8300781 0.73583984
vt 1.8076172 0.73583984
vt 1.8300781 0.008483887
vt 1.8837891 0.73583984
vt 1.8837891 0.008483887
vt 1.90625 0.008483887
vt 1.90625 0.73583984
vt 1.8779297 0.73583984
vt 1.8779297 0.008483887
vt 1.8378906 0.008483887
vt 1.8378906 0.73583984
vt 0.9321289 0.75097656
vt 0.9321289 0.008483887
vt 0.9145508 0.008483887
vt 0.9145508 0.75097656
vt 0.9379883 0.75097656
vt 0.9667969 0.75097656
vt 0.9379883 0.008483887
vt 0.9667969 0.008483887
vt 0.99121094 0.008483887
vt 0.9736328 0.008483887
vt 0.9736328 0.75097656
vt 0.99121094 0.75097656
vt 1.9384766 0.008483887
vt 1.9667969 0.008483887
vt 1.9667969 0.75097656
vt 1.9384766 0.75097656
vt 0.7871094 0.008483887
vt 0.7871094 0.65966797
vt 0.80029297 0.65966797
vt 0.80029297 0.008483887
vt 0.7807617 0.008483887
vt 0.7636719 0.008483887
vt 0.7636719 0.65966797
vt 0.7807617 0.65966797
vt 0.92041016 0.90478516
vt 0.94189453 0.90478516
vt 0.92041016 0.8881836
vt 0.94189453 0.8881836
vt 0.7446289 0.65966797
vt 0.7578125 0.008483887
vt 0.7446289 0.008483887
vt 0.7578125 0.65966797
vt 1.78125 0.008483887
vt 1.78125 0.65966797
vt 1.7636719 0.65966797
vt 1.7636719 0.008483887
vt 0.74902344 0.9013672
vt 0.74902344 0.8959961
vt 0.6621094 0.8959961
vt 0.6621094 0.9013672
vt 0.75683594 0.9238281
vt 0.75683594 0.98828125
vt 0.76171875 0.98828125
vt 0.76171875 0.9238281
vt 0.59472656 0.9370117
vt 0.65722656 0.9370117
vt 0.65722656 0.9194336
vt 0.59472656 0.9194336
vt 0.6982422 0.94873047
vt 0.6982422 0.98828125
vt 0.7158203 0.98828125
vt 0.7158203 0.94873047
vt 0.5576172 0.9248047
vt 0.5527344 0.9892578
vt 0.5576172 0.9892578
vt 0.5527344 0.9248047
vt 0.6123047 0.94873047
vt 0.59472656 0.98828125
vt 0.6123047 0.98828125
vt 0.59472656 0.94873047
vt 0.7421875 0.98828125
vt 0.7421875 0.9238281
vt 0.72998047 0.93603516
vt 0.72998047 0.97558594
vt 0.56933594 0.9082031
vt 0.6323242 0.9082031
vt 0.64453125 0.8959961
vt 0.5571289 0.8959961
vt 0.58203125 0.9770508
vt 0.58203125 0.9370117
vt 0.5698242 0.9248047
vt 0.5698242 0.9892578
vt 0.68652344 0.98828125
vt 0.68652344 0.94873047
vt 0.62402344 0.94873047
vt 0.62402344 0.98828125
vt 0.8588867 0.9296875
vt 0.8588867 0.9248047
vt 0.77197266 0.9248047
vt 0.77197266 0.9296875
vt 0.8466797 0.9863281
vt 0.7841797 0.96875
vt 0.7841797 0.9863281
vt 0.8466797 0.96875
vt 0.8588867 0.9448242
vt 0.77197266 0.9448242
vt 0.7841797 0.95703125
vt 0.8466797 0.95703125
vt 1.7490234 0.9013672
vt 1.6621094 0.9013672
vt 1.6621094 0.8959961
vt 1.7490234 0.8959961
vt 1.7617188 0.98828125
vt 1.7568359 0.98828125
vt 1.7568359 0.9238281
vt 1.7617188 0.9238281
vt 1.6572266 0.9194336
vt 1.6572266 0.9370117
vt 1.5947266 0.9194336
vt 1.5947266 0.9370117
vt 1.7158203 0.98828125
vt 1.6982422 0.98828125
vt 1.6982422 0.94873047
vt 1.7158203 0.94873047
vt 1.5576172 0.9248047
vt 1.5576172 0.9892578
vt 1.5527344 0.9892578
vt 1.5527344 0.9248047
vt 1.6123047 0.94873047
vt 1.6123047 0.98828125
vt 1.5947266 0.98828125
vt 1.5947266 0.94873047
vt 1.7421875 0.98828125
vt 1.7304688 0.97558594
vt 1.7421875 0.9238281
vt 1.7304688 0.93603516
vt 1.6445312 0.8959961
vt 1.6318359 0.9082031
vt 1.5693359 0.9082031
vt 1.5566406 0.8959961
vt 1.5693359 0.9248047
vt 1.5820312 0.9370117
vt 1.5820312 0.9770508
vt 1.5693359 0.9892578
vt 1.6240234 0.98828125
vt 1.6865234 0.94873047
vt 1.6865234 0.98828125
vt 1.6240234 0.94873047
vt 1.859375 0.9296875
vt 1.7714844 0.9296875
vt 1.7714844 0.9248047
vt 1.859375 0.9248047
vt 1.8466797 0.96875
vt 1.8466797 0.9863281
vt 1.7841797 0.96875
vt 1.7841797 0.9863281
vt 1.859375 0.9448242
vt 1.8466797 0.95703125
vt 1.7714844 0.9448242
vt 1.7841797 0.95703125
vn 1.1920929E-07 0 1
vn 1.1920929E-07 0 1
vn 1.1920929E-07 0 1
vn 1.1920929E-07 0 1
vn -1.1920929E-07 0 -1
vn -1.1920929E-07 0 -1
vn -1.1920929E-07 0 -1
vn -1.1920929E-07 0 -1
vn -0 1 0
vn -0 1 0
vn -0 1 0
vn -0 1 0
vn 2.3841858E-07 -4.172325E-07 1
vn 2.3841858E-07 -4.172325E-07 1
vn 2.3841858E-07 -4.172325E-07 1
vn 2.3841858E-07 -4.172325E-07 1
vn -1 0 0
vn -1 0 0
vn -1 0 0
vn -1 0 0
vn 1 0 0
vn 1 0 0
vn 1 0 0
vn 1 0 0
vn -0 0 -1
vn -0 0 -1
vn -0 0 -1
vn -0 0 -1
vn -0 1 0
vn -0 1 0
vn -0 1 0
vn -0 1 0
vn -2.3841858E-07 -2.3841858E-07 1
vn -2.3841858E-07 -2.3841858E-07 1
vn -2.3841858E-07 -2.3841858E-07 1
vn -2.3841858E-07 -2.3841858E-07 1
vn 1 0 0
vn 1 0 0
vn 1 0 0
vn 1 0 0
vn -1 0 0
vn -1 0 0
vn -1 0 0
vn -1 0 0
vn -0 0 -1
vn -0 0 -1
vn -0 0 -1
vn -0 0 -1
vn -0 -1 0
vn -0 -1 0
vn -0 -1 0
vn -0 -1 0
vn 1.1920929E-07 0 1
vn 1.1920929E-07 0 1
vn 1.1920929E-07 0 1
vn 1.1920929E-07 0 1
vn -0 1 0
vn -0 1 0
vn -0 1 0
vn -0 1 0
vn -0 0 -1
vn -0 0 -1
vn -0 0 -1
vn -0 0 -1
vn -1 0 0
vn -1 0 0
vn -1 0 0
vn -1 0 0
vn 5.7816505E-06 -1.7881393E-07 1
vn 5.7816505E-06 -1.7881393E-07 1
vn 5.7816505E-06 -1.7881393E-07 1
vn 5.7816505E-06 -1.7881393E-07 1
vn 2.4437904E-06 -1 -1.6093254E-06
vn 2.4437904E-06 -1 -1.6093254E-06
vn 2.4437904E-06 -1 -1.6093254E-06
vn 2.4437904E-06 -1 -1.6093254E-06
vn 1 0 0
vn 1 0 0
vn 1 0 0
vn 1 0 0
vn -0 0 -1
vn -0 0 -1
vn -0 0 -1
vn -0 0 -1
vn -0 -3.5762787E-07 1
vn -0 -3.5762787E-07 1
vn -0 -3.5762787E-07 1
vn -0 -3.5762787E-07 1
vn 1 0 4.172325E-07
vn 1 0 4.172325E-07
vn 1 0 4.172325E-07
vn 1 0 4.172325E-07
vn 2.3841858E-07 2.9802322E-07 1
vn 2.3841858E-07 2.9802322E-07 1
vn 2.3841858E-07 2.9802322E-07 1
vn 2.3841858E-07 2.9802322E-07 1
vn 1 -1.4901161E-06 -6.556511E-07
vn 1 -1.4901161E-06 -6.556511E-07
vn 1 -1.4901161E-06 -6.556511E-07
vn 1 -1.4901161E-06 -6.556511E-07
vn -1 0 -8.34465E-07
vn -1 0 -8.34465E-07
vn -1 0 -8.34465E-07
vn -1 0 -8.34465E-07
vn -1 0 0
vn -1 0 0
vn -1 0 0
vn -1 0 0
vn 1.1920929E-07 1 3.695488E-06
vn 1.1920929E-07 1 3.695488E-06
vn 1.1920929E-07 1 3.695488E-06
vn 1.1920929E-07 1 3.695488E-06
vn 1.4305115E-06 1 1.7881393E-07
vn 1.4305115E-06 1 1.7881393E-07
vn 1.4305115E-06 1 1.7881393E-07
vn 1.4305115E-06 1 1.7881393E-07
vn -1.1920929E-07 1 5.9604645E-07
vn -1.1920929E-07 1 5.9604645E-07
vn -1.1920929E-07 1 5.9604645E-07
vn -1.1920929E-07 1 5.9604645E-07
vn 2.3841858E-07 1 3.1590462E-06
vn 2.3841858E-07 1 3.1590462E-06
vn 2.3841858E-07 1 3.1590462E-06
vn 2.3841858E-07 1 3.1590462E-06
vn -0 -3.5762787E-07 -1
vn -0 -3.5762787E-07 -1
vn -0 -3.5762787E-07 -1
vn -0 -3.5762787E-07 -1
vn -1.1920929E-07 3.5762787E-07 -1
vn -1.1920929E-07 3.5762787E-07 -1
vn -1.1920929E-07 3.5762787E-07 -1
vn -1.1920929E-07 3.5762787E-07 -1
vn -7.1525574E-07 1 0
vn -7.1525574E-07 1 0
vn -7.1525574E-07 1 0
vn -7.1525574E-07 1 0
vn -0 -3.5762787E-07 1
vn -0 -3.5762787E-07 1
vn -0 -3.5762787E-07 1
vn -0 -3.5762787E-07 1
vn -1 0 0
vn -1 0 0
vn -1 0 0
vn -1 0 0
vn -2.3841858E-07 4.7683716E-07 1
vn -2.3841858E-07 4.7683716E-07 1
vn -2.3841858E-07 4.7683716E-07 1
vn -2.3841858E-07 4.7683716E-07 1
vn -1 0 0
vn -1 0 0
vn -1 0 0
vn -1 0 0
vn 1 0 0
vn 1 0 0
vn 1 0 0
vn 1 0 0
vn 1 0 0
vn 1 0 0
vn 1 0 0
vn 1 0 0
vn -1.1920929E-07 1 3.516674E-06
vn -1.1920929E-07 1 3.516674E-06
vn -1.1920929E-07 1 3.516674E-06
vn -1.1920929E-07 1 3.516674E-06
vn -1.4305115E-06 1 0
vn -1.4305115E-06 1 0
vn -1.4305115E-06 1 0
vn -1.4305115E-06 1 0
vn 1.1920929E-07 1 4.7683716E-07
vn 1.1920929E-07 1 4.7683716E-07
vn 1.1920929E-07 1 4.7683716E-07
vn 1.1920929E-07 1 4.7683716E-07
vn -2.3841858E-07 1 2.9802322E-06
vn -2.3841858E-07 1 2.9802322E-06
vn -2.3841858E-07 1 2.9802322E-06
vn -2.3841858E-07 1 2.9802322E-06
vn -0 -3.5762787E-07 -1
vn -0 -3.5762787E-07 -1
vn -0 -3.5762787E-07 -1
vn -0 -3.5762787E-07 -1
vn 1.1920929E-07 1.7881393E-07 -1
vn 1.1920929E-07 1.7881393E-07 -1
vn 1.1920929E-07 1.7881393E-07 -1
vn 1.1920929E-07 1.7881393E-07 -1
vn 7.1525574E-07 1 -1.7881393E-07
vn 7.1525574E-07 1 -1.7881393E-07
vn 7.1525574E-07 1 -1.7881393E-07
vn 7.1525574E-07 1 -1.7881393E-07
g MainCity_Prop_Flap_01_0
f 3/3/3 2/2/2 1/1/1
f 4/4/4 2/2/2 3/3/3
f 7/7/7 6/6/6 5/5/5
f 7/7/7 8/8/8 6/6/6
f 11/11/11 10/10/10 9/9/9
f 10/10/10 12/12/12 9/9/9
f 15/15/15 14/14/14 13/13/13
f 13/13/13 16/16/16 15/15/15
f 19/19/19 18/18/18 17/17/17
f 17/17/17 20/20/20 19/19/19
f 23/23/23 22/22/22 21/21/21
f 21/21/21 24/24/24 23/23/23
f 27/27/27 26/26/26 25/25/25
f 28/28/28 25/25/25 26/26/26
f 31/31/31 30/30/30 29/29/29
f 30/30/30 31/31/31 32/32/32
f 35/35/35 34/34/34 33/33/33
f 33/33/33 36/36/36 35/35/35
f 39/39/39 38/38/38 37/37/37
f 40/40/40 37/37/37 38/38/38
f 43/43/43 42/42/42 41/41/41
f 41/41/41 44/44/44 43/43/43
f 47/47/47 46/46/46 45/45/45
f 45/45/45 48/48/48 47/47/47
f 51/51/51 50/50/50 49/49/49
f 49/49/49 52/52/52 51/51/51
f 55/55/55 54/54/54 53/53/53
f 54/54/54 55/55/55 56/56/56
f 59/59/59 58/58/58 57/57/57
f 57/57/57 60/60/60 59/59/59
f 63/63/63 62/62/62 61/61/61
f 61/61/61 64/64/64 63/63/63
f 67/67/67 66/66/66 65/65/65
f 65/65/65 68/68/68 67/67/67
f 71/71/71 70/70/70 69/69/69
f 69/69/69 72/72/72 71/71/71
f 75/75/75 74/74/74 73/73/73
f 75/75/75 76/76/76 74/74/74
f 79/79/79 78/78/78 77/77/77
f 80/80/80 77/77/77 78/78/78
f 83/83/83 82/82/82 81/81/81
f 81/81/81 84/84/84 83/83/83
f 87/87/87 86/86/86 85/85/85
f 85/85/85 88/88/88 87/87/87
f 91/91/91 90/90/90 89/89/89
f 89/89/89 92/92/92 91/91/91
f 95/95/95 94/94/94 93/93/93
f 93/93/93 96/96/96 95/95/95
f 99/99/99 98/98/98 97/97/97
f 97/97/97 100/100/100 99/99/99
f 103/103/103 102/102/102 101/101/101
f 102/102/102 104/104/104 101/101/101
f 107/107/107 106/106/106 105/105/105
f 106/106/106 108/108/108 105/105/105
f 111/111/111 110/110/110 109/109/109
f 109/109/109 112/112/112 111/111/111
f 115/115/115 114/114/114 113/113/113
f 113/113/113 116/116/116 115/115/115
f 119/119/119 118/118/118 117/117/117
f 117/117/117 120/120/120 119/119/119
f 123/123/123 122/122/122 121/121/121
f 121/121/121 124/124/124 123/123/123
f 127/127/127 126/126/126 125/125/125
f 125/125/125 128/128/128 127/127/127
f 131/131/131 130/130/130 129/129/129
f 130/130/130 132/132/132 129/129/129
f 135/135/135 134/134/134 133/133/133
f 133/133/133 136/136/136 135/135/135
f 139/139/139 138/138/138 137/137/137
f 137/137/137 140/140/140 139/139/139
f 143/143/143 142/142/142 141/141/141
f 141/141/141 144/144/144 143/143/143
f 147/147/147 146/146/146 145/145/145
f 146/146/146 147/147/147 148/148/148
f 151/151/151 150/150/150 149/149/149
f 149/149/149 152/152/152 151/151/151
f 155/155/155 154/154/154 153/153/153
f 153/153/153 156/156/156 155/155/155
f 159/159/159 158/158/158 157/157/157
f 157/157/157 160/160/160 159/159/159
f 163/163/163 162/162/162 161/161/161
f 163/163/163 164/164/164 162/162/162
f 167/167/167 166/166/166 165/165/165
f 165/165/165 168/168/168 167/167/167
f 171/171/171 170/170/170 169/169/169
f 169/169/169 172/172/172 171/171/171
f 175/175/175 174/174/174 173/173/173
f 174/174/174 176/176/176 173/173/173
f 179/179/179 178/178/178 177/177/177
f 177/177/177 180/180/180 179/179/179
f 183/183/183 182/182/182 181/181/181
f 182/182/182 183/183/183 184/184/184
f 187/187/187 186/186/186 185/185/185
f 187/187/187 188/188/188 186/186/186
