g Common_Prop_FireAlarm_01
v -0.2694705 -1.6801543E-08 0.10312714
v -0.2694705 0.69145447 0.10312719
v 0.2694705 0.69145447 0.10312719
v 0.2694705 -1.6801543E-08 0.10312714
v -0.2694705 0.69145447 -0.14504972
v 0.2694705 0.69145447 -0.14504972
v 0.2694705 0.69145447 0.10312719
v -0.2694705 0.69145447 0.10312719
v -0.2694705 0.69145447 0.10312719
v -0.2694705 -1.6801543E-08 0.10312714
v -0.2694705 2.3631605E-08 -0.14504977
v -0.2694705 0.69145447 -0.14504972
v 0.2694705 0.69145447 -0.14504972
v -0.2694705 0.69145447 -0.14504972
v -0.2694705 2.3631605E-08 -0.14504977
v 0.2694705 2.3631605E-08 -0.14504977
v 0.2694705 2.3631605E-08 -0.14504977
v -0.2694705 2.3631605E-08 -0.14504977
v -0.2694705 -1.6801543E-08 0.10312714
v 0.2694705 -1.6801543E-08 0.10312714
v 0.2694705 0.69145447 0.10312719
v 0.2694705 0.69145447 -0.14504972
v 0.2694705 2.3631605E-08 -0.14504977
v 0.2694705 -1.6801543E-08 0.10312714
v 0.25303218 0.52662754 0.104291454
v 0.25303218 0.5782768 0.104291454
v 0.2708031 0.5782768 0.104291454
v 0.2708031 0.52662754 0.10429147
v 0.2708031 0.52662754 0.10429147
v 0.2708031 0.5782768 0.104291454
v 0.2708031 0.5782768 0.08652057
v 0.2708031 0.52662754 0.086520575
v 0.25303218 0.13134849 0.10429148
v 0.25303218 0.18299773 0.10429147
v 0.2708031 0.18299773 0.10429147
v 0.2708031 0.13134849 0.104291484
v 0.2708031 0.13134849 0.104291484
v 0.2708031 0.18299773 0.10429147
v 0.2708031 0.1829977 0.086520575
v 0.2708031 0.13134846 0.0865206
v -0.0067900848 0.6045129 0.10489138
v 7.5531E-06 0.55723387 0.10489138
v -0.019834977 0.6006826 0.10489138
v 0.0068051144 0.6045129 0.10489138
v -0.03127182 0.59333235 0.10489138
v 0.0198497 0.6006826 0.10489138
v -0.040175017 0.58305764 0.10489138
v 0.031286925 0.5933324 0.10489138
v -0.045822907 0.57069093 0.10489137
v 0.04019005 0.5830577 0.10489138
v -0.047757566 0.55723387 0.10489137
v 0.045837935 0.5706908 0.10489138
v -0.045822907 0.54377687 0.10489133
v 0.047528837 0.55723387 0.10489138
v -0.040175017 0.53141016 0.10489133
v 0.045837935 0.54377687 0.104891345
v -0.03127182 0.52113545 0.10489131
v 0.04019005 0.5314101 0.104891345
v -0.019834977 0.5137852 0.10489131
v 0.031286925 0.52113533 0.10489131
v -0.0067900848 0.5099549 0.10489131
v 0.0198497 0.5137852 0.10489131
v 0.0068051144 0.5099549 0.10489131
v -0.22867505 0.32996562 0.1048915
v -0.22341077 0.32996562 0.1048915
v -0.22604291 0.31165853 0.104891405
v -0.23372632 0.3284825 0.10489148
v -0.21835981 0.3284825 0.1048915
v -0.23815472 0.3256364 0.10489142
v -0.2139311 0.3256364 0.10489144
v -0.2416023 0.32165787 0.104891405
v -0.21048352 0.32165787 0.10489142
v -0.2437892 0.31686926 0.104891405
v -0.20829664 0.3168693 0.10489142
v -0.2445384 0.31165853 0.10489138
v -0.20754743 0.3116585 0.10489142
v -0.2437892 0.30644777 0.10489138
v -0.20829664 0.30644774 0.104891405
v -0.2416023 0.30165917 0.10489138
v -0.21048352 0.30165917 0.104891405
v -0.23815472 0.29768065 0.10489138
v -0.2139311 0.29768065 0.104891405
v -0.23372632 0.29483455 0.10489138
v -0.21835981 0.2948345 0.104891405
v -0.22867505 0.2933514 0.10489138
v -0.22341077 0.2933514 0.10489138
vt 0.00674057 0.9921875
vt 0.44140625 0.9921875
vt 0.44140625 0.6533203
vt 0.00674057 0.6533203
vt 0.60839844 0.9921875
vt 0.60839844 0.6533203
vt 0.45239258 0.6533203
vt 0.45239258 0.9921875
vt 0.44140625 0.6386719
vt 0.00674057 0.6386719
vt 0.00674057 0.48266602
vt 0.44140625 0.48266602
vt 0.44140625 0.4699707
vt 0.44140625 0.13110352
vt 0.00674057 0.13110352
vt 0.00674057 0.4699707
vt 0.60839844 0.6386719
vt 0.60839844 0.30004883
vt 0.45239258 0.30004883
vt 0.45239258 0.6386719
vt 0.44140625 0.6386719
vt 0.44140625 0.48266602
vt 0.00674057 0.48266602
vt 0.00674057 0.6386719
vt 0.44628906 0.07446289
vt 0.4116211 0.07446289
vt 0.4116211 0.09484863
vt 0.44628906 0.09484863
vt 0.44628906 0.09484863
vt 0.4116211 0.09484863
vt 0.4116211 0.11517334
vt 0.44628906 0.11517334
vt 0.44628906 0.07446289
vt 0.4116211 0.07446289
vt 0.4116211 0.09484863
vt 0.44628906 0.09484863
vt 0.44628906 0.09484863
vt 0.4116211 0.09484863
vt 0.4116211 0.11517334
vt 0.44628906 0.11517334
vt 0.20471191 0.11663818
vt 0.21191406 0.066589355
vt 0.19091797 0.11260986
vt 0.21911621 0.11663818
vt 0.17883301 0.1048584
vt 0.23291016 0.11260986
vt 0.16931152 0.093933105
vt 0.24499512 0.1048584
vt 0.16333008 0.08087158
vt 0.25439453 0.093933105
vt 0.16137695 0.066589355
vt 0.26049805 0.08087158
vt 0.16333008 0.052368164
vt 0.26220703 0.066589355
vt 0.16931152 0.039276123
vt 0.26049805 0.052368164
vt 0.17883301 0.028396606
vt 0.25439453 0.039276123
vt 0.19091797 0.020614624
vt 0.24499512 0.028396606
vt 0.20471191 0.016555786
vt 0.23291016 0.020614624
vt 0.21911621 0.016555786
vt 0.4453125 0.06982422
vt 0.4543457 0.06982422
vt 0.44970703 0.03857422
vt 0.43652344 0.06732178
vt 0.46289062 0.06726074
vt 0.42895508 0.062438965
vt 0.47045898 0.062438965
vt 0.4230957 0.055633545
vt 0.47631836 0.055633545
vt 0.4194336 0.047454834
vt 0.47998047 0.04748535
vt 0.4182129 0.03857422
vt 0.48120117 0.03857422
vt 0.4194336 0.029678345
vt 0.47998047 0.029678345
vt 0.4230957 0.021514893
vt 0.47631836 0.021499634
vt 0.42895508 0.014717102
vt 0.47045898 0.014717102
vt 0.43652344 0.009857178
vt 0.46289062 0.009864807
vt 0.4453125 0.0073280334
vt 0.4543457 0.0073280334
vn -0 0 1
vn -0 0 1
vn -0 0 1
vn -0 0 1
vn -0 1 0
vn -0 1 0
vn -0 1 0
vn -0 1 0
vn -1 0 0
vn -1 0 0
vn -1 0 0
vn -1 0 0
vn -0 0 -1
vn -0 0 -1
vn -0 0 -1
vn -0 0 -1
vn -0 -1 -1.7881393E-07
vn -0 -1 -1.7881393E-07
vn -0 -1 -1.7881393E-07
vn -0 -1 -1.7881393E-07
vn 1 0 0
vn 1 0 0
vn 1 0 0
vn 1 0 0
vn -2.9802322E-07 0 1
vn -2.9802322E-07 0 1
vn -2.9802322E-07 0 1
vn -2.9802322E-07 0 1
vn 1 0 0
vn 1 0 0
vn 1 0 0
vn 1 0 0
vn -2.9802322E-07 2.9802322E-07 1
vn -2.9802322E-07 2.9802322E-07 1
vn -2.9802322E-07 2.9802322E-07 1
vn -2.9802322E-07 2.9802322E-07 1
vn 1 0 0
vn 1 0 0
vn 1 0 0
vn 1 0 0
vn -0 0 1
vn -1.1920929E-07 -8.940697E-07 1
vn -0 0 1
vn -0 0 1
vn -0 0 1
vn -0 0 1
vn -3.5762787E-07 -5.9604645E-07 1
vn -0 0 1
vn -5.9604645E-07 -5.9604645E-07 1
vn -0 0 1
vn -4.172325E-07 -1.4305115E-06 1
vn -0 0 1
vn -7.748604E-07 -1.66893E-06 1
vn -0 -1.4305115E-06 1
vn -5.9604645E-07 -1.2516975E-06 1
vn 3.5762787E-07 -1.5497208E-06 1
vn -5.364418E-07 -1.66893E-06 1
vn -0 -1.6093254E-06 1
vn -6.556511E-07 -1.4305115E-06 1
vn -0 -2.1457672E-06 1
vn -2.3841858E-07 -1.6093254E-06 1
vn 6.556511E-07 -1.4305115E-06 1
vn 2.3841858E-07 -1.6093254E-06 1
vn -1.0728836E-06 -5.364418E-06 1
vn -7.1525574E-07 -5.1259995E-06 1
vn -7.1525574E-07 -2.3841858E-06 1
vn -4.9471855E-06 -6.7949295E-06 1
vn 2.861023E-06 -6.9737434E-06 1
vn -4.827976E-06 -5.6028366E-06 1
vn 4.172325E-06 -6.377697E-06 1
vn -1.013279E-06 -1.5497208E-06 1
vn 1.1920929E-07 -2.0861626E-06 1
vn -5.364418E-07 -1.7285347E-06 1
vn -1.013279E-06 -1.1920929E-07 1
vn -1.013279E-06 -1.847744E-06 1
vn -1.013279E-06 -1.847744E-06 1
vn -1.013279E-06 -2.9802322E-07 1
vn -5.364418E-07 -1.7285347E-06 1
vn -8.940697E-07 -5.364418E-07 1
vn -0 0 1
vn -6.556511E-07 -7.748604E-07 1
vn -0 0 1
vn -4.172325E-07 -9.536743E-07 1
vn -1.66893E-06 -7.748604E-07 1
vn -1.1920929E-07 -1.013279E-06 1
vn -1.66893E-06 -1.2516975E-06 1
g Common_Prop_FireAlarm_01_0
f 3/3/3 2/2/2 1/1/1
f 4/4/4 3/3/3 1/1/1
f 7/7/7 6/6/6 5/5/5
f 8/8/8 7/7/7 5/5/5
f 11/11/11 10/10/10 9/9/9
f 12/12/12 11/11/11 9/9/9
f 15/15/15 14/14/14 13/13/13
f 16/16/16 15/15/15 13/13/13
f 19/19/19 18/18/18 17/17/17
f 20/20/20 19/19/19 17/17/17
f 23/23/23 22/22/22 21/21/21
f 24/24/24 23/23/23 21/21/21
f 27/27/27 26/26/26 25/25/25
f 28/28/28 27/27/27 25/25/25
f 31/31/31 30/30/30 29/29/29
f 32/32/32 31/31/31 29/29/29
f 35/35/35 34/34/34 33/33/33
f 36/36/36 35/35/35 33/33/33
f 39/39/39 38/38/38 37/37/37
f 40/40/40 39/39/39 37/37/37
f 43/43/43 42/42/42 41/41/41
f 41/41/41 42/42/42 44/44/44
f 45/45/45 42/42/42 43/43/43
f 44/44/44 42/42/42 46/46/46
f 47/47/47 42/42/42 45/45/45
f 42/42/42 48/48/48 46/46/46
f 49/49/49 42/42/42 47/47/47
f 50/50/50 48/48/48 42/42/42
f 51/51/51 42/42/42 49/49/49
f 52/52/52 50/50/50 42/42/42
f 53/53/53 42/42/42 51/51/51
f 54/54/54 52/52/52 42/42/42
f 55/55/55 42/42/42 53/53/53
f 56/56/56 54/54/54 42/42/42
f 57/57/57 42/42/42 55/55/55
f 58/58/58 56/56/56 42/42/42
f 59/59/59 42/42/42 57/57/57
f 60/60/60 58/58/58 42/42/42
f 61/61/61 42/42/42 59/59/59
f 62/62/62 60/60/60 42/42/42
f 63/63/63 42/42/42 61/61/61
f 63/63/63 62/62/62 42/42/42
f 66/66/66 65/65/65 64/64/64
f 67/67/67 66/66/66 64/64/64
f 68/68/68 65/65/65 66/66/66
f 69/69/69 66/66/66 67/67/67
f 70/70/70 68/68/68 66/66/66
f 71/71/71 66/66/66 69/69/69
f 72/72/72 70/70/70 66/66/66
f 73/73/73 66/66/66 71/71/71
f 74/74/74 72/72/72 66/66/66
f 75/75/75 66/66/66 73/73/73
f 76/76/76 74/74/74 66/66/66
f 77/77/77 66/66/66 75/75/75
f 78/78/78 76/76/76 66/66/66
f 79/79/79 66/66/66 77/77/77
f 80/80/80 78/78/78 66/66/66
f 81/81/81 66/66/66 79/79/79
f 82/82/82 80/80/80 66/66/66
f 83/83/83 66/66/66 81/81/81
f 84/84/84 82/82/82 66/66/66
f 85/85/85 66/66/66 83/83/83
f 86/86/86 84/84/84 66/66/66
f 86/86/86 66/66/66 85/85/85
