g Common_Prop_Billboard_63
v 1.0509888 1.3990418 0.03895561
v 1.0509888 0.037960205 0.038955458
v -1.0509949 0.037960205 0.038955458
v -1.0509949 1.3990418 0.03895561
v -1.0889544 1.4370031 -0.055397645
v 1.0889513 1.4370056 -0.055397645
v 1.0889513 1.4370068 0.055397946
v -1.0889539 1.4370031 0.055397946
v -1.0889539 1.4370031 0.055397946
v 1.0889513 1.4370068 0.055397946
v 1.0509875 1.3990405 0.055397946
v -1.0509943 1.3990418 0.055397946
v -1.0509943 1.3990418 0.055397946
v 1.0509875 1.3990405 0.055397946
v 1.0509863 1.3990399 -0.055397645
v -1.0509943 1.3990424 -0.055397645
v -1.0509943 1.3990424 -0.055397645
v 1.0509863 1.3990399 -0.055397645
v 1.0889513 1.4370056 -0.055397645
v -1.0889544 1.4370031 -0.055397645
v 1.0889513 1.4370056 -0.055397645
v 1.0889508 -2.4414062E-06 -0.055397645
v 1.0889513 -6.1035155E-07 0.055397946
v 1.0889513 1.4370068 0.055397946
v 1.0889513 1.4370068 0.055397946
v 1.0889513 -6.1035155E-07 0.055397946
v 1.0509839 0.03795776 0.055397946
v 1.0509875 1.3990405 0.055397946
v 1.0509875 1.3990405 0.055397946
v 1.0509839 0.03795776 0.055397946
v 1.050982 0.037958983 -0.055397645
v 1.0509863 1.3990399 -0.055397645
v 1.0509863 1.3990399 -0.055397645
v 1.050982 0.037958983 -0.055397645
v 1.0889508 -2.4414062E-06 -0.055397645
v 1.0889513 1.4370056 -0.055397645
v 1.0889508 -2.4414062E-06 -0.055397645
v -1.0889533 -4.272461E-06 -0.055397794
v -1.088952 -4.272461E-06 0.055397946
v 1.0889513 -6.1035155E-07 0.055397946
v 1.0889513 -6.1035155E-07 0.055397946
v -1.088952 -4.272461E-06 0.055397946
v -1.050993 0.037960205 0.055397946
v 1.0509839 0.03795776 0.055397946
v 1.0509839 0.03795776 0.055397946
v -1.050993 0.037960205 0.055397946
v -1.0509937 0.037961423 -0.055397645
v 1.050982 0.037958983 -0.055397645
v 1.050982 0.037958983 -0.055397645
v -1.0509937 0.037961423 -0.055397645
v -1.0889533 -4.272461E-06 -0.055397794
v 1.0889508 -2.4414062E-06 -0.055397645
v -1.0889533 -4.272461E-06 -0.055397794
v -1.0889544 1.4370031 -0.055397645
v -1.0889539 1.4370031 0.055397946
v -1.088952 -4.272461E-06 0.055397946
v -1.088952 -4.272461E-06 0.055397946
v -1.0889539 1.4370031 0.055397946
v -1.0509943 1.3990418 0.055397946
v -1.050993 0.037960205 0.055397946
v -1.050993 0.037960205 0.055397946
v -1.0509943 1.3990418 0.055397946
v -1.0509943 1.3990424 -0.055397645
v -1.0509937 0.037961423 -0.055397645
v -1.0509937 0.037961423 -0.055397645
v -1.0509943 1.3990424 -0.055397645
v -1.0889544 1.4370031 -0.055397645
v -1.0889533 -4.272461E-06 -0.055397794
v 1.0584815 1.4018958 -0.04562229
v -1.0525757 1.4018939 -0.045622062
v -1.0525744 0.026464233 -0.045621946
v 1.0584832 0.026465453 -0.045622177
vt 0.8964844 0.78271484
vt 0.8964844 0.609375
vt 0.62890625 0.609375
vt 0.62890625 0.78271484
vt 0.453125 0.99609375
vt 0.67871094 0.99609375
vt 0.67871094 0.98046875
vt 0.453125 0.98046875
vt 0.453125 0.97216797
vt 0.67871094 0.97216797
vt 0.6748047 0.9682617
vt 0.45703125 0.9682617
vt 0.45703125 0.99609375
vt 0.6748047 0.99609375
vt 0.6748047 0.98046875
vt 0.45703125 0.98046875
vt 0.45703125 0.97216797
vt 0.6748047 0.97216797
vt 0.67871094 0.9682617
vt 0.453125 0.9682617
vt -0.023956299 0.99609375
vt 0.12731934 0.99609375
vt 0.12731934 0.98046875
vt -0.023956299 0.98046875
vt -0.023956299 0.97216797
vt 0.12731934 0.97216797
vt 0.123413086 0.9682617
vt -0.019989014 0.9682617
vt -0.019989014 0.99609375
vt 0.123413086 0.99609375
vt 0.123413086 0.98046875
vt -0.019989014 0.98046875
vt -0.019989014 0.97216797
vt 0.123413086 0.97216797
vt 0.12731934 0.9682617
vt -0.023956299 0.9682617
vt -0.05114746 0.99609375
vt 0.17443848 0.99609375
vt 0.17443848 0.98046875
vt -0.05114746 0.98046875
vt -0.051116943 0.97216797
vt 0.17443848 0.97216797
vt 0.17053223 0.9682617
vt -0.047180176 0.9682617
vt -0.047180176 0.99609375
vt 0.17053223 0.99609375
vt 0.17053223 0.98046875
vt -0.047180176 0.98046875
vt -0.047180176 0.97216797
vt 0.17053223 0.97216797
vt 0.17443848 0.9682617
vt -0.051116943 0.9682617
vt -0.62646484 0.99609375
vt -0.47485352 0.99609375
vt -0.47485352 0.98046875
vt -0.62646484 0.98046875
vt -0.62646484 0.97216797
vt -0.47485352 0.97216797
vt -0.47875977 0.9682617
vt -0.6220703 0.9682617
vt -0.6220703 0.99609375
vt -0.47875977 0.99609375
vt -0.47875977 0.98046875
vt -0.6220703 0.98046875
vt -0.6220703 0.97216797
vt -0.47875977 0.97216797
vt -0.47485352 0.9682617
vt -0.62646484 0.9682617
vt 0.09686279 0.40356445
vt 0.2836914 0.40356445
vt 0.2836914 0.28173828
vt 0.09686279 0.28173828
vn -0 -1.1920929E-07 1
vn -0 -1.1920929E-07 1
vn -0 -1.1920929E-07 1
vn -0 -1.1920929E-07 1
vn -1.66893E-06 1 -3.5762787E-07
vn -1.1324883E-06 1 -1.1026859E-05
vn -1.1324883E-06 1 -1.0669231E-05
vn -1.66893E-06 1 0
vn -0 0 1
vn -0 0 1
vn -0 0 1
vn -0 0 1
vn -1.1324883E-06 -1 -5.1259995E-06
vn -5.9604645E-07 -1 5.4836273E-06
vn -5.9604645E-07 -1 5.1259995E-06
vn -1.1324883E-06 -1 -5.4836273E-06
vn -0 0 -1
vn -0 0 -1
vn -0 0 -1
vn -0 0 -1
vn 1 0 -2.9802322E-07
vn 1 -4.172325E-07 -5.4836273E-06
vn 1 -4.172325E-07 -5.2452087E-06
vn 1 0 0
vn -0 0 1
vn -0 0 1
vn -0 0 1
vn -0 0 1
vn -1 3.0994415E-06 1.13248825E-05
vn -1 2.682209E-06 1.6510487E-05
vn -1 2.7418137E-06 1.6212463E-05
vn -1 3.1590462E-06 1.1026859E-05
vn -0 0 -1
vn -0 0 -1
vn -0 0 -1
vn -0 0 -1
vn 1.66893E-06 -1 1.5974045E-05
vn 8.34465E-07 -1 0
vn 8.940697E-07 -1 5.364418E-07
vn 1.66893E-06 -1 1.6510487E-05
vn -0 0 1
vn -0 0 1
vn -0 0 1
vn -0 0 1
vn 1.1324883E-06 1 1.1026859E-05
vn 1.1324883E-06 1 1.1026859E-05
vn 1.1324883E-06 1 1.1026859E-05
vn 1.1324883E-06 1 1.1026859E-05
vn -0 0 -1
vn 1.5497208E-06 2.4437904E-06 -1
vn 1.6093254E-06 2.3841858E-06 -1
vn -0 0 -1
vn -1 -1.2516975E-06 1.0728836E-05
vn -1 -8.34465E-07 5.4836273E-06
vn -1 -8.940697E-07 5.7816505E-06
vn -1 -1.2516975E-06 1.1026859E-05
vn -0 0 1
vn -0 0 1
vn -0 0 1
vn -0 0 1
vn 1 4.7683716E-07 -5.2452087E-06
vn 1 8.940697E-07 0
vn 1 8.940697E-07 -2.9802322E-07
vn 1 4.7683716E-07 -5.4836273E-06
vn 1.5497208E-06 2.4437904E-06 -1
vn -0 0 -1
vn -0 0 -1
vn 1.6093254E-06 2.3841858E-06 -1
vn -1.1920929E-07 0 -1
vn -1.1920929E-07 0 -1
vn -1.1920929E-07 0 -1
vn -1.1920929E-07 0 -1
g Common_Prop_Billboard_63_0
f 3/3/3 2/2/2 1/1/1
f 4/4/4 3/3/3 1/1/1
f 7/7/7 6/6/6 5/5/5
f 8/8/8 7/7/7 5/5/5
f 11/11/11 10/10/10 9/9/9
f 12/12/12 11/11/11 9/9/9
f 15/15/15 14/14/14 13/13/13
f 16/16/16 15/15/15 13/13/13
f 19/19/19 18/18/18 17/17/17
f 20/20/20 19/19/19 17/17/17
f 23/23/23 22/22/22 21/21/21
f 24/24/24 23/23/23 21/21/21
f 27/27/27 26/26/26 25/25/25
f 28/28/28 27/27/27 25/25/25
f 31/31/31 30/30/30 29/29/29
f 32/32/32 31/31/31 29/29/29
f 35/35/35 34/34/34 33/33/33
f 36/36/36 35/35/35 33/33/33
f 39/39/39 38/38/38 37/37/37
f 40/40/40 39/39/39 37/37/37
f 43/43/43 42/42/42 41/41/41
f 44/44/44 43/43/43 41/41/41
f 47/47/47 46/46/46 45/45/45
f 48/48/48 47/47/47 45/45/45
f 51/51/51 50/50/50 49/49/49
f 52/52/52 51/51/51 49/49/49
f 55/55/55 54/54/54 53/53/53
f 56/56/56 55/55/55 53/53/53
f 59/59/59 58/58/58 57/57/57
f 60/60/60 59/59/59 57/57/57
f 63/63/63 62/62/62 61/61/61
f 64/64/64 63/63/63 61/61/61
f 67/67/67 66/66/66 65/65/65
f 68/68/68 67/67/67 65/65/65
f 71/71/71 70/70/70 69/69/69
f 72/72/72 71/71/71 69/69/69
