g Common_Prop_Ether_07_Eff
v -0.11004058 3.687193 -0.10572204
v 0.05540741 3.7450292 -0.08263153
v -0.06896759 3.745028 -0.013025207
v 0.110126644 2.1188788 0.10572204
v 0.04853485 3.745029 0.105720825
v 0.110126644 3.7450285 0.054577332
v -0.11001312 3.4654305 0.105722345
v -0.110126644 3.6708572 0.052147824
v -0.059674375 3.7450283 0.10572204
v -0.11004058 3.687193 -0.10572204
v 0.04715118 3.6742914 -0.10572204
v 0.05540741 3.7450292 -0.08263153
v 0.04853485 3.745029 0.105720825
v -0.059674375 3.7450283 0.10572204
v -0.06896759 3.745028 -0.013025207
v -0.06896759 3.745028 -0.013025207
v 0.110126644 3.7450285 0.054577332
v 0.05540741 3.7450292 -0.08263153
v 0.110126644 3.745029 -0.011990356
v -0.06896759 3.745028 -0.013025207
v -0.059674375 3.7450283 0.10572204
v -0.110126644 3.6708572 0.052147824
v -0.06896759 3.745028 -0.013025207
v -0.110126644 3.6708572 0.052147824
v -0.11004058 3.687193 -0.10572204
v 0.110126644 -2.1364528E-07 -0.10572265
v 0.110126644 -2.4809395E-07 0.10572174
v 0.110126644 2.1188788 0.10572204
v 0.110126644 3.2252495 -0.10572204
v 0.110126644 3.7450285 0.054577332
v 0.110126644 3.745029 -0.011990356
v 0.110126644 -2.1364528E-07 -0.10572265
v 0.110126644 3.2252495 -0.10572204
v -0.11004058 -2.1364528E-07 -0.10572265
v -0.11004058 3.687193 -0.10572204
v 0.04715118 3.6742914 -0.10572204
v 0.110126644 3.2252495 -0.10572204
v 0.110126644 3.745029 -0.011990356
v 0.04715118 3.6742914 -0.10572204
v 0.05540741 3.7450292 -0.08263153
v -0.11004058 -2.1364528E-07 -0.10572265
v -0.11001312 3.4654305 0.105722345
v -0.11004058 -2.4809395E-07 0.10572174
v -0.11004058 3.687193 -0.10572204
v -0.110126644 3.6708572 0.052147824
v -0.11004058 -2.4809395E-07 0.10572174
v 0.110126644 2.1188788 0.10572204
v 0.110126644 -2.4809395E-07 0.10572174
v -0.11001312 3.4654305 0.105722345
v 0.04853485 3.745029 0.105720825
v -0.059674375 3.7450283 0.10572204
v -0.11004058 -2.1364528E-07 -0.10572265
v -0.11004058 -2.4809395E-07 0.10572174
v 0.110126644 -2.4809395E-07 0.10572174
v 0.110126644 -2.1364528E-07 -0.10572265
vt 0.93652344 0.9892578
vt 0.93310547 0.95996094
vt 0.92089844 0.9794922
vt 0.90625 0.72558594
vt 0.8979492 0.9423828
vt 0.91015625 0.9423828
vt 0.9916992 0.90527344
vt 0.9848633 0.9326172
vt 0.9916992 0.9423828
vt 0.9638672 0.9350586
vt 0.93847656 0.93310547
vt 0.93652344 0.9423828
vt 0.90185547 0.9609375
vt 0.90185547 0.9785156
vt 0.92089844 0.9794922
vt 0.92089844 0.9794922
vt 0.91015625 0.9506836
vt 0.93310547 0.95996094
vt 0.9213867 0.9506836
vt 0.92089844 0.9794922
vt 0.90185547 0.9785156
vt 0.9111328 0.9926758
vt 0.92089844 0.9794922
vt 0.9111328 0.9926758
vt 0.93652344 0.9892578
vt 0.9345703 0.44311523
vt 0.90625 0.44311523
vt 0.90625 0.72558594
vt 0.9345703 0.8730469
vt 0.91015625 0.9423828
vt 0.9213867 0.9423828
vt 0.9345703 0.44311523
vt 0.9345703 0.8730469
vt 0.9638672 0.44311523
vt 0.9638672 0.9350586
vt 0.93847656 0.93310547
vt 0.9345703 0.8730469
vt 0.9213867 0.9423828
vt 0.93847656 0.93310547
vt 0.93652344 0.9423828
vt 0.9638672 0.44311523
vt 0.9916992 0.90527344
vt 0.9916992 0.44311523
vt 0.9638672 0.9350586
vt 0.9848633 0.9326172
vt 0.8769531 0.44311523
vt 0.90625 0.72558594
vt 0.90625 0.44311523
vt 0.8769531 0.90527344
vt 0.8979492 0.9423828
vt 0.8833008 0.9423828
vt 0.90625 0.47851562
vt 0.90625 0.5053711
vt 0.9345703 0.5053711
vt 0.9345703 0.47851562
vn -0.24279785 0.8676758 -0.4338379
vn -0.24279785 0.8676758 -0.4338379
vn -0.24279785 0.8676758 -0.4338379
vn 0.6386719 0.02418518 0.76904297
vn 0.6386719 0.02418518 0.76904297
vn 0.6386719 0.02418518 0.76904297
vn -0.81347656 0.1463623 0.5629883
vn -0.81347656 0.1463623 0.5629883
vn -0.81347656 0.1463623 0.5629883
vn 0.025238037 0.3076172 -0.9511719
vn 0.025238037 0.3076172 -0.9511719
vn 0.025238037 0.3076172 -0.9511719
vn -5.6624413E-06 1 -2.1457672E-06
vn -5.6624413E-06 1 -2.1457672E-06
vn -5.6624413E-06 1 -2.1457672E-06
vn -5.9604645E-06 1 6.854534E-06
vn -5.9604645E-06 1 6.854534E-06
vn -5.9604645E-06 1 6.854534E-06
vn -3.5762787E-07 1 4.5895576E-06
vn -0.8466797 0.52783203 0.06628418
vn -0.8466797 0.52783203 0.06628418
vn -0.8466797 0.52783203 0.06628418
vn -0.85253906 0.52001953 0.053344727
vn -0.85253906 0.52001953 0.053344727
vn -0.85253906 0.52001953 0.053344727
vn 1 0 0
vn 1 0 0
vn 1 0 0
vn 1 0 0
vn 1 0 0
vn 1 0 0
vn -0 1.7881393E-07 -1
vn -0 1.7881393E-07 -1
vn -0 1.7881393E-07 -1
vn 3.5762787E-07 1.7881393E-07 -1
vn -0 0 -1
vn 0.78466797 0.11004639 -0.61035156
vn 0.78466797 0.11004639 -0.61035156
vn 0.78466797 0.11004639 -0.61035156
vn 0.7861328 0.10699463 -0.6088867
vn -1 0 0.00012993813
vn -1 0 0.00012993813
vn -1 7.927418E-06 0
vn -1 0 0.00012993813
vn -1 -0.00071430206 -0.00061893463
vn 2.9802322E-07 -1.7881393E-07 1
vn 2.9802322E-07 -1.7881393E-07 1
vn -0 -1.1920929E-07 1
vn 2.9802322E-07 -1.7881393E-07 1
vn 7.8082085E-06 1.0728836E-06 1
vn 1.1265278E-05 -9.536743E-07 1
vn -0 -1 -1.7881393E-07
vn -0 -1 -1.7881393E-07
vn -0 -1 -1.7881393E-07
vn -0 -1 -1.7881393E-07
g Common_Prop_Ether_07_Eff_0
f 3/3/3 2/2/2 1/1/1
f 6/6/6 5/5/5 4/4/4
f 9/9/9 8/8/8 7/7/7
f 12/12/12 11/11/11 10/10/10
f 15/15/15 14/14/14 13/13/13
f 17/17/17 16/16/16 13/13/13
f 18/18/18 16/16/16 17/17/17
f 19/19/19 18/18/18 17/17/17
f 22/22/22 21/21/21 20/20/20
f 25/25/25 24/24/24 23/23/23
f 28/28/28 27/27/27 26/26/26
f 29/29/29 28/28/28 26/26/26
f 30/30/30 28/28/28 29/29/29
f 31/31/31 30/30/30 29/29/29
f 34/34/34 33/33/33 32/32/32
f 33/33/33 34/34/34 35/35/35
f 36/36/36 33/33/33 35/35/35
f 39/39/39 38/38/38 37/37/37
f 40/40/40 38/38/38 39/39/39
f 43/43/43 42/42/42 41/41/41
f 44/44/44 41/41/41 42/42/42
f 45/45/45 44/44/44 42/42/42
f 48/48/48 47/47/47 46/46/46
f 47/47/47 49/49/49 46/46/46
f 49/49/49 47/47/47 50/50/50
f 51/51/51 49/49/49 50/50/50
f 54/54/54 53/53/53 52/52/52
f 55/55/55 54/54/54 52/52/52
