g Common_Prop_Billboard_44
v 2.2905066 6.8657813 0.064058796
v 2.2905004 0.17825678 0.064054675
v -2.290509 0.17826165 0.064053915
v -2.2905042 6.8657665 0.06405803
v 2.4687853 7.0440426 0.12992346
v 2.468784 6.865786 0.12992367
v 2.2905102 6.865786 0.12992367
v -2.4687731 7.0440526 0.12992316
v -2.2904992 6.865776 0.12992336
v -2.4687731 6.8657813 0.12992351
v -2.4687731 7.0440526 0.12992316
v -2.4687684 7.044048 -0.12989831
v 2.468784 7.0440426 -0.12989816
v 2.4687853 7.0440426 0.12992346
v 2.4687817 6.8657813 -0.1298981
v 2.468784 7.0440426 -0.12989816
v 2.2905066 6.8657813 -0.1298981
v -2.4687684 7.044048 -0.12989831
v -2.2905042 6.8657665 -0.12989841
v -2.4687731 6.865776 -0.12989827
v -2.468783 -9.845657E-06 0.12991913
v -2.468783 0.17826164 0.12991938
v -2.2905042 0.17826164 0.12991923
v 2.2905114 0.17826164 0.1299197
v 2.4687805 -9.845657E-06 0.12991942
v 2.4687805 0.17826164 0.1299197
v 2.4687805 -9.845657E-06 0.12991942
v 2.4687767 -9.685605E-06 -0.12990218
v -2.4687781 -9.685605E-06 -0.1299025
v -2.468783 -9.845657E-06 0.12991913
v -2.2905042 6.8657665 -0.12989841
v -2.2904992 6.865776 0.12992336
v 2.2905102 6.865786 0.12992367
v 2.2905066 6.8657813 -0.1298981
v 2.2905138 0.17826179 -0.12990208
v 2.2905114 0.17826164 0.1299197
v -2.2905042 0.17826164 0.12991923
v -2.2905042 0.17826179 -0.1299024
v 2.2905138 0.17826179 -0.12990208
v 2.4687767 -9.685605E-06 -0.12990218
v 2.4687805 0.17826179 -0.12990208
v -2.4687781 -9.685605E-06 -0.1299025
v -2.2905042 0.17826179 -0.1299024
v -2.4687781 0.17827156 -0.12990208
v -2.4687731 7.0440526 0.12992316
v -2.4687731 6.865776 -0.12989827
v -2.4687684 7.044048 -0.12989831
v -2.4687731 6.8657813 0.12992351
v -2.4687781 0.17827156 -0.12990208
v -2.468783 0.17826164 0.12991938
v -2.4687781 -9.685605E-06 -0.1299025
v -2.468783 -9.845657E-06 0.12991913
v -2.2905042 0.17826164 0.12991923
v -2.2904992 6.865776 0.12992336
v -2.2905042 6.8657665 -0.12989841
v -2.2905042 0.17826179 -0.1299024
v 2.4687805 -9.845657E-06 0.12991942
v 2.4687805 0.17826179 -0.12990208
v 2.4687767 -9.685605E-06 -0.12990218
v 2.4687805 0.17826164 0.1299197
v 2.468784 6.865786 0.12992367
v 2.4687817 6.8657813 -0.1298981
v 2.468784 7.0440426 -0.12989816
v 2.4687853 7.0440426 0.12992346
v 2.2905066 6.8657813 -0.1298981
v 2.2905102 6.865786 0.12992367
v 2.2905114 0.17826164 0.1299197
v 2.2905138 0.17826179 -0.12990208
v 2.2905114 0.17826164 0.1299197
v 2.2905102 6.865786 0.12992367
v 2.468784 6.865786 0.12992367
v 2.4687805 0.17826164 0.1299197
v 2.4687817 6.8657813 -0.1298981
v 2.2905066 6.8657813 -0.1298981
v 2.2905138 0.17826179 -0.12990208
v 2.4687805 0.17826179 -0.12990208
v -2.4687731 6.8657813 0.12992351
v -2.2904992 6.865776 0.12992336
v -2.2905042 0.17826164 0.12991923
v -2.468783 0.17826164 0.12991938
v -2.2905042 6.8657665 -0.12989841
v -2.4687731 6.865776 -0.12989827
v -2.4687781 0.17827156 -0.12990208
v -2.2905042 0.17826179 -0.1299024
v -2.2905138 6.865801 -0.067583814
v -2.2905066 0.17827642 -0.06758793
v 2.2905028 0.1782813 -0.06758762
v 2.2904918 6.865786 -0.06758351
v -2.4676023 6.073717 -0.097326964
v -2.4676013 6.0737176 0.097345985
v -2.998916 6.0737205 0.09734824
v -2.99891 6.073716 -0.097324796
v -2.467601 5.9401407 0.097346075
v -2.4676094 5.940144 -0.097326756
v -2.998917 5.940147 -0.09732471
v -2.9989197 5.940147 0.097348325
v -2.998916 6.0737205 0.09734824
v -2.4676013 6.0737176 0.097345985
v -2.467601 5.9401407 0.097346075
v -2.9989197 5.940147 0.097348325
v -2.998917 5.940147 -0.09732471
v -2.4676094 5.940144 -0.097326756
v -2.4676023 6.073717 -0.097326964
v -2.99891 6.073716 -0.097324796
v -2.4675992 1.1038992 -0.09732748
v -2.4675984 1.1038992 0.09734539
v -2.9989133 1.1039027 0.09734765
v -2.9989061 1.1038992 -0.097325295
v -2.4675984 0.97032255 0.09734549
v -2.4676065 0.970326 -0.09732727
v -2.9989135 0.9703299 -0.0973252
v -2.9989169 0.9703299 0.09734775
v -2.9989133 1.1039027 0.09734765
v -2.4675984 1.1038992 0.09734539
v -2.4675984 0.97032255 0.09734549
v -2.9989169 0.9703299 0.09734775
v -2.9989135 0.9703299 -0.0973252
v -2.4676065 0.970326 -0.09732727
v -2.4675992 1.1038992 -0.09732748
v -2.9989061 1.1038992 -0.097325295
v -2.998917 5.940147 -0.09732471
v -2.99891 6.073716 -0.097324796
v -2.998916 6.0737205 0.09734824
v -2.9989197 5.940147 0.097348325
v -2.9989135 0.9703299 -0.0973252
v -2.9989061 1.1038992 -0.097325295
v -2.9989133 1.1039027 0.09734765
v -2.9989169 0.9703299 0.09734775
vt 0.20166016 0.9433594
vt 0.20166016 0.66015625
vt 0.0076179504 0.66015625
vt 0.0076179504 0.9433594
vt 0.98583984 0.96777344
vt 0.98583984 0.95410156
vt 0.97216797 0.95410156
vt 0.60546875 0.96777344
vt 0.6191406 0.95410156
vt 0.60546875 0.95410156
vt 0.60546875 0.97558594
vt 0.60546875 0.9951172
vt 0.98583984 0.9951172
vt 0.98583984 0.97558594
vt 0.98583984 0.96777344
vt 0.98583984 0.95410156
vt 0.97216797 0.96777344
vt 0.60546875 0.95410156
vt 0.6191406 0.96728516
vt 0.60546875 0.96728516
vt 0.30493164 0.96777344
vt 0.30493164 0.95410156
vt 0.29101562 0.95410156
vt -0.061920166 0.95410156
vt -0.07562256 0.96777344
vt -0.07562256 0.95410156
vt -0.07562256 0.97558594
vt -0.07562256 0.9951172
vt 0.30493164 0.9951172
vt 0.30493164 0.97558594
vt 0.6191406 0.97558594
vt 0.6191406 0.9951172
vt 0.97216797 0.9951172
vt 0.97216797 0.97558594
vt -0.061920166 0.97558594
vt -0.061920166 0.9951172
vt 0.29101562 0.9951172
vt 0.29101562 0.97558594
vt -0.061920166 0.96777344
vt -0.07562256 0.95410156
vt -0.07562256 0.96777344
vt 0.30493164 0.95410156
vt 0.29101562 0.96777344
vt 0.30493164 0.96777344
vt 0.55615234 0.97558594
vt 0.54248047 0.9951172
vt 0.55615234 0.9951172
vt 0.54248047 0.97558594
vt 0.02720642 0.9951172
vt 0.02720642 0.97558594
vt 0.013465881 0.9951172
vt 0.013465881 0.97558594
vt 0.02720642 0.9951172
vt 0.54248047 0.9951172
vt 0.54248047 0.97558594
vt 0.02720642 0.97558594
vt 0.59814453 0.97558594
vt 0.58447266 0.9951172
vt 0.59814453 0.9951172
vt 0.58447266 0.97558594
vt 0.06915283 0.97558594
vt 0.06915283 0.9951172
vt 0.055389404 0.9951172
vt 0.055389404 0.97558594
vt 0.06915283 0.97558594
vt 0.06915283 0.9951172
vt 0.58447266 0.9951172
vt 0.58447266 0.97558594
vt 0.58447266 0.95410156
vt 0.06915283 0.95410156
vt 0.06915283 0.96777344
vt 0.58447266 0.96777344
vt 0.06915283 0.95410156
vt 0.06915283 0.96777344
vt 0.58447266 0.96777344
vt 0.58447266 0.95410156
vt 0.54248047 0.96777344
vt 0.54248047 0.95410156
vt 0.02720642 0.95410156
vt 0.02720642 0.96777344
vt 0.54248047 0.96777344
vt 0.54248047 0.95410156
vt 0.02720642 0.95410156
vt 0.02720642 0.96777344
vt 0.20166016 0.9433594
vt 0.20166016 0.66015625
vt 0.0076179504 0.66015625
vt 0.0076179504 0.9433594
vt -0.07562256 0.97558594
vt -0.07562256 0.9951172
vt -0.0234375 0.9951172
vt -0.0234375 0.97558594
vt -0.07562256 0.97558594
vt -0.07562256 0.9951172
vt -0.0234375 0.9951172
vt -0.0234375 0.97558594
vt -0.023635864 0.95410156
vt -0.07562256 0.95410156
vt -0.07562256 0.96777344
vt -0.023635864 0.96777344
vt -0.023635864 0.95410156
vt -0.07562256 0.95410156
vt -0.07562256 0.96777344
vt -0.023635864 0.96777344
vt -0.07562256 0.97558594
vt -0.07562256 0.9951172
vt -0.0234375 0.9951172
vt -0.0234375 0.97558594
vt -0.07562256 0.97558594
vt -0.07562256 0.9951172
vt -0.0234375 0.9951172
vt -0.0234375 0.97558594
vt -0.023635864 0.95410156
vt -0.07562256 0.95410156
vt -0.07562256 0.96777344
vt -0.023635864 0.96777344
vt -0.023635864 0.95410156
vt -0.07562256 0.95410156
vt -0.07562256 0.96777344
vt -0.023635864 0.96777344
vt -0.015960693 0.9770508
vt -0.015960693 0.99365234
vt 0.009269714 0.99365234
vt 0.009269714 0.9770508
vt 0.010391235 0.9770508
vt 0.010391235 0.99365234
vt 0.035614014 0.99365234
vt 0.035614014 0.9770508
vn -1.7881393E-07 -5.9604645E-07 1
vn -1.7881393E-07 -5.9604645E-07 1
vn -1.7881393E-07 -5.9604645E-07 1
vn -1.7881393E-07 -5.9604645E-07 1
vn -0 1.1920929E-06 1
vn -0 -5.364418E-07 1
vn -0 3.5762787E-07 1
vn -0 1.0728836E-06 1
vn 4.172325E-07 2.3841858E-07 1
vn 8.34465E-07 -5.364418E-07 1
vn 1.013279E-06 1 -1.7881393E-05
vn 1.013279E-06 1 -1.8537045E-05
vn 1.9669533E-06 1 -3.5762787E-07
vn 1.9669533E-06 1 2.3841858E-07
vn -0 5.9604645E-07 -1
vn -0 -2.9802322E-07 -1
vn -0 1.1920929E-07 -1
vn -0 5.9604645E-07 -1
vn -4.172325E-07 5.9604645E-07 -1
vn -8.34465E-07 5.364418E-07 -1
vn -0 -5.9604645E-07 1
vn 8.34465E-07 -6.556511E-07 1
vn 3.5762787E-07 -5.364418E-07 1
vn -0 -1.0728836E-06 1
vn -0 -1.4901161E-06 1
vn -0 -5.9604645E-07 1
vn -0 -1 -5.9604645E-07
vn -0 -1 -5.9604645E-07
vn -0 -1 -5.9604645E-07
vn -0 -1 -5.9604645E-07
vn 2.1457672E-06 -1 3.6656857E-05
vn 2.1457672E-06 -1 3.7312508E-05
vn 3.1590462E-06 -1 1.9192696E-05
vn 3.2186508E-06 -1 1.8537045E-05
vn -0 1 5.364418E-07
vn -0 1 5.364418E-07
vn -0 1 5.364418E-07
vn -0 1 5.364418E-07
vn -0 5.9604645E-07 -1
vn -0 6.556511E-07 -1
vn -0 5.9604645E-07 -1
vn -0 5.9604645E-07 -1
vn -8.34465E-07 5.9604645E-07 -1
vn -1.66893E-06 6.556511E-07 -1
vn -1 1.04904175E-05 -7.212162E-06
vn -1 1.1324883E-06 -2.9802322E-07
vn -1 2.7418137E-05 -1.8775463E-05
vn -1 7.1525574E-07 -4.7683716E-07
vn -1 1.4305115E-06 -1.835823E-05
vn -1 1.4305115E-06 -1.8775463E-05
vn -1 0 -1.8775463E-05
vn -1 0 -1.8775463E-05
vn 1 0 -4.7683716E-07
vn 1 -7.1525574E-07 -1.8775463E-05
vn 1 -7.1525574E-07 -1.8298626E-05
vn 1 0 0
vn 1 -7.867813E-06 -5.4240227E-06
vn 1 -8.34465E-07 -4.7683716E-07
vn 1 -2.0563602E-05 -1.4066696E-05
vn 1 -5.364418E-07 0
vn 1 -4.172325E-07 -9.119511E-06
vn 1 -5.364418E-07 -9.417534E-06
vn 1 -1.1086464E-05 -7.56979E-06
vn 1 -6.854534E-06 -4.708767E-06
vn -1 -1.7881393E-07 1.3530254E-05
vn -1 -1.7881393E-07 1.4066696E-05
vn -1 -1.0728836E-06 -8.821487E-06
vn -1 -1.0728836E-06 -9.417534E-06
vn -0 -1.0728836E-06 1
vn -0 3.5762787E-07 1
vn -0 -5.364418E-07 1
vn -0 -5.9604645E-07 1
vn -0 5.9604645E-07 -1
vn -0 1.1920929E-07 -1
vn -0 5.9604645E-07 -1
vn -0 5.9604645E-07 -1
vn 8.34465E-07 -5.364418E-07 1
vn 4.172325E-07 2.3841858E-07 1
vn 3.5762787E-07 -5.364418E-07 1
vn 8.34465E-07 -6.556511E-07 1
vn -4.172325E-07 5.9604645E-07 -1
vn -8.34465E-07 5.364418E-07 -1
vn -1.66893E-06 6.556511E-07 -1
vn -8.34465E-07 5.9604645E-07 -1
vn -0 5.9604645E-07 -1
vn -0 5.9604645E-07 -1
vn -0 5.9604645E-07 -1
vn -0 5.9604645E-07 -1
vn 4.23193E-06 1 -7.0929527E-06
vn 5.722046E-06 1 -2.861023E-06
vn 4.172325E-07 1 -1.7464161E-05
vn -1.1324883E-06 1 -2.169609E-05
vn -7.033348E-06 -1 -1.2457371E-05
vn -5.722046E-06 -1 -1.591444E-05
vn -1.0192394E-05 -1 -3.7550926E-06
vn -1.1503696E-05 -1 -2.3841858E-07
vn 4.23193E-06 6.556511E-07 1
vn 4.23193E-06 6.556511E-07 1
vn 4.23193E-06 6.556511E-07 1
vn 4.23193E-06 6.556511E-07 1
vn -4.053116E-06 -8.940697E-07 -1
vn -3.874302E-06 -1.6093254E-06 -1
vn -3.874302E-06 -1.4305115E-06 -1
vn -4.053116E-06 -7.1525574E-07 -1
vn 5.00679E-06 1 -3.695488E-06
vn 6.4373016E-06 1 2.3841858E-07
vn 1.4305115E-06 1 -1.3411045E-05
vn -0 1 -1.7344952E-05
vn -8.761883E-06 -1 -1.3947487E-05
vn -7.3313713E-06 -1 -1.7881393E-05
vn -1.23381615E-05 -1 -4.23193E-06
vn -1.3768673E-05 -1 -2.3841858E-07
vn 4.2915344E-06 7.748604E-07 1
vn 4.23193E-06 7.1525574E-07 1
vn 4.23193E-06 7.1525574E-07 1
vn 4.2915344E-06 7.748604E-07 1
vn -4.053116E-06 -8.940697E-07 -1
vn -3.874302E-06 -1.6093254E-06 -1
vn -3.9339066E-06 -1.4305115E-06 -1
vn -4.1127205E-06 -7.1525574E-07 -1
vn -1 2.7418137E-05 -1.2516975E-05
vn -1 5.4836273E-05 -3.1352043E-05
vn -1 2.7418137E-05 -1.2516975E-05
vn -1 2.7418137E-05 -1.2516975E-05
vn -1 2.7418137E-05 -1.7225742E-05
vn -1 5.4836273E-05 -3.606081E-05
vn -1 2.7418137E-05 -1.7225742E-05
vn -1 2.7418137E-05 -1.7225742E-05
g Common_Prop_Billboard_44_0
f 3/3/3 2/2/2 1/1/1
f 4/4/4 3/3/3 1/1/1
f 7/7/7 6/6/6 5/5/5
f 5/5/5 8/8/8 7/7/7
f 8/8/8 9/9/9 7/7/7
f 10/10/10 9/9/9 8/8/8
f 13/13/13 12/12/12 11/11/11
f 14/14/14 13/13/13 11/11/11
f 17/17/17 16/16/16 15/15/15
f 16/16/16 17/17/17 18/18/18
f 17/17/17 19/19/19 18/18/18
f 20/20/20 18/18/18 19/19/19
f 23/23/23 22/22/22 21/21/21
f 23/23/23 21/21/21 24/24/24
f 21/21/21 25/25/25 24/24/24
f 26/26/26 24/24/24 25/25/25
f 29/29/29 28/28/28 27/27/27
f 30/30/30 29/29/29 27/27/27
f 33/33/33 32/32/32 31/31/31
f 34/34/34 33/33/33 31/31/31
f 37/37/37 36/36/36 35/35/35
f 38/38/38 37/37/37 35/35/35
f 41/41/41 40/40/40 39/39/39
f 39/39/39 40/40/40 42/42/42
f 43/43/43 39/39/39 42/42/42
f 42/42/42 44/44/44 43/43/43
f 47/47/47 46/46/46 45/45/45
f 46/46/46 48/48/48 45/45/45
f 48/48/48 46/46/46 49/49/49
f 50/50/50 48/48/48 49/49/49
f 49/49/49 51/51/51 50/50/50
f 51/51/51 52/52/52 50/50/50
f 55/55/55 54/54/54 53/53/53
f 56/56/56 55/55/55 53/53/53
f 59/59/59 58/58/58 57/57/57
f 58/58/58 60/60/60 57/57/57
f 60/60/60 58/58/58 61/61/61
f 58/58/58 62/62/62 61/61/61
f 62/62/62 63/63/63 61/61/61
f 63/63/63 64/64/64 61/61/61
f 67/67/67 66/66/66 65/65/65
f 68/68/68 67/67/67 65/65/65
f 71/71/71 70/70/70 69/69/69
f 72/72/72 71/71/71 69/69/69
f 75/75/75 74/74/74 73/73/73
f 76/76/76 75/75/75 73/73/73
f 79/79/79 78/78/78 77/77/77
f 80/80/80 79/79/79 77/77/77
f 83/83/83 82/82/82 81/81/81
f 84/84/84 83/83/83 81/81/81
f 87/87/87 86/86/86 85/85/85
f 88/88/88 87/87/87 85/85/85
f 91/91/91 90/90/90 89/89/89
f 92/92/92 91/91/91 89/89/89
f 95/95/95 94/94/94 93/93/93
f 96/96/96 95/95/95 93/93/93
f 99/99/99 98/98/98 97/97/97
f 100/100/100 99/99/99 97/97/97
f 103/103/103 102/102/102 101/101/101
f 104/104/104 103/103/103 101/101/101
f 107/107/107 106/106/106 105/105/105
f 108/108/108 107/107/107 105/105/105
f 111/111/111 110/110/110 109/109/109
f 112/112/112 111/111/111 109/109/109
f 115/115/115 114/114/114 113/113/113
f 116/116/116 115/115/115 113/113/113
f 119/119/119 118/118/118 117/117/117
f 120/120/120 119/119/119 117/117/117
f 123/123/123 122/122/122 121/121/121
f 124/124/124 123/123/123 121/121/121
f 127/127/127 126/126/126 125/125/125
f 128/128/128 127/127/127 125/125/125
