g Common_Prop_Billboard_70
v 0.53302366 0.74452096 0.034521483
v -0.53302246 0.74451816 0.034521483
v -0.53302246 0.74451816 -0.034521483
v 0.53302366 0.7445203 -0.034521483
v 0.5121814 0.72344613 0.034521483
v -0.5119525 0.72344613 0.034521483
v -0.53302246 0.74451816 0.034521483
v 0.53302366 0.74452096 0.034521483
v 0.53302366 0.7445203 -0.034521483
v -0.53302246 0.74451816 -0.034521483
v -0.51195186 0.7234467 -0.034521483
v 0.5119501 0.7234458 -0.034521483
v 0.53302366 -0.7445197 0.034521483
v 0.53302366 0.74452096 0.034521483
v 0.53302366 0.7445203 -0.034521483
v 0.53302366 -0.7445206 -0.034521483
v 0.53302366 -0.7445206 -0.034521483
v 0.53302366 0.7445203 -0.034521483
v 0.5119501 0.7234458 -0.034521483
v 0.5119488 -0.7236688 -0.034521483
v -0.5330212 -0.7445217 0.034521483
v 0.53302366 -0.7445197 0.034521483
v 0.53302366 -0.7445206 -0.034521483
v -0.53302187 -0.74452156 -0.034521483
v -0.51195186 -0.72367024 0.034521483
v 0.51218075 -0.7236704 0.034521483
v 0.53302366 -0.7445197 0.034521483
v -0.5330212 -0.7445217 0.034521483
v -0.53302187 -0.74452156 -0.034521483
v 0.53302366 -0.7445206 -0.034521483
v 0.5119488 -0.7236688 -0.034521483
v -0.51195186 -0.7236683 -0.034521483
v -0.53302246 0.74451816 0.034521483
v -0.5330212 -0.7445217 0.034521483
v -0.53302187 -0.74452156 -0.034521483
v -0.53302246 0.74451816 -0.034521483
v -0.5119525 0.72344613 0.034521483
v -0.51195186 -0.72367024 0.034521483
v -0.5330212 -0.7445217 0.034521483
v -0.53302246 0.74451816 0.034521483
v -0.53302246 0.74451816 -0.034521483
v -0.53302187 -0.74452156 -0.034521483
v -0.51195186 -0.7236683 -0.034521483
v -0.51195186 0.7234467 -0.034521483
v -0.51195186 -0.7236683 -0.034521483
v 0.5119488 -0.7236688 -0.034521483
v 0.5119501 0.7234458 -0.034521483
v -0.51195186 0.7234467 -0.034521483
v 0.53302366 0.74452096 0.034521483
v 0.53302366 -0.7445197 0.034521483
v 0.51218075 -0.7236704 0.034521483
v 0.5121814 0.72344613 0.034521483
v -0.45738158 0.668519 0.025021972
v 0.45786986 0.668519 0.025021972
v 0.45786986 -0.66965 0.025021972
v -0.45738158 -0.66965 0.025021972
v -0.5119525 0.72344613 0.034521483
v 0.4668701 0.67751896 0.034521483
v -0.46638182 0.67751896 0.034521483
v 0.5121814 0.72344613 0.034521483
v 0.4668701 -0.67864996 0.034521483
v 0.51218075 -0.7236704 0.034521483
v -0.46638182 -0.67864996 0.034521483
v -0.51195186 -0.72367024 0.034521483
v -0.46638182 0.67751896 0.034521483
v -0.46638182 0.67751896 0.034521483
v -0.45738158 0.668519 0.025021972
v -0.45738158 -0.66965 0.025021972
v -0.46638182 -0.67864996 0.034521483
v -0.46638182 -0.67864996 0.034521483
v -0.45738158 -0.66965 0.025021972
v 0.45786986 -0.66965 0.025021972
v 0.4668701 -0.67864996 0.034521483
v 0.4668701 -0.67864996 0.034521483
v 0.45786986 -0.66965 0.025021972
v 0.45786986 0.668519 0.025021972
v 0.4668701 0.67751896 0.034521483
v 0.4668701 0.67751896 0.034521483
v 0.45786986 0.668519 0.025021972
v -0.45738158 0.668519 0.025021972
v -0.46638182 0.67751896 0.034521483
vt 2.421875 0.98046875
vt 2.1464844 0.98046875
vt 2.1464844 0.99609375
vt 2.421875 0.99609375
vt 2.4160156 0.9682617
vt 2.1523438 0.9682617
vt 2.1464844 0.97216797
vt 2.421875 0.97216797
vt 2.421875 0.9682617
vt 2.1464844 0.9682617
vt 2.1523438 0.97216797
vt 2.4160156 0.97216797
vt -0.3708496 0.98046875
vt -0.76123047 0.98046875
vt -0.76123047 0.99609375
vt -0.3708496 0.99609375
vt -0.3708496 0.9682617
vt -0.76123047 0.9682617
vt -0.7558594 0.97216797
vt -0.3762207 0.97216797
vt 1.7216797 0.98046875
vt 1.4462891 0.98046875
vt 1.4462891 0.99609375
vt 1.7216797 0.99609375
vt 1.7158203 0.9682617
vt 1.4511719 0.9682617
vt 1.4462891 0.97216797
vt 1.7216797 0.97216797
vt 1.7216797 0.9682617
vt 1.4462891 0.9682617
vt 1.4511719 0.97216797
vt 1.7158203 0.97216797
vt -1.2070312 0.98046875
vt -1.5976562 0.98046875
vt -1.5976562 0.99609375
vt -1.2070312 0.99609375
vt -1.2128906 0.9682617
vt -1.5927734 0.9682617
vt -1.5976562 0.97216797
vt -1.2070312 0.97216797
vt -1.2070312 0.9682617
vt -1.5976562 0.9682617
vt -1.5927734 0.97216797
vt -1.2128906 0.97216797
vt 0.08001709 0.3046875
vt 0.17712402 0.30444336
vt 0.17712402 0.48120117
vt 0.08001709 0.48120117
vt -0.76123047 0.97216797
vt -0.3708496 0.97216797
vt -0.3762207 0.9682617
vt -0.7558594 0.9682617
vt 0.7758789 0.5258789
vt 0.8901367 0.5258789
vt 0.8901367 0.35961914
vt 0.7758789 0.35961914
vt 0.7705078 0.53125
vt 0.8901367 0.5258789
vt 0.7758789 0.5258789
vt 0.8959961 0.53125
vt 0.8901367 0.35961914
vt 0.8959961 0.35424805
vt 0.7758789 0.35961914
vt 0.7705078 0.35424805
vt 0.7758789 0.5258789
vt 0.7729492 0.5263672
vt 0.77490234 0.5253906
vt 0.77490234 0.36132812
vt 0.7729492 0.36010742
vt 0.7783203 0.35668945
vt 0.7792969 0.35839844
vt 0.89160156 0.35839844
vt 0.8925781 0.35668945
vt 0.8930664 0.3605957
vt 0.89160156 0.36157227
vt 0.89160156 0.5253906
vt 0.8930664 0.52685547
vt 0.8886719 0.5283203
vt 0.8876953 0.52685547
vt 0.7753906 0.52685547
vt 0.77441406 0.5283203
vn -2.026558E-06 1 -8.46386E-06
vn -2.5629997E-06 1 0
vn -2.5629997E-06 1 -3.5762787E-07
vn -2.026558E-06 1 -8.821487E-06
vn -0 0 1
vn -0 0.06329346 0.9980469
vn -0 0 1
vn -0 0 1
vn -0 0 -1
vn -0 0 -1
vn -0 0 -1
vn -0 0 -1
vn 1 0 0
vn 1 0 0
vn 1 0 0
vn 1 0 0
vn -0 0 -1
vn -0 0 -1
vn -0 0 -1
vn -0 0 -1
vn 8.940697E-07 -1 -1.013279E-06
vn 1.847744E-06 -1 1.3828278E-05
vn 1.847744E-06 -1 1.31726265E-05
vn 8.34465E-07 -1 -1.66893E-06
vn -0 0 1
vn -0.19482422 0 0.98095703
vn -0 0 1
vn -0 0 1
vn -0 0 -1
vn -0 0 -1
vn -0 0 -1
vn -0 0 -1
vn -1 -4.172325E-07 2.3841858E-07
vn -1 -8.34465E-07 8.821487E-06
vn -1 -8.34465E-07 8.583069E-06
vn -1 -4.172325E-07 0
vn -0 0.06329346 0.9980469
vn -0 0 1
vn -0 0 1
vn -0 0 1
vn -0 0 -1
vn -0 0 -1
vn -0 0 -1
vn -0 0 -1
vn -0 0 -1
vn -0 0 -1
vn -0 0 -1
vn -0 0 -1
vn -0 0 1
vn -0.09069824 0 0.99609375
vn -0 0 1
vn -0 0 1
vn -0 0 1
vn -0 0 1
vn -0 0 1
vn -0 0.0044441223 1
vn -0 0 1
vn -0 0 1
vn -0.09069824 0 0.99609375
vn -0 0 1
vn -0 0 1
vn -0 0 1
vn -0 0 1
vn -0 0 1
vn -0 0 1
vn 0.7260742 0 0.6879883
vn 0.7260742 0 0.6879883
vn 0.7260742 0 0.6879883
vn 0.7260742 0 0.6879883
vn -0 0.06329346 0.9980469
vn -0 0.7260742 0.6879883
vn -0 0.7260742 0.6879883
vn -0 0.0044441223 1
vn -0.19482422 0 0.98095703
vn -0.7260742 0 0.6879883
vn -0.7260742 0 0.6879883
vn -0.09069824 0 0.99609375
vn -0 -0.7260742 0.6879883
vn -0 -0.7260742 0.6879883
vn -0 -0.7260742 0.6879883
vn -0 -0.7260742 0.6879883
g Common_Prop_Billboard_70_0
f 3/3/3 2/2/2 1/1/1
f 4/4/4 3/3/3 1/1/1
f 7/7/7 6/6/6 5/5/5
f 8/8/8 7/7/7 5/5/5
f 11/11/11 10/10/10 9/9/9
f 12/12/12 11/11/11 9/9/9
f 15/15/15 14/14/14 13/13/13
f 16/16/16 15/15/15 13/13/13
f 19/19/19 18/18/18 17/17/17
f 20/20/20 19/19/19 17/17/17
f 23/23/23 22/22/22 21/21/21
f 24/24/24 23/23/23 21/21/21
f 27/27/27 26/26/26 25/25/25
f 28/28/28 27/27/27 25/25/25
f 31/31/31 30/30/30 29/29/29
f 32/32/32 31/31/31 29/29/29
f 35/35/35 34/34/34 33/33/33
f 36/36/36 35/35/35 33/33/33
f 39/39/39 38/38/38 37/37/37
f 40/40/40 39/39/39 37/37/37
f 43/43/43 42/42/42 41/41/41
f 44/44/44 43/43/43 41/41/41
f 47/47/47 46/46/46 45/45/45
f 48/48/48 47/47/47 45/45/45
f 51/51/51 50/50/50 49/49/49
f 52/52/52 51/51/51 49/49/49
f 55/55/55 54/54/54 53/53/53
f 56/56/56 55/55/55 53/53/53
f 59/59/59 58/58/58 57/57/57
f 58/58/58 60/60/60 57/57/57
f 58/58/58 61/61/61 60/60/60
f 61/61/61 62/62/62 60/60/60
f 61/61/61 63/63/63 62/62/62
f 63/63/63 64/64/64 62/62/62
f 65/65/65 57/57/57 64/64/64
f 63/63/63 65/65/65 64/64/64
f 68/68/68 67/67/67 66/66/66
f 69/69/69 68/68/68 66/66/66
f 72/72/72 71/71/71 70/70/70
f 73/73/73 72/72/72 70/70/70
f 76/76/76 75/75/75 74/74/74
f 77/77/77 76/76/76 74/74/74
f 80/80/80 79/79/79 78/78/78
f 81/81/81 80/80/80 78/78/78
