g Common_Prop_Ether_06
v 0.026488647 1.7854267 0.087145686
v -0.10006286 1.7252312 0.087150574
v -0.10045135 1.7245412 -0.034917906
v 0.08198639 1.8114839 0.004777527
v -0.037040405 1.7544868 -0.08714996
v 0.05592468 1.7987068 -0.0871463
v -0.037040405 1.7544868 -0.08714996
v 0.100451045 1.7456099 -0.08714813
v 0.05592468 1.7987068 -0.0871463
v -0.10039672 0.9881925 -0.08714813
v -0.10045135 1.7245412 -0.034917906
v 0.100451045 -3.0517577E-07 -0.08714813
v -0.10039672 -3.0517577E-07 -0.08714813
v -0.10006286 1.7252312 0.087150574
v -0.10039672 -3.0517577E-07 0.08714874
v 0.100451045 1.646587 0.08714874
v 0.100451045 -3.0517577E-07 0.08714874
v 0.100451045 -3.0517577E-07 -0.08714813
v 0.026488647 1.7854267 0.087145686
v 0.100451045 1.7456099 -0.08714813
v 0.100451045 1.7857051 0.0011703491
v 0.08198639 1.8114839 0.004777527
v 0.05592468 1.7987068 -0.0871463
v -0.10039672 -3.0517577E-07 -0.08714813
v -0.10039672 -3.0517577E-07 0.08714874
v 0.100451045 -3.0517577E-07 0.08714874
v 0.100451045 -3.0517577E-07 -0.08714813
vt 0.80566406 0.9819336
vt 0.80615234 0.9589844
vt 0.78271484 0.9589844
vt 0.79052734 0.9921875
vt 0.7739258 0.97021484
vt 0.7739258 0.9873047
vt 0.7675781 0.95458984
vt 0.7451172 0.953125
vt 0.7524414 0.96191406
vt 0.7783203 0.82958984
vt 0.78271484 0.94970703
vt 0.7451172 0.66796875
vt 0.7783203 0.66796875
vt 0.80615234 0.94970703
vt 0.80615234 0.66796875
vt 0.83935547 0.9370117
vt 0.83935547 0.66796875
vt 0.8676758 0.66796875
vt 0.82714844 0.95947266
vt 0.8676758 0.953125
vt 0.8496094 0.9614258
vt 0.84765625 0.96533203
vt 0.8676758 0.96191406
vt 0.8066406 0.7011719
vt 0.8066406 0.72998047
vt 0.83935547 0.72998047
vt 0.83935547 0.7011719
vn -0.42944336 0.90283203 -0.0037384033
vn -0.42944336 0.90283203 -0.0037384033
vn -0.42944336 0.90283203 -0.0037384033
vn -0.42944336 0.90283203 -0.0037384033
vn -0.42944336 0.90283203 -0.0037403107
vn -0.42944336 0.90283203 -0.0037384033
vn -0.24511719 0.02027893 -0.9692383
vn 0.70947266 0.18737793 -0.6796875
vn 0.41552734 0.34228516 -0.84277344
vn -0.70751953 0.0014238358 -0.70654297
vn -0.8959961 0.031341553 -0.4428711
vn 0.70703125 0 -0.70703125
vn -0.70703125 0 -0.70703125
vn -0.61279297 -0.00012862682 0.79052734
vn -0.70703125 1.513958E-05 0.70703125
vn 0.70654297 0.061645508 0.7050781
vn 0.70703125 0 0.70703125
vn 0.70703125 0 -0.70703125
vn 0.3815918 0.2076416 0.9008789
vn 0.70947266 0.18737793 -0.6796875
vn 0.9067383 0.39575195 0.14501953
vn 0.80859375 0.55029297 0.20739746
vn 0.41552734 0.34228516 -0.84277344
vn -0 -1 0
vn -0 -1 0
vn -0 -1 0
vn -0 -1 0
g Common_Prop_Ether_06_0
f 3/3/3 2/2/2 1/1/1
f 4/4/4 3/3/3 1/1/1
f 5/5/5 3/3/3 4/4/4
f 6/6/6 5/5/5 4/4/4
f 9/9/9 8/8/8 7/7/7
f 8/8/8 10/10/10 7/7/7
f 11/11/11 7/7/7 10/10/10
f 10/10/10 8/8/8 12/12/12
f 13/13/13 10/10/10 12/12/12
f 11/11/11 10/10/10 14/14/14
f 10/10/10 13/13/13 15/15/15
f 14/14/14 10/10/10 15/15/15
f 16/16/16 14/14/14 15/15/15
f 17/17/17 16/16/16 15/15/15
f 16/16/16 17/17/17 18/18/18
f 19/19/19 14/14/14 16/16/16
f 20/20/20 16/16/16 18/18/18
f 21/21/21 19/19/19 16/16/16
f 21/21/21 16/16/16 20/20/20
f 22/22/22 19/19/19 21/21/21
f 21/21/21 20/20/20 23/23/23
f 22/22/22 21/21/21 23/23/23
f 26/26/26 25/25/25 24/24/24
f 27/27/27 26/26/26 24/24/24
