g Common_Prop_Billboard_54
v -1.861621 15.415937 0.065255925
v 1.8617675 15.415927 0.06525562
v 1.861748 0.17820795 0.065245934
v -1.861621 0.17822748 0.06524624
v 2.0400293 15.5942135 0.12993559
v 2.0400293 15.415942 0.1299361
v 1.8617675 15.415942 0.12993595
v -2.0398827 15.594194 0.12993468
v -1.8616112 15.415922 0.12993488
v -2.0398827 15.415922 0.12993488
v -2.0398827 15.594194 0.12993468
v -2.0398827 15.594194 -0.12988694
v 2.0400293 15.5942135 -0.12988572
v 2.0400293 15.5942135 0.12993559
v 2.0400293 15.415942 -0.12988582
v 2.0400293 15.5942135 -0.12988572
v 1.8617675 15.415942 -0.12988597
v -2.0398827 15.594194 -0.12988694
v -1.8616406 15.415903 -0.12988704
v -2.0398827 15.415922 -0.1298869
v -2.0399706 -5.379097E-05 0.12992583
v -2.0399706 0.17823234 0.12992625
v -1.8616992 0.17823234 0.1299264
v 1.8616699 0.17828117 0.12992747
v 2.0399413 -9.845661E-06 0.12992705
v 2.0399413 0.17828117 0.12992777
v 2.0399413 -9.845661E-06 0.12992705
v 2.0399413 -9.685609E-06 -0.1298944
v -2.0399706 -5.3630924E-05 -0.12989563
v -2.0399706 -5.379097E-05 0.12992583
v -1.8616406 15.415903 -0.12988704
v -1.8616112 15.415922 0.12993488
v 1.8617675 15.415942 0.12993595
v 1.8617675 15.415942 -0.12988597
v 1.8616699 0.17828132 -0.12989445
v 1.8616699 0.17828117 0.12992747
v -1.8616992 0.17823234 0.1299264
v -1.8616992 0.17823249 -0.12989537
v 1.8616699 0.17828132 -0.12989445
v 2.0399413 -9.685609E-06 -0.1298944
v 2.0399413 0.17828132 -0.1298943
v -2.0399706 -5.3630924E-05 -0.12989563
v -1.8616992 0.17823249 -0.12989537
v -2.0399706 0.17823738 -0.12989552
v -2.0398827 15.594194 0.12993468
v -2.0398827 15.415922 -0.1298869
v -2.0398827 15.594194 -0.12988694
v -2.0398827 15.415922 0.12993488
v -2.0399706 0.17823234 0.12992625
v -2.0399706 0.17823738 -0.12989552
v -2.0399706 -5.3630924E-05 -0.12989563
v -2.0399706 -5.379097E-05 0.12992583
v -1.8616992 0.17823249 -0.12989537
v -1.8616992 0.17823234 0.1299264
v -1.8616112 15.415922 0.12993488
v -1.8616406 15.415903 -0.12988704
v 2.0399413 -9.845661E-06 0.12992705
v 2.0399413 0.17828132 -0.1298943
v 2.0399413 -9.685609E-06 -0.1298944
v 2.0399413 0.17828117 0.12992777
v 2.0400293 15.415942 0.1299361
v 2.0400293 15.415942 -0.12988582
v 2.0400293 15.5942135 -0.12988572
v 2.0400293 15.5942135 0.12993559
v 1.8617675 15.415942 -0.12988597
v 1.8617675 15.415942 0.12993595
v 1.8616699 0.17828117 0.12992747
v 1.8616699 0.17828132 -0.12989445
v 1.8616699 0.17828117 0.12992747
v 1.8617675 15.415942 0.12993595
v 2.0400293 15.415942 0.1299361
v 2.0399413 0.17828117 0.12992777
v 2.0400293 15.415942 -0.12988582
v 1.8617675 15.415942 -0.12988597
v 1.8616699 0.17828132 -0.12989445
v 2.0399413 0.17828132 -0.1298943
v -1.8616112 15.415922 0.12993488
v -1.8616992 0.17823234 0.1299264
v -2.0399706 0.17823234 0.12992625
v -2.0398827 15.415922 0.12993488
v -2.0398827 15.415922 -0.1298869
v -2.0399706 0.17823738 -0.12989552
v -1.8616992 0.17823249 -0.12989537
v -1.8616406 15.415903 -0.12988704
v 1.8617284 15.415952 -0.067466244
v -1.8616503 15.415937 -0.06746548
v -1.8616503 0.17821294 -0.06747455
v 1.8617284 0.17824224 -0.06747516
v -2.038202 5.603357 -0.097325906
v -2.0382016 5.6033573 0.097346276
v -2.5695162 5.603361 0.09734872
v -2.5695097 5.6033554 -0.09732362
v -2.0382013 5.469781 0.09734669
v -2.0382094 5.469784 -0.09732564
v -2.5695171 5.469786 -0.097323805
v -2.56952 5.4697866 0.09734883
v -2.5695162 5.603361 0.09734872
v -2.0382016 5.6033573 0.097346276
v -2.0382013 5.469781 0.09734669
v -2.56952 5.4697866 0.09734883
v -2.5695171 5.469786 -0.097323805
v -2.0382094 5.469784 -0.09732564
v -2.038202 5.603357 -0.097325906
v -2.5695097 5.6033554 -0.09732362
v -2.0382118 1.0822868 -0.09732364
v -2.0382113 1.0822868 0.097348385
v -2.569526 1.0822899 0.097350515
v -2.5695193 1.0822868 -0.097321354
v -2.0382113 0.9487102 0.097348176
v -2.0382192 0.9487139 -0.09732386
v -2.5695267 0.94871753 -0.09732156
v -2.5695298 0.94871753 0.09735061
v -2.569526 1.0822899 0.097350515
v -2.0382113 1.0822868 0.097348385
v -2.0382113 0.9487102 0.097348176
v -2.5695298 0.94871753 0.09735061
v -2.5695267 0.94871753 -0.09732156
v -2.0382192 0.9487139 -0.09732386
v -2.0382118 1.0822868 -0.09732364
v -2.5695193 1.0822868 -0.097321354
v -2.5695171 5.469786 -0.097323805
v -2.5695097 5.6033554 -0.09732362
v -2.5695162 5.603361 0.09734872
v -2.56952 5.4697866 0.09734883
v -2.5695267 0.94871753 -0.09732156
v -2.5695193 1.0822868 -0.097321354
v -2.569526 1.0822899 0.097350515
v -2.5695298 0.94871753 0.09735061
v -2.0382118 10.124435 -0.09732387
v -2.0382113 10.124436 0.09734815
v -2.569526 10.124439 0.09735029
v -2.5695193 10.124435 -0.097321585
v -2.0382113 9.99086 0.09734811
v -2.0382192 9.990862 -0.09732346
v -2.5695267 9.990866 -0.097321324
v -2.5695298 9.990867 0.097350545
v -2.569526 10.124439 0.09735029
v -2.0382113 10.124436 0.09734815
v -2.0382113 9.99086 0.09734811
v -2.5695298 9.990867 0.097350545
v -2.5695267 9.990866 -0.097321324
v -2.0382192 9.990862 -0.09732346
v -2.0382118 10.124435 -0.09732387
v -2.5695193 10.124435 -0.097321585
v -2.5695267 9.990866 -0.097321324
v -2.5695193 10.124435 -0.097321585
v -2.569526 10.124439 0.09735029
v -2.5695298 9.990867 0.097350545
v -2.038202 14.645503 -0.09732597
v -2.0382016 14.645503 0.09734621
v -2.5695162 14.645506 0.09734865
v -2.5695097 14.645501 -0.097323835
v -2.0382013 14.511926 0.097346306
v -2.0382094 14.5119295 -0.09732588
v -2.5695171 14.511932 -0.09732404
v -2.56952 14.511932 0.09734844
v -2.5695162 14.645506 0.09734865
v -2.0382016 14.645503 0.09734621
v -2.0382013 14.511926 0.097346306
v -2.56952 14.511932 0.09734844
v -2.5695171 14.511932 -0.09732404
v -2.0382094 14.5119295 -0.09732588
v -2.038202 14.645503 -0.09732597
v -2.5695097 14.645501 -0.097323835
v -2.5695171 14.511932 -0.09732404
v -2.5695097 14.645501 -0.097323835
v -2.5695162 14.645506 0.09734865
v -2.56952 14.511932 0.09734844
vt 0.83496094 0.6538086
vt 0.9926758 0.6538086
vt 0.9926758 0.008277893
vt 0.83496094 0.008277893
vt 1.1923828 0.96777344
vt 1.1923828 0.95410156
vt 1.1787109 0.95410156
vt 0.88134766 0.96777344
vt 0.89501953 0.95410156
vt 0.88134766 0.95410156
vt 0.88134766 0.97558594
vt 0.88134766 0.9951172
vt 1.1923828 0.9951172
vt 1.1923828 0.97558594
vt 1.1923828 0.96777344
vt 1.1923828 0.95410156
vt 1.1787109 0.96777344
vt 0.88134766 0.95410156
vt 0.89501953 0.96728516
vt 0.88134766 0.96728516
vt 1.6005859 0.96777344
vt 1.6005859 0.95410156
vt 1.5869141 0.95410156
vt 1.2998047 0.95410156
vt 1.2861328 0.96777344
vt 1.2861328 0.95410156
vt 1.2861328 0.97558594
vt 1.2861328 0.9951172
vt 1.6005859 0.9951172
vt 1.6005859 0.97558594
vt 0.89501953 0.97558594
vt 0.89501953 0.9951172
vt 1.1787109 0.9951172
vt 1.1787109 0.97558594
vt 1.2998047 0.97558594
vt 1.2998047 0.9951172
vt 1.5869141 0.9951172
vt 1.5869141 0.97558594
vt 1.2998047 0.96777344
vt 1.2861328 0.95410156
vt 1.2861328 0.96777344
vt 1.6005859 0.95410156
vt 1.5869141 0.96777344
vt 1.6005859 0.96777344
vt 0.55615234 0.97558594
vt 0.54248047 0.9951172
vt 0.55615234 0.9951172
vt 0.54248047 0.97558594
vt -0.63671875 0.97558594
vt -0.63671875 0.9951172
vt -0.6508789 0.9951172
vt -0.6508789 0.97558594
vt -0.63671875 0.97558594
vt -0.63671875 0.9951172
vt 0.54248047 0.9951172
vt 0.54248047 0.97558594
vt 2.9453125 0.97558594
vt 2.9316406 0.9951172
vt 2.9453125 0.9951172
vt 2.9316406 0.97558594
vt 1.7480469 0.97558594
vt 1.7480469 0.9951172
vt 1.734375 0.9951172
vt 1.734375 0.97558594
vt 1.7480469 0.97558594
vt 1.7480469 0.9951172
vt 2.9316406 0.9951172
vt 2.9316406 0.97558594
vt 2.9316406 0.95410156
vt 1.7480469 0.95410156
vt 1.7480469 0.96777344
vt 2.9316406 0.96777344
vt 1.7480469 0.95410156
vt 1.7480469 0.96777344
vt 2.9316406 0.96777344
vt 2.9316406 0.95410156
vt 0.54248047 0.95410156
vt -0.63671875 0.95410156
vt -0.63671875 0.96777344
vt 0.54248047 0.96777344
vt 0.54248047 0.95410156
vt -0.63671875 0.95410156
vt -0.63671875 0.96777344
vt 0.54248047 0.96777344
vt 0.83496094 0.6538086
vt 0.9926758 0.6538086
vt 0.9926758 0.008277893
vt 0.83496094 0.008277893
vt -0.07562256 0.97558594
vt -0.07562256 0.9951172
vt -0.0234375 0.9951172
vt -0.0234375 0.97558594
vt -0.07562256 0.97558594
vt -0.07562256 0.9951172
vt -0.0234375 0.9951172
vt -0.0234375 0.97558594
vt -0.023635864 0.95410156
vt -0.07562256 0.95410156
vt -0.07562256 0.96777344
vt -0.023635864 0.96777344
vt -0.023635864 0.95410156
vt -0.07562256 0.95410156
vt -0.07562256 0.96777344
vt -0.023635864 0.96777344
vt -0.07562256 0.97558594
vt -0.07562256 0.9951172
vt -0.0234375 0.9951172
vt -0.0234375 0.97558594
vt -0.07562256 0.97558594
vt -0.07562256 0.9951172
vt -0.0234375 0.9951172
vt -0.0234375 0.97558594
vt -0.023635864 0.95410156
vt -0.07562256 0.95410156
vt -0.07562256 0.96777344
vt -0.023635864 0.96777344
vt -0.023635864 0.95410156
vt -0.07562256 0.95410156
vt -0.07562256 0.96777344
vt -0.023635864 0.96777344
vt -0.015960693 0.9770508
vt -0.015960693 0.99365234
vt 0.009269714 0.99365234
vt 0.009269714 0.9770508
vt 0.010391235 0.9770508
vt 0.010391235 0.99365234
vt 0.035614014 0.99365234
vt 0.035614014 0.9770508
vt -0.07562256 0.97558594
vt -0.07562256 0.9951172
vt -0.0234375 0.9951172
vt -0.0234375 0.97558594
vt -0.07562256 0.97558594
vt -0.07562256 0.9951172
vt -0.0234375 0.9951172
vt -0.0234375 0.97558594
vt -0.023635864 0.95410156
vt -0.07562256 0.95410156
vt -0.07562256 0.96777344
vt -0.023635864 0.96777344
vt -0.023635864 0.95410156
vt -0.07562256 0.95410156
vt -0.07562256 0.96777344
vt -0.023635864 0.96777344
vt 0.010391235 0.9770508
vt 0.010391235 0.99365234
vt 0.035614014 0.99365234
vt 0.035614014 0.9770508
vt -0.07562256 0.97558594
vt -0.07562256 0.9951172
vt -0.0234375 0.9951172
vt -0.0234375 0.97558594
vt -0.07562256 0.97558594
vt -0.07562256 0.9951172
vt -0.0234375 0.9951172
vt -0.0234375 0.97558594
vt -0.023635864 0.95410156
vt -0.07562256 0.95410156
vt -0.07562256 0.96777344
vt -0.023635864 0.96777344
vt -0.023635864 0.95410156
vt -0.07562256 0.95410156
vt -0.07562256 0.96777344
vt -0.023635864 0.96777344
vt -0.015960693 0.9770508
vt -0.015960693 0.99365234
vt 0.009269714 0.99365234
vt 0.009269714 0.9770508
vn -0 -6.556511E-07 1
vn -0 -6.556511E-07 1
vn -0 -6.556511E-07 1
vn -0 -6.556511E-07 1
vn -2.3841858E-07 2.2053719E-06 1
vn -8.34465E-07 -5.364418E-07 1
vn -6.556511E-07 2.3841858E-07 1
vn -2.9802322E-07 9.536743E-07 1
vn -0 -1.7881393E-07 1
vn -0 -5.364418E-07 1
vn -4.7683716E-06 1 2.3841858E-07
vn -4.7683716E-06 1 2.3841858E-07
vn -4.7683716E-06 1 2.3841858E-07
vn -4.7683716E-06 1 2.3841858E-07
vn 8.34465E-07 5.364418E-07 -1
vn 2.9802322E-07 1.1324883E-06 -1
vn 7.1525574E-07 7.1525574E-07 -1
vn 2.3841858E-07 8.34465E-07 -1
vn -5.364418E-07 6.556511E-07 -1
vn -8.34465E-07 5.364418E-07 -1
vn -2.9802322E-07 -2.8014183E-06 1
vn -8.34465E-07 -5.9604645E-07 1
vn -7.1525574E-07 -1.1920929E-06 1
vn -1.3113022E-06 -1.1324883E-06 1
vn -3.5762787E-07 -2.682209E-06 1
vn -1.7285347E-06 -5.9604645E-07 1
vn 1.0788441E-05 -1 -5.9604645E-07
vn 1.0788441E-05 -1 -5.9604645E-07
vn 1.0788441E-05 -1 -5.9604645E-07
vn 1.0788441E-05 -1 -5.9604645E-07
vn 5.4836273E-06 -1 7.158518E-05
vn 5.2452087E-06 -1 7.492304E-05
vn 1.0251999E-05 -1 3.0398369E-06
vn 1.04904175E-05 -1 -2.3841858E-07
vn -1.3113022E-05 1 5.364418E-07
vn -1.3113022E-05 1 5.364418E-07
vn -1.3113022E-05 1 5.364418E-07
vn -1.3113022E-05 1 5.364418E-07
vn 7.1525574E-07 4.172325E-07 -1
vn 2.9802322E-07 0 -1
vn 8.34465E-07 5.364418E-07 -1
vn 2.9802322E-07 1.0728836E-06 -1
vn 6.556511E-07 7.1525574E-07 -1
vn 8.34465E-07 5.9604645E-07 -1
vn -1 0 0
vn -1 5.722046E-06 0
vn -1 0 0
vn -1 5.722046E-06 0
vn -1 5.722046E-06 0
vn -1 5.722046E-06 0
vn -1 0 0
vn -1 0 0
vn 1 -5.722046E-06 -1.2516975E-06
vn 1 -5.7816505E-06 0
vn 1 -3.874302E-06 -0.00011152029
vn 1 -3.874302E-06 -0.00011277199
vn 1 0 0
vn 1 -5.722046E-06 0
vn 1 0 0
vn 1 -5.722046E-06 0
vn 1 -5.722046E-06 0
vn 1 -5.722046E-06 0
vn 1 0 0
vn 1 0 0
vn -1 6.4373016E-06 0
vn -1 6.4373016E-06 0
vn -1 6.4373016E-06 0
vn -1 6.4373016E-06 0
vn -1.3113022E-06 -1.1324883E-06 1
vn -6.556511E-07 2.3841858E-07 1
vn -8.34465E-07 -5.364418E-07 1
vn -1.7285347E-06 -5.9604645E-07 1
vn 8.34465E-07 5.364418E-07 -1
vn 7.1525574E-07 7.1525574E-07 -1
vn 7.1525574E-07 4.172325E-07 -1
vn 8.34465E-07 5.364418E-07 -1
vn -0 -1.7881393E-07 1
vn -7.1525574E-07 -1.1920929E-06 1
vn -8.34465E-07 -5.9604645E-07 1
vn -0 -5.364418E-07 1
vn -8.34465E-07 5.364418E-07 -1
vn 8.34465E-07 5.9604645E-07 -1
vn 6.556511E-07 7.1525574E-07 -1
vn -5.364418E-07 6.556511E-07 -1
vn -1.7881393E-07 5.9604645E-07 -1
vn -1.7881393E-07 5.9604645E-07 -1
vn -1.7881393E-07 5.9604645E-07 -1
vn -1.7881393E-07 5.9604645E-07 -1
vn 4.827976E-06 1 -8.46386E-06
vn 6.914139E-06 1 -2.861023E-06
vn -2.3841858E-07 1 -2.2351742E-05
vn -2.3245811E-06 1 -2.7954578E-05
vn -6.1392784E-06 -1 -1.1742115E-05
vn -4.5895576E-06 -1 -1.591444E-05
vn -9.953976E-06 -1 -1.3113022E-06
vn -1.1503696E-05 -1 2.861023E-06
vn 4.1127205E-06 1.1920929E-06 1
vn 4.5895576E-06 3.0994415E-06 1
vn 4.529953E-06 2.7418137E-06 1
vn 3.993511E-06 7.748604E-07 1
vn -4.172325E-06 9.536743E-07 -1
vn -3.4570694E-06 -1.9669533E-06 -1
vn -3.5762787E-06 -1.4305115E-06 -1
vn -4.2915344E-06 1.4901161E-06 -1
vn 4.4703484E-06 1 -3.2186508E-06
vn 5.722046E-06 1 2.3841858E-07
vn 1.3113022E-06 1 -1.1920929E-05
vn -0 1 -1.5437603E-05
vn -8.404255E-06 -1 -1.4901161E-05
vn -6.914139E-06 -1 -1.9073486E-05
vn -1.2218952E-05 -1 -4.4703484E-06
vn -1.3768673E-05 -1 -2.3841858E-07
vn 4.529953E-06 3.5762787E-07 1
vn 3.993511E-06 -1.5497208E-06 1
vn 4.1127205E-06 -1.1920929E-06 1
vn 4.5895576E-06 7.1525574E-07 1
vn -4.2915344E-06 1.5497208E-06 -1
vn -4.2915344E-06 1.5497208E-06 -1
vn -4.2915344E-06 1.5497208E-06 -1
vn -4.2915344E-06 1.5497208E-06 -1
vn -1 2.7418137E-05 -1.4126301E-05
vn -1 5.4836273E-05 -3.2901764E-05
vn -1 2.7418137E-05 -1.4126301E-05
vn -1 2.7418137E-05 -1.4126301E-05
vn -1 2.7418137E-05 -1.5676022E-05
vn -1 5.4836273E-05 -3.451109E-05
vn -1 2.7418137E-05 -1.5676022E-05
vn -1 2.7418137E-05 -1.5676022E-05
vn 3.5762787E-06 1 -5.6624413E-06
vn 4.5895576E-06 1 -2.861023E-06
vn 1.013279E-06 1 -1.257658E-05
vn -0 1 -1.5437603E-05
vn -8.404255E-06 -1 -5.4836273E-06
vn -6.914139E-06 -1 -9.655952E-06
vn -1.2218952E-05 -1 4.9471855E-06
vn -1.3768673E-05 -1 9.119511E-06
vn 4.529953E-06 1.6093254E-06 1
vn 3.993511E-06 -3.5762787E-07 1
vn 4.1127205E-06 0 1
vn 4.5895576E-06 1.9669533E-06 1
vn -4.2915344E-06 -2.1457672E-06 -1
vn -3.993511E-06 -3.0994415E-06 -1
vn -4.053116E-06 -2.9206276E-06 -1
vn -4.2915344E-06 -1.9669533E-06 -1
vn -1 2.7418137E-05 -1.5676022E-05
vn -1 5.4836273E-05 -3.451109E-05
vn -1 2.7418137E-05 -1.5676022E-05
vn -1 2.7418137E-05 -1.5676022E-05
vn 4.827976E-06 1 -5.364418E-06
vn 6.914139E-06 1 2.3841858E-07
vn -2.3841858E-07 1 -1.9192696E-05
vn -2.3245811E-06 1 -2.4795532E-05
vn -6.1392784E-06 -1 -1.4901161E-05
vn -4.5895576E-06 -1 -1.9073486E-05
vn -9.953976E-06 -1 -4.4703484E-06
vn -1.1503696E-05 -1 -2.3841858E-07
vn 4.1127205E-06 -1.1920929E-06 1
vn 4.5895576E-06 7.1525574E-07 1
vn 4.529953E-06 3.5762787E-07 1
vn 3.993511E-06 -1.5497208E-06 1
vn -3.9339066E-06 1.1920929E-06 -1
vn -3.4570694E-06 -7.1525574E-07 -1
vn -3.516674E-06 -3.5762787E-07 -1
vn -3.993511E-06 1.5497208E-06 -1
vn -1 2.7418137E-05 -1.4126301E-05
vn -1 5.4836273E-05 -3.2901764E-05
vn -1 2.7418137E-05 -1.4126301E-05
vn -1 2.7418137E-05 -1.4126301E-05
g Common_Prop_Billboard_54_0
f 3/3/3 2/2/2 1/1/1
f 4/4/4 3/3/3 1/1/1
f 7/7/7 6/6/6 5/5/5
f 5/5/5 8/8/8 7/7/7
f 8/8/8 9/9/9 7/7/7
f 10/10/10 9/9/9 8/8/8
f 13/13/13 12/12/12 11/11/11
f 14/14/14 13/13/13 11/11/11
f 17/17/17 16/16/16 15/15/15
f 16/16/16 17/17/17 18/18/18
f 17/17/17 19/19/19 18/18/18
f 20/20/20 18/18/18 19/19/19
f 23/23/23 22/22/22 21/21/21
f 23/23/23 21/21/21 24/24/24
f 21/21/21 25/25/25 24/24/24
f 26/26/26 24/24/24 25/25/25
f 29/29/29 28/28/28 27/27/27
f 30/30/30 29/29/29 27/27/27
f 33/33/33 32/32/32 31/31/31
f 34/34/34 33/33/33 31/31/31
f 37/37/37 36/36/36 35/35/35
f 38/38/38 37/37/37 35/35/35
f 41/41/41 40/40/40 39/39/39
f 39/39/39 40/40/40 42/42/42
f 43/43/43 39/39/39 42/42/42
f 42/42/42 44/44/44 43/43/43
f 47/47/47 46/46/46 45/45/45
f 46/46/46 48/48/48 45/45/45
f 48/48/48 46/46/46 49/49/49
f 46/46/46 50/50/50 49/49/49
f 50/50/50 51/51/51 49/49/49
f 51/51/51 52/52/52 49/49/49
f 55/55/55 54/54/54 53/53/53
f 56/56/56 55/55/55 53/53/53
f 59/59/59 58/58/58 57/57/57
f 58/58/58 60/60/60 57/57/57
f 60/60/60 58/58/58 61/61/61
f 58/58/58 62/62/62 61/61/61
f 62/62/62 63/63/63 61/61/61
f 63/63/63 64/64/64 61/61/61
f 67/67/67 66/66/66 65/65/65
f 68/68/68 67/67/67 65/65/65
f 71/71/71 70/70/70 69/69/69
f 72/72/72 71/71/71 69/69/69
f 75/75/75 74/74/74 73/73/73
f 76/76/76 75/75/75 73/73/73
f 79/79/79 78/78/78 77/77/77
f 80/80/80 79/79/79 77/77/77
f 83/83/83 82/82/82 81/81/81
f 84/84/84 83/83/83 81/81/81
f 87/87/87 86/86/86 85/85/85
f 88/88/88 87/87/87 85/85/85
f 91/91/91 90/90/90 89/89/89
f 92/92/92 91/91/91 89/89/89
f 95/95/95 94/94/94 93/93/93
f 96/96/96 95/95/95 93/93/93
f 99/99/99 98/98/98 97/97/97
f 100/100/100 99/99/99 97/97/97
f 103/103/103 102/102/102 101/101/101
f 104/104/104 103/103/103 101/101/101
f 107/107/107 106/106/106 105/105/105
f 108/108/108 107/107/107 105/105/105
f 111/111/111 110/110/110 109/109/109
f 112/112/112 111/111/111 109/109/109
f 115/115/115 114/114/114 113/113/113
f 116/116/116 115/115/115 113/113/113
f 119/119/119 118/118/118 117/117/117
f 120/120/120 119/119/119 117/117/117
f 123/123/123 122/122/122 121/121/121
f 124/124/124 123/123/123 121/121/121
f 127/127/127 126/126/126 125/125/125
f 128/128/128 127/127/127 125/125/125
f 131/131/131 130/130/130 129/129/129
f 132/132/132 131/131/131 129/129/129
f 135/135/135 134/134/134 133/133/133
f 136/136/136 135/135/135 133/133/133
f 139/139/139 138/138/138 137/137/137
f 140/140/140 139/139/139 137/137/137
f 143/143/143 142/142/142 141/141/141
f 144/144/144 143/143/143 141/141/141
f 147/147/147 146/146/146 145/145/145
f 148/148/148 147/147/147 145/145/145
f 151/151/151 150/150/150 149/149/149
f 152/152/152 151/151/151 149/149/149
f 155/155/155 154/154/154 153/153/153
f 156/156/156 155/155/155 153/153/153
f 159/159/159 158/158/158 157/157/157
f 160/160/160 159/159/159 157/157/157
f 163/163/163 162/162/162 161/161/161
f 164/164/164 163/163/163 161/161/161
f 167/167/167 166/166/166 165/165/165
f 168/168/168 167/167/167 165/165/165
