g Common_Prop_Carton_06
v 0.3044195 -2.1892795E-07 -0.21316375
v -0.27911997 -2.1892795E-07 -0.21316375
v -0.27911997 -2.1892795E-07 0.19680084
v 0.3044195 -2.1892795E-07 0.19680084
v -0.27612543 0.0062961993 0.20206115
v -0.2818724 0.0062961993 0.19492736
v -0.28187442 0.0062961993 -0.21122131
v -0.27753103 0.0062961993 -0.21569702
v 0.30146712 0.0062961993 0.20206115
v 0.30283055 0.0062961993 -0.21569702
v 0.30692112 0.0062961993 -0.21160491
v 0.30692112 0.0062961993 0.195242
v 0.3044195 0.43546245 0.20453583
v 0.30146712 0.44341177 0.20206085
v 0.30692112 0.44341177 0.195242
v 0.3104238 0.43546176 0.19680084
v -0.28512436 0.435462 0.19680084
v -0.2818724 0.44341177 0.19492736
v -0.27612543 0.44341177 0.20206085
v -0.27900532 0.43546245 0.20453583
v 0.3044195 0.43546286 -0.21916808
v 0.3104238 0.43546176 -0.21316375
v 0.30692112 0.44341177 -0.21160491
v 0.30283055 0.44341177 -0.21569702
v -0.28512436 0.435462 -0.21316375
v -0.27911997 0.43546286 -0.21916808
v -0.27753103 0.44341177 -0.21569702
v -0.28187442 0.44341177 -0.21122131
v 0.3454165 0.25733277 -0.21316223
v 0.3400451 0.2568484 -0.21316375
v 0.3400451 0.24695246 0.19680084
v 0.34542084 0.2473934 0.19681092
v 0.3044195 0.21908739 -0.26690215
v 0.3044195 0.21984996 -0.2712503
v -0.27911997 0.21984996 -0.2712503
v -0.27911997 0.21908739 -0.26690215
v 0.32060546 0.4406007 0.19680084
v 0.3104238 0.43546176 0.19680084
v 0.30692112 0.44341177 0.195242
v 0.31652176 0.43428004 0.19680084
v 0.34542084 0.2473934 0.19681092
v 0.3400451 0.24695246 0.19680084
v 0.3044195 0.43546286 -0.21916808
v -0.27911997 0.43755683 -0.22420715
v -0.27911997 0.43546286 -0.21916808
v 0.3044195 0.43755683 -0.22420715
v -0.27911997 0.4338048 -0.22924621
v 0.3044195 0.4338048 -0.22924621
v -0.27911997 0.21908739 -0.26690215
v 0.3044195 0.21908739 -0.26690215
v 0.34542084 0.2473934 0.19681092
v 0.32060546 0.4406007 -0.21316375
v 0.3454165 0.25733277 -0.21316223
v 0.32060546 0.4406007 0.19680084
v 0.30692112 0.44341177 0.195242
v 0.30692112 0.44341177 -0.21160491
v 0.3044195 0.4374344 -0.23235138
v -0.27911997 0.21984996 -0.2712503
v 0.3044195 0.21984996 -0.2712503
v -0.27911997 0.4374344 -0.23235138
v -0.2783255 0.44333246 -0.22402436
v 0.30362502 0.44333246 -0.22402436
v -0.27753103 0.44341177 -0.21569702
v 0.30283055 0.44341177 -0.21569702
v -0.32897007 0.24950743 0.19714111
v -0.32897007 0.24677484 -0.21052307
v -0.29614943 0.4383089 -0.21288422
v -0.2959235 0.43936783 0.19685943
v -0.2818724 0.44341177 0.19492736
v -0.28187442 0.44341177 -0.21122131
v -0.27821353 0.2206917 0.25404388
v 0.30262455 0.44145435 0.2125946
v 0.30445212 0.2206917 0.25404388
v -0.27888542 0.44145435 0.2125946
v -0.27612543 0.44341177 0.20206085
v 0.30146712 0.44341177 0.20206085
v 0.3400451 0.2568484 -0.21316375
v 0.31652176 0.43428004 0.19680084
v 0.3400451 0.24695246 0.19680084
v 0.31652176 0.43428004 -0.21316375
v 0.3104238 0.43546176 0.19680084
v 0.3104238 0.43546176 -0.21316375
v -0.2923654 0.43330768 0.19680084
v -0.29247347 0.4324179 -0.21280639
v -0.32463017 0.24675882 -0.20958771
v -0.32463017 0.24877387 0.19680084
v -0.28512436 0.435462 0.19680084
v -0.28512436 0.435462 -0.21316375
v -0.29247347 0.4324179 -0.21280639
v -0.2923654 0.43330768 0.19680084
v -0.28187442 0.44341177 -0.21122131
v -0.27753103 0.44341177 -0.21569702
v -0.27753103 0.0062961993 -0.21569702
v -0.28187442 0.0062961993 -0.21122131
v -0.2818724 0.0062961993 0.19492736
v -0.2818724 0.44341177 0.19492736
v -0.27612543 0.44341177 0.20206085
v -0.27612543 0.0062961993 0.20206115
v 0.30283055 0.44341177 -0.21569702
v 0.30692112 0.0062961993 -0.21160491
v 0.30283055 0.0062961993 -0.21569702
v 0.30692112 0.44341177 -0.21160491
v 0.30692112 0.0062961993 0.195242
v 0.30692112 0.44341177 0.195242
v 0.30146712 0.0062961993 0.20206115
v 0.30146712 0.44341177 0.20206085
v -0.27911997 0.21984996 -0.2712503
v -0.27911997 0.4338048 -0.22924621
v -0.27911997 0.21908739 -0.26690215
v -0.27911997 0.4374344 -0.23235138
v -0.27911997 0.43755683 -0.22420715
v -0.2783255 0.44333246 -0.22402436
v -0.27911997 0.43546286 -0.21916808
v -0.27753103 0.44341177 -0.21569702
v 0.3044195 0.4338048 -0.22924621
v 0.3044195 0.21984996 -0.2712503
v 0.3044195 0.21908739 -0.26690215
v 0.3044195 0.4374344 -0.23235138
v 0.30362502 0.44333246 -0.22402436
v 0.3044195 0.43755683 -0.22420715
v 0.3044195 0.43546286 -0.21916808
v 0.30283055 0.44341177 -0.21569702
v -0.2959235 0.43936783 0.19685943
v -0.2818724 0.44341177 0.19492736
v -0.28512436 0.435462 0.19680084
v -0.2923654 0.43330768 0.19680084
v -0.32897007 0.24950743 0.19714111
v -0.32463017 0.24877387 0.19680084
v -0.28512436 0.435462 -0.21316375
v -0.28187442 0.44341177 -0.21122131
v -0.29614943 0.4383089 -0.21288422
v -0.29247347 0.4324179 -0.21280639
v -0.32897007 0.24677484 -0.21052307
v -0.32463017 0.24675882 -0.20958771
v 0.3104238 0.43546176 -0.21316375
v 0.32060546 0.4406007 -0.21316375
v 0.30692112 0.44341177 -0.21160491
v 0.31652176 0.43428004 -0.21316375
v 0.3400451 0.2568484 -0.21316375
v 0.3454165 0.25733277 -0.21316223
v -0.32463017 0.24675882 -0.20958771
v -0.32897007 0.24677484 -0.21052307
v -0.32897007 0.24950743 0.19714111
v -0.32463017 0.24877387 0.19680084
v 0.3044195 0.2197739 0.24972564
v -0.27900735 0.43479827 0.20939223
v -0.27911997 0.2206917 0.24972564
v 0.3044195 0.43478206 0.20939223
v -0.27900532 0.43546245 0.20453583
v 0.3044195 0.43546245 0.20453583
v -0.27911997 0.2206917 0.24972564
v -0.27821353 0.2206917 0.25404388
v 0.30445212 0.2206917 0.25404388
v 0.3044195 0.2197739 0.24972564
v -0.27888542 0.44145435 0.2125946
v -0.27900532 0.43546245 0.20453583
v -0.27612543 0.44341177 0.20206085
v -0.27900735 0.43479827 0.20939223
v -0.27821353 0.2206917 0.25404388
v -0.27911997 0.2206917 0.24972564
v 0.3044195 0.43546245 0.20453583
v 0.30262455 0.44145435 0.2125946
v 0.30146712 0.44341177 0.20206085
v 0.3044195 0.43478206 0.20939223
v 0.30445212 0.2206917 0.25404388
v 0.3044195 0.2197739 0.24972564
v 0.31042337 0.0060037286 0.19680084
v 0.3044195 -2.1892795E-07 -0.21316375
v 0.3044195 -2.1892795E-07 0.19680084
v 0.31042337 0.0060037286 -0.21316375
v 0.3104238 0.43546176 -0.21316375
v 0.3104238 0.43546176 0.19680084
v -0.28512383 0.0060037286 -0.21316375
v -0.27911997 -2.1892795E-07 0.19680084
v -0.27911997 -2.1892795E-07 -0.21316375
v -0.28512383 0.0060037286 0.19680084
v -0.28512436 0.435462 0.19680084
v -0.28512436 0.435462 -0.21316375
v -0.27753103 0.44341177 -0.21569702
v 0.30283055 0.44341177 -0.21569702
v 0.30283055 0.0062961993 -0.21569702
v -0.27753103 0.0062961993 -0.21569702
v 0.30146712 0.44341177 0.20206085
v -0.27612543 0.44341177 0.20206085
v -0.27612543 0.0062961993 0.20206115
v 0.30146712 0.0062961993 0.20206115
v 0.3104238 0.43546176 0.19680084
v 0.31042337 0.0060037286 0.19680084
v 0.3044195 0.0060037286 0.20453583
v 0.3044195 0.43546245 0.20453583
v 0.3044195 -2.1892795E-07 0.19680084
v -0.27900532 0.43546245 0.20453583
v -0.27911997 0.0060037286 0.20453583
v -0.27911997 -2.1892795E-07 0.19680084
v -0.28512436 0.435462 0.19680084
v -0.28512383 0.0060037286 0.19680084
v -0.28512436 0.435462 -0.21316375
v -0.28512383 0.0060037286 -0.21316375
v -0.27911997 0.0060037286 -0.21916778
v -0.27911997 0.43546286 -0.21916808
v -0.27911997 -2.1892795E-07 -0.21316375
v 0.3044195 0.0060037286 -0.21916778
v 0.3044195 0.43546286 -0.21916808
v 0.3044195 -2.1892795E-07 -0.21316375
v 0.3104238 0.43546176 -0.21316375
v 0.31042337 0.0060037286 -0.21316375
vt 0.7753906 0.1640625
vt 0.57714844 0.1640625
vt 0.57714844 0.29541016
vt 0.7753906 0.29541016
vt 0.5649414 0.30371094
vt 0.56689453 0.30151367
vt 0.56689453 0.16711426
vt 0.5649414 0.16564941
vt 0.3684082 0.30371094
vt 0.3684082 0.16564941
vt 0.36694336 0.16711426
vt 0.36694336 0.30151367
vt 0.55566406 0.5625
vt 0.55566406 0.56689453
vt 0.56103516 0.56689453
vt 0.56103516 0.5625
vt 0.5390625 0.5625
vt 0.5390625 0.5678711
vt 0.5444336 0.5678711
vt 0.5444336 0.5625
vt 0.5439453 0.5786133
vt 0.5395508 0.5786133
vt 0.5395508 0.58251953
vt 0.5439453 0.58251953
vt 0.55908203 0.5786133
vt 0.5546875 0.5786133
vt 0.5546875 0.5839844
vt 0.55908203 0.5839844
vt 0.8540039 0.32299805
vt 0.8540039 0.32714844
vt 0.9897461 0.32714844
vt 0.9897461 0.32299805
vt 0.15148926 0.010597229
vt 0.15148926 0.013908386
vt 0.34936523 0.013908386
vt 0.34936523 0.010597229
vt 0.34887695 0.14001465
vt 0.34692383 0.14440918
vt 0.35009766 0.14685059
vt 0.34692383 0.14160156
vt 0.28759766 0.14001465
vt 0.28759766 0.14160156
vt 0.30859375 0.8642578
vt 0.31030273 0.68603516
vt 0.30859375 0.68603516
vt 0.31030273 0.8642578
vt 0.31201172 0.68603516
vt 0.31201172 0.8642578
vt 0.37670898 0.68603516
vt 0.37670898 0.8642578
vt 0.85498047 0.33691406
vt 0.9902344 0.40356445
vt 0.9902344 0.33691406
vt 0.85498047 0.40356445
vt 0.85498047 0.40722656
vt 0.9902344 0.40722656
vt 0.15148926 0.09313965
vt 0.34936523 0.020050049
vt 0.15148926 0.020050049
vt 0.34936523 0.09313965
vt 0.34936523 0.09655762
vt 0.15148926 0.09655762
vt 0.34936523 0.0993042
vt 0.15148926 0.0993042
vt 0.5253906 0.7001953
vt 0.39038086 0.7001953
vt 0.39038086 0.76416016
vt 0.5253906 0.76416016
vt 0.5253906 0.76904297
vt 0.39038086 0.76904297
vt 0.36645508 0.4736328
vt 0.56396484 0.54785156
vt 0.56396484 0.4736328
vt 0.36645508 0.54785156
vt 0.36645508 0.55126953
vt 0.56396484 0.55126953
vt 0.85498047 0.33691406
vt 0.9902344 0.40356445
vt 0.9902344 0.33691406
vt 0.85498047 0.40356445
vt 0.9902344 0.40722656
vt 0.85498047 0.40722656
vt 0.27856445 0.11230469
vt 0.14770508 0.11230469
vt 0.14770508 0.15612793
vt 0.27856445 0.15612793
vt 0.27856445 0.10864258
vt 0.14770508 0.10864258
vt 0.14770508 0.11230469
vt 0.27856445 0.11230469
vt 0.7006836 0.15466309
vt 0.7036133 0.15466309
vt 0.7036133 0.010238647
vt 0.7006836 0.010238647
vt 0.56640625 0.010238647
vt 0.56640625 0.15466309
vt 0.56347656 0.15466309
vt 0.56347656 0.010238647
vt 0.8544922 0.15307617
vt 0.8574219 0.01084137
vt 0.8544922 0.01084137
vt 0.8574219 0.15307617
vt 0.9897461 0.01084137
vt 0.9897461 0.15307617
vt 0.9926758 0.01084137
vt 0.9926758 0.15307617
vt 0.68066406 0.60839844
vt 0.60839844 0.6098633
vt 0.68066406 0.6098633
vt 0.6074219 0.60839844
vt 0.6069336 0.6118164
vt 0.60498047 0.6113281
vt 0.6074219 0.61328125
vt 0.6044922 0.6142578
vt 0.609375 0.5966797
vt 0.68115234 0.59814453
vt 0.68115234 0.5966797
vt 0.60839844 0.59814453
vt 0.60595703 0.59521484
vt 0.60839844 0.59521484
vt 0.60839844 0.5932617
vt 0.60595703 0.59228516
vt 0.28637695 0.12573242
vt 0.2841797 0.13012695
vt 0.28710938 0.1295166
vt 0.28808594 0.12719727
vt 0.35009766 0.12573242
vt 0.35009766 0.12719727
vt 0.2878418 0.10888672
vt 0.28515625 0.10821533
vt 0.28735352 0.11248779
vt 0.2890625 0.11102295
vt 0.35083008 0.11248779
vt 0.35083008 0.11102295
vt 0.3479004 0.15258789
vt 0.34936523 0.15698242
vt 0.3503418 0.15161133
vt 0.3474121 0.15527344
vt 0.28759766 0.15527344
vt 0.28759766 0.15698242
vt 0.39038086 0.6928711
vt 0.39038086 0.69433594
vt 0.5253906 0.69433594
vt 0.5253906 0.6928711
vt 0.7866211 0.39501953
vt 0.8408203 0.16992188
vt 0.7866211 0.16992188
vt 0.8408203 0.39501953
vt 0.8442383 0.16992188
vt 0.8442383 0.39501953
vt 0.36669922 0.46264648
vt 0.36669922 0.4658203
vt 0.5649414 0.4658203
vt 0.5649414 0.46264648
vt 0.3630371 0.63720703
vt 0.36010742 0.63623047
vt 0.36083984 0.6386719
vt 0.36083984 0.6352539
vt 0.3630371 0.5644531
vt 0.36083984 0.5644531
vt 0.375 0.63671875
vt 0.3720703 0.6376953
vt 0.37451172 0.63916016
vt 0.37402344 0.6357422
vt 0.3720703 0.5654297
vt 0.37402344 0.5654297
vt 0.85498047 0.17016602
vt 0.9902344 0.1673584
vt 0.85498047 0.1673584
vt 0.9902344 0.17016602
vt 0.9902344 0.31201172
vt 0.85498047 0.31201172
vt 0.7109375 0.0138168335
vt 0.8457031 0.011009216
vt 0.7109375 0.011009216
vt 0.8457031 0.0138168335
vt 0.8457031 0.15600586
vt 0.7109375 0.15600586
vt 0.35888672 0.15454102
vt 0.55615234 0.15454102
vt 0.55615234 0.010177612
vt 0.35888672 0.010177612
vt 0.36547852 0.45532227
vt 0.56347656 0.45532227
vt 0.56347656 0.31079102
vt 0.36547852 0.31079102
vt 0.77685547 0.43896484
vt 0.77685547 0.30615234
vt 0.7739258 0.30615234
vt 0.7739258 0.43896484
vt 0.7739258 0.30322266
vt 0.5800781 0.43896484
vt 0.5800781 0.30615234
vt 0.5800781 0.30322266
vt 0.57666016 0.43896484
vt 0.57666016 0.30615234
vt 0.7788086 0.58496094
vt 0.7788086 0.45214844
vt 0.7758789 0.45214844
vt 0.7758789 0.58496094
vt 0.7758789 0.44970703
vt 0.58203125 0.45214844
vt 0.58203125 0.58496094
vt 0.58203125 0.44970703
vt 0.57958984 0.58496094
vt 0.57958984 0.45214844
vn 0.01008606 -1 -0.014335632
vn -0.01008606 -1 -0.014335632
vn -0.010063171 -1 0.014282227
vn 0.010063171 -1 0.014282227
vn -0 1 0
vn -0 1 0
vn -0 1 0
vn -0 1 0
vn -0 1 0
vn -0 1 0
vn -0 1 0
vn -0 1 0
vn 0.70947266 0.4296875 0.55859375
vn 0.70947266 0.4296875 0.55859375
vn 0.70947266 0.4296875 0.55859375
vn 0.70947266 0.4296875 0.55859375
vn -0.70703125 0.4267578 0.56396484
vn -0.70703125 0.4267578 0.56396484
vn -0.70703125 0.4267578 0.56396484
vn -0.70703125 0.4267578 0.56396484
vn 0.64501953 0.4104004 -0.64453125
vn 0.64501953 0.4104004 -0.64453125
vn 0.64501953 0.4104004 -0.64453125
vn 0.64501953 0.4104004 -0.64453125
vn -0.64746094 0.41479492 -0.63916016
vn -0.64746094 0.41479492 -0.63916016
vn -0.64746094 0.41479492 -0.63916016
vn -0.64746094 0.41479492 -0.63916016
vn 0.085754395 -0.99609375 -0.024093628
vn 0.085754395 -0.99609375 -0.024093628
vn 0.085754395 -0.99609375 -0.024093628
vn 0.085754395 -0.99609375 -0.024093628
vn -0 -0.9848633 -0.17272949
vn -0 -0.9848633 -0.17272949
vn -0 -0.9848633 -0.17272949
vn -0 -0.9848633 -0.17272949
vn -0.0071029663 0.012237549 1
vn -0.055847168 0.11065674 0.9921875
vn -0.055847168 0.11065674 0.9921875
vn -0.004020691 0.0060157776 1
vn -0.0009918213 -9.971857E-05 1
vn -0.0009918213 -9.971857E-05 1
vn -0 -0.92333984 -0.38378906
vn -0 -0.9868164 0.16235352
vn -0 -0.92333984 -0.38378906
vn -0 -0.9868164 0.16235352
vn -0 -0.19177246 0.9814453
vn -0 -0.19177246 0.9814453
vn -0 -0.17272949 0.9848633
vn -0 -0.17272949 0.9848633
vn 0.99121094 0.1307373 0.0015792847
vn 0.9814453 0.19274902 0.0015411377
vn 0.99121094 0.1307373 0.0015792847
vn 0.9814453 0.19274902 0.0015411377
vn 0.20117188 0.9794922 0
vn 0.20117188 0.9794922 0
vn -0 0.2052002 -0.9785156
vn -0 0.17602539 -0.984375
vn -0 0.17602539 -0.984375
vn -0 0.2052002 -0.9785156
vn -0 0.9350586 -0.35424805
vn -0 0.9350586 -0.35424805
vn -0 1 -0.009521484
vn -0 1 -0.009521484
vn -0.98535156 0.17016602 -0.0005168915
vn -0.98535156 0.17016602 -0.0005168915
vn -0.97314453 0.23034668 -0.0005788803
vn -0.97314453 0.22924805 -0.00057792664
vn -0.30737305 0.95166016 -0.0011491776
vn -0.30737305 0.95166016 -0.0011491776
vn -0 0.18457031 0.98291016
vn -0 0.22399902 0.9746094
vn -0 0.18457031 0.98291016
vn -0 0.22045898 0.97558594
vn -0 0.98339844 0.18273926
vn -0 0.98339844 0.18273926
vn -0.9916992 -0.12792969 -0.0015439987
vn -0.9873047 -0.15930176 -0.0015268326
vn -0.9916992 -0.12792969 -0.0015439987
vn -0.9873047 -0.15930176 -0.0015268326
vn -0.19030762 -0.9819336 0
vn -0.19030762 -0.9819336 0
vn 0.98535156 -0.17138672 0.0004799366
vn 0.98535156 -0.17138672 0.0004799366
vn 0.98535156 -0.17138672 0.0004799366
vn 0.98535156 -0.17138672 0.0004799366
vn 0.33569336 -0.94189453 0.0009784698
vn 0.33569336 -0.94189453 0.0009784698
vn 0.33569336 -0.94189453 0.0009784698
vn 0.33569336 -0.94189453 0.0009784698
vn 1 0 0.010574341
vn 0.0076560974 0 1
vn 0.0076560974 0 1
vn 1 0 0.010574341
vn 1 0 -0.013908386
vn 1 0 -0.013908386
vn 0.012229919 -7.1525574E-07 -1
vn 0.012229919 -7.1525574E-07 -1
vn -0.0069999695 0 1
vn -1 0 0.00995636
vn -0.0069999695 0 1
vn -1 0 0.00995636
vn -1 0 -0.013183594
vn -1 0 -0.013183594
vn -0.011695862 -7.1525574E-07 -1
vn -0.011695862 -7.1525574E-07 -1
vn -1 8.34465E-07 0
vn -1 0.0025577545 -3.838539E-05
vn -1 8.34465E-07 0
vn -1 0.005672455 -8.523464E-05
vn -0.9921875 0.11810303 0.04159546
vn -0.9902344 0.12927246 0.05557251
vn -0.98535156 0.14953613 0.08111572
vn -0.98535156 0.14953613 0.08111572
vn 1 0.0025558472 -3.838539E-05
vn 1 5.364418E-07 0
vn 1 5.364418E-07 0
vn 1 0.005672455 -8.523464E-05
vn 0.9902344 0.12927246 0.05557251
vn 0.9921875 0.11810303 0.04159546
vn 0.98535156 0.14953613 0.08111572
vn 0.98535156 0.14953613 0.08111572
vn 0.04559326 0.012565613 0.99902344
vn 0.05218506 0.12939453 0.9902344
vn 0.05218506 0.12939453 0.9902344
vn 0.044921875 0.0014743805 0.99902344
vn 0.044433594 -0.0069999695 0.99902344
vn 0.044433594 -0.0069999695 0.99902344
vn 0.009422302 0.13378906 -0.99072266
vn 0.009422302 0.13378906 -0.99072266
vn 0.08892822 -0.008613586 -0.99609375
vn 0.09643555 -0.022277832 -0.9951172
vn 0.10192871 -0.03225708 -0.9941406
vn 0.10192871 -0.03225708 -0.9941406
vn -0.055847168 0.11065674 -0.9921875
vn -0.0063095093 0.012771606 -1
vn -0.055847168 0.11065674 -0.9921875
vn -0.0030956268 0.006427765 -1
vn 0.00014925003 1.5854836E-05 -1
vn 0.00014925003 1.5854836E-05 -1
vn -0.08642578 -0.99609375 0.005809784
vn -0.08642578 -0.99609375 0.005809784
vn -0.08642578 -0.99609375 0.005809784
vn -0.08642578 -0.99609375 0.005809784
vn -0.00014781952 -0.18469238 -0.98291016
vn -0.00014710426 -0.20544434 -0.9785156
vn -0.00014781952 -0.18469238 -0.98291016
vn -0.00014710426 -0.20544434 -0.9785156
vn -1.3768673E-05 -0.99072266 -0.13708496
vn -1.3768673E-05 -0.99072266 -0.13708496
vn -0.0007824898 -0.9946289 0.105773926
vn -0.0007824898 -0.9946289 0.105773926
vn -0.0007824898 -0.9946289 0.105773926
vn -0.0007824898 -0.9946289 0.105773926
vn -0.9951172 0.041809082 0.08898926
vn -0.96875 0.20605469 -0.13879395
vn -0.96875 0.20605469 -0.13879395
vn -0.9941406 0.028961182 0.10638428
vn -0.9926758 0.02079773 0.117370605
vn -0.9926758 0.02079773 0.117370605
vn 0.9506836 0.3095703 -0.018432617
vn 0.98339844 0.06921387 0.16833496
vn 0.9506836 0.3095703 -0.018432617
vn 0.9819336 0.051605225 0.18115234
vn 0.98095703 0.039733887 0.18981934
vn 0.98095703 0.039733887 0.18981934
vn 1 -0.013626099 0.01424408
vn 0.01008606 -1 -0.014335632
vn 0.010063171 -1 0.014282227
vn 1 -0.013656616 -0.014297485
vn 1 -9.536743E-07 -0.014434814
vn 1 -9.536743E-07 0.014373779
vn -1 -0.013656616 -0.014297485
vn -0.010063171 -1 0.014282227
vn -0.01008606 -1 -0.014335632
vn -1 -0.013618469 0.014381409
vn -1 1.2516975E-06 0.014511108
vn -1 -1.2516975E-06 -0.014434814
vn 0.0076560974 0 1
vn -0.0069999695 0 1
vn -0.0069999695 0 1
vn 0.0076560974 0 1
vn -0.011695862 -7.1525574E-07 -1
vn 0.012229919 -7.1525574E-07 -1
vn 0.012229919 -7.1525574E-07 -1
vn -0.011695862 -7.1525574E-07 -1
vn 1 -9.536743E-07 0.014373779
vn 1 -0.013626099 0.01424408
vn 0.012992859 -0.01763916 1
vn 0.013122559 0 1
vn 0.010063171 -1 0.014282227
vn -0.013114929 1.7285347E-06 1
vn -0.012992859 -0.01763916 1
vn -0.010063171 -1 0.014282227
vn -1 1.2516975E-06 0.014511108
vn -1 -0.013618469 0.014381409
vn -1 -1.2516975E-06 -0.014434814
vn -1 -0.013656616 -0.014297485
vn -0.010093689 -0.013694763 -1
vn -0.010185242 -7.1525574E-07 -1
vn -0.01008606 -1 -0.014335632
vn 0.010093689 -0.013694763 -1
vn 0.010185242 -7.1525574E-07 -1
vn 0.01008606 -1 -0.014335632
vn 1 -9.536743E-07 -0.014434814
vn 1 -0.013656616 -0.014297485
g Common_Prop_Carton_06_0
f 3/3/3 2/2/2 1/1/1
f 4/4/4 3/3/3 1/1/1
f 7/7/7 6/6/6 5/5/5
f 8/8/8 7/7/7 5/5/5
f 8/8/8 5/5/5 9/9/9
f 10/10/10 8/8/8 9/9/9
f 10/10/10 9/9/9 11/11/11
f 9/9/9 12/12/12 11/11/11
f 15/15/15 14/14/14 13/13/13
f 16/16/16 15/15/15 13/13/13
f 19/19/19 18/18/18 17/17/17
f 20/20/20 19/19/19 17/17/17
f 23/23/23 22/22/22 21/21/21
f 24/24/24 23/23/23 21/21/21
f 27/27/27 26/26/26 25/25/25
f 28/28/28 27/27/27 25/25/25
f 31/31/31 30/30/30 29/29/29
f 32/32/32 31/31/31 29/29/29
f 35/35/35 34/34/34 33/33/33
f 36/36/36 35/35/35 33/33/33
f 39/39/39 38/38/38 37/37/37
f 38/38/38 40/40/40 37/37/37
f 41/41/41 37/37/37 40/40/40
f 42/42/42 41/41/41 40/40/40
f 45/45/45 44/44/44 43/43/43
f 44/44/44 46/46/46 43/43/43
f 44/44/44 47/47/47 46/46/46
f 47/47/47 48/48/48 46/46/46
f 47/47/47 49/49/49 48/48/48
f 49/49/49 50/50/50 48/48/48
f 53/53/53 52/52/52 51/51/51
f 52/52/52 54/54/54 51/51/51
f 54/54/54 52/52/52 55/55/55
f 52/52/52 56/56/56 55/55/55
f 59/59/59 58/58/58 57/57/57
f 58/58/58 60/60/60 57/57/57
f 60/60/60 61/61/61 57/57/57
f 61/61/61 62/62/62 57/57/57
f 61/61/61 63/63/63 62/62/62
f 63/63/63 64/64/64 62/62/62
f 67/67/67 66/66/66 65/65/65
f 68/68/68 67/67/67 65/65/65
f 68/68/68 69/69/69 67/67/67
f 69/69/69 70/70/70 67/67/67
f 73/73/73 72/72/72 71/71/71
f 72/72/72 74/74/74 71/71/71
f 74/74/74 72/72/72 75/75/75
f 72/72/72 76/76/76 75/75/75
f 79/79/79 78/78/78 77/77/77
f 78/78/78 80/80/80 77/77/77
f 78/78/78 81/81/81 80/80/80
f 81/81/81 82/82/82 80/80/80
f 85/85/85 84/84/84 83/83/83
f 86/86/86 85/85/85 83/83/83
f 89/89/89 88/88/88 87/87/87
f 90/90/90 89/89/89 87/87/87
f 93/93/93 92/92/92 91/91/91
f 94/94/94 93/93/93 91/91/91
f 95/95/95 94/94/94 91/91/91
f 96/96/96 95/95/95 91/91/91
f 95/95/95 96/96/96 97/97/97
f 98/98/98 95/95/95 97/97/97
f 101/101/101 100/100/100 99/99/99
f 100/100/100 102/102/102 99/99/99
f 100/100/100 103/103/103 102/102/102
f 103/103/103 104/104/104 102/102/102
f 103/103/103 105/105/105 104/104/104
f 105/105/105 106/106/106 104/104/104
f 109/109/109 108/108/108 107/107/107
f 108/108/108 110/110/110 107/107/107
f 108/108/108 111/111/111 110/110/110
f 111/111/111 112/112/112 110/110/110
f 111/111/111 113/113/113 112/112/112
f 113/113/113 114/114/114 112/112/112
f 117/117/117 116/116/116 115/115/115
f 116/116/116 118/118/118 115/115/115
f 115/115/115 118/118/118 119/119/119
f 120/120/120 115/115/115 119/119/119
f 120/120/120 119/119/119 121/121/121
f 119/119/119 122/122/122 121/121/121
f 125/125/125 124/124/124 123/123/123
f 126/126/126 125/125/125 123/123/123
f 123/123/123 127/127/127 126/126/126
f 127/127/127 128/128/128 126/126/126
f 131/131/131 130/130/130 129/129/129
f 132/132/132 131/131/131 129/129/129
f 131/131/131 132/132/132 133/133/133
f 132/132/132 134/134/134 133/133/133
f 137/137/137 136/136/136 135/135/135
f 136/136/136 138/138/138 135/135/135
f 138/138/138 136/136/136 139/139/139
f 136/136/136 140/140/140 139/139/139
f 143/143/143 142/142/142 141/141/141
f 144/144/144 143/143/143 141/141/141
f 147/147/147 146/146/146 145/145/145
f 146/146/146 148/148/148 145/145/145
f 146/146/146 149/149/149 148/148/148
f 149/149/149 150/150/150 148/148/148
f 153/153/153 152/152/152 151/151/151
f 154/154/154 153/153/153 151/151/151
f 157/157/157 156/156/156 155/155/155
f 156/156/156 158/158/158 155/155/155
f 159/159/159 155/155/155 158/158/158
f 160/160/160 159/159/159 158/158/158
f 163/163/163 162/162/162 161/161/161
f 162/162/162 164/164/164 161/161/161
f 164/164/164 162/162/162 165/165/165
f 166/166/166 164/164/164 165/165/165
f 169/169/169 168/168/168 167/167/167
f 168/168/168 170/170/170 167/167/167
f 167/167/167 170/170/170 171/171/171
f 172/172/172 167/167/167 171/171/171
f 175/175/175 174/174/174 173/173/173
f 174/174/174 176/176/176 173/173/173
f 173/173/173 176/176/176 177/177/177
f 178/178/178 173/173/173 177/177/177
f 181/181/181 180/180/180 179/179/179
f 182/182/182 181/181/181 179/179/179
f 185/185/185 184/184/184 183/183/183
f 186/186/186 185/185/185 183/183/183
f 189/189/189 188/188/188 187/187/187
f 190/190/190 189/189/189 187/187/187
f 188/188/188 189/189/189 191/191/191
f 189/189/189 190/190/190 192/192/192
f 191/191/191 189/189/189 193/193/193
f 193/193/193 189/189/189 192/192/192
f 194/194/194 191/191/191 193/193/193
f 193/193/193 192/192/192 195/195/195
f 196/196/196 194/194/194 193/193/193
f 196/196/196 193/193/193 195/195/195
f 199/199/199 198/198/198 197/197/197
f 200/200/200 199/199/199 197/197/197
f 199/199/199 201/201/201 198/198/198
f 202/202/202 199/199/199 200/200/200
f 201/201/201 199/199/199 202/202/202
f 203/203/203 202/202/202 200/200/200
f 204/204/204 201/201/201 202/202/202
f 202/202/202 203/203/203 205/205/205
f 202/202/202 206/206/206 204/204/204
f 206/206/206 202/202/202 205/205/205
