g Common_Prop_Billboard_09
v -0.52441895 0.026994629 0.034340322
v -0.52441895 2.795935 0.03434021
v 0.52441895 2.795936 0.03434021
v 0.52442384 0.026993407 0.034340322
v -0.55142087 2.8229296 0.040522918
v -0.55142087 2.8229308 -0.040523224
v 0.55142087 2.8229308 -0.04052307
v 0.55142087 2.8229296 0.040522993
v 0.52441895 2.795936 0.040523298
v -0.52441895 2.795936 0.040523224
v -0.55142087 2.8229296 0.040522918
v 0.55142087 2.8229296 0.040522993
v 0.5244287 2.7959375 -0.04052284
v -0.5244287 2.7959375 -0.04052284
v -0.52441895 2.795936 0.040523224
v 0.52441895 2.795936 0.040523298
v 0.55142087 2.8229308 -0.04052307
v -0.55142087 2.8229308 -0.040523224
v -0.5244287 2.7959375 -0.04052284
v 0.5244287 2.7959375 -0.04052284
v -0.55142087 2.8229296 0.040522918
v -0.55142087 -6.1035155E-07 0.040523108
v -0.55142087 -1.8310546E-06 -0.04052307
v -0.55142087 2.8229308 -0.040523224
v -0.52441895 2.795936 0.040523224
v -0.52441895 0.026992798 0.04052349
v -0.55142087 -6.1035155E-07 0.040523108
v -0.55142087 2.8229296 0.040522918
v -0.5244287 2.7959375 -0.04052284
v -0.5244287 0.026991576 -0.040522765
v -0.52441895 0.026992798 0.04052349
v -0.52441895 2.795936 0.040523224
v -0.55142087 2.8229308 -0.040523224
v -0.55142087 -1.8310546E-06 -0.04052307
v -0.5244287 0.026991576 -0.040522765
v -0.5244287 2.7959375 -0.04052284
v -0.55142087 -6.1035155E-07 0.040523108
v 0.55142087 -6.1035155E-07 0.040523186
v 0.55142087 -1.8310546E-06 -0.04052307
v -0.55142087 -1.8310546E-06 -0.04052307
v -0.52441895 0.026992798 0.04052349
v 0.52441895 0.026992798 0.040523566
v 0.55142087 -6.1035155E-07 0.040523186
v -0.55142087 -6.1035155E-07 0.040523108
v -0.5244287 0.026991576 -0.040522765
v 0.5244287 0.026990967 -0.040522765
v 0.52441895 0.026992798 0.040523566
v -0.52441895 0.026992798 0.04052349
v -0.55142087 -1.8310546E-06 -0.04052307
v 0.55142087 -1.8310546E-06 -0.04052307
v 0.5244287 0.026990967 -0.040522765
v -0.5244287 0.026991576 -0.040522765
v 0.55142087 -6.1035155E-07 0.040523186
v 0.55142087 2.8229296 0.040522993
v 0.55142087 2.8229308 -0.04052307
v 0.55142087 -1.8310546E-06 -0.04052307
v 0.52441895 0.026992798 0.040523566
v 0.52441895 2.795936 0.040523298
v 0.55142087 2.8229296 0.040522993
v 0.55142087 -6.1035155E-07 0.040523186
v 0.5244287 0.026990967 -0.040522765
v 0.5244287 2.7959375 -0.04052284
v 0.52441895 2.795936 0.040523298
v 0.52441895 0.026992798 0.040523566
v 0.55142087 -1.8310546E-06 -0.04052307
v 0.55142087 2.8229308 -0.04052307
v 0.5244287 2.7959375 -0.04052284
v 0.5244287 0.026990967 -0.040522765
v 0.52441895 0.026994629 -0.03434021
v 0.52441895 2.795935 -0.03434105
v -0.52441895 2.795936 -0.034340896
v -0.52442384 0.026993407 -0.034340058
vt 0.8251953 0.49414062
vt 0.8251953 0.78271484
vt 0.9345703 0.78271484
vt 0.9345703 0.49414062
vt 0.6777344 0.97314453
vt 0.6777344 0.98535156
vt 0.8408203 0.98535156
vt 0.8408203 0.97314453
vt 0.83691406 0.9628906
vt 0.6821289 0.9628906
vt 0.6777344 0.9667969
vt 0.8408203 0.9667969
vt 0.83691406 0.97314453
vt 0.6821289 0.97314453
vt 0.6821289 0.98535156
vt 0.83691406 0.98535156
vt 0.8408203 0.9628906
vt 0.6777344 0.9628906
vt 0.6821289 0.9667969
vt 0.83691406 0.9667969
vt 0.47558594 0.97314453
vt 0.048553467 0.97314453
vt 0.048553467 0.98535156
vt 0.47558594 0.98535156
vt 0.47143555 0.9628906
vt 0.052581787 0.9628906
vt 0.048553467 0.9667969
vt 0.47558594 0.9667969
vt 0.47143555 0.97314453
vt 0.052581787 0.97314453
vt 0.052581787 0.98535156
vt 0.47143555 0.98535156
vt 0.47558594 0.9628906
vt 0.048553467 0.9628906
vt 0.052581787 0.9667969
vt 0.47143555 0.9667969
vt 0.8378906 0.97314453
vt 0.6748047 0.97314453
vt 0.6748047 0.98535156
vt 0.8378906 0.98535156
vt 0.8339844 0.9628906
vt 0.67871094 0.9628906
vt 0.6748047 0.9667969
vt 0.8378906 0.9667969
vt 0.8339844 0.97314453
vt 0.67871094 0.97314453
vt 0.67871094 0.98535156
vt 0.8339844 0.98535156
vt 0.8378906 0.9628906
vt 0.6748047 0.9628906
vt 0.67871094 0.9667969
vt 0.8339844 0.9667969
vt 0.43579102 0.97314453
vt 0.008911133 0.97314453
vt 0.008911133 0.98535156
vt 0.43579102 0.98535156
vt 0.43188477 0.9628906
vt 0.012916565 0.9628906
vt 0.008911133 0.9667969
vt 0.43579102 0.9667969
vt 0.43188477 0.97314453
vt 0.012916565 0.97314453
vt 0.012916565 0.98535156
vt 0.43188477 0.98535156
vt 0.43579102 0.9628906
vt 0.008911133 0.9628906
vt 0.012916565 0.9667969
vt 0.43188477 0.9667969
vt 0.8251953 0.49414062
vt 0.8251953 0.78271484
vt 0.9345703 0.78271484
vt 0.9345703 0.49414062
vn -0 0 1
vn -0 0 1
vn -0 0 1
vn -0 0 1
vn -0 1 1.5079975E-05
vn -0 1 1.5079975E-05
vn -0 1 1.5079975E-05
vn -0 1 1.5079975E-05
vn 7.987022E-06 3.2782555E-06 1
vn -8.225441E-06 3.0994415E-06 1
vn -8.225441E-06 3.0994415E-06 1
vn 8.046627E-06 3.2782555E-06 1
vn -0 -1 -1.5079975E-05
vn -0 -1 -1.5079975E-05
vn -0 -1 -1.5079975E-05
vn -0 -1 -1.5079975E-05
vn -6.198883E-06 -2.3245811E-06 -1
vn 1.0073185E-05 -3.993511E-06 -1
vn 1.013279E-05 -3.993511E-06 -1
vn -6.198883E-06 -2.3245811E-06 -1
vn -1 0 0
vn -1 0 0
vn -1 0 0
vn -1 0 0
vn -8.225441E-06 3.0994415E-06 1
vn -1.0192394E-05 -3.9339066E-06 1
vn -1.0192394E-05 -3.9339066E-06 1
vn -8.225441E-06 3.0994415E-06 1
vn 1 0 -0.00012052059
vn 1 0 -0.00012052059
vn 1 0 -0.00012052059
vn 1 0 -0.00012052059
vn 1.0073185E-05 -3.993511E-06 -1
vn 8.285046E-06 3.0398369E-06 -1
vn 8.285046E-06 3.0398369E-06 -1
vn 1.013279E-05 -3.993511E-06 -1
vn -0 -1 1.5079975E-05
vn -0 -1 1.5079975E-05
vn -0 -1 1.5079975E-05
vn -0 -1 1.5079975E-05
vn -1.0192394E-05 -3.9339066E-06 1
vn 1.0311604E-05 -3.8146973E-06 1
vn 1.0311604E-05 -3.8146973E-06 1
vn -1.0192394E-05 -3.9339066E-06 1
vn -0 1 -1.5437603E-05
vn 5.9604645E-07 1 -2.259016E-05
vn 5.364418E-07 1 -2.2232533E-05
vn -0 1 -1.5079975E-05
vn 8.285046E-06 3.0398369E-06 -1
vn -8.106232E-06 3.2186508E-06 -1
vn -8.106232E-06 3.2186508E-06 -1
vn 8.285046E-06 3.0398369E-06 -1
vn 1 0 0
vn 1 0 0
vn 1 0 0
vn 1 0 0
vn 1.0311604E-05 -3.8146973E-06 1
vn 7.987022E-06 3.2782555E-06 1
vn 8.046627E-06 3.2782555E-06 1
vn 1.0311604E-05 -3.8146973E-06 1
vn -1 0 -0.00012052059
vn -1 0 -0.00012052059
vn -1 0 -0.00012052059
vn -1 0 -0.00012052059
vn -8.106232E-06 3.2186508E-06 -1
vn -6.198883E-06 -2.3245811E-06 -1
vn -6.198883E-06 -2.3245811E-06 -1
vn -8.106232E-06 3.2186508E-06 -1
vn -1.1920929E-07 -2.9802322E-07 -1
vn -1.1920929E-07 -2.9802322E-07 -1
vn -1.1920929E-07 -2.9802322E-07 -1
vn -1.1920929E-07 -2.9802322E-07 -1
g Common_Prop_Billboard_09_0
f 3/3/3 2/2/2 1/1/1
f 4/4/4 3/3/3 1/1/1
f 7/7/7 6/6/6 5/5/5
f 8/8/8 7/7/7 5/5/5
f 11/11/11 10/10/10 9/9/9
f 12/12/12 11/11/11 9/9/9
f 15/15/15 14/14/14 13/13/13
f 16/16/16 15/15/15 13/13/13
f 19/19/19 18/18/18 17/17/17
f 20/20/20 19/19/19 17/17/17
f 23/23/23 22/22/22 21/21/21
f 24/24/24 23/23/23 21/21/21
f 27/27/27 26/26/26 25/25/25
f 28/28/28 27/27/27 25/25/25
f 31/31/31 30/30/30 29/29/29
f 32/32/32 31/31/31 29/29/29
f 35/35/35 34/34/34 33/33/33
f 36/36/36 35/35/35 33/33/33
f 39/39/39 38/38/38 37/37/37
f 40/40/40 39/39/39 37/37/37
f 43/43/43 42/42/42 41/41/41
f 44/44/44 43/43/43 41/41/41
f 47/47/47 46/46/46 45/45/45
f 48/48/48 47/47/47 45/45/45
f 51/51/51 50/50/50 49/49/49
f 52/52/52 51/51/51 49/49/49
f 55/55/55 54/54/54 53/53/53
f 56/56/56 55/55/55 53/53/53
f 59/59/59 58/58/58 57/57/57
f 60/60/60 59/59/59 57/57/57
f 63/63/63 62/62/62 61/61/61
f 64/64/64 63/63/63 61/61/61
f 67/67/67 66/66/66 65/65/65
f 68/68/68 67/67/67 65/65/65
f 71/71/71 70/70/70 69/69/69
f 72/72/72 71/71/71 69/69/69
