g Common_Prop_Billboard_67
v -0.32137603 0.027655657 0.014849792
v -0.32137603 0.51649106 0.014849945
v 0.32137543 0.51649106 0.014849945
v 0.32137543 0.027655657 0.014849792
v 0.3490335 0.54414916 0.022438372
v -0.3490335 0.5441461 0.022438372
v -0.3490335 0.5441461 -0.022438278
v 0.3490335 0.54414856 -0.022438278
v 0.32137603 0.51648986 0.022438372
v -0.32137847 0.51649046 0.022438372
v -0.3490335 0.5441461 0.022438372
v 0.3490335 0.54414916 0.022438372
v 0.3213748 0.5164886 -0.022438275
v -0.32137847 0.51649106 -0.022438275
v -0.32137847 0.51649046 0.022438372
v 0.32137603 0.51648986 0.022438372
v 0.3490335 0.54414856 -0.022438278
v -0.3490335 0.5441461 -0.022438278
v -0.32137847 0.51649106 -0.022438275
v 0.3213748 0.5164886 -0.022438275
v 0.3490335 1.9073486E-08 0.022438368
v 0.3490335 0.54414916 0.022438372
v 0.3490335 0.54414856 -0.022438278
v 0.3490335 -1.2016296E-06 -0.022438278
v 0.321373 0.027653826 0.022438368
v 0.32137603 0.51648986 0.022438372
v 0.3490335 0.54414916 0.022438372
v 0.3490335 1.9073486E-08 0.022438368
v 0.32137114 0.027654743 -0.022438282
v 0.3213748 0.5164886 -0.022438275
v 0.32137603 0.51648986 0.022438372
v 0.321373 0.027653826 0.022438368
v 0.3490335 -1.2016296E-06 -0.022438278
v 0.3490335 0.54414856 -0.022438278
v 0.3213748 0.5164886 -0.022438275
v 0.32137114 0.027654743 -0.022438282
v -0.34903166 -2.7275084E-06 0.022438368
v 0.3490335 1.9073486E-08 0.022438368
v 0.3490335 -1.2016296E-06 -0.022438278
v -0.34903228 -2.7275084E-06 -0.022438392
v -0.32137725 0.027655048 0.022438368
v 0.321373 0.027653826 0.022438368
v 0.3490335 1.9073486E-08 0.022438368
v -0.34903166 -2.7275084E-06 0.022438368
v -0.32137847 0.027656268 -0.022438282
v 0.32137114 0.027654743 -0.022438282
v 0.321373 0.027653826 0.022438368
v -0.32137725 0.027655048 0.022438368
v -0.34903228 -2.7275084E-06 -0.022438392
v 0.3490335 -1.2016296E-06 -0.022438278
v 0.32137114 0.027654743 -0.022438282
v -0.32137847 0.027656268 -0.022438282
v -0.3490335 0.5441461 0.022438372
v -0.34903166 -2.7275084E-06 0.022438368
v -0.34903228 -2.7275084E-06 -0.022438392
v -0.3490335 0.5441461 -0.022438278
v -0.32137847 0.51649046 0.022438372
v -0.32137725 0.027655048 0.022438368
v -0.34903166 -2.7275084E-06 0.022438368
v -0.3490335 0.5441461 0.022438372
v -0.32137847 0.51649106 -0.022438275
v -0.32137847 0.027656268 -0.022438282
v -0.32137725 0.027655048 0.022438368
v -0.32137847 0.51649046 0.022438372
v -0.3490335 0.5441461 -0.022438278
v -0.34903228 -2.7275084E-06 -0.022438392
v -0.32137847 0.027656268 -0.022438282
v -0.32137847 0.51649106 -0.022438275
v -0.32217863 0.025416277 -0.016472474
v 0.32383513 0.0254175 -0.016472703
v 0.3238339 0.5174896 -0.016472781
v -0.32217926 0.51748776 -0.016472552
vt 0.62841797 0.53759766
vt 0.62841797 0.5996094
vt 0.7104492 0.5996094
vt 0.7104492 0.53759766
vt 2.8261719 0.98046875
vt 2.6875 0.98046875
vt 2.6875 0.99609375
vt 2.8261719 0.99609375
vt 2.8203125 0.9682617
vt 2.6933594 0.9682617
vt 2.6875 0.97216797
vt 2.8261719 0.97216797
vt 2.8203125 0.98046875
vt 2.6933594 0.98046875
vt 2.6933594 0.99609375
vt 2.8203125 0.99609375
vt 2.8261719 0.9682617
vt 2.6875 0.9682617
vt 2.6933594 0.97216797
vt 2.8203125 0.97216797
vt 1.5556641 0.98046875
vt 1.4482422 0.98046875
vt 1.4482422 0.99609375
vt 1.5556641 0.99609375
vt 1.5507812 0.9682617
vt 1.453125 0.9682617
vt 1.4482422 0.97216797
vt 1.5556641 0.97216797
vt 1.5507812 0.98046875
vt 1.453125 0.98046875
vt 1.453125 0.99609375
vt 1.5507812 0.99609375
vt 1.5556641 0.9682617
vt 1.4482422 0.9682617
vt 1.453125 0.97216797
vt 1.5507812 0.97216797
vt 2.1269531 0.98046875
vt 1.9873047 0.98046875
vt 1.9873047 0.99609375
vt 2.1269531 0.99609375
vt 2.1210938 0.9682617
vt 1.9931641 0.9682617
vt 1.9873047 0.97216797
vt 2.1269531 0.97216797
vt 2.1210938 0.98046875
vt 1.9931641 0.98046875
vt 1.9931641 0.99609375
vt 2.1210938 0.99609375
vt 2.1269531 0.9682617
vt 1.9873047 0.9682617
vt 1.9931641 0.97216797
vt 2.1210938 0.97216797
vt 0.71972656 0.98046875
vt 0.6113281 0.98046875
vt 0.6113281 0.99609375
vt 0.71972656 0.99609375
vt 0.7138672 0.9682617
vt 0.6171875 0.9682617
vt 0.6113281 0.97216797
vt 0.71972656 0.97216797
vt 0.7138672 0.98046875
vt 0.6171875 0.98046875
vt 0.6171875 0.99609375
vt 0.7138672 0.99609375
vt 0.71972656 0.9682617
vt 0.6113281 0.9682617
vt 0.6171875 0.97216797
vt 0.7138672 0.97216797
vt 0.15454102 0.41333008
vt 0.097351074 0.41333008
vt 0.097351074 0.4567871
vt 0.15454102 0.4567871
vn -0 -2.9802322E-07 1
vn -0 -2.9802322E-07 1
vn -0 -2.9802322E-07 1
vn -0 -2.9802322E-07 1
vn -3.516674E-06 1 -1.3053417E-05
vn -4.351139E-06 1 0
vn -4.351139E-06 1 -5.364418E-07
vn -3.516674E-06 1 -1.3589859E-05
vn -0 0 1
vn -0 0 1
vn -0 0 1
vn -0 0 1
vn -1.0728836E-06 -1 2.5391579E-05
vn -3.8146973E-06 -1 -1.3589859E-05
vn -3.695488E-06 -1 -1.180172E-05
vn -9.536743E-07 -1 2.7179718E-05
vn -0 0 -1
vn 1.7881393E-07 0 -1
vn -0 0 -1
vn -0 0 -1
vn 1 0 0
vn 1 0 0
vn 1 0 0
vn 1 0 0
vn -0 0 1
vn -0 0 1
vn -0 0 1
vn -0 0 1
vn -1 6.3180923E-06 3.9994717E-05
vn -1 7.5101852E-06 2.7179718E-05
vn -1 7.390976E-06 2.8014183E-05
vn -1 6.2584877E-06 4.082918E-05
vn 1.1920929E-07 0 -1
vn -0 0 -1
vn -0 0 -1
vn 1.1920929E-07 0 -1
vn 2.2649765E-06 -1 1.1324883E-06
vn 3.9339066E-06 -1 2.7179718E-05
vn 3.874302E-06 -1 2.6106834E-05
vn 2.2053719E-06 -1 0
vn -0 0 1
vn -0 0 1
vn -0 0 1
vn -0 0 1
vn 1.9073486E-06 1 2.6881695E-05
vn 2.3841858E-06 1 2.0384789E-05
vn 2.3245811E-06 1 2.0682812E-05
vn 1.9073486E-06 1 2.7179718E-05
vn 1.7881393E-06 2.1457672E-06 -1
vn 1.1920929E-07 0 -1
vn 1.1920929E-07 0 -1
vn 1.7285347E-06 2.2649765E-06 -1
vn -1 -2.3245811E-06 7.1525574E-07
vn -1 -3.33786E-06 1.3589859E-05
vn -1 -3.2782555E-06 1.2874603E-05
vn -1 -2.2649765E-06 0
vn -0 0 1
vn -0 0 1
vn -0 0 1
vn -0 0 1
vn 1 2.3245811E-06 -1.6093254E-06
vn 1 0 -2.7179718E-05
vn 1 1.1920929E-07 -2.5629997E-05
vn 1 2.503395E-06 0
vn 1.7881393E-07 0 -1
vn 1.7881393E-06 2.1457672E-06 -1
vn 1.7285347E-06 2.2649765E-06 -1
vn -0 0 -1
vn -3.5762787E-07 -1.7881393E-07 -1
vn -3.5762787E-07 -1.7881393E-07 -1
vn -3.5762787E-07 -1.7881393E-07 -1
vn -3.5762787E-07 -1.7881393E-07 -1
g Common_Prop_Billboard_67_0
f 3/3/3 2/2/2 1/1/1
f 4/4/4 3/3/3 1/1/1
f 7/7/7 6/6/6 5/5/5
f 8/8/8 7/7/7 5/5/5
f 11/11/11 10/10/10 9/9/9
f 12/12/12 11/11/11 9/9/9
f 15/15/15 14/14/14 13/13/13
f 16/16/16 15/15/15 13/13/13
f 19/19/19 18/18/18 17/17/17
f 20/20/20 19/19/19 17/17/17
f 23/23/23 22/22/22 21/21/21
f 24/24/24 23/23/23 21/21/21
f 27/27/27 26/26/26 25/25/25
f 28/28/28 27/27/27 25/25/25
f 31/31/31 30/30/30 29/29/29
f 32/32/32 31/31/31 29/29/29
f 35/35/35 34/34/34 33/33/33
f 36/36/36 35/35/35 33/33/33
f 39/39/39 38/38/38 37/37/37
f 40/40/40 39/39/39 37/37/37
f 43/43/43 42/42/42 41/41/41
f 44/44/44 43/43/43 41/41/41
f 47/47/47 46/46/46 45/45/45
f 48/48/48 47/47/47 45/45/45
f 51/51/51 50/50/50 49/49/49
f 52/52/52 51/51/51 49/49/49
f 55/55/55 54/54/54 53/53/53
f 56/56/56 55/55/55 53/53/53
f 59/59/59 58/58/58 57/57/57
f 60/60/60 59/59/59 57/57/57
f 63/63/63 62/62/62 61/61/61
f 64/64/64 63/63/63 61/61/61
f 67/67/67 66/66/66 65/65/65
f 68/68/68 67/67/67 65/65/65
f 71/71/71 70/70/70 69/69/69
f 72/72/72 71/71/71 69/69/69
