g Common_Prop_Billboard_18
v 1.085874 0.026988525 0.034340132
v -1.085874 0.026984252 0.03433998
v -1.085874 0.7865152 0.03434017
v 1.085874 0.7865189 0.03434017
v -1.1128759 0.8135058 0.040522955
v -1.1128759 0.8135071 -0.04052307
v 1.1128759 0.8135071 -0.04052284
v 1.1128759 0.8135058 0.040522955
v 1.085874 0.78651243 0.04052334
v -1.085874 0.78651243 0.04052326
v -1.1128759 0.8135058 0.040522955
v 1.1128759 0.8135058 0.040522955
v 1.0858837 0.7865136 -0.040522613
v -1.0858837 0.7865136 -0.040522687
v -1.085874 0.78651243 0.04052326
v 1.085874 0.78651243 0.04052334
v 1.1128759 0.8135071 -0.04052284
v -1.1128759 0.8135071 -0.04052307
v -1.0858837 0.7865136 -0.040522687
v 1.0858837 0.7865136 -0.040522613
v -1.1128759 0.8135058 0.040522955
v -1.1128759 -6.1035155E-07 0.040522955
v -1.1128759 -1.8310546E-06 -0.040523145
v -1.1128759 0.8135071 -0.04052307
v -1.085874 0.78651243 0.04052326
v -1.085874 0.026992798 0.04052334
v -1.1128759 -6.1035155E-07 0.040522955
v -1.1128759 0.8135058 0.040522955
v -1.0858837 0.7865136 -0.040522687
v -1.0858837 0.026991576 -0.04052284
v -1.085874 0.026992798 0.04052334
v -1.085874 0.78651243 0.04052326
v -1.1128759 0.8135071 -0.04052307
v -1.1128759 -1.8310546E-06 -0.040523145
v -1.0858837 0.026991576 -0.04052284
v -1.0858837 0.7865136 -0.040522687
v -1.1128759 -6.1035155E-07 0.040522955
v 1.1128759 -6.1035155E-07 0.040523034
v 1.1128759 -1.8310546E-06 -0.040523145
v -1.1128759 -1.8310546E-06 -0.040523145
v -1.085874 0.026992798 0.04052334
v 1.085874 0.026992798 0.04052334
v 1.1128759 -6.1035155E-07 0.040523034
v -1.1128759 -6.1035155E-07 0.040522955
v -1.0858837 0.026991576 -0.04052284
v 1.0858837 0.026990967 -0.04052284
v 1.085874 0.026992798 0.04052334
v -1.085874 0.026992798 0.04052334
v -1.1128759 -1.8310546E-06 -0.040523145
v 1.1128759 -1.8310546E-06 -0.040523145
v 1.0858837 0.026990967 -0.04052284
v -1.0858837 0.026991576 -0.04052284
v 1.1128759 -6.1035155E-07 0.040523034
v 1.1128759 0.8135058 0.040522955
v 1.1128759 0.8135071 -0.04052284
v 1.1128759 -1.8310546E-06 -0.040523145
v 1.085874 0.026992798 0.04052334
v 1.085874 0.78651243 0.04052334
v 1.1128759 0.8135058 0.040522955
v 1.1128759 -6.1035155E-07 0.040523034
v 1.0858837 0.026990967 -0.04052284
v 1.0858837 0.7865136 -0.040522613
v 1.085874 0.78651243 0.04052334
v 1.085874 0.026992798 0.04052334
v 1.1128759 -1.8310546E-06 -0.040523145
v 1.1128759 0.8135071 -0.04052284
v 1.0858837 0.7865136 -0.040522613
v 1.0858837 0.026990967 -0.04052284
v -1.085874 0.026988525 -0.034742583
v 1.085874 0.026984252 -0.034742735
v 1.085874 0.7865152 -0.03474327
v -1.085874 0.7865189 -0.034742966
vt 0.9946289 0.0056419373
vt 0.7680664 0.0056419373
vt 0.7680664 0.08483887
vt 0.9946289 0.08483887
vt 1.1679688 0.97314453
vt 1.1679688 0.98535156
vt 1.5019531 0.98535156
vt 1.5019531 0.97314453
vt 1.4980469 0.9628906
vt 1.171875 0.9628906
vt 1.1679688 0.9667969
vt 1.5019531 0.9667969
vt 1.4980469 0.97314453
vt 1.171875 0.97314453
vt 1.171875 0.98535156
vt 1.4980469 0.98535156
vt 1.5019531 0.9628906
vt 1.1679688 0.9628906
vt 1.171875 0.9667969
vt 1.4980469 0.9667969
vt 3.7363281 0.97314453
vt 3.6171875 0.97314453
vt 3.6171875 0.98535156
vt 3.7363281 0.98535156
vt 3.7324219 0.9628906
vt 3.6210938 0.9628906
vt 3.6171875 0.9667969
vt 3.7363281 0.9667969
vt 3.7324219 0.97314453
vt 3.6210938 0.97314453
vt 3.6210938 0.98535156
vt 3.7324219 0.98535156
vt 3.7363281 0.9628906
vt 3.6171875 0.9628906
vt 3.6210938 0.9667969
vt 3.7324219 0.9667969
vt 1.5029297 0.97314453
vt 1.1689453 0.97314453
vt 1.1689453 0.98535156
vt 1.5029297 0.98535156
vt 1.4990234 0.9628906
vt 1.1728516 0.9628906
vt 1.1689453 0.9667969
vt 1.5029297 0.9667969
vt 1.4990234 0.97314453
vt 1.1728516 0.97314453
vt 1.1728516 0.98535156
vt 1.4990234 0.98535156
vt 1.5029297 0.9628906
vt 1.1689453 0.9628906
vt 1.1728516 0.9667969
vt 1.4990234 0.9667969
vt 0.7578125 0.97314453
vt 0.63720703 0.97314453
vt 0.63720703 0.98535156
vt 0.7578125 0.98535156
vt 0.75390625 0.9628906
vt 0.6411133 0.9628906
vt 0.63720703 0.9667969
vt 0.7578125 0.9667969
vt 0.75390625 0.97314453
vt 0.6411133 0.97314453
vt 0.6411133 0.98535156
vt 0.75390625 0.98535156
vt 0.7578125 0.9628906
vt 0.63720703 0.9628906
vt 0.6411133 0.9667969
vt 0.75390625 0.9667969
vt 0.9946289 0.0056419373
vt 0.7680664 0.0056419373
vt 0.7680664 0.08483887
vt 0.9946289 0.08483887
vn -0 0 1
vn -0 -2.3841858E-07 1
vn -0 -1.7881393E-07 1
vn -0 0 1
vn -0 1 1.5079975E-05
vn -0 1 1.5079975E-05
vn -0 1 1.5079975E-05
vn -0 1 1.5079975E-05
vn 3.5762787E-06 1.0550022E-05 1
vn -3.0994415E-06 8.225441E-06 1
vn -3.0994415E-06 8.225441E-06 1
vn 3.5762787E-06 1.0550022E-05 1
vn -0 -1 -1.5079975E-05
vn -0 -1 -1.5079975E-05
vn -0 -1 -1.5079975E-05
vn -0 -1 -1.5079975E-05
vn -2.3841858E-06 -6.1392784E-06 -1
vn 3.695488E-06 -1.0430813E-05 -1
vn 3.695488E-06 -1.0371208E-05 -1
vn -2.3841858E-06 -6.0796738E-06 -1
vn -1 0 0
vn -1 0 0
vn -1 0 0
vn -1 0 0
vn -3.0994415E-06 8.225441E-06 1
vn -3.6358833E-06 -1.04904175E-05 1
vn -3.6358833E-06 -1.04904175E-05 1
vn -3.0994415E-06 8.225441E-06 1
vn 1 0 -0.00012052059
vn 1 0 -0.00012052059
vn 1 0 -0.00012052059
vn 1 0 -0.00012052059
vn 3.695488E-06 -1.0430813E-05 -1
vn 3.0398369E-06 8.225441E-06 -1
vn 3.0398369E-06 8.225441E-06 -1
vn 3.695488E-06 -1.0371208E-05 -1
vn -0 -1 1.5079975E-05
vn -0 -1 1.5079975E-05
vn -0 -1 1.5079975E-05
vn -0 -1 1.5079975E-05
vn -3.6358833E-06 -1.04904175E-05 1
vn 3.0994415E-06 -8.225441E-06 1
vn 3.0994415E-06 -8.225441E-06 1
vn -3.6358833E-06 -1.04904175E-05 1
vn -0 1 -1.5258789E-05
vn 2.9802322E-07 1 -2.259016E-05
vn 2.9802322E-07 1 -2.2411346E-05
vn -0 1 -1.5079975E-05
vn 3.0398369E-06 8.225441E-06 -1
vn -2.8014183E-06 8.523464E-06 -1
vn -2.8014183E-06 8.523464E-06 -1
vn 3.0398369E-06 8.225441E-06 -1
vn 1 0 0
vn 1 0 0
vn 1 0 0
vn 1 0 0
vn 3.0994415E-06 -8.225441E-06 1
vn 3.5762787E-06 1.0550022E-05 1
vn 3.5762787E-06 1.0550022E-05 1
vn 3.0994415E-06 -8.225441E-06 1
vn -1 0 -0.00012052059
vn -1 0 -0.00012052059
vn -1 0 -0.00012052059
vn -1 0 -0.00012052059
vn -2.8014183E-06 8.523464E-06 -1
vn -2.3841858E-06 -6.1392784E-06 -1
vn -2.3841858E-06 -6.0796738E-06 -1
vn -2.8014183E-06 8.523464E-06 -1
vn -1.1920929E-07 -5.364418E-07 -1
vn -0 -7.1525574E-07 -1
vn -0 -6.556511E-07 -1
vn -1.1920929E-07 -4.7683716E-07 -1
g Common_Prop_Billboard_18_0
f 3/3/3 2/2/2 1/1/1
f 4/4/4 3/3/3 1/1/1
f 7/7/7 6/6/6 5/5/5
f 8/8/8 7/7/7 5/5/5
f 11/11/11 10/10/10 9/9/9
f 12/12/12 11/11/11 9/9/9
f 15/15/15 14/14/14 13/13/13
f 16/16/16 15/15/15 13/13/13
f 19/19/19 18/18/18 17/17/17
f 20/20/20 19/19/19 17/17/17
f 23/23/23 22/22/22 21/21/21
f 24/24/24 23/23/23 21/21/21
f 27/27/27 26/26/26 25/25/25
f 28/28/28 27/27/27 25/25/25
f 31/31/31 30/30/30 29/29/29
f 32/32/32 31/31/31 29/29/29
f 35/35/35 34/34/34 33/33/33
f 36/36/36 35/35/35 33/33/33
f 39/39/39 38/38/38 37/37/37
f 40/40/40 39/39/39 37/37/37
f 43/43/43 42/42/42 41/41/41
f 44/44/44 43/43/43 41/41/41
f 47/47/47 46/46/46 45/45/45
f 48/48/48 47/47/47 45/45/45
f 51/51/51 50/50/50 49/49/49
f 52/52/52 51/51/51 49/49/49
f 55/55/55 54/54/54 53/53/53
f 56/56/56 55/55/55 53/53/53
f 59/59/59 58/58/58 57/57/57
f 60/60/60 59/59/59 57/57/57
f 63/63/63 62/62/62 61/61/61
f 64/64/64 63/63/63 61/61/61
f 67/67/67 66/66/66 65/65/65
f 68/68/68 67/67/67 65/65/65
f 71/71/71 70/70/70 69/69/69
f 72/72/72 71/71/71 69/69/69
