g ConstructionSite_Wall_SteelStructure_01
v -0.25 -4.0730228E-08 0.24999878
v 0.25 -4.0730228E-08 0.24999878
v 0.25 4.0730082E-08 -0.25000122
v -0.25 4.0730082E-08 -0.25000122
v -0.25 5 0.25
v -0.25 5 -0.2500006
v 0.25 5 -0.2500006
v 0.25 5 0.25
v -0.28 3.8560803 0.28
v -0.28 4.6 0.28
v 0.28 4.6 0.28
v 0.28 3.8560803 0.28
v 0.28 3.8560803 0.28
v 0.28 4.6 0.28
v 0.28 4.6 -0.2800006
v 0.28 3.8560803 -0.2800006
v 0.28 3.8560803 -0.2800006
v 0.28 4.6 -0.2800006
v -0.28 4.6 -0.2800006
v -0.28 3.8560803 -0.2800006
v -0.28 3.8560803 -0.2800006
v -0.28 4.6 -0.2800006
v -0.28 4.6 0.28
v -0.28 3.8560803 0.28
v -0.25 -4.0730228E-08 0.24999878
v -0.25 3.8560803 0.25
v 0.25 3.8560803 0.25
v 0.25 -4.0730228E-08 0.24999878
v 0.25 5 0.25
v 0.25 4.6 0.25
v -0.25 4.6 0.25
v -0.25 5 0.25
v 0.25 -4.0730228E-08 0.24999878
v 0.25 3.8560803 0.25
v 0.25 3.8560803 -0.2500006
v 0.25 4.0730082E-08 -0.25000122
v 0.25 5 -0.2500006
v 0.25 4.6 -0.2500006
v 0.25 4.6 0.25
v 0.25 5 0.25
v 0.25 4.0730082E-08 -0.25000122
v 0.25 3.8560803 -0.2500006
v -0.25 3.8560803 -0.2500006
v -0.25 4.0730082E-08 -0.25000122
v -0.25 5 -0.2500006
v -0.25 4.6 -0.2500006
v 0.25 4.6 -0.2500006
v 0.25 5 -0.2500006
v -0.25 4.0730082E-08 -0.25000122
v -0.25 3.8560803 -0.2500006
v -0.25 3.8560803 0.25
v -0.25 -4.0730228E-08 0.24999878
v -0.25 5 0.25
v -0.25 4.6 0.25
v -0.25 4.6 -0.2500006
v -0.25 5 -0.2500006
v 0.25 4.6 0.25
v 0.28 4.6 0.28
v -0.28 4.6 0.28
v -0.25 4.6 0.25
v -0.25 4.6 0.25
v -0.28 4.6 0.28
v -0.28 4.6 -0.2800006
v -0.25 4.6 -0.2500006
v -0.25 4.6 -0.2500006
v -0.28 4.6 -0.2800006
v 0.28 4.6 -0.2800006
v 0.25 4.6 -0.2500006
v 0.25 4.6 -0.2500006
v 0.28 4.6 -0.2800006
v 0.28 4.6 0.28
v 0.25 4.6 0.25
v -0.25 3.8560803 0.25
v -0.28 3.8560803 0.28
v 0.28 3.8560803 0.28
v 0.25 3.8560803 0.25
v 0.25 3.8560803 0.25
v 0.28 3.8560803 0.28
v 0.28 3.8560803 -0.2800006
v 0.25 3.8560803 -0.2500006
v 0.25 3.8560803 -0.2500006
v 0.28 3.8560803 -0.2800006
v -0.28 3.8560803 -0.2800006
v -0.25 3.8560803 -0.2500006
v -0.25 3.8560803 -0.2500006
v -0.28 3.8560803 -0.2800006
v -0.28 3.8560803 0.28
v -0.25 3.8560803 0.25
vt 0.7734375 0.8671875
vt 0.7734375 0.99560547
vt 0.89501953 0.99560547
vt 0.89501953 0.8671875
vt 0.7734375 0.99560547
vt 0.89501953 0.99560547
vt 0.89501953 0.8671875
vt 0.7734375 0.8671875
vt 0.77246094 0.44262695
vt 0.77246094 0.6333008
vt 0.9086914 0.6333008
vt 0.9086914 0.44262695
vt 0.77246094 0.23352051
vt 0.77246094 0.4243164
vt 0.9086914 0.4243164
vt 0.9086914 0.23352051
vt 0.77246094 0.44262695
vt 0.77246094 0.6333008
vt 0.9086914 0.6333008
vt 0.9086914 0.44262695
vt 0.77246094 0.23352051
vt 0.77246094 0.4243164
vt 0.9086914 0.4243164
vt 0.9086914 0.23352051
vt 0.0047950745 0.0032978058
vt 0.0047950745 0.9975586
vt 0.12670898 0.9975586
vt 0.12670898 0.0032978058
vt 0.89501953 0.8623047
vt 0.89501953 0.7597656
vt 0.7729492 0.7597656
vt 0.7729492 0.8623047
vt 0.13195801 0.0032978058
vt 0.13195801 0.9975586
vt 0.25390625 0.9975586
vt 0.25390625 0.0032978058
vt 0.89501953 0.7553711
vt 0.89501953 0.65283203
vt 0.7729492 0.65283203
vt 0.7729492 0.7553711
vt 0.0047912598 0.003358841
vt 0.0047912598 0.99560547
vt 0.12670898 0.99560547
vt 0.12670898 0.003358841
vt 0.89501953 0.8623047
vt 0.89501953 0.7597656
vt 0.7729492 0.7597656
vt 0.7729492 0.8623047
vt 0.13195801 0.003358841
vt 0.13195801 0.99560547
vt 0.25390625 0.99560547
vt 0.25390625 0.003358841
vt 0.89501953 0.7553711
vt 0.89501953 0.65283203
vt 0.7729492 0.65283203
vt 0.7729492 0.7553711
vt 0.9013672 0.6464844
vt 0.9086914 0.6386719
vt 0.77246094 0.6386719
vt 0.77978516 0.6464844
vt 0.9013672 0.4375
vt 0.9086914 0.4296875
vt 0.77246094 0.4296875
vt 0.77978516 0.4375
vt 0.9013672 0.6464844
vt 0.9086914 0.6386719
vt 0.77246094 0.6386719
vt 0.77978516 0.6464844
vt 0.9013672 0.4375
vt 0.9086914 0.4296875
vt 0.77246094 0.4296875
vt 0.77978516 0.4375
vt 0.77978516 0.6464844
vt 0.77246094 0.6386719
vt 0.9086914 0.6386719
vt 0.9013672 0.6464844
vt 0.77978516 0.4375
vt 0.77246094 0.4296875
vt 0.9086914 0.4296875
vt 0.9013672 0.4375
vt 0.77978516 0.6464844
vt 0.77246094 0.6386719
vt 0.9086914 0.6386719
vt 0.9013672 0.6464844
vt 0.77978516 0.4375
vt 0.77246094 0.4296875
vt 0.9086914 0.4296875
vt 0.9013672 0.4375
vn -0 -1 0
vn -0 -1 0
vn -0 -1 0
vn -0 -1 0
vn -0 1 0
vn -0 1 0
vn -0 1 0
vn -0 1 0
vn -0 0 1
vn -0 0 1
vn -0 0 1
vn -0 0 1
vn 1 0 0
vn 1 0 0
vn 1 0 0
vn 1 0 0
vn -0 0 -1
vn -0 0 -1
vn -0 0 -1
vn -0 0 -1
vn -1 0 0
vn -1 0 0
vn -1 0 0
vn -1 0 0
vn -0 -1.7881393E-07 1
vn -0 0 1
vn -0 0 1
vn -0 -1.7881393E-07 1
vn -0 0 1
vn -0 0 1
vn -0 0 1
vn -0 0 1
vn 1 0 0
vn 1 0 0
vn 1 0 0
vn 1 0 0
vn 1 0 0
vn 1 0 0
vn 1 0 0
vn 1 0 0
vn -0 1.7881393E-07 -1
vn -0 0 -1
vn -0 0 -1
vn -0 1.7881393E-07 -1
vn -0 0 -1
vn -0 0 -1
vn -0 0 -1
vn -0 0 -1
vn -1 0 0
vn -1 0 0
vn -1 0 0
vn -1 0 0
vn -1 0 0
vn -1 0 0
vn -1 0 0
vn -1 0 0
vn -0 1 0
vn -0 1 0
vn -0 1 0
vn -0 1 0
vn -0 1 0
vn -0 1 0
vn -0 1 0
vn -0 1 0
vn -0 1 0
vn -0 1 0
vn -0 1 0
vn -0 1 0
vn -0 1 0
vn -0 1 0
vn -0 1 0
vn -0 1 0
vn -0 -1 0
vn -0 -1 0
vn -0 -1 0
vn -0 -1 0
vn -0 -1 0
vn -0 -1 0
vn -0 -1 0
vn -0 -1 0
vn -0 -1 0
vn -0 -1 0
vn -0 -1 0
vn -0 -1 0
vn -0 -1 0
vn -0 -1 0
vn -0 -1 0
vn -0 -1 0
g ConstructionSite_Wall_SteelStructure_01_0
f 3/3/3 2/2/2 1/1/1
f 4/4/4 3/3/3 1/1/1
f 7/7/7 6/6/6 5/5/5
f 8/8/8 7/7/7 5/5/5
f 11/11/11 10/10/10 9/9/9
f 12/12/12 11/11/11 9/9/9
f 15/15/15 14/14/14 13/13/13
f 16/16/16 15/15/15 13/13/13
f 19/19/19 18/18/18 17/17/17
f 20/20/20 19/19/19 17/17/17
f 23/23/23 22/22/22 21/21/21
f 24/24/24 23/23/23 21/21/21
f 27/27/27 26/26/26 25/25/25
f 28/28/28 27/27/27 25/25/25
f 31/31/31 30/30/30 29/29/29
f 32/32/32 31/31/31 29/29/29
f 35/35/35 34/34/34 33/33/33
f 36/36/36 35/35/35 33/33/33
f 39/39/39 38/38/38 37/37/37
f 40/40/40 39/39/39 37/37/37
f 43/43/43 42/42/42 41/41/41
f 44/44/44 43/43/43 41/41/41
f 47/47/47 46/46/46 45/45/45
f 48/48/48 47/47/47 45/45/45
f 51/51/51 50/50/50 49/49/49
f 52/52/52 51/51/51 49/49/49
f 55/55/55 54/54/54 53/53/53
f 56/56/56 55/55/55 53/53/53
f 59/59/59 58/58/58 57/57/57
f 60/60/60 59/59/59 57/57/57
f 63/63/63 62/62/62 61/61/61
f 64/64/64 63/63/63 61/61/61
f 67/67/67 66/66/66 65/65/65
f 68/68/68 67/67/67 65/65/65
f 71/71/71 70/70/70 69/69/69
f 72/72/72 71/71/71 69/69/69
f 75/75/75 74/74/74 73/73/73
f 76/76/76 75/75/75 73/73/73
f 79/79/79 78/78/78 77/77/77
f 80/80/80 79/79/79 77/77/77
f 83/83/83 82/82/82 81/81/81
f 84/84/84 83/83/83 81/81/81
f 87/87/87 86/86/86 85/85/85
f 88/88/88 87/87/87 85/85/85
