g MetroArea_Ground_Damaged_01
v 0.57023436 -0.08700058 -0.5906283
v 0.27904326 -0.08911172 -0.58853483
v 0.5712872 -0.08911172 -0.5882512
v -0.4486325 -0.083240144 -0.58828336
v -0.4029251 -0.08911172 -0.5866803
v -0.5730307 -0.08911172 -0.5308029
v -0.57551175 -0.078611486 -0.5687979
v -0.5627472 -0.07340221 -0.5834416
v -0.44314757 -0.047465138 -0.59182125
v -0.5365817 -0.010680834 -0.5908978
v -0.054945372 0.050934926 -0.5918184
v -0.43960297 0.05380851 -0.591823
v 0.12932922 0.05026321 -0.59179866
v 0.3653204 0.040957656 -0.59181076
v 0.53818727 0.03429852 -0.5918809
v -0.4794522 0.060942836 -0.577986
v -0.43295988 0.08324121 -0.5725279
v -0.55165523 0.06950179 -0.5247853
v -0.18986998 0.08296331 -0.5836502
v -0.57561123 -0.005360237 -0.5533508
v -0.5627472 -0.07340221 -0.5834416
v -0.57551175 -0.078611486 -0.5687979
v -0.5751477 -0.08308811 -0.24721389
v -0.5730307 -0.08911172 -0.5308029
v -0.57301056 -0.08911172 -0.2494078
v -0.5613794 -0.08911172 -0.17715438
v -0.57560575 0.058985613 -0.46361938
v -0.079648435 0.0890265 -0.56352186
v -0.304086 0.08902315 -0.5506102
v -0.46077695 0.08901474 -0.44648468
v -0.45377105 0.08911172 -0.47798187
v -0.48831818 0.085899636 -0.53705794
v -0.56496185 0.08326498 -0.45275298
v -0.51782346 0.08902632 -0.45852646
v -0.57560056 0.063330255 -0.25276855
v 0.049092103 0.081826955 -0.58222747
v -0.5561395 0.08874641 -0.24215911
v -0.56308746 0.07226674 -0.19795242
v -0.5406677 0.08872936 -0.1342694
v 0.54381347 0.08856405 0.17599487
v -0.5403076 0.08865833 0.1275122
v 0.32892212 0.08901458 0.55591977
v -0.55819577 0.06991901 0.095293574
v -0.55561554 -0.08911172 0.17286499
v -0.56301576 -0.06921266 0.17884673
v -0.5721194 -0.08911172 0.2216803
v -0.56186676 0.07479436 0.18174835
v -0.57518035 -0.0822813 0.22088623
v -0.5735049 -0.08911172 0.58788115
v -0.5742563 -0.022195028 0.5819403
v -0.57235444 0.06972424 0.21399689
v -0.5530676 0.08843449 0.20581146
v -0.5755057 0.017299015 0.36872038
v -0.57060486 0.081027545 0.46431303
v -0.47172546 0.089026354 0.5447464
v -0.5664355 0.06338853 0.56339294
v -0.5475778 0.05219541 0.5853305
v -0.56650174 0.075228915 0.5431064
v -0.47104308 0.07877754 0.5831375
v -0.47696227 0.06448147 0.59172577
v -0.554169 -0.084186435 0.591221
v -0.5742563 -0.022195028 0.5819403
v -0.5735049 -0.08911172 0.58788115
v 0.5160605 -0.08911172 0.5885141
v 0.5319711 -0.08404694 0.59131193
v 0.55811495 0.058081035 0.5909326
v 0.56779236 -0.059178192 0.58575195
v -0.31979248 0.079685204 0.58639187
v 0.047467954 0.057994705 0.5918808
v -0.27424714 0.08882816 0.5770022
v 0.0039016723 0.07635012 0.5872217
v -0.11758301 0.089027196 0.56182003
v 0.00995697 0.08888328 0.5767917
v 0.09624512 0.08704931 0.5830411
v 0.23613219 0.07176756 0.59096986
v 0.4313739 0.07572533 0.590556
v 0.48052 0.08783363 0.56942594
v 0.5453308 0.08899448 0.51150906
v 0.5448105 0.08124201 0.57035613
v 0.5755969 0.063066915 0.55055296
v 0.5621204 0.088350065 0.44945282
v 0.56000215 0.08847793 0.24356566
v 0.57552886 0.060841274 0.23259674
v 0.5615805 0.07308559 0.17711182
v 0.5756015 -0.0060165273 0.5749509
v 0.56779236 -0.059178192 0.58575195
v 0.5755716 -0.07068714 0.22818999
v 0.57557863 -0.07524044 0.5125348
v 0.55144864 -0.08911172 0.5557907
v 0.5319711 -0.08404694 0.59131193
v 0.5160605 -0.08911172 0.5885141
v 0.57446074 -0.08697731 0.4336908
v 0.5554309 -0.08911172 0.16526519
v 0.5613382 -0.08029636 0.16770996
v 0.5620758 -0.08911172 -0.20762466
v 0.5523483 0.082162835 0.0133828735
v 0.5586627 0.07267836 -0.031025695
v 0.53239834 0.089024276 -0.1803012
v 0.18870544 0.089044094 -0.49680206
v 0.56299406 0.075492695 -0.20173217
v 0.056528013 0.08901838 -0.5380406
v 0.11614532 0.08279945 -0.5608783
v 0.18325867 0.07315964 -0.5879425
v 0.15960938 0.0810255 -0.5757312
v 0.32613984 0.0726922 -0.56659544
v 0.55688566 0.08851648 -0.24770705
v 0.5114209 0.057859156 -0.5726132
v 0.55248505 0.08117247 -0.3795169
v 0.454747 0.07264242 -0.50121003
v 0.5616363 0.055052217 -0.5493849
v 0.57181275 0.06722272 -0.4306958
v 0.5755716 0.06534379 -0.249915
v 0.5746594 -0.011684191 -0.57678616
v 0.57023436 -0.08700058 -0.5906283
v 0.5712872 -0.08911172 -0.5882512
v 0.57561123 0.050509457 -0.46705046
v 0.57558227 -0.07647758 -0.24991287
v 0.572012 -0.08911172 -0.24691147
vt 0.93408203 0.44921875
vt 0.8457031 0.45117188
vt 0.9345703 0.4501953
vt 0.6254883 0.45214844
vt 0.63964844 0.45410156
vt 0.5810547 0.4663086
vt 0.5810547 0.45214844
vt 0.5854492 0.44702148
vt 0.6274414 0.44140625
vt 0.59472656 0.42285156
vt 0.7446289 0.41137695
vt 0.63134766 0.4111328
vt 0.7998047 0.41064453
vt 0.87060547 0.41137695
vt 0.9248047 0.41015625
vt 0.6201172 0.4050293
vt 0.63378906 0.40112305
vt 0.6015625 0.38867188
vt 0.7050781 0.4025879
vt 0.5830078 0.40527344
vt 0.5654297 0.42333984
vt 0.56103516 0.41601562
vt 0.5415039 0.31445312
vt 0.55566406 0.40454102
vt 0.5395508 0.3154297
vt 0.5390625 0.29077148
vt 0.5932617 0.37353516
vt 0.73779297 0.3972168
vt 0.6713867 0.39404297
vt 0.6254883 0.36547852
vt 0.6279297 0.37426758
vt 0.6191406 0.39086914
vt 0.5991211 0.36914062
vt 0.61083984 0.36987305
vt 0.58691406 0.31152344
vt 0.7753906 0.40185547
vt 0.5957031 0.30737305
vt 0.58984375 0.29467773
vt 0.59814453 0.2746582
vt 0.9199219 0.1730957
vt 0.5961914 0.19543457
vt 0.8520508 0.06298828
vt 0.5878906 0.20532227
vt 0.5371094 0.18273926
vt 0.54345703 0.18029785
vt 0.5366211 0.1665039
vt 0.58740234 0.17895508
vt 0.5385742 0.16674805
vt 0.54052734 0.054351807
vt 0.56103516 0.056915283
vt 0.58496094 0.16906738
vt 0.59228516 0.171875
vt 0.5698242 0.1227417
vt 0.5883789 0.09509277
vt 0.61621094 0.07165527
vt 0.58740234 0.06555176
vt 0.58984375 0.055786133
vt 0.58935547 0.072143555
vt 0.61572266 0.06011963
vt 0.61328125 0.05545044
vt 0.5878906 0.011543274
vt 0.5810547 0.031677246
vt 0.58203125 0.0099105835
vt 0.9067383 0.0019102097
vt 0.9116211 0.0035171509
vt 0.92041016 0.045684814
vt 0.9223633 0.010620117
vt 0.65966797 0.05871582
vt 0.7680664 0.04901123
vt 0.67333984 0.06201172
vt 0.7553711 0.05496216
vt 0.71972656 0.064819336
vt 0.7573242 0.059661865
vt 0.7832031 0.057128906
vt 0.82470703 0.051818848
vt 0.8823242 0.05154419
vt 0.8964844 0.057647705
vt 0.91503906 0.07324219
vt 0.91503906 0.055541992
vt 0.92578125 0.060668945
vt 0.92041016 0.091308594
vt 0.92333984 0.15246582
vt 0.9326172 0.15478516
vt 0.9277344 0.17053223
vt 0.9453125 0.050750732
vt 0.9638672 0.044647217
vt 0.9711914 0.15429688
vt 0.96777344 0.06903076
vt 0.9770508 0.05517578
vt 0.9794922 0.040130615
vt 0.98583984 0.039489746
vt 0.97216797 0.09240723
vt 0.97998047 0.17321777
vt 0.9765625 0.17260742
vt 0.9814453 0.29296875
vt 0.9243164 0.22424316
vt 0.92822266 0.23791504
vt 0.91845703 0.28320312
vt 0.81689453 0.37719727
vt 0.9291992 0.2902832
vt 0.77783203 0.38964844
vt 0.79589844 0.39672852
vt 0.81591797 0.4038086
vt 0.80859375 0.39990234
vt 0.85791016 0.39916992
vt 0.92529297 0.30371094
vt 0.9145508 0.40112305
vt 0.92333984 0.34277344
vt 0.8955078 0.37939453
vt 0.9272461 0.39282227
vt 0.9291992 0.35791016
vt 0.93359375 0.30493164
vt 0.9453125 0.40405273
vt 0.96777344 0.41259766
vt 0.9682617 0.4116211
vt 0.9326172 0.36914062
vt 0.9770508 0.30737305
vt 0.98095703 0.30688477
vn 0.022033691 -0.03277588 -0.99902344
vn -0.0036010742 -0.40795898 -0.91308594
vn 0.9970703 -0.066223145 -0.034576416
vn -0.023086548 -0.23352051 -0.97216797
vn -0.011734009 -0.3474121 -0.9375
vn -0.7451172 -0.6533203 -0.1340332
vn -0.9628906 -0.24719238 -0.10900879
vn -0.3046875 -0.2590332 -0.9165039
vn -0.004169464 -0.042419434 -0.99902344
vn -0.28735352 0.16882324 -0.9428711
vn -0.00016629696 0.025756836 -0.9995117
vn -0.018569946 0.10070801 -0.9946289
vn -0.0026435852 0.0592041 -0.9980469
vn 0.008239746 0.122558594 -0.9921875
vn 0.10089111 0.12902832 -0.9863281
vn -0.3564453 0.5708008 -0.7397461
vn -0.056549072 0.9057617 -0.41967773
vn -0.59765625 0.65771484 -0.45874023
vn 0.0003991127 0.5786133 -0.8154297
vn -0.98876953 0.07757568 -0.12854004
vn -0.3046875 -0.2590332 -0.9165039
vn -0.9628906 -0.24719238 -0.10900879
vn -0.9980469 -0.014678955 0.0579834
vn -0.7451172 -0.6533203 -0.1340332
vn -0.9394531 -0.34155273 0.022598267
vn -0.99902344 -0.00497818 0.044128418
vn -0.9970703 0.06994629 -0.025100708
vn 0.007789612 0.98828125 -0.15332031
vn -0.005168915 0.99853516 -0.056274414
vn -0.000116825104 1 0.0008702278
vn -0.012893677 0.99902344 -0.03805542
vn -0.13354492 0.96777344 -0.21325684
vn -0.48388672 0.87353516 -0.05731201
vn -0.049560547 0.99853516 -0.020309448
vn -0.9926758 0.110839844 0.046295166
vn 0.02178955 0.7050781 -0.7089844
vn -0.30029297 0.9536133 0.014076233
vn -0.99609375 0.068237305 0.054748535
vn -0.01461792 1 0.001080513
vn 0.0045433044 1 -0.00026917458
vn -0.007423401 1 -0.0006451607
vn -0.00018167496 1 0.005908966
vn -0.99609375 0.088256836 0.0075950623
vn -1 -0.019821167 -0.004131317
vn -0.9658203 -0.06121826 -0.25219727
vn -0.91503906 -0.39941406 -0.056396484
vn -0.9848633 0.12359619 -0.11956787
vn -0.9980469 -0.030212402 -0.052978516
vn -0.9946289 -0.03677368 0.09625244
vn -0.9892578 0.018997192 0.14660645
vn -0.97802734 0.19763184 -0.067871094
vn -0.18383789 0.98291016 -0.005710602
vn -1 0.021636963 0.0022392273
vn -0.60253906 0.7973633 0.030212402
vn -0.01737976 0.9995117 0.023117065
vn -0.9057617 0.3227539 0.27416992
vn -0.23608398 0.21313477 0.9482422
vn -0.2836914 0.94384766 0.16955566
vn -0.066345215 0.8833008 0.46411133
vn -0.0079422 0.016830444 1
vn -0.009689331 -0.08618164 0.99609375
vn -0.9892578 0.018997192 0.14660645
vn -0.9946289 -0.03677368 0.09625244
vn 0.008781433 -0.5048828 0.86328125
vn 0.006954193 -0.010429382 1
vn 0.026107788 0.022323608 0.9995117
vn 0.6635742 -0.19763184 0.7216797
vn -0.027038574 0.59375 0.8041992
vn 0.0016975403 0.0016946793 1
vn -0.0005636215 0.99902344 0.042175293
vn -0.007865906 0.35083008 0.93652344
vn 0.0028858185 0.9995117 0.027679443
vn -0.00022757053 1 0.002128601
vn -0.0017528534 0.734375 0.6791992
vn 0.026550293 0.48535156 0.87402344
vn -0.010063171 0.57714844 0.81689453
vn 0.021255493 0.98779297 0.1550293
vn 0.013069153 1 0.0054092407
vn 0.26416016 0.8769531 0.40112305
vn 0.99072266 0.12939453 0.040985107
vn 0.7207031 0.6933594 0.0029563904
vn 0.49365234 0.8696289 -0.015670776
vn 0.9970703 0.0647583 -0.039794922
vn 0.98876953 0.11541748 -0.09429932
vn 0.97558594 -0.0011978149 0.21911621
vn 0.6635742 -0.19763184 0.7216797
vn 0.9916992 -0.11895752 -0.04864502
vn 0.9970703 -0.07324219 0.015731812
vn 0.59765625 -0.77197266 0.21618652
vn 0.006954193 -0.010429382 1
vn 0.008781433 -0.5048828 0.86328125
vn 0.47192383 -0.88183594 0.0014419556
vn 0.7832031 -0.62158203 -0.0066223145
vn 0.99853516 -0.029953003 -0.049560547
vn 0.99902344 0.005783081 0.048309326
vn 0.921875 0.38745117 0.014404297
vn 0.99902344 0.041015625 0.012298584
vn 0.007858276 1 0.00092220306
vn 0.008956909 1 -0.016693115
vn 0.98583984 0.15332031 0.07092285
vn 0.0047912598 1 -0.021530151
vn 0.047851562 0.9423828 -0.3310547
vn 0.0115356445 0.44555664 -0.89501953
vn 0.030670166 0.9848633 -0.17016602
vn 0.0546875 0.9873047 -0.15002441
vn 0.08300781 0.9951172 -0.049041748
vn 0.08526611 0.9082031 -0.41015625
vn 0.06854248 0.99365234 -0.08831787
vn 0.07763672 0.98779297 -0.13549805
vn 0.46777344 0.8544922 -0.22595215
vn 0.7421875 0.6660156 -0.07623291
vn 0.9941406 0.09832764 0.047668457
vn 0.99072266 0.01638794 -0.13452148
vn 0.022033691 -0.03277588 -0.99902344
vn 0.9970703 -0.066223145 -0.034576416
vn 0.9995117 0.033813477 -0.015899658
vn 0.9975586 -0.040283203 0.05783081
vn 0.9638672 -0.26489258 0.03161621
g MetroArea_Ground_Damaged_01_0
f 3/3/3 2/2/2 1/1/1
f 1/1/1 2/2/2 4/4/4
f 2/2/2 5/5/5 4/4/4
f 5/5/5 6/6/6 4/4/4
f 6/6/6 7/7/7 4/4/4
f 4/4/4 7/7/7 8/8/8
f 4/4/4 8/8/8 9/9/9
f 1/1/1 4/4/4 9/9/9
f 9/9/9 8/8/8 10/10/10
f 1/1/1 9/9/9 11/11/11
f 9/9/9 10/10/10 12/12/12
f 11/11/11 9/9/9 12/12/12
f 13/13/13 1/1/1 11/11/11
f 14/14/14 1/1/1 13/13/13
f 1/1/1 14/14/14 15/15/15
f 12/12/12 10/10/10 16/16/16
f 16/16/16 17/17/17 12/12/12
f 16/16/16 10/10/10 18/18/18
f 18/18/18 17/17/17 16/16/16
f 11/11/11 12/12/12 19/19/19
f 17/17/17 19/19/19 12/12/12
f 10/10/10 20/20/20 18/18/18
f 10/10/10 21/21/21 20/20/20
f 21/21/21 22/22/22 20/20/20
f 22/22/22 23/23/23 20/20/20
f 22/22/22 24/24/24 23/23/23
f 24/24/24 25/25/25 23/23/23
f 23/23/23 25/25/25 26/26/26
f 20/20/20 27/27/27 18/18/18
f 23/23/23 27/27/27 20/20/20
f 19/19/19 28/28/28 11/11/11
f 17/17/17 29/29/29 19/19/19
f 29/29/29 28/28/28 19/19/19
f 29/29/29 30/30/30 28/28/28
f 30/30/30 29/29/29 31/31/31
f 31/31/31 29/29/29 17/17/17
f 18/18/18 32/32/32 17/17/17
f 32/32/32 31/31/31 17/17/17
f 33/33/33 18/18/18 27/27/27
f 18/18/18 33/33/33 32/32/32
f 32/32/32 34/34/34 31/31/31
f 30/30/30 31/31/31 34/34/34
f 33/33/33 34/34/34 32/32/32
f 27/27/27 23/23/23 35/35/35
f 33/33/33 27/27/27 35/35/35
f 28/28/28 36/36/36 11/11/11
f 11/11/11 36/36/36 13/13/13
f 33/33/33 37/37/37 34/34/34
f 35/35/35 37/37/37 33/33/33
f 38/38/38 35/35/35 23/23/23
f 35/35/35 38/38/38 37/37/37
f 23/23/23 26/26/26 38/38/38
f 37/37/37 39/39/39 34/34/34
f 38/38/38 39/39/39 37/37/37
f 30/30/30 34/34/34 39/39/39
f 40/40/40 30/30/30 39/39/39
f 39/39/39 41/41/41 40/40/40
f 40/40/40 41/41/41 42/42/42
f 39/39/39 43/43/43 41/41/41
f 39/39/39 38/38/38 43/43/43
f 38/38/38 26/26/26 43/43/43
f 26/26/26 44/44/44 43/43/43
f 43/43/43 44/44/44 45/45/45
f 45/45/45 44/44/44 46/46/46
f 47/47/47 41/41/41 43/43/43
f 43/43/43 45/45/45 47/47/47
f 45/45/45 46/46/46 48/48/48
f 48/48/48 46/46/46 49/49/49
f 48/48/48 49/49/49 50/50/50
f 47/47/47 45/45/45 51/51/51
f 45/45/45 48/48/48 51/51/51
f 47/47/47 52/52/52 41/41/41
f 52/52/52 47/47/47 51/51/51
f 51/51/51 48/48/48 53/53/53
f 53/53/53 48/48/48 50/50/50
f 51/51/51 53/53/53 54/54/54
f 51/51/51 54/54/54 52/52/52
f 53/53/53 50/50/50 54/54/54
f 52/52/52 55/55/55 41/41/41
f 54/54/54 55/55/55 52/52/52
f 54/54/54 50/50/50 56/56/56
f 56/56/56 50/50/50 57/57/57
f 56/56/56 58/58/58 54/54/54
f 58/58/58 55/55/55 54/54/54
f 56/56/56 59/59/59 58/58/58
f 57/57/57 59/59/59 56/56/56
f 59/59/59 55/55/55 58/58/58
f 57/57/57 60/60/60 59/59/59
f 57/57/57 61/61/61 60/60/60
f 62/62/62 61/61/61 57/57/57
f 62/62/62 63/63/63 61/61/61
f 61/61/61 63/63/63 64/64/64
f 61/61/61 64/64/64 65/65/65
f 66/66/66 61/61/61 65/65/65
f 66/66/66 65/65/65 67/67/67
f 68/68/68 55/55/55 59/59/59
f 60/60/60 68/68/68 59/59/59
f 61/61/61 69/69/69 60/60/60
f 61/61/61 66/66/66 69/69/69
f 55/55/55 68/68/68 70/70/70
f 41/41/41 55/55/55 70/70/70
f 68/68/68 60/60/60 71/71/71
f 70/70/70 68/68/68 71/71/71
f 60/60/60 69/69/69 71/71/71
f 41/41/41 70/70/70 72/72/72
f 70/70/70 71/71/71 72/72/72
f 41/41/41 72/72/72 73/73/73
f 72/72/72 71/71/71 73/73/73
f 41/41/41 73/73/73 42/42/42
f 74/74/74 73/73/73 71/71/71
f 71/71/71 69/69/69 74/74/74
f 73/73/73 74/74/74 42/42/42
f 69/69/69 75/75/75 74/74/74
f 69/69/69 66/66/66 75/75/75
f 42/42/42 74/74/74 75/75/75
f 75/75/75 66/66/66 76/76/76
f 42/42/42 75/75/75 76/76/76
f 76/76/76 77/77/77 42/42/42
f 42/42/42 77/77/77 78/78/78
f 40/40/40 42/42/42 78/78/78
f 77/77/77 76/76/76 79/79/79
f 76/76/76 66/66/66 79/79/79
f 77/77/77 79/79/79 78/78/78
f 66/66/66 80/80/80 79/79/79
f 78/78/78 79/79/79 81/81/81
f 81/81/81 79/79/79 80/80/80
f 82/82/82 78/78/78 81/81/81
f 40/40/40 78/78/78 82/82/82
f 81/81/81 83/83/83 82/82/82
f 81/81/81 80/80/80 83/83/83
f 82/82/82 83/83/83 84/84/84
f 40/40/40 82/82/82 84/84/84
f 80/80/80 66/66/66 85/85/85
f 66/66/66 86/86/86 85/85/85
f 80/80/80 87/87/87 83/83/83
f 84/84/84 83/83/83 87/87/87
f 80/80/80 85/85/85 88/88/88
f 86/86/86 88/88/88 85/85/85
f 88/88/88 87/87/87 80/80/80
f 88/88/88 86/86/86 89/89/89
f 86/86/86 90/90/90 89/89/89
f 89/89/89 90/90/90 91/91/91
f 92/92/92 88/88/88 89/89/89
f 92/92/92 87/87/87 88/88/88
f 92/92/92 89/89/89 93/93/93
f 92/92/92 93/93/93 87/87/87
f 94/94/94 87/87/87 93/93/93
f 87/87/87 94/94/94 84/84/84
f 94/94/94 93/93/93 95/95/95
f 84/84/84 96/96/96 40/40/40
f 84/84/84 94/94/94 96/96/96
f 97/97/97 94/94/94 95/95/95
f 96/96/96 94/94/94 97/97/97
f 98/98/98 40/40/40 96/96/96
f 98/98/98 30/30/30 40/40/40
f 99/99/99 30/30/30 98/98/98
f 96/96/96 97/97/97 100/100/100
f 97/97/97 95/95/95 100/100/100
f 98/98/98 96/96/96 100/100/100
f 30/30/30 99/99/99 101/101/101
f 28/28/28 30/30/30 101/101/101
f 28/28/28 101/101/101 36/36/36
f 101/101/101 102/102/102 36/36/36
f 102/102/102 101/101/101 99/99/99
f 36/36/36 102/102/102 13/13/13
f 13/13/13 102/102/102 103/103/103
f 14/14/14 13/13/13 103/103/103
f 103/103/103 102/102/102 104/104/104
f 102/102/102 99/99/99 104/104/104
f 103/103/103 104/104/104 105/105/105
f 105/105/105 14/14/14 103/103/103
f 104/104/104 99/99/99 105/105/105
f 99/99/99 98/98/98 106/106/106
f 100/100/100 106/106/106 98/98/98
f 14/14/14 105/105/105 107/107/107
f 15/15/15 14/14/14 107/107/107
f 108/108/108 105/105/105 99/99/99
f 106/106/106 108/108/108 99/99/99
f 107/107/107 105/105/105 109/109/109
f 105/105/105 108/108/108 109/109/109
f 107/107/107 109/109/109 110/110/110
f 15/15/15 107/107/107 110/110/110
f 108/108/108 110/110/110 109/109/109
f 108/108/108 106/106/106 111/111/111
f 108/108/108 111/111/111 110/110/110
f 100/100/100 112/112/112 106/106/106
f 106/106/106 112/112/112 111/111/111
f 110/110/110 113/113/113 15/15/15
f 15/15/15 113/113/113 114/114/114
f 113/113/113 115/115/115 114/114/114
f 111/111/111 116/116/116 110/110/110
f 112/112/112 116/116/116 111/111/111
f 116/116/116 113/113/113 110/110/110
f 100/100/100 117/117/117 112/112/112
f 117/117/117 116/116/116 112/112/112
f 113/113/113 116/116/116 117/117/117
f 117/117/117 115/115/115 113/113/113
f 95/95/95 117/117/117 100/100/100
f 117/117/117 118/118/118 115/115/115
f 95/95/95 118/118/118 117/117/117
