g MetroArea_Ground_Damaged_02
v 0.54883695 0.048121016 0.56246156
v 0.5721138 -0.06820777 0.55801785
v 0.5051121 -0.06820777 0.5918686
v 0.48661178 0.05443436 0.59100765
v 0.4758911 0.067918114 0.5740704
v 0.26053923 0.057960425 0.58667755
v 0.1890892 0.040436413 0.5918771
v -0.5384887 -0.06820777 0.5915414
v -0.51572263 0.04255353 0.59187317
v -0.53639764 -0.00736912 0.5903134
v 0.12060806 0.054933127 0.5907898
v 0.22253524 0.065281205 0.5465661
v -0.066389315 0.04894337 0.59158385
v -0.13526855 0.067447506 0.5785583
v 0.15511611 0.06791592 0.5345343
v -0.4831523 0.06792528 0.57204586
v 0.24675795 0.06792463 0.48379272
v -0.55944675 0.03164705 0.55318296
v -0.53639764 -0.00736912 0.5903134
v -0.5089329 0.06792499 0.42574888
v -0.52065796 0.06792188 0.077046506
v 0.47655624 0.06792494 -0.011312866
v -0.33512405 0.06611723 -0.19125396
v -0.051369473 0.06820777 -0.57232744
v 0.5274269 0.06792082 -0.21801086
v 0.4756311 0.06792221 0.4395865
v -0.5238655 0.06578272 0.55283505
v -0.53038603 0.06792192 0.44926238
v -0.54347223 0.06781969 0.22981262
v -0.57509845 -0.027382901 0.5457657
v -0.5763439 0.027091635 0.4091504
v -0.5755119 -0.06820777 0.54744107
v -0.5384887 -0.06820777 0.5915414
v -0.5763282 -0.06820777 0.22537811
v -0.5762959 0.038546924 0.2660681
v -0.540894 0.06771504 0.1451718
v -0.5758548 0.022944316 0.22650726
v -0.55968344 -0.06820777 0.17469147
v -0.564009 0.022254435 0.18090454
v -0.5595565 0.015214309 0.08460205
v -0.5592977 -0.06820777 0.07034698
v -0.5517883 0.03661936 0.06711242
v -0.4779778 0.067904726 -0.016820373
v -0.5283133 0.037482243 0.01717865
v -0.49293578 -0.06820777 -0.07137039
v -0.4768106 0.030699408 -0.06316299
v -0.434158 0.05889941 -0.09362259
v -0.4787023 0.039512616 -0.12484924
v -0.46577057 -0.06820777 -0.38395506
v -0.4570333 0.055042088 -0.12182785
v -0.45451635 0.049692776 -0.27380446
v -0.45463264 0.02474925 -0.38663146
v -0.42904556 0.018300628 -0.4567659
v -0.38413832 -0.06820777 -0.5593068
v -0.28878295 0.06792698 -0.46404052
v -0.4394905 0.04873676 -0.39650664
v -0.31531632 -0.002893387 -0.5918773
v -0.35562482 -0.06820777 -0.5884726
v -0.28227082 0.038960546 -0.59031004
v -0.4222 0.04852083 -0.43802962
v -0.38302338 0.05424334 -0.47364837
v -0.30664915 0.062731974 -0.53056884
v -0.27420378 0.0678631 -0.54956096
v -0.11645965 0.057879876 -0.5903659
v -0.31531632 -0.002893387 -0.5918773
v 0.48930693 0.037693627 -0.5918512
v 0.5174011 -0.06820777 -0.5918493
v -0.35562482 -0.06820777 -0.5884726
v 0.5040062 0.019497229 -0.59179914
v 0.29279038 0.0588452 -0.58996826
v 0.41059616 0.05014497 -0.59162736
v 0.33874023 0.067833364 -0.57338285
v 0.5170297 0.049285803 -0.546705
v 0.5040062 0.019497229 -0.59179914
v 0.18609177 0.06792542 -0.5474165
v 0.30735824 0.06792543 -0.5715777
v 0.43881226 0.06762344 -0.5170236
v 0.53497845 0.06792612 -0.37029997
v 0.4915144 0.06785401 -0.4894284
v 0.57361555 0.05586762 -0.29606873
v 0.57484925 0.024533752 -0.4894888
v 0.5719366 -0.06820777 -0.5144128
v 0.5174011 -0.06820777 -0.5918493
v 0.57634383 -0.063358925 -0.28078628
v 0.5718205 -0.06820777 -0.24876724
v 0.5748428 0.046408236 -0.26186582
v 0.55141634 -0.002223391 -0.21798538
v 0.54915375 -0.06820777 -0.19736266
v 0.54152966 0.05193197 -0.19126876
v 0.54912275 -0.06820777 0.1573349
v 0.53629 0.062635235 -0.045818023
v 0.5419351 0.044731196 0.035441894
v 0.53998244 0.06539324 0.10113617
v 0.5409259 0.054632947 0.17437805
v 0.551674 -0.06820777 0.18849395
v 0.52913225 0.06584515 0.17275696
v 0.57470363 0.03735699 0.23690581
v 0.5748259 -0.067994334 0.22865966
v 0.52737194 0.06793744 0.3098178
v 0.55175 0.067845814 0.24500579
v 0.5679132 0.057495907 0.36033875
v 0.5748648 0.03192403 0.3207733
v 0.57413924 0.0532332 0.49774107
v 0.5721138 -0.06820777 0.55801785
v 0.52414167 0.06792297 0.52856565
v 0.5604066 0.06217419 0.5303955
v 0.5748755 0.036353845 0.5272827
vt 0.9448242 0.5097656
vt 0.95703125 0.4711914
vt 0.9316406 0.46826172
vt 0.9238281 0.5048828
vt 0.92089844 0.5107422
vt 0.85791016 0.5058594
vt 0.8364258 0.5004883
vt 0.6176758 0.46850586
vt 0.6245117 0.5019531
vt 0.61816406 0.48706055
vt 0.81591797 0.5048828
vt 0.8466797 0.5185547
vt 0.7597656 0.50341797
vt 0.73876953 0.5097656
vt 0.8261719 0.52246094
vt 0.6347656 0.51171875
vt 0.8535156 0.5371094
vt 0.6088867 0.5151367
vt 0.60302734 0.4958496
vt 0.6274414 0.55615234
vt 0.6254883 0.66308594
vt 0.92529297 0.68408203
vt 0.68359375 0.7426758
vt 0.7705078 0.8515625
vt 0.9404297 0.74609375
vt 0.9213867 0.5488281
vt 0.6230469 0.5180664
vt 0.62109375 0.54833984
vt 0.6176758 0.6171875
vt 0.5883789 0.51416016
vt 0.6020508 0.55859375
vt 0.57421875 0.51123047
vt 0.5800781 0.4897461
vt 0.56933594 0.62109375
vt 0.6044922 0.60791016
vt 0.6191406 0.6425781
vt 0.60009766 0.6196289
vt 0.5722656 0.6411133
vt 0.6020508 0.63378906
vt 0.60595703 0.6635742
vt 0.58251953 0.67529297
vt 0.61328125 0.6665039
vt 0.6386719 0.69091797
vt 0.6201172 0.6816406
vt 0.6020508 0.71972656
vt 0.63183594 0.7084961
vt 0.6513672 0.71484375
vt 0.63720703 0.72753906
vt 0.6230469 0.81103516
vt 0.6455078 0.72509766
vt 0.6503906 0.77001953
vt 0.64941406 0.80371094
vt 0.6567383 0.8227539
vt 0.65234375 0.8652344
vt 0.7006836 0.8222656
vt 0.65771484 0.8046875
vt 0.6850586 0.86865234
vt 0.6611328 0.8754883
vt 0.70166016 0.86376953
vt 0.66259766 0.8154297
vt 0.6738281 0.8251953
vt 0.69628906 0.84277344
vt 0.7050781 0.84765625
vt 0.75097656 0.85791016
vt 0.6923828 0.8769531
vt 0.9301758 0.8588867
vt 0.9394531 0.8901367
vt 0.68115234 0.89697266
vt 0.9345703 0.8642578
vt 0.8720703 0.8544922
vt 0.9067383 0.8564453
vt 0.8852539 0.8491211
vt 0.9370117 0.84277344
vt 0.9404297 0.86035156
vt 0.84033203 0.84277344
vt 0.87597656 0.8491211
vt 0.9135742 0.8334961
vt 0.9404297 0.7910156
vt 0.92871094 0.8256836
vt 0.95166016 0.77001953
vt 0.95458984 0.8256836
vt 0.97998047 0.8378906
vt 0.96875 0.8676758
vt 0.984375 0.76708984
vt 0.9873047 0.7578125
vt 0.9536133 0.7607422
vt 0.9658203 0.74658203
vt 0.98535156 0.7397461
vt 0.9477539 0.73876953
vt 0.9838867 0.6328125
vt 0.94384766 0.69433594
vt 0.94970703 0.6699219
vt 0.9433594 0.64990234
vt 0.9458008 0.6274414
vt 0.984375 0.62402344
vt 0.9399414 0.6279297
vt 0.9550781 0.6069336
vt 0.98583984 0.6098633
vt 0.9375 0.58691406
vt 0.9448242 0.60546875
vt 0.94873047 0.57177734
vt 0.95654297 0.5830078
vt 0.94970703 0.53125
vt 0.984375 0.51123047
vt 0.9345703 0.5229492
vt 0.9448242 0.5214844
vt 0.953125 0.52246094
vn 0.54052734 0.26635742 0.79785156
vn 0.9736328 0.0070228577 0.22851562
vn 0.076416016 0.015144348 0.9970703
vn 0.07348633 0.11755371 0.9902344
vn 0.013549805 0.99121094 0.13232422
vn 0.0061836243 0.5058594 0.8623047
vn 0.0011663437 0.005569458 1
vn -0.0368042 -0.0006875992 0.9995117
vn -0.030258179 0.06604004 0.9975586
vn -0.62841797 0.11395264 0.76904297
vn 0.026947021 0.8886719 0.45751953
vn -0.009513855 0.9941406 0.10736084
vn -0.0062179565 0.29614258 0.9550781
vn -0.0010232925 0.93359375 0.35839844
vn 0.0006957054 1 0.0066986084
vn -0.009147644 0.9926758 0.11932373
vn -0.00033831596 1 -0.0010404587
vn -0.85791016 0.45410156 0.24084473
vn -0.62841797 0.11395264 0.76904297
vn -1.6331673E-05 1 3.6358833E-06
vn -0.006099701 1 -0.004184723
vn 0.00014996529 1 -0.00033473969
vn -0.004459381 1 -0.0016956329
vn -0.0017738342 1 -0.011291504
vn 0.0032844543 1 0.0028877258
vn -1.2040138E-05 1 1.579523E-05
vn -0.42114258 0.8828125 0.20788574
vn -0.48828125 0.87158203 0.04058838
vn -0.27197266 0.96240234 0.004047394
vn -0.96875 0.12084961 0.21606445
vn -0.9790039 0.20227051 0.021530151
vn -0.99316406 0.0050201416 0.11578369
vn -0.0368042 -0.0006875992 0.9995117
vn -0.9975586 0.0001437664 -0.06842041
vn -0.9321289 0.36206055 0.0071525574
vn -0.74853516 0.6567383 -0.09136963
vn -0.9848633 0.07293701 -0.1574707
vn -0.99316406 -0.017852783 -0.11468506
vn -0.9814453 0.1348877 -0.13720703
vn -0.9921875 0.09509277 -0.078552246
vn -0.96191406 0.032409668 -0.27172852
vn -0.8671875 0.38305664 -0.31811523
vn -0.2902832 0.9370117 -0.19396973
vn -0.87109375 0.20605469 -0.44580078
vn -0.97265625 0.09625244 -0.21081543
vn -0.8798828 0.3256836 -0.34545898
vn -0.35009766 0.91845703 -0.18371582
vn -0.98046875 0.1854248 -0.06878662
vn -0.97802734 0.09063721 -0.18835449
vn -0.23950195 0.9707031 -0.012420654
vn -0.26733398 0.9628906 -0.037750244
vn -0.97265625 0.17138672 -0.15734863
vn -0.85009766 0.19543457 -0.4892578
vn -0.7607422 0.28979492 -0.5805664
vn -0.027542114 0.9995117 -0.0003376007
vn -0.27075195 0.9604492 -0.062286377
vn -0.12561035 0.054382324 -0.99072266
vn -0.064575195 -0.012145996 -0.9980469
vn -0.25976562 0.4975586 -0.8276367
vn -0.6220703 0.68310547 -0.38256836
vn -0.39794922 0.8569336 -0.32763672
vn -0.30688477 0.9135742 -0.26757812
vn -0.05807495 0.98291016 -0.17529297
vn -0.00819397 0.17358398 -0.9848633
vn -0.12561035 0.054382324 -0.99072266
vn 0.0206604 0.09307861 -0.99560547
vn 0.094055176 0.012550354 -0.99560547
vn -0.064575195 -0.012145996 -0.9980469
vn 0.7324219 0.18945312 -0.6542969
vn -0.013404846 0.6489258 -0.7607422
vn 0.031188965 0.23278809 -0.97216797
vn 0.066223145 0.9453125 -0.31933594
vn 0.42456055 0.85058594 -0.31030273
vn 0.7324219 0.18945312 -0.6542969
vn 0.0021629333 1 -0.015083313
vn -0.0010404587 1 -0.017349243
vn 0.021636963 0.99902344 -0.037994385
vn 0.038635254 0.99902344 -0.009979248
vn 0.18566895 0.9765625 -0.10675049
vn 0.9223633 0.38671875 -0.006149292
vn 0.92089844 0.3479004 -0.1763916
vn 0.96777344 0.03555298 -0.25
vn 0.094055176 0.012550354 -0.99560547
vn 0.9970703 -0.06536865 0.04498291
vn 0.953125 0.12854004 0.27441406
vn 0.94433594 0.20727539 0.2548828
vn 0.9291992 -0.0008096695 0.36889648
vn 0.9975586 0.06555176 0.031341553
vn 0.98876953 0.14685059 0.031921387
vn 0.9975586 0.066833496 -0.011009216
vn 0.36694336 0.9301758 0.011039734
vn 0.9970703 0.07873535 -0.0014762878
vn 0.80126953 0.59814453 5.3048134E-06
vn 0.97265625 0.14294434 -0.18322754
vn 0.9345703 0.048675537 -0.35229492
vn 0.17102051 0.9848633 -0.022506714
vn 0.9604492 0.1743164 -0.2163086
vn 0.9941406 0.002368927 -0.10583496
vn 0.03466797 0.9995117 0.005405426
vn 0.46972656 0.87939453 -0.07824707
vn 0.5727539 0.81933594 -0.017959595
vn 0.9995117 0.03466797 0.0034599304
vn 0.9975586 0.0680542 0.008728027
vn 0.9736328 0.0070228577 0.22851562
vn 0.07635498 0.9970703 0.01966858
vn 0.3125 0.94189453 0.12188721
vn 0.94091797 0.11785889 0.31689453
g MetroArea_Ground_Damaged_02_0
f 3/3/3 2/2/2 1/1/1
f 3/3/3 1/1/1 4/4/4
f 4/4/4 1/1/1 5/5/5
f 6/6/6 3/3/3 4/4/4
f 6/6/6 4/4/4 5/5/5
f 7/7/7 3/3/3 6/6/6
f 7/7/7 8/8/8 3/3/3
f 9/9/9 8/8/8 7/7/7
f 10/10/10 8/8/8 9/9/9
f 6/6/6 11/11/11 7/7/7
f 5/5/5 12/12/12 6/6/6
f 11/11/11 6/6/6 12/12/12
f 9/9/9 7/7/7 13/13/13
f 13/13/13 7/7/7 11/11/11
f 11/11/11 14/14/14 13/13/13
f 9/9/9 13/13/13 14/14/14
f 15/15/15 11/11/11 12/12/12
f 14/14/14 11/11/11 15/15/15
f 14/14/14 16/16/16 9/9/9
f 16/16/16 14/14/14 15/15/15
f 15/15/15 12/12/12 17/17/17
f 12/12/12 5/5/5 17/17/17
f 18/18/18 9/9/9 16/16/16
f 19/19/19 9/9/9 18/18/18
f 20/20/20 16/16/16 15/15/15
f 20/20/20 15/15/15 17/17/17
f 21/21/21 20/20/20 17/17/17
f 21/21/21 17/17/17 22/22/22
f 23/23/23 21/21/21 22/22/22
f 24/24/24 23/23/23 22/22/22
f 25/25/25 24/24/24 22/22/22
f 17/17/17 5/5/5 26/26/26
f 17/17/17 26/26/26 22/22/22
f 18/18/18 16/16/16 27/27/27
f 28/28/28 27/27/27 16/16/16
f 20/20/20 28/28/28 16/16/16
f 18/18/18 27/27/27 28/28/28
f 29/29/29 20/20/20 21/21/21
f 29/29/29 28/28/28 20/20/20
f 30/30/30 19/19/19 18/18/18
f 31/31/31 18/18/18 28/28/28
f 31/31/31 30/30/30 18/18/18
f 30/30/30 32/32/32 19/19/19
f 30/30/30 31/31/31 32/32/32
f 19/19/19 32/32/32 33/33/33
f 34/34/34 32/32/32 31/31/31
f 35/35/35 31/31/31 28/28/28
f 35/35/35 28/28/28 29/29/29
f 35/35/35 34/34/34 31/31/31
f 29/29/29 21/21/21 36/36/36
f 35/35/35 29/29/29 36/36/36
f 37/37/37 34/34/34 35/35/35
f 37/37/37 38/38/38 34/34/34
f 39/39/39 37/37/37 35/35/35
f 39/39/39 38/38/38 37/37/37
f 36/36/36 39/39/39 35/35/35
f 40/40/40 38/38/38 39/39/39
f 36/36/36 40/40/40 39/39/39
f 41/41/41 38/38/38 40/40/40
f 40/40/40 36/36/36 42/42/42
f 36/36/36 21/21/21 42/42/42
f 42/42/42 41/41/41 40/40/40
f 43/43/43 42/42/42 21/21/21
f 21/21/21 23/23/23 43/43/43
f 44/44/44 41/41/41 42/42/42
f 42/42/42 43/43/43 44/44/44
f 45/45/45 41/41/41 44/44/44
f 44/44/44 43/43/43 46/46/46
f 44/44/44 46/46/46 45/45/45
f 47/47/47 43/43/43 23/23/23
f 46/46/46 43/43/43 47/47/47
f 46/46/46 48/48/48 45/45/45
f 49/49/49 45/45/45 48/48/48
f 46/46/46 47/47/47 50/50/50
f 50/50/50 47/47/47 23/23/23
f 48/48/48 46/46/46 50/50/50
f 50/50/50 23/23/23 51/51/51
f 51/51/51 48/48/48 50/50/50
f 52/52/52 49/49/49 48/48/48
f 51/51/51 52/52/52 48/48/48
f 53/53/53 49/49/49 52/52/52
f 54/54/54 49/49/49 53/53/53
f 51/51/51 23/23/23 55/55/55
f 55/55/55 23/23/23 24/24/24
f 56/56/56 52/52/52 51/51/51
f 53/53/53 52/52/52 56/56/56
f 51/51/51 55/55/55 56/56/56
f 57/57/57 54/54/54 53/53/53
f 58/58/58 54/54/54 57/57/57
f 57/57/57 53/53/53 59/59/59
f 56/56/56 60/60/60 53/53/53
f 61/61/61 53/53/53 60/60/60
f 60/60/60 56/56/56 61/61/61
f 56/56/56 55/55/55 61/61/61
f 59/59/59 53/53/53 61/61/61
f 62/62/62 61/61/61 55/55/55
f 61/61/61 62/62/62 59/59/59
f 62/62/62 55/55/55 63/63/63
f 59/59/59 62/62/62 63/63/63
f 63/63/63 55/55/55 24/24/24
f 63/63/63 64/64/64 59/59/59
f 63/63/63 24/24/24 64/64/64
f 64/64/64 65/65/65 59/59/59
f 66/66/66 65/65/65 64/64/64
f 67/67/67 65/65/65 66/66/66
f 67/67/67 68/68/68 65/65/65
f 69/69/69 67/67/67 66/66/66
f 70/70/70 64/64/64 24/24/24
f 71/71/71 66/66/66 64/64/64
f 71/71/71 64/64/64 70/70/70
f 66/66/66 71/71/71 72/72/72
f 70/70/70 72/72/72 71/71/71
f 72/72/72 73/73/73 66/66/66
f 74/74/74 66/66/66 73/73/73
f 24/24/24 75/75/75 70/70/70
f 70/70/70 76/76/76 72/72/72
f 70/70/70 75/75/75 76/76/76
f 76/76/76 77/77/77 72/72/72
f 77/77/77 76/76/76 75/75/75
f 72/72/72 77/77/77 73/73/73
f 78/78/78 75/75/75 24/24/24
f 78/78/78 77/77/77 75/75/75
f 25/25/25 78/78/78 24/24/24
f 73/73/73 77/77/77 79/79/79
f 78/78/78 79/79/79 77/77/77
f 79/79/79 78/78/78 73/73/73
f 78/78/78 80/80/80 73/73/73
f 78/78/78 25/25/25 80/80/80
f 73/73/73 81/81/81 74/74/74
f 80/80/80 81/81/81 73/73/73
f 81/81/81 82/82/82 74/74/74
f 74/74/74 82/82/82 83/83/83
f 81/81/81 84/84/84 82/82/82
f 81/81/81 80/80/80 84/84/84
f 84/84/84 85/85/85 82/82/82
f 86/86/86 84/84/84 80/80/80
f 86/86/86 80/80/80 25/25/25
f 87/87/87 85/85/85 84/84/84
f 87/87/87 84/84/84 86/86/86
f 88/88/88 85/85/85 87/87/87
f 87/87/87 86/86/86 89/89/89
f 88/88/88 87/87/87 89/89/89
f 89/89/89 86/86/86 25/25/25
f 90/90/90 88/88/88 89/89/89
f 25/25/25 91/91/91 89/89/89
f 25/25/25 22/22/22 91/91/91
f 91/91/91 92/92/92 89/89/89
f 90/90/90 89/89/89 92/92/92
f 91/91/91 93/93/93 92/92/92
f 93/93/93 90/90/90 92/92/92
f 22/22/22 93/93/93 91/91/91
f 94/94/94 90/90/90 93/93/93
f 95/95/95 90/90/90 94/94/94
f 22/22/22 96/96/96 93/93/93
f 93/93/93 96/96/96 94/94/94
f 95/95/95 94/94/94 97/97/97
f 97/97/97 94/94/94 96/96/96
f 97/97/97 98/98/98 95/95/95
f 22/22/22 99/99/99 96/96/96
f 26/26/26 99/99/99 22/22/22
f 100/100/100 97/97/97 96/96/96
f 99/99/99 100/100/100 96/96/96
f 97/97/97 100/100/100 101/101/101
f 99/99/99 101/101/101 100/100/100
f 102/102/102 98/98/98 97/97/97
f 101/101/101 102/102/102 97/97/97
f 102/102/102 103/103/103 98/98/98
f 101/101/101 103/103/103 102/102/102
f 103/103/103 104/104/104 98/98/98
f 26/26/26 105/105/105 99/99/99
f 26/26/26 5/5/5 105/105/105
f 99/99/99 106/106/106 101/101/101
f 105/105/105 106/106/106 99/99/99
f 105/105/105 5/5/5 106/106/106
f 103/103/103 101/101/101 106/106/106
f 5/5/5 1/1/1 106/106/106
f 107/107/107 104/104/104 103/103/103
f 106/106/106 107/107/107 103/103/103
f 104/104/104 107/107/107 1/1/1
f 1/1/1 107/107/107 106/106/106
