g MetroArea_Building_Card_13
v -15.074843 149.64168 -12.644998
v -15.035449 149.6417 12.64494
v -15.008633 -0.009694824 12.64496
v -15.048046 -0.009699707 -12.644965
v -15.035449 149.6417 12.64494
v 14.955996 149.6417 12.557896
v 15.074824 -0.009694824 12.55791
v -15.008633 -0.009694824 12.64496
v -15.074843 149.64168 -12.644998
v -12.569863 149.64168 -10.6742115
v -12.53457 149.6417 9.699916
v -15.035449 149.6417 12.64494
v -15.035449 149.6417 12.64494
v -12.53457 149.6417 9.699916
v 12.615117 149.6417 9.621924
v 14.955996 149.6417 12.557896
v -12.569863 149.64168 -10.6742115
v -12.569863 164.93842 -10.674213
v -12.53457 164.93842 9.699914
v -12.53457 149.6417 9.699916
v -12.53457 149.6417 9.699916
v -12.53457 164.93842 9.699914
v 12.615117 164.93842 9.621923
v 12.615117 149.6417 9.621924
v -12.569863 164.93842 -10.674213
v -9.686132 164.9607 -6.8966913
v -9.65959 164.9607 6.323484
v -12.53457 164.93842 9.699914
v -12.53457 164.93842 9.699914
v -9.65959 164.9607 6.323484
v 9.854649 164.9607 6.2647986
v 12.615117 164.93842 9.621923
v -9.686132 164.9607 -6.8966913
v -9.686132 180.46237 -6.896696
v -9.65959 180.46237 6.323481
v -9.65959 164.9607 6.323484
v -9.65959 164.9607 6.323484
v -9.65959 180.46237 6.323481
v 9.854649 180.46237 6.264796
v 9.854649 164.9607 6.2647986
v -9.686132 180.46237 -6.896696
v -6.762031 180.46237 -4.8279243
v -6.7473044 180.46237 3.0079272
v -9.65959 180.46237 6.323481
v -9.65959 180.46237 6.323481
v -6.7473044 180.46237 3.0079272
v 6.9071875 180.46237 2.9753795
v 9.854649 180.46237 6.264796
v -6.762031 180.46237 -4.8279243
v -6.7546678 189.6965 -4.8349237
v -6.7473044 189.6965 3.007926
v -6.7473044 180.46237 3.0079272
v -6.7473044 180.46237 3.0079272
v -6.7473044 189.6965 3.007926
v 6.9071875 189.6965 2.9753783
v 6.9071875 180.46237 2.9753795
v -6.7473044 189.6965 3.007926
v -6.7546678 189.6965 -4.8349237
v 6.9071875 189.6965 -4.874467
v 6.9071875 189.6965 2.9753783
v -6.3605466 199.42523 0.17905945
v -6.36791 199.42523 -2.1017182
v -4.038418 199.42523 -2.1412616
v -4.038418 199.42523 0.14651184
v -4.038418 199.42523 0.14651184
v -4.038418 189.47824 0.14651306
v -6.3605466 189.47824 0.17906067
v -6.3605466 199.42523 0.17905945
v -6.3605466 199.42523 0.17905945
v -6.3605466 189.47824 0.17906067
v -6.36791 189.47824 -2.1017182
v -6.36791 199.42523 -2.1017182
v -5.6776366 216.77898 -0.44568908
v -5.681035 216.77898 -1.4964129
v -4.703359 216.77898 -1.5146307
v -4.703359 216.77898 -0.46068418
v -4.703359 216.77898 -0.46068418
v -4.703359 199.27533 -0.46068054
v -5.6776366 199.27533 -0.44568664
v -5.6776366 216.77898 -0.44568908
v -5.6776366 216.77898 -0.44568908
v -5.6776366 199.27533 -0.44568664
v -5.681035 199.27533 -1.4964093
v -5.681035 216.77898 -1.4964129
v 4.15457 199.42523 0.17905945
v 4.147207 199.42523 -2.1017182
v 6.476699 199.42523 -2.1412616
v 6.476699 199.42523 0.14651184
v 6.476699 199.42523 0.14651184
v 6.476699 189.47824 0.14651306
v 4.15457 189.47824 0.17906067
v 4.15457 199.42523 0.17905945
v 4.15457 199.42523 0.17905945
v 4.15457 189.47824 0.17906067
v 4.147207 189.47824 -2.1017182
v 4.147207 199.42523 -2.1017182
v 4.8374805 216.77898 -0.4456903
v 4.834082 216.77898 -1.4964129
v 5.8117576 216.77898 -1.5146307
v 5.8117576 216.77898 -0.46068418
v 5.8117576 216.77898 -0.46068418
v 5.8117576 199.27533 -0.46068054
v 4.8374805 199.27533 -0.44568664
v 4.8374805 216.77898 -0.4456903
v 4.8374805 216.77898 -0.4456903
v 4.8374805 199.27533 -0.44568664
v 4.834082 199.27533 -1.4964093
v 4.834082 216.77898 -1.4964129
vt 0.006515503 0.9941406
vt 0.171875 0.9941406
vt 0.17211914 0.004886627
vt 0.0066947937 0.004886627
vt 0.1809082 0.9941406
vt 0.3828125 0.9941406
vt 0.38354492 0.004886627
vt 0.18103027 0.004886627
vt 0.53564453 0.006286621
vt 0.53564453 0.023757935
vt 0.38964844 0.023757935
vt 0.38964844 0.006286621
vt 0.39013672 0.006286621
vt 0.39013672 0.023757935
vt 0.5541992 0.023757935
vt 0.5541992 0.006286621
vt 0.53564453 0.023757935
vt 0.53564453 0.12609863
vt 0.40722656 0.12609863
vt 0.40722656 0.023757935
vt 0.39013672 0.023757935
vt 0.39013672 0.12609863
vt 0.5541992 0.12609863
vt 0.5541992 0.023757935
vt 0.53564453 0.12609863
vt 0.50683594 0.14624023
vt 0.40722656 0.14624023
vt 0.40722656 0.12609863
vt 0.39013672 0.12609863
vt 0.39013672 0.14624023
vt 0.5209961 0.14624023
vt 0.5541992 0.12609863
vt 0.5546875 0.1459961
vt 0.5546875 0.24829102
vt 0.4621582 0.24829102
vt 0.4621582 0.1459961
vt 0.40771484 0.1459961
vt 0.40771484 0.24829102
vt 0.53466797 0.24829102
vt 0.53466797 0.1459961
vt 0.5546875 0.24829102
vt 0.5229492 0.26708984
vt 0.4621582 0.26708984
vt 0.4621582 0.24829102
vt 0.40771484 0.24829102
vt 0.40771484 0.26708984
vt 0.49975586 0.26708984
vt 0.53466797 0.24829102
vt 0.48095703 0.26708984
vt 0.48095703 0.32910156
vt 0.42578125 0.32910156
vt 0.42578125 0.26708984
vt 0.42578125 0.26708984
vt 0.42578125 0.32910156
vt 0.5175781 0.32910156
vt 0.5175781 0.26708984
vt 0.47753906 0.359375
vt 0.47753906 0.3305664
vt 0.42700195 0.3305664
vt 0.42700195 0.359375
vt 0.39086914 0.34375
vt 0.39111328 0.35253906
vt 0.3996582 0.35253906
vt 0.39941406 0.34375
vt 0.4152832 0.33691406
vt 0.4152832 0.27197266
vt 0.40673828 0.27197266
vt 0.40673828 0.33691406
vt 0.40673828 0.33691406
vt 0.40673828 0.27197266
vt 0.3984375 0.27197266
vt 0.3984375 0.33691406
vt 0.40942383 0.45166016
vt 0.40942383 0.4580078
vt 0.41259766 0.4580078
vt 0.41259766 0.45166016
vt 0.41259766 0.45166016
vt 0.41259766 0.34350586
vt 0.40942383 0.34350586
vt 0.40942383 0.45166016
vt 0.40942383 0.45166016
vt 0.40942383 0.34350586
vt 0.40625 0.34350586
vt 0.40625 0.45166016
vt 0.39086914 0.34375
vt 0.39111328 0.35253906
vt 0.3996582 0.35253906
vt 0.39941406 0.34375
vt 0.4152832 0.33691406
vt 0.4152832 0.27197266
vt 0.40673828 0.27197266
vt 0.40673828 0.33691406
vt 0.40673828 0.33691406
vt 0.40673828 0.27197266
vt 0.3984375 0.27197266
vt 0.3984375 0.33691406
vt 0.40942383 0.45166016
vt 0.40942383 0.4580078
vt 0.41259766 0.4580078
vt 0.41259766 0.45166016
vt 0.41259766 0.45166016
vt 0.41259766 0.34350586
vt 0.40942383 0.34350586
vt 0.40942383 0.45166016
vt 0.40942383 0.45166016
vt 0.40942383 0.34350586
vt 0.40625 0.34350586
vt 0.40625 0.45166016
vn -1 -0.00017917156 0.0015583038
vn -1 -0.00017917156 0.0015583038
vn -1 -0.00017917156 0.0015583038
vn -1 -0.00017917156 0.0015583038
vn 0.0028972626 1.5497208E-06 1
vn 0.0028972626 1.5497208E-06 1
vn 0.0028972626 1.5497208E-06 1
vn 0.0028972626 1.5497208E-06 1
vn -0 1 -4.172325E-07
vn -0 1 -4.172325E-07
vn -0 1 -4.172325E-07
vn -0 1 -4.172325E-07
vn -0 1 0
vn -0 1 0
vn -0 1 0
vn -0 1 0
vn -1 0 0.0017318726
vn -1 0 0.0017318726
vn -1 0 0.0017318726
vn -1 0 0.0017318726
vn 0.0031013489 1.1920929E-07 1
vn 0.0031013489 1.1920929E-07 1
vn 0.0031013489 1.1920929E-07 1
vn 0.0031013489 1.1920929E-07 1
vn -0.0077400208 1 1.3947487E-05
vn -0.0077400208 1 1.3947487E-05
vn -0.0077400208 1 1.3947487E-05
vn -0.0077400208 1 1.3947487E-05
vn 2.026558E-05 1 0.006614685
vn 2.026558E-05 1 0.006614685
vn 2.026558E-05 1 0.006614685
vn 2.026558E-05 1 0.006614685
vn -1 0 0.002008438
vn -1 0 0.002008438
vn -1 0 0.002008438
vn -1 0 0.002008438
vn 0.0030078888 1.1920929E-07 1
vn 0.0030078888 1.1920929E-07 1
vn 0.0030078888 1.1920929E-07 1
vn 0.0030078888 1.1920929E-07 1
vn -0 1 0
vn -0 1 0
vn -0 1 0
vn -0 1 0
vn -0 1 0
vn -0 1 0
vn -0 1 0
vn -0 1 0
vn -1 0.00039935112 0.001408577
vn -1 0.00039935112 0.001408577
vn -1 0.00039935112 0.001408577
vn -1 0.00039935112 0.001408577
vn 0.0023841858 1.1920929E-07 1
vn 0.0023841858 1.1920929E-07 1
vn 0.0023841858 1.1920929E-07 1
vn 0.0023841858 1.1920929E-07 1
vn -0 1 0
vn -0 1 0
vn -0 1 0
vn -0 1 0
vn -0 1 0
vn -0 1 0
vn -0 1 0
vn -0 1 0
vn 0.014015198 1.1920929E-07 1
vn 0.014015198 1.1920929E-07 1
vn 0.014015198 1.1920929E-07 1
vn 0.014015198 1.1920929E-07 1
vn -1 0 0.0032291412
vn -1 0 0.0032291412
vn -1 0 0.0032291412
vn -1 0 0.0032291412
vn -0 1 0
vn -0 1 0
vn -0 1 0
vn -0 1 0
vn 0.015388489 1.7881393E-07 1
vn 0.015388489 1.7881393E-07 1
vn 0.015388489 1.7881393E-07 1
vn 0.015388489 1.7881393E-07 1
vn -1 0 0.0032348633
vn -1 0 0.0032348633
vn -1 0 0.0032348633
vn -1 0 0.0032348633
vn -0 1 0
vn -0 1 0
vn -0 1 0
vn -0 1 0
vn 0.014015198 1.1920929E-07 1
vn 0.014015198 1.1920929E-07 1
vn 0.014015198 1.1920929E-07 1
vn 0.014015198 1.1920929E-07 1
vn -1 0 0.0032291412
vn -1 0 0.0032291412
vn -1 0 0.0032291412
vn -1 0 0.0032291412
vn -0 1 0
vn -0 1 0
vn -0 1 0
vn -0 1 0
vn 0.015388489 2.3841858E-07 1
vn 0.015388489 2.3841858E-07 1
vn 0.015388489 2.3841858E-07 1
vn 0.015388489 2.3841858E-07 1
vn -1 0 0.0032348633
vn -1 0 0.0032348633
vn -1 0 0.0032348633
vn -1 0 0.0032348633
g MetroArea_Building_Card_13_0
f 3/3/3 2/2/2 1/1/1
f 4/4/4 3/3/3 1/1/1
f 7/7/7 6/6/6 5/5/5
f 8/8/8 7/7/7 5/5/5
f 11/11/11 10/10/10 9/9/9
f 12/12/12 11/11/11 9/9/9
f 15/15/15 14/14/14 13/13/13
f 16/16/16 15/15/15 13/13/13
f 19/19/19 18/18/18 17/17/17
f 20/20/20 19/19/19 17/17/17
f 23/23/23 22/22/22 21/21/21
f 24/24/24 23/23/23 21/21/21
f 27/27/27 26/26/26 25/25/25
f 28/28/28 27/27/27 25/25/25
f 31/31/31 30/30/30 29/29/29
f 32/32/32 31/31/31 29/29/29
f 35/35/35 34/34/34 33/33/33
f 36/36/36 35/35/35 33/33/33
f 39/39/39 38/38/38 37/37/37
f 40/40/40 39/39/39 37/37/37
f 43/43/43 42/42/42 41/41/41
f 44/44/44 43/43/43 41/41/41
f 47/47/47 46/46/46 45/45/45
f 48/48/48 47/47/47 45/45/45
f 51/51/51 50/50/50 49/49/49
f 52/52/52 51/51/51 49/49/49
f 55/55/55 54/54/54 53/53/53
f 56/56/56 55/55/55 53/53/53
f 59/59/59 58/58/58 57/57/57
f 60/60/60 59/59/59 57/57/57
f 63/63/63 62/62/62 61/61/61
f 64/64/64 63/63/63 61/61/61
f 67/67/67 66/66/66 65/65/65
f 68/68/68 67/67/67 65/65/65
f 71/71/71 70/70/70 69/69/69
f 72/72/72 71/71/71 69/69/69
f 75/75/75 74/74/74 73/73/73
f 76/76/76 75/75/75 73/73/73
f 79/79/79 78/78/78 77/77/77
f 80/80/80 79/79/79 77/77/77
f 83/83/83 82/82/82 81/81/81
f 84/84/84 83/83/83 81/81/81
f 87/87/87 86/86/86 85/85/85
f 88/88/88 87/87/87 85/85/85
f 91/91/91 90/90/90 89/89/89
f 92/92/92 91/91/91 89/89/89
f 95/95/95 94/94/94 93/93/93
f 96/96/96 95/95/95 93/93/93
f 99/99/99 98/98/98 97/97/97
f 100/100/100 99/99/99 97/97/97
f 103/103/103 102/102/102 101/101/101
f 104/104/104 103/103/103 101/101/101
f 107/107/107 106/106/106 105/105/105
f 108/108/108 107/107/107 105/105/105
