g MetroArea_Building_Card_04
v -0.6060351 98.76887 10.8222065
v 21.453125 0.0018115233 10.822197
v -0.60609376 0.0018066405 10.8222
v 21.453203 98.76887 10.822197
v 21.453203 109.30687 10.822172
v -0.60605466 109.30687 10.822175
v 21.453203 98.76887 10.822197
v 21.453106 0.0018017577 -25.253231
v 21.453125 0.0018115233 10.822197
v 21.453182 98.76885 -25.253265
v 21.453203 109.30687 10.822172
v 21.453182 109.29404 -25.253256
v -0.60609376 0.0018066405 10.8222
v -0.60609376 0.0018066405 27.746542
v -0.6060351 98.76887 27.746523
v -0.6060351 98.76887 10.8222065
v -0.60609376 0.0018066405 27.746542
v -18.87629 0.0018066405 27.746548
v -18.876211 98.76887 27.746529
v -0.6060351 98.76887 27.746523
vt 0.57714844 0.7158203
vt 0.7348633 0.0037612915
vt 0.57714844 0.0037612915
vt 0.7348633 0.7158203
vt 0.7348633 0.79052734
vt 0.57714844 0.79052734
vt 0.74072266 0.7158203
vt 0.99609375 0.0037612915
vt 0.74072266 0.0037612915
vt 0.99609375 0.7158203
vt 0.74072266 0.79052734
vt 0.99609375 0.79052734
vt 0.57714844 0.0037612915
vt 0.48779297 0.0037612915
vt 0.48779297 0.7158203
vt 0.57714844 0.7158203
vt 0.48779297 0.0037612915
vt 0.35864258 0.0037612915
vt 0.35864258 0.7158203
vt 0.48779297 0.7158203
vn 2.9802322E-07 0 1
vn 2.9802322E-07 0 1
vn 2.9802322E-07 0 1
vn 2.9802322E-07 0 1
vn 2.9802322E-07 2.682209E-06 1
vn 2.9802322E-07 2.682209E-06 1
vn 1 -7.748604E-07 -5.364418E-07
vn 1 -7.748604E-07 -5.364418E-07
vn 1 -7.748604E-07 -5.364418E-07
vn 1 -7.748604E-07 -5.364418E-07
vn 1 0 -5.364418E-07
vn 1 0 -5.364418E-07
vn 1 -5.9604645E-07 0
vn 1 -5.9604645E-07 0
vn 1 -5.9604645E-07 0
vn 1 -5.9604645E-07 0
vn 2.3841858E-07 1.7881393E-07 1
vn 2.3841858E-07 1.7881393E-07 1
vn 2.3841858E-07 1.7881393E-07 1
vn 2.3841858E-07 1.7881393E-07 1
g MetroArea_Building_Card_04_0
f 3/3/3 2/2/2 1/1/1
f 2/2/2 4/4/4 1/1/1
f 4/4/4 5/5/5 1/1/1
f 5/5/5 6/6/6 1/1/1
f 9/9/9 8/8/8 7/7/7
f 8/8/8 10/10/10 7/7/7
f 7/7/7 10/10/10 11/11/11
f 10/10/10 12/12/12 11/11/11
f 15/15/15 14/14/14 13/13/13
f 16/16/16 15/15/15 13/13/13
f 19/19/19 18/18/18 17/17/17
f 20/20/20 19/19/19 17/17/17
