g MetroArea_Ground_Sidewalk_02
v -0.5 0.021577481 0.24999997
v -0.5 0.021577505 -0.24999997
v 0.5 0.021577505 -0.24999997
v 0.5 0.021577481 0.24999997
v -0.5 0.021577481 0.24999997
v -0.5 -2.523296E-08 0.24999997
v -0.5 -3.3772687E-09 -0.24999997
v -0.5 0.021577505 -0.24999997
v -0.5 0.021577505 -0.24999997
v -0.5 -3.3772687E-09 -0.24999997
v 0.5 -3.3772687E-09 -0.24999997
v 0.5 0.021577505 -0.24999997
v 0.5 0.021577505 -0.24999997
v 0.5 -3.3772687E-09 -0.24999997
v 0.5 -2.523296E-08 0.24999997
v 0.5 0.021577481 0.24999997
v -0.5 0.021577481 0.24999997
v 0.5 0.021577481 0.24999997
v 0.5 -2.523296E-08 0.24999997
v -0.5 -2.523296E-08 0.24999997
vt -1.1920929E-07 0.5
vt -1.1920929E-07 1
vt 1 1
vt 1 0.5
vt -0.000111699104 1
vt 0.017852783 1
vt 0.017852783 0.5
vt -0.000111699104 0.5
vt 1 1
vt 1 0.9824219
vt -0.000111699104 0.9824219
vt -0.000111699104 1
vt 1 1
vt 0.98339844 1
vt 0.98339844 0.5
vt 1 0.5
vt -0.000111699104 0.5
vt 1 0.5
vt 1 0.5161133
vt -0.000111699104 0.5161133
vn -0 1 0
vn -0 1 0
vn -0 1 0
vn -0 1 0
vn -1 0 0
vn -1 0 0
vn -1 0 0
vn -1 0 0
vn -0 0 -1
vn -0 0 -1
vn -0 0 -1
vn -0 0 -1
vn 1 0 0
vn 1 0 0
vn 1 0 0
vn 1 0 0
vn -0 0 1
vn -0 0 1
vn -0 0 1
vn -0 0 1
g MetroArea_Ground_Sidewalk_02_0
f 3/3/3 2/2/2 1/1/1
f 4/4/4 3/3/3 1/1/1
f 7/7/7 6/6/6 5/5/5
f 8/8/8 7/7/7 5/5/5
f 11/11/11 10/10/10 9/9/9
f 12/12/12 11/11/11 9/9/9
f 15/15/15 14/14/14 13/13/13
f 16/16/16 15/15/15 13/13/13
f 19/19/19 18/18/18 17/17/17
f 20/20/20 19/19/19 17/17/17
