g MetroArea_Prop_ElectricBox_02_Eff
v -0.43039328 1.1679037 0.13718595
v -0.43039328 1.1679035 -0.142255
v -0.45322338 1.1679035 -0.142255
v -0.45322338 1.1679035 0.13718593
v -0.45322338 1.5421295 0.13718651
v -0.45322338 1.5421295 -0.14225486
v -0.43039328 1.5421295 -0.14225486
v -0.43039328 1.5421295 0.13718651
v -0.43039328 1.5421295 0.13718651
v -0.43039328 1.1679037 0.13718595
v -0.45322338 1.1679035 0.13718593
v -0.45322338 1.5421295 0.13718651
v -0.45322338 1.5421295 -0.14225486
v -0.45322338 1.1679035 -0.142255
v -0.43039328 1.1679035 -0.142255
v -0.43039328 1.5421295 -0.14225486
v -0.45322338 1.5421295 0.13718651
v -0.45322338 1.1679035 0.13718593
v -0.45322338 1.1679035 -0.142255
v -0.45322338 1.5421295 -0.14225486
v -0.44292057 1.6076944 0.20019381
v -0.44292057 1.6478697 0.20019381
v 0.005758362 1.6478697 0.20019381
v 0.005758362 1.6076944 0.20019381
v 0.4544373 1.6076944 0.20019381
v 0.4544373 1.6478697 0.20019381
v -0.44292057 1.6076944 0.20019381
v -0.44292057 1.6076944 -0.22589166
v -0.44292057 1.6478697 -0.22589166
v -0.44292057 1.6478697 0.20019381
v 0.4544373 1.6478697 0.20019381
v 0.4544373 1.6478697 -0.22589166
v 0.4544373 1.6076944 -0.22589166
v 0.4544373 1.6076944 0.20019381
v 0.005758362 1.6830496 0.15750319
v -0.40472767 1.6830496 0.15750319
v -0.40472767 1.6830496 -0.18320121
v 0.005758362 1.6830496 -0.18320121
v 0.4162444 1.6830496 0.15750319
v 0.4162444 1.6830496 -0.18320121
v 0.4544373 1.6076944 -0.22589166
v 0.4544373 1.6478697 -0.22589166
v 0.005758362 1.6478697 -0.22589166
v 0.005758362 1.6076944 -0.22589166
v -0.44292057 1.6076944 -0.22589166
v -0.44292057 1.6478697 -0.22589166
v 0.005758362 1.6478697 0.20019381
v -0.44292057 1.6478697 0.20019381
v -0.40472767 1.6830496 0.15750319
v 0.005758362 1.6830496 0.15750319
v 0.4162444 1.6830496 0.15750319
v 0.4544373 1.6478697 0.20019381
v 0.4544373 1.6478697 0.20019381
v 0.4162444 1.6830496 0.15750319
v 0.4162444 1.6830496 -0.18320121
v 0.4544373 1.6478697 -0.22589166
v 0.005758362 1.6478697 -0.22589166
v 0.4544373 1.6478697 -0.22589166
v 0.4162444 1.6830496 -0.18320121
v 0.005758362 1.6830496 -0.18320121
v -0.40472767 1.6830496 -0.18320121
v -0.44292057 1.6478697 -0.22589166
v -0.44292057 1.6478697 -0.22589166
v -0.40472767 1.6830496 -0.18320121
v -0.40472767 1.6830496 0.15750319
v -0.44292057 1.6478697 0.20019381
v 0.50384027 0.15480836 0.26790383
v 0.50384027 -9.900459E-08 0.2679038
v -7.6293944E-08 -9.900459E-08 0.2679038
v -3.8146972E-08 0.15480836 0.26790383
v -0.5038404 0.15480836 0.26790383
v -0.5038404 -9.900459E-08 0.2679038
v -0.5038404 0.15480855 -0.26790377
v -0.5038404 0.15480836 0.26790383
v -0.5038404 -9.900459E-08 0.2679038
v -0.5038404 9.900459E-08 -0.2679038
v 0.50384027 9.900459E-08 -0.2679038
v 0.50384027 -9.900459E-08 0.2679038
v 0.50384027 0.15480836 0.26790383
v 0.50384027 0.15480855 -0.26790377
v -0.5038404 0.15480855 -0.26790377
v -0.5038404 9.900459E-08 -0.2679038
v -3.8146972E-08 9.900459E-08 -0.2679038
v -7.6293944E-08 0.15480855 -0.26790377
v 0.50384027 0.15480855 -0.26790377
v 0.50384027 9.900459E-08 -0.2679038
v -0.41723502 1.5971677 0.19559297
v -0.41723502 1.3372263 0.19559278
v -0.41723517 1.3372208 0.17176187
v -0.41723523 1.5971735 0.17176208
v 0.006206894 1.5971677 0.19559297
v -0.41723502 1.5971677 0.19559297
v -0.41723523 1.5971735 0.17176208
v 0.006206894 1.5971735 0.17176208
v 0.42964885 1.5971677 0.19559297
v 0.429649 1.5971735 0.17176208
v -0.41723517 1.3372208 0.17176187
v -0.41723502 1.3372263 0.19559278
v 0.006206932 1.3372263 0.19559278
v 0.006206894 1.3372208 0.17176187
v 0.429649 1.3372208 0.17176186
v 0.42964885 1.3372263 0.19559278
v 0.42964885 1.5971677 0.19559297
v 0.429649 1.5971735 0.17176208
v 0.429649 1.3372208 0.17176186
v 0.42964885 1.3372263 0.19559278
v -0.41723502 1.3372263 0.19559278
v -0.41723502 1.5971677 0.19559297
v 0.006206894 1.5971677 0.19559297
v 0.006206932 1.3372263 0.19559278
v 0.42964885 1.3372263 0.19559278
v 0.42964885 1.5971677 0.19559297
v -0.41724116 0.41108003 0.17176136
v -0.41722915 0.41108003 0.1955924
v 0.006204109 0.41108003 0.1955924
v 0.006209755 0.41108003 0.17176136
v 0.42966068 0.41108003 0.17176136
v 0.42963737 0.41108003 0.1955924
v -0.41722915 0.87251323 0.1955926
v -0.41722915 0.41108003 0.1955924
v -0.41724116 0.41108003 0.17176136
v -0.41724116 0.87251323 0.17176157
v -0.41722915 1.3339463 0.19559282
v -0.41724116 1.3339463 0.1717618
v 0.42966068 0.41108003 0.17176136
v 0.42963737 0.41108003 0.1955924
v 0.42963737 0.87251323 0.19559261
v 0.42966068 0.87251323 0.17176157
v 0.42966068 1.3339463 0.1717618
v 0.42963737 1.3339463 0.19559282
v 0.42966068 1.3339463 0.1717618
v 0.42963737 1.3339463 0.19559282
v 0.006204109 1.3339463 0.19559282
v 0.006209755 1.3339463 0.1717618
v -0.41724116 1.3339463 0.1717618
v -0.41722915 1.3339463 0.19559282
v -0.41722915 0.87251323 0.1955926
v -0.41722915 1.3339463 0.19559282
v 0.006204109 1.3339463 0.19559282
v 0.006204109 0.87251323 0.1955926
v -0.41722915 0.41108003 0.1955924
v 0.006204109 0.41108003 0.1955924
v 0.42963737 0.41108003 0.1955924
v 0.42963737 0.87251323 0.19559261
v 0.42963737 1.3339463 0.19559282
v -0.4303934 0.15480831 0.201927
v -0.4303934 0.38963917 0.20192711
v 0.0054601287 0.38963917 0.20192711
v 0.005460167 0.15480831 0.201927
v 0.44131368 0.15480831 0.201927
v 0.44131368 0.38963917 0.20192711
v 0.44131368 1.6076944 -0.21262224
v 0.44131368 0.9986668 0.17176165
v 0.44131368 1.6076944 0.17176187
v 0.44131368 0.88125134 -0.21262251
v 0.44131368 0.38963917 0.1717614
v 0.44131368 0.15480849 -0.21262279
v 0.44131368 0.15480831 0.201927
v 0.44131368 0.38963917 0.20192711
v 0.44131368 0.88125134 -0.21262251
v 0.44131368 1.6076944 -0.21262224
v 0.005460167 1.6076944 -0.21262224
v 0.0054601287 0.88125134 -0.21262251
v 0.44131368 0.15480849 -0.21262279
v 0.0054601287 0.15480849 -0.21262279
v -0.4303934 0.15480849 -0.21262279
v -0.4303934 0.88125134 -0.21262251
v -0.4303934 1.6076944 -0.21262224
v -0.4303934 0.38963917 0.1717614
v -0.4303934 0.38963917 0.20192711
v -0.4303934 0.15480831 0.201927
v -0.4303934 0.15480849 -0.21262279
v -0.4303934 0.88125134 -0.21262251
v -0.4303934 0.9986668 0.17176165
v -0.4303934 1.6076944 -0.21262224
v -0.4303934 1.6076944 0.17176187
v -0.4303934 0.38963917 0.20192711
v -0.4303934 0.38963917 0.1717614
v 0.0054601287 0.38963917 0.1717614
v 0.0054601287 0.38963917 0.20192711
v 0.44131368 0.38963917 0.20192711
v 0.44131368 0.38963917 0.1717614
v 0.0054601287 1.6076944 0.17176187
v 0.44131368 1.6076944 0.17176187
v 0.44131368 0.9986668 0.17176165
v 0.005460167 0.9986668 0.17176165
v -0.4303934 1.6076944 0.17176187
v 0.44131368 0.38963917 0.1717614
v -0.4303934 0.9986668 0.17176165
v 0.0054601287 0.38963917 0.1717614
v -0.4303934 0.38963917 0.1717614
v -0.5038404 0.15480836 0.26790383
v -0.5038404 0.15480855 -0.26790377
v -7.6293944E-08 0.15480855 -0.26790377
v -3.8146972E-08 0.15480836 0.26790383
v 0.50384027 0.15480836 0.26790383
v 0.50384027 0.15480855 -0.26790377
v 0.005758362 1.6076944 0.20019381
v 0.4411196 1.6076944 0.17094436
v 0.005758362 1.6076944 0.17094436
v -0.4296029 1.6076944 0.17094436
v 0.4544373 1.6076944 0.20019381
v -0.44292057 1.6076944 0.20019381
v 0.4544373 1.6076944 -0.22589166
v 0.4411196 1.6076944 -0.21257396
v -0.4296029 1.6076944 -0.21257396
v -0.44292057 1.6076944 -0.22589166
v 0.005758362 1.6076944 -0.22589166
v 0.005758362 1.6076944 -0.21257396
vt 0.30151367 0.15185547
vt 0.16760254 0.15185547
vt 0.16760254 0.16271973
vt 0.30151367 0.16271973
vt 0.30151367 0.3647461
vt 0.16760254 0.3647461
vt 0.16760254 0.37573242
vt 0.30151367 0.37573242
vt 0.3256836 0.35302734
vt 0.3256836 0.17419434
vt 0.3149414 0.17419434
vt 0.3149414 0.35302734
vt 0.1538086 0.35302734
vt 0.1538086 0.1743164
vt 0.1430664 0.1743164
vt 0.1430664 0.35302734
vt 0.30126953 0.35302734
vt 0.30126953 0.17419434
vt 0.16748047 0.17419434
vt 0.16748047 0.35302734
vt 0.39501953 0.7319336
vt 0.39501953 0.7504883
vt 0.60791016 0.7504883
vt 0.60791016 0.7319336
vt 0.8208008 0.7319336
vt 0.8208008 0.7504883
vt 0.36791992 0.76220703
vt 0.36791992 0.96435547
vt 0.38720703 0.96435547
vt 0.38720703 0.76220703
vt 0.8305664 0.76220703
vt 0.8305664 0.96435547
vt 0.8491211 0.96435547
vt 0.8491211 0.76220703
vt 0.60839844 0.7832031
vt 0.41333008 0.7832031
vt 0.41333008 0.94433594
vt 0.60839844 0.94433594
vt 0.80322266 0.7832031
vt 0.80322266 0.94433594
vt 0.8208008 0.9921875
vt 0.8208008 0.97314453
vt 0.60791016 0.97314453
vt 0.60791016 0.9921875
vt 0.3955078 0.9921875
vt 0.3955078 0.97314453
vt 0.60791016 0.76220703
vt 0.39501953 0.76220703
vt 0.41333008 0.7832031
vt 0.60839844 0.7832031
vt 0.80322266 0.7832031
vt 0.8208008 0.76220703
vt 0.8208008 0.76220703
vt 0.80322266 0.7832031
vt 0.80322266 0.94433594
vt 0.8208008 0.96435547
vt 0.60791016 0.96435547
vt 0.8208008 0.96435547
vt 0.80322266 0.94433594
vt 0.60839844 0.94433594
vt 0.41333008 0.94433594
vt 0.39501953 0.96435547
vt 0.39501953 0.96435547
vt 0.41333008 0.94433594
vt 0.41333008 0.7832031
vt 0.39501953 0.76220703
vt 0.78759766 0.075683594
vt 0.73095703 0.075683594
vt 0.73095703 0.25830078
vt 0.78759766 0.25830078
vt 0.78759766 0.44091797
vt 0.73095703 0.44091797
vt 0.9916992 0.44970703
vt 0.7973633 0.44970703
vt 0.7973633 0.50634766
vt 0.9916992 0.50634766
vt 0.99072266 0.0073776245
vt 0.7973633 0.0073776245
vt 0.7973633 0.063964844
vt 0.99072266 0.063964844
vt 0.93310547 0.99072266
vt 0.98876953 0.99072266
vt 0.98876953 0.80810547
vt 0.93310547 0.80810547
vt 0.93310547 0.6254883
vt 0.98876953 0.6254883
vt 0.01802063 0.9760742
vt 0.01802063 0.8798828
vt 0.009223938 0.8798828
vt 0.009223938 0.9760742
vt 0.1821289 0.9848633
vt 0.02583313 0.9848633
vt 0.02583313 0.99365234
vt 0.1821289 0.99365234
vt 0.3383789 0.9848633
vt 0.3383789 0.99365234
vt 0.025772095 0.86376953
vt 0.025772095 0.8725586
vt 0.1821289 0.8725586
vt 0.1821289 0.86376953
vt 0.3383789 0.86376953
vt 0.3383789 0.8725586
vt 0.34716797 0.9760742
vt 0.35595703 0.9760742
vt 0.35595703 0.8803711
vt 0.34716797 0.8803711
vt 0.025848389 0.8803711
vt 0.025848389 0.9760742
vt 0.18225098 0.9760742
vt 0.18225098 0.8803711
vt 0.33862305 0.8803711
vt 0.33862305 0.9760742
vt 0.024810791 0.4790039
vt 0.024810791 0.48779297
vt 0.18115234 0.48779297
vt 0.18115234 0.4790039
vt 0.33764648 0.4790039
vt 0.33740234 0.48779297
vt 0.015266418 0.6669922
vt 0.015266418 0.49658203
vt 0.006462097 0.49658203
vt 0.006462097 0.6669922
vt 0.015266418 0.83740234
vt 0.006462097 0.83740234
vt 0.35620117 0.49658203
vt 0.34716797 0.49658203
vt 0.34716797 0.6669922
vt 0.35620117 0.6669922
vt 0.35620117 0.83740234
vt 0.34716797 0.83740234
vt 0.33740234 0.85498047
vt 0.33740234 0.8461914
vt 0.18115234 0.8461914
vt 0.18115234 0.85498047
vt 0.024902344 0.85498047
vt 0.024902344 0.8461914
vt 0.024810791 0.6669922
vt 0.024810791 0.83740234
vt 0.18127441 0.83740234
vt 0.18127441 0.6669922
vt 0.024810791 0.49658203
vt 0.18127441 0.49658203
vt 0.33764648 0.49658203
vt 0.33764648 0.6669922
vt 0.33764648 0.83740234
vt 0.12365723 0.04156494
vt 0.12365723 0.10412598
vt 0.23986816 0.10412598
vt 0.23986816 0.04156494
vt 0.35595703 0.04156494
vt 0.35595703 0.10412598
vt 0.47509766 0.44018555
vt 0.37280273 0.27783203
vt 0.37280273 0.44018555
vt 0.47509766 0.24707031
vt 0.37280273 0.11566162
vt 0.47509766 0.054107666
vt 0.3647461 0.054107666
vt 0.3647461 0.11566162
vt 0.48486328 0.2475586
vt 0.48486328 0.44091797
vt 0.6010742 0.44091797
vt 0.6010742 0.2475586
vt 0.48486328 0.05419922
vt 0.6010742 0.05419922
vt 0.71728516 0.05419922
vt 0.71728516 0.2475586
vt 0.71728516 0.44091797
vt 0.10687256 0.1352539
vt 0.1149292 0.1352539
vt 0.1149292 0.072753906
vt 0.0044136047 0.072753906
vt 0.0044136047 0.26611328
vt 0.10687256 0.29736328
vt 0.0044136047 0.45947266
vt 0.10687256 0.45947266
vt 0.12365723 0.11663818
vt 0.12365723 0.12463379
vt 0.23986816 0.12463379
vt 0.23986816 0.11663818
vt 0.35595703 0.11663818
vt 0.35595703 0.12463379
vt 0.2397461 0.45947266
vt 0.35595703 0.45947266
vt 0.35595703 0.29736328
vt 0.2397461 0.29736328
vt 0.123535156 0.45947266
vt 0.35595703 0.13537598
vt 0.123535156 0.29736328
vt 0.2397461 0.13537598
vt 0.123535156 0.13537598
vt 0.7973633 0.44091797
vt 0.99072266 0.44091797
vt 0.99072266 0.25830078
vt 0.7973633 0.25830078
vt 0.7973633 0.07574463
vt 0.99072266 0.07574463
vt 0.60791016 0.72021484
vt 0.8144531 0.70654297
vt 0.60791016 0.70654297
vt 0.4013672 0.70654297
vt 0.8208008 0.72021484
vt 0.39501953 0.72021484
vt 0.8208008 0.5180664
vt 0.8144531 0.52441406
vt 0.4013672 0.52441406
vt 0.39501953 0.5180664
vt 0.60791016 0.5180664
vt 0.60791016 0.52441406
vn 1.66893E-06 -1 1.1920929E-07
vn 1.66893E-06 -1 1.1920929E-07
vn 1.66893E-06 -1 1.1920929E-07
vn 1.66893E-06 -1 1.1920929E-07
vn -0 1 0
vn -0 1 0
vn -0 1 0
vn -0 1 0
vn -4.172325E-07 -1.4901161E-06 1
vn -4.172325E-07 -1.4901161E-06 1
vn -4.172325E-07 -1.4901161E-06 1
vn -4.172325E-07 -1.4901161E-06 1
vn 2.3841858E-07 3.5762787E-07 -1
vn 2.3841858E-07 3.5762787E-07 -1
vn 2.3841858E-07 3.5762787E-07 -1
vn 2.3841858E-07 3.5762787E-07 -1
vn -1 0 0
vn -1 0 0
vn -1 0 0
vn -1 0 0
vn -0 0 1
vn -0 0 1
vn -0 0 1
vn -0 0 1
vn -0 0 1
vn -0 0 1
vn -1 0 0
vn -1 0 0
vn -1 0 0
vn -1 0 0
vn 1 0 0
vn 1 0 0
vn 1 0 0
vn 1 0 0
vn -0 1 0
vn -0 1 0
vn -0 1 0
vn -0 1 0
vn -0 1 0
vn -0 1 0
vn -0 0 -1
vn -0 0 -1
vn -0 0 -1
vn -0 0 -1
vn -0 0 -1
vn -0 0 -1
vn -0 0.7714844 0.6357422
vn -0 0.7714844 0.6357422
vn -0 0.7714844 0.6357422
vn -0 0.7714844 0.6357422
vn -0 0.7714844 0.6357422
vn -0 0.7714844 0.6357422
vn 0.6777344 0.73535156 0
vn 0.6777344 0.73535156 0
vn 0.6777344 0.73535156 0
vn 0.6777344 0.73535156 0
vn -0 0.7714844 -0.6357422
vn -0 0.7714844 -0.6357422
vn -0 0.7714844 -0.6357422
vn -0 0.7714844 -0.6357422
vn -0 0.7714844 -0.6357422
vn -0 0.7714844 -0.6357422
vn -0.6777344 0.73535156 0
vn -0.6777344 0.73535156 0
vn -0.6777344 0.73535156 0
vn -0.6777344 0.73535156 0
vn -0 -2.3841858E-07 1
vn -0 -2.3841858E-07 1
vn -0 -2.3841858E-07 1
vn -0 -2.3841858E-07 1
vn -0 -2.3841858E-07 1
vn -0 -2.3841858E-07 1
vn -1 0 0
vn -1 0 0
vn -1 0 0
vn -1 0 0
vn 1 0 0
vn 1 0 0
vn 1 0 0
vn 1 0 0
vn -0 2.3841858E-07 -1
vn -0 2.3841858E-07 -1
vn -0 2.3841858E-07 -1
vn -0 2.3841858E-07 -1
vn -0 2.3841858E-07 -1
vn -0 2.3841858E-07 -1
vn -1 0 7.212162E-06
vn -1 0 7.212162E-06
vn -1 0 7.212162E-06
vn -1 0 7.212162E-06
vn -0 1 0.00023686886
vn -0 1 0.00023686886
vn -0 1 0.00023686886
vn -0 1 0.00023686886
vn -0 1 0.00023686886
vn -0 1 0.00023686886
vn -0 -1 0.00023055077
vn -0 -1 0.00023055077
vn -0 -1 0.00023055077
vn -0 -1 0.00023055077
vn -0 -1 0.00023055077
vn -0 -1 0.00023055077
vn 1 0 6.377697E-06
vn 1 0 6.377697E-06
vn 1 0 6.377697E-06
vn 1 0 6.377697E-06
vn -0 -7.1525574E-07 1
vn -0 -7.1525574E-07 1
vn -0 -7.1525574E-07 1
vn -0 -7.1525574E-07 1
vn -0 -7.1525574E-07 1
vn -0 -7.1525574E-07 1
vn -0 -1 0
vn -0 -1 0
vn -0 -1 0
vn -0 -1 0
vn -0 -1 0
vn -0 -1 0
vn -1 0 0.0005040169
vn -1 0 0.0005040169
vn -1 0 0.0005040169
vn -1 0 0.0005040169
vn -1 0 0.0005040169
vn -1 0 0.0005040169
vn 1 0 0.0009784698
vn 1 0 0.0009784698
vn 1 0 0.0009784698
vn 1 0 0.0009784698
vn 1 0 0.0009784698
vn 1 0 0.0009784698
vn -0 1 0
vn -0 1 0
vn -0 1 0
vn -0 1 0
vn -0 1 0
vn -0 1 0
vn -0 -4.7683716E-07 1
vn -0 -4.7683716E-07 1
vn -0 -4.7683716E-07 1
vn -0 -4.7683716E-07 1
vn -0 -4.172325E-07 1
vn -0 -4.172325E-07 1
vn -0 -4.172325E-07 1
vn -0 -4.7683716E-07 1
vn -0 -4.7683716E-07 1
vn -0 -4.172325E-07 1
vn -0 -4.172325E-07 1
vn -0 -4.172325E-07 1
vn -0 -4.172325E-07 1
vn -0 -4.172325E-07 1
vn -0 -4.172325E-07 1
vn 1 0 0
vn 1 0 0
vn 1 0 0
vn 1 0 0
vn 1 0 0
vn 1 0 0
vn 1 0 0
vn 1 0 0
vn -0 3.5762787E-07 -1
vn -0 3.5762787E-07 -1
vn -0 3.5762787E-07 -1
vn -0 3.5762787E-07 -1
vn -0 4.172325E-07 -1
vn -0 4.172325E-07 -1
vn -0 4.172325E-07 -1
vn -0 3.5762787E-07 -1
vn -0 3.5762787E-07 -1
vn -1 0 0
vn -1 0 0
vn -1 0 0
vn -1 0 0
vn -1 0 0
vn -1 0 0
vn -1 0 0
vn -1 0 0
vn -0 1 0
vn -0 1 0
vn -0 1 0
vn -0 1 0
vn -0 1 0
vn -0 1 0
vn -0 -3.5762787E-07 1
vn -0 -3.5762787E-07 1
vn -0 -3.5762787E-07 1
vn -0 -3.5762787E-07 1
vn -0 -3.5762787E-07 1
vn -0 -4.172325E-07 1
vn -0 -4.172325E-07 1
vn -0 -4.172325E-07 1
vn -0 -4.172325E-07 1
vn -0 1 3.5762787E-07
vn -0 1 3.5762787E-07
vn -0 1 3.5762787E-07
vn -0 1 3.5762787E-07
vn -0 1 3.5762787E-07
vn -0 1 3.5762787E-07
vn -0 -1 0
vn -0 -1 0
vn -0 -1 0
vn -0 -1 0
vn -0 -1 0
vn -0 -1 0
vn -0 -1 0
vn -0 -1 0
vn -0 -1 0
vn -0 -1 0
vn -0 -1 0
vn -0 -1 0
g MetroArea_Prop_ElectricBox_02_Eff_0
f 3/3/3 2/2/2 1/1/1
f 4/4/4 3/3/3 1/1/1
f 7/7/7 6/6/6 5/5/5
f 8/8/8 7/7/7 5/5/5
f 11/11/11 10/10/10 9/9/9
f 12/12/12 11/11/11 9/9/9
f 15/15/15 14/14/14 13/13/13
f 16/16/16 15/15/15 13/13/13
f 19/19/19 18/18/18 17/17/17
f 20/20/20 19/19/19 17/17/17
f 23/23/23 22/22/22 21/21/21
f 24/24/24 23/23/23 21/21/21
f 23/23/23 24/24/24 25/25/25
f 26/26/26 23/23/23 25/25/25
f 29/29/29 28/28/28 27/27/27
f 30/30/30 29/29/29 27/27/27
f 33/33/33 32/32/32 31/31/31
f 34/34/34 33/33/33 31/31/31
f 37/37/37 36/36/36 35/35/35
f 38/38/38 37/37/37 35/35/35
f 38/38/38 35/35/35 39/39/39
f 40/40/40 38/38/38 39/39/39
f 43/43/43 42/42/42 41/41/41
f 44/44/44 43/43/43 41/41/41
f 43/43/43 44/44/44 45/45/45
f 46/46/46 43/43/43 45/45/45
f 49/49/49 48/48/48 47/47/47
f 50/50/50 49/49/49 47/47/47
f 51/51/51 50/50/50 47/47/47
f 52/52/52 51/51/51 47/47/47
f 55/55/55 54/54/54 53/53/53
f 56/56/56 55/55/55 53/53/53
f 59/59/59 58/58/58 57/57/57
f 60/60/60 59/59/59 57/57/57
f 61/61/61 60/60/60 57/57/57
f 62/62/62 61/61/61 57/57/57
f 65/65/65 64/64/64 63/63/63
f 66/66/66 65/65/65 63/63/63
f 69/69/69 68/68/68 67/67/67
f 70/70/70 69/69/69 67/67/67
f 69/69/69 70/70/70 71/71/71
f 72/72/72 69/69/69 71/71/71
f 75/75/75 74/74/74 73/73/73
f 76/76/76 75/75/75 73/73/73
f 79/79/79 78/78/78 77/77/77
f 80/80/80 79/79/79 77/77/77
f 83/83/83 82/82/82 81/81/81
f 84/84/84 83/83/83 81/81/81
f 83/83/83 84/84/84 85/85/85
f 86/86/86 83/83/83 85/85/85
f 89/89/89 88/88/88 87/87/87
f 90/90/90 89/89/89 87/87/87
f 93/93/93 92/92/92 91/91/91
f 94/94/94 93/93/93 91/91/91
f 94/94/94 91/91/91 95/95/95
f 96/96/96 94/94/94 95/95/95
f 99/99/99 98/98/98 97/97/97
f 100/100/100 99/99/99 97/97/97
f 99/99/99 100/100/100 101/101/101
f 102/102/102 99/99/99 101/101/101
f 105/105/105 104/104/104 103/103/103
f 106/106/106 105/105/105 103/103/103
f 109/109/109 108/108/108 107/107/107
f 110/110/110 109/109/109 107/107/107
f 109/109/109 110/110/110 111/111/111
f 112/112/112 109/109/109 111/111/111
f 115/115/115 114/114/114 113/113/113
f 116/116/116 115/115/115 113/113/113
f 115/115/115 116/116/116 117/117/117
f 118/118/118 115/115/115 117/117/117
f 121/121/121 120/120/120 119/119/119
f 122/122/122 121/121/121 119/119/119
f 122/122/122 119/119/119 123/123/123
f 124/124/124 122/122/122 123/123/123
f 127/127/127 126/126/126 125/125/125
f 128/128/128 127/127/127 125/125/125
f 127/127/127 128/128/128 129/129/129
f 130/130/130 127/127/127 129/129/129
f 133/133/133 132/132/132 131/131/131
f 134/134/134 133/133/133 131/131/131
f 133/133/133 134/134/134 135/135/135
f 136/136/136 133/133/133 135/135/135
f 139/139/139 138/138/138 137/137/137
f 140/140/140 139/139/139 137/137/137
f 140/140/140 137/137/137 141/141/141
f 142/142/142 140/140/140 141/141/141
f 140/140/140 142/142/142 143/143/143
f 144/144/144 140/140/140 143/143/143
f 139/139/139 140/140/140 144/144/144
f 145/145/145 139/139/139 144/144/144
f 148/148/148 147/147/147 146/146/146
f 149/149/149 148/148/148 146/146/146
f 148/148/148 149/149/149 150/150/150
f 151/151/151 148/148/148 150/150/150
f 154/154/154 153/153/153 152/152/152
f 153/153/153 155/155/155 152/152/152
f 155/155/155 153/153/153 156/156/156
f 157/157/157 155/155/155 156/156/156
f 158/158/158 157/157/157 156/156/156
f 159/159/159 158/158/158 156/156/156
f 162/162/162 161/161/161 160/160/160
f 163/163/163 162/162/162 160/160/160
f 163/163/163 160/160/160 164/164/164
f 165/165/165 163/163/163 164/164/164
f 163/163/163 165/165/165 166/166/166
f 167/167/167 163/163/163 166/166/166
f 162/162/162 163/163/163 167/167/167
f 168/168/168 162/162/162 167/167/167
f 171/171/171 170/170/170 169/169/169
f 169/169/169 172/172/172 171/171/171
f 173/173/173 172/172/172 169/169/169
f 174/174/174 173/173/173 169/169/169
f 175/175/175 173/173/173 174/174/174
f 176/176/176 175/175/175 174/174/174
f 179/179/179 178/178/178 177/177/177
f 180/180/180 179/179/179 177/177/177
f 179/179/179 180/180/180 181/181/181
f 182/182/182 179/179/179 181/181/181
f 185/185/185 184/184/184 183/183/183
f 186/186/186 185/185/185 183/183/183
f 186/186/186 183/183/183 187/187/187
f 185/185/185 186/186/186 188/188/188
f 189/189/189 186/186/186 187/187/187
f 186/186/186 190/190/190 188/188/188
f 186/186/186 189/189/189 191/191/191
f 190/190/190 186/186/186 191/191/191
f 194/194/194 193/193/193 192/192/192
f 195/195/195 194/194/194 192/192/192
f 194/194/194 195/195/195 196/196/196
f 197/197/197 194/194/194 196/196/196
f 200/200/200 199/199/199 198/198/198
f 201/201/201 200/200/200 198/198/198
f 199/199/199 202/202/202 198/198/198
f 203/203/203 201/201/201 198/198/198
f 202/202/202 199/199/199 204/204/204
f 199/199/199 205/205/205 204/204/204
f 206/206/206 201/201/201 203/203/203
f 207/207/207 206/206/206 203/203/203
f 204/204/204 205/205/205 208/208/208
f 206/206/206 207/207/207 208/208/208
f 205/205/205 209/209/209 208/208/208
f 209/209/209 206/206/206 208/208/208
