g MetroArea_Ground_PassgaeWay_01
v -1.2656704 0.0002671838 -3.7520688
v -1.2656708 0.049855832 -1.2520686
v -1.2656708 0.0002670741 -1.2520686
v 1.2343291 0.0002670741 -1.2520683
v 1.2343291 0.036281534 -1.2520683
v 1.2343295 0.0002671838 -3.752068
v 3.7343292 0.0002670741 -1.2520678
v 3.7343292 0.0391297 -1.2520678
v 1.2343291 0.0002670741 -1.2520683
v 1.2343286 0.00026696443 1.2479317
v 3.7343285 0.010266964 1.2479321
v 3.7343285 0.00026696443 1.2479321
v 1.2343521 0.010266849 -1.2521312
v 1.2343286 0.010266964 1.2479317
v -1.2656713 0.026625186 1.2479312
v -1.2656478 0.015066119 -1.2521317
v 3.7343292 0.0391297 -1.2520678
v 3.7343285 0.010266964 1.2479321
v 1.2343286 0.00026696443 1.2479317
v 1.2343291 0.0002670741 -1.2520683
v 3.7343295 0.0002671838 -3.7520678
v 3.7343292 0.0002670741 -1.2520678
v 1.2343295 0.0002671838 -3.752068
v 1.2343291 0.036281534 -1.2520683
v -1.2656708 0.049855832 -1.2520686
v -1.2656704 0.0002671838 -3.7520688
v -1.2656716 0.00026685596 3.7479312
v -1.2656713 0.00026696443 1.2479312
v 1.2343283 0.00026685596 3.7479317
v 3.7343285 0.00026696443 1.2479321
v 3.7343283 0.00026685596 3.747932
v -3.7656713 0.00026696443 1.2479309
v -1.2656708 0.0002670741 -1.2520686
v -3.7656708 0.0002670741 -1.2520691
v -3.7656715 0.010266855 3.7479308
v -3.7656713 0.010266964 1.2479309
v -1.2656713 0.017646939 1.2481872
v -1.2656716 0.010266855 3.7479312
v -1.2656704 0.010267183 -3.7520688
v -1.2656708 0.015066344 -1.2520686
v -3.7656708 0.010267074 -1.2520691
v -3.7656703 0.010267183 -3.752069
v -3.7656708 0.0002670741 -1.2520691
v -3.7656703 -0.1428976 -3.752069
v -3.7656703 0.0002671838 -3.752069
v -3.7656708 -0.14289771 -1.2520691
v -3.7656713 0.00026696443 1.2479309
v -3.7656713 -0.14289783 1.2479309
v -3.7656715 0.00026685596 3.7479308
v -3.7656715 -0.14289793 3.7479308
v -1.2656716 0.00026685596 3.7479312
v -3.7656715 -0.14289793 3.7479308
v -3.7656715 0.00026685596 3.7479308
v -1.2656716 -0.14289793 3.7479312
v 1.2343283 0.00026685596 3.7479317
v 1.2343283 -0.14289793 3.7479317
v 3.7343283 0.00026685596 3.747932
v 3.7343283 -0.14289793 3.747932
v 3.7343285 0.00026696443 1.2479321
v 3.7343283 -0.14289793 3.747932
v 3.7343283 0.00026685596 3.747932
v 3.7343285 -0.14289783 1.2479321
v 3.7343292 0.0002670741 -1.2520678
v 3.7343292 -0.14289771 -1.2520678
v 3.7343285 0.00026696443 1.2479321
v 3.7343292 0.0391297 -1.2520678
v 3.7343285 0.010266964 1.2479321
v 3.7343295 0.0002671838 -3.7520678
v 3.7343295 -0.1428976 -3.7520678
v 3.7343292 0.0002670741 -1.2520678
v 1.2343295 0.0002671838 -3.752068
v 3.7343295 -0.1428976 -3.7520678
v 3.7343295 0.0002671838 -3.7520678
v 1.2343295 -0.1428976 -3.752068
v -1.2656704 0.0002671838 -3.7520688
v -1.2656704 -0.1428976 -3.7520688
v -3.7656703 0.0002671838 -3.752069
v -3.7656703 -0.1428976 -3.752069
v -1.2656704 0.0002671838 -3.7520688
v -3.7656703 0.010267183 -3.752069
v -1.2656704 0.010267183 -3.7520688
v -1.2656708 0.0002670741 -1.2520686
v -1.2656708 0.049855832 -1.2520686
v 1.2343291 0.036281534 -1.2520683
v 1.2343291 0.0002670741 -1.2520683
v 1.2343286 0.00026696443 1.2479317
v 1.2343286 0.010266964 1.2479317
v 1.2343291 0.0002670741 -1.2520683
v 1.2343521 0.010266849 -1.2521312
v -1.2656708 0.0002670741 -1.2520686
v -1.2656713 0.026625186 1.2479312
v -1.2656713 0.00026696443 1.2479312
v -1.2656478 0.015066119 -1.2521317
v -1.2656713 0.00026696443 1.2479312
v -1.2656713 0.026625186 1.2479312
v 1.2343286 0.010266964 1.2479317
v 1.2343286 0.00026696443 1.2479317
v -3.7656703 0.0002671838 -3.752069
v -3.7656703 0.010267183 -3.752069
v -3.7656708 0.010267074 -1.2520691
v -3.7656708 0.0002670741 -1.2520691
v -3.7656708 0.0002670741 -1.2520691
v -3.7656708 0.010267074 -1.2520691
v -1.2656708 0.015066344 -1.2520686
v -1.2656708 0.0002670741 -1.2520686
v -1.2656708 0.0002670741 -1.2520686
v -1.2656708 0.015066344 -1.2520686
v -1.2656704 0.010267183 -3.7520688
v -1.2656704 0.0002671838 -3.7520688
v -3.7656715 0.00026685596 3.7479308
v -3.7656715 0.010266855 3.7479308
v -1.2656716 0.010266855 3.7479312
v -1.2656716 0.00026685596 3.7479312
v -1.2656716 0.00026685596 3.7479312
v -1.2656716 0.010266855 3.7479312
v -1.2656713 0.017646939 1.2481872
v -1.2656713 0.00026696443 1.2479312
v -1.2656713 0.00026696443 1.2479312
v -1.2656713 0.017646939 1.2481872
v -3.7656713 0.010266964 1.2479309
v -3.7656713 0.00026696443 1.2479309
v -3.7656713 0.00026696443 1.2479309
v -3.7656713 0.010266964 1.2479309
v -3.7656715 0.010266855 3.7479308
v -3.7656715 0.00026685596 3.7479308
v 1.2343291 0.0002670741 -1.2520683
v 1.2343521 0.010266849 -1.2521312
v -1.2656478 0.015066119 -1.2521317
v -1.2656708 0.0002670741 -1.2520686
vt 0.0010156631 0.33325195
vt 0.33325195 0.3334961
vt 0.33325195 0.33813477
vt 0.33325195 0.6621094
vt 0.33325195 0.6665039
vt 0.0024032593 0.6665039
vt 0.3383789 0.9995117
vt 0.33325195 0.9995117
vt 0.33325195 0.6665039
vt 0.6665039 0.6665039
vt 0.6665039 0.9995117
vt 0.6645508 0.9995117
vt 0.33325195 0.6665039
vt 0.6665039 0.6665039
vt 0.6665039 0.33325195
vt 0.33325195 0.33325195
vt 0.33325195 0.9995117
vt 0.6665039 0.9995117
vt 0.6665039 0.6665039
vt 0.33325195 0.6665039
vt 0.0008049011 0.9995117
vt 0.33325195 0.9995117
vt 0.0008049011 0.6665039
vt 0.33325195 0.6665039
vt 0.33325195 0.33325195
vt 0.0008049011 0.33325195
vt 0.99902344 0.33325195
vt 0.6665039 0.33325195
vt 0.99902344 0.6665039
vt 0.6665039 0.9995117
vt 0.99902344 0.9995117
vt 0.6665039 0.0016021729
vt 0.33325195 0.33325195
vt 0.33325195 0.0016021729
vt 0.99902344 0.0016021729
vt 0.6665039 0.0016021729
vt 0.6665039 0.33325195
vt 0.99902344 0.33325195
vt 0.0008049011 0.33325195
vt 0.33325195 0.33325195
vt 0.33325195 0.0016021729
vt 0.0008049011 0.0016021729
vt 0.33325195 0.0016021729
vt 0.0008049011 0.011871338
vt 0.0008049011 0.0016021729
vt 0.33325195 0.011871338
vt 0.6665039 0.0016021729
vt 0.6665039 0.011871338
vt 0.99902344 0.0016021729
vt 0.99902344 0.011871338
vt 0.99902344 0.33325195
vt 0.98876953 0.0016021729
vt 0.99902344 0.0016021729
vt 0.98876953 0.33325195
vt 0.99902344 0.6665039
vt 0.98876953 0.6665039
vt 0.99902344 0.9995117
vt 0.98876953 0.9995117
vt 0.6665039 0.9995117
vt 0.99902344 0.98876953
vt 0.99902344 0.9995117
vt 0.6665039 0.98876953
vt 0.33325195 0.9970703
vt 0.33325195 0.98876953
vt 0.6665039 0.9970703
vt 0.33325195 0.9995117
vt 0.6665039 0.9995117
vt 0.0008049011 0.9995117
vt 0.0008049011 0.98876953
vt 0.33325195 0.9995117
vt 0.0008049011 0.6665039
vt 0.011405945 0.9995117
vt 0.0008049011 0.9995117
vt 0.011405945 0.6665039
vt 0.0008049011 0.33325195
vt 0.011405945 0.33325195
vt 0.0020160675 0.0016021729
vt 0.011405945 0.0016021729
vt 0.0020160675 0.33325195
vt 0.0008034706 0.0015935898
vt 0.0008034706 0.33325195
vt 0.32885742 0.33325195
vt 0.3334961 0.33325195
vt 0.33325195 0.6665039
vt 0.3305664 0.6665039
vt 0.6665039 0.65966797
vt 0.6665039 0.6665039
vt 0.3334961 0.65966797
vt 0.3334961 0.6665039
vt 0.33325195 0.33520508
vt 0.6665039 0.33325195
vt 0.6665039 0.33691406
vt 0.33325195 0.33325195
vt 0.6640625 0.33325195
vt 0.6665039 0.33325195
vt 0.6665039 0.6665039
vt 0.6645508 0.6665039
vt 0.0008049011 0.0016021729
vt 0.0008049011 0.0016021729
vt 0.33325195 0.0016021729
vt 0.33325195 0.0016021729
vt 0.33154297 0.0024204254
vt 0.3330078 0.0024204254
vt 0.3334961 0.33251953
vt 0.33154297 0.33251953
vt 0.33325195 0.33325195
vt 0.33325195 0.33325195
vt 0.0008049011 0.33325195
vt 0.0008049011 0.33325195
vt 0.99902344 0.0016021729
vt 0.99902344 0.0016021729
vt 0.99902344 0.33325195
vt 0.99902344 0.33325195
vt 0.99902344 0.3359375
vt 0.99902344 0.3334961
vt 0.6669922 0.33325195
vt 0.6665039 0.33691406
vt 0.6689453 0.33325195
vt 0.6665039 0.33325195
vt 0.6665039 0.0016059875
vt 0.66796875 0.0016059875
vt 0.6665039 0.0016021729
vt 0.6665039 0.0016021729
vt 0.99902344 0.0016021729
vt 0.99902344 0.0016021729
vt 0.33325195 0.6665039
vt 0.33325195 0.6665039
vt 0.33325195 0.33325195
vt 0.33325195 0.33325195
vn -1 0 -1.7881393E-07
vn -1 0 -1.7881393E-07
vn -1 0 -1.7881393E-07
vn 1 0 1.7881393E-07
vn 1 0 1.7881393E-07
vn 1 0 1.7881393E-07
vn 1.7881393E-07 0 -1
vn 1.7881393E-07 0 -1
vn 1.7881393E-07 0 -1
vn -1.7881393E-07 0 1
vn -1.7881393E-07 0 1
vn -1.7881393E-07 0 1
vn 0.0042304993 1 -0.0023117065
vn 0.0042304993 1 -0.0023117065
vn 0.0042304993 1 -0.0023117065
vn 0.0042304993 1 -0.0023117065
vn -0.009773254 1 0.005771637
vn -0.009773254 1 0.005771637
vn -0.0032577515 1 0.0019245148
vn -0.004886627 1 0.0028858185
vn -0 1 0
vn -0 1 0
vn 0.0013570786 1 -0.008560181
vn 0.002714157 1 -0.017120361
vn 0.002714157 1 -0.017120361
vn 0.002714157 1 -0.017120361
vn -0 1 0
vn -0 1 0
vn -0 1 0
vn -0 1 0
vn -0 1 0
vn -0 1 0
vn -0 1 0
vn -0 1 0
vn -0.0014762878 1 0.0014762878
vn -0.0014762878 1 0.0014762878
vn -0.0014762878 1 0.0014762878
vn -0.0014762878 1 0.0014762878
vn -0.0009598732 1 -0.0009598732
vn -0.0009598732 1 -0.0009598732
vn -0.0009598732 1 -0.0009598732
vn -0.0009598732 1 -0.0009598732
vn -1 0 -1.1920929E-07
vn -1 0 -1.1920929E-07
vn -1 0 -1.1920929E-07
vn -1 0 -1.1920929E-07
vn -1 0 -2.3841858E-07
vn -1 0 -2.3841858E-07
vn -1 0 -1.1920929E-07
vn -1 0 -1.1920929E-07
vn -1.1920929E-07 0 1
vn -1.1920929E-07 0 1
vn -1.1920929E-07 0 1
vn -1.1920929E-07 0 1
vn -2.3841858E-07 0 1
vn -2.3841858E-07 0 1
vn -1.1920929E-07 0 1
vn -1.1920929E-07 0 1
vn 1 0 1.1920929E-07
vn 1 0 1.1920929E-07
vn 1 0 1.1920929E-07
vn 1 0 1.1920929E-07
vn 1 0 2.3841858E-07
vn 1 0 2.3841858E-07
vn 1 0 2.3841858E-07
vn 1 0 2.3841858E-07
vn 1 0 2.3841858E-07
vn 1 0 1.1920929E-07
vn 1 0 1.1920929E-07
vn 1 0 1.1920929E-07
vn 1.1920929E-07 0 -1
vn 1.1920929E-07 0 -1
vn 1.1920929E-07 0 -1
vn 1.1920929E-07 0 -1
vn 2.3841858E-07 0 -1
vn 2.3841858E-07 0 -1
vn 1.1920929E-07 0 -1
vn 1.1920929E-07 0 -1
vn 1.1920929E-07 0 -1
vn 1.1920929E-07 0 -1
vn 1.1920929E-07 0 -1
vn -1.7881393E-07 0 1
vn -1.7881393E-07 0 1
vn -1.7881393E-07 0 1
vn -1.7881393E-07 0 1
vn 1 0 1.7881393E-07
vn 1 0 1.7881393E-07
vn 1 0 1.7881393E-07
vn 1 -0.0023040771 9.417534E-06
vn -1 0 -1.7881393E-07
vn -1 0 -1.7881393E-07
vn -1 0 -1.7881393E-07
vn -1 0.0015563965 -1.6570091E-05
vn -1.7881393E-07 0 1
vn -1.7881393E-07 0 1
vn -1.7881393E-07 0 1
vn -1.7881393E-07 0 1
vn -1 0 -1.1920929E-07
vn -1 0 -1.1920929E-07
vn -1 0 -1.1920929E-07
vn -1 0 -1.1920929E-07
vn -1.7881393E-07 0 1
vn -1.7881393E-07 0 1
vn -1.7881393E-07 0 1
vn -1.7881393E-07 0 1
vn 1 0 1.7881393E-07
vn 1 0 1.7881393E-07
vn 1 0 1.7881393E-07
vn 1 0 1.7881393E-07
vn -1.1920929E-07 0 1
vn -1.1920929E-07 0 1
vn -1.1920929E-07 0 1
vn -1.1920929E-07 0 1
vn 1 0 1.7881393E-07
vn 1 0 1.7881393E-07
vn 1 0 1.7881393E-07
vn 1 0 1.7881393E-07
vn 3.7550926E-05 0.009346008 -1
vn 3.7550926E-05 0.009346008 -1
vn 3.7550926E-05 0.009346008 -1
vn 3.7550926E-05 0.009346008 -1
vn -1 0 -1.1920929E-07
vn -1 0 -1.1920929E-07
vn -1 0 -1.1920929E-07
vn -1 0 -1.1920929E-07
vn -4.708767E-06 -0.0050811768 -1
vn -4.708767E-06 -0.0050811768 -1
vn -4.708767E-06 -0.0050811768 -1
vn -4.708767E-06 -0.0050811768 -1
g MetroArea_Ground_PassgaeWay_01_0
f 3/3/3 2/2/2 1/1/1
f 6/6/6 5/5/5 4/4/4
f 9/9/9 8/8/8 7/7/7
f 12/12/12 11/11/11 10/10/10
f 15/15/15 14/14/14 13/13/13
f 16/16/16 15/15/15 13/13/13
f 19/19/19 18/18/18 17/17/17
f 20/20/20 19/19/19 17/17/17
f 20/20/20 22/22/22 21/21/21
f 23/23/23 20/20/20 21/21/21
f 25/25/25 24/24/24 23/23/23
f 26/26/26 25/25/25 23/23/23
f 19/19/19 28/28/28 27/27/27
f 29/29/29 19/19/19 27/27/27
f 30/30/30 19/19/19 29/29/29
f 31/31/31 30/30/30 29/29/29
f 28/28/28 33/33/33 32/32/32
f 33/33/33 34/34/34 32/32/32
f 37/37/37 36/36/36 35/35/35
f 38/38/38 37/37/37 35/35/35
f 41/41/41 40/40/40 39/39/39
f 42/42/42 41/41/41 39/39/39
f 45/45/45 44/44/44 43/43/43
f 44/44/44 46/46/46 43/43/43
f 43/43/43 46/46/46 47/47/47
f 46/46/46 48/48/48 47/47/47
f 47/47/47 48/48/48 49/49/49
f 48/48/48 50/50/50 49/49/49
f 53/53/53 52/52/52 51/51/51
f 52/52/52 54/54/54 51/51/51
f 51/51/51 54/54/54 55/55/55
f 54/54/54 56/56/56 55/55/55
f 55/55/55 56/56/56 57/57/57
f 56/56/56 58/58/58 57/57/57
f 61/61/61 60/60/60 59/59/59
f 60/60/60 62/62/62 59/59/59
f 62/62/62 64/64/64 63/63/63
f 65/65/65 62/62/62 63/63/63
f 63/63/63 66/66/66 65/65/65
f 66/66/66 67/67/67 65/65/65
f 64/64/64 69/69/69 68/68/68
f 70/70/70 64/64/64 68/68/68
f 73/73/73 72/72/72 71/71/71
f 72/72/72 74/74/74 71/71/71
f 71/71/71 74/74/74 75/75/75
f 74/74/74 76/76/76 75/75/75
f 76/76/76 78/78/78 77/77/77
f 79/79/79 76/76/76 77/77/77
f 77/77/77 80/80/80 79/79/79
f 80/80/80 81/81/81 79/79/79
f 84/84/84 83/83/83 82/82/82
f 85/85/85 84/84/84 82/82/82
f 88/88/88 87/87/87 86/86/86
f 88/88/88 89/89/89 87/87/87
f 92/92/92 91/91/91 90/90/90
f 91/91/91 93/93/93 90/90/90
f 96/96/96 95/95/95 94/94/94
f 97/97/97 96/96/96 94/94/94
f 100/100/100 99/99/99 98/98/98
f 101/101/101 100/100/100 98/98/98
f 104/104/104 103/103/103 102/102/102
f 105/105/105 104/104/104 102/102/102
f 108/108/108 107/107/107 106/106/106
f 109/109/109 108/108/108 106/106/106
f 112/112/112 111/111/111 110/110/110
f 113/113/113 112/112/112 110/110/110
f 116/116/116 115/115/115 114/114/114
f 117/117/117 116/116/116 114/114/114
f 120/120/120 119/119/119 118/118/118
f 121/121/121 120/120/120 118/118/118
f 124/124/124 123/123/123 122/122/122
f 125/125/125 124/124/124 122/122/122
f 128/128/128 127/127/127 126/126/126
f 129/129/129 128/128/128 126/126/126
