g MetroArea_Building_Card_23
v 0.8901002 8.912443 2.3015116E-06
v 0.96345997 8.82728 2.440178E-06
v 0.93215233 8.660797 2.4062954E-06
v 0.7012238 8.89052 1.9757933E-06
v -0.017960517 6.8881145 7.5958224E-07
v 1.7036493 7.5698104 4.2928036E-06
v 1.0097228 8.670915 2.5441414E-06
v 2.4359207 9.876386 5.664914E-06
v 1.7592969 7.487179 4.3858013E-06
v 2.3785803 10.03322 5.572222E-06
v 2.0420089 6.3007245 4.8247516E-06
v 1.8365947 7.458257 4.520434E-06
v 2.12416 10.661915 5.042193E-06
v 1.8442152 11.167833 3.9715255E-06
v 2.1713789 10.645052 5.1399857E-06
v 2.2759354 11.063277 4.929278E-06
v 2.2725627 11.208306 4.7874087E-06
v 2.1646335 11.272388 4.5399347E-06
v 2.642213 10.752297 6.0613434E-06
v 2.2590716 10.921619 5.3022527E-06
v 2.594994 10.99851 5.9901295E-06
v 2.4445715 11.053158 5.642649E-06
v -0.23737028 6.6376996 3.780594E-07
v -0.4877811 5.941304 -4.9336293E-08
v -0.08712299 6.8785753 6.368948E-07
v 2.1063983 6.255411 4.9345563E-06
v 2.1278634 6.095621 4.9648374E-06
v 2.203632 5.6852145 5.086161E-06
v 2.251559 6.052848 5.177714E-06
v 1.8632282 4.707107 4.4541375E-06
v 1.8042474 4.360777 4.327179E-06
v 1.9211135 4.6922803 4.544559E-06
v 0.69324774 0.9531188 2.1584146E-06
v -0.62610924 5.8697577 -2.92712E-07
v 0.92458344 0.94119453 2.5640811E-06
v 2.0045853 4.334543 4.673836E-06
v 1.2060057 0.76948017 3.0507074E-06
v 2.1950116 4.444248 5.010725E-06
v 3.2606287 4.28639 6.862731E-06
v 1.51843 0.78327215 3.6025417E-06
v -1.2724224 5.6765795 -1.4420324E-06
v -1.332731 0.48895374 -1.4172344E-06
v -1.4541516 0.5530367 -1.6279181E-06
v -1.2080265 6.029547 -1.3353649E-06
v -1.3678166 5.698043 -1.6121803E-06
v -1.0363139 6.2346497 -1.0368719E-06
v -1.1436338 6.184566 -1.2258264E-06
v -0.59271795 6.2537293 -2.4432768E-07
v -0.6356487 6.3515105 -3.2377935E-07
v -0.8741406 6.96205 -7.6562077E-07
v -0.5712528 6.7593327 -2.2076921E-07
v -0.6404169 6.9751673 -3.5033656E-07
v -2.8669972 5.906026 -4.2935776E-06
v -1.4703736 6.9000425 -1.8297922E-06
v -2.763039 -0.046759814 -3.9579336E-06
v -2.9059732 6.7762737 -4.382009E-06
v -3.0816405 5.8774056 -4.6727832E-06
v -1.6158546 7.0145187 -2.0923624E-06
v -4.961936 0.034326788 -7.816375E-06
v -2.8582764 6.881209 -4.300988E-06
v -4.8522434 5.4218225 -7.799447E-06
v -5.1288223 5.1806703 -8.278477E-06
v -5.0495486 5.4336286 -8.1475955E-06
v -4.390303 6.19716 -7.0082438E-06
v -3.129338 6.3687 -4.772366E-06
v -4.6382027 6.2173967 -7.4467393E-06
v -4.8844166 6.0926037 -7.877193E-06
v -4.5741205 6.313521 -7.336927E-06
v -3.281972 6.585727 -5.0502463E-06
v -3.2080398 6.5785728 -4.918968E-06
v -4.390303 6.3084626 -7.011693E-06
v -4.3430805 6.4838467 -6.9344055E-06
v -4.2663417 6.562265 -6.801595E-06
v -3.3702266 7.0627117 -5.2215782E-06
v -3.3129866 6.995933 -5.1177567E-06
v -4.3371735 7.6685367 -6.9585208E-06
v -4.239784 8.014101 -6.7980154E-06
v -3.885627 8.526764 -6.1846504E-06
v -3.9261007 9.278894 -6.2769063E-06
v -3.551721 9.277208 -5.6112835E-06
v -3.762517 9.455967 -5.9922736E-06
v -3.877192 9.38851 -6.193785E-06
v -3.9699502 8.504841 -6.333491E-06
v -4.2701254 8.550374 -6.8670497E-06
v -4.0374064 8.658301 -6.4578185E-06
v -3.9581456 8.606024 -6.315332E-06
v -2.0497832 7.954423 -2.8919014E-06
v -2.3455114 8.1380625 -3.4239206E-06
v -2.064089 8.056975 -2.9205003E-06
v -2.436139 7.9663477 -3.5791304E-06
v -2.679404 7.1053925 -3.9898227E-06
v -2.6650915 7.842332 -3.982055E-06
v -2.514841 7.9711175 -3.7192904E-06
v -1.894763 8.03074 -2.6188386E-06
v -1.684886 7.9496536 -2.2427084E-06
v -2.836804 7.0767736 -4.2683628E-06
v 2.3372884 7.508655 5.3906847E-06
v 1.8652638 7.5071616 4.572343E-06
v 2.2916448 7.5627427 5.31453E-06
v 2.2715666 6.9173336 5.255434E-06
v 3.0825543 4.6851225 6.560607E-06
v 2.9418435 4.966543 6.3286225E-06
v 3.075395 4.842527 6.555059E-06
v 2.7129047 4.9617767 5.9309564E-06
v 2.531649 4.849685 5.6113818E-06
v 2.3480103 4.811527 5.2909018E-06
v 3.518994 5.5031495 7.354061E-06
v 3.7574859 5.419677 7.764455E-06
v 3.588153 5.536537 7.4755876E-06
v 2.024035 0.47613642 4.47506E-06
v 3.8767352 5.1263304 7.95866E-06
v 3.924432 5.088172 8.039797E-06
v 1.9620259 0.4141293 4.3633377E-06
v 1.5732831 0.6669296 3.691902E-06
v 2.107517 0.440972 4.617348E-06
v 4.594598 4.7590528 9.188877E-06
v 4.6995344 4.282067 9.350205E-06
v 4.635145 4.0745783 9.22935E-06
v 4.7567706 4.775747 9.471152E-06
v 5.126435 4.7757463 1.0112921E-05
v 4.9547215 4.988004 9.82409E-06
v 5.042963 5.0023136 9.977911E-06
v 5.1288214 4.921227 1.0123423E-05
v 4.532588 4.935536 9.088936E-06
v 4.6112933 4.8353696 9.221198E-06
v 4.5254316 5.469758 9.099865E-06
v 4.248779 5.5436907 8.622804E-06
v 4.408572 5.5723095 8.901469E-06
v 4.6804523 5.481683 9.369514E-06
v 4.790162 5.400595 9.5564355E-06
v 5.11151 4.181211 1.0070587E-05
v 4.969031 4.3989277 9.823183E-06
v 5.1240516 4.339306 1.0089705E-05
v 4.7233863 3.6953773 9.365969E-06
v 4.4729652 3.1516156 8.907447E-06
v 4.7949324 3.6262143 9.487156E-06
v 4.7877793 3.5284328 9.470463E-06
v 4.499203 3.0419097 8.948205E-06
v 4.144906 2.1432793 8.2800625E-06
v 5.037429 3.209136 9.897886E-06
v 4.8283234 3.3996477 9.5352225E-06
v 4.9284897 3.4091873 9.709538E-06
v 2.539806 0.2098274 5.3688213E-06
v 4.2140684 2.050267 8.395557E-06
v 2.470647 0.1287404 5.243786E-06
v 2.1003504 0.37835556 4.605729E-06
v 4.1973667 1.671067 8.347118E-06
v 4.493105 1.9381765 8.876816E-06
v 4.330931 2.13374 8.604731E-06
v 4.3213787 1.5232 8.5550055E-06
v 4.297802 1.4129734 8.516429E-06
v 2.782279 -0.05673058 5.786869E-06
vt 0.7832031 0.91259766
vt 0.78027344 0.90966797
vt 0.7817383 0.9038086
vt 0.7895508 0.9116211
vt 0.8149414 0.8408203
vt 0.75439453 0.8652344
vt 0.7788086 0.9038086
vt 0.7285156 0.94677734
vt 0.7524414 0.8623047
vt 0.73046875 0.95214844
vt 0.7426758 0.8203125
vt 0.75 0.8613281
vt 0.7397461 0.9746094
vt 0.7495117 0.9921875
vt 0.73779297 0.9736328
vt 0.734375 0.98876953
vt 0.734375 0.99365234
vt 0.73828125 0.99609375
vt 0.7211914 0.97753906
vt 0.7348633 0.98339844
vt 0.72314453 0.9863281
vt 0.7285156 0.98828125
vt 0.8227539 0.83203125
vt 0.83154297 0.8076172
vt 0.8173828 0.8408203
vt 0.7402344 0.81884766
vt 0.7392578 0.8129883
vt 0.7368164 0.79833984
vt 0.73535156 0.81152344
vt 0.74902344 0.7636719
vt 0.75097656 0.75146484
vt 0.74658203 0.7631836
vt 0.79003906 0.6308594
vt 0.8364258 0.8051758
vt 0.7817383 0.6308594
vt 0.74365234 0.7504883
vt 0.77197266 0.6245117
vt 0.7368164 0.75439453
vt 0.69970703 0.74902344
vt 0.7607422 0.625
vt 0.8588867 0.79833984
vt 0.8613281 0.6147461
vt 0.8652344 0.6166992
vt 0.8569336 0.8105469
vt 0.8623047 0.7988281
vt 0.85058594 0.8178711
vt 0.8544922 0.81591797
vt 0.83496094 0.8183594
vt 0.8364258 0.82177734
vt 0.84521484 0.84375
vt 0.83447266 0.8364258
vt 0.83691406 0.8442383
vt 0.91503906 0.80615234
vt 0.86621094 0.8413086
vt 0.9116211 0.5957031
vt 0.9165039 0.83691406
vt 0.92285156 0.8051758
vt 0.87109375 0.8457031
vt 0.98876953 0.5986328
vt 0.91503906 0.8408203
vt 0.9848633 0.7890625
vt 0.9946289 0.7807617
vt 0.9916992 0.7895508
vt 0.96875 0.81640625
vt 0.9243164 0.8227539
vt 0.97753906 0.8173828
vt 0.98583984 0.8129883
vt 0.97509766 0.8208008
vt 0.9296875 0.8300781
vt 0.9272461 0.8300781
vt 0.96875 0.8203125
vt 0.9667969 0.82666016
vt 0.96435547 0.82958984
vt 0.9326172 0.84716797
vt 0.93066406 0.84472656
vt 0.9667969 0.86865234
vt 0.9633789 0.8808594
vt 0.9506836 0.8989258
vt 0.95214844 0.92578125
vt 0.93896484 0.92529297
vt 0.94677734 0.9316406
vt 0.9506836 0.9291992
vt 0.95410156 0.8979492
vt 0.96435547 0.89990234
vt 0.9560547 0.9038086
vt 0.9536133 0.90185547
vt 0.88623047 0.87890625
vt 0.89697266 0.8852539
vt 0.88671875 0.8823242
vt 0.89990234 0.87890625
vt 0.9086914 0.8486328
vt 0.9082031 0.8745117
vt 0.90283203 0.87939453
vt 0.8808594 0.88134766
vt 0.87353516 0.87841797
vt 0.9140625 0.84765625
vt 0.7324219 0.86328125
vt 0.74853516 0.86279297
vt 0.73339844 0.8647461
vt 0.734375 0.84228516
vt 0.7060547 0.7631836
vt 0.7109375 0.7729492
vt 0.7060547 0.7685547
vt 0.71875 0.7729492
vt 0.72509766 0.76904297
vt 0.7319336 0.7675781
vt 0.6904297 0.7919922
vt 0.6821289 0.7890625
vt 0.6879883 0.79296875
vt 0.74316406 0.6142578
vt 0.67822266 0.7788086
vt 0.67626953 0.77734375
vt 0.7451172 0.6118164
vt 0.75878906 0.62109375
vt 0.7402344 0.61279297
vt 0.65283203 0.765625
vt 0.6489258 0.74902344
vt 0.6513672 0.7416992
vt 0.64697266 0.7661133
vt 0.63427734 0.7661133
vt 0.6401367 0.7739258
vt 0.63720703 0.77441406
vt 0.63378906 0.7714844
vt 0.65478516 0.77197266
vt 0.65234375 0.7685547
vt 0.65527344 0.7910156
vt 0.66503906 0.79345703
vt 0.6591797 0.7944336
vt 0.64990234 0.7910156
vt 0.6459961 0.7885742
vt 0.6347656 0.74560547
vt 0.63964844 0.7529297
vt 0.63427734 0.75097656
vt 0.6484375 0.72802734
vt 0.65722656 0.7089844
vt 0.6455078 0.72558594
vt 0.6459961 0.72216797
vt 0.65625 0.7050781
vt 0.66845703 0.67333984
vt 0.63720703 0.7109375
vt 0.64453125 0.71777344
vt 0.6411133 0.71777344
vt 0.72509766 0.6044922
vt 0.6660156 0.6699219
vt 0.72753906 0.6020508
vt 0.7402344 0.61083984
vt 0.6665039 0.65625
vt 0.65625 0.6660156
vt 0.6621094 0.67285156
vt 0.66259766 0.6513672
vt 0.66308594 0.64746094
vt 0.7167969 0.59521484
vn -1.7285347E-06 1.1920929E-07 1
vn -1.7285347E-06 1.1920929E-07 1
vn -1.9669533E-06 1.1920929E-07 1
vn -1.7881393E-06 0 1
vn -1.9669533E-06 1.1920929E-07 1
vn -2.0861626E-06 0 1
vn -2.2053719E-06 1.7881393E-07 1
vn -2.2649765E-06 1.1920929E-07 1
vn -1.9073486E-06 -1.1920929E-07 1
vn -2.1457672E-06 0 1
vn -1.9073486E-06 -1.7881393E-07 1
vn -1.7285347E-06 0 1
vn -2.503395E-06 3.5762787E-07 1
vn -2.3841858E-06 7.748604E-07 1
vn -2.0861626E-06 0 1
vn -1.9669533E-06 9.536743E-07 1
vn -1.9669533E-06 8.34465E-07 1
vn -1.9669533E-06 5.364418E-07 1
vn -2.026558E-06 0 1
vn -2.026558E-06 0 1
vn -2.0861626E-06 0 1
vn -2.0861626E-06 0 1
vn -1.9073486E-06 1.1920929E-07 1
vn -1.847744E-06 0 1
vn -1.7881393E-06 0 1
vn -1.9073486E-06 -1.1920929E-07 1
vn -1.847744E-06 0 1
vn -1.9073486E-06 0 1
vn -1.7285347E-06 0 1
vn -1.847744E-06 0 1
vn -1.847744E-06 0 1
vn -1.6093254E-06 0 1
vn -1.7881393E-06 0 1
vn -1.7881393E-06 0 1
vn -1.7285347E-06 0 1
vn -1.7285347E-06 0 1
vn -1.7285347E-06 0 1
vn -1.7285347E-06 0 1
vn -1.7285347E-06 0 1
vn -1.7285347E-06 0 1
vn -1.7881393E-06 0 1
vn -1.7881393E-06 0 1
vn -1.7881393E-06 0 1
vn -1.7881393E-06 0 1
vn -1.7881393E-06 0 1
vn -1.7881393E-06 0 1
vn -1.7881393E-06 0 1
vn -1.7881393E-06 0 1
vn -1.7881393E-06 0 1
vn -1.7881393E-06 0 1
vn -1.7881393E-06 0 1
vn -1.7881393E-06 0 1
vn -1.7881393E-06 0 1
vn -1.7881393E-06 0 1
vn -1.7881393E-06 0 1
vn -1.7881393E-06 0 1
vn -1.7881393E-06 0 1
vn -1.7881393E-06 0 1
vn -1.7881393E-06 0 1
vn -1.7881393E-06 0 1
vn -1.7881393E-06 0 1
vn -1.7881393E-06 0 1
vn -1.7881393E-06 0 1
vn -1.7881393E-06 0 1
vn -1.7881393E-06 0 1
vn -1.7881393E-06 0 1
vn -1.7881393E-06 0 1
vn -1.7881393E-06 0 1
vn -1.7881393E-06 0 1
vn -1.7881393E-06 0 1
vn -1.7881393E-06 0 1
vn -1.7881393E-06 0 1
vn -1.7881393E-06 0 1
vn -1.7881393E-06 0 1
vn -1.7881393E-06 0 1
vn -1.7881393E-06 0 1
vn -1.7881393E-06 0 1
vn -1.7881393E-06 0 1
vn -1.7881393E-06 0 1
vn -1.7881393E-06 0 1
vn -1.7881393E-06 0 1
vn -1.7881393E-06 0 1
vn -1.7881393E-06 0 1
vn -1.7881393E-06 0 1
vn -1.7881393E-06 0 1
vn -1.7881393E-06 0 1
vn -1.7881393E-06 0 1
vn -1.7881393E-06 0 1
vn -1.7881393E-06 0 1
vn -1.7881393E-06 0 1
vn -1.7881393E-06 0 1
vn -1.7881393E-06 0 1
vn -1.7881393E-06 0 1
vn -1.7881393E-06 0 1
vn -1.7881393E-06 0 1
vn -1.7881393E-06 0 1
vn -1.7285347E-06 0 1
vn -1.7285347E-06 0 1
vn -1.7285347E-06 0 1
vn -1.7285347E-06 0 1
vn -1.7285347E-06 0 1
vn -1.7285347E-06 0 1
vn -1.7285347E-06 0 1
vn -1.7285347E-06 0 1
vn -1.7285347E-06 0 1
vn -1.7285347E-06 0 1
vn -1.7285347E-06 0 1
vn -1.7285347E-06 0 1
vn -1.7285347E-06 0 1
vn -1.7285347E-06 0 1
vn -1.66893E-06 0 1
vn -1.7285347E-06 0 1
vn -1.7881393E-06 0 1
vn -1.7881393E-06 0 1
vn -1.7285347E-06 0 1
vn -1.7285347E-06 0 1
vn -1.7285347E-06 0 1
vn -1.7881393E-06 0 1
vn -1.7285347E-06 0 1
vn -1.7285347E-06 0 1
vn -1.7285347E-06 0 1
vn -1.7285347E-06 0 1
vn -1.7285347E-06 0 1
vn -1.7285347E-06 0 1
vn -1.7285347E-06 0 1
vn -1.7285347E-06 0 1
vn -1.7285347E-06 0 1
vn -1.7285347E-06 0 1
vn -1.7285347E-06 0 1
vn -1.7285347E-06 0 1
vn -1.7285347E-06 0 1
vn -1.7285347E-06 0 1
vn -1.7285347E-06 0 1
vn -1.7285347E-06 0 1
vn -1.7881393E-06 0 1
vn -1.7285347E-06 0 1
vn -1.7285347E-06 0 1
vn -1.7285347E-06 0 1
vn -1.7285347E-06 0 1
vn -1.7285347E-06 0 1
vn -1.7285347E-06 0 1
vn -1.7285347E-06 0 1
vn -1.7881393E-06 0 1
vn -1.7285347E-06 0 1
vn -1.7285347E-06 0 1
vn -1.7285347E-06 0 1
vn -1.7285347E-06 0 1
vn -1.7285347E-06 0 1
vn -1.7285347E-06 0 1
vn -1.7285347E-06 0 1
vn -1.7881393E-06 0 1
vn -1.7881393E-06 0 1
g MetroArea_Building_Card_23_0
f 3/3/3 2/2/2 1/1/1
f 4/4/4 3/3/3 1/1/1
f 5/5/5 3/3/3 4/4/4
f 3/3/3 5/5/5 6/6/6
f 7/7/7 3/3/3 6/6/6
f 7/7/7 6/6/6 8/8/8
f 9/9/9 6/6/6 5/5/5
f 10/10/10 7/7/7 8/8/8
f 11/11/11 9/9/9 5/5/5
f 12/12/12 9/9/9 11/11/11
f 13/13/13 7/7/7 10/10/10
f 14/14/14 7/7/7 13/13/13
f 15/15/15 13/13/13 10/10/10
f 16/16/16 14/14/14 13/13/13
f 17/17/17 14/14/14 16/16/16
f 18/18/18 14/14/14 17/17/17
f 19/19/19 15/15/15 10/10/10
f 20/20/20 15/15/15 19/19/19
f 20/20/20 19/19/19 21/21/21
f 22/22/22 20/20/20 21/21/21
f 23/23/23 11/11/11 5/5/5
f 24/24/24 11/11/11 23/23/23
f 25/25/25 23/23/23 5/5/5
f 26/26/26 11/11/11 24/24/24
f 27/27/27 26/26/26 24/24/24
f 28/28/28 27/27/27 24/24/24
f 29/29/29 27/27/27 28/28/28
f 30/30/30 28/28/28 24/24/24
f 31/31/31 30/30/30 24/24/24
f 32/32/32 30/30/30 31/31/31
f 33/33/33 31/31/31 24/24/24
f 34/34/34 33/33/33 24/24/24
f 31/31/31 33/33/33 35/35/35
f 36/36/36 31/31/31 35/35/35
f 36/36/36 35/35/35 37/37/37
f 38/38/38 36/36/36 37/37/37
f 39/39/39 38/38/38 37/37/37
f 40/40/40 39/39/39 37/37/37
f 33/33/33 34/34/34 41/41/41
f 42/42/42 33/33/33 41/41/41
f 43/43/43 42/42/42 41/41/41
f 44/44/44 41/41/41 34/34/34
f 45/45/45 43/43/43 41/41/41
f 44/44/44 34/34/34 46/46/46
f 47/47/47 44/44/44 46/46/46
f 46/46/46 34/34/34 48/48/48
f 49/49/49 46/46/46 48/48/48
f 50/50/50 46/46/46 49/49/49
f 51/51/51 50/50/50 49/49/49
f 52/52/52 50/50/50 51/51/51
f 43/43/43 45/45/45 53/53/53
f 53/53/53 45/45/45 54/54/54
f 55/55/55 43/43/43 53/53/53
f 56/56/56 53/53/53 54/54/54
f 57/57/57 55/55/55 53/53/53
f 56/56/56 54/54/54 58/58/58
f 59/59/59 55/55/55 57/57/57
f 60/60/60 56/56/56 58/58/58
f 57/57/57 61/61/61 59/59/59
f 61/61/61 62/62/62 59/59/59
f 63/63/63 62/62/62 61/61/61
f 64/64/64 61/61/61 57/57/57
f 65/65/65 64/64/64 57/57/57
f 61/61/61 64/64/64 66/66/66
f 67/67/67 61/61/61 66/66/66
f 68/68/68 66/66/66 64/64/64
f 69/69/69 64/64/64 65/65/65
f 70/70/70 69/69/69 65/65/65
f 71/71/71 64/64/64 69/69/69
f 72/72/72 71/71/71 69/69/69
f 73/73/73 72/72/72 69/69/69
f 74/74/74 73/73/73 69/69/69
f 75/75/75 74/74/74 69/69/69
f 76/76/76 73/73/73 74/74/74
f 77/77/77 76/76/76 74/74/74
f 77/77/77 74/74/74 78/78/78
f 79/79/79 78/78/78 74/74/74
f 80/80/80 79/79/79 74/74/74
f 79/79/79 80/80/80 81/81/81
f 82/82/82 79/79/79 81/81/81
f 83/83/83 77/77/77 78/78/78
f 84/84/84 77/77/77 83/83/83
f 85/85/85 84/84/84 83/83/83
f 86/86/86 85/85/85 83/83/83
f 89/89/89 88/88/88 87/87/87
f 88/88/88 90/90/90 87/87/87
f 90/90/90 91/91/91 87/87/87
f 92/92/92 91/91/91 90/90/90
f 93/93/93 92/92/92 90/90/90
f 91/91/91 58/58/58 87/87/87
f 94/94/94 87/87/87 58/58/58
f 95/95/95 94/94/94 58/58/58
f 91/91/91 60/60/60 58/58/58
f 96/96/96 60/60/60 91/91/91
f 99/99/99 98/98/98 97/97/97
f 98/98/98 100/100/100 97/97/97
f 98/98/98 12/12/12 100/100/100
f 100/100/100 12/12/12 11/11/11
f 103/103/103 102/102/102 101/101/101
f 102/102/102 104/104/104 101/101/101
f 104/104/104 105/105/105 101/101/101
f 105/105/105 106/106/106 101/101/101
f 106/106/106 38/38/38 101/101/101
f 101/101/101 38/38/38 39/39/39
f 107/107/107 101/101/101 39/39/39
f 107/107/107 39/39/39 108/108/108
f 109/109/109 107/107/107 108/108/108
f 111/111/111 39/39/39 110/110/110
f 110/110/110 39/39/39 40/40/40
f 112/112/112 111/111/111 110/110/110
f 113/113/113 110/110/110 40/40/40
f 114/114/114 113/113/113 40/40/40
f 112/112/112 110/110/110 115/115/115
f 116/116/116 112/112/112 115/115/115
f 117/117/117 116/116/116 115/115/115
f 118/118/118 117/117/117 115/115/115
f 119/119/119 116/116/116 117/117/117
f 120/120/120 119/119/119 117/117/117
f 121/121/121 119/119/119 120/120/120
f 122/122/122 121/121/121 120/120/120
f 123/123/123 122/122/122 120/120/120
f 124/124/124 112/112/112 116/116/116
f 125/125/125 124/124/124 116/116/116
f 126/126/126 112/112/112 124/124/124
f 127/127/127 112/112/112 126/126/126
f 128/128/128 127/127/127 126/126/126
f 129/129/129 126/126/126 124/124/124
f 130/130/130 129/129/129 124/124/124
f 132/132/132 118/118/118 131/131/131
f 133/133/133 132/132/132 131/131/131
f 118/118/118 134/134/134 131/131/131
f 134/134/134 118/118/118 115/115/115
f 135/135/135 134/134/134 115/115/115
f 136/136/136 134/134/134 135/135/135
f 137/137/137 136/136/136 135/135/135
f 138/138/138 135/135/135 115/115/115
f 139/139/139 138/138/138 115/115/115
f 140/140/140 138/138/138 139/139/139
f 141/141/141 138/138/138 140/140/140
f 142/142/142 141/141/141 140/140/140
f 143/143/143 139/139/139 115/115/115
f 144/144/144 139/139/139 143/143/143
f 145/145/145 143/143/143 115/115/115
f 146/146/146 145/145/145 115/115/115
f 147/147/147 144/144/144 143/143/143
f 144/144/144 147/147/147 148/148/148
f 149/149/149 144/144/144 148/148/148
f 150/150/150 147/147/147 143/143/143
f 151/151/151 150/150/150 143/143/143
f 152/152/152 151/151/151 143/143/143
