g MetroArea_Wall_NoiseBarrier_03_Lod2
v -2.75 0.23124999 0.02509281
v 2.6945446 0.23124999 0.02509281
v 2.6945434 0.23124984 0.056038037
v -2.75 0.23124984 0.056038037
v -2.75 0.14435913 0.05603794
v -2.75 0.23124984 0.056038037
v 2.6945434 0.23124984 0.056038037
v 2.6945446 0.14435913 0.056038093
v -2.75 0.14435913 0.05603794
v 2.6945446 0.14435913 0.056038093
v 2.6945434 0.14435898 0.025092773
v -2.75 0.14435898 0.02509262
v -2.75 0.7840268 0.05603586
v 2.6945446 0.7840268 0.056036375
v 2.6945434 0.6971359 0.05603626
v -2.75 0.6971359 0.056034625
v -2.75 0.23124908 -1.5449524E-06
v -2.75 0.6971359 -1.4686584E-06
v -2.75 0.6971359 0.056038056
v -2.75 0.23124954 0.056038015
v -2.7499976 0.14435913 -0.056040227
v 2.6945446 0.14435913 -0.05604126
v 2.6945434 0.23124984 -0.056041144
v -2.7499976 0.23124984 -0.05604027
v -2.75 0.7840268 -0.056038626
v -2.75 0.6971359 -0.056038707
v 2.6945434 0.6971359 -0.0560392
v 2.6945446 0.7840268 -0.056039236
v -2.75 0.23124908 -1.5449524E-06
v -2.75 0.23124954 -0.056041487
v -2.75 0.6971359 -0.056041375
v -2.75 0.6971359 -1.4686584E-06
v -2.7499976 0.14435913 -0.056040227
v -2.7499976 0.23124984 -0.05604027
v -2.7499976 0.23124984 0.056033056
v -2.7499976 0.14435913 0.0560358
v -2.75 0.7840268 -0.056038626
v -2.75 0.7840268 0.05603586
v -2.75 0.6971359 0.056034625
v -2.75 0.6971359 -0.056038707
v -1.0040185 3.9999988 -0.070411354
v -0.9141406 3.9999988 -0.07041132
v -0.9141406 3.9999988 0.07041124
v -1.0040185 3.9999988 0.07041117
v -1.0040185 -3.0517577E-07 0.07041139
v -1.0040185 3.9999988 0.07041117
v -0.9141406 3.9999988 0.07041124
v -0.9141406 -3.0517577E-07 0.070410825
v -0.9141406 -3.0517577E-07 -0.070411436
v -0.9141406 3.9999988 -0.07041132
v -1.0040185 3.9999988 -0.070411354
v -1.0040185 -3.0517577E-07 -0.070410825
v 0.9042114 -3.0517577E-07 -0.070411436
v 0.9042114 -3.0517577E-07 0.070410825
v 0.9042114 3.9999988 0.07041122
v 0.9042114 3.9999988 -0.07041134
v 0.8143335 3.9999988 -0.07041138
v 0.9042114 3.9999988 -0.07041134
v 0.9042114 3.9999988 0.07041122
v 0.8143335 3.9999988 0.070411146
v 0.8143335 -3.0517577E-07 0.07041139
v 0.8143335 3.9999988 0.070411146
v 0.9042114 3.9999988 0.07041122
v 0.9042114 -3.0517577E-07 0.070410825
v 0.9042114 -3.0517577E-07 -0.070411436
v 0.9042114 3.9999988 -0.07041134
v 0.8143335 3.9999988 -0.07041138
v 0.8143335 -3.0517577E-07 -0.070410825
v 2.75 2.299999 -0.070411354
v 2.75 -3.0517577E-07 -0.070411436
v 2.75 -3.0517577E-07 0.070410825
v 2.75 2.299999 0.07041113
v 2.660122 2.299999 -0.07041126
v 2.75 2.299999 -0.070411354
v 2.75 2.299999 0.07041113
v 2.660122 2.299999 0.070411205
v 2.660122 2.299999 0.070411205
v 2.660122 -3.0517577E-07 0.07041139
v 2.660122 -3.0517577E-07 -0.070410825
v 2.660122 2.299999 -0.07041126
v 2.75 -3.0517577E-07 0.070410825
v 2.660122 -3.0517577E-07 0.07041139
v 2.660122 2.299999 0.070411205
v 2.75 2.299999 0.07041113
v 2.660122 -3.0517577E-07 -0.070410825
v 2.75 -3.0517577E-07 -0.070411436
v 2.75 2.299999 -0.070411354
v 2.660122 2.299999 -0.07041126
v 0.8510034 2.2764826 0.056041107
v -2.7501209 3.982375 0.056044854
v 0.85099363 3.982373 0.056044843
v -2.7500427 1.8500097 0.05603914
v 0.8510205 1.8500097 0.05603546
v 2.698286 1.8500097 0.05603357
v 2.698286 2.2764819 0.05604036
v 0.8510718 0.7840269 0.056026172
v -2.7498913 0.7840268 0.056033533
v -2.7500427 1.8500097 0.05603914
v 0.8510205 1.8500097 0.05603546
v 2.698286 0.7840269 0.056022376
v 2.698286 1.8500097 0.05603357
v -2.75 0.14435944 0.0560381
v 2.698286 0.14435944 0.05603809
v 2.698286 1.5258789E-07 0.05603811
v -2.75 1.5258789E-07 0.056038227
v 2.698286 0.7840269 -0.05598339
v 2.698286 1.8500097 -0.056025848
v 0.85103756 1.8500097 -0.05603544
v 0.8511059 0.7840269 -0.056002576
v -2.7497911 0.7840269 -0.05603981
v -2.7499938 1.85001 -0.056054056
v 2.698286 0.14435944 -0.056040023
v -2.75 0.14435944 -0.056040313
v -2.75 3.0517577E-07 -0.056040287
v 2.698286 1.5258789E-07 -0.056040037
v -2.7501209 3.982375 0.056044854
v -2.7500427 1.8500097 0.05603914
v -2.7499938 1.85001 -0.056054056
v -2.7501233 3.982375 -0.05606814
v -2.7499938 1.85001 -0.056054056
v -2.7500427 1.8500097 0.05603914
v -2.7498913 0.7840268 0.056033533
v -2.7497911 0.7840269 -0.05603981
v -2.75 0.14435944 -0.056040313
v -2.75 0.14435944 0.0560381
v -2.75 1.5258789E-07 0.056038227
v -2.75 3.0517577E-07 -0.056040287
v 0.85099363 3.982373 0.056044843
v -2.7501209 3.982375 0.056044854
v -2.7501233 3.982375 -0.05606814
v 0.85099363 3.982373 -0.05606817
v -0.9596861 0.6971362 0.05603832
v -0.9596861 0.23124969 0.056038473
v -2.75 0.23124999 0.056038454
v -2.75 0.6971356 0.056038372
v -0.9596861 0.6971362 -0.05604118
v -2.75 0.6971356 -0.05604113
v -2.75 0.23124999 -0.056041047
v -0.9596861 0.23124969 -0.05604103
v 0.8430084 0.6971362 0.05603847
v 0.8430084 0.23124969 0.056038626
v -0.95629674 0.23124999 0.056038607
v -0.95629674 0.6971356 0.056038532
v 0.8430084 0.6971362 -0.056041036
v -0.9562943 0.6971356 -0.056040972
v -0.9562943 0.23124999 -0.056040898
v 0.8430084 0.23124969 -0.056040876
v 2.7006736 0.6971362 0.056038164
v 2.7006736 0.23124969 0.05603832
v 0.84509766 0.23124999 0.0560383
v 0.84509766 0.6971356 0.05603822
v 2.7006736 0.6971362 -0.05604134
v 0.845098 0.6971356 -0.05604128
v 0.845098 0.23124999 -0.0560412
v 2.7006736 0.23124969 -0.05604118
v 2.698286 1.8500097 -0.056025848
v 2.698286 2.276482 -0.056051236
v 0.85101074 2.2764826 -0.05605505
v 0.85103756 1.8500097 -0.05603544
v -2.7499938 1.85001 -0.056054056
v -2.7501233 3.982375 -0.05606814
v 0.85099363 3.982373 -0.05606817
v 2.698286 2.276482 -0.056051236
v 2.698286 2.2764819 0.05604036
v 0.8510034 2.2764826 0.056041107
v 0.85101074 2.2764826 -0.05605505
vt 1.1328125 0.45263672
vt -0.22924805 0.45263672
vt -0.22924805 0.46044922
vt 1.1328125 0.46044922
vt 1.1328125 0.48999023
vt 1.1328125 0.46826172
vt -0.22924805 0.46826172
vt -0.22924805 0.48999023
vt 1.1328125 0.45263672
vt -0.22924805 0.45263672
vt -0.22924805 0.46044922
vt 1.1328125 0.46044922
vt 1.1328125 0.48999023
vt -0.22924805 0.48999023
vt -0.22924805 0.46826172
vt 1.1328125 0.46826172
vt 0.4885254 0.3466797
vt 0.6040039 0.3466797
vt 0.6040039 0.3400879
vt 0.4885254 0.3400879
vt 1.1328125 0.48999023
vt -0.22924805 0.48999023
vt -0.22924805 0.46826172
vt 1.1328125 0.46826172
vt 1.1328125 0.48999023
vt 1.1328125 0.46826172
vt -0.22924805 0.46826172
vt -0.22924805 0.48999023
vt 0.4885254 0.3466797
vt 0.4885254 0.3400879
vt 0.6040039 0.3400879
vt 0.6040039 0.3466797
vt -0.20117188 0.48999023
vt -0.20117188 0.46826172
vt -0.22924805 0.46826172
vt -0.22924805 0.48999023
vt -0.20117188 0.48999023
vt -0.22924805 0.48999023
vt -0.22924805 0.46826172
vt -0.20117188 0.46826172
vt 0.8852539 0.29223633
vt 0.86279297 0.29223633
vt 0.86279297 0.31640625
vt 0.8852539 0.31640625
vt 0.30297852 0.56396484
vt 1.3076172 0.56396484
vt 1.3076172 0.5415039
vt 0.30297852 0.5415039
vt 0.30297852 0.56396484
vt 1.3076172 0.56396484
vt 1.3076172 0.5415039
vt 0.30297852 0.5415039
vt 0.84228516 0.49829102
vt 0.84228516 0.5336914
vt 1.8466797 0.5336914
vt 1.8466797 0.49829102
vt 0.8852539 0.29223633
vt 0.86279297 0.29223633
vt 0.86279297 0.31640625
vt 0.8852539 0.31640625
vt 0.84228516 0.56396484
vt 1.8466797 0.56396484
vt 1.8466797 0.5415039
vt 0.84228516 0.5415039
vt 0.84228516 0.56396484
vt 1.8466797 0.56396484
vt 1.8466797 0.5415039
vt 0.84228516 0.5415039
vt -0.7631836 0.49829102
vt -1.3408203 0.49829102
vt -1.3408203 0.5336914
vt -0.7631836 0.5336914
vt 0.8852539 0.29223633
vt 0.86279297 0.29223633
vt 0.86279297 0.31640625
vt 0.8852539 0.31640625
vt -0.7631836 0.49829102
vt -1.3408203 0.49829102
vt -1.3408203 0.5336914
vt -0.7631836 0.5336914
vt -1.3408203 0.5415039
vt -1.3408203 0.56396484
vt -0.7631836 0.56396484
vt -0.7631836 0.5415039
vt -1.3408203 0.5415039
vt -1.3408203 0.56396484
vt -0.7631836 0.56396484
vt -0.7631836 0.5415039
vt 0.7861328 0.65771484
vt -0.056152344 1
vt 0.7861328 1
vt -0.056365967 0.5722656
vt 0.7861328 0.5722656
vt 1.2177734 0.5722656
vt 1.2177734 0.65771484
vt 0.7861328 0.7861328
vt -0.056152344 0.7861328
vt -0.056152344 1
vt 0.7861328 1
vt 1.2177734 0.7861328
vt 1.2177734 1
vt 1.7373047 1
vt 3.0117188 1
vt 3.0117188 0.9711914
vt 1.7373047 0.9711914
vt -1.25 0.7861328
vt -1.25 1
vt -0.85058594 1
vt -0.85058594 0.7861328
vt -0.07293701 0.7861328
vt -0.07293701 1
vt 0.44189453 1
vt 1.7167969 1
vt 1.7167969 0.9711914
vt 0.44189453 0.9711914
vt -0.056152344 1
vt -0.056365967 0.5722656
vt -0.07281494 0.5722656
vt -0.07299805 1
vt -0.07293701 1
vt -0.056152344 1
vt -0.056152344 0.7861328
vt -0.07293701 0.7861328
vt 1.7167969 1
vt 1.7373047 1
vt 1.7373047 0.9711914
vt 1.7167969 0.9711914
vt 0.8388672 0.67333984
vt -0.0039520264 0.67333984
vt -0.0040893555 0.69628906
vt 0.8388672 0.69677734
vt 0.9946289 -0.0070610046
vt 0.89208984 -0.0070610046
vt 0.89208984 0.33007812
vt 0.9946289 0.33007812
vt 0.9946289 -0.0070610046
vt 0.9946289 0.33007812
vt 0.89208984 0.33007812
vt 0.89208984 -0.0070610046
vt 0.9946289 0.0016756058
vt 0.89208984 0.0016756058
vt 0.89208984 0.34423828
vt 0.9946289 0.34423828
vt 0.9946289 0.0016765594
vt 0.9946289 0.34423828
vt 0.89208984 0.34423828
vt 0.89208984 0.0016765594
vt 0.9946289 -0.0011024475
vt 0.89208984 -0.0011024475
vt 0.89208984 0.34716797
vt 0.9946289 0.34716797
vt 0.9946289 -0.0011024475
vt 0.9946289 0.34716797
vt 0.89208984 0.34716797
vt 0.89208984 -0.0011024475
vt -1.25 0.5722656
vt -1.25 0.65771484
vt -0.85058594 0.65771484
vt -0.85058594 0.5722656
vt -0.07281494 0.5722656
vt -0.07299805 1
vt -0.85058594 1
vt 1.2714844 0.69677734
vt 1.2714844 0.67333984
vt 0.8388672 0.67333984
vt 0.8388672 0.69677734
vn -0 1 4.9471855E-06
vn -0 1 4.9471855E-06
vn -0 1 4.9471855E-06
vn -0 1 4.9471855E-06
vn -0 6.556511E-07 1
vn -0 -1.0728836E-06 1
vn -0 6.556511E-07 1
vn -0 6.556511E-07 1
vn -0 -1 4.9471855E-06
vn -0 -1 4.9471855E-06
vn -0 -1 4.9471855E-06
vn -0 -1 4.9471855E-06
vn -2.9802322E-07 -1.41859055E-05 1
vn -0 -1.3113022E-06 1
vn -2.9802322E-07 -1.41859055E-05 1
vn -2.9802322E-07 -1.41859055E-05 1
vn -1 0 0
vn -1 0 0
vn -1 0 0
vn -1 0 0
vn -1.7881393E-07 -4.172325E-07 -1
vn -1.7881393E-07 1.3113022E-06 -1
vn -1.7881393E-07 -4.172325E-07 -1
vn -1.7881393E-07 -4.172325E-07 -1
vn -1.1920929E-07 -4.172325E-07 -1
vn -0 9.536743E-07 -1
vn -1.1920929E-07 -4.172325E-07 -1
vn -1.1920929E-07 -4.172325E-07 -1
vn -1 0 0
vn -1 0 0
vn -1 0 0
vn -1 0 0
vn -1 0 0
vn -1 0 0
vn -1 0 0
vn -1 0 0
vn -1 0 0
vn -1 0 0
vn -1 0 0
vn -1 0 0
vn -0 1 0
vn -0 1 0
vn -0 1 0
vn -0 1 0
vn 6.377697E-06 -1.1920929E-07 1
vn -8.34465E-07 0 1
vn 6.377697E-06 -1.1920929E-07 1
vn 6.377697E-06 -1.1920929E-07 1
vn -6.7949295E-06 -1.1920929E-07 -1
vn 4.172325E-07 0 -1
vn -6.7949295E-06 -1.1920929E-07 -1
vn -6.7949295E-06 -1.1920929E-07 -1
vn 1 0 0
vn 1 0 0
vn 1 0 0
vn 1 0 0
vn -0 1 0
vn -0 1 0
vn -0 1 0
vn -0 1 0
vn 6.377697E-06 -1.1920929E-07 1
vn -8.34465E-07 0 1
vn 6.377697E-06 -1.1920929E-07 1
vn 6.377697E-06 -1.1920929E-07 1
vn -6.7949295E-06 -1.1920929E-07 -1
vn 4.172325E-07 0 -1
vn -6.7949295E-06 -1.1920929E-07 -1
vn -6.7949295E-06 -1.1920929E-07 -1
vn 1 0 0
vn 1 0 0
vn 1 0 0
vn 1 0 0
vn -0 1 0
vn -0 1 0
vn -0 1 0
vn -0 1 0
vn -1 0 0
vn -1 0 0
vn -1 0 0
vn -1 0 0
vn 8.34465E-07 -1.1920929E-07 1
vn 6.377697E-06 0 1
vn 8.34465E-07 -1.1920929E-07 1
vn 8.34465E-07 -1.1920929E-07 1
vn -1.0728836E-06 -1.7881393E-07 -1
vn -6.7949295E-06 0 -1
vn -1.0728836E-06 -1.7881393E-07 -1
vn -1.0728836E-06 -1.7881393E-07 -1
vn 1.7881393E-07 -4.9471855E-06 1
vn -1.7881393E-07 -2.5629997E-06 1
vn -0 -2.2053719E-06 1
vn 5.364418E-07 -3.9339066E-06 1
vn 1.1920929E-06 -1.013279E-05 1
vn 8.940697E-07 -1.1920929E-05 1
vn 4.172325E-07 -1.591444E-05 1
vn 1.4901161E-06 -8.285046E-06 1
vn 2.026558E-06 -5.2452087E-06 1
vn 5.364418E-07 -3.9339066E-06 1
vn 1.1920929E-06 -1.013279E-05 1
vn 1.3709068E-06 -9.894371E-06 1
vn 8.940697E-07 -1.1920929E-05 1
vn -0 8.34465E-07 1
vn -0 1.7881393E-07 1
vn -0 8.34465E-07 1
vn -0 8.34465E-07 1
vn 6.914139E-06 -3.683567E-05 -1
vn 4.4107437E-06 -4.4882298E-05 -1
vn 7.987022E-06 -3.439188E-05 -1
vn 1.0371208E-05 -3.08156E-05 -1
vn 6.1392784E-06 -1.6570091E-05 -1
vn 2.1457672E-06 -9.357929E-06 -1
vn -0 0 -1
vn -0 -1.7881393E-07 -1
vn -0 0 -1
vn -0 0 -1
vn -1 -5.9902668E-05 6.4969063E-06
vn -1 -7.176399E-05 -0.00043559074
vn -1 -7.337332E-05 -0.00043559074
vn -1 -6.067753E-05 2.1755695E-05
vn -1 -7.337332E-05 -0.00043559074
vn -1 -7.176399E-05 -0.00043559074
vn -1 -0.00018692017 -0.0008625984
vn -1 -0.00019013882 -0.000893116
vn -1 0 0
vn -1 0 0
vn -1 0 0
vn -1 0 0
vn 5.364418E-07 1 0
vn 5.364418E-07 1 0
vn 5.364418E-07 1 0
vn 5.364418E-07 1 0
vn -0 1.7881393E-07 1
vn -0 2.9802322E-07 1
vn -0 1.7881393E-07 1
vn -0 1.7881393E-07 1
vn -0 -2.9802322E-07 -1
vn -0 -1.7881393E-07 -1
vn -0 -2.9802322E-07 -1
vn -0 -2.9802322E-07 -1
vn -0 1.7881393E-07 1
vn -0 3.5762787E-07 1
vn -0 1.7881393E-07 1
vn -0 1.7881393E-07 1
vn -0 -3.5762787E-07 -1
vn -0 -1.7881393E-07 -1
vn -0 -3.5762787E-07 -1
vn -0 -3.5762787E-07 -1
vn -0 1.7881393E-07 1
vn -0 3.5762787E-07 1
vn -0 1.7881393E-07 1
vn -0 1.7881393E-07 1
vn -0 -3.5762787E-07 -1
vn -0 -1.7881393E-07 -1
vn -0 -3.5762787E-07 -1
vn -0 -3.5762787E-07 -1
vn 4.4107437E-06 -4.4882298E-05 -1
vn 2.0861626E-06 -5.954504E-05 -1
vn 1.3113022E-06 -1.6570091E-05 -1
vn 7.987022E-06 -3.439188E-05 -1
vn 2.1457672E-06 -9.357929E-06 -1
vn 3.5762787E-07 -6.854534E-06 -1
vn -0 -7.688999E-06 -1
vn 2.9802322E-07 1 2.6226044E-06
vn 3.5762787E-07 1 2.7418137E-06
vn 1.7881393E-07 1 1.1920929E-07
vn 1.7881393E-07 1 0
g MetroArea_Wall_NoiseBarrier_03_Lod2_0
f 3/3/3 2/2/2 1/1/1
f 4/4/4 3/3/3 1/1/1
f 7/7/7 6/6/6 5/5/5
f 8/8/8 7/7/7 5/5/5
f 11/11/11 10/10/10 9/9/9
f 12/12/12 11/11/11 9/9/9
f 15/15/15 14/14/14 13/13/13
f 16/16/16 15/15/15 13/13/13
f 19/19/19 18/18/18 17/17/17
f 20/20/20 19/19/19 17/17/17
f 23/23/23 22/22/22 21/21/21
f 24/24/24 23/23/23 21/21/21
f 27/27/27 26/26/26 25/25/25
f 28/28/28 27/27/27 25/25/25
f 31/31/31 30/30/30 29/29/29
f 32/32/32 31/31/31 29/29/29
f 35/35/35 34/34/34 33/33/33
f 36/36/36 35/35/35 33/33/33
f 39/39/39 38/38/38 37/37/37
f 40/40/40 39/39/39 37/37/37
f 43/43/43 42/42/42 41/41/41
f 44/44/44 43/43/43 41/41/41
f 47/47/47 46/46/46 45/45/45
f 48/48/48 47/47/47 45/45/45
f 51/51/51 50/50/50 49/49/49
f 52/52/52 51/51/51 49/49/49
f 55/55/55 54/54/54 53/53/53
f 56/56/56 55/55/55 53/53/53
f 59/59/59 58/58/58 57/57/57
f 60/60/60 59/59/59 57/57/57
f 63/63/63 62/62/62 61/61/61
f 64/64/64 63/63/63 61/61/61
f 67/67/67 66/66/66 65/65/65
f 68/68/68 67/67/67 65/65/65
f 71/71/71 70/70/70 69/69/69
f 72/72/72 71/71/71 69/69/69
f 75/75/75 74/74/74 73/73/73
f 76/76/76 75/75/75 73/73/73
f 79/79/79 78/78/78 77/77/77
f 80/80/80 79/79/79 77/77/77
f 83/83/83 82/82/82 81/81/81
f 84/84/84 83/83/83 81/81/81
f 87/87/87 86/86/86 85/85/85
f 88/88/88 87/87/87 85/85/85
f 91/91/91 90/90/90 89/89/89
f 90/90/90 92/92/92 89/89/89
f 93/93/93 89/89/89 92/92/92
f 89/89/89 93/93/93 94/94/94
f 95/95/95 89/89/89 94/94/94
f 98/98/98 97/97/97 96/96/96
f 99/99/99 98/98/98 96/96/96
f 99/99/99 96/96/96 100/100/100
f 101/101/101 99/99/99 100/100/100
f 104/104/104 103/103/103 102/102/102
f 105/105/105 104/104/104 102/102/102
f 108/108/108 107/107/107 106/106/106
f 109/109/109 108/108/108 106/106/106
f 108/108/108 109/109/109 110/110/110
f 111/111/111 108/108/108 110/110/110
f 114/114/114 113/113/113 112/112/112
f 115/115/115 114/114/114 112/112/112
f 118/118/118 117/117/117 116/116/116
f 119/119/119 118/118/118 116/116/116
f 122/122/122 121/121/121 120/120/120
f 123/123/123 122/122/122 120/120/120
f 126/126/126 125/125/125 124/124/124
f 127/127/127 126/126/126 124/124/124
f 130/130/130 129/129/129 128/128/128
f 131/131/131 130/130/130 128/128/128
f 134/134/134 133/133/133 132/132/132
f 135/135/135 134/134/134 132/132/132
f 138/138/138 137/137/137 136/136/136
f 139/139/139 138/138/138 136/136/136
f 142/142/142 141/141/141 140/140/140
f 143/143/143 142/142/142 140/140/140
f 146/146/146 145/145/145 144/144/144
f 147/147/147 146/146/146 144/144/144
f 150/150/150 149/149/149 148/148/148
f 151/151/151 150/150/150 148/148/148
f 154/154/154 153/153/153 152/152/152
f 155/155/155 154/154/154 152/152/152
f 158/158/158 157/157/157 156/156/156
f 159/159/159 158/158/158 156/156/156
f 160/160/160 158/158/158 159/159/159
f 160/160/160 161/161/161 158/158/158
f 161/161/161 162/162/162 158/158/158
f 165/165/165 164/164/164 163/163/163
f 166/166/166 165/165/165 163/163/163
