g MetroArea_Construction_Pit_02
v -30.772734 1.4242773 21.57244
v -35.431988 1.4242773 12.730819
v -1.2824707 1.4242773 3.5616434
v -25.151623 1.4242773 26.977465
v -40.166985 1.4242773 3.5646331
v -19.289242 1.4242773 31.916063
v -39.691093 1.4242773 -4.462813
v -12.372403 1.4242773 33.680374
v -37.46987 1.4242773 -12.111764
v -1.5642291 1.4242773 31.580906
v -33.612587 1.4242773 -17.364805
v 7.353955 1.4242773 34.2224
v -31.34289 1.4242773 -23.307661
v 15.901285 1.4242773 36.08132
v -29.307907 1.4242773 -27.967247
v 22.563784 1.4242773 32.55546
v -26.854113 1.4242773 -32.361366
v 29.874529 1.4242773 27.907106
v -23.56096 1.4242773 -34.957703
v 33.626095 1.4242773 23.767973
v -18.682646 1.4242773 -35.409443
v 35.047554 1.4242773 17.748098
v -12.82347 1.4242773 -38.441143
v 36.907574 1.4242773 12.244399
v -7.4783454 1.4242773 -38.5686
v 37.204327 1.4242773 5.4229345
v -2.3161051 1.4242773 -38.47701
v 37.673225 1.4242773 -2.295236
v 1.5333754 1.4242773 -38.073784
v 36.82999 1.4242773 -10.298756
v 5.047011 1.4242773 -37.329662
v 34.27426 1.4242773 -17.670048
v 8.727169 1.4242773 -37.03442
v 30.987474 1.4242773 -20.815851
v 13.428349 1.4242773 -35.70003
v 28.036713 1.4242773 -24.651896
v 18.649075 1.4242773 -31.746037
v 24.102968 1.4242773 -28.487526
v -30.772734 1.4242773 21.57244
v -32.438694 -0.10285412 22.731516
v -37.360844 -0.10285412 13.440735
v -35.431988 1.4242773 12.730819
v -25.151623 1.4242773 26.977465
v -42.363007 -0.10285412 3.8088977
v -26.50042 -0.10285412 28.411125
v -40.166985 1.4242773 3.5646331
v -19.289242 1.4242773 31.916063
v -41.860264 -0.10285412 -4.62635
v -20.307259 -0.10285412 33.60061
v -39.691093 1.4242773 -4.462813
v -12.372403 1.4242773 33.680374
v -39.51371 -0.10285412 -12.663875
v -13.000148 -0.10285412 35.454544
v -37.46987 1.4242773 -12.111764
v -1.5642291 1.4242773 31.580906
v -35.43878 -0.10285412 -18.183777
v -1.582135 -0.10285412 33.248425
v -33.612587 1.4242773 -17.364805
v 7.353955 1.4242773 34.2224
v -33.041023 -0.10285412 -24.428532
v 7.8392467 -0.10285412 36.02411
v -31.34289 1.4242773 -23.307661
v 15.901285 1.4242773 36.08132
v -30.891218 -0.10285412 -29.324831
v 16.868849 -0.10285412 37.977467
v -29.307907 1.4242773 -27.967247
v 22.563784 1.4242773 32.55546
v -28.29897 -0.10285412 -33.942173
v 23.90727 -0.10285412 34.272488
v -26.854113 1.4242773 -32.361366
v 29.874529 1.4242773 27.907106
v -24.820007 -0.10285412 -36.670406
v 31.630516 -0.10285412 29.387993
v -23.56096 1.4242773 -34.957703
v 33.626095 1.4242773 23.767973
v -19.666437 -0.10285412 -37.145096
v 35.59376 -0.10285412 25.038586
v -18.682646 1.4242773 -35.409443
v 35.047554 1.4242773 17.748098
v -13.476665 -0.10285412 -40.330814
v 37.095425 -0.10285412 18.712896
v -12.82347 1.4242773 -38.441143
v 36.907574 1.4242773 12.244399
v -7.8299475 -0.10285412 -40.46474
v 39.06039 -0.10285412 12.929605
v -7.4783454 1.4242773 -38.5686
v 37.204327 1.4242773 5.4229345
v -2.3764348 -0.10285412 -40.3685
v 39.37389 -0.10285412 5.761603
v -2.3161051 1.4242773 -38.47701
v 37.673225 1.4242773 -2.295236
v 1.690248 -0.10285412 -39.94479
v 39.869244 -0.10285412 -2.348658
v 1.5333754 1.4242773 -38.073784
v 36.82999 1.4242773 -10.298756
v 5.4021354 -0.10285412 -39.162865
v 38.978436 -0.10285412 -10.758763
v 5.047011 1.4242773 -37.329662
v 34.27426 1.4242773 -17.670048
v 9.289943 -0.10285412 -38.852623
v 36.2785 -0.10285412 -18.504524
v 8.727169 1.4242773 -37.03442
v 30.987474 1.4242773 -20.815851
v 14.25638 -0.10285412 -37.450447
v 32.80626 -0.10285412 -21.810139
v 13.428349 1.4242773 -35.70003
v 28.036713 1.4242773 -24.651896
v 19.77168 -0.10285412 -33.295586
v 29.689005 -0.10285412 -25.841057
v 18.649075 1.4242773 -31.746037
v 24.102968 1.4242773 -28.487526
v 25.533302 -0.10285412 -29.871542
vt 18.34375 -4.546875
vt 16.09375 -10.125
vt -1.3447266 1.9882812
vt 18.640625 0.12939453
vt 13.71875 -15.8359375
vt 18.625 4.7265625
vt 9.859375 -18.734375
vt 16.75 8.5625
vt 5.5 -20.671875
vt 11.625 12.7421875
vt 1.5976562 -20.953125
vt 9.34375 17.84375
vt -2.0117188 -22.203125
vt 6.8671875 22.453125
vt -4.9375 -23.078125
vt 2.6835938 24.15625
vt -7.9023438 -23.65625
vt -2.28125 25.703125
vt -10.359375 -23.15625
vt -5.625 25.8125
vt -12.46875 -21.09375
vt -8.9375 24.140625
vt -16.125 -19.578125
vt -12.1796875 22.84375
vt -18.25 -17.171875
vt -15.4140625 20.34375
vt -20.21875 -14.78125
vt -19.125 17.5625
vt -21.515625 -12.859375
vt -22.46875 14.078125
vt -22.546875 -10.9609375
vt -24.84375 10.046875
vt -23.828125 -9.15625
vt -25.03125 7.328125
vt -25.03125 -6.484375
vt -25.640625 4.4882812
vt -25.25 -2.5625
vt -25.875 1.2001953
vt 18.34375 -4.546875
vt 19.859375 -4.9492188
vt 17.46875 -10.859375
vt 16.09375 -10.125
vt 18.640625 0.12939453
vt 14.9140625 -16.921875
vt 20.15625 0.06524658
vt 13.71875 -15.8359375
vt 18.625 4.7265625
vt 10.7890625 -20.046875
vt 20.109375 4.9921875
vt 9.859375 -18.734375
vt 16.75 8.5625
vt 6.1210938 -22.109375
vt 18.0625 9.1796875
vt 5.5 -20.671875
vt 11.625 12.7421875
vt 1.9970703 -22.421875
vt 12.6796875 13.6015625
vt 1.5976562 -20.953125
vt 9.34375 17.84375
vt -1.7763672 -23.71875
vt 10.3046875 18.9375
vt -2.0117188 -22.203125
vt 6.8671875 22.453125
vt -4.875 -24.640625
vt 7.5742188 23.859375
vt -4.9375 -23.078125
vt 2.6835938 24.15625
vt -8.0859375 -25.234375
vt 3.0605469 25.734375
vt -7.9023438 -23.65625
vt -2.28125 25.703125
vt -10.78125 -24.65625
vt -2.2382812 27.359375
vt -10.359375 -23.15625
vt -5.625 25.8125
vt -13.0703125 -22.515625
vt -5.859375 27.46875
vt -12.46875 -21.09375
vt -8.9375 24.140625
vt -16.921875 -20.859375
vt -9.4140625 25.71875
vt -16.125 -19.578125
vt -12.1796875 22.84375
vt -19.234375 -18.296875
vt -12.84375 24.34375
vt -18.25 -17.171875
vt -15.4140625 20.34375
vt -21.328125 -15.734375
vt -16.28125 21.703125
vt -20.21875 -14.78125
vt -19.125 17.5625
vt -22.71875 -13.6875
vt -20.203125 18.765625
vt -21.515625 -12.859375
vt -22.46875 14.078125
vt -23.8125 -11.6875
vt -23.75 15.0546875
vt -22.546875 -10.9609375
vt -24.84375 10.046875
vt -25.171875 -9.75
vt -26.28125 10.7578125
vt -23.828125 -9.15625
vt -25.03125 7.328125
vt -26.46875 -6.8554688
vt -26.515625 7.8320312
vt -25.03125 -6.484375
vt -25.640625 4.4882812
vt -26.734375 -2.6875
vt -27.140625 4.8164062
vt -25.25 -2.5625
vt -25.875 1.2001953
vt -27.375 1.3076172
vn 0.042999268 0.99853516 -0.024749756
vn 0.026321411 0.9995117 -0.011520386
vn -0 1 0
vn 0.033691406 0.99853516 -0.0435791
vn 0.04119873 0.99902344 -0.00868988
vn 0.013671875 0.99902344 -0.04043579
vn 0.042144775 0.99902344 0.008552551
vn -0.00030875206 0.99853516 -0.0574646
vn 0.038146973 0.99902344 0.022781372
vn 0.0012817383 0.9995117 -0.03793335
vn 0.027496338 0.9995117 0.014312744
vn 0.003255844 0.99853516 -0.049804688
vn 0.036010742 0.99902344 0.013954163
vn -0.0054626465 0.9995117 -0.037872314
vn 0.03286743 0.9995117 0.015823364
vn -0.010726929 0.99902344 -0.040863037
vn 0.031402588 0.99902344 0.026184082
vn -0.02848816 0.99902344 -0.037902832
vn 0.011497498 0.99902344 0.045440674
vn -0.046966553 0.99853516 -0.024597168
vn 0.008766174 0.9995117 0.033447266
vn -0.029586792 0.9995117 -0.009994507
vn 0.014427185 0.99853516 0.0501709
vn -0.026901245 0.9995117 -0.006011963
vn 0.00012254715 0.99902344 0.044433594
vn -0.020874023 1 -0.0009651184
vn -0.0047073364 0.99902344 0.047607422
vn -0.02696228 0.9995117 0.0015363693
vn -0.0077590942 0.99853516 0.049224854
vn -0.033477783 0.9995117 0.008781433
vn -0.0026187897 0.99902344 0.038726807
vn -0.036834717 0.99902344 0.021652222
vn -0.0062065125 0.99902344 0.038208008
vn -0.024383545 0.9995117 0.021270752
vn -0.021133423 0.99902344 0.03878784
vn -0.027420044 0.9995117 0.024719238
vn -0.01966858 0.9995117 0.029373169
vn -0.023727417 0.99902344 0.032562256
vn -0.48608398 0.7993164 0.35375977
vn -0.4880371 0.7993164 0.35058594
vn -0.53125 0.80029297 0.2775879
vn -0.53125 0.80029297 0.27807617
vn -0.40942383 0.79003906 0.45629883
vn -0.5576172 0.8198242 0.12890625
vn -0.4099121 0.79003906 0.45581055
vn -0.5551758 0.81884766 0.14501953
vn -0.28051758 0.79003906 0.54541016
vn -0.56884766 0.81689453 -0.09460449
vn -0.2890625 0.79003906 0.54052734
vn -0.5678711 0.81689453 -0.10107422
vn 0.030975342 0.7529297 0.65722656
vn -0.53808594 0.8076172 -0.24169922
vn -0.012077332 0.7607422 0.6489258
vn -0.5317383 0.80566406 -0.26171875
vn -0.015357971 0.7363281 0.6767578
vn -0.53125 0.7939453 -0.29516602
vn -0.021072388 0.7363281 0.6767578
vn -0.5341797 0.7944336 -0.28930664
vn -0.17675781 0.72753906 0.66308594
vn -0.5620117 0.7944336 -0.23034668
vn -0.16381836 0.73046875 0.66308594
vn -0.56347656 0.7944336 -0.22790527
vn 0.035491943 0.78808594 0.6142578
vn -0.53759766 0.79833984 -0.27148438
vn 0.109375 0.8017578 0.58740234
vn -0.5415039 0.7973633 -0.26513672
vn 0.28955078 0.81640625 0.49951172
vn -0.44506836 0.8120117 -0.3774414
vn 0.2919922 0.81689453 0.49731445
vn -0.4555664 0.81103516 -0.36694336
vn 0.3449707 0.82666016 0.44482422
vn -0.23181152 0.8046875 -0.5463867
vn 0.3540039 0.828125 0.4350586
vn -0.19140625 0.79833984 -0.5708008
vn 0.49145508 0.8359375 0.24438477
vn -0.17822266 0.7861328 -0.5917969
vn 0.48461914 0.8364258 0.25585938
vn -0.203125 0.7885742 -0.5800781
vn 0.5415039 0.8256836 0.15710449
vn -0.17041016 0.7949219 -0.58203125
vn 0.54345703 0.8251953 0.1529541
vn -0.15942383 0.7944336 -0.5859375
vn 0.5566406 0.8256836 0.09277344
vn -0.0033111572 0.7792969 -0.6269531
vn 0.55371094 0.8261719 0.10284424
vn -0.0009775162 0.7788086 -0.6269531
vn 0.5722656 0.8198242 0.030471802
vn 0.033172607 0.77734375 -0.62841797
vn 0.5722656 0.8198242 0.029953003
vn 0.035614014 0.77685547 -0.62841797
vn 0.5708008 0.8208008 -0.013580322
vn 0.095825195 0.77490234 -0.6245117
vn 0.5708008 0.8208008 -0.013687134
vn 0.09814453 0.77490234 -0.62402344
vn 0.5576172 0.8208008 -0.12390137
vn 0.08947754 0.7734375 -0.6274414
vn 0.5576172 0.8208008 -0.123291016
vn 0.091308594 0.7734375 -0.6269531
vn 0.5 0.81591797 -0.29077148
vn 0.123168945 0.7788086 -0.6152344
vn 0.5097656 0.81689453 -0.26904297
vn 0.11608887 0.7783203 -0.6171875
vn 0.45263672 0.79785156 -0.39794922
vn 0.28955078 0.78564453 -0.546875
vn 0.4465332 0.796875 -0.40698242
vn 0.2915039 0.78515625 -0.54589844
vn 0.4465332 0.79785156 -0.40478516
vn 0.34814453 0.78125 -0.5180664
vn 0.44921875 0.79833984 -0.40112305
vn 0.34936523 0.78125 -0.51708984
vn 0.36572266 0.7890625 -0.4934082
vn 0.37353516 0.79003906 -0.48608398
g MetroArea_Construction_Pit_02_0
f 3/3/3 2/2/2 1/1/1
f 3/3/3 1/1/1 4/4/4
f 3/3/3 5/5/5 2/2/2
f 3/3/3 4/4/4 6/6/6
f 3/3/3 7/7/7 5/5/5
f 3/3/3 6/6/6 8/8/8
f 3/3/3 9/9/9 7/7/7
f 3/3/3 8/8/8 10/10/10
f 3/3/3 11/11/11 9/9/9
f 3/3/3 10/10/10 12/12/12
f 3/3/3 13/13/13 11/11/11
f 3/3/3 12/12/12 14/14/14
f 3/3/3 15/15/15 13/13/13
f 3/3/3 14/14/14 16/16/16
f 3/3/3 17/17/17 15/15/15
f 3/3/3 16/16/16 18/18/18
f 3/3/3 19/19/19 17/17/17
f 3/3/3 18/18/18 20/20/20
f 3/3/3 21/21/21 19/19/19
f 22/22/22 3/3/3 20/20/20
f 3/3/3 23/23/23 21/21/21
f 3/3/3 22/22/22 24/24/24
f 3/3/3 25/25/25 23/23/23
f 24/24/24 26/26/26 3/3/3
f 3/3/3 27/27/27 25/25/25
f 3/3/3 26/26/26 28/28/28
f 3/3/3 29/29/29 27/27/27
f 3/3/3 28/28/28 30/30/30
f 3/3/3 31/31/31 29/29/29
f 3/3/3 30/30/30 32/32/32
f 3/3/3 33/33/33 31/31/31
f 34/34/34 3/3/3 32/32/32
f 3/3/3 35/35/35 33/33/33
f 3/3/3 34/34/34 36/36/36
f 3/3/3 37/37/37 35/35/35
f 3/3/3 36/36/36 38/38/38
f 3/3/3 38/38/38 37/37/37
f 41/41/41 40/40/40 39/39/39
f 42/42/42 41/41/41 39/39/39
f 39/39/39 40/40/40 43/43/43
f 44/44/44 41/41/41 42/42/42
f 40/40/40 45/45/45 43/43/43
f 46/46/46 44/44/44 42/42/42
f 43/43/43 45/45/45 47/47/47
f 48/48/48 44/44/44 46/46/46
f 45/45/45 49/49/49 47/47/47
f 50/50/50 48/48/48 46/46/46
f 47/47/47 49/49/49 51/51/51
f 52/52/52 48/48/48 50/50/50
f 49/49/49 53/53/53 51/51/51
f 54/54/54 52/52/52 50/50/50
f 51/51/51 53/53/53 55/55/55
f 56/56/56 52/52/52 54/54/54
f 53/53/53 57/57/57 55/55/55
f 58/58/58 56/56/56 54/54/54
f 55/55/55 57/57/57 59/59/59
f 60/60/60 56/56/56 58/58/58
f 57/57/57 61/61/61 59/59/59
f 62/62/62 60/60/60 58/58/58
f 59/59/59 61/61/61 63/63/63
f 64/64/64 60/60/60 62/62/62
f 61/61/61 65/65/65 63/63/63
f 66/66/66 64/64/64 62/62/62
f 63/63/63 65/65/65 67/67/67
f 68/68/68 64/64/64 66/66/66
f 65/65/65 69/69/69 67/67/67
f 70/70/70 68/68/68 66/66/66
f 67/67/67 69/69/69 71/71/71
f 72/72/72 68/68/68 70/70/70
f 69/69/69 73/73/73 71/71/71
f 74/74/74 72/72/72 70/70/70
f 71/71/71 73/73/73 75/75/75
f 76/76/76 72/72/72 74/74/74
f 73/73/73 77/77/77 75/75/75
f 78/78/78 76/76/76 74/74/74
f 75/75/75 77/77/77 79/79/79
f 80/80/80 76/76/76 78/78/78
f 77/77/77 81/81/81 79/79/79
f 82/82/82 80/80/80 78/78/78
f 79/79/79 81/81/81 83/83/83
f 84/84/84 80/80/80 82/82/82
f 81/81/81 85/85/85 83/83/83
f 86/86/86 84/84/84 82/82/82
f 83/83/83 85/85/85 87/87/87
f 88/88/88 84/84/84 86/86/86
f 85/85/85 89/89/89 87/87/87
f 90/90/90 88/88/88 86/86/86
f 87/87/87 89/89/89 91/91/91
f 92/92/92 88/88/88 90/90/90
f 89/89/89 93/93/93 91/91/91
f 94/94/94 92/92/92 90/90/90
f 91/91/91 93/93/93 95/95/95
f 96/96/96 92/92/92 94/94/94
f 93/93/93 97/97/97 95/95/95
f 98/98/98 96/96/96 94/94/94
f 95/95/95 97/97/97 99/99/99
f 100/100/100 96/96/96 98/98/98
f 97/97/97 101/101/101 99/99/99
f 102/102/102 100/100/100 98/98/98
f 99/99/99 101/101/101 103/103/103
f 104/104/104 100/100/100 102/102/102
f 101/101/101 105/105/105 103/103/103
f 106/106/106 104/104/104 102/102/102
f 103/103/103 105/105/105 107/107/107
f 108/108/108 104/104/104 106/106/106
f 105/105/105 109/109/109 107/107/107
f 110/110/110 108/108/108 106/106/106
f 107/107/107 109/109/109 111/111/111
f 112/112/112 108/108/108 110/110/110
f 109/109/109 112/112/112 111/111/111
f 111/111/111 112/112/112 110/110/110
