g MetroArea_Prop_Pipeline_02
v 1.4480047 -0.25112703 -0.044290006
v -1.4479938 -0.22083664 -0.1275151
v -1.447984 -0.25112608 -0.044296112
v 1.4479967 -0.22083755 -0.12751022
v -1.4480108 -0.1639109 -0.1953563
v 1.4479815 -0.16391197 -0.1953514
v -1.448034 -0.08721519 -0.23963669
v 1.4479601 -0.08721618 -0.2396318
v -1.4480609 -7.6293944E-08 -0.25501448
v 1.4479357 -9.918213E-07 -0.25501022
v -1.4480865 0.08721504 -0.23963608
v 1.4479108 0.08721413 -0.2396318
v -1.4481091 0.16391075 -0.19535568
v 1.4478881 0.16390984 -0.19535202
v -1.4481256 0.22083648 -0.12751389
v 1.4478713 0.22083549 -0.12751083
v -1.4481341 0.25112593 -0.04429428
v 1.4478619 0.25112495 -0.044291228
v -1.4481348 0.25112593 0.04426651
v 1.4478613 0.25112495 0.04426956
v -1.4481256 0.22083648 0.12748611
v 1.4478686 0.22083549 0.12748916
v -1.4481072 0.1639109 0.1953273
v 1.4478842 0.16390984 0.19533065
v -1.4480853 0.08721512 0.23960708
v 1.4479055 0.08721413 0.23961104
v -1.4480585 -7.6293944E-08 0.2549855
v 1.4479302 -9.918213E-07 0.25498948
v -1.4480329 -0.08721519 0.23960678
v 1.447955 -0.08721618 0.23961136
v -1.4480096 -0.1639109 0.19532607
v 1.4479773 -0.16391197 0.19533096
v -1.4479932 -0.22083652 0.12748489
v 1.4479944 -0.22083755 0.12748978
v -1.4479852 -0.25112608 0.044264983
v 1.4480038 -0.25112703 0.044270173
v -1.447984 -0.25112608 -0.044296112
v 1.4480047 -0.25112703 -0.044290006
v 1.5020382 -0.3220327 0.056792755
v 1.4481579 -0.3220335 0.056776885
v 1.4481317 -0.2831914 0.16349533
v 1.5020171 -0.28319165 0.16350631
v 1.4480904 -0.21019104 0.2504927
v 1.5019903 -0.21019413 0.25050184
v 1.4480392 -0.11183723 0.30727553
v 1.5019602 -0.11184288 0.3072853
v 1.4479843 4.5013426E-06 0.32699415
v 1.5019308 -4.1198728E-06 0.32700607
v 1.4479324 0.1118457 0.30727065
v 1.501906 0.11183601 0.30728653
v 1.4478899 0.21019547 0.2504854
v 1.5018893 0.2101876 0.2505049
v 1.4478616 0.28319174 0.16348831
v 1.5018817 0.28318763 0.16350845
v 1.4478521 0.32203177 0.056772
v 1.501885 0.32203063 0.056791227
v 1.4478607 0.32203093 -0.05679184
v 1.5018982 0.32203132 -0.05677597
v 1.4478875 0.28318998 -0.16350631
v 1.5019199 0.2831886 -0.16349533
v 1.4479288 0.21019295 -0.25050154
v 1.501947 0.21018828 -0.2504924
v 1.4479797 0.11184333 -0.30728438
v 1.5019766 0.11183624 -0.3072746
v 1.4480335 4.1198728E-06 -0.32700607
v 1.5020046 -5.111694E-06 -0.32699385
v 1.4480847 -0.11183601 -0.30728683
v 1.5020285 -0.1118454 -0.30727157
v 1.4481268 -0.21018821 -0.2505052
v 1.5020453 -0.21019562 -0.2504875
v 1.4481552 -0.28318903 -0.16350876
v 1.5020531 -0.28319302 -0.16349044
v 1.4481659 -0.32203266 -0.056791227
v 1.5020504 -0.32203364 -0.05677353
v 1.4481579 -0.3220335 0.056776885
v 1.5020382 -0.3220327 0.056792755
v 1.4481579 -0.3220335 0.056776885
v 1.4480038 -0.25112703 0.044270173
v 1.4479944 -0.22083755 0.12748978
v 1.4481317 -0.2831914 0.16349533
v 1.4479773 -0.16391197 0.19533096
v 1.4480904 -0.21019104 0.2504927
v 1.447955 -0.08721618 0.23961136
v 1.4480392 -0.11183723 0.30727553
v 1.4479302 -9.918213E-07 0.25498948
v 1.4479843 4.5013426E-06 0.32699415
v 1.4479055 0.08721413 0.23961104
v 1.4479324 0.1118457 0.30727065
v 1.4478842 0.16390984 0.19533065
v 1.4478899 0.21019547 0.2504854
v 1.4478686 0.22083549 0.12748916
v 1.4478616 0.28319174 0.16348831
v 1.4478613 0.25112495 0.04426956
v 1.4478521 0.32203177 0.056772
v 1.4478619 0.25112495 -0.044291228
v 1.4478607 0.32203093 -0.05679184
v 1.4478713 0.22083549 -0.12751083
v 1.4478875 0.28318998 -0.16350631
v 1.4478881 0.16390984 -0.19535202
v 1.4479288 0.21019295 -0.25050154
v 1.4479108 0.08721413 -0.2396318
v 1.4479797 0.11184333 -0.30728438
v 1.4479357 -9.918213E-07 -0.25501022
v 1.4480335 4.1198728E-06 -0.32700607
v 1.4479601 -0.08721618 -0.2396318
v 1.4480847 -0.11183601 -0.30728683
v 1.4479815 -0.16391197 -0.1953514
v 1.4481268 -0.21018821 -0.2505052
v 1.4479967 -0.22083755 -0.12751022
v 1.4481552 -0.28318903 -0.16350876
v 1.4480047 -0.25112703 -0.044290006
v 1.4481659 -0.32203266 -0.056791227
v 1.4480038 -0.25112703 0.044270173
v 1.4481579 -0.3220335 0.056776885
v -1.5020386 0.32203254 0.056792755
v -1.4481579 0.32203346 0.056776885
v -1.4481317 0.2831913 0.16349533
v -1.5020171 0.28319153 0.16350631
v -1.4480908 0.21019095 0.2504927
v -1.5019903 0.210194 0.25050184
v -1.4480395 0.11183708 0.30727553
v -1.5019604 0.1118428 0.3072853
v -1.4479846 -4.653931E-06 0.32699415
v -1.5019311 4.043579E-06 0.32700607
v -1.4479321 -0.11184585 0.30727065
v -1.501906 -0.11183609 0.30728653
v -1.4478899 -0.21019562 0.2504854
v -1.5018896 -0.21018767 0.2505049
v -1.4478613 -0.2831919 0.16348831
v -1.5018817 -0.28318772 0.16350845
v -1.4478521 -0.32203192 0.056772
v -1.5018847 -0.32203072 0.056791227
v -1.4478607 -0.32203108 -0.05679184
v -1.5018982 -0.3220314 -0.05677597
v -1.4478875 -0.28319016 -0.16350631
v -1.5019201 -0.2831887 -0.16349533
v -1.4479284 -0.2101931 -0.25050154
v -1.501947 -0.21018836 -0.2504924
v -1.4479797 -0.11184349 -0.30728438
v -1.5019763 -0.111836314 -0.3072746
v -1.4480335 -4.272461E-06 -0.32700607
v -1.5020044 5.0354E-06 -0.32699385
v -1.4480847 0.11183586 -0.30728683
v -1.5020288 0.11184532 -0.30727157
v -1.4481268 0.21018806 -0.2505052
v -1.5020453 0.21019554 -0.2504875
v -1.4481555 0.28318894 -0.16350876
v -1.5020531 0.2831929 -0.16349044
v -1.4481659 0.32203254 -0.056791227
v -1.5020508 0.3220336 -0.05677353
v -1.4481579 0.32203346 0.056776885
v -1.5020386 0.32203254 0.056792755
v -1.4481579 0.32203346 0.056776885
v -1.4481348 0.25112593 0.04426651
v -1.4481256 0.22083648 0.12748611
v -1.4481317 0.2831913 0.16349533
v -1.4481072 0.1639109 0.1953273
v -1.4480908 0.21019095 0.2504927
v -1.4480853 0.08721512 0.23960708
v -1.4480395 0.11183708 0.30727553
v -1.4480585 -7.6293944E-08 0.2549855
v -1.4479846 -4.653931E-06 0.32699415
v -1.4480329 -0.08721519 0.23960678
v -1.4479321 -0.11184585 0.30727065
v -1.4480096 -0.1639109 0.19532607
v -1.4478899 -0.21019562 0.2504854
v -1.4479932 -0.22083652 0.12748489
v -1.4478613 -0.2831919 0.16348831
v -1.4479852 -0.25112608 0.044264983
v -1.4478521 -0.32203192 0.056772
v -1.447984 -0.25112608 -0.044296112
v -1.4478607 -0.32203108 -0.05679184
v -1.4479938 -0.22083664 -0.1275151
v -1.4478875 -0.28319016 -0.16350631
v -1.4480108 -0.1639109 -0.1953563
v -1.4479284 -0.2101931 -0.25050154
v -1.448034 -0.08721519 -0.23963669
v -1.4479797 -0.11184349 -0.30728438
v -1.4480609 -7.6293944E-08 -0.25501448
v -1.4480335 -4.272461E-06 -0.32700607
v -1.4480865 0.08721504 -0.23963608
v -1.4480847 0.11183586 -0.30728683
v -1.4481091 0.16391075 -0.19535568
v -1.4481268 0.21018806 -0.2505052
v -1.4481256 0.22083648 -0.12751389
v -1.4481555 0.28318894 -0.16350876
v -1.4481341 0.25112593 -0.04429428
v -1.4481659 0.32203254 -0.056791227
v -1.4481348 0.25112593 0.04426651
v -1.4481579 0.32203346 0.056776885
vt 0.98583984 0.9951172
vt 0.042114258 0.9448242
vt 0.042114258 0.9951172
vt 0.98583984 0.9448242
vt 0.042114258 0.89453125
vt 0.98583984 0.89453125
vt 0.042114258 0.84375
vt 0.98583984 0.84375
vt 0.042114258 0.79345703
vt 0.98583984 0.79345703
vt 0.042114258 0.7426758
vt 0.98583984 0.7426758
vt 0.042114258 0.6923828
vt 0.98583984 0.6923828
vt 0.042114258 0.64208984
vt 0.98583984 0.64208984
vt 0.042114258 0.5913086
vt 0.98583984 0.5913086
vt 0.042114258 0.5410156
vt 0.98583984 0.5410156
vt 0.042114258 0.49047852
vt 0.98583984 0.49047852
vt 0.042114258 0.4399414
vt 0.98583984 0.4399414
vt 0.042114258 0.3894043
vt 0.98583984 0.3894043
vt 0.042114258 0.3388672
vt 0.98583984 0.3388672
vt 0.042114258 0.28833008
vt 0.98583984 0.28833008
vt 0.042114258 0.23791504
vt 0.98583984 0.23791504
vt 0.042114258 0.18737793
vt 0.98583984 0.18737793
vt 0.042114258 0.13696289
vt 0.98583984 0.13696289
vt 0.042114258 0.08642578
vt 0.98583984 0.08642578
vt 0.5332031 0.08081055
vt 0.5332031 0.04989624
vt 0.5058594 0.04989624
vt 0.5058594 0.08081055
vt 0.4765625 0.04989624
vt 0.4765625 0.08081055
vt 0.44702148 0.04989624
vt 0.44702148 0.08081055
vt 0.41723633 0.04989624
vt 0.41723633 0.08081055
vt 0.3876953 0.04989624
vt 0.3876953 0.08081055
vt 0.35791016 0.04989624
vt 0.35791016 0.08081055
vt 0.328125 0.04989624
vt 0.328125 0.08081055
vt 0.29833984 0.04989624
vt 0.29833984 0.08081055
vt 0.26879883 0.04989624
vt 0.26879883 0.08081055
vt 0.23901367 0.04989624
vt 0.23901367 0.08081055
vt 0.20935059 0.04989624
vt 0.20935059 0.08081055
vt 0.17956543 0.04989624
vt 0.17956543 0.08081055
vt 0.14990234 0.04989624
vt 0.14990234 0.08081055
vt 0.12023926 0.04989624
vt 0.12023926 0.08081055
vt 0.09051514 0.04989624
vt 0.09051514 0.08081055
vt 0.06088257 0.04989624
vt 0.06088257 0.08081055
vt 0.03173828 0.04989624
vt 0.03173828 0.08081055
vt 0.0044059753 0.04989624
vt 0.0044059753 0.08081055
vt 0.5332031 0.044769287
vt 0.5332031 0.0044059753
vt 0.5058594 0.0044059753
vt 0.5058594 0.044769287
vt 0.4765625 0.0044059753
vt 0.4765625 0.044769287
vt 0.44702148 0.0044059753
vt 0.44702148 0.044769287
vt 0.41723633 0.0044059753
vt 0.41723633 0.044769287
vt 0.3876953 0.0044059753
vt 0.3876953 0.044769287
vt 0.35791016 0.0044059753
vt 0.35791016 0.044769287
vt 0.328125 0.0044059753
vt 0.328125 0.044769287
vt 0.29833984 0.0044059753
vt 0.29833984 0.044769287
vt 0.26879883 0.0044059753
vt 0.26879883 0.044769287
vt 0.23901367 0.0044059753
vt 0.23901367 0.044769287
vt 0.20935059 0.0044059753
vt 0.20935059 0.044769287
vt 0.17956543 0.0044059753
vt 0.17956543 0.044769287
vt 0.14990234 0.0044059753
vt 0.14990234 0.044769287
vt 0.12023926 0.0044059753
vt 0.12023926 0.044769287
vt 0.09051514 0.0044059753
vt 0.09051514 0.044769287
vt 0.06088257 0.0044059753
vt 0.06088257 0.044769287
vt 0.03173828 0.0044059753
vt 0.03173828 0.044769287
vt 0.0044059753 0.0044059753
vt 0.0044059753 0.044769287
vt 0.5332031 0.08081055
vt 0.5332031 0.04989624
vt 0.5058594 0.04989624
vt 0.5058594 0.08081055
vt 0.4765625 0.04989624
vt 0.4765625 0.08081055
vt 0.44702148 0.04989624
vt 0.44702148 0.08081055
vt 0.41723633 0.04989624
vt 0.41723633 0.08081055
vt 0.3876953 0.04989624
vt 0.3876953 0.08081055
vt 0.35791016 0.04989624
vt 0.35791016 0.08081055
vt 0.328125 0.04989624
vt 0.328125 0.08081055
vt 0.29833984 0.04989624
vt 0.29833984 0.08081055
vt 0.26879883 0.04989624
vt 0.26879883 0.08081055
vt 0.23901367 0.04989624
vt 0.23901367 0.08081055
vt 0.20935059 0.04989624
vt 0.20935059 0.08081055
vt 0.17956543 0.04989624
vt 0.17956543 0.08081055
vt 0.14990234 0.04989624
vt 0.14990234 0.08081055
vt 0.12023926 0.04989624
vt 0.12023926 0.08081055
vt 0.09051514 0.04989624
vt 0.09051514 0.08081055
vt 0.06088257 0.04989624
vt 0.06088257 0.08081055
vt 0.03173828 0.04989624
vt 0.03173828 0.08081055
vt 0.0044059753 0.04989624
vt 0.0044059753 0.08081055
vt 0.5332031 0.044769287
vt 0.5332031 0.0044059753
vt 0.5058594 0.0044059753
vt 0.5058594 0.044769287
vt 0.4765625 0.0044059753
vt 0.4765625 0.044769287
vt 0.44702148 0.0044059753
vt 0.44702148 0.044769287
vt 0.41723633 0.0044059753
vt 0.41723633 0.044769287
vt 0.3876953 0.0044059753
vt 0.3876953 0.044769287
vt 0.35791016 0.0044059753
vt 0.35791016 0.044769287
vt 0.328125 0.0044059753
vt 0.328125 0.044769287
vt 0.29833984 0.0044059753
vt 0.29833984 0.044769287
vt 0.26879883 0.0044059753
vt 0.26879883 0.044769287
vt 0.23901367 0.0044059753
vt 0.23901367 0.044769287
vt 0.20935059 0.0044059753
vt 0.20935059 0.044769287
vt 0.17956543 0.0044059753
vt 0.17956543 0.044769287
vt 0.14990234 0.0044059753
vt 0.14990234 0.044769287
vt 0.12023926 0.0044059753
vt 0.12023926 0.044769287
vt 0.09051514 0.0044059753
vt 0.09051514 0.044769287
vt 0.06088257 0.0044059753
vt 0.06088257 0.044769287
vt 0.03173828 0.0044059753
vt 0.03173828 0.044769287
vt 0.0044059753 0.0044059753
vt 0.0044059753 0.044769287
vn -0 -0.9848633 -0.17358398
vn 6.556511E-07 -0.86621094 -0.5
vn -0 -0.9848633 -0.17370605
vn 5.364418E-07 -0.86621094 -0.5
vn 1.0728836E-06 -0.6425781 -0.7661133
vn 1.0728836E-06 -0.6425781 -0.7661133
vn 1.4901161E-06 -0.34204102 -0.9399414
vn 1.3709068E-06 -0.34204102 -0.9394531
vn 1.5497208E-06 3.683567E-05 -1
vn 1.4901161E-06 -3.1352043E-05 -1
vn 1.4901161E-06 0.34204102 -0.9394531
vn 1.4305115E-06 0.34204102 -0.9399414
vn 1.2516975E-06 0.6425781 -0.7661133
vn 1.1324883E-06 0.6425781 -0.7661133
vn 8.940697E-07 0.86621094 -0.5
vn 8.34465E-07 0.86621094 -0.5
vn 5.364418E-07 0.9848633 -0.17358398
vn 5.364418E-07 0.9848633 -0.17370605
vn 1.7881393E-07 0.9848633 0.17358398
vn 1.7881393E-07 0.9848633 0.17370605
vn -2.3841858E-07 0.86621094 0.5
vn -2.3841858E-07 0.86621094 0.5
vn -6.556511E-07 0.6425781 0.7661133
vn -7.748604E-07 0.6425781 0.7661133
vn -1.0728836E-06 0.34204102 0.9394531
vn -1.1920929E-06 0.34204102 0.9399414
vn -1.3709068E-06 3.159046E-05 1
vn -1.4901161E-06 -2.9623508E-05 1
vn -1.4901161E-06 -0.34204102 0.9399414
vn -1.66893E-06 -0.34204102 0.9394531
vn -1.4901161E-06 -0.6425781 0.7661133
vn -1.5497208E-06 -0.6425781 0.7661133
vn -1.1324883E-06 -0.86621094 0.5
vn -1.1324883E-06 -0.86621094 0.5
vn -6.556511E-07 -0.9848633 0.17370605
vn -6.556511E-07 -0.9848633 0.17358398
vn -0 -0.9848633 -0.17370605
vn -0 -0.9848633 -0.17358398
vn -3.46303E-05 -0.9848633 0.17370605
vn -4.1246414E-05 -0.9848633 0.17358398
vn -0.000107467175 -0.86621094 0.5
vn -0.00010830164 -0.86621094 0.5
vn -0.0001642704 -0.6425781 0.7661133
vn -0.00017178059 -0.6425781 0.7661133
vn -0.00020122528 -0.34204102 0.9399414
vn -0.00021290779 -0.34204102 0.9394531
vn -0.00021362305 9.715557E-05 1
vn -0.00023055077 -2.4616718E-05 1
vn -0.00020503998 0.34204102 0.9394531
vn -0.0002257824 0.34204102 0.9399414
vn -0.00017261505 0.6430664 0.7661133
vn -0.00019216537 0.6425781 0.7661133
vn -0.000111699104 0.86621094 0.5
vn -0.0001269579 0.86621094 0.5
vn -3.4332275E-05 0.9848633 0.17358398
vn -4.5001507E-05 0.9848633 0.17370605
vn 4.810095E-05 0.9848633 -0.17370605
vn 4.3988228E-05 0.9848633 -0.17358398
vn 0.00012373924 0.86621094 -0.5
vn 0.00012719631 0.86621094 -0.5
vn 0.00018167496 0.6430664 -0.7661133
vn 0.0001899004 0.6425781 -0.7661133
vn 0.00021028519 0.34204102 -0.9394531
vn 0.00022232533 0.34204102 -0.9399414
vn 0.00021874905 8.5771084E-05 -1
vn 0.00023412704 -3.5643578E-05 -1
vn 0.00019836426 -0.34204102 -0.9399414
vn 0.00021457672 -0.34204102 -0.9394531
vn 0.00015497208 -0.6425781 -0.7661133
vn 0.00017130375 -0.6425781 -0.7661133
vn 9.8109245E-05 -0.86621094 -0.5
vn 0.00011301041 -0.86621094 -0.5
vn 3.20673E-05 -0.9848633 -0.17370605
vn 4.3690205E-05 -0.9848633 -0.17358398
vn -4.1246414E-05 -0.9848633 0.17358398
vn -3.46303E-05 -0.9848633 0.17370605
vn -1 -0.0020980835 0.00021862984
vn -1 -0.0021419525 0.0002632141
vn -1 -0.0017938614 0.0007696152
vn -1 -0.0017528534 0.0006799698
vn -1 -0.0012836456 0.0010318756
vn -1 -0.0012741089 0.0009088516
vn -1 -0.00076675415 0.0010194778
vn -1 -0.0008020401 0.000890255
vn -1 -0.00038290024 0.0008020401
vn -1 -0.00045394897 0.0006990433
vn -1 -0.00018417835 0.00051164627
vn -1 -0.00026512146 0.0004529953
vn -1 -0.00013566017 0.00026273727
vn -1 -0.000197649 0.00024318695
vn -1 -0.00015103817 0.000104248524
vn -1 -0.00017130375 0.000101447105
vn -1 -0.0001320839 1.8000603E-05
vn -1 -0.00010949373 1.66893E-06
vn -1 -4.8220158E-05 -7.605553E-05
vn -1 -2.3841858E-06 -0.00013041496
vn -1 6.633997E-05 -0.00026869774
vn -1 0.00010508299 -0.00036668777
vn -1 0.000112473965 -0.0005841255
vn -1 0.00011742115 -0.0007100105
vn -1 -9.834766E-06 -0.00097084045
vn -1 -4.8816204E-05 -0.0010957718
vn -1 -0.00034594536 -0.0013084412
vn -1 -0.00042152405 -0.0014066696
vn -1 -0.0008716583 -0.0014762878
vn -1 -0.000957489 -0.001531601
vn -1 -0.0014591217 -0.0013666153
vn -1 -0.0015268326 -0.0013818741
vn -1 -0.0019569397 -0.0009713173
vn -1 -0.0019836426 -0.0009675026
vn -1 -0.002204895 -0.00037527084
vn -1 -0.0021877289 -0.00038290024
vn -1 -0.0021419525 0.0002632141
vn -1 -0.0020980835 0.00021862984
vn 3.284216E-05 0.9848633 0.17370605
vn 3.9696693E-05 0.9848633 0.17358398
vn 0.000107228756 0.86621094 0.5
vn 0.000108242035 0.86621094 0.5
vn 0.00016391277 0.6425781 0.7661133
vn 0.00017142296 0.6425781 0.7661133
vn 0.00020158291 0.34204102 0.9399414
vn 0.00021338463 0.34204102 0.9394531
vn 0.00021362305 -9.763241E-05 1
vn 0.00023055077 2.4795532E-05 1
vn 0.00020456314 -0.34204102 0.9394531
vn 0.00022530556 -0.34204102 0.9399414
vn 0.00017178059 -0.6430664 0.7661133
vn 0.00019133091 -0.6425781 0.7661133
vn 0.00011050701 -0.86621094 0.5
vn 0.0001257658 -0.86621094 0.5
vn 3.296137E-05 -0.9848633 0.17358398
vn 4.36306E-05 -0.9848633 0.17370605
vn -4.9471855E-05 -0.9848633 -0.17370605
vn -4.5359135E-05 -0.9848633 -0.17358398
vn -0.00012493134 -0.86621094 -0.5
vn -0.00012850761 -0.86621094 -0.5
vn -0.00018250942 -0.6430664 -0.7661133
vn -0.00019073486 -0.6425781 -0.7661133
vn -0.00021076202 -0.34204102 -0.9394531
vn -0.00022280216 -0.34204102 -0.9399414
vn -0.00021874905 -8.59499E-05 -1
vn -0.00023412704 3.6358833E-05 -1
vn -0.00019788742 0.34204102 -0.9399414
vn -0.00021409988 0.34204102 -0.9394531
vn -0.00015413761 0.6425781 -0.7661133
vn -0.00017046928 0.6425781 -0.7661133
vn -9.793043E-05 0.86621094 -0.5
vn -0.00011277199 0.86621094 -0.5
vn -3.08156E-05 0.9848633 -0.17370605
vn -4.2796135E-05 0.9848633 -0.17358398
vn 3.9696693E-05 0.9848633 0.17358398
vn 3.284216E-05 0.9848633 0.17370605
vn 1 0.00030326843 -7.581711E-05
vn 1 0.00035071373 -2.1636486E-05
vn 1 0.00020623207 -0.00012290478
vn 1 0.0001693964 -0.00021195412
vn 1 0.000101566315 -0.00033330917
vn 1 9.75728E-05 -0.00045681
vn 1 0.0001347065 -0.0006709099
vn 1 0.00017142296 -0.00079393387
vn 1 0.0003643036 -0.0009794235
vn 1 0.00043678284 -0.001074791
vn 1 0.00077819824 -0.0011587143
vn 1 0.000854969 -0.0012102127
vn 1 0.001244545 -0.0010890961
vn 1 0.0013017654 -0.0011014938
vn 1 0.0016441345 -0.00078105927
vn 1 0.0016613007 -0.00077962875
vn 1 0.0018262863 -0.00029706955
vn 1 0.0017948151 -0.00031352043
vn 1 0.0017271042 0.00019538403
vn 1 0.0016765594 0.00014412403
vn 1 0.0014181137 0.0005569458
vn 1 0.0013780594 0.00046682358
vn 1 0.0010061264 0.00070524216
vn 1 0.0009975433 0.0005865097
vn 1 0.0006299019 0.0006246567
vn 1 0.00066041946 0.0005106926
vn 1 0.00038051605 0.00042438507
vn 1 0.0004441738 0.0003349781
vn 1 0.00030446053 0.00018155575
vn 1 0.0003774166 0.00012910366
vn 1 0.00034856796 9.775162E-06
vn 1 0.0004041195 -6.7949295E-06
vn 1 0.00043010712 -5.2154064E-05
vn 1 0.000446558 -5.441904E-05
vn 1 0.00044369698 -2.9921532E-05
vn 1 0.00041675568 -4.762411E-05
vn 1 0.00035071373 -2.1636486E-05
vn 1 0.00030326843 -7.581711E-05
g MetroArea_Prop_Pipeline_02_0
f 3/3/3 2/2/2 1/1/1
f 2/2/2 4/4/4 1/1/1
f 2/2/2 5/5/5 4/4/4
f 5/5/5 6/6/6 4/4/4
f 5/5/5 7/7/7 6/6/6
f 7/7/7 8/8/8 6/6/6
f 7/7/7 9/9/9 8/8/8
f 9/9/9 10/10/10 8/8/8
f 9/9/9 11/11/11 10/10/10
f 11/11/11 12/12/12 10/10/10
f 11/11/11 13/13/13 12/12/12
f 13/13/13 14/14/14 12/12/12
f 13/13/13 15/15/15 14/14/14
f 15/15/15 16/16/16 14/14/14
f 15/15/15 17/17/17 16/16/16
f 17/17/17 18/18/18 16/16/16
f 17/17/17 19/19/19 18/18/18
f 19/19/19 20/20/20 18/18/18
f 19/19/19 21/21/21 20/20/20
f 21/21/21 22/22/22 20/20/20
f 21/21/21 23/23/23 22/22/22
f 23/23/23 24/24/24 22/22/22
f 23/23/23 25/25/25 24/24/24
f 25/25/25 26/26/26 24/24/24
f 25/25/25 27/27/27 26/26/26
f 27/27/27 28/28/28 26/26/26
f 27/27/27 29/29/29 28/28/28
f 29/29/29 30/30/30 28/28/28
f 29/29/29 31/31/31 30/30/30
f 31/31/31 32/32/32 30/30/30
f 31/31/31 33/33/33 32/32/32
f 33/33/33 34/34/34 32/32/32
f 33/33/33 35/35/35 34/34/34
f 35/35/35 36/36/36 34/34/34
f 35/35/35 37/37/37 36/36/36
f 37/37/37 38/38/38 36/36/36
f 41/41/41 40/40/40 39/39/39
f 42/42/42 41/41/41 39/39/39
f 43/43/43 41/41/41 42/42/42
f 44/44/44 43/43/43 42/42/42
f 45/45/45 43/43/43 44/44/44
f 46/46/46 45/45/45 44/44/44
f 47/47/47 45/45/45 46/46/46
f 48/48/48 47/47/47 46/46/46
f 49/49/49 47/47/47 48/48/48
f 50/50/50 49/49/49 48/48/48
f 51/51/51 49/49/49 50/50/50
f 52/52/52 51/51/51 50/50/50
f 53/53/53 51/51/51 52/52/52
f 54/54/54 53/53/53 52/52/52
f 55/55/55 53/53/53 54/54/54
f 56/56/56 55/55/55 54/54/54
f 57/57/57 55/55/55 56/56/56
f 58/58/58 57/57/57 56/56/56
f 59/59/59 57/57/57 58/58/58
f 60/60/60 59/59/59 58/58/58
f 61/61/61 59/59/59 60/60/60
f 62/62/62 61/61/61 60/60/60
f 63/63/63 61/61/61 62/62/62
f 64/64/64 63/63/63 62/62/62
f 65/65/65 63/63/63 64/64/64
f 66/66/66 65/65/65 64/64/64
f 67/67/67 65/65/65 66/66/66
f 68/68/68 67/67/67 66/66/66
f 69/69/69 67/67/67 68/68/68
f 70/70/70 69/69/69 68/68/68
f 71/71/71 69/69/69 70/70/70
f 72/72/72 71/71/71 70/70/70
f 73/73/73 71/71/71 72/72/72
f 74/74/74 73/73/73 72/72/72
f 75/75/75 73/73/73 74/74/74
f 76/76/76 75/75/75 74/74/74
f 79/79/79 78/78/78 77/77/77
f 80/80/80 79/79/79 77/77/77
f 81/81/81 79/79/79 80/80/80
f 82/82/82 81/81/81 80/80/80
f 83/83/83 81/81/81 82/82/82
f 84/84/84 83/83/83 82/82/82
f 85/85/85 83/83/83 84/84/84
f 86/86/86 85/85/85 84/84/84
f 87/87/87 85/85/85 86/86/86
f 88/88/88 87/87/87 86/86/86
f 89/89/89 87/87/87 88/88/88
f 90/90/90 89/89/89 88/88/88
f 91/91/91 89/89/89 90/90/90
f 92/92/92 91/91/91 90/90/90
f 93/93/93 91/91/91 92/92/92
f 94/94/94 93/93/93 92/92/92
f 95/95/95 93/93/93 94/94/94
f 96/96/96 95/95/95 94/94/94
f 97/97/97 95/95/95 96/96/96
f 98/98/98 97/97/97 96/96/96
f 99/99/99 97/97/97 98/98/98
f 100/100/100 99/99/99 98/98/98
f 101/101/101 99/99/99 100/100/100
f 102/102/102 101/101/101 100/100/100
f 103/103/103 101/101/101 102/102/102
f 104/104/104 103/103/103 102/102/102
f 105/105/105 103/103/103 104/104/104
f 106/106/106 105/105/105 104/104/104
f 107/107/107 105/105/105 106/106/106
f 108/108/108 107/107/107 106/106/106
f 109/109/109 107/107/107 108/108/108
f 110/110/110 109/109/109 108/108/108
f 111/111/111 109/109/109 110/110/110
f 112/112/112 111/111/111 110/110/110
f 113/113/113 111/111/111 112/112/112
f 114/114/114 113/113/113 112/112/112
f 117/117/117 116/116/116 115/115/115
f 118/118/118 117/117/117 115/115/115
f 119/119/119 117/117/117 118/118/118
f 120/120/120 119/119/119 118/118/118
f 121/121/121 119/119/119 120/120/120
f 122/122/122 121/121/121 120/120/120
f 123/123/123 121/121/121 122/122/122
f 124/124/124 123/123/123 122/122/122
f 125/125/125 123/123/123 124/124/124
f 126/126/126 125/125/125 124/124/124
f 127/127/127 125/125/125 126/126/126
f 128/128/128 127/127/127 126/126/126
f 129/129/129 127/127/127 128/128/128
f 130/130/130 129/129/129 128/128/128
f 131/131/131 129/129/129 130/130/130
f 132/132/132 131/131/131 130/130/130
f 133/133/133 131/131/131 132/132/132
f 134/134/134 133/133/133 132/132/132
f 135/135/135 133/133/133 134/134/134
f 136/136/136 135/135/135 134/134/134
f 137/137/137 135/135/135 136/136/136
f 138/138/138 137/137/137 136/136/136
f 139/139/139 137/137/137 138/138/138
f 140/140/140 139/139/139 138/138/138
f 141/141/141 139/139/139 140/140/140
f 142/142/142 141/141/141 140/140/140
f 143/143/143 141/141/141 142/142/142
f 144/144/144 143/143/143 142/142/142
f 145/145/145 143/143/143 144/144/144
f 146/146/146 145/145/145 144/144/144
f 147/147/147 145/145/145 146/146/146
f 148/148/148 147/147/147 146/146/146
f 149/149/149 147/147/147 148/148/148
f 150/150/150 149/149/149 148/148/148
f 151/151/151 149/149/149 150/150/150
f 152/152/152 151/151/151 150/150/150
f 155/155/155 154/154/154 153/153/153
f 156/156/156 155/155/155 153/153/153
f 157/157/157 155/155/155 156/156/156
f 158/158/158 157/157/157 156/156/156
f 159/159/159 157/157/157 158/158/158
f 160/160/160 159/159/159 158/158/158
f 161/161/161 159/159/159 160/160/160
f 162/162/162 161/161/161 160/160/160
f 163/163/163 161/161/161 162/162/162
f 164/164/164 163/163/163 162/162/162
f 165/165/165 163/163/163 164/164/164
f 166/166/166 165/165/165 164/164/164
f 167/167/167 165/165/165 166/166/166
f 168/168/168 167/167/167 166/166/166
f 169/169/169 167/167/167 168/168/168
f 170/170/170 169/169/169 168/168/168
f 171/171/171 169/169/169 170/170/170
f 172/172/172 171/171/171 170/170/170
f 173/173/173 171/171/171 172/172/172
f 174/174/174 173/173/173 172/172/172
f 175/175/175 173/173/173 174/174/174
f 176/176/176 175/175/175 174/174/174
f 177/177/177 175/175/175 176/176/176
f 178/178/178 177/177/177 176/176/176
f 179/179/179 177/177/177 178/178/178
f 180/180/180 179/179/179 178/178/178
f 181/181/181 179/179/179 180/180/180
f 182/182/182 181/181/181 180/180/180
f 183/183/183 181/181/181 182/182/182
f 184/184/184 183/183/183 182/182/182
f 185/185/185 183/183/183 184/184/184
f 186/186/186 185/185/185 184/184/184
f 187/187/187 185/185/185 186/186/186
f 188/188/188 187/187/187 186/186/186
f 189/189/189 187/187/187 188/188/188
f 190/190/190 189/189/189 188/188/188
