g MetroArea_Prop_Billboard_20
v 1.1228321 0.5057556 0.055667724
v 1.1228321 0.027336426 0.055668943
v -1.1228321 0.027335204 0.055669248
v -1.1228321 0.5057544 0.05566986
v -1.1501563 -1.2207031E-06 0.055665586
v -1.1501611 -2.4414062E-06 -0.048471984
v -1.150166 0.5330933 -0.0484729
v -1.1501611 0.533092 0.055666197
v 1.150166 -1.2207031E-06 0.055664975
v -1.1501563 -1.2207031E-06 0.055665586
v -1.1228321 0.027335204 0.055669248
v 1.1228321 0.027336426 0.055668943
v 1.150166 -3.6621093E-06 -0.048471984
v 1.1228321 0.027335204 -0.04847412
v -1.1228321 0.027335204 -0.0484729
v -1.1501611 -2.4414062E-06 -0.048471984
v 1.150166 0.5330933 0.05566589
v -1.1501611 0.533092 0.055666197
v -1.150166 0.5330933 -0.0484729
v 1.1501709 0.5330933 -0.04847351
v -1.1501563 -1.2207031E-06 0.055665586
v -1.1501611 0.533092 0.055666197
v -1.1228321 0.5057544 0.05566986
v -1.1228321 0.027335204 0.055669248
v -1.1228321 0.027335204 -0.0484729
v -1.1228321 0.5057556 -0.048472594
v -1.150166 0.5330933 -0.0484729
v -1.1501611 -2.4414062E-06 -0.048471984
v 1.150166 -1.2207031E-06 0.055664975
v 1.150166 0.5330933 0.05566589
v 1.1501709 0.5330933 -0.04847351
v 1.150166 -3.6621093E-06 -0.048471984
v -1.1501611 0.533092 0.055666197
v 1.150166 0.5330933 0.05566589
v 1.1228321 0.5057556 0.055667724
v -1.1228321 0.5057544 0.05566986
v -1.150166 0.5330933 -0.0484729
v -1.1228321 0.5057556 -0.048472594
v 1.1228321 0.50575805 -0.04847473
v 1.1501709 0.5330933 -0.04847351
v -1.1501563 -1.2207031E-06 0.055665586
v 1.150166 -1.2207031E-06 0.055664975
v 1.150166 -3.6621093E-06 -0.048471984
v -1.1501611 -2.4414062E-06 -0.048471984
v 1.150166 0.5330933 0.05566589
v 1.150166 -1.2207031E-06 0.055664975
v 1.1228321 0.027336426 0.055668943
v 1.1228321 0.5057556 0.055667724
v 1.1228321 0.50575805 -0.04847473
v 1.1228321 0.027335204 -0.04847412
v 1.150166 -3.6621093E-06 -0.048471984
v 1.1501709 0.5330933 -0.04847351
v -1.1228321 0.027335204 -0.0484729
v 1.1228321 0.027335204 -0.04847412
v 1.1228321 0.50575805 -0.04847473
v -1.1228321 0.5057556 -0.048472594
v -0.9110888 0.52001095 0.034831543
v -0.9110888 0.54738766 0.03482971
v -0.8798584 0.547384 0.04776703
v -0.8798584 0.52001095 0.047765806
v -0.8486279 0.54738766 0.03482971
v -0.8486279 0.52001095 0.034831543
v -0.83569336 0.52001584 0.0035983275
v -0.83569336 0.54738647 0.0035983275
v -0.8486279 0.5473852 -0.027632445
v -0.8486279 0.52001584 -0.02763275
v -0.8798584 0.54738647 -0.040568236
v -0.8798584 0.52001464 -0.040567625
v -0.9110888 0.5473852 -0.027632445
v -0.9110888 0.52001584 -0.02763275
v -0.9240283 0.54738647 0.0035983275
v -0.9240283 0.52001584 0.0035983275
v -0.9110888 0.54738766 0.03482971
v -0.9110888 0.52001095 0.034831543
v -0.8486279 0.54738766 0.03482971
v -0.8486279 0.5473852 -0.027632445
v -0.83569336 0.54738647 0.0035983275
v -0.8798584 0.547384 0.04776703
v -0.8798584 0.54738647 -0.040568236
v -0.9110888 0.54738766 0.03482971
v -0.9110888 0.5473852 -0.027632445
v -0.9240283 0.54738647 0.0035983275
v -0.86700195 0.539801 -0.018657532
v -0.85415035 1.3648596 0.0035995482
v -0.86700195 1.3648596 -0.018657532
v -0.85415035 0.5398047 0.0035995482
v -0.86700195 1.3648596 0.025859986
v -0.86700195 0.53980345 0.025858764
v -0.8927051 1.3648596 0.025859986
v -0.8927051 0.53980345 0.025858764
v -0.9055566 1.3648596 0.0035995482
v -0.9055566 0.5398047 0.0035995482
v -0.8927051 1.3648596 -0.018657532
v -0.8927051 0.539801 -0.018657532
v -0.86700195 1.3648596 -0.018657532
v -0.86700195 0.539801 -0.018657532
v -0.8486084 1.3718884 0.034831237
v -0.8486084 1.3445069 0.034830626
v -0.8798388 1.344508 0.04776825
v -0.8798388 1.3718823 0.04776764
v -0.91106933 1.3445069 0.034830626
v -0.91106933 1.3718884 0.034831237
v -0.9240039 1.3718774 0.0035986328
v -0.9240039 1.3445092 0.0035977173
v -0.91106933 1.3445117 -0.027631836
v -0.91106933 1.3718786 -0.027631836
v -0.8798388 1.3445055 -0.04056671
v -0.8798388 1.3718823 -0.0405661
v -0.8486084 1.3445117 -0.027631836
v -0.8486084 1.3718786 -0.027631836
v -0.8356689 1.3445092 0.0035977173
v -0.8356689 1.3718774 0.0035986328
v -0.8486084 1.3445069 0.034830626
v -0.8486084 1.3718884 0.034831237
v -0.91106933 1.3445069 0.034830626
v -0.91106933 1.3445117 -0.027631836
v -0.9240039 1.3445092 0.0035977173
v -0.8798388 1.344508 0.04776825
v -0.8798388 1.3445055 -0.04056671
v -0.8486084 1.3445069 0.034830626
v -0.8486084 1.3445117 -0.027631836
v -0.8356689 1.3445092 0.0035977173
v 0.8486328 0.5200122 0.034831848
v 0.8486328 0.5473889 0.034831237
v 0.87986326 0.54738766 0.047767945
v 0.87986326 0.52001464 0.04776703
v 0.9110937 0.5473889 0.034831237
v 0.9110937 0.5200122 0.034831848
v 0.9240283 0.52001464 0.0035998535
v 0.9240283 0.54738766 0.0035986328
v 0.9110937 0.54738647 -0.02763214
v 0.9110937 0.52001584 -0.02763214
v 0.87986326 0.54738766 -0.04056732
v 0.87986326 0.52001584 -0.04056671
v 0.8486328 0.54738647 -0.02763214
v 0.8486328 0.52001584 -0.02763214
v 0.83569336 0.54738766 0.0035986328
v 0.83569336 0.52001464 0.0035998535
v 0.8486328 0.5473889 0.034831237
v 0.8486328 0.5200122 0.034831848
v 0.9110937 0.5473889 0.034831237
v 0.9110937 0.54738647 -0.02763214
v 0.9240283 0.54738766 0.0035986328
v 0.87986326 0.54738766 0.047767945
v 0.87986326 0.54738766 -0.04056732
v 0.8486328 0.5473889 0.034831237
v 0.8486328 0.54738647 -0.02763214
v 0.83569336 0.54738766 0.0035986328
v 0.8927197 0.539801 -0.01865692
v 0.9055713 1.3648596 0.0036013792
v 0.8927197 1.3648596 -0.018657532
v 0.9055713 0.5398047 0.0036001585
v 0.8927197 1.3648596 0.025860595
v 0.8927197 0.53980345 0.025859375
v 0.86701655 1.3648596 0.025860595
v 0.86701655 0.53980345 0.025859375
v 0.854165 1.3648596 0.0036013792
v 0.854165 0.5398047 0.0036001585
v 0.86701655 1.3648596 -0.018657532
v 0.86701655 0.539801 -0.01865692
v 0.8927197 1.3648596 -0.018657532
v 0.8927197 0.539801 -0.01865692
v 0.91111326 1.3718908 0.034831543
v 0.91111326 1.344508 0.034831543
v 0.8798828 1.344508 0.047768857
v 0.8798828 1.3718847 0.04776825
v 0.8486523 1.344508 0.034831543
v 0.8486523 1.3718908 0.034831543
v 0.83571774 1.3718798 0.003598938
v 0.83571774 1.3445129 0.003597412
v 0.8486523 1.3445141 -0.027631836
v 0.8486523 1.3718811 -0.02763153
v 0.8798828 1.3445055 -0.0405661
v 0.8798828 1.3718835 -0.040565185
v 0.91111326 1.3445141 -0.027631836
v 0.91111326 1.3718811 -0.02763153
v 0.9240527 1.3445129 0.003597412
v 0.9240527 1.3718798 0.003598938
v 0.91111326 1.344508 0.034831543
v 0.91111326 1.3718908 0.034831543
v 0.8486523 1.344508 0.034831543
v 0.8486523 1.3445141 -0.027631836
v 0.83571774 1.3445129 0.003597412
v 0.8798828 1.344508 0.047768857
v 0.8798828 1.3445055 -0.0405661
v 0.91111326 1.344508 0.034831543
v 0.91111326 1.3445141 -0.027631836
v 0.9240527 1.3445129 0.003597412
vt 0.5078125 0.15710449
vt 0.5078125 0.049926758
vt 0.004497528 0.049926758
vt 0.004497528 0.15710449
vt 0.9111328 0.97509766
vt 0.9111328 0.99560547
vt 1.0166016 0.99560547
vt 1.0166016 0.97509766
vt 0.5126953 0.9667969
vt 0.9663086 0.9667969
vt 0.9609375 0.9614258
vt 0.5180664 0.9614258
vt 0.5126953 0.9614258
vt 0.5180664 0.9667969
vt 0.9609375 0.9667969
vt 0.9663086 0.9614258
vt 0.6142578 0.97509766
vt 0.16088867 0.97509766
vt 0.16088867 0.99560547
vt 0.6142578 0.99560547
vt 0.9111328 0.9667969
vt 1.0166016 0.9667969
vt 1.0107422 0.9614258
vt 0.9165039 0.9614258
vt 0.9165039 0.9667969
vt 1.0107422 0.9667969
vt 1.0166016 0.9614258
vt 0.9111328 0.9614258
vt 0.7866211 0.97509766
vt 0.6816406 0.97509766
vt 0.6816406 0.99560547
vt 0.7866211 0.99560547
vt 0.16088867 0.9667969
vt 0.6142578 0.9667969
vt 0.6088867 0.9614258
vt 0.16625977 0.9614258
vt 0.16088867 0.9614258
vt 0.16625977 0.9667969
vt 0.6088867 0.9667969
vt 0.6142578 0.9614258
vt 0.9663086 0.97509766
vt 0.5126953 0.97509766
vt 0.5126953 0.99560547
vt 0.9663086 0.99560547
vt 0.6816406 0.9667969
vt 0.7866211 0.9667969
vt 0.78125 0.9614258
vt 0.6870117 0.9614258
vt 0.6870117 0.9667969
vt 0.78125 0.9667969
vt 0.7866211 0.9614258
vt 0.6816406 0.9614258
vt 0.5078125 0.049926758
vt 0.004497528 0.049926758
vt 0.004497528 0.15710449
vt 0.5078125 0.15710449
vt 0.25439453 0.3317871
vt 0.25439453 0.33666992
vt 0.2602539 0.33666992
vt 0.2602539 0.3317871
vt 0.26635742 0.33666992
vt 0.26635742 0.3317871
vt 0.2722168 0.3317871
vt 0.2722168 0.33666992
vt 0.27807617 0.33666992
vt 0.27807617 0.3317871
vt 0.2841797 0.33666992
vt 0.2841797 0.3317871
vt 0.29003906 0.33666992
vt 0.29003906 0.3317871
vt 0.29614258 0.33666992
vt 0.29614258 0.3317871
vt 0.30200195 0.33666992
vt 0.30200195 0.3317871
vt 0.2709961 0.31054688
vt 0.26733398 0.31982422
vt 0.2709961 0.31591797
vt 0.26708984 0.30664062
vt 0.2619629 0.31982422
vt 0.26171875 0.30664062
vt 0.25805664 0.31591797
vt 0.25805664 0.31054688
vt 0.24353027 0.3359375
vt 0.09100342 0.33154297
vt 0.09100342 0.3359375
vt 0.24353027 0.33154297
vt 0.09100342 0.3269043
vt 0.24353027 0.3269043
vt 0.09100342 0.32226562
vt 0.24353027 0.32226562
vt 0.09100342 0.3178711
vt 0.24353027 0.3178711
vt 0.09100342 0.31323242
vt 0.24353027 0.31323242
vt 0.09100342 0.3088379
vt 0.24353027 0.3088379
vt 0.25439453 0.3317871
vt 0.25439453 0.33666992
vt 0.2602539 0.33666992
vt 0.2602539 0.3317871
vt 0.26635742 0.33666992
vt 0.26635742 0.3317871
vt 0.2722168 0.3317871
vt 0.2722168 0.33666992
vt 0.27807617 0.33666992
vt 0.27807617 0.3317871
vt 0.2841797 0.33666992
vt 0.2841797 0.3317871
vt 0.29003906 0.33666992
vt 0.29003906 0.3317871
vt 0.29614258 0.33666992
vt 0.29614258 0.3317871
vt 0.30200195 0.33666992
vt 0.30200195 0.3317871
vt 0.2709961 0.31054688
vt 0.26733398 0.31982422
vt 0.2709961 0.31591797
vt 0.26708984 0.30664062
vt 0.2619629 0.31982422
vt 0.26171875 0.30664062
vt 0.25805664 0.31591797
vt 0.25805664 0.31054688
vt 0.25439453 0.3317871
vt 0.25439453 0.33666992
vt 0.2602539 0.33666992
vt 0.2602539 0.3317871
vt 0.26635742 0.33666992
vt 0.26635742 0.3317871
vt 0.2722168 0.3317871
vt 0.2722168 0.33666992
vt 0.27807617 0.33666992
vt 0.27807617 0.3317871
vt 0.2841797 0.33666992
vt 0.2841797 0.3317871
vt 0.29003906 0.33666992
vt 0.29003906 0.3317871
vt 0.29614258 0.33666992
vt 0.29614258 0.3317871
vt 0.30200195 0.33666992
vt 0.30200195 0.3317871
vt 0.2709961 0.31054688
vt 0.26733398 0.31982422
vt 0.2709961 0.31591797
vt 0.26708984 0.30664062
vt 0.2619629 0.31982422
vt 0.26171875 0.30664062
vt 0.25805664 0.31591797
vt 0.25805664 0.31054688
vt 0.24353027 0.3359375
vt 0.09100342 0.33154297
vt 0.09100342 0.3359375
vt 0.24353027 0.33154297
vt 0.09100342 0.3269043
vt 0.24353027 0.3269043
vt 0.09100342 0.32226562
vt 0.24353027 0.32226562
vt 0.09100342 0.3178711
vt 0.24353027 0.3178711
vt 0.09100342 0.31323242
vt 0.24353027 0.31323242
vt 0.09100342 0.3088379
vt 0.24353027 0.3088379
vt 0.25439453 0.3317871
vt 0.25439453 0.33666992
vt 0.2602539 0.33666992
vt 0.2602539 0.3317871
vt 0.26635742 0.33666992
vt 0.26635742 0.3317871
vt 0.2722168 0.3317871
vt 0.2722168 0.33666992
vt 0.27807617 0.33666992
vt 0.27807617 0.3317871
vt 0.2841797 0.33666992
vt 0.2841797 0.3317871
vt 0.29003906 0.33666992
vt 0.29003906 0.3317871
vt 0.29614258 0.33666992
vt 0.29614258 0.3317871
vt 0.30200195 0.33666992
vt 0.30200195 0.3317871
vt 0.2709961 0.31054688
vt 0.26733398 0.31982422
vt 0.2709961 0.31591797
vt 0.26708984 0.30664062
vt 0.2619629 0.31982422
vt 0.26171875 0.30664062
vt 0.25805664 0.31591797
vt 0.25805664 0.31054688
vn 1.3113022E-06 7.212162E-06 1
vn 2.7418137E-06 -8.940697E-06 1
vn -1.4305115E-06 -1.1384487E-05 1
vn -1.5497208E-06 9.298325E-06 1
vn -1 -9.179115E-06 4.6908855E-05
vn -1 -9.179115E-06 4.6908855E-05
vn -1 -9.179115E-06 4.6908855E-05
vn -1 -9.179115E-06 4.6908855E-05
vn 2.759695E-05 -0.000117361546 1
vn -2.2768974E-05 -0.00011122227 1
vn -1.4305115E-06 -1.1384487E-05 1
vn 2.7418137E-06 -8.940697E-06 1
vn 1.2755394E-05 -6.443262E-05 -1
vn 7.1525574E-07 -7.2717667E-06 -1
vn -1.3709068E-06 -2.3841858E-06 -1
vn -5.9604645E-06 -2.7537346E-05 -1
vn -0 1 3.5762787E-07
vn -5.364418E-07 1 1.1742115E-05
vn -5.364418E-07 1 1.1384487E-05
vn -0 1 0
vn -2.2768974E-05 -0.00011122227 1
vn -2.515316E-05 0.00010794401 1
vn -1.5497208E-06 9.298325E-06 1
vn -1.4305115E-06 -1.1384487E-05 1
vn -1.3709068E-06 -2.3841858E-06 -1
vn -7.1525574E-07 -3.5762787E-07 -1
vn 7.1525574E-07 -9.179115E-06 -1
vn -5.9604645E-06 -2.7537346E-05 -1
vn 1 -8.046627E-06 5.7816505E-06
vn 1 0 4.6908855E-05
vn 1 -1.1324883E-06 4.1127205E-05
vn 1 -9.179115E-06 0
vn -2.515316E-05 0.00010794401 1
vn 1.23381615E-05 5.567074E-05 1
vn 1.3113022E-06 7.212162E-06 1
vn -1.5497208E-06 9.298325E-06 1
vn 7.1525574E-07 -9.179115E-06 -1
vn -7.1525574E-07 -3.5762787E-07 -1
vn 2.9802322E-07 2.5629997E-06 -1
vn 8.702278E-06 3.59416E-05 -1
vn -5.364418E-07 -1 1.2040138E-05
vn -0 -1 2.3424625E-05
vn -0 -1 2.3126602E-05
vn -5.364418E-07 -1 1.1742115E-05
vn 1.23381615E-05 5.567074E-05 1
vn 2.759695E-05 -0.000117361546 1
vn 2.7418137E-06 -8.940697E-06 1
vn 1.3113022E-06 7.212162E-06 1
vn 2.9802322E-07 2.5629997E-06 -1
vn 7.1525574E-07 -7.2717667E-06 -1
vn 1.2755394E-05 -6.443262E-05 -1
vn 8.702278E-06 3.59416E-05 -1
vn -1.3709068E-06 -2.3841858E-06 -1
vn 7.1525574E-07 -7.2717667E-06 -1
vn 2.9802322E-07 2.5629997E-06 -1
vn -7.1525574E-07 -3.5762787E-07 -1
vn -0.70703125 2.3126602E-05 0.70703125
vn -0.70703125 4.130602E-05 0.70703125
vn 1.5676022E-05 -2.0444393E-05 1
vn 3.9696693E-05 -2.0444393E-05 1
vn 0.70703125 1.7166138E-05 0.70703125
vn 0.70703125 4.7266483E-05 0.70703125
vn 1 7.033348E-06 4.3034554E-05
vn 1 0 9.536743E-06
vn 0.70703125 6.854534E-06 -0.70703125
vn 0.70703125 6.556511E-07 -0.70703125
vn -1.6331673E-05 -1.5079975E-05 -1
vn -2.9802322E-07 -1.5079975E-05 -1
vn -0.70703125 6.556511E-07 -0.70703125
vn -0.70703125 6.854534E-06 -0.70703125
vn -1 1.013279E-06 1.3530254E-05
vn -1 6.020069E-06 3.9041042E-05
vn -0.70703125 4.130602E-05 0.70703125
vn -0.70703125 2.3126602E-05 0.70703125
vn -0.0001232624 1 -3.9100647E-05
vn 3.2186508E-06 1 1.4305115E-05
vn -0 1 -3.9100647E-05
vn 2.8848648E-05 1 1.0192394E-05
vn 2.0444393E-05 1 1.0192394E-05
vn 7.683039E-05 1 1.4305115E-05
vn -5.1021576E-05 1 -3.9100647E-05
vn -0 1 -3.9100647E-05
vn 0.5 0 -0.86621094
vn 1 0 -1.2516975E-06
vn 0.5 0 -0.86621094
vn 1 -4.172325E-07 -1.7046928E-05
vn 0.5 -8.34465E-07 0.86621094
vn 0.5 -1.2516975E-06 0.86621094
vn -0.5 -1.2516975E-06 0.86621094
vn -0.5 -8.34465E-07 0.86621094
vn -1 -4.172325E-07 3.5762787E-07
vn -1 0 -1.8715858E-05
vn -0.5 0 -0.86621094
vn -0.5 0 -0.86621094
vn 0.5 0 -0.86621094
vn 0.5 0 -0.86621094
vn 0.70703125 -6.0796738E-06 0.70703125
vn 0.70703125 -1.6748905E-05 0.70703125
vn 1.2993813E-05 1.2636185E-05 1
vn -3.5107136E-05 1.2636185E-05 1
vn -0.70703125 -7.0929527E-06 0.70703125
vn -0.70703125 -1.5735626E-05 0.70703125
vn -1 -2.026558E-06 9.429455E-05
vn -1 0 1.0848045E-05
vn -0.70703125 2.9802322E-06 -0.70703125
vn -0.70703125 4.827976E-06 -0.70703125
vn 3.7550926E-05 1.7464161E-05 -1
vn -2.6464462E-05 1.7464161E-05 -1
vn 0.70703125 4.827976E-06 -0.70703125
vn 0.70703125 2.9802322E-06 -0.70703125
vn 1 -2.9802322E-06 1.4901161E-05
vn 1 1.013279E-06 9.030104E-05
vn 0.70703125 -1.6748905E-05 0.70703125
vn 0.70703125 -6.0796738E-06 0.70703125
vn 6.598234E-05 -1 -7.8201294E-05
vn -0.00013709068 -1 6.4969063E-06
vn -0 -1 -7.8201294E-05
vn -3.0636787E-05 -1 0
vn -4.7564507E-05 -1 0
vn 1.013279E-05 -1 6.4969063E-06
vn 0.0002104044 -1 -7.8201294E-05
vn -0 -1 -7.8201294E-05
vn -0.70703125 3.695488E-06 0.70703125
vn -0.70703125 1.7762184E-05 0.70703125
vn 1.847744E-06 -2.1338463E-05 1
vn 2.5868416E-05 -2.1338463E-05 1
vn 0.70703125 5.6624413E-06 0.70703125
vn 0.70703125 1.5735626E-05 0.70703125
vn 1 2.026558E-06 4.5120716E-05
vn 1 0 -1.3709068E-06
vn 0.70703125 -3.993511E-06 -0.70703125
vn 0.70703125 -4.827976E-06 -0.70703125
vn -9.536743E-06 -1.7464161E-05 -1
vn -1.5497208E-06 -1.7464161E-05 -1
vn -0.70703125 -4.827976E-06 -0.70703125
vn -0.70703125 -3.993511E-06 -0.70703125
vn -1 3.993511E-06 6.6161156E-06
vn -1 -2.026558E-06 3.71933E-05
vn -0.70703125 1.7762184E-05 0.70703125
vn -0.70703125 3.695488E-06 0.70703125
vn -5.1021576E-05 1 -3.9100647E-05
vn 2.3424625E-05 1 -7.8082085E-06
vn -0 1 -3.9100647E-05
vn 1.4424324E-05 1 -1.0192394E-05
vn 1.4424324E-05 1 -1.0192394E-05
vn 2.3424625E-05 1 -7.8082085E-06
vn -5.1021576E-05 1 -3.9100647E-05
vn -0 1 -3.9100647E-05
vn 0.5 0 -0.86621094
vn 1 -6.556511E-07 -7.748604E-07
vn 0.5 -6.556511E-07 -0.86621094
vn 1 0 -1.7642975E-05
vn 0.5 -1.2516975E-06 0.86621094
vn 0.5 -1.2516975E-06 0.86621094
vn -0.5 -1.2516975E-06 0.86621094
vn -0.5 -1.2516975E-06 0.86621094
vn -1 0 1.1324883E-06
vn -1 -6.556511E-07 -1.9192696E-05
vn -0.5 0 -0.86621094
vn -0.5 -6.556511E-07 -0.86621094
vn 0.5 -6.556511E-07 -0.86621094
vn 0.5 0 -0.86621094
vn 0.70703125 4.827976E-06 0.70703125
vn 0.70703125 -5.00679E-06 0.70703125
vn 1.4424324E-05 1.7464161E-05 1
vn -2.5570393E-05 1.7464161E-05 1
vn -0.70703125 -1.7881393E-07 0.70703125
vn -0.70703125 0 0.70703125
vn -1 1.013279E-06 0.00010365248
vn -1 0 1.0192394E-05
vn -0.70703125 1.1861324E-05 -0.70703125
vn -0.70703125 1.2695789E-05 -0.70703125
vn 4.1544437E-05 2.861023E-05 -1
vn -3.0457973E-05 2.861023E-05 -1
vn 0.70703125 1.2695789E-05 -0.70703125
vn 0.70703125 1.1861324E-05 -0.70703125
vn 1 -3.993511E-06 1.0251999E-05
vn 1 5.00679E-06 0.00010371208
vn 0.70703125 -5.00679E-06 0.70703125
vn 0.70703125 4.827976E-06 0.70703125
vn 2.6583672E-05 -1 -9.769201E-05
vn -0.00021231174 -1 2.5629997E-06
vn -0.00014150143 -1 -9.769201E-05
vn -3.1530857E-05 -1 -5.1259995E-06
vn -6.109476E-05 -1 -5.1259995E-06
vn 6.186962E-05 -1 2.5629997E-06
vn 0.00030088425 -1 -9.769201E-05
vn 0.00014150143 -1 -9.769201E-05
g MetroArea_Prop_Billboard_20_0
f 3/3/3 2/2/2 1/1/1
f 4/4/4 3/3/3 1/1/1
f 7/7/7 6/6/6 5/5/5
f 8/8/8 7/7/7 5/5/5
f 11/11/11 10/10/10 9/9/9
f 12/12/12 11/11/11 9/9/9
f 15/15/15 14/14/14 13/13/13
f 16/16/16 15/15/15 13/13/13
f 19/19/19 18/18/18 17/17/17
f 20/20/20 19/19/19 17/17/17
f 23/23/23 22/22/22 21/21/21
f 24/24/24 23/23/23 21/21/21
f 27/27/27 26/26/26 25/25/25
f 28/28/28 27/27/27 25/25/25
f 31/31/31 30/30/30 29/29/29
f 32/32/32 31/31/31 29/29/29
f 35/35/35 34/34/34 33/33/33
f 36/36/36 35/35/35 33/33/33
f 39/39/39 38/38/38 37/37/37
f 40/40/40 39/39/39 37/37/37
f 43/43/43 42/42/42 41/41/41
f 44/44/44 43/43/43 41/41/41
f 47/47/47 46/46/46 45/45/45
f 48/48/48 47/47/47 45/45/45
f 51/51/51 50/50/50 49/49/49
f 52/52/52 51/51/51 49/49/49
f 55/55/55 54/54/54 53/53/53
f 56/56/56 55/55/55 53/53/53
f 59/59/59 58/58/58 57/57/57
f 60/60/60 59/59/59 57/57/57
f 61/61/61 59/59/59 60/60/60
f 62/62/62 61/61/61 60/60/60
f 61/61/61 62/62/62 63/63/63
f 64/64/64 61/61/61 63/63/63
f 65/65/65 64/64/64 63/63/63
f 66/66/66 65/65/65 63/63/63
f 67/67/67 65/65/65 66/66/66
f 68/68/68 67/67/67 66/66/66
f 69/69/69 67/67/67 68/68/68
f 70/70/70 69/69/69 68/68/68
f 71/71/71 69/69/69 70/70/70
f 72/72/72 71/71/71 70/70/70
f 73/73/73 71/71/71 72/72/72
f 74/74/74 73/73/73 72/72/72
f 77/77/77 76/76/76 75/75/75
f 76/76/76 78/78/78 75/75/75
f 76/76/76 79/79/79 78/78/78
f 79/79/79 80/80/80 78/78/78
f 79/79/79 81/81/81 80/80/80
f 81/81/81 82/82/82 80/80/80
f 85/85/85 84/84/84 83/83/83
f 84/84/84 86/86/86 83/83/83
f 84/84/84 87/87/87 86/86/86
f 87/87/87 88/88/88 86/86/86
f 87/87/87 89/89/89 88/88/88
f 89/89/89 90/90/90 88/88/88
f 89/89/89 91/91/91 90/90/90
f 91/91/91 92/92/92 90/90/90
f 91/91/91 93/93/93 92/92/92
f 93/93/93 94/94/94 92/92/92
f 93/93/93 95/95/95 94/94/94
f 95/95/95 96/96/96 94/94/94
f 99/99/99 98/98/98 97/97/97
f 100/100/100 99/99/99 97/97/97
f 101/101/101 99/99/99 100/100/100
f 102/102/102 101/101/101 100/100/100
f 101/101/101 102/102/102 103/103/103
f 104/104/104 101/101/101 103/103/103
f 105/105/105 104/104/104 103/103/103
f 106/106/106 105/105/105 103/103/103
f 107/107/107 105/105/105 106/106/106
f 108/108/108 107/107/107 106/106/106
f 109/109/109 107/107/107 108/108/108
f 110/110/110 109/109/109 108/108/108
f 111/111/111 109/109/109 110/110/110
f 112/112/112 111/111/111 110/110/110
f 113/113/113 111/111/111 112/112/112
f 114/114/114 113/113/113 112/112/112
f 117/117/117 116/116/116 115/115/115
f 116/116/116 118/118/118 115/115/115
f 116/116/116 119/119/119 118/118/118
f 119/119/119 120/120/120 118/118/118
f 119/119/119 121/121/121 120/120/120
f 121/121/121 122/122/122 120/120/120
f 125/125/125 124/124/124 123/123/123
f 126/126/126 125/125/125 123/123/123
f 127/127/127 125/125/125 126/126/126
f 128/128/128 127/127/127 126/126/126
f 127/127/127 128/128/128 129/129/129
f 130/130/130 127/127/127 129/129/129
f 131/131/131 130/130/130 129/129/129
f 132/132/132 131/131/131 129/129/129
f 133/133/133 131/131/131 132/132/132
f 134/134/134 133/133/133 132/132/132
f 135/135/135 133/133/133 134/134/134
f 136/136/136 135/135/135 134/134/134
f 137/137/137 135/135/135 136/136/136
f 138/138/138 137/137/137 136/136/136
f 139/139/139 137/137/137 138/138/138
f 140/140/140 139/139/139 138/138/138
f 143/143/143 142/142/142 141/141/141
f 142/142/142 144/144/144 141/141/141
f 142/142/142 145/145/145 144/144/144
f 145/145/145 146/146/146 144/144/144
f 145/145/145 147/147/147 146/146/146
f 147/147/147 148/148/148 146/146/146
f 151/151/151 150/150/150 149/149/149
f 150/150/150 152/152/152 149/149/149
f 150/150/150 153/153/153 152/152/152
f 153/153/153 154/154/154 152/152/152
f 153/153/153 155/155/155 154/154/154
f 155/155/155 156/156/156 154/154/154
f 155/155/155 157/157/157 156/156/156
f 157/157/157 158/158/158 156/156/156
f 157/157/157 159/159/159 158/158/158
f 159/159/159 160/160/160 158/158/158
f 159/159/159 161/161/161 160/160/160
f 161/161/161 162/162/162 160/160/160
f 165/165/165 164/164/164 163/163/163
f 166/166/166 165/165/165 163/163/163
f 167/167/167 165/165/165 166/166/166
f 168/168/168 167/167/167 166/166/166
f 167/167/167 168/168/168 169/169/169
f 170/170/170 167/167/167 169/169/169
f 171/171/171 170/170/170 169/169/169
f 172/172/172 171/171/171 169/169/169
f 173/173/173 171/171/171 172/172/172
f 174/174/174 173/173/173 172/172/172
f 175/175/175 173/173/173 174/174/174
f 176/176/176 175/175/175 174/174/174
f 177/177/177 175/175/175 176/176/176
f 178/178/178 177/177/177 176/176/176
f 179/179/179 177/177/177 178/178/178
f 180/180/180 179/179/179 178/178/178
f 183/183/183 182/182/182 181/181/181
f 182/182/182 184/184/184 181/181/181
f 182/182/182 185/185/185 184/184/184
f 185/185/185 186/186/186 184/184/184
f 185/185/185 187/187/187 186/186/186
f 187/187/187 188/188/188 186/186/186
