g MetroArea_Bridge_SteelFrame_06
v 0.53271973 0.08224486 -0.5327209
v 0.53271973 0.08224481 0.5327209
v -0.53271973 0.08224481 0.5327209
v -0.53271973 0.08224486 -0.5327209
v 0.53271973 0.08224481 0.5327209
v 0.53271973 8.5409437E-07 0.5327209
v -0.53271973 8.5409437E-07 0.5327209
v -0.53271973 0.08224481 0.5327209
v -0.53271973 0.08224481 0.5327209
v -0.53271973 8.5409437E-07 0.5327209
v -0.53271973 9.0066635E-07 -0.5327209
v -0.53271973 0.08224486 -0.5327209
v -0.53271973 0.08224486 -0.5327209
v -0.53271973 9.0066635E-07 -0.5327209
v 0.53271973 9.0066635E-07 -0.53271973
v 0.53271973 0.08224486 -0.5327209
v 0.53271973 0.08224486 -0.5327209
v 0.53271973 9.0066635E-07 -0.53271973
v 0.53271973 8.5409437E-07 0.5327209
v 0.53271973 0.08224481 0.5327209
v 0.2679614 0.45063975 0.26795775
v 0.2679614 0.08224478 0.26795775
v -0.26795897 0.08224478 0.26795897
v -0.26795897 0.45063975 0.26795897
v -0.26795897 0.45063975 0.26795897
v -0.26795897 0.08224478 0.26795897
v -0.26795897 0.08224481 -0.26795775
v -0.26795897 0.45063978 -0.26795775
v -0.26795897 0.45063978 -0.26795775
v -0.26795897 0.08224481 -0.26795775
v 0.2679614 0.08224481 -0.26795897
v 0.2679614 0.45063978 -0.26795897
v 0.2679614 0.45063978 -0.26795897
v 0.2679614 0.08224481 -0.26795897
v 0.2679614 0.08224478 0.26795775
v 0.2679614 0.45063975 0.26795775
v 0.22125 0.45063975 0.22124633
v -0.22124755 0.45063975 0.22124633
v -0.22124755 0.45063978 -0.22124633
v 0.22125 0.45063978 -0.22124633
v 0.22125 0.45063975 0.22124633
v 0.2679614 0.45063975 0.26795775
v -0.26795897 0.45063975 0.26795897
v -0.22124755 0.45063975 0.22124633
v 0.22125 0.45063978 -0.22124633
v -0.26795897 0.45063978 -0.26795775
v 0.2679614 0.45063978 -0.26795897
v -0.22124755 0.45063978 -0.22124633
vt 0.6772461 0.4326172
vt 0.8066406 0.4326172
vt 0.8066406 0.30322266
vt 0.6772461 0.30322266
vt 0.62060547 0.4333496
vt 0.6303711 0.4333496
vt 0.6303711 0.30395508
vt 0.62060547 0.30395508
vt 0.6386719 0.43310547
vt 0.6484375 0.43310547
vt 0.6484375 0.30371094
vt 0.6386719 0.30371094
vt 0.6582031 0.43286133
vt 0.66796875 0.43286133
vt 0.66796875 0.3034668
vt 0.6582031 0.3034668
vt 0.62060547 0.4399414
vt 0.62060547 0.44995117
vt 0.7597656 0.44995117
vt 0.7597656 0.4399414
vt 0.78466797 0.24157715
vt 0.78466797 0.19665527
vt 0.71972656 0.19665527
vt 0.71972656 0.24157715
vt 0.78466797 0.29492188
vt 0.78466797 0.24987793
vt 0.7192383 0.24987793
vt 0.7192383 0.29492188
vt 0.78466797 0.18798828
vt 0.78466797 0.14318848
vt 0.71972656 0.14318848
vt 0.71972656 0.18798828
vt 0.78466797 0.13439941
vt 0.78466797 0.08947754
vt 0.7192383 0.08947754
vt 0.7192383 0.13439941
vt 0.71533203 0.3947754
vt 0.76904297 0.3947754
vt 0.76904297 0.3408203
vt 0.71533203 0.3408203
vt 0.72558594 0.0758667
vt 0.71972656 0.08154297
vt 0.78515625 0.08154297
vt 0.7792969 0.0758667
vt 0.72558594 0.021957397
vt 0.78515625 0.01626587
vt 0.71972656 0.01626587
vt 0.7792969 0.021957397
vn -0 1 0
vn -0 1 0
vn -0 1 0
vn -0 1 0
vn -0 0 1
vn -0 0 1
vn -0 0 1
vn -0 0 1
vn -1 0 0
vn -1 0 0
vn -1 0 0
vn -1 0 0
vn -0 0 -1
vn -0 0 -1
vn -0 -1.4066696E-05 -1
vn -0 0 -1
vn 1 0 0
vn 1 0 0
vn 1 0 0
vn 1 0 0
vn -0 0 1
vn -0 0 1
vn -0 0 1
vn -0 0 1
vn -1 0 0
vn -1 0 0
vn -1 0 0
vn -1 0 0
vn -0 0 -1
vn -0 0 -1
vn -0 0 -1
vn -0 0 -1
vn 1 0 0
vn 1 0 0
vn 1 0 0
vn 1 0 0
vn -0 1 0
vn -0 1 0
vn -0 1 0
vn -0 1 0
vn -0 1 0
vn -0 1 0
vn -0 1 0
vn -0 1 0
vn -0 1 0
vn -0 1 0
vn -0 1 0
vn -0 1 0
g MetroArea_Bridge_SteelFrame_06_0
f 3/3/3 2/2/2 1/1/1
f 4/4/4 3/3/3 1/1/1
f 7/7/7 6/6/6 5/5/5
f 8/8/8 7/7/7 5/5/5
f 11/11/11 10/10/10 9/9/9
f 12/12/12 11/11/11 9/9/9
f 15/15/15 14/14/14 13/13/13
f 16/16/16 15/15/15 13/13/13
f 19/19/19 18/18/18 17/17/17
f 20/20/20 19/19/19 17/17/17
f 23/23/23 22/22/22 21/21/21
f 24/24/24 23/23/23 21/21/21
f 27/27/27 26/26/26 25/25/25
f 28/28/28 27/27/27 25/25/25
f 31/31/31 30/30/30 29/29/29
f 32/32/32 31/31/31 29/29/29
f 35/35/35 34/34/34 33/33/33
f 36/36/36 35/35/35 33/33/33
f 39/39/39 38/38/38 37/37/37
f 40/40/40 39/39/39 37/37/37
f 43/43/43 42/42/42 41/41/41
f 44/44/44 43/43/43 41/41/41
f 41/41/41 42/42/42 45/45/45
f 46/46/46 43/43/43 44/44/44
f 42/42/42 47/47/47 45/45/45
f 48/48/48 46/46/46 44/44/44
f 45/45/45 47/47/47 48/48/48
f 47/47/47 46/46/46 48/48/48
