g MetroArea_Prop_Billboard_22
v -1.4844824 0.60748714 0.055664062
v 1.4844787 0.607489 0.055663757
v 1.4844812 0.022653809 0.055661924
v -1.4844787 0.022651672 0.055664062
v -1.5071337 -6.1035155E-07 0.055663757
v -1.5071325 0.6301425 0.055663146
v -1.4844824 0.60748714 0.055664062
v -1.4844787 0.022651672 0.055664062
v -1.4844799 0.022652892 -0.048475645
v -1.4844812 0.6074884 -0.048476867
v -1.5071325 0.6301431 -0.048476562
v -1.5071337 3.0517577E-07 -0.048476256
v 1.5071337 0.6301425 0.05566284
v -1.5071325 0.6301425 0.055663146
v -1.5071325 0.6301431 -0.048476562
v 1.5071337 0.6301416 -0.048476867
v -1.5071325 0.6301425 0.055663146
v 1.5071337 0.6301425 0.05566284
v 1.4844787 0.607489 0.055663757
v -1.4844824 0.60748714 0.055664062
v -1.5071325 0.6301431 -0.048476562
v -1.4844812 0.6074884 -0.048476867
v 1.4844775 0.6074887 -0.04847748
v 1.5071337 0.6301416 -0.048476867
v 1.5071337 0 0.05566284
v 1.5071337 0.6301425 0.05566284
v 1.5071337 0.6301416 -0.048476867
v 1.5071325 -3.0517577E-07 -0.048477173
v -1.5071337 -6.1035155E-07 0.055663757
v 1.5071337 0 0.05566284
v 1.5071325 -3.0517577E-07 -0.048477173
v -1.5071337 3.0517577E-07 -0.048476256
v 1.5071337 0.6301425 0.05566284
v 1.5071337 0 0.05566284
v 1.4844812 0.022653809 0.055661924
v 1.4844787 0.607489 0.055663757
v 1.4844775 0.6074887 -0.04847748
v 1.4844775 0.022653809 -0.048477173
v 1.5071325 -3.0517577E-07 -0.048477173
v 1.5071337 0.6301416 -0.048476867
v -1.5071325 0.6301425 0.055663146
v -1.5071337 -6.1035155E-07 0.055663757
v -1.5071337 3.0517577E-07 -0.048476256
v -1.5071325 0.6301431 -0.048476562
v 1.5071337 0 0.05566284
v -1.5071337 -6.1035155E-07 0.055663757
v -1.4844787 0.022651672 0.055664062
v 1.4844812 0.022653809 0.055661924
v 1.5071325 -3.0517577E-07 -0.048477173
v 1.4844775 0.022653809 -0.048477173
v -1.4844799 0.022652892 -0.048475645
v -1.5071337 3.0517577E-07 -0.048476256
v 1.4844775 0.6074887 -0.04847748
v -1.4844812 0.6074884 -0.048476867
v -1.4844799 0.022652892 -0.048475645
v 1.4844775 0.022653809 -0.048477173
v -1.066145 0.64467496 0.047760922
v -1.0973755 0.6172958 0.03482544
v -1.0973755 0.6446777 0.034825135
v -1.066145 0.61730313 0.0477594
v -1.0349145 0.6446777 0.034825135
v -1.0349145 0.6172958 0.03482544
v -1.0219848 0.6173047 0.0035934448
v -1.0219848 0.64467496 0.003592529
v -1.0349145 0.6446765 -0.02763916
v -1.0349145 0.6173056 -0.027639465
v -1.066145 0.64467865 -0.04057617
v -1.066145 0.6172995 -0.04057495
v -1.0973755 0.6446765 -0.02763916
v -1.0973755 0.6173056 -0.027639465
v -1.110315 0.64467496 0.003592529
v -1.110315 0.6173047 0.0035934448
v -1.0973755 0.6446777 0.034825135
v -1.0973755 0.6172958 0.03482544
v -1.0349145 0.6446765 -0.02763916
v -1.0219848 0.64467496 0.003592529
v -1.0349145 0.6446777 0.034825135
v -1.066145 0.64467496 0.047760922
v -1.066145 0.64467865 -0.04057617
v -1.0973755 0.6446777 0.034825135
v -1.0973755 0.6446765 -0.02763916
v -1.110315 0.64467496 0.003592529
v -1.0404419 1.4621518 0.0035946656
v -1.0532935 1.4621493 -0.018662414
v -1.0532935 0.637092 -0.018662414
v -1.0404419 0.637092 0.0035937498
v -1.0532935 1.4621483 0.025855102
v -1.0532935 0.63709074 0.02585327
v -1.0789965 1.4621483 0.025855102
v -1.0789965 0.63709074 0.02585327
v -1.0918481 1.4621518 0.0035946656
v -1.0918481 0.637092 0.0035937498
v -1.0789965 1.4621493 -0.018662414
v -1.0789965 0.637092 -0.018662414
v -1.0532935 1.4621493 -0.018662414
v -1.0532935 0.637092 -0.018662414
v -1.0661353 1.441792 0.04776489
v -1.0349047 1.4691721 0.034827575
v -1.0349047 1.4417893 0.03482849
v -1.0661353 1.4691671 0.047765195
v -1.0973657 1.4417893 0.03482849
v -1.0973657 1.4691721 0.034827575
v -1.1102954 1.4691663 0.0035928343
v -1.1102954 1.4417953 0.0035934448
v -1.0973657 1.4417993 -0.027637023
v -1.0973657 1.4691674 -0.027636107
v -1.0661353 1.4417931 -0.04057037
v -1.0661353 1.4691647 -0.04057007
v -1.0349047 1.4417993 -0.027637023
v -1.0349047 1.4691674 -0.027636107
v -1.0219653 1.4417953 0.0035934448
v -1.0219653 1.4691663 0.0035928343
v -1.0349047 1.4417893 0.03482849
v -1.0349047 1.4691721 0.034827575
v -1.0973657 1.4417993 -0.027637023
v -1.1102954 1.4417953 0.0035934448
v -1.0973657 1.4417893 0.03482849
v -1.0661353 1.441792 0.04776489
v -1.0661353 1.4417931 -0.04057037
v -1.0349047 1.4417893 0.03482849
v -1.0349047 1.4417993 -0.027637023
v -1.0219653 1.4417953 0.0035934448
v 1.0659741 0.64467496 0.047760922
v 1.0347437 0.6172958 0.03482544
v 1.0347437 0.6446777 0.034825135
v 1.0659741 0.61730313 0.0477594
v 1.0972046 0.6446777 0.034825135
v 1.0972046 0.6172958 0.03482544
v 1.1101342 0.6173047 0.0035934448
v 1.1101342 0.64467496 0.003592529
v 1.0972046 0.6446765 -0.02763916
v 1.0972046 0.6173056 -0.027639465
v 1.0659741 0.64467865 -0.04057617
v 1.0659741 0.6172995 -0.04057495
v 1.0347437 0.6446765 -0.02763916
v 1.0347437 0.6173056 -0.027639465
v 1.0218042 0.64467496 0.003592529
v 1.0218042 0.6173047 0.0035934448
v 1.0347437 0.6446777 0.034825135
v 1.0347437 0.6172958 0.03482544
v 1.0972046 0.6446765 -0.02763916
v 1.1101342 0.64467496 0.003592529
v 1.0972046 0.6446777 0.034825135
v 1.0659741 0.64467496 0.047760922
v 1.0659741 0.64467865 -0.04057617
v 1.0347437 0.6446777 0.034825135
v 1.0347437 0.6446765 -0.02763916
v 1.0218042 0.64467496 0.003592529
v 1.0916772 1.4621518 0.0035946656
v 1.0788257 1.4621493 -0.018662414
v 1.0788257 0.637092 -0.018662414
v 1.0916772 0.637092 0.0035937498
v 1.0788257 1.4621483 0.025855102
v 1.0788257 0.63709074 0.02585327
v 1.0531225 1.4621483 0.025855102
v 1.0531225 0.63709074 0.02585327
v 1.0402709 1.4621518 0.0035946656
v 1.0402709 0.637092 0.0035937498
v 1.0531225 1.4621493 -0.018662414
v 1.0531225 0.637092 -0.018662414
v 1.0788257 1.4621493 -0.018662414
v 1.0788257 0.637092 -0.018662414
v 1.0659839 1.441792 0.04776489
v 1.0972143 1.4691721 0.034827575
v 1.0972143 1.4417893 0.03482849
v 1.0659839 1.4691671 0.047765195
v 1.0347534 1.4417893 0.03482849
v 1.0347534 1.4691721 0.034827575
v 1.0218238 1.4691663 0.0035928343
v 1.0218238 1.4417953 0.0035934448
v 1.0347534 1.4417993 -0.027637023
v 1.0347534 1.4691674 -0.027636107
v 1.0659839 1.4417931 -0.04057037
v 1.0659839 1.4691647 -0.04057007
v 1.0972143 1.4417993 -0.027637023
v 1.0972143 1.4691674 -0.027636107
v 1.1101538 1.4417953 0.0035934448
v 1.1101538 1.4691663 0.0035928343
v 1.0972143 1.4417893 0.03482849
v 1.0972143 1.4691721 0.034827575
v 1.0347534 1.4417993 -0.027637023
v 1.0218238 1.4417953 0.0035934448
v 1.0347534 1.4417893 0.03482849
v 1.0659839 1.441792 0.04776489
v 1.0659839 1.4417931 -0.04057037
v 1.0972143 1.4417893 0.03482849
v 1.0972143 1.4417993 -0.027637023
v 1.1101538 1.4417953 0.0035934448
vt 0.9946289 0.75878906
vt 0.9946289 0.13208008
vt 0.87109375 0.13208008
vt 0.87109375 0.75878906
vt 0.10333252 0.9667969
vt 0.25317383 0.9667969
vt 0.24780273 0.9614258
vt 0.10870361 0.9614258
vt 0.10870361 0.9667969
vt 0.24780273 0.9667969
vt 0.25317383 0.9614258
vt 0.10333252 0.9614258
vt 0.43823242 0.97509766
vt -0.27905273 0.97509766
vt -0.27905273 0.99560547
vt 0.43823242 0.99560547
vt -0.27905273 0.9667969
vt 0.43823242 0.9667969
vt 0.4326172 0.9614258
vt -0.27368164 0.9614258
vt -0.27905273 0.9614258
vt -0.27368164 0.9667969
vt 0.4326172 0.9667969
vt 0.43823242 0.9614258
vt 0.984375 0.97509766
vt 0.83447266 0.97509766
vt 0.83447266 0.99560547
vt 0.984375 0.99560547
vt 0.8334961 0.97509766
vt 0.11651611 0.97509766
vt 0.11651611 0.99560547
vt 0.8334961 0.99560547
vt 0.83447266 0.9667969
vt 0.984375 0.9667969
vt 0.9790039 0.9614258
vt 0.83984375 0.9614258
vt 0.83984375 0.9667969
vt 0.9790039 0.9667969
vt 0.984375 0.9614258
vt 0.83447266 0.9614258
vt 0.25317383 0.97509766
vt 0.10333252 0.97509766
vt 0.10333252 0.99560547
vt 0.25317383 0.99560547
vt 0.11651611 0.9667969
vt 0.8334961 0.9667969
vt 0.828125 0.9614258
vt 0.12188721 0.9614258
vt 0.11651611 0.9614258
vt 0.12188721 0.9667969
vt 0.828125 0.9667969
vt 0.8334961 0.9614258
vt 0.9946289 0.75878906
vt 0.9946289 0.13208008
vt 0.87109375 0.13208008
vt 0.87109375 0.75878906
vt 0.2602539 0.33666992
vt 0.25439453 0.3317871
vt 0.25439453 0.33666992
vt 0.2602539 0.3317871
vt 0.26635742 0.33666992
vt 0.26635742 0.3317871
vt 0.2722168 0.3317871
vt 0.2722168 0.33666992
vt 0.27807617 0.33666992
vt 0.27807617 0.3317871
vt 0.2841797 0.33666992
vt 0.2841797 0.3317871
vt 0.29003906 0.33666992
vt 0.29003906 0.3317871
vt 0.29614258 0.33666992
vt 0.29614258 0.3317871
vt 0.30200195 0.33666992
vt 0.30200195 0.3317871
vt 0.26733398 0.31982422
vt 0.2709961 0.31591797
vt 0.2709961 0.31054688
vt 0.26708984 0.30664062
vt 0.2619629 0.31982422
vt 0.26171875 0.30664062
vt 0.25805664 0.31591797
vt 0.25805664 0.31054688
vt 0.09100342 0.33154297
vt 0.09100342 0.3359375
vt 0.24353027 0.3359375
vt 0.24353027 0.33154297
vt 0.09100342 0.3269043
vt 0.24353027 0.3269043
vt 0.09100342 0.32226562
vt 0.24353027 0.32226562
vt 0.09100342 0.3178711
vt 0.24353027 0.3178711
vt 0.09100342 0.31323242
vt 0.24353027 0.31323242
vt 0.09100342 0.3088379
vt 0.24353027 0.3088379
vt 0.2602539 0.33666992
vt 0.25439453 0.3317871
vt 0.25439453 0.33666992
vt 0.2602539 0.3317871
vt 0.26635742 0.33666992
vt 0.26635742 0.3317871
vt 0.2722168 0.3317871
vt 0.2722168 0.33666992
vt 0.27807617 0.33666992
vt 0.27807617 0.3317871
vt 0.2841797 0.33666992
vt 0.2841797 0.3317871
vt 0.29003906 0.33666992
vt 0.29003906 0.3317871
vt 0.29614258 0.33666992
vt 0.29614258 0.3317871
vt 0.30200195 0.33666992
vt 0.30200195 0.3317871
vt 0.26733398 0.31982422
vt 0.2709961 0.31591797
vt 0.2709961 0.31054688
vt 0.26708984 0.30664062
vt 0.2619629 0.31982422
vt 0.26171875 0.30664062
vt 0.25805664 0.31591797
vt 0.25805664 0.31054688
vt 0.2602539 0.33666992
vt 0.25439453 0.3317871
vt 0.25439453 0.33666992
vt 0.2602539 0.3317871
vt 0.26635742 0.33666992
vt 0.26635742 0.3317871
vt 0.2722168 0.3317871
vt 0.2722168 0.33666992
vt 0.27807617 0.33666992
vt 0.27807617 0.3317871
vt 0.2841797 0.33666992
vt 0.2841797 0.3317871
vt 0.29003906 0.33666992
vt 0.29003906 0.3317871
vt 0.29614258 0.33666992
vt 0.29614258 0.3317871
vt 0.30200195 0.33666992
vt 0.30200195 0.3317871
vt 0.26733398 0.31982422
vt 0.2709961 0.31591797
vt 0.2709961 0.31054688
vt 0.26708984 0.30664062
vt 0.2619629 0.31982422
vt 0.26171875 0.30664062
vt 0.25805664 0.31591797
vt 0.25805664 0.31054688
vt 0.09100342 0.33154297
vt 0.09100342 0.3359375
vt 0.24353027 0.3359375
vt 0.24353027 0.33154297
vt 0.09100342 0.3269043
vt 0.24353027 0.3269043
vt 0.09100342 0.32226562
vt 0.24353027 0.32226562
vt 0.09100342 0.3178711
vt 0.24353027 0.3178711
vt 0.09100342 0.31323242
vt 0.24353027 0.31323242
vt 0.09100342 0.3088379
vt 0.24353027 0.3088379
vt 0.2602539 0.33666992
vt 0.25439453 0.3317871
vt 0.25439453 0.33666992
vt 0.2602539 0.3317871
vt 0.26635742 0.33666992
vt 0.26635742 0.3317871
vt 0.2722168 0.3317871
vt 0.2722168 0.33666992
vt 0.27807617 0.33666992
vt 0.27807617 0.3317871
vt 0.2841797 0.33666992
vt 0.2841797 0.3317871
vt 0.29003906 0.33666992
vt 0.29003906 0.3317871
vt 0.29614258 0.33666992
vt 0.29614258 0.3317871
vt 0.30200195 0.33666992
vt 0.30200195 0.3317871
vt 0.26733398 0.31982422
vt 0.2709961 0.31591797
vt 0.2709961 0.31054688
vt 0.26708984 0.30664062
vt 0.2619629 0.31982422
vt 0.26171875 0.30664062
vt 0.25805664 0.31591797
vt 0.25805664 0.31054688
vn -0 0.0030517578 1
vn -0 0.0030517578 1
vn -0 0 1
vn -0 -0.0030517578 1
vn -0 0 1
vn -0 0.0030517578 1
vn -0 0.0030517578 1
vn -0 -0.0030517578 1
vn -0 0 -1
vn -0 -0.0030517578 -1
vn -0 0 -1
vn -0 0 -1
vn -0 1 0
vn -0 1 -0.0030517578
vn -0 1 0
vn -0 1 0
vn -0 0.0030517578 1
vn -0 0.0030517578 1
vn -0 0.0030517578 1
vn -0 0.0030517578 1
vn -0 0 -1
vn -0 -0.0030517578 -1
vn -0 0 -1
vn -0 0 -1
vn 1 0 0
vn 1 0 0
vn 1 0 0
vn 1 0 0
vn -0 -1 0
vn -0 -1 0
vn -0 -1 0
vn -0 -1 -0.0030517578
vn -0 0.0030517578 1
vn -0 -0.0030517578 1
vn -0 0 1
vn -0 0.0030517578 1
vn -0 0 -1
vn -0 0 -1
vn -0 0 -1
vn -0 0 -1
vn -1 0 0
vn -1 0 0
vn -1 0 0
vn -1 0 0
vn -0 -0.0030517578 1
vn -0 0 1
vn -0 -0.0030517578 1
vn -0 0 1
vn -0 0 -1
vn -0 0 -1
vn -0 0 -1
vn -0 0 -1
vn -0 0 -1
vn -0 -0.0030517578 -1
vn -0 0 -1
vn -0 0 -1
vn -0 0 1
vn -0.70703125 0 0.70703125
vn -0.70703125 0 0.70703125
vn -0 0 1
vn 0.70703125 0 0.70703125
vn 0.70703125 0 0.70703125
vn 1 0 0
vn 1 0 0
vn 0.70703125 -0.0030517578 -0.70703125
vn 0.70703125 0 -0.70703125
vn -0 -0.0030517578 -1
vn -0 0.0030517578 -1
vn -0.70703125 -0.0030517578 -0.70703125
vn -0.70703125 0 -0.70703125
vn -1 0 0
vn -1 0 0
vn -0.70703125 0 0.70703125
vn -0.70703125 0 0.70703125
vn -0 1 0
vn -0 1 0
vn -0 1 0
vn -0 1 -0.0030517578
vn -0 1 0
vn -0 1 0
vn -0 1 0
vn -0 1 0
vn 1 0 0
vn 0.50146484 0.0015258789 -0.8652344
vn 0.49975586 0 -0.86621094
vn 1 0 0
vn 0.50146484 -0.0015258789 0.8652344
vn 0.50146484 0.0030517578 0.8652344
vn -0.50146484 -0.0015258789 0.8652344
vn -0.50146484 0.0030517578 0.8652344
vn -1 0 0
vn -1 0 0
vn -0.50146484 0.0015258789 -0.8652344
vn -0.49975586 0 -0.86621094
vn 0.50146484 0.0015258789 -0.8652344
vn 0.49975586 0 -0.86621094
vn -0 0 1
vn 0.7104492 0.0015258789 0.70410156
vn 0.70703125 0 0.70703125
vn -0 0.0030517578 1
vn -0.70703125 0 0.70703125
vn -0.7104492 0.0015258789 0.70410156
vn -1 0 0
vn -1 0 0
vn -0.70703125 -0.0030517578 -0.70703125
vn -0.7084961 0 -0.7055664
vn -0 -0.0015258789 -1
vn -0 0 -1
vn 0.70703125 -0.0030517578 -0.70703125
vn 0.7084961 0 -0.7055664
vn 1 0 0
vn 1 0 0
vn 0.70703125 0 0.70703125
vn 0.7104492 0.0015258789 0.70410156
vn -0 -1 0
vn -0 -1 -0.003047943
vn -0 -1 0
vn -0 -1 0.0030517578
vn -0 -1 0.0030517578
vn -0 -1 0
vn -0 -1 -0.0030517578
vn -0 -1 -0.003047943
vn -0 0 1
vn -0.70703125 0 0.70703125
vn -0.70703125 0 0.70703125
vn -0 0 1
vn 0.70703125 0 0.70703125
vn 0.70703125 0 0.70703125
vn 1 0 0
vn 1 0 0
vn 0.70703125 -0.0030517578 -0.70703125
vn 0.70703125 0 -0.70703125
vn -0 -0.0030517578 -1
vn -0 0.0030517578 -1
vn -0.70703125 -0.0030517578 -0.70703125
vn -0.70703125 0 -0.70703125
vn -1 0 0
vn -1 0 0
vn -0.70703125 0 0.70703125
vn -0.70703125 0 0.70703125
vn -0 1 0
vn -0 1 0
vn -0 1 0
vn -0 1 -0.0030517578
vn -0 1 0
vn -0 1 0
vn -0 1 0
vn -0 1 0
vn 1 0 0
vn 0.50146484 0.0015258789 -0.8652344
vn 0.49975586 0 -0.86621094
vn 1 0 0
vn 0.50146484 -0.0015258789 0.8652344
vn 0.50146484 0.0030517578 0.8652344
vn -0.50146484 -0.0015258789 0.8652344
vn -0.50146484 0.0030517578 0.8652344
vn -1 0 0
vn -1 0 0
vn -0.50146484 0.0015258789 -0.8652344
vn -0.49975586 0 -0.86621094
vn 0.50146484 0.0015258789 -0.8652344
vn 0.49975586 0 -0.86621094
vn -0 0 1
vn 0.7104492 0.0015258789 0.70410156
vn 0.70703125 0 0.70703125
vn -0 0.0030517578 1
vn -0.70703125 0 0.70703125
vn -0.7104492 0.0015258789 0.70410156
vn -1 0 0
vn -1 0 0
vn -0.70703125 -0.0030517578 -0.70703125
vn -0.7084961 0 -0.7055664
vn -0 -0.0015258789 -1
vn -0 0 -1
vn 0.70703125 -0.0030517578 -0.70703125
vn 0.7084961 0 -0.7055664
vn 1 0 0
vn 1 0 0
vn 0.70703125 0 0.70703125
vn 0.7104492 0.0015258789 0.70410156
vn -0 -1 0
vn -0 -1 -0.003047943
vn -0 -1 0
vn -0 -1 0.0030517578
vn -0 -1 0.0030517578
vn -0 -1 0
vn -0 -1 -0.0030517578
vn -0 -1 -0.003047943
g MetroArea_Prop_Billboard_22_0
f 3/3/3 2/2/2 1/1/1
f 4/4/4 3/3/3 1/1/1
f 7/7/7 6/6/6 5/5/5
f 8/8/8 7/7/7 5/5/5
f 11/11/11 10/10/10 9/9/9
f 12/12/12 11/11/11 9/9/9
f 15/15/15 14/14/14 13/13/13
f 16/16/16 15/15/15 13/13/13
f 19/19/19 18/18/18 17/17/17
f 20/20/20 19/19/19 17/17/17
f 23/23/23 22/22/22 21/21/21
f 24/24/24 23/23/23 21/21/21
f 27/27/27 26/26/26 25/25/25
f 28/28/28 27/27/27 25/25/25
f 31/31/31 30/30/30 29/29/29
f 32/32/32 31/31/31 29/29/29
f 35/35/35 34/34/34 33/33/33
f 36/36/36 35/35/35 33/33/33
f 39/39/39 38/38/38 37/37/37
f 40/40/40 39/39/39 37/37/37
f 43/43/43 42/42/42 41/41/41
f 44/44/44 43/43/43 41/41/41
f 47/47/47 46/46/46 45/45/45
f 48/48/48 47/47/47 45/45/45
f 51/51/51 50/50/50 49/49/49
f 52/52/52 51/51/51 49/49/49
f 55/55/55 54/54/54 53/53/53
f 56/56/56 55/55/55 53/53/53
f 59/59/59 58/58/58 57/57/57
f 58/58/58 60/60/60 57/57/57
f 57/57/57 60/60/60 61/61/61
f 60/60/60 62/62/62 61/61/61
f 62/62/62 63/63/63 61/61/61
f 63/63/63 64/64/64 61/61/61
f 64/64/64 63/63/63 65/65/65
f 63/63/63 66/66/66 65/65/65
f 65/65/65 66/66/66 67/67/67
f 66/66/66 68/68/68 67/67/67
f 67/67/67 68/68/68 69/69/69
f 68/68/68 70/70/70 69/69/69
f 69/69/69 70/70/70 71/71/71
f 70/70/70 72/72/72 71/71/71
f 71/71/71 72/72/72 73/73/73
f 72/72/72 74/74/74 73/73/73
f 77/77/77 76/76/76 75/75/75
f 78/78/78 77/77/77 75/75/75
f 78/78/78 75/75/75 79/79/79
f 80/80/80 78/78/78 79/79/79
f 80/80/80 79/79/79 81/81/81
f 82/82/82 80/80/80 81/81/81
f 85/85/85 84/84/84 83/83/83
f 86/86/86 85/85/85 83/83/83
f 86/86/86 83/83/83 87/87/87
f 88/88/88 86/86/86 87/87/87
f 88/88/88 87/87/87 89/89/89
f 90/90/90 88/88/88 89/89/89
f 90/90/90 89/89/89 91/91/91
f 92/92/92 90/90/90 91/91/91
f 92/92/92 91/91/91 93/93/93
f 94/94/94 92/92/92 93/93/93
f 94/94/94 93/93/93 95/95/95
f 96/96/96 94/94/94 95/95/95
f 99/99/99 98/98/98 97/97/97
f 98/98/98 100/100/100 97/97/97
f 97/97/97 100/100/100 101/101/101
f 100/100/100 102/102/102 101/101/101
f 102/102/102 103/103/103 101/101/101
f 103/103/103 104/104/104 101/101/101
f 104/104/104 103/103/103 105/105/105
f 103/103/103 106/106/106 105/105/105
f 105/105/105 106/106/106 107/107/107
f 106/106/106 108/108/108 107/107/107
f 107/107/107 108/108/108 109/109/109
f 108/108/108 110/110/110 109/109/109
f 109/109/109 110/110/110 111/111/111
f 110/110/110 112/112/112 111/111/111
f 111/111/111 112/112/112 113/113/113
f 112/112/112 114/114/114 113/113/113
f 117/117/117 116/116/116 115/115/115
f 118/118/118 117/117/117 115/115/115
f 118/118/118 115/115/115 119/119/119
f 120/120/120 118/118/118 119/119/119
f 120/120/120 119/119/119 121/121/121
f 122/122/122 120/120/120 121/121/121
f 125/125/125 124/124/124 123/123/123
f 124/124/124 126/126/126 123/123/123
f 123/123/123 126/126/126 127/127/127
f 126/126/126 128/128/128 127/127/127
f 128/128/128 129/129/129 127/127/127
f 129/129/129 130/130/130 127/127/127
f 130/130/130 129/129/129 131/131/131
f 129/129/129 132/132/132 131/131/131
f 131/131/131 132/132/132 133/133/133
f 132/132/132 134/134/134 133/133/133
f 133/133/133 134/134/134 135/135/135
f 134/134/134 136/136/136 135/135/135
f 135/135/135 136/136/136 137/137/137
f 136/136/136 138/138/138 137/137/137
f 137/137/137 138/138/138 139/139/139
f 138/138/138 140/140/140 139/139/139
f 143/143/143 142/142/142 141/141/141
f 144/144/144 143/143/143 141/141/141
f 144/144/144 141/141/141 145/145/145
f 146/146/146 144/144/144 145/145/145
f 146/146/146 145/145/145 147/147/147
f 148/148/148 146/146/146 147/147/147
f 151/151/151 150/150/150 149/149/149
f 152/152/152 151/151/151 149/149/149
f 152/152/152 149/149/149 153/153/153
f 154/154/154 152/152/152 153/153/153
f 154/154/154 153/153/153 155/155/155
f 156/156/156 154/154/154 155/155/155
f 156/156/156 155/155/155 157/157/157
f 158/158/158 156/156/156 157/157/157
f 158/158/158 157/157/157 159/159/159
f 160/160/160 158/158/158 159/159/159
f 160/160/160 159/159/159 161/161/161
f 162/162/162 160/160/160 161/161/161
f 165/165/165 164/164/164 163/163/163
f 164/164/164 166/166/166 163/163/163
f 163/163/163 166/166/166 167/167/167
f 166/166/166 168/168/168 167/167/167
f 168/168/168 169/169/169 167/167/167
f 169/169/169 170/170/170 167/167/167
f 170/170/170 169/169/169 171/171/171
f 169/169/169 172/172/172 171/171/171
f 171/171/171 172/172/172 173/173/173
f 172/172/172 174/174/174 173/173/173
f 173/173/173 174/174/174 175/175/175
f 174/174/174 176/176/176 175/175/175
f 175/175/175 176/176/176 177/177/177
f 176/176/176 178/178/178 177/177/177
f 177/177/177 178/178/178 179/179/179
f 178/178/178 180/180/180 179/179/179
f 183/183/183 182/182/182 181/181/181
f 184/184/184 183/183/183 181/181/181
f 184/184/184 181/181/181 185/185/185
f 186/186/186 184/184/184 185/185/185
f 186/186/186 185/185/185 187/187/187
f 188/188/188 186/186/186 187/187/187
