g MetroArea_Ground_Damaged_03
v 0.57565707 -0.06812373 0.58980286
v 0.57451874 0.006823059 0.58741146
v 0.5764903 -0.06812373 0.22359283
v 0.5765022 0.044041555 0.51747954
v 0.57610494 0.046150893 0.22838104
v 0.5626764 0.04473693 0.16785766
v 0.56205654 -0.06812373 0.16426544
v 0.54275453 0.045300055 0.5735492
v 0.5480242 0.033937063 0.59159666
v 0.57565707 -0.06812373 0.58980286
v 0.5131298 0.032879792 0.59159666
v 0.46552607 -0.06812373 0.5921048
v 0.5434631 0.06776442 0.39673096
v 0.5364152 0.0677644 0.55135286
v 0.51978076 0.04078945 0.582619
v 0.47104916 0.041432485 0.5920703
v -0.31180838 0.03954866 0.59210175
v -0.56428814 -0.06812374 0.59220153
v 0.541317 0.0677644 0.22543335
v 0.45086047 0.0677644 0.57125366
v -0.2279613 0.067764424 0.57213193
v -0.23588851 0.0524438 0.5898013
v 0.5217814 0.06776442 0.15352294
v -0.2913708 0.06776442 0.55287385
v 0.5348703 0.06812374 -0.023463286
v 0.5592695 0.055242136 -0.018657837
v 0.56590563 0.046419982 -0.20170227
v 0.56342626 -0.06812373 -0.20170227
v 0.52275544 0.06776442 -0.20392059
v 0.02833412 0.0677644 -0.5693654
v 0.54019856 0.0677644 -0.50696224
v 0.5758608 0.039053455 -0.24964477
v 0.576511 -0.06812373 -0.24964477
v 0.54721606 0.06649985 -0.2603952
v 0.5765148 0.035277054 -0.5531097
v 0.57636005 -0.06812373 -0.591042
v 0.57442194 0.019133521 -0.5826321
v 0.5619343 0.022930633 -0.5907677
v 0.5563803 0.04980892 -0.5618875
v 0.5343738 0.040412053 -0.59220153
v -0.034246214 0.06776442 -0.5344891
v 0.5341772 0.067763306 -0.53297544
v 0.4961644 0.06778204 -0.55368835
v 0.429818 0.06776442 -0.5677017
v -0.02381134 0.053363055 -0.59220153
v 0.54921174 -0.06812374 -0.59220153
v 0.5619343 0.022930633 -0.5907677
v 0.57636005 -0.06812373 -0.591042
v -0.15159439 0.045533378 -0.59220153
v -0.55343777 -0.06812374 -0.59220153
v -0.16050346 0.061008498 -0.5763275
v -0.17110981 0.06776442 -0.539068
v -0.21343952 0.050525904 -0.59220153
v -0.36975315 0.067764424 -0.33828858
v -0.21552047 0.067764424 -0.5684088
v -0.39778206 0.06776442 -0.57742095
v -0.32419634 0.0677644 0.5244824
v -0.3948929 0.04725215 -0.59220153
v -0.4994924 0.053560838 -0.59220153
v -0.4607508 0.06776442 -0.5722136
v -0.5598095 0.041396942 -0.59220153
v -0.57255757 -0.06812373 -0.59021133
v -0.5735436 0.029365636 -0.5852545
v -0.53575224 0.057534255 -0.5899803
v -0.53575224 0.057534255 -0.5899803
v -0.32820323 0.062107075 0.55512726
v -0.37563172 0.06776442 0.555661
v -0.5082191 0.067764424 -0.5681314
v -0.54305905 0.06776442 -0.5492218
v -0.5229894 0.067764424 -0.24597579
v -0.5566081 0.057400692 -0.5798126
v -0.5598095 0.041396942 -0.59220153
v -0.5735436 0.029365636 -0.5852545
v -0.34397787 0.051555507 0.5870337
v -0.55856854 0.06808809 -0.50766873
v -0.5765148 0.03877265 -0.5199095
v -0.56581974 0.056463536 -0.51917934
v -0.57011235 0.06559151 -0.41827238
v -0.5746867 -0.06812373 -0.57215345
v -0.57255757 -0.06812373 -0.59021133
v -0.57439077 -0.06812373 -0.2482785
v -0.57609224 0.04194083 -0.41737792
v -0.39247715 0.04936947 0.5918493
v -0.39672145 0.059662472 0.5857135
v -0.5210713 0.04194498 0.5921045
v -0.50852036 0.05372099 0.5913519
v -0.5287142 0.04980846 0.5793945
v -0.4902421 0.0677644 0.5780789
v -0.55045146 0.014707382 0.5919702
v -0.5639352 -0.011688854 0.58950835
v -0.5734931 -0.06812373 0.59071624
v -0.5107204 0.06776442 0.5555139
v -0.553836 0.06776442 0.47282866
v -0.5608174 0.0677644 0.36718598
v -0.5538172 0.036747344 0.5700473
v -0.57470906 -0.006744296 0.5738629
v -0.5639352 -0.011688854 0.58950835
v -0.5734931 -0.06812373 0.59071624
v -0.5747228 -0.06812374 0.5738629
v -0.5746727 -0.06812373 0.22392577
v -0.5739581 0.032839056 0.53397274
v -0.5746687 0.038546 0.4850415
v -0.57458043 0.055064153 0.32985443
v -0.55520844 0.06776442 0.29316863
v -0.57492673 0.051797904 0.22392577
v -0.5611085 -0.06812373 0.17074402
v -0.52959436 0.06776442 0.16786163
v -0.55715936 0.067830764 0.2140268
v -0.56137043 0.048656482 0.17260833
v -0.52827215 0.0677644 -0.10688782
v -0.54852617 0.06656811 0.17017578
v -0.5467672 0.06459955 -0.16109452
v -0.56155837 0.048329163 -0.17488159
v -0.5624474 -0.06812373 -0.20110397
v -0.5652472 0.048305616 -0.21288085
v -0.55279166 0.0636486 -0.2199971
v -0.5590238 0.067048155 -0.25952637
v -0.56869435 0.055513848 -0.24044159
v -0.5728524 0.043125324 -0.24135742
v -0.5739348 0.036003143 -0.25780547
vt 0.5131836 0.039093018
vt 0.49023438 0.04171753
vt 0.5229492 0.15002441
vt 0.4831543 0.064941406
vt 0.48876953 0.15014648
vt 0.4873047 0.16870117
vt 0.52197266 0.16918945
vt 0.4753418 0.050079346
vt 0.47827148 0.04550171
vt 0.49487305 0.01461792
vt 0.46728516 0.04220581
vt 0.45410156 0.008628845
vt 0.47509766 0.10131836
vt 0.4711914 0.057281494
vt 0.46875 0.04586792
vt 0.45458984 0.041778564
vt 0.22155762 0.042755127
vt 0.1451416 0.011772156
vt 0.47705078 0.15185547
vt 0.4482422 0.051513672
vt 0.2467041 0.05307007
vt 0.2442627 0.0463562
vt 0.47216797 0.17346191
vt 0.22790527 0.058532715
vt 0.47314453 0.22729492
vt 0.4880371 0.22460938
vt 0.48901367 0.28051758
vt 0.5239258 0.27978516
vt 0.4741211 0.28125
vt 0.328125 0.3918457
vt 0.47973633 0.37109375
vt 0.49267578 0.29492188
vt 0.52441406 0.29492188
vt 0.4814453 0.30419922
vt 0.49316406 0.38476562
vt 0.5239258 0.39697266
vt 0.49682617 0.39404297
vt 0.49438477 0.3984375
vt 0.48583984 0.3876953
vt 0.4794922 0.39941406
vt 0.30908203 0.38232422
vt 0.47802734 0.3786621
vt 0.46704102 0.38500977
vt 0.4477539 0.3894043
vt 0.3125 0.40014648
vt 0.48486328 0.43188477
vt 0.4880371 0.40454102
vt 0.49316406 0.43164062
vt 0.27441406 0.4033203
vt 0.1550293 0.44018555
vt 0.27148438 0.39624023
vt 0.2680664 0.38452148
vt 0.25585938 0.4020996
vt 0.20751953 0.32543945
vt 0.2548828 0.3935547
vt 0.20056152 0.39697266
vt 0.21826172 0.06695557
vt 0.20153809 0.40454102
vt 0.17016602 0.4033203
vt 0.18188477 0.39575195
vt 0.15222168 0.4074707
vt 0.14916992 0.4404297
vt 0.14758301 0.4111328
vt 0.15917969 0.40234375
vt 0.15893555 0.4020996
vt 0.21691895 0.05722046
vt 0.20300293 0.05807495
vt 0.16772461 0.3947754
vt 0.1574707 0.38916016
vt 0.16125488 0.2993164
vt 0.15246582 0.3984375
vt 0.1484375 0.40356445
vt 0.1418457 0.40112305
vt 0.21191406 0.047027588
vt 0.15283203 0.37695312
vt 0.14282227 0.38110352
vt 0.14892578 0.3803711
vt 0.14916992 0.35058594
vt 0.11138916 0.39819336
vt 0.11151123 0.4038086
vt 0.10925293 0.3010254
vt 0.14245605 0.35058594
vt 0.1977539 0.046173096
vt 0.1965332 0.04949951
vt 0.15966797 0.04522705
vt 0.16394043 0.04800415
vt 0.15820312 0.050048828
vt 0.16992188 0.052581787
vt 0.14880371 0.038513184
vt 0.14453125 0.029922485
vt 0.14208984 0.011688232
vt 0.16430664 0.05859375
vt 0.15258789 0.081604004
vt 0.14990234 0.11279297
vt 0.15002441 0.050933838
vt 0.13269043 0.04675293
vt 0.13293457 0.03918457
vt 0.11328125 0.039093018
vt 0.113098145 0.04486084
vt 0.105407715 0.15466309
vt 0.14343262 0.061645508
vt 0.14318848 0.07647705
vt 0.14416504 0.12384033
vt 0.15063477 0.1348877
vt 0.14282227 0.15515137
vt 0.10699463 0.17248535
vt 0.15710449 0.17297363
vt 0.14953613 0.15856934
vt 0.14379883 0.17138672
vt 0.15820312 0.25683594
vt 0.15100098 0.17211914
vt 0.15258789 0.2734375
vt 0.14575195 0.27783203
vt 0.109680176 0.28637695
vt 0.1451416 0.29003906
vt 0.15148926 0.2919922
vt 0.1508789 0.30395508
vt 0.1463623 0.29858398
vt 0.14282227 0.29882812
vt 0.14050293 0.30371094
vn 0.95654297 0.013244629 0.29077148
vn 0.9926758 0.049194336 0.11175537
vn 0.99902344 0.0031719208 -0.044433594
vn 0.9746094 0.2211914 0.030822754
vn 0.9814453 0.18676758 -0.039367676
vn 0.94140625 0.33251953 -0.05670166
vn 0.99853516 0.0028209686 -0.050994873
vn 0.5463867 0.7055664 0.45117188
vn 0.1463623 0.20678711 0.96728516
vn 0.95654297 0.013244629 0.29077148
vn 0.020843506 0.048065186 0.99853516
vn 0.0018463135 -6.687641E-05 1
vn 0.24365234 0.96972656 0.0025939941
vn 0.16955566 0.98046875 0.10040283
vn 0.14245605 0.70654297 0.6933594
vn 0.0074272156 0.11816406 0.99316406
vn -0.00077581406 0.01838684 1
vn -0.002565384 0.0014791489 1
vn 0.024551392 0.9995117 -0.0023345947
vn 0.0020256042 0.99609375 0.08605957
vn -0.00035119057 1 0.018203735
vn -0.013427734 0.4711914 0.88183594
vn 0.010292053 1 0.00048303604
vn -0.0018358231 1 0.007381439
vn 0.043121338 0.99902344 0.00071907043
vn 0.90478516 0.4255371 0.020874023
vn 0.96435547 0.2631836 0.024414062
vn 0.9995117 -0.019439697 0.031555176
vn 0.029891968 0.9995117 -0.0010976791
vn -0.0020637512 0.99902344 -0.038513184
vn 0.1239624 0.9921875 -0.0023765564
vn 0.95410156 0.2980957 0.022155762
vn 0.9995117 0.004634857 0.03793335
vn 0.52978516 0.84814453 -0.00042939186
vn 0.98095703 0.19470215 -0.012176514
vn 0.99658203 0.0003569126 -0.08496094
vn 0.91308594 0.16003418 -0.37475586
vn 0.2536621 0.18432617 -0.94970703
vn 0.45263672 0.8310547 -0.3227539
vn 0.014465332 0.08276367 -0.99658203
vn -0.00046372414 1 -0.0032176971
vn 0.24633789 0.9394531 -0.23864746
vn 0.091552734 0.9477539 -0.30517578
vn 0.009536743 0.9355469 -0.35351562
vn -0.004638672 0.24438477 -0.96972656
vn 0.001950264 0.0004067421 -1
vn 0.2536621 0.18432617 -0.94970703
vn 0.99658203 0.0003569126 -0.08496094
vn -0.0004196167 0.014183044 -1
vn -0.0060768127 -0.00035357475 -1
vn 0.019592285 0.93603516 -0.3515625
vn 0.0006303787 1 -0.0034694672
vn 0.0070343018 0.21948242 -0.97558594
vn -0 1 0
vn 0.0054473877 0.99658203 -0.08276367
vn 0.0008568764 0.99560547 -0.09588623
vn -4.172325E-07 1 0.002117157
vn 0.00071907043 0.0947876 -0.99560547
vn 0.0030498505 0.085876465 -0.99609375
vn -0.002861023 0.99902344 -0.040252686
vn -0.09320068 0.053466797 -0.9941406
vn -0.65722656 -0.004383087 -0.75390625
vn -0.95996094 0.11602783 -0.25561523
vn -0.109191895 0.7548828 -0.64697266
vn -0.109191895 0.7548828 -0.64697266
vn 0.039398193 0.93847656 0.3425293
vn 0.00793457 0.9995117 0.024520874
vn -0.005065918 0.9995117 -0.024169922
vn -0.017593384 1 -0.012512207
vn -0.009712219 1 0.0015964508
vn -0.6425781 0.7241211 -0.24938965
vn -0.09320068 0.053466797 -0.9941406
vn -0.95996094 0.11602783 -0.25561523
vn 0.1439209 0.8261719 0.5449219
vn -0.14404297 0.9892578 -0.019165039
vn -0.99902344 0.037750244 -0.010414124
vn -0.8881836 0.4543457 -0.068847656
vn -0.36035156 0.9326172 -0.00014030933
vn -1 -0.014831543 -0.009773254
vn -0.65722656 -0.004383087 -0.75390625
vn -0.9980469 -0.004585266 0.058258057
vn -0.9970703 0.0793457 0.0022888184
vn 0.012359619 0.2019043 0.9794922
vn 0.06213379 0.8676758 0.4934082
vn -0.01612854 0.019805908 0.9995117
vn -0.097839355 0.4255371 0.89941406
vn -0.5175781 0.78027344 0.35107422
vn -0.012680054 0.99365234 0.11218262
vn -0.29248047 0.18664551 0.9379883
vn -0.58740234 0.14489746 0.7963867
vn -0.8588867 0.04260254 0.5107422
vn -0.07318115 0.99658203 0.042816162
vn -0.099365234 0.9951172 0.016708374
vn -0.10095215 0.9946289 0.0075149536
vn -0.6845703 0.59033203 0.42700195
vn -0.99853516 0.028808594 0.044403076
vn -0.58740234 0.14489746 0.7963867
vn -0.8588867 0.04260254 0.5107422
vn -1 0.00022506714 0.0032157898
vn -0.9941406 -0.00015735626 -0.107055664
vn -0.78271484 0.5805664 0.22363281
vn -0.9975586 0.07159424 0.0078086853
vn -0.99658203 0.08270264 -0.0007891655
vn -0.04272461 0.99902344 -0.0016012192
vn -0.9892578 0.08721924 -0.11730957
vn -0.99853516 -0.00025820732 -0.058013916
vn -0.0010633469 1 -5.8591366E-05
vn -0.3293457 0.9428711 -0.04925537
vn -0.9951172 0.07678223 -0.06048584
vn -0.0050201416 1 -0.00022017956
vn -0.56640625 0.82421875 -0.019378662
vn -0.5527344 0.8334961 -8.291006E-05
vn -0.9970703 0.0736084 0.0104904175
vn -0.9995117 0.0054893494 0.03262329
vn -0.97802734 0.1315918 0.16271973
vn -0.36254883 0.9301758 0.059753418
vn -0.20898438 0.97753906 0.01979065
vn -0.87402344 0.47827148 0.08428955
vn -0.9790039 0.0309906 0.2006836
vn -0.99853516 0.0519104 0.019302368
g MetroArea_Ground_Damaged_03_0
f 3/3/3 2/2/2 1/1/1
f 4/4/4 2/2/2 3/3/3
f 5/5/5 4/4/4 3/3/3
f 6/6/6 5/5/5 3/3/3
f 6/6/6 3/3/3 7/7/7
f 4/4/4 8/8/8 2/2/2
f 9/9/9 2/2/2 8/8/8
f 9/9/9 10/10/10 2/2/2
f 9/9/9 11/11/11 10/10/10
f 11/11/11 9/9/9 8/8/8
f 10/10/10 11/11/11 12/12/12
f 13/13/13 4/4/4 5/5/5
f 14/14/14 8/8/8 4/4/4
f 4/4/4 13/13/13 14/14/14
f 15/15/15 11/11/11 8/8/8
f 15/15/15 8/8/8 14/14/14
f 15/15/15 16/16/16 11/11/11
f 11/11/11 16/16/16 12/12/12
f 16/16/16 15/15/15 14/14/14
f 12/12/12 16/16/16 17/17/17
f 12/12/12 17/17/17 18/18/18
f 13/13/13 5/5/5 19/19/19
f 5/5/5 6/6/6 19/19/19
f 20/20/20 14/14/14 13/13/13
f 16/16/16 14/14/14 20/20/20
f 20/20/20 13/13/13 19/19/19
f 21/21/21 20/20/20 19/19/19
f 16/16/16 20/20/20 22/22/22
f 16/16/16 22/22/22 17/17/17
f 21/21/21 22/22/22 20/20/20
f 19/19/19 6/6/6 23/23/23
f 21/21/21 19/19/19 23/23/23
f 22/22/22 24/24/24 17/17/17
f 21/21/21 24/24/24 22/22/22
f 25/25/25 23/23/23 6/6/6
f 26/26/26 25/25/25 6/6/6
f 7/7/7 26/26/26 6/6/6
f 7/7/7 27/27/27 26/26/26
f 7/7/7 28/28/28 27/27/27
f 29/29/29 25/25/25 26/26/26
f 27/27/27 29/29/29 26/26/26
f 23/23/23 25/25/25 30/30/30
f 25/25/25 29/29/29 30/30/30
f 29/29/29 31/31/31 30/30/30
f 32/32/32 27/27/27 28/28/28
f 32/32/32 28/28/28 33/33/33
f 27/27/27 34/34/34 29/29/29
f 27/27/27 32/32/32 34/34/34
f 31/31/31 29/29/29 34/34/34
f 32/32/32 33/33/33 35/35/35
f 32/32/32 35/35/35 34/34/34
f 35/35/35 31/31/31 34/34/34
f 36/36/36 35/35/35 33/33/33
f 35/35/35 36/36/36 37/37/37
f 37/37/37 36/36/36 38/38/38
f 37/37/37 39/39/39 35/35/35
f 37/37/37 38/38/38 39/39/39
f 31/31/31 35/35/35 39/39/39
f 38/38/38 40/40/40 39/39/39
f 41/41/41 23/23/23 30/30/30
f 21/21/21 23/23/23 41/41/41
f 42/42/42 31/31/31 39/39/39
f 40/40/40 42/42/42 39/39/39
f 31/31/31 42/42/42 43/43/43
f 43/43/43 42/42/42 40/40/40
f 31/31/31 43/43/43 44/44/44
f 31/31/31 44/44/44 30/30/30
f 44/44/44 43/43/43 40/40/40
f 45/45/45 30/30/30 44/44/44
f 40/40/40 45/45/45 44/44/44
f 41/41/41 30/30/30 45/45/45
f 45/45/45 40/40/40 46/46/46
f 47/47/47 46/46/46 40/40/40
f 47/47/47 48/48/48 46/46/46
f 49/49/49 45/45/45 46/46/46
f 49/49/49 46/46/46 50/50/50
f 51/51/51 41/41/41 45/45/45
f 51/51/51 45/45/45 49/49/49
f 21/21/21 41/41/41 52/52/52
f 51/51/51 52/52/52 41/41/41
f 53/53/53 51/51/51 49/49/49
f 53/53/53 49/49/49 50/50/50
f 21/21/21 52/52/52 54/54/54
f 24/24/24 21/21/21 54/54/54
f 55/55/55 52/52/52 51/51/51
f 55/55/55 54/54/54 52/52/52
f 53/53/53 55/55/55 51/51/51
f 55/55/55 56/56/56 54/54/54
f 56/56/56 55/55/55 53/53/53
f 57/57/57 24/24/24 54/54/54
f 58/58/58 53/53/53 50/50/50
f 56/56/56 53/53/53 58/58/58
f 59/59/59 58/58/58 50/50/50
f 56/56/56 58/58/58 59/59/59
f 56/56/56 60/60/60 54/54/54
f 56/56/56 59/59/59 60/60/60
f 59/59/59 50/50/50 61/61/61
f 50/50/50 62/62/62 61/61/61
f 63/63/63 61/61/61 62/62/62
f 59/59/59 61/61/61 64/64/64
f 65/65/65 60/60/60 59/59/59
f 57/57/57 66/66/66 24/24/24
f 67/67/67 66/66/66 57/57/57
f 66/66/66 17/17/17 24/24/24
f 60/60/60 68/68/68 54/54/54
f 65/65/65 68/68/68 60/60/60
f 69/69/69 68/68/68 65/65/65
f 68/68/68 69/69/69 54/54/54
f 69/69/69 70/70/70 54/54/54
f 71/71/71 69/69/69 65/65/65
f 65/65/65 72/72/72 71/71/71
f 72/72/72 73/73/73 71/71/71
f 67/67/67 74/74/74 66/66/66
f 74/74/74 17/17/17 66/66/66
f 75/75/75 70/70/70 69/69/69
f 71/71/71 75/75/75 69/69/69
f 76/76/76 71/71/71 73/73/73
f 77/77/77 75/75/75 71/71/71
f 76/76/76 77/77/77 71/71/71
f 78/78/78 75/75/75 77/77/77
f 75/75/75 78/78/78 70/70/70
f 78/78/78 77/77/77 76/76/76
f 73/73/73 79/79/79 76/76/76
f 80/80/80 79/79/79 73/73/73
f 79/79/79 81/81/81 76/76/76
f 82/82/82 78/78/78 76/76/76
f 81/81/81 82/82/82 76/76/76
f 83/83/83 17/17/17 74/74/74
f 83/83/83 74/74/74 84/84/84
f 74/74/74 67/67/67 84/84/84
f 85/85/85 17/17/17 83/83/83
f 17/17/17 85/85/85 18/18/18
f 84/84/84 86/86/86 83/83/83
f 86/86/86 85/85/85 83/83/83
f 85/85/85 86/86/86 87/87/87
f 88/88/88 86/86/86 84/84/84
f 88/88/88 84/84/84 67/67/67
f 88/88/88 87/87/87 86/86/86
f 18/18/18 85/85/85 89/89/89
f 87/87/87 89/89/89 85/85/85
f 90/90/90 18/18/18 89/89/89
f 91/91/91 18/18/18 90/90/90
f 92/92/92 88/88/88 67/67/67
f 92/92/92 87/87/87 88/88/88
f 93/93/93 92/92/92 67/67/67
f 93/93/93 87/87/87 92/92/92
f 93/93/93 67/67/67 94/94/94
f 67/67/67 57/57/57 94/94/94
f 95/95/95 89/89/89 87/87/87
f 95/95/95 96/96/96 89/89/89
f 89/89/89 96/96/96 97/97/97
f 96/96/96 98/98/98 97/97/97
f 96/96/96 99/99/99 98/98/98
f 100/100/100 99/99/99 96/96/96
f 101/101/101 95/95/95 87/87/87
f 93/93/93 101/101/101 87/87/87
f 101/101/101 96/96/96 95/95/95
f 93/93/93 102/102/102 101/101/101
f 102/102/102 96/96/96 101/101/101
f 102/102/102 93/93/93 94/94/94
f 100/100/100 96/96/96 102/102/102
f 103/103/103 102/102/102 94/94/94
f 103/103/103 100/100/100 102/102/102
f 57/57/57 104/104/104 94/94/94
f 103/103/103 94/94/94 104/104/104
f 103/103/103 105/105/105 100/100/100
f 103/103/103 104/104/104 105/105/105
f 100/100/100 105/105/105 106/106/106
f 57/57/57 107/107/107 104/104/104
f 57/57/57 54/54/54 107/107/107
f 108/108/108 105/105/105 104/104/104
f 108/108/108 104/104/104 107/107/107
f 105/105/105 109/109/109 106/106/106
f 109/109/109 105/105/105 108/108/108
f 54/54/54 110/110/110 107/107/107
f 70/70/70 110/110/110 54/54/54
f 108/108/108 107/107/107 111/111/111
f 110/110/110 111/111/111 107/107/107
f 109/109/109 108/108/108 111/111/111
f 110/110/110 112/112/112 111/111/111
f 112/112/112 109/109/109 111/111/111
f 112/112/112 110/110/110 70/70/70
f 106/106/106 109/109/109 113/113/113
f 112/112/112 113/113/113 109/109/109
f 106/106/106 113/113/113 114/114/114
f 112/112/112 115/115/115 113/113/113
f 113/113/113 115/115/115 114/114/114
f 116/116/116 112/112/112 70/70/70
f 112/112/112 116/116/116 115/115/115
f 116/116/116 70/70/70 117/117/117
f 115/115/115 116/116/116 117/117/117
f 78/78/78 117/117/117 70/70/70
f 118/118/118 117/117/117 78/78/78
f 115/115/115 117/117/117 118/118/118
f 82/82/82 118/118/118 78/78/78
f 115/115/115 119/119/119 114/114/114
f 118/118/118 119/119/119 115/115/115
f 81/81/81 114/114/114 119/119/119
f 81/81/81 120/120/120 82/82/82
f 120/120/120 118/118/118 82/82/82
f 120/120/120 81/81/81 119/119/119
f 120/120/120 119/119/119 118/118/118
