g MetroArea_Props_GroupBrick_02
v -0.76974374 0.375 -0.72972226
v -0.76974374 0.25 -0.72972226
v 0.72972226 0.25 -0.76974374
v 0.72972226 0.375 -0.76974374
v -0.72972226 0.375 0.76974374
v -0.72972226 0.25 0.76974374
v -0.76974374 0.25 -0.72972226
v -0.76974374 0.375 -0.72972226
v 0.76974374 0.375 0.72972226
v 0.76974374 0.25 0.72972226
v -0.72972226 0.25 0.76974374
v -0.72972226 0.375 0.76974374
v 0.72972226 0.375 -0.76974374
v 0.72972226 0.25 -0.76974374
v 0.76974374 0.25 0.72972226
v 0.76974374 0.375 0.72972226
v -0.72972226 0.375 0.76974374
v -0.76974374 0.375 -0.72972226
v 0.72972226 0.375 -0.76974374
v 0.76974374 0.375 0.72972226
v 0.76974374 0.25 0.72972226
v 0.72972226 0.25 -0.76974374
v -0.76974374 0.25 -0.72972226
v -0.72972226 0.25 0.76974374
v -0.70972013 0.12500004 -0.7882241
v -0.70972013 0.25000003 -0.7882241
v -0.7882241 0.24999996 0.70972013
v -0.7882241 0.12499997 0.70972013
v -0.7882241 0.12499997 0.70972013
v -0.7882241 0.24999996 0.70972013
v 0.70972013 0.25000003 0.7882241
v 0.70972013 0.12500003 0.7882241
v 0.70972013 0.12500003 0.7882241
v 0.70972013 0.25000003 0.7882241
v 0.7882241 0.25000012 -0.70972013
v 0.7882241 0.1250001 -0.70972013
v 0.7882241 0.1250001 -0.70972013
v 0.7882241 0.25000012 -0.70972013
v -0.70972013 0.25000003 -0.7882241
v -0.70972013 0.12500004 -0.7882241
v 0.7882241 0.1250001 -0.70972013
v -0.70972013 0.12500004 -0.7882241
v -0.7882241 0.12499997 0.70972013
v 0.70972013 0.12500003 0.7882241
v 0.70972013 0.25000003 0.7882241
v -0.7882241 0.24999996 0.70972013
v -0.70972013 0.25000003 -0.7882241
v 0.7882241 0.25000012 -0.70972013
v 0.67092824 0.4999999 0.8214957
v 0.67092824 0.37499988 0.82149565
v -0.8214957 0.37499988 0.6709282
v -0.8214957 0.49999988 0.67092824
v 0.8214957 0.5000001 -0.67092824
v 0.8214957 0.37500012 -0.67092836
v 0.67092824 0.37499988 0.82149565
v 0.67092824 0.4999999 0.8214957
v -0.67092824 0.50000006 -0.8214957
v -0.67092824 0.37500012 -0.8214958
v 0.8214957 0.37500012 -0.67092836
v 0.8214957 0.5000001 -0.67092824
v -0.8214957 0.49999988 0.67092824
v -0.8214957 0.37499988 0.6709282
v -0.67092824 0.37500012 -0.8214958
v -0.67092824 0.50000006 -0.8214957
v 0.8214957 0.5000001 -0.67092824
v 0.67092824 0.4999999 0.8214957
v -0.8214957 0.49999988 0.67092824
v -0.67092824 0.50000006 -0.8214957
v -0.67092824 0.37500012 -0.8214958
v -0.8214957 0.37499988 0.6709282
v 0.67092824 0.37499988 0.82149565
v 0.8214957 0.37500012 -0.67092836
v 0.75 -6.556708E-08 0.75
v 0.75 2.2737367E-15 -0.75
v -0.75 6.556708E-08 -0.75
v -0.75 -2.2737367E-15 0.75
v 0.75 -6.556708E-08 0.75
v 0.75 0.12499994 0.75
v 0.75 0.125 -0.75
v 0.75 2.2737367E-15 -0.75
v 0.75 2.2737367E-15 -0.75
v 0.75 0.125 -0.75
v -0.75 0.12500006 -0.75
v -0.75 6.556708E-08 -0.75
v -0.75 6.556708E-08 -0.75
v -0.75 0.12500006 -0.75
v -0.75 0.125 0.75
v -0.75 -2.2737367E-15 0.75
v -0.75 -2.2737367E-15 0.75
v -0.75 0.125 0.75
v 0.75 0.12499994 0.75
v 0.75 -6.556708E-08 0.75
v -0.75 0.12500006 -0.75
v 0.75 0.125 -0.75
v 0.75 0.12499994 0.75
v -0.75 0.125 0.75
vt 0.5 0.94921875
vt 0.5258789 0.94921875
vt 0.5258789 0.5463867
vt 0.5 0.5463867
vt 0.07141113 0.9633789
vt 0.07141113 0.98828125
vt 0.49072266 0.98828125
vt 0.49072266 0.9633789
vt 0.05996704 0.5463867
vt 0.0340271 0.5463867
vt 0.0340271 0.94921875
vt 0.05996704 0.94921875
vt 0.9511719 0.98828125
vt 0.9511719 0.9628906
vt 0.5317383 0.9628906
vt 0.5317383 0.98828125
vt 0.07348633 0.94921875
vt 0.4885254 0.94921875
vt 0.4885254 0.5463867
vt 0.07348633 0.5463867
vt 0.95166016 0.5463867
vt 0.5366211 0.5463867
vt 0.5366211 0.94921875
vt 0.95166016 0.94921875
vt 0.5258789 0.5463867
vt 0.5 0.5463867
vt 0.5 0.94921875
vt 0.5258789 0.94921875
vt 0.49072266 0.98828125
vt 0.49072266 0.9633789
vt 0.07141113 0.9633789
vt 0.07141113 0.98828125
vt 0.0340271 0.94921875
vt 0.05996704 0.94921875
vt 0.05996704 0.5463867
vt 0.0340271 0.5463867
vt 0.5317383 0.9628906
vt 0.5317383 0.98828125
vt 0.9511719 0.98828125
vt 0.9511719 0.9628906
vt 0.95166016 0.5463867
vt 0.5366211 0.5463867
vt 0.5366211 0.94921875
vt 0.95166016 0.94921875
vt 0.07348633 0.94921875
vt 0.4885254 0.94921875
vt 0.4885254 0.5463867
vt 0.07348633 0.5463867
vt 0.5 0.94921875
vt 0.5258789 0.94921875
vt 0.5258789 0.5463867
vt 0.5 0.5463867
vt 0.07141113 0.9633789
vt 0.07141113 0.98828125
vt 0.49072266 0.98828125
vt 0.49072266 0.9633789
vt 0.05996704 0.5463867
vt 0.0340271 0.5463867
vt 0.0340271 0.94921875
vt 0.05996704 0.94921875
vt 0.9511719 0.98828125
vt 0.9511719 0.9628906
vt 0.5317383 0.9628906
vt 0.5317383 0.98828125
vt 0.07348633 0.94921875
vt 0.4885254 0.94921875
vt 0.4885254 0.5463867
vt 0.07348633 0.5463867
vt 0.95166016 0.5463867
vt 0.5366211 0.5463867
vt 0.5366211 0.94921875
vt 0.95166016 0.94921875
vt 0.5366211 0.5463867
vt 0.5366211 0.94921875
vt 0.95166016 0.94921875
vt 0.95166016 0.5463867
vt 0.5258789 0.5463867
vt 0.5 0.5463867
vt 0.5 0.94921875
vt 0.5258789 0.94921875
vt 0.49072266 0.98828125
vt 0.49072266 0.9633789
vt 0.07141113 0.9633789
vt 0.07141113 0.98828125
vt 0.0340271 0.94921875
vt 0.05996704 0.94921875
vt 0.05996704 0.5463867
vt 0.0340271 0.5463867
vt 0.5317383 0.9628906
vt 0.5317383 0.98828125
vt 0.9511719 0.98828125
vt 0.9511719 0.9628906
vt 0.07348633 0.94921875
vt 0.4885254 0.94921875
vt 0.4885254 0.5463867
vt 0.07348633 0.5463867
vn -0.026687622 0 -0.9995117
vn -0.026687622 0 -0.9995117
vn -0.026687622 0 -0.9995117
vn -0.026687622 0 -0.9995117
vn -0.9995117 0 0.026687622
vn -0.9995117 0 0.026687622
vn -0.9995117 0 0.026687622
vn -0.9995117 0 0.026687622
vn 0.026687622 0 0.9995117
vn 0.026687622 0 0.9995117
vn 0.026687622 0 0.9995117
vn 0.026687622 0 0.9995117
vn 0.9995117 0 -0.026687622
vn 0.9995117 0 -0.026687622
vn 0.9995117 0 -0.026687622
vn 0.9995117 0 -0.026687622
vn -0 1 0
vn -0 1 0
vn -0 1 0
vn -0 1 0
vn -0 -1 0
vn -0 -1 0
vn -0 -1 0
vn -0 -1 0
vn -0.99853516 0 -0.052337646
vn -0.99853516 0 -0.052337646
vn -0.99853516 0 -0.052337646
vn -0.99853516 0 -0.052337646
vn -0.052337646 0 0.99853516
vn -0.052337646 0 0.99853516
vn -0.052337646 0 0.99853516
vn -0.052337646 0 0.99853516
vn 0.99853516 0 0.052337646
vn 0.99853516 0 0.052337646
vn 0.99853516 0 0.052337646
vn 0.99853516 0 0.052337646
vn 0.052337646 0 -0.99853516
vn 0.052337646 0 -0.99853516
vn 0.052337646 0 -0.99853516
vn 0.052337646 0 -0.99853516
vn -0 -1 0
vn -0 -1 0
vn -0 -1 0
vn -0 -1 0
vn -0 1 0
vn -0 1 0
vn -0 1 0
vn -0 1 0
vn -0.10040283 -6.556511E-07 0.9951172
vn -0.10040283 -6.556511E-07 0.9951172
vn -0.10040283 -6.556511E-07 0.9951172
vn -0.10040283 -6.556511E-07 0.9951172
vn 0.9951172 0 0.10040283
vn 0.9951172 0 0.10040283
vn 0.9951172 0 0.10040283
vn 0.9951172 0 0.10040283
vn 0.10040283 6.556511E-07 -0.9951172
vn 0.10040283 6.556511E-07 -0.9951172
vn 0.10040283 6.556511E-07 -0.9951172
vn 0.10040283 6.556511E-07 -0.9951172
vn -0.9951172 0 -0.10040283
vn -0.9951172 0 -0.10040283
vn -0.9951172 0 -0.10040283
vn -0.9951172 0 -0.10040283
vn -0 1 1.1920929E-07
vn -0 1 1.1920929E-07
vn -0 1 1.1920929E-07
vn -0 1 1.1920929E-07
vn -0 -1 -1.1920929E-07
vn -0 -1 -1.1920929E-07
vn -0 -1 -1.1920929E-07
vn -0 -1 -1.1920929E-07
vn -0 -1 0
vn -0 -1 0
vn -0 -1 0
vn -0 -1 0
vn 1 0 0
vn 1 0 0
vn 1 0 0
vn 1 0 0
vn -0 0 -1
vn -0 0 -1
vn -0 0 -1
vn -0 0 -1
vn -1 0 0
vn -1 0 0
vn -1 0 0
vn -1 0 0
vn -0 0 1
vn -0 0 1
vn -0 0 1
vn -0 0 1
vn -0 1 0
vn -0 1 0
vn -0 1 0
vn -0 1 0
g MetroArea_Props_GroupBrick_02_0
f 3/3/3 2/2/2 1/1/1
f 4/4/4 3/3/3 1/1/1
f 7/7/7 6/6/6 5/5/5
f 8/8/8 7/7/7 5/5/5
f 11/11/11 10/10/10 9/9/9
f 12/12/12 11/11/11 9/9/9
f 15/15/15 14/14/14 13/13/13
f 16/16/16 15/15/15 13/13/13
f 19/19/19 18/18/18 17/17/17
f 20/20/20 19/19/19 17/17/17
f 23/23/23 22/22/22 21/21/21
f 24/24/24 23/23/23 21/21/21
f 27/27/27 26/26/26 25/25/25
f 28/28/28 27/27/27 25/25/25
f 31/31/31 30/30/30 29/29/29
f 32/32/32 31/31/31 29/29/29
f 35/35/35 34/34/34 33/33/33
f 36/36/36 35/35/35 33/33/33
f 39/39/39 38/38/38 37/37/37
f 40/40/40 39/39/39 37/37/37
f 43/43/43 42/42/42 41/41/41
f 44/44/44 43/43/43 41/41/41
f 47/47/47 46/46/46 45/45/45
f 48/48/48 47/47/47 45/45/45
f 51/51/51 50/50/50 49/49/49
f 52/52/52 51/51/51 49/49/49
f 55/55/55 54/54/54 53/53/53
f 56/56/56 55/55/55 53/53/53
f 59/59/59 58/58/58 57/57/57
f 60/60/60 59/59/59 57/57/57
f 63/63/63 62/62/62 61/61/61
f 64/64/64 63/63/63 61/61/61
f 67/67/67 66/66/66 65/65/65
f 68/68/68 67/67/67 65/65/65
f 71/71/71 70/70/70 69/69/69
f 72/72/72 71/71/71 69/69/69
f 75/75/75 74/74/74 73/73/73
f 76/76/76 75/75/75 73/73/73
f 79/79/79 78/78/78 77/77/77
f 80/80/80 79/79/79 77/77/77
f 83/83/83 82/82/82 81/81/81
f 84/84/84 83/83/83 81/81/81
f 87/87/87 86/86/86 85/85/85
f 88/88/88 87/87/87 85/85/85
f 91/91/91 90/90/90 89/89/89
f 92/92/92 91/91/91 89/89/89
f 95/95/95 94/94/94 93/93/93
f 96/96/96 95/95/95 93/93/93
