g MetroArea_Prop_Billboard_13
v -0.9251013 0.018119235 -0.034524295
v -0.9251013 0.47768065 -0.034520026
v -0.9432263 0.495802 -0.03451909
v -0.9432287 6.4368686E-07 -0.034519434
v -0.9432287 1.4925405E-06 0.034522314
v -0.9432263 0.4958014 0.03452235
v -0.9251013 0.47768188 0.03452111
v -0.9251013 0.018119473 0.034520503
v 0.9432287 0.4958014 0.03452174
v -0.9432263 0.4958014 0.03452235
v -0.9432263 0.495802 -0.03451909
v 0.9432287 0.49580443 -0.03451909
v 0.9432287 -3.333696E-08 0.03452109
v 0.9432287 0.4958014 0.03452174
v 0.9432287 0.49580443 -0.03451909
v 0.9432287 1.5592159E-06 -0.034521263
v -0.9251013 0.47768065 -0.034520026
v 0.92510617 0.47768006 -0.03451972
v 0.9432287 0.49580443 -0.03451909
v -0.9432263 0.495802 -0.03451909
v -0.9432263 0.4958014 0.03452235
v 0.9432287 0.4958014 0.03452174
v 0.9251037 0.4776831 0.03452172
v -0.9251013 0.47768188 0.03452111
v -0.9432287 1.4925405E-06 0.034522314
v 0.9432287 -3.333696E-08 0.03452109
v 0.9432287 1.5592159E-06 -0.034521263
v -0.9432287 6.4368686E-07 -0.034519434
v 0.92510617 0.47768006 -0.03451972
v 0.92510617 0.01811832 -0.034519415
v 0.9432287 1.5592159E-06 -0.034521263
v 0.9432287 0.49580443 -0.03451909
v 0.9432287 0.4958014 0.03452174
v 0.9432287 -3.333696E-08 0.03452109
v 0.9251037 0.01812039 0.034524467
v 0.9251037 0.4776831 0.03452172
v -0.9432263 0.4958014 0.03452235
v -0.9432287 1.4925405E-06 0.034522314
v -0.9432287 6.4368686E-07 -0.034519434
v -0.9432263 0.495802 -0.03451909
v 0.92510617 0.01811832 -0.034519415
v -0.9251013 0.018119235 -0.034524295
v -0.9432287 6.4368686E-07 -0.034519434
v 0.9432287 1.5592159E-06 -0.034521263
v 0.9432287 -3.333696E-08 0.03452109
v -0.9432287 1.4925405E-06 0.034522314
v -0.9251013 0.018119473 0.034520503
v 0.9251037 0.01812039 0.034524467
v -0.9251013 0.018119473 0.034520503
v -0.9251013 0.47768188 0.03452111
v 0.9251037 0.4776831 0.03452172
v 0.9251037 0.01812039 0.034524467
v 0.92510617 0.01811832 -0.034519415
v 0.92510617 0.47768006 -0.03451972
v -0.9251013 0.47768065 -0.034520026
v -0.9251013 0.018119235 -0.034524295
vt 0.16064453 0.8408203
vt 0.296875 0.8408203
vt 0.3022461 0.8354492
vt 0.15527344 0.8354492
vt 0.15527344 0.8408203
vt 0.3022461 0.8408203
vt 0.296875 0.8354492
vt 0.16064453 0.8354492
vt 1.4882812 0.8491211
vt 0.92871094 0.8491211
vt 0.92871094 0.8696289
vt 1.4882812 0.8696289
vt 0.8959961 0.8491211
vt 0.7495117 0.8491211
vt 0.7495117 0.8696289
vt 0.8959961 0.8696289
vt 0.93408203 0.8408203
vt 1.4824219 0.8408203
vt 1.4882812 0.8354492
vt 0.92871094 0.8354492
vt 0.92871094 0.8408203
vt 1.4882812 0.8408203
vt 1.4824219 0.8354492
vt 0.93408203 0.8354492
vt 1.9091797 0.8491211
vt 1.3496094 0.8491211
vt 1.3496094 0.8696289
vt 1.9091797 0.8696289
vt 0.7548828 0.8408203
vt 0.890625 0.8408203
vt 0.8959961 0.8354492
vt 0.7495117 0.8354492
vt 0.7495117 0.8408203
vt 0.8959961 0.8408203
vt 0.890625 0.8354492
vt 0.7548828 0.8354492
vt 0.3022461 0.8491211
vt 0.15527344 0.8491211
vt 0.15527344 0.8696289
vt 0.3022461 0.8696289
vt 1.3554688 0.8408203
vt 1.9042969 0.8408203
vt 1.9091797 0.8354492
vt 1.3496094 0.8354492
vt 1.3496094 0.8408203
vt 1.9091797 0.8408203
vt 1.9042969 0.8354492
vt 1.3554688 0.8354492
vt 0.34057617 0.121276855
vt 0.34057617 0.23425293
vt 0.79541016 0.23425293
vt 0.79541016 0.121276855
vt 0.34057617 0.121276855
vt 0.34057617 0.23425293
vt 0.79541016 0.23425293
vt 0.79541016 0.121276855
vn -1.3113022E-06 -6.2584877E-06 -1
vn 1.5497208E-06 1.0251999E-05 -1
vn -1.0609627E-05 4.3153763E-05 -1
vn -5.4836273E-05 -0.00020992756 -1
vn 2.0086765E-05 7.95722E-05 1
vn 1.41859055E-05 -5.3584576E-05 1
vn 7.1525574E-07 -5.00679E-06 1
vn 8.34465E-07 5.3048134E-06 1
vn -1.2516975E-06 1 4.36306E-05
vn -0 1 9.119511E-06
vn -0 1 9.953976E-06
vn -1.3113022E-06 1 4.4465065E-05
vn 1 0 0
vn 1 0 0
vn 1 0 0
vn 1 0 0
vn 1.5497208E-06 1.0251999E-05 -1
vn 5.9604645E-07 1.3709068E-06 -1
vn 6.556511E-06 2.8371811E-05 -1
vn -1.0609627E-05 4.3153763E-05 -1
vn 1.41859055E-05 -5.3584576E-05 1
vn 8.34465E-07 0 1
vn -1.7881393E-06 4.4703484E-06 1
vn 7.1525574E-07 -5.00679E-06 1
vn 4.7683716E-07 -1 1.1444092E-05
vn -8.34465E-07 -1 -2.3066998E-05
vn -7.748604E-07 -1 -2.2232533E-05
vn 4.7683716E-07 -1 1.2278557E-05
vn 5.9604645E-07 1.3709068E-06 -1
vn -9.536743E-07 6.377697E-06 -1
vn -1.9609928E-05 8.1181526E-05 -1
vn 6.556511E-06 2.8371811E-05 -1
vn 8.34465E-07 0 1
vn 3.7431717E-05 -0.00014603138 1
vn 5.9604645E-07 -4.827976E-06 1
vn -1.7881393E-06 4.4703484E-06 1
vn -1 4.9471855E-06 0
vn -1 4.9471855E-06 0
vn -1 4.9471855E-06 0
vn -1 4.9471855E-06 0
vn -9.536743E-07 6.377697E-06 -1
vn -1.3113022E-06 -6.2584877E-06 -1
vn -5.4836273E-05 -0.00020992756 -1
vn -1.9609928E-05 8.1181526E-05 -1
vn 3.7431717E-05 -0.00014603138 1
vn 2.0086765E-05 7.95722E-05 1
vn 8.34465E-07 5.3048134E-06 1
vn 5.9604645E-07 -4.827976E-06 1
vn 8.34465E-07 5.3048134E-06 1
vn 7.1525574E-07 -5.00679E-06 1
vn -1.7881393E-06 4.4703484E-06 1
vn 5.9604645E-07 -4.827976E-06 1
vn -9.536743E-07 6.377697E-06 -1
vn 5.9604645E-07 1.3709068E-06 -1
vn 1.5497208E-06 1.0251999E-05 -1
vn -1.3113022E-06 -6.2584877E-06 -1
g MetroArea_Prop_Billboard_13_0
f 3/3/3 2/2/2 1/1/1
f 4/4/4 3/3/3 1/1/1
f 7/7/7 6/6/6 5/5/5
f 8/8/8 7/7/7 5/5/5
f 11/11/11 10/10/10 9/9/9
f 12/12/12 11/11/11 9/9/9
f 15/15/15 14/14/14 13/13/13
f 16/16/16 15/15/15 13/13/13
f 19/19/19 18/18/18 17/17/17
f 20/20/20 19/19/19 17/17/17
f 23/23/23 22/22/22 21/21/21
f 24/24/24 23/23/23 21/21/21
f 27/27/27 26/26/26 25/25/25
f 28/28/28 27/27/27 25/25/25
f 31/31/31 30/30/30 29/29/29
f 32/32/32 31/31/31 29/29/29
f 35/35/35 34/34/34 33/33/33
f 36/36/36 35/35/35 33/33/33
f 39/39/39 38/38/38 37/37/37
f 40/40/40 39/39/39 37/37/37
f 43/43/43 42/42/42 41/41/41
f 44/44/44 43/43/43 41/41/41
f 47/47/47 46/46/46 45/45/45
f 48/48/48 47/47/47 45/45/45
f 51/51/51 50/50/50 49/49/49
f 52/52/52 51/51/51 49/49/49
f 55/55/55 54/54/54 53/53/53
f 56/56/56 55/55/55 53/53/53
