g MetroArea_Prop_MetalBoard_02
v 1.25 0.02693676 -1.25
v 1.25 0.02693676 1.25
v -1.25 0.02693676 -1.25
v -1.25 0.02693676 1.25
v -1.25 0.02693676 1.25
v -1.25 0.0012391662 -1.25
v -1.25 0.02693676 -1.25
v -1.25 0.0012391662 1.25
v 1.25 0.02693676 1.25
v -1.25 0.0012391662 1.25
v -1.25 0.02693676 1.25
v 1.25 0.0012391662 1.25
v 1.25 0.02693676 -1.25
v 1.25 0.0012391662 1.25
v 1.25 0.02693676 1.25
v 1.25 0.0012391662 -1.25
v -1.25 0.02693676 -1.25
v 1.25 0.0012391662 -1.25
v 1.25 0.02693676 -1.25
v -1.25 0.0012391662 -1.25
v 1.25 0.0012391662 1.25
v -1.25 0.0012391662 -1.25
v -1.25 0.0012391662 1.25
v 1.25 0.0012391662 -1.25
vt 0.01586914 0.9746094
vt 0.48535156 0.9746094
vt 0.01586914 0.024139404
vt 0.48535156 0.024139404
vt 0.48535156 0.013191223
vt 0.01586914 0.0034255981
vt 0.01586914 0.013191223
vt 0.48535156 0.0034255981
vt 0.49145508 0.9746094
vt 0.4963379 0.024139404
vt 0.49145508 0.024139404
vt 0.4963379 0.9746094
vt 0.01586914 0.9863281
vt 0.48535156 0.99609375
vt 0.48535156 0.9863281
vt 0.01586914 0.99609375
vt 0.008361816 0.024139404
vt 0.0035362244 0.9746094
vt 0.008361816 0.9746094
vt 0.0035362244 0.024139404
vt 0.48535156 0.9746094
vt 0.01586914 0.024139404
vt 0.48535156 0.024139404
vt 0.01586914 0.9746094
vn -0 1 0
vn -0 1 0
vn -0 1 0
vn -0 1 0
vn -1 0 0
vn -1 0 0
vn -1 0 0
vn -1 0 0
vn -0 0 1
vn -0 0 1
vn -0 0 1
vn -0 0 1
vn 1 0 0
vn 1 0 0
vn 1 0 0
vn 1 0 0
vn -0 0 -1
vn -0 0 -1
vn -0 0 -1
vn -0 0 -1
vn -0 -1 0
vn -0 -1 0
vn -0 -1 0
vn -0 -1 0
g MetroArea_Prop_MetalBoard_02_0
f 3/3/3 2/2/2 1/1/1
f 4/4/4 2/2/2 3/3/3
f 7/7/7 6/6/6 5/5/5
f 6/6/6 8/8/8 5/5/5
f 11/11/11 10/10/10 9/9/9
f 10/10/10 12/12/12 9/9/9
f 15/15/15 14/14/14 13/13/13
f 14/14/14 16/16/16 13/13/13
f 19/19/19 18/18/18 17/17/17
f 18/18/18 20/20/20 17/17/17
f 23/23/23 22/22/22 21/21/21
f 22/22/22 24/24/24 21/21/21
