g MetroArea_Ground_Damaged_04
v 0.26786682 -0.034791723 0.29738545
v 0.27314538 -0.040496945 0.24472
v 0.2610379 -0.040496945 0.29278225
v 0.28990793 -0.033452928 0.21462421
v 0.30118102 -0.040496945 0.15618786
v 0.26711354 -0.016174098 0.29320183
v 0.32373267 -0.031406496 0.08805679
v 0.31178448 -0.040496945 0.042811368
v 0.32099852 0.0109179 0.081896216
v 0.293044 0.012822681 0.16785698
v 0.25764623 -0.00913221 0.29413092
v 0.17707627 -0.009929206 0.3030296
v 0.318132 -0.032185283 0.050462596
v 0.317458 -0.03173784 -0.07806647
v 0.30595896 -0.040496945 -0.0928443
v 0.3139508 0.018387137 -0.054212656
v 0.31331652 0.023684407 0.07464055
v 0.2577332 -0.020361861 0.30421916
v 0.26711354 -0.016174098 0.29320183
v 0.26786682 -0.034791723 0.29738545
v 0.23560984 -0.037533067 0.3059351
v 0.2610379 -0.040496945 0.29278225
v 0.15377912 -0.040496945 0.29869154
v 0.14322446 -0.034632824 0.30584165
v 0.0536456 -0.040496945 0.29382548
v 0.024251403 -0.034859776 0.30621138
v -0.08668853 -0.040496945 0.29842108
v -0.14946304 -0.029839668 0.30593103
v -0.1657044 -0.040496945 0.29167017
v -0.2402557 -0.035194714 0.25404757
v -0.23213369 -0.040496945 0.24823025
v -0.17468509 -0.009701181 0.28925264
v -0.23488137 -0.006291558 0.25327757
v -0.11015726 -0.013195208 0.305624
v -0.055367522 -0.0070784027 0.2991981
v 0.0045205993 -0.015464699 0.30596244
v 0.08830966 -0.0132464785 0.30449432
v 0.091939546 -0.008422759 0.2988423
v 0.039074156 -0.009115169 0.3014105
v -0.18736166 -0.0010772352 0.27215302
v -0.26640958 0.021191115 0.14723992
v -0.2584941 -0.0014443216 0.2009625
v -0.2402557 -0.035194714 0.25404757
v 0.071320586 0.04081556 0.020446496
v -0.29290035 0.036965698 0.06206647
v -0.30556712 0.04089059 0.026369767
v 0.17873062 0.04093053 -0.23417243
v 0.22287577 0.040930904 -0.18444845
v 0.259593 0.04044756 0.005909546
v 0.27664745 0.039375775 -0.06869653
v -0.29264897 0.018760655 0.10345712
v -0.29025146 -0.033348214 0.12337948
v -0.3113151 0.035996757 0.04007089
v -0.26068753 -0.040496945 0.18351084
v -0.23213369 -0.040496945 0.24823025
v -0.30845067 -0.040496945 0.04085533
v -0.3223274 0.0049330806 0.025005357
v -0.32343054 -0.033610422 0.023736723
v -0.3098788 -0.040496945 -0.008631148
v -0.32373267 -0.01810222 0.0119515965
v -0.3193233 0.024409005 0.0059637795
v -0.29619387 -0.032990586 -0.049115043
v -0.27729237 -0.040496945 -0.05865188
v -0.30982432 0.040886912 0.0071627935
v -0.28497273 0.033081274 -0.05980042
v -0.23528136 -0.02859855 -0.09842165
v -0.19574523 -0.040496945 -0.116537176
v -0.28214356 0.04092165 -0.04851376
v -0.20115627 0.038173795 -0.11759043
v -0.22579376 0.040895954 -0.08751205
v -0.28469887 -0.0209731 -0.06336577
v -0.17907329 -0.036133397 -0.13776132
v -0.143793 -0.040496945 -0.15786546
v -0.11737729 -0.03615369 -0.18139091
v -0.07015466 -0.040496945 -0.20723514
v -0.1709467 0.04093 -0.13113008
v -0.12394427 0.039926987 -0.17168143
v -0.07503405 0.040930107 -0.1983729
v -0.055710204 -0.03488427 -0.22449093
v -0.052144684 0.03503211 -0.22338565
v 0.0010117493 -0.036265627 -0.2641265
v 0.06918942 -0.040496945 -0.29976627
v 0.057151336 -0.025818523 -0.30276257
v 0.06118469 0.0137192495 -0.3038413
v 0.058956478 0.0409192 -0.2879505
v -0.016404236 0.04093082 -0.23603591
v 0.10426465 0.03969865 -0.2947405
v 0.06118469 0.0137192495 -0.3038413
v 0.07517779 -0.031756375 -0.30621138
v 0.057151336 -0.025818523 -0.30276257
v 0.06918942 -0.040496945 -0.29976627
v 0.14201367 -0.034396257 -0.2902607
v 0.117664486 -0.040496945 -0.29125252
v 0.13723744 0.03316994 -0.28989613
v 0.1586814 0.036807608 -0.26896384
v 0.19779007 -0.03838184 -0.22519729
v 0.19697973 -0.040496945 -0.20669347
v 0.15018557 -0.010059328 -0.28556317
v 0.21494989 -0.03309119 -0.21106891
v 0.22394484 0.039126404 -0.19156562
v 0.24227014 -0.040930904 -0.17491712
v 0.24606939 0.039128505 -0.16559932
v 0.27196345 -0.035992064 -0.14272986
v 0.28694642 0.031989973 -0.10717567
v 0.31322056 0.009652627 -0.08958024
v 0.31442356 -0.031737242 -0.09212287
vt 0.33984375 0.6660156
vt 0.33374023 0.6557617
vt 0.33740234 0.6660156
vt 0.33374023 0.64746094
vt 0.328125 0.6352539
vt 0.34350586 0.6635742
vt 0.32641602 0.61865234
vt 0.32080078 0.6088867
vt 0.33422852 0.61621094
vt 0.3408203 0.6347656
vt 0.34643555 0.6635742
vt 0.36499023 0.6660156
vt 0.32373047 0.61035156
vt 0.3269043 0.57958984
vt 0.3244629 0.57470703
vt 0.33642578 0.58691406
vt 0.3371582 0.6142578
vt 0.34643555 0.6669922
vt 0.34326172 0.66552734
vt 0.34375 0.67089844
vt 0.35131836 0.67089844
vt 0.34521484 0.67333984
vt 0.36987305 0.6743164
vt 0.37231445 0.6723633
vt 0.39282227 0.67578125
vt 0.39941406 0.67285156
vt 0.4243164 0.6743164
vt 0.43823242 0.67089844
vt 0.44335938 0.67285156
vt 0.46191406 0.6645508
vt 0.46166992 0.6669922
vt 0.44360352 0.6645508
vt 0.45825195 0.65771484
vt 0.42919922 0.66796875
vt 0.4169922 0.6660156
vt 0.4038086 0.66845703
vt 0.38500977 0.66748047
vt 0.38427734 0.66552734
vt 0.3959961 0.6665039
vt 0.4465332 0.66015625
vt 0.46411133 0.6308594
vt 0.46435547 0.64501953
vt 0.4658203 0.6621094
vt 0.3894043 0.60302734
vt 0.46923828 0.609375
vt 0.4716797 0.60058594
vt 0.36450195 0.5493164
vt 0.35595703 0.5600586
vt 0.3491211 0.60009766
vt 0.34545898 0.58447266
vt 0.47045898 0.6230469
vt 0.4807129 0.62890625
vt 0.47314453 0.60009766
vt 0.47607422 0.6459961
vt 0.46875 0.66259766
vt 0.49145508 0.60791016
vt 0.47998047 0.5996094
vt 0.4892578 0.6010742
vt 0.49047852 0.5888672
vt 0.48535156 0.5966797
vt 0.47558594 0.5966797
vt 0.48168945 0.5786133
vt 0.48046875 0.5727539
vt 0.47216797 0.59716797
vt 0.46704102 0.5834961
vt 0.46679688 0.5644531
vt 0.46044922 0.5541992
vt 0.46606445 0.5859375
vt 0.44873047 0.5703125
vt 0.45385742 0.57714844
vt 0.47631836 0.57666016
vt 0.45385742 0.5522461
vt 0.44628906 0.54589844
vt 0.43847656 0.54296875
vt 0.42871094 0.53564453
vt 0.4416504 0.5678711
vt 0.43115234 0.5595703
vt 0.42016602 0.5541992
vt 0.42333984 0.53466797
vt 0.41503906 0.54833984
vt 0.4099121 0.52685547
vt 0.39575195 0.51660156
vt 0.3955078 0.5209961
vt 0.39013672 0.5283203
vt 0.38891602 0.53564453
vt 0.40673828 0.5463867
vt 0.3786621 0.53564453
vt 0.38500977 0.5263672
vt 0.375 0.5185547
vt 0.37963867 0.51660156
vt 0.3737793 0.515625
vt 0.36279297 0.5283203
vt 0.36523438 0.5229492
vt 0.3720703 0.53808594
vt 0.3684082 0.5419922
vt 0.3474121 0.54052734
vt 0.34277344 0.54052734
vt 0.36450195 0.5332031
vt 0.34545898 0.54541016
vt 0.35546875 0.55859375
vt 0.3383789 0.55322266
vt 0.35131836 0.5644531
vt 0.33398438 0.5625
vt 0.34301758 0.57666016
vt 0.33544922 0.5800781
vt 0.32714844 0.57666016
vn 0.8725586 -0.20007324 0.44555664
vn 0.6015625 -0.7841797 0.15197754
vn 0.3395996 -0.88720703 0.31225586
vn 0.96484375 -0.015419006 0.26245117
vn 0.8173828 -0.5395508 0.20178223
vn 0.8754883 0.36401367 0.31811523
vn 0.95654297 -0.24414062 0.16027832
vn 0.7392578 -0.67333984 -0.0028800964
vn 0.9770508 0.18005371 0.11193848
vn 0.080078125 0.9794922 0.18579102
vn 0.07305908 0.96777344 0.24035645
vn 0.009536743 0.93847656 0.3449707
vn 0.99560547 -0.07342529 -0.053955078
vn 0.97265625 -0.23010254 -0.030639648
vn 0.63134766 -0.7338867 -0.25073242
vn 0.8691406 0.49316406 -0.03338623
vn 0.34643555 0.9316406 0.108947754
vn 0.16296387 0.31762695 0.93408203
vn 0.8754883 0.36401367 0.31811523
vn 0.8725586 -0.20007324 0.44555664
vn 0.02281189 -0.47924805 0.8774414
vn 0.3395996 -0.88720703 0.31225586
vn -0.024017334 -0.80810547 0.5888672
vn -0.00116539 -0.20251465 0.9794922
vn 0.004032135 -0.9038086 0.42749023
vn 0.007209778 -0.44677734 0.89453125
vn -0.020904541 -0.66845703 0.74316406
vn -0.2130127 -0.14318848 0.9663086
vn -0.34301758 -0.5332031 0.7734375
vn -0.78125 -0.13317871 0.6098633
vn -0.3503418 -0.8823242 0.3149414
vn -0.3244629 0.52978516 0.7836914
vn -0.4543457 0.7338867 0.5048828
vn -0.03137207 0.3696289 0.92871094
vn 0.009269714 0.98291016 0.18469238
vn -0.0017719269 0.18261719 0.98339844
vn 0.012649536 0.23937988 0.9707031
vn -0.0015125275 0.9814453 0.19152832
vn 0.014404297 0.97509766 0.2208252
vn -0.027008057 0.9760742 0.2163086
vn -0.07757568 0.9746094 0.20935059
vn -0.9042969 0.20727539 0.37329102
vn -0.78125 -0.13317871 0.6098633
vn 0.0052261353 0.99609375 0.08935547
vn -0.0042533875 0.9863281 0.16564941
vn -0.0035362244 0.9995117 0.025146484
vn 0.0071640015 1 -0.0067367554
vn 0.0059394836 1 -0.0018644333
vn 0.03515625 0.99609375 0.07989502
vn 0.21850586 0.97558594 -0.014289856
vn -0.89990234 0.25390625 0.35473633
vn -0.9291992 -0.15612793 0.33496094
vn -0.8808594 0.3701172 0.29492188
vn -0.65966797 -0.7114258 0.2421875
vn -0.3503418 -0.8823242 0.3149414
vn -0.5654297 -0.8071289 0.16955566
vn -0.9604492 0.09082031 0.2631836
vn -0.94677734 -0.23181152 0.22387695
vn -0.8720703 -0.3671875 -0.32373047
vn -0.94384766 -0.019897461 -0.3293457
vn -0.92285156 0.18518066 -0.33764648
vn -0.8574219 -0.14526367 -0.4934082
vn -0.53222656 -0.54541016 -0.64746094
vn -0.59033203 0.7890625 -0.17016602
vn -0.70703125 0.20458984 -0.6772461
vn -0.57177734 -0.08654785 -0.81591797
vn -0.45458984 -0.70996094 -0.53808594
vn -0.1451416 0.98291016 -0.11468506
vn -0.5673828 0.1574707 -0.80810547
vn -0.029800415 0.99853516 -0.04208374
vn -0.61816406 -0.013336182 -0.7861328
vn -0.5776367 -0.030578613 -0.81591797
vn -0.41967773 -0.68847656 -0.5917969
vn -0.57373047 -0.014846802 -0.81884766
vn -0.36791992 -0.75390625 -0.5444336
vn -0.01940918 0.9995117 -0.02468872
vn -0.5683594 0.15917969 -0.8071289
vn -0.004486084 1 -0.007411957
vn -0.5761719 -0.026672363 -0.81689453
vn -0.5678711 0.14111328 -0.81103516
vn -0.56396484 -0.14941406 -0.8120117
vn -0.21362305 -0.5966797 -0.7739258
vn -0.48828125 -0.13085938 -0.86279297
vn -0.36889648 0.18273926 -0.9111328
vn -0.12609863 0.9580078 -0.25854492
vn -0.033050537 0.9980469 -0.04824829
vn 0.09552002 0.7753906 -0.6245117
vn -0.36889648 0.18273926 -0.9111328
vn 0.15356445 -0.09320068 -0.9838867
vn -0.48828125 -0.13085938 -0.86279297
vn -0.21362305 -0.5966797 -0.7739258
vn 0.40771484 -0.32861328 -0.8520508
vn 0.21118164 -0.8051758 -0.5541992
vn 0.33276367 0.21679688 -0.91796875
vn 0.703125 0.33496094 -0.6269531
vn 0.42895508 -0.79589844 -0.4267578
vn 0.075805664 -0.9926758 -0.09631348
vn 0.7192383 0.0256958 -0.69433594
vn 0.7607422 0.030441284 -0.6479492
vn 0.75341797 0.14978027 -0.6401367
vn 0.20410156 -0.9633789 -0.17333984
vn 0.73535156 0.3095703 -0.60253906
vn 0.77001953 -0.043701172 -0.63623047
vn 0.5410156 0.8076172 -0.23352051
vn 0.8496094 0.21081543 -0.48339844
vn 0.8183594 -0.047180176 -0.5727539
g MetroArea_Ground_Damaged_04_0
f 3/3/3 2/2/2 1/1/1
f 1/1/1 2/2/2 4/4/4
f 2/2/2 5/5/5 4/4/4
f 1/1/1 4/4/4 6/6/6
f 7/7/7 4/4/4 5/5/5
f 7/7/7 5/5/5 8/8/8
f 6/6/6 4/4/4 9/9/9
f 4/4/4 7/7/7 9/9/9
f 9/9/9 10/10/10 6/6/6
f 10/10/10 11/11/11 6/6/6
f 12/12/12 11/11/11 10/10/10
f 13/13/13 7/7/7 8/8/8
f 7/7/7 13/13/13 9/9/9
f 13/13/13 8/8/8 14/14/14
f 14/14/14 8/8/8 15/15/15
f 9/9/9 13/13/13 16/16/16
f 13/13/13 14/14/14 16/16/16
f 10/10/10 9/9/9 17/17/17
f 17/17/17 9/9/9 16/16/16
f 11/11/11 12/12/12 18/18/18
f 11/11/11 18/18/18 19/19/19
f 18/18/18 20/20/20 19/19/19
f 18/18/18 21/21/21 20/20/20
f 21/21/21 18/18/18 12/12/12
f 22/22/22 20/20/20 21/21/21
f 22/22/22 21/21/21 23/23/23
f 23/23/23 21/21/21 24/24/24
f 24/24/24 21/21/21 12/12/12
f 25/25/25 23/23/23 24/24/24
f 24/24/24 26/26/26 25/25/25
f 25/25/25 26/26/26 27/27/27
f 28/28/28 27/27/27 26/26/26
f 27/27/27 28/28/28 29/29/29
f 30/30/30 29/29/29 28/28/28
f 31/31/31 29/29/29 30/30/30
f 30/30/30 28/28/28 32/32/32
f 30/30/30 32/32/32 33/33/33
f 28/28/28 26/26/26 34/34/34
f 32/32/32 28/28/28 34/34/34
f 32/32/32 34/34/34 35/35/35
f 34/34/34 36/36/36 35/35/35
f 34/34/34 26/26/26 36/36/36
f 26/26/26 24/24/24 36/36/36
f 37/37/37 24/24/24 12/12/12
f 36/36/36 24/24/24 37/37/37
f 38/38/38 37/37/37 12/12/12
f 38/38/38 12/12/12 10/10/10
f 39/39/39 36/36/36 37/37/37
f 38/38/38 39/39/39 37/37/37
f 35/35/35 36/36/36 39/39/39
f 10/10/10 39/39/39 38/38/38
f 35/35/35 39/39/39 10/10/10
f 33/33/33 32/32/32 40/40/40
f 32/32/32 35/35/35 40/40/40
f 33/33/33 40/40/40 41/41/41
f 41/41/41 40/40/40 35/35/35
f 41/41/41 42/42/42 33/33/33
f 33/33/33 42/42/42 43/43/43
f 44/44/44 35/35/35 10/10/10
f 45/45/45 41/41/41 35/35/35
f 45/45/45 35/35/35 44/44/44
f 46/46/46 45/45/45 44/44/44
f 47/47/47 46/46/46 44/44/44
f 47/47/47 44/44/44 48/48/48
f 10/10/10 49/49/49 44/44/44
f 44/44/44 49/49/49 48/48/48
f 10/10/10 17/17/17 49/49/49
f 17/17/17 50/50/50 49/49/49
f 48/48/48 49/49/49 50/50/50
f 50/50/50 17/17/17 16/16/16
f 41/41/41 51/51/51 42/42/42
f 51/51/51 41/41/41 45/45/45
f 42/42/42 52/52/52 43/43/43
f 52/52/52 42/42/42 51/51/51
f 53/53/53 51/51/51 45/45/45
f 53/53/53 45/45/45 46/46/46
f 54/54/54 43/43/43 52/52/52
f 55/55/55 43/43/43 54/54/54
f 54/54/54 52/52/52 56/56/56
f 57/57/57 52/52/52 51/51/51
f 53/53/53 57/57/57 51/51/51
f 56/56/56 52/52/52 58/58/58
f 57/57/57 58/58/58 52/52/52
f 59/59/59 56/56/56 58/58/58
f 60/60/60 58/58/58 57/57/57
f 59/59/59 58/58/58 60/60/60
f 61/61/61 57/57/57 53/53/53
f 60/60/60 57/57/57 61/61/61
f 59/59/59 60/60/60 62/62/62
f 62/62/62 60/60/60 61/61/61
f 59/59/59 62/62/62 63/63/63
f 53/53/53 64/64/64 61/61/61
f 53/53/53 46/46/46 64/64/64
f 61/61/61 64/64/64 65/65/65
f 65/65/65 62/62/62 61/61/61
f 63/63/63 62/62/62 66/66/66
f 67/67/67 63/63/63 66/66/66
f 68/68/68 64/64/64 46/46/46
f 65/65/65 64/64/64 68/68/68
f 65/65/65 68/68/68 69/69/69
f 69/69/69 68/68/68 70/70/70
f 68/68/68 46/46/46 70/70/70
f 65/65/65 71/71/71 62/62/62
f 66/66/66 62/62/62 71/71/71
f 65/65/65 69/69/69 71/71/71
f 69/69/69 66/66/66 71/71/71
f 72/72/72 67/67/67 66/66/66
f 72/72/72 66/66/66 69/69/69
f 67/67/67 72/72/72 73/73/73
f 74/74/74 73/73/73 72/72/72
f 74/74/74 72/72/72 69/69/69
f 75/75/75 73/73/73 74/74/74
f 70/70/70 46/46/46 76/76/76
f 69/69/69 70/70/70 76/76/76
f 69/69/69 77/77/77 74/74/74
f 69/69/69 76/76/76 77/77/77
f 78/78/78 76/76/76 46/46/46
f 77/77/77 76/76/76 78/78/78
f 47/47/47 78/78/78 46/46/46
f 79/79/79 75/75/75 74/74/74
f 79/79/79 74/74/74 77/77/77
f 77/77/77 78/78/78 80/80/80
f 80/80/80 79/79/79 77/77/77
f 81/81/81 75/75/75 79/79/79
f 80/80/80 81/81/81 79/79/79
f 82/82/82 75/75/75 81/81/81
f 82/82/82 81/81/81 83/83/83
f 83/83/83 81/81/81 84/84/84
f 84/84/84 81/81/81 80/80/80
f 85/85/85 84/84/84 80/80/80
f 78/78/78 86/86/86 80/80/80
f 86/86/86 78/78/78 47/47/47
f 80/80/80 86/86/86 85/85/85
f 86/86/86 47/47/47 85/85/85
f 87/87/87 85/85/85 47/47/47
f 85/85/85 87/87/87 88/88/88
f 87/87/87 89/89/89 88/88/88
f 89/89/89 90/90/90 88/88/88
f 89/89/89 91/91/91 90/90/90
f 92/92/92 91/91/91 89/89/89
f 93/93/93 91/91/91 92/92/92
f 94/94/94 89/89/89 87/87/87
f 94/94/94 92/92/92 89/89/89
f 47/47/47 95/95/95 87/87/87
f 94/94/94 87/87/87 95/95/95
f 92/92/92 96/96/96 93/93/93
f 96/96/96 97/97/97 93/93/93
f 98/98/98 92/92/92 94/94/94
f 94/94/94 95/95/95 98/98/98
f 96/96/96 92/92/92 98/98/98
f 99/99/99 98/98/98 95/95/95
f 99/99/99 96/96/96 98/98/98
f 47/47/47 100/100/100 95/95/95
f 100/100/100 99/99/99 95/95/95
f 47/47/47 48/48/48 100/100/100
f 96/96/96 101/101/101 97/97/97
f 99/99/99 101/101/101 96/96/96
f 101/101/101 15/15/15 97/97/97
f 100/100/100 48/48/48 102/102/102
f 102/102/102 99/99/99 100/100/100
f 48/48/48 50/50/50 102/102/102
f 103/103/103 15/15/15 101/101/101
f 103/103/103 101/101/101 99/99/99
f 50/50/50 104/104/104 102/102/102
f 104/104/104 50/50/50 16/16/16
f 105/105/105 99/99/99 102/102/102
f 104/104/104 105/105/105 102/102/102
f 16/16/16 105/105/105 104/104/104
f 105/105/105 103/103/103 99/99/99
f 16/16/16 14/14/14 105/105/105
f 14/14/14 15/15/15 106/106/106
f 103/103/103 106/106/106 15/15/15
f 105/105/105 14/14/14 106/106/106
f 106/106/106 103/103/103 105/105/105
