g MetroArea_Ground_Damaged_08
v -0.50898194 -0.084230624 -0.09085731
v -0.50064653 -0.09015042 -0.07251869
v -0.48615965 -0.08735446 -0.10328606
v -0.4220993 -0.08938426 -0.10435585
v -0.23948318 -0.08868109 -0.10418739
v -0.09320366 -0.09020138 -0.099448316
v -0.19097182 -0.08432293 -0.10629082
v -0.051414642 -0.082756504 -0.1063073
v 0.078665085 -0.08499171 -0.10620895
v 0.103397064 -0.090193644 -0.09435951
v 0.31795233 -0.0899315 -0.10384796
v -0.21712548 -0.09020143 0.08384476
v 0.40797096 -0.09020094 -0.09478706
v -0.47417662 -0.090201765 0.095576555
v 0.47876242 -0.090201445 0.08424606
v -0.5019948 -0.08980034 0.06498893
v -0.49370316 -0.08723468 0.097770154
v 0.47071883 -0.08423994 -0.10636108
v -0.40302047 -0.08991586 0.104243465
v -0.4820926 -0.07679118 0.1067707
v -0.34354597 -0.090206966 0.1006498
v -0.31722593 -0.08581917 0.10654739
v -0.23757666 -0.09020868 0.1013076
v -0.19939254 -0.07862821 0.10670898
v -0.21244025 -0.086557634 0.09991196
v -0.10083366 -0.087930284 0.10593414
v 0.058374327 -0.090207964 0.101294786
v 0.2757274 -0.084255695 0.106613845
v 0.28071082 -0.09019141 0.09976128
v 0.44245422 -0.08784232 0.10500106
v 0.50330174 -0.08483839 0.10018707
v 0.5051568 -0.08906231 0.0803215
v 0.50393337 -0.089881144 -0.019269638
v 0.47754255 -0.08956368 -0.10115021
v 0.50238615 -0.087608375 -0.08565933
v 0.50757515 -0.0794796 -0.09567375
v 0.49621668 -0.0683119 -0.10639076
v -0.2983798 0.08693204 0.10664253
v -0.13947167 0.08671237 0.10642158
v -0.49782607 0.0765775 0.10676147
v -0.4820926 -0.07679118 0.1067707
v -0.49721372 -0.015280976 0.106735535
v -0.5068933 0.017913742 0.10586807
v -0.50888336 -0.057737004 0.101365276
v -0.49370316 -0.08723468 0.097770154
v -0.19939254 -0.07862821 0.10670898
v -0.31722593 -0.08581917 0.10654739
v -0.40302047 -0.08991586 0.104243465
v 0.49215296 -0.074748546 0.10655868
v 0.30103934 0.08328343 0.106587976
v 0.2757274 -0.084255695 0.106613845
v 0.1323062 0.089995414 0.10385093
v -0.10083366 -0.087930284 0.10593414
v 0.44245422 -0.08784232 0.10500106
v 0.50330174 -0.08483839 0.10018707
v 0.5088642 -0.07503313 0.09876915
v 0.3992517 0.0874129 0.10637001
v 0.50445145 -0.012577624 0.10583381
v 0.4936864 0.07368954 0.10655792
v 0.47089085 0.08692544 0.105913006
v 0.50645 0.066165395 0.10141166
v 0.49484858 0.0902065 0.09562073
v 0.50774515 0.08720477 0.07230011
v -0.50039107 0.090156585 -0.071128614
v -0.507428 0.089246795 0.028006744
v -0.5088893 0.08267648 -0.09311066
v -0.50892454 0.07840327 0.073239364
v -0.5058719 0.08638709 0.09306503
v -0.5068933 0.017913742 0.10586807
v -0.49782607 0.0765775 0.10676147
v -0.50888336 -0.057737004 0.101365276
v -0.5089706 -0.08420724 0.06927864
v -0.49370316 -0.08723468 0.097770154
v -0.5019948 -0.08980034 0.06498893
v -0.5088667 -0.08484766 -0.04038597
v -0.50064653 -0.09015042 -0.07251869
v -0.50898194 -0.084230624 -0.09085731
v -0.50443953 0.015762387 -0.1061454
v -0.5032951 -0.07023215 -0.10333465
v -0.5014171 0.07572165 -0.10658874
v -0.50898194 -0.084230624 -0.09085731
v -0.48615965 -0.08735446 -0.10328606
v -0.5032951 -0.07023215 -0.10333465
v -0.4523152 -0.057113755 -0.106335446
v -0.50443953 0.015762387 -0.1061454
v -0.5014171 0.07572165 -0.10658874
v -0.2802641 0.08213006 -0.10676239
v -0.4220993 -0.08938426 -0.10435585
v -0.24069557 0.06951356 -0.106723174
v -0.3046991 -0.082850695 -0.106281504
v -0.23948318 -0.08868109 -0.10418739
v -0.19097182 -0.08432293 -0.10629082
v -0.051414642 -0.082756504 -0.1063073
v -0.08000549 0.084298596 -0.10674331
v 0.141752 -0.07481287 -0.10634201
v 0.1891314 0.07985946 -0.10675598
v 0.078665085 -0.08499171 -0.10620895
v 0.31795233 -0.0899315 -0.10384796
v 0.47071883 -0.08423994 -0.10636108
v 0.254059 0.08220538 -0.1067707
v 0.49621668 -0.0683119 -0.10639076
v 0.3761495 0.08222955 -0.10658035
v 0.477527 0.08365046 -0.10662338
v 0.50340986 0.07708478 -0.10580925
v 0.49484858 0.0902065 0.09562073
v 0.50861305 0.086707026 0.019567108
v 0.50774515 0.08720477 0.07230011
v 0.4949076 0.090206824 -0.09645439
v 0.5089742 0.08060193 -0.09687637
v 0.50340986 0.07708478 -0.10580925
v 0.477527 0.08365046 -0.10662338
v 0.3986224 0.08932645 -0.10333404
v 0.3761495 0.08222955 -0.10658035
v 0.254059 0.08220538 -0.1067707
v 0.11988975 0.088073395 -0.103945844
v 0.1891314 0.07985946 -0.10675598
v -0.08000549 0.084298596 -0.10674331
v -0.04887619 0.090196766 -0.09202331
v -0.34784377 0.0902068 0.09469284
v -0.24830627 0.09020869 -0.097227015
v -0.15912636 0.08562537 -0.10670166
v -0.24069557 0.06951356 -0.106723174
v -0.2802641 0.08213006 -0.10676239
v -0.42166564 0.089604005 -0.10381424
v -0.5014171 0.07572165 -0.10658874
v -0.47908843 0.08870742 -0.102228776
v -0.5088893 0.08267648 -0.09311066
v -0.50039107 0.090156585 -0.071128614
v -0.49474868 0.0902086 0.08895286
v -0.507428 0.089246795 0.028006744
v -0.5058719 0.08638709 0.09306503
v -0.49782607 0.0765775 0.10676147
v -0.44916534 0.09014399 0.10199913
v -0.2983798 0.08693204 0.10664253
v -0.04883583 0.09020421 0.097614594
v -0.13947167 0.08671237 0.10642158
v 0.1323062 0.089995414 0.10385093
v 0.31994155 0.0902068 0.09158287
v 0.32331017 0.0893739 0.102031626
v 0.30103934 0.08328343 0.106587976
v 0.3615554 0.08970292 0.09617561
v 0.3992517 0.0874129 0.10637001
v 0.47089085 0.08692544 0.105913006
v 0.5088642 -0.07503313 0.09876915
v 0.5051568 -0.08906231 0.0803215
v 0.50330174 -0.08483839 0.10018707
v 0.5089088 -0.08418878 -0.013731003
v 0.50393337 -0.089881144 -0.019269638
v 0.50238615 -0.087608375 -0.08565933
v 0.50757515 -0.0794796 -0.09567375
v 0.5089021 0.025536517 -0.100027
v 0.49621668 -0.0683119 -0.10639076
v 0.50340986 0.07708478 -0.10580925
v 0.5089742 0.08060193 -0.09687637
v 0.50898194 0.03216134 0.09822334
v 0.50445145 -0.012577624 0.10583381
v 0.50861305 0.086707026 0.019567108
v 0.50645 0.066165395 0.10141166
v 0.50774515 0.08720477 0.07230011
vt 0.44189453 0.98583984
vt 0.4477539 0.98339844
vt 0.43847656 0.9790039
vt 0.43847656 0.95996094
vt 0.43896484 0.90527344
vt 0.44091797 0.8613281
vt 0.43798828 0.890625
vt 0.43798828 0.8491211
vt 0.43920898 0.8100586
vt 0.4428711 0.8027344
vt 0.44067383 0.73828125
vt 0.49536133 0.89941406
vt 0.44360352 0.7114258
vt 0.49804688 0.9760742
vt 0.49731445 0.69091797
vt 0.48876953 0.984375
vt 0.4987793 0.9819336
vt 0.4399414 0.6928711
vt 0.50097656 0.95458984
vt 0.5029297 0.9785156
vt 0.5 0.9370117
vt 0.5024414 0.9291992
vt 0.5004883 0.90527344
vt 0.50390625 0.89404297
vt 0.5004883 0.8979492
vt 0.5024414 0.8642578
vt 0.50146484 0.81689453
vt 0.50439453 0.7519531
vt 0.50146484 0.75
vt 0.50341797 0.70166016
vt 0.5024414 0.68359375
vt 0.4963379 0.68310547
vt 0.46655273 0.68310547
vt 0.44213867 0.69091797
vt 0.44677734 0.68359375
vt 0.4428711 0.6816406
vt 0.4375 0.68408203
vt 0.56591797 0.9248047
vt 0.5654297 0.8774414
vt 0.5625 0.984375
vt 0.51660156 0.9794922
vt 0.53515625 0.984375
vt 0.5449219 0.9873047
vt 0.52246094 0.98779297
vt 0.5131836 0.9838867
vt 0.5161133 0.89501953
vt 0.51416016 0.9301758
vt 0.5126953 0.9560547
vt 0.5180664 0.6879883
vt 0.5649414 0.74560547
vt 0.51464844 0.7529297
vt 0.56689453 0.79589844
vt 0.5136719 0.86572266
vt 0.5136719 0.703125
vt 0.51464844 0.6845703
vt 0.5175781 0.6826172
vt 0.56640625 0.7158203
vt 0.5366211 0.6845703
vt 0.5620117 0.6879883
vt 0.56591797 0.6948242
vt 0.5605469 0.68408203
vt 0.5678711 0.6875
vt 0.5703125 0.6801758
vt 0.77685547 0.9746094
vt 0.7753906 0.9448242
vt 0.7734375 0.98095703
vt 0.77246094 0.93115234
vt 0.77490234 0.92529297
vt 0.75439453 0.9213867
vt 0.77197266 0.92041016
vt 0.7319336 0.92285156
vt 0.7241211 0.9326172
vt 0.7216797 0.92333984
vt 0.7211914 0.93359375
vt 0.7236328 0.96533203
vt 0.7207031 0.9746094
vt 0.7236328 0.98046875
vt 0.75341797 0.98535156
vt 0.72802734 0.984375
vt 0.7714844 0.98583984
vt 0.42749023 0.9892578
vt 0.42749023 0.9819336
vt 0.42260742 0.9868164
vt 0.41870117 0.9716797
vt 0.3972168 0.9873047
vt 0.3791504 0.9863281
vt 0.37719727 0.92041016
vt 0.4284668 0.9628906
vt 0.38085938 0.9086914
vt 0.42651367 0.9277344
vt 0.4284668 0.9082031
vt 0.42700195 0.8935547
vt 0.42651367 0.8520508
vt 0.37646484 0.86035156
vt 0.42407227 0.7944336
vt 0.3779297 0.77978516
vt 0.4272461 0.8129883
vt 0.42871094 0.7416992
vt 0.42700195 0.6958008
vt 0.37719727 0.7607422
vt 0.42211914 0.6879883
vt 0.37719727 0.7241211
vt 0.37670898 0.69384766
vt 0.3786621 0.68603516
vt 0.3010254 0.68847656
vt 0.32373047 0.68408203
vt 0.30810547 0.6845703
vt 0.35839844 0.6879883
vt 0.35864258 0.68310547
vt 0.3623047 0.6845703
vt 0.36206055 0.6928711
vt 0.3605957 0.7167969
vt 0.36279297 0.7236328
vt 0.36279297 0.7602539
vt 0.36083984 0.80029297
vt 0.3635254 0.7792969
vt 0.36206055 0.8598633
vt 0.35717773 0.85058594
vt 0.30126953 0.9404297
vt 0.35864258 0.91064453
vt 0.36157227 0.88378906
vt 0.3659668 0.9082031
vt 0.36254883 0.9199219
vt 0.36035156 0.96240234
vt 0.3642578 0.9863281
vt 0.36010742 0.9794922
vt 0.35888672 0.98876953
vt 0.35083008 0.98583984
vt 0.30273438 0.9838867
vt 0.32104492 0.98779297
vt 0.30126953 0.98779297
vt 0.29541016 0.9848633
vt 0.2993164 0.97021484
vt 0.29760742 0.92529297
vt 0.3005371 0.85058594
vt 0.29760742 0.8779297
vt 0.29858398 0.7963867
vt 0.3022461 0.7402344
vt 0.29907227 0.7392578
vt 0.296875 0.74609375
vt 0.30078125 0.72802734
vt 0.29760742 0.7167969
vt 0.29785156 0.6958008
vt 0.796875 0.9838867
vt 0.79248047 0.9785156
vt 0.79345703 0.984375
vt 0.7944336 0.9506836
vt 0.7919922 0.94873047
vt 0.79296875 0.92871094
vt 0.79589844 0.92578125
vt 0.82714844 0.9248047
vt 0.7988281 0.9213867
vt 0.84277344 0.9223633
vt 0.84375 0.92578125
vt 0.82910156 0.9838867
vt 0.8154297 0.9863281
vt 0.8457031 0.9604492
vt 0.83935547 0.98535156
vt 0.8457031 0.9765625
vn -0.99853516 -0.04260254 -0.03125
vn -0.012252808 -1 -0.0038719177
vn -0.080322266 -0.75146484 -0.65478516
vn -0.005012512 -0.84814453 -0.52978516
vn -0.006549835 -0.9814453 -0.19104004
vn 0.0001398325 -1 -0.021224976
vn 0.0007185936 -0.029327393 -0.9995117
vn -0.00045847893 -0.032714844 -0.9995117
vn 0.00491333 -0.6645508 -0.7470703
vn -0.00065374374 -1 -0.020065308
vn -0.004360199 -0.7294922 -0.68408203
vn 2.2053719E-05 -1 0.0028514862
vn 0.000875473 -1 -0.0070114136
vn -0.0025672913 -1 0.008766174
vn 0.0022411346 -1 0.004951477
vn -0.14379883 -0.9897461 0.012771606
vn -0.4399414 -0.70214844 0.5595703
vn 0.0057907104 -0.09301758 -0.99560547
vn -0.013404846 -0.62402344 0.78125
vn -0.0071640015 -0.020065308 1
vn 0.0037651062 -0.99609375 0.08618164
vn -0.00018835068 -0.23852539 0.9711914
vn 0.020751953 -0.90478516 0.42504883
vn -0.0002758503 -0.00655365 1
vn 0.010498047 -0.93310547 0.359375
vn -0.0072021484 -0.6953125 0.71875
vn 0.0022716522 -0.9736328 0.2277832
vn 0.00037121773 -0.19628906 0.98046875
vn -0.0004451275 -0.99560547 0.091918945
vn 0.013755798 -0.79296875 0.609375
vn 0.26635742 -0.81103516 0.5209961
vn 0.51660156 -0.85498047 0.039642334
vn 0.05419922 -0.99853516 -0.004322052
vn 0.03366089 -0.99609375 -0.082458496
vn 0.37304688 -0.92333984 -0.09295654
vn 0.9892578 -0.07434082 -0.12695312
vn 0.049072266 -0.013442993 -0.99853516
vn -0.0014419556 0.7758789 0.63134766
vn 0.0002603531 0.017822266 1
vn -0.021255493 0.01878357 0.9995117
vn -0.0071640015 -0.020065308 1
vn -0.109375 -0.02168274 0.99365234
vn -0.9160156 0.02003479 0.4008789
vn -0.9633789 -0.050323486 0.26342773
vn -0.4399414 -0.70214844 0.5595703
vn -0.0002758503 -0.00655365 1
vn -0.00018835068 -0.23852539 0.9711914
vn -0.013404846 -0.62402344 0.78125
vn 0.011543274 -0.011146545 1
vn -1.4424324E-05 0.01322937 1
vn 0.00037121773 -0.19628906 0.98046875
vn 0.003452301 0.7626953 0.64697266
vn -0.0072021484 -0.6953125 0.71875
vn 0.013755798 -0.79296875 0.609375
vn 0.26635742 -0.81103516 0.5209961
vn 0.99853516 -0.016113281 0.055541992
vn 0.0005197525 0.089660645 0.99609375
vn 0.38330078 -0.0020580292 0.9238281
vn 0.023147583 0.016296387 0.9995117
vn 0.04812622 0.54589844 0.8364258
vn 0.78222656 0.14916992 0.6044922
vn 0.029815674 0.99902344 0.037597656
vn 0.95410156 0.29589844 0.048553467
vn -0.030761719 0.9995117 -0.005607605
vn -0.67089844 0.74121094 0.004787445
vn -0.99902344 0.042266846 -0.025177002
vn -1 0.014625549 0.010421753
vn -0.8774414 0.390625 0.2788086
vn -0.9160156 0.02003479 0.4008789
vn -0.021255493 0.01878357 0.9995117
vn -0.9633789 -0.050323486 0.26342773
vn -0.99853516 -0.04901123 0.01309967
vn -0.4399414 -0.70214844 0.5595703
vn -0.14379883 -0.9897461 0.012771606
vn -0.99609375 -0.08648682 0.00031161308
vn -0.012252808 -1 -0.0038719177
vn -0.99853516 -0.04260254 -0.03125
vn -0.47045898 -0.011024475 -0.8823242
vn -0.33618164 -0.0647583 -0.9394531
vn -0.04663086 0.017868042 -0.99853516
vn -0.99853516 -0.04260254 -0.03125
vn -0.080322266 -0.75146484 -0.65478516
vn -0.33618164 -0.0647583 -0.9394531
vn -0.006259918 -0.011550903 -1
vn -0.47045898 -0.011024475 -0.8823242
vn -0.04663086 0.017868042 -0.99853516
vn 0.004638672 0.1015625 -0.9946289
vn -0.005012512 -0.84814453 -0.52978516
vn -0.002046585 0.021026611 -1
vn -0.00017988682 -0.020187378 -1
vn -0.006549835 -0.9814453 -0.19104004
vn 0.0007185936 -0.029327393 -0.9995117
vn -0.00045847893 -0.032714844 -0.9995117
vn 0.00035905838 0.04269409 -0.99902344
vn 0.00040316582 -0.0066947937 -1
vn -0.0003466606 0.0057296753 -1
vn 0.00491333 -0.6645508 -0.7470703
vn -0.004360199 -0.7294922 -0.68408203
vn 0.0057907104 -0.09301758 -0.99560547
vn 5.6266785E-05 0.02104187 -1
vn 0.049072266 -0.013442993 -0.99853516
vn 0.0010461807 0.020431519 -1
vn 0.008605957 0.07110596 -0.9975586
vn 0.17285156 0.051483154 -0.98339844
vn 0.029815674 0.99902344 0.037597656
vn 0.9326172 0.3605957 0.002696991
vn 0.95410156 0.29589844 0.048553467
vn 0.015960693 1 -0.008293152
vn 0.9902344 0.13586426 -0.032073975
vn 0.17285156 0.051483154 -0.98339844
vn 0.008605957 0.07110596 -0.9975586
vn -0.00141716 0.96533203 -0.2607422
vn 0.0010461807 0.020431519 -1
vn 5.6266785E-05 0.02104187 -1
vn -0.0005674362 0.8413086 -0.54052734
vn -0.0003466606 0.0057296753 -1
vn 0.00035905838 0.04269409 -0.99902344
vn -0.00033283234 1 -0.010665894
vn 0.00044465065 1 0.008125305
vn 0.00023519993 0.9995117 -0.032989502
vn 0.0028648376 0.70410156 -0.70996094
vn -0.002046585 0.021026611 -1
vn 0.004638672 0.1015625 -0.9946289
vn -0.0054130554 0.92285156 -0.3857422
vn -0.04663086 0.017868042 -0.99853516
vn -0.060760498 0.9111328 -0.40795898
vn -0.99902344 0.042266846 -0.025177002
vn -0.030761719 0.9995117 -0.005607605
vn -0.011512756 1 0.017974854
vn -0.67089844 0.74121094 0.004787445
vn -0.8774414 0.390625 0.2788086
vn -0.021255493 0.01878357 0.9995117
vn -0.020980835 0.76660156 0.64160156
vn -0.0014419556 0.7758789 0.63134766
vn -0.0037460327 0.9916992 0.12841797
vn 0.0002603531 0.017822266 1
vn 0.003452301 0.7626953 0.64697266
vn 0.00032377243 1 0.0022621155
vn 0.0181427 0.9707031 0.2388916
vn -1.4424324E-05 0.01322937 1
vn -0.00013017654 0.9995117 0.028945923
vn 0.0005197525 0.089660645 0.99609375
vn 0.04812622 0.54589844 0.8364258
vn 0.99853516 -0.016113281 0.055541992
vn 0.51660156 -0.85498047 0.039642334
vn 0.26635742 -0.81103516 0.5209961
vn 0.99902344 -0.04055786 -0.0036449432
vn 0.05419922 -0.99853516 -0.004322052
vn 0.37304688 -0.92333984 -0.09295654
vn 0.9892578 -0.07434082 -0.12695312
vn 0.99609375 -0.0053482056 -0.09020996
vn 0.049072266 -0.013442993 -0.99853516
vn 0.17285156 0.051483154 -0.98339844
vn 0.9902344 0.13586426 -0.032073975
vn 0.9995117 0.001996994 0.022018433
vn 0.38330078 -0.0020580292 0.9238281
vn 0.9326172 0.3605957 0.002696991
vn 0.78222656 0.14916992 0.6044922
vn 0.95410156 0.29589844 0.048553467
g MetroArea_Ground_Damaged_08_0
f 3/3/3 2/2/2 1/1/1
f 4/4/4 2/2/2 3/3/3
f 4/4/4 5/5/5 2/2/2
f 6/6/6 2/2/2 5/5/5
f 7/7/7 6/6/6 5/5/5
f 8/8/8 6/6/6 7/7/7
f 9/9/9 6/6/6 8/8/8
f 10/10/10 6/6/6 9/9/9
f 10/10/10 9/9/9 11/11/11
f 12/12/12 2/2/2 6/6/6
f 10/10/10 12/12/12 6/6/6
f 13/13/13 10/10/10 11/11/11
f 13/13/13 12/12/12 10/10/10
f 12/12/12 14/14/14 2/2/2
f 15/15/15 12/12/12 13/13/13
f 14/14/14 16/16/16 2/2/2
f 14/14/14 17/17/17 16/16/16
f 13/13/13 11/11/11 18/18/18
f 14/14/14 19/19/19 17/17/17
f 19/19/19 20/20/20 17/17/17
f 19/19/19 14/14/14 21/21/21
f 12/12/12 21/21/21 14/14/14
f 21/21/21 22/22/22 19/19/19
f 23/23/23 22/22/22 21/21/21
f 12/12/12 23/23/23 21/21/21
f 22/22/22 23/23/23 24/24/24
f 23/23/23 25/25/25 24/24/24
f 25/25/25 23/23/23 12/12/12
f 25/25/25 26/26/26 24/24/24
f 12/12/12 26/26/26 25/25/25
f 27/27/27 26/26/26 12/12/12
f 27/27/27 28/28/28 26/26/26
f 27/27/27 12/12/12 29/29/29
f 28/28/28 27/27/27 29/29/29
f 29/29/29 30/30/30 28/28/28
f 29/29/29 12/12/12 15/15/15
f 15/15/15 30/30/30 29/29/29
f 15/15/15 31/31/31 30/30/30
f 32/32/32 31/31/31 15/15/15
f 32/32/32 15/15/15 33/33/33
f 33/33/33 15/15/15 13/13/13
f 34/34/34 33/33/33 13/13/13
f 35/35/35 33/33/33 34/34/34
f 34/34/34 13/13/13 18/18/18
f 35/35/35 34/34/34 36/36/36
f 34/34/34 18/18/18 36/36/36
f 36/36/36 18/18/18 37/37/37
f 40/40/40 39/39/39 38/38/38
f 41/41/41 39/39/39 40/40/40
f 40/40/40 42/42/42 41/41/41
f 43/43/43 42/42/42 40/40/40
f 43/43/43 44/44/44 42/42/42
f 44/44/44 41/41/41 42/42/42
f 45/45/45 41/41/41 44/44/44
f 39/39/39 41/41/41 46/46/46
f 47/47/47 46/46/46 41/41/41
f 48/48/48 47/47/47 41/41/41
f 46/46/46 49/49/49 39/39/39
f 39/39/39 49/49/49 50/50/50
f 46/46/46 51/51/51 49/49/49
f 39/39/39 50/50/50 52/52/52
f 53/53/53 51/51/51 46/46/46
f 49/49/49 51/51/51 54/54/54
f 49/49/49 54/54/54 55/55/55
f 55/55/55 56/56/56 49/49/49
f 50/50/50 49/49/49 57/57/57
f 58/58/58 49/49/49 56/56/56
f 57/57/57 49/49/49 59/59/59
f 49/49/49 58/58/58 59/59/59
f 59/59/59 60/60/60 57/57/57
f 59/59/59 58/58/58 61/61/61
f 59/59/59 61/61/61 60/60/60
f 60/60/60 61/61/61 62/62/62
f 62/62/62 61/61/61 63/63/63
f 66/66/66 65/65/65 64/64/64
f 66/66/66 67/67/67 65/65/65
f 67/67/67 68/68/68 65/65/65
f 69/69/69 68/68/68 67/67/67
f 68/68/68 69/69/69 70/70/70
f 67/67/67 71/71/71 69/69/69
f 72/72/72 71/71/71 67/67/67
f 71/71/71 72/72/72 73/73/73
f 74/74/74 73/73/73 72/72/72
f 75/75/75 74/74/74 72/72/72
f 67/67/67 75/75/75 72/72/72
f 76/76/76 74/74/74 75/75/75
f 77/77/77 76/76/76 75/75/75
f 77/77/77 75/75/75 67/67/67
f 66/66/66 77/77/77 67/67/67
f 66/66/66 78/78/78 77/77/77
f 79/79/79 77/77/77 78/78/78
f 80/80/80 78/78/78 66/66/66
f 83/83/83 82/82/82 81/81/81
f 84/84/84 82/82/82 83/83/83
f 85/85/85 84/84/84 83/83/83
f 84/84/84 85/85/85 86/86/86
f 87/87/87 84/84/84 86/86/86
f 88/88/88 82/82/82 84/84/84
f 87/87/87 89/89/89 84/84/84
f 84/84/84 90/90/90 88/88/88
f 89/89/89 90/90/90 84/84/84
f 91/91/91 88/88/88 90/90/90
f 92/92/92 91/91/91 90/90/90
f 92/92/92 90/90/90 89/89/89
f 89/89/89 93/93/93 92/92/92
f 94/94/94 93/93/93 89/89/89
f 95/95/95 93/93/93 94/94/94
f 96/96/96 95/95/95 94/94/94
f 95/95/95 97/97/97 93/93/93
f 98/98/98 97/97/97 95/95/95
f 99/99/99 98/98/98 95/95/95
f 96/96/96 100/100/100 95/95/95
f 101/101/101 99/99/99 95/95/95
f 101/101/101 95/95/95 100/100/100
f 102/102/102 101/101/101 100/100/100
f 103/103/103 101/101/101 102/102/102
f 104/104/104 101/101/101 103/103/103
f 107/107/107 106/106/106 105/105/105
f 108/108/108 105/105/105 106/106/106
f 108/108/108 106/106/106 109/109/109
f 108/108/108 109/109/109 110/110/110
f 108/108/108 110/110/110 111/111/111
f 112/112/112 108/108/108 111/111/111
f 111/111/111 113/113/113 112/112/112
f 112/112/112 113/113/113 114/114/114
f 115/115/115 112/112/112 114/114/114
f 116/116/116 115/115/115 114/114/114
f 116/116/116 117/117/117 115/115/115
f 118/118/118 112/112/112 115/115/115
f 117/117/117 118/118/118 115/115/115
f 118/118/118 108/108/108 112/112/112
f 118/118/118 119/119/119 108/108/108
f 120/120/120 119/119/119 118/118/118
f 118/118/118 117/117/117 121/121/121
f 120/120/120 118/118/118 121/121/121
f 117/117/117 122/122/122 121/121/121
f 121/121/121 122/122/122 120/120/120
f 122/122/122 123/123/123 120/120/120
f 124/124/124 120/120/120 123/123/123
f 123/123/123 125/125/125 124/124/124
f 126/126/126 124/124/124 125/125/125
f 125/125/125 127/127/127 126/126/126
f 128/128/128 126/126/126 127/127/127
f 128/128/128 124/124/124 126/126/126
f 128/128/128 120/120/120 124/124/124
f 128/128/128 129/129/129 120/120/120
f 129/129/129 119/119/119 120/120/120
f 130/130/130 129/129/129 128/128/128
f 130/130/130 131/131/131 129/129/129
f 131/131/131 132/132/132 129/129/129
f 132/132/132 133/133/133 129/129/129
f 133/133/133 119/119/119 129/129/129
f 132/132/132 134/134/134 133/133/133
f 133/133/133 134/134/134 119/119/119
f 119/119/119 134/134/134 135/135/135
f 134/134/134 136/136/136 135/135/135
f 135/135/135 136/136/136 137/137/137
f 119/119/119 135/135/135 138/138/138
f 119/119/119 138/138/138 108/108/108
f 135/135/135 137/137/137 139/139/139
f 135/135/135 139/139/139 138/138/138
f 137/137/137 140/140/140 139/139/139
f 108/108/108 138/138/138 141/141/141
f 138/138/138 139/139/139 141/141/141
f 140/140/140 141/141/141 139/139/139
f 141/141/141 105/105/105 108/108/108
f 140/140/140 142/142/142 141/141/141
f 141/141/141 142/142/142 105/105/105
f 142/142/142 143/143/143 105/105/105
f 146/146/146 145/145/145 144/144/144
f 145/145/145 147/147/147 144/144/144
f 147/147/147 145/145/145 148/148/148
f 147/147/147 148/148/148 149/149/149
f 147/147/147 149/149/149 150/150/150
f 151/151/151 147/147/147 150/150/150
f 144/144/144 147/147/147 151/151/151
f 151/151/151 150/150/150 152/152/152
f 153/153/153 151/151/151 152/152/152
f 154/154/154 151/151/151 153/153/153
f 144/144/144 151/151/151 155/155/155
f 155/155/155 151/151/151 154/154/154
f 156/156/156 144/144/144 155/155/155
f 155/155/155 154/154/154 157/157/157
f 155/155/155 158/158/158 156/156/156
f 159/159/159 155/155/155 157/157/157
f 159/159/159 158/158/158 155/155/155
