g MetroArea_Ground_PassgaeWay_05
v -1.2654055 0.00026599882 1.2499996
v -1.2654053 0.036655147 -1.2500002
v -1.2654053 0.00026640535 -1.2500002
v -1.2654055 0.00026599882 1.2499996
v -1.2654053 0.00026640535 -1.2500002
v 1.2345947 0.00026640535 -1.2499998
v 1.2345943 0.00026599882 1.2500002
v 3.7345946 0.00026640535 -1.2499994
v 3.7345943 0.00026599882 1.2500006
v -3.7654054 0.010265999 1.2499994
v -1.2654053 0.036655147 -1.2500002
v -3.7654052 0.0102664055 -1.2500006
v 3.7345943 0.00026599882 1.2500006
v 3.7345943 -0.14233191 1.2500006
v 1.2345943 -0.14233191 1.2500002
v 1.2345943 0.00026599882 1.2500002
v -1.2654055 -0.14233191 1.2499996
v -1.2654055 0.00026599882 1.2499996
v -3.7654054 -0.14233191 1.2499994
v -3.7654054 0.00026599882 1.2499994
v -3.7654054 0.010265999 1.2499994
v 3.7345946 0.00026640535 -1.2499994
v 3.7345946 -0.14233151 -1.2499994
v 3.7345943 -0.14233191 1.2500006
v 3.7345943 0.00026599882 1.2500006
v -3.7654054 0.00026599882 1.2499994
v -3.7654054 -0.14233191 1.2499994
v -3.7654052 -0.14233151 -1.2500006
v -3.7654052 0.00026640535 -1.2500006
v -3.7654054 0.010265999 1.2499994
v -3.7654052 0.0102664055 -1.2500006
v 1.2345947 0.00026640535 -1.2499998
v -1.2654053 0.00026640535 -1.2500002
v -1.2654053 -0.14233151 -1.2500002
v 1.2345947 -0.14233151 -1.2499998
v 3.7345946 0.00026640535 -1.2499994
v 3.7345946 -0.14233151 -1.2499994
v -3.7654052 -0.14233151 -1.2500006
v -1.2654053 -0.14233151 -1.2500002
v -1.2654053 0.00026640535 -1.2500002
v -3.7654052 0.00026640535 -1.2500006
v -1.2654053 0.036655147 -1.2500002
v -3.7654052 0.0102664055 -1.2500006
v -3.7654052 0.00026640535 -1.2500006
vt 0.9995117 0.33081055
vt 0.66796875 0.3334961
vt 0.66796875 0.33081055
vt 0.9995117 0.33325195
vt 0.6665039 0.33325195
vt 0.6665039 0.6665039
vt 0.9995117 0.6665039
vt 0.6665039 0.9995117
vt 0.9995117 0.9995117
vt 0.9995117 0.00032520294
vt 0.6665039 0.33325195
vt 0.6665039 0.00032520294
vt 0.9995117 0.9995117
vt 0.9916992 0.9995117
vt 0.9916992 0.6665039
vt 0.9995117 0.6665039
vt 0.9916992 0.33325195
vt 0.9995117 0.33325195
vt 0.9916992 0.00034737587
vt 0.99853516 0.00034737587
vt 0.9995117 0.0003399849
vt 0.6669922 0.9995117
vt 0.6669922 0.99121094
vt 0.9995117 0.99121094
vt 0.9995117 0.9995117
vt 0.9995117 0.0021514893
vt 0.9995117 0.008682251
vt 0.6665039 0.008682251
vt 0.6665039 0.0021514893
vt 0.9995117 0.00034427643
vt 0.6665039 0.00034427643
vt 0.9995117 0.6665039
vt 0.9995117 0.3334961
vt 0.9916992 0.3334961
vt 0.9916992 0.6665039
vt 0.9995117 0.9995117
vt 0.9916992 0.9995117
vt 0.6767578 0.00034737587
vt 0.6767578 0.3334961
vt 0.6689453 0.3334961
vt 0.6689453 0.0021514893
vt 0.6665039 0.33325195
vt 0.6665039 0.00034308434
vt 0.6689453 0.00034308434
vn 1 0 1.1920929E-07
vn 1 0 1.1920929E-07
vn 1 0 1.1920929E-07
vn -0.0016384125 1 0.0036392212
vn -0 1 1.7881393E-07
vn -0 1 1.7881393E-07
vn -0 1 1.7881393E-07
vn -0 1 1.7881393E-07
vn -0 1 1.7881393E-07
vn -0.003276825 1 0.0072784424
vn -0.003276825 1 0.0072784424
vn -0.003276825 1 0.0072784424
vn -1.1920929E-07 0 1
vn -1.1920929E-07 0 1
vn -2.3841858E-07 0 1
vn -2.3841858E-07 0 1
vn -2.3841858E-07 0 1
vn -2.3841858E-07 0 1
vn -1.1920929E-07 0 1
vn -1.1920929E-07 0 1
vn -1.1920929E-07 0 1
vn 1 0 1.1920929E-07
vn 1 0 1.1920929E-07
vn 1 0 1.1920929E-07
vn 1 0 1.1920929E-07
vn -1 0 -1.1920929E-07
vn -1 0 -1.1920929E-07
vn -1 0 -1.1920929E-07
vn -1 0 -1.1920929E-07
vn -1 0 -1.1920929E-07
vn -1 0 -1.1920929E-07
vn 1.7881393E-07 0 -1
vn 1.7881393E-07 0 -1
vn 1.7881393E-07 0 -1
vn 1.7881393E-07 0 -1
vn 1.7881393E-07 0 -1
vn 1.7881393E-07 0 -1
vn 1.7881393E-07 0 -1
vn 1.7881393E-07 0 -1
vn 1.7881393E-07 0 -1
vn 1.7881393E-07 0 -1
vn 1.7881393E-07 0 -1
vn 1.7881393E-07 0 -1
vn 1.7881393E-07 0 -1
g MetroArea_Ground_PassgaeWay_05_0
f 3/3/3 2/2/2 1/1/1
f 6/6/6 5/5/5 4/4/4
f 7/7/7 6/6/6 4/4/4
f 8/8/8 6/6/6 7/7/7
f 9/9/9 8/8/8 7/7/7
f 4/4/4 11/11/11 10/10/10
f 11/11/11 12/12/12 10/10/10
f 15/15/15 14/14/14 13/13/13
f 16/16/16 15/15/15 13/13/13
f 17/17/17 15/15/15 16/16/16
f 18/18/18 17/17/17 16/16/16
f 19/19/19 17/17/17 18/18/18
f 20/20/20 19/19/19 18/18/18
f 18/18/18 21/21/21 20/20/20
f 24/24/24 23/23/23 22/22/22
f 25/25/25 24/24/24 22/22/22
f 28/28/28 27/27/27 26/26/26
f 29/29/29 28/28/28 26/26/26
f 26/26/26 30/30/30 29/29/29
f 30/30/30 31/31/31 29/29/29
f 34/34/34 33/33/33 32/32/32
f 35/35/35 34/34/34 32/32/32
f 35/35/35 32/32/32 36/36/36
f 37/37/37 35/35/35 36/36/36
f 40/40/40 39/39/39 38/38/38
f 41/41/41 40/40/40 38/38/38
f 43/43/43 42/42/42 40/40/40
f 44/44/44 43/43/43 40/40/40
