g MetroArea_Ground_IronNet_01
v -2 0.0018357562 2
v -2 0.0018357562 -2
v 2 0.0018357562 -2
v 2 0.0018357562 2
v -2 -0.0018357562 2
v 2 -0.0018357562 2
v 2 -0.0018357562 -2
v -2 -0.0018357562 -2
v 2 -0.069899514 -2
v 2 -0.06989935 2.0000002
v 0.4209204 -0.069899365 2.0000002
v 0.4209204 -0.069899514 -2
v 1.7219458 -0.08877407 1.7219446
v 1.7219458 -0.088774085 0.03215088
v 0.9017016 -0.08877407 0.03215088
v 0.9017016 -0.08877407 1.7219446
v -1.7219434 -0.08877417 -1.7219448
v -1.7219434 -0.08877405 -0.032151185
v -0.6887793 -0.08877403 -0.032151185
v -0.6887793 -0.08877417 -1.7219448
v -1.7219434 -0.08877407 1.7219442
v -0.6887793 -0.08877407 1.7219446
v -0.6887793 -0.08877407 0.03215088
v -1.7219434 -0.088774085 0.032150574
v 0.9017016 -0.08877417 -1.7219448
v -0.6887793 -0.08877417 -1.7219448
v -0.6887793 -0.08877403 -0.032151185
v 0.9017016 -0.08877403 -0.032151185
v -0.6887793 -0.08877407 1.7219446
v 0.9017016 -0.08877407 1.7219446
v 0.9017016 -0.08877407 0.03215088
v -0.6887793 -0.08877407 0.03215088
v 1.7219458 -0.08877417 -1.7219448
v 0.9017016 -0.08877417 -1.7219448
v 0.9017016 -0.08877403 -0.032151185
v 1.7219458 -0.08877405 -0.03215088
v -1.5919665 -0.069899514 -2
v 0.4209204 -0.069899514 -2
v 0.4209204 -0.069899365 2.0000002
v -1.5919665 -0.069899336 2.0000002
v -2 -0.069899514 -2
v -1.5919665 -0.069899514 -2
v -1.5919665 -0.069899336 2.0000002
v -2 -0.06989935 2.0000002
v -1.7219434 -0.08877401 1.9999996
v -1.7219434 -0.08877418 -2
v -2 -0.08877418 -2
v -2 -0.08877401 1.9999996
v 2 -0.08877401 2.0000002
v 2 -0.08877418 -2
v 1.7219434 -0.08877418 -2
v 1.7219434 -0.08877401 2.0000002
v -1.7219421 -0.08877424 -1.7219446
v 1.7219458 -0.08877424 -1.7219446
v 1.7219458 -0.088774204 -2
v -1.7219421 -0.088774204 -2
v 1.7219458 -0.08877401 1.7219446
v -1.7219434 -0.08877401 1.7219434
v -1.7219434 -0.08877401 1.9999987
v 1.7219458 -0.08877401 2
v 1.7219458 -0.08877411 -0.03215088
v -1.7219446 -0.08877411 -0.03215088
v -1.7219434 -0.08877417 0.03215088
v 1.7219458 -0.08877417 0.03215088
vt 0.9995117 0.9995117
vt 0.9995117 0.00028252602
vt 0.00028252602 0.00028252602
vt 0.00028252602 0.9995117
vt 0.9995117 0.9995117
vt 0.00028252602 0.9995117
vt 0.00028252602 0.00028252602
vt 0.9995117 0.00028252602
vt 0.48486328 2.3398438
vt 0.48486328 0.4033203
vt 0.10266113 0.4033203
vt 0.10266113 2.3398438
vt 0.8100586 1.0673828
vt 0.8100586 0.24963379
vt 0.6113281 0.24963379
vt 0.6113281 1.0673828
vt 0.74658203 0.24389648
vt 0.74658203 1.0615234
vt 0.9970703 1.0615234
vt 0.9970703 0.24389648
vt 0.74658203 1.0673828
vt 0.9970703 1.0673828
vt 0.9970703 0.24963379
vt 0.74658203 0.24963379
vt 0.9970703 0.24389648
vt 0.6113281 0.24389648
vt 0.6113281 1.0615234
vt 0.9970703 1.0615234
vt 0.6113281 1.0673828
vt 0.9970703 1.0673828
vt 0.9970703 0.24963379
vt 0.6113281 0.24963379
vt 0.8100586 0.24389648
vt 0.6113281 0.24389648
vt 0.6113281 1.0615234
vt 0.8100586 1.0615234
vt 0.10266113 2.3398438
vt 0.58984375 2.3398438
vt 0.58984375 0.4033203
vt 0.10266113 0.4033203
vt 0.4909668 2.3398438
vt 0.58984375 2.3398438
vt 0.58984375 0.4033203
vt 0.4909668 0.4033203
vt 0.07196045 -1.4609375
vt 0.07196045 0.49072266
vt 0.0041275024 0.49072266
vt 0.0041275024 -1.4609375
vt 0.0041275024 1.0068359
vt 0.0041275024 -0.9453125
vt 0.07196045 -0.9453125
vt 0.07196045 1.0068359
vt 0.07196045 0.2265625
vt 0.07196045 1.9072266
vt 0.0041275024 1.9072266
vt 0.0041275024 0.2265625
vt 0.07196045 0.37695312
vt 0.07196045 2.0566406
vt 0.0041275024 2.0566406
vt 0.0041275024 0.37695312
vt 0.095458984 -1.1142578
vt 0.095458984 0.5395508
vt 0.08001709 0.5395508
vt 0.08001709 -1.1142578
vn -0 1 0
vn -0 1 0
vn -0 1 0
vn -0 1 0
vn -0 -1 0
vn -0 -1 0
vn -0 -1 0
vn -0 -1 0
vn -0 1 0
vn -0 1 0
vn -0 1 0
vn -0 1 0
vn -0 -1 0
vn -0 -1 0
vn -0 -1 0
vn -0 -1 0
vn -0 -1 0
vn -0 -1 0
vn -0 -1 0
vn -0 -1 0
vn -0 -1 0
vn -0 -1 0
vn -0 -1 0
vn -0 -1 0
vn -0 -1 0
vn -0 -1 0
vn -0 -1 0
vn -0 -1 0
vn -0 -1 0
vn -0 -1 0
vn -0 -1 0
vn -0 -1 0
vn -0 -1 0
vn -0 -1 0
vn -0 -1 0
vn -0 -1 0
vn -0 1 0
vn -0 1 0
vn -0 1 0
vn -0 1 0
vn -0 1 0
vn -0 1 0
vn -0 1 0
vn -0 1 0
vn -0 -1 0
vn -0 -1 0
vn -0 -1 0
vn -0 -1 0
vn -0 -1 0
vn -0 -1 0
vn -0 -1 0
vn -0 -1 0
vn -0 -1 -1.1920929E-07
vn -0 -1 -1.1920929E-07
vn -0 -1 -1.1920929E-07
vn -0 -1 -1.1920929E-07
vn -0 -1 0
vn -0 -1 0
vn -0 -1 0
vn -0 -1 0
vn -0 -1 -8.940697E-07
vn -0 -1 -8.940697E-07
vn -0 -1 -8.940697E-07
vn -0 -1 -8.940697E-07
g MetroArea_Ground_IronNet_01_0
f 3/3/3 2/2/2 1/1/1
f 4/4/4 3/3/3 1/1/1
f 7/7/7 6/6/6 5/5/5
f 8/8/8 7/7/7 5/5/5
g MetroArea_Ground_IronNet_01_1
f 11/11/11 10/10/10 9/9/9
f 12/12/12 11/11/11 9/9/9
f 15/15/15 14/14/14 13/13/13
f 16/16/16 15/15/15 13/13/13
f 19/19/19 18/18/18 17/17/17
f 20/20/20 19/19/19 17/17/17
f 23/23/23 22/22/22 21/21/21
f 24/24/24 23/23/23 21/21/21
f 27/27/27 26/26/26 25/25/25
f 28/28/28 27/27/27 25/25/25
f 31/31/31 30/30/30 29/29/29
f 32/32/32 31/31/31 29/29/29
f 35/35/35 34/34/34 33/33/33
f 36/36/36 35/35/35 33/33/33
f 39/39/39 38/38/38 37/37/37
f 40/40/40 39/39/39 37/37/37
f 43/43/43 42/42/42 41/41/41
f 44/44/44 43/43/43 41/41/41
f 47/47/47 46/46/46 45/45/45
f 48/48/48 47/47/47 45/45/45
f 51/51/51 50/50/50 49/49/49
f 52/52/52 51/51/51 49/49/49
f 55/55/55 54/54/54 53/53/53
f 56/56/56 55/55/55 53/53/53
f 59/59/59 58/58/58 57/57/57
f 60/60/60 59/59/59 57/57/57
f 63/63/63 62/62/62 61/61/61
f 64/64/64 63/63/63 61/61/61
