g MetroArea_Building_Card_05
v -24.06416 95.01158 19.942152
v 12.190117 0.0009912109 19.888248
v -24.064219 0.0009814453 19.942118
v 12.190117 95.01158 19.88821
v 12.190117 109.662476 19.88818
v -24.06416 109.62814 19.942122
v 24.064178 95.01158 -6.423501
v 24.064178 95.01158 -19.942236
v 24.064062 0.0009716797 -19.942148
v 24.064062 0.0009814453 -6.4234276
v 24.064062 0.0009814453 -6.4234276
v 12.170977 0.0009912109 -6.423425
v 12.171094 95.01158 -6.423498
v 24.064178 95.01158 -6.423501
v 12.170977 0.0009912109 -6.423425
v 12.171094 95.01158 -3.829241
v 12.171094 95.01158 -6.423498
v 12.170977 0.0009912109 -3.8291848
v 12.190117 95.01158 19.88821
v 12.190117 0.0009912109 19.888248
v 12.171094 95.01158 -3.829241
v 12.190117 95.01158 19.88821
v 12.190117 109.662476 19.88818
v 12.171094 109.696754 -3.829241
v 12.171094 109.696754 -6.4235106
v 12.171094 95.01158 -6.423498
v 12.171094 109.696754 -9.978877
v 12.171094 95.01158 -9.9787445
v 12.171094 95.01158 -16.450644
v 12.171094 109.696754 -16.45065
v 12.171094 111.5925 -9.978877
v 12.171094 111.5925 -6.4235106
v 12.171094 109.696754 -6.4235106
v 7.953672 109.69678 -6.4235106
v 7.953672 111.5925 -6.4235106
v 12.171094 111.5925 -6.4235106
vt 0.3083496 0.734375
vt 0.9926758 0.9926758
vt 0.9926758 0.734375
vt 0.3083496 0.9926758
vt 0.20251465 0.9926758
vt 0.20275879 0.734375
vt 0.26733398 0.6894531
vt 0.36547852 0.6894531
vt 0.36547852 0.00504303
vt 0.26733398 0.00504303
vt 0.26733398 0.00504303
vt 0.1928711 0.00504303
vt 0.1928711 0.6894531
vt 0.26733398 0.6894531
vt 0.1928711 0.00504303
vt 0.171875 0.6894531
vt 0.1928711 0.6894531
vt 0.171875 0.00504303
vt 0.008010864 0.6894531
vt 0.008010864 0.00504303
vt 0.12017822 0.8935547
vt 0.12017822 0.72509766
vt 0.014579773 0.72509766
vt 0.014343262 0.8935547
vt 0.014335632 0.91552734
vt 0.12017822 0.91552734
vt 0.014335632 0.9375
vt 0.12017822 0.9375
vt 0.12017822 0.98339844
vt 0.014335632 0.98339844
vt 0.0043563843 0.9375
vt 0.0043563843 0.91552734
vt 0.014144897 0.91552734
vt 0.014129639 0.8925781
vt 0.0043411255 0.8925781
vt 0.0043563843 0.91552734
vn 0.0014867783 0 1
vn 0.0014867783 0 1
vn 0.0014867783 0 1
vn 0.0014867783 0 1
vn 0.0014877319 2.0861626E-06 1
vn 0.0014877319 2.0861626E-06 1
vn 1 -1.2516975E-06 0
vn 1 -1.2516975E-06 0
vn 1 -1.2516975E-06 0
vn 1 -1.2516975E-06 0
vn 1.7881393E-07 7.748604E-07 1
vn 1.7881393E-07 7.748604E-07 1
vn 1.7881393E-07 7.748604E-07 1
vn 1.7881393E-07 7.748604E-07 1
vn 1 -1.2516975E-06 0
vn 1 -1.2516975E-06 0
vn 1 -1.2516975E-06 0
vn 1 -1.2516975E-06 0
vn 1 -5.9604645E-07 -0.0008044243
vn 1 -5.9604645E-07 -0.0008044243
vn 1 0 0
vn 1 0 -0.0008020401
vn 1 0 -0.0008020401
vn 1 0 0
vn 1 0 0
vn 1 0 0
vn 1 0 0
vn 1 0 0
vn 1 0 0
vn 1 0 0
vn 1 0 0
vn 1 0 0
vn -0 0 1
vn -0 0 1
vn -0 0 1
vn -0 0 1
g MetroArea_Building_Card_05_0
f 3/3/3 2/2/2 1/1/1
f 2/2/2 4/4/4 1/1/1
f 4/4/4 5/5/5 1/1/1
f 5/5/5 6/6/6 1/1/1
f 9/9/9 8/8/8 7/7/7
f 10/10/10 9/9/9 7/7/7
f 13/13/13 12/12/12 11/11/11
f 14/14/14 13/13/13 11/11/11
f 17/17/17 16/16/16 15/15/15
f 16/16/16 18/18/18 15/15/15
f 16/16/16 19/19/19 18/18/18
f 19/19/19 20/20/20 18/18/18
f 23/23/23 22/22/22 21/21/21
f 24/24/24 23/23/23 21/21/21
f 25/25/25 24/24/24 21/21/21
f 26/26/26 25/25/25 21/21/21
f 27/27/27 25/25/25 26/26/26
f 28/28/28 27/27/27 26/26/26
f 27/27/27 28/28/28 29/29/29
f 30/30/30 27/27/27 29/29/29
f 27/27/27 31/31/31 25/25/25
f 31/31/31 32/32/32 25/25/25
f 35/35/35 34/34/34 33/33/33
f 36/36/36 35/35/35 33/33/33
