g MetroArea_Ground_Damaged_07
v 0.4968649 -0.0021949576 0.10611626
v 0.45479217 0.0763963 0.10612968
v 0.4919708 0.08058989 0.10601249
v 0.45024535 -0.080750026 0.10613075
v 0.4954678 -0.075385235 0.10160713
v 0.4993048 -0.08760304 0.08642692
v 0.45147887 -0.09019259 0.09256271
v 0.31255552 0.07734658 0.10616073
v 0.26342744 -0.08969126 0.1032003
v 0.1485205 -0.08147735 0.1061895
v 0.20718291 0.07499263 0.106183775
v -0.007171936 -0.085934564 0.105875544
v 0.06722839 0.08031123 0.106214136
v -0.032760926 0.07936442 0.106236115
v -0.20448059 0.082879096 0.10627601
v -0.2406729 -0.08723097 0.10575958
v -0.47147033 -0.07501476 0.10633163
v -0.47314513 -0.09014978 0.09588043
v -0.48996368 -0.08113229 0.10222679
v -0.49794814 -0.09019409 0.07592529
v -0.49933365 -0.024072718 0.10558479
v -0.5010057 0.07102176 0.105681226
v -0.3955441 0.077105165 0.106315
v -0.32555845 0.08921574 0.10181694
v -0.46690032 0.08998742 0.09869941
v -0.5064216 0.0782673 0.09985504
v -0.49835098 0.08932111 0.07971031
v 0.44732696 -0.08942905 -0.10043938
v 0.29060638 -0.09018232 -0.09680115
v 0.48643097 -0.090207085 -0.09461914
v 0.45147887 -0.09019259 0.09256271
v 0.14708373 -0.090206765 -0.09380463
v -0.49794814 -0.09019409 0.07592529
v 0.1871637 -0.08853083 -0.10221176
v 0.094644465 -0.087777406 -0.10338928
v -0.024980774 -0.0902071 -0.09105926
v -0.07104034 -0.08973057 -0.09805962
v -0.14081268 -0.09020701 -0.08640342
v -0.2738452 -0.0902071 -0.09378563
v -0.18765807 -0.089734994 -0.100681834
v -0.34372923 -0.09017326 -0.097530365
v -0.49687836 -0.09020459 -0.06311592
v -0.50208694 -0.08860792 -0.08531868
v 0.4970114 -0.09013779 0.05914322
v 0.508403 -0.08673292 -0.064332046
v 0.50841796 -0.0854789 0.0030303192
v 0.4993048 -0.08760304 0.08642692
v -0.12694153 -0.089793414 0.09974609
v -0.47314513 -0.09014978 0.09588043
v 0.26342744 -0.08969126 0.1032003
v -0.2406729 -0.08723097 0.10575958
v -0.007171936 -0.085934564 0.105875544
v -0.5058621 0.0885225 0.017304076
v -0.49835098 0.08932111 0.07971031
v -0.5064216 0.0782673 0.09985504
v -0.5089389 0.06776697 0.09596031
v -0.5010057 0.07102176 0.105681226
v -0.5086235 -0.0486668 0.095667034
v -0.49933365 -0.024072718 0.10558479
v -0.50591356 -0.07511806 0.093692474
v -0.48996368 -0.08113229 0.10222679
v -0.49794814 -0.09019409 0.07592529
v -0.5089215 -0.084160164 0.06880699
v -0.50894696 0.06485433 -0.09086548
v -0.50792235 -0.086478285 0.017874526
v -0.49687836 -0.09020459 -0.06311592
v -0.50736266 -0.086224936 -0.04688713
v -0.50208694 -0.08860792 -0.08531868
v -0.50895905 -0.06859989 -0.09352943
v -0.50361645 -0.0774478 -0.10129288
v -0.5051823 0.0093027875 -0.1049826
v -0.5059218 0.077363044 -0.10045631
v -0.48707548 0.090158775 -0.0997142
v -0.49962127 0.06606374 -0.10612877
v -0.48414764 0.08457839 -0.104656674
v 0.49117613 0.08691067 -0.09785293
v 0.49401152 0.09019675 -0.08253128
v 0.32901153 0.08761315 -0.10615631
v 0.1695932 0.09007172 -0.10093414
v 0.13201202 0.08071183 -0.106331095
v -0.0015579223 0.08623162 -0.10582283
v 0.031600647 0.09014403 0.098695904
v 0.49726012 0.09018893 0.04348976
v 0.06380218 0.09019158 -0.091140896
v 0.5007696 0.08978335 -0.032210615
v 0.5042038 0.08808259 0.033287965
v 0.4982074 0.08974967 0.08577133
v 0.48708525 0.08991721 0.098696366
v -0.22748809 0.090207085 -0.09839103
v -0.16523224 0.08132474 -0.10633163
v -0.31608337 0.08636149 -0.10558372
v -0.4401605 0.09020661 -0.09836174
v -0.48414764 0.08457839 -0.104656674
v -0.48707548 0.090158775 -0.0997142
v -0.18407531 0.09020148 0.09367195
v -0.46690032 0.08998742 0.09869941
v -0.49835098 0.08932111 0.07971031
v -0.5058621 0.0885225 0.017304076
v -0.32555845 0.08921574 0.10181694
v -0.20448059 0.082879096 0.10627601
v -0.032760926 0.07936442 0.106236115
v 0.06722839 0.08031123 0.106214136
v 0.21456115 0.09009126 0.101555556
v 0.20718291 0.07499263 0.106183775
v 0.31255552 0.07734658 0.10616073
v 0.35818937 0.08868672 0.103536144
v 0.45479217 0.0763963 0.10612968
v 0.4919708 0.08058989 0.10601249
v 0.5059323 -0.07287235 -0.09900246
v 0.48643097 -0.090207085 -0.09461914
v 0.508403 -0.08673292 -0.064332046
v 0.5087787 -0.020882793 -0.09328842
v 0.50841796 -0.0854789 0.0030303192
v 0.50777555 0.041853238 -0.09885117
v 0.5086929 0.08135205 -0.07759048
v 0.5000854 -0.048167024 -0.105904005
v 0.5024423 0.05755784 -0.10522888
v 0.50311464 0.0781498 -0.09761818
v 0.49117613 0.08691067 -0.09785293
v 0.49401152 0.09019675 -0.08253128
v 0.5007696 0.08978335 -0.032210615
v 0.5042038 0.08808259 0.033287965
v 0.5088339 0.07712205 0.07499115
v 0.50895935 -0.07716652 0.08613731
v 0.5052487 0.07933978 0.09833862
v 0.4982074 0.08974967 0.08577133
v 0.48708525 0.08991721 0.098696366
v 0.4919708 0.08058989 0.10601249
v 0.4993048 -0.08760304 0.08642692
v 0.4970114 -0.09013779 0.05914322
v 0.4954678 -0.075385235 0.10160713
v 0.4968649 -0.0021949576 0.10611626
v 0.50849944 0.004840717 0.09973251
v 0.504523 0.041286297 0.1053186
v -0.0015579223 0.08623162 -0.10582283
v -0.16523224 0.08132474 -0.10633163
v 0.13201202 0.08071183 -0.106331095
v 0.11079101 -0.079376884 -0.10626259
v 0.15952453 -0.082118936 -0.10616127
v 0.30390838 -0.08275414 -0.106317975
v 0.32901153 0.08761315 -0.10615631
v -0.013982238 -0.081308775 -0.10609199
v 0.094644465 -0.087777406 -0.10338928
v 0.1871637 -0.08853083 -0.10221176
v -0.07104034 -0.08973057 -0.09805962
v 0.26347625 -0.08949621 -0.1030838
v 0.29060638 -0.09018232 -0.09680115
v 0.44732696 -0.08942905 -0.10043938
v -0.1356189 -0.082426794 -0.10588119
v -0.14081268 -0.09020701 -0.08640342
v -0.18765807 -0.089734994 -0.100681834
v -0.20519897 -0.08207077 -0.105837554
v -0.2738452 -0.0902071 -0.09378563
v -0.34372923 -0.09017326 -0.097530365
v -0.3872336 -0.07934351 -0.106241226
v -0.31608337 0.08636149 -0.10558372
v 0.46806213 -0.07762151 -0.10632881
v -0.4890106 -0.08072342 -0.10620346
v -0.50208694 -0.08860792 -0.08531868
v -0.50361645 -0.0774478 -0.10129288
v -0.5051823 0.0093027875 -0.1049826
v -0.49962127 0.06606374 -0.10612877
v -0.48414764 0.08457839 -0.104656674
v 0.4884332 -0.08050556 -0.10588844
v 0.48643097 -0.090207085 -0.09461914
v 0.5059323 -0.07287235 -0.09900246
v 0.5000854 -0.048167024 -0.105904005
v 0.5024423 0.05755784 -0.10522888
v 0.49117613 0.08691067 -0.09785293
v 0.50311464 0.0781498 -0.09761818
vt 0.11071777 0.69091797
vt 0.13427734 0.7036133
vt 0.13562012 0.6923828
vt 0.087402344 0.70458984
vt 0.088012695 0.69091797
vt 0.08154297 0.6899414
vt 0.08258057 0.70410156
vt 0.13427734 0.74609375
vt 0.08404541 0.7602539
vt 0.086364746 0.7949219
vt 0.13317871 0.77783203
vt 0.08459473 0.8413086
vt 0.13439941 0.81933594
vt 0.13391113 0.8491211
vt 0.13464355 0.9003906
vt 0.083740234 0.9111328
vt 0.08734131 0.98046875
vt 0.081848145 0.98095703
vt 0.08538818 0.98583984
vt 0.07739258 0.9892578
vt 0.10253906 0.98876953
vt 0.13098145 0.9892578
vt 0.1328125 0.95751953
vt 0.13671875 0.93652344
vt 0.13708496 0.9790039
vt 0.13378906 0.99072266
vt 0.14086914 0.9892578
vt 0.009918213 0.7060547
vt 0.011047363 0.7529297
vt 0.011672974 0.69433594
vt 0.06762695 0.70458984
vt 0.011940002 0.79589844
vt 0.062683105 0.98876953
vt 0.009376526 0.7836914
vt 0.008995056 0.81152344
vt 0.012763977 0.84716797
vt 0.010673523 0.86083984
vt 0.014152527 0.88183594
vt 0.011940002 0.9213867
vt 0.009880066 0.8959961
vt 0.010818481 0.9423828
vt 0.021118164 0.98828125
vt 0.014465332 0.9897461
vt 0.057647705 0.69091797
vt 0.02078247 0.6875
vt 0.040893555 0.6875
vt 0.06585693 0.6904297
vt 0.06976318 0.8779297
vt 0.068603516 0.9814453
vt 0.07086182 0.7607422
vt 0.07171631 0.9116211
vt 0.072021484 0.8417969
vt 0.7050781 0.94677734
vt 0.7060547 0.9277344
vt 0.70214844 0.921875
vt 0.69873047 0.92333984
vt 0.69970703 0.9194336
vt 0.6640625 0.92333984
vt 0.6713867 0.9189453
vt 0.65625 0.9238281
vt 0.6533203 0.9189453
vt 0.64990234 0.92871094
vt 0.6533203 0.93115234
vt 0.6977539 0.9790039
vt 0.65283203 0.94628906
vt 0.64941406 0.9707031
vt 0.65283203 0.9658203
vt 0.6513672 0.97753906
vt 0.65771484 0.97998047
vt 0.65527344 0.98291016
vt 0.68115234 0.98339844
vt 0.70166016 0.9819336
vt 0.7084961 0.9819336
vt 0.69873047 0.984375
vt 0.70751953 0.9848633
vt 0.21252441 0.6923828
vt 0.20788574 0.69140625
vt 0.21508789 0.74072266
vt 0.21350098 0.7885742
vt 0.2166748 0.7998047
vt 0.21484375 0.83984375
vt 0.15368652 0.82958984
vt 0.17016602 0.6904297
vt 0.21032715 0.8203125
vt 0.19274902 0.6894531
vt 0.17321777 0.68847656
vt 0.1574707 0.6904297
vt 0.15356445 0.69384766
vt 0.21252441 0.90722656
vt 0.21606445 0.8886719
vt 0.21484375 0.93359375
vt 0.21240234 0.9707031
vt 0.21484375 0.9838867
vt 0.21276855 0.9848633
vt 0.15515137 0.89404297
vt 0.15344238 0.9785156
vt 0.15905762 0.98828125
vt 0.17773438 0.9902344
vt 0.15258789 0.93652344
vt 0.15075684 0.9003906
vt 0.14978027 0.8491211
vt 0.14990234 0.81933594
vt 0.15283203 0.77490234
vt 0.14807129 0.77734375
vt 0.14868164 0.74560547
vt 0.15222168 0.7319336
vt 0.14880371 0.703125
vt 0.15002441 0.69189453
vt 0.5864258 0.92285156
vt 0.5786133 0.9223633
vt 0.58251953 0.93310547
vt 0.6020508 0.9248047
vt 0.5830078 0.9536133
vt 0.62109375 0.92285156
vt 0.6328125 0.9291992
vt 0.5942383 0.9199219
vt 0.62597656 0.92041016
vt 0.6323242 0.92285156
vt 0.63671875 0.9223633
vt 0.6376953 0.9272461
vt 0.63623047 0.9428711
vt 0.6352539 0.96240234
vt 0.63134766 0.97509766
vt 0.5854492 0.97802734
vt 0.6323242 0.9819336
vt 0.63623047 0.9785156
vt 0.6376953 0.9848633
vt 0.6333008 0.9863281
vt 0.58154297 0.9785156
vt 0.5800781 0.97021484
vt 0.5854492 0.984375
vt 0.60791016 0.9863281
vt 0.6098633 0.9824219
vt 0.62109375 0.9838867
vt 0.23022461 0.83935547
vt 0.23168945 0.8886719
vt 0.23205566 0.7993164
vt 0.27978516 0.80615234
vt 0.28076172 0.7915039
vt 0.28125 0.74853516
vt 0.23022461 0.74072266
vt 0.28051758 0.8432617
vt 0.2824707 0.81103516
vt 0.28295898 0.7832031
vt 0.28393555 0.86035156
vt 0.28320312 0.7602539
vt 0.2849121 0.7524414
vt 0.2836914 0.7055664
vt 0.28076172 0.8798828
vt 0.28686523 0.88134766
vt 0.28320312 0.8955078
vt 0.28051758 0.9003906
vt 0.2849121 0.92089844
vt 0.28393555 0.94189453
vt 0.27978516 0.9550781
vt 0.23022461 0.93359375
vt 0.27978516 0.69921875
vt 0.28027344 0.98535156
vt 0.2866211 0.9892578
vt 0.27954102 0.9897461
vt 0.25341797 0.9902344
vt 0.23657227 0.98876953
vt 0.23095703 0.9838867
vt 0.28051758 0.6928711
vt 0.2849121 0.6928711
vt 0.27807617 0.6875
vt 0.2709961 0.6894531
vt 0.23937988 0.68896484
vt 0.23022461 0.69189453
vt 0.23278809 0.68847656
vn 0.09106445 -0.021621704 0.99560547
vn 0.0033073425 0.04727173 0.99902344
vn 0.07879639 0.109680176 0.99072266
vn 0.009468079 -0.07745361 0.9970703
vn 0.31567383 -0.19665527 0.92822266
vn 0.37036133 -0.8959961 0.2446289
vn 0.0023841858 -0.9995117 0.023803711
vn -0.00029087067 0.013366699 1
vn 0.0007390976 -0.8984375 0.43896484
vn -0.00056505203 -0.016082764 1
vn 0.00028061867 0.026489258 0.9995117
vn -0.0008277893 -0.070617676 0.9975586
vn -0.00091362 0.051971436 0.99853516
vn 0.0011634827 0.047454834 0.99902344
vn 0.0013809204 0.04849243 0.99902344
vn 0.0007853508 -0.066345215 0.9975586
vn -0.008850098 -0.07342529 0.9970703
vn -0.01600647 -0.9658203 0.25830078
vn -0.35131836 -0.3881836 0.8520508
vn -0.011978149 -1 0.006137848
vn -0.2849121 -0.014129639 0.9584961
vn -0.072143555 0.031219482 0.9970703
vn -0.0024852753 0.03366089 0.9995117
vn -0.0033340454 0.9975586 0.07183838
vn -0.0039100647 0.9951172 0.09869385
vn -0.7055664 0.6191406 0.34545898
vn -0.15454102 0.9868164 0.046813965
vn 0.011550903 -0.73779297 -0.6748047
vn 0.0008263588 -1 -0.013870239
vn 0.020355225 -0.9995117 -0.020248413
vn 0.0023841858 -0.9995117 0.023803711
vn -2.69413E-05 -1 -0.0014314651
vn -0.011978149 -1 0.006137848
vn -0.008422852 -0.89208984 -0.45166016
vn -0.0017347336 -0.83740234 -0.546875
vn 0.00036144257 -1 -0.0060806274
vn -0.0020008087 -0.8925781 -0.45117188
vn 0.0009860992 -1 -0.019439697
vn 0.0010585785 -0.9995117 -0.024536133
vn 0.0032196045 -0.9472656 -0.3203125
vn -0.0017557144 -0.99316406 -0.118652344
vn -0.011756897 -1 -0.008354187
vn -0.2019043 -0.9589844 -0.19885254
vn 0.052947998 -0.99853516 0.009033203
vn 0.8286133 -0.55859375 -0.030532837
vn 0.99072266 -0.13684082 -0.00116539
vn 0.37036133 -0.8959961 0.2446289
vn 2.7120113E-05 -0.9980469 0.064208984
vn -0.01600647 -0.9658203 0.25830078
vn 0.0007390976 -0.8984375 0.43896484
vn 0.0007853508 -0.066345215 0.9975586
vn -0.0008277893 -0.070617676 0.9975586
vn -0.8364258 0.54833984 -0.004009247
vn -0.15454102 0.9868164 0.046813965
vn -0.7055664 0.6191406 0.34545898
vn -0.99902344 0.010925293 0.04046631
vn -0.072143555 0.031219482 0.9970703
vn -0.9873047 -0.020339966 0.15625
vn -0.2849121 -0.014129639 0.9584961
vn -0.7524414 -0.29345703 0.58935547
vn -0.35131836 -0.3881836 0.8520508
vn -0.011978149 -1 0.006137848
vn -0.99902344 -0.04360962 0.003753662
vn -0.9995117 0.020858765 -0.0154953
vn -0.98876953 -0.15063477 -0.0070877075
vn -0.011756897 -1 -0.008354187
vn -0.87353516 -0.48632812 -0.01651001
vn -0.2019043 -0.9589844 -0.19885254
vn -0.9995117 -0.016082764 -0.033477783
vn -0.52978516 -0.18908691 -0.82666016
vn -0.6928711 -0.0019235611 -0.7211914
vn -0.7602539 0.62060547 -0.19238281
vn -0.12658691 0.99072266 -0.044525146
vn -0.020843506 0.010917664 -0.9995117
vn -0.020568848 0.17236328 -0.9848633
vn 0.066467285 0.5751953 -0.8154297
vn 0.008003235 1 -0.009017944
vn 0.0035495758 0.15722656 -0.98779297
vn -0.0007624626 0.9995117 -0.030838013
vn 0.0006227493 0.019897461 -1
vn 0.0052452087 0.8183594 -0.57470703
vn -0.00013041496 0.9995117 0.023757935
vn 0.0024986267 1 0.0011177063
vn -0.0004274845 1 -0.01146698
vn 0.44482422 0.8955078 -0.013999939
vn 0.80859375 0.5883789 0.012535095
vn 0.51171875 0.8540039 0.093444824
vn 0.0043907166 0.9941406 0.1081543
vn 0.0007185936 0.9995117 -0.023788452
vn -0.0017690659 0.044677734 -0.99902344
vn -0.0018424988 0.062561035 -0.9980469
vn -0.0005245209 0.9995117 -0.03338623
vn -0.020568848 0.17236328 -0.9848633
vn -0.12658691 0.99072266 -0.044525146
vn -0.001332283 0.9995117 0.035583496
vn -0.0039100647 0.9951172 0.09869385
vn -0.15454102 0.9868164 0.046813965
vn -0.8364258 0.54833984 -0.004009247
vn -0.0033340454 0.9975586 0.07183838
vn 0.0013809204 0.04849243 0.99902344
vn 0.0011634827 0.047454834 0.99902344
vn -0.00091362 0.051971436 0.99853516
vn 0.0007472038 0.98828125 0.15356445
vn 0.00028061867 0.026489258 0.9995117
vn -0.00029087067 0.013366699 1
vn 0.007221222 0.97509766 0.22216797
vn 0.0033073425 0.04727173 0.99902344
vn 0.07879639 0.109680176 0.99072266
vn 0.91064453 -0.23168945 -0.34179688
vn 0.020355225 -0.9995117 -0.020248413
vn 0.8286133 -0.55859375 -0.030532837
vn 1 -0.0017633438 -0.018798828
vn 0.99072266 -0.13684082 -0.00116539
vn 0.95214844 0.011268616 -0.30566406
vn 0.9980469 0.05895996 -0.015213013
vn 0.22570801 -0.0035648346 -0.9741211
vn 0.034057617 0.039764404 -0.99853516
vn 0.7973633 0.3503418 -0.49121094
vn 0.066467285 0.5751953 -0.8154297
vn 0.008003235 1 -0.009017944
vn 0.44482422 0.8955078 -0.013999939
vn 0.80859375 0.5883789 0.012535095
vn 0.9995117 0.0234375 0.009590149
vn 0.99853516 -0.03933716 0.041992188
vn 0.91308594 0.22229004 0.34204102
vn 0.51171875 0.8540039 0.093444824
vn 0.0043907166 0.9941406 0.1081543
vn 0.07879639 0.109680176 0.99072266
vn 0.37036133 -0.8959961 0.2446289
vn 0.052947998 -0.99853516 0.009033203
vn 0.31567383 -0.19665527 0.92822266
vn 0.09106445 -0.021621704 0.99560547
vn 0.9746094 -0.02067566 0.22277832
vn 0.4753418 0.028137207 0.87939453
vn 0.0052452087 0.8183594 -0.57470703
vn -0.0017690659 0.044677734 -0.99902344
vn 0.0006227493 0.019897461 -1
vn -8.6188316E-05 -0.0074768066 -1
vn -0.00025129318 -0.020614624 -1
vn -0.0001847744 -0.04043579 -0.99902344
vn 0.0035495758 0.15722656 -0.98779297
vn -0.0025482178 -0.049224854 -0.99902344
vn -0.0017347336 -0.83740234 -0.546875
vn -0.008422852 -0.89208984 -0.45166016
vn -0.0020008087 -0.8925781 -0.45117188
vn -0.0034236908 -0.69140625 -0.72216797
vn 0.0008263588 -1 -0.013870239
vn 0.011550903 -0.73779297 -0.6748047
vn -0.0015850067 -0.07092285 -0.9975586
vn 0.0009860992 -1 -0.019439697
vn 0.0032196045 -0.9472656 -0.3203125
vn -0.00023674965 -0.029403687 -0.9995117
vn 0.0010585785 -0.9995117 -0.024536133
vn -0.0017557144 -0.99316406 -0.118652344
vn 0.0009851456 -0.035186768 -0.9995117
vn -0.0018424988 0.062561035 -0.9980469
vn 0.0030879974 -0.012428284 -1
vn -0.03036499 -0.22680664 -0.9736328
vn -0.2019043 -0.9589844 -0.19885254
vn -0.52978516 -0.18908691 -0.82666016
vn -0.6928711 -0.0019235611 -0.7211914
vn -0.020843506 0.010917664 -0.9995117
vn -0.020568848 0.17236328 -0.9848633
vn 0.19311523 -0.37548828 -0.90625
vn 0.020355225 -0.9995117 -0.020248413
vn 0.91064453 -0.23168945 -0.34179688
vn 0.22570801 -0.0035648346 -0.9741211
vn 0.034057617 0.039764404 -0.99853516
vn 0.066467285 0.5751953 -0.8154297
vn 0.7973633 0.3503418 -0.49121094
g MetroArea_Ground_Damaged_07_0
f 3/3/3 2/2/2 1/1/1
f 2/2/2 4/4/4 1/1/1
f 4/4/4 5/5/5 1/1/1
f 4/4/4 6/6/6 5/5/5
f 6/6/6 4/4/4 7/7/7
f 8/8/8 4/4/4 2/2/2
f 7/7/7 4/4/4 9/9/9
f 10/10/10 4/4/4 8/8/8
f 10/10/10 9/9/9 4/4/4
f 11/11/11 10/10/10 8/8/8
f 12/12/12 9/9/9 10/10/10
f 12/12/12 10/10/10 11/11/11
f 12/12/12 11/11/11 13/13/13
f 13/13/13 14/14/14 12/12/12
f 15/15/15 12/12/12 14/14/14
f 15/15/15 16/16/16 12/12/12
f 15/15/15 17/17/17 16/16/16
f 18/18/18 16/16/16 17/17/17
f 19/19/19 18/18/18 17/17/17
f 20/20/20 18/18/18 19/19/19
f 21/21/21 19/19/19 17/17/17
f 22/22/22 21/21/21 17/17/17
f 23/23/23 17/17/17 15/15/15
f 22/22/22 17/17/17 23/23/23
f 23/23/23 15/15/15 24/24/24
f 25/25/25 23/23/23 24/24/24
f 25/25/25 22/22/22 23/23/23
f 26/26/26 22/22/22 25/25/25
f 26/26/26 25/25/25 27/27/27
f 30/30/30 29/29/29 28/28/28
f 30/30/30 31/31/31 29/29/29
f 29/29/29 31/31/31 32/32/32
f 31/31/31 33/33/33 32/32/32
f 34/34/34 29/29/29 32/32/32
f 32/32/32 35/35/35 34/34/34
f 35/35/35 32/32/32 36/36/36
f 32/32/32 33/33/33 36/36/36
f 35/35/35 36/36/36 37/37/37
f 37/37/37 36/36/36 38/38/38
f 36/36/36 33/33/33 38/38/38
f 33/33/33 39/39/39 38/38/38
f 38/38/38 39/39/39 40/40/40
f 33/33/33 41/41/41 39/39/39
f 41/41/41 33/33/33 42/42/42
f 41/41/41 42/42/42 43/43/43
f 44/44/44 31/31/31 30/30/30
f 45/45/45 44/44/44 30/30/30
f 46/46/46 44/44/44 45/45/45
f 47/47/47 31/31/31 44/44/44
f 31/31/31 48/48/48 33/33/33
f 48/48/48 49/49/49 33/33/33
f 50/50/50 48/48/48 31/31/31
f 51/51/51 49/49/49 48/48/48
f 50/50/50 52/52/52 48/48/48
f 51/51/51 48/48/48 52/52/52
f 55/55/55 54/54/54 53/53/53
f 53/53/53 56/56/56 55/55/55
f 55/55/55 56/56/56 57/57/57
f 57/57/57 56/56/56 58/58/58
f 57/57/57 58/58/58 59/59/59
f 58/58/58 60/60/60 59/59/59
f 59/59/59 60/60/60 61/61/61
f 60/60/60 62/62/62 61/61/61
f 63/63/63 60/60/60 58/58/58
f 63/63/63 58/58/58 56/56/56
f 62/62/62 60/60/60 63/63/63
f 64/64/64 56/56/56 53/53/53
f 63/63/63 56/56/56 64/64/64
f 62/62/62 63/63/63 65/65/65
f 64/64/64 65/65/65 63/63/63
f 66/66/66 62/62/62 65/65/65
f 67/67/67 66/66/66 65/65/65
f 66/66/66 67/67/67 68/68/68
f 69/69/69 67/67/67 65/65/65
f 69/69/69 68/68/68 67/67/67
f 64/64/64 69/69/69 65/65/65
f 70/70/70 68/68/68 69/69/69
f 70/70/70 69/69/69 71/71/71
f 71/71/71 69/69/69 64/64/64
f 72/72/72 64/64/64 53/53/53
f 72/72/72 71/71/71 64/64/64
f 72/72/72 53/53/53 73/73/73
f 74/74/74 71/71/71 72/72/72
f 75/75/75 72/72/72 73/73/73
f 72/72/72 75/75/75 74/74/74
f 78/78/78 77/77/77 76/76/76
f 79/79/79 77/77/77 78/78/78
f 78/78/78 80/80/80 79/79/79
f 79/79/79 80/80/80 81/81/81
f 79/79/79 82/82/82 77/77/77
f 77/77/77 82/82/82 83/83/83
f 84/84/84 82/82/82 79/79/79
f 84/84/84 79/79/79 81/81/81
f 77/77/77 83/83/83 85/85/85
f 83/83/83 86/86/86 85/85/85
f 83/83/83 87/87/87 86/86/86
f 83/83/83 88/88/88 87/87/87
f 89/89/89 84/84/84 81/81/81
f 89/89/89 82/82/82 84/84/84
f 90/90/90 89/89/89 81/81/81
f 91/91/91 89/89/89 90/90/90
f 92/92/92 89/89/89 91/91/91
f 91/91/91 93/93/93 92/92/92
f 94/94/94 92/92/92 93/93/93
f 89/89/89 95/95/95 82/82/82
f 92/92/92 95/95/95 89/89/89
f 94/94/94 96/96/96 92/92/92
f 94/94/94 97/97/97 96/96/96
f 98/98/98 97/97/97 94/94/94
f 96/96/96 99/99/99 92/92/92
f 92/92/92 99/99/99 95/95/95
f 99/99/99 100/100/100 95/95/95
f 100/100/100 82/82/82 95/95/95
f 82/82/82 100/100/100 101/101/101
f 101/101/101 102/102/102 82/82/82
f 82/82/82 102/102/102 103/103/103
f 104/104/104 103/103/103 102/102/102
f 103/103/103 83/83/83 82/82/82
f 104/104/104 105/105/105 103/103/103
f 103/103/103 106/106/106 83/83/83
f 106/106/106 103/103/103 105/105/105
f 106/106/106 88/88/88 83/83/83
f 106/106/106 105/105/105 107/107/107
f 107/107/107 88/88/88 106/106/106
f 107/107/107 108/108/108 88/88/88
f 111/111/111 110/110/110 109/109/109
f 112/112/112 111/111/111 109/109/109
f 113/113/113 111/111/111 112/112/112
f 112/112/112 109/109/109 114/114/114
f 115/115/115 112/112/112 114/114/114
f 114/114/114 109/109/109 116/116/116
f 114/114/114 116/116/116 117/117/117
f 118/118/118 114/114/114 117/117/117
f 115/115/115 114/114/114 118/118/118
f 118/118/118 119/119/119 115/115/115
f 119/119/119 120/120/120 115/115/115
f 121/121/121 115/115/115 120/120/120
f 115/115/115 121/121/121 122/122/122
f 112/112/112 115/115/115 123/123/123
f 123/123/123 115/115/115 122/122/122
f 124/124/124 113/113/113 112/112/112
f 124/124/124 112/112/112 123/123/123
f 125/125/125 123/123/123 122/122/122
f 126/126/126 125/125/125 122/122/122
f 126/126/126 127/127/127 125/125/125
f 127/127/127 128/128/128 125/125/125
f 129/129/129 113/113/113 124/124/124
f 129/129/129 130/130/130 113/113/113
f 124/124/124 131/131/131 129/129/129
f 132/132/132 131/131/131 124/124/124
f 133/133/133 124/124/124 123/123/123
f 125/125/125 133/133/133 123/123/123
f 132/132/132 124/124/124 133/133/133
f 128/128/128 134/134/134 125/125/125
f 134/134/134 133/133/133 125/125/125
f 132/132/132 133/133/133 134/134/134
f 132/132/132 134/134/134 128/128/128
f 137/137/137 136/136/136 135/135/135
f 136/136/136 137/137/137 138/138/138
f 138/138/138 137/137/137 139/139/139
f 140/140/140 139/139/139 137/137/137
f 140/140/140 137/137/137 141/141/141
f 136/136/136 138/138/138 142/142/142
f 139/139/139 143/143/143 138/138/138
f 143/143/143 142/142/142 138/138/138
f 144/144/144 143/143/143 139/139/139
f 143/143/143 145/145/145 142/142/142
f 146/146/146 144/144/144 139/139/139
f 140/140/140 146/146/146 139/139/139
f 144/144/144 146/146/146 147/147/147
f 140/140/140 147/147/147 146/146/146
f 148/148/148 147/147/147 140/140/140
f 142/142/142 145/145/145 149/149/149
f 142/142/142 149/149/149 136/136/136
f 145/145/145 150/150/150 149/149/149
f 150/150/150 151/151/151 149/149/149
f 149/149/149 151/151/151 152/152/152
f 149/149/149 152/152/152 136/136/136
f 153/153/153 152/152/152 151/151/151
f 152/152/152 153/153/153 154/154/154
f 152/152/152 155/155/155 136/136/136
f 152/152/152 154/154/154 155/155/155
f 156/156/156 136/136/136 155/155/155
f 148/148/148 140/140/140 157/157/157
f 141/141/141 157/157/157 140/140/140
f 155/155/155 154/154/154 158/158/158
f 154/154/154 159/159/159 158/158/158
f 158/158/158 159/159/159 160/160/160
f 158/158/158 160/160/160 161/161/161
f 158/158/158 161/161/161 162/162/162
f 162/162/162 155/155/155 158/158/158
f 155/155/155 162/162/162 156/156/156
f 156/156/156 162/162/162 163/163/163
f 164/164/164 148/148/148 157/157/157
f 164/164/164 165/165/165 148/148/148
f 164/164/164 166/166/166 165/165/165
f 166/166/166 164/164/164 167/167/167
f 167/167/167 164/164/164 157/157/157
f 167/167/167 157/157/157 168/168/168
f 157/157/157 141/141/141 168/168/168
f 169/169/169 168/168/168 141/141/141
f 170/170/170 168/168/168 169/169/169
