g MetroArea_Ground_Trainstation_08
v -2.7123249 0 -6
v 3.25 0 -6
v 3.25 0.18316415 -6
v -2.7123249 0.18316415 -6
v -2.924196 0.18316415 -5.9600396
v -2.924196 0 -5.9600396
v -3.0954187 0.18316415 -5.8462462
v -3.0954187 0 -5.8462462
v -3.209826 0.18316415 -5.675941
v -3.209826 0 -5.675941
v -3.25 0.18316415 -5.4652033
v -3.25 0 -5.4652033
v -3.25 0 5.4652033
v -3.25 0.18316415 5.4652033
v -3.209826 0.18316415 5.675941
v -3.209826 0 5.675941
v -3.0954187 0.18316415 5.8462462
v -3.0954187 0 5.8462462
v -2.924196 0.18316415 5.9600396
v -2.924196 0 5.9600396
v -2.7123249 0.18316415 6
v -2.7123249 0 6
v 3.25 0 6
v 3.25 0.18316415 6
v -2.7123249 0.18316415 6
v 3.25 0.18316415 5.799999
v 3.25 0.18316415 6
v -2.7123249 0.18316415 5.799999
v -2.924196 0.18316415 5.9600396
v -2.8457403 0.18316415 5.771644
v -3.0954187 0.18316415 5.8462462
v -2.9504507 0.18316415 5.702053
v -3.209826 0.18316415 5.675941
v -3.0204155 0.18316415 5.597905
v -3.25 0.18316415 5.4652033
v -3.048923 0.18316415 5.4652033
v -3.25 0.18316415 -5.4652033
v -3.048923 0.18316415 -5.4652033
v -3.209826 0.18316415 -5.675941
v -3.0204155 0.18316415 -5.597905
v -3.0954187 0.18316415 -5.8462462
v -2.9504507 0.18316415 -5.702053
v -2.924196 0.18316415 -5.9600396
v -2.8457403 0.18316415 -5.771644
v -2.7123249 0.18316415 -6
v -2.7123249 0.18316415 -5.799999
v 3.25 0.18316415 -6
v 3.25 0.18316415 -5.799999
v -2.7123249 0.18316415 5.799999
v 3.25 0.13257277 5.799999
v 3.25 0.18316415 5.799999
v -2.7123249 0.13257277 5.799999
v -2.8457403 0.18316415 5.771644
v -2.8457403 0.13257277 5.771644
v -2.9504507 0.18316415 5.702053
v -2.9504507 0.13257277 5.702053
v -3.0204155 0.18316415 5.597905
v -3.0204155 0.13257277 5.597905
v -3.048923 0.18316415 5.4652033
v -3.048923 0.13257277 5.4652033
v -3.048923 0.18316415 -5.4652033
v -3.048923 0.13257277 -5.4652033
v -3.0204155 0.18316415 -5.597905
v -3.0204155 0.13257277 -5.597905
v -2.9504507 0.18316415 -5.702053
v -2.9504507 0.13257277 -5.702053
v -2.8457403 0.18316415 -5.771644
v -2.8457403 0.13257277 -5.771644
v -2.7123249 0.18316415 -5.799999
v -2.7123249 0.13257277 -5.799999
v 3.25 0.18316415 -5.799999
v 3.25 0.13257277 -5.799999
v 3.25 0.13257277 -5.799999
v -2.8457403 0.13257277 -5.771644
v -2.7123249 0.13257277 -5.799999
v -2.9504507 0.13257277 -5.702053
v -3.0204155 0.13257277 -5.597905
v -3.048923 0.13257277 -5.4652033
v -3.048923 0.13257277 5.4652033
v 3.25 0.13257277 5.799999
v -3.0204155 0.13257277 5.597905
v -2.9504507 0.13257277 5.702053
v -2.8457403 0.13257277 5.771644
v -2.7123249 0.13257277 5.799999
vt 0.0019044876 2.8574219
vt 0.0019044876 3.8574219
vt 0.02835083 3.8574219
vt 0.02835083 2.8574219
vt 0.02835083 2.8222656
vt 0.0019044876 2.8222656
vt 0.02835083 2.7871094
vt 0.0019044876 2.7871094
vt 0.02835083 2.75
vt 0.0019044876 2.75
vt 0.02835083 2.7148438
vt 0.0019044876 2.7148438
vt 0.0019044876 0.8569336
vt 0.02835083 0.8569336
vt 0.02835083 0.8203125
vt 0.0019044876 0.8203125
vt 0.02835083 0.78515625
vt 0.0019044876 0.78515625
vt 0.02835083 0.7495117
vt 0.0019044876 0.7495117
vt 0.02835083 0.71435547
vt 0.0019044876 0.71435547
vt 0.0019044876 -0.28564453
vt 0.02835083 -0.28564453
vt 0.032043457 0.71435547
vt 0.061035156 -0.28564453
vt 0.032043457 -0.28564453
vt 0.061035156 0.71435547
vt 0.032043457 0.7495117
vt 0.061035156 0.7495117
vt 0.032043457 0.78515625
vt 0.061035156 0.78515625
vt 0.032043457 0.8203125
vt 0.061035156 0.8203125
vt 0.032043457 0.8569336
vt 0.061035156 0.8569336
vt 0.032043457 2.7148438
vt 0.061035156 2.7148438
vt 0.032043457 2.75
vt 0.061035156 2.75
vt 0.032043457 2.7871094
vt 0.061035156 2.7871094
vt 0.032043457 2.8222656
vt 0.061035156 2.8222656
vt 0.032043457 2.8574219
vt 0.061035156 2.8574219
vt 0.032043457 3.8574219
vt 0.061035156 3.8574219
vt 0.06518555 0.71435547
vt 0.0703125 -0.28564453
vt 0.06518555 -0.28564453
vt 0.0703125 0.71435547
vt 0.06518555 0.7495117
vt 0.0703125 0.7495117
vt 0.06518555 0.78515625
vt 0.0703125 0.78515625
vt 0.06518555 0.8203125
vt 0.0703125 0.8203125
vt 0.06518555 0.8569336
vt 0.0703125 0.8569336
vt 0.06518555 2.7148438
vt 0.0703125 2.7148438
vt 0.06518555 2.75
vt 0.0703125 2.75
vt 0.06518555 2.7871094
vt 0.0703125 2.7871094
vt 0.06518555 2.8222656
vt 0.0703125 2.8222656
vt 0.06518555 2.8574219
vt 0.0703125 2.8574219
vt 0.06518555 3.8574219
vt 0.0703125 3.8574219
vt -8.46982E-05 0.0012931824
vt 0.8071289 0.0049819946
vt 0.7890625 0.0012931824
vt 0.8203125 0.014038086
vt 0.82910156 0.02758789
vt 0.83251953 0.046142578
vt 0.83251953 1.4550781
vt -8.46982E-05 1.5
vt 0.82910156 1.4736328
vt 0.8203125 1.4873047
vt 0.8071289 1.4960938
vt 0.7890625 1.5
vn -0.0064735413 0 -1
vn -0 0 -1
vn -0 0 -1
vn -0.0064735413 0 -1
vn -0.3725586 0 -0.92822266
vn -0.3725586 0 -0.92822266
vn -0.7050781 0 -0.7089844
vn -0.7050781 0 -0.7089844
vn -0.9267578 0 -0.37597656
vn -0.9267578 0 -0.37597656
vn -1 0 -0.0036067963
vn -1 0 -0.0036067963
vn -1 0 0.0036067963
vn -1 0 0.0036067963
vn -0.9267578 0 0.37597656
vn -0.9267578 0 0.37597656
vn -0.7050781 0 0.7089844
vn -0.7050781 0 0.7089844
vn -0.3725586 0 0.92822266
vn -0.3725586 0 0.92822266
vn -0.0064735413 0 1
vn -0.0064735413 0 1
vn -0 0 1
vn -0 0 1
vn -0 1 0
vn -0 1 0
vn -0 1 0
vn -0 1 0
vn -0 1 0
vn -0 1 0
vn -0 1 0
vn -0 1 0
vn -0 1 0
vn -0 1 0
vn -0 1 0
vn -0 1 0
vn -0 1 0
vn -0 1 0
vn -0 1 0
vn -0 1 0
vn -0 1 0
vn -0 1 0
vn -0 1 0
vn -0 1 0
vn -0 1 0
vn -0 1 0
vn -0 1 0
vn -0 1 0
vn 0.004650116 0 -1
vn -0 0 -1
vn -0 0 -1
vn 0.004650116 0 -1
vn 0.3803711 0 -0.9248047
vn 0.3803711 0 -0.9248047
vn 0.7050781 0 -0.7089844
vn 0.7050781 0 -0.7089844
vn 0.92333984 0 -0.38378906
vn 0.92333984 0 -0.38378906
vn 1 0 -0.002576828
vn 1 0 -0.002576828
vn 1 0 0.002576828
vn 1 0 0.002576828
vn 0.92333984 0 0.38378906
vn 0.92333984 0 0.38378906
vn 0.7050781 0 0.7089844
vn 0.7050781 0 0.7089844
vn 0.3803711 0 0.9248047
vn 0.3803711 0 0.9248047
vn 0.004650116 0 1
vn 0.004650116 0 1
vn -0 0 1
vn -0 0 1
vn -0 1 0
vn -0 1 0
vn -0 1 0
vn -0 1 -1.1920929E-07
vn -0 1 0
vn -0 1 0
vn -0 1 0
vn -0 1 0
vn -0 1 0
vn -0 1 0
vn -0 1 0
vn -0 1 0
g MetroArea_Ground_Trainstation_08_0
f 3/3/3 2/2/2 1/1/1
f 4/4/4 3/3/3 1/1/1
f 5/5/5 4/4/4 1/1/1
f 6/6/6 5/5/5 1/1/1
f 7/7/7 5/5/5 6/6/6
f 8/8/8 7/7/7 6/6/6
f 9/9/9 7/7/7 8/8/8
f 10/10/10 9/9/9 8/8/8
f 11/11/11 9/9/9 10/10/10
f 12/12/12 11/11/11 10/10/10
f 11/11/11 12/12/12 13/13/13
f 14/14/14 11/11/11 13/13/13
f 14/14/14 13/13/13 15/15/15
f 13/13/13 16/16/16 15/15/15
f 15/15/15 16/16/16 17/17/17
f 16/16/16 18/18/18 17/17/17
f 17/17/17 18/18/18 19/19/19
f 18/18/18 20/20/20 19/19/19
f 19/19/19 20/20/20 21/21/21
f 20/20/20 22/22/22 21/21/21
f 22/22/22 23/23/23 21/21/21
f 23/23/23 24/24/24 21/21/21
f 27/27/27 26/26/26 25/25/25
f 26/26/26 28/28/28 25/25/25
f 25/25/25 28/28/28 29/29/29
f 28/28/28 30/30/30 29/29/29
f 29/29/29 30/30/30 31/31/31
f 30/30/30 32/32/32 31/31/31
f 31/31/31 32/32/32 33/33/33
f 32/32/32 34/34/34 33/33/33
f 33/33/33 34/34/34 35/35/35
f 34/34/34 36/36/36 35/35/35
f 35/35/35 36/36/36 37/37/37
f 36/36/36 38/38/38 37/37/37
f 37/37/37 38/38/38 39/39/39
f 38/38/38 40/40/40 39/39/39
f 39/39/39 40/40/40 41/41/41
f 40/40/40 42/42/42 41/41/41
f 41/41/41 42/42/42 43/43/43
f 42/42/42 44/44/44 43/43/43
f 43/43/43 44/44/44 45/45/45
f 44/44/44 46/46/46 45/45/45
f 45/45/45 46/46/46 47/47/47
f 46/46/46 48/48/48 47/47/47
f 51/51/51 50/50/50 49/49/49
f 50/50/50 52/52/52 49/49/49
f 49/49/49 52/52/52 53/53/53
f 52/52/52 54/54/54 53/53/53
f 53/53/53 54/54/54 55/55/55
f 54/54/54 56/56/56 55/55/55
f 55/55/55 56/56/56 57/57/57
f 56/56/56 58/58/58 57/57/57
f 57/57/57 58/58/58 59/59/59
f 58/58/58 60/60/60 59/59/59
f 59/59/59 60/60/60 61/61/61
f 60/60/60 62/62/62 61/61/61
f 61/61/61 62/62/62 63/63/63
f 62/62/62 64/64/64 63/63/63
f 63/63/63 64/64/64 65/65/65
f 64/64/64 66/66/66 65/65/65
f 65/65/65 66/66/66 67/67/67
f 66/66/66 68/68/68 67/67/67
f 67/67/67 68/68/68 69/69/69
f 68/68/68 70/70/70 69/69/69
f 69/69/69 70/70/70 71/71/71
f 70/70/70 72/72/72 71/71/71
g MetroArea_Ground_Trainstation_08_1
f 75/75/75 74/74/74 73/73/73
f 73/73/73 74/74/74 76/76/76
f 73/73/73 76/76/76 77/77/77
f 73/73/73 77/77/77 78/78/78
f 73/73/73 78/78/78 79/79/79
f 80/80/80 73/73/73 79/79/79
f 81/81/81 80/80/80 79/79/79
f 82/82/82 80/80/80 81/81/81
f 83/83/83 80/80/80 82/82/82
f 84/84/84 80/80/80 83/83/83
