g MetroArea_Wall_Temporary_02_Eff
v -0.03883015 3.497847 0.3926884
v 0.04363251 3.493165 0.3902719
v 0.04363251 3.499999 2.249998
v -0.03883015 3.497847 0.3926884
v 0.03983593 3.5 -1.858378
v 0.04363251 1.213915 -0.6892459
v 0.04363251 0.4334148 -1.828458
v 0.04363251 0.8082271 -1.210843
v 0.04363251 1.377721E-16 -2.249989
v 0.04363251 0.4334148 -1.828458
v 0.04363251 1.624465 -2.249989
v 0.04363251 1.377721E-16 -2.249989
v 0.04363251 0.2687842 -1.90441
v 0.04363251 0.4334148 -1.828458
v -0.03883015 3.497847 0.3926884
v 0.04363251 3.499999 2.249998
v -0.04363373 3.499998 2.249998
v 0.04363251 1.377721E-16 -2.249989
v 0.04363251 1.236498E-16 -2.019355
v 0.04363251 0.2687842 -1.90441
v 0.04363251 0.566484 -0.5944984
v 0.04363251 -4.577637E-07 -0.9334438
v 0.04363251 0.2046517 0.4524318
v 0.04363251 0.8082271 -1.210843
v 0.04363251 0.4334148 -1.828458
v 0.04363251 0.2836962 0.3798608
v 0.04363251 0.6628713 1.222988
v 0.04363251 1.104013 -0.7019207
v 0.04363251 1.213915 -0.6892459
v 0.04363251 0.9570753 0.2529266
v 0.04363251 1.507303 -0.3120331
v 0.04363251 1.814526 0.08296745
v 0.04363251 1.329305 0.8333084
v 0.04363251 1.774137 -0.6246353
v 0.04363251 1.767704 -1.457963
v 0.04363251 1.624465 -2.249989
v 0.04363251 0.4334148 -1.828458
v 0.04363251 2.195658 -0.9053751
v 0.04363251 3.5 -2.249989
v 0.04363251 1.624465 -2.249989
v 0.03983593 3.5 -1.858378
v 0.04363251 3.493165 0.3902719
v 0.04363251 0.6395157 1.634172
v 0.02609155 -7.629394E-07 0.4408211
v 0.03837697 -1.220703E-06 1.707991
v 0.04363251 -1.373291E-06 2.249998
v 0.04363251 1.054994 2.249998
v 0.04363251 1.863244 1.484009
v 0.04363251 1.752607 0.8307074
v 0.04363251 2.598648 1.742092
v 0.04363251 2.92616 2.249998
v 0.04363251 2.721414 1.248962
v 0.04363251 3.499999 2.249998
v 0.04363251 2.987978 0.000938034
v 0.04363251 2.212845 0.5950896
v 0.04363251 2.359381 0.7834932
v 0.04363251 2.092822 0.6870894
v -0.04363372 1.636553 -2.249989
v -0.04137328 1.234931E-16 -2.016796
v -0.04363373 1.377721E-16 -2.249989
v -0.04363372 0.4494703 -1.815695
v -0.04363373 1.096809 -0.7019014
v -0.04363372 0.5637411 -0.5953707
v -0.03086286 -3.051758E-07 -0.9327875
v -0.04363372 -7.629394E-07 0.4413598
v -0.04363372 0.2411161 0.4168248
v -0.04363373 1.770933 -1.458206
v -0.04363372 1.636553 -2.249989
v -0.04363372 0.9662944 0.2514252
v -0.04363372 0.9153135 1.073169
v -0.04363372 0.2411161 0.4168248
v -0.04363372 0.6595392 1.222726
v -0.04363372 1.761622 -0.5651965
v -0.04363373 2.105135 -0.9003596
v -0.04363372 2.330878 -0.7468377
v -0.04363372 1.636553 -2.249989
v -0.04363373 2.79698 -1.346109
v -0.04363373 3.5 -2.249989
v -0.04363373 3.5 -1.859729
v -0.03883015 3.497847 0.3926884
v -0.04363372 1.80266 -0.06770118
v -0.04363372 2.977517 -0.007165832
v -0.04363372 2.797713 0.9467926
v -0.04363372 2.0743 0.6851636
v -0.04363372 1.232101 0.665872
v -0.04363372 1.335679 0.8273715
v -0.04363372 1.75674 0.8247839
v -0.04363372 2.599386 1.743437
v -0.04363372 1.8689 1.48708
v -0.04363373 3.499998 2.249998
v -0.03883015 3.497847 0.3926884
v -0.04363373 2.926031 2.249998
v -0.04363372 1.048692 2.154994
v -0.04363372 1.056043 2.249999
v -0.04363372 0.6361558 1.634401
v -0.04363372 -1.068115E-06 2.249999
v -0.04363372 0.4632761 1.654359
v -0.04363372 -9.155273E-07 1.707841
v -0.04363372 0.2411161 0.4168248
v -0.03883015 3.497847 0.3926884
v -0.04363373 3.5 -1.859729
v 0.03983593 3.5 -1.858378
v -0.04363373 3.5 -2.249989
v 0.04363251 3.5 -2.249989
v 0.04363251 0.2046517 0.4524318
v 0.04363251 -4.577637E-07 -0.9334438
v 0.02609155 -7.629394E-07 0.4408211
v 0.04363251 0.6628713 1.222988
vt -0.37353516 0.50439453
vt -0.3737793 0.5136719
vt -0.11779785 0.5136719
vt -0.37353516 0.50439453
vt -0.68359375 0.5131836
vt -0.52246094 0.83251953
vt -0.6772461 0.93652344
vt -0.5942383 0.8881836
vt -0.7373047 0.9995117
vt -0.6816406 0.9433594
vt -0.7373047 0.7783203
vt -0.7373047 0.9995117
vt -0.6899414 0.96240234
vt -0.6816406 0.9433594
vt -0.37353516 0.50439453
vt -0.11779785 0.5136719
vt -0.11779785 0.5019531
vt -0.7373047 0.9995117
vt -0.7055664 0.9995117
vt -0.6899414 0.96240234
vt -0.50927734 0.9213867
vt -0.55615234 0.9995117
vt -0.36523438 0.9711914
vt -0.5942383 0.8881836
vt -0.6791992 0.9399414
vt -0.37524414 0.9604492
vt -0.25927734 0.9082031
vt -0.52441406 0.84765625
vt -0.52246094 0.83251953
vt -0.39282227 0.8676758
vt -0.47070312 0.7919922
vt -0.41625977 0.7495117
vt -0.31298828 0.81640625
vt -0.5136719 0.7553711
vt -0.62841797 0.7558594
vt -0.7373047 0.7758789
vt -0.6772461 0.93652344
vt -0.5522461 0.6972656
vt -0.7373047 0.5175781
vt -0.7373047 0.7729492
vt -0.68359375 0.5175781
vt -0.37402344 0.51953125
vt -0.20263672 0.9116211
vt -0.36694336 0.9995117
vt -0.19238281 0.9995117
vt -0.11779785 0.9995117
vt -0.11779785 0.8540039
vt -0.2232666 0.7426758
vt -0.31323242 0.7583008
vt -0.18774414 0.64160156
vt -0.11779785 0.5966797
vt -0.25561523 0.6245117
vt -0.11779785 0.5175781
vt -0.42749023 0.5878906
vt -0.34570312 0.6948242
vt -0.31982422 0.6748047
vt -0.3330078 0.7114258
vt -0.7373047 0.22290039
vt -0.7055664 0.0005002022
vt -0.7373047 0.0005002022
vt -0.6777344 0.062408447
vt -0.52441406 0.15148926
vt -0.5097656 0.078125
vt -0.55615234 0.0005002022
vt -0.36694336 0.0005002022
vt -0.37036133 0.033691406
vt -0.62841797 0.24438477
vt -0.7373047 0.22509766
vt -0.3930664 0.13354492
vt -0.27978516 0.12658691
vt -0.37524414 0.039123535
vt -0.25927734 0.091308594
vt -0.5053711 0.24304199
vt -0.5517578 0.2902832
vt -0.53027344 0.3215332
vt -0.7373047 0.22729492
vt -0.61279297 0.3857422
vt -0.7373047 0.48242188
vt -0.68359375 0.48242188
vt -0.3737793 0.48095703
vt -0.43701172 0.2487793
vt -0.42871094 0.41064453
vt -0.29736328 0.3857422
vt -0.33325195 0.2861328
vt -0.3359375 0.17016602
vt -0.3137207 0.18444824
vt -0.31396484 0.24243164
vt -0.1875 0.35839844
vt -0.22290039 0.2578125
vt -0.11779785 0.48242188
vt -0.37353516 0.48168945
vt -0.11779785 0.40356445
vt -0.13085938 0.14489746
vt -0.11779785 0.14587402
vt -0.20251465 0.088134766
vt -0.11779785 0.0005002022
vt -0.1998291 0.06427002
vt -0.19250488 0.0005002022
vt -0.36523438 0.028289795
vt -0.37353516 0.50439453
vt -0.68359375 0.5019531
vt -0.68359375 0.5131836
vt -0.7373047 0.5019531
vt -0.7373047 0.5136719
vt -0.36523438 0.9711914
vt -0.55615234 0.9995117
vt -0.36694336 0.9995117
vt -0.25927734 0.9082031
vn 0.05657959 0.99853516 -0.0036678314
vn 0.05657959 0.99853516 -0.0036678314
vn 0.05657959 0.99853516 -0.0036678314
vn 0.056762695 0.99853516 0.0029392242
vn 0.056762695 0.99853516 0.0029392242
vn 1 0 0
vn 1 0 0
vn 1 0 0
vn 1 0 0
vn 1 0 0
vn 1 0 0
vn 1 0 0
vn 1 0 0
vn 1 0 0
vn -0 1 -0.0011587143
vn -0 1 -0.0011587143
vn -0 1 -0.0011587143
vn 1 0 0
vn 1 0 0
vn 1 0 0
vn 1 0 0
vn 1 0 0
vn 1 0 0
vn 1 0 0
vn 1 0 0
vn 1 0 0
vn 1 0 0
vn 1 0 0
vn 1 0 0
vn 1 0 0
vn 1 0 0
vn 1 0 0
vn 1 0 0
vn 1 0 0
vn 1 0 0
vn 1 0 0
vn 1 0 0
vn 1 0 0
vn 1 0 0
vn 1 0 0
vn 1 0.0016813278 -0.0016832352
vn 1 0 0
vn 1 -0.009338379 -0.00969696
vn 1 -0.009338379 -0.00969696
vn 1 -0.009338379 -0.00969696
vn 1 0 0
vn 1 0 0
vn 1 0 0
vn 1 0 0
vn 1 0 0
vn 1 0 0
vn 1 0 0
vn 1 0 0
vn 1 0 0
vn 1 0 0
vn 1 0 0
vn 1 0 0
vn -1 0 0.009689331
vn -1 0 0.009689331
vn -1 0 0.009689331
vn -1 -0.0022621155 -0.0061836243
vn -1 0 0
vn -1 -0.017089844 -0.009292603
vn -1 -0.017089844 -0.009292603
vn -1 -0.017089844 -0.009292603
vn -1 0 0
vn -1 0 0
vn -1 0 0
vn -1 0 0
vn -1 0 0
vn -1 0 0
vn -1 0 0
vn -1 0 0
vn -1 0 0
vn -0.9995117 0.02810669 -0.02456665
vn -1 0 0
vn -1 0 0
vn -1 0 0
vn -1 0 0
vn -1 0.00806427 0.0015201569
vn -1 0 0
vn -1 0.00806427 0.0015201569
vn -1 0.00806427 0.0015201569
vn -1 0 0
vn -1 0 0
vn -1 0 0
vn -1 0 0
vn -1 0 0
vn -1 0 0
vn -1 0 0
vn -1 0.0048103333 -0.0025920868
vn -1 0 0
vn -1 0 0
vn -1 0 0
vn -1 0 0
vn -1 0 0
vn -1 0 0
vn -1 0 0
vn -1 0 0
vn -1.5497208E-05 1 0.0009560585
vn -0 1 0
vn -0 1 0
vn -0 1 0
vn -0 1 0
vn 0.99609375 -0.086120605 0.012718201
vn 0.99609375 -0.086120605 0.012718201
vn 0.99609375 -0.086120605 0.012718201
vn 0.9946289 -0.088256836 0.052459717
g MetroArea_Wall_Temporary_02_Eff_0
f 3/3/3 2/2/2 1/1/1
f 2/2/2 5/5/5 4/4/4
f 8/8/8 7/7/7 6/6/6
f 11/11/11 10/10/10 9/9/9
f 14/14/14 13/13/13 12/12/12
f 17/17/17 16/16/16 15/15/15
f 20/20/20 19/19/19 18/18/18
f 19/19/19 20/20/20 21/21/21
f 22/22/22 19/19/19 21/21/21
f 22/22/22 21/21/21 23/23/23
f 20/20/20 24/24/24 21/21/21
f 25/25/25 24/24/24 20/20/20
f 21/21/21 26/26/26 23/23/23
f 23/23/23 26/26/26 27/27/27
f 24/24/24 28/28/28 21/21/21
f 21/21/21 28/28/28 26/26/26
f 28/28/28 24/24/24 29/29/29
f 28/28/28 30/30/30 26/26/26
f 26/26/26 30/30/30 27/27/27
f 29/29/29 31/31/31 28/28/28
f 31/31/31 30/30/30 28/28/28
f 30/30/30 31/31/31 32/32/32
f 30/30/30 33/33/33 27/27/27
f 33/33/33 30/30/30 32/32/32
f 34/34/34 31/31/31 29/29/29
f 32/32/32 31/31/31 34/34/34
f 34/34/34 29/29/29 35/35/35
f 35/35/35 25/25/25 36/36/36
f 37/37/37 35/35/35 29/29/29
f 38/38/38 34/34/34 35/35/35
f 34/34/34 38/38/38 32/32/32
f 39/39/39 38/38/38 35/35/35
f 40/40/40 39/39/39 35/35/35
f 41/41/41 38/38/38 39/39/39
f 38/38/38 41/41/41 42/42/42
f 27/27/27 33/33/33 43/43/43
f 27/27/27 43/43/43 44/44/44
f 43/43/43 45/45/45 44/44/44
f 45/45/45 43/43/43 46/46/46
f 43/43/43 47/47/47 46/46/46
f 43/43/43 33/33/33 48/48/48
f 47/47/47 43/43/43 48/48/48
f 33/33/33 49/49/49 48/48/48
f 49/49/49 33/33/33 32/32/32
f 48/48/48 50/50/50 47/47/47
f 48/48/48 49/49/49 50/50/50
f 50/50/50 51/51/51 47/47/47
f 50/50/50 52/52/52 51/51/51
f 49/49/49 52/52/52 50/50/50
f 51/51/51 52/52/52 53/53/53
f 53/53/53 52/52/52 42/42/42
f 54/54/54 38/38/38 42/42/42
f 38/38/38 54/54/54 32/32/32
f 49/49/49 32/32/32 55/55/55
f 32/32/32 54/54/54 55/55/55
f 56/56/56 54/54/54 42/42/42
f 42/42/42 52/52/52 56/56/56
f 55/55/55 54/54/54 56/56/56
f 57/57/57 49/49/49 55/55/55
f 57/57/57 52/52/52 49/49/49
f 57/57/57 55/55/55 56/56/56
f 56/56/56 52/52/52 57/57/57
f 60/60/60 59/59/59 58/58/58
f 58/58/58 59/59/59 61/61/61
f 62/62/62 61/61/61 59/59/59
f 63/63/63 62/62/62 59/59/59
f 64/64/64 63/63/63 59/59/59
f 63/63/63 64/64/64 65/65/65
f 66/66/66 63/63/63 65/65/65
f 61/61/61 62/62/62 67/67/67
f 67/67/67 68/68/68 61/61/61
f 62/62/62 63/63/63 69/69/69
f 69/69/69 66/66/66 70/70/70
f 63/63/63 71/71/71 69/69/69
f 66/66/66 72/72/72 70/70/70
f 62/62/62 73/73/73 67/67/67
f 69/69/69 73/73/73 62/62/62
f 73/73/73 74/74/74 67/67/67
f 73/73/73 75/75/75 74/74/74
f 67/67/67 74/74/74 76/76/76
f 76/76/76 74/74/74 77/77/77
f 75/75/75 77/77/77 74/74/74
f 78/78/78 76/76/76 77/77/77
f 79/79/79 78/78/78 77/77/77
f 77/77/77 75/75/75 79/79/79
f 79/79/79 75/75/75 80/80/80
f 73/73/73 69/69/69 81/81/81
f 81/81/81 75/75/75 73/73/73
f 75/75/75 82/82/82 80/80/80
f 80/80/80 82/82/82 83/83/83
f 82/82/82 75/75/75 84/84/84
f 84/84/84 75/75/75 81/81/81
f 84/84/84 83/83/83 82/82/82
f 69/69/69 85/85/85 81/81/81
f 85/85/85 69/69/69 70/70/70
f 85/85/85 86/86/86 81/81/81
f 86/86/86 85/85/85 70/70/70
f 86/86/86 87/87/87 81/81/81
f 84/84/84 81/81/81 87/87/87
f 86/86/86 70/70/70 87/87/87
f 88/88/88 83/83/83 84/84/84
f 87/87/87 89/89/89 84/84/84
f 89/89/89 88/88/88 84/84/84
f 90/90/90 83/83/83 88/88/88
f 91/91/91 83/83/83 90/90/90
f 92/92/92 90/90/90 88/88/88
f 88/88/88 89/89/89 92/92/92
f 93/93/93 89/89/89 87/87/87
f 89/89/89 93/93/93 92/92/92
f 70/70/70 93/93/93 87/87/87
f 93/93/93 94/94/94 92/92/92
f 95/95/95 93/93/93 70/70/70
f 93/93/93 95/95/95 94/94/94
f 94/94/94 95/95/95 96/96/96
f 95/95/95 70/70/70 72/72/72
f 96/96/96 95/95/95 97/97/97
f 97/97/97 95/95/95 72/72/72
f 98/98/98 96/96/96 97/97/97
f 98/98/98 97/97/97 72/72/72
f 99/99/99 98/98/98 72/72/72
f 65/65/65 98/98/98 99/99/99
f 102/102/102 101/101/101 100/100/100
f 103/103/103 101/101/101 102/102/102
f 104/104/104 103/103/103 102/102/102
f 107/107/107 106/106/106 105/105/105
f 105/105/105 108/108/108 107/107/107
