g MetroArea_Building_Card_12
v -15.6211815 61.85079 -12.565403
v -15.624599 123.6899 -12.564533
v -15.631435 123.6899 12.566224
v -15.631435 61.85079 12.56623
v -15.6177635 0.01168457 -12.566269
v -15.631435 0.011677246 12.566237
v -15.631435 61.85079 12.56623
v -15.631435 123.6899 12.566224
v 15.631435 123.6899 12.559186
v 15.631435 61.85079 12.559192
v -15.631435 0.011677246 12.566237
v 15.631435 0.011679688 12.559196
v -15.631435 123.6899 12.566224
v -11.812519 123.68984 10.420839
v 13.117588 123.68984 10.420841
v 15.631435 123.6899 12.559186
v -11.812519 123.68984 10.420839
v -11.812519 139.00839 10.420838
v 13.117588 139.00839 10.420838
v 13.117588 123.68984 10.420841
v -11.812519 139.00839 10.420838
v 8.697256 139.00055 7.841657
v 13.117588 139.00839 10.420838
v -8.543564 139.00055 7.841657
v -11.812519 139.00839 10.420838
v -8.543564 139.00055 -8.711809
v -11.812519 139.00839 -11.3756075
v -8.543564 139.00055 7.841657
v -8.543564 145.66173 7.8416576
v 8.697256 145.66173 7.8416576
v 8.697256 139.00055 7.841657
v -8.543564 145.66173 7.8416576
v -2.2131543 155.01828 2.1598468
v 2.261748 155.01828 2.1598468
v 8.697256 145.66173 7.8416576
v -2.2131543 155.01828 2.1598468
v -2.2131543 155.8006 2.1560063
v 2.261748 155.8006 2.1560063
v 2.261748 155.01828 2.1598468
v -2.2131543 155.8006 2.1560063
v -0.550791 158.23053 0.48190674
v 0.51250976 158.23053 0.48190674
v 2.261748 155.8006 2.1560063
v -0.550791 158.23053 0.48190674
v -0.550791 167.7352 0.48190612
v 0.51250976 167.73482 0.48190674
v 0.51250976 158.23053 0.48190674
v -11.812519 123.68984 10.420839
v -11.824385 123.689835 -11.407878
v -11.812519 139.00839 -11.3756075
v -11.812519 139.00839 10.420838
v -15.631435 123.6899 12.566224
v -15.624599 123.6899 -12.564533
v -11.824385 123.689835 -11.407878
v -11.812519 123.68984 10.420839
v -8.543564 139.00055 7.841657
v -8.543564 139.00055 -8.711809
v -8.543564 145.66173 -8.711811
v -8.543564 145.66173 7.8416576
v -8.543564 145.66173 7.8416576
v -8.543564 145.66173 -8.711811
v -2.2131543 155.01828 -2.0942035
v -2.2131543 155.01828 2.1598468
v -2.2131543 155.01828 2.1598468
v -2.2131543 155.01828 -2.0942035
v -2.2131543 155.8006 -2.0164983
v -2.2131543 155.8006 2.1560063
v -2.2131543 155.8006 2.1560063
v -2.2131543 155.8006 -2.0164983
v -0.550791 158.23053 -0.32977173
v -0.550791 158.23053 0.48190674
v -0.550791 158.23053 -0.32977173
v -0.550791 167.73535 -0.32920715
v -0.550791 167.7352 0.48190612
v -0.550791 158.23053 0.48190674
v -0.550791 167.7352 0.48190612
v -0.550791 167.73535 -0.32920715
v 0.51250976 167.73482 -0.32864013
v 0.51250976 167.73482 0.48190674
v -0.22380859 167.65329 0.36284485
v -0.22380859 185.1566 0.36284178
v 0.2928711 185.1562 0.36284178
v 0.2928711 167.65329 0.36284485
v -0.22380859 167.65329 -0.09140015
v -0.22380859 185.15675 -0.091086425
v -0.22380859 185.1566 0.36284178
v -0.22380859 167.65329 0.36284485
v -0.22380859 185.1566 0.36284178
v -0.22380859 185.15675 -0.091086425
v 0.2928711 185.1562 -0.09076904
v 0.2928711 185.1562 0.36284178
vt 0.5756836 0.46679688
vt 0.5756836 0.9213867
vt 0.7578125 0.9213867
vt 0.7578125 0.46679688
vt 0.5756836 0.012313843
vt 0.7578125 0.012313843
vt 0.7578125 0.46679688
vt 0.7578125 0.9213867
vt 0.9897461 0.9213867
vt 0.9897461 0.46679688
vt 0.7578125 0.012313843
vt 0.9897461 0.012313843
vt 0.7578125 0.9213867
vt 0.7578125 0.9453125
vt 0.9897461 0.9453125
vt 0.9897461 0.9213867
vt 0.5527344 0.7939453
vt 0.43920898 0.7939453
vt 0.43920898 0.98828125
vt 0.5527344 0.98828125
vt 0.43920898 0.7939453
vt 0.4194336 0.94873047
vt 0.43920898 0.98828125
vt 0.4194336 0.7939453
vt 0.43920898 0.7939453
vt 0.4194336 0.66845703
vt 0.43920898 0.6513672
vt 0.39624023 0.49072266
vt 0.39624023 0.5444336
vt 0.5234375 0.5444336
vt 0.5234375 0.49072266
vt 0.39624023 0.5444336
vt 0.4440918 0.6171875
vt 0.47607422 0.6171875
vt 0.5234375 0.5444336
vt 0.4440918 0.6171875
vt 0.4440918 0.6196289
vt 0.47607422 0.6196289
vt 0.47607422 0.6171875
vt 0.4440918 0.6196289
vt 0.45629883 0.6386719
vt 0.46362305 0.6386719
vt 0.47607422 0.6196289
vt 0.53222656 0.57128906
vt 0.53222656 0.63964844
vt 0.5410156 0.63964844
vt 0.5410156 0.57128906
vt 0.5527344 0.7939453
vt 0.5527344 0.6513672
vt 0.43920898 0.6513672
vt 0.43920898 0.7939453
vt 0.7578125 0.9213867
vt 0.5756836 0.9213867
vt 0.5756836 0.9453125
vt 0.7578125 0.9453125
vt 1.5234375 0.49023438
vt 1.3964844 0.49023438
vt 1.3964844 0.5444336
vt 1.5234375 0.5444336
vt 1.5234375 0.5444336
vt 1.3964844 0.5444336
vt 1.4443359 0.6166992
vt 1.4755859 0.6166992
vt 1.4755859 0.6166992
vt 1.4443359 0.6166992
vt 1.4443359 0.6191406
vt 1.4755859 0.6191406
vt 1.4755859 0.6191406
vt 1.4443359 0.6191406
vt 1.4570312 0.63916016
vt 1.4638672 0.63916016
vt 0.5239258 0.57128906
vt 0.5239258 0.63964844
vt 0.53222656 0.63964844
vt 0.53222656 0.57128906
vt 0.51123047 0.6328125
vt 0.51123047 0.63964844
vt 0.52001953 0.63964844
vt 0.52001953 0.6328125
vt 0.55908203 0.6386719
vt 0.55908203 0.5498047
vt 0.56152344 0.5498047
vt 0.56152344 0.6386719
vt 0.5566406 0.6386719
vt 0.5566406 0.5498047
vt 0.55908203 0.5498047
vt 0.55908203 0.6386719
vt 0.55908203 0.5498047
vt 0.55908203 0.5473633
vt 0.56152344 0.5473633
vt 0.56152344 0.5498047
vn -1 -2.7656555E-05 -0.0003399849
vn -1 -2.7656555E-05 -0.0003399849
vn -1 -2.7656555E-05 -0.0003399849
vn -1 -2.7656555E-05 -0.0003399849
vn -1 -2.7656555E-05 -0.00047588348
vn -1 -2.7656555E-05 -0.00047588348
vn 0.00022518635 0 1
vn 0.00022518635 0 1
vn 0.00022518635 0 1
vn 0.00022518635 0 1
vn 0.00022518635 0 1
vn 0.00022518635 0 1
vn -0 1 -2.7358532E-05
vn -0 1 -2.7358532E-05
vn -0 1 -2.7358532E-05
vn -0 1 -2.7358532E-05
vn -0 1.1920929E-07 1
vn -0 1.1920929E-07 1
vn -0 1.1920929E-07 1
vn -0 1.1920929E-07 1
vn -0 1 -0.0030403137
vn -0 1 -0.0030403137
vn -0 1 -0.0030403137
vn -0 1 -0.0030403137
vn 0.0023994446 1 0
vn 0.0023994446 1 0
vn 0.0023994446 1 0
vn -0 0 1
vn -0 0 1
vn -0 0 1
vn -0 0 1
vn -0 0.51904297 0.85498047
vn -0 0.51904297 0.85498047
vn -0 0.51904297 0.85498047
vn -0 0.51904297 0.85498047
vn -0 0.0049095154 1
vn -0 0.0049095154 1
vn -0 0.0049095154 1
vn -0 0.0049095154 1
vn -0 0.5673828 0.8232422
vn -0 0.5673828 0.8232422
vn -0 0.5673828 0.8232422
vn -0 0.5673828 0.8232422
vn -2.9802322E-07 0 1
vn -2.9802322E-07 0 1
vn -2.9802322E-07 0 1
vn -2.9802322E-07 0 1
vn -1 0.00038695335 0.0002720356
vn -1 0.00038695335 0.0002720356
vn -1 0.00038695335 0.0002720356
vn -1 0.00038695335 0.0002720356
vn 1.6629696E-05 1 -2.3841858E-07
vn 1.6629696E-05 1 -2.3841858E-07
vn 1.6629696E-05 1 -2.3841858E-07
vn 1.6629696E-05 1 -2.3841858E-07
vn -1 0 0
vn -1 0 0
vn -1 0 0
vn -1 0 0
vn -0.828125 0.5605469 0
vn -0.828125 0.5605469 0
vn -0.828125 0.5605469 0
vn -0.828125 0.5605469 0
vn -1 0 0
vn -1 0 0
vn -1 0 0
vn -1 0 0
vn -0.8251953 0.5644531 0
vn -0.8251953 0.5644531 0
vn -0.8251953 0.5644531 0
vn -0.8251953 0.5644531 0
vn -1 0 0
vn -1 0 0
vn -1 0 0
vn -1 0 0
vn 0.00042247772 1 0.00010842085
vn 0.00042247772 1 0.00010842085
vn 0.00042247772 1 0.00010842085
vn 0.00042247772 1 0.00010842085
vn -0 1.7881393E-07 1
vn -0 1.7881393E-07 1
vn -0 1.7881393E-07 1
vn -0 1.7881393E-07 1
vn -1 0 0
vn -1 0 0
vn -1 0 0
vn -1 0 0
vn 0.0008883476 1 0.0001937151
vn 0.0008883476 1 0.0001937151
vn 0.0008883476 1 0.0001937151
vn 0.0008883476 1 0.0001937151
g MetroArea_Building_Card_12_0
f 3/3/3 2/2/2 1/1/1
f 4/4/4 3/3/3 1/1/1
f 4/4/4 1/1/1 5/5/5
f 6/6/6 4/4/4 5/5/5
f 9/9/9 8/8/8 7/7/7
f 10/10/10 9/9/9 7/7/7
f 10/10/10 7/7/7 11/11/11
f 12/12/12 10/10/10 11/11/11
f 15/15/15 14/14/14 13/13/13
f 16/16/16 15/15/15 13/13/13
f 19/19/19 18/18/18 17/17/17
f 20/20/20 19/19/19 17/17/17
f 23/23/23 22/22/22 21/21/21
f 22/22/22 24/24/24 21/21/21
f 24/24/24 26/26/26 25/25/25
f 26/26/26 27/27/27 25/25/25
f 30/30/30 29/29/29 28/28/28
f 31/31/31 30/30/30 28/28/28
f 34/34/34 33/33/33 32/32/32
f 35/35/35 34/34/34 32/32/32
f 38/38/38 37/37/37 36/36/36
f 39/39/39 38/38/38 36/36/36
f 42/42/42 41/41/41 40/40/40
f 43/43/43 42/42/42 40/40/40
f 46/46/46 45/45/45 44/44/44
f 47/47/47 46/46/46 44/44/44
f 50/50/50 49/49/49 48/48/48
f 51/51/51 50/50/50 48/48/48
f 54/54/54 53/53/53 52/52/52
f 55/55/55 54/54/54 52/52/52
f 58/58/58 57/57/57 56/56/56
f 59/59/59 58/58/58 56/56/56
f 62/62/62 61/61/61 60/60/60
f 63/63/63 62/62/62 60/60/60
f 66/66/66 65/65/65 64/64/64
f 67/67/67 66/66/66 64/64/64
f 70/70/70 69/69/69 68/68/68
f 71/71/71 70/70/70 68/68/68
f 74/74/74 73/73/73 72/72/72
f 75/75/75 74/74/74 72/72/72
f 78/78/78 77/77/77 76/76/76
f 79/79/79 78/78/78 76/76/76
f 82/82/82 81/81/81 80/80/80
f 83/83/83 82/82/82 80/80/80
f 86/86/86 85/85/85 84/84/84
f 87/87/87 86/86/86 84/84/84
f 90/90/90 89/89/89 88/88/88
f 91/91/91 90/90/90 88/88/88
