g MetroArea_Bridge_SteelFrame_05
v 0.16042969 0.00058776856 0.16071655
v -0.16042969 0.00058776856 0.16071655
v -0.16042969 8.533335 0.16071655
v 0.16042969 8.533335 0.16071655
v -0.22124878 0.00058776856 0.22124633
v -0.22124878 0.00058776856 -0.22124511
v -0.22124878 8.533335 -0.22124511
v -0.22124878 8.533335 0.22124633
v -0.16042969 0.00058776856 0.16071655
v -0.17004395 0.00058776856 0.22124633
v -0.17004395 8.533335 0.22124633
v -0.16042969 8.533335 0.16071655
v -0.17004395 0.00058776856 0.22124633
v -0.22124878 0.00058776856 0.22124633
v -0.22124878 8.533335 0.22124633
v -0.17004395 8.533335 0.22124633
v 0.16042969 0.00058776856 0.16071655
v 0.16042969 8.533335 0.16071655
v 0.17004395 8.533335 0.22124633
v 0.17004395 0.00058807374 0.22124633
v 0.17004395 0.00058807374 0.22124633
v 0.17004395 8.533335 0.22124633
v 0.22125 8.533335 0.22124633
v 0.22125 0.00058776856 0.22124633
v -0.16042969 0.00058776856 -0.1607141
v 0.16042969 0.00058776856 -0.1607141
v 0.16042969 8.533335 -0.1607141
v -0.16042969 8.533335 -0.1607141
v 0.22125 0.00058776856 -0.22124633
v 0.22125 0.00058776856 0.22124633
v 0.22125 8.533335 0.22124633
v 0.22125 8.533335 -0.22124633
v 0.16042969 0.00058776856 -0.1607141
v 0.17004395 0.00058776856 -0.22124633
v 0.17004395 8.533335 -0.22124633
v 0.16042969 8.533335 -0.1607141
v 0.17004395 0.00058776856 -0.22124633
v 0.22125 0.00058776856 -0.22124633
v 0.22125 8.533335 -0.22124633
v 0.17004395 8.533335 -0.22124633
v -0.16042969 0.00058776856 -0.1607141
v -0.16042969 8.533335 -0.1607141
v -0.17004395 8.533335 -0.22124633
v -0.17004395 0.00058776856 -0.22124633
v -0.17004395 0.00058776856 -0.22124633
v -0.17004395 8.533335 -0.22124633
v -0.22124878 8.533335 -0.22124511
v -0.22124878 0.00058776856 -0.22124511
v -0.16042969 8.533335 -0.1607141
v -0.22124878 8.533335 -0.22124511
v -0.17004395 8.533335 -0.22124633
v -0.16042969 8.533335 0.16071655
v -0.22124878 8.533335 0.22124633
v -0.17004395 8.533335 0.22124633
v 0.16042969 8.533335 -0.1607141
v 0.16042969 8.533335 0.16071655
v 0.22125 8.533335 0.22124633
v 0.17004395 8.533335 0.22124633
v 0.22125 8.533335 -0.22124633
v 0.17004395 8.533335 -0.22124633
v 0.16042969 0.00058776856 -0.1607141
v 0.22125 0.00058776856 -0.22124633
v 0.17004395 0.00058776856 -0.22124633
v 0.16042969 0.00058776856 0.16071655
v 0.22125 0.00058776856 0.22124633
v 0.17004395 0.00058807374 0.22124633
v -0.16042969 0.00058776856 0.16071655
v -0.16042969 0.00058776856 -0.1607141
v -0.22124878 0.00058776856 0.22124633
v -0.17004395 0.00058776856 0.22124633
v -0.22124878 0.00058776856 -0.22124511
v -0.17004395 0.00058776856 -0.22124633
vt 0.99609375 0.97021484
vt 0.99609375 0.9316406
vt 0.0040283203 0.9316406
vt 0.0040283203 0.97021484
vt 0.99609375 0.9003906
vt 0.99609375 0.8466797
vt 0.0040283203 0.8466797
vt 0.0040283203 0.9003906
vt 0.99609375 0.92578125
vt 0.99609375 0.91845703
vt 0.0040283203 0.91845703
vt 0.0040283203 0.92578125
vt 0.99609375 0.91259766
vt 0.99609375 0.9067383
vt 0.0040283203 0.9067383
vt 0.0040283203 0.91259766
vt 0.99609375 0.9760742
vt 0.0040283203 0.9760742
vt 0.0040283203 0.98339844
vt 0.99609375 0.98339844
vt 0.99609375 0.9897461
vt 0.0040283203 0.9897461
vt 0.0040283203 0.99609375
vt 0.99609375 0.99609375
vt 1.9960938 0.97021484
vt 1.9960938 0.9316406
vt 1.0039062 0.9316406
vt 1.0039062 0.97021484
vt 1.9960938 0.9003906
vt 1.9960938 0.8466797
vt 1.0039062 0.8466797
vt 1.0039062 0.9003906
vt 1.9960938 0.92578125
vt 1.9960938 0.91845703
vt 1.0039062 0.91845703
vt 1.0039062 0.92578125
vt 1.9960938 0.91259766
vt 1.9960938 0.9067383
vt 1.0039062 0.9067383
vt 1.0039062 0.91259766
vt 1.9960938 0.9760742
vt 1.0039062 0.9760742
vt 1.0039062 0.98339844
vt 1.9960938 0.98339844
vt 1.9960938 0.9897461
vt 1.0039062 0.9897461
vt 1.0039062 0.99609375
vt 1.9960938 0.99609375
vt 0.114868164 0.7583008
vt 0.11016846 0.7626953
vt 0.11413574 0.7626953
vt 0.114868164 0.73339844
vt 0.11016846 0.7285156
vt 0.11413574 0.7285156
vt 0.13952637 0.7583008
vt 0.13952637 0.73339844
vt 0.14428711 0.7285156
vt 0.14038086 0.7285156
vt 0.14428711 0.7626953
vt 0.14038086 0.7626953
vt 0.13952637 0.7583008
vt 0.14428711 0.7626953
vt 0.14038086 0.7626953
vt 0.13952637 0.73339844
vt 0.14428711 0.7285156
vt 0.14038086 0.7285156
vt 0.114868164 0.73339844
vt 0.114868164 0.7583008
vt 0.11016846 0.7285156
vt 0.11413574 0.7285156
vt 0.11016846 0.7626953
vt 0.11413574 0.7626953
vn -0 0 1
vn -0 0 1
vn -0 0 1
vn -0 0 1
vn -1 0 0
vn -1 0 0
vn -1 0 0
vn -1 0 0
vn 0.98779297 0 0.15686035
vn 0.98779297 0 0.15686035
vn 0.98779297 0 0.15686035
vn 0.98779297 0 0.15686035
vn -0 0 1
vn -0 0 1
vn -0 0 1
vn -0 0 1
vn -0.98779297 0 0.15686035
vn -0.98779297 0 0.15686035
vn -0.98779297 0 0.15686035
vn -0.98779297 0 0.15686035
vn -0 0 1
vn -0 0 1
vn -0 0 1
vn -0 0 1
vn -0 0 -1
vn -0 0 -1
vn -0 0 -1
vn -0 0 -1
vn 1 0 0
vn 1 0 0
vn 1 0 0
vn 1 0 0
vn -0.98779297 0 -0.15686035
vn -0.98779297 0 -0.15686035
vn -0.98779297 0 -0.15686035
vn -0.98779297 0 -0.15686035
vn -0 0 -1
vn -0 0 -1
vn -0 0 -1
vn -0 0 -1
vn 0.98779297 0 -0.15686035
vn 0.98779297 0 -0.15686035
vn 0.98779297 0 -0.15686035
vn 0.98779297 0 -0.15686035
vn -2.3841858E-05 0 -1
vn -2.3841858E-05 0 -1
vn -2.3841858E-05 0 -1
vn -2.3841858E-05 0 -1
vn -0 1 0
vn -0 1 0
vn -0 1 0
vn -0 1 0
vn -0 1 0
vn -0 1 0
vn -0 1 0
vn -0 1 0
vn -0 1 0
vn -0 1 0
vn -0 1 0
vn -0 1 0
vn -0 -1 0
vn -0 -1 0
vn -0 -1 0
vn -0 -1 0
vn -5.9604645E-07 -1 5.9604645E-07
vn -5.9604645E-06 -1 5.9604645E-06
vn -0 -1 0
vn -0 -1 0
vn -0 -1 0
vn -0 -1 0
vn -0 -1 0
vn -0 -1 0
g MetroArea_Bridge_SteelFrame_05_0
f 3/3/3 2/2/2 1/1/1
f 4/4/4 3/3/3 1/1/1
f 7/7/7 6/6/6 5/5/5
f 8/8/8 7/7/7 5/5/5
f 11/11/11 10/10/10 9/9/9
f 12/12/12 11/11/11 9/9/9
f 15/15/15 14/14/14 13/13/13
f 16/16/16 15/15/15 13/13/13
f 19/19/19 18/18/18 17/17/17
f 20/20/20 19/19/19 17/17/17
f 23/23/23 22/22/22 21/21/21
f 24/24/24 23/23/23 21/21/21
f 27/27/27 26/26/26 25/25/25
f 28/28/28 27/27/27 25/25/25
f 31/31/31 30/30/30 29/29/29
f 32/32/32 31/31/31 29/29/29
f 35/35/35 34/34/34 33/33/33
f 36/36/36 35/35/35 33/33/33
f 39/39/39 38/38/38 37/37/37
f 40/40/40 39/39/39 37/37/37
f 43/43/43 42/42/42 41/41/41
f 44/44/44 43/43/43 41/41/41
f 47/47/47 46/46/46 45/45/45
f 48/48/48 47/47/47 45/45/45
f 51/51/51 50/50/50 49/49/49
f 52/52/52 49/49/49 50/50/50
f 53/53/53 52/52/52 50/50/50
f 54/54/54 52/52/52 53/53/53
f 49/49/49 52/52/52 55/55/55
f 52/52/52 56/56/56 55/55/55
f 55/55/55 56/56/56 57/57/57
f 58/58/58 57/57/57 56/56/56
f 59/59/59 55/55/55 57/57/57
f 60/60/60 55/55/55 59/59/59
f 63/63/63 62/62/62 61/61/61
f 64/64/64 61/61/61 62/62/62
f 65/65/65 64/64/64 62/62/62
f 66/66/66 64/64/64 65/65/65
f 61/61/61 64/64/64 67/67/67
f 68/68/68 61/61/61 67/67/67
f 68/68/68 67/67/67 69/69/69
f 70/70/70 69/69/69 67/67/67
f 71/71/71 68/68/68 69/69/69
f 72/72/72 68/68/68 71/71/71
