g MetroArea_Ground_TileGreen_03
v -0 0.094392926 4
v -4 0.094392926 4
v -4 0.094393015 2
v -0 0.094393015 2
v -4 0.094393015 2
v -4 0.094392926 4
v -4 -0.09439328 4
v -4 -0.094392955 2
v -4 0.0943931 6.1035155E-07
v -4 -0.09439271 6.1035155E-07
v -0 0.094392926 4
v -0 -0.09439328 4
v -4 -0.09439328 4
v -4 0.094392926 4
v -0 0.0943931 3.0517577E-07
v -0 0.094393015 2
v -4 0.094393015 2
v -4 0.0943931 6.1035155E-07
v 4 0.094392926 4
v -0 0.094392926 4
v -0 0.094393015 2
v 4 0.094393015 2
v 4 0.094392926 4
v 4 -0.09439328 4
v -0 -0.09439328 4
v -0 0.094392926 4
v 4 0.094393015 2
v 4 0.0943931 3.0517577E-07
v 4 -0.09439271 3.0517577E-07
v 4 -0.094392955 2
v 4 0.094392926 4
v 4 -0.09439328 4
v 4 0.0943931 3.0517577E-07
v 4 0.094393015 2
v -0 0.094393015 2
v -0 0.0943931 3.0517577E-07
v -0 0.09439292 -3.9999993
v 4 0.09439292 -3.9999993
v 4 0.094393 -1.9999996
v -0 0.094393 -1.9999994
v 4 0.094393 -1.9999996
v 4 0.09439292 -3.9999993
v 4 -0.09439271 -3.9999993
v 4 -0.09439281 -1.9999996
v 4 0.0943931 3.0517577E-07
v 4 -0.09439271 3.0517577E-07
v -0 0.09439292 -3.9999993
v -0 -0.09439271 -3.9999993
v 4 -0.09439271 -3.9999993
v 4 0.09439292 -3.9999993
v -0 0.0943931 3.0517577E-07
v -0 0.094393 -1.9999994
v 4 0.094393 -1.9999996
v 4 0.0943931 3.0517577E-07
v -4 0.09439292 -3.9999988
v -0 0.09439292 -3.9999993
v -0 0.094393 -1.9999994
v -4 0.094393 -1.9999987
v -4 0.09439292 -3.9999988
v -4 -0.09439271 -3.9999988
v -0 -0.09439271 -3.9999993
v -0 0.09439292 -3.9999993
v -4 0.094393 -1.9999987
v -4 0.0943931 6.1035155E-07
v -4 -0.09439271 6.1035155E-07
v -4 -0.09439281 -1.9999987
v -4 0.09439292 -3.9999988
v -4 -0.09439271 -3.9999988
v -4 0.0943931 6.1035155E-07
v -4 0.094393 -1.9999987
v -0 0.094393 -1.9999994
v -0 0.0943931 3.0517577E-07
v -4 -0.094392955 2
v -4 -0.09439328 4
v -0 -0.09439328 4
v -0 -0.09439284 1.9999998
v -4 -0.094392955 2
v -0 -0.09439284 1.9999998
v -0 -0.09439244 1.5258789E-07
v -4 -0.09439271 6.1035155E-07
v -0 -0.09439284 1.9999998
v -0 -0.09439328 4
v 4 -0.09439328 4
v 4 -0.094392955 2
v -0 -0.09439284 1.9999998
v 4 -0.094392955 2
v 4 -0.09439271 3.0517577E-07
v -0 -0.09439244 1.5258789E-07
v 4 -0.09439281 -1.9999996
v 4 -0.09439271 -3.9999993
v -0 -0.09439271 -3.9999993
v -0 -0.094392516 -1.9999996
v 4 -0.09439281 -1.9999996
v -0 -0.094392516 -1.9999996
v -0 -0.09439244 1.5258789E-07
v 4 -0.09439271 3.0517577E-07
v -0 -0.094392516 -1.9999996
v -0 -0.09439271 -3.9999993
v -4 -0.09439271 -3.9999988
v -4 -0.09439281 -1.9999987
v -0 -0.094392516 -1.9999996
v -4 -0.09439281 -1.9999987
v -4 -0.09439271 6.1035155E-07
v -0 -0.09439244 1.5258789E-07
vt 0.9951172 0.7895508
vt 0.9951172 0.4008789
vt 0.80078125 0.4008789
vt 0.80078125 0.7895508
vt 1.6640625 0.4633789
vt 1.6074219 0.4633789
vt 1.6074219 0.46875
vt 1.6640625 0.46875
vt 1.7226562 0.4633789
vt 1.7226562 0.46875
vt 1.7226562 0.46875
vt 1.7226562 0.4633789
vt 1.6074219 0.4633789
vt 1.6074219 0.46875
vt 0.7998047 0.3918457
vt 0.99365234 0.3918457
vt 0.99365234 0.0034484863
vt 0.7998047 0.0034484863
vt 0.9951172 0.7895508
vt 0.9951172 0.4008789
vt 0.80078125 0.4008789
vt 0.80078125 0.7895508
vt 1.7226562 0.46875
vt 1.7226562 0.4633789
vt 1.6074219 0.4633789
vt 1.6074219 0.46875
vt 1.6640625 0.46875
vt 1.7226562 0.46875
vt 1.7226562 0.4633789
vt 1.6640625 0.4633789
vt 1.6074219 0.46875
vt 1.6074219 0.4633789
vt 0.7998047 0.3918457
vt 0.99365234 0.3918457
vt 0.99365234 0.0034484863
vt 0.7998047 0.0034484863
vt 0.9951172 0.7895508
vt 0.9951172 0.4008789
vt 0.80078125 0.4008789
vt 0.80078125 0.7895508
vt 1.6640625 0.4633789
vt 1.6074219 0.4633789
vt 1.6074219 0.46875
vt 1.6640625 0.46875
vt 1.7226562 0.4633789
vt 1.7226562 0.46875
vt 1.7226562 0.46875
vt 1.7226562 0.4633789
vt 1.6074219 0.4633789
vt 1.6074219 0.46875
vt 0.7998047 0.3918457
vt 0.99365234 0.3918457
vt 0.99365234 0.0034484863
vt 0.7998047 0.0034484863
vt 0.9951172 0.7895508
vt 0.9951172 0.4008789
vt 0.80078125 0.4008789
vt 0.80078125 0.7895508
vt 1.7226562 0.46875
vt 1.7226562 0.4633789
vt 1.6074219 0.4633789
vt 1.6074219 0.46875
vt 1.6640625 0.46875
vt 1.7226562 0.46875
vt 1.7226562 0.4633789
vt 1.6640625 0.4633789
vt 1.6074219 0.46875
vt 1.6074219 0.4633789
vt 0.7998047 0.3918457
vt 0.99365234 0.3918457
vt 0.99365234 0.0034484863
vt 0.7998047 0.0034484863
vt 0.80078125 0.4008789
vt 0.9951172 0.4008789
vt 0.9951172 0.7895508
vt 0.80078125 0.7895508
vt 0.99365234 0.0034484863
vt 0.99365234 0.3918457
vt 0.7998047 0.3918457
vt 0.7998047 0.0034484863
vt 0.80078125 0.4008789
vt 0.9951172 0.4008789
vt 0.9951172 0.7895508
vt 0.80078125 0.7895508
vt 0.99365234 0.0034484863
vt 0.99365234 0.3918457
vt 0.7998047 0.3918457
vt 0.7998047 0.0034484863
vt 0.80078125 0.4008789
vt 0.9951172 0.4008789
vt 0.9951172 0.7895508
vt 0.80078125 0.7895508
vt 0.99365234 0.0034484863
vt 0.99365234 0.3918457
vt 0.7998047 0.3918457
vt 0.7998047 0.0034484863
vt 0.80078125 0.4008789
vt 0.9951172 0.4008789
vt 0.9951172 0.7895508
vt 0.80078125 0.7895508
vt 0.99365234 0.0034484863
vt 0.99365234 0.3918457
vt 0.7998047 0.3918457
vt 0.7998047 0.0034484863
vn -0 1 0
vn -0 1 0
vn -0 1 0
vn -0 1 0
vn -1 0 0
vn -1 0 0
vn -1 0 0
vn -1 0 0
vn -1 0 0
vn -1 0 0
vn -0 0 1
vn -0 0 1
vn -0 0 1
vn -0 0 1
vn -0 1 0
vn -0 1 0
vn -0 1 0
vn -0 1 0
vn -0 1 0
vn -0 1 0
vn -0 1 0
vn -0 1 0
vn -0 0 1
vn -0 0 1
vn -0 0 1
vn -0 0 1
vn 1 0 0
vn 1 0 0
vn 1 0 0
vn 1 0 0
vn 1 0 0
vn 1 0 0
vn -0 1 0
vn -0 1 0
vn -0 1 0
vn -0 1 0
vn -0 1 0
vn -0 1 0
vn -0 1 0
vn -0 1 0
vn 1 0 0
vn 1 0 0
vn 1 0 0
vn 1 0 0
vn 1 0 0
vn 1 0 0
vn -0 0 -1
vn -0 0 -1
vn -0 0 -1
vn -0 0 -1
vn -0 1 0
vn -0 1 0
vn -0 1 0
vn -0 1 0
vn -0 1 0
vn -0 1 0
vn -0 1 0
vn -0 1 0
vn -1.7881393E-07 0 -1
vn -1.7881393E-07 0 -1
vn -0 0 -1
vn -0 0 -1
vn -1 0 0
vn -1 0 0
vn -1 0 0
vn -1 0 0
vn -1 0 0
vn -1 0 0
vn -0 1 0
vn -0 1 0
vn -0 1 0
vn -0 1 0
vn -0 -1 -1.7881393E-07
vn -0 -1 -1.7881393E-07
vn -0 -1 -1.7881393E-07
vn -0 -1 -1.7881393E-07
vn -0 -1 -1.7881393E-07
vn -0 -1 -1.7881393E-07
vn -0 -1 0
vn -0 -1 0
vn -0 -1 -1.7881393E-07
vn -0 -1 -1.7881393E-07
vn -0 -1 -1.7881393E-07
vn -0 -1 -1.7881393E-07
vn -0 -1 -1.7881393E-07
vn -0 -1 -1.7881393E-07
vn -0 -1 0
vn -0 -1 0
vn -0 -1 0
vn -0 -1 0
vn -0 -1 0
vn -0 -1 0
vn -0 -1 0
vn -0 -1 0
vn -0 -1 0
vn -0 -1 0
vn -0 -1 0
vn -0 -1 0
vn -0 -1 0
vn -0 -1 0
vn -0 -1 0
vn -0 -1 0
vn -0 -1 0
vn -0 -1 0
g MetroArea_Ground_TileGreen_03_0
f 3/3/3 2/2/2 1/1/1
f 4/4/4 3/3/3 1/1/1
f 7/7/7 6/6/6 5/5/5
f 8/8/8 7/7/7 5/5/5
f 8/8/8 5/5/5 9/9/9
f 10/10/10 8/8/8 9/9/9
f 13/13/13 12/12/12 11/11/11
f 14/14/14 13/13/13 11/11/11
f 17/17/17 16/16/16 15/15/15
f 18/18/18 17/17/17 15/15/15
f 21/21/21 20/20/20 19/19/19
f 22/22/22 21/21/21 19/19/19
f 25/25/25 24/24/24 23/23/23
f 26/26/26 25/25/25 23/23/23
f 29/29/29 28/28/28 27/27/27
f 30/30/30 29/29/29 27/27/27
f 30/30/30 27/27/27 31/31/31
f 32/32/32 30/30/30 31/31/31
f 35/35/35 34/34/34 33/33/33
f 36/36/36 35/35/35 33/33/33
f 39/39/39 38/38/38 37/37/37
f 40/40/40 39/39/39 37/37/37
f 43/43/43 42/42/42 41/41/41
f 44/44/44 43/43/43 41/41/41
f 44/44/44 41/41/41 45/45/45
f 46/46/46 44/44/44 45/45/45
f 49/49/49 48/48/48 47/47/47
f 50/50/50 49/49/49 47/47/47
f 53/53/53 52/52/52 51/51/51
f 54/54/54 53/53/53 51/51/51
f 57/57/57 56/56/56 55/55/55
f 58/58/58 57/57/57 55/55/55
f 61/61/61 60/60/60 59/59/59
f 62/62/62 61/61/61 59/59/59
f 65/65/65 64/64/64 63/63/63
f 66/66/66 65/65/65 63/63/63
f 66/66/66 63/63/63 67/67/67
f 68/68/68 66/66/66 67/67/67
f 71/71/71 70/70/70 69/69/69
f 72/72/72 71/71/71 69/69/69
f 75/75/75 74/74/74 73/73/73
f 76/76/76 75/75/75 73/73/73
f 79/79/79 78/78/78 77/77/77
f 80/80/80 79/79/79 77/77/77
f 83/83/83 82/82/82 81/81/81
f 84/84/84 83/83/83 81/81/81
f 87/87/87 86/86/86 85/85/85
f 88/88/88 87/87/87 85/85/85
f 91/91/91 90/90/90 89/89/89
f 92/92/92 91/91/91 89/89/89
f 95/95/95 94/94/94 93/93/93
f 96/96/96 95/95/95 93/93/93
f 99/99/99 98/98/98 97/97/97
f 100/100/100 99/99/99 97/97/97
f 103/103/103 102/102/102 101/101/101
f 104/104/104 103/103/103 101/101/101
