g MetroArea_Wall_Temporary_02
v 0.03264038 0.0755751 -2.2499921
v 0.03264038 0.075575866 2.249994
v 0.03264038 3.4549522 2.2499974
v 0.03264038 3.454953 -2.2499914
v -0.03264099 3.454953 -2.2499907
v -0.03264099 3.4549522 2.2499976
v -0.03264099 0.075575866 2.249994
v -0.03264099 0.0755751 -2.2499921
v 0.043632507 0.07557533 -2.2499933
v 0.043632507 -4.1672556E-07 -2.2499933
v 0.043632507 -2.9896768E-07 2.2499917
v 0.043632507 0.07557543 2.2499917
v -0.043633725 -2.9896756E-07 2.2499924
v -0.043633725 -4.1672556E-07 -2.2499933
v -0.043633725 0.075575314 -2.2499933
v -0.043633725 0.07557541 2.2499921
v -0.043633725 3.4549527 -2.2499895
v -0.043633725 3.4549522 2.2499979
v 0.043632507 3.454952 2.2499967
v 0.043632507 3.4549527 -2.2499895
v 0.043632507 3.4999995 -2.2499895
v 0.043632507 3.4999993 2.2499971
v -0.043633725 3.4999988 2.2499976
v -0.043633725 3.4999995 -2.2499895
v 0.043632507 3.4549527 -2.2499895
v 0.043632507 3.454952 2.2499967
v 0.043632507 3.4999993 2.2499971
v 0.043632507 3.4999995 -2.2499895
v -0.043633725 3.4999995 -2.2499895
v -0.043633725 3.4999988 2.2499976
v -0.043633725 3.4549522 2.2499979
v -0.043633725 3.4549527 -2.2499895
v 0.043632507 0.07557533 -2.2499933
v 0.043632507 0.07557543 2.2499917
v -0.043633725 0.07557541 2.2499921
v -0.043633725 0.075575314 -2.2499933
vt 1 0.40405273
vt 0.42797852 0.40405273
vt 0.42797852 0.78515625
vt 1 0.78515625
vt -0 0.39086914
vt 0.57177734 0.39086914
vt 0.57177734 0.009613037
vt -0 0.009635925
vt 7.748604E-06 0.8359375
vt 7.748604E-06 0.8491211
vt 0.57128906 0.8491211
vt 0.57128906 0.8359375
vt 0.57128906 0.7973633
vt 7.8082085E-06 0.7973633
vt 7.748604E-06 0.8100586
vt 0.57128906 0.8100586
vt 7.748604E-06 0.8701172
vt 0.57128906 0.8701172
vt 0.57128906 0.85546875
vt 7.748604E-06 0.85546875
vt 7.8082085E-06 0.90527344
vt 0.57128906 0.90527344
vt 0.57128906 0.8901367
vt 7.748604E-06 0.8901367
vt 7.748604E-06 0.9189453
vt 0.57128906 0.9189453
vt 0.57128906 0.9116211
vt 7.8082085E-06 0.9116211
vt 7.748604E-06 0.8833008
vt 0.57128906 0.8833008
vt 0.57128906 0.87597656
vt 7.748604E-06 0.87597656
vt 7.748604E-06 0.8300781
vt 0.57128906 0.8300781
vt 0.57128906 0.8154297
vt 7.748604E-06 0.8154297
vn 1 0 0
vn 1 0 0
vn 1 0 0
vn 1 0 0
vn -1 0 0
vn -1 0 0
vn -1 0 0
vn -1 0 0
vn 1 0 0
vn 1 0 0
vn 1 0 0
vn 1 0 0
vn -1 0 0
vn -1 0 0
vn -1 0 0
vn -1 0 0
vn -1.7285347E-06 -1 -1.1920929E-07
vn -1.7285347E-06 -1 -1.1920929E-07
vn -1.7285347E-06 -1 -1.1920929E-07
vn -1.7285347E-06 -1 -1.1920929E-07
vn -3.516674E-06 1 1.1920929E-07
vn -3.516674E-06 1 1.1920929E-07
vn -3.516674E-06 1 1.1920929E-07
vn -3.516674E-06 1 1.1920929E-07
vn 1 0 0
vn 1 0 0
vn 1 0 0
vn 1 0 0
vn -1 0 0
vn -1 0 0
vn -1 0 0
vn -1 0 0
vn -2.3841858E-07 1 0
vn -2.3841858E-07 1 0
vn -2.3841858E-07 1 0
vn -2.3841858E-07 1 0
g MetroArea_Wall_Temporary_02_0
f 3/3/3 2/2/2 1/1/1
f 4/4/4 3/3/3 1/1/1
f 7/7/7 6/6/6 5/5/5
f 8/8/8 7/7/7 5/5/5
f 11/11/11 10/10/10 9/9/9
f 12/12/12 11/11/11 9/9/9
f 15/15/15 14/14/14 13/13/13
f 16/16/16 15/15/15 13/13/13
f 19/19/19 18/18/18 17/17/17
f 20/20/20 19/19/19 17/17/17
f 23/23/23 22/22/22 21/21/21
f 24/24/24 23/23/23 21/21/21
f 27/27/27 26/26/26 25/25/25
f 28/28/28 27/27/27 25/25/25
f 31/31/31 30/30/30 29/29/29
f 32/32/32 31/31/31 29/29/29
f 35/35/35 34/34/34 33/33/33
f 36/36/36 35/35/35 33/33/33
