g MetroArea_Ground_PassgaeWay_04
v 1.2345953 0.00026762366 1.2500002
v 1.2345953 0.020267624 1.2500002
v 1.2345957 0.00026803135 -1.2499996
v -1.2654043 0.00026803135 -1.2500002
v -1.2654046 0.025055757 1.2499998
v -1.2654046 0.00026762366 1.2499998
v 1.2345957 0.00026803135 -1.2499996
v 1.2345953 0.020267624 1.2500002
v -1.2654046 0.025055757 1.2499998
v -1.2654043 0.00026803135 -1.2500002
v 3.7345955 0.00026803135 -1.2499994
v 1.2345953 0.00026762366 1.2500002
v 3.7345953 0.00026762366 1.2500006
v -1.2654046 0.00026762366 1.2499998
v -3.7654045 0.00026762366 1.2499994
v -3.7654042 0.00026803135 -1.2500006
v 3.7345955 0.00026803135 -1.2499994
v 3.7345955 -0.14232989 -1.2499994
v 3.7345953 -0.14233029 1.2500006
v 3.7345953 0.00026762366 1.2500006
v 1.2345957 0.00026803135 -1.2499996
v 3.7345955 -0.14232989 -1.2499994
v 3.7345955 0.00026803135 -1.2499994
v 1.2345957 -0.14232989 -1.2499996
v -1.2654043 0.00026803135 -1.2500002
v -1.2654043 -0.14232989 -1.2500002
v -3.7654042 0.00026803135 -1.2500006
v -3.7654042 -0.14232989 -1.2500006
v -3.7654045 0.00026762366 1.2499994
v -3.7654045 -0.14233029 1.2499994
v -3.7654042 -0.14232989 -1.2500006
v -3.7654042 0.00026803135 -1.2500006
v 3.7345953 -0.14233029 1.2500006
v 1.2345953 0.00026762366 1.2500002
v 3.7345953 0.00026762366 1.2500006
v 1.2345953 -0.14233029 1.2500002
v -1.2654046 0.00026762366 1.2499998
v 1.2345953 0.00026762366 1.2500002
v 1.2345953 0.020267624 1.2500002
v -1.2654046 0.025055757 1.2499998
v -1.2654046 -0.14233029 1.2499998
v -3.7654045 0.00026762366 1.2499994
v -1.2654046 0.00026762366 1.2499998
v -3.7654045 -0.14233029 1.2499994
vt 0.33129883 0.6640625
vt 0.33129883 0.6665039
vt 0.00141716 0.6665039
vt 0.0013685226 0.33325195
vt 0.33129883 0.33325195
vt 0.33129883 0.33666992
vt 0.0014009476 0.6665039
vt 0.33129883 0.6665039
vt 0.33129883 0.33325195
vt 0.0014009476 0.33325195
vt 0.0014009476 0.9995117
vt 0.33129883 0.6665039
vt 0.33129883 0.9995117
vt 0.33129883 0.33325195
vt 0.33129883 0.00032544136
vt 0.0014009476 0.00032544136
vt 0.0014009476 0.9995117
vt 0.0014009476 0.99121094
vt 0.33325195 0.99121094
vt 0.33325195 0.9995117
vt 0.0014009476 0.6665039
vt 0.008361816 0.9995117
vt 0.0014009476 0.9995117
vt 0.008361816 0.6665039
vt 0.0014009476 0.33325195
vt 0.008361816 0.33325195
vt 0.0014009476 0.00034713745
vt 0.008361816 0.00034713745
vt 0.33325195 0.00039243698
vt 0.33325195 0.008682251
vt 0.0014009476 0.008682251
vt 0.0014009476 0.00039243698
vt 0.3154297 1
vt 0.33129883 0.6665039
vt 0.33129883 1
vt 0.3154297 0.6665039
vt 0.328125 0.33325195
vt 0.328125 0.6665039
vt 0.33129883 0.6665039
vt 0.33129883 0.33325195
vt 0.3154297 0.33325195
vt 0.33129883 0.0001642704
vt 0.33129883 0.33325195
vt 0.3154297 0.0001642704
vn 1 0 1.1920929E-07
vn 1 0 1.1920929E-07
vn 1 0 1.1920929E-07
vn -1 0 -1.1920929E-07
vn -1 0 -1.1920929E-07
vn -1 0 -1.1920929E-07
vn 0.0004787445 1 -0.0044784546
vn 0.000957489 1 -0.008956909
vn 0.000957489 1 -0.008956909
vn 0.0004787445 1 -0.0044784546
vn -0 1 1.7881393E-07
vn -0 1 1.7881393E-07
vn -0 1 1.7881393E-07
vn -0 1 1.7881393E-07
vn -0 1 1.7881393E-07
vn -0 1 1.7881393E-07
vn 1 0 1.1920929E-07
vn 1 0 1.1920929E-07
vn 1 0 1.1920929E-07
vn 1 0 1.1920929E-07
vn 2.3841858E-07 0 -1
vn 1.1920929E-07 0 -1
vn 1.1920929E-07 0 -1
vn 2.3841858E-07 0 -1
vn 2.3841858E-07 0 -1
vn 2.3841858E-07 0 -1
vn 1.1920929E-07 0 -1
vn 1.1920929E-07 0 -1
vn -1 0 -1.1920929E-07
vn -1 0 -1.1920929E-07
vn -1 0 -1.1920929E-07
vn -1 0 -1.1920929E-07
vn -1.7881393E-07 0 1
vn -1.7881393E-07 0 1
vn -1.7881393E-07 0 1
vn -1.7881393E-07 0 1
vn -1.7881393E-07 0 1
vn -1.7881393E-07 0 1
vn -1.7881393E-07 0 1
vn -1.7881393E-07 0 1
vn -1.7881393E-07 0 1
vn -1.7881393E-07 0 1
vn -1.7881393E-07 0 1
vn -1.7881393E-07 0 1
g MetroArea_Ground_PassgaeWay_04_0
f 3/3/3 2/2/2 1/1/1
f 6/6/6 5/5/5 4/4/4
f 9/9/9 8/8/8 7/7/7
f 10/10/10 9/9/9 7/7/7
f 7/7/7 12/12/12 11/11/11
f 12/12/12 13/13/13 11/11/11
f 15/15/15 14/14/14 10/10/10
f 16/16/16 15/15/15 10/10/10
f 19/19/19 18/18/18 17/17/17
f 20/20/20 19/19/19 17/17/17
f 23/23/23 22/22/22 21/21/21
f 22/22/22 24/24/24 21/21/21
f 21/21/21 24/24/24 25/25/25
f 24/24/24 26/26/26 25/25/25
f 25/25/25 26/26/26 27/27/27
f 26/26/26 28/28/28 27/27/27
f 31/31/31 30/30/30 29/29/29
f 32/32/32 31/31/31 29/29/29
f 35/35/35 34/34/34 33/33/33
f 34/34/34 36/36/36 33/33/33
f 38/38/38 37/37/37 36/36/36
f 38/38/38 39/39/39 37/37/37
f 39/39/39 40/40/40 37/37/37
f 37/37/37 41/41/41 36/36/36
f 41/41/41 43/43/43 42/42/42
f 44/44/44 41/41/41 42/42/42
