g MetroArea_Ground_Damaged_06
v 0.49413955 0.08150418 -0.10696579
v 0.49422088 -0.0778216 -0.106375426
v 0.50575376 0.060478944 -0.10588348
v 0.42191252 0.08433011 -0.106982574
v 0.3775717 -0.08470322 -0.10594253
v 0.1146112 -0.030877251 -0.106520765
v 0.4725488 -0.08997558 -0.100718684
v 0.37022734 -0.09020468 -0.09372749
v 0.19407196 0.075707026 -0.1069371
v 0.2642038 -0.083553866 -0.10632499
v 0.15805328 -0.08983318 -0.10145981
v 0.13703002 -0.06967203 -0.10637062
v 0.08174652 -0.084305085 -0.10456161
v 0.027464598 -0.08151391 -0.10631912
v 0.004297485 -0.08655801 -0.10401924
v -0.06702087 -0.08789423 -0.10353157
v -0.10863617 -0.08402818 -0.10586082
v -0.113556825 0.08027635 -0.10695564
v 0.15374084 0.08493873 -0.106878355
v -0.16729248 0.081475765 -0.10696228
v -0.48572263 0.074971706 -0.1068885
v -0.39210844 0.083480194 -0.10684715
v -0.37963957 -0.085031986 -0.106276244
v -0.49373534 0.08809336 -0.10067841
v -0.48682648 -0.07932927 -0.10626907
v -0.5053769 0.06900256 -0.10493461
v -0.5072186 0.08671101 -0.089538954
v -0.50401825 -0.024690565 -0.10622604
v -0.50335294 -0.08152236 -0.10196022
v 0.37276396 -0.0789659 0.10681587
v 0.20989166 -0.089098565 0.104953915
v 0.14428315 -0.08358867 0.10687629
v 0.049894102 -0.080457665 0.1068885
v 0.0946344 -0.08437351 0.106883466
v -0.36908537 -0.07555939 0.10697754
v -0.11720154 -0.087518156 0.10575165
v -0.34572265 -0.083630525 0.10698265
v -0.23338287 -0.08991056 0.10507095
v -0.47265685 -0.08995511 0.10278679
v -0.49568298 -0.0828512 0.10685097
v -0.5039926 0.0053688334 0.106744
v -0.49968627 0.07843625 0.10697617
v 0.30345488 0.07620574 0.1068309
v 0.4968791 0.07999604 0.10678238
v 0.49657148 -0.0765121 0.106783904
v 0.50312954 0.029675579 0.1066069
v 0.36973998 0.08418255 0.106731944
v -0.19337463 0.083643064 0.106952816
v -0.04999237 0.089693785 0.105560526
v 0.19383788 0.087032385 0.105323106
v -0.47541228 0.090153895 0.10183693
v -0.4928485 0.09020339 0.096780166
v 0.5038606 0.0900085 0.02559288
v 0.4830142 0.09002238 0.09721817
v 0.4960063 0.09020106 -0.09454506
v 0.32630402 0.09020335 0.09367233
v -0.11332397 0.09020316 -0.09495102
v 0.19658905 0.09020591 -0.09808235
v 0.36973998 0.08418255 0.106731944
v 0.4968791 0.07999604 0.10678238
v 0.30345488 0.07620574 0.1068309
v 0.19383788 0.087032385 0.105323106
v 0.11114044 0.09020335 0.08418899
v -0.4928485 0.09020339 0.096780166
v -0.04999237 0.089693785 0.105560526
v -0.2144516 0.09020751 0.098216094
v -0.19337463 0.083643064 0.106952816
v -0.32886383 0.090138674 0.10178131
v -0.47541228 0.090153895 0.10183693
v 0.42191252 0.08433011 -0.106982574
v 0.49413955 0.08150418 -0.10696579
v 0.19407196 0.075707026 -0.1069371
v 0.15374084 0.08493873 -0.106878355
v -0.113556825 0.08027635 -0.10695564
v -0.16974914 0.09020299 -0.09749985
v -0.16729248 0.081475765 -0.10696228
v -0.30231324 0.09020337 -0.09151596
v -0.23025237 0.0901241 -0.100390166
v -0.39210844 0.083480194 -0.10684715
v -0.4169641 0.09011029 -0.10106979
v -0.49373534 0.08809336 -0.10067841
v -0.49770507 0.09019629 -0.06832863
v -0.50574064 0.088494785 -0.0065985867
v -0.5072186 0.08671101 -0.089538954
v -0.47265685 -0.08995511 0.10278679
v -0.5076697 -0.083378434 0.07478355
v -0.49568298 -0.0828512 0.10685097
v -0.4994055 -0.0898163 0.042495344
v -0.49987397 -0.09011928 -0.031399384
v -0.36023986 -0.090187214 0.09821472
v -0.34572265 -0.083630525 0.10698265
v -0.23338287 -0.08991056 0.10507095
v -0.1717105 -0.09020752 0.098944776
v -0.11720154 -0.087518156 0.10575165
v -0.015766297 -0.09010629 0.1016851
v 0.0946344 -0.08437351 0.106883466
v 0.08227692 -0.090205446 0.096751556
v 0.09438141 -0.09020521 -0.09458702
v 0.18926574 -0.09020732 0.09878128
v -0.45777375 -0.090109766 -0.0960717
v 0.14428315 -0.08358867 0.10687629
v -0.50242037 -0.089408584 -0.0859822
v -0.50335294 -0.08152236 -0.10196022
v -0.48682648 -0.07932927 -0.10626907
v -0.37963957 -0.085031986 -0.106276244
v 0.20989166 -0.089098565 0.104953915
v -0.28976807 -0.09020262 -0.10197807
v -0.10863617 -0.08402818 -0.10586082
v -0.06490967 -0.09012073 -0.10086265
v -0.06702087 -0.08789423 -0.10353157
v 0.004297485 -0.08655801 -0.10401924
v 0.08174652 -0.084305085 -0.10456161
v 0.15805328 -0.08983318 -0.10145981
v 0.38390198 -0.09020005 0.08388863
v 0.37022734 -0.09020468 -0.09372749
v 0.34665924 -0.08991715 0.09666214
v 0.37276396 -0.0789659 0.10681587
v 0.46425995 -0.09020211 0.096665725
v 0.49657148 -0.0765121 0.106783904
v 0.50633836 -0.085500345 0.07845825
v 0.4725488 -0.08997558 -0.100718684
v 0.49971405 -0.09015823 0.039241865
v 0.5017433 -0.08934152 -0.08324867
v -0.50879484 -0.08468115 -0.049545746
v -0.4994055 -0.0898163 0.042495344
v -0.49987397 -0.09011928 -0.031399384
v -0.50242037 -0.089408584 -0.0859822
v -0.50335294 -0.08152236 -0.10196022
v -0.5076697 -0.083378434 0.07478355
v -0.5088684 -0.05594153 -0.09800453
v -0.5089041 0.027703285 -0.10214325
v -0.50401825 -0.024690565 -0.10622604
v -0.5053769 0.06900256 -0.10493461
v -0.5072186 0.08671101 -0.089538954
v -0.50574064 0.088494785 -0.0065985867
v -0.50897795 -0.021665253 0.09939316
v -0.5088977 0.08118229 0.088175274
v -0.4928485 0.09020339 0.096780166
v -0.49968627 0.07843625 0.10697617
v -0.5086218 0.049712267 0.10096351
v -0.5039926 0.0053688334 0.106744
v -0.5062692 -0.072250195 0.10090569
v -0.49568298 -0.0828512 0.10685097
v 0.5088594 0.07778615 -0.098132096
v 0.4960063 0.09020106 -0.09454506
v 0.49413955 0.08150418 -0.10696579
v 0.50896406 0.078685656 -0.08322502
v 0.50575376 0.060478944 -0.10588348
v 0.5038606 0.0900085 0.02559288
v 0.50893205 -0.07751189 -0.096028745
v 0.49422088 -0.0778216 -0.106375426
v 0.4725488 -0.08997558 -0.100718684
v 0.5017433 -0.08934152 -0.08324867
v 0.50897795 -0.0842318 -0.017178802
v 0.49971405 -0.09015823 0.039241865
v 0.50633836 -0.085500345 0.07845825
v 0.5089636 -0.070160694 0.095712356
v 0.49657148 -0.0765121 0.106783904
v 0.50312954 0.029675579 0.1066069
v 0.50890166 0.08206279 0.047140427
v 0.50707716 0.085469805 0.09281898
v 0.4968791 0.07999604 0.10678238
v 0.4830142 0.09002238 0.09721817
vt 0.3095703 0.6660156
vt 0.3095703 0.61865234
vt 0.31323242 0.65966797
vt 0.28808594 0.6669922
vt 0.27490234 0.6166992
vt 0.19616699 0.6328125
vt 0.30322266 0.6147461
vt 0.27270508 0.6123047
vt 0.21984863 0.6645508
vt 0.24084473 0.6166992
vt 0.20910645 0.6147461
vt 0.20288086 0.62109375
vt 0.1862793 0.6166992
vt 0.17004395 0.6176758
vt 0.16308594 0.61572266
vt 0.1418457 0.6152344
vt 0.12939453 0.6166992
vt 0.12792969 0.6660156
vt 0.20788574 0.6669922
vt 0.111816406 0.6660156
vt 0.016601562 0.6640625
vt 0.04458618 0.6665039
vt 0.048309326 0.61621094
vt 0.0141067505 0.66845703
vt 0.016281128 0.61816406
vt 0.0107040405 0.66259766
vt 0.008934021 0.6694336
vt 0.011116028 0.63427734
vt 0.01121521 0.6171875
vt 0.27514648 0.46704102
vt 0.22644043 0.4638672
vt 0.20678711 0.46557617
vt 0.17858887 0.4663086
vt 0.19189453 0.46533203
vt 0.05331421 0.46777344
vt 0.12866211 0.46411133
vt 0.060302734 0.46533203
vt 0.09387207 0.4633789
vt 0.022338867 0.46313477
vt 0.015457153 0.46557617
vt 0.012969971 0.49194336
vt 0.014404297 0.5136719
vt 0.25439453 0.5131836
vt 0.31225586 0.51464844
vt 0.31201172 0.4675293
vt 0.31396484 0.49926758
vt 0.27416992 0.515625
vt 0.10583496 0.515625
vt 0.14868164 0.51708984
vt 0.22155762 0.51660156
vt 0.021377563 0.5175781
vt 0.015808105 0.5185547
vt 0.3112793 0.5566406
vt 0.30493164 0.53515625
vt 0.3088379 0.59228516
vt 0.25805664 0.5361328
vt 0.12670898 0.59228516
vt 0.21936035 0.5932617
vt 0.27124023 0.5317383
vt 0.30908203 0.5307617
vt 0.2512207 0.53027344
vt 0.21850586 0.53271484
vt 0.19384766 0.5390625
vt 0.013214111 0.53515625
vt 0.14562988 0.53222656
vt 0.09643555 0.53466797
vt 0.1027832 0.53125
vt 0.06225586 0.5336914
vt 0.018432617 0.5336914
vt 0.2866211 0.5966797
vt 0.3083496 0.5966797
vt 0.21862793 0.5986328
vt 0.20654297 0.5961914
vt 0.12658691 0.59716797
vt 0.109802246 0.5932617
vt 0.11053467 0.59716797
vt 0.07019043 0.5913086
vt 0.09173584 0.59375
vt 0.04333496 0.5966797
vt 0.035888672 0.5942383
vt 0.0129470825 0.5942383
vt 0.011756897 0.58447266
vt 0.009353638 0.56591797
vt 0.008918762 0.5908203
vt 0.02659607 0.14624023
vt 0.03475952 0.13574219
vt 0.025314331 0.1394043
vt 0.044555664 0.13830566
vt 0.066589355 0.1381836
vt 0.027908325 0.17993164
vt 0.024627686 0.1842041
vt 0.025894165 0.21789551
vt 0.027740479 0.23632812
vt 0.025543213 0.25268555
vt 0.027069092 0.28295898
vt 0.024978638 0.31591797
vt 0.028518677 0.31225586
vt 0.085754395 0.31591797
vt 0.027954102 0.34423828
vt 0.0859375 0.15075684
vt 0.024841309 0.33081055
vt 0.08306885 0.1373291
vt 0.08850098 0.13708496
vt 0.090148926 0.14208984
vt 0.08959961 0.17407227
vt 0.026107788 0.3503418
vt 0.087768555 0.20092773
vt 0.08996582 0.25512695
vt 0.08758545 0.26831055
vt 0.08862305 0.26757812
vt 0.08886719 0.28881836
vt 0.0892334 0.31201172
vt 0.08782959 0.33496094
vt 0.032470703 0.40234375
vt 0.08557129 0.3984375
vt 0.028717041 0.39135742
vt 0.024505615 0.39916992
vt 0.028961182 0.42651367
vt 0.024230957 0.43603516
vt 0.03378296 0.43896484
vt 0.08770752 0.42895508
vt 0.045928955 0.43701172
vt 0.08251953 0.43774414
vt 0.86328125 0.9711914
vt 0.86035156 0.94384766
vt 0.8598633 0.9658203
vt 0.8613281 0.9824219
vt 0.86376953 0.9873047
vt 0.86376953 0.93408203
vt 0.87158203 0.98583984
vt 0.8964844 0.9873047
vt 0.8808594 0.98876953
vt 0.9091797 0.98828125
vt 0.9145508 0.9838867
vt 0.91503906 0.9584961
vt 0.88183594 0.9267578
vt 0.91259766 0.9301758
vt 0.91796875 0.9267578
vt 0.91259766 0.92333984
vt 0.9033203 0.92626953
vt 0.8901367 0.9238281
vt 0.8671875 0.9267578
vt 0.86376953 0.92333984
vt 0.9838867 0.9267578
vt 0.9892578 0.9272461
vt 0.9868164 0.9223633
vt 0.984375 0.93066406
vt 0.9790039 0.9238281
vt 0.98828125 0.9633789
vt 0.9375 0.9272461
vt 0.9370117 0.9223633
vt 0.9296875 0.92041016
vt 0.93310547 0.93066406
vt 0.9355469 0.9506836
vt 0.9321289 0.96777344
vt 0.9350586 0.9794922
vt 0.9399414 0.9848633
vt 0.9375 0.9897461
vt 0.96972656 0.98828125
vt 0.98535156 0.96972656
vt 0.9863281 0.98339844
vt 0.98583984 0.98876953
vt 0.99316406 0.98583984
vn 0.021469116 0.08099365 -0.99658203
vn 0.072143555 -0.040008545 -0.99658203
vn 0.78759766 0.010231018 -0.61621094
vn 0.000688076 0.11834717 -0.99316406
vn -0.0008778572 -0.044189453 -0.99902344
vn 0.00018811226 -0.004348755 -1
vn 0.010421753 -0.9951172 -0.097961426
vn -0.0011816025 -1 -0.020141602
vn 0.00014913082 0.033447266 -0.9995117
vn 0.007972717 -0.24926758 -0.9682617
vn -0.0003092289 -0.99365234 -0.11456299
vn 0.0015611649 -0.057769775 -0.99853516
vn 0.016677856 -0.5473633 -0.83691406
vn -0.00064611435 -0.013175964 -1
vn 0.016067505 -0.76904297 -0.63916016
vn 0.0012493134 -0.54003906 -0.8417969
vn -0.0008649826 -0.035980225 -0.9995117
vn -0.0013504028 0.16516113 -0.9863281
vn -0.0010929108 0.5571289 -0.8305664
vn 2.7298927E-05 0.008415222 -1
vn -0.0058174133 0.016815186 -1
vn -0.00012862682 0.31201172 -0.9501953
vn 0.00035619736 -0.038146973 -0.9995117
vn -0.0927124 0.9189453 -0.3828125
vn -0.014472961 -0.04647827 -0.99902344
vn -0.46362305 0.08062744 -0.8823242
vn -0.98779297 0.15319824 -0.026885986
vn -0.20007324 -0.011627197 -0.9794922
vn -0.69189453 -0.42626953 -0.58251953
vn 0.00078487396 -0.022003174 1
vn 0.005203247 -0.6386719 0.76953125
vn 0.0030574799 -0.25561523 0.9667969
vn -0.0011930466 -0.017562866 1
vn -0.0016317368 -0.7685547 0.6401367
vn -0.00017917156 -0.00094366074 1
vn -0.0023651123 -0.31933594 0.9477539
vn -0.008544922 -0.36132812 0.9326172
vn -0.00042629242 -0.8154297 0.5786133
vn -0.012374878 -0.9941406 0.10827637
vn -0.05822754 -0.09472656 0.99365234
vn -0.049865723 -0.0021190643 0.99853516
vn -0.010108948 0.0110321045 1
vn 0.001036644 0.014976501 1
vn 0.034118652 0.035583496 0.99902344
vn 0.060302734 -0.06982422 0.99560547
vn 0.7480469 0.014831543 0.6635742
vn -0.009773254 0.63916016 0.76904297
vn -0.005420685 0.203125 0.9790039
vn 0.0028133392 0.7866211 0.6176758
vn -0.0018615723 0.8129883 0.58203125
vn -0.009544373 0.56884766 0.8222656
vn -0.016540527 1 0.007701874
vn 0.29248047 0.95654297 -0.0012702942
vn 0.010658264 0.9980469 0.05810547
vn 0.013755798 1 -0.011054993
vn -0.00048184395 1 0.011886597
vn -0.00015640259 1 -0.016647339
vn -0.002576828 0.8540039 -0.52001953
vn -0.009773254 0.63916016 0.76904297
vn 0.034118652 0.035583496 0.99902344
vn 0.001036644 0.014976501 1
vn -0.0018615723 0.8129883 0.58203125
vn 0.00082302094 1 0.009140015
vn -0.016540527 1 0.007701874
vn 0.0028133392 0.7866211 0.6176758
vn 0.0023536682 0.9902344 0.14038086
vn -0.005420685 0.203125 0.9790039
vn 0.00043439865 0.8925781 0.4506836
vn -0.009544373 0.56884766 0.8222656
vn 0.000688076 0.11834717 -0.99316406
vn 0.021469116 0.08099365 -0.99658203
vn 0.00014913082 0.033447266 -0.9995117
vn -0.0010929108 0.5571289 -0.8305664
vn -0.0013504028 0.16516113 -0.9863281
vn 0.01474762 0.92529297 -0.37939453
vn 2.7298927E-05 0.008415222 -1
vn -0.00014078617 1 -0.00057554245
vn 0.0044555664 0.78125 -0.62402344
vn -0.00012862682 0.31201172 -0.9501953
vn -0.0014762878 0.9995117 -0.03640747
vn -0.0927124 0.9189453 -0.3828125
vn -0.024795532 0.9995117 -0.007396698
vn -0.9477539 0.31884766 -0.016143799
vn -0.98779297 0.15319824 -0.026885986
vn -0.012374878 -0.9941406 0.10827637
vn -0.9736328 -0.22424316 0.038085938
vn -0.05822754 -0.09472656 0.99365234
vn -0.25708008 -0.9663086 0.01991272
vn -0.0135650635 -1 7.987022E-06
vn 0.00017631054 -0.9995117 0.03149414
vn -0.008544922 -0.36132812 0.9326172
vn -0.00042629242 -0.8154297 0.5786133
vn 0.0011844635 -1 0.0068626404
vn -0.0023651123 -0.31933594 0.9477539
vn -2.3782253E-05 -0.99853516 0.054992676
vn -0.0016317368 -0.7685547 0.6401367
vn 0.0001449585 -1 0.009132385
vn -0.00024414062 -1 -0.0063171387
vn -0.0008049011 -1 0.0066223145
vn -0.0029296875 -0.9995117 -0.03463745
vn 0.0030574799 -0.25561523 0.9667969
vn -0.20092773 -0.97314453 -0.11236572
vn -0.69189453 -0.42626953 -0.58251953
vn -0.014472961 -0.04647827 -0.99902344
vn 0.00035619736 -0.038146973 -0.9995117
vn 0.005203247 -0.6386719 0.76953125
vn 0.0009646416 -0.9536133 -0.3005371
vn -0.0008649826 -0.035980225 -0.9995117
vn 0.0013008118 -0.98535156 -0.17163086
vn 0.0012493134 -0.54003906 -0.8417969
vn 0.016067505 -0.76904297 -0.63916016
vn 0.016677856 -0.5473633 -0.83691406
vn -0.0003092289 -0.99365234 -0.11456299
vn -0.0021705627 -0.9995117 0.02330017
vn -0.0011816025 -1 -0.020141602
vn 0.029891968 -0.91748047 0.39624023
vn 0.00078487396 -0.022003174 1
vn 0.013015747 -0.9897461 0.14331055
vn 0.060302734 -0.06982422 0.99560547
vn 0.6616211 -0.7392578 0.12609863
vn 0.010421753 -0.9951172 -0.097961426
vn 0.08441162 -0.99658203 0.0054359436
vn 0.24694824 -0.9667969 -0.068115234
vn -0.99902344 -0.043762207 -0.0013799667
vn -0.25708008 -0.9663086 0.01991272
vn -0.0135650635 -1 7.987022E-06
vn -0.20092773 -0.97314453 -0.11236572
vn -0.69189453 -0.42626953 -0.58251953
vn -0.9736328 -0.22424316 0.038085938
vn -0.9951172 -0.03552246 -0.094055176
vn -0.9995117 0.0073432922 -0.03326416
vn -0.20007324 -0.011627197 -0.9794922
vn -0.46362305 0.08062744 -0.8823242
vn -0.98779297 0.15319824 -0.026885986
vn -0.9477539 0.31884766 -0.016143799
vn -0.9995117 -0.0046539307 0.024002075
vn -0.9941406 0.105529785 0.016052246
vn -0.016540527 1 0.007701874
vn -0.010108948 0.0110321045 1
vn -0.9248047 0.032196045 0.37841797
vn -0.049865723 -0.0021190643 0.99853516
vn -0.87353516 -0.13806152 0.4663086
vn -0.05822754 -0.09472656 0.99365234
vn 0.85839844 0.3310547 -0.3918457
vn 0.013755798 1 -0.011054993
vn 0.021469116 0.08099365 -0.99658203
vn 0.99560547 0.091308594 -0.016723633
vn 0.78759766 0.010231018 -0.61621094
vn 0.29248047 0.95654297 -0.0012702942
vn 0.98583984 -0.05557251 -0.15722656
vn 0.072143555 -0.040008545 -0.99658203
vn 0.010421753 -0.9951172 -0.097961426
vn 0.24694824 -0.9667969 -0.068115234
vn 0.9980469 -0.06100464 9.071827E-05
vn 0.08441162 -0.99658203 0.0054359436
vn 0.6616211 -0.7392578 0.12609863
vn 0.99609375 -0.020721436 0.08520508
vn 0.060302734 -0.06982422 0.99560547
vn 0.7480469 0.014831543 0.6635742
vn 0.9995117 0.023666382 0.00774765
vn 0.96191406 0.25 0.111816406
vn 0.034118652 0.035583496 0.99902344
vn 0.010658264 0.9980469 0.05810547
g MetroArea_Ground_Damaged_06_0
f 3/3/3 2/2/2 1/1/1
f 1/1/1 2/2/2 4/4/4
f 2/2/2 5/5/5 4/4/4
f 4/4/4 5/5/5 6/6/6
f 2/2/2 7/7/7 5/5/5
f 7/7/7 8/8/8 5/5/5
f 4/4/4 6/6/6 9/9/9
f 8/8/8 10/10/10 5/5/5
f 6/6/6 5/5/5 10/10/10
f 8/8/8 11/11/11 10/10/10
f 10/10/10 11/11/11 12/12/12
f 10/10/10 12/12/12 6/6/6
f 11/11/11 13/13/13 12/12/12
f 12/12/12 13/13/13 14/14/14
f 12/12/12 14/14/14 6/6/6
f 13/13/13 15/15/15 14/14/14
f 15/15/15 16/16/16 14/14/14
f 14/14/14 16/16/16 17/17/17
f 9/9/9 6/6/6 18/18/18
f 19/19/19 9/9/9 18/18/18
f 6/6/6 20/20/20 18/18/18
f 6/6/6 14/14/14 20/20/20
f 14/14/14 17/17/17 20/20/20
f 17/17/17 21/21/21 20/20/20
f 20/20/20 21/21/21 22/22/22
f 17/17/17 23/23/23 21/21/21
f 22/22/22 21/21/21 24/24/24
f 21/21/21 23/23/23 25/25/25
f 24/24/24 21/21/21 26/26/26
f 27/27/27 24/24/24 26/26/26
f 21/21/21 28/28/28 26/26/26
f 21/21/21 25/25/25 28/28/28
f 25/25/25 29/29/29 28/28/28
f 32/32/32 31/31/31 30/30/30
f 33/33/33 32/32/32 30/30/30
f 34/34/34 32/32/32 33/33/33
f 35/35/35 33/33/33 30/30/30
f 36/36/36 33/33/33 35/35/35
f 36/36/36 34/34/34 33/33/33
f 36/36/36 35/35/35 37/37/37
f 37/37/37 38/38/38 36/36/36
f 35/35/35 39/39/39 37/37/37
f 39/39/39 35/35/35 40/40/40
f 41/41/41 40/40/40 35/35/35
f 42/42/42 41/41/41 35/35/35
f 43/43/43 35/35/35 30/30/30
f 42/42/42 35/35/35 43/43/43
f 30/30/30 44/44/44 43/43/43
f 30/30/30 45/45/45 44/44/44
f 44/44/44 45/45/45 46/46/46
f 43/43/43 44/44/44 47/47/47
f 42/42/42 43/43/43 48/48/48
f 48/48/48 43/43/43 49/49/49
f 49/49/49 43/43/43 50/50/50
f 51/51/51 42/42/42 48/48/48
f 42/42/42 51/51/51 52/52/52
f 55/55/55 54/54/54 53/53/53
f 54/54/54 55/55/55 56/56/56
f 56/56/56 55/55/55 57/57/57
f 57/57/57 55/55/55 58/58/58
f 56/56/56 59/59/59 54/54/54
f 59/59/59 60/60/60 54/54/54
f 61/61/61 59/59/59 56/56/56
f 62/62/62 61/61/61 56/56/56
f 62/62/62 56/56/56 63/63/63
f 63/63/63 56/56/56 57/57/57
f 64/64/64 63/63/63 57/57/57
f 65/65/65 62/62/62 63/63/63
f 66/66/66 65/65/65 63/63/63
f 66/66/66 63/63/63 64/64/64
f 66/66/66 67/67/67 65/65/65
f 68/68/68 67/67/67 66/66/66
f 64/64/64 68/68/68 66/66/66
f 69/69/69 67/67/67 68/68/68
f 64/64/64 69/69/69 68/68/68
f 58/58/58 55/55/55 70/70/70
f 70/70/70 55/55/55 71/71/71
f 70/70/70 72/72/72 58/58/58
f 58/58/58 72/72/72 73/73/73
f 57/57/57 58/58/58 73/73/73
f 74/74/74 57/57/57 73/73/73
f 75/75/75 57/57/57 74/74/74
f 74/74/74 76/76/76 75/75/75
f 77/77/77 57/57/57 75/75/75
f 77/77/77 64/64/64 57/57/57
f 75/75/75 76/76/76 78/78/78
f 77/77/77 75/75/75 78/78/78
f 76/76/76 79/79/79 78/78/78
f 80/80/80 77/77/77 78/78/78
f 79/79/79 80/80/80 78/78/78
f 80/80/80 64/64/64 77/77/77
f 79/79/79 81/81/81 80/80/80
f 82/82/82 64/64/64 80/80/80
f 81/81/81 82/82/82 80/80/80
f 83/83/83 64/64/64 82/82/82
f 84/84/84 82/82/82 81/81/81
f 83/83/83 82/82/82 84/84/84
f 87/87/87 86/86/86 85/85/85
f 88/88/88 85/85/85 86/86/86
f 89/89/89 85/85/85 88/88/88
f 89/89/89 90/90/90 85/85/85
f 91/91/91 85/85/85 90/90/90
f 92/92/92 91/91/91 90/90/90
f 93/93/93 92/92/92 90/90/90
f 93/93/93 90/90/90 89/89/89
f 94/94/94 92/92/92 93/93/93
f 95/95/95 94/94/94 93/93/93
f 95/95/95 93/93/93 89/89/89
f 95/95/95 96/96/96 94/94/94
f 96/96/96 95/95/95 97/97/97
f 97/97/97 95/95/95 89/89/89
f 97/97/97 89/89/89 98/98/98
f 98/98/98 99/99/99 97/97/97
f 99/99/99 96/96/96 97/97/97
f 98/98/98 89/89/89 100/100/100
f 96/96/96 99/99/99 101/101/101
f 100/100/100 89/89/89 102/102/102
f 100/100/100 102/102/102 103/103/103
f 104/104/104 100/100/100 103/103/103
f 105/105/105 100/100/100 104/104/104
f 101/101/101 99/99/99 106/106/106
f 107/107/107 100/100/100 105/105/105
f 98/98/98 100/100/100 107/107/107
f 105/105/105 108/108/108 107/107/107
f 109/109/109 107/107/107 108/108/108
f 109/109/109 98/98/98 107/107/107
f 110/110/110 109/109/109 108/108/108
f 111/111/111 109/109/109 110/110/110
f 98/98/98 109/109/109 111/111/111
f 112/112/112 98/98/98 111/111/111
f 113/113/113 98/98/98 112/112/112
f 113/113/113 114/114/114 98/98/98
f 114/114/114 99/99/99 98/98/98
f 114/114/114 113/113/113 115/115/115
f 116/116/116 106/106/106 99/99/99
f 114/114/114 116/116/116 99/99/99
f 106/106/106 116/116/116 117/117/117
f 114/114/114 117/117/117 116/116/116
f 118/118/118 114/114/114 115/115/115
f 117/117/117 114/114/114 118/118/118
f 117/117/117 118/118/118 119/119/119
f 119/119/119 118/118/118 120/120/120
f 118/118/118 115/115/115 121/121/121
f 120/120/120 118/118/118 122/122/122
f 122/122/122 118/118/118 121/121/121
f 123/123/123 122/122/122 121/121/121
f 126/126/126 125/125/125 124/124/124
f 127/127/127 126/126/126 124/124/124
f 127/127/127 124/124/124 128/128/128
f 125/125/125 129/129/129 124/124/124
f 130/130/130 128/128/128 124/124/124
f 124/124/124 131/131/131 130/130/130
f 128/128/128 130/130/130 132/132/132
f 132/132/132 130/130/130 131/131/131
f 133/133/133 132/132/132 131/131/131
f 134/134/134 133/133/133 131/131/131
f 134/134/134 131/131/131 135/135/135
f 136/136/136 124/124/124 129/129/129
f 124/124/124 136/136/136 131/131/131
f 131/131/131 137/137/137 135/135/135
f 131/131/131 136/136/136 137/137/137
f 135/135/135 137/137/137 138/138/138
f 137/137/137 139/139/139 138/138/138
f 137/137/137 140/140/140 139/139/139
f 136/136/136 140/140/140 137/137/137
f 140/140/140 141/141/141 139/139/139
f 140/140/140 136/136/136 141/141/141
f 129/129/129 142/142/142 136/136/136
f 136/136/136 142/142/142 141/141/141
f 129/129/129 143/143/143 142/142/142
f 142/142/142 143/143/143 141/141/141
f 146/146/146 145/145/145 144/144/144
f 147/147/147 144/144/144 145/145/145
f 144/144/144 148/148/148 146/146/146
f 147/147/147 148/148/148 144/144/144
f 145/145/145 149/149/149 147/147/147
f 148/148/148 147/147/147 150/150/150
f 148/148/148 150/150/150 151/151/151
f 150/150/150 152/152/152 151/151/151
f 153/153/153 152/152/152 150/150/150
f 153/153/153 150/150/150 154/154/154
f 147/147/147 154/154/154 150/150/150
f 153/153/153 154/154/154 155/155/155
f 156/156/156 155/155/155 154/154/154
f 156/156/156 154/154/154 157/157/157
f 157/157/157 154/154/154 147/147/147
f 157/157/157 158/158/158 156/156/156
f 159/159/159 158/158/158 157/157/157
f 160/160/160 147/147/147 149/149/149
f 157/157/157 147/147/147 160/160/160
f 159/159/159 157/157/157 161/161/161
f 161/161/161 157/157/157 160/160/160
f 149/149/149 161/161/161 160/160/160
f 162/162/162 159/159/159 161/161/161
f 149/149/149 163/163/163 161/161/161
f 163/163/163 162/162/162 161/161/161
