g Common_Prop_TrafficSigns_47
v -0.19838378 2.0619949E-13 -0.0075583896
v 0.19838378 -1.9072935E-08 0.007555623
v 0.19838378 9.536764E-08 -0.0075583896
v -0.19838378 5.505285E-13 0.007555623
v -0.219187 0.0042321966 -0.0075583886
v -0.219187 0.0042321966 0.007555624
v -0.23435302 0.016928673 -0.0075583863
v -0.23435302 0.016928673 0.0075556263
v -0.24043944 0.038089514 -0.007558381
v -0.24043944 0.038089514 0.0075556315
v -0.24043944 0.4179252 0.0075557074
v -0.24043944 0.4179252 -0.0075583025
v -0.23435302 0.4390861 -0.007558299
v -0.23435302 0.4390861 0.007555711
v -0.219187 0.45178255 -0.007558296
v -0.219187 0.45178255 0.007555714
v -0.19838378 0.45601472 -0.0075582955
v -0.19838378 0.45601472 0.007555715
v 0.19838378 0.4560148 -0.0075582955
v 0.19838378 0.4560148 0.007555715
v 0.219187 0.45178264 -0.007558296
v 0.219187 0.45178264 0.007555714
v 0.23435302 0.4390861 -0.007558299
v 0.23435302 0.4390861 0.007555711
v 0.24043944 0.4179253 -0.0075583025
v 0.24043944 0.4179253 0.0075557074
v 0.24043944 0.038089477 0.0075556315
v 0.24043944 0.03808959 -0.007558381
v 0.23435302 0.016928673 -0.0075583863
v 0.23435302 0.016928654 0.0075556263
v 0.219187 0.004232273 -0.0075583886
v 0.219187 0.0042321202 0.007555624
v 0.219187 0.0042321202 0.007555624
v 0.219187 0.004232273 -0.0075583886
v 0.19838378 9.536764E-08 -0.0075583896
v 0.19838378 -1.9072935E-08 0.007555623
v -0.219187 0.45178255 0.007555714
v -0.19838378 0.45601472 0.007555715
v 0.19838378 0.4560148 0.007555715
v 0.219187 0.45178264 0.007555714
v -0.23435302 0.4390861 0.007555711
v 0.23435302 0.4390861 0.007555711
v -0.24043944 0.4179252 0.0075557074
v 0.24043944 0.4179253 0.0075557074
v 0.24043944 0.038089477 0.0075556315
v -0.24043944 0.038089514 0.0075556315
v -0.23435302 0.016928673 0.0075556263
v 0.23435302 0.016928654 0.0075556263
v -0.219187 0.0042321966 0.007555624
v 0.219187 0.0042321202 0.007555624
v -0.19838378 5.505285E-13 0.007555623
v 0.19838378 -1.9072935E-08 0.007555623
v 0.219187 0.45178264 -0.007558296
v 0.19838378 0.4560148 -0.0075582955
v -0.19838378 0.45601472 -0.0075582955
v -0.219187 0.45178255 -0.007558296
v 0.23435302 0.4390861 -0.007558299
v -0.23435302 0.4390861 -0.007558299
v 0.24043944 0.4179253 -0.0075583025
v -0.24043944 0.4179252 -0.0075583025
v -0.24043944 0.038089514 -0.007558381
v 0.24043944 0.03808959 -0.007558381
v 0.23435302 0.016928673 -0.0075583863
v -0.23435302 0.016928673 -0.0075583863
v 0.219187 0.004232273 -0.0075583886
v -0.219187 0.0042321966 -0.0075583886
v 0.19838378 9.536764E-08 -0.0075583896
v -0.19838378 2.0619949E-13 -0.0075583896
vt 0.41430664 0.15734863
vt 0.4177246 0.09899902
vt 0.41430664 0.09899902
vt 0.4177246 0.15734863
vt 0.41430664 0.16040039
vt 0.4177246 0.16040039
vt 0.41430664 0.16333008
vt 0.4177246 0.16333008
vt 0.41430664 0.1665039
vt 0.4177246 0.1665039
vt 0.4177246 0.22241211
vt 0.41430664 0.22241211
vt 0.41430664 0.22558594
vt 0.4177246 0.22558594
vt 0.41430664 0.22851562
vt 0.4177246 0.22851562
vt 0.41430664 0.23156738
vt 0.4177246 0.23156738
vt 0.41430664 0.28979492
vt 0.4177246 0.28979492
vt 0.41430664 0.29296875
vt 0.4177246 0.29296875
vt 0.41430664 0.29589844
vt 0.4177246 0.29589844
vt 0.41430664 0.29907227
vt 0.4177246 0.29907227
vt 0.4177246 0.35498047
vt 0.41430664 0.35498047
vt 0.41430664 0.3581543
vt 0.4177246 0.3581543
vt 0.41430664 0.36108398
vt 0.4177246 0.36108398
vt 0.4177246 0.10437012
vt 0.41430664 0.10437012
vt 0.41430664 0.09899902
vt 0.4177246 0.09899902
vt 0.70751953 0.44677734
vt 0.7109375 0.44750977
vt 0.78125 0.44750977
vt 0.78515625 0.44677734
vt 0.70458984 0.44458008
vt 0.78759766 0.44458008
vt 0.7036133 0.44067383
vt 0.7885742 0.44067383
vt 0.7885742 0.37353516
vt 0.7036133 0.37353516
vt 0.70458984 0.36987305
vt 0.78759766 0.36987305
vt 0.70751953 0.36767578
vt 0.78515625 0.36767578
vt 0.7109375 0.36694336
vt 0.78125 0.36694336
vt 0.7944336 0.0435791
vt 0.79345703 0.047027588
vt 0.79345703 0.11248779
vt 0.7944336 0.11590576
vt 0.7963867 0.04107666
vt 0.7963867 0.1184082
vt 0.7998047 0.04006958
vt 0.7998047 0.1194458
vt 0.86279297 0.1194458
vt 0.86279297 0.04006958
vt 0.86621094 0.04107666
vt 0.86621094 0.1184082
vt 0.86816406 0.0435791
vt 0.86816406 0.11590576
vt 0.8691406 0.04699707
vt 0.8691406 0.11248779
vn -0.10015869 -0.9951172 -1.9073486E-06
vn 0.10015869 -0.9951172 -6.2584877E-06
vn 0.10015869 -0.9951172 -6.2584877E-06
vn -0.10015869 -0.9951172 -1.9073486E-06
vn -0.4338379 -0.9008789 0
vn -0.4338379 -0.9008789 0
vn -0.8383789 -0.54541016 0
vn -0.8383789 -0.54541016 0
vn -0.9902344 -0.13952637 0
vn -0.9902344 -0.13952637 0
vn -0.9902344 0.13952637 0
vn -0.9902344 0.13952637 0
vn -0.8383789 0.54541016 0
vn -0.8383789 0.54541016 0
vn -0.4338379 0.9008789 0
vn -0.4338379 0.9008789 0
vn -0.10015869 0.9951172 0
vn -0.10015869 0.9951172 0
vn 0.10015869 0.9951172 0
vn 0.10015869 0.9951172 0
vn 0.4338379 0.9008789 0
vn 0.4338379 0.9008789 0
vn 0.8383789 0.54541016 0
vn 0.8383789 0.54541016 0
vn 0.9902344 0.13952637 0
vn 0.9902344 0.13952637 0
vn 0.9902344 -0.13952637 -5.9604645E-07
vn 0.9902344 -0.13952637 -5.9604645E-07
vn 0.8383789 -0.54541016 -2.9206276E-06
vn 0.8383789 -0.54541016 -2.9206276E-06
vn 0.4338379 -0.9008789 -6.67572E-06
vn 0.4338379 -0.9008789 -6.67572E-06
vn 0.4338379 -0.9008789 -6.67572E-06
vn 0.4338379 -0.9008789 -6.67572E-06
vn 0.10015869 -0.9951172 -6.2584877E-06
vn 0.10015869 -0.9951172 -6.2584877E-06
vn -0 -2.3841858E-07 1
vn -0 -1.1920929E-07 1
vn -0 -1.1920929E-07 1
vn -0 -2.3841858E-07 1
vn -0 -1.7881393E-07 1
vn -0 -1.7881393E-07 1
vn -0 -1.7881393E-07 1
vn -0 -1.7881393E-07 1
vn -0 -2.3841858E-07 1
vn -0 -2.3841858E-07 1
vn -0 -2.3841858E-07 1
vn -0 -2.3841858E-07 1
vn -0 -1.7881393E-07 1
vn -0 -1.7881393E-07 1
vn -0 -2.9802322E-07 1
vn -0 -2.9802322E-07 1
vn -0 2.3841858E-07 -1
vn -0 1.1920929E-07 -1
vn -0 1.1920929E-07 -1
vn -0 2.3841858E-07 -1
vn -0 1.7881393E-07 -1
vn -0 1.7881393E-07 -1
vn -0 1.7881393E-07 -1
vn -0 1.7881393E-07 -1
vn -0 2.3841858E-07 -1
vn -0 2.3841858E-07 -1
vn -0 2.3841858E-07 -1
vn -0 2.3841858E-07 -1
vn -0 1.7881393E-07 -1
vn -0 1.7881393E-07 -1
vn -0 2.9802322E-07 -1
vn -0 2.9802322E-07 -1
g Common_Prop_TrafficSigns_47_0
f 3/3/3 2/2/2 1/1/1
f 2/2/2 4/4/4 1/1/1
f 1/1/1 4/4/4 5/5/5
f 4/4/4 6/6/6 5/5/5
f 5/5/5 6/6/6 7/7/7
f 6/6/6 8/8/8 7/7/7
f 7/7/7 8/8/8 9/9/9
f 8/8/8 10/10/10 9/9/9
f 10/10/10 11/11/11 9/9/9
f 11/11/11 12/12/12 9/9/9
f 13/13/13 12/12/12 11/11/11
f 14/14/14 13/13/13 11/11/11
f 15/15/15 13/13/13 14/14/14
f 16/16/16 15/15/15 14/14/14
f 17/17/17 15/15/15 16/16/16
f 18/18/18 17/17/17 16/16/16
f 19/19/19 17/17/17 18/18/18
f 20/20/20 19/19/19 18/18/18
f 19/19/19 20/20/20 21/21/21
f 20/20/20 22/22/22 21/21/21
f 21/21/21 22/22/22 23/23/23
f 22/22/22 24/24/24 23/23/23
f 23/23/23 24/24/24 25/25/25
f 24/24/24 26/26/26 25/25/25
f 25/25/25 26/26/26 27/27/27
f 28/28/28 25/25/25 27/27/27
f 29/29/29 28/28/28 27/27/27
f 30/30/30 29/29/29 27/27/27
f 31/31/31 29/29/29 30/30/30
f 32/32/32 31/31/31 30/30/30
f 35/35/35 34/34/34 33/33/33
f 36/36/36 35/35/35 33/33/33
f 39/39/39 38/38/38 37/37/37
f 40/40/40 39/39/39 37/37/37
f 40/40/40 37/37/37 41/41/41
f 42/42/42 40/40/40 41/41/41
f 42/42/42 41/41/41 43/43/43
f 44/44/44 42/42/42 43/43/43
f 44/44/44 43/43/43 45/45/45
f 43/43/43 46/46/46 45/45/45
f 46/46/46 47/47/47 45/45/45
f 47/47/47 48/48/48 45/45/45
f 47/47/47 49/49/49 48/48/48
f 49/49/49 50/50/50 48/48/48
f 49/49/49 51/51/51 50/50/50
f 51/51/51 52/52/52 50/50/50
f 55/55/55 54/54/54 53/53/53
f 56/56/56 55/55/55 53/53/53
f 56/56/56 53/53/53 57/57/57
f 58/58/58 56/56/56 57/57/57
f 58/58/58 57/57/57 59/59/59
f 60/60/60 58/58/58 59/59/59
f 61/61/61 60/60/60 59/59/59
f 62/62/62 61/61/61 59/59/59
f 62/62/62 63/63/63 61/61/61
f 63/63/63 64/64/64 61/61/61
f 63/63/63 65/65/65 64/64/64
f 65/65/65 66/66/66 64/64/64
f 65/65/65 67/67/67 66/66/66
f 67/67/67 68/68/68 66/66/66
