g Common_Prop_Poster_21
v -0.32939956 0.14479919 -0.0067762155
v 0.014764557 7.6293944E-08 -0.0067762192
v -0.32939956 7.6293944E-08 0.0067760255
v -0.32939956 0.15630458 -0.0067762146
v 0.034938507 7.6293944E-08 -0.0067762192
v 0.32939956 7.6293944E-08 -0.0067762192
v 0.32939956 1.009765 -0.0067761894
v -0.32939956 1.009765 -0.0067761894
vt 0.17687988 0.4741211
vt 0.26293945 0.43774414
vt 0.17687988 0.43774414
vt 0.17687988 0.47680664
vt 0.2680664 0.43774414
vt 0.34179688 0.43774414
vt 0.34179688 0.69091797
vt 0.17687988 0.69091797
vn 0.034606934 0.08227539 0.99609375
vn 0.027374268 0.06506348 0.9975586
vn 0.03918457 0.09313965 0.9951172
vn -0 0 1
vn -0 0 1
vn -0 0 1
vn -0 0 1
vn -0 0 1
g Common_Prop_Poster_21_0
f 3/3/3 2/2/2 1/1/1
f 1/1/1 2/2/2 4/4/4
f 2/2/2 5/5/5 4/4/4
f 4/4/4 5/5/5 6/6/6
f 7/7/7 4/4/4 6/6/6
f 8/8/8 4/4/4 7/7/7
