g Common_Prop_Poster_01
v 0.22801678 0.012201794 0.025355501
v 0.09100854 0.0027657927 0.00574757
v 0.2323082 0.109400764 0.002281892
v 0.23256354 0.11698693 0.00090892444
v 0.051286295 0.00043723572 0.0009088486
v 0.23265317 0.12502503 0.00042708035
v 0.011791582 -7.25013E-14 2.7643938E-07
v 0.23273253 0.7760032 7.6673444E-07
v -0.23273224 -7.25013E-14 2.7643938E-07
v -0.23273224 0.7760032 7.6673444E-07
vt 0.011459351 0.012840271
vt 0.011482239 0.07141113
vt 0.056640625 0.012878418
vt 0.06021118 0.012840271
vt 0.011459351 0.08868408
vt 0.06359863 0.012870789
vt 0.011512756 0.1048584
vt 0.33496094 0.012840271
vt 0.011459351 0.20690918
vt 0.33496094 0.20690918
vn -0.15356445 0.23461914 0.95996094
vn -0.13171387 0.20507812 0.96972656
vn -0.13427734 0.20861816 0.96875
vn -0.058258057 0.091796875 0.9941406
vn -0.043914795 0.06945801 0.99658203
vn -0.0096588135 0.014572144 1
vn -0.0051727295 0.0071754456 1
vn -0.0003414154 9.6559525E-05 1
vn -0.00065135956 0.0001847744 1
vn -0 -6.556511E-07 1
g Common_Prop_Poster_01_0
f 3/3/3 2/2/2 1/1/1
f 2/2/2 3/3/3 4/4/4
f 5/5/5 2/2/2 4/4/4
f 5/5/5 4/4/4 6/6/6
f 7/7/7 5/5/5 6/6/6
f 7/7/7 6/6/6 8/8/8
f 8/8/8 9/9/9 7/7/7
f 10/10/10 9/9/9 8/8/8
