g Common_Prop_TrafficSigns_10
v 0.34533325 0.42623922 -0.0012743206
v 0.325968 0.41816145 0.01822718
v 0.325968 0.42623922 -0.0012742776
v 0.34533325 0.41816154 0.018227093
v 0.325968 0.39866003 0.036101528
v 0.34533325 0.39866012 0.03610146
v 0.325968 0.37915877 0.018227188
v 0.34533325 0.3791587 0.018227085
v 0.325968 0.37108094 -0.0012742856
v 0.34533325 0.37108094 -0.0012743287
v 0.325968 0.37915862 -0.020775704
v 0.34533325 0.3791587 -0.020775745
v 0.325968 0.39866012 -0.028853444
v 0.34533325 0.39866003 -0.028853495
v 0.325968 0.41816154 -0.020775694
v 0.34533325 0.41816145 -0.020775773
v 0.325968 0.42623922 -0.0012742776
v 0.34533325 0.42623922 -0.0012743206
v 0.34533325 0.41816154 0.018227093
v 0.34533325 0.42623922 -0.0012743206
v 0.34533325 0.41816145 -0.020775773
v 0.34533325 0.39866012 0.03610146
v 0.34533325 0.39866003 -0.028853495
v 0.34533325 0.3791587 0.018227085
v 0.34533325 0.3791587 -0.020775745
v 0.34533325 0.37108094 -0.0012743287
v 0.325968 0.42623922 -0.0012742776
v 0.325968 0.41816145 0.01822718
v 0.325968 0.41816154 -0.020775694
v 0.325968 0.39866012 -0.028853444
v 0.325968 0.39866003 0.036101528
v 0.325968 0.37915862 -0.020775704
v 0.325968 0.37915877 0.018227188
v 0.325968 0.37108094 -0.0012742856
v -0.1441394 0.10861063 -0.012200331
v 0.325968 0.11953701 -0.016725782
v -0.1441394 0.11953661 -0.016726015
v 0.325968 0.108611025 -0.012200096
v -0.14414184 0.104084946 -0.0012743644
v 0.325968 0.10408535 -0.0012741259
v -0.14414184 0.10861067 0.009651608
v 0.325968 0.10861105 0.009651845
v -0.14414184 0.11953661 0.014177301
v 0.325968 0.11953701 0.0141775375
v -0.14414184 0.13046259 0.009651615
v 0.325968 0.13046297 0.009651853
v -0.14414184 0.13498826 -0.001274356
v 0.325968 0.13498867 -0.0012741181
v -0.1441394 0.13046259 -0.012200324
v 0.325968 0.13046299 -0.012200088
v -0.1441394 0.11953661 -0.016726015
v 0.325968 0.11953701 -0.016725782
v 0.3453357 0.14711587 -0.0012743783
v 0.325968 0.13903807 0.018227123
v 0.325968 0.14711587 -0.0012743352
v 0.3453357 0.13903815 0.018227035
v 0.325968 0.11953668 0.036101434
v 0.3453357 0.11953672 0.03610141
v 0.325968 0.1000354 0.01822713
v 0.3453357 0.1000353 0.018227028
v 0.325968 0.09195755 -0.0012743433
v 0.3453357 0.09195757 -0.0012743864
v 0.325968 0.10003528 -0.020775761
v 0.3453357 0.1000353 -0.020775802
v 0.325968 0.11953672 -0.028853502
v 0.3453357 0.11953672 -0.028853552
v 0.325968 0.13903815 -0.020775752
v 0.3453357 0.13903812 -0.02077583
v 0.325968 0.14711587 -0.0012743352
v 0.3453357 0.14711587 -0.0012743783
v 0.3453357 0.13903815 0.018227035
v 0.3453357 0.14711587 -0.0012743783
v 0.3453357 0.13903812 -0.02077583
v 0.3453357 0.11953672 0.03610141
v 0.3453357 0.11953672 -0.028853552
v 0.3453357 0.1000353 0.018227028
v 0.3453357 0.1000353 -0.020775802
v 0.3453357 0.09195757 -0.0012743864
v 0.325968 0.14711587 -0.0012743352
v 0.325968 0.13903807 0.018227123
v 0.325968 0.13903815 -0.020775752
v 0.325968 0.11953672 -0.028853502
v 0.325968 0.11953668 0.036101434
v 0.325968 0.10003528 -0.020775761
v 0.325968 0.1000354 0.01822713
v 0.325968 0.09195755 -0.0012743433
v -0.33827513 0.019636497 -0.051732168
v -0.32068238 0.0049091135 0.051731817
v -0.32068238 0.0049091256 -0.05173217
v -0.33827513 0.019636486 0.051731817
v -0.3453357 0.044182166 -0.051732153
v -0.3453357 0.044182148 0.05173183
v -0.3453357 0.4847756 0.05173207
v -0.3453357 0.4847756 -0.05173196
v -0.33827513 0.50932133 -0.051731948
v -0.33827513 0.50932133 0.051732082
v -0.32068238 0.52404875 -0.051731944
v -0.32068238 0.52404875 0.051732082
v -0.2965515 0.5289579 -0.051731944
v -0.2965515 0.5289579 0.051732086
v 0.16367798 0.52895796 -0.051731944
v 0.16367798 0.52895796 0.051732082
v 0.18781127 0.5240488 -0.051731944
v 0.18781127 0.5240488 0.051732086
v 0.2054016 0.50932145 -0.051731948
v 0.2054016 0.50932145 0.051732082
v 0.21246216 0.48477575 -0.05173196
v 0.21246216 0.48477575 0.051732067
v 0.21246216 0.044182204 0.05173183
v 0.21246216 0.044182375 -0.051732153
v 0.20540404 0.019636583 -0.051732168
v 0.20540404 0.019636553 0.051731817
v 0.18781127 0.0049092877 -0.051732168
v 0.18781127 0.0049091233 0.051731814
v 0.16367798 1.5383421E-07 -0.051732168
v 0.16367798 -1.078264E-08 0.051731814
v -0.2965515 -3.690065E-08 -0.05173217
v -0.2965515 -4.8929614E-08 0.051731817
v -0.32068238 0.0049091256 -0.05173217
v -0.32068238 0.0049091135 0.051731817
v -0.32068238 0.52404875 0.051732082
v -0.2965515 0.5289579 0.051732086
v 0.16367798 0.52895796 0.051732082
v 0.18781127 0.5240488 0.051732086
v -0.33827513 0.50932133 0.051732082
v 0.2054016 0.50932145 0.051732082
v -0.3453357 0.4847756 0.05173207
v 0.21246216 0.48477575 0.051732067
v 0.21246216 0.044182204 0.05173183
v -0.3453357 0.044182148 0.05173183
v -0.33827513 0.019636486 0.051731817
v 0.20540404 0.019636553 0.051731817
v -0.32068238 0.0049091135 0.051731817
v 0.18781127 0.0049091233 0.051731814
v -0.2965515 -4.8929614E-08 0.051731817
v 0.16367798 -1.078264E-08 0.051731814
v 0.18781127 0.5240488 -0.051731944
v 0.16367798 0.52895796 -0.051731944
v -0.2965515 0.5289579 -0.051731944
v -0.32068238 0.52404875 -0.051731944
v 0.2054016 0.50932145 -0.051731948
v -0.33827513 0.50932133 -0.051731948
v 0.21246216 0.48477575 -0.05173196
v -0.3453357 0.4847756 -0.05173196
v -0.3453357 0.044182166 -0.051732153
v 0.21246216 0.044182375 -0.051732153
v 0.20540404 0.019636583 -0.051732168
v -0.33827513 0.019636497 -0.051732168
v 0.18781127 0.0049092877 -0.051732168
v -0.32068238 0.0049091256 -0.05173217
v 0.16367798 1.5383421E-07 -0.051732168
v -0.2965515 -3.690065E-08 -0.05173217
v -0.14414184 0.387734 -0.012200241
v 0.325968 0.39866033 -0.01672569
v -0.1441394 0.39865997 -0.016725922
v 0.325968 0.38773435 -0.012200004
v -0.14414184 0.3832083 -0.0012742735
v 0.325968 0.3832087 -0.001274035
v -0.14414184 0.387734 0.009651699
v 0.325968 0.38773435 0.009651936
v -0.14414184 0.39865997 0.014177392
v 0.325968 0.39866033 0.01417763
v -0.14414184 0.40958595 0.009651706
v 0.325968 0.4095863 0.009651943
v -0.14414184 0.4141116 -0.0012742651
v 0.325968 0.414112 -0.0012740272
v -0.14414184 0.40958595 -0.0122002335
v 0.325968 0.4095863 -0.012199998
v -0.1441394 0.39865997 -0.016725922
v 0.325968 0.39866033 -0.01672569
vt 0.31689453 0.12890625
vt 0.31347656 0.12475586
vt 0.31347656 0.12890625
vt 0.31689453 0.12475586
vt 0.31347656 0.12060547
vt 0.31689453 0.12060547
vt 0.31347656 0.11651611
vt 0.31689453 0.11651611
vt 0.31347656 0.11236572
vt 0.31689453 0.11236572
vt 0.31347656 0.10821533
vt 0.31689453 0.10821533
vt 0.31347656 0.10412598
vt 0.31689453 0.10412598
vt 0.31347656 0.099975586
vt 0.31689453 0.099975586
vt 0.31347656 0.095825195
vt 0.31689453 0.095825195
vt 0.28857422 0.41674805
vt 0.29638672 0.43554688
vt 0.31518555 0.44335938
vt 0.29638672 0.39794922
vt 0.33398438 0.43554688
vt 0.31518555 0.39013672
vt 0.34179688 0.41674805
vt 0.33398438 0.39794922
vt 0.29638672 0.43554688
vt 0.31518555 0.44335938
vt 0.28857422 0.41674805
vt 0.29638672 0.39794922
vt 0.33398438 0.43554688
vt 0.31518555 0.39013672
vt 0.34179688 0.41674805
vt 0.33398438 0.39794922
vt 0.3203125 0.0803833
vt 0.32226562 0.14624023
vt 0.32226562 0.0803833
vt 0.3203125 0.14624023
vt 0.31860352 0.0803833
vt 0.31860352 0.14624023
vt 0.3166504 0.0803833
vt 0.3166504 0.14624023
vt 0.3149414 0.0803833
vt 0.3149414 0.14624023
vt 0.31298828 0.0803833
vt 0.31298828 0.14624023
vt 0.3112793 0.0803833
vt 0.3112793 0.14624023
vt 0.30932617 0.0803833
vt 0.30932617 0.14624023
vt 0.30737305 0.0803833
vt 0.30737305 0.14624023
vt 0.31689453 0.12890625
vt 0.31347656 0.12475586
vt 0.31347656 0.12890625
vt 0.31689453 0.12475586
vt 0.31347656 0.12060547
vt 0.31689453 0.12060547
vt 0.31347656 0.11651611
vt 0.31689453 0.11651611
vt 0.31347656 0.11236572
vt 0.31689453 0.11236572
vt 0.31347656 0.10821533
vt 0.31689453 0.10821533
vt 0.31347656 0.10406494
vt 0.31689453 0.10406494
vt 0.31347656 0.099975586
vt 0.31689453 0.099975586
vt 0.31347656 0.095825195
vt 0.31689453 0.095825195
vt 0.28857422 0.41674805
vt 0.29638672 0.43554688
vt 0.31518555 0.44335938
vt 0.29638672 0.39794922
vt 0.33398438 0.43554688
vt 0.31518555 0.39013672
vt 0.34179688 0.41674805
vt 0.33398438 0.39794922
vt 0.29638672 0.43554688
vt 0.31518555 0.44335938
vt 0.28857422 0.41674805
vt 0.29638672 0.39794922
vt 0.33398438 0.43554688
vt 0.31518555 0.39013672
vt 0.34179688 0.41674805
vt 0.33398438 0.39794922
vt 0.18151855 0.40844727
vt 0.16894531 0.41210938
vt 0.18151855 0.41210938
vt 0.16894531 0.40820312
vt 0.18151855 0.40405273
vt 0.16894531 0.40405273
vt 0.16894531 0.32910156
vt 0.18151855 0.32910156
vt 0.18151855 0.32495117
vt 0.16894531 0.32495117
vt 0.18151855 0.32104492
vt 0.16894531 0.32104492
vt 0.18151855 0.31689453
vt 0.16894531 0.31689453
vt 0.18151855 0.23950195
vt 0.16894531 0.23950195
vt 0.18151855 0.23535156
vt 0.16894531 0.23547363
vt 0.18151855 0.23156738
vt 0.16894531 0.23168945
vt 0.18151855 0.22741699
vt 0.16894531 0.22741699
vt 0.16894531 0.15527344
vt 0.18151855 0.15527344
vt 0.18151855 0.1508789
vt 0.16894531 0.15100098
vt 0.18151855 0.14697266
vt 0.16894531 0.14709473
vt 0.18151855 0.14282227
vt 0.16894531 0.14282227
vt 0.18151855 0.06738281
vt 0.16894531 0.06738281
vt 0.18151855 0.06335449
vt 0.16894531 0.06335449
vt 0.70751953 0.44677734
vt 0.7109375 0.44750977
vt 0.78125 0.44750977
vt 0.78515625 0.44677734
vt 0.70458984 0.44458008
vt 0.78759766 0.44458008
vt 0.7036133 0.44067383
vt 0.7885742 0.44067383
vt 0.7885742 0.37353516
vt 0.7036133 0.37353516
vt 0.70458984 0.36987305
vt 0.78759766 0.36987305
vt 0.70751953 0.36767578
vt 0.78515625 0.36767578
vt 0.7109375 0.36694336
vt 0.78125 0.36694336
vt 0.70751953 0.44677734
vt 0.7109375 0.44750977
vt 0.78125 0.44750977
vt 0.78515625 0.44677734
vt 0.70458984 0.44458008
vt 0.78759766 0.44458008
vt 0.7036133 0.44067383
vt 0.7885742 0.44067383
vt 0.7885742 0.37353516
vt 0.7036133 0.37353516
vt 0.70458984 0.36987305
vt 0.78759766 0.36987305
vt 0.70751953 0.36767578
vt 0.78515625 0.36767578
vt 0.7109375 0.36694336
vt 0.78125 0.36694336
vt 0.30932617 0.14624023
vt 0.30737305 0.0803833
vt 0.30737305 0.14624023
vt 0.30932617 0.0803833
vt 0.3112793 0.14624023
vt 0.3112793 0.0803833
vt 0.31298828 0.14624023
vt 0.31298828 0.0803833
vt 0.3149414 0.14624023
vt 0.3149414 0.0803833
vt 0.3166504 0.14624023
vt 0.3166504 0.0803833
vt 0.31860352 0.14624023
vt 0.31860352 0.0803833
vt 0.3203125 0.14624023
vt 0.3203125 0.0803833
vt 0.32226562 0.14624023
vt 0.32226562 0.0803833
vn -0 1 -5.364418E-07
vn -1.7881393E-07 0.81933594 0.57373047
vn -0 1 5.364418E-07
vn -1.7881393E-07 0.81933594 0.57373047
vn 2.3245811E-06 -2.682209E-06 1
vn 2.3245811E-06 7.1525574E-07 1
vn 1.4305115E-06 -0.81933594 0.57373047
vn 1.4305115E-06 -0.81933594 0.57373047
vn 3.5762787E-07 -1 1.9669533E-06
vn 3.5762787E-07 -1 8.34465E-07
vn -6.556511E-07 -0.70703125 -0.70703125
vn -6.556511E-07 -0.70703125 -0.70703125
vn -2.026558E-06 7.748604E-07 -1
vn -2.026558E-06 -1.1920929E-06 -1
vn -5.364418E-07 0.70703125 -0.70703125
vn -5.364418E-07 0.70703125 -0.70703125
vn -0 1 5.364418E-07
vn -0 1 -5.364418E-07
vn 1 0 0
vn 1 0 0
vn 1 0 0
vn 1 0 0
vn 1 0 0
vn 1 0 0
vn 1 0 0
vn 1 0 0
vn -1 0 0
vn -1 0 0
vn -1 0 0
vn -1 0 0
vn -1 0 0
vn -1 0 0
vn -1 0 0
vn -1 0 0
vn 9.536743E-07 -0.70703125 -0.70703125
vn 4.7683716E-07 5.364418E-07 -1
vn 4.7683716E-07 0 -1
vn 9.536743E-07 -0.70703125 -0.70703125
vn 8.34465E-07 -1 2.8192997E-05
vn 8.34465E-07 -1 1.1920929E-06
vn 2.3841858E-07 -0.70703125 0.70703125
vn 2.3841858E-07 -0.70703125 0.70703125
vn -4.7683716E-07 -8.34465E-07 1
vn -4.7683716E-07 -4.172325E-07 1
vn -9.536743E-07 0.70703125 0.70703125
vn -9.536743E-07 0.70703125 0.70703125
vn -8.34465E-07 1 2.7477741E-05
vn -8.34465E-07 1 4.7683716E-07
vn -2.3841858E-07 0.70703125 -0.70703125
vn -2.3841858E-07 0.70703125 -0.70703125
vn 4.7683716E-07 0 -1
vn 4.7683716E-07 5.364418E-07 -1
vn -7.1525574E-07 1 0
vn -1.7881393E-07 0.81933594 0.57373047
vn -7.1525574E-07 1 1.1920929E-06
vn -1.7881393E-07 0.81933594 0.57373047
vn 1.0728836E-06 -1.4305115E-06 1
vn 1.0728836E-06 1.7881393E-07 1
vn 5.364418E-07 -0.81933594 0.57373047
vn 5.364418E-07 -0.81933594 0.57373047
vn -1.7881393E-07 -1 1.5497208E-06
vn -1.7881393E-07 -1 4.7683716E-07
vn -1.013279E-06 -0.70703125 -0.70703125
vn -1.013279E-06 -0.70703125 -0.70703125
vn -2.6226044E-06 0 -1
vn -2.6226044E-06 0 -1
vn -1.9669533E-06 0.70703125 -0.70703125
vn -1.9669533E-06 0.70703125 -0.70703125
vn -7.1525574E-07 1 1.1920929E-06
vn -7.1525574E-07 1 0
vn 1 0 0
vn 1 0 0
vn 1 0 0
vn 1 0 0
vn 1 0 0
vn 1 0 0
vn 1 0 0
vn 1 0 0
vn -1 0 0
vn -1 0 0
vn -1 0 0
vn -1 0 0
vn -1 0 0
vn -1 0 0
vn -1 0 0
vn -1 0 0
vn -0.8378906 -0.54541016 0
vn -0.4338379 -0.9008789 -1.1920929E-07
vn -0.4338379 -0.9008789 -1.1920929E-07
vn -0.8378906 -0.54541016 0
vn -0.9902344 -0.13952637 0
vn -0.9902344 -0.13952637 0
vn -0.9902344 0.13952637 0
vn -0.9902344 0.13952637 0
vn -0.8378906 0.54541016 0
vn -0.8378906 0.54541016 0
vn -0.4338379 0.9008789 0
vn -0.4338379 0.9008789 0
vn -0.10015869 0.9951172 0
vn -0.10015869 0.9951172 0
vn 0.10015869 0.9951172 0
vn 0.10015869 0.9951172 0
vn 0.4338379 0.9008789 0
vn 0.4338379 0.9008789 0
vn 0.8383789 0.54541016 0
vn 0.8383789 0.54541016 0
vn 0.9902344 0.13952637 0
vn 0.9902344 0.13952637 0
vn 0.9902344 -0.13952637 -1.1920929E-07
vn 0.9902344 -0.13952637 -1.1920929E-07
vn 0.8383789 -0.54541016 -5.364418E-07
vn 0.8383789 -0.54541016 -5.364418E-07
vn 0.4338379 -0.9008789 -1.1920929E-06
vn 0.4338379 -0.9008789 -1.1920929E-06
vn 0.10015869 -0.9951172 -1.1920929E-06
vn 0.10015869 -0.9951172 -1.1920929E-06
vn -0.10015869 -0.9951172 -4.7683716E-07
vn -0.10015869 -0.9951172 -4.7683716E-07
vn -0.4338379 -0.9008789 -1.1920929E-07
vn -0.4338379 -0.9008789 -1.1920929E-07
vn -0 -1.7881393E-07 1
vn -0 0 1
vn -0 0 1
vn -0 -1.7881393E-07 1
vn -0 -4.172325E-07 1
vn -0 -4.172325E-07 1
vn -0 -5.364418E-07 1
vn -0 -5.364418E-07 1
vn -0 -4.7683716E-07 1
vn -0 -4.7683716E-07 1
vn -0 -2.9802322E-07 1
vn -0 -2.9802322E-07 1
vn -0 -1.7881393E-07 1
vn -0 -1.7881393E-07 1
vn -0 0 1
vn -0 0 1
vn -0 2.9802322E-07 -1
vn -0 0 -1
vn -0 0 -1
vn -0 2.9802322E-07 -1
vn -0 3.5762787E-07 -1
vn -0 3.5762787E-07 -1
vn -0 4.172325E-07 -1
vn -0 4.172325E-07 -1
vn -0 4.7683716E-07 -1
vn -0 4.7683716E-07 -1
vn -0 4.7683716E-07 -1
vn -0 4.7683716E-07 -1
vn -0 1.7881393E-07 -1
vn -0 1.7881393E-07 -1
vn -0 0 -1
vn -0 0 -1
vn 9.536743E-07 -0.70703125 -0.70703125
vn 4.7683716E-07 4.7683716E-07 -1
vn 4.7683716E-07 0 -1
vn 9.536743E-07 -0.70703125 -0.70703125
vn 8.34465E-07 -1 -1.7881393E-07
vn 8.34465E-07 -1 0
vn 2.3841858E-07 -0.70703125 0.70703125
vn 2.3841858E-07 -0.70703125 0.70703125
vn -4.7683716E-07 -4.7683716E-07 1
vn -4.7683716E-07 0 1
vn -9.536743E-07 0.70703125 0.70703125
vn -9.536743E-07 0.70703125 0.70703125
vn -8.34465E-07 1 -1.1920929E-07
vn -8.34465E-07 1 1.1920929E-07
vn -2.3841858E-07 0.70703125 -0.70703125
vn -2.3841858E-07 0.70703125 -0.70703125
vn 4.7683716E-07 0 -1
vn 4.7683716E-07 4.7683716E-07 -1
g Common_Prop_TrafficSigns_10_0
f 3/3/3 2/2/2 1/1/1
f 2/2/2 4/4/4 1/1/1
f 2/2/2 5/5/5 4/4/4
f 5/5/5 6/6/6 4/4/4
f 5/5/5 7/7/7 6/6/6
f 7/7/7 8/8/8 6/6/6
f 7/7/7 9/9/9 8/8/8
f 9/9/9 10/10/10 8/8/8
f 9/9/9 11/11/11 10/10/10
f 11/11/11 12/12/12 10/10/10
f 11/11/11 13/13/13 12/12/12
f 13/13/13 14/14/14 12/12/12
f 13/13/13 15/15/15 14/14/14
f 15/15/15 16/16/16 14/14/14
f 15/15/15 17/17/17 16/16/16
f 17/17/17 18/18/18 16/16/16
f 21/21/21 20/20/20 19/19/19
f 21/21/21 19/19/19 22/22/22
f 23/23/23 21/21/21 22/22/22
f 23/23/23 22/22/22 24/24/24
f 25/25/25 23/23/23 24/24/24
f 26/26/26 25/25/25 24/24/24
f 29/29/29 28/28/28 27/27/27
f 28/28/28 29/29/29 30/30/30
f 31/31/31 28/28/28 30/30/30
f 31/31/31 30/30/30 32/32/32
f 33/33/33 31/31/31 32/32/32
f 34/34/34 33/33/33 32/32/32
f 37/37/37 36/36/36 35/35/35
f 36/36/36 38/38/38 35/35/35
f 35/35/35 38/38/38 39/39/39
f 38/38/38 40/40/40 39/39/39
f 39/39/39 40/40/40 41/41/41
f 40/40/40 42/42/42 41/41/41
f 41/41/41 42/42/42 43/43/43
f 42/42/42 44/44/44 43/43/43
f 43/43/43 44/44/44 45/45/45
f 44/44/44 46/46/46 45/45/45
f 45/45/45 46/46/46 47/47/47
f 46/46/46 48/48/48 47/47/47
f 47/47/47 48/48/48 49/49/49
f 48/48/48 50/50/50 49/49/49
f 49/49/49 50/50/50 51/51/51
f 50/50/50 52/52/52 51/51/51
f 55/55/55 54/54/54 53/53/53
f 54/54/54 56/56/56 53/53/53
f 54/54/54 57/57/57 56/56/56
f 57/57/57 58/58/58 56/56/56
f 57/57/57 59/59/59 58/58/58
f 59/59/59 60/60/60 58/58/58
f 59/59/59 61/61/61 60/60/60
f 61/61/61 62/62/62 60/60/60
f 61/61/61 63/63/63 62/62/62
f 63/63/63 64/64/64 62/62/62
f 63/63/63 65/65/65 64/64/64
f 65/65/65 66/66/66 64/64/64
f 65/65/65 67/67/67 66/66/66
f 67/67/67 68/68/68 66/66/66
f 67/67/67 69/69/69 68/68/68
f 69/69/69 70/70/70 68/68/68
f 73/73/73 72/72/72 71/71/71
f 73/73/73 71/71/71 74/74/74
f 75/75/75 73/73/73 74/74/74
f 75/75/75 74/74/74 76/76/76
f 77/77/77 75/75/75 76/76/76
f 78/78/78 77/77/77 76/76/76
f 81/81/81 80/80/80 79/79/79
f 80/80/80 81/81/81 82/82/82
f 83/83/83 80/80/80 82/82/82
f 83/83/83 82/82/82 84/84/84
f 85/85/85 83/83/83 84/84/84
f 86/86/86 85/85/85 84/84/84
f 89/89/89 88/88/88 87/87/87
f 88/88/88 90/90/90 87/87/87
f 87/87/87 90/90/90 91/91/91
f 90/90/90 92/92/92 91/91/91
f 92/92/92 93/93/93 91/91/91
f 93/93/93 94/94/94 91/91/91
f 95/95/95 94/94/94 93/93/93
f 96/96/96 95/95/95 93/93/93
f 97/97/97 95/95/95 96/96/96
f 98/98/98 97/97/97 96/96/96
f 99/99/99 97/97/97 98/98/98
f 100/100/100 99/99/99 98/98/98
f 101/101/101 99/99/99 100/100/100
f 102/102/102 101/101/101 100/100/100
f 101/101/101 102/102/102 103/103/103
f 102/102/102 104/104/104 103/103/103
f 103/103/103 104/104/104 105/105/105
f 104/104/104 106/106/106 105/105/105
f 105/105/105 106/106/106 107/107/107
f 106/106/106 108/108/108 107/107/107
f 107/107/107 108/108/108 109/109/109
f 110/110/110 107/107/107 109/109/109
f 111/111/111 110/110/110 109/109/109
f 112/112/112 111/111/111 109/109/109
f 113/113/113 111/111/111 112/112/112
f 114/114/114 113/113/113 112/112/112
f 115/115/115 113/113/113 114/114/114
f 116/116/116 115/115/115 114/114/114
f 115/115/115 116/116/116 117/117/117
f 116/116/116 118/118/118 117/117/117
f 117/117/117 118/118/118 119/119/119
f 118/118/118 120/120/120 119/119/119
f 123/123/123 122/122/122 121/121/121
f 124/124/124 123/123/123 121/121/121
f 124/124/124 121/121/121 125/125/125
f 126/126/126 124/124/124 125/125/125
f 126/126/126 125/125/125 127/127/127
f 128/128/128 126/126/126 127/127/127
f 128/128/128 127/127/127 129/129/129
f 127/127/127 130/130/130 129/129/129
f 130/130/130 131/131/131 129/129/129
f 131/131/131 132/132/132 129/129/129
f 131/131/131 133/133/133 132/132/132
f 133/133/133 134/134/134 132/132/132
f 133/133/133 135/135/135 134/134/134
f 135/135/135 136/136/136 134/134/134
f 139/139/139 138/138/138 137/137/137
f 140/140/140 139/139/139 137/137/137
f 140/140/140 137/137/137 141/141/141
f 142/142/142 140/140/140 141/141/141
f 142/142/142 141/141/141 143/143/143
f 144/144/144 142/142/142 143/143/143
f 145/145/145 144/144/144 143/143/143
f 146/146/146 145/145/145 143/143/143
f 146/146/146 147/147/147 145/145/145
f 147/147/147 148/148/148 145/145/145
f 147/147/147 149/149/149 148/148/148
f 149/149/149 150/150/150 148/148/148
f 149/149/149 151/151/151 150/150/150
f 151/151/151 152/152/152 150/150/150
f 155/155/155 154/154/154 153/153/153
f 154/154/154 156/156/156 153/153/153
f 153/153/153 156/156/156 157/157/157
f 156/156/156 158/158/158 157/157/157
f 157/157/157 158/158/158 159/159/159
f 158/158/158 160/160/160 159/159/159
f 159/159/159 160/160/160 161/161/161
f 160/160/160 162/162/162 161/161/161
f 161/161/161 162/162/162 163/163/163
f 162/162/162 164/164/164 163/163/163
f 163/163/163 164/164/164 165/165/165
f 164/164/164 166/166/166 165/165/165
f 165/165/165 166/166/166 167/167/167
f 166/166/166 168/168/168 167/167/167
f 167/167/167 168/168/168 169/169/169
f 168/168/168 170/170/170 169/169/169
