g Common_Prop_Poster_03
v 0.26263666 0.8063938 7.661652E-07
v 0.26263672 3.0517566E-07 2.4795537E-07
v -0.2626363 3.0517566E-07 2.4795537E-07
v -0.2626363 0.8551933 7.8686963E-07
v 0.26263666 0.823203 0.0012872939
v -0.2626363 0.8606717 7.8997215E-07
v -0.2626363 0.86559486 7.953862E-07
v 0.26263663 0.8372326 0.0042303256
v -0.2626363 0.87069434 7.98439E-07
v 0.26263663 0.8454392 0.012545218
v -0.2626363 0.87633276 8.015627E-07
v 0.26263666 0.8512855 0.024466898
vt 0.23352051 0.5654297
vt 0.23352051 0.2211914
vt 0.014579773 0.2211914
vt 0.014579773 0.5776367
vt 0.23352051 0.5708008
vt 0.014579773 0.5800781
vt 0.014579773 0.58203125
vt 0.23352051 0.5761719
vt 0.014579773 0.5839844
vt 0.23352051 0.58154297
vt 0.014579773 0.5864258
vt 0.23352051 0.5864258
vn -0.0028038025 -0.027130127 0.9995117
vn -0 -6.556511E-07 1
vn -0 -6.556511E-07 1
vn -0.0031547546 -0.030532837 0.9995117
vn -0.0121536255 -0.12792969 0.9916992
vn -0.0041236877 -0.027526855 0.9995117
vn -0.0054893494 -0.0017766953 1
vn -0.035949707 -0.46948242 0.8823242
vn -0.016525269 -0.0050239563 1
vn -0.057739258 -0.81152344 0.5810547
vn -0.024749756 -0.014839172 0.9995117
vn -0.06317139 -0.8959961 0.43945312
g Common_Prop_Poster_03_0
f 3/3/3 2/2/2 1/1/1
f 4/4/4 3/3/3 1/1/1
f 1/1/1 5/5/5 4/4/4
f 6/6/6 4/4/4 5/5/5
f 7/7/7 6/6/6 5/5/5
f 8/8/8 7/7/7 5/5/5
f 9/9/9 7/7/7 8/8/8
f 10/10/10 9/9/9 8/8/8
f 11/11/11 9/9/9 10/10/10
f 12/12/12 11/11/11 10/10/10
