g MainCity_Prop_ShowCase_08
v -0.054176178 0.1323687 -0.040490378
v -0.054176178 0.18686385 -0.04049036
v 0.05540123 0.18686385 -0.04049036
v 0.05540123 0.1323687 -0.040490378
v -0.054176178 0.18686385 -0.04049036
v -0.054176178 0.1868639 -0.05975145
v 0.05540123 0.1868639 -0.05975145
v 0.05540123 0.18686385 -0.04049036
v -0.054176178 0.11195566 0.03361874
v -0.054176178 0.13238792 0.03361901
v 0.05540123 0.13238792 0.03361901
v 0.05540123 0.11195566 0.03361874
v 0.05540123 0.1323687 -0.040490378
v 0.05540123 0.18686385 -0.04049036
v 0.05540123 0.1868639 -0.05975145
v 0.05540123 0.11195565 -0.059751462
v 0.05540123 0.13238792 0.03361901
v 0.05540123 0.11195566 0.03361874
v -0.054176178 0.11195565 -0.059751462
v -0.054176178 0.1868639 -0.05975145
v -0.054176178 0.18686385 -0.04049036
v -0.054176178 0.1323687 -0.040490378
v -0.054176178 0.11195566 0.03361874
v -0.054176178 0.13238792 0.03361901
v -0.054176178 0.11195565 -0.059751462
v -0.054176178 0.11195566 0.03361874
v 0.05540123 0.11195566 0.03361874
v 0.05540123 0.11195565 -0.059751462
v 0.05540123 0.1323687 -0.040490378
v 0.05540123 0.13238792 0.03361901
v -0.054176178 0.13238792 0.03361901
v -0.054176178 0.1323687 -0.040490378
v 0.021408463 0.398655 -0.008216476
v 0.0006336212 0.42527893 -0.016821707
v 0.0006336212 0.398655 -0.01682171
v 0.021408463 0.42527893 -0.008216473
v 0.030013733 0.398655 0.012558396
v 0.030013733 0.42527893 0.012558397
v 0.021408463 0.398655 0.033333264
v 0.021408463 0.42527893 0.033333268
v 0.0006336212 0.398655 0.041938495
v 0.0006336212 0.42527893 0.0419385
v -0.02014122 0.398655 0.033333264
v -0.02014122 0.42527893 0.033333264
v -0.02874649 0.398655 0.012558396
v -0.02874649 0.42527893 0.012558397
v -0.02014122 0.398655 -0.008216476
v -0.02014122 0.42527893 -0.008216473
v 0.0006336212 0.398655 -0.01682171
v 0.0006336212 0.42527893 -0.016821707
v -0.02014122 0.398655 -0.008216476
v 0.0006336212 0.3958985 -0.009178897
v 0.0006336212 0.398655 -0.01682171
v -0.014737015 0.3958985 -0.0028121893
v -0.02874649 0.398655 0.012558396
v -0.021103667 0.3958985 0.012558394
v -0.02014122 0.398655 0.033333264
v -0.014737015 0.3958985 0.027928976
v 0.0006336212 0.398655 0.041938495
v 0.0006336212 0.3958985 0.03429568
v 0.021408463 0.398655 0.033333264
v 0.016004257 0.3958985 0.027928978
v 0.030013733 0.398655 0.012558396
v 0.02237091 0.3958985 0.012558394
v 0.021408463 0.398655 -0.008216476
v 0.016004257 0.3958985 -0.0028121893
v 0.0006336212 0.398655 -0.01682171
v 0.0006336212 0.3958985 -0.009178897
v -0.20052066 0.42597786 -0.057561282
v -0.20052066 0.42597786 0.08518799
v 0.00063350674 0.42597786 0.08518799
v 0.00063350674 0.42597786 -0.057561282
v 0.20052184 0.42597786 -0.057561282
v 0.20052184 0.42597786 0.08518799
v -0.20052066 0.026558323 -0.057561263
v -0.20052066 0.026558356 0.08518801
v -0.20052066 0.42597786 0.08518799
v -0.20052066 0.42597786 -0.057561282
v 0.00063350674 0.45355362 0.08518799
v -0.22695564 0.45355362 0.08518799
v -0.22695564 0.45355353 -0.085188076
v 0.00063350674 0.45355353 -0.085188076
v 0.22695564 0.45355362 0.08518799
v 0.22695564 0.45355353 -0.085188076
v -0.22695564 1.7169248E-05 -0.08518806
v -0.22695564 0.45355353 -0.085188076
v -0.22695564 0.45355362 0.08518799
v -0.22695564 1.7142727E-05 0.085187994
v 0.00063350674 0.45355362 0.08518799
v 0.22695564 0.45355362 0.08518799
v 0.20052184 0.42597786 0.08518799
v 0.00063350674 0.42597786 0.08518799
v -0.20052066 0.42597786 0.08518799
v -0.22695564 0.45355362 0.08518799
v -0.22695564 0.45355362 0.08518799
v -0.20052066 0.42597786 0.08518799
v -0.20052066 0.026558356 0.08518801
v -0.22695564 1.7142727E-05 0.085187994
v 0.00063350674 0.45355353 -0.085188076
v -0.22695564 0.45355353 -0.085188076
v -0.22695564 1.7169248E-05 -0.08518806
v 0.00063350674 1.7169248E-05 -0.085188076
v 0.22695564 0.45355353 -0.085188076
v 0.22695564 1.7169248E-05 -0.08518808
v 0.20052184 0.42597786 -0.057561282
v 0.20052184 0.026575621 -0.05756127
v 0.00063350674 0.026558323 -0.05756127
v 0.00063350674 0.42597786 -0.057561282
v -0.20052066 0.42597786 -0.057561282
v -0.20052066 0.026558323 -0.057561263
v 0.00063350674 0.026558356 0.085187994
v -0.20052066 0.026558356 0.08518801
v -0.20052066 0.026558323 -0.057561263
v 0.00063350674 0.026558323 -0.05756127
v 0.20052184 0.026575655 0.08518801
v 0.20052184 0.026575621 -0.05756127
v -0.22695564 1.7169248E-05 -0.08518806
v -0.22695564 1.7142727E-05 0.085187994
v 0.00063350674 1.7142727E-05 0.085187994
v 0.00063350674 1.7169248E-05 -0.085188076
v 0.22695564 1.7169248E-05 -0.08518808
v 0.22695564 1.7142727E-05 0.085187994
v 0.20052184 0.026575655 0.08518801
v 0.22695564 1.7142727E-05 0.085187994
v 0.00063350674 1.7142727E-05 0.085187994
v 0.00063350674 0.026558356 0.085187994
v -0.20052066 0.026558356 0.08518801
v -0.22695564 1.7142727E-05 0.085187994
v 0.20052184 0.026575621 -0.05756127
v 0.20052184 0.42597786 -0.057561282
v 0.20052184 0.42597786 0.08518799
v 0.20052184 0.026575655 0.08518801
v 0.22695564 1.7169248E-05 -0.08518808
v 0.22695564 1.7142727E-05 0.085187994
v 0.22695564 0.45355362 0.08518799
v 0.22695564 0.45355353 -0.085188076
v 0.22695564 0.45355362 0.08518799
v 0.22695564 1.7142727E-05 0.085187994
v 0.20052184 0.026575655 0.08518801
v 0.20052184 0.42597786 0.08518799
v -0.014737015 0.3958985 -0.0028121893
v -0.0043495176 0.38717696 0.0005280085
v 0.0006336212 0.3958985 -0.009178897
v -0.021103667 0.3958985 0.012558394
v 0.016004257 0.3958985 -0.0028121893
v -0.011396713 0.38717696 0.017541545
v -0.014737015 0.3958985 0.027928976
v 0.012663956 0.38717696 0.007575244
v 0.02237091 0.3958985 0.012558394
v 0.0056167603 0.38717696 0.02458878
v 0.0006336212 0.3958985 0.03429568
v 0.016004257 0.3958985 0.027928978
v 0.0006336212 0.38360098 0.012558394
vt 0.3503418 0.94091797
vt 0.3503418 0.97265625
vt 0.41455078 0.97265625
vt 0.41455078 0.94091797
vt 0.3503418 0.97998047
vt 0.3503418 0.99121094
vt 0.41455078 0.99121094
vt 0.41455078 0.97998047
vt 0.3503418 0.8691406
vt 0.3503418 0.88183594
vt 0.41455078 0.88183594
vt 0.41455078 0.8691406
vt 0.39257812 0.5073242
vt 0.3605957 0.5073242
vt 0.3605957 0.5185547
vt 0.40478516 0.5185547
vt 0.39257812 0.46435547
vt 0.40478516 0.46435547
vt 0.36083984 0.4404297
vt 0.40478516 0.4404297
vt 0.40478516 0.4519043
vt 0.37304688 0.4519043
vt 0.36083984 0.49487305
vt 0.37304688 0.49487305
vt 0.3503418 0.80615234
vt 0.3503418 0.86083984
vt 0.41455078 0.86083984
vt 0.41455078 0.80615234
vt 0.41455078 0.9326172
vt 0.41455078 0.88964844
vt 0.3503418 0.88964844
vt 0.3503418 0.9326172
vt 0.45581055 0.9663086
vt 0.42529297 0.9926758
vt 0.45581055 0.9926758
vt 0.42529297 0.9667969
vt 0.45581055 0.94091797
vt 0.42529297 0.94091797
vt 0.45581055 0.91503906
vt 0.42529297 0.91503906
vt 0.45581055 0.88916016
vt 0.42529297 0.88916016
vt 0.45581055 0.86328125
vt 0.42529297 0.86328125
vt 0.45581055 0.83740234
vt 0.42529297 0.83740234
vt 0.45581055 0.81152344
vt 0.42529297 0.81152344
vt 0.45581055 0.78564453
vt 0.42529297 0.78564453
vt 0.4675293 0.81152344
vt 0.47924805 0.78564453
vt 0.4675293 0.78564453
vt 0.47924805 0.81152344
vt 0.4675293 0.83740234
vt 0.47924805 0.83740234
vt 0.4675293 0.86328125
vt 0.47924805 0.86328125
vt 0.4675293 0.88916016
vt 0.47924805 0.88916016
vt 0.4675293 0.91503906
vt 0.47924805 0.91503906
vt 0.4675293 0.94091797
vt 0.47924805 0.94091797
vt 0.4675293 0.9663086
vt 0.47924805 0.9663086
vt 0.4675293 0.9926758
vt 0.47924805 0.9926758
vt 0.009185791 0.24890137
vt 0.009185791 0.33325195
vt 0.1239624 0.33325195
vt 0.1239624 0.24890137
vt 0.23876953 0.24890137
vt 0.23876953 0.33325195
vt 0.7397461 0.29663086
vt 0.7397461 0.38085938
vt 0.9692383 0.38085938
vt 0.9692383 0.29663086
vt 0.14086914 0.3701172
vt 0.009933472 0.3701172
vt 0.009933472 0.47045898
vt 0.14086914 0.47045898
vt 0.27172852 0.3701172
vt 0.27172852 0.47045898
vt 0.7236328 0.51708984
vt 0.9838867 0.51708984
vt 0.9838867 0.41748047
vt 0.7236328 0.41748047
vt 0.14086914 0.36108398
vt 0.27172852 0.36108398
vt 0.25561523 0.3449707
vt 0.14086914 0.3449707
vt 0.02609253 0.3449707
vt 0.009933472 0.36108398
vt 0.98535156 0.40649414
vt 0.9692383 0.39038086
vt 0.7397461 0.39038086
vt 0.7236328 0.40649414
vt 0.1239624 0.23901367
vt 0.009185791 0.23901367
vt 0.009185791 0.009849548
vt 0.1239624 0.009849548
vt 0.23876953 0.23901367
vt 0.23876953 0.009849548
vt 0.23876953 0.23901367
vt 0.23876953 0.009849548
vt 0.1239624 0.009849548
vt 0.1239624 0.23901367
vt 0.009185791 0.23901367
vt 0.009185791 0.009849548
vt 0.1239624 0.33325195
vt 0.009185791 0.33325195
vt 0.009185791 0.24890137
vt 0.1239624 0.24890137
vt 0.23876953 0.33325195
vt 0.23876953 0.24890137
vt 0.009933472 0.47045898
vt 0.009933472 0.3701172
vt 0.14086914 0.3701172
vt 0.14086914 0.47045898
vt 0.27172852 0.47045898
vt 0.27172852 0.3701172
vt 0.25561523 0.3449707
vt 0.27172852 0.36108398
vt 0.14086914 0.36108398
vt 0.14086914 0.3449707
vt 0.02609253 0.3449707
vt 0.009933472 0.36108398
vt 0.7397461 0.29663086
vt 0.9692383 0.29663086
vt 0.9692383 0.38085938
vt 0.7397461 0.38085938
vt 0.7236328 0.51708984
vt 0.7236328 0.41748047
vt 0.9838867 0.41748047
vt 0.9838867 0.51708984
vt 0.98535156 0.40649414
vt 0.7236328 0.40649414
vt 0.7397461 0.39038086
vt 0.9692383 0.39038086
vt 0.32592773 0.47436523
vt 0.31274414 0.46118164
vt 0.2998047 0.47460938
vt 0.3449707 0.4560547
vt 0.28051758 0.45629883
vt 0.33154297 0.4423828
vt 0.34472656 0.42895508
vt 0.2939453 0.44262695
vt 0.28051758 0.42919922
vt 0.3125 0.42407227
vt 0.32543945 0.41064453
vt 0.2993164 0.41088867
vt 0.31274414 0.44262695
vn -0 -3.5762787E-07 1
vn -0 -3.5762787E-07 1
vn -0 -3.5762787E-07 1
vn -0 -3.5762787E-07 1
vn -0 1 1.9669533E-06
vn -0 1 1.9669533E-06
vn -0 1 1.9669533E-06
vn -0 1 1.9669533E-06
vn -0 -1.3053417E-05 1
vn -0 -1.3053417E-05 1
vn -0 -1.3053417E-05 1
vn -0 -1.3053417E-05 1
vn 1 0 0
vn 1 0 0
vn 1 0 0
vn 1 0 0
vn 1 0 0
vn 1 0 0
vn -1 0 0
vn -1 0 0
vn -1 0 0
vn -1 0 0
vn -1 0 0
vn -1 0 0
vn -0 -1 1.1920929E-07
vn -0 -1 1.1920929E-07
vn -0 -1 1.1920929E-07
vn -0 -1 1.1920929E-07
vn -0 1 -0.0002593994
vn -0 1 -0.0002593994
vn -0 1 -0.0002593994
vn -0 1 -0.0002593994
vn 0.70703125 0 -0.70703125
vn -0 0 -1
vn -0 0 -1
vn 0.70703125 0 -0.70703125
vn 1 0 0
vn 1 0 0
vn 0.70703125 0 0.70703125
vn 0.70703125 0 0.70703125
vn -0 -1.1920929E-07 1
vn -0 -1.1920929E-07 1
vn -0.70703125 0 0.70703125
vn -0.70703125 0 0.70703125
vn -1 0 0
vn -1 0 0
vn -0.70703125 0 -0.70703125
vn -0.70703125 0 -0.70703125
vn -0 0 -1
vn -0 0 -1
vn -0.23986816 -0.94091797 -0.23986816
vn -0 -0.94091797 -0.33935547
vn -0 -0.94091797 -0.33935547
vn -0.23986816 -0.94091797 -0.23986816
vn -0.33935547 -0.94091797 0
vn -0.33935547 -0.94091797 0
vn -0.23986816 -0.94091797 0.23986816
vn -0.23986816 -0.94091797 0.23986816
vn -0 -0.94091797 0.33935547
vn -0 -0.94091797 0.33935547
vn 0.23986816 -0.94091797 0.23986816
vn 0.23986816 -0.94091797 0.23986816
vn 0.33935547 -0.94091797 0
vn 0.33935547 -0.94091797 0
vn 0.23986816 -0.94091797 -0.23986816
vn 0.23986816 -0.94091797 -0.23986816
vn -0 -0.94091797 -0.33935547
vn -0 -0.94091797 -0.33935547
vn -0 -1 0
vn -0 -1 0
vn -0 -1 0
vn -0 -1 0
vn -0 -1 0
vn -0 -1 0
vn 1 0 0
vn 1 0 0
vn 1 0 0
vn 1 0 0
vn -0 1 -4.7683716E-07
vn -0 1 -4.7683716E-07
vn -0 1 -4.7683716E-07
vn -0 1 -4.7683716E-07
vn -0 1 -4.7683716E-07
vn -0 1 -4.7683716E-07
vn -1 0 0
vn -1 0 0
vn -1 0 0
vn -1 0 0
vn -0 0 1
vn -0 0 1
vn -0 0 1
vn -0 0 1
vn -0 0 1
vn -0 0 1
vn -0 0 1
vn -0 0 1
vn -0 0 1
vn -0 0 1
vn -0 0 -1
vn -0 0 -1
vn -0 0 -1
vn -0 0 -1
vn -0 0 -1
vn -0 0 -1
vn -0 0 1
vn -0 0 1
vn -0 0 1
vn -0 0 1
vn -0 0 1
vn -0 0 1
vn -4.3272972E-05 1 -2.3841858E-07
vn -0 1 -2.3841858E-07
vn -0 1 -2.3841858E-07
vn -4.3272972E-05 1 -2.3841858E-07
vn -8.6545944E-05 1 -2.3841858E-07
vn -8.6545944E-05 1 -2.3841858E-07
vn -0 -1 -1.7881393E-07
vn -0 -1 -1.7881393E-07
vn -0 -1 -1.7881393E-07
vn -0 -1 -1.7881393E-07
vn -0 -1 -1.7881393E-07
vn -0 -1 -1.7881393E-07
vn -0 0 1
vn -0 0 1
vn -0 -1.7881393E-07 1
vn -0 -1.7881393E-07 1
vn -0 0 1
vn -0 0 1
vn -1 0 0
vn -1 0 0
vn -1 0 0
vn -1 0 0
vn 1 0 0
vn 1 0 0
vn 1 0 0
vn 1 0 0
vn -0 0 1
vn -0 0 1
vn -0 0 1
vn -0 0 1
vn -0.49536133 -0.7548828 -0.43017578
vn -0.19348145 -0.86279297 -0.46704102
vn 0.046142578 -0.7548828 -0.6542969
vn -0.6542969 -0.7548828 -0.046142578
vn 0.43017578 -0.7548828 -0.49536133
vn -0.46704102 -0.86279297 0.19348145
vn -0.43017578 -0.7548828 0.49536133
vn 0.46704102 -0.86279297 -0.19348145
vn 0.6542969 -0.7548828 0.046142578
vn 0.19348145 -0.86279297 0.46704102
vn -0.046142578 -0.7548828 0.6542969
vn 0.49536133 -0.7548828 0.43017578
vn -0 -1 0
g MainCity_Prop_ShowCase_08_0
f 3/3/3 2/2/2 1/1/1
f 4/4/4 3/3/3 1/1/1
f 7/7/7 6/6/6 5/5/5
f 8/8/8 7/7/7 5/5/5
f 11/11/11 10/10/10 9/9/9
f 12/12/12 11/11/11 9/9/9
f 15/15/15 14/14/14 13/13/13
f 16/16/16 15/15/15 13/13/13
f 13/13/13 17/17/17 16/16/16
f 17/17/17 18/18/18 16/16/16
f 21/21/21 20/20/20 19/19/19
f 22/22/22 21/21/21 19/19/19
f 19/19/19 23/23/23 22/22/22
f 23/23/23 24/24/24 22/22/22
f 27/27/27 26/26/26 25/25/25
f 28/28/28 27/27/27 25/25/25
f 31/31/31 30/30/30 29/29/29
f 32/32/32 31/31/31 29/29/29
f 35/35/35 34/34/34 33/33/33
f 34/34/34 36/36/36 33/33/33
f 33/33/33 36/36/36 37/37/37
f 36/36/36 38/38/38 37/37/37
f 37/37/37 38/38/38 39/39/39
f 38/38/38 40/40/40 39/39/39
f 39/39/39 40/40/40 41/41/41
f 40/40/40 42/42/42 41/41/41
f 41/41/41 42/42/42 43/43/43
f 42/42/42 44/44/44 43/43/43
f 43/43/43 44/44/44 45/45/45
f 44/44/44 46/46/46 45/45/45
f 45/45/45 46/46/46 47/47/47
f 46/46/46 48/48/48 47/47/47
f 47/47/47 48/48/48 49/49/49
f 48/48/48 50/50/50 49/49/49
f 53/53/53 52/52/52 51/51/51
f 52/52/52 54/54/54 51/51/51
f 51/51/51 54/54/54 55/55/55
f 54/54/54 56/56/56 55/55/55
f 55/55/55 56/56/56 57/57/57
f 56/56/56 58/58/58 57/57/57
f 57/57/57 58/58/58 59/59/59
f 58/58/58 60/60/60 59/59/59
f 59/59/59 60/60/60 61/61/61
f 60/60/60 62/62/62 61/61/61
f 61/61/61 62/62/62 63/63/63
f 62/62/62 64/64/64 63/63/63
f 63/63/63 64/64/64 65/65/65
f 64/64/64 66/66/66 65/65/65
f 65/65/65 66/66/66 67/67/67
f 66/66/66 68/68/68 67/67/67
f 71/71/71 70/70/70 69/69/69
f 72/72/72 71/71/71 69/69/69
f 71/71/71 72/72/72 73/73/73
f 74/74/74 71/71/71 73/73/73
f 77/77/77 76/76/76 75/75/75
f 78/78/78 77/77/77 75/75/75
f 81/81/81 80/80/80 79/79/79
f 82/82/82 81/81/81 79/79/79
f 82/82/82 79/79/79 83/83/83
f 84/84/84 82/82/82 83/83/83
f 87/87/87 86/86/86 85/85/85
f 88/88/88 87/87/87 85/85/85
f 91/91/91 90/90/90 89/89/89
f 92/92/92 91/91/91 89/89/89
f 93/93/93 92/92/92 89/89/89
f 94/94/94 93/93/93 89/89/89
f 97/97/97 96/96/96 95/95/95
f 98/98/98 97/97/97 95/95/95
f 101/101/101 100/100/100 99/99/99
f 102/102/102 101/101/101 99/99/99
f 102/102/102 99/99/99 103/103/103
f 104/104/104 102/102/102 103/103/103
f 107/107/107 106/106/106 105/105/105
f 108/108/108 107/107/107 105/105/105
f 107/107/107 108/108/108 109/109/109
f 110/110/110 107/107/107 109/109/109
f 113/113/113 112/112/112 111/111/111
f 114/114/114 113/113/113 111/111/111
f 114/114/114 111/111/111 115/115/115
f 116/116/116 114/114/114 115/115/115
f 119/119/119 118/118/118 117/117/117
f 120/120/120 119/119/119 117/117/117
f 119/119/119 120/120/120 121/121/121
f 122/122/122 119/119/119 121/121/121
f 125/125/125 124/124/124 123/123/123
f 126/126/126 125/125/125 123/123/123
f 125/125/125 126/126/126 127/127/127
f 128/128/128 125/125/125 127/127/127
f 131/131/131 130/130/130 129/129/129
f 132/132/132 131/131/131 129/129/129
f 135/135/135 134/134/134 133/133/133
f 136/136/136 135/135/135 133/133/133
f 139/139/139 138/138/138 137/137/137
f 140/140/140 139/139/139 137/137/137
f 143/143/143 142/142/142 141/141/141
f 141/141/141 142/142/142 144/144/144
f 145/145/145 142/142/142 143/143/143
f 142/142/142 146/146/146 144/144/144
f 144/144/144 146/146/146 147/147/147
f 145/145/145 148/148/148 142/142/142
f 149/149/149 148/148/148 145/145/145
f 147/147/147 146/146/146 150/150/150
f 150/150/150 148/148/148 149/149/149
f 147/147/147 150/150/150 151/151/151
f 152/152/152 150/150/150 149/149/149
f 151/151/151 150/150/150 152/152/152
f 148/148/148 153/153/153 142/142/142
f 142/142/142 153/153/153 146/146/146
f 146/146/146 153/153/153 150/150/150
f 150/150/150 153/153/153 148/148/148
