g MainCity_Prop_SpiceJar_03
v -0.016950073 0.034912262 0.02935791
v -0 0.034912262 0.033899534
v -0 3.0517577E-07 0.033899534
v -0.016950073 3.0517577E-07 0.02935791
v -0.029358214 0.034912262 0.016949767
v -0.029358214 3.0517577E-07 0.016949767
v -0.033899534 0.034912262 0
v -0.033899534 3.0517577E-07 0
v -0.02935791 0.034912337 -0.016949767
v -0.02935791 3.0517577E-07 -0.016949767
v -0.016949767 0.034912337 -0.02935791
v -0.016949767 3.0517577E-07 -0.02935791
v -0 0.034912337 -0.033899534
v -0 3.0517577E-07 -0.033899534
v -0 0.034912262 0.033899534
v 0.016949767 3.0517577E-07 0.02935791
v -0 3.0517577E-07 0.033899534
v 0.016949767 0.034912262 0.02935791
v 0.02935791 3.0517577E-07 0.016949767
v 0.02935791 0.034912262 0.016949767
v 0.033899534 3.0517577E-07 0
v 0.033899534 0.034912262 0
v 0.02935791 3.0517577E-07 -0.016949767
v 0.02935791 0.034912337 -0.016949767
v 0.016949767 3.0517577E-07 -0.02935791
v 0.016949767 0.034912337 -0.02935791
v -0 3.0517577E-07 -0.033899534
v -0 0.034912337 -0.033899534
v -0 0.040238343 0.028573608
v -0 0.034912262 0.033899534
v -0.016950073 0.034912262 0.02935791
v -0.0142871095 0.040238343 0.024745483
v -0.029358214 0.034912262 0.016949767
v -0.024745483 0.040238343 0.014286804
v -0.033899534 0.034912262 0
v -0.028573608 0.040238343 0
v -0.024745483 0.040238343 -0.014286804
v -0.02935791 0.034912337 -0.016949767
v -0.016949767 0.034912337 -0.02935791
v -0.014286804 0.040238343 -0.024745483
v -0 0.034912337 -0.033899534
v -0 0.040238343 -0.028573608
v 0.014286804 0.040238343 0.024745483
v -0 0.034912262 0.033899534
v -0 0.040238343 0.028573608
v 0.016949767 0.034912262 0.02935791
v 0.024745483 0.040238343 0.014286804
v 0.02935791 0.034912262 0.016949767
v 0.028573608 0.040238343 0
v 0.033899534 0.034912262 0
v 0.024745483 0.040238343 -0.014286804
v 0.02935791 0.034912337 -0.016949767
v 0.014286804 0.040238343 -0.024745483
v 0.016949767 0.034912337 -0.02935791
v -0 0.040238343 -0.028573608
v -0 0.034912337 -0.033899534
v -0.016950073 3.0517577E-07 0.02935791
v -0 3.0517577E-07 0.033899534
v -0 3.0517577E-07 -0.033899534
v -0.029358214 3.0517577E-07 0.016949767
v -0.033899534 3.0517577E-07 0
v -0.02935791 3.0517577E-07 -0.016949767
v -0.016949767 3.0517577E-07 -0.02935791
v -0 3.0517577E-07 0.033899534
v 0.016949767 3.0517577E-07 0.02935791
v -0 3.0517577E-07 -0.033899534
v 0.02935791 3.0517577E-07 0.016949767
v 0.033899534 3.0517577E-07 0
v 0.02935791 3.0517577E-07 -0.016949767
v 0.016949767 3.0517577E-07 -0.02935791
v -0.01682129 0.050251044 0.029134521
v -3.0517577E-07 0.050251044 0.033641662
v -3.0517577E-07 0.04017227 0.033641662
v -0.01682129 0.04017227 0.029134521
v -0.02913513 0.050251044 0.016820984
v -0.02913513 0.04017227 0.016820984
v -0.033641968 0.050251044 0
v -0.033641968 0.04017227 0
v -0.029134827 0.05025112 -0.016820984
v -0.029134827 0.04017227 -0.016820984
v -0.01682129 0.05025112 -0.029134521
v -0.01682129 0.04017227 -0.029134521
v -3.0517577E-07 0.05025112 -0.033641662
v -3.0517577E-07 0.04017227 -0.033641662
v -3.0517577E-07 0.050251044 0.033641662
v 0.016820373 0.04017227 0.029134521
v -3.0517577E-07 0.04017227 0.033641662
v 0.016820373 0.050251044 0.029134521
v 0.029134216 0.04017227 0.016820984
v 0.029134216 0.050251044 0.016820984
v 0.033641357 0.04017227 0
v 0.033641357 0.050251044 0
v 0.029134216 0.04017227 -0.016820984
v 0.029134216 0.05025112 -0.016820678
v 0.016820678 0.04017227 -0.029134521
v 0.016820678 0.05025112 -0.029134521
v -3.0517577E-07 0.04017227 -0.033641662
v -3.0517577E-07 0.05025112 -0.033641662
v -3.0517577E-07 0.04017227 0.033641662
v 0.016820373 0.04017227 0.029134521
v 0.029134216 0.04017227 0.016820984
v 0.033641357 0.04017227 0
v -3.0517577E-07 0.04017227 -0.033641662
v 0.029134216 0.04017227 -0.016820984
v 0.016820678 0.04017227 -0.029134521
v -3.0517577E-07 0.04017227 -0.033641662
v -0.01682129 0.04017227 -0.029134521
v -0.029134827 0.04017227 -0.016820984
v -0.033641968 0.04017227 0
v -3.0517577E-07 0.04017227 0.033641662
v -0.01682129 0.04017227 0.029134521
v -0.02913513 0.04017227 0.016820984
v 0.033641357 0.050251044 0
v 0.029134216 0.050251044 0.016820984
v 0.016820373 0.050251044 0.029134521
v -3.0517577E-07 0.050251044 0.033641662
v -3.0517577E-07 0.05025112 -0.033641662
v 0.029134216 0.05025112 -0.016820678
v 0.016820678 0.05025112 -0.029134521
v -0.033641968 0.050251044 0
v -0.029134827 0.05025112 -0.016820984
v -0.01682129 0.05025112 -0.029134521
v -3.0517577E-07 0.05025112 -0.033641662
v -3.0517577E-07 0.050251044 0.033641662
v -0.02913513 0.050251044 0.016820984
v -0.01682129 0.050251044 0.029134521
vt 0.6386719 0.6557617
vt 0.6386719 0.64453125
vt 0.61621094 0.64453125
vt 0.61621094 0.6557617
vt 0.6386719 0.6669922
vt 0.61621094 0.6669922
vt 0.6386719 0.67822266
vt 0.61621094 0.67822266
vt 0.6386719 0.6894531
vt 0.61621094 0.6894531
vt 0.6386719 0.7011719
vt 0.61621094 0.7011719
vt 0.6386719 0.71240234
vt 0.61621094 0.71240234
vt 0.6386719 0.78027344
vt 0.61621094 0.76904297
vt 0.61621094 0.78027344
vt 0.6386719 0.76904297
vt 0.61621094 0.7573242
vt 0.6386719 0.7573242
vt 0.61621094 0.74609375
vt 0.6386719 0.74609375
vt 0.61621094 0.7348633
vt 0.6386719 0.7348633
vt 0.61621094 0.7236328
vt 0.6386719 0.7236328
vt 0.61621094 0.71240234
vt 0.6386719 0.71240234
vt 0.60302734 0.69189453
vt 0.6074219 0.69189453
vt 0.6074219 0.6826172
vt 0.60302734 0.6826172
vt 0.6074219 0.67285156
vt 0.60302734 0.67285156
vt 0.6074219 0.6635742
vt 0.60302734 0.6635742
vt 0.60302734 0.6538086
vt 0.6074219 0.6538086
vt 0.6074219 0.64453125
vt 0.60302734 0.64453125
vt 0.6074219 0.6347656
vt 0.60302734 0.6347656
vt 0.60302734 0.64453125
vt 0.6074219 0.6347656
vt 0.60302734 0.6347656
vt 0.6074219 0.64453125
vt 0.60302734 0.6538086
vt 0.6074219 0.6538086
vt 0.60302734 0.6635742
vt 0.6074219 0.6635742
vt 0.60302734 0.67285156
vt 0.6074219 0.67285156
vt 0.60302734 0.6826172
vt 0.6074219 0.6826172
vt 0.60302734 0.69189453
vt 0.6074219 0.69189453
vt 0.9819336 0.9941406
vt 0.99072266 0.99658203
vt 0.99072266 0.96240234
vt 0.97558594 0.98779297
vt 0.9736328 0.9794922
vt 0.97558594 0.9707031
vt 0.9819336 0.96435547
vt 0.99072266 0.99658203
vt 0.9819336 0.9941406
vt 0.99072266 0.96240234
vt 0.97558594 0.98779297
vt 0.9736328 0.9794922
vt 0.97558594 0.9707031
vt 0.9819336 0.96435547
vt 0.53759766 0.6196289
vt 0.5258789 0.6196289
vt 0.5258789 0.62646484
vt 0.53759766 0.62646484
vt 0.5498047 0.6196289
vt 0.5498047 0.62646484
vt 0.56152344 0.6196289
vt 0.56152344 0.62646484
vt 0.57373047 0.6196289
vt 0.57373047 0.62646484
vt 0.5859375 0.6196289
vt 0.5859375 0.62646484
vt 0.59765625 0.6196289
vt 0.59765625 0.62646484
vt 0.5258789 0.6196289
vt 0.53759766 0.62646484
vt 0.5258789 0.62646484
vt 0.53759766 0.6196289
vt 0.5498047 0.62646484
vt 0.5498047 0.6196289
vt 0.56152344 0.62646484
vt 0.56152344 0.6196289
vt 0.57373047 0.62646484
vt 0.57373047 0.6196289
vt 0.5859375 0.62646484
vt 0.5859375 0.6196289
vt 0.59765625 0.62646484
vt 0.59765625 0.6196289
vt 0.6459961 0.7036133
vt 0.65722656 0.70703125
vt 0.6660156 0.71533203
vt 0.6689453 0.7270508
vt 0.6459961 0.7504883
vt 0.6660156 0.73876953
vt 0.65722656 0.7475586
vt 0.6459961 0.7504883
vt 0.65722656 0.7475586
vt 0.6660156 0.73876953
vt 0.6689453 0.7270508
vt 0.6459961 0.7036133
vt 0.65722656 0.70703125
vt 0.6660156 0.71533203
vt 0.6689453 0.7270508
vt 0.6660156 0.73876953
vt 0.65722656 0.7475586
vt 0.6459961 0.7504883
vt 0.6459961 0.7036133
vt 0.6660156 0.71533203
vt 0.65722656 0.70703125
vt 0.6689453 0.7270508
vt 0.6660156 0.71533203
vt 0.65722656 0.70703125
vt 0.6459961 0.7036133
vt 0.6459961 0.7504883
vt 0.6660156 0.73876953
vt 0.65722656 0.7475586
vn -0.5 0 0.86621094
vn 2.2649765E-06 0 1
vn 2.2649765E-06 0 1
vn -0.5 0 0.86621094
vn -0.86621094 0 0.5
vn -0.86621094 0 0.5
vn -1 0 -8.761883E-06
vn -1 0 -8.404255E-06
vn -0.86621094 0 -0.5
vn -0.86621094 0 -0.5
vn -0.5 0 -0.86621094
vn -0.5 0 -0.86621094
vn -0 0 -1
vn -0 0 -1
vn 2.2649765E-06 0 1
vn 0.5 0 0.86621094
vn 2.2649765E-06 0 1
vn 0.5 0 0.86621094
vn 0.86621094 0 0.5
vn 0.86621094 0 0.5
vn 1 0 0
vn 1 0 -3.5762787E-07
vn 0.86621094 0 -0.5
vn 0.86621094 0 -0.5
vn 0.5 0 -0.86621094
vn 0.5 0 -0.86621094
vn -0 0 -1
vn -0 0 -1
vn 1.9073486E-06 0.70703125 0.70703125
vn 1.5497208E-06 0.70703125 0.70703125
vn -0.35351562 0.70703125 0.6123047
vn -0.35351562 0.70703125 0.6123047
vn -0.6123047 0.70703125 0.35351562
vn -0.6123047 0.70703125 0.35351562
vn -0.70703125 0.70703125 -2.3841858E-06
vn -0.70703125 0.70703125 -3.3974648E-06
vn -0.6123047 0.70703125 -0.35351562
vn -0.6123047 0.70703125 -0.35351562
vn -0.35351562 0.70703125 -0.6123047
vn -0.35351562 0.70703125 -0.6123047
vn -0 0.70703125 -0.70703125
vn -0 0.70703125 -0.70703125
vn 0.35351562 0.70703125 0.6123047
vn 1.5497208E-06 0.70703125 0.70703125
vn 1.9073486E-06 0.70703125 0.70703125
vn 0.35351562 0.70703125 0.6123047
vn 0.6123047 0.70703125 0.35351562
vn 0.6123047 0.70703125 0.35351562
vn 0.70703125 0.70703125 1.1324883E-06
vn 0.70703125 0.70703125 1.3709068E-06
vn 0.6123047 0.70703125 -0.35351562
vn 0.6123047 0.70703125 -0.35351562
vn 0.35351562 0.70703125 -0.6123047
vn 0.35351562 0.70703125 -0.6123047
vn -0 0.70703125 -0.70703125
vn -0 0.70703125 -0.70703125
vn -0 -1 0
vn -0 -1 0
vn -0 -1 0
vn -0 -1 0
vn -0 -1 0
vn -0 -1 0
vn -0 -1 0
vn -0 -1 0
vn -0 -1 0
vn -0 -1 0
vn -0 -1 0
vn -0 -1 0
vn -0 -1 0
vn -0 -1 0
vn -0.5 0 0.86621094
vn 2.2649765E-06 0 1
vn 2.2649765E-06 0 1
vn -0.5 0 0.86621094
vn -0.86621094 0 0.5
vn -0.86621094 0 0.5
vn -1 0 -8.821487E-06
vn -1 0 -8.46386E-06
vn -0.86621094 0 -0.5
vn -0.86621094 0 -0.5
vn -0.5 0 -0.86621094
vn -0.5 0 -0.86621094
vn -0 0 -1
vn -0 0 -1
vn 2.2649765E-06 0 1
vn 0.5 0 0.86621094
vn 2.2649765E-06 0 1
vn 0.5 0 0.86621094
vn 0.86621094 0 0.5
vn 0.86621094 0 0.5
vn 1 2.026558E-06 -1.1324883E-06
vn 1 2.026558E-06 -1.4901161E-06
vn 0.86621094 7.56979E-06 -0.5
vn 0.86621094 7.56979E-06 -0.5
vn 0.5 5.543232E-06 -0.86621094
vn 0.5 5.543232E-06 -0.86621094
vn -0 0 -1
vn -0 0 -1
vn -0 -1 0
vn -0 -1 0
vn -0 -1 0
vn -0 -1 0
vn -0 -1 0
vn -0 -1 0
vn -0 -1 0
vn -0 -1 0
vn -0 -1 0
vn -0 -1 0
vn -0 -1 0
vn -0 -1 0
vn -0 -1 0
vn -0 -1 0
vn 2.3841858E-07 1 1.4901161E-06
vn -0 1 0
vn -0 1 0
vn -0 1 6.556511E-07
vn -0 1 2.2649765E-06
vn -2.2649765E-06 1 3.9339066E-06
vn -2.2649765E-06 1 3.9339066E-06
vn -2.3841858E-07 1 1.4901161E-06
vn 2.2649765E-06 1 3.9339066E-06
vn 2.2649765E-06 1 3.9339066E-06
vn -0 1 2.2649765E-06
vn -0 1 6.556511E-07
vn -0 1 0
vn -0 1 0
g MainCity_Prop_SpiceJar_03_0
f 3/3/3 2/2/2 1/1/1
f 4/4/4 3/3/3 1/1/1
f 4/4/4 1/1/1 5/5/5
f 6/6/6 4/4/4 5/5/5
f 6/6/6 5/5/5 7/7/7
f 8/8/8 6/6/6 7/7/7
f 7/7/7 9/9/9 8/8/8
f 9/9/9 10/10/10 8/8/8
f 10/10/10 9/9/9 11/11/11
f 12/12/12 10/10/10 11/11/11
f 12/12/12 11/11/11 13/13/13
f 14/14/14 12/12/12 13/13/13
f 17/17/17 16/16/16 15/15/15
f 16/16/16 18/18/18 15/15/15
f 16/16/16 19/19/19 18/18/18
f 19/19/19 20/20/20 18/18/18
f 19/19/19 21/21/21 20/20/20
f 21/21/21 22/22/22 20/20/20
f 21/21/21 23/23/23 22/22/22
f 23/23/23 24/24/24 22/22/22
f 23/23/23 25/25/25 24/24/24
f 25/25/25 26/26/26 24/24/24
f 25/25/25 27/27/27 26/26/26
f 27/27/27 28/28/28 26/26/26
f 31/31/31 30/30/30 29/29/29
f 32/32/32 31/31/31 29/29/29
f 33/33/33 31/31/31 32/32/32
f 34/34/34 33/33/33 32/32/32
f 35/35/35 33/33/33 34/34/34
f 36/36/36 35/35/35 34/34/34
f 36/36/36 37/37/37 35/35/35
f 37/37/37 38/38/38 35/35/35
f 39/39/39 38/38/38 37/37/37
f 40/40/40 39/39/39 37/37/37
f 41/41/41 39/39/39 40/40/40
f 42/42/42 41/41/41 40/40/40
f 45/45/45 44/44/44 43/43/43
f 44/44/44 46/46/46 43/43/43
f 43/43/43 46/46/46 47/47/47
f 46/46/46 48/48/48 47/47/47
f 47/47/47 48/48/48 49/49/49
f 48/48/48 50/50/50 49/49/49
f 49/49/49 50/50/50 51/51/51
f 50/50/50 52/52/52 51/51/51
f 51/51/51 52/52/52 53/53/53
f 52/52/52 54/54/54 53/53/53
f 53/53/53 54/54/54 55/55/55
f 54/54/54 56/56/56 55/55/55
f 59/59/59 58/58/58 57/57/57
f 59/59/59 57/57/57 60/60/60
f 60/60/60 61/61/61 59/59/59
f 59/59/59 61/61/61 62/62/62
f 59/59/59 62/62/62 63/63/63
f 66/66/66 65/65/65 64/64/64
f 66/66/66 67/67/67 65/65/65
f 66/66/66 68/68/68 67/67/67
f 66/66/66 69/69/69 68/68/68
f 66/66/66 70/70/70 69/69/69
f 73/73/73 72/72/72 71/71/71
f 74/74/74 73/73/73 71/71/71
f 74/74/74 71/71/71 75/75/75
f 76/76/76 74/74/74 75/75/75
f 76/76/76 75/75/75 77/77/77
f 78/78/78 76/76/76 77/77/77
f 77/77/77 79/79/79 78/78/78
f 79/79/79 80/80/80 78/78/78
f 80/80/80 79/79/79 81/81/81
f 82/82/82 80/80/80 81/81/81
f 82/82/82 81/81/81 83/83/83
f 84/84/84 82/82/82 83/83/83
f 87/87/87 86/86/86 85/85/85
f 86/86/86 88/88/88 85/85/85
f 86/86/86 89/89/89 88/88/88
f 89/89/89 90/90/90 88/88/88
f 89/89/89 91/91/91 90/90/90
f 91/91/91 92/92/92 90/90/90
f 91/91/91 93/93/93 92/92/92
f 93/93/93 94/94/94 92/92/92
f 93/93/93 95/95/95 94/94/94
f 95/95/95 96/96/96 94/94/94
f 95/95/95 97/97/97 96/96/96
f 97/97/97 98/98/98 96/96/96
f 101/101/101 100/100/100 99/99/99
f 102/102/102 101/101/101 99/99/99
f 102/102/102 99/99/99 103/103/103
f 104/104/104 102/102/102 103/103/103
f 105/105/105 104/104/104 103/103/103
f 108/108/108 107/107/107 106/106/106
f 109/109/109 108/108/108 106/106/106
f 110/110/110 109/109/109 106/106/106
f 110/110/110 111/111/111 109/109/109
f 111/111/111 112/112/112 109/109/109
f 115/115/115 114/114/114 113/113/113
f 116/116/116 115/115/115 113/113/113
f 116/116/116 113/113/113 117/117/117
f 113/113/113 118/118/118 117/117/117
f 118/118/118 119/119/119 117/117/117
f 122/122/122 121/121/121 120/120/120
f 123/123/123 122/122/122 120/120/120
f 124/124/124 123/123/123 120/120/120
f 124/124/124 120/120/120 125/125/125
f 126/126/126 124/124/124 125/125/125
