g MainCity_Prop_NoodleStuff_06
v 0.2517108 0.23903029 0.019777656
v 0.20568557 0.27588347 0.019777656
v 0.2517108 0.27588347 0.019777656
v 0.20568542 0.23903029 0.019777961
v 0.20568572 0.20147641 0.0013255046
v 0.2517108 0.20147641 0.0013258097
v 0.20568572 0.17857115 0.0013255036
v 0.2517108 0.17857115 0.0013258087
v 0.20568572 0.08928556 0.0013254997
v 0.2517108 0.08928556 0.0013258049
v 0.10284271 0.17857115 0.0013255036
v 0.20568557 -1.9073486E-08 0.0013258008
v 0.25171065 -1.9073486E-08 0.0013258008
v 0.10284271 0.08928556 0.0013254997
v 7.6293944E-08 0.17857115 0.0013255036
v 0.2056855 -0.0892856 0.0013257969
v 0.2517105 -0.0892856 0.0013257969
v 7.6293944E-08 0.08928556 0.0013254997
v -0.10284264 0.17857115 0.0013255036
v 0.10284264 -1.9073486E-08 0.0013254957
v 0.2056855 -0.17857118 0.0013257931
v 0.2517105 -0.17857118 0.0013257931
v 0.10284286 -0.0892856 0.0013257969
v 0.10284286 -0.17857118 0.0013257931
v -1.5258789E-07 -0.0892856 0.0013257969
v -1.5258789E-07 -0.17857118 0.0013257931
v -0.10284264 0.08928556 0.0013254997
v -0.20568557 0.17857115 0.0013255036
v -7.6293944E-08 -1.9073486E-08 0.0013258008
v -0.102842785 -0.0892856 0.0013257969
v -0.102842785 -0.17857118 0.0013257931
v -0.10284286 -1.9073486E-08 0.0013254957
v -0.20568565 -0.0892856 0.0013254918
v -0.20568565 -0.17857118 0.0013254879
v -0.25171065 -0.17857118 0.0013254879
v -0.25171065 -0.0892856 0.0013254918
v -0.20568557 -1.9073486E-08 0.0013254957
v -0.2517106 -1.9073486E-08 0.0013254957
v -0.20568557 0.08928556 0.0013254997
v -0.2517106 0.08928556 0.0013254997
v -0.2517106 0.17857115 0.0013255036
v -0.20568557 0.20147641 0.0013255046
v -0.2517106 0.20147641 0.0013255046
v -0.2056855 0.23903029 0.019777656
v -0.2517108 0.23903029 0.019777656
v -0.2517108 0.27588347 0.019777656
v -0.2056855 0.27588347 0.019777656
v 0.2517108 0.27588347 0.019777656
v 0.20568557 0.27588347 0.019777656
v 0.2056855 0.27588347 -0.019777091
v 0.2517108 0.27588347 -0.019777397
v -0.25171095 0.27588347 -0.019776786
v -0.20568565 0.27588347 -0.019776786
v -0.2056855 0.27588347 0.019777656
v -0.2517108 0.27588347 0.019777656
v 0.20568557 0.23903044 -0.019778313
v 0.20568572 0.20951429 -0.0007594559
v 0.2517108 0.20951429 -0.0007594559
v 0.2517111 0.23903044 -0.019778313
v 0.2056855 0.27588347 -0.019777091
v 0.2517108 0.27588347 -0.019777397
v -0.20568557 0.20951429 -0.0007588456
v -0.25171074 0.23903044 -0.019778008
v -0.2517108 0.20951429 -0.0007588456
v -0.20568565 0.23903044 -0.019778008
v -0.25171095 0.27588347 -0.019776786
v -0.20568565 0.27588347 -0.019776786
v 0.20568572 0.2737622 0.016785102
v 0.2517108 0.23923826 0.016785102
v 0.2517108 0.2737622 0.016785102
v 0.20568535 0.23923826 0.016785102
v 0.25171095 0.2016844 -0.001667049
v 0.20568565 0.2016844 -0.001667049
v 0.20568565 0.17857115 -0.0016743743
v 0.25171095 0.17857115 -0.0016743743
v 0.25171095 0.08928556 -0.0016743782
v 0.20568565 0.08928556 -0.0016743782
v 0.2517108 -1.9073486E-08 -0.001674077
v 0.10284294 0.08928556 -0.0016743782
v 0.10284294 0.17857115 -0.0016743743
v 0.2056855 -1.9073486E-08 -0.0016743822
v 0.2517108 -0.0892856 -0.0016740808
v 2.2888183E-07 0.08928556 -0.0016743782
v 2.2888183E-07 0.17857115 -0.0016743743
v 0.102842785 -1.9073486E-08 -0.0016743822
v 0.20568542 -0.0892856 -0.0016743861
v 0.2517108 -0.17857118 -0.0016740848
v 0.20568542 -0.17857118 -0.0016743899
v 0.10284271 -0.17857118 -0.0016743899
v 0.10284271 -0.0892856 -0.0016743861
v 7.6293944E-08 -0.17857118 -0.0016743899
v 7.6293944E-08 -0.0892856 -0.0016743861
v -0.102842785 -0.17857118 -0.0016743899
v -0.10284264 0.08928556 -0.0016743782
v -0.10284264 0.17857115 -0.0016743743
v 1.5258789E-07 -1.9073486E-08 -0.0016743822
v -0.102842785 -0.0892856 -0.0016743861
v -0.20568557 -0.17857118 -0.0016743899
v -0.2056855 0.08928556 -0.0016743782
v -0.2056855 0.17857115 -0.0016743743
v -0.10284271 -1.9073486E-08 -0.0016743822
v -0.2056855 -1.9073486E-08 -0.0016743822
v -0.20568557 -0.0892856 -0.0016743861
v -0.2517109 -0.0892856 -0.0016740808
v -0.2517109 -0.17857118 -0.0016740848
v -0.2517108 -1.9073486E-08 -0.001674077
v -0.2517108 0.08928556 -0.001674073
v -0.2517108 0.17857115 -0.0016740691
v -0.2056858 0.2016844 -0.0016676594
v -0.2517111 0.2016844 -0.0016676594
v -0.25171104 0.23923826 0.016784491
v -0.20568603 0.23923826 0.016784491
v -0.2517108 0.2737622 0.016785102
v -0.20568557 0.2737622 0.016785102
v 0.20568565 0.27376187 -0.016892875
v 0.20568572 0.2737622 0.016785102
v 0.2517108 0.2737622 0.016785102
v 0.2517108 0.27376187 -0.01689318
v -0.20568557 0.2737622 0.016785102
v -0.20568572 0.27376187 -0.01689318
v -0.2517109 0.27376187 -0.016892875
v -0.2517108 0.2737622 0.016785102
v 0.2517111 0.21234754 0.00039075164
v 0.2056855 0.21234754 0.00039075164
v 0.2056855 0.23985945 -0.016895318
v 0.2517108 0.23985945 -0.016895318
v 0.20568565 0.27376187 -0.016892875
v 0.2517108 0.27376187 -0.01689318
v -0.2517106 0.23985945 -0.016894707
v -0.20568565 0.21234754 0.00039105682
v -0.25171074 0.21234754 0.00039105682
v -0.20568557 0.23985945 -0.016894707
v -0.2517109 0.27376187 -0.016892875
v -0.20568572 0.27376187 -0.01689318
vt 0.8774414 0.48901367
vt 0.8676758 0.4921875
vt 0.8774414 0.4921875
vt 0.8676758 0.48901367
vt 0.8676758 0.48413086
vt 0.8774414 0.48413086
vt 0.8676758 0.47973633
vt 0.8774414 0.47973633
vt 0.8676758 0.46069336
vt 0.8774414 0.46069336
vt 0.8466797 0.47973633
vt 0.8676758 0.4416504
vt 0.8774414 0.4416504
vt 0.8466797 0.46069336
vt 0.8251953 0.47973633
vt 0.8676758 0.42260742
vt 0.8774414 0.42260742
vt 0.8251953 0.46069336
vt 0.80371094 0.47973633
vt 0.8466797 0.4416504
vt 0.8676758 0.4038086
vt 0.8774414 0.4038086
vt 0.8466797 0.42260742
vt 0.8466797 0.4038086
vt 0.8251953 0.42260742
vt 0.8251953 0.4038086
vt 0.80371094 0.46069336
vt 0.78271484 0.47973633
vt 0.8251953 0.4416504
vt 0.80371094 0.42260742
vt 0.80371094 0.4038086
vt 0.80371094 0.4416504
vt 0.78271484 0.42260742
vt 0.78271484 0.4038086
vt 0.7729492 0.4038086
vt 0.7729492 0.42260742
vt 0.78271484 0.4416504
vt 0.7729492 0.4416504
vt 0.78271484 0.46069336
vt 0.7729492 0.46069336
vt 0.7729492 0.47973633
vt 0.78271484 0.48413086
vt 0.7729492 0.48413086
vt 0.78271484 0.48901367
vt 0.7729492 0.48901367
vt 0.7729492 0.4921875
vt 0.78271484 0.4921875
vt 0.8774414 0.4921875
vt 0.8676758 0.4921875
vt 0.8676758 0.49389648
vt 0.8774414 0.49389648
vt 0.7729492 0.49389648
vt 0.78271484 0.49389648
vt 0.78271484 0.4921875
vt 0.7729492 0.4921875
vt 0.8676758 0.48901367
vt 0.8676758 0.48657227
vt 0.8774414 0.48657227
vt 0.8774414 0.48901367
vt 0.8676758 0.4921875
vt 0.8774414 0.4921875
vt 0.78271484 0.48657227
vt 0.7729492 0.48901367
vt 0.7729492 0.48657227
vt 0.78271484 0.48901367
vt 0.7729492 0.4921875
vt 0.78271484 0.4921875
vt 0.8676758 0.4921875
vt 0.8774414 0.48901367
vt 0.8774414 0.4921875
vt 0.8676758 0.48901367
vt 0.8774414 0.48413086
vt 0.8676758 0.48413086
vt 0.8676758 0.47973633
vt 0.8774414 0.47973633
vt 0.8774414 0.46069336
vt 0.8676758 0.46069336
vt 0.8774414 0.4416504
vt 0.8466797 0.46069336
vt 0.8466797 0.47973633
vt 0.8676758 0.4416504
vt 0.8774414 0.42260742
vt 0.8251953 0.46069336
vt 0.8251953 0.47973633
vt 0.8466797 0.4416504
vt 0.8676758 0.42260742
vt 0.8774414 0.4038086
vt 0.8676758 0.4038086
vt 0.8466797 0.4038086
vt 0.8466797 0.42260742
vt 0.8251953 0.4038086
vt 0.8251953 0.42260742
vt 0.80371094 0.4038086
vt 0.80371094 0.46069336
vt 0.80371094 0.47973633
vt 0.8251953 0.4416504
vt 0.80371094 0.42260742
vt 0.78271484 0.4038086
vt 0.78271484 0.46069336
vt 0.78271484 0.47973633
vt 0.80371094 0.4416504
vt 0.78271484 0.4416504
vt 0.78271484 0.42260742
vt 0.7729492 0.42260742
vt 0.7729492 0.4038086
vt 0.7729492 0.4416504
vt 0.7729492 0.46069336
vt 0.7729492 0.47973633
vt 0.78271484 0.48413086
vt 0.7729492 0.48413086
vt 0.7729492 0.48901367
vt 0.78271484 0.48901367
vt 0.7729492 0.4921875
vt 0.78271484 0.4921875
vt 0.8676758 0.49389648
vt 0.8676758 0.4921875
vt 0.8774414 0.4921875
vt 0.8774414 0.49389648
vt 0.78271484 0.4921875
vt 0.78271484 0.49389648
vt 0.7729492 0.49389648
vt 0.7729492 0.4921875
vt 0.8774414 0.48657227
vt 0.8676758 0.48657227
vt 0.8676758 0.48901367
vt 0.8774414 0.48901367
vt 0.8676758 0.4921875
vt 0.8774414 0.4921875
vt 0.7729492 0.48901367
vt 0.78271484 0.48657227
vt 0.7729492 0.48657227
vt 0.78271484 0.48901367
vt 0.7729492 0.4921875
vt 0.78271484 0.4921875
vn 1.7285347E-06 -0.22631836 0.9741211
vn 3.33786E-06 4.1127205E-06 1
vn 3.33786E-06 4.1127205E-06 1
vn 1.7285347E-06 -0.22631836 0.9741211
vn -3.3974648E-06 -0.22631836 0.9741211
vn -3.3974648E-06 -0.22631836 0.9741211
vn -4.4107437E-06 0 1
vn -6.6161156E-06 0 1
vn -2.861023E-06 8.34465E-07 1
vn -4.9471855E-06 8.34465E-07 1
vn -0 0 1
vn -1.5497208E-06 1.2516975E-06 1
vn -1.66893E-06 8.34465E-07 1
vn -0 8.34465E-07 1
vn -0 0 1
vn -3.5762787E-07 3.5762787E-07 1
vn -0 0 1
vn -0 8.34465E-07 1
vn -0 0 1
vn -0 1.66893E-06 1
vn -0 0 1
vn -0 0 1
vn -0 8.34465E-07 1
vn -0 0 1
vn -0 8.34465E-07 1
vn -0 0 1
vn -3.5762787E-07 3.5762787E-07 1
vn -0 0 1
vn -0 1.66893E-06 1
vn -1.4901161E-06 8.34465E-07 1
vn -1.4901161E-06 0 1
vn -1.1324883E-06 1.2516975E-06 1
vn -1.1324883E-06 3.5762787E-07 1
vn -1.4901161E-06 0 1
vn -0 0 1
vn -0 0 1
vn -3.5762787E-07 3.5762787E-07 1
vn -0 0 1
vn -0 0 1
vn -0 0 1
vn -0 0 1
vn -0 -0.22631836 0.9741211
vn -0 -0.22631836 0.9741211
vn -0 -0.22631836 0.9741211
vn -0 -0.22631836 0.9741211
vn -0 0 1
vn -0 0 1
vn -0 1 0
vn -0 1 0
vn -0 1 0
vn -0 1 0
vn -0 1 0
vn -0 1 0
vn -0 1 0
vn -0 1 0
vn -1.7285347E-06 -0.28222656 -0.95947266
vn -0 -0.5415039 -0.8408203
vn -0 -0.5415039 -0.8408203
vn -1.7285347E-06 -0.28222656 -0.95947266
vn -3.33786E-06 2.9027462E-05 -1
vn -3.33786E-06 2.9027462E-05 -1
vn -0 -0.5415039 -0.8408203
vn -0 -0.28222656 -0.95947266
vn -0 -0.5415039 -0.8408203
vn -0 -0.28222656 -0.95947266
vn -0 3.3140182E-05 -1
vn -0 3.3140182E-05 -1
vn -0 0 -1
vn -0 0.22631836 -0.9741211
vn -0 0 -1
vn -0 0.22631836 -0.9741211
vn -0 0.2265625 -0.9741211
vn -0 0.2265625 -0.9741211
vn -0 0.000105679035 -1
vn -0 0.00015842915 -1
vn 1.66893E-06 -8.34465E-07 -1
vn 8.34465E-07 -3.5762787E-07 -1
vn 4.9471855E-06 -8.34465E-07 -1
vn -0 0 -1
vn -0 0 -1
vn 2.503395E-06 -3.5762787E-07 -1
vn 6.6161156E-06 0 -1
vn -0 0 -1
vn -0 0 -1
vn -0 0 -1
vn 3.33786E-06 0 -1
vn 6.6161156E-06 0 -1
vn 3.33786E-06 0 -1
vn -0 0 -1
vn -0 0 -1
vn -0 0 -1
vn -0 0 -1
vn -0 0 -1
vn -0 0 -1
vn -0 0 -1
vn -0 0 -1
vn -0 0 -1
vn -3.33786E-06 0 -1
vn -3.33786E-06 0 -1
vn -3.33786E-06 9.4652176E-05 -1
vn -0 0 -1
vn -3.33786E-06 0 -1
vn -3.33786E-06 0 -1
vn -6.6161156E-06 0 -1
vn -6.6161156E-06 0 -1
vn -6.6161156E-06 0 -1
vn -6.6161156E-06 0 -1
vn -4.9471855E-06 0.00014197826 -1
vn -1.7285347E-06 0.2265625 -0.9741211
vn -1.7285347E-06 0.2265625 -0.9741211
vn -0 0.22644043 -0.9741211
vn -0 0.22644043 -0.9741211
vn -0 1.770258E-05 -1
vn -0 1.770258E-05 -1
vn -0 -1 9.059906E-06
vn -0 -1 9.059906E-06
vn -0 -1 9.059906E-06
vn -0 -1 9.059906E-06
vn -0 -1 9.059906E-06
vn -0 -1 9.059906E-06
vn -0 -1 9.059906E-06
vn -0 -1 9.059906E-06
vn -0 0.53222656 0.8466797
vn -0 0.53222656 0.8466797
vn 1.7285347E-06 0.27685547 0.9609375
vn 1.7285347E-06 0.27685547 0.9609375
vn 3.33786E-06 -6.753206E-05 1
vn 3.33786E-06 -6.753206E-05 1
vn 1.7285347E-06 0.27685547 0.9609375
vn -0 0.53222656 0.8466797
vn -0 0.53222656 0.8466797
vn 1.7285347E-06 0.27685547 0.9609375
vn 3.33786E-06 -4.953146E-05 1
vn 3.33786E-06 -4.953146E-05 1
g MainCity_Prop_NoodleStuff_06_0
f 3/3/3 2/2/2 1/1/1
f 2/2/2 4/4/4 1/1/1
f 1/1/1 4/4/4 5/5/5
f 6/6/6 1/1/1 5/5/5
f 5/5/5 7/7/7 6/6/6
f 7/7/7 8/8/8 6/6/6
f 7/7/7 9/9/9 8/8/8
f 9/9/9 10/10/10 8/8/8
f 7/7/7 11/11/11 9/9/9
f 9/9/9 12/12/12 10/10/10
f 12/12/12 13/13/13 10/10/10
f 11/11/11 14/14/14 9/9/9
f 9/9/9 14/14/14 12/12/12
f 14/14/14 11/11/11 15/15/15
f 12/12/12 16/16/16 13/13/13
f 16/16/16 17/17/17 13/13/13
f 18/18/18 14/14/14 15/15/15
f 18/18/18 15/15/15 19/19/19
f 14/14/14 20/20/20 12/12/12
f 12/12/12 20/20/20 16/16/16
f 20/20/20 14/14/14 18/18/18
f 17/17/17 16/16/16 21/21/21
f 22/22/22 17/17/17 21/21/21
f 16/16/16 23/23/23 21/21/21
f 20/20/20 23/23/23 16/16/16
f 23/23/23 24/24/24 21/21/21
f 23/23/23 25/25/25 24/24/24
f 23/23/23 20/20/20 25/25/25
f 25/25/25 26/26/26 24/24/24
f 27/27/27 18/18/18 19/19/19
f 27/27/27 19/19/19 28/28/28
f 29/29/29 20/20/20 18/18/18
f 20/20/20 29/29/29 25/25/25
f 29/29/29 18/18/18 27/27/27
f 25/25/25 30/30/30 26/26/26
f 30/30/30 25/25/25 29/29/29
f 30/30/30 31/31/31 26/26/26
f 32/32/32 30/30/30 29/29/29
f 32/32/32 29/29/29 27/27/27
f 31/31/31 30/30/30 33/33/33
f 33/33/33 30/30/30 32/32/32
f 34/34/34 31/31/31 33/33/33
f 34/34/34 33/33/33 35/35/35
f 33/33/33 36/36/36 35/35/35
f 37/37/37 33/33/33 32/32/32
f 36/36/36 33/33/33 37/37/37
f 37/37/37 32/32/32 27/27/27
f 38/38/38 36/36/36 37/37/37
f 39/39/39 37/37/37 27/27/27
f 38/38/38 37/37/37 39/39/39
f 40/40/40 38/38/38 39/39/39
f 39/39/39 27/27/27 28/28/28
f 40/40/40 39/39/39 28/28/28
f 41/41/41 40/40/40 28/28/28
f 41/41/41 28/28/28 42/42/42
f 43/43/43 41/41/41 42/42/42
f 42/42/42 44/44/44 43/43/43
f 44/44/44 45/45/45 43/43/43
f 45/45/45 44/44/44 46/46/46
f 44/44/44 47/47/47 46/46/46
f 50/50/50 49/49/49 48/48/48
f 51/51/51 50/50/50 48/48/48
f 54/54/54 53/53/53 52/52/52
f 55/55/55 54/54/54 52/52/52
f 58/58/58 57/57/57 56/56/56
f 59/59/59 58/58/58 56/56/56
f 59/59/59 56/56/56 60/60/60
f 61/61/61 59/59/59 60/60/60
f 64/64/64 63/63/63 62/62/62
f 63/63/63 65/65/65 62/62/62
f 65/65/65 63/63/63 66/66/66
f 67/67/67 65/65/65 66/66/66
f 70/70/70 69/69/69 68/68/68
f 69/69/69 71/71/71 68/68/68
f 71/71/71 69/69/69 72/72/72
f 73/73/73 71/71/71 72/72/72
f 73/73/73 72/72/72 74/74/74
f 72/72/72 75/75/75 74/74/74
f 75/75/75 76/76/76 74/74/74
f 76/76/76 77/77/77 74/74/74
f 77/77/77 76/76/76 78/78/78
f 77/77/77 79/79/79 74/74/74
f 79/79/79 80/80/80 74/74/74
f 81/81/81 77/77/77 78/78/78
f 81/81/81 78/78/78 82/82/82
f 79/79/79 83/83/83 80/80/80
f 83/83/83 84/84/84 80/80/80
f 85/85/85 79/79/79 77/77/77
f 81/81/81 85/85/85 77/77/77
f 79/79/79 85/85/85 83/83/83
f 86/86/86 81/81/81 82/82/82
f 86/86/86 82/82/82 87/87/87
f 88/88/88 86/86/86 87/87/87
f 88/88/88 89/89/89 86/86/86
f 86/86/86 90/90/90 81/81/81
f 89/89/89 90/90/90 86/86/86
f 90/90/90 85/85/85 81/81/81
f 90/90/90 89/89/89 91/91/91
f 92/92/92 90/90/90 91/91/91
f 85/85/85 90/90/90 92/92/92
f 92/92/92 91/91/91 93/93/93
f 83/83/83 94/94/94 84/84/84
f 94/94/94 95/95/95 84/84/84
f 85/85/85 96/96/96 83/83/83
f 96/96/96 85/85/85 92/92/92
f 94/94/94 83/83/83 96/96/96
f 97/97/97 92/92/92 93/93/93
f 96/96/96 92/92/92 97/97/97
f 97/97/97 93/93/93 98/98/98
f 95/95/95 94/94/94 99/99/99
f 100/100/100 95/95/95 99/99/99
f 101/101/101 94/94/94 96/96/96
f 101/101/101 96/96/96 97/97/97
f 99/99/99 94/94/94 101/101/101
f 102/102/102 101/101/101 97/97/97
f 102/102/102 99/99/99 101/101/101
f 103/103/103 97/97/97 98/98/98
f 103/103/103 102/102/102 97/97/97
f 104/104/104 103/103/103 98/98/98
f 105/105/105 104/104/104 98/98/98
f 104/104/104 106/106/106 103/103/103
f 106/106/106 102/102/102 103/103/103
f 106/106/106 107/107/107 102/102/102
f 107/107/107 99/99/99 102/102/102
f 99/99/99 107/107/107 108/108/108
f 100/100/100 99/99/99 108/108/108
f 109/109/109 100/100/100 108/108/108
f 110/110/110 109/109/109 108/108/108
f 110/110/110 111/111/111 109/109/109
f 111/111/111 112/112/112 109/109/109
f 111/111/111 113/113/113 112/112/112
f 113/113/113 114/114/114 112/112/112
f 117/117/117 116/116/116 115/115/115
f 118/118/118 117/117/117 115/115/115
f 121/121/121 120/120/120 119/119/119
f 122/122/122 121/121/121 119/119/119
f 125/125/125 124/124/124 123/123/123
f 126/126/126 125/125/125 123/123/123
f 127/127/127 125/125/125 126/126/126
f 128/128/128 127/127/127 126/126/126
f 131/131/131 130/130/130 129/129/129
f 130/130/130 132/132/132 129/129/129
f 133/133/133 129/129/129 132/132/132
f 134/134/134 133/133/133 132/132/132
