g MainCity_Prop_SwitchBox_02
v 0.00524473 0.31953192 -0.009225119
v -0.0051626298 2.8568141 -0.009225008
v -0.0051626298 0.31953192 -0.009225118
v 0.0052447296 2.8568141 -0.009225009
v 0.01044841 0.31953192 -0.00021208033
v 0.01044841 2.8568141 -0.00021196983
v 0.0052447296 2.8568141 0.008801067
v 0.0052447296 0.31953192 0.008800959
v -0.0051626284 0.31953192 0.008800959
v -0.0051626274 2.8568141 0.008801067
v -0.0051626298 0.31953192 -0.009225118
v -0.0051626298 2.8568141 -0.009225008
v -0.0103663085 2.8568141 -0.00021196895
v -0.0103663085 0.31953192 -0.00021207944
v -0.0051626274 2.8568141 0.008801067
v -0.0051626284 0.31953192 0.008800959
v -0.035011075 0.31953192 0.010195388
v -0.025998257 2.8568141 0.0049916003
v -0.025998035 0.31953192 0.004991712
v -0.035011295 2.8568141 0.010195277
v -0.044024333 2.8568141 0.004991601
v -0.044024114 0.31953192 0.004991712
v -0.044024114 0.31953192 -0.005415649
v -0.044024333 2.8568141 -0.005415761
v -0.035011075 0.31953192 -0.010619326
v -0.0350113 2.8568141 -0.010619437
v -0.025998035 0.31953192 -0.00541565
v -0.025998257 2.8568141 -0.005415761
v -0.025998035 0.31953192 0.004991712
v -0.025998257 2.8568141 0.0049916003
v -0.025998257 2.8568141 -0.005415761
v -0.025998035 0.31953192 -0.00541565
v -0.08102807 3.43521E-05 -0.037650697
v -0.08102807 3.4330853E-05 0.0376505
v 0.049999394 3.4330853E-05 0.0376505
v 0.049999394 3.43521E-05 -0.0376507
v 0.049999394 3.43521E-05 -0.0376507
v 0.049999394 3.4330853E-05 0.0376505
v 0.049999394 0.32043526 0.037650667
v 0.049999394 0.32043526 -0.03765053
v -0.08102807 0.32043526 0.037650667
v -0.08102807 0.32043526 -0.03765053
v 0.049999394 0.32043526 -0.03765053
v 0.049999394 0.32043526 0.037650667
v -0.08102807 3.4330853E-05 0.0376505
v -0.08102807 3.43521E-05 -0.037650697
v -0.08102807 0.32043526 -0.03765053
v -0.08102807 0.32043526 0.037650667
v -0.08102807 3.43521E-05 -0.037650697
v 0.049999394 3.43521E-05 -0.0376507
v 0.049999394 0.32043526 -0.03765053
v -0.08102807 0.32043526 -0.03765053
v 0.049999394 3.4330853E-05 0.0376505
v -0.08102807 3.4330853E-05 0.0376505
v -0.08102807 0.32043526 0.037650667
v 0.049999394 0.32043526 0.037650667
vt 0.0066337585 0.07122803
vt 3.7890625 0.084106445
vt 0.0066337585 0.084106445
vt 3.7890625 0.07122803
vt 0.0066337585 0.058380127
vt 3.7890625 0.058380127
vt 3.7890625 0.04550171
vt 0.0066337585 0.04550171
vt 0.0066337585 0.03262329
vt 3.7890625 0.03262329
vt 0.0066337585 0.0068740845
vt 3.7890625 0.0068740845
vt 3.7890625 0.019744873
vt 0.0066337585 0.019744873
vt 3.7890625 0.03262329
vt 0.0066337585 0.03262329
vt 0.0066337585 0.058380127
vt 3.7890625 0.07122803
vt 0.0066337585 0.07122803
vt 3.7890625 0.058380127
vt 3.7890625 0.04550171
vt 0.0066337585 0.04550171
vt 0.0066337585 0.03262329
vt 3.7890625 0.03262329
vt 0.0066337585 0.019744873
vt 3.7890625 0.019744873
vt 0.0066337585 0.0068740845
vt 3.7890625 0.0068740845
vt 0.0066337585 0.07122803
vt 3.7890625 0.07122803
vt 3.7890625 0.084106445
vt 0.0066337585 0.084106445
vt 0.6923828 0.94970703
vt 0.6923828 0.66845703
vt 0.04324341 0.66845703
vt 0.04324341 0.94970703
vt 0.6923828 0.94970703
vt 0.6923828 0.66845703
vt 0.04324341 0.66845703
vt 0.04324341 0.94970703
vt 0.72753906 0.9477539
vt 0.9667969 0.9477539
vt 0.9667969 0.1161499
vt 0.72753906 0.1161499
vt 0.04324341 0.66845703
vt 0.04324341 0.94970703
vt 0.6923828 0.94970703
vt 0.6923828 0.66845703
vt 0.6933594 0.6455078
vt 0.6933594 0.11444092
vt 0.04397583 0.11444092
vt 0.04397583 0.6455078
vt 0.6933594 0.6455078
vt 0.6933594 0.11444092
vt 0.04397583 0.11444092
vt 0.04397583 0.6455078
vn 0.5 0 -0.86621094
vn -0.5 0 -0.86621094
vn -0.5 0 -0.86621094
vn 0.5 0 -0.86621094
vn 1 0 0
vn 1 0 0
vn 0.5 0 0.86621094
vn 0.5 0 0.86621094
vn -0.5 0 0.86621094
vn -0.5 0 0.86621094
vn -0.5 0 -0.86621094
vn -0.5 0 -0.86621094
vn -1 0 1.7881393E-07
vn -1 0 1.7881393E-07
vn -0.5 0 0.86621094
vn -0.5 0 0.86621094
vn -0 0 1
vn 0.86621094 0 0.5
vn 0.86621094 0 0.5
vn -0 0 1
vn -0.86621094 0 0.5
vn -0.86621094 0 0.5
vn -0.86621094 0 -0.5
vn -0.86621094 0 -0.5
vn -1.1920929E-07 0 -1
vn -1.7881393E-07 0 -1
vn 0.86621094 0 -0.5
vn 0.86621094 0 -0.5
vn 0.86621094 0 0.5
vn 0.86621094 0 0.5
vn 0.86621094 0 -0.5
vn 0.86621094 0 -0.5
vn -0 -1 -2.9802322E-07
vn -0 -1 -2.9802322E-07
vn -0 -1 -2.9802322E-07
vn -0 -1 -2.9802322E-07
vn 1 0 0
vn 1 0 0
vn 1 0 0
vn 1 0 0
vn -0 1 0
vn -0 1 0
vn -0 1 0
vn -0 1 0
vn -1 0 0
vn -1 0 0
vn -1 0 0
vn -1 0 0
vn -0 5.364418E-07 -1
vn -0 5.364418E-07 -1
vn -0 5.364418E-07 -1
vn -0 5.364418E-07 -1
vn -0 -5.364418E-07 1
vn -0 -5.364418E-07 1
vn -0 -5.364418E-07 1
vn -0 -5.364418E-07 1
g MainCity_Prop_SwitchBox_02_0
f 3/3/3 2/2/2 1/1/1
f 2/2/2 4/4/4 1/1/1
f 1/1/1 4/4/4 5/5/5
f 4/4/4 6/6/6 5/5/5
f 6/6/6 7/7/7 5/5/5
f 7/7/7 8/8/8 5/5/5
f 8/8/8 7/7/7 9/9/9
f 7/7/7 10/10/10 9/9/9
f 13/13/13 12/12/12 11/11/11
f 14/14/14 13/13/13 11/11/11
f 15/15/15 13/13/13 14/14/14
f 16/16/16 15/15/15 14/14/14
f 19/19/19 18/18/18 17/17/17
f 18/18/18 20/20/20 17/17/17
f 20/20/20 21/21/21 17/17/17
f 21/21/21 22/22/22 17/17/17
f 22/22/22 21/21/21 23/23/23
f 21/21/21 24/24/24 23/23/23
f 23/23/23 24/24/24 25/25/25
f 24/24/24 26/26/26 25/25/25
f 25/25/25 26/26/26 27/27/27
f 26/26/26 28/28/28 27/27/27
f 31/31/31 30/30/30 29/29/29
f 32/32/32 31/31/31 29/29/29
f 35/35/35 34/34/34 33/33/33
f 36/36/36 35/35/35 33/33/33
f 39/39/39 38/38/38 37/37/37
f 40/40/40 39/39/39 37/37/37
f 43/43/43 42/42/42 41/41/41
f 44/44/44 43/43/43 41/41/41
f 47/47/47 46/46/46 45/45/45
f 48/48/48 47/47/47 45/45/45
f 51/51/51 50/50/50 49/49/49
f 52/52/52 51/51/51 49/49/49
f 55/55/55 54/54/54 53/53/53
f 56/56/56 55/55/55 53/53/53
