g MainCity_Prop_Gadgets_03
v 0.028500937 0.1688738 -0.028500948
v -0 0.18056475 -0.033523217
v -0 0.1688738 -0.040306423
v 0.02370449 0.18056475 -0.023704503
v -0 0.1875922 -0.023839945
v 0.016857414 0.1875922 -0.016857397
v -0.028500937 0.1688738 0.028500948
v -0 0.18056475 0.033523217
v -0 0.1688738 0.040306423
v -0.02370449 0.18056475 0.023704503
v -0 0.1875922 0.02383995
v -0.040306397 0.1688738 -3.5143145E-18
v -0.016857414 0.1875922 0.016857397
v -0.033523217 0.18056475 2.0325686E-10
v -0.028500937 0.1688738 -0.028500948
v -0.02383995 0.1875922 -4.0627407E-10
v -0.02370449 0.18056475 -0.023704503
v -0 0.1688738 -0.040306423
v -0.016857414 0.1875922 -0.016857397
v -0 0.18056475 -0.033523217
v -0 0.1875922 -0.023839945
v 0.040306434 0.1688738 8.653574E-18
v 0.02370449 0.18056475 -0.023704503
v 0.028500937 0.1688738 -0.028500948
v 0.033523217 0.18056475 2.0325686E-10
v 0.016857414 0.1875922 -0.016857397
v 0.028500937 0.1688738 0.02850095
v 0.02383995 0.1875922 -4.0627407E-10
v 0.02370449 0.18056475 0.023704503
v -0 0.1688738 0.040306423
v 0.016857414 0.1875922 0.016857399
v -0 0.18056475 0.033523217
v -0 0.1875922 0.02383995
v -0 0.1688738 -0.040306423
v -0 0.00021902083 -0.040260386
v 0.028468398 0.00021902083 -0.02846839
v 0.028500937 0.1688738 -0.028500948
v -0.028500937 0.1688738 -0.028500948
v -0 0.00021902083 -0.040260386
v -0 0.1688738 -0.040306423
v -0.028468398 0.00021902083 -0.02846839
v -0.040306397 0.1688738 -3.5143145E-18
v -0.04026039 0.00021902083 -7.17331E-22
v -0.028500937 0.1688738 0.028500948
v -0.028468398 0.00021902083 0.02846839
v -0 0.1688738 0.040306423
v -0 0.00021902083 0.040260386
v 0.028500937 0.1688738 0.02850095
v 0.028468398 0.00021902083 0.028468393
v 0.040306434 0.1688738 8.653574E-18
v 0.04026039 0.00021902083 -2.2271685E-18
v 0.028500937 0.1688738 -0.028500948
v 0.028468398 0.00021902083 -0.02846839
v 0.028468398 0.00021902083 0.028468393
v 0.04026039 0.00021902083 -2.2271685E-18
v 0.028468398 0.00021902083 -0.02846839
v -0 0.00021902083 0.040260386
v -0 0.00021902083 -0.040260386
v -0.028468398 0.00021902083 -0.02846839
v -0.028468398 0.00021902083 0.02846839
v -0.04026039 0.00021902083 -7.17331E-22
v 0.016857414 0.1875922 -0.016857397
v 0.014966316 0.22171654 -0.014966332
v -0 0.22171654 -0.021165594
v -0 0.1875922 -0.023839945
v -0 0.1875922 -0.023839945
v -0 0.22171654 -0.021165594
v -0.014966354 0.22171654 -0.014966332
v -0.016857414 0.1875922 -0.016857397
v -0.02116558 0.22171654 -3.2657219E-10
v -0.02383995 0.1875922 -4.0627407E-10
v -0.014966354 0.22171654 0.014966332
v -0.016857414 0.1875922 0.016857397
v -0 0.22171654 0.021165594
v -0 0.1875922 0.02383995
v 0.014966316 0.22171654 0.014966332
v 0.016857414 0.1875922 0.016857399
v 0.02116558 0.22171654 -3.2657219E-10
v 0.02383995 0.1875922 -4.0627407E-10
v 0.014966316 0.22171654 -0.014966332
v 0.016857414 0.1875922 -0.016857397
v -0.014966354 0.22171654 0.014966332
v -0.02116558 0.22171654 -3.2657219E-10
v -0.014966354 0.22171654 -0.014966332
v -0 0.22171654 0.021165594
v -0 0.22171654 -0.021165594
v 0.014966316 0.22171654 0.014966332
v 0.014966316 0.22171654 -0.014966332
v 0.02116558 0.22171654 -3.2657219E-10
vt 0.4892578 0.5698242
vt 0.48242188 0.5878906
vt 0.4753418 0.5830078
vt 0.49316406 0.57714844
vt 0.49023438 0.5917969
vt 0.4975586 0.58447266
vt 0.5258789 0.56884766
vt 0.5336914 0.5859375
vt 0.54003906 0.5810547
vt 0.52246094 0.5761719
vt 0.5263672 0.59033203
vt 0.5073242 0.5649414
vt 0.5185547 0.5834961
vt 0.5078125 0.5727539
vt 0.4892578 0.5698242
vt 0.5083008 0.58154297
vt 0.49316406 0.57714844
vt 0.4753418 0.5830078
vt 0.4975586 0.58447266
vt 0.48242188 0.5878906
vt 0.49023438 0.5917969
vt 0.5073242 0.5649414
vt 0.49316406 0.57714844
vt 0.4892578 0.5698242
vt 0.5078125 0.5727539
vt 0.4975586 0.58447266
vt 0.5258789 0.56884766
vt 0.5083008 0.58154297
vt 0.52246094 0.5761719
vt 0.54003906 0.5810547
vt 0.5185547 0.5834961
vt 0.5336914 0.5859375
vt 0.5263672 0.59033203
vt 0.9213867 0.28881836
vt 0.92089844 0.18664551
vt 0.90185547 0.18664551
vt 0.90185547 0.28881836
vt 0.7861328 0.28881836
vt 0.76660156 0.18664551
vt 0.76660156 0.28857422
vt 0.7861328 0.18664551
vt 0.8051758 0.28881836
vt 0.8051758 0.18664551
vt 0.82470703 0.28881836
vt 0.82470703 0.18664551
vt 0.84375 0.28881836
vt 0.84375 0.18664551
vt 0.86328125 0.28881836
vt 0.86328125 0.18664551
vt 0.8828125 0.28881836
vt 0.8823242 0.18664551
vt 0.90185547 0.28881836
vt 0.90185547 0.18664551
vt 0.94677734 0.51464844
vt 0.95166016 0.51953125
vt 0.9589844 0.51953125
vt 0.94677734 0.5078125
vt 0.9638672 0.51464844
vt 0.9638672 0.5078125
vt 0.95166016 0.5029297
vt 0.9589844 0.5029297
vt 0.66064453 0.3215332
vt 0.6401367 0.3215332
vt 0.6401367 0.33203125
vt 0.66064453 0.33203125
vt 0.66064453 0.24816895
vt 0.6401367 0.24816895
vt 0.6401367 0.25854492
vt 0.66064453 0.25854492
vt 0.6401367 0.26904297
vt 0.66064453 0.26904297
vt 0.6401367 0.27954102
vt 0.66064453 0.27954102
vt 0.6401367 0.2902832
vt 0.66064453 0.2902832
vt 0.6401367 0.30078125
vt 0.66064453 0.30078125
vt 0.6401367 0.3112793
vt 0.66064453 0.3112793
vt 0.6401367 0.3215332
vt 0.66064453 0.3215332
vt 0.9267578 0.2578125
vt 0.9267578 0.2746582
vt 0.93896484 0.2866211
vt 0.93896484 0.24584961
vt 0.9555664 0.2866211
vt 0.9555664 0.24584961
vt 0.96777344 0.2746582
vt 0.96777344 0.2578125
vn 0.6118164 0.5019531 -0.6118164
vn -0 0.6459961 -0.7636719
vn -0 0.5019531 -0.8647461
vn 0.54003906 0.6459961 -0.54003906
vn -0 0.8095703 -0.58740234
vn 0.4152832 0.8095703 -0.4152832
vn -0.6118164 0.5019531 0.6118164
vn -0 0.6459961 0.7636719
vn -0 0.5019531 0.8647461
vn -0.54003906 0.6459961 0.54003906
vn -0 0.8095703 0.58740234
vn -0.8647461 0.5019531 0
vn -0.4152832 0.8095703 0.4152832
vn -0.7636719 0.6459961 0
vn -0.6118164 0.5019531 -0.6118164
vn -0.58740234 0.8095703 0
vn -0.54003906 0.6459961 -0.54003906
vn -0 0.5019531 -0.8647461
vn -0.4152832 0.8095703 -0.4152832
vn -0 0.6459961 -0.7636719
vn -0 0.8095703 -0.58740234
vn 0.8647461 0.5019531 0
vn 0.54003906 0.6459961 -0.54003906
vn 0.6118164 0.5019531 -0.6118164
vn 0.7636719 0.6459961 0
vn 0.4152832 0.8095703 -0.4152832
vn 0.6118164 0.5019531 0.6118164
vn 0.58740234 0.8095703 0
vn 0.54003906 0.6459961 0.54003906
vn -0 0.5019531 0.8647461
vn 0.4152832 0.8095703 0.4152832
vn -0 0.6459961 0.7636719
vn -0 0.8095703 0.58740234
vn -0 -0.00027298927 -1
vn -0 -0.00027298927 -1
vn 0.70703125 -0.00027298927 -0.70703125
vn 0.70703125 -0.00027298927 -0.70703125
vn -0.70703125 -0.00027298927 -0.70703125
vn -0 -0.00027298927 -1
vn -0 -0.00027298927 -1
vn -0.70703125 -0.00027298927 -0.70703125
vn -1 -0.00027275085 0
vn -1 -0.00027275085 0
vn -0.70703125 -0.00027298927 0.70703125
vn -0.70703125 -0.00027298927 0.70703125
vn -0 -0.00027298927 1
vn -0 -0.00027298927 1
vn 0.70703125 -0.00027298927 0.70703125
vn 0.70703125 -0.00027298927 0.70703125
vn 1 -0.00027298927 0
vn 1 -0.00027298927 0
vn 0.70703125 -0.00027298927 -0.70703125
vn 0.70703125 -0.00027298927 -0.70703125
vn -0 -1 0
vn -0 -1 0
vn -0 -1 0
vn -0 -1 0
vn -0 -1 0
vn -0 -1 0
vn -0 -1 0
vn -0 -1 0
vn 0.7050781 0.078125 -0.7050781
vn 0.7050781 0.078125 -0.7050781
vn 2.3841858E-07 0.078125 -0.9970703
vn 2.3841858E-07 0.078125 -0.9970703
vn 2.3841858E-07 0.078125 -0.9970703
vn 2.3841858E-07 0.078125 -0.9970703
vn -0.7050781 0.078125 -0.7050781
vn -0.7050781 0.078125 -0.7050781
vn -0.9970703 0.078125 0
vn -0.9970703 0.078125 0
vn -0.7050781 0.078125 0.7050781
vn -0.7050781 0.078125 0.7050781
vn 1.7881393E-07 0.078125 0.9970703
vn 1.7881393E-07 0.078125 0.9970703
vn 0.7050781 0.078125 0.7050781
vn 0.7050781 0.078125 0.7050781
vn 0.9970703 0.078125 0
vn 0.9970703 0.078125 0
vn 0.7050781 0.078125 -0.7050781
vn 0.7050781 0.078125 -0.7050781
vn -0 1 0
vn -0 1 0
vn -0 1 0
vn -0 1 0
vn -0 1 0
vn -0 1 0
vn -0 1 0
vn -0 1 0
g MainCity_Prop_Gadgets_03_0
f 3/3/3 2/2/2 1/1/1
f 2/2/2 4/4/4 1/1/1
f 2/2/2 5/5/5 4/4/4
f 5/5/5 6/6/6 4/4/4
f 9/9/9 8/8/8 7/7/7
f 8/8/8 10/10/10 7/7/7
f 8/8/8 11/11/11 10/10/10
f 7/7/7 10/10/10 12/12/12
f 11/11/11 13/13/13 10/10/10
f 10/10/10 14/14/14 12/12/12
f 10/10/10 13/13/13 14/14/14
f 12/12/12 14/14/14 15/15/15
f 13/13/13 16/16/16 14/14/14
f 14/14/14 17/17/17 15/15/15
f 14/14/14 16/16/16 17/17/17
f 15/15/15 17/17/17 18/18/18
f 16/16/16 19/19/19 17/17/17
f 17/17/17 20/20/20 18/18/18
f 17/17/17 19/19/19 20/20/20
f 19/19/19 21/21/21 20/20/20
f 24/24/24 23/23/23 22/22/22
f 23/23/23 25/25/25 22/22/22
f 23/23/23 26/26/26 25/25/25
f 22/22/22 25/25/25 27/27/27
f 26/26/26 28/28/28 25/25/25
f 25/25/25 29/29/29 27/27/27
f 25/25/25 28/28/28 29/29/29
f 27/27/27 29/29/29 30/30/30
f 28/28/28 31/31/31 29/29/29
f 29/29/29 32/32/32 30/30/30
f 29/29/29 31/31/31 32/32/32
f 31/31/31 33/33/33 32/32/32
f 36/36/36 35/35/35 34/34/34
f 37/37/37 36/36/36 34/34/34
f 40/40/40 39/39/39 38/38/38
f 39/39/39 41/41/41 38/38/38
f 38/38/38 41/41/41 42/42/42
f 41/41/41 43/43/43 42/42/42
f 42/42/42 43/43/43 44/44/44
f 43/43/43 45/45/45 44/44/44
f 44/44/44 45/45/45 46/46/46
f 45/45/45 47/47/47 46/46/46
f 46/46/46 47/47/47 48/48/48
f 47/47/47 49/49/49 48/48/48
f 48/48/48 49/49/49 50/50/50
f 49/49/49 51/51/51 50/50/50
f 50/50/50 51/51/51 52/52/52
f 51/51/51 53/53/53 52/52/52
f 56/56/56 55/55/55 54/54/54
f 56/56/56 54/54/54 57/57/57
f 58/58/58 56/56/56 57/57/57
f 58/58/58 57/57/57 59/59/59
f 57/57/57 60/60/60 59/59/59
f 60/60/60 61/61/61 59/59/59
f 64/64/64 63/63/63 62/62/62
f 65/65/65 64/64/64 62/62/62
f 68/68/68 67/67/67 66/66/66
f 69/69/69 68/68/68 66/66/66
f 70/70/70 68/68/68 69/69/69
f 71/71/71 70/70/70 69/69/69
f 72/72/72 70/70/70 71/71/71
f 73/73/73 72/72/72 71/71/71
f 74/74/74 72/72/72 73/73/73
f 75/75/75 74/74/74 73/73/73
f 76/76/76 74/74/74 75/75/75
f 77/77/77 76/76/76 75/75/75
f 78/78/78 76/76/76 77/77/77
f 79/79/79 78/78/78 77/77/77
f 80/80/80 78/78/78 79/79/79
f 81/81/81 80/80/80 79/79/79
f 84/84/84 83/83/83 82/82/82
f 84/84/84 82/82/82 85/85/85
f 86/86/86 84/84/84 85/85/85
f 86/86/86 85/85/85 87/87/87
f 88/88/88 86/86/86 87/87/87
f 88/88/88 87/87/87 89/89/89
