g MainCity_Prop_Gadgets_26
v -0.05185913 0.06731335 -0.17592527
v -0.13114585 0.067317925 0.119984135
v 0.05303726 0.067661926 0.16828553
v 0.13169265 0.06766064 -0.12526
v -0.05185913 0.07132651 -0.17592527
v -0.13114585 0.07133108 0.119984135
v -0.13114585 0.067317925 0.119984135
v -0.05185913 0.06731335 -0.17592527
v 0.13169228 0.07289918 -0.12526
v -0.05185913 0.07132651 -0.17592527
v -0.05185913 0.06731335 -0.17592527
v 0.13169265 0.06766064 -0.12526
v 0.13169265 0.06766064 -0.12526
v 0.05303726 0.067661926 0.16828553
v 0.05303688 0.07290046 0.16828553
v 0.13169228 0.07289918 -0.12526
v 0.13169228 0.07289918 -0.12526
v 0.05303688 0.07290046 0.16828553
v -0.13114585 0.07133108 0.119984135
v -0.05185913 0.07132651 -0.17592527
v 0.05303726 0.067661926 0.16828553
v -0.13114585 0.067317925 0.119984135
v -0.13114585 0.07133108 0.119984135
v 0.05303688 0.07290046 0.16828553
v 0.15502533 0.067574956 0.08105942
v -0.12868546 0.06757489 0.08105942
v -0.12868546 0.06757499 -0.13962191
v 0.15502533 0.067575075 -0.13962191
v -0.12868546 -0.0008809823 -0.1396219
v -0.12868546 -0.0008810664 0.0811178
v 0.15502533 -0.0008809996 0.0811178
v 0.15502533 -0.00088090607 -0.13962193
v -0.12868546 -0.0008810664 0.0811178
v -0.12868546 0.004349208 0.0811178
v 0.15502533 0.0043492746 0.0811178
v 0.15502533 -0.0008809996 0.0811178
v 0.15502533 0.067574956 0.08105942
v 0.15502533 0.06237625 0.08105942
v -0.12868546 0.062376194 0.08105942
v -0.12868546 0.06757489 0.08105942
v 0.15502533 0.0043492746 0.0811178
v -0.12868546 0.004349208 0.0811178
v -0.12868546 0.0043492806 -0.13416007
v 0.15502533 0.0043493668 -0.13416001
v 0.15502533 0.06237634 -0.13416001
v 0.15502533 0.0043493668 -0.13416001
v -0.12868546 0.0043492806 -0.13416007
v -0.12868546 0.06237627 -0.13416004
v 0.15502533 0.067575075 -0.13962191
v 0.15502533 0.06237634 -0.13416001
v 0.15502533 0.06237625 0.08105942
v 0.15502533 0.067574956 0.08105942
v -0.12868546 0.06757499 -0.13962191
v -0.12868546 0.06757489 0.08105942
v -0.12868546 0.062376194 0.08105942
v -0.12868546 0.06237627 -0.13416004
v -0.12868546 0.06757499 -0.13962191
v -0.12868546 -0.0008809823 -0.1396219
v 0.15502533 -0.00088090607 -0.13962193
v 0.15502533 0.067575075 -0.13962191
v -0.12868546 0.06757499 -0.13962191
v -0.12868546 0.06237627 -0.13416004
v -0.12868546 0.0043492806 -0.13416007
v -0.12868546 -0.0008809823 -0.1396219
v -0.12868546 -0.0008809823 -0.1396219
v -0.12868546 0.0043492806 -0.13416007
v -0.12868546 0.004349208 0.0811178
v -0.12868546 -0.0008810664 0.0811178
v 0.15502533 0.06237634 -0.13416001
v 0.15502533 0.067575075 -0.13962191
v 0.15502533 -0.00088090607 -0.13962193
v 0.15502533 0.0043493668 -0.13416001
v 0.15502533 0.0043493668 -0.13416001
v 0.15502533 -0.00088090607 -0.13962193
v 0.15502533 -0.0008809996 0.0811178
v 0.15502533 0.0043492746 0.0811178
v 0.15502533 0.06237634 -0.13416001
v -0.12868546 0.06237627 -0.13416004
v -0.12868546 0.062376194 0.08105942
v 0.15502533 0.06237625 0.08105942
v -0.11894676 0.0027925856 0.0707542
v 0.14530708 0.018291093 0.068250276
v 0.14530708 0.002792662 0.070754215
v -0.11894676 0.018291019 0.06825026
v 0.14530708 0.049082 0.068250276
v -0.11894676 0.049081925 0.06825026
v 0.14530708 0.06458043 0.07075423
v -0.11894676 0.06458036 0.070754215
v -0.11894676 0.049081925 0.06825026
v -0.11894676 0.06458042 -0.13482508
v -0.11894676 0.06458036 0.070754215
v -0.11894676 0.0027926366 -0.13482511
v -0.11894676 0.018291019 0.06825026
v -0.11894676 0.0027925856 0.0707542
v 0.14530708 0.064580485 -0.1348251
v 0.14530708 0.049082 0.068250276
v 0.14530708 0.06458043 0.07075423
v 0.14530708 0.018291093 0.068250276
v 0.14530708 0.0027927035 -0.13482511
v 0.14530708 0.002792662 0.070754215
vt 0.6958008 0.9692383
vt 0.84521484 0.9692383
vt 0.84521484 0.87646484
vt 0.6958008 0.87646484
vt 0.6953125 0.9926758
vt 0.84521484 0.9926758
vt 0.84521484 0.99072266
vt 0.6953125 0.99072266
vt 0.5546875 0.1496582
vt 0.5546875 0.22277832
vt 0.5571289 0.22277832
vt 0.5571289 0.1496582
vt 0.69628906 0.9814453
vt 0.84521484 0.9814453
vt 0.84521484 0.9790039
vt 0.69628906 0.9790039
vt 0.6958008 0.8676758
vt 0.84521484 0.8676758
vt 0.84521484 0.77490234
vt 0.6958008 0.77490234
vt 0.5571289 0.1496582
vt 0.5571289 0.22265625
vt 0.5546875 0.22265625
vt 0.5546875 0.1496582
vt 0.82421875 0.25439453
vt 0.82421875 0.40966797
vt 0.9448242 0.40966797
vt 0.9448242 0.25439453
vt 0.9448242 0.40966797
vt 0.82421875 0.40966797
vt 0.82421875 0.25439453
vt 0.9448242 0.25439453
vt 0.8120117 0.25439453
vt 0.8149414 0.25439453
vt 0.8149414 0.40966797
vt 0.8120117 0.40966797
vt 0.8120117 0.40966797
vt 0.8149414 0.40966797
vt 0.8149414 0.25439453
vt 0.8120117 0.25439453
vt 0.82421875 0.25439453
vt 0.82421875 0.40966797
vt 0.94189453 0.40966797
vt 0.94189453 0.25439453
vt 0.98779297 0.40966797
vt 0.9560547 0.40966797
vt 0.9560547 0.25439453
vt 0.98779297 0.25439453
vt 0.9873047 0.47387695
vt 0.984375 0.4711914
vt 0.8725586 0.4711914
vt 0.8725586 0.47387695
vt 0.9873047 0.47387695
vt 0.8725586 0.47387695
vt 0.8725586 0.4711914
vt 0.984375 0.4711914
vt 0.99072266 0.25439453
vt 0.953125 0.25439453
vt 0.953125 0.40966797
vt 0.99072266 0.40966797
vt 0.98828125 0.42822266
vt 0.98583984 0.4309082
vt 0.98583984 0.46118164
vt 0.98828125 0.4638672
vt 0.9873047 0.47387695
vt 0.984375 0.4711914
vt 0.8725586 0.4711914
vt 0.8725586 0.47387695
vt 0.98583984 0.4309082
vt 0.98828125 0.42822266
vt 0.98828125 0.4638672
vt 0.98583984 0.46118164
vt 0.984375 0.4711914
vt 0.9873047 0.47387695
vt 0.8725586 0.47387695
vt 0.8725586 0.4711914
vt 0.94189453 0.25439453
vt 0.94189453 0.40966797
vt 0.82421875 0.40966797
vt 0.82421875 0.25439453
vt 0.6582031 0.25439453
vt 0.8027344 0.26293945
vt 0.8027344 0.25439453
vt 0.6582031 0.26293945
vt 0.8027344 0.27978516
vt 0.6582031 0.27978516
vt 0.8027344 0.28833008
vt 0.6582031 0.28833008
vt 0.9760742 0.453125
vt 0.8691406 0.46118164
vt 0.9760742 0.46118164
vt 0.8691406 0.42895508
vt 0.9760742 0.43701172
vt 0.9760742 0.42895508
vt 0.8691406 0.46118164
vt 0.9760742 0.453125
vt 0.9760742 0.46118164
vt 0.9760742 0.43701172
vt 0.8691406 0.42895508
vt 0.9760742 0.42895508
vn 0.001750946 -1 0.00047898293
vn 0.001750946 -1 0.00047898293
vn 0.001750946 -1 0.00047898293
vn 0.001750946 -1 0.00047898293
vn -0.9658203 0 -0.25878906
vn -0.9658203 0 -0.25878906
vn -0.9658203 0 -0.25878906
vn -0.9658203 0 -0.25878906
vn 0.26611328 1.090765E-05 -0.9638672
vn 0.26611328 1.090765E-05 -0.9638672
vn 0.26611328 1.090765E-05 -0.9638672
vn 0.26611328 1.090765E-05 -0.9638672
vn 0.9658203 7.045269E-05 0.25878906
vn 0.9658203 7.045269E-05 0.25878906
vn 0.9658203 7.045269E-05 0.25878906
vn 0.9658203 7.045269E-05 0.25878906
vn -0.007965088 1 -0.0021438599
vn -0.007965088 1 -0.0021438599
vn -0.007965088 1 -0.0021438599
vn -0.007965088 1 -0.0021438599
vn -0.2536621 -1.04904175E-05 0.96728516
vn -0.2536621 -1.04904175E-05 0.96728516
vn -0.2536621 -1.04904175E-05 0.96728516
vn -0.2536621 -1.04904175E-05 0.96728516
vn -2.3841858E-07 1 4.7683716E-07
vn -2.3841858E-07 1 4.7683716E-07
vn -2.3841858E-07 1 4.7683716E-07
vn -2.3841858E-07 1 4.7683716E-07
vn 2.3841858E-07 -1 -4.172325E-07
vn 2.3841858E-07 -1 -4.172325E-07
vn 2.3841858E-07 -1 -4.172325E-07
vn 2.3841858E-07 -1 -4.172325E-07
vn -0 0 1
vn -0 0 1
vn -0 0 1
vn -0 0 1
vn -0 0 1
vn -0 0 1
vn -0 0 1
vn -0 0 1
vn -2.9802322E-07 1 3.5762787E-07
vn -2.9802322E-07 1 3.5762787E-07
vn -2.9802322E-07 1 3.5762787E-07
vn -2.9802322E-07 1 3.5762787E-07
vn -1.7881393E-07 -1.7881393E-07 1
vn -1.7881393E-07 -1.7881393E-07 1
vn -1.7881393E-07 -1.7881393E-07 1
vn -1.7881393E-07 -1.7881393E-07 1
vn 1 0 0
vn 1 0 0
vn 1 0 0
vn 1 0 0
vn -1 0 0
vn -1 0 0
vn -1 0 0
vn -1 0 0
vn -0 0 -1
vn -0 0 -1
vn -0 0 -1
vn -0 0 -1
vn -1 0 0
vn -1 0 0
vn -1 0 0
vn -1 0 0
vn -1 0 0
vn -1 0 0
vn -1 0 0
vn -1 0 0
vn 1 0 0
vn 1 0 0
vn 1 0 0
vn 1 0 0
vn 1 0 0
vn 1 0 0
vn 1 0 0
vn 1 0 0
vn 2.3841858E-07 -1 -4.172325E-07
vn 2.3841858E-07 -1 -4.172325E-07
vn 2.3841858E-07 -1 -4.172325E-07
vn 2.3841858E-07 -1 -4.172325E-07
vn -1.1920929E-07 0.1595459 0.9873047
vn -0 0.08001709 0.99658203
vn -1.1920929E-07 0.1595459 0.9873047
vn -0 0.08001709 0.99658203
vn -0 -0.08001709 0.99658203
vn -0 -0.08001709 0.99658203
vn -0 -0.1595459 0.9873047
vn -0 -0.1595459 0.9873047
vn -1 0 0
vn -1 0 0
vn -1 0 0
vn -1 0 0
vn -1 0 0
vn -1 0 0
vn 1 0 0
vn 1 0 0
vn 1 0 0
vn 1 0 0
vn 1 0 0
vn 1 0 0
g MainCity_Prop_Gadgets_26_0
f 3/3/3 2/2/2 1/1/1
f 4/4/4 3/3/3 1/1/1
f 7/7/7 6/6/6 5/5/5
f 8/8/8 7/7/7 5/5/5
f 11/11/11 10/10/10 9/9/9
f 12/12/12 11/11/11 9/9/9
f 15/15/15 14/14/14 13/13/13
f 16/16/16 15/15/15 13/13/13
f 19/19/19 18/18/18 17/17/17
f 20/20/20 19/19/19 17/17/17
f 23/23/23 22/22/22 21/21/21
f 24/24/24 23/23/23 21/21/21
f 27/27/27 26/26/26 25/25/25
f 28/28/28 27/27/27 25/25/25
f 31/31/31 30/30/30 29/29/29
f 32/32/32 31/31/31 29/29/29
f 35/35/35 34/34/34 33/33/33
f 36/36/36 35/35/35 33/33/33
f 39/39/39 38/38/38 37/37/37
f 40/40/40 39/39/39 37/37/37
f 43/43/43 42/42/42 41/41/41
f 44/44/44 43/43/43 41/41/41
f 47/47/47 46/46/46 45/45/45
f 48/48/48 47/47/47 45/45/45
f 51/51/51 50/50/50 49/49/49
f 52/52/52 51/51/51 49/49/49
f 55/55/55 54/54/54 53/53/53
f 56/56/56 55/55/55 53/53/53
f 59/59/59 58/58/58 57/57/57
f 60/60/60 59/59/59 57/57/57
f 63/63/63 62/62/62 61/61/61
f 64/64/64 63/63/63 61/61/61
f 67/67/67 66/66/66 65/65/65
f 68/68/68 67/67/67 65/65/65
f 71/71/71 70/70/70 69/69/69
f 72/72/72 71/71/71 69/69/69
f 75/75/75 74/74/74 73/73/73
f 76/76/76 75/75/75 73/73/73
f 79/79/79 78/78/78 77/77/77
f 80/80/80 79/79/79 77/77/77
f 83/83/83 82/82/82 81/81/81
f 82/82/82 84/84/84 81/81/81
f 82/82/82 85/85/85 84/84/84
f 85/85/85 86/86/86 84/84/84
f 86/86/86 85/85/85 87/87/87
f 88/88/88 86/86/86 87/87/87
f 91/91/91 90/90/90 89/89/89
f 89/89/89 90/90/90 92/92/92
f 93/93/93 89/89/89 92/92/92
f 94/94/94 93/93/93 92/92/92
f 97/97/97 96/96/96 95/95/95
f 96/96/96 98/98/98 95/95/95
f 98/98/98 99/99/99 95/95/95
f 100/100/100 99/99/99 98/98/98
