g MainCity_Prop_ManholeCover_08
v -0.108281404 -4.440892E-18 0.108278155
v -0.05860321 0.050286964 0.14147225
v -0.058603056 2.3841857E-09 0.14147225
v -0.10828163 0.050286964 0.10827815
v -0.14147544 -4.440892E-18 0.058599666
v -0.14147568 0.050286964 0.058599677
v -0.15313178 0 -3.0994414E-08
v -0.15313193 0.050286964 -5.364418E-08
v -0.14147544 2.3841857E-09 -0.058599778
v -0.14147568 0.050286964 -0.05859978
v -0.108281404 4.440892E-18 -0.108278215
v -0.10828163 0.050286964 -0.10827824
v -0.058603056 2.3841857E-09 -0.14147227
v -0.05860321 0.050286964 -0.14147231
v -3.2806395E-06 8.881784E-18 -0.15312849
v -3.4332274E-06 0.050286964 -0.15312853
v 0.058596417 2.3841857E-09 -0.14147235
v 0.058596265 0.050286964 -0.14147231
v 0.10827499 4.440892E-18 -0.108278215
v 0.10827484 0.050286964 -0.10827824
v 0.14146903 2.3841857E-09 -0.058599778
v 0.14146888 0.050286964 -0.058599778
v 0.15312515 0 -1.2397766E-07
v 0.15312508 0.050286964 -3.0994414E-08
v 0.14146903 -4.440892E-18 0.058599573
v 0.14146888 0.050286964 0.058599643
v 0.10827499 -4.440892E-18 0.108278066
v 0.10827484 0.050286964 0.10827814
v 0.058596417 2.3841857E-09 0.14147225
v 0.058596343 0.050286964 0.14147225
v -3.2806395E-06 -8.881784E-18 0.15312843
v -3.4332274E-06 0.050286964 0.15312847
v -0.058603056 2.3841857E-09 0.14147225
v -0.05860321 0.050286964 0.14147225
v -3.4332274E-06 0.050286964 0.15312847
v 0.10827484 0.050286964 0.10827814
v 0.058596343 0.050286964 0.14147225
v -0.05860321 0.050286964 0.14147225
v -0.10828163 0.050286964 0.10827815
v -0.14147568 0.050286964 0.058599677
v -0.15313193 0.050286964 -5.364418E-08
v -0.14147568 0.050286964 -0.05859978
v -0.10828163 0.050286964 -0.10827824
v -0.05860321 0.050286964 -0.14147231
v -3.4332274E-06 0.050286964 -0.15312853
v 0.058596265 0.050286964 -0.14147231
v 0.10827484 0.050286964 -0.10827824
v 0.14146888 0.050286964 -0.058599778
v 0.15312508 0.050286964 -3.0994414E-08
v 0.14146888 0.050286964 0.058599643
vt 0.3256836 0.1862793
vt 0.3466797 0.20373535
vt 0.3466797 0.1862793
vt 0.3256836 0.20373535
vt 0.30444336 0.1862793
vt 0.30444336 0.20373535
vt 0.28320312 0.1862793
vt 0.28320312 0.20373535
vt 0.2619629 0.1862793
vt 0.2619629 0.20373535
vt 0.24072266 0.1862793
vt 0.24072266 0.20373535
vt 0.21960449 0.1862793
vt 0.21960449 0.20373535
vt 0.19836426 0.1862793
vt 0.19836426 0.20373535
vt 0.17712402 0.1862793
vt 0.17712402 0.20373535
vt 0.15600586 0.1862793
vt 0.15600586 0.20373535
vt 0.13476562 0.1862793
vt 0.13476562 0.20373535
vt 0.113586426 0.1862793
vt 0.113586426 0.20373535
vt 0.09240723 0.1862793
vt 0.09240723 0.20373535
vt 0.07116699 0.1862793
vt 0.07116699 0.20373535
vt 0.049987793 0.1862793
vt 0.049987793 0.20373535
vt 0.028793335 0.1862793
vt 0.028793335 0.20373535
vt 0.007598877 0.1862793
vt 0.007598877 0.20373535
vt 0.2614746 0.63183594
vt 0.2998047 0.6479492
vt 0.28222656 0.63623047
vt 0.24060059 0.63623047
vt 0.22302246 0.6479492
vt 0.21118164 0.66552734
vt 0.20703125 0.68652344
vt 0.21118164 0.70703125
vt 0.22302246 0.7246094
vt 0.24060059 0.7363281
vt 0.2614746 0.74072266
vt 0.28222656 0.7363281
vt 0.2998047 0.7246094
vt 0.31152344 0.70703125
vt 0.31567383 0.68652344
vt 0.31152344 0.66552734
vn -0.70703125 -2.9802322E-06 0.70703125
vn -0.38256836 -1.5497208E-06 0.9238281
vn -0.38256836 -1.5497208E-06 0.9238281
vn -0.70703125 -2.9802322E-06 0.70703125
vn -0.9238281 -3.8146973E-06 0.38256836
vn -0.9238281 -3.8146973E-06 0.38256836
vn -1 -3.8146973E-06 0
vn -1 -3.8146973E-06 0
vn -0.9238281 -3.9339066E-06 -0.38256836
vn -0.9238281 -3.9339066E-06 -0.38256836
vn -0.70703125 -3.33786E-06 -0.70703125
vn -0.70703125 -3.33786E-06 -0.70703125
vn -0.38256836 -2.0861626E-06 -0.9238281
vn -0.38256836 -2.0861626E-06 -0.9238281
vn 1.1920929E-07 -3.5762787E-07 -1
vn -6.556511E-07 -3.5762787E-07 -1
vn 0.38256836 1.3113022E-06 -0.9238281
vn 0.38256836 1.3113022E-06 -0.9238281
vn 0.70703125 2.2053719E-06 -0.70703125
vn 0.70703125 2.2053719E-06 -0.70703125
vn 0.9238281 2.4437904E-06 -0.38256836
vn 0.9238281 2.4437904E-06 -0.38256836
vn 1 2.2053719E-06 -1.7881393E-07
vn 1 2.2053719E-06 2.3841858E-07
vn 0.9238281 1.847744E-06 0.38256836
vn 0.9238281 1.847744E-06 0.38256836
vn 0.70703125 1.1920929E-06 0.70703125
vn 0.70703125 1.1920929E-06 0.70703125
vn 0.38256836 3.5762787E-07 0.9238281
vn 0.38256836 3.5762787E-07 0.9238281
vn 4.172325E-07 -4.7683716E-07 1
vn -3.5762787E-07 -4.7683716E-07 1
vn -0.38256836 -1.5497208E-06 0.9238281
vn -0.38256836 -1.5497208E-06 0.9238281
vn -0 1 0
vn -0 1 0
vn -0 1 0
vn -0 1 0
vn -0 1 0
vn -0 1 0
vn -0 1 0
vn -0 1 0
vn -0 1 0
vn -0 1 0
vn -0 1 0
vn -0 1 0
vn -0 1 0
vn -0 1 0
vn -0 1 0
vn -0 1 0
g MainCity_Prop_ManholeCover_08_0
f 3/3/3 2/2/2 1/1/1
f 2/2/2 4/4/4 1/1/1
f 1/1/1 4/4/4 5/5/5
f 4/4/4 6/6/6 5/5/5
f 5/5/5 6/6/6 7/7/7
f 6/6/6 8/8/8 7/7/7
f 7/7/7 8/8/8 9/9/9
f 8/8/8 10/10/10 9/9/9
f 9/9/9 10/10/10 11/11/11
f 10/10/10 12/12/12 11/11/11
f 11/11/11 12/12/12 13/13/13
f 12/12/12 14/14/14 13/13/13
f 13/13/13 14/14/14 15/15/15
f 14/14/14 16/16/16 15/15/15
f 15/15/15 16/16/16 17/17/17
f 16/16/16 18/18/18 17/17/17
f 17/17/17 18/18/18 19/19/19
f 18/18/18 20/20/20 19/19/19
f 19/19/19 20/20/20 21/21/21
f 20/20/20 22/22/22 21/21/21
f 21/21/21 22/22/22 23/23/23
f 22/22/22 24/24/24 23/23/23
f 23/23/23 24/24/24 25/25/25
f 24/24/24 26/26/26 25/25/25
f 25/25/25 26/26/26 27/27/27
f 26/26/26 28/28/28 27/27/27
f 27/27/27 28/28/28 29/29/29
f 28/28/28 30/30/30 29/29/29
f 29/29/29 30/30/30 31/31/31
f 30/30/30 32/32/32 31/31/31
f 31/31/31 32/32/32 33/33/33
f 32/32/32 34/34/34 33/33/33
f 37/37/37 36/36/36 35/35/35
f 35/35/35 36/36/36 38/38/38
f 38/38/38 36/36/36 39/39/39
f 39/39/39 36/36/36 40/40/40
f 40/40/40 36/36/36 41/41/41
f 41/41/41 36/36/36 42/42/42
f 42/42/42 36/36/36 43/43/43
f 43/43/43 36/36/36 44/44/44
f 44/44/44 36/36/36 45/45/45
f 45/45/45 36/36/36 46/46/46
f 46/46/46 36/36/36 47/47/47
f 47/47/47 36/36/36 48/48/48
f 48/48/48 36/36/36 49/49/49
f 49/49/49 36/36/36 50/50/50
