g MainCity_Prop_Parking_04
v 0.23382507 1.6110247 0.018732287
v 0.23382507 0.41086477 0.018732123
v -0.23385192 0.41086477 0.018732123
v -0.23385192 1.6110247 0.018732287
v 0.23382507 0.41086477 0.018732123
v 0.23382568 0.41086477 -0.018731538
v -0.23385131 0.41086477 -0.018731505
v -0.23385192 0.41086477 0.018732123
v -0.23385192 1.6110247 0.018732287
v -0.23385131 1.6110247 -0.018731562
v 0.23382568 1.6110247 -0.018731596
v 0.23382507 1.6110247 0.018732287
v -0.23385131 1.6110247 -0.018731562
v -0.23385131 0.41086477 -0.018731505
v 0.23382568 0.41086477 -0.018731538
v 0.23382568 1.6110247 -0.018731596
v -0.23878725 1.6495757 -0.031461406
v -0.22574462 0.024120787 -8.816117E-08
v -0.22574462 1.6495757 -1.3278768E-08
v -0.23878725 0.024120864 -0.031461477
v -0.2702487 1.6495757 -0.0445041
v -0.2702487 0.024120864 -0.04450418
v -0.3017102 1.6495757 -0.031461406
v -0.3017102 0.024120864 -0.031461477
v -0.31474194 1.6495757 6.197151E-08
v -0.31474194 0.024120864 -1.2910604E-08
v -0.30171016 1.6495757 0.03146153
v -0.30171016 0.024120864 0.03146146
v -0.2702487 1.6495757 0.044493288
v -0.2702487 0.024120864 0.044493202
v -0.23878725 1.6495757 0.03146153
v -0.23878725 0.024120864 0.03146146
v -0.22574462 1.6495757 -1.3278768E-08
v -0.22574462 0.024120787 -8.816117E-08
v -0.22574462 1.6495757 -1.3278768E-08
v -0.2702487 1.6495757 -0.0445041
v -0.23878725 1.6495757 -0.031461406
v -0.3017102 1.6495757 -0.031461406
v -0.31474194 1.6495757 6.197151E-08
v -0.23878725 1.6495757 0.03146153
v -0.30171016 1.6495757 0.03146153
v -0.2702487 1.6495757 0.044493288
v 0.2388351 1.6495757 0.031099953
v 0.22580333 0.024120787 -0.0003616055
v 0.22580333 1.6495757 -0.00036151815
v 0.2388351 0.024120864 0.031099861
v 0.27029657 1.6495757 0.04413171
v 0.27029657 0.024120864 0.04413161
v 0.301758 1.6495757 0.03109995
v 0.301758 0.024120864 0.031099861
v 0.3147988 1.6495757 -0.00036239103
v 0.3147988 0.024120864 -0.00036247837
v 0.30175802 1.6495757 -0.031822987
v 0.30175802 0.024120864 -0.031823076
v 0.27029657 1.6495757 -0.04485476
v 0.27029657 0.024120864 -0.04485485
v 0.2388351 1.6495757 -0.031822987
v 0.2388351 0.024120864 -0.031823073
v 0.22580333 1.6495757 -0.00036151815
v 0.22580333 0.024120787 -0.0003616055
v 0.22580333 1.6495757 -0.00036151815
v 0.27029657 1.6495757 0.04413171
v 0.2388351 1.6495757 0.031099953
v 0.301758 1.6495757 0.03109995
v 0.3147988 1.6495757 -0.00036239103
v 0.2388351 1.6495757 -0.031822987
v 0.30175802 1.6495757 -0.031822987
v 0.27029657 1.6495757 -0.04485476
v -0.19777481 0.026737446 5.5590316E-08
v -0.21900192 0.026737452 -0.051246744
v -0.21900192 1.0728836E-08 -0.051246744
v -0.19777481 3.5762786E-09 5.6782408E-08
v -0.21900192 0.026737435 0.051246867
v -0.21900192 -4.7683715E-09 0.051246863
v -0.2702487 0.026737431 0.072473966
v -0.2702487 -1.0728836E-08 0.072473966
v -0.3214955 0.026737431 0.051246863
v -0.3214955 -1.0728836E-08 0.051246863
v -0.34272262 0.026737437 6.192618E-08
v -0.34272262 -3.5762786E-09 6.311828E-08
v -0.3214955 0.026737448 -0.051246736
v -0.3214955 4.7683715E-09 -0.051246736
v -0.2702487 0.026737452 -0.072473854
v -0.2702487 1.0728836E-08 -0.072473854
v -0.21900192 0.026737452 -0.051246744
v -0.21900192 1.0728836E-08 -0.051246744
v -0.21900192 0.026737435 0.051246867
v -0.2702487 0.026737431 0.072473966
v -0.3214955 0.026737431 0.051246863
v -0.34272262 0.026737437 6.192618E-08
v -0.19777481 0.026737446 5.5590316E-08
v -0.3214955 0.026737448 -0.051246736
v -0.21900192 0.026737452 -0.051246744
v -0.2702487 0.026737452 -0.072473854
v 0.19782272 0.026737442 -0.00036152202
v 0.2190498 0.026737442 0.050885275
v 0.2190498 -3.115824E-18 0.050885268
v 0.19782272 -1.1920929E-09 -0.00036152563
v 0.21904975 0.026737442 -0.051608328
v 0.21904975 -1.1920929E-09 -0.051608328
v 0.27029663 0.026737442 -0.07283546
v 0.27029663 4.4598857E-18 -0.07283546
v 0.3215434 0.026737442 -0.051608328
v 0.3215434 3.1600986E-18 -0.051608328
v 0.34277052 0.026737442 -0.00036153072
v 0.34277052 1.1920929E-09 -0.0003615296
v 0.3215434 0.026737442 0.050885275
v 0.3215434 1.1920929E-09 0.050885268
v 0.27029663 0.026737442 0.072112374
v 0.27029663 -4.4156092E-18 0.072112374
v 0.2190498 0.026737442 0.050885275
v 0.2190498 -3.115824E-18 0.050885268
v 0.21904975 0.026737442 -0.051608328
v 0.27029663 0.026737442 -0.07283546
v 0.3215434 0.026737442 -0.051608328
v 0.34277052 0.026737442 -0.00036153072
v 0.19782272 0.026737442 -0.00036152202
v 0.3215434 0.026737442 0.050885275
v 0.2190498 0.026737442 0.050885275
v 0.27029663 0.026737442 0.072112374
vt 0.1282959 0.6713867
vt 0.1282959 0.37109375
vt 0.011329651 0.37109375
vt 0.011329651 0.6713867
vt 0.12145996 0.34594727
vt 0.12145996 0.33642578
vt 0.0044288635 0.33642578
vt 0.0044288635 0.34594727
vt 0.0046691895 0.35302734
vt 0.0046691895 0.36254883
vt 0.12164307 0.36254883
vt 0.12164307 0.35302734
vt 0.1282959 0.6713867
vt 0.1282959 0.37109375
vt 0.011329651 0.37109375
vt 0.011329651 0.6713867
vt 0.41137695 0.74121094
vt 0.004840851 0.7495117
vt 0.41137695 0.7495117
vt 0.0048446655 0.74121094
vt 0.41137695 0.7324219
vt 0.004840851 0.7324219
vt 0.41137695 0.7236328
vt 0.0048446655 0.7236328
vt 0.41137695 0.71533203
vt 0.0048446655 0.71533203
vt 0.41137695 0.70654297
vt 0.0048446655 0.70654297
vt 0.41137695 0.6977539
vt 0.0048446655 0.6977539
vt 0.41137695 0.68896484
vt 0.0048446655 0.68896484
vt 0.41137695 0.68066406
vt 0.004840851 0.68066406
vt 0.93847656 0.47143555
vt 0.92285156 0.4716797
vt 0.93066406 0.47509766
vt 0.9199219 0.46435547
vt 0.92285156 0.45654297
vt 0.94140625 0.46362305
vt 0.93066406 0.45288086
vt 0.93847656 0.45581055
vt 1.4111328 0.74121094
vt 1.0048828 0.7495117
vt 1.4111328 0.7495117
vt 1.0048828 0.74121094
vt 1.4111328 0.7324219
vt 1.0048828 0.7324219
vt 1.4111328 0.7236328
vt 1.0048828 0.7236328
vt 1.4111328 0.71533203
vt 1.0048828 0.71533203
vt 1.4111328 0.70654297
vt 1.0048828 0.70654297
vt 1.4111328 0.6977539
vt 1.0048828 0.6977539
vt 1.4111328 0.68896484
vt 1.0048828 0.68896484
vt 1.4111328 0.68066406
vt 1.0048828 0.68066406
vt 1.9384766 0.47143555
vt 1.9228516 0.4716797
vt 1.9306641 0.47509766
vt 1.9199219 0.46435547
vt 1.9228516 0.45654297
vt 1.9414062 0.46362305
vt 1.9306641 0.45288086
vt 1.9384766 0.45581055
vt 0.10723877 0.3269043
vt 0.12176514 0.3269043
vt 0.12176514 0.32006836
vt 0.10723877 0.32006836
vt 0.09277344 0.3269043
vt 0.09277344 0.32006836
vt 0.07824707 0.3269043
vt 0.07824707 0.32006836
vt 0.06378174 0.3269043
vt 0.06378174 0.32006836
vt 0.04925537 0.3269043
vt 0.04925537 0.32006836
vt 0.03475952 0.3269043
vt 0.03475952 0.32006836
vt 0.020263672 0.3269043
vt 0.020263672 0.32006836
vt 0.005756378 0.3269043
vt 0.005756378 0.32006836
vt 0.23632812 0.29467773
vt 0.23364258 0.28076172
vt 0.22277832 0.27197266
vt 0.20898438 0.2746582
vt 0.22753906 0.30566406
vt 0.20007324 0.28564453
vt 0.21374512 0.3083496
vt 0.20275879 0.29956055
vt 0.10723877 0.3269043
vt 0.12176514 0.3269043
vt 0.12176514 0.32006836
vt 0.10723877 0.32006836
vt 0.09277344 0.3269043
vt 0.09277344 0.32006836
vt 0.07824707 0.3269043
vt 0.07824707 0.32006836
vt 0.06378174 0.3269043
vt 0.06378174 0.32006836
vt 0.04925537 0.3269043
vt 0.04925537 0.32006836
vt 0.03475952 0.3269043
vt 0.03475952 0.32006836
vt 0.020263672 0.3269043
vt 0.020263672 0.32006836
vt 0.005756378 0.3269043
vt 0.005756378 0.32006836
vt 0.23632812 0.29467773
vt 0.23364258 0.28076172
vt 0.22277832 0.27197266
vt 0.20898438 0.2746582
vt 0.22753906 0.30566406
vt 0.20007324 0.28564453
vt 0.21374512 0.3083496
vt 0.20275879 0.29956055
vn -0 -1.1920929E-07 1
vn -0 -1.1920929E-07 1
vn -0 -1.1920929E-07 1
vn -0 -1.1920929E-07 1
vn -0 -1 0
vn -0 -1 0
vn -0 -1 0
vn -0 -1 0
vn -0 1 0
vn -0 1 0
vn -0 1 0
vn -0 1 0
vn -0 0 -1
vn -0 0 -1
vn -0 0 -1
vn -0 0 -1
vn 0.70703125 0 -0.70703125
vn 1 0 -1.7881393E-07
vn 1 0 2.3841858E-07
vn 0.70703125 0 -0.70703125
vn 1.7881393E-07 0 -1
vn -1.7881393E-07 0 -1
vn -0.70703125 0 -0.70703125
vn -0.70703125 0 -0.70703125
vn -1 0 1.7881393E-07
vn -1 0 4.172325E-07
vn -0.70703125 0 0.70703125
vn -0.70703125 0 0.70703125
vn -1.1920929E-07 0 1
vn 1.1920929E-07 0 1
vn 0.70703125 0 0.70703125
vn 0.70703125 0 0.70703125
vn 1 0 2.3841858E-07
vn 1 0 -1.7881393E-07
vn -0 1 0
vn -0 1 0
vn -0 1 0
vn -0 1 0
vn -0 1 0
vn -0 1 0
vn -0 1 0
vn -0 1 0
vn -0.70703125 0 0.70703125
vn -1 0 1.1920929E-07
vn -1 0 -1.1920929E-07
vn -0.70703125 0 0.70703125
vn -0 0 1
vn 1.1920929E-07 0 1
vn 0.70703125 0 0.70703125
vn 0.70703125 0 0.70703125
vn 1 0 7.748604E-07
vn 1 0 6.556511E-07
vn 0.70703125 0 -0.70703125
vn 0.70703125 0 -0.70703125
vn 1.1920929E-07 0 -1
vn -1.7881393E-07 0 -1
vn -0.70703125 0 -0.70703125
vn -0.70703125 0 -0.70703125
vn -1 0 -1.1920929E-07
vn -1 0 1.1920929E-07
vn -0 1 0
vn -0 1 0
vn -0 1 0
vn -0 1 0
vn -0 1 0
vn -0 1 0
vn -0 1 0
vn -0 1 0
vn 1 0 0
vn 0.70703125 0 -0.70703125
vn 0.70703125 0 -0.70703125
vn 1 0 0
vn 0.70703125 -1.1920929E-07 0.70703125
vn 0.70703125 -1.1920929E-07 0.70703125
vn -0 0 1
vn -0 0 1
vn -0.70703125 0 0.70703125
vn -0.70703125 0 0.70703125
vn -1 0 0
vn -1 0 0
vn -0.70703125 0 -0.70703125
vn -0.70703125 0 -0.70703125
vn -0 0 -1
vn -0 0 -1
vn 0.70703125 0 -0.70703125
vn 0.70703125 0 -0.70703125
vn -0 1 1.7881393E-07
vn -0 1 0
vn -0 1 0
vn -0 1 1.7881393E-07
vn -0 1 1.7881393E-07
vn -0 1 1.7881393E-07
vn -0 1 0
vn -0 1 0
vn -1 0 4.172325E-07
vn -0.70703125 -1.7881393E-07 0.70703125
vn -0.70703125 -2.3841858E-07 0.70703125
vn -1 0 3.5762787E-07
vn -0.70703125 0 -0.70703125
vn -0.70703125 0 -0.70703125
vn -0 0 -1
vn -0 0 -1
vn 0.70703125 0 -0.70703125
vn 0.70703125 0 -0.70703125
vn 1 0 0
vn 1 0 0
vn 0.70703125 -2.3841858E-07 0.70703125
vn 0.70703125 -1.7881393E-07 0.70703125
vn -0 0 1
vn -0 0 1
vn -0.70703125 -1.7881393E-07 0.70703125
vn -0.70703125 -2.3841858E-07 0.70703125
vn -0 1 0
vn -0 1 0
vn -0 1 0
vn -0 1 0
vn -0 1 0
vn -0 1 0
vn -0 1 0
vn -0 1 0
g MainCity_Prop_Parking_04_0
f 3/3/3 2/2/2 1/1/1
f 4/4/4 3/3/3 1/1/1
f 7/7/7 6/6/6 5/5/5
f 8/8/8 7/7/7 5/5/5
f 11/11/11 10/10/10 9/9/9
f 12/12/12 11/11/11 9/9/9
f 15/15/15 14/14/14 13/13/13
f 16/16/16 15/15/15 13/13/13
f 19/19/19 18/18/18 17/17/17
f 18/18/18 20/20/20 17/17/17
f 17/17/17 20/20/20 21/21/21
f 20/20/20 22/22/22 21/21/21
f 21/21/21 22/22/22 23/23/23
f 22/22/22 24/24/24 23/23/23
f 23/23/23 24/24/24 25/25/25
f 24/24/24 26/26/26 25/25/25
f 25/25/25 26/26/26 27/27/27
f 26/26/26 28/28/28 27/27/27
f 27/27/27 28/28/28 29/29/29
f 28/28/28 30/30/30 29/29/29
f 29/29/29 30/30/30 31/31/31
f 30/30/30 32/32/32 31/31/31
f 31/31/31 32/32/32 33/33/33
f 32/32/32 34/34/34 33/33/33
f 37/37/37 36/36/36 35/35/35
f 36/36/36 38/38/38 35/35/35
f 35/35/35 38/38/38 39/39/39
f 40/40/40 35/35/35 39/39/39
f 40/40/40 39/39/39 41/41/41
f 42/42/42 40/40/40 41/41/41
f 45/45/45 44/44/44 43/43/43
f 44/44/44 46/46/46 43/43/43
f 43/43/43 46/46/46 47/47/47
f 46/46/46 48/48/48 47/47/47
f 47/47/47 48/48/48 49/49/49
f 48/48/48 50/50/50 49/49/49
f 49/49/49 50/50/50 51/51/51
f 50/50/50 52/52/52 51/51/51
f 51/51/51 52/52/52 53/53/53
f 52/52/52 54/54/54 53/53/53
f 53/53/53 54/54/54 55/55/55
f 54/54/54 56/56/56 55/55/55
f 55/55/55 56/56/56 57/57/57
f 56/56/56 58/58/58 57/57/57
f 57/57/57 58/58/58 59/59/59
f 58/58/58 60/60/60 59/59/59
f 63/63/63 62/62/62 61/61/61
f 62/62/62 64/64/64 61/61/61
f 61/61/61 64/64/64 65/65/65
f 66/66/66 61/61/61 65/65/65
f 66/66/66 65/65/65 67/67/67
f 68/68/68 66/66/66 67/67/67
f 71/71/71 70/70/70 69/69/69
f 72/72/72 71/71/71 69/69/69
f 72/72/72 69/69/69 73/73/73
f 74/74/74 72/72/72 73/73/73
f 74/74/74 73/73/73 75/75/75
f 76/76/76 74/74/74 75/75/75
f 76/76/76 75/75/75 77/77/77
f 78/78/78 76/76/76 77/77/77
f 78/78/78 77/77/77 79/79/79
f 80/80/80 78/78/78 79/79/79
f 80/80/80 79/79/79 81/81/81
f 82/82/82 80/80/80 81/81/81
f 82/82/82 81/81/81 83/83/83
f 84/84/84 82/82/82 83/83/83
f 84/84/84 83/83/83 85/85/85
f 86/86/86 84/84/84 85/85/85
f 89/89/89 88/88/88 87/87/87
f 90/90/90 89/89/89 87/87/87
f 90/90/90 87/87/87 91/91/91
f 92/92/92 90/90/90 91/91/91
f 92/92/92 91/91/91 93/93/93
f 94/94/94 92/92/92 93/93/93
f 97/97/97 96/96/96 95/95/95
f 98/98/98 97/97/97 95/95/95
f 98/98/98 95/95/95 99/99/99
f 100/100/100 98/98/98 99/99/99
f 100/100/100 99/99/99 101/101/101
f 102/102/102 100/100/100 101/101/101
f 102/102/102 101/101/101 103/103/103
f 104/104/104 102/102/102 103/103/103
f 104/104/104 103/103/103 105/105/105
f 106/106/106 104/104/104 105/105/105
f 106/106/106 105/105/105 107/107/107
f 108/108/108 106/106/106 107/107/107
f 108/108/108 107/107/107 109/109/109
f 110/110/110 108/108/108 109/109/109
f 110/110/110 109/109/109 111/111/111
f 112/112/112 110/110/110 111/111/111
f 115/115/115 114/114/114 113/113/113
f 116/116/116 115/115/115 113/113/113
f 116/116/116 113/113/113 117/117/117
f 118/118/118 116/116/116 117/117/117
f 118/118/118 117/117/117 119/119/119
f 120/120/120 118/118/118 119/119/119
