g MainCity_Wall_MonitorWall_01
v -0.36858702 0.61948735 0.25437135
v -0.36859068 0.61935246 -0.28213355
v 0.36859068 0.6196274 -0.28213364
v 0.36858642 0.6197623 0.25437135
v -0.36992612 -1.2207031E-06 -0.28213382
v 0.36992612 -1.5258789E-07 -0.28213382
v 0.36859068 0.6196274 -0.28213364
v -0.36859068 0.61935246 -0.28213355
v 0.36992612 -1.5258789E-07 -0.28213382
v 0.36992612 -1.5258789E-07 0.25436017
v 0.36858642 0.6197623 0.25437135
v 0.36859068 0.6196274 -0.28213364
v 0.36992612 -1.5258789E-07 0.25436017
v 0.36992612 -1.5258789E-07 -0.28213382
v -0.36992612 -1.2207031E-06 -0.28213382
v -0.36992612 -1.2207031E-06 0.25436017
v -0.36859068 0.61935246 -0.28213355
v -0.36858702 0.61948735 0.25437135
v -0.36992612 -1.2207031E-06 0.25436017
v -0.36992612 -1.2207031E-06 -0.28213382
v 0.30249327 0.34891883 0.21317029
v 0.30205625 0.4921003 0.21314713
v 0.3105124 0.4921003 0.23429833
v 0.29530242 0.5473069 0.21283743
v 0.31055266 0.5716389 0.23455837
v 0.2887381 0.55906594 0.21274437
v 0.30252045 0.57953894 0.23453838
v 0.2738449 0.5631388 0.21279939
v 0.3435443 0.5999793 0.25436038
v 6.1035155E-07 0.579192 0.23414233
v 6.1035155E-07 0.57101035 0.21338338
v -0.27384368 0.5631644 0.21279943
v 0.31058776 0.34891883 0.2342663
v -0.30252105 0.57953894 0.23453838
v -0.28879485 0.5591303 0.21274433
v -0.34371123 0.6001395 0.25436068
v 0.34309235 0.0989521 0.2543852
v 0.3105124 0.19964088 0.23430923
v 0.30215514 0.19964088 0.21316032
v 0.29539 0.14509392 0.21292429
v -0.31055358 0.5716389 0.23455837
v -0.29528168 0.5473069 0.21283735
v 0.31033996 0.12773277 0.23451221
v 0.29044005 0.13776268 0.21281429
v -0.3105133 0.4921003 0.23429833
v -0.30217895 0.4921003 0.21314718
v -0.30249298 0.34891883 0.21317029
v 0.30195892 0.11889289 0.23449622
v 0.2813571 0.1349836 0.21292621
v 6.1035155E-07 0.12741432 0.21323119
v -0.31058776 0.34891883 0.2342663
v -0.30196777 0.19964088 0.2131603
v -0.34309235 0.0989521 0.2543852
v -0.3019583 0.11889289 0.23449622
v -0.28135496 0.13482368 0.21292625
v -0.2906787 0.13770409 0.21277927
v -0.3105133 0.19964088 0.23430923
v -0.2954721 0.14519157 0.21292423
v -0.31033936 0.12773277 0.23451221
v -0.34309235 0.0989521 0.2543852
v -0.36992612 -1.2207031E-06 0.25436017
v -0.36858702 0.61948735 0.25437135
v 0.36992612 -1.5258789E-07 0.25436017
v -0.34371123 0.6001395 0.25436068
v 0.34309235 0.0989521 0.2543852
v 0.36858642 0.6197623 0.25437135
v 0.3435443 0.5999793 0.25436038
v 2.4414062E-06 0.57293755 0.21196796
v 2.4414062E-06 0.56264013 0.2442627
v -0.105169065 0.57039404 0.21196792
v 0.105189204 0.5703939 0.21196792
v -0.10517853 0.56008524 0.24166253
v -0.20519897 0.566831 0.21196789
v 0.10520385 0.56008506 0.2416615
v 0.20521942 0.56683064 0.21196789
v 2.4414062E-06 0.5523429 0.25577298
v -0.20507385 0.55652136 0.23697768
v -0.2741156 0.56358695 0.21196784
v 0.20509979 0.5565209 0.23697619
v 0.27412078 0.56358695 0.21196784
v 0.10523559 0.54939705 0.25150576
v -0.105214536 0.5493972 0.25150713
v -0.27256316 0.55334264 0.23231156
v -0.28908172 0.5594988 0.21196784
v 0.27256867 0.55334264 0.23231122
v 0.2890863 0.5594988 0.21196784
v 0.20491637 0.54548436 0.24405463
v 2.4414062E-06 0.49081916 0.2686802
v -0.20489532 0.54548484 0.24405654
v 0.10528503 0.49122444 0.2618167
v -0.10529236 0.49122444 0.2618157
v 2.4414062E-06 0.39880988 0.27591938
v -0.2822113 0.5507073 0.23156673
v -0.2740793 0.541986 0.23650518
v -0.28584412 0.54422474 0.23153119
v -0.2958023 0.54750586 0.21196784
v -0.20466277 0.491184 0.25068966
v -0.29250914 0.49153173 0.23296991
v -0.30279234 0.49224386 0.21196797
v -0.28222564 0.49081916 0.23833963
v -0.10534576 0.39886573 0.2676699
v -0.29367155 0.39895698 0.23440239
v -0.3039636 0.3989657 0.21196792
v -0.28337952 0.3989463 0.24049257
v -0.20448089 0.39891547 0.25482595
v -0.2936975 0.29887718 0.23435043
v -0.30398986 0.29887322 0.21196789
v -0.28340575 0.2988833 0.24041519
v -0.20448487 0.29892159 0.25470692
v -0.10534485 0.2989771 0.267502
v 2.4414062E-06 0.29903525 0.27570888
v -0.29250976 0.20018546 0.23272069
v -0.30279356 0.19949241 0.2119677
v -0.28222594 0.20087868 0.23796675
v -0.2046878 0.20050147 0.25005993
v -0.105285645 0.20045966 0.26092473
v -0.28615326 0.14858268 0.23121756
v -0.2960681 0.14489082 0.21196774
v -0.27739653 0.15390144 0.23584734
v -0.28440735 0.14597633 0.23125614
v -0.2909674 0.13727912 0.21196769
v -0.2816345 0.13426827 0.21196774
v -0.27986908 0.1445124 0.23160057
v -0.20524414 0.13123192 0.21196774
v -0.20511383 0.14154014 0.23686561
v -0.1051944 0.12821373 0.21196777
v -0.20493439 0.15125588 0.24381286
v -0.10520324 0.13852134 0.24163052
v 2.4414062E-06 0.12604804 0.21196781
v -0.105218805 0.14853813 0.25136995
v 2.4414062E-06 0.13634361 0.24426231
v 2.4414062E-06 0.14663933 0.25577214
v 0.10520385 0.13852134 0.24163057
v 0.10518859 0.12821373 0.21196777
v 2.4414062E-06 0.20087852 0.26756904
v 0.10522827 0.14853798 0.25136933
v 0.20511444 0.14153999 0.23686561
v 0.20523864 0.1312316 0.21196774
v 0.10527832 0.20045951 0.26092568
v 0.10533325 0.2989771 0.26750374
v 0.20494384 0.15125526 0.24381196
v 0.2798752 0.1445124 0.23160015
v 0.28164032 0.13426827 0.21196777
v 0.20467986 0.20050117 0.25006106
v 0.27740142 0.15390068 0.2358468
v 0.28441224 0.14597602 0.2312558
v 0.2909735 0.13727912 0.21196769
v 0.29607207 0.14489082 0.21196774
v 0.28615782 0.14858177 0.23121722
v 0.30279753 0.19949241 0.2119677
v 0.29251432 0.20018531 0.23272039
v 0.3039923 0.29887322 0.21196789
v 0.28223023 0.20087837 0.23796627
v 0.29370025 0.29887718 0.23435034
v 0.30396545 0.3989657 0.21196792
v 0.2834079 0.2988833 0.24041502
v 0.2936737 0.39895698 0.23440233
v 0.3027945 0.49224386 0.21196797
v 0.20447357 0.29892173 0.254709
v 0.29251158 0.49153173 0.23296978
v 0.29580748 0.54750586 0.21196784
v 0.28338164 0.3989463 0.24049248
v 0.2044696 0.39891532 0.25482804
v 0.285849 0.54422474 0.23153087
v 0.28222838 0.49081945 0.2383394
v 0.10533447 0.39886558 0.2676716
v 0.20465514 0.49118415 0.25069088
v 0.27408385 0.54198587 0.23650472
v 0.28221586 0.5507073 0.23156643
vt 0.8535156 0.8666992
vt 0.8535156 0.578125
vt 0.42333984 0.578125
vt 0.42333984 0.8666992
vt 0.13098145 0.33154297
vt 0.13098145 0.7895508
vt 0.4025879 0.7895508
vt 0.4025879 0.33154297
vt 0.85546875 0.5517578
vt 0.85546875 0.25341797
vt 0.42285156 0.25341797
vt 0.42285156 0.5517578
vt 0.42333984 0.578125
vt 0.42333984 0.8666992
vt 0.8535156 0.8666992
vt 0.8535156 0.578125
vt 0.42285156 0.5517578
vt 0.42285156 0.25341797
vt 0.85546875 0.25341797
vt 0.85546875 0.5517578
vt 0.8901367 0.5595703
vt 0.88916016 0.77783203
vt 0.91552734 0.78515625
vt 0.88183594 0.86083984
vt 0.9116211 0.91064453
vt 0.87353516 0.8774414
vt 0.9003906 0.92285156
vt 0.85498047 0.8833008
vt 0.9614258 0.96533203
vt 0.49804688 0.92529297
vt 0.49829102 0.8955078
vt 0.14123535 0.8823242
vt 0.91552734 0.5600586
vt 0.09588623 0.921875
vt 0.122680664 0.87597656
vt 0.03466797 0.96484375
vt 0.95947266 0.15759277
vt 0.9140625 0.32592773
vt 0.88623047 0.33203125
vt 0.88427734 0.25146484
vt 0.08477783 0.90966797
vt 0.114746094 0.8598633
vt 0.9121094 0.21252441
vt 0.87890625 0.24133301
vt 0.08074951 0.78515625
vt 0.10687256 0.77734375
vt 0.10583496 0.56103516
vt 0.9013672 0.19885254
vt 0.8676758 0.23730469
vt 0.49853516 0.23266602
vt 0.08050537 0.56152344
vt 0.109191895 0.33569336
vt 0.036590576 0.16137695
vt 0.09503174 0.20214844
vt 0.12878418 0.24047852
vt 0.117126465 0.2446289
vt 0.08190918 0.32910156
vt 0.11206055 0.25463867
vt 0.08404541 0.21594238
vt 0.036590576 0.16137695
vt 0.0017995834 0.0047569275
vt 0.0017995834 0.9946289
vt 0.9941406 0.0047569275
vt 0.03466797 0.96484375
vt 0.95947266 0.15759277
vt 0.9941406 0.99560547
vt 0.9614258 0.96533203
vt 0.49902344 0.9941406
vt 0.49926758 0.92822266
vt 0.3334961 0.98339844
vt 0.6645508 0.984375
vt 0.33642578 0.921875
vt 0.17687988 0.9628906
vt 0.6621094 0.92285156
vt 0.82128906 0.96484375
vt 0.49926758 0.8984375
vt 0.18200684 0.91015625
vt 0.068115234 0.9399414
vt 0.81640625 0.9116211
vt 0.9301758 0.9423828
vt 0.6611328 0.89404297
vt 0.3371582 0.8930664
vt 0.07824707 0.89746094
vt 0.042022705 0.9243164
vt 0.9199219 0.89990234
vt 0.9560547 0.9267578
vt 0.8149414 0.8857422
vt 0.49951172 0.7758789
vt 0.18347168 0.88427734
vt 0.6611328 0.7783203
vt 0.33789062 0.77734375
vt 0.5 0.5957031
vt 0.064331055 0.89160156
vt 0.07733154 0.8745117
vt 0.05883789 0.8803711
vt 0.027679443 0.8959961
vt 0.18457031 0.77685547
vt 0.045288086 0.77783203
vt 0.009292603 0.7832031
vt 0.06359863 0.7758789
vt 0.3383789 0.5961914
vt 0.044677734 0.5957031
vt 0.00699234 0.5966797
vt 0.062408447 0.5957031
vt 0.18530273 0.5957031
vt 0.04373169 0.39868164
vt 0.0057525635 0.39770508
vt 0.062194824 0.39892578
vt 0.18554688 0.3996582
vt 0.33862305 0.40039062
vt 0.5004883 0.4013672
vt 0.047698975 0.20471191
vt 0.0124053955 0.19909668
vt 0.06524658 0.20690918
vt 0.18579102 0.20654297
vt 0.3388672 0.20678711
vt 0.060302734 0.10443115
vt 0.029830933 0.08782959
vt 0.073791504 0.11608887
vt 0.06262207 0.10040283
vt 0.040740967 0.0680542
vt 0.058624268 0.056610107
vt 0.06878662 0.09753418
vt 0.17883301 0.032836914
vt 0.18371582 0.085510254
vt 0.33544922 0.014076233
vt 0.1850586 0.10900879
vt 0.33813477 0.075683594
vt 0.50097656 0.0049476624
vt 0.33862305 0.103149414
vt 0.50097656 0.07116699
vt 0.50097656 0.10083008
vt 0.6635742 0.07659912
vt 0.6665039 0.014984131
vt 0.5004883 0.20898438
vt 0.66259766 0.10406494
vt 0.8178711 0.08721924
vt 0.8227539 0.034576416
vt 0.6621094 0.20776367
vt 0.6621094 0.4013672
vt 0.81640625 0.11071777
vt 0.9326172 0.099853516
vt 0.9428711 0.05899048
vt 0.8154297 0.20825195
vt 0.9277344 0.1184082
vt 0.93896484 0.1027832
vt 0.9609375 0.070495605
vt 0.9716797 0.09039307
vt 0.94091797 0.10681152
vt 0.98876953 0.20166016
vt 0.9536133 0.20715332
vt 0.9946289 0.40014648
vt 0.93603516 0.20935059
vt 0.95654297 0.40112305
vt 0.9951172 0.5996094
vt 0.93847656 0.4013672
vt 0.95703125 0.5986328
vt 0.98828125 0.7861328
vt 0.8149414 0.4013672
vt 0.9526367 0.78027344
vt 0.9707031 0.8989258
vt 0.93847656 0.59814453
vt 0.8149414 0.59765625
vt 0.9394531 0.8828125
vt 0.9350586 0.7783203
vt 0.6616211 0.5966797
vt 0.8144531 0.7783203
vt 0.92089844 0.8769531
vt 0.93408203 0.89404297
vn -0.00037288666 1 -0.0002515316
vn -0.00037288666 1 -0.0002515316
vn -0.00037288666 1 -0.0002515316
vn -0.00037288666 1 -0.0002515316
vn -0 3.5762787E-07 -1
vn -0 3.5762787E-07 -1
vn -0 3.5762787E-07 -1
vn -0 3.5762787E-07 -1
vn 1 0.0021591187 3.695488E-06
vn 1 0.0021591187 3.695488E-06
vn 1 0.0021591187 3.695488E-06
vn 1 0.0021591187 3.695488E-06
vn 1.4305115E-06 -1 0
vn 1.4305115E-06 -1 0
vn 1.4305115E-06 -1 0
vn 1.4305115E-06 -1 0
vn -1 0.0021591187 3.1590462E-06
vn -1 0.0021591187 3.1590462E-06
vn -1 0.0021591187 3.1590462E-06
vn -1 0.0021591187 3.1590462E-06
vn -0.9316406 -0.00017344952 0.36376953
vn -0.89990234 -0.02267456 0.43579102
vn -0.7392578 -0.012016296 0.67333984
vn -0.7836914 -0.14038086 0.60498047
vn -0.5175781 -0.21044922 0.82958984
vn -0.38452148 -0.5131836 0.7675781
vn -0.18359375 -0.61035156 0.7705078
vn -0.05923462 -0.8144531 0.5776367
vn -0.33862305 -0.30297852 0.890625
vn -8.606911E-05 -0.7866211 0.6176758
vn -1.770258E-05 -0.8623047 0.5058594
vn 0.058563232 -0.8149414 0.57666016
vn -0.76708984 0.00015473366 0.64160156
vn 0.18347168 -0.609375 0.7714844
vn 0.3857422 -0.5131836 0.76708984
vn 0.3371582 -0.3017578 0.89160156
vn -0.3425293 0.3059082 0.8881836
vn -0.74316406 0.01322937 0.6689453
vn -0.90234375 0.024871826 0.43017578
vn -0.7783203 0.18786621 0.5991211
vn 0.51708984 -0.21020508 0.82958984
vn 0.78515625 -0.13952637 0.6035156
vn -0.5449219 0.20910645 0.8120117
vn -0.4033203 0.55566406 0.7270508
vn 0.7392578 -0.012161255 0.67333984
vn 0.9003906 -0.022964478 0.43408203
vn 0.93115234 0.0003168583 0.36450195
vn -0.19262695 0.6152344 0.76416016
vn -0.081726074 0.7597656 0.64501953
vn -1.2636185E-05 0.9223633 0.38623047
vn 0.76660156 0.0004954338 0.64208984
vn 0.9013672 0.024215698 0.4326172
vn 0.34228516 0.3059082 0.8881836
vn 0.19311523 0.6166992 0.7631836
vn 0.08166504 0.7626953 0.64160156
vn 0.41210938 0.55126953 0.72558594
vn 0.7426758 0.012893677 0.6699219
vn 0.78271484 0.17883301 0.5961914
vn 0.54589844 0.20910645 0.81152344
vn -0.00018131733 -9.125471E-05 1
vn -4.976988E-05 -0.00020873547 1
vn -0.00017213821 -0.00022494793 1
vn 4.863739E-05 -0.00020861626 1
vn -0.00014054775 -0.00028467178 1
vn 0.00017738342 -9.101629E-05 1
vn 0.00016725063 -0.00022733212 1
vn 0.00013828278 -0.0002834797 1
vn 7.1525574E-07 0.9526367 0.30371094
vn 1.7881393E-06 0.90283203 0.43041992
vn -0.031402588 0.9453125 0.3251953
vn 0.031402588 0.9453125 0.3251953
vn -0.04071045 0.8808594 0.4716797
vn -0.045654297 0.92626953 0.37402344
vn 0.04071045 0.8808594 0.4716797
vn 0.045654297 0.92626953 0.37402344
vn 6.198883E-06 0.32055664 0.9472656
vn -0.06298828 0.82958984 0.5546875
vn -0.095458984 0.89453125 0.43725586
vn 0.06304932 0.82958984 0.5546875
vn 0.095458984 0.89453125 0.43725586
vn 0.06695557 0.28222656 0.95703125
vn -0.06695557 0.28222656 0.95703125
vn -0.11206055 0.75 0.65185547
vn -0.5175781 0.70214844 0.48876953
vn 0.11206055 0.75 0.65185547
vn 0.5175781 0.70214844 0.48876953
vn 0.10290527 0.2097168 0.97216797
vn -1.847744E-06 0.12512207 0.9921875
vn -0.10290527 0.2097168 0.97216797
vn 0.08520508 0.10534668 0.99072266
vn -0.08520508 0.10534668 0.99072266
vn -7.212162E-06 0.033203125 0.9995117
vn -0.45898438 0.6176758 0.6381836
vn -0.16772461 0.123291016 0.97802734
vn -0.74560547 0.15673828 0.6479492
vn -0.86621094 0.18481445 0.46435547
vn -0.1303711 0.07116699 0.98876953
vn -0.79052734 0.053588867 0.6098633
vn -0.89746094 0.052703857 0.43798828
vn -0.20507812 0.044433594 0.97753906
vn -0.1003418 0.027328491 0.9946289
vn -0.8100586 0.0073013306 0.5864258
vn -0.9086914 0.0055236816 0.4169922
vn -0.22302246 0.011375427 0.9746094
vn -0.14868164 0.01826477 0.98876953
vn -0.8100586 -0.010726929 0.5864258
vn -0.90771484 -0.00819397 0.41967773
vn -0.21838379 -0.018447876 0.97558594
vn -0.14758301 -0.026260376 0.98876953
vn -0.10015869 -0.035705566 0.9941406
vn -8.165836E-06 -0.041931152 0.99902344
vn -0.7910156 -0.048828125 0.609375
vn -0.8930664 -0.04788208 0.44726562
vn -0.18933105 -0.044036865 0.98095703
vn -0.12768555 -0.07305908 0.9892578
vn -0.085510254 -0.105285645 0.99072266
vn -0.7944336 -0.12646484 0.59375
vn -0.8647461 -0.16125488 0.47607422
vn -0.15039062 -0.122802734 0.98095703
vn -0.46264648 -0.6533203 0.5991211
vn -0.5161133 -0.7011719 0.49169922
vn -0.060302734 -0.8823242 0.46655273
vn -0.06738281 -0.79833984 0.59814453
vn -0.040924072 -0.92089844 0.38793945
vn -0.056518555 -0.8491211 0.5253906
vn -0.03012085 -0.9428711 0.33203125
vn -0.10180664 -0.21081543 0.97216797
vn -0.039001465 -0.8886719 0.45703125
vn -0 -0.9511719 0.30810547
vn -0.068725586 -0.29248047 0.9536133
vn 3.5762787E-07 -0.9038086 0.42749023
vn -1.847744E-06 -0.3334961 0.9428711
vn 0.039001465 -0.8886719 0.45703125
vn 0.03012085 -0.9428711 0.33203125
vn -6.020069E-06 -0.12426758 0.9921875
vn 0.068725586 -0.29248047 0.9536133
vn 0.056518555 -0.8491211 0.5253906
vn 0.040924072 -0.92089844 0.38793945
vn 0.085510254 -0.105285645 0.99072266
vn 0.100097656 -0.035705566 0.9941406
vn 0.10180664 -0.21081543 0.97216797
vn 0.06738281 -0.79833984 0.59814453
vn 0.060302734 -0.8823242 0.46655273
vn 0.12768555 -0.07305908 0.9892578
vn 0.15039062 -0.122802734 0.98095703
vn 0.46289062 -0.6533203 0.5991211
vn 0.5161133 -0.7011719 0.49169922
vn 0.8647461 -0.16113281 0.47607422
vn 0.7944336 -0.12646484 0.59375
vn 0.8930664 -0.04788208 0.44726562
vn 0.7910156 -0.048797607 0.609375
vn 0.90771484 -0.00818634 0.41967773
vn 0.18933105 -0.044036865 0.98095703
vn 0.8100586 -0.010719299 0.5864258
vn 0.9086914 0.0055274963 0.4169922
vn 0.21826172 -0.018447876 0.97558594
vn 0.8100586 0.0073013306 0.5864258
vn 0.89746094 0.052703857 0.43798828
vn 0.14758301 -0.026260376 0.98876953
vn 0.79052734 0.053588867 0.6098633
vn 0.86621094 0.18481445 0.46435547
vn 0.22302246 0.011375427 0.9746094
vn 0.14868164 0.01826477 0.98876953
vn 0.74560547 0.15673828 0.6479492
vn 0.20507812 0.044433594 0.97753906
vn 0.1003418 0.027328491 0.9946289
vn 0.1303711 0.07116699 0.98876953
vn 0.16784668 0.123291016 0.97802734
vn 0.45898438 0.6176758 0.6381836
g MainCity_Wall_MonitorWall_01_0
f 3/3/3 2/2/2 1/1/1
f 4/4/4 3/3/3 1/1/1
f 7/7/7 6/6/6 5/5/5
f 8/8/8 7/7/7 5/5/5
f 11/11/11 10/10/10 9/9/9
f 12/12/12 11/11/11 9/9/9
f 15/15/15 14/14/14 13/13/13
f 16/16/16 15/15/15 13/13/13
f 19/19/19 18/18/18 17/17/17
f 20/20/20 19/19/19 17/17/17
f 23/23/23 22/22/22 21/21/21
f 24/24/24 22/22/22 23/23/23
f 25/25/25 24/24/24 23/23/23
f 25/25/25 26/26/26 24/24/24
f 25/25/25 27/27/27 26/26/26
f 26/26/26 27/27/27 28/28/28
f 25/25/25 23/23/23 29/29/29
f 29/29/29 27/27/27 25/25/25
f 28/28/28 27/27/27 30/30/30
f 30/30/30 27/27/27 29/29/29
f 31/31/31 28/28/28 30/30/30
f 31/31/31 30/30/30 32/32/32
f 33/33/33 23/23/23 21/21/21
f 23/23/23 33/33/33 29/29/29
f 30/30/30 34/34/34 32/32/32
f 34/34/34 35/35/35 32/32/32
f 30/30/30 29/29/29 36/36/36
f 30/30/30 36/36/36 34/34/34
f 37/37/37 29/29/29 33/33/33
f 33/33/33 21/21/21 38/38/38
f 37/37/37 33/33/33 38/38/38
f 21/21/21 39/39/39 38/38/38
f 39/39/39 40/40/40 38/38/38
f 35/35/35 34/34/34 41/41/41
f 41/41/41 34/34/34 36/36/36
f 35/35/35 41/41/41 42/42/42
f 40/40/40 43/43/43 38/38/38
f 43/43/43 37/37/37 38/38/38
f 43/43/43 40/40/40 44/44/44
f 42/42/42 41/41/41 45/45/45
f 41/41/41 36/36/36 45/45/45
f 46/46/46 42/42/42 45/45/45
f 46/46/46 45/45/45 47/47/47
f 48/48/48 43/43/43 44/44/44
f 37/37/37 43/43/43 48/48/48
f 49/49/49 48/48/48 44/44/44
f 50/50/50 48/48/48 49/49/49
f 36/36/36 51/51/51 45/45/45
f 45/45/45 51/51/51 47/47/47
f 52/52/52 47/47/47 51/51/51
f 53/53/53 51/51/51 36/36/36
f 48/48/48 54/54/54 37/37/37
f 48/48/48 50/50/50 54/54/54
f 54/54/54 53/53/53 37/37/37
f 50/50/50 55/55/55 54/54/54
f 55/55/55 56/56/56 54/54/54
f 57/57/57 52/52/52 51/51/51
f 53/53/53 57/57/57 51/51/51
f 52/52/52 57/57/57 58/58/58
f 56/56/56 59/59/59 54/54/54
f 54/54/54 59/59/59 53/53/53
f 56/56/56 58/58/58 59/59/59
f 57/57/57 59/59/59 58/58/58
f 59/59/59 57/57/57 53/53/53
f 62/62/62 61/61/61 60/60/60
f 60/60/60 61/61/61 63/63/63
f 64/64/64 62/62/62 60/60/60
f 65/65/65 60/60/60 63/63/63
f 66/66/66 62/62/62 64/64/64
f 63/63/63 66/66/66 65/65/65
f 67/67/67 66/66/66 64/64/64
f 66/66/66 67/67/67 65/65/65
f 70/70/70 69/69/69 68/68/68
f 68/68/68 69/69/69 71/71/71
f 72/72/72 69/69/69 70/70/70
f 73/73/73 72/72/72 70/70/70
f 69/69/69 74/74/74 71/71/71
f 71/71/71 74/74/74 75/75/75
f 72/72/72 76/76/76 69/69/69
f 69/69/69 76/76/76 74/74/74
f 77/77/77 72/72/72 73/73/73
f 78/78/78 77/77/77 73/73/73
f 74/74/74 79/79/79 75/75/75
f 75/75/75 79/79/79 80/80/80
f 76/76/76 81/81/81 74/74/74
f 74/74/74 81/81/81 79/79/79
f 82/82/82 76/76/76 72/72/72
f 77/77/77 82/82/82 72/72/72
f 83/83/83 77/77/77 78/78/78
f 84/84/84 83/83/83 78/78/78
f 79/79/79 85/85/85 80/80/80
f 80/80/80 85/85/85 86/86/86
f 81/81/81 87/87/87 79/79/79
f 79/79/79 87/87/87 85/85/85
f 76/76/76 88/88/88 81/81/81
f 76/76/76 82/82/82 88/88/88
f 89/89/89 82/82/82 77/77/77
f 83/83/83 89/89/89 77/77/77
f 81/81/81 90/90/90 87/87/87
f 88/88/88 90/90/90 81/81/81
f 88/88/88 82/82/82 91/91/91
f 82/82/82 89/89/89 91/91/91
f 92/92/92 90/90/90 88/88/88
f 88/88/88 91/91/91 92/92/92
f 93/93/93 83/83/83 84/84/84
f 94/94/94 89/89/89 83/83/83
f 93/93/93 94/94/94 83/83/83
f 95/95/95 93/93/93 84/84/84
f 95/95/95 94/94/94 93/93/93
f 96/96/96 95/95/95 84/84/84
f 91/91/91 89/89/89 97/97/97
f 89/89/89 94/94/94 97/97/97
f 98/98/98 95/95/95 96/96/96
f 99/99/99 98/98/98 96/96/96
f 100/100/100 94/94/94 95/95/95
f 97/97/97 94/94/94 100/100/100
f 98/98/98 100/100/100 95/95/95
f 91/91/91 97/97/97 101/101/101
f 92/92/92 91/91/91 101/101/101
f 102/102/102 98/98/98 99/99/99
f 103/103/103 102/102/102 99/99/99
f 104/104/104 100/100/100 98/98/98
f 102/102/102 104/104/104 98/98/98
f 105/105/105 97/97/97 100/100/100
f 101/101/101 97/97/97 105/105/105
f 104/104/104 105/105/105 100/100/100
f 106/106/106 102/102/102 103/103/103
f 107/107/107 106/106/106 103/103/103
f 108/108/108 104/104/104 102/102/102
f 106/106/106 108/108/108 102/102/102
f 109/109/109 105/105/105 104/104/104
f 108/108/108 109/109/109 104/104/104
f 101/101/101 105/105/105 110/110/110
f 105/105/105 109/109/109 110/110/110
f 111/111/111 92/92/92 101/101/101
f 110/110/110 111/111/111 101/101/101
f 112/112/112 106/106/106 107/107/107
f 113/113/113 112/112/112 107/107/107
f 114/114/114 108/108/108 106/106/106
f 112/112/112 114/114/114 106/106/106
f 115/115/115 109/109/109 108/108/108
f 114/114/114 115/115/115 108/108/108
f 110/110/110 109/109/109 116/116/116
f 116/116/116 109/109/109 115/115/115
f 117/117/117 112/112/112 113/113/113
f 118/118/118 117/117/117 113/113/113
f 119/119/119 114/114/114 112/112/112
f 117/117/117 119/119/119 112/112/112
f 120/120/120 117/117/117 118/118/118
f 120/120/120 119/119/119 117/117/117
f 121/121/121 120/120/120 118/118/118
f 122/122/122 120/120/120 121/121/121
f 123/123/123 120/120/120 122/122/122
f 123/123/123 119/119/119 120/120/120
f 124/124/124 123/123/123 122/122/122
f 125/125/125 123/123/123 124/124/124
f 125/125/125 119/119/119 123/123/123
f 126/126/126 125/125/125 124/124/124
f 119/119/119 127/127/127 114/114/114
f 127/127/127 119/119/119 125/125/125
f 127/127/127 115/115/115 114/114/114
f 128/128/128 125/125/125 126/126/126
f 128/128/128 127/127/127 125/125/125
f 129/129/129 128/128/128 126/126/126
f 130/130/130 115/115/115 127/127/127
f 130/130/130 127/127/127 128/128/128
f 116/116/116 115/115/115 130/130/130
f 131/131/131 128/128/128 129/129/129
f 131/131/131 130/130/130 128/128/128
f 132/132/132 116/116/116 130/130/130
f 132/132/132 130/130/130 131/131/131
f 133/133/133 131/131/131 129/129/129
f 134/134/134 133/133/133 129/129/129
f 135/135/135 116/116/116 132/132/132
f 135/135/135 110/110/110 116/116/116
f 111/111/111 110/110/110 135/135/135
f 136/136/136 132/132/132 131/131/131
f 133/133/133 136/136/136 131/131/131
f 137/137/137 133/133/133 134/134/134
f 138/138/138 137/137/137 134/134/134
f 132/132/132 139/139/139 135/135/135
f 136/136/136 139/139/139 132/132/132
f 135/135/135 140/140/140 111/111/111
f 139/139/139 140/140/140 135/135/135
f 141/141/141 136/136/136 133/133/133
f 137/137/137 141/141/141 133/133/133
f 142/142/142 137/137/137 138/138/138
f 143/143/143 142/142/142 138/138/138
f 144/144/144 139/139/139 136/136/136
f 141/141/141 144/144/144 136/136/136
f 145/145/145 141/141/141 137/137/137
f 142/142/142 145/145/145 137/137/137
f 146/146/146 142/142/142 143/143/143
f 146/146/146 145/145/145 142/142/142
f 147/147/147 146/146/146 143/143/143
f 148/148/148 146/146/146 147/147/147
f 149/149/149 146/146/146 148/148/148
f 149/149/149 145/145/145 146/146/146
f 150/150/150 149/149/149 148/148/148
f 151/151/151 149/149/149 150/150/150
f 151/151/151 145/145/145 149/149/149
f 152/152/152 151/151/151 150/150/150
f 145/145/145 153/153/153 141/141/141
f 153/153/153 145/145/145 151/151/151
f 153/153/153 144/144/144 141/141/141
f 154/154/154 151/151/151 152/152/152
f 154/154/154 153/153/153 151/151/151
f 155/155/155 154/154/154 152/152/152
f 153/153/153 156/156/156 144/144/144
f 156/156/156 153/153/153 154/154/154
f 157/157/157 154/154/154 155/155/155
f 157/157/157 156/156/156 154/154/154
f 158/158/158 157/157/157 155/155/155
f 156/156/156 159/159/159 144/144/144
f 144/144/144 159/159/159 139/139/139
f 159/159/159 140/140/140 139/139/139
f 160/160/160 157/157/157 158/158/158
f 161/161/161 160/160/160 158/158/158
f 162/162/162 156/156/156 157/157/157
f 156/156/156 162/162/162 159/159/159
f 160/160/160 162/162/162 157/157/157
f 159/159/159 163/163/163 140/140/140
f 159/159/159 162/162/162 163/163/163
f 164/164/164 160/160/160 161/161/161
f 86/86/86 164/164/164 161/161/161
f 165/165/165 162/162/162 160/160/160
f 162/162/162 165/165/165 163/163/163
f 164/164/164 165/165/165 160/160/160
f 140/140/140 163/163/163 166/166/166
f 140/140/140 166/166/166 111/111/111
f 111/111/111 166/166/166 92/92/92
f 166/166/166 90/90/90 92/92/92
f 163/163/163 167/167/167 166/166/166
f 167/167/167 90/90/90 166/166/166
f 165/165/165 167/167/167 163/163/163
f 90/90/90 167/167/167 87/87/87
f 168/168/168 167/167/167 165/165/165
f 87/87/87 167/167/167 168/168/168
f 168/168/168 165/165/165 164/164/164
f 87/87/87 168/168/168 85/85/85
f 85/85/85 169/169/169 86/86/86
f 169/169/169 164/164/164 86/86/86
f 169/169/169 168/168/168 164/164/164
f 85/85/85 168/168/168 169/169/169
