g MainCity_Prop_ShowCase_07
v 0.020939836 0.6255062 -0.0062690526
v 0.00016499519 0.65375465 -0.014874284
v 0.00016499519 0.6255062 -0.014874286
v 0.020939836 0.65375465 -0.0062690503
v 0.029545106 0.6255062 0.014505817
v 0.029545106 0.65375465 0.014505818
v 0.020939836 0.6255062 0.03528069
v 0.020939836 0.65375465 0.03528069
v 0.00016499519 0.6255062 0.04388592
v 0.00016499519 0.65375465 0.04388592
v -0.020609846 0.6255062 0.035280686
v -0.020609846 0.65375465 0.03528069
v -0.029215116 0.6255062 0.014505817
v -0.029215116 0.65375465 0.014505818
v -0.020609846 0.6255062 -0.0062690526
v -0.020609846 0.65375465 -0.0062690503
v 0.00016499519 0.6255062 -0.014874286
v 0.00016499519 0.65375465 -0.014874284
v -0.020609846 0.6255062 -0.0062690526
v 0.00016499519 0.6226564 -0.0072314744
v 0.00016499519 0.6255062 -0.014874286
v -0.01520564 0.6226564 -0.00086476846
v -0.029215116 0.6255062 0.014505817
v -0.021572294 0.6226564 0.014505817
v -0.020609846 0.6255062 0.035280686
v -0.01520564 0.6226564 0.029876398
v 0.00016499519 0.6255062 0.04388592
v 0.00016499519 0.6226564 0.0362431
v 0.020939836 0.6255062 0.03528069
v 0.015535631 0.6226564 0.029876398
v 0.029545106 0.6255062 0.014505817
v 0.021902284 0.6226564 0.014505817
v 0.020939836 0.6255062 -0.0062690526
v 0.015535631 0.6226564 -0.00086476846
v 0.00016499519 0.6255062 -0.014874286
v 0.00016499519 0.6226564 -0.0072314744
v -0.20071155 0.653757 0.08648205
v 0.20061515 0.653757 0.08648203
v 0.20061515 0.653757 -0.054817908
v -0.20071155 0.653757 -0.054817896
v 0.22696136 0.6800341 0.08648203
v -0.22696136 0.6800341 0.08648203
v -0.22696136 0.6800341 -0.086481854
v 0.22696136 0.6800341 -0.08648186
v 0.22696136 0.6800341 0.08648203
v 0.20061515 0.653757 0.08648203
v -0.20071155 0.653757 0.08648205
v -0.22696136 0.6800341 0.08648203
v -0.22696136 0.3386524 0.08648198
v -0.22696136 0.6800341 0.08648203
v -0.20071155 0.653757 0.08648205
v -0.20071155 0.3386524 0.08648198
v -0.22696136 0.6800341 -0.086481854
v -0.22696136 0.3386524 -0.08648195
v 0.22696136 0.3386524 -0.08648197
v 0.22696136 0.6800341 -0.08648186
v -0.20071155 0.653757 -0.054817896
v -0.20071155 0.3386524 -0.05481796
v -0.20071155 0.3386524 0.08648198
v -0.20071155 0.653757 0.08648205
v -0.22696136 0.6800341 0.08648203
v -0.22696136 0.3386524 0.08648198
v -0.22696136 0.3386524 -0.08648195
v -0.22696136 0.6800341 -0.086481854
v 0.20061515 0.653757 -0.054817908
v 0.2006152 0.3386524 -0.05481797
v -0.20071155 0.3386524 -0.05481796
v -0.20071155 0.653757 -0.054817896
v 0.20061515 0.653757 0.08648203
v 0.22696136 0.6800341 0.08648203
v 0.22696131 0.3386524 0.08648197
v 0.20061515 0.3386524 0.08648197
v 0.20061515 0.3386524 0.08648197
v 0.2006152 0.3386524 -0.05481797
v 0.20061515 0.653757 -0.054817908
v 0.20061515 0.653757 0.08648203
v 0.22696136 0.3386524 -0.08648197
v 0.22696131 0.3386524 0.08648197
v 0.22696136 0.6800341 0.08648203
v 0.22696136 0.6800341 -0.08648186
v 0.2006152 0.026937766 0.086481914
v -0.20071155 0.026937766 0.08648192
v -0.20071155 0.026937809 -0.05481802
v 0.2006152 0.026937809 -0.054818034
v -0.22696136 9.997889E-05 0.08648191
v 0.22696136 9.997889E-05 0.086481914
v 0.22696136 9.998646E-05 -0.086482026
v -0.22696136 9.998646E-05 -0.08648202
v 0.2006152 0.026937766 0.086481914
v 0.22696136 9.997889E-05 0.086481914
v -0.22696136 9.997889E-05 0.08648191
v -0.20071155 0.026937766 0.08648192
v -0.20071155 0.026937766 0.08648192
v -0.22696136 9.997889E-05 0.08648191
v -0.22696136 0.3386524 0.08648198
v -0.20071155 0.3386524 0.08648198
v -0.22696136 0.3386524 -0.08648195
v -0.22696136 9.998646E-05 -0.08648202
v 0.22696136 9.998646E-05 -0.086482026
v 0.22696136 0.3386524 -0.08648197
v -0.20071155 0.3386524 0.08648198
v -0.20071155 0.3386524 -0.05481796
v -0.20071155 0.026937809 -0.05481802
v -0.20071155 0.026937766 0.08648192
v -0.22696136 0.3386524 -0.08648195
v -0.22696136 0.3386524 0.08648198
v -0.22696136 9.997889E-05 0.08648191
v -0.22696136 9.998646E-05 -0.08648202
v -0.20071155 0.3386524 -0.05481796
v 0.2006152 0.3386524 -0.05481797
v 0.2006152 0.026937809 -0.054818034
v -0.20071155 0.026937809 -0.05481802
v 0.22696131 0.3386524 0.08648197
v 0.22696136 9.997889E-05 0.086481914
v 0.2006152 0.026937766 0.086481914
v 0.20061515 0.3386524 0.08648197
v 0.2006152 0.026937809 -0.054818034
v 0.2006152 0.3386524 -0.05481797
v 0.20061515 0.3386524 0.08648197
v 0.2006152 0.026937766 0.086481914
v 0.22696136 9.997889E-05 0.086481914
v 0.22696131 0.3386524 0.08648197
v 0.22696136 0.3386524 -0.08648197
v 0.22696136 9.998646E-05 -0.086482026
v -0.01520564 0.6226564 -0.00086476846
v -0.004818144 0.61399436 0.0024754293
v 0.00016499519 0.6226564 -0.0072314744
v -0.021572294 0.6226564 0.014505817
v 0.015535631 0.6226564 -0.00086476846
v -0.011865339 0.61399436 0.019488964
v -0.01520564 0.6226564 0.029876398
v 0.012195329 0.61399436 0.009522667
v 0.021902284 0.6226564 0.014505817
v 0.005148134 0.61399436 0.026536202
v 0.00016499519 0.6226564 0.0362431
v 0.015535631 0.6226564 0.029876398
v 0.00016499519 0.6104184 0.014505815
vt 0.45581055 0.9663086
vt 0.42529297 0.9926758
vt 0.45581055 0.9926758
vt 0.42529297 0.9667969
vt 0.45581055 0.94091797
vt 0.42529297 0.94091797
vt 0.45581055 0.91503906
vt 0.42529297 0.91503906
vt 0.45581055 0.88916016
vt 0.42529297 0.88916016
vt 0.45581055 0.86328125
vt 0.42529297 0.86328125
vt 0.45581055 0.83740234
vt 0.42529297 0.83740234
vt 0.45581055 0.81152344
vt 0.42529297 0.81152344
vt 0.45581055 0.78564453
vt 0.42529297 0.78564453
vt 0.4675293 0.81152344
vt 0.47924805 0.78564453
vt 0.4675293 0.78564453
vt 0.47924805 0.81152344
vt 0.4675293 0.83740234
vt 0.47924805 0.83740234
vt 0.4675293 0.86328125
vt 0.47924805 0.86328125
vt 0.4675293 0.88916016
vt 0.47924805 0.88916016
vt 0.4675293 0.91503906
vt 0.47924805 0.91503906
vt 0.4675293 0.94091797
vt 0.47924805 0.94091797
vt 0.4675293 0.9663086
vt 0.47924805 0.9663086
vt 0.4675293 0.9926758
vt 0.47924805 0.9926758
vt 0.008293152 0.82470703
vt 0.29858398 0.82470703
vt 0.29858398 0.71777344
vt 0.008293152 0.71777344
vt 0.33911133 0.86376953
vt 0.007865906 0.86376953
vt 0.007865906 0.99121094
vt 0.33911133 0.99121094
vt 0.33911133 0.85546875
vt 0.31860352 0.83496094
vt 0.02835083 0.83496094
vt 0.007865906 0.85546875
vt 0.44140625 0.5288086
vt 0.44140625 0.7783203
vt 0.46191406 0.7583008
vt 0.46191406 0.5288086
vt 0.008293152 0.7084961
vt 0.008293152 0.48046875
vt 0.29858398 0.48046875
vt 0.29858398 0.7084961
vt 0.5761719 0.7583008
vt 0.5761719 0.5288086
vt 0.46948242 0.5288086
vt 0.46948242 0.7583008
vt 0.4338379 0.7783203
vt 0.4338379 0.5288086
vt 0.3059082 0.5288086
vt 0.3059082 0.7783203
vt 0.29858398 0.7084961
vt 0.29858398 0.48046875
vt 0.008293152 0.48046875
vt 0.008293152 0.7084961
vt 0.46191406 0.7583008
vt 0.44140625 0.7783203
vt 0.44140625 0.5288086
vt 0.46191406 0.5288086
vt 0.46948242 0.5288086
vt 0.5761719 0.5288086
vt 0.5761719 0.7583008
vt 0.46948242 0.7583008
vt 0.3059082 0.5288086
vt 0.4338379 0.5288086
vt 0.4338379 0.7783203
vt 0.3059082 0.7783203
vt 0.29858398 0.82470703
vt 0.008293152 0.82470703
vt 0.008293152 0.71777344
vt 0.29858398 0.71777344
vt 0.007865906 0.86376953
vt 0.33911133 0.86376953
vt 0.33911133 0.99121094
vt 0.007865906 0.99121094
vt 0.31860352 0.83496094
vt 0.33911133 0.85546875
vt 0.007865906 0.85546875
vt 0.02835083 0.83496094
vt 0.46191406 0.7583008
vt 0.44140625 0.7783203
vt 0.44140625 0.5288086
vt 0.46191406 0.5288086
vt 0.008293152 0.48046875
vt 0.008293152 0.7084961
vt 0.29858398 0.7084961
vt 0.29858398 0.48046875
vt 0.46948242 0.5288086
vt 0.5761719 0.5288086
vt 0.5761719 0.7583008
vt 0.46948242 0.7583008
vt 0.3059082 0.5288086
vt 0.4338379 0.5288086
vt 0.4338379 0.7783203
vt 0.3059082 0.7783203
vt 0.008293152 0.48046875
vt 0.29858398 0.48046875
vt 0.29858398 0.7084961
vt 0.008293152 0.7084961
vt 0.44140625 0.5288086
vt 0.44140625 0.7783203
vt 0.46191406 0.7583008
vt 0.46191406 0.5288086
vt 0.5761719 0.7583008
vt 0.5761719 0.5288086
vt 0.46948242 0.5288086
vt 0.46948242 0.7583008
vt 0.4338379 0.7783203
vt 0.4338379 0.5288086
vt 0.3059082 0.5288086
vt 0.3059082 0.7783203
vt 0.32592773 0.47436523
vt 0.31274414 0.46118164
vt 0.2998047 0.47460938
vt 0.3449707 0.4560547
vt 0.28051758 0.45629883
vt 0.33154297 0.4423828
vt 0.34472656 0.42895508
vt 0.2939453 0.44262695
vt 0.28051758 0.42919922
vt 0.3125 0.42407227
vt 0.32543945 0.41064453
vt 0.2993164 0.41088867
vt 0.31274414 0.44262695
vn 0.70703125 0 -0.70703125
vn -0 0 -1
vn -0 0 -1
vn 0.70703125 0 -0.70703125
vn 1 0 0
vn 1 0 0
vn 0.70703125 0 0.70703125
vn 0.70703125 0 0.70703125
vn -0 0 1
vn -0 0 1
vn -0.70703125 0 0.70703125
vn -0.70703125 0 0.70703125
vn -1 0 0
vn -1 0 0
vn -0.70703125 0 -0.70703125
vn -0.70703125 0 -0.70703125
vn -0 0 -1
vn -0 0 -1
vn -0.24707031 -0.9370117 -0.24707031
vn -0 -0.9370117 -0.34936523
vn -0 -0.9370117 -0.34936523
vn -0.24707031 -0.9370117 -0.24707031
vn -0.34936523 -0.9370117 0
vn -0.34936523 -0.9370117 0
vn -0.24707031 -0.9370117 0.24707031
vn -0.24707031 -0.9370117 0.24707031
vn -0 -0.9370117 0.34936523
vn -0 -0.9370117 0.34936523
vn 0.24707031 -0.9370117 0.24707031
vn 0.24707031 -0.9370117 0.24707031
vn 0.34936523 -0.9370117 0
vn 0.34936523 -0.9370117 0
vn 0.24707031 -0.9370117 -0.24707031
vn 0.24707031 -0.9370117 -0.24707031
vn -0 -0.9370117 -0.34936523
vn -0 -0.9370117 -0.34936523
vn -0 -1 0
vn -0 -1 0
vn -0 -1 0
vn -0 -1 0
vn -0 1 0
vn -0 1 0
vn -0 1 0
vn -0 1 0
vn -0 0 1
vn -0 0 1
vn -1.1920929E-07 0 1
vn -1.1920929E-07 0 1
vn -2.3841858E-07 -1.7881393E-07 1
vn -1.1920929E-07 0 1
vn -1.1920929E-07 0 1
vn -2.3841858E-07 -1.7881393E-07 1
vn -0 2.9802322E-07 -1
vn -0 2.3841858E-07 -1
vn -0 2.3841858E-07 -1
vn -0 2.9802322E-07 -1
vn 1 0 0
vn 1 0 0
vn 1 0 0
vn 1 0 0
vn -1 0 0
vn -1 0 0
vn -1 0 0
vn -1 0 0
vn -0 -1.7881393E-07 1
vn -0 -1.7881393E-07 1
vn -0 -1.7881393E-07 1
vn -0 -1.7881393E-07 1
vn -0 0 1
vn -0 0 1
vn -0 -1.7881393E-07 1
vn -0 -1.7881393E-07 1
vn -1 0 -1.1920929E-07
vn -1 0 -1.1920929E-07
vn -1 0 -1.1920929E-07
vn -1 0 -1.1920929E-07
vn 1 0 1.1920929E-07
vn 1 0 1.1920929E-07
vn 1 0 1.1920929E-07
vn 1 0 1.1920929E-07
vn -0 1 2.9802322E-07
vn -0 1 2.9802322E-07
vn -0 1 2.9802322E-07
vn -0 1 2.9802322E-07
vn -0 -1 0
vn -0 -1 0
vn -0 -1 0
vn -0 -1 0
vn -0 -2.3841858E-07 1
vn -0 -2.3841858E-07 1
vn -1.1920929E-07 -2.9802322E-07 1
vn -1.1920929E-07 -2.9802322E-07 1
vn -1.1920929E-07 -2.9802322E-07 1
vn -1.1920929E-07 -2.9802322E-07 1
vn -2.3841858E-07 -1.7881393E-07 1
vn -2.3841858E-07 -1.7881393E-07 1
vn -0 2.3841858E-07 -1
vn -0 1.7881393E-07 -1
vn -0 1.7881393E-07 -1
vn -0 2.3841858E-07 -1
vn 1 0 0
vn 1 0 0
vn 1 0 0
vn 1 0 0
vn -1 0 0
vn -1 0 0
vn -1 0 0
vn -1 0 0
vn -0 -1.7881393E-07 1
vn -0 -1.7881393E-07 1
vn -0 -1.7881393E-07 1
vn -0 -1.7881393E-07 1
vn -0 -1.7881393E-07 1
vn -0 -2.3841858E-07 1
vn -0 -2.3841858E-07 1
vn -0 -1.7881393E-07 1
vn -1 0 -1.1920929E-07
vn -1 0 -1.1920929E-07
vn -1 0 -1.1920929E-07
vn -1 0 -1.1920929E-07
vn 1 0 1.1920929E-07
vn 1 0 1.1920929E-07
vn 1 0 1.1920929E-07
vn 1 0 1.1920929E-07
vn -0.4934082 -0.75683594 -0.42822266
vn -0.1928711 -0.86376953 -0.46557617
vn 0.046081543 -0.75683594 -0.65185547
vn -0.65185547 -0.75683594 -0.046081543
vn 0.42822266 -0.75683594 -0.4934082
vn -0.46557617 -0.86376953 0.1928711
vn -0.42822266 -0.75683594 0.4934082
vn 0.46557617 -0.86376953 -0.1928711
vn 0.65185547 -0.75683594 0.046081543
vn 0.1928711 -0.86376953 0.46557617
vn -0.046081543 -0.75683594 0.65185547
vn 0.4934082 -0.75683594 0.42822266
vn -0 -1 0
g MainCity_Prop_ShowCase_07_0
f 3/3/3 2/2/2 1/1/1
f 2/2/2 4/4/4 1/1/1
f 1/1/1 4/4/4 5/5/5
f 4/4/4 6/6/6 5/5/5
f 5/5/5 6/6/6 7/7/7
f 6/6/6 8/8/8 7/7/7
f 7/7/7 8/8/8 9/9/9
f 8/8/8 10/10/10 9/9/9
f 9/9/9 10/10/10 11/11/11
f 10/10/10 12/12/12 11/11/11
f 11/11/11 12/12/12 13/13/13
f 12/12/12 14/14/14 13/13/13
f 13/13/13 14/14/14 15/15/15
f 14/14/14 16/16/16 15/15/15
f 15/15/15 16/16/16 17/17/17
f 16/16/16 18/18/18 17/17/17
f 21/21/21 20/20/20 19/19/19
f 20/20/20 22/22/22 19/19/19
f 19/19/19 22/22/22 23/23/23
f 22/22/22 24/24/24 23/23/23
f 23/23/23 24/24/24 25/25/25
f 24/24/24 26/26/26 25/25/25
f 25/25/25 26/26/26 27/27/27
f 26/26/26 28/28/28 27/27/27
f 27/27/27 28/28/28 29/29/29
f 28/28/28 30/30/30 29/29/29
f 29/29/29 30/30/30 31/31/31
f 30/30/30 32/32/32 31/31/31
f 31/31/31 32/32/32 33/33/33
f 32/32/32 34/34/34 33/33/33
f 33/33/33 34/34/34 35/35/35
f 34/34/34 36/36/36 35/35/35
f 39/39/39 38/38/38 37/37/37
f 40/40/40 39/39/39 37/37/37
f 43/43/43 42/42/42 41/41/41
f 44/44/44 43/43/43 41/41/41
f 47/47/47 46/46/46 45/45/45
f 48/48/48 47/47/47 45/45/45
f 51/51/51 50/50/50 49/49/49
f 52/52/52 51/51/51 49/49/49
f 55/55/55 54/54/54 53/53/53
f 56/56/56 55/55/55 53/53/53
f 59/59/59 58/58/58 57/57/57
f 60/60/60 59/59/59 57/57/57
f 63/63/63 62/62/62 61/61/61
f 64/64/64 63/63/63 61/61/61
f 67/67/67 66/66/66 65/65/65
f 68/68/68 67/67/67 65/65/65
f 71/71/71 70/70/70 69/69/69
f 72/72/72 71/71/71 69/69/69
f 75/75/75 74/74/74 73/73/73
f 76/76/76 75/75/75 73/73/73
f 79/79/79 78/78/78 77/77/77
f 80/80/80 79/79/79 77/77/77
f 83/83/83 82/82/82 81/81/81
f 84/84/84 83/83/83 81/81/81
f 87/87/87 86/86/86 85/85/85
f 88/88/88 87/87/87 85/85/85
f 91/91/91 90/90/90 89/89/89
f 92/92/92 91/91/91 89/89/89
f 95/95/95 94/94/94 93/93/93
f 96/96/96 95/95/95 93/93/93
f 99/99/99 98/98/98 97/97/97
f 100/100/100 99/99/99 97/97/97
f 103/103/103 102/102/102 101/101/101
f 104/104/104 103/103/103 101/101/101
f 107/107/107 106/106/106 105/105/105
f 108/108/108 107/107/107 105/105/105
f 111/111/111 110/110/110 109/109/109
f 112/112/112 111/111/111 109/109/109
f 115/115/115 114/114/114 113/113/113
f 116/116/116 115/115/115 113/113/113
f 119/119/119 118/118/118 117/117/117
f 120/120/120 119/119/119 117/117/117
f 123/123/123 122/122/122 121/121/121
f 124/124/124 123/123/123 121/121/121
f 127/127/127 126/126/126 125/125/125
f 125/125/125 126/126/126 128/128/128
f 129/129/129 126/126/126 127/127/127
f 126/126/126 130/130/130 128/128/128
f 128/128/128 130/130/130 131/131/131
f 129/129/129 132/132/132 126/126/126
f 133/133/133 132/132/132 129/129/129
f 131/131/131 130/130/130 134/134/134
f 134/134/134 132/132/132 133/133/133
f 131/131/131 134/134/134 135/135/135
f 136/136/136 134/134/134 133/133/133
f 135/135/135 134/134/134 136/136/136
f 132/132/132 137/137/137 126/126/126
f 126/126/126 137/137/137 130/130/130
f 130/130/130 137/137/137 134/134/134
f 134/134/134 137/137/137 132/132/132
