g MainCity_Prop_PhotoFrame_01
v 0.18765198 0.11295105 -0.024091534
v -0.18765198 0.11140777 -0.02985153
v -0.18765198 0.11295105 -0.024091534
v 0.18765198 0.11140777 -0.02985153
v -0.18765198 0.12191208 -0.03266618
v 0.18765198 0.11140777 -0.02985153
v 0.18765198 0.12191208 -0.03266618
v -0.18765198 0.11140777 -0.02985153
v 0.18765198 0.12191208 -0.03266618
v -0.18765198 0.1234555 -0.026906183
v -0.18765198 0.12191208 -0.03266618
v 0.18765198 0.1234555 -0.026906183
v 0.19135131 1.0004746E-15 -7.629396E-09
v 0.19653259 1.2505928E-15 -9.536743E-09
v 0.19653259 7.5900575E-09 -0.05788009
v 0.19135131 7.5900575E-09 -0.057880096
v 0.19653259 0.10800583 -0.028940016
v 0.19135131 0.10800583 -0.028940016
v 0.19653259 7.5900575E-09 -0.05788009
v 0.19135131 7.5900575E-09 -0.057880096
v 0.19135131 0.009831853 -0.045067005
v 0.19653259 0.009831853 -0.045067
v 0.19135131 0.0098318495 -0.012813096
v 0.19653259 0.0098318495 -0.012813096
v 0.19653259 0.009831853 -0.045067
v 0.19135131 0.07001846 -0.028940031
v 0.19653259 0.07001846 -0.028940033
v 0.19135131 0.009831853 -0.045067005
v 0.19653259 0.07001846 -0.028940033
v 0.19135131 0.07001846 -0.028940031
v 0.19135131 0.0098318495 -0.012813096
v 0.19653259 0.0098318495 -0.012813096
v -0.19653259 7.5900575E-09 -0.05788009
v -0.19653259 1.2505928E-15 -9.536743E-09
v -0.19135131 1.0004746E-15 -7.629396E-09
v -0.19135131 7.5900575E-09 -0.057880096
v -0.19135131 0.10800583 -0.028940016
v -0.19653259 0.10800583 -0.028940016
v -0.19653259 7.5900575E-09 -0.05788009
v -0.19135131 7.5900575E-09 -0.057880096
v -0.19135131 0.0098318495 -0.012813096
v -0.19653259 0.009831853 -0.045067
v -0.19135131 0.009831853 -0.045067005
v -0.19653259 0.0098318495 -0.012813096
v -0.19653259 0.07001846 -0.028940033
v -0.19135131 0.07001846 -0.028940031
v -0.19653259 0.009831853 -0.045067
v -0.19135131 0.009831853 -0.045067005
v -0.19135131 0.0098318495 -0.012813096
v -0.19135131 0.07001846 -0.028940031
v -0.19653259 0.07001846 -0.028940033
v -0.19653259 0.0098318495 -0.012813096
v 0.19484009 0.008070829 0.010184592
v 0.19484009 0.23142257 -0.049662292
v 0.19999999 0.23640655 -0.050997768
v 0.19999999 0.0030868512 0.011520056
v 0.19484009 0.23142257 -0.049662292
v -0.19484009 0.23142257 -0.049662273
v -0.19999999 0.23640655 -0.050997753
v 0.19999999 0.23640655 -0.050997768
v 0.19999999 0.23331985 -0.06251775
v -0.19999999 0.23331985 -0.062517725
v -0.18765198 0.22139266 -0.05932182
v 0.18765198 0.22139251 -0.059321847
v 0.19999999 0.23331985 -0.06251775
v 0.18765198 0.22139251 -0.059321847
v 0.18765198 0.011927337 -0.003195819
v 0.19999999 -9.9578455E-15 7.593632E-08
v 0.1932196 0.22936141 -0.05109309
v 0.19484009 0.23142257 -0.049662292
v 0.19484009 0.008070829 0.010184592
v 0.1932196 0.00914047 0.007914846
v 0.19484009 0.23142257 -0.049662292
v -0.1932196 0.22936141 -0.051093083
v -0.19484009 0.23142257 -0.049662273
v 0.1932196 0.22936141 -0.05109309
v -0.19999999 0.23331985 -0.062517725
v 0.19999999 0.23331985 -0.06251775
v 0.19999999 0.23640655 -0.050997768
v -0.19999999 0.23640655 -0.050997753
v 0.19999999 0.23331985 -0.06251775
v 0.19999999 -9.9578455E-15 7.593632E-08
v 0.19999999 0.0030868512 0.011520056
v 0.19999999 0.23640655 -0.050997768
v -0.18765198 0.22139266 -0.05932182
v -0.18765198 0.22293594 -0.053561814
v 0.18765198 0.22293594 -0.05356183
v 0.18765198 0.22139251 -0.059321847
v 0.18765198 0.013470764 0.0025641604
v 0.18765198 0.011927337 -0.003195819
v 0.18765198 0.22139251 -0.059321847
v 0.18765198 0.22293594 -0.05356183
v -0.19999999 0.23640655 -0.050997753
v -0.19484009 0.23142257 -0.049662273
v -0.19484009 0.008070982 0.010184553
v -0.19999999 0.0030868512 0.011520018
v -0.19999999 1.5258789E-07 5.6862877E-08
v -0.18765198 0.22139266 -0.05932182
v -0.19999999 0.23331985 -0.062517725
v -0.18765198 0.011927337 -0.0031958276
v -0.19484009 0.23142257 -0.049662273
v -0.1932196 0.22936141 -0.051093083
v -0.1932196 0.009140623 0.007914835
v -0.19484009 0.008070982 0.010184553
v -0.19999999 0.0030868512 0.011520018
v -0.19999999 1.5258789E-07 5.6862877E-08
v -0.19999999 0.23640655 -0.050997753
v -0.19999999 0.23331985 -0.062517725
v -0.18765198 0.22293594 -0.053561814
v -0.18765198 0.22139266 -0.05932182
v -0.18765198 0.011927337 -0.0031958276
v -0.18765198 0.013470764 0.0025641466
v 0.19484009 0.008070829 0.010184592
v -0.19999999 0.0030868512 0.011520018
v -0.19484009 0.008070982 0.010184553
v 0.19999999 0.0030868512 0.011520056
v 0.19999999 -9.9578455E-15 7.593632E-08
v -0.18765198 0.011927337 -0.0031958276
v -0.19999999 1.5258789E-07 5.6862877E-08
v 0.18765198 0.011927337 -0.003195819
v -0.1932196 0.009140623 0.007914835
v 0.1932196 0.00914047 0.007914846
v 0.19484009 0.008070829 0.010184592
v -0.19484009 0.008070982 0.010184553
v -0.19999999 1.5258789E-07 5.6862877E-08
v -0.19999999 0.0030868512 0.011520018
v 0.19999999 -9.9578455E-15 7.593632E-08
v 0.19999999 0.0030868512 0.011520056
v 0.18765198 0.011927337 -0.003195819
v 0.18765198 0.013470764 0.0025641604
v -0.18765198 0.013470764 0.0025641466
v -0.18765198 0.011927337 -0.0031958276
v 0.1932196 0.22936141 -0.05109309
v -0.1932196 0.009140623 0.007914835
v -0.1932196 0.22936141 -0.051093083
v 0.1932196 0.00914047 0.007914846
v -0.18765198 0.22293594 -0.053561814
v 0.18765198 0.013470764 0.0025641604
v 0.18765198 0.22293594 -0.05356183
v -0.18765198 0.013470764 0.0025641466
v 0.0992633 0.22186644 -0.057553295
v 0.08838867 0.22186644 -0.057553302
v 0.0992633 0.117133796 -0.029490327
v 0.08838867 0.117133774 -0.02949033
v -0.099263914 0.22186644 -0.057553295
v -0.099263914 0.117133774 -0.029490322
v -0.08838867 0.117133796 -0.02949033
v -0.08838867 0.22186644 -0.057553302
v 0.0992633 0.22293594 -0.053561825
v 0.0992633 0.22186644 -0.057553295
v 0.0992633 0.117133796 -0.029490327
v 0.0992633 0.11820327 -0.02549885
v 0.08838867 0.117133774 -0.02949033
v 0.08838867 0.22186644 -0.057553302
v 0.08838867 0.22293594 -0.053561833
v 0.08838867 0.118203275 -0.025498858
v -0.099263914 0.117133774 -0.029490322
v -0.099263914 0.22186644 -0.057553295
v -0.099263914 0.22293594 -0.053561825
v -0.099263914 0.11820328 -0.025498858
v -0.08838867 0.22293594 -0.053561833
v -0.08838867 0.22186644 -0.057553302
v -0.08838867 0.117133796 -0.02949033
v -0.08838867 0.118203275 -0.025498858
v 0.0992633 0.11713375 -0.02949031
v 0.08838867 0.11713376 -0.029490322
v 0.08838867 0.012401104 -0.0014272773
v 0.0992633 0.012401104 -0.0014272678
v -0.08838867 0.11713374 -0.029490313
v -0.099263914 0.11713377 -0.029490318
v -0.099263914 0.012401104 -0.0014272678
v -0.08838867 0.012401104 -0.0014272773
v 0.0992633 0.11713375 -0.02949031
v 0.0992633 0.012401104 -0.0014272678
v 0.0992633 0.01347063 0.002564193
v 0.0992633 0.1182033 -0.025498854
v 0.08838867 0.01347063 0.0025641834
v 0.08838867 0.11713376 -0.029490322
v 0.08838867 0.118203275 -0.025498858
v 0.08838867 0.012401104 -0.0014272773
v -0.099263914 0.01347063 0.002564193
v -0.099263914 0.11713377 -0.029490318
v -0.099263914 0.118203275 -0.025498852
v -0.099263914 0.012401104 -0.0014272678
v -0.08838867 0.11713374 -0.029490313
v -0.08838867 0.012401104 -0.0014272773
v -0.08838867 0.01347063 0.0025641834
v -0.08838867 0.118203275 -0.025498858
v 0.19653259 1.2505928E-15 -9.536743E-09
v 0.19653259 0.0098318495 -0.012813096
v 0.19653259 0.009831853 -0.045067
v 0.19653259 0.07001846 -0.028940033
v 0.19653259 7.5900575E-09 -0.05788009
v 0.19653259 0.10800583 -0.028940016
v -0.19653259 0.009831853 -0.045067
v -0.19653259 0.0098318495 -0.012813096
v -0.19653259 1.2505928E-15 -9.536743E-09
v -0.19653259 0.07001846 -0.028940033
v -0.19653259 7.5900575E-09 -0.05788009
v -0.19653259 0.10800583 -0.028940016
v 0.19135131 0.009831853 -0.045067005
v 0.19135131 0.0098318495 -0.012813096
v 0.19135131 1.0004746E-15 -7.629396E-09
v 0.19135131 0.07001846 -0.028940031
v 0.19135131 7.5900575E-09 -0.057880096
v 0.19135131 0.10800583 -0.028940016
v -0.19135131 1.0004746E-15 -7.629396E-09
v -0.19135131 0.0098318495 -0.012813096
v -0.19135131 0.009831853 -0.045067005
v -0.19135131 0.07001846 -0.028940031
v -0.19135131 7.5900575E-09 -0.057880096
v -0.19135131 0.10800583 -0.028940016
vt 0.39404297 0.24560547
vt 0.9819336 0.25463867
vt 0.9819336 0.24560547
vt 0.39404297 0.25463867
vt 0.9819336 0.27856445
vt 0.39404297 0.26220703
vt 0.39404297 0.27856445
vt 0.9819336 0.26220703
vt 0.3942871 0.28710938
vt 0.9819336 0.29589844
vt 0.9819336 0.28710938
vt 0.3942871 0.29589844
vt 0.4873047 0.36523438
vt 0.47729492 0.36523438
vt 0.47729492 0.47680664
vt 0.4873047 0.47680664
vt 0.4440918 0.40014648
vt 0.43408203 0.40014648
vt 0.4440918 0.609375
vt 0.43408203 0.609375
vt 0.46411133 0.4140625
vt 0.45410156 0.4140625
vt 0.46411133 0.47631836
vt 0.45410156 0.47631836
vt 0.47680664 0.6088867
vt 0.4868164 0.48901367
vt 0.47680664 0.48901367
vt 0.4868164 0.6088867
vt 0.46435547 0.4892578
vt 0.4543457 0.4892578
vt 0.4543457 0.609375
vt 0.46435547 0.609375
vt 1.4775391 0.47680664
vt 1.4775391 0.36523438
vt 1.4873047 0.36523438
vt 1.4873047 0.47680664
vt 1.4345703 0.40014648
vt 1.4443359 0.40014648
vt 1.4443359 0.609375
vt 1.4345703 0.609375
vt 1.4638672 0.47631836
vt 1.4541016 0.4140625
vt 1.4638672 0.4140625
vt 1.4541016 0.47631836
vt 1.4765625 0.48901367
vt 1.4863281 0.48901367
vt 1.4765625 0.6088867
vt 1.4863281 0.6088867
vt 1.4541016 0.609375
vt 1.4541016 0.4892578
vt 1.4648438 0.4892578
vt 1.4648438 0.609375
vt 0.9746094 0.4182129
vt 0.5361328 0.4182129
vt 0.5263672 0.42797852
vt 0.984375 0.42797852
vt 0.97753906 0.15734863
vt 0.40600586 0.15734863
vt 0.3984375 0.16503906
vt 0.9848633 0.16503906
vt 0.9848633 0.19897461
vt 0.3984375 0.19897461
vt 0.4165039 0.2175293
vt 0.9667969 0.2175293
vt 0.51171875 0.58203125
vt 0.53515625 0.60546875
vt 0.94628906 0.60546875
vt 0.96972656 0.58203125
vt 0.5390625 0.40527344
vt 0.5361328 0.41015625
vt 0.9746094 0.41015625
vt 0.9716797 0.40527344
vt 0.97753906 0.1484375
vt 0.40844727 0.14465332
vt 0.40600586 0.1484375
vt 0.97509766 0.14465332
vt 0.3984375 0.19030762
vt 0.9848633 0.19030762
vt 0.9848633 0.17236328
vt 0.3984375 0.17236328
vt 0.5263672 0.45874023
vt 0.984375 0.45874023
vt 0.984375 0.43603516
vt 0.5263672 0.43603516
vt 0.4165039 0.22741699
vt 0.4165039 0.23632812
vt 0.9667969 0.23632812
vt 0.9667969 0.22741699
vt 0.9838867 0.3959961
vt 0.9838867 0.38476562
vt 0.5727539 0.38476562
vt 0.5727539 0.3959961
vt 1.5263672 0.42797852
vt 1.5361328 0.4182129
vt 1.9746094 0.4182129
vt 1.984375 0.42797852
vt 1.9697266 0.58203125
vt 1.5351562 0.60546875
vt 1.5117188 0.58203125
vt 1.9462891 0.60546875
vt 1.5361328 0.41015625
vt 1.5390625 0.40527344
vt 1.9716797 0.40527344
vt 1.9746094 0.41015625
vt 1.984375 0.43603516
vt 1.984375 0.45874023
vt 1.5263672 0.43603516
vt 1.5263672 0.45874023
vt 1.5732422 0.3959961
vt 1.5732422 0.38476562
vt 1.984375 0.38476562
vt 1.984375 0.3959961
vt 1.9775391 0.15734863
vt 1.3984375 0.16503906
vt 1.40625 0.15734863
vt 1.9853516 0.16503906
vt 1.9853516 0.19897461
vt 1.4169922 0.2175293
vt 1.3984375 0.19897461
vt 1.9667969 0.2175293
vt 1.4082031 0.14465332
vt 1.9755859 0.14465332
vt 1.9775391 0.1484375
vt 1.40625 0.1484375
vt 1.3984375 0.19030762
vt 1.3984375 0.17236328
vt 1.9853516 0.19030762
vt 1.9853516 0.17236328
vt 1.9667969 0.22741699
vt 1.9667969 0.23632812
vt 1.4169922 0.23632812
vt 1.4169922 0.22741699
vt 0.9785156 0.9814453
vt 0.36816406 0.62109375
vt 0.36816406 0.9814453
vt 0.9785156 0.62109375
vt 0.24145508 0.34985352
vt 0.013267517 0.21801758
vt 0.013267517 0.34985352
vt 0.24145508 0.21801758
vt 0.40673828 0.40307617
vt 0.38623047 0.40307617
vt 0.40673828 0.60839844
vt 0.38623047 0.60839844
vt 1.4072266 0.40307617
vt 1.4072266 0.60839844
vt 1.3867188 0.60839844
vt 1.3867188 0.40307617
vt 0.42333984 0.40307617
vt 0.41552734 0.40307617
vt 0.41552734 0.60839844
vt 0.42333984 0.60839844
vt 0.37719727 0.60839844
vt 0.37719727 0.40307617
vt 0.36938477 0.40307617
vt 0.36938477 0.60839844
vt 1.4150391 0.60839844
vt 1.4150391 0.40307617
vt 1.4228516 0.40307617
vt 1.4228516 0.60839844
vt 1.3691406 0.40307617
vt 1.3769531 0.40307617
vt 1.3769531 0.60839844
vt 1.3691406 0.60839844
vt 1.4072266 0.60839844
vt 1.3867188 0.60839844
vt 1.3867188 0.40307617
vt 1.4072266 0.40307617
vt 1.3867188 0.60839844
vt 1.4072266 0.60839844
vt 1.4072266 0.40307617
vt 1.3867188 0.40307617
vt 1.4150391 0.60839844
vt 1.4150391 0.40307617
vt 1.4228516 0.40307617
vt 1.4228516 0.60839844
vt 1.3691406 0.40307617
vt 1.3769531 0.60839844
vt 1.3691406 0.60839844
vt 1.3769531 0.40307617
vt 1.4228516 0.40307617
vt 1.4150391 0.60839844
vt 1.4228516 0.60839844
vt 1.4150391 0.40307617
vt 1.3769531 0.60839844
vt 1.3769531 0.40307617
vt 1.3691406 0.40307617
vt 1.3691406 0.60839844
vt 0.34423828 0.46166992
vt 0.31958008 0.4428711
vt 0.25756836 0.4428711
vt 0.28857422 0.3269043
vt 0.23291016 0.46166992
vt 0.28857422 0.25390625
vt 1.2578125 0.4428711
vt 1.3193359 0.4428711
vt 1.3447266 0.46166992
vt 1.2890625 0.3269043
vt 1.2324219 0.46166992
vt 1.2890625 0.25390625
vt 1.2578125 0.4428711
vt 1.3193359 0.4428711
vt 1.3447266 0.46166992
vt 1.2890625 0.3269043
vt 1.2324219 0.46166992
vt 1.2890625 0.25390625
vt 1.3447266 0.46166992
vt 1.3193359 0.4428711
vt 1.2578125 0.4428711
vt 1.2890625 0.3269043
vt 1.2324219 0.46166992
vt 1.2890625 0.25390625
vn -0 -0.9658203 0.25878906
vn -0 -0.9658203 0.25878906
vn -0 -0.9658203 0.25878906
vn -0 -0.9658203 0.25878906
vn -0 -0.25878906 -0.9658203
vn -0 -0.25878906 -0.9658203
vn -0 -0.25878906 -0.9658203
vn -0 -0.25878906 -0.9658203
vn -0 0.9658203 -0.25878906
vn -0 0.9658203 -0.25878906
vn -0 0.9658203 -0.25878906
vn -0 0.9658203 -0.25878906
vn -0 -1 -1.1920929E-07
vn -0 -1 -1.1920929E-07
vn -0 -1 -1.1920929E-07
vn -0 -1 -1.1920929E-07
vn 4.7683716E-07 0.25878906 -0.9658203
vn 4.7683716E-07 0.25878906 -0.9658203
vn 4.7683716E-07 0.25878906 -0.9658203
vn 4.7683716E-07 0.25878906 -0.9658203
vn -0 1 1.1920929E-07
vn -0 1 1.1920929E-07
vn -0 1 1.1920929E-07
vn -0 1 1.1920929E-07
vn -2.3841858E-07 -0.25878906 0.9658203
vn -2.3841858E-07 -0.25878906 0.9658203
vn -2.3841858E-07 -0.25878906 0.9658203
vn -2.3841858E-07 -0.25878906 0.9658203
vn -2.3841858E-07 -0.25878906 -0.9658203
vn -2.3841858E-07 -0.25878906 -0.9658203
vn -2.3841858E-07 -0.25878906 -0.9658203
vn -2.3841858E-07 -0.25878906 -0.9658203
vn -0 -1 -1.1920929E-07
vn -0 -1 -1.1920929E-07
vn -0 -1 -1.1920929E-07
vn -0 -1 -1.1920929E-07
vn -4.7683716E-07 0.25878906 -0.9658203
vn -4.7683716E-07 0.25878906 -0.9658203
vn -4.7683716E-07 0.25878906 -0.9658203
vn -4.7683716E-07 0.25878906 -0.9658203
vn -0 1 1.1920929E-07
vn -0 1 1.1920929E-07
vn -0 1 1.1920929E-07
vn -0 1 1.1920929E-07
vn 2.3841858E-07 -0.25878906 0.9658203
vn 2.3841858E-07 -0.25878906 0.9658203
vn 2.3841858E-07 -0.25878906 0.9658203
vn 2.3841858E-07 -0.25878906 0.9658203
vn 2.3841858E-07 -0.25878906 -0.9658203
vn 2.3841858E-07 -0.25878906 -0.9658203
vn 2.3841858E-07 -0.25878906 -0.9658203
vn 2.3841858E-07 -0.25878906 -0.9658203
vn 5.9604645E-07 0.25878906 0.9658203
vn 5.9604645E-07 0.25878906 0.9658203
vn 5.9604645E-07 0.25878906 0.9658203
vn 5.9604645E-07 0.25878906 0.9658203
vn -0 0.25878906 0.9658203
vn -0 0.25878906 0.9658203
vn -0 0.25878906 0.9658203
vn -0 0.25878906 0.9658203
vn -1.1920929E-07 -0.25878906 -0.9658203
vn -1.1920929E-07 -0.25878906 -0.9658203
vn -1.1920929E-07 -0.25878906 -0.9658203
vn -1.1920929E-07 -0.25878906 -0.9658203
vn -1.1920929E-07 -0.25878906 -0.9658203
vn -1.1920929E-07 -0.25878906 -0.9658203
vn -1.1920929E-07 -0.25878906 -0.9658203
vn -1.1920929E-07 -0.25878906 -0.9658203
vn -0.7636719 0.16711426 0.62402344
vn -0.7636719 0.16711426 0.62402344
vn -0.7636719 0.16711426 0.62402344
vn -0.7636719 0.16711426 0.62402344
vn -0 -0.5703125 0.82128906
vn -0 -0.5703125 0.82128906
vn -0 -0.5703125 0.82128906
vn -0 -0.5703125 0.82128906
vn -0 0.9658203 -0.25878906
vn -0 0.9658203 -0.25878906
vn -0 0.9658203 -0.25878906
vn -0 0.9658203 -0.25878906
vn 1 0 0
vn 1 0 0
vn 1 0 0
vn 1 0 0
vn -1.7881393E-07 -0.9658203 0.25878906
vn -1.7881393E-07 -0.9658203 0.25878906
vn -1.7881393E-07 -0.9658203 0.25878906
vn -1.7881393E-07 -0.9658203 0.25878906
vn -1 0 0
vn -1 0 0
vn -1 0 0
vn -1 0 0
vn -4.708767E-06 0.25878906 0.9658203
vn -4.708767E-06 0.25878906 0.9658203
vn -4.708767E-06 0.25878906 0.9658203
vn -4.708767E-06 0.25878906 0.9658203
vn 8.940697E-07 -0.25878906 -0.9658203
vn 8.940697E-07 -0.25878906 -0.9658203
vn 8.940697E-07 -0.25878906 -0.9658203
vn 8.940697E-07 -0.25878906 -0.9658203
vn 0.7636719 0.16711426 0.62402344
vn 0.7636719 0.16711426 0.62402344
vn 0.7636719 0.16711426 0.62402344
vn 0.7636719 0.16711426 0.62402344
vn -1 0 0
vn -1 0 0
vn -1 0 0
vn -1 0 0
vn 1 0 0
vn 1 0 0
vn 1 0 0
vn 1 0 0
vn -0 0.25878906 0.9658203
vn -0 0.25878906 0.9658203
vn -0 0.25878906 0.9658203
vn -0 0.25878906 0.9658203
vn -0 -0.25878906 -0.9658203
vn -0 -0.25878906 -0.9658203
vn -0 -0.25878906 -0.9658203
vn -0 -0.25878906 -0.9658203
vn 3.5762787E-07 0.90478516 0.42626953
vn 3.5762787E-07 0.90478516 0.42626953
vn 3.5762787E-07 0.90478516 0.42626953
vn 3.5762787E-07 0.90478516 0.42626953
vn -1.7881393E-07 -0.9658203 0.25878906
vn -1.7881393E-07 -0.9658203 0.25878906
vn -1.7881393E-07 -0.9658203 0.25878906
vn -1.7881393E-07 -0.9658203 0.25878906
vn -0 0.9658203 -0.25878906
vn -0 0.9658203 -0.25878906
vn -0 0.9658203 -0.25878906
vn -0 0.9658203 -0.25878906
vn -0 0.25878906 0.9658203
vn -0 0.25878906 0.9658203
vn -0 0.25878906 0.9658203
vn -0 0.25878906 0.9658203
vn -0 -0.25878906 -0.9658203
vn -0 -0.25878906 -0.9658203
vn -0 -0.25878906 -0.9658203
vn -0 -0.25878906 -0.9658203
vn 7.748604E-07 -0.25878906 -0.9658203
vn 7.748604E-07 -0.25878906 -0.9658203
vn 7.748604E-07 -0.25878906 -0.9658203
vn 7.748604E-07 -0.25878906 -0.9658203
vn -4.7683716E-07 -0.25878906 -0.9658203
vn -4.7683716E-07 -0.25878906 -0.9658203
vn -4.7683716E-07 -0.25878906 -0.9658203
vn -4.7683716E-07 -0.25878906 -0.9658203
vn 1 0 0
vn 1 0 0
vn 1 0 0
vn 1 0 0
vn -1 0 0
vn -1 0 0
vn -1 0 0
vn -1 0 0
vn -1 0 0
vn -1 0 0
vn -1 0 0
vn -1 0 0
vn 1 0 0
vn 1 0 0
vn 1 0 0
vn 1 0 0
vn 8.34465E-07 -0.25878906 -0.9658203
vn 8.34465E-07 -0.25878906 -0.9658203
vn 8.34465E-07 -0.25878906 -0.9658203
vn 8.34465E-07 -0.25878906 -0.9658203
vn -5.364418E-07 -0.25878906 -0.9658203
vn -5.364418E-07 -0.25878906 -0.9658203
vn -5.364418E-07 -0.25878906 -0.9658203
vn -5.364418E-07 -0.25878906 -0.9658203
vn 1 0 0
vn 1 0 0
vn 1 0 0
vn 1 0 0
vn -1 0 0
vn -1 0 0
vn -1 0 0
vn -1 0 0
vn -1 0 0
vn -1 0 0
vn -1 0 0
vn -1 0 0
vn 1 0 0
vn 1 0 0
vn 1 0 0
vn 1 0 0
vn 1 0 0
vn 1 0 0
vn 1 0 0
vn 1 0 0
vn 1 0 0
vn 1 0 0
vn -1 0 0
vn -1 0 0
vn -1 0 0
vn -1 0 0
vn -1 0 0
vn -1 0 0
vn -1 0 0
vn -1 0 0
vn -1 0 0
vn -1 0 0
vn -1 0 0
vn -1 0 0
vn 1 0 0
vn 1 0 0
vn 1 0 0
vn 1 0 0
vn 1 0 0
vn 1 0 0
g MainCity_Prop_PhotoFrame_01_0
f 3/3/3 2/2/2 1/1/1
f 2/2/2 4/4/4 1/1/1
f 7/7/7 6/6/6 5/5/5
f 6/6/6 8/8/8 5/5/5
f 11/11/11 10/10/10 9/9/9
f 10/10/10 12/12/12 9/9/9
f 15/15/15 14/14/14 13/13/13
f 13/13/13 16/16/16 15/15/15
f 19/19/19 18/18/18 17/17/17
f 19/19/19 20/20/20 18/18/18
f 23/23/23 22/22/22 21/21/21
f 23/23/23 24/24/24 22/22/22
f 27/27/27 26/26/26 25/25/25
f 28/28/28 25/25/25 26/26/26
f 31/31/31 30/30/30 29/29/29
f 29/29/29 32/32/32 31/31/31
f 35/35/35 34/34/34 33/33/33
f 33/33/33 36/36/36 35/35/35
f 39/39/39 38/38/38 37/37/37
f 37/37/37 40/40/40 39/39/39
f 43/43/43 42/42/42 41/41/41
f 44/44/44 41/41/41 42/42/42
f 47/47/47 46/46/46 45/45/45
f 47/47/47 48/48/48 46/46/46
f 51/51/51 50/50/50 49/49/49
f 49/49/49 52/52/52 51/51/51
f 55/55/55 54/54/54 53/53/53
f 55/55/55 53/53/53 56/56/56
f 59/59/59 58/58/58 57/57/57
f 59/59/59 57/57/57 60/60/60
f 63/63/63 62/62/62 61/61/61
f 61/61/61 64/64/64 63/63/63
f 67/67/67 66/66/66 65/65/65
f 65/65/65 68/68/68 67/67/67
f 71/71/71 70/70/70 69/69/69
f 69/69/69 72/72/72 71/71/71
f 75/75/75 74/74/74 73/73/73
f 74/74/74 76/76/76 73/73/73
f 79/79/79 78/78/78 77/77/77
f 77/77/77 80/80/80 79/79/79
f 83/83/83 82/82/82 81/81/81
f 81/81/81 84/84/84 83/83/83
f 87/87/87 86/86/86 85/85/85
f 85/85/85 88/88/88 87/87/87
f 91/91/91 90/90/90 89/89/89
f 89/89/89 92/92/92 91/91/91
f 95/95/95 94/94/94 93/93/93
f 96/96/96 95/95/95 93/93/93
f 99/99/99 98/98/98 97/97/97
f 98/98/98 100/100/100 97/97/97
f 103/103/103 102/102/102 101/101/101
f 104/104/104 103/103/103 101/101/101
f 107/107/107 106/106/106 105/105/105
f 106/106/106 107/107/107 108/108/108
f 111/111/111 110/110/110 109/109/109
f 109/109/109 112/112/112 111/111/111
f 115/115/115 114/114/114 113/113/113
f 114/114/114 116/116/116 113/113/113
f 119/119/119 118/118/118 117/117/117
f 118/118/118 120/120/120 117/117/117
f 123/123/123 122/122/122 121/121/121
f 121/121/121 124/124/124 123/123/123
f 127/127/127 126/126/126 125/125/125
f 126/126/126 127/127/127 128/128/128
f 131/131/131 130/130/130 129/129/129
f 129/129/129 132/132/132 131/131/131
f 135/135/135 134/134/134 133/133/133
f 134/134/134 136/136/136 133/133/133
f 139/139/139 138/138/138 137/137/137
f 138/138/138 140/140/140 137/137/137
f 143/143/143 142/142/142 141/141/141
f 143/143/143 144/144/144 142/142/142
f 147/147/147 146/146/146 145/145/145
f 145/145/145 148/148/148 147/147/147
f 151/151/151 150/150/150 149/149/149
f 149/149/149 152/152/152 151/151/151
f 155/155/155 154/154/154 153/153/153
f 153/153/153 156/156/156 155/155/155
f 159/159/159 158/158/158 157/157/157
f 157/157/157 160/160/160 159/159/159
f 163/163/163 162/162/162 161/161/161
f 161/161/161 164/164/164 163/163/163
f 167/167/167 166/166/166 165/165/165
f 165/165/165 168/168/168 167/167/167
f 171/171/171 170/170/170 169/169/169
f 169/169/169 172/172/172 171/171/171
f 175/175/175 174/174/174 173/173/173
f 173/173/173 176/176/176 175/175/175
f 179/179/179 178/178/178 177/177/177
f 180/180/180 177/177/177 178/178/178
f 183/183/183 182/182/182 181/181/181
f 184/184/184 181/181/181 182/182/182
f 187/187/187 186/186/186 185/185/185
f 185/185/185 188/188/188 187/187/187
f 191/191/191 190/190/190 189/189/189
f 189/189/189 190/190/190 192/192/192
f 189/189/189 193/193/193 191/191/191
f 192/192/192 191/191/191 193/193/193
f 189/189/189 192/192/192 194/194/194
f 194/194/194 192/192/192 193/193/193
f 197/197/197 196/196/196 195/195/195
f 198/198/198 196/196/196 197/197/197
f 195/195/195 199/199/199 197/197/197
f 199/199/199 195/195/195 198/198/198
f 200/200/200 198/198/198 197/197/197
f 199/199/199 198/198/198 200/200/200
f 203/203/203 202/202/202 201/201/201
f 204/204/204 202/202/202 203/203/203
f 201/201/201 205/205/205 203/203/203
f 205/205/205 201/201/201 204/204/204
f 206/206/206 204/204/204 203/203/203
f 205/205/205 204/204/204 206/206/206
f 209/209/209 208/208/208 207/207/207
f 207/207/207 208/208/208 210/210/210
f 207/207/207 211/211/211 209/209/209
f 210/210/210 209/209/209 211/211/211
f 207/207/207 210/210/210 212/212/212
f 212/212/212 210/210/210 211/211/211
