g MainCity_Prop_Ramp_03
v 0.20219852 0.08958075 -0.8109075
v 0.20219852 4.791337E-05 -0.8109074
v 0.20219852 4.7848225E-05 0.8109068
v 0.20219852 0.089590035 0.8109067
v -0.20219848 4.491955E-05 0.8109066
v 1.9073486E-08 0.061189126 0.81090665
v 0.20219852 4.7848225E-05 0.8109068
v 0.20219852 0.089590035 0.8109067
v 0.20219852 0.08958075 -0.8109075
v 1.9073486E-08 0.061184518 -0.8109074
v 0.20219852 4.791337E-05 -0.8109074
v -0.20219848 4.4984685E-05 -0.81090736
v 0.20219852 4.7848225E-05 0.8109068
v 0.20219852 4.791337E-05 -0.8109074
v -0.20219848 4.4984685E-05 -0.81090736
v -0.20219848 4.491955E-05 0.8109066
v -0.20219848 4.491955E-05 0.8109066
v -0.20219848 4.4984685E-05 -0.81090736
v 1.9073486E-08 0.061184518 -0.8109074
v 1.9073486E-08 0.061189126 0.81090665
v 0.20219852 0.089590035 0.8109067
v 0.20219852 0.08958075 -0.8109075
vt 0.93603516 0.29101562
vt 0.9482422 0.29101562
vt 0.9482422 0.009712219
vt 0.93603516 0.009712219
vt 0.97509766 0.23168945
vt 0.9819336 0.18762207
vt 0.97509766 0.14367676
vt 0.98876953 0.14367676
vt 0.43945312 0.009490967
vt 0.4326172 0.05355835
vt 0.42578125 0.009490967
vt 0.42578125 0.097595215
vt 0.27539062 0.9916992
vt 0.9868164 0.9916992
vt 0.9868164 0.82373047
vt 0.27539062 0.82373047
vt 0.27539062 0.9916992
vt 0.9868164 0.9916992
vt 0.9868164 0.90771484
vt 0.27539062 0.90771484
vt 0.27539062 0.82373047
vt 0.9868164 0.82373047
vn 1 0 0
vn 1 0 0
vn 1 0 0
vn 1 0 0
vn -5.364418E-07 5.9604645E-07 1
vn -5.364418E-07 6.556511E-07 1
vn -5.364418E-07 8.34465E-07 1
vn -4.7683716E-07 8.34465E-07 1
vn -2.3841858E-07 -8.34465E-07 -1
vn -1.7881393E-07 -6.556511E-07 -1
vn -2.3841858E-07 -8.34465E-07 -1
vn -1.7881393E-07 -5.9604645E-07 -1
vn 7.2717667E-06 -1 0
vn 7.2717667E-06 -1 0
vn 7.2717667E-06 -1 0
vn 7.2717667E-06 -1 0
vn -0.28955078 0.95703125 -1.3113022E-06
vn -0.28955078 0.95703125 -1.3113022E-06
vn -0.21484375 0.9765625 -2.8014183E-06
vn -0.21484375 0.9765625 -2.8014183E-06
vn -0.13903809 0.9902344 -4.23193E-06
vn -0.13903809 0.9902344 -4.23193E-06
g MainCity_Prop_Ramp_03_0
f 3/3/3 2/2/2 1/1/1
f 4/4/4 3/3/3 1/1/1
f 7/7/7 6/6/6 5/5/5
f 8/8/8 6/6/6 7/7/7
f 11/11/11 10/10/10 9/9/9
f 12/12/12 10/10/10 11/11/11
f 15/15/15 14/14/14 13/13/13
f 16/16/16 15/15/15 13/13/13
f 19/19/19 18/18/18 17/17/17
f 20/20/20 19/19/19 17/17/17
f 19/19/19 20/20/20 21/21/21
f 22/22/22 19/19/19 21/21/21
