g MainCity_Prop_Cabinet_05
v -0.24432853 0.0026831785 -0.21416095
v 0.24432874 0.0026831913 -0.21416098
v 0.24432872 0.42967442 -0.21416086
v -0.24432853 0.42967442 -0.21416086
v -0.24432853 0.0026830232 0.21283054
v -0.24432853 0.4296742 0.21283065
v 0.24432872 0.42967418 0.21283065
v 0.24432874 0.0026829946 0.21283054
v 0.24432872 0.42967442 -0.21416086
v 0.24432872 0.42967418 0.21283065
v -0.24432853 0.4296742 0.21283065
v -0.24432853 0.42967442 -0.21416086
v -0.24432853 0.42967442 -0.21416086
v -0.24432853 0.4296742 0.21283065
v -0.24432853 0.0026830232 0.21283054
v -0.24432853 0.0026831785 -0.21416095
v 0.24432874 0.0026831913 -0.21416098
v -0.24432853 0.0026831785 -0.21416095
v -0.24432853 0.0026830232 0.21283054
v 0.24432874 0.0026829946 0.21283054
v 0.24432872 0.42967442 -0.21416086
v 0.24432874 0.0026831913 -0.21416098
v 0.24432874 0.0026829946 0.21283054
v 0.24432872 0.42967418 0.21283065
vt 0.40234375 0.65283203
vt 0.49536133 0.65283203
vt 0.49536133 0.5600586
vt 0.40234375 0.5600586
vt 0.5708008 0.5517578
vt 0.5708008 0.45898438
vt 0.4645996 0.45898438
vt 0.4645996 0.5517578
vt 0.46313477 0.3581543
vt 0.46313477 0.45117188
vt 0.56933594 0.45117188
vt 0.56933594 0.3581543
vt 0.40234375 0.5600586
vt 0.40234375 0.65283203
vt 0.49536133 0.65283203
vt 0.49536133 0.5600586
vt 0.56933594 0.3581543
vt 0.46313477 0.3581543
vt 0.46313477 0.45117188
vt 0.56933594 0.45117188
vt 0.49536133 0.5600586
vt 0.40234375 0.5600586
vt 0.40234375 0.65283203
vt 0.49536133 0.65283203
vn -0 2.3841858E-07 -1
vn -0 2.3841858E-07 -1
vn -0 2.3841858E-07 -1
vn -0 2.3841858E-07 -1
vn -0 -2.3841858E-07 1
vn -0 -2.3841858E-07 1
vn -0 -2.3841858E-07 1
vn -0 -2.3841858E-07 1
vn -0 1 4.7683716E-07
vn -0 1 4.7683716E-07
vn -0 1 4.7683716E-07
vn -0 1 4.7683716E-07
vn -1 0 0
vn -1 0 0
vn -1 0 0
vn -1 0 0
vn -0 -1 -4.172325E-07
vn -0 -1 -4.172325E-07
vn -0 -1 -4.172325E-07
vn -0 -1 -4.172325E-07
vn 1 0 0
vn 1 0 0
vn 1 0 0
vn 1 0 0
g MainCity_Prop_Cabinet_05_0
f 3/3/3 2/2/2 1/1/1
f 4/4/4 3/3/3 1/1/1
f 7/7/7 6/6/6 5/5/5
f 8/8/8 7/7/7 5/5/5
f 11/11/11 10/10/10 9/9/9
f 12/12/12 11/11/11 9/9/9
f 15/15/15 14/14/14 13/13/13
f 16/16/16 15/15/15 13/13/13
f 19/19/19 18/18/18 17/17/17
f 20/20/20 19/19/19 17/17/17
f 23/23/23 22/22/22 21/21/21
f 24/24/24 23/23/23 21/21/21
