g MainCity_Prop_ManholeCover_01
v 0.2652867 1.7763568E-17 -0.26528168
v 0.18758743 0.07269465 -0.32490233
v 0.18758757 2.3841857E-09 -0.32490233
v 0.26528656 0.07269465 -0.26528168
v 0.32490736 1.3322676E-17 -0.18758239
v 0.3249072 0.07269465 -0.18758246
v 0.36238647 4.440892E-18 -0.09709975
v 0.36238632 0.07269465 -0.097099826
v 0.37516996 0 -6.67572E-08
v 0.3751698 0.07269465 -6.67572E-08
v 0.36238647 4.7683715E-09 0.0971
v 0.36238632 0.07269465 0.0971
v 0.32490736 -1.3322676E-17 0.18758255
v 0.3249072 0.07269465 0.18758255
v 0.26528656 2.3841857E-09 0.26528174
v 0.26528642 0.07269465 0.26528174
v 0.18758743 2.3841857E-09 0.3249024
v 0.18758728 0.07269465 0.32490233
v 0.097104795 4.7683715E-09 0.36238143
v 0.097104646 0.07269465 0.36238143
v 5.0354E-06 2.3841857E-09 0.37516484
v 4.7302246E-06 0.07269465 0.37516484
v -0.09709488 4.7683715E-09 0.3623813
v -0.09709503 0.07269465 0.3623813
v -0.18757752 2.3841857E-09 0.32490215
v -0.18757766 0.07269465 0.32490215
v -0.2652765 2.3841857E-09 0.26528144
v -0.2652768 0.07269465 0.26528144
v -0.32489714 -1.3322676E-17 0.18758217
v -0.32489747 0.07269465 0.18758217
v -0.36237624 4.7683715E-09 0.09709962
v -0.36237654 0.07269465 0.09709962
v -0.37515974 0 -2.1934508E-07
v -0.3751599 0.07269465 -2.1934508E-07
v -0.36237624 4.440892E-18 -0.0970999
v -0.36237654 0.07269465 -0.09709998
v -0.324897 1.3322676E-17 -0.18758255
v -0.32489714 0.07269465 -0.18758255
v -0.26527634 1.7763568E-17 -0.26528168
v -0.2652765 0.07269465 -0.26528168
v -0.1875772 2.3841857E-09 -0.32490233
v -0.18757752 0.07269465 -0.32490233
v -0.09709488 2.2204459E-17 -0.36238152
v -0.09709488 0.07269465 -0.36238152
v 5.1879883E-06 2.3841857E-09 -0.37516472
v 5.0354E-06 0.07269465 -0.37516487
v 0.097104944 2.2204459E-17 -0.36238152
v 0.097104795 0.07269465 -0.36238152
v 0.18758757 2.3841857E-09 -0.32490233
v 0.18758743 0.07269465 -0.32490233
v 4.7302246E-06 0.07269465 0.37516484
v 0.18758728 0.07269465 0.32490233
v 0.097104646 0.07269465 0.36238143
v -0.09709503 0.07269465 0.3623813
v -0.18757766 0.07269465 0.32490215
v -0.2652768 0.07269465 0.26528144
v -0.32489747 0.07269465 0.18758217
v -0.36237654 0.07269465 0.09709962
v -0.3751599 0.07269465 -2.1934508E-07
v -0.36237654 0.07269465 -0.09709998
v -0.32489714 0.07269465 -0.18758255
v -0.2652765 0.07269465 -0.26528168
v -0.18757752 0.07269465 -0.32490233
v -0.09709488 0.07269465 -0.36238152
v 5.0354E-06 0.07269465 -0.37516487
v 0.097104795 0.07269465 -0.36238152
v 0.18758743 0.07269465 -0.32490233
v 0.26528656 0.07269465 -0.26528168
v 0.3249072 0.07269465 -0.18758246
v 0.36238632 0.07269465 -0.097099826
v 0.3751698 0.07269465 -6.67572E-08
v 0.36238632 0.07269465 0.0971
v 0.3249072 0.07269465 0.18758255
v 0.26528642 0.07269465 0.26528174
vt 0.042816162 0.019958496
vt 0.00806427 0.0025234222
vt 0.00806427 0.019958496
vt 0.042816162 0.0025234222
vt 0.07757568 0.019958496
vt 0.07757568 0.0025234222
vt 0.11230469 0.019958496
vt 0.11230469 0.0025234222
vt 0.14709473 0.019958496
vt 0.14709473 0.0025234222
vt 0.18188477 0.019958496
vt 0.18188477 0.0025234222
vt 0.21655273 0.019958496
vt 0.21655273 0.0025234222
vt 0.25146484 0.019958496
vt 0.25146484 0.0025234222
vt 0.2861328 0.019958496
vt 0.2861328 0.0025234222
vt 0.32104492 0.019958496
vt 0.32104492 0.0025234222
vt 0.3557129 0.019958496
vt 0.3557129 0.0025234222
vt 0.39038086 0.019958496
vt 0.39038086 0.0025234222
vt 0.42529297 0.019958496
vt 0.42529297 0.0025234222
vt 0.45996094 0.019958496
vt 0.45996094 0.0025234222
vt 0.49487305 0.019958496
vt 0.49487305 0.0025234222
vt 0.52978516 0.019958496
vt 0.52978516 0.0025234222
vt 0.5644531 0.019958496
vt 0.5644531 0.0025234222
vt 0.5991211 0.019958496
vt 0.5991211 0.0025234222
vt 0.63378906 0.019958496
vt 0.63378906 0.0025234222
vt 0.6689453 0.019958496
vt 0.6689453 0.0025234222
vt 0.7036133 0.019958496
vt 0.7036133 0.0025234222
vt 0.73828125 0.019958496
vt 0.73828125 0.0025234222
vt 0.7729492 0.019958496
vt 0.7729492 0.0025234222
vt 0.8076172 0.019958496
vt 0.8076172 0.0025234222
vt 0.84228516 0.019958496
vt 0.84228516 0.0025234222
vt 0.140625 0.7241211
vt 0.20715332 0.7416992
vt 0.17504883 0.7285156
vt 0.10620117 0.7285156
vt 0.07409668 0.7416992
vt 0.04650879 0.7631836
vt 0.025360107 0.79052734
vt 0.012069702 0.8227539
vt 0.007537842 0.8574219
vt 0.012069702 0.89160156
vt 0.025360107 0.9238281
vt 0.04650879 0.9511719
vt 0.07409668 0.97265625
vt 0.10620117 0.98583984
vt 0.140625 0.9902344
vt 0.17504883 0.98583984
vt 0.20715332 0.97265625
vt 0.23474121 0.9511719
vt 0.25585938 0.9238281
vt 0.26904297 0.89160156
vt 0.27368164 0.8574219
vt 0.26904297 0.8227539
vt 0.25585938 0.79052734
vt 0.23474121 0.7631836
vn 0.70703125 1.3113022E-06 -0.70703125
vn 0.5 1.0728836E-06 -0.86621094
vn 0.5 1.0728836E-06 -0.86621094
vn 0.70703125 1.3113022E-06 -0.70703125
vn 0.86621094 1.4305115E-06 -0.5
vn 0.86621094 1.4305115E-06 -0.5
vn 0.9658203 1.7881393E-06 -0.25878906
vn 0.9658203 1.7881393E-06 -0.25878906
vn 1 2.0861626E-06 -2.3841858E-07
vn 1 2.0861626E-06 -2.3841858E-07
vn 0.9658203 2.026558E-06 0.25878906
vn 0.9658203 2.026558E-06 0.25878906
vn 0.86621094 1.7881393E-06 0.5
vn 0.86621094 1.7881393E-06 0.5
vn 0.70703125 1.6093254E-06 0.70703125
vn 0.70703125 1.6093254E-06 0.70703125
vn 0.5 1.2516975E-06 0.86621094
vn 0.5 1.2516975E-06 0.86621094
vn 0.25878906 7.1525574E-07 0.9658203
vn 0.25878906 7.1525574E-07 0.9658203
vn -2.3841858E-07 0 1
vn -9.536743E-07 0 1
vn -0.25878906 -5.9604645E-07 0.9658203
vn -0.25878906 -5.9604645E-07 0.9658203
vn -0.5 -1.3709068E-06 0.86621094
vn -0.5 -1.3709068E-06 0.86621094
vn -0.70703125 -2.6226044E-06 0.70703125
vn -0.70703125 -2.6226044E-06 0.70703125
vn -0.86621094 -3.6358833E-06 0.5
vn -0.86621094 -3.6358833E-06 0.5
vn -0.9658203 -3.516674E-06 0.25878906
vn -0.9658203 -3.516674E-06 0.25878906
vn -1 -3.1590462E-06 0
vn -1 -3.1590462E-06 0
vn -0.9658203 -3.1590462E-06 -0.25878906
vn -0.9658203 -3.1590462E-06 -0.25878906
vn -0.86621094 -2.3841858E-06 -0.5
vn -0.86621094 -2.3841858E-06 -0.5
vn -0.70703125 -1.7881393E-06 -0.70703125
vn -0.70703125 -1.7881393E-06 -0.70703125
vn -0.5 -1.3709068E-06 -0.86621094
vn -0.5 -1.3709068E-06 -0.86621094
vn -0.25878906 -1.013279E-06 -0.9658203
vn -0.25878906 -1.013279E-06 -0.9658203
vn 2.9802322E-07 -9.536743E-07 -1
vn -0 -9.536743E-07 -1
vn 0.25878906 0 -0.9658203
vn 0.25878906 0 -0.9658203
vn 0.5 1.0728836E-06 -0.86621094
vn 0.5 1.0728836E-06 -0.86621094
vn -0 1 0
vn -0 1 0
vn -0 1 0
vn -0 1 0
vn -0 1 0
vn -0 1 0
vn -0 1 0
vn -0 1 0
vn -0 1 0
vn -0 1 0
vn -0 1 0
vn -0 1 0
vn -0 1 0
vn -0 1 0
vn -0 1 0
vn -0 1 0
vn -0 1 0
vn -0 1 0
vn -0 1 0
vn -0 1 0
vn -0 1 0
vn -0 1 0
vn -0 1 0
vn -0 1 0
g MainCity_Prop_ManholeCover_01_0
f 3/3/3 2/2/2 1/1/1
f 2/2/2 4/4/4 1/1/1
f 1/1/1 4/4/4 5/5/5
f 4/4/4 6/6/6 5/5/5
f 5/5/5 6/6/6 7/7/7
f 6/6/6 8/8/8 7/7/7
f 7/7/7 8/8/8 9/9/9
f 8/8/8 10/10/10 9/9/9
f 9/9/9 10/10/10 11/11/11
f 10/10/10 12/12/12 11/11/11
f 11/11/11 12/12/12 13/13/13
f 12/12/12 14/14/14 13/13/13
f 13/13/13 14/14/14 15/15/15
f 14/14/14 16/16/16 15/15/15
f 15/15/15 16/16/16 17/17/17
f 16/16/16 18/18/18 17/17/17
f 17/17/17 18/18/18 19/19/19
f 18/18/18 20/20/20 19/19/19
f 19/19/19 20/20/20 21/21/21
f 20/20/20 22/22/22 21/21/21
f 21/21/21 22/22/22 23/23/23
f 22/22/22 24/24/24 23/23/23
f 23/23/23 24/24/24 25/25/25
f 24/24/24 26/26/26 25/25/25
f 25/25/25 26/26/26 27/27/27
f 26/26/26 28/28/28 27/27/27
f 27/27/27 28/28/28 29/29/29
f 28/28/28 30/30/30 29/29/29
f 29/29/29 30/30/30 31/31/31
f 30/30/30 32/32/32 31/31/31
f 31/31/31 32/32/32 33/33/33
f 32/32/32 34/34/34 33/33/33
f 33/33/33 34/34/34 35/35/35
f 34/34/34 36/36/36 35/35/35
f 35/35/35 36/36/36 37/37/37
f 36/36/36 38/38/38 37/37/37
f 37/37/37 38/38/38 39/39/39
f 38/38/38 40/40/40 39/39/39
f 39/39/39 40/40/40 41/41/41
f 40/40/40 42/42/42 41/41/41
f 41/41/41 42/42/42 43/43/43
f 42/42/42 44/44/44 43/43/43
f 43/43/43 44/44/44 45/45/45
f 44/44/44 46/46/46 45/45/45
f 45/45/45 46/46/46 47/47/47
f 46/46/46 48/48/48 47/47/47
f 47/47/47 48/48/48 49/49/49
f 48/48/48 50/50/50 49/49/49
f 53/53/53 52/52/52 51/51/51
f 51/51/51 52/52/52 54/54/54
f 54/54/54 52/52/52 55/55/55
f 55/55/55 52/52/52 56/56/56
f 56/56/56 52/52/52 57/57/57
f 57/57/57 52/52/52 58/58/58
f 58/58/58 52/52/52 59/59/59
f 59/59/59 52/52/52 60/60/60
f 60/60/60 52/52/52 61/61/61
f 61/61/61 52/52/52 62/62/62
f 62/62/62 52/52/52 63/63/63
f 63/63/63 52/52/52 64/64/64
f 64/64/64 52/52/52 65/65/65
f 65/65/65 52/52/52 66/66/66
f 66/66/66 52/52/52 67/67/67
f 67/67/67 52/52/52 68/68/68
f 68/68/68 52/52/52 69/69/69
f 69/69/69 52/52/52 70/70/70
f 70/70/70 52/52/52 71/71/71
f 71/71/71 52/52/52 72/72/72
f 72/72/72 52/52/52 73/73/73
f 73/73/73 52/52/52 74/74/74
