g MainCity_Prop_ManholeCover_05
v 0.16921325 -1.7763568E-17 0.2930752
v 0.23930115 0.07269465 0.23929496
v 0.23930115 4.7683715E-09 0.23929496
v 0.16921325 0.07269465 0.2930752
v 0.0875943 -2.2204459E-17 0.32688284
v 0.0875943 0.07269465 0.32688284
v 6.1035153E-06 -2.2204459E-17 0.33841404
v 6.2561035E-06 0.07269465 0.33841404
v -0.087581635 -2.2204459E-17 0.32688275
v -0.087581635 0.07269465 0.32688275
v -0.16920044 -1.7763568E-17 0.29307503
v -0.16920044 0.07269465 0.29307503
v -0.23928833 4.7683715E-09 0.23929474
v -0.23928833 0.07269465 0.23929474
v -0.29306853 -8.881784E-18 0.16920684
v -0.29306853 0.07269465 0.16920684
v -0.32687652 2.3841857E-09 0.08758795
v -0.32687637 0.07269465 0.08758788
v -0.33840743 0 -9.536743E-09
v -0.33840743 0.07269465 -8.5830685E-08
v -0.32687652 4.7683715E-09 -0.087588124
v -0.32687637 0.07269465 -0.087588124
v -0.29306853 2.3841857E-09 -0.16920699
v -0.29306853 0.07269465 -0.16920707
v -0.23928817 2.3841857E-09 -0.23929489
v -0.23928817 0.07269465 -0.23929489
v -0.16920044 2.3841857E-09 -0.29307503
v -0.16920044 0.07269465 -0.29307508
v -0.087581635 2.3841857E-09 -0.32688284
v -0.08758148 0.07269465 -0.32688284
v 6.561279E-06 2.3841857E-09 -0.33841392
v 6.561279E-06 0.07269465 -0.33841398
v 0.087594606 2.3841857E-09 -0.32688284
v 0.087594606 0.07269465 -0.32688284
v 0.16921356 2.3841857E-09 -0.29307508
v 0.16921356 0.07269465 -0.29307508
v 0.23930144 2.3841857E-09 -0.23929489
v 0.23930144 0.07269465 -0.23929481
v 0.29308167 2.3841857E-09 -0.16920699
v 0.29308167 0.07269465 -0.16920699
v 0.32688904 4.7683715E-09 -0.087587975
v 0.32688934 0.07269465 -0.087587975
v 0.3384204 0 -9.536743E-09
v 0.3384204 0.07269465 -9.536743E-09
v 0.32688904 2.3841857E-09 0.08758811
v 0.32688904 0.07269465 0.08758818
v 0.29308134 -8.881784E-18 0.16920723
v 0.29308134 0.07269465 0.16920723
v 0.23930115 4.7683715E-09 0.23929496
v 0.23930115 0.07269465 0.23929496
v 0.0875943 0.07269465 0.32688284
v 0.23930115 0.07269465 0.23929496
v 0.16921325 0.07269465 0.2930752
v 6.2561035E-06 0.07269465 0.33841404
v -0.087581635 0.07269465 0.32688275
v -0.16920044 0.07269465 0.29307503
v -0.23928833 0.07269465 0.23929474
v -0.29306853 0.07269465 0.16920684
v -0.32687637 0.07269465 0.08758788
v -0.33840743 0.07269465 -8.5830685E-08
v -0.32687637 0.07269465 -0.087588124
v -0.29306853 0.07269465 -0.16920707
v -0.23928817 0.07269465 -0.23929489
v -0.16920044 0.07269465 -0.29307508
v -0.08758148 0.07269465 -0.32688284
v 6.561279E-06 0.07269465 -0.33841398
v 0.087594606 0.07269465 -0.32688284
v 0.16921356 0.07269465 -0.29307508
v 0.23930144 0.07269465 -0.23929481
v 0.29308167 0.07269465 -0.16920699
v 0.32688934 0.07269465 -0.087587975
v 0.3384204 0.07269465 -9.536743E-09
v 0.32688904 0.07269465 0.08758818
v 0.29308134 0.07269465 0.16920723
vt 0.7294922 0.048461914
vt 0.7607422 0.06591797
vt 0.7607422 0.048461914
vt 0.7294922 0.06591797
vt 0.6977539 0.048461914
vt 0.6977539 0.06591797
vt 0.6665039 0.048461914
vt 0.6665039 0.06591797
vt 0.6352539 0.048461914
vt 0.6352539 0.06591797
vt 0.6040039 0.048461914
vt 0.6040039 0.06591797
vt 0.5727539 0.048461914
vt 0.5727539 0.06591797
vt 0.5410156 0.048461914
vt 0.5410156 0.06591797
vt 0.5097656 0.048461914
vt 0.5097656 0.06591797
vt 0.47851562 0.048461914
vt 0.47851562 0.06591797
vt 0.44702148 0.048461914
vt 0.44702148 0.06591797
vt 0.41577148 0.048461914
vt 0.41577148 0.06591797
vt 0.38427734 0.048461914
vt 0.38427734 0.06591797
vt 0.35302734 0.048461914
vt 0.35302734 0.06591797
vt 0.3215332 0.048461914
vt 0.3215332 0.06591797
vt 0.2902832 0.048461914
vt 0.2902832 0.06591797
vt 0.25878906 0.048461914
vt 0.25878906 0.06591797
vt 0.22741699 0.048461914
vt 0.22741699 0.06591797
vt 0.19604492 0.048461914
vt 0.19604492 0.06591797
vt 0.16467285 0.048461914
vt 0.16467285 0.06591797
vt 0.13342285 0.048461914
vt 0.13342285 0.06591797
vt 0.101989746 0.048461914
vt 0.101989746 0.06591797
vt 0.07067871 0.048461914
vt 0.07067871 0.06591797
vt 0.03930664 0.048461914
vt 0.03930664 0.06591797
vt 0.007980347 0.048461914
vt 0.007980347 0.06591797
vt 0.7373047 0.1875
vt 0.7910156 0.21862793
vt 0.7661133 0.19946289
vt 0.70654297 0.18347168
vt 0.67529297 0.1875
vt 0.6464844 0.19946289
vt 0.62158203 0.21862793
vt 0.60253906 0.2434082
vt 0.59033203 0.27246094
vt 0.5864258 0.3034668
vt 0.59033203 0.33447266
vt 0.60253906 0.3635254
vt 0.62158203 0.38842773
vt 0.6464844 0.4074707
vt 0.67529297 0.4194336
vt 0.70654297 0.42358398
vt 0.7373047 0.4194336
vt 0.7661133 0.4074707
vt 0.7910156 0.38842773
vt 0.8100586 0.3635254
vt 0.8222656 0.33447266
vt 0.8261719 0.3034668
vt 0.8222656 0.27246094
vt 0.8100586 0.2434082
vn 0.5 0 0.86621094
vn 0.70703125 0 0.70703125
vn 0.70703125 0 0.70703125
vn 0.5 0 0.86621094
vn 0.25878906 0 0.9658203
vn 0.25878906 0 0.9658203
vn -1.013279E-06 0 1
vn -7.1525574E-07 0 1
vn -0.25878906 0 0.9658203
vn -0.25878906 0 0.9658203
vn -0.5 0 0.86621094
vn -0.5 0 0.86621094
vn -0.70703125 0 0.70703125
vn -0.70703125 0 0.70703125
vn -0.86621094 5.9604645E-07 0.5
vn -0.86621094 5.9604645E-07 0.5
vn -0.9658203 1.1920929E-06 0.25878906
vn -0.9658203 1.1920929E-06 0.25878906
vn -1 1.0728836E-06 1.7881393E-07
vn -1 1.0728836E-06 0
vn -0.9658203 8.940697E-07 -0.25878906
vn -0.9658203 8.940697E-07 -0.25878906
vn -0.86621094 2.3841858E-07 -0.5
vn -0.86621094 2.3841858E-07 -0.5
vn -0.70703125 -3.5762787E-07 -0.70703125
vn -0.70703125 -3.5762787E-07 -0.70703125
vn -0.5 -2.3841858E-07 -0.86621094
vn -0.5 -2.3841858E-07 -0.86621094
vn -0.25878906 -2.3841858E-07 -0.9658203
vn -0.25878906 -2.3841858E-07 -0.9658203
vn -0 -4.7683716E-07 -1
vn -0 -4.7683716E-07 -1
vn 0.25878906 -2.3841858E-07 -0.9658203
vn 0.25878906 -2.3841858E-07 -0.9658203
vn 0.5 2.3841858E-07 -0.86621094
vn 0.5 2.3841858E-07 -0.86621094
vn 0.70703125 3.5762787E-07 -0.70703125
vn 0.70703125 3.5762787E-07 -0.70703125
vn 0.86621094 -8.34465E-07 -0.5
vn 0.86621094 -8.34465E-07 -0.5
vn 0.9658203 -2.026558E-06 -0.25878906
vn 0.9658203 -2.026558E-06 -0.25878906
vn 1 -1.0728836E-06 7.1525574E-07
vn 1 -1.0728836E-06 7.1525574E-07
vn 0.9658203 -1.1920929E-07 0.25878906
vn 0.9658203 -1.1920929E-07 0.25878906
vn 0.86621094 -1.1920929E-07 0.5
vn 0.86621094 -1.1920929E-07 0.5
vn 0.70703125 0 0.70703125
vn 0.70703125 0 0.70703125
vn -0 1 0
vn -0 1 0
vn -0 1 0
vn -0 1 0
vn -0 1 0
vn -0 1 0
vn -0 1 0
vn -0 1 0
vn -0 1 0
vn -0 1 0
vn -0 1 0
vn -0 1 0
vn -0 1 0
vn -0 1 0
vn -0 1 0
vn -0 1 0
vn -0 1 0
vn -0 1 0
vn -0 1 0
vn -0 1 0
vn -0 1 0
vn -0 1 0
vn -0 1 0
vn -0 1 0
g MainCity_Prop_ManholeCover_05_0
f 3/3/3 2/2/2 1/1/1
f 2/2/2 4/4/4 1/1/1
f 1/1/1 4/4/4 5/5/5
f 4/4/4 6/6/6 5/5/5
f 5/5/5 6/6/6 7/7/7
f 6/6/6 8/8/8 7/7/7
f 7/7/7 8/8/8 9/9/9
f 8/8/8 10/10/10 9/9/9
f 9/9/9 10/10/10 11/11/11
f 10/10/10 12/12/12 11/11/11
f 11/11/11 12/12/12 13/13/13
f 12/12/12 14/14/14 13/13/13
f 13/13/13 14/14/14 15/15/15
f 14/14/14 16/16/16 15/15/15
f 15/15/15 16/16/16 17/17/17
f 16/16/16 18/18/18 17/17/17
f 17/17/17 18/18/18 19/19/19
f 18/18/18 20/20/20 19/19/19
f 19/19/19 20/20/20 21/21/21
f 20/20/20 22/22/22 21/21/21
f 21/21/21 22/22/22 23/23/23
f 22/22/22 24/24/24 23/23/23
f 23/23/23 24/24/24 25/25/25
f 24/24/24 26/26/26 25/25/25
f 25/25/25 26/26/26 27/27/27
f 26/26/26 28/28/28 27/27/27
f 27/27/27 28/28/28 29/29/29
f 28/28/28 30/30/30 29/29/29
f 29/29/29 30/30/30 31/31/31
f 30/30/30 32/32/32 31/31/31
f 31/31/31 32/32/32 33/33/33
f 32/32/32 34/34/34 33/33/33
f 33/33/33 34/34/34 35/35/35
f 34/34/34 36/36/36 35/35/35
f 35/35/35 36/36/36 37/37/37
f 36/36/36 38/38/38 37/37/37
f 37/37/37 38/38/38 39/39/39
f 38/38/38 40/40/40 39/39/39
f 39/39/39 40/40/40 41/41/41
f 40/40/40 42/42/42 41/41/41
f 41/41/41 42/42/42 43/43/43
f 42/42/42 44/44/44 43/43/43
f 43/43/43 44/44/44 45/45/45
f 44/44/44 46/46/46 45/45/45
f 45/45/45 46/46/46 47/47/47
f 46/46/46 48/48/48 47/47/47
f 47/47/47 48/48/48 49/49/49
f 48/48/48 50/50/50 49/49/49
f 53/53/53 52/52/52 51/51/51
f 51/51/51 52/52/52 54/54/54
f 54/54/54 52/52/52 55/55/55
f 55/55/55 52/52/52 56/56/56
f 56/56/56 52/52/52 57/57/57
f 57/57/57 52/52/52 58/58/58
f 58/58/58 52/52/52 59/59/59
f 59/59/59 52/52/52 60/60/60
f 60/60/60 52/52/52 61/61/61
f 61/61/61 52/52/52 62/62/62
f 62/62/62 52/52/52 63/63/63
f 63/63/63 52/52/52 64/64/64
f 64/64/64 52/52/52 65/65/65
f 65/65/65 52/52/52 66/66/66
f 66/66/66 52/52/52 67/67/67
f 67/67/67 52/52/52 68/68/68
f 68/68/68 52/52/52 69/69/69
f 69/69/69 52/52/52 70/70/70
f 70/70/70 52/52/52 71/71/71
f 71/71/71 52/52/52 72/72/72
f 72/72/72 52/52/52 73/73/73
f 73/73/73 52/52/52 74/74/74
