g MainCity_Prop_Seasoning_01
v -0.079153135 0.15191878 3.0517577E-07
v -0.07024292 0.16405845 -0.033252563
v -0.07915283 0.16405854 3.0517577E-07
v -0.07024292 0.15191871 -0.033252563
v -0.04589996 0.16405837 -0.05759567
v -0.065875545 0.14704993 -0.030730896
v -0.074110106 0.14704993 3.0517577E-07
v -0.043378294 0.14704986 -0.053228147
v -0.04589996 0.15191863 -0.05759567
v -0.01264679 0.16405822 -0.06650558
v -0.01264679 0.14704964 -0.061462402
v -0.01264679 0.15191841 -0.06650558
v 0.020606384 0.16405837 -0.05759567
v 0.018084716 0.14704986 -0.053228147
v 0.020606384 0.15191863 -0.05759567
v 0.044949036 0.16405845 -0.033252563
v 0.040581666 0.14704993 -0.030730896
v 0.044949036 0.15191871 -0.033252563
v 0.053858947 0.16405845 3.0517577E-07
v 0.048815917 0.14704993 3.0517577E-07
v 0.053858947 0.15191871 3.0517577E-07
v 0.044949036 0.16405845 0.033253327
v 0.053858947 0.16405845 3.0517577E-07
v 0.053858947 0.15191871 3.0517577E-07
v 0.044949036 0.15191871 0.03325348
v 0.020606384 0.16405837 0.057596587
v 0.040581666 0.14704993 0.030731963
v 0.048815917 0.14704993 3.0517577E-07
v 0.018084716 0.14704993 0.053229064
v 0.020606384 0.15191863 0.057596587
v -0.01264679 0.16405854 0.0665065
v -0.01264679 0.14704986 0.061463468
v -0.01264679 0.15191878 0.066506654
v -0.04589996 0.16405837 0.057596587
v -0.043378294 0.14704993 0.053229064
v -0.04589996 0.15191863 0.057596587
v -0.07024292 0.16405845 0.033253327
v -0.065875545 0.14704993 0.030731963
v -0.07024292 0.15191871 0.03325348
v -0.07915283 0.16405854 3.0517577E-07
v -0.074110106 0.14704993 3.0517577E-07
v -0.079153135 0.15191878 3.0517577E-07
v -0.07024292 0.16405845 -0.033252563
v -0.0665036 0.16405845 3.0517577E-07
v -0.07915283 0.16405854 3.0517577E-07
v -0.059288025 0.16405845 -0.026927948
v -0.04589996 0.16405837 -0.05759567
v -0.03957504 0.16405837 -0.04664093
v -0.01264679 0.16405822 -0.06650558
v -0.01264679 0.16405837 -0.0538562
v 0.020606384 0.16405837 -0.05759567
v 0.014281463 0.16405837 -0.04664093
v 0.044949036 0.16405845 -0.033252563
v 0.033994444 0.16405845 -0.026927948
v 0.053858947 0.16405845 3.0517577E-07
v 0.041209716 0.16405845 3.0517577E-07
v -0.0665036 0.16405845 3.0517577E-07
v -0.07024292 0.16405845 0.033253327
v -0.07915283 0.16405854 3.0517577E-07
v -0.059288025 0.16405845 0.026928863
v -0.03957504 0.16405845 0.04664154
v -0.04589996 0.16405837 0.057596587
v -0.01264679 0.16405837 0.053857114
v -0.01264679 0.16405854 0.0665065
v 0.014281463 0.16405845 0.04664154
v 0.020606384 0.16405837 0.057596587
v 0.033994444 0.16405845 0.026928863
v 0.044949036 0.16405845 0.033253327
v 0.041209716 0.16405845 3.0517577E-07
v 0.053858947 0.16405845 3.0517577E-07
v -0.0741098 -3.8146972E-08 3.0517577E-07
v -0.065875545 0.14704993 -0.030730896
v -0.074110106 0.14704993 3.0517577E-07
v -0.065875545 -3.8146972E-08 -0.030730896
v -0.043378294 0.14704986 -0.053228147
v -0.043378294 -1.14440915E-07 -0.053228147
v -0.01264679 0.14704964 -0.061462402
v -0.01264679 -2.670288E-07 -0.061462402
v 0.018084716 0.14704986 -0.053228147
v 0.018084716 -1.14440915E-07 -0.053228147
v 0.040581666 0.14704993 -0.030730896
v 0.040581666 -3.8146972E-08 -0.030730896
v 0.048815917 0.14704993 3.0517577E-07
v 0.048815917 -3.8146972E-08 3.0517577E-07
v -0.074110106 0.14704993 3.0517577E-07
v -0.065875545 -3.8146972E-08 0.03073181
v -0.0741098 -3.8146972E-08 3.0517577E-07
v -0.065875545 0.14704993 0.030731963
v -0.043378294 -1.14440915E-07 0.053229064
v -0.043378294 0.14704993 0.053229064
v -0.01264679 -1.14440915E-07 0.061463315
v -0.01264679 0.14704986 0.061463468
v 0.018084716 -1.14440915E-07 0.053229064
v 0.018084716 0.14704993 0.053229064
v 0.040581666 -3.8146972E-08 0.03073181
v 0.040581666 0.14704993 0.030731963
v 0.048815917 -3.8146972E-08 3.0517577E-07
v 0.048815917 0.14704993 3.0517577E-07
v 0.020569915 0.11895422 0.006702728
v 0.05128601 0.2620742 -0.006695709
v 0.02057022 0.11895422 -0.006699371
v 0.051272888 0.26203898 0.00670639
v 0.06103958 0.26830888 -0.006689606
v 0.061217498 0.26850733 0.006712494
v 0.07089264 0.26223078 0.006717987
v 0.07087112 0.2621614 -0.0066841124
v 0.07907852 0.24483436 0.006721191
v 0.07904938 0.24489765 -0.006680908
v 0.05115387 0.2620978 -0.0067007444
v 0.020500641 0.11942194 0.006701355
v 0.020500945 0.11942194 -0.0067007444
v 0.051153563 0.2620977 0.006701355
v 0.06122406 0.26861075 0.006701355
v 0.06103668 0.26840726 -0.0067007444
v 0.0709375 0.26225945 0.006701355
v 0.070937805 0.26225936 -0.0067007444
v 0.07915283 0.24486716 0.006701355
v 0.079153135 0.24486716 -0.0067007444
v 0.018084716 -1.14440915E-07 0.053229064
v 0.040581666 -3.8146972E-08 0.03073181
v 0.048815917 -3.8146972E-08 3.0517577E-07
v -0.01264679 -1.14440915E-07 0.061463315
v -0.0741098 -3.8146972E-08 3.0517577E-07
v -0.043378294 -1.14440915E-07 0.053229064
v -0.065875545 -3.8146972E-08 0.03073181
v -0.01264679 -2.670288E-07 -0.061462402
v -0.043378294 -1.14440915E-07 -0.053228147
v -0.065875545 -3.8146972E-08 -0.030730896
v -0.0741098 -3.8146972E-08 3.0517577E-07
v 0.048815917 -3.8146972E-08 3.0517577E-07
v 0.018084716 -1.14440915E-07 -0.053228147
v 0.040581666 -3.8146972E-08 -0.030730896
v 0.027983092 0.12588501 0.040630188
v -0.01264679 0.12588495 0.059486695
v 0.046839293 0.12588502 3.0517577E-07
v 0.027983092 0.12588501 -0.040629577
v -0.01264679 0.12588495 -0.05948578
v -0.01264679 0.12588495 -0.05948578
v -0.01264679 0.12588495 0.059486695
v -0.05327652 0.12588489 -0.040629577
v -0.072133176 0.12588488 3.0517577E-07
v -0.05327652 0.12588489 0.040630188
v -0.0665036 0.16405845 3.0517577E-07
v -0.0665036 0.123468235 3.0517577E-07
v -0.059288025 0.123468235 0.026928863
v -0.059288025 0.16405845 0.026928863
v -0.03957504 0.123468235 0.04664154
v -0.03957504 0.16405845 0.04664154
v -0.01264679 0.12346816 0.053857114
v -0.01264679 0.16405837 0.053857114
v 0.014281463 0.123468235 0.04664154
v 0.014281463 0.16405845 0.04664154
v 0.033994444 0.123468235 0.026928863
v 0.033994444 0.16405845 0.026928863
v 0.041209716 0.123468235 3.0517577E-07
v 0.041209716 0.16405845 3.0517577E-07
v 0.041209716 0.16405845 3.0517577E-07
v 0.041209716 0.123468235 3.0517577E-07
v 0.033994444 0.123468235 -0.026927948
v 0.033994444 0.16405845 -0.026927948
v 0.014281463 0.12346816 -0.04664093
v 0.014281463 0.16405837 -0.04664093
v -0.01264679 0.12346816 -0.0538562
v -0.01264679 0.16405837 -0.0538562
v -0.03957504 0.12346816 -0.04664093
v -0.03957504 0.16405837 -0.04664093
v -0.059288025 0.123468235 -0.026927948
v -0.059288025 0.16405845 -0.026927948
v -0.0665036 0.123468235 3.0517577E-07
v -0.0665036 0.16405845 3.0517577E-07
vt 0.6640625 0.08148193
vt 0.6508789 0.08618164
vt 0.6640625 0.08618164
vt 0.6508789 0.08148193
vt 0.63720703 0.08618164
vt 0.6508789 0.07867432
vt 0.6640625 0.07867432
vt 0.63720703 0.07867432
vt 0.63720703 0.08148193
vt 0.62402344 0.08618164
vt 0.62402344 0.07867432
vt 0.62402344 0.08148193
vt 0.61083984 0.08618164
vt 0.61083984 0.07867432
vt 0.61083984 0.08148193
vt 0.59716797 0.08618164
vt 0.59716797 0.07867432
vt 0.59716797 0.08148193
vt 0.5839844 0.08618164
vt 0.5839844 0.07867432
vt 0.5839844 0.08148193
vt 0.59716797 0.08618164
vt 0.5839844 0.08618164
vt 0.5839844 0.08148193
vt 0.59716797 0.08148193
vt 0.61083984 0.08618164
vt 0.59716797 0.07867432
vt 0.5839844 0.07867432
vt 0.61083984 0.07867432
vt 0.61083984 0.08148193
vt 0.62402344 0.08618164
vt 0.62402344 0.07867432
vt 0.62402344 0.08148193
vt 0.63720703 0.08618164
vt 0.63720703 0.07867432
vt 0.63720703 0.08148193
vt 0.6508789 0.08618164
vt 0.6508789 0.07867432
vt 0.6508789 0.08148193
vt 0.6640625 0.08618164
vt 0.6640625 0.07867432
vt 0.6640625 0.08148193
vt 0.69384766 0.33789062
vt 0.6791992 0.33203125
vt 0.6791992 0.33789062
vt 0.69384766 0.33203125
vt 0.7084961 0.33789062
vt 0.7084961 0.33203125
vt 0.72314453 0.33789062
vt 0.72314453 0.33203125
vt 0.73779297 0.33789062
vt 0.73779297 0.33203125
vt 0.7519531 0.33789062
vt 0.7519531 0.33203125
vt 0.76660156 0.33789062
vt 0.76660156 0.33203125
vt 0.6791992 0.33203125
vt 0.69384766 0.33789062
vt 0.6791992 0.33789062
vt 0.69384766 0.33203125
vt 0.7084961 0.33203125
vt 0.7084961 0.33789062
vt 0.72314453 0.33203125
vt 0.72314453 0.33789062
vt 0.73779297 0.33203125
vt 0.73779297 0.33789062
vt 0.7519531 0.33203125
vt 0.7519531 0.33789062
vt 0.76660156 0.33203125
vt 0.76660156 0.33789062
vt 0.59375 0.15405273
vt 0.6064453 0.09643555
vt 0.59375 0.09643555
vt 0.6064453 0.15405273
vt 0.61865234 0.09643555
vt 0.61865234 0.15405273
vt 0.63134766 0.09643555
vt 0.63134766 0.15405273
vt 0.6435547 0.09643555
vt 0.6435547 0.15405273
vt 0.65625 0.09643555
vt 0.65625 0.15405273
vt 0.66845703 0.09643555
vt 0.66845703 0.15405273
vt 0.59375 0.09643555
vt 0.6064453 0.15405273
vt 0.59375 0.15405273
vt 0.6064453 0.09643555
vt 0.61865234 0.15405273
vt 0.61865234 0.09643555
vt 0.63134766 0.15405273
vt 0.63134766 0.09643555
vt 0.6435547 0.15405273
vt 0.6435547 0.09643555
vt 0.65625 0.15405273
vt 0.65625 0.09643555
vt 0.66845703 0.15405273
vt 0.66845703 0.09643555
vt 0.67626953 0.06384277
vt 0.5878906 0.0690918
vt 0.67626953 0.0690918
vt 0.5878906 0.06384277
vt 0.5839844 0.0690918
vt 0.5839844 0.06384277
vt 0.5805664 0.06384277
vt 0.5805664 0.0690918
vt 0.5727539 0.06384277
vt 0.5727539 0.0690918
vt 0.58984375 0.06384277
vt 0.67822266 0.0690918
vt 0.67822266 0.06384277
vt 0.58984375 0.0690918
vt 0.58496094 0.0690918
vt 0.58496094 0.06384277
vt 0.5805664 0.0690918
vt 0.5805664 0.06384277
vt 0.5727539 0.0690918
vt 0.5727539 0.06384277
vt 0.6489258 0.7661133
vt 0.65771484 0.7573242
vt 0.6699219 0.75390625
vt 0.6455078 0.77783203
vt 0.6699219 0.8022461
vt 0.6489258 0.79003906
vt 0.65771484 0.7988281
vt 0.6455078 0.77783203
vt 0.6489258 0.79003906
vt 0.65771484 0.7988281
vt 0.6699219 0.8022461
vt 0.6699219 0.75390625
vt 0.6489258 0.7661133
vt 0.65771484 0.7573242
vt 0.70703125 0.6923828
vt 0.71484375 0.67626953
vt 0.6904297 0.7001953
vt 0.6738281 0.6923828
vt 0.6665039 0.67626953
vt 0.6665039 0.67626953
vt 0.71484375 0.67626953
vt 0.6738281 0.6923828
vt 0.6904297 0.7001953
vt 0.70703125 0.6923828
vt 0.7529297 0.30664062
vt 0.7529297 0.3239746
vt 0.74072266 0.3239746
vt 0.74072266 0.30664062
vt 0.7290039 0.3239746
vt 0.7290039 0.30664062
vt 0.7167969 0.3239746
vt 0.7167969 0.30664062
vt 0.7050781 0.3239746
vt 0.7050781 0.30664062
vt 0.6933594 0.3239746
vt 0.6933594 0.30664062
vt 0.68115234 0.3239746
vt 0.68115234 0.30664062
vt 0.68115234 0.30664062
vt 0.68115234 0.3239746
vt 0.6933594 0.3239746
vt 0.6933594 0.30664062
vt 0.7050781 0.3239746
vt 0.7050781 0.30664062
vt 0.7167969 0.3239746
vt 0.7167969 0.30664062
vt 0.7290039 0.3239746
vt 0.7290039 0.30664062
vt 0.74072266 0.3239746
vt 0.74072266 0.30664062
vt 0.7529297 0.3239746
vt 0.7529297 0.30664062
vn -0.9291992 -0.36938477 -8.34465E-07
vn -0.86621094 6.2584877E-06 -0.5
vn -1 1.3411045E-05 -8.34465E-07
vn -0.8046875 -0.36938477 -0.4645996
vn -0.5 0 -0.86621094
vn -0.6015625 -0.7192383 -0.34716797
vn -0.69433594 -0.7192383 -1.013279E-06
vn -0.34716797 -0.7192383 -0.6015625
vn -0.4645996 -0.36938477 -0.8046875
vn -0 0 -1
vn -0 -0.7192383 -0.69433594
vn -0 -0.36938477 -0.9291992
vn 0.5 0 -0.86621094
vn 0.34716797 -0.7192383 -0.6015625
vn 0.4645996 -0.36938477 -0.8046875
vn 0.86621094 0 -0.5
vn 0.6015625 -0.7192383 -0.34716797
vn 0.8046875 -0.36938477 -0.4645996
vn 1 8.34465E-07 -8.34465E-07
vn 0.69433594 -0.7192383 -9.536743E-07
vn 0.9291992 -0.36938477 -8.34465E-07
vn 0.86621094 3.1590462E-06 0.5
vn 1 8.34465E-07 -8.34465E-07
vn 0.9291992 -0.36938477 -8.34465E-07
vn 0.8046875 -0.36938477 0.4645996
vn 0.5 5.4240227E-06 0.86621094
vn 0.6015625 -0.7192383 0.34716797
vn 0.69433594 -0.7192383 -9.536743E-07
vn 0.34716797 -0.7192383 0.6015625
vn 0.4645996 -0.36938477 0.8046875
vn -0 6.2584877E-06 1
vn -0 -0.7192383 0.69433594
vn -0 -0.36938477 0.9291992
vn -0.5 5.4240227E-06 0.86621094
vn -0.34716797 -0.7192383 0.6015625
vn -0.4645996 -0.36938477 0.8046875
vn -0.86621094 9.417534E-06 0.5
vn -0.6015625 -0.7192383 0.34716797
vn -0.8046875 -0.36938477 0.4645996
vn -1 1.3411045E-05 -8.34465E-07
vn -0.69433594 -0.7192383 -1.013279E-06
vn -0.9291992 -0.36938477 -8.34465E-07
vn 2.503395E-06 1 -1.0728836E-06
vn 3.33786E-06 1 0
vn 3.33786E-06 1 0
vn 2.503395E-06 1 -1.0728836E-06
vn 1.2516975E-06 1 -4.172325E-06
vn 1.2516975E-06 1 -4.172325E-06
vn -0 1 -6.67572E-06
vn -0 1 -6.67572E-06
vn -1.2516975E-06 1 -4.172325E-06
vn -1.2516975E-06 1 -4.172325E-06
vn -8.940697E-07 1 -8.940697E-07
vn -8.940697E-07 1 -8.940697E-07
vn -0 1 0
vn -0 1 0
vn 3.33786E-06 1 0
vn 1.013279E-06 1 1.7285347E-06
vn 3.33786E-06 1 0
vn 1.013279E-06 1 1.7285347E-06
vn -8.34465E-07 1 -1.1920929E-07
vn -8.34465E-07 1 -1.1920929E-07
vn -0 1 -3.33786E-06
vn -0 1 -3.33786E-06
vn 8.34465E-07 1 -1.1920929E-07
vn 8.34465E-07 1 -1.1920929E-07
vn 6.556511E-07 1 1.5497208E-06
vn 6.556511E-07 1 1.5497208E-06
vn -0 1 0
vn -0 1 0
vn -1 -1.1324883E-06 -1.5497208E-06
vn -0.86621094 -5.364418E-07 -0.5
vn -1 -1.1324883E-06 -1.5497208E-06
vn -0.86621094 -5.364418E-07 -0.5
vn -0.5 0 -0.86621094
vn -0.5 0 -0.86621094
vn -0 0 -1
vn -0 0 -1
vn 0.5 0 -0.86621094
vn 0.5 0 -0.86621094
vn 0.86621094 0 -0.5
vn 0.86621094 0 -0.5
vn 1 0 -1.5497208E-06
vn 1 0 -1.5497208E-06
vn -1 -1.1324883E-06 -1.5497208E-06
vn -0.86621094 -7.748604E-07 0.5
vn -1 -1.1324883E-06 -1.5497208E-06
vn -0.86621094 -7.748604E-07 0.5
vn -0.5 -4.7683716E-07 0.86621094
vn -0.5 -4.7683716E-07 0.86621094
vn -0 -5.364418E-07 1
vn -0 -5.364418E-07 1
vn 0.5 -4.7683716E-07 0.86621094
vn 0.5 -4.7683716E-07 0.86621094
vn 0.86621094 -2.3841858E-07 0.5
vn 0.86621094 -2.3841858E-07 0.5
vn 1 0 -1.5497208E-06
vn 1 0 -1.5497208E-06
vn 0.97753906 -0.20983887 0.0002142191
vn 0.8222656 -0.56884766 0.0010843277
vn 0.97753906 -0.20983887 0.0002142191
vn 0.8232422 -0.5678711 0.0010814667
vn 0.0076293945 -1 0.008392334
vn -0.0019254684 -1 0.008483887
vn -0.75 -0.6616211 0.0074157715
vn -0.7504883 -0.66064453 0.007396698
vn -0.9042969 -0.42700195 0.0018062592
vn -0.9042969 -0.42700195 0.0018062592
vn -0.8222656 0.56933594 -0.0014257431
vn -0.97753906 0.21008301 -2.1517277E-05
vn -0.97753906 0.21008301 -2.1517277E-05
vn -0.8222656 0.56933594 -0.0014257431
vn 0.002861023 1 -0.007610321
vn -0.006752014 1 -0.007545471
vn 0.75 0.6611328 -0.0052757263
vn 0.75 0.6611328 -0.0052757263
vn 0.9042969 0.42700195 1.9073486E-05
vn 0.9042969 0.42700195 1.9073486E-05
vn 8.940697E-07 -1 -8.940697E-07
vn 8.940697E-07 -1 -8.940697E-07
vn 1.2516975E-06 -1 2.3841858E-07
vn -0 -1 -1.1324883E-06
vn -1.2516975E-06 -1 2.3841858E-07
vn -8.940697E-07 -1 -8.940697E-07
vn -8.940697E-07 -1 -8.940697E-07
vn -0 -1 1.6093254E-06
vn -5.185604E-06 -1 -1.5497208E-06
vn -5.185604E-06 -1 -1.5497208E-06
vn -1.2516975E-06 -1 2.3841858E-07
vn 1.2516975E-06 -1 2.3841858E-07
vn 5.185604E-06 -1 -1.5497208E-06
vn 5.185604E-06 -1 -1.5497208E-06
vn -1.4901161E-06 1 -2.3841858E-07
vn -1.3709068E-06 1 0
vn -1.2516975E-06 1 0
vn -1.3113022E-06 1 0
vn -1.4305115E-06 1 0
vn -1.4305115E-06 1 0
vn -1.3709068E-06 1 0
vn -1.2516975E-06 1 0
vn -1.013279E-06 1 0
vn -1.66893E-06 1 5.364418E-07
vn 1 0 1.4305115E-06
vn 1 0 1.4305115E-06
vn 0.86621094 0 -0.5
vn 0.86621094 0 -0.5
vn 0.5 0 -0.86621094
vn 0.5 0 -0.86621094
vn -0 0 -1
vn -0 0 -1
vn -0.5 0 -0.86621094
vn -0.5 0 -0.86621094
vn -0.86621094 0 -0.5
vn -0.86621094 0 -0.5
vn -1 0 1.4305115E-06
vn -1 0 1.4305115E-06
vn -1 0 1.4305115E-06
vn -1 0 1.4305115E-06
vn -0.86621094 0 0.5
vn -0.86621094 0 0.5
vn -0.5 0 0.86621094
vn -0.5 0 0.86621094
vn -0 0 1
vn -0 0 1
vn 0.5 0 0.86621094
vn 0.5 0 0.86621094
vn 0.86621094 0 0.5
vn 0.86621094 0 0.5
vn 1 0 1.4305115E-06
vn 1 0 1.4305115E-06
g MainCity_Prop_Seasoning_01_0
f 3/3/3 2/2/2 1/1/1
f 2/2/2 4/4/4 1/1/1
f 4/4/4 2/2/2 5/5/5
f 1/1/1 4/4/4 6/6/6
f 7/7/7 1/1/1 6/6/6
f 8/8/8 6/6/6 4/4/4
f 9/9/9 4/4/4 5/5/5
f 9/9/9 8/8/8 4/4/4
f 9/9/9 5/5/5 10/10/10
f 11/11/11 8/8/8 9/9/9
f 12/12/12 9/9/9 10/10/10
f 12/12/12 11/11/11 9/9/9
f 12/12/12 10/10/10 13/13/13
f 14/14/14 11/11/11 12/12/12
f 15/15/15 12/12/12 13/13/13
f 15/15/15 14/14/14 12/12/12
f 15/15/15 13/13/13 16/16/16
f 17/17/17 14/14/14 15/15/15
f 18/18/18 15/15/15 16/16/16
f 18/18/18 17/17/17 15/15/15
f 18/18/18 16/16/16 19/19/19
f 20/20/20 17/17/17 18/18/18
f 21/21/21 18/18/18 19/19/19
f 21/21/21 20/20/20 18/18/18
f 24/24/24 23/23/23 22/22/22
f 25/25/25 24/24/24 22/22/22
f 25/25/25 22/22/22 26/26/26
f 25/25/25 27/27/27 24/24/24
f 27/27/27 28/28/28 24/24/24
f 29/29/29 27/27/27 25/25/25
f 30/30/30 25/25/25 26/26/26
f 30/30/30 29/29/29 25/25/25
f 30/30/30 26/26/26 31/31/31
f 32/32/32 29/29/29 30/30/30
f 33/33/33 30/30/30 31/31/31
f 33/33/33 32/32/32 30/30/30
f 33/33/33 31/31/31 34/34/34
f 35/35/35 32/32/32 33/33/33
f 36/36/36 33/33/33 34/34/34
f 36/36/36 35/35/35 33/33/33
f 36/36/36 34/34/34 37/37/37
f 38/38/38 35/35/35 36/36/36
f 39/39/39 36/36/36 37/37/37
f 39/39/39 38/38/38 36/36/36
f 39/39/39 37/37/37 40/40/40
f 41/41/41 38/38/38 39/39/39
f 42/42/42 39/39/39 40/40/40
f 42/42/42 41/41/41 39/39/39
f 45/45/45 44/44/44 43/43/43
f 44/44/44 46/46/46 43/43/43
f 43/43/43 46/46/46 47/47/47
f 46/46/46 48/48/48 47/47/47
f 47/47/47 48/48/48 49/49/49
f 48/48/48 50/50/50 49/49/49
f 49/49/49 50/50/50 51/51/51
f 50/50/50 52/52/52 51/51/51
f 51/51/51 52/52/52 53/53/53
f 52/52/52 54/54/54 53/53/53
f 53/53/53 54/54/54 55/55/55
f 54/54/54 56/56/56 55/55/55
f 59/59/59 58/58/58 57/57/57
f 58/58/58 60/60/60 57/57/57
f 61/61/61 60/60/60 58/58/58
f 62/62/62 61/61/61 58/58/58
f 63/63/63 61/61/61 62/62/62
f 64/64/64 63/63/63 62/62/62
f 65/65/65 63/63/63 64/64/64
f 66/66/66 65/65/65 64/64/64
f 67/67/67 65/65/65 66/66/66
f 68/68/68 67/67/67 66/66/66
f 69/69/69 67/67/67 68/68/68
f 70/70/70 69/69/69 68/68/68
f 73/73/73 72/72/72 71/71/71
f 72/72/72 74/74/74 71/71/71
f 74/74/74 72/72/72 75/75/75
f 76/76/76 74/74/74 75/75/75
f 76/76/76 75/75/75 77/77/77
f 78/78/78 76/76/76 77/77/77
f 78/78/78 77/77/77 79/79/79
f 80/80/80 78/78/78 79/79/79
f 80/80/80 79/79/79 81/81/81
f 82/82/82 80/80/80 81/81/81
f 82/82/82 81/81/81 83/83/83
f 84/84/84 82/82/82 83/83/83
f 87/87/87 86/86/86 85/85/85
f 86/86/86 88/88/88 85/85/85
f 86/86/86 89/89/89 88/88/88
f 89/89/89 90/90/90 88/88/88
f 89/89/89 91/91/91 90/90/90
f 91/91/91 92/92/92 90/90/90
f 91/91/91 93/93/93 92/92/92
f 93/93/93 94/94/94 92/92/92
f 93/93/93 95/95/95 94/94/94
f 95/95/95 96/96/96 94/94/94
f 95/95/95 97/97/97 96/96/96
f 97/97/97 98/98/98 96/96/96
f 101/101/101 100/100/100 99/99/99
f 100/100/100 102/102/102 99/99/99
f 102/102/102 100/100/100 103/103/103
f 104/104/104 102/102/102 103/103/103
f 104/104/104 103/103/103 105/105/105
f 103/103/103 106/106/106 105/105/105
f 105/105/105 106/106/106 107/107/107
f 106/106/106 108/108/108 107/107/107
f 111/111/111 110/110/110 109/109/109
f 110/110/110 112/112/112 109/109/109
f 112/112/112 113/113/113 109/109/109
f 113/113/113 114/114/114 109/109/109
f 113/113/113 115/115/115 114/114/114
f 115/115/115 116/116/116 114/114/114
f 115/115/115 117/117/117 116/116/116
f 117/117/117 118/118/118 116/116/116
f 121/121/121 120/120/120 119/119/119
f 122/122/122 121/121/121 119/119/119
f 122/122/122 123/123/123 121/121/121
f 122/122/122 124/124/124 123/123/123
f 124/124/124 125/125/125 123/123/123
f 128/128/128 127/127/127 126/126/126
f 129/129/129 128/128/128 126/126/126
f 129/129/129 126/126/126 130/130/130
f 126/126/126 131/131/131 130/130/130
f 131/131/131 132/132/132 130/130/130
f 135/135/135 134/134/134 133/133/133
f 136/136/136 134/134/134 135/135/135
f 137/137/137 134/134/134 136/136/136
f 140/140/140 139/139/139 138/138/138
f 141/141/141 139/139/139 140/140/140
f 142/142/142 139/139/139 141/141/141
f 145/145/145 144/144/144 143/143/143
f 146/146/146 145/145/145 143/143/143
f 147/147/147 145/145/145 146/146/146
f 148/148/148 147/147/147 146/146/146
f 149/149/149 147/147/147 148/148/148
f 150/150/150 149/149/149 148/148/148
f 151/151/151 149/149/149 150/150/150
f 152/152/152 151/151/151 150/150/150
f 153/153/153 151/151/151 152/152/152
f 154/154/154 153/153/153 152/152/152
f 155/155/155 153/153/153 154/154/154
f 156/156/156 155/155/155 154/154/154
f 159/159/159 158/158/158 157/157/157
f 160/160/160 159/159/159 157/157/157
f 161/161/161 159/159/159 160/160/160
f 162/162/162 161/161/161 160/160/160
f 163/163/163 161/161/161 162/162/162
f 164/164/164 163/163/163 162/162/162
f 165/165/165 163/163/163 164/164/164
f 166/166/166 165/165/165 164/164/164
f 167/167/167 165/165/165 166/166/166
f 168/168/168 167/167/167 166/166/166
f 169/169/169 167/167/167 168/168/168
f 170/170/170 169/169/169 168/168/168
