g MainCity_Prop_Gadgets_24
v 0.28567535 0.26472402 -0.001942476
v 0.28005034 0.27409902 0.0019427732
v 0.28005034 0.27409902 -0.0019424693
v 0.28567535 0.26472402 0.0019427701
v 0.28755036 0.251599 0.0019427661
v 0.28755036 0.251599 -0.0019424859
v 0.28755036 0.030000018 0.0019427022
v 0.28755036 0.030000018 -0.0019426577
v 0.28567535 0.01687502 -0.0019426685
v 0.28567535 0.01687502 0.0019426986
v 0.28005034 0.0075000203 -0.0019426757
v 0.28005034 0.0075000175 0.0019426956
v 0.28005034 0.27409902 -0.0019424693
v 0.28005034 0.27409902 0.0019427732
v 0.27067536 0.27972403 0.0019427746
v 0.27067536 0.27972403 -0.0019424644
v 0.25755036 0.28159901 0.0019427747
v 0.25755036 0.28159901 -0.0019424624
v -0.25755036 0.28159901 -0.0019424624
v -0.25755036 0.28159901 0.0019427747
v -0.27067536 0.27972403 -0.0019424644
v -0.27067536 0.27972403 0.0019427746
v -0.28005034 0.27409902 0.0019427732
v -0.28005034 0.27409902 -0.0019424693
v -0.28005034 0.27409902 -0.0019424693
v -0.28005034 0.27409902 0.0019427732
v -0.28567535 0.26472402 0.0019427701
v -0.28567535 0.26472402 -0.001942476
v -0.28755036 0.251599 0.0019427661
v -0.28755036 0.251599 -0.0019424859
v -0.28755036 0.030000018 0.0019427022
v -0.28755036 0.030000018 -0.0019426577
v -0.28567535 0.01687502 -0.0019426685
v -0.28567535 0.01687502 0.0019426986
v -0.28005034 0.0075000175 0.0019426956
v -0.28005034 0.0075000203 -0.0019426757
v 0.27067536 0.0018750206 -0.0019426799
v 0.28005034 0.0075000203 -0.0019426757
v 0.28567535 0.01687502 -0.0019426685
v 0.28755036 0.030000018 -0.0019426577
v 0.27067536 0.27972403 -0.0019424644
v 0.28755036 0.251599 -0.0019424859
v 0.28567535 0.26472402 -0.001942476
v 0.28005034 0.27409902 -0.0019424693
v 0.25755036 2.0291859E-08 -0.001942682
v 0.25755036 0.28159901 -0.0019424624
v -0.25755036 0.28159901 -0.0019424624
v -0.25755036 2.0291859E-08 -0.001942682
v -0.27067536 0.0018750206 -0.0019426799
v -0.27067536 0.27972403 -0.0019424644
v -0.28755036 0.030000018 -0.0019426577
v -0.28567535 0.01687502 -0.0019426685
v -0.28005034 0.0075000203 -0.0019426757
v -0.28755036 0.251599 -0.0019424859
v -0.28567535 0.26472402 -0.001942476
v -0.28005034 0.27409902 -0.0019424693
v 0.27067536 0.0018750206 -0.0019426799
v 0.28005034 0.0075000175 0.0019426956
v 0.28005034 0.0075000203 -0.0019426757
v 0.27067536 0.0018750179 0.0019426944
v 0.25755036 1.8039051E-08 0.0019426942
v 0.25755036 2.0291859E-08 -0.001942682
v -0.25755036 2.0291859E-08 -0.001942682
v -0.25755036 1.8039051E-08 0.0019426942
v -0.27067536 0.0018750206 -0.0019426799
v -0.27067536 0.0018750179 0.0019426944
v -0.28005034 0.0075000203 -0.0019426757
v -0.28005034 0.0075000175 0.0019426956
v -0.27067536 0.27972403 0.0019427746
v -0.28567535 0.26472402 0.0019427701
v -0.28005034 0.27409902 0.0019427732
v -0.28755036 0.251599 0.0019427661
v -0.27067536 0.0018750179 0.0019426944
v -0.28755036 0.030000018 0.0019427022
v -0.28567535 0.01687502 0.0019426986
v -0.28005034 0.0075000175 0.0019426956
v -0.25755036 0.28159901 0.0019427747
v -0.25755036 1.8039051E-08 0.0019426942
v 0.25755036 1.8039051E-08 0.0019426942
v 0.25755036 0.28159901 0.0019427747
v 0.27067536 0.27972403 0.0019427746
v 0.27067536 0.0018750179 0.0019426944
v 0.28755036 0.030000018 0.0019427022
v 0.28567535 0.01687502 0.0019426986
v 0.28005034 0.0075000175 0.0019426956
v 0.28755036 0.251599 0.0019427661
v 0.28567535 0.26472402 0.0019427701
v 0.28005034 0.27409902 0.0019427732
vt 0.39404297 0.29345703
vt 0.38867188 0.2915039
vt 0.38867188 0.29345703
vt 0.39404297 0.2915039
vt 0.40039062 0.2915039
vt 0.40039062 0.29345703
vt 0.5058594 0.2915039
vt 0.5058594 0.29345703
vt 0.51220703 0.29345703
vt 0.51220703 0.2915039
vt 0.5175781 0.29345703
vt 0.5175781 0.2915039
vt 0.29516602 0.29345703
vt 0.29516602 0.2915039
vt 0.30029297 0.2915039
vt 0.30029297 0.29345703
vt 0.30664062 0.2915039
vt 0.30664062 0.29345703
vt 0.5522461 0.29345703
vt 0.5522461 0.2915039
vt 0.55859375 0.29345703
vt 0.55859375 0.2915039
vt 0.56347656 0.2915039
vt 0.56347656 0.29345703
vt 0.38867188 0.29345703
vt 0.38867188 0.2915039
vt 0.39404297 0.2915039
vt 0.39404297 0.29345703
vt 0.40039062 0.2915039
vt 0.40039062 0.29345703
vt 0.5058594 0.2915039
vt 0.5058594 0.29345703
vt 0.51220703 0.29345703
vt 0.51220703 0.2915039
vt 0.5175781 0.2915039
vt 0.5175781 0.29345703
vt 0.29858398 0.30249023
vt 0.2939453 0.30517578
vt 0.29125977 0.30981445
vt 0.29052734 0.31591797
vt 0.29858398 0.4350586
vt 0.29052734 0.42163086
vt 0.29125977 0.42773438
vt 0.2939453 0.43237305
vt 0.3046875 0.3017578
vt 0.3046875 0.43579102
vt 0.55029297 0.43579102
vt 0.55029297 0.3017578
vt 0.5566406 0.30249023
vt 0.5566406 0.4350586
vt 0.5644531 0.31591797
vt 0.56347656 0.30981445
vt 0.56103516 0.30517578
vt 0.5644531 0.42163086
vt 0.56347656 0.42773438
vt 0.56103516 0.43237305
vt 0.30029297 0.29345703
vt 0.29516602 0.2915039
vt 0.29516602 0.29345703
vt 0.30029297 0.2915039
vt 0.30664062 0.2915039
vt 0.30664062 0.29345703
vt 0.5522461 0.29345703
vt 0.5522461 0.2915039
vt 0.55859375 0.29345703
vt 0.55859375 0.2915039
vt 0.56347656 0.29345703
vt 0.56347656 0.2915039
vt 0.29858398 0.4350586
vt 0.29125977 0.42773438
vt 0.2939453 0.43237305
vt 0.29052734 0.42163086
vt 0.29858398 0.30249023
vt 0.29052734 0.31591797
vt 0.29125977 0.30981445
vt 0.2939453 0.30517578
vt 0.3046875 0.43579102
vt 0.3046875 0.3017578
vt 0.55029297 0.3017578
vt 0.55029297 0.43579102
vt 0.5566406 0.4350586
vt 0.5566406 0.30249023
vt 0.5644531 0.31591797
vt 0.56347656 0.30981445
vt 0.56103516 0.30517578
vt 0.5644531 0.42163086
vt 0.56347656 0.42773438
vt 0.56103516 0.43237305
vn 0.9423828 0.33447266 0
vn 0.70703125 0.70703125 0
vn 0.70703125 0.70703125 0
vn 0.9423828 0.33447266 0
vn 0.9975586 0.07086182 0
vn 0.9975586 0.07086182 0
vn 0.9975586 -0.07086182 0
vn 0.9975586 -0.07086182 0
vn 0.9423828 -0.33447266 0
vn 0.9423828 -0.33447266 0
vn 0.70703125 -0.70703125 -3.5762787E-07
vn 0.70703125 -0.70703125 -3.5762787E-07
vn 0.70703125 0.70703125 0
vn 0.70703125 0.70703125 0
vn 0.33447266 0.9423828 0
vn 0.33447266 0.9423828 0
vn 0.07086182 0.9975586 0
vn 0.07086182 0.9975586 0
vn -0.07086182 0.9975586 0
vn -0.07086182 0.9975586 0
vn -0.33447266 0.9423828 0
vn -0.33447266 0.9423828 0
vn -0.70703125 0.70703125 0
vn -0.70703125 0.70703125 0
vn -0.70703125 0.70703125 0
vn -0.70703125 0.70703125 0
vn -0.9423828 0.33447266 0
vn -0.9423828 0.33447266 0
vn -0.9975586 0.07086182 0
vn -0.9975586 0.07086182 0
vn -0.9975586 -0.07086182 0
vn -0.9975586 -0.07086182 0
vn -0.9423828 -0.33447266 0
vn -0.9423828 -0.33447266 0
vn -0.70703125 -0.70703125 -3.5762787E-07
vn -0.70703125 -0.70703125 -3.5762787E-07
vn -0 7.748604E-07 -1
vn -0 8.34465E-07 -1
vn -0 8.34465E-07 -1
vn -0 7.748604E-07 -1
vn -0 7.748604E-07 -1
vn -0 7.748604E-07 -1
vn -0 7.1525574E-07 -1
vn -0 7.1525574E-07 -1
vn -0 7.748604E-07 -1
vn -0 7.748604E-07 -1
vn -0 7.748604E-07 -1
vn -0 7.748604E-07 -1
vn -0 7.748604E-07 -1
vn -0 7.748604E-07 -1
vn -0 7.748604E-07 -1
vn -0 8.34465E-07 -1
vn -0 8.34465E-07 -1
vn -0 7.748604E-07 -1
vn -0 7.1525574E-07 -1
vn -0 7.1525574E-07 -1
vn 0.33447266 -0.9423828 -5.9604645E-07
vn 0.70703125 -0.70703125 -3.5762787E-07
vn 0.70703125 -0.70703125 -3.5762787E-07
vn 0.33447266 -0.9423828 -5.9604645E-07
vn 0.07086182 -0.9975586 -5.9604645E-07
vn 0.07086182 -0.9975586 -5.9604645E-07
vn -0.07086182 -0.9975586 -5.9604645E-07
vn -0.07086182 -0.9975586 -5.9604645E-07
vn -0.33447266 -0.9423828 -5.9604645E-07
vn -0.33447266 -0.9423828 -5.9604645E-07
vn -0.70703125 -0.70703125 -3.5762787E-07
vn -0.70703125 -0.70703125 -3.5762787E-07
vn -0 -2.9802322E-07 1
vn -0 -3.5762787E-07 1
vn -0 -3.5762787E-07 1
vn -0 -2.9802322E-07 1
vn -0 -2.9802322E-07 1
vn -0 -2.9802322E-07 1
vn -0 -2.9802322E-07 1
vn -0 -2.9802322E-07 1
vn -0 -2.9802322E-07 1
vn -0 -2.9802322E-07 1
vn -0 -2.9802322E-07 1
vn -0 -2.9802322E-07 1
vn -0 -2.9802322E-07 1
vn -0 -2.9802322E-07 1
vn -0 -2.9802322E-07 1
vn -0 -2.9802322E-07 1
vn -0 -2.9802322E-07 1
vn -0 -2.9802322E-07 1
vn -0 -3.5762787E-07 1
vn -0 -3.5762787E-07 1
g MainCity_Prop_Gadgets_24_0
f 3/3/3 2/2/2 1/1/1
f 2/2/2 4/4/4 1/1/1
f 1/1/1 4/4/4 5/5/5
f 6/6/6 1/1/1 5/5/5
f 5/5/5 7/7/7 6/6/6
f 7/7/7 8/8/8 6/6/6
f 8/8/8 7/7/7 9/9/9
f 7/7/7 10/10/10 9/9/9
f 9/9/9 10/10/10 11/11/11
f 10/10/10 12/12/12 11/11/11
f 15/15/15 14/14/14 13/13/13
f 16/16/16 15/15/15 13/13/13
f 17/17/17 15/15/15 16/16/16
f 18/18/18 17/17/17 16/16/16
f 17/17/17 18/18/18 19/19/19
f 20/20/20 17/17/17 19/19/19
f 19/19/19 21/21/21 20/20/20
f 21/21/21 22/22/22 20/20/20
f 23/23/23 22/22/22 21/21/21
f 24/24/24 23/23/23 21/21/21
f 27/27/27 26/26/26 25/25/25
f 28/28/28 27/27/27 25/25/25
f 29/29/29 27/27/27 28/28/28
f 30/30/30 29/29/29 28/28/28
f 29/29/29 30/30/30 31/31/31
f 30/30/30 32/32/32 31/31/31
f 31/31/31 32/32/32 33/33/33
f 34/34/34 31/31/31 33/33/33
f 34/34/34 33/33/33 35/35/35
f 33/33/33 36/36/36 35/35/35
f 39/39/39 38/38/38 37/37/37
f 40/40/40 39/39/39 37/37/37
f 40/40/40 37/37/37 41/41/41
f 42/42/42 40/40/40 41/41/41
f 43/43/43 42/42/42 41/41/41
f 44/44/44 43/43/43 41/41/41
f 41/41/41 37/37/37 45/45/45
f 46/46/46 41/41/41 45/45/45
f 47/47/47 46/46/46 45/45/45
f 48/48/48 47/47/47 45/45/45
f 47/47/47 48/48/48 49/49/49
f 50/50/50 47/47/47 49/49/49
f 50/50/50 49/49/49 51/51/51
f 52/52/52 51/51/51 49/49/49
f 53/53/53 52/52/52 49/49/49
f 54/54/54 50/50/50 51/51/51
f 50/50/50 54/54/54 55/55/55
f 56/56/56 50/50/50 55/55/55
f 59/59/59 58/58/58 57/57/57
f 58/58/58 60/60/60 57/57/57
f 57/57/57 60/60/60 61/61/61
f 62/62/62 57/57/57 61/61/61
f 63/63/63 62/62/62 61/61/61
f 64/64/64 63/63/63 61/61/61
f 65/65/65 63/63/63 64/64/64
f 66/66/66 65/65/65 64/64/64
f 67/67/67 65/65/65 66/66/66
f 68/68/68 67/67/67 66/66/66
f 71/71/71 70/70/70 69/69/69
f 70/70/70 72/72/72 69/69/69
f 73/73/73 69/69/69 72/72/72
f 74/74/74 73/73/73 72/72/72
f 73/73/73 74/74/74 75/75/75
f 76/76/76 73/73/73 75/75/75
f 69/69/69 73/73/73 77/77/77
f 73/73/73 78/78/78 77/77/77
f 77/77/77 78/78/78 79/79/79
f 80/80/80 77/77/77 79/79/79
f 81/81/81 80/80/80 79/79/79
f 82/82/82 81/81/81 79/79/79
f 81/81/81 82/82/82 83/83/83
f 84/84/84 83/83/83 82/82/82
f 85/85/85 84/84/84 82/82/82
f 86/86/86 81/81/81 83/83/83
f 81/81/81 86/86/86 87/87/87
f 88/88/88 81/81/81 87/87/87
