g MainCity_Prop_SignBoard_01
v -0.2447644 0.030737255 -0.19534302
v -0.24476436 3.9787835E-08 -0.22407287
v -0.24476436 0.03073725 -0.22407317
v -0.2447644 0.030737273 0.15859497
v -0.24476475 2.2806138E-07 0.22407256
v -0.2447583 0.69390655 -0.14930359
v -0.2447583 0.673486 -0.18725464
v 0.24476475 -1.7002041E-07 -0.22407226
v 0.2447647 0.030737044 -0.1953424
v 0.24476475 0.030737039 -0.22407256
v 0.2447647 0.030737082 0.15859558
v 0.24476467 3.6506105E-08 0.22407287
v 0.2447647 0.6734862 -0.18725464
v 0.2447647 0.69390666 -0.14930359
v -0.24476436 0.03073725 -0.22407317
v -0.2447644 0.43144736 -0.057018433
v -0.2447644 0.40136272 -0.040830687
v -0.2447644 0.030737255 -0.19534302
v 0.24476475 0.030737039 -0.22407256
v 0.2447647 0.030737044 -0.1953424
v 0.2447647 0.40136203 -0.040830076
v 0.2447647 0.43144667 -0.05701782
v -0.2447583 0.673486 -0.18725464
v -0.19815704 0.5280211 -0.108982846
v -0.19815582 0.673486 -0.18725464
v -0.19816132 0.030737255 0.15859497
v -0.2447644 0.030737273 0.15859497
v 0.19816162 0.030737102 0.15859528
v 0.19816191 0.5280212 -0.108982846
v 0.19816162 -8.590792E-08 0.17513427
v -0.19816132 6.6679924E-08 0.17513397
v 0.2447647 0.030737082 0.15859558
v 0.2447647 0.6734862 -0.18725464
v 0.19816223 0.6734862 -0.18725464
v 0.2447647 0.69390666 -0.14930359
v 0.19816223 0.69390666 -0.14930359
v 0.19816223 0.6734862 -0.18725464
v 0.2447647 0.6734862 -0.18725464
v -0.2447583 0.673486 -0.18725464
v -0.19815582 0.673486 -0.18725464
v -0.19815582 0.69390655 -0.14930359
v -0.2447583 0.69390655 -0.14930359
v -0.24476436 3.9787835E-08 -0.22407287
v -0.19816127 2.0714353E-08 -0.22407287
v -0.19816127 0.03073723 -0.22407317
v -0.24476436 0.03073725 -0.22407317
v 0.24476475 0.030737039 -0.22407256
v 0.19816166 0.03073706 -0.22407256
v 0.19816166 -1.5094692E-07 -0.22407226
v 0.24476475 -1.7002041E-07 -0.22407226
v -0.24476475 2.2806138E-07 0.22407256
v -0.19816127 2.0714353E-08 -0.22407287
v -0.24476436 3.9787835E-08 -0.22407287
v -0.19816132 6.6679924E-08 0.17513397
v 0.19816162 -8.590792E-08 0.17513427
v 0.24476467 3.6506105E-08 0.22407287
v 0.24476475 -1.7002041E-07 -0.22407226
v 0.19816166 -1.5094692E-07 -0.22407226
v 0.2447647 0.030737082 0.15859558
v 0.19816162 0.030737102 0.15859528
v 0.19816162 0.030737063 -0.1953424
v 0.2447647 0.030737044 -0.1953424
v -0.2447644 0.030737255 -0.19534302
v -0.19816132 0.030737234 -0.19534302
v -0.19816132 0.030737255 0.15859497
v -0.2447644 0.030737273 0.15859497
v -0.24476436 0.03073725 -0.22407317
v -0.19816127 0.03073723 -0.22407317
v -0.19816132 0.4314473 -0.057018433
v -0.2447644 0.43144736 -0.057018433
v 0.2447647 0.43144667 -0.05701782
v 0.19816162 0.43144676 -0.057018127
v 0.19816166 0.03073706 -0.22407256
v 0.24476475 0.030737039 -0.22407256
v 0.2447647 0.030737044 -0.1953424
v 0.19816162 0.030737063 -0.1953424
v 0.19816162 0.4013621 -0.040830076
v 0.2447647 0.40136203 -0.040830076
v -0.2447644 0.40136272 -0.040830687
v -0.19816132 0.40136263 -0.040830687
v -0.19816132 0.030737234 -0.19534302
v -0.2447644 0.030737255 -0.19534302
v -0.2447583 0.69390655 -0.14930359
v -0.19815582 0.69390655 -0.14930359
v -0.19815704 0.5484416 -0.0710321
v -0.19815704 0.5120938 -0.051474303
v -0.19815707 0.030737298 0.20753357
v -0.24476475 2.2806138E-07 0.22407256
v 0.1981619 0.51209396 -0.051474303
v 0.24476467 3.6506105E-08 0.22407287
v 0.19816177 0.03073734 0.20753387
v 0.19816191 0.5484417 -0.0710321
v 0.2447647 0.69390666 -0.14930359
v 0.19816223 0.69390666 -0.14930359
v -0.19815704 0.5484416 -0.0710321
v -0.19815704 0.5280211 -0.108982846
v 0.19816191 0.5280212 -0.108982846
v 0.19816191 0.5484417 -0.0710321
v -0.19815582 0.673486 -0.18725464
v -0.19815704 0.5280211 -0.108982846
v -0.19815704 0.5484416 -0.0710321
v -0.19815582 0.69390655 -0.14930359
v 0.19816223 0.69390666 -0.14930359
v 0.19816191 0.5484417 -0.0710321
v 0.19816191 0.5280212 -0.108982846
v 0.19816223 0.6734862 -0.18725464
v 0.19816162 0.4013621 -0.040830076
v 0.19816162 0.030737063 -0.1953424
v 0.19816166 0.03073706 -0.22407256
v 0.19816162 0.43144676 -0.057018127
v 0.19816166 0.03073706 -0.22407256
v 0.19816162 0.030737063 -0.1953424
v 0.19816166 -1.5094692E-07 -0.22407226
v 0.19816162 0.030737102 0.15859528
v 0.19816162 -8.590792E-08 0.17513427
v -0.19816132 0.030737255 0.15859497
v -0.19816127 2.0714353E-08 -0.22407287
v -0.19816132 6.6679924E-08 0.17513397
v -0.19816132 0.030737234 -0.19534302
v -0.19816127 0.03073723 -0.22407317
v -0.19816132 0.40136263 -0.040830687
v -0.19816132 0.4314473 -0.057018433
v -0.19816127 0.03073723 -0.22407317
v -0.19816132 0.030737234 -0.19534302
v 0.1981619 0.5027087 -0.06891632
v 0.19816177 0.03110319 0.18484497
v -0.19815707 0.031103147 0.18484466
v -0.19815704 0.50270855 -0.06891632
v 0.1981619 0.51209396 -0.051474303
v 0.1981619 0.5027087 -0.06891632
v -0.19815704 0.50270855 -0.06891632
v -0.19815704 0.5120938 -0.051474303
v -0.19815704 0.5120938 -0.051474303
v -0.19815704 0.50270855 -0.06891632
v -0.19815707 0.031103147 0.18484466
v -0.19815707 0.030737298 0.20753357
v -0.19815707 0.030737298 0.20753357
v -0.19815707 0.031103147 0.18484466
v 0.19816177 0.03110319 0.18484497
v 0.19816177 0.03073734 0.20753387
v 0.19816177 0.03073734 0.20753387
v 0.19816177 0.03110319 0.18484497
v 0.1981619 0.5027087 -0.06891632
v 0.1981619 0.51209396 -0.051474303
vt 0.35742188 0.03793335
vt 0.3461914 0.025894165
vt 0.3461914 0.03793335
vt 0.49609375 0.03793335
vt 0.52197266 0.025894165
vt 0.37524414 0.29785156
vt 0.36035156 0.28979492
vt 0.39086914 0.0031585693
vt 0.4020996 0.015205383
vt 0.39086914 0.015205383
vt 0.5410156 0.015205383
vt 0.56640625 0.0031585693
vt 0.40527344 0.26708984
vt 0.42016602 0.27514648
vt 0.40625 0.08325195
vt 0.23608398 0.08325195
vt 0.24450684 0.09362793
vt 0.40625 0.09362793
vt 0.40625 0.08325195
vt 0.40625 0.09362793
vt 0.24450684 0.09362793
vt 0.23608398 0.08325195
vt 0.4206543 0.60791016
vt 0.40551758 0.5541992
vt 0.40551758 0.60791016
vt 0.40551758 0.3701172
vt 0.4206543 0.3701172
vt 0.27661133 0.3701172
vt 0.27661133 0.5541992
vt 0.27661133 0.35888672
vt 0.40551758 0.35888672
vt 0.2614746 0.3701172
vt 0.2614746 0.60791016
vt 0.27661133 0.60791016
vt 0.40893555 0.058135986
vt 0.390625 0.058135986
vt 0.390625 0.07501221
vt 0.40893555 0.07501221
vt 0.4333496 0.058135986
vt 0.4152832 0.058135986
vt 0.4152832 0.07501221
vt 0.4333496 0.07501221
vt 0.35986328 0.015205383
vt 0.37817383 0.015205383
vt 0.37817383 0.0031585693
vt 0.35986328 0.0031585693
vt 0.37817383 0.015205383
vt 0.35986328 0.015205383
vt 0.35986328 0.0031585693
vt 0.37817383 0.0031585693
vt 0.63378906 0.56884766
vt 0.6455078 0.4567871
vt 0.63378906 0.4567871
vt 0.6455078 0.5566406
vt 0.7446289 0.5566406
vt 0.75634766 0.56884766
vt 0.75634766 0.4567871
vt 0.7446289 0.4567871
vt 0.8276367 0.054382324
vt 0.8276367 0.072631836
vt 0.68896484 0.072631836
vt 0.68896484 0.054382324
vt 0.68896484 0.054382324
vt 0.68896484 0.072631836
vt 0.8276367 0.072631836
vt 0.8276367 0.054382324
vt 0.8276367 0.02142334
vt 0.8276367 0.0031585693
vt 0.65771484 0.0031585693
vt 0.65771484 0.02142334
vt 0.65771484 0.02142334
vt 0.65771484 0.0031585693
vt 0.8276367 0.0031585693
vt 0.8276367 0.02142334
vt 0.67041016 0.047058105
vt 0.67041016 0.028778076
vt 0.8276367 0.028778076
vt 0.8276367 0.047058105
vt 0.8276367 0.047058105
vt 0.8276367 0.028778076
vt 0.67041016 0.028778076
vt 0.67041016 0.047058105
vt 0.0031051636 0.5097656
vt 0.026641846 0.5097656
vt 0.026641846 0.4248047
vt 0.026641846 0.40356445
vt 0.026641846 0.12219238
vt 0.0031051636 0.10418701
vt 0.23217773 0.40356445
vt 0.25512695 0.10418701
vt 0.23217773 0.12219238
vt 0.23217773 0.4248047
vt 0.25512695 0.5097656
vt 0.23217773 0.5097656
vt 0.38452148 0.07501221
vt 0.38452148 0.058135986
vt 0.22912598 0.058135986
vt 0.22912598 0.07501221
vt 0.3552246 0.10217285
vt 0.3552246 0.16699219
vt 0.3720703 0.16699219
vt 0.3720703 0.10217285
vt 0.3720703 0.2401123
vt 0.3720703 0.17541504
vt 0.3552246 0.17541504
vt 0.3552246 0.2401123
vt 0.58203125 0.014953613
vt 0.5214844 0.16027832
vt 0.5102539 0.16027832
vt 0.5756836 0.0031585693
vt 0.5102539 0.16027832
vt 0.5214844 0.16027832
vt 0.5102539 0.17224121
vt 0.66015625 0.16027832
vt 0.6665039 0.17224121
vt 0.66015625 0.16027832
vt 0.5102539 0.17224121
vt 0.6665039 0.17224121
vt 0.5214844 0.16027832
vt 0.5102539 0.16027832
vt 0.58203125 0.014953613
vt 0.5756836 0.0031585693
vt 0.5102539 0.16027832
vt 0.5214844 0.16027832
vt 0.048034668 0.14379883
vt 0.048034668 0.3791504
vt 0.21057129 0.3791504
vt 0.21057129 0.14379883
vt 0.048034668 0.12805176
vt 0.048034668 0.13684082
vt 0.21057129 0.13684082
vt 0.21057129 0.12805176
vt 0.22521973 0.14379883
vt 0.21716309 0.14379883
vt 0.21716309 0.3791504
vt 0.22521973 0.3840332
vt 0.21057129 0.3959961
vt 0.21057129 0.38623047
vt 0.04763794 0.38623047
vt 0.04763794 0.3959961
vt 0.03338623 0.3840332
vt 0.041534424 0.3791504
vt 0.041503906 0.14379883
vt 0.033355713 0.14379883
vn -1 2.2053719E-06 -7.1525574E-07
vn -1 2.4437904E-06 -8.940697E-07
vn -1 1.1920929E-07 -1.0728836E-06
vn -1 6.3180923E-06 -1.4305115E-06
vn -1 6.67572E-06 -1.66893E-06
vn -1 8.046627E-06 -2.503395E-06
vn -1 8.046627E-06 -2.503395E-06
vn 1 0 6.556511E-07
vn 1 0 5.364418E-07
vn 1 -1.1920929E-07 1.0728836E-06
vn 1 1.1920929E-07 2.3841858E-07
vn 1 1.1920929E-07 2.3841858E-07
vn 1 1.7881393E-07 3.5762787E-07
vn 1 1.7881393E-07 3.5762787E-07
vn -1 1.1920929E-07 -1.0728836E-06
vn -1 2.3841858E-07 -7.1525574E-07
vn -1 2.3841858E-07 -7.1525574E-07
vn -1 2.2053719E-06 -7.1525574E-07
vn 1 -1.1920929E-07 1.0728836E-06
vn 1 0 5.364418E-07
vn 1 -2.3841858E-07 7.1525574E-07
vn 1 -2.3841858E-07 7.1525574E-07
vn 2.3841858E-07 -0.47387695 -0.8803711
vn 1.013279E-06 -0.47387695 -0.8803711
vn -0 -0.47387695 -0.8803711
vn 7.748604E-07 -0.47387695 -0.8803711
vn 1.4901161E-06 -0.47387695 -0.8803711
vn 8.34465E-07 -0.47387695 -0.8803711
vn 1.1324883E-06 -0.47387695 -0.8803711
vn 4.7683716E-07 -0.47387695 -0.8803711
vn 4.7683716E-07 -0.47387695 -0.8803711
vn 1.66893E-06 -0.47387695 -0.8803711
vn 2.9802322E-07 -0.47387695 -0.8803711
vn -0 -0.47387695 -0.8803711
vn -0 0.8803711 -0.47387695
vn -0 0.8803711 -0.47387695
vn -0 0.8803711 -0.47387695
vn -0 0.8803711 -0.47387695
vn -0 0.8803711 -0.47387695
vn -0 0.8803711 -0.47387695
vn -0 0.8803711 -0.47387695
vn -0 0.8803711 -0.47387695
vn -0 -9.953976E-06 -1
vn -0 -9.953976E-06 -1
vn -0 -9.953976E-06 -1
vn -0 -9.953976E-06 -1
vn -0 -9.953976E-06 -1
vn -0 -9.953976E-06 -1
vn -0 -9.953976E-06 -1
vn -0 -9.953976E-06 -1
vn -1.0728836E-06 -1 1.6093254E-06
vn -1.7881393E-06 -1 2.9802322E-07
vn -1.7881393E-06 -1 2.9802322E-07
vn -1.0728836E-06 -1 1.5497208E-06
vn 2.9802322E-07 -1 1.6093254E-06
vn 2.3841858E-07 -1 1.66893E-06
vn 9.536743E-07 -1 2.9802322E-07
vn 9.536743E-07 -1 2.9802322E-07
vn 4.172325E-07 1 -1.1920929E-07
vn 4.172325E-07 1 -1.1920929E-07
vn 4.172325E-07 1 -1.1920929E-07
vn 4.172325E-07 1 -1.1920929E-07
vn 4.172325E-07 1 0
vn 4.172325E-07 1 0
vn 4.172325E-07 1 0
vn 4.172325E-07 1 0
vn 3.5762787E-07 0.38476562 -0.92285156
vn 3.5762787E-07 0.38476562 -0.92285156
vn 3.5762787E-07 0.38476562 -0.92285156
vn 3.5762787E-07 0.38476562 -0.92285156
vn 3.3974648E-06 0.38476562 -0.92285156
vn 3.3974648E-06 0.38476562 -0.92285156
vn 3.3974648E-06 0.38476562 -0.92285156
vn 3.3974648E-06 0.38476562 -0.92285156
vn -4.172325E-07 -0.38476562 0.92285156
vn -4.172325E-07 -0.38476562 0.92285156
vn -4.172325E-07 -0.38476562 0.92285156
vn -4.172325E-07 -0.38476562 0.92285156
vn -4.172325E-07 -0.38476562 0.92285156
vn -4.172325E-07 -0.38476562 0.92285156
vn -4.172325E-07 -0.38476562 0.92285156
vn -4.172325E-07 -0.38476562 0.92285156
vn -0 0.47387695 0.8803711
vn -0 0.47387695 0.8803711
vn -6.3180923E-06 0.47387695 0.8803711
vn 1.3113022E-06 0.47387695 0.8803711
vn 1.1324883E-06 0.47387695 0.8803711
vn 1.6093254E-06 0.47387695 0.8803711
vn -1.0728836E-06 0.47387695 0.8803711
vn -1.6093254E-06 0.47387695 0.8803711
vn -1.4305115E-06 0.47387695 0.8803711
vn 5.9604645E-06 0.47387695 0.8803711
vn -0 0.47387695 0.8803711
vn -0 0.47387695 0.8803711
vn -3.5762787E-07 0.8803711 -0.47387695
vn -3.5762787E-07 0.8803711 -0.47387695
vn -3.5762787E-07 0.8803711 -0.47387695
vn -3.5762787E-07 0.8803711 -0.47387695
vn 1 -6.4969063E-06 3.516674E-06
vn 1 -6.4969063E-06 3.516674E-06
vn 1 -6.4969063E-06 3.516674E-06
vn 1 -6.4969063E-06 3.516674E-06
vn -1 1.6093254E-06 -8.940697E-07
vn -1 1.6093254E-06 -8.940697E-07
vn -1 1.6093254E-06 -8.940697E-07
vn -1 1.6093254E-06 -8.940697E-07
vn -1 2.3841858E-07 -7.1525574E-07
vn -1 -1.7881393E-07 -4.7683716E-07
vn -1 1.1920929E-07 -1.0728836E-06
vn -1 2.3841858E-07 -7.1525574E-07
vn -1 1.1920929E-07 -1.0728836E-06
vn -1 -1.7881393E-07 -4.7683716E-07
vn -1 -2.9802322E-07 -6.556511E-07
vn -1 -5.9604645E-07 0
vn -1 -5.9604645E-07 0
vn 1 5.9604645E-07 0
vn 1 2.9802322E-07 6.556511E-07
vn 1 5.9604645E-07 0
vn 1 1.7881393E-07 4.7683716E-07
vn 1 -1.1920929E-07 1.0728836E-06
vn 1 -2.3841858E-07 7.1525574E-07
vn 1 -2.3841858E-07 7.1525574E-07
vn 1 -1.1920929E-07 1.0728836E-06
vn 1 1.7881393E-07 4.7683716E-07
vn -4.7683716E-07 0.47387695 0.8803711
vn -4.7683716E-07 0.47387695 0.8803711
vn -4.7683716E-07 0.47387695 0.8803711
vn -4.7683716E-07 0.47387695 0.8803711
vn 3.5762787E-07 -0.8803711 0.47387695
vn 3.5762787E-07 -0.8803711 0.47387695
vn 3.5762787E-07 -0.8803711 0.47387695
vn 3.5762787E-07 -0.8803711 0.47387695
vn 1 0 0
vn 1 0 0
vn 1 0 0
vn 1 0 0
vn -1.1920929E-07 1 0.01612854
vn -1.1920929E-07 1 0.01612854
vn -1.1920929E-07 1 0.01612854
vn -1.1920929E-07 1 0.01612854
vn -1 2.3841858E-07 0
vn -1 2.3841858E-07 0
vn -1 2.3841858E-07 0
vn -1 2.3841858E-07 0
g MainCity_Prop_SignBoard_01_0
f 3/3/3 2/2/2 1/1/1
f 1/1/1 2/2/2 4/4/4
f 2/2/2 5/5/5 4/4/4
f 4/4/4 5/5/5 6/6/6
f 7/7/7 4/4/4 6/6/6
f 10/10/10 9/9/9 8/8/8
f 8/8/8 9/9/9 11/11/11
f 12/12/12 8/8/8 11/11/11
f 12/12/12 11/11/11 13/13/13
f 14/14/14 12/12/12 13/13/13
f 17/17/17 16/16/16 15/15/15
f 18/18/18 17/17/17 15/15/15
f 21/21/21 20/20/20 19/19/19
f 22/22/22 21/21/21 19/19/19
f 25/25/25 24/24/24 23/23/23
f 24/24/24 26/26/26 23/23/23
f 26/26/26 27/27/27 23/23/23
f 26/26/26 24/24/24 28/28/28
f 24/24/24 29/29/29 28/28/28
f 28/28/28 30/30/30 26/26/26
f 30/30/30 31/31/31 26/26/26
f 32/32/32 28/28/28 29/29/29
f 33/33/33 32/32/32 29/29/29
f 29/29/29 34/34/34 33/33/33
f 37/37/37 36/36/36 35/35/35
f 38/38/38 37/37/37 35/35/35
f 41/41/41 40/40/40 39/39/39
f 42/42/42 41/41/41 39/39/39
f 45/45/45 44/44/44 43/43/43
f 46/46/46 45/45/45 43/43/43
f 49/49/49 48/48/48 47/47/47
f 50/50/50 49/49/49 47/47/47
f 53/53/53 52/52/52 51/51/51
f 52/52/52 54/54/54 51/51/51
f 54/54/54 55/55/55 51/51/51
f 55/55/55 56/56/56 51/51/51
f 56/56/56 55/55/55 57/57/57
f 55/55/55 58/58/58 57/57/57
f 61/61/61 60/60/60 59/59/59
f 62/62/62 61/61/61 59/59/59
f 65/65/65 64/64/64 63/63/63
f 66/66/66 65/65/65 63/63/63
f 69/69/69 68/68/68 67/67/67
f 70/70/70 69/69/69 67/67/67
f 73/73/73 72/72/72 71/71/71
f 74/74/74 73/73/73 71/71/71
f 77/77/77 76/76/76 75/75/75
f 78/78/78 77/77/77 75/75/75
f 81/81/81 80/80/80 79/79/79
f 82/82/82 81/81/81 79/79/79
f 85/85/85 84/84/84 83/83/83
f 86/86/86 85/85/85 83/83/83
f 86/86/86 83/83/83 87/87/87
f 83/83/83 88/88/88 87/87/87
f 86/86/86 89/89/89 85/85/85
f 87/87/87 88/88/88 90/90/90
f 91/91/91 87/87/87 90/90/90
f 89/89/89 91/91/91 90/90/90
f 89/89/89 92/92/92 85/85/85
f 93/93/93 89/89/89 90/90/90
f 93/93/93 92/92/92 89/89/89
f 94/94/94 92/92/92 93/93/93
f 97/97/97 96/96/96 95/95/95
f 98/98/98 97/97/97 95/95/95
f 101/101/101 100/100/100 99/99/99
f 102/102/102 101/101/101 99/99/99
f 105/105/105 104/104/104 103/103/103
f 106/106/106 105/105/105 103/103/103
f 109/109/109 108/108/108 107/107/107
f 110/110/110 109/109/109 107/107/107
f 113/113/113 112/112/112 111/111/111
f 112/112/112 113/113/113 114/114/114
f 113/113/113 115/115/115 114/114/114
f 118/118/118 117/117/117 116/116/116
f 117/117/117 119/119/119 116/116/116
f 120/120/120 119/119/119 117/117/117
f 123/123/123 122/122/122 121/121/121
f 124/124/124 123/123/123 121/121/121
f 127/127/127 126/126/126 125/125/125
f 128/128/128 127/127/127 125/125/125
f 131/131/131 130/130/130 129/129/129
f 132/132/132 131/131/131 129/129/129
f 135/135/135 134/134/134 133/133/133
f 136/136/136 135/135/135 133/133/133
f 139/139/139 138/138/138 137/137/137
f 140/140/140 139/139/139 137/137/137
f 143/143/143 142/142/142 141/141/141
f 144/144/144 143/143/143 141/141/141
