g MainCity_Prop_SpiceJar_01
v 0.024794158 0.0043665925 0
v 0.013137741 1.9818543E-07 -0.013137512
v 0.019235 1.9836425E-07 0
v 0.016934738 0.0043665925 -0.016934814
v 0.025951995 0.0155576095 0
v -0 1.9788742E-07 -0.019234924
v 0.0177256 0.015557609 -0.017725829
v 0.024059525 0.036404323 0
v -0 0.0043665934 -0.02479431
v -0.013137894 1.9818543E-07 -0.013137512
v -0.016934738 0.0043665925 -0.016934814
v -0.019235 1.9836425E-07 0
v -0 0.015557609 -0.025952147
v 0.016433029 0.036404327 -0.016433105
v 0.01373146 0.05609216 -0.013731384
v 0.020104216 0.056090157 0
v 0.012161865 0.074378416 -0.012161865
v 0.017806243 0.074378416 0
v 0.013470688 0.09144266 -0.013470764
v 0.019722594 0.09144265 0
v -0 0.09144265 -0.019722594
v -0 0.074378416 -0.017806396
v -0.013470688 0.09144266 -0.013470764
v -0 0.056090154 -0.02010437
v -0.012162018 0.074378416 -0.012161865
v -0.019722747 0.09144265 0
v -0 0.036404323 -0.024059448
v -0.013731613 0.05609216 -0.013731384
v -0.017806472 0.074378416 0
v -0.013470688 0.09144265 0.013471069
v -0.017725753 0.015557609 -0.017725829
v -0.016433181 0.036404327 -0.016433105
v -0.02010437 0.056090154 0
v -0.012162094 0.074378416 0.012161865
v -0 0.09144265 0.019722594
v -0.0259523 0.0155576095 0
v -0.024059752 0.036404323 0
v -0.013731689 0.05609216 0.013731384
v -0 0.074378416 0.017806396
v 0.013470688 0.09144265 0.013471069
v 0.012161865 0.074378416 0.012161865
v 0.019722594 0.09144265 0
v 0.017806243 0.074378416 0
v -0 0.056090154 0.02010437
v 0.01373146 0.05609216 0.013731384
v 0.020104216 0.056090157 0
v -0.016433181 0.036404323 0.016433105
v 0.016433029 0.036404327 0.016433105
v 0.024059525 0.036404323 0
v 0.025951995 0.0155576095 0
v -0 0.036404323 0.024059448
v 0.0177256 0.0155576095 0.017725829
v 0.024794158 0.0043665925 0
v -0.017725753 0.0155576095 0.017725829
v -0 0.0155576095 0.025952147
v 0.016934738 0.004366592 0.016934814
v 0.019235 1.9836425E-07 0
v 0.013137741 1.9818543E-07 0.013137817
v -0 0.004366592 0.02479431
v -0 1.9788742E-07 0.019234924
v -0.01693489 0.004366592 0.016934814
v -0.013137894 1.9818543E-07 0.013137817
v -0.02479431 0.0043665925 0
v 0.022792663 0.10723611 0
v -0.019738616 0.10723611 0.011396179
v -0.022792052 0.10723611 0
v 0.019738998 0.10723611 0.011396179
v -0.011395797 0.10723611 0.01973877
v 0.011396408 0.10723611 0.01973877
v 2.2888183E-07 0.10723611 0.022792358
v -0.022792052 0.09144265 0
v -0.019738464 0.10723611 -0.0113958735
v -0.022792052 0.10723611 0
v -0.019738464 0.09144265 -0.0113958735
v -0.011395797 0.10723611 -0.01973877
v -0.011395797 0.09144265 -0.01973877
v 2.2888183E-07 0.10723611 -0.022792358
v 2.2888183E-07 0.09144265 -0.022792358
v 0.011396408 0.10723611 -0.01973877
v 0.011396408 0.09144265 -0.01973877
v 0.019738998 0.10723611 -0.0113958735
v 0.019738998 0.09144265 -0.0113958735
v 0.022792663 0.10723611 0
v 0.022792663 0.09144265 0
v -0.022792052 0.10723611 0
v -0.019738616 0.09144265 0.011396179
v -0.022792052 0.09144265 0
v -0.019738616 0.10723611 0.011396179
v -0.011395797 0.09144265 0.01973877
v -0.011395797 0.10723611 0.01973877
v 2.2888183E-07 0.09144265 0.022792358
v 2.2888183E-07 0.10723611 0.022792358
v 0.011396408 0.09144265 0.01973877
v 0.011396408 0.10723611 0.01973877
v 0.019738998 0.09144265 0.011396179
v 0.019738998 0.10723611 0.011396179
v 0.022792663 0.09144265 0
v 0.022792663 0.10723611 0
v 0.011396408 0.09144265 -0.01973877
v 2.2888183E-07 0.09144265 -0.022792358
v -0.011395797 0.09144265 -0.01973877
v -0.019738464 0.09144265 -0.0113958735
v 0.019738998 0.09144265 -0.0113958735
v 0.022792663 0.09144265 0
v -0.022792052 0.09144265 0
v 5.2796633E-05 0.13948213 0.0024023529
v -0.0017953169 0.13950294 0.0016371132
v 0.0019008871 0.1394882 0.0016367988
v 0.0026663684 0.13951759 -0.00021109819
v -0.002560854 0.13953842 -0.00021065354
v 0.0019008323 0.13955307 -0.0020588653
v -0.0017953735 0.13956782 -0.0020585507
v 5.271908E-05 0.13957389 -0.0028241058
v -0.005082531 0.107236095 0.004997934
v -0.0073445314 0.10723611 -0.00010613323
v -0.002560854 0.13953842 -0.00021065354
v -0.0017953169 0.13950294 0.0016371132
v 0.00012606573 0.10723611 0.007007579
v 5.2796633E-05 0.13948213 0.0024023529
v 0.0052301334 0.10723611 0.0047455793
v 0.0019008871 0.1394882 0.0016367988
v 0.0072397795 0.10723611 -0.00046301627
v 0.0026663684 0.13951759 -0.00021109819
v 0.0026663684 0.13951759 -0.00021109819
v 0.0019008323 0.13955307 -0.0020588653
v 0.0072397795 0.10723611 -0.00046301627
v 0.0049777767 0.10723612 -0.005567089
v 5.271908E-05 0.13957389 -0.0028241058
v -0.00023082062 0.10723611 -0.007576732
v -0.0017953735 0.13956782 -0.0020585507
v -0.005334887 0.10723611 -0.00531473
v -0.0073445314 0.10723611 -0.00010613323
v -0.002560854 0.13953842 -0.00021065354
v 0.022792663 0.10723611 0
v -0.022792052 0.10723611 0
v -0.019738464 0.10723611 -0.0113958735
v 0.019738998 0.10723611 -0.0113958735
v 0.011396408 0.10723611 -0.01973877
v -0.011395797 0.10723611 -0.01973877
v 2.2888183E-07 0.10723611 -0.022792358
v -0.022792052 0.09144265 0
v 0.019738998 0.09144265 0.011396179
v 0.022792663 0.09144265 0
v -0.019738616 0.09144265 0.011396179
v 0.011396408 0.09144265 0.01973877
v -0.011395797 0.09144265 0.01973877
v 2.2888183E-07 0.09144265 0.022792358
v -0 1.9788742E-07 -0.019234924
v -0.013137894 1.9818543E-07 -0.013137512
v -0.019235 1.9836425E-07 0
v 0.019235 1.9836425E-07 0
v 0.013137741 1.9818543E-07 -0.013137512
v -0 1.9788742E-07 0.019234924
v 0.013137741 1.9818543E-07 0.013137817
v 0.019235 1.9836425E-07 0
v -0.019235 1.9836425E-07 0
v -0.013137894 1.9818543E-07 0.013137817
vt 0.51904297 0.63964844
vt 0.5288086 0.6357422
vt 0.51904297 0.6357422
vt 0.5288086 0.63964844
vt 0.51904297 0.6464844
vt 0.53808594 0.6357422
vt 0.5288086 0.6464844
vt 0.51904297 0.6586914
vt 0.53808594 0.63964844
vt 0.5473633 0.6357422
vt 0.5473633 0.63964844
vt 0.5571289 0.6357422
vt 0.53808594 0.6464844
vt 0.5288086 0.6586914
vt 0.5288086 0.67041016
vt 0.51904297 0.67041016
vt 0.5288086 0.6816406
vt 0.51904297 0.6816406
vt 0.5288086 0.69189453
vt 0.51904297 0.69189453
vt 0.53808594 0.69189453
vt 0.53808594 0.6816406
vt 0.5473633 0.69189453
vt 0.53808594 0.67041016
vt 0.5473633 0.6816406
vt 0.5571289 0.69189453
vt 0.53808594 0.6586914
vt 0.5473633 0.67041016
vt 0.5571289 0.6816406
vt 0.56689453 0.69189453
vt 0.5473633 0.6464844
vt 0.5473633 0.6586914
vt 0.5571289 0.67041016
vt 0.56689453 0.6816406
vt 0.5761719 0.69189453
vt 0.5571289 0.6464844
vt 0.5571289 0.6586914
vt 0.56689453 0.67041016
vt 0.5761719 0.6816406
vt 0.5854492 0.69189453
vt 0.5854492 0.6816406
vt 0.59521484 0.69189453
vt 0.59521484 0.6816406
vt 0.5761719 0.67041016
vt 0.5854492 0.67041016
vt 0.59521484 0.67041016
vt 0.56689453 0.6586914
vt 0.5854492 0.6586914
vt 0.59521484 0.6586914
vt 0.59521484 0.6464844
vt 0.5761719 0.6586914
vt 0.5854492 0.6464844
vt 0.59521484 0.63964844
vt 0.56689453 0.6464844
vt 0.5761719 0.6464844
vt 0.5854492 0.63964844
vt 0.59521484 0.6357422
vt 0.5854492 0.6357422
vt 0.5761719 0.63964844
vt 0.5761719 0.6357422
vt 0.56689453 0.63964844
vt 0.56689453 0.6357422
vt 0.5571289 0.63964844
vt 0.48510742 0.61376953
vt 0.5151367 0.6220703
vt 0.5175781 0.61376953
vt 0.4873047 0.6220703
vt 0.50927734 0.6279297
vt 0.49316406 0.6279297
vt 0.50146484 0.6298828
vt 0.46875 0.61376953
vt 0.46191406 0.6245117
vt 0.46875 0.6245117
vt 0.46191406 0.61376953
vt 0.45483398 0.6245117
vt 0.45483398 0.61376953
vt 0.44799805 0.6245117
vt 0.44799805 0.61376953
vt 0.44091797 0.6245117
vt 0.44091797 0.61376953
vt 0.43408203 0.6245117
vt 0.43408203 0.61376953
vt 0.4272461 0.6245117
vt 0.4272461 0.61376953
vt 0.4272461 0.6245117
vt 0.43408203 0.61376953
vt 0.4272461 0.61376953
vt 0.43408203 0.6245117
vt 0.44091797 0.61376953
vt 0.44091797 0.6245117
vt 0.44799805 0.61376953
vt 0.44799805 0.6245117
vt 0.45483398 0.61376953
vt 0.45483398 0.6245117
vt 0.46191406 0.61376953
vt 0.46191406 0.6245117
vt 0.46875 0.61376953
vt 0.46875 0.6245117
vt 0.49316406 0.6279297
vt 0.50146484 0.6298828
vt 0.50927734 0.6279297
vt 0.5151367 0.6220703
vt 0.4873047 0.6220703
vt 0.48510742 0.61376953
vt 0.5175781 0.61376953
vt 0.4970703 0.16992188
vt 0.49438477 0.16748047
vt 0.4970703 0.17358398
vt 0.4946289 0.17614746
vt 0.4909668 0.16748047
vt 0.4909668 0.17614746
vt 0.48828125 0.17004395
vt 0.4885254 0.17370605
vt 0.7270508 0.5292969
vt 0.72314453 0.5292969
vt 0.72802734 0.5073242
vt 0.7294922 0.5073242
vt 0.73095703 0.5292969
vt 0.73095703 0.5073242
vt 0.7348633 0.5292969
vt 0.7324219 0.5073242
vt 0.73876953 0.5292969
vt 0.73339844 0.5073242
vt 0.73339844 0.5073242
vt 0.7324219 0.5073242
vt 0.73876953 0.5292969
vt 0.7348633 0.5292969
vt 0.73095703 0.5073242
vt 0.73095703 0.5292969
vt 0.7294922 0.5073242
vt 0.7270508 0.5292969
vt 0.72314453 0.5292969
vt 0.72802734 0.5073242
vt 0.5175781 0.61376953
vt 0.48510742 0.61376953
vt 0.4873047 0.6220703
vt 0.5151367 0.6220703
vt 0.50927734 0.6279297
vt 0.49316406 0.6279297
vt 0.50146484 0.6298828
vt 0.48510742 0.61376953
vt 0.5151367 0.6220703
vt 0.5175781 0.61376953
vt 0.4873047 0.6220703
vt 0.50927734 0.6279297
vt 0.49316406 0.6279297
vt 0.50146484 0.6298828
vt 0.68652344 0.28955078
vt 0.6826172 0.28173828
vt 0.67529297 0.27807617
vt 0.67529297 0.30078125
vt 0.6826172 0.29711914
vt 0.68652344 0.28955078
vt 0.6826172 0.28173828
vt 0.67529297 0.27807617
vt 0.67529297 0.30078125
vt 0.6826172 0.29711914
vn 0.8964844 -0.44335938 0
vn 0.28100586 -0.91748047 -0.28100586
vn 0.40234375 -0.91552734 -4.7683716E-07
vn 0.63427734 -0.44189453 -0.63427734
vn 1 -0.006126404 0
vn 2.3841858E-07 -0.91552734 -0.40234375
vn 0.70703125 -0.0059509277 -0.70703125
vn 0.9897461 0.1418457 0
vn 5.9604645E-07 -0.44335938 -0.8964844
vn -0.28125 -0.91748047 -0.28100586
vn -0.63427734 -0.44189453 -0.63427734
vn -0.40234375 -0.91552734 -2.026558E-06
vn 1.2516975E-06 -0.006126404 -1
vn 0.7001953 0.13757324 -0.7001953
vn 0.6982422 0.15686035 -0.6982422
vn 0.9868164 0.16247559 0
vn 0.70703125 0.0065345764 -0.70703125
vn 1 0.00680542 -1.1920929E-06
vn 0.703125 -0.10784912 -0.703125
vn 0.99365234 -0.111572266 -2.3245811E-06
vn 1.0728836E-06 -0.111572266 -0.99365234
vn 1.7285347E-06 0.00680542 -1
vn -0.703125 -0.10784912 -0.703125
vn 2.0861626E-06 0.16247559 -0.9868164
vn -0.70703125 0.0065345764 -0.70703125
vn -0.99365234 -0.111572266 -3.5762787E-06
vn 1.7881393E-06 0.1418457 -0.9897461
vn -0.6982422 0.15686035 -0.6982422
vn -1 0.0068092346 -3.0994415E-06
vn -0.703125 -0.10784912 0.703125
vn -0.70703125 -0.0059547424 -0.70703125
vn -0.7001953 0.13757324 -0.7001953
vn -0.9868164 0.16247559 -1.66893E-06
vn -0.70703125 0.0065345764 0.70703125
vn 1.6093254E-06 -0.111572266 0.99365234
vn -1 -0.0061302185 -8.34465E-07
vn -0.9897461 0.1418457 -4.172325E-07
vn -0.6982422 0.15686035 0.6982422
vn 2.6226044E-06 0.006801605 1
vn 0.703125 -0.10784912 0.703125
vn 0.70703125 0.0065307617 0.70703125
vn 0.99365234 -0.111572266 -2.3245811E-06
vn 1 0.00680542 -1.1920929E-06
vn 2.861023E-06 0.16247559 0.9868164
vn 0.6982422 0.15686035 0.6982422
vn 0.9868164 0.16247559 0
vn -0.7001953 0.13757324 0.7001953
vn 0.7001953 0.13757324 0.7001953
vn 0.9897461 0.1418457 0
vn 1 -0.006126404 0
vn 1.9669533E-06 0.1418457 0.9897461
vn 0.70703125 -0.0059509277 0.70703125
vn 0.8964844 -0.44335938 0
vn -0.70703125 -0.0059547424 0.70703125
vn 1.6093254E-06 -0.006126404 1
vn 0.63427734 -0.44189453 0.63427734
vn 0.40234375 -0.91552734 -4.7683716E-07
vn 0.28125 -0.91748047 0.28125
vn 1.4901161E-06 -0.44335938 0.8964844
vn 9.536743E-07 -0.91552734 0.40234375
vn -0.63427734 -0.44189453 0.63427734
vn -0.28125 -0.91748047 0.28100586
vn -0.8964844 -0.44335938 -2.026558E-06
vn -0 1 0
vn -0 1 0
vn -0 1 0
vn -0 1 0
vn -0 1 0
vn -0 1 0
vn -0 1 0
vn -1 0 -9.596348E-06
vn -0.86621094 0 -0.5
vn -1 0 -9.596348E-06
vn -0.86621094 0 -0.5
vn -0.5 0 -0.86621094
vn -0.5 0 -0.86621094
vn -1.66893E-06 0 -1
vn -1.66893E-06 0 -1
vn 0.5 0 -0.86621094
vn 0.5 0 -0.86621094
vn 0.86621094 0 -0.5
vn 0.86621094 0 -0.5
vn 1 0 -3.33786E-06
vn 1 0 -3.33786E-06
vn -1 0 -9.596348E-06
vn -0.86621094 0 0.5
vn -1 0 -9.596348E-06
vn -0.86621094 0 0.5
vn -0.5 0 0.86621094
vn -0.5 0 0.86621094
vn -1.66893E-06 0 1
vn -1.66893E-06 0 1
vn 0.5 0 0.86621094
vn 0.5 0 0.86621094
vn 0.86621094 0 0.5
vn 0.86621094 0 0.5
vn 1 0 -3.33786E-06
vn 1 0 -3.33786E-06
vn -0 -1 0
vn -0 -1 0
vn -0 -1 0
vn -0 -1 0
vn -0 -1 0
vn -0 -1 0
vn -0 -1 0
vn 0.0039901733 1 0.017547607
vn 0.0039901733 1 0.017547607
vn 0.0039901733 1 0.017547607
vn 0.0039901733 1 0.017547607
vn 0.0039901733 1 0.017547607
vn 0.0039901733 1 0.017547607
vn 0.0039901733 1 0.017547607
vn 0.0039901733 1 0.017547607
vn -0.68310547 0.14489746 0.7158203
vn -0.98876953 0.1472168 0.0236969
vn -0.9892578 0.14477539 -0.0014352798
vn -0.7001953 0.14233398 0.69921875
vn 0.023513794 0.14208984 0.9897461
vn 0.00047016144 0.1394043 0.9902344
vn 0.7167969 0.140625 0.6826172
vn 0.7011719 0.13757324 0.69921875
vn 0.9897461 0.14038086 -0.024230957
vn 0.9902344 0.14025879 -7.0929527E-06
vn 0.9902344 0.14025879 -7.0929527E-06
vn 0.69921875 0.14477539 -0.7001953
vn 0.9897461 0.14038086 -0.024230957
vn 0.6821289 0.14196777 -0.71728516
vn 0.00025773048 0.14746094 -0.9892578
vn -0.024932861 0.14477539 -0.9892578
vn -0.69921875 0.1472168 -0.69921875
vn -0.7167969 0.14709473 -0.6816406
vn -0.98876953 0.1472168 0.0236969
vn -0.9892578 0.14477539 -0.0014352798
vn -0 1 0
vn -0 1 0
vn -0 1 0
vn -0 1 0
vn -0 1 0
vn -0 1 0
vn -0 1 0
vn -0 -1 0
vn -0 -1 0
vn -0 -1 0
vn -0 -1 0
vn -0 -1 0
vn -0 -1 0
vn -0 -1 0
vn 2.3841858E-07 -0.91552734 -0.40234375
vn -0.28125 -0.91748047 -0.28100586
vn -0.40234375 -0.91552734 -2.026558E-06
vn 0.40234375 -0.91552734 -4.7683716E-07
vn 0.28100586 -0.91748047 -0.28100586
vn 9.536743E-07 -0.91552734 0.40234375
vn 0.28125 -0.91748047 0.28125
vn 0.40234375 -0.91552734 -4.7683716E-07
vn -0.40234375 -0.91552734 -2.026558E-06
vn -0.28125 -0.91748047 0.28100586
g MainCity_Prop_SpiceJar_01_0
f 3/3/3 2/2/2 1/1/1
f 2/2/2 4/4/4 1/1/1
f 1/1/1 4/4/4 5/5/5
f 2/2/2 6/6/6 4/4/4
f 4/4/4 7/7/7 5/5/5
f 5/5/5 7/7/7 8/8/8
f 6/6/6 9/9/9 4/4/4
f 4/4/4 9/9/9 7/7/7
f 6/6/6 10/10/10 9/9/9
f 10/10/10 11/11/11 9/9/9
f 10/10/10 12/12/12 11/11/11
f 9/9/9 13/13/13 7/7/7
f 9/9/9 11/11/11 13/13/13
f 7/7/7 14/14/14 8/8/8
f 7/7/7 13/13/13 14/14/14
f 8/8/8 14/14/14 15/15/15
f 16/16/16 8/8/8 15/15/15
f 16/16/16 15/15/15 17/17/17
f 18/18/18 16/16/16 17/17/17
f 17/17/17 19/19/19 18/18/18
f 19/19/19 20/20/20 18/18/18
f 21/21/21 19/19/19 17/17/17
f 22/22/22 21/21/21 17/17/17
f 17/17/17 15/15/15 22/22/22
f 23/23/23 21/21/21 22/22/22
f 15/15/15 14/14/14 24/24/24
f 15/15/15 24/24/24 22/22/22
f 25/25/25 23/23/23 22/22/22
f 22/22/22 24/24/24 25/25/25
f 26/26/26 23/23/23 25/25/25
f 13/13/13 27/27/27 14/14/14
f 14/14/14 27/27/27 24/24/24
f 24/24/24 28/28/28 25/25/25
f 24/24/24 27/27/27 28/28/28
f 29/29/29 26/26/26 25/25/25
f 29/29/29 25/25/25 28/28/28
f 30/30/30 26/26/26 29/29/29
f 13/13/13 31/31/31 27/27/27
f 11/11/11 31/31/31 13/13/13
f 27/27/27 32/32/32 28/28/28
f 31/31/31 32/32/32 27/27/27
f 33/33/33 29/29/29 28/28/28
f 28/28/28 32/32/32 33/33/33
f 34/34/34 30/30/30 29/29/29
f 29/29/29 33/33/33 34/34/34
f 35/35/35 30/30/30 34/34/34
f 36/36/36 31/31/31 11/11/11
f 32/32/32 31/31/31 36/36/36
f 32/32/32 37/37/37 33/33/33
f 37/37/37 32/32/32 36/36/36
f 33/33/33 38/38/38 34/34/34
f 33/33/33 37/37/37 38/38/38
f 39/39/39 35/35/35 34/34/34
f 34/34/34 38/38/38 39/39/39
f 40/40/40 35/35/35 39/39/39
f 41/41/41 40/40/40 39/39/39
f 42/42/42 40/40/40 41/41/41
f 43/43/43 42/42/42 41/41/41
f 38/38/38 44/44/44 39/39/39
f 39/39/39 44/44/44 41/41/41
f 41/41/41 45/45/45 43/43/43
f 44/44/44 45/45/45 41/41/41
f 45/45/45 46/46/46 43/43/43
f 37/37/37 47/47/47 38/38/38
f 38/38/38 47/47/47 44/44/44
f 45/45/45 48/48/48 46/46/46
f 48/48/48 49/49/49 46/46/46
f 50/50/50 49/49/49 48/48/48
f 44/44/44 51/51/51 45/45/45
f 51/51/51 48/48/48 45/45/45
f 47/47/47 51/51/51 44/44/44
f 52/52/52 50/50/50 48/48/48
f 52/52/52 48/48/48 51/51/51
f 53/53/53 50/50/50 52/52/52
f 54/54/54 47/47/47 37/37/37
f 36/36/36 54/54/54 37/37/37
f 55/55/55 51/51/51 47/47/47
f 55/55/55 52/52/52 51/51/51
f 54/54/54 55/55/55 47/47/47
f 56/56/56 53/53/53 52/52/52
f 56/56/56 52/52/52 55/55/55
f 57/57/57 53/53/53 56/56/56
f 58/58/58 57/57/57 56/56/56
f 59/59/59 56/56/56 55/55/55
f 58/58/58 56/56/56 59/59/59
f 59/59/59 55/55/55 54/54/54
f 60/60/60 58/58/58 59/59/59
f 61/61/61 59/59/59 54/54/54
f 60/60/60 59/59/59 61/61/61
f 61/61/61 54/54/54 36/36/36
f 62/62/62 60/60/60 61/61/61
f 62/62/62 61/61/61 12/12/12
f 63/63/63 61/61/61 36/36/36
f 61/61/61 63/63/63 12/12/12
f 63/63/63 36/36/36 11/11/11
f 12/12/12 63/63/63 11/11/11
f 66/66/66 65/65/65 64/64/64
f 65/65/65 67/67/67 64/64/64
f 65/65/65 68/68/68 67/67/67
f 68/68/68 69/69/69 67/67/67
f 68/68/68 70/70/70 69/69/69
f 73/73/73 72/72/72 71/71/71
f 72/72/72 74/74/74 71/71/71
f 74/74/74 72/72/72 75/75/75
f 76/76/76 74/74/74 75/75/75
f 76/76/76 75/75/75 77/77/77
f 78/78/78 76/76/76 77/77/77
f 78/78/78 77/77/77 79/79/79
f 80/80/80 78/78/78 79/79/79
f 80/80/80 79/79/79 81/81/81
f 82/82/82 80/80/80 81/81/81
f 82/82/82 81/81/81 83/83/83
f 84/84/84 82/82/82 83/83/83
f 87/87/87 86/86/86 85/85/85
f 86/86/86 88/88/88 85/85/85
f 86/86/86 89/89/89 88/88/88
f 89/89/89 90/90/90 88/88/88
f 89/89/89 91/91/91 90/90/90
f 91/91/91 92/92/92 90/90/90
f 91/91/91 93/93/93 92/92/92
f 93/93/93 94/94/94 92/92/92
f 93/93/93 95/95/95 94/94/94
f 95/95/95 96/96/96 94/94/94
f 95/95/95 97/97/97 96/96/96
f 97/97/97 98/98/98 96/96/96
f 101/101/101 100/100/100 99/99/99
f 101/101/101 99/99/99 102/102/102
f 99/99/99 103/103/103 102/102/102
f 103/103/103 104/104/104 102/102/102
f 104/104/104 105/105/105 102/102/102
f 108/108/108 107/107/107 106/106/106
f 108/108/108 109/109/109 107/107/107
f 109/109/109 110/110/110 107/107/107
f 110/110/110 109/109/109 111/111/111
f 112/112/112 110/110/110 111/111/111
f 112/112/112 111/111/111 113/113/113
f 116/116/116 115/115/115 114/114/114
f 116/116/116 114/114/114 117/117/117
f 117/117/117 114/114/114 118/118/118
f 117/117/117 118/118/118 119/119/119
f 119/119/119 118/118/118 120/120/120
f 119/119/119 120/120/120 121/121/121
f 121/121/121 120/120/120 122/122/122
f 121/121/121 122/122/122 123/123/123
f 126/126/126 125/125/125 124/124/124
f 126/126/126 127/127/127 125/125/125
f 127/127/127 128/128/128 125/125/125
f 127/127/127 129/129/129 128/128/128
f 129/129/129 130/130/130 128/128/128
f 129/129/129 131/131/131 130/130/130
f 130/130/130 131/131/131 132/132/132
f 130/130/130 132/132/132 133/133/133
f 136/136/136 135/135/135 134/134/134
f 137/137/137 136/136/136 134/134/134
f 137/137/137 138/138/138 136/136/136
f 138/138/138 139/139/139 136/136/136
f 138/138/138 140/140/140 139/139/139
f 143/143/143 142/142/142 141/141/141
f 142/142/142 144/144/144 141/141/141
f 142/142/142 145/145/145 144/144/144
f 145/145/145 146/146/146 144/144/144
f 145/145/145 147/147/147 146/146/146
f 150/150/150 149/149/149 148/148/148
f 150/150/150 148/148/148 151/151/151
f 148/148/148 152/152/152 151/151/151
f 155/155/155 154/154/154 153/153/153
f 155/155/155 153/153/153 156/156/156
f 153/153/153 157/157/157 156/156/156
