g MainCity_Prop_Gadgets_04
v 0.014382057 0.21132419 -0.014382069
v -0 0.2302193 -0.020339398
v -0 0.21132419 -0.020339327
v 0.014382133 0.2302193 -0.014382124
v 0.020339318 0.21132419 1.4082274E-09
v 0.020339394 0.2302193 1.4082231E-09
v 0.014382057 0.21132419 0.014382071
v 0.014382133 0.2302193 0.0143821305
v -0 0.21132419 -0.020339327
v -0 0.2302193 -0.020339398
v -0.014382133 0.2302193 -0.014382124
v -0.014382057 0.21132419 -0.014382069
v -0.020339394 0.2302193 1.4082231E-09
v -0.020339318 0.21132419 1.4082274E-09
v -0.014382133 0.2302193 0.0143821305
v -0.014382057 0.21132419 0.01438207
v -0 0.2302193 0.020339403
v -0 0.21132419 0.020339329
v 0.014382133 0.2302193 0.0143821305
v 0.014382057 0.21132419 0.014382071
v 0.031088255 -0.00012222528 -0.03108827
v -0 -0.00012222528 -0.04396546
v -0.031088255 -0.00012222528 -0.03108827
v 0.04396545 -0.00012222528 0
v -0.04396545 -0.00012222528 0
v 0.031088255 -0.00012222528 0.031088276
v -0.031088255 -0.00012222528 0.03108827
v -0 -0.00012222528 0.04396546
v 0.014382133 0.2302193 0.0143821305
v -0 0.2302193 0.020339403
v -0.014382133 0.2302193 0.0143821305
v -0.020339394 0.2302193 1.4082231E-09
v 0.020339394 0.2302193 1.4082231E-09
v 0.014382133 0.2302193 -0.014382124
v -0.014382133 0.2302193 -0.014382124
v -0 0.2302193 -0.020339398
v 0.031088255 -0.00012222528 -0.03108827
v -0 0.18661991 -0.04396546
v -0 -0.00012222528 -0.04396546
v 0.031088255 0.18661991 -0.03108827
v 0.04396545 -0.00012222528 0
v 0.04396545 0.18661991 0
v 0.031088255 -0.00012222528 0.031088276
v 0.031088255 0.18661991 0.031088276
v -0 -0.00012222528 -0.04396546
v -0 0.18661991 -0.04396546
v -0.031088255 0.18661991 -0.03108827
v -0.031088255 -0.00012222528 -0.03108827
v -0.04396545 0.18661991 0
v -0.04396545 -0.00012222528 0
v -0.031088255 0.18661991 0.03108827
v -0.031088255 -0.00012222528 0.03108827
v -0 0.18661991 0.04396546
v -0 -0.00012222528 0.04396546
v 0.031088255 0.18661991 0.031088276
v 0.031088255 -0.00012222528 0.031088276
v -0 0.20305036 -0.03396598
v -0 0.18661991 -0.04396546
v 0.031088255 0.18661991 -0.03108827
v 0.024017563 0.20305036 -0.024017572
v -0 0.21132419 -0.020339327
v 0.04396545 0.18661991 0
v 0.014382057 0.21132419 -0.014382069
v 0.033965986 0.20305036 1.0750482E-09
v 0.031088255 0.18661991 0.031088276
v 0.020339318 0.21132419 1.4082274E-09
v 0.024017563 0.20305036 0.024017572
v 0.014382057 0.21132419 0.014382071
v 0.024017563 0.20305036 0.024017572
v 0.031088255 0.18661991 0.031088276
v -0 0.18661991 0.04396546
v -0 0.20305036 0.033965982
v 0.014382057 0.21132419 0.014382071
v -0.031088255 0.18661991 0.03108827
v -0 0.21132419 0.020339329
v -0.024017563 0.20305036 0.024017572
v -0.04396545 0.18661991 0
v -0.014382057 0.21132419 0.01438207
v -0.033965986 0.20305036 1.0750482E-09
v -0.031088255 0.18661991 -0.03108827
v -0.020339318 0.21132419 1.4082274E-09
v -0.024017563 0.20305036 -0.024017572
v -0 0.18661991 -0.04396546
v -0.014382057 0.21132419 -0.014382069
v -0 0.20305036 -0.03396598
v -0 0.21132419 -0.020339327
vt 0.012359619 0.39746094
vt 0.002937317 0.38598633
vt 0.0029392242 0.39746094
vt 0.012359619 0.38598633
vt 0.02178955 0.39746094
vt 0.02178955 0.38598633
vt 0.031204224 0.39746094
vt 0.031204224 0.38598633
vt 0.078308105 0.39746094
vt 0.078308105 0.38598633
vt 0.06890869 0.38598633
vt 0.06890869 0.39746094
vt 0.05947876 0.38598633
vt 0.05947876 0.39746094
vt 0.050048828 0.38598633
vt 0.050048828 0.39746094
vt 0.040618896 0.38598633
vt 0.040618896 0.39746094
vt 0.031204224 0.38598633
vt 0.031204224 0.39746094
vt 0.61279297 0.4909668
vt 0.61279297 0.48339844
vt 0.6074219 0.47802734
vt 0.6074219 0.4963379
vt 0.5996094 0.47802734
vt 0.5996094 0.4963379
vt 0.5942383 0.48339844
vt 0.5942383 0.4909668
vt 0.6845703 0.5390625
vt 0.6845703 0.52978516
vt 0.6777344 0.5229492
vt 0.66845703 0.5229492
vt 0.6777344 0.54589844
vt 0.66845703 0.54589844
vt 0.6616211 0.52978516
vt 0.6616211 0.5390625
vt 0.11633301 0.36206055
vt 0.003293991 0.38232422
vt 0.11633301 0.38232422
vt 0.003293991 0.36206055
vt 0.11633301 0.34155273
vt 0.003293991 0.34155273
vt 0.11633301 0.32128906
vt 0.003293991 0.32128906
vt 0.11633301 0.21936035
vt 0.003293991 0.21936035
vt 0.003293991 0.2397461
vt 0.11633301 0.2397461
vt 0.003293991 0.26000977
vt 0.11633301 0.26000977
vt 0.003293991 0.28051758
vt 0.11633301 0.28051758
vt 0.003293991 0.30078125
vt 0.11633301 0.30078125
vt 0.003293991 0.32128906
vt 0.11633301 0.32128906
vt 0.6904297 0.5107422
vt 0.69628906 0.5004883
vt 0.67626953 0.49389648
vt 0.67578125 0.5053711
vt 0.68408203 0.5180664
vt 0.6557617 0.49853516
vt 0.67529297 0.5151367
vt 0.6611328 0.50878906
vt 0.6401367 0.5131836
vt 0.66552734 0.51708984
vt 0.6503906 0.51904297
vt 0.6582031 0.5239258
vt 0.6503906 0.51904297
vt 0.6401367 0.5131836
vt 0.63427734 0.5336914
vt 0.6459961 0.5336914
vt 0.6582031 0.5239258
vt 0.6401367 0.5541992
vt 0.6557617 0.5336914
vt 0.64990234 0.54785156
vt 0.6557617 0.56884766
vt 0.6586914 0.54296875
vt 0.6611328 0.55859375
vt 0.67626953 0.5732422
vt 0.66552734 0.5498047
vt 0.67578125 0.56152344
vt 0.6958008 0.5673828
vt 0.67529297 0.5522461
vt 0.6904297 0.5571289
vt 0.6845703 0.5488281
vn 0.70703125 -4.4107437E-06 -0.70703125
vn -0 -4.172325E-06 -1
vn -0 -4.172325E-06 -1
vn 0.70703125 -4.4107437E-06 -0.70703125
vn 1 -4.6491623E-06 0
vn 1 -4.6491623E-06 0
vn 0.70703125 -4.529953E-06 0.70703125
vn 0.70703125 -4.529953E-06 0.70703125
vn -0 -4.172325E-06 -1
vn -0 -4.172325E-06 -1
vn -0.70703125 -4.4107437E-06 -0.70703125
vn -0.70703125 -4.4107437E-06 -0.70703125
vn -1 -4.6491623E-06 0
vn -1 -4.6491623E-06 0
vn -0.70703125 -4.529953E-06 0.70703125
vn -0.70703125 -4.529953E-06 0.70703125
vn -0 -4.4107437E-06 1
vn -0 -4.4107437E-06 1
vn 0.70703125 -4.529953E-06 0.70703125
vn 0.70703125 -4.529953E-06 0.70703125
vn -0 -1 0
vn -0 -1 0
vn -0 -1 0
vn -0 -1 0
vn -0 -1 0
vn -0 -1 0
vn -0 -1 0
vn -0 -1 0
vn -0 1 0
vn -0 1 0
vn -0 1 0
vn -0 1 0
vn -0 1 0
vn -0 1 0
vn -0 1 0
vn -0 1 0
vn 0.70703125 0 -0.70703125
vn -0 0.2541504 -0.96728516
vn -0 0 -1
vn 0.68408203 0.2541504 -0.68408203
vn 1 0 0
vn 0.96728516 0.2541504 0
vn 0.70703125 0 0.70703125
vn 0.68408203 0.2541504 0.68408203
vn -0 0 -1
vn -0 0.2541504 -0.96728516
vn -0.68408203 0.2541504 -0.68408203
vn -0.70703125 0 -0.70703125
vn -0.96728516 0.2541504 0
vn -1 0 0
vn -0.68408203 0.2541504 0.68408203
vn -0.70703125 0 0.70703125
vn -0 0.2541504 0.96728516
vn -0 0 1
vn 0.68408203 0.2541504 0.68408203
vn 0.70703125 0 0.70703125
vn -0 0.6791992 -0.7338867
vn -0 0.2541504 -0.96728516
vn 0.68408203 0.2541504 -0.68408203
vn 0.51904297 0.6791992 -0.51904297
vn -0 0.85498047 -0.51904297
vn 0.96728516 0.2541504 0
vn 0.36694336 0.85498047 -0.36694336
vn 0.7338867 0.6791992 0
vn 0.68408203 0.2541504 0.68408203
vn 0.51904297 0.85498047 0
vn 0.51904297 0.6791992 0.51904297
vn 0.36694336 0.85498047 0.36694336
vn 0.51904297 0.6791992 0.51904297
vn 0.68408203 0.2541504 0.68408203
vn -0 0.2541504 0.96728516
vn -0 0.6791992 0.7338867
vn 0.36694336 0.85498047 0.36694336
vn -0.68408203 0.2541504 0.68408203
vn -0 0.85498047 0.51904297
vn -0.51904297 0.6791992 0.51904297
vn -0.96728516 0.2541504 0
vn -0.36694336 0.85498047 0.36694336
vn -0.7338867 0.6791992 0
vn -0.68408203 0.2541504 -0.68408203
vn -0.51904297 0.85498047 0
vn -0.51904297 0.6791992 -0.51904297
vn -0 0.2541504 -0.96728516
vn -0.36694336 0.85498047 -0.36694336
vn -0 0.6791992 -0.7338867
vn -0 0.85498047 -0.51904297
g MainCity_Prop_Gadgets_04_0
f 3/3/3 2/2/2 1/1/1
f 2/2/2 4/4/4 1/1/1
f 1/1/1 4/4/4 5/5/5
f 4/4/4 6/6/6 5/5/5
f 5/5/5 6/6/6 7/7/7
f 6/6/6 8/8/8 7/7/7
f 11/11/11 10/10/10 9/9/9
f 12/12/12 11/11/11 9/9/9
f 13/13/13 11/11/11 12/12/12
f 14/14/14 13/13/13 12/12/12
f 15/15/15 13/13/13 14/14/14
f 16/16/16 15/15/15 14/14/14
f 17/17/17 15/15/15 16/16/16
f 18/18/18 17/17/17 16/16/16
f 19/19/19 17/17/17 18/18/18
f 20/20/20 19/19/19 18/18/18
f 23/23/23 22/22/22 21/21/21
f 23/23/23 21/21/21 24/24/24
f 25/25/25 23/23/23 24/24/24
f 25/25/25 24/24/24 26/26/26
f 27/27/27 25/25/25 26/26/26
f 27/27/27 26/26/26 28/28/28
f 31/31/31 30/30/30 29/29/29
f 31/31/31 29/29/29 32/32/32
f 29/29/29 33/33/33 32/32/32
f 33/33/33 34/34/34 32/32/32
f 34/34/34 35/35/35 32/32/32
f 34/34/34 36/36/36 35/35/35
f 39/39/39 38/38/38 37/37/37
f 38/38/38 40/40/40 37/37/37
f 37/37/37 40/40/40 41/41/41
f 40/40/40 42/42/42 41/41/41
f 41/41/41 42/42/42 43/43/43
f 42/42/42 44/44/44 43/43/43
f 47/47/47 46/46/46 45/45/45
f 48/48/48 47/47/47 45/45/45
f 49/49/49 47/47/47 48/48/48
f 50/50/50 49/49/49 48/48/48
f 51/51/51 49/49/49 50/50/50
f 52/52/52 51/51/51 50/50/50
f 53/53/53 51/51/51 52/52/52
f 54/54/54 53/53/53 52/52/52
f 55/55/55 53/53/53 54/54/54
f 56/56/56 55/55/55 54/54/54
f 59/59/59 58/58/58 57/57/57
f 60/60/60 59/59/59 57/57/57
f 57/57/57 61/61/61 60/60/60
f 62/62/62 59/59/59 60/60/60
f 61/61/61 63/63/63 60/60/60
f 64/64/64 62/62/62 60/60/60
f 60/60/60 63/63/63 64/64/64
f 65/65/65 62/62/62 64/64/64
f 63/63/63 66/66/66 64/64/64
f 67/67/67 65/65/65 64/64/64
f 64/64/64 66/66/66 67/67/67
f 66/66/66 68/68/68 67/67/67
f 71/71/71 70/70/70 69/69/69
f 72/72/72 71/71/71 69/69/69
f 69/69/69 73/73/73 72/72/72
f 74/74/74 71/71/71 72/72/72
f 73/73/73 75/75/75 72/72/72
f 76/76/76 74/74/74 72/72/72
f 72/72/72 75/75/75 76/76/76
f 77/77/77 74/74/74 76/76/76
f 75/75/75 78/78/78 76/76/76
f 79/79/79 77/77/77 76/76/76
f 76/76/76 78/78/78 79/79/79
f 80/80/80 77/77/77 79/79/79
f 78/78/78 81/81/81 79/79/79
f 82/82/82 80/80/80 79/79/79
f 79/79/79 81/81/81 82/82/82
f 83/83/83 80/80/80 82/82/82
f 81/81/81 84/84/84 82/82/82
f 85/85/85 83/83/83 82/82/82
f 82/82/82 84/84/84 85/85/85
f 84/84/84 86/86/86 85/85/85
