g MainCity_Prop_Videotape_01
v -0.0032124983 9.536743E-09 0.065618224
v -0.0032124424 0.22967838 0.065618314
v -0.0074938484 0.22967839 -0.07245929
v -0.0074939094 6.67572E-08 -0.0724594
v -0.0032124424 0.22967838 0.065618314
v -0.032601643 0.22967838 0.066529594
v -0.036883045 0.22967839 -0.07154802
v -0.0074938484 0.22967839 -0.07245929
v -0.032601643 0.22967838 0.066529594
v -0.0326017 9.536743E-09 0.066529505
v -0.0368831 6.67572E-08 -0.07154812
v -0.036883045 0.22967839 -0.07154802
v -0.0326017 9.536743E-09 0.066529505
v -0.0032124983 9.536743E-09 0.065618224
v -0.0074939094 6.67572E-08 -0.0724594
v -0.0368831 6.67572E-08 -0.07154812
v -0.0074939094 6.67572E-08 -0.0724594
v -0.0074938484 0.22967839 -0.07245929
v -0.036883045 0.22967839 -0.07154802
v -0.0368831 6.67572E-08 -0.07154812
v -0.0326017 9.536743E-09 0.066529505
v -0.032601643 0.22967838 0.066529594
v -0.0032124424 0.22967838 0.065618314
v -0.0032124983 9.536743E-09 0.065618224
v 0.005923201 -6.67572E-08 -0.06690275
v 0.0059231604 0.22961573 -0.066902764
v -0.000503025 0.22961573 0.0710916
v -0.0005029845 -6.67572E-08 0.07109163
v 0.0059231604 0.22961573 -0.066902764
v 0.035294425 0.22961573 -0.065535
v 0.028868243 0.22961573 0.07245937
v -0.000503025 0.22961573 0.0710916
v 0.035294425 0.22961573 -0.065535
v 0.03529444 -6.67572E-08 -0.065534964
v 0.028868267 -6.67572E-08 0.07245939
v 0.028868243 0.22961573 0.07245937
v 0.03529444 -6.67572E-08 -0.065534964
v 0.005923201 -6.67572E-08 -0.06690275
v -0.0005029845 -6.67572E-08 0.07109163
v 0.028868267 -6.67572E-08 0.07245939
v -0.0005029845 -6.67572E-08 0.07109163
v -0.000503025 0.22961573 0.0710916
v 0.028868243 0.22961573 0.07245937
v 0.028868267 -6.67572E-08 0.07245939
v 0.03529444 -6.67572E-08 -0.065534964
v 0.035294425 0.22961573 -0.065535
v 0.0059231604 0.22961573 -0.066902764
v 0.005923201 -6.67572E-08 -0.06690275
v -0.06662332 9.536743E-09 -0.0673458
v -0.06662334 0.22967826 -0.06734583
v -0.06662332 0.22967833 0.07079814
v -0.0666233 9.536743E-09 0.07079816
v -0.06662334 0.22967826 -0.06734583
v -0.037220016 0.22967826 -0.06734583
v -0.037219994 0.22967833 0.07079814
v -0.06662332 0.22967833 0.07079814
v -0.037220016 0.22967826 -0.06734583
v -0.037219975 9.536743E-09 -0.0673458
v -0.037219957 9.536743E-09 0.07079816
v -0.037219994 0.22967833 0.07079814
v -0.037219975 9.536743E-09 -0.0673458
v -0.06662332 9.536743E-09 -0.0673458
v -0.0666233 9.536743E-09 0.07079816
v -0.037219957 9.536743E-09 0.07079816
v -0.0666233 9.536743E-09 0.07079816
v -0.06662332 0.22967833 0.07079814
v -0.037219994 0.22967833 0.07079814
v -0.037219957 9.536743E-09 0.07079816
v -0.037219975 9.536743E-09 -0.0673458
v -0.037220016 0.22967826 -0.06734583
v -0.06662334 0.22967826 -0.06734583
v -0.06662332 9.536743E-09 -0.0673458
v 0.0666233 -6.67572E-08 0.0670745
v 0.06662334 0.22967823 0.067074604
v 0.06662334 0.22967826 -0.07106932
v 0.0666233 -1.9073486E-08 -0.0710694
v 0.06662334 0.22967823 0.067074604
v 0.037220016 0.22967823 0.067074604
v 0.037220016 0.22967826 -0.07106932
v 0.06662334 0.22967826 -0.07106932
v 0.037220016 0.22967823 0.067074604
v 0.037219975 -6.67572E-08 0.0670745
v 0.037219975 -1.9073486E-08 -0.0710694
v 0.037220016 0.22967826 -0.07106932
v 0.037219975 -6.67572E-08 0.0670745
v 0.0666233 -6.67572E-08 0.0670745
v 0.0666233 -1.9073486E-08 -0.0710694
v 0.037219975 -1.9073486E-08 -0.0710694
v 0.0666233 -1.9073486E-08 -0.0710694
v 0.06662334 0.22967826 -0.07106932
v 0.037220016 0.22967826 -0.07106932
v 0.037219975 -1.9073486E-08 -0.0710694
v 0.037219975 -6.67572E-08 0.0670745
v 0.037220016 0.22967823 0.067074604
v 0.06662334 0.22967823 0.067074604
v 0.0666233 -6.67572E-08 0.0670745
vt 0.3720703 0.049743652
vt 0.3720703 0.27929688
vt 0.5102539 0.27929688
vt 0.5102539 0.049743652
vt 0.30688477 0.009498596
vt 0.30688477 0.038879395
vt 0.44482422 0.038879395
vt 0.44482422 0.009498596
vt 0.32592773 0.27929688
vt 0.32592773 0.049743652
vt 0.18774414 0.049743652
vt 0.18774414 0.27929688
vt 0.4560547 0.010032654
vt 0.4560547 0.03942871
vt 0.5942383 0.03942871
vt 0.5942383 0.010032654
vt 0.15014648 0.049743652
vt 0.15014648 0.27929688
vt 0.17956543 0.27929688
vt 0.17956543 0.049743652
vt 0.3347168 0.049743652
vt 0.3347168 0.27929688
vt 0.3642578 0.27929688
vt 0.3642578 0.049743652
vt 0.0041770935 0.049743652
vt 0.0041770935 0.27929688
vt 0.14221191 0.27929688
vt 0.14221191 0.049743652
vt 0.9633789 0.56689453
vt 0.9926758 0.56689453
vt 0.9926758 0.42895508
vt 0.9633789 0.42895508
vt 0.91503906 0.5205078
vt 0.91503906 0.29101562
vt 0.77685547 0.29101562
vt 0.77685547 0.5205078
vt 0.6040039 0.009391785
vt 0.6040039 0.03878784
vt 0.7416992 0.03878784
vt 0.7416992 0.009391785
vt 0.7397461 0.29101562
vt 0.7397461 0.5205078
vt 0.76904297 0.5205078
vt 0.76904297 0.29101562
vt 0.92578125 0.29101562
vt 0.92578125 0.5205078
vt 0.9550781 0.5205078
vt 0.9550781 0.29101562
vt 0.6645508 0.049743652
vt 0.6645508 0.27929688
vt 0.8027344 0.27929688
vt 0.8027344 0.049743652
vt 0.8774414 0.0044937134
vt 0.84814453 0.0044937134
vt 0.84814453 0.14257812
vt 0.8774414 0.14257812
vt 0.91503906 0.75878906
vt 0.91503906 0.5292969
vt 0.77685547 0.5292969
vt 0.77685547 0.75878906
vt 0.91503906 0.003900528
vt 0.8852539 0.003900528
vt 0.8852539 0.14196777
vt 0.91503906 0.14196777
vt 0.7397461 0.5292969
vt 0.7397461 0.75878906
vt 0.76904297 0.75878906
vt 0.76904297 0.5292969
vt 0.92529297 0.5292969
vt 0.92529297 0.75878906
vt 0.9550781 0.75878906
vt 0.9550781 0.5292969
vt 0.59277344 0.29101562
vt 0.59277344 0.5205078
vt 0.73095703 0.5205078
vt 0.73095703 0.29101562
vt 0.15820312 0.009880066
vt 0.15820312 0.039245605
vt 0.29614258 0.039245605
vt 0.29614258 0.009880066
vt 0.546875 0.5205078
vt 0.546875 0.29101562
vt 0.4086914 0.29101562
vt 0.4086914 0.5205078
vt 0.009147644 0.009864807
vt 0.009147644 0.039245605
vt 0.1472168 0.039245605
vt 0.1472168 0.009864807
vt 0.37182617 0.29101562
vt 0.37182617 0.5205078
vt 0.40112305 0.5205078
vt 0.40112305 0.29101562
vt 0.55615234 0.29101562
vt 0.55615234 0.5205078
vt 0.5854492 0.5205078
vt 0.5854492 0.29101562
vn 0.9995117 -2.3841858E-07 -0.0309906
vn 0.9995117 -2.3841858E-07 -0.0309906
vn 0.9995117 -2.3841858E-07 -0.0309906
vn 0.9995117 -2.3841858E-07 -0.0309906
vn -0 1 1.1920929E-07
vn -0 1 1.1920929E-07
vn -0 1 1.1920929E-07
vn -0 1 1.1920929E-07
vn -0.9995117 2.3841858E-07 0.0309906
vn -0.9995117 2.3841858E-07 0.0309906
vn -0.9995117 2.3841858E-07 0.0309906
vn -0.9995117 2.3841858E-07 0.0309906
vn -0 -1 -4.172325E-07
vn -0 -1 -4.172325E-07
vn -0 -1 -4.172325E-07
vn -0 -1 -4.172325E-07
vn -0.0309906 4.172325E-07 -0.9995117
vn -0.0309906 4.7683716E-07 -0.9995117
vn -0.0309906 4.7683716E-07 -0.9995117
vn -0.0309906 4.172325E-07 -0.9995117
vn 0.0309906 -3.5762787E-07 0.9995117
vn 0.0309906 -4.172325E-07 0.9995117
vn 0.0309906 -4.172325E-07 0.9995117
vn 0.0309906 -3.5762787E-07 0.9995117
vn -0.99902344 -1.7881393E-07 -0.04650879
vn -0.99902344 -1.7881393E-07 -0.04650879
vn -0.99902344 -1.7881393E-07 -0.04650879
vn -0.99902344 -1.7881393E-07 -0.04650879
vn -0 1 0
vn -0 1 0
vn -0 1 0
vn -0 1 0
vn 0.99902344 0 0.04650879
vn 0.99902344 0 0.04650879
vn 0.99902344 0 0.04650879
vn 0.99902344 1.1920929E-07 0.04650879
vn -0 -1 0
vn -0 -1 0
vn -0 -1 0
vn -0 -1 0
vn -0.04650879 0 0.99902344
vn -0.04650879 1.1920929E-07 0.99902344
vn -0.04650879 1.1920929E-07 0.99902344
vn -0.04650879 0 0.99902344
vn 0.04650879 0 -0.99902344
vn 0.04650879 -1.7881393E-07 -0.99902344
vn 0.04650879 -1.7881393E-07 -0.99902344
vn 0.04650879 0 -0.99902344
vn -1 0 1.1920929E-07
vn -1 0 1.1920929E-07
vn -1 0 1.1920929E-07
vn -1 0 1.1920929E-07
vn -0 1 -5.364418E-07
vn -0 1 -5.364418E-07
vn -0 1 -5.364418E-07
vn -0 1 -5.364418E-07
vn 1 1.7881393E-07 -1.1920929E-07
vn 1 1.7881393E-07 -1.1920929E-07
vn 1 1.7881393E-07 -1.1920929E-07
vn 1 1.7881393E-07 -1.1920929E-07
vn -0 -1 0
vn -0 -1 0
vn -0 -1 0
vn -0 -1 0
vn -0 0 1
vn -0 0 1
vn -0 0 1
vn -0 0 1
vn -0 -1.1920929E-07 -1
vn -0 -1.1920929E-07 -1
vn -0 -1.1920929E-07 -1
vn -0 -1.1920929E-07 -1
vn 1 -1.7881393E-07 0
vn 1 -1.7881393E-07 0
vn 1 -1.7881393E-07 0
vn 1 -1.7881393E-07 0
vn -0 1 2.9802322E-07
vn -0 1 2.9802322E-07
vn -0 1 2.9802322E-07
vn -0 1 2.9802322E-07
vn -1 1.7881393E-07 0
vn -1 1.7881393E-07 0
vn -1 1.7881393E-07 0
vn -1 1.7881393E-07 0
vn -0 -1 -3.5762787E-07
vn -0 -1 -3.5762787E-07
vn -0 -1 -3.5762787E-07
vn -0 -1 -3.5762787E-07
vn -0 3.5762787E-07 -1
vn -0 3.5762787E-07 -1
vn -0 3.5762787E-07 -1
vn -0 3.5762787E-07 -1
vn -0 -4.7683716E-07 1
vn -0 -4.7683716E-07 1
vn -0 -4.7683716E-07 1
vn -0 -4.7683716E-07 1
g MainCity_Prop_Videotape_01_0
f 3/3/3 2/2/2 1/1/1
f 4/4/4 3/3/3 1/1/1
f 7/7/7 6/6/6 5/5/5
f 8/8/8 7/7/7 5/5/5
f 11/11/11 10/10/10 9/9/9
f 12/12/12 11/11/11 9/9/9
f 15/15/15 14/14/14 13/13/13
f 16/16/16 15/15/15 13/13/13
f 19/19/19 18/18/18 17/17/17
f 20/20/20 19/19/19 17/17/17
f 23/23/23 22/22/22 21/21/21
f 24/24/24 23/23/23 21/21/21
f 27/27/27 26/26/26 25/25/25
f 28/28/28 27/27/27 25/25/25
f 31/31/31 30/30/30 29/29/29
f 32/32/32 31/31/31 29/29/29
f 35/35/35 34/34/34 33/33/33
f 36/36/36 35/35/35 33/33/33
f 39/39/39 38/38/38 37/37/37
f 40/40/40 39/39/39 37/37/37
f 43/43/43 42/42/42 41/41/41
f 44/44/44 43/43/43 41/41/41
f 47/47/47 46/46/46 45/45/45
f 48/48/48 47/47/47 45/45/45
f 51/51/51 50/50/50 49/49/49
f 52/52/52 51/51/51 49/49/49
f 55/55/55 54/54/54 53/53/53
f 56/56/56 55/55/55 53/53/53
f 59/59/59 58/58/58 57/57/57
f 60/60/60 59/59/59 57/57/57
f 63/63/63 62/62/62 61/61/61
f 64/64/64 63/63/63 61/61/61
f 67/67/67 66/66/66 65/65/65
f 68/68/68 67/67/67 65/65/65
f 71/71/71 70/70/70 69/69/69
f 72/72/72 71/71/71 69/69/69
f 75/75/75 74/74/74 73/73/73
f 76/76/76 75/75/75 73/73/73
f 79/79/79 78/78/78 77/77/77
f 80/80/80 79/79/79 77/77/77
f 83/83/83 82/82/82 81/81/81
f 84/84/84 83/83/83 81/81/81
f 87/87/87 86/86/86 85/85/85
f 88/88/88 87/87/87 85/85/85
f 91/91/91 90/90/90 89/89/89
f 92/92/92 91/91/91 89/89/89
f 95/95/95 94/94/94 93/93/93
f 96/96/96 95/95/95 93/93/93
