g MainCity_Prop_Tags_02
v -0.14442733 -0.19298016 -0.004229808
v -0.3745642 -0.19298016 -0.004229808
v -0.3745642 0.19276878 -0.004229871
v -0.14442733 0.19276878 -0.004229871
v 0.11123413 0.58850896 -0.0042299177
v 0.11123413 0.20232826 -0.004229871
v -0.119791105 0.20232826 -0.004229871
v -0.119791105 0.58850896 -0.0042299177
v -0.28801697 0.5581356 -0.004229914
v -0.2563295 0.5004806 0.0042299326
v -0.35947752 0.48495907 -0.0042299055
v -0.19445816 0.6004588 -0.0042299195
v 0.13133529 -0.60187995 -0.004229742
v -0.098486476 -0.60187995 -0.004229742
v -0.098486476 -0.21613105 -0.0042298045
v 0.13133529 -0.21613105 -0.0042298045
v 0.33803603 -0.3251512 -0.004229787
v 0.2545059 -0.35789618 0.0031349887
v 0.24425888 -0.20609768 -0.0042298064
v 0.36883286 -0.4020134 -0.0042297742
v -0.35947767 0.2142781 -0.004229873
v -0.35947752 0.48495907 -0.0042299055
v -0.28801697 0.5581356 -0.004229914
v -0.12896453 0.2142781 -0.004229873
v -0.12896453 0.6004588 -0.0042299195
v -0.19445816 0.6004588 -0.0042299195
v 0.14137314 -0.5874157 -0.0042297444
v 0.13805054 -0.58360916 -0.004229745
v 0.13805054 -0.20609768 -0.0042298064
v 0.24425888 -0.20609768 -0.0042298064
v 0.33803603 -0.3251512 -0.004229787
v 0.1534346 -0.58625174 -0.0042297444
v 0.20965897 -0.5894312 -0.004229744
v 0.23122299 -0.5918466 -0.0042297435
v 0.36883286 -0.4020134 -0.0042297742
v 0.36883286 -0.5918466 -0.0042297435
v -0.11612594 -0.19873077 -0.0042298073
v 0.11465637 0.12002666 -0.0042298594
v 0.11465637 -0.19873077 -0.0042298073
v 0.10308807 0.12917957 -0.004229861
v 0.09179657 0.15017547 -0.0042298646
v 0.07742614 0.1633238 -0.0042298664
v -0.11050079 -0.07141312 -0.0042298282
v -0.11612579 -0.10471508 -0.004229823
v -0.11119141 0.18339078 -0.0042298697
v -0.11612594 -0.060715687 -0.00422983
v -0.11612594 0.17813228 -0.0042298688
v 0.06515991 0.18638639 -0.00422987
v -0.09863296 0.1869572 -0.00422987
v 0.12307022 -0.1874511 -0.0042298073
v 0.34804687 -0.18403314 -0.0042298078
v 0.32803252 -0.1874511 -0.0042298073
v 0.123070374 -0.07370884 -0.0042298227
v 0.35109374 -0.17433985 -0.004229809
v 0.12769745 -0.057052687 -0.0042298245
v 0.3535835 -0.16996771 -0.0042298096
v 0.123070374 -0.039972104 -0.0042298273
v 0.123070374 -0.009892702 -0.004229831
v 0.12608154 0.010348299 -0.004229834
v 0.13333343 0.028150253 -0.004229836
v 0.35358337 0.19872962 -0.004229854
v 0.1244577 0.053704146 -0.0042298394
v 0.12723084 0.0393792 -0.0042298376
v 0.124651946 0.066890195 -0.0042298413
v 0.12855041 0.08005104 -0.004229843
v 0.123070374 0.19887058 -0.004229859
v 0.123070374 0.0857402 -0.0042298436
v 0.3567096 0.383114 -0.0042299023
v 0.36541456 0.6006722 -0.0042299377
v 0.3654144 0.39219555 -0.0042299037
v 0.33637694 0.38233292 -0.0042299023
v 0.31422225 0.39603713 -0.004229904
v 0.30085906 0.3995897 -0.004229905
v 0.283721 0.39912537 -0.004229905
v 0.27188873 0.40570465 -0.004229906
v 0.16118103 0.4633705 -0.0042299153
v 0.15622741 0.46926832 -0.0042299163
v 0.14604309 0.47167403 -0.0042299167
v 0.14189544 0.48309645 -0.0042299186
v 0.13504043 0.6006722 -0.0042299377
v 0.13713379 0.49069303 -0.00422992
v 0.13504043 0.5000086 -0.0042299214
v 0.13504043 0.27378532 -0.0042298846
v 0.14320618 0.46500623 -0.004229916
v 0.13504028 0.460633 -0.004229915
v 0.2812747 0.39695793 -0.0042299046
v 0.13884826 0.26406753 -0.0042298827
v 0.13673767 0.2512863 -0.004229881
v 0.32054412 0.3852749 -0.0042299028
v 0.33466125 0.3764331 -0.004229901
v 0.13917632 0.23297073 -0.0042298776
v 0.1393361 0.21970657 -0.0042298757
v 0.35301542 0.36748245 -0.0042299
v 0.15183288 0.21728727 -0.0042298753
v 0.35894316 0.35061598 -0.0042298967
v 0.16289826 0.2180899 -0.0042298753
v 0.3654144 0.3411238 -0.0042298953
v 0.1734674 0.21492328 -0.004229875
v 0.36541456 0.21492328 -0.004229875
v -0.1396759 -0.20688263 -0.004229788
v -0.17683074 -0.20131835 -0.0042297887
v -0.1583728 -0.20131835 -0.0042297887
v -0.13618225 -0.2165779 -0.004229787
v -0.19498168 -0.20497315 -0.004229788
v -0.1277478 -0.22532669 -0.004229786
v -0.20172943 -0.58343655 -0.0042297426
v -0.17597106 -0.5874991 -0.004229742
v -0.1277478 -0.5874991 -0.004229742
v -0.2268788 -0.5874991 -0.004229742
v -0.35877302 -0.5874991 -0.004229742
v -0.35877302 -0.20131835 -0.0042297887
v -0.2073117 -0.20131835 -0.0042297887
vt 0.26953125 0.0049324036
vt 0.077697754 0.0049324036
vt 0.077697754 0.32641602
vt 0.26953125 0.32641602
vt 0.8989258 0.66015625
vt 0.8989258 0.3383789
vt 0.7060547 0.3383789
vt 0.7060547 0.66015625
vt 0.94091797 0.49121094
vt 0.9111328 0.44091797
vt 0.9926758 0.44091797
vt 0.9111328 0.5571289
vt 0.69628906 0.0049324036
vt 0.5048828 0.0049324036
vt 0.5048828 0.32641602
vt 0.69628906 0.32641602
vt 0.94970703 0.21240234
vt 0.97509766 0.31152344
vt 0.87158203 0.31152344
vt 0.97509766 0.14831543
vt 0.50390625 0.3383789
vt 0.50390625 0.56396484
vt 0.56347656 0.625
vt 0.69628906 0.3383789
vt 0.69628906 0.66015625
vt 0.64160156 0.66015625
vt 0.7089844 0.008621216
vt 0.70654297 0.011795044
vt 0.70654297 0.32641602
vt 0.7949219 0.32641602
vt 0.8730469 0.22717285
vt 0.7192383 0.009590149
vt 0.7661133 0.006942749
vt 0.7841797 0.0049324036
vt 0.8989258 0.16308594
vt 0.8989258 0.0049324036
vt 0.70654297 0.0049324036
vt 0.8989258 0.2705078
vt 0.8989258 0.0049324036
vt 0.88916016 0.27807617
vt 0.8798828 0.2956543
vt 0.8676758 0.30664062
vt 0.7109375 0.11102295
vt 0.70654297 0.08325195
vt 0.7104492 0.32348633
vt 0.70654297 0.11993408
vt 0.70654297 0.3190918
vt 0.8574219 0.32592773
vt 0.7211914 0.32641602
vt 0.50390625 0.3383789
vt 0.69140625 0.3413086
vt 0.6748047 0.3383789
vt 0.50390625 0.43310547
vt 0.69433594 0.34936523
vt 0.5078125 0.44702148
vt 0.69628906 0.35302734
vt 0.50390625 0.46118164
vt 0.50390625 0.48632812
vt 0.50683594 0.50341797
vt 0.5126953 0.5180664
vt 0.69628906 0.66015625
vt 0.5053711 0.5395508
vt 0.5073242 0.52734375
vt 0.5053711 0.55029297
vt 0.50878906 0.56152344
vt 0.50390625 0.66015625
vt 0.50390625 0.56591797
vt 0.46435547 0.1451416
vt 0.4716797 0.32641602
vt 0.4716797 0.15270996
vt 0.44726562 0.14440918
vt 0.42895508 0.15588379
vt 0.4177246 0.15881348
vt 0.40356445 0.15844727
vt 0.3935547 0.16394043
vt 0.30126953 0.21191406
vt 0.29736328 0.21691895
vt 0.28881836 0.21887207
vt 0.2854004 0.22839355
vt 0.27954102 0.32641602
vt 0.28125 0.23474121
vt 0.27954102 0.24255371
vt 0.27954102 0.053985596
vt 0.28637695 0.2133789
vt 0.27954102 0.2097168
vt 0.4013672 0.15661621
vt 0.28271484 0.045898438
vt 0.28100586 0.035247803
vt 0.43408203 0.14685059
vt 0.44604492 0.13952637
vt 0.28295898 0.019973755
vt 0.28320312 0.008918762
vt 0.46118164 0.13208008
vt 0.29370117 0.0069007874
vt 0.4663086 0.11798096
vt 0.30273438 0.007572174
vt 0.4716797 0.11010742
vt 0.31152344 0.0049324036
vt 0.4716797 0.0049324036
vt 0.8886719 0.6557617
vt 0.85791016 0.66015625
vt 0.8730469 0.66015625
vt 0.89160156 0.64746094
vt 0.84277344 0.65722656
vt 0.8989258 0.6401367
vt 0.83691406 0.34179688
vt 0.85839844 0.3383789
vt 0.8989258 0.3383789
vt 0.81591797 0.3383789
vt 0.7060547 0.3383789
vt 0.7060547 0.66015625
vt 0.83251953 0.66015625
vn -0 1.7881393E-07 1
vn -0 1.7881393E-07 1
vn -0 1.7881393E-07 1
vn -0 1.7881393E-07 1
vn -0 1.1920929E-07 1
vn -0 1.1920929E-07 1
vn -0 1.1920929E-07 1
vn -0 1.1920929E-07 1
vn -0.072387695 0.105773926 0.9916992
vn -0.07550049 0.104003906 0.9916992
vn -0.09527588 0.09307861 0.99121094
vn -0.052734375 0.11657715 0.9916992
vn -0 1.7881393E-07 1
vn -0 1.7881393E-07 1
vn -0 1.7881393E-07 1
vn -0 1.7881393E-07 1
vn 0.072021484 0.04046631 0.99658203
vn 0.070373535 0.04458618 0.99658203
vn 0.06713867 0.052856445 0.99658203
vn 0.075927734 0.030426025 0.99658203
vn -0 1.1920929E-07 1
vn -0 1.1920929E-07 1
vn -0 1.1920929E-07 1
vn -0 1.1920929E-07 1
vn -0 1.1920929E-07 1
vn -0 1.1920929E-07 1
vn -0 1.7881393E-07 1
vn -0 1.7881393E-07 1
vn -0 1.7881393E-07 1
vn -0 1.7881393E-07 1
vn -0 1.7881393E-07 1
vn -0 1.7881393E-07 1
vn -0 1.7881393E-07 1
vn -0 1.7881393E-07 1
vn -0 1.7881393E-07 1
vn -0 1.7881393E-07 1
vn -0 1.7881393E-07 1
vn -0 1.7881393E-07 1
vn -0 1.7881393E-07 1
vn -0 1.7881393E-07 1
vn -0 1.7881393E-07 1
vn -0 1.7881393E-07 1
vn -0 1.7881393E-07 1
vn -0 1.7881393E-07 1
vn -0 1.7881393E-07 1
vn -0 1.7881393E-07 1
vn -0 1.7881393E-07 1
vn -0 1.7881393E-07 1
vn -0 1.7881393E-07 1
vn -0 1.1920929E-07 1
vn -0 1.1920929E-07 1
vn -0 1.1920929E-07 1
vn -0 1.1920929E-07 1
vn -0 1.1920929E-07 1
vn -0 1.1920929E-07 1
vn -0 1.1920929E-07 1
vn -0 1.1920929E-07 1
vn -0 1.1920929E-07 1
vn -0 1.1920929E-07 1
vn -0 1.1920929E-07 1
vn -0 1.1920929E-07 1
vn -0 1.1920929E-07 1
vn -0 1.1920929E-07 1
vn -0 1.1920929E-07 1
vn -0 1.1920929E-07 1
vn -0 1.1920929E-07 1
vn -0 1.1920929E-07 1
vn -0 1.7881393E-07 1
vn -0 1.7881393E-07 1
vn -0 1.7881393E-07 1
vn -0 1.7881393E-07 1
vn -0 1.7881393E-07 1
vn -0 1.7881393E-07 1
vn -0 1.7881393E-07 1
vn -0 1.7881393E-07 1
vn -0 1.7881393E-07 1
vn -0 1.7881393E-07 1
vn -0 1.7881393E-07 1
vn -0 1.7881393E-07 1
vn -0 1.7881393E-07 1
vn -0 1.7881393E-07 1
vn -0 1.7881393E-07 1
vn -0 1.7881393E-07 1
vn -0 1.7881393E-07 1
vn -0 1.7881393E-07 1
vn -0 1.7881393E-07 1
vn -0 1.7881393E-07 1
vn -0 1.7881393E-07 1
vn -0 1.7881393E-07 1
vn -0 1.7881393E-07 1
vn -0 1.7881393E-07 1
vn -0 1.7881393E-07 1
vn -0 1.7881393E-07 1
vn -0 1.7881393E-07 1
vn -0 1.7881393E-07 1
vn -0 1.7881393E-07 1
vn -0 1.7881393E-07 1
vn -0 1.7881393E-07 1
vn -0 1.7881393E-07 1
vn -0 1.1920929E-07 1
vn -0 1.1920929E-07 1
vn -0 1.1920929E-07 1
vn -0 1.1920929E-07 1
vn -0 1.1920929E-07 1
vn -0 1.1920929E-07 1
vn -0 1.1920929E-07 1
vn -0 1.1920929E-07 1
vn -0 1.1920929E-07 1
vn -0 1.1920929E-07 1
vn -0 1.1920929E-07 1
vn -0 1.1920929E-07 1
vn -0 1.1920929E-07 1
g MainCity_Prop_Tags_02_0
f 3/3/3 2/2/2 1/1/1
f 4/4/4 3/3/3 1/1/1
f 7/7/7 6/6/6 5/5/5
f 8/8/8 7/7/7 5/5/5
f 11/11/11 10/10/10 9/9/9
f 10/10/10 12/12/12 9/9/9
f 15/15/15 14/14/14 13/13/13
f 16/16/16 15/15/15 13/13/13
f 19/19/19 18/18/18 17/17/17
f 18/18/18 20/20/20 17/17/17
f 23/23/23 22/22/22 21/21/21
f 24/24/24 23/23/23 21/21/21
f 23/23/23 24/24/24 25/25/25
f 26/26/26 23/23/23 25/25/25
f 29/29/29 28/28/28 27/27/27
f 30/30/30 29/29/29 27/27/27
f 27/27/27 31/31/31 30/30/30
f 27/27/27 32/32/32 31/31/31
f 32/32/32 33/33/33 31/31/31
f 31/31/31 33/33/33 34/34/34
f 35/35/35 31/31/31 34/34/34
f 36/36/36 35/35/35 34/34/34
f 39/39/39 38/38/38 37/37/37
f 38/38/38 40/40/40 37/37/37
f 40/40/40 41/41/41 37/37/37
f 41/41/41 42/42/42 37/37/37
f 42/42/42 43/43/43 37/37/37
f 43/43/43 44/44/44 37/37/37
f 42/42/42 45/45/45 43/43/43
f 43/43/43 45/45/45 46/46/46
f 45/45/45 47/47/47 46/46/46
f 45/45/45 42/42/42 48/48/48
f 49/49/49 45/45/45 48/48/48
f 52/52/52 51/51/51 50/50/50
f 51/51/51 53/53/53 50/50/50
f 51/51/51 54/54/54 53/53/53
f 54/54/54 55/55/55 53/53/53
f 55/55/55 54/54/54 56/56/56
f 57/57/57 55/55/55 56/56/56
f 58/58/58 57/57/57 56/56/56
f 59/59/59 58/58/58 56/56/56
f 60/60/60 59/59/59 56/56/56
f 61/61/61 60/60/60 56/56/56
f 62/62/62 60/60/60 61/61/61
f 63/63/63 60/60/60 62/62/62
f 64/64/64 62/62/62 61/61/61
f 65/65/65 64/64/64 61/61/61
f 65/65/65 61/61/61 66/66/66
f 67/67/67 65/65/65 66/66/66
f 70/70/70 69/69/69 68/68/68
f 68/68/68 69/69/69 71/71/71
f 72/72/72 71/71/71 69/69/69
f 73/73/73 72/72/72 69/69/69
f 74/74/74 73/73/73 69/69/69
f 75/75/75 74/74/74 69/69/69
f 76/76/76 75/75/75 69/69/69
f 77/77/77 76/76/76 69/69/69
f 78/78/78 77/77/77 69/69/69
f 79/79/79 78/78/78 69/69/69
f 79/79/79 69/69/69 80/80/80
f 81/81/81 79/79/79 80/80/80
f 82/82/82 81/81/81 80/80/80
f 75/75/75 76/76/76 83/83/83
f 83/83/83 76/76/76 84/84/84
f 85/85/85 83/83/83 84/84/84
f 83/83/83 86/86/86 75/75/75
f 87/87/87 86/86/86 83/83/83
f 87/87/87 88/88/88 86/86/86
f 88/88/88 89/89/89 86/86/86
f 89/89/89 88/88/88 90/90/90
f 88/88/88 91/91/91 90/90/90
f 91/91/91 92/92/92 90/90/90
f 92/92/92 93/93/93 90/90/90
f 92/92/92 94/94/94 93/93/93
f 94/94/94 95/95/95 93/93/93
f 94/94/94 96/96/96 95/95/95
f 96/96/96 97/97/97 95/95/95
f 97/97/97 96/96/96 98/98/98
f 99/99/99 97/97/97 98/98/98
f 102/102/102 101/101/101 100/100/100
f 103/103/103 100/100/100 101/101/101
f 104/104/104 103/103/103 101/101/101
f 105/105/105 103/103/103 104/104/104
f 104/104/104 106/106/106 105/105/105
f 106/106/106 107/107/107 105/105/105
f 108/108/108 105/105/105 107/107/107
f 109/109/109 106/106/106 104/104/104
f 110/110/110 109/109/109 104/104/104
f 111/111/111 110/110/110 104/104/104
f 112/112/112 111/111/111 104/104/104
