g MainCity_Prop_Foundation_01
v -2.5 1 2.5000002
v -2.4999998 1.0000002 0.50000036
v -0.4999998 1 0.5000001
v 1.5000002 1 2.5000002
v 0.50000024 1 0.50000036
v 1.5000002 0.99999976 0.5000004
v -2.4999998 1.0000002 0.50000036
v -2.5 1 2.5000002
v -2.5 -5.865097E-07 2.5000002
v -2.4999998 -3.814697E-07 0.50000036
v -2.5 1 2.5000002
v 1.5000002 1 2.5000002
v 1.5000002 -5.8174135E-07 2.5000002
v -2.5 -5.865097E-07 2.5000002
v 1.5000002 1 2.5000002
v 1.5000002 0.99999976 0.5000004
v 2.5000002 1 2.5000002
v 2.4999995 1 -1.4999994
v 1.4999998 0.9999995 -0.4999995
v 1.5 0.9999997 -1.4999994
v 0.50000024 0.9999999 -0.49999964
v 0.50000024 1 0.50000036
v 1.5000002 1 2.5000002
v 2.5000002 1 2.5000002
v 2.5000002 -6.151199E-07 2.5000002
v 1.5000002 -5.8174135E-07 2.5000002
v 1.4999998 0.9999995 -0.4999995
v 0.50000024 0.9999999 -0.49999964
v 0.5 0.9999998 -1.4999995
v 1.5 0.9999997 -1.4999994
v 2.4999995 1 -1.4999994
v 2.4999995 -5.865097E-07 -1.4999994
v 2.5000002 -6.151199E-07 2.5000002
v 2.5000002 1 2.5000002
v 2.4999995 1 -1.4999994
v 1.5 0.9999997 -1.4999994
v 2.4999998 1 -2.4999993
v 0.5 0.9999998 -1.4999995
v -1.5 1 -2.4999993
v -0.5 0.9999997 -1.4999994
v -1.5 0.9999997 -1.4999995
v -0.4999998 0.9999999 -0.4999996
v 0.50000024 0.9999999 -0.49999964
v 2.4999995 1 -1.4999994
v 2.4999998 1 -2.4999993
v 2.4999998 -7.009506E-07 -2.4999993
v 2.4999995 -5.865097E-07 -1.4999994
v 2.4999998 1 -2.4999993
v -1.5 1 -2.4999993
v -1.5 -6.6280364E-07 -2.4999993
v 2.4999998 -7.009506E-07 -2.4999993
v -0.5 0.9999997 -1.4999994
v -0.4999998 0.9999999 -0.4999996
v -1.4999998 0.99999976 -0.49999958
v -1.5 0.9999997 -1.4999995
v -1.5 1 -2.4999993
v -1.5 0.9999997 -1.4999995
v -2.5 1 -2.4999993
v -2.4999998 1.0000002 0.50000036
v -1.4999998 0.99999976 -0.49999958
v -0.4999998 1 0.5000001
v -0.4999998 0.9999999 -0.4999996
v -1.5 1 -2.4999993
v -2.5 1 -2.4999993
v -2.5 -6.6280364E-07 -2.4999993
v -1.5 -6.6280364E-07 -2.4999993
v -2.5 1 -2.4999993
v -2.4999998 1.0000002 0.50000036
v -2.4999998 -3.814697E-07 0.50000036
v -2.5 -6.6280364E-07 -2.4999993
v 0.50000024 0.9999999 -0.49999964
v 0.50000024 1 0.50000036
v -0.4999998 1 0.5000001
v -0.4999998 0.9999999 -0.4999996
v -2.4999998 -3.814697E-07 0.50000036
v -2.5 -5.865097E-07 2.5000002
v -0.4999998 -1.0681152E-06 0.50000024
v 1.5000002 -5.8174135E-07 2.5000002
v 0.50000024 -1.0681152E-06 0.5000004
v 1.5000002 -1.373291E-06 0.50000054
v 1.5000002 -5.8174135E-07 2.5000002
v 2.5000002 -6.151199E-07 2.5000002
v 1.5000002 -1.373291E-06 0.50000054
v 1.4999998 -1.5258788E-06 -0.49999937
v 2.4999995 -5.865097E-07 -1.4999994
v 1.5 -1.373291E-06 -1.4999992
v 0.50000024 -1.0681152E-06 -0.49999952
v 0.50000024 -1.0681152E-06 0.5000004
v 0.5 -1.0681152E-06 -1.4999994
v 0.50000024 -1.0681152E-06 -0.49999952
v 1.4999998 -1.5258788E-06 -0.49999937
v 1.5 -1.373291E-06 -1.4999992
v 2.4999995 -5.865097E-07 -1.4999994
v 2.4999998 -7.009506E-07 -2.4999993
v 1.5 -1.373291E-06 -1.4999992
v 0.5 -1.0681152E-06 -1.4999994
v -1.5 -6.6280364E-07 -2.4999993
v -0.5 -1.373291E-06 -1.4999992
v -1.5 -1.373291E-06 -1.4999994
v -0.4999998 -1.0681152E-06 -0.4999995
v 0.50000024 -1.0681152E-06 -0.49999952
v -1.4999998 -1.373291E-06 -0.49999946
v -0.4999998 -1.0681152E-06 -0.4999995
v -0.5 -1.373291E-06 -1.4999992
v -1.5 -1.373291E-06 -1.4999994
v -1.5 -6.6280364E-07 -2.4999993
v -2.5 -6.6280364E-07 -2.4999993
v -1.5 -1.373291E-06 -1.4999994
v -2.4999998 -3.814697E-07 0.50000036
v -1.4999998 -1.373291E-06 -0.49999946
v -0.4999998 -1.0681152E-06 0.50000024
v -0.4999998 -1.0681152E-06 -0.4999995
v -0.4999998 -1.0681152E-06 0.50000024
v 0.50000024 -1.0681152E-06 0.5000004
v 0.50000024 -1.0681152E-06 -0.49999952
v -0.4999998 -1.0681152E-06 -0.4999995
vt 0.017044067 0.5083008
vt 0.017044067 0.9902344
vt 0.49853516 0.9902344
vt 0.97998047 0.5083008
vt 0.7392578 0.9902344
vt 0.97998047 0.9902344
vt 0.4987793 0.24975586
vt 0.98046875 0.24975586
vt 0.98046875 0.008972168
vt 0.4987793 0.008972168
vt 0.017044067 0.49926758
vt 0.97998047 0.49926758
vt 0.97998047 0.25854492
vt 0.017044067 0.25854492
vt 0.017044067 0.7495117
vt 0.49853516 0.7495117
vt 0.017044067 0.5083008
vt 0.97998047 0.5083008
vt 0.7392578 0.7495117
vt 0.97998047 0.7495117
vt 0.7392578 0.9902344
vt 0.49853516 0.9902344
vt 0.7392578 0.24975586
vt 0.98046875 0.24975586
vt 0.98046875 0.008972168
vt 0.7392578 0.008972168
vt 0.017044067 0.5083008
vt 0.017044067 0.7495117
vt 0.2578125 0.7495117
vt 0.2578125 0.5083008
vt 0.97998047 0.49926758
vt 0.97998047 0.25854492
vt 0.017044067 0.25854492
vt 0.017044067 0.49926758
vt 0.017044067 0.7495117
vt 0.2578125 0.7495117
vt 0.017044067 0.5083008
vt 0.49853516 0.7495117
vt 0.97998047 0.5083008
vt 0.7392578 0.7495117
vt 0.97998047 0.7495117
vt 0.7392578 0.9902344
vt 0.49853516 0.9902344
vt 0.7392578 0.24975586
vt 0.98046875 0.24975586
vt 0.98046875 0.008972168
vt 0.7392578 0.008972168
vt 0.017044067 0.49926758
vt 0.97998047 0.49926758
vt 0.97998047 0.25854492
vt 0.017044067 0.25854492
vt 0.4987793 0.008972168
vt 0.4987793 0.24975586
vt 0.7392578 0.24975586
vt 0.7392578 0.008972168
vt 0.017044067 0.7495117
vt 0.2578125 0.7495117
vt 0.017044067 0.5083008
vt 0.7392578 0.5083008
vt 0.49853516 0.7495117
vt 0.7392578 0.9902344
vt 0.49853516 0.9902344
vt 0.7392578 0.24975586
vt 0.98046875 0.24975586
vt 0.98046875 0.008972168
vt 0.7392578 0.008972168
vt 0.017044067 0.49926758
vt 0.7392578 0.49926758
vt 0.7392578 0.25854492
vt 0.017044067 0.25854492
vt 0.49853516 0.25854492
vt 0.49853516 0.49926758
vt 0.7392578 0.49926758
vt 0.7392578 0.25854492
vt 0.017044067 0.9902344
vt 0.017044067 0.5083008
vt 0.49853516 0.9902344
vt 0.97998047 0.5083008
vt 0.7392578 0.9902344
vt 0.97998047 0.9902344
vt 0.017044067 0.7495117
vt 0.017044067 0.5083008
vt 0.49853516 0.7495117
vt 0.7392578 0.7495117
vt 0.97998047 0.5083008
vt 0.97998047 0.7495117
vt 0.7392578 0.9902344
vt 0.49853516 0.9902344
vt 0.2578125 0.7495117
vt 0.017044067 0.7495117
vt 0.017044067 0.5083008
vt 0.2578125 0.5083008
vt 0.017044067 0.7495117
vt 0.017044067 0.5083008
vt 0.2578125 0.7495117
vt 0.49853516 0.7495117
vt 0.97998047 0.5083008
vt 0.7392578 0.7495117
vt 0.97998047 0.7495117
vt 0.7392578 0.9902344
vt 0.49853516 0.9902344
vt 0.7392578 0.24975586
vt 0.4987793 0.24975586
vt 0.4987793 0.008972168
vt 0.7392578 0.008972168
vt 0.017044067 0.7495117
vt 0.017044067 0.5083008
vt 0.2578125 0.7495117
vt 0.7392578 0.5083008
vt 0.49853516 0.7495117
vt 0.7392578 0.9902344
vt 0.49853516 0.9902344
vt 0.7392578 0.49926758
vt 0.49853516 0.49926758
vt 0.49853516 0.25854492
vt 0.7392578 0.25854492
vn -0 1 0
vn 1.7881393E-07 1 0
vn -0 1 0
vn -0 1 -1.1920929E-07
vn 1.1920929E-07 1 0
vn -0 1 -1.1920929E-07
vn -1 0 0
vn -1 0 0
vn -1 0 0
vn -1 0 0
vn -0 0 1
vn -0 0 1
vn -0 0 1
vn -0 0 1
vn -0 1 -1.1920929E-07
vn -0 1 -1.1920929E-07
vn -1.1920929E-07 1 -1.1920929E-07
vn -3.5762787E-07 1 0
vn -0 1 0
vn -0 1 2.3841858E-07
vn 1.1920929E-07 1 0
vn 1.1920929E-07 1 0
vn -0 0 1
vn -0 0 1
vn -0 0 1
vn -0 0 1
vn -0 1 0
vn 1.1920929E-07 1 0
vn -0 1 0
vn -0 1 2.3841858E-07
vn 1 0 -1.7881393E-07
vn 1 0 -1.7881393E-07
vn 1 0 -1.7881393E-07
vn 1 0 -1.7881393E-07
vn -3.5762787E-07 1 0
vn -0 1 2.3841858E-07
vn -1.7881393E-07 1 1.1920929E-07
vn -0 1 0
vn -0 1 2.9802322E-07
vn -0 1 0
vn 1.1920929E-07 1 0
vn -0 1 -1.7881393E-07
vn 1.1920929E-07 1 0
vn 1 0 1.7881393E-07
vn 1 0 1.7881393E-07
vn 1 0 1.7881393E-07
vn 1 0 1.7881393E-07
vn -0 0 -1
vn -0 0 -1
vn -0 0 -1
vn -0 0 -1
vn -0 1 0
vn -0 1 -1.7881393E-07
vn 1.1920929E-07 1 -1.7881393E-07
vn 1.1920929E-07 1 0
vn -0 1 2.9802322E-07
vn 1.1920929E-07 1 0
vn 1.7881393E-07 1 1.1920929E-07
vn 1.7881393E-07 1 0
vn 1.1920929E-07 1 -1.7881393E-07
vn -0 1 0
vn -0 1 -1.7881393E-07
vn -0 0 -1
vn -0 0 -1
vn -0 0 -1
vn -0 0 -1
vn -1 0 0
vn -1 0 0
vn -1 0 0
vn -1 0 0
vn 1.1920929E-07 1 0
vn 1.1920929E-07 1 0
vn -0 1 0
vn -0 1 -1.7881393E-07
vn -4.172325E-07 -1 0
vn -1.7881393E-07 -1 1.7881393E-07
vn -0 -1 0
vn 1.1920929E-07 -1 2.3841858E-07
vn -1.1920929E-07 -1 0
vn -0 -1 0
vn 1.1920929E-07 -1 2.3841858E-07
vn 2.3841858E-07 -1 1.7881393E-07
vn -0 -1 0
vn -0 -1 0
vn 2.9802322E-07 -1 -1.1920929E-07
vn -0 -1 -1.1920929E-07
vn -1.1920929E-07 -1 0
vn -1.1920929E-07 -1 0
vn -0 -1 0
vn -1.1920929E-07 -1 0
vn -0 -1 0
vn -0 -1 -1.1920929E-07
vn 2.9802322E-07 -1 -1.1920929E-07
vn 1.7881393E-07 -1 -1.1920929E-07
vn -0 -1 -1.1920929E-07
vn -0 -1 0
vn -1.1920929E-07 -1 -1.7881393E-07
vn -0 -1 0
vn -1.1920929E-07 -1 0
vn -0 -1 1.1920929E-07
vn -1.1920929E-07 -1 0
vn -1.1920929E-07 -1 0
vn -0 -1 1.1920929E-07
vn -0 -1 0
vn -1.1920929E-07 -1 0
vn -1.1920929E-07 -1 -1.7881393E-07
vn -2.3841858E-07 -1 0
vn -1.1920929E-07 -1 0
vn -4.172325E-07 -1 0
vn -1.1920929E-07 -1 0
vn -0 -1 0
vn -0 -1 1.1920929E-07
vn -0 -1 0
vn -1.1920929E-07 -1 0
vn -1.1920929E-07 -1 0
vn -0 -1 1.1920929E-07
g MainCity_Prop_Foundation_01_0
f 3/3/3 2/2/2 1/1/1
f 4/4/4 3/3/3 1/1/1
f 5/5/5 3/3/3 4/4/4
f 6/6/6 5/5/5 4/4/4
f 9/9/9 8/8/8 7/7/7
f 10/10/10 9/9/9 7/7/7
f 13/13/13 12/12/12 11/11/11
f 14/14/14 13/13/13 11/11/11
f 17/17/17 16/16/16 15/15/15
f 16/16/16 17/17/17 18/18/18
f 19/19/19 16/16/16 18/18/18
f 18/18/18 20/20/20 19/19/19
f 19/19/19 21/21/21 16/16/16
f 21/21/21 22/22/22 16/16/16
f 25/25/25 24/24/24 23/23/23
f 26/26/26 25/25/25 23/23/23
f 29/29/29 28/28/28 27/27/27
f 30/30/30 29/29/29 27/27/27
f 33/33/33 32/32/32 31/31/31
f 34/34/34 33/33/33 31/31/31
f 37/37/37 36/36/36 35/35/35
f 38/38/38 36/36/36 37/37/37
f 38/38/38 37/37/37 39/39/39
f 40/40/40 38/38/38 39/39/39
f 39/39/39 41/41/41 40/40/40
f 40/40/40 42/42/42 38/38/38
f 42/42/42 43/43/43 38/38/38
f 46/46/46 45/45/45 44/44/44
f 47/47/47 46/46/46 44/44/44
f 50/50/50 49/49/49 48/48/48
f 51/51/51 50/50/50 48/48/48
f 54/54/54 53/53/53 52/52/52
f 55/55/55 54/54/54 52/52/52
f 58/58/58 57/57/57 56/56/56
f 57/57/57 58/58/58 59/59/59
f 60/60/60 57/57/57 59/59/59
f 59/59/59 61/61/61 60/60/60
f 61/61/61 62/62/62 60/60/60
f 65/65/65 64/64/64 63/63/63
f 66/66/66 65/65/65 63/63/63
f 69/69/69 68/68/68 67/67/67
f 70/70/70 69/69/69 67/67/67
f 73/73/73 72/72/72 71/71/71
f 74/74/74 73/73/73 71/71/71
f 77/77/77 76/76/76 75/75/75
f 78/78/78 76/76/76 77/77/77
f 79/79/79 78/78/78 77/77/77
f 80/80/80 78/78/78 79/79/79
f 83/83/83 82/82/82 81/81/81
f 82/82/82 83/83/83 84/84/84
f 85/85/85 82/82/82 84/84/84
f 86/86/86 85/85/85 84/84/84
f 84/84/84 83/83/83 87/87/87
f 83/83/83 88/88/88 87/87/87
f 91/91/91 90/90/90 89/89/89
f 92/92/92 91/91/91 89/89/89
f 95/95/95 94/94/94 93/93/93
f 96/96/96 94/94/94 95/95/95
f 97/97/97 94/94/94 96/96/96
f 98/98/98 97/97/97 96/96/96
f 99/99/99 97/97/97 98/98/98
f 98/98/98 96/96/96 100/100/100
f 96/96/96 101/101/101 100/100/100
f 104/104/104 103/103/103 102/102/102
f 105/105/105 104/104/104 102/102/102
f 108/108/108 107/107/107 106/106/106
f 109/109/109 107/107/107 108/108/108
f 110/110/110 109/109/109 108/108/108
f 111/111/111 109/109/109 110/110/110
f 112/112/112 111/111/111 110/110/110
f 115/115/115 114/114/114 113/113/113
f 116/116/116 115/115/115 113/113/113
