g MainCity_Prop_Gadgets_52
v 1.5563965E-05 0.13675015 -0.027964506
v 1.5563965E-05 0.1426195 -0.027964467
v -0.018869933 0.14261948 -0.020142192
v -0.018870238 0.1367501 -0.020142201
v -0.02669281 0.1367501 -0.0012578296
v -0.026693115 0.14261948 -0.0012577152
v -0.018870238 0.14261948 0.01762679
v -0.018870238 0.1367501 0.017626753
v 1.5563965E-05 0.14261948 0.025449038
v 1.5563965E-05 0.1367501 0.025448998
v 0.018901061 0.1426195 0.017626695
v 0.018900756 0.13675015 0.017626695
v 0.026723633 0.14261948 -0.0012577152
v 0.026723633 0.1367501 -0.0012577056
v 6.408691E-06 0.13135727 -0.039994307
v 0.018901061 0.1367501 -0.020142278
v 1.5563965E-05 0.13675015 -0.027964506
v 0.027975462 0.13135727 -0.028472891
v 0.026723633 0.1367501 -0.0012577056
v 0.039721373 0.13135727 -0.0004960346
v 1.2207031E-06 0.12256466 -0.04669036
v 0.04664337 0.12256466 -8.932113E-05
v 0.03296234 0.12256466 -0.03304982
v 0.04814392 0.115824126 9.536743E-09
v 3.0517577E-07 0.115824126 -0.048140667
v 0.034043275 0.115824126 -0.034040544
v 0.048055418 0.011659317 1.4801025E-05
v 0.033980407 0.011659393 -0.033963174
v 3.0517577E-07 0.011659393 -0.048037425
v 0.041374512 0.001492691 1.625061E-05
v 0.02925598 0.001492691 -0.029237641
v 0.03633026 0 1.6469956E-05
v 3.0517577E-07 0.0014927672 -0.041355122
v 0.025689391 0 -0.025671015
v 6.1035155E-07 7.6293944E-08 -0.036311254
v 0.026723633 0.1367501 -0.0012577056
v 0.026723633 0.14261948 -0.0012577152
v 0.018901061 0.14261948 -0.020142287
v 0.018901061 0.1367501 -0.020142278
v 1.5563965E-05 0.1426195 -0.027964467
v 1.5563965E-05 0.13675015 -0.027964506
v 6.408691E-06 0.13135727 -0.039994307
v 1.5563965E-05 0.13675015 -0.027964506
v -0.018870238 0.1367501 -0.020142201
v -0.027965698 0.13135727 -0.028475732
v 1.2207031E-06 0.12256466 -0.04669036
v -0.039714966 0.13135727 -0.00049580575
v -0.02669281 0.1367501 -0.0012578296
v -0.0329599 0.122564696 -0.03305026
v -0.028190002 0.13135727 0.02770773
v -0.018870238 0.1367501 0.017626753
v -0.03404236 0.115824126 -0.03404067
v 3.0517577E-07 0.115824126 -0.048140667
v 3.0517577E-07 0.011659393 -0.048037425
v -0.046641845 0.122564696 -8.933067E-05
v -0.033979796 0.011659317 -0.033963423
v 3.0517577E-07 0.0014927672 -0.041355122
v 6.1035153E-06 0.13135722 0.039450083
v 1.5563965E-05 0.1367501 0.025448998
v -0.048143614 0.115824126 -2.8610229E-08
v -0.02925537 0.0014927672 -0.029237738
v 6.1035155E-07 7.6293944E-08 -0.036311254
v -0.02568878 0 -0.025671167
v -0.048054807 0.011659317 1.4753341E-05
v -0.041373596 0.001492691 1.6098022E-05
v -0.036329344 7.6293944E-08 1.6460419E-05
v -0.02925537 0.001492691 0.029270181
v -0.02568878 0 0.025703916
v 3.0517577E-07 0 0.036344156
v -0.03404236 0.115824126 0.034040555
v 3.0517577E-07 0.001492691 0.04138753
v 0.025689697 0 0.025704201
v -0.033979796 0.011659317 0.033992738
v -0.033000182 0.122564696 0.032911632
v 1.5258788E-06 0.12256462 0.04659171
v 3.0517577E-07 0.11582409 0.04814063
v 0.033002622 0.12256462 0.03291108
v 3.0517577E-07 0.011659393 0.048067007
v 0.033980712 0.011659393 0.033992853
v 0.029256286 0.001492691 0.029270237
v 0.041374512 0.001492691 1.625061E-05
v 0.03633026 0 1.6469956E-05
v 0.048055418 0.011659317 1.4801025E-05
v 0.034043275 0.115824126 0.034040727
v 0.04814392 0.115824126 9.536743E-09
v 0.04664337 0.12256466 -8.932113E-05
v 0.039721373 0.13135727 -0.0004960346
v 0.028199462 0.13135727 0.027704725
v 0.026723633 0.1367501 -0.0012577056
v 0.018900756 0.13675015 0.017626695
v 1.0681152E-05 0.14261967 -0.03343691
v 1.0681152E-05 0.16344413 -0.033436947
v -0.02265747 0.16344413 -0.024048109
v -0.02265747 0.14261967 -0.024048109
v -0.03204712 0.1634441 -0.0013814068
v -0.032046814 0.14261962 -0.0013813972
v -0.02265747 0.1634441 0.021285027
v -0.02265747 0.14261962 0.021285038
v 1.0375977E-05 0.16344413 0.030673856
v 1.0375977E-05 0.14261967 0.030673856
v 0.022678528 0.1634441 0.02128522
v 0.022678528 0.14261967 0.021285238
v 0.03193878 0.16344413 -0.0013812924
v 0.03193878 0.14261962 -0.0013814068
v 0.03193878 0.14261962 -0.0013814068
v 0.03193878 0.16344413 -0.0013812924
v 0.022678528 0.16344413 -0.024048032
v 0.022678528 0.14261967 -0.024048014
v 1.0681152E-05 0.16344413 -0.033436947
v 1.0681152E-05 0.14261967 -0.03343691
v 0.022678528 0.1634441 0.02128522
v 0.022678528 0.16344413 -0.024048032
v 0.03193878 0.16344413 -0.0013812924
v 1.0375977E-05 0.16344413 0.030673856
v 1.0681152E-05 0.16344413 -0.033436947
v -0.02265747 0.1634441 0.021285027
v -0.02265747 0.16344413 -0.024048109
v -0.03204712 0.1634441 -0.0013814068
v 0.018901061 0.1426195 0.017626695
v 0.03193878 0.14261962 -0.0013814068
v 0.026723633 0.14261948 -0.0012577152
v 0.022678528 0.14261967 0.021285238
v 1.5563965E-05 0.14261948 0.025449038
v 1.0375977E-05 0.14261967 0.030673856
v -0.02265747 0.14261962 0.021285038
v -0.018870238 0.14261948 0.01762679
v -0.026693115 0.14261948 -0.0012577152
v -0.032046814 0.14261962 -0.0013813972
v -0.018869933 0.14261948 -0.020142192
v -0.02265747 0.14261967 -0.024048109
v 1.5563965E-05 0.1426195 -0.027964467
v 1.0681152E-05 0.14261967 -0.03343691
v 0.026723633 0.14261948 -0.0012577152
v 0.03193878 0.14261962 -0.0013814068
v 0.022678528 0.14261967 -0.024048014
v 0.018901061 0.14261948 -0.020142287
v 1.0681152E-05 0.14261967 -0.03343691
v 1.5563965E-05 0.1426195 -0.027964467
v 0.025689391 0 -0.025671015
v 6.1035155E-07 7.6293944E-08 1.6489028E-05
v 0.03633026 0 1.6469956E-05
v 6.1035155E-07 7.6293944E-08 -0.036311254
v 6.1035155E-07 7.6293944E-08 1.6489028E-05
v -0.02568878 0 -0.025671167
v 6.1035155E-07 7.6293944E-08 -0.036311254
v -0.036329344 7.6293944E-08 1.6460419E-05
v 6.1035155E-07 7.6293944E-08 1.6489028E-05
v 6.1035155E-07 7.6293944E-08 1.6489028E-05
v 0.025689697 0 0.025704201
v 3.0517577E-07 0 0.036344156
v -0.02568878 0 0.025703916
v 6.1035155E-07 7.6293944E-08 1.6489028E-05
vt 0.49780273 0.69677734
vt 0.5019531 0.69677734
vt 0.5019531 0.6826172
vt 0.49780273 0.6826172
vt 0.49780273 0.6689453
vt 0.5019531 0.6689453
vt 0.5019531 0.65478516
vt 0.49780273 0.65478516
vt 0.5019531 0.6411133
vt 0.49780273 0.6411133
vt 0.5019531 0.6269531
vt 0.49780273 0.6269531
vt 0.5019531 0.61328125
vt 0.49780273 0.61328125
vt 0.65478516 0.19470215
vt 0.64404297 0.17041016
vt 0.64404297 0.19470215
vt 0.65478516 0.17041016
vt 0.64404297 0.14746094
vt 0.65478516 0.14746094
vt 0.66259766 0.19470215
vt 0.66259766 0.14746094
vt 0.66259766 0.17041016
vt 0.66748047 0.14746094
vt 0.66748047 0.19470215
vt 0.66748047 0.17041016
vt 0.73876953 0.14746094
vt 0.73876953 0.17041016
vt 0.73876953 0.19470215
vt 0.7470703 0.14746094
vt 0.7470703 0.17041016
vt 0.75146484 0.14746094
vt 0.7470703 0.19470215
vt 0.75146484 0.17041016
vt 0.75146484 0.19470215
vt 0.49780273 0.61328125
vt 0.5019531 0.61328125
vt 0.5019531 0.5996094
vt 0.49780273 0.5996094
vt 0.5019531 0.5854492
vt 0.49780273 0.5854492
vt 0.65478516 0.01272583
vt 0.64404297 0.01272583
vt 0.64404297 0.037597656
vt 0.65478516 0.037597656
vt 0.66259766 0.01272583
vt 0.65478516 0.060699463
vt 0.64404297 0.060699463
vt 0.66259766 0.037597656
vt 0.65478516 0.08258057
vt 0.64404297 0.08258057
vt 0.66748047 0.037597656
vt 0.66748047 0.01272583
vt 0.73876953 0.01272583
vt 0.66259766 0.060699463
vt 0.73876953 0.037597656
vt 0.7470703 0.01272583
vt 0.65478516 0.104003906
vt 0.64404297 0.104003906
vt 0.66748047 0.060699463
vt 0.7470703 0.037597656
vt 0.75146484 0.01272583
vt 0.75146484 0.037597656
vt 0.73876953 0.060699463
vt 0.7470703 0.060699463
vt 0.75146484 0.060699463
vt 0.7470703 0.08258057
vt 0.75146484 0.08258057
vt 0.75146484 0.104003906
vt 0.66748047 0.08258057
vt 0.7470703 0.104003906
vt 0.75146484 0.12548828
vt 0.73876953 0.08258057
vt 0.66259766 0.08258057
vt 0.66259766 0.104003906
vt 0.66748047 0.104003906
vt 0.66259766 0.12548828
vt 0.73876953 0.104003906
vt 0.73876953 0.12548828
vt 0.7470703 0.12548828
vt 0.7470703 0.14746094
vt 0.75146484 0.14746094
vt 0.73876953 0.14746094
vt 0.66748047 0.12548828
vt 0.66748047 0.14746094
vt 0.66259766 0.14746094
vt 0.65478516 0.14746094
vt 0.65478516 0.12548828
vt 0.64404297 0.14746094
vt 0.64404297 0.12548828
vt 0.5439453 0.72216797
vt 0.55859375 0.72216797
vt 0.55859375 0.7050781
vt 0.5439453 0.7050781
vt 0.55859375 0.6879883
vt 0.5439453 0.6879883
vt 0.55859375 0.67089844
vt 0.5439453 0.67089844
vt 0.55859375 0.6538086
vt 0.5439453 0.6538086
vt 0.55859375 0.63671875
vt 0.5439453 0.63671875
vt 0.55859375 0.6196289
vt 0.5439453 0.6196289
vt 0.5439453 0.6196289
vt 0.55859375 0.6196289
vt 0.55859375 0.60253906
vt 0.5439453 0.60253906
vt 0.55859375 0.5854492
vt 0.5439453 0.5854492
vt 0.9160156 0.72509766
vt 0.9482422 0.72509766
vt 0.9321289 0.71875
vt 0.9091797 0.74121094
vt 0.9550781 0.74121094
vt 0.9160156 0.7578125
vt 0.9482422 0.7578125
vt 0.9321289 0.76464844
vt 0.50878906 0.62939453
vt 0.51220703 0.6147461
vt 0.50878906 0.6147461
vt 0.51220703 0.62939453
vt 0.50878906 0.64404297
vt 0.51220703 0.64404297
vt 0.51220703 0.6591797
vt 0.50878906 0.6591797
vt 0.50878906 0.6738281
vt 0.51220703 0.6738281
vt 0.50878906 0.68847656
vt 0.51220703 0.68847656
vt 0.50878906 0.70458984
vt 0.51220703 0.70458984
vt 0.50878906 0.6147461
vt 0.51220703 0.6147461
vt 0.51220703 0.60009766
vt 0.50878906 0.60009766
vt 0.51220703 0.5854492
vt 0.50878906 0.5854492
vt 0.75146484 0.17041016
vt 0.75146484 0.104003906
vt 0.75146484 0.14746094
vt 0.75146484 0.19470215
vt 0.75146484 0.104003906
vt 0.75146484 0.037597656
vt 0.75146484 0.01272583
vt 0.75146484 0.060699463
vt 0.75146484 0.104003906
vt 0.75146484 0.104003906
vt 0.75146484 0.12548828
vt 0.75146484 0.104003906
vt 0.75146484 0.08258057
vt 0.75146484 0.104003906
vn -4.7683716E-07 8.6426735E-06 -1
vn -4.7683716E-07 8.6426735E-06 -1
vn -0.70703125 9.596348E-06 -0.70703125
vn -0.70703125 9.596348E-06 -0.70703125
vn -1 -1.347065E-05 -9.298325E-06
vn -1 -1.347065E-05 1.7881393E-07
vn -0.70703125 -1.8954277E-05 0.70703125
vn -0.70703125 -1.8954277E-05 0.70703125
vn 6.2584877E-06 -1.0251999E-05 1
vn 5.7816505E-06 -1.0251999E-05 1
vn 0.70703125 -1.9848347E-05 0.70703125
vn 0.70703125 -1.9848347E-05 0.70703125
vn 1 -1.31726265E-05 4.827976E-06
vn 1 -1.31726265E-05 5.1259995E-06
vn 6.687641E-05 0.75390625 -0.6567383
vn 0.27856445 0.9160156 -0.28857422
vn 0.0001295805 0.91259766 -0.40820312
vn 0.4584961 0.7583008 -0.4638672
vn 0.38378906 0.92333984 -0.009506226
vn 0.6411133 0.7675781 -0.0053253174
vn -1.0073185E-05 0.39794922 -0.91748047
vn 0.91259766 0.40893555 0.00022733212
vn 0.6479492 0.40112305 -0.64746094
vn 0.9941406 0.1060791 0.0012836456
vn -1.2874603E-05 0.10223389 -0.9946289
vn 0.70410156 0.103393555 -0.7026367
vn 0.9628906 -0.26953125 6.2584877E-06
vn 0.68115234 -0.26953125 -0.68115234
vn 1.9669533E-06 -0.26953125 -0.9628906
vn 0.6455078 -0.7636719 1.4841557E-05
vn 0.45654297 -0.7636719 -0.45654297
vn 0.17810059 -0.9838867 1.7285347E-06
vn -5.364418E-07 -0.7636719 -0.6455078
vn 0.12585449 -0.9838867 -0.12585449
vn 2.5629997E-06 -0.9838867 -0.17810059
vn 1 -1.31726265E-05 5.1259995E-06
vn 1 -1.31726265E-05 4.827976E-06
vn 0.70703125 8.940697E-07 -0.70703125
vn 0.70703125 8.940697E-07 -0.70703125
vn -4.7683716E-07 8.6426735E-06 -1
vn -4.7683716E-07 8.6426735E-06 -1
vn 6.687641E-05 0.75390625 -0.6567383
vn 0.0001295805 0.91259766 -0.40820312
vn -0.27807617 0.9160156 -0.28857422
vn -0.45825195 0.7583008 -0.46362305
vn -1.0073185E-05 0.39794922 -0.91748047
vn -0.640625 0.7680664 -0.0053253174
vn -0.38305664 0.9238281 -0.009490967
vn -0.6479492 0.4013672 -0.64746094
vn -0.44799805 0.7763672 0.4428711
vn -0.26367188 0.9301758 0.2548828
vn -0.70410156 0.10345459 -0.7026367
vn -1.2874603E-05 0.10223389 -0.9946289
vn 1.9669533E-06 -0.26953125 -0.9628906
vn -0.91259766 0.4091797 0.00022482872
vn -0.68115234 -0.26953125 -0.68115234
vn -5.364418E-07 -0.7636719 -0.6455078
vn 6.240606E-05 0.77978516 0.62597656
vn 0.00010788441 0.93310547 0.36010742
vn -0.9941406 0.10614014 0.0012845993
vn -0.45654297 -0.7636719 -0.45654297
vn 2.5629997E-06 -0.9838867 -0.17810059
vn -0.12585449 -0.9838867 -0.12585449
vn -0.9628906 -0.26953125 1.0430813E-05
vn -0.6455078 -0.7636719 1.4960766E-05
vn -0.17810059 -0.9838867 2.8014183E-06
vn -0.45654297 -0.7636719 0.45654297
vn -0.12585449 -0.9838867 0.12585449
vn -2.9802322E-07 -0.9838867 0.17810059
vn -0.70214844 0.10876465 0.7036133
vn -1.4305115E-06 -0.7636719 0.6455078
vn 0.12585449 -0.9838867 0.12597656
vn -0.68115234 -0.26953125 0.68115234
vn -0.6425781 0.4165039 0.6430664
vn 2.7418137E-06 0.4194336 0.90771484
vn -2.0623207E-05 0.109802246 0.9941406
vn 0.6425781 0.41625977 0.6430664
vn -2.7418137E-06 -0.2692871 0.9628906
vn 0.68115234 -0.2692871 0.68115234
vn 0.45654297 -0.7636719 0.45654297
vn 0.6455078 -0.7636719 1.4841557E-05
vn 0.17810059 -0.9838867 1.7285347E-06
vn 0.9628906 -0.26953125 6.2584877E-06
vn 0.70214844 0.10870361 0.7036133
vn 0.9941406 0.1060791 0.0012836456
vn 0.91259766 0.40893555 0.00022733212
vn 0.6411133 0.7675781 -0.0053253174
vn 0.4482422 0.7763672 0.44311523
vn 0.38378906 0.92333984 -0.009506226
vn 0.26391602 0.9301758 0.2548828
vn 3.993511E-06 -1.1324883E-06 -1
vn 3.993511E-06 -1.1324883E-06 -1
vn -0.70703125 -4.172325E-06 -0.70703125
vn -0.70703125 -4.172325E-06 -0.70703125
vn -1 -7.2717667E-06 1.7881393E-06
vn -1 -7.2717667E-06 2.3841858E-06
vn -0.70703125 -3.4570694E-06 0.70703125
vn -0.70703125 -3.4570694E-06 0.70703125
vn -6.0796738E-06 3.5762787E-07 1
vn -6.2584877E-06 3.5762787E-07 1
vn 0.7089844 -2.3841858E-07 0.7055664
vn 0.7089844 -2.3841858E-07 0.7055664
vn 1 0 1.9073486E-06
vn 1 0 -5.364418E-07
vn 1 0 -5.364418E-07
vn 1 0 1.9073486E-06
vn 0.7089844 -2.3841858E-07 -0.7055664
vn 0.7089844 -2.3841858E-07 -0.7055664
vn 3.993511E-06 -1.1324883E-06 -1
vn 3.993511E-06 -1.1324883E-06 -1
vn -2.0861626E-06 1 8.34465E-07
vn -2.0861626E-06 1 8.34465E-07
vn -2.0861626E-06 1 8.34465E-07
vn -8.34465E-07 1 3.5762787E-07
vn -8.34465E-07 1 3.5762787E-07
vn -8.34465E-07 1 3.5762787E-07
vn -8.34465E-07 1 3.5762787E-07
vn -2.026558E-06 1 8.34465E-07
vn 2.1457672E-05 -1 2.3126602E-05
vn 3.027916E-05 -1 -4.7683716E-07
vn 3.0219555E-05 -1 0
vn 2.1576881E-05 -1 2.2947788E-05
vn 7.748604E-07 -1 3.284216E-05
vn 7.748604E-07 -1 3.284216E-05
vn -2.092123E-05 -1 2.2411346E-05
vn -2.0742416E-05 -1 2.2649765E-05
vn -3.0100346E-05 -1 -8.34465E-07
vn -3.0100346E-05 -1 -1.2516975E-06
vn -2.1874905E-05 -1 -2.270937E-05
vn -2.169609E-05 -1 -2.2947788E-05
vn -0 -1 -3.170967E-05
vn -0 -1 -3.170967E-05
vn 3.0219555E-05 -1 0
vn 3.027916E-05 -1 -4.7683716E-07
vn 2.1874905E-05 -1 -2.3007393E-05
vn 2.2113323E-05 -1 -2.2768974E-05
vn -0 -1 -3.170967E-05
vn -0 -1 -3.170967E-05
vn 0.12585449 -0.9838867 -0.12585449
vn -5.364418E-07 -1 -5.364418E-07
vn 0.17810059 -0.9838867 1.7285347E-06
vn 2.5629997E-06 -0.9838867 -0.17810059
vn -5.364418E-07 -1 -5.364418E-07
vn -0.12585449 -0.9838867 -0.12585449
vn 2.5629997E-06 -0.9838867 -0.17810059
vn -0.17810059 -0.9838867 2.8014183E-06
vn -5.364418E-07 -1 -5.364418E-07
vn -5.364418E-07 -1 -5.364418E-07
vn 0.12585449 -0.9838867 0.12597656
vn -2.9802322E-07 -0.9838867 0.17810059
vn -0.12585449 -0.9838867 0.12585449
vn -5.364418E-07 -1 -5.364418E-07
g MainCity_Prop_Gadgets_52_0
f 3/3/3 2/2/2 1/1/1
f 4/4/4 3/3/3 1/1/1
f 3/3/3 4/4/4 5/5/5
f 6/6/6 3/3/3 5/5/5
f 7/7/7 6/6/6 5/5/5
f 8/8/8 7/7/7 5/5/5
f 9/9/9 7/7/7 8/8/8
f 10/10/10 9/9/9 8/8/8
f 11/11/11 9/9/9 10/10/10
f 12/12/12 11/11/11 10/10/10
f 13/13/13 11/11/11 12/12/12
f 14/14/14 13/13/13 12/12/12
f 17/17/17 16/16/16 15/15/15
f 16/16/16 18/18/18 15/15/15
f 18/18/18 16/16/16 19/19/19
f 20/20/20 18/18/18 19/19/19
f 15/15/15 18/18/18 21/21/21
f 18/18/18 20/20/20 22/22/22
f 18/18/18 23/23/23 21/21/21
f 23/23/23 18/18/18 22/22/22
f 23/23/23 22/22/22 24/24/24
f 21/21/21 23/23/23 25/25/25
f 26/26/26 23/23/23 24/24/24
f 23/23/23 26/26/26 25/25/25
f 26/26/26 24/24/24 27/27/27
f 26/26/26 28/28/28 25/25/25
f 28/28/28 26/26/26 27/27/27
f 28/28/28 29/29/29 25/25/25
f 28/28/28 27/27/27 30/30/30
f 29/29/29 28/28/28 31/31/31
f 31/31/31 28/28/28 30/30/30
f 31/31/31 30/30/30 32/32/32
f 33/33/33 29/29/29 31/31/31
f 34/34/34 31/31/31 32/32/32
f 33/33/33 31/31/31 34/34/34
f 35/35/35 33/33/33 34/34/34
f 38/38/38 37/37/37 36/36/36
f 39/39/39 38/38/38 36/36/36
f 40/40/40 38/38/38 39/39/39
f 41/41/41 40/40/40 39/39/39
f 44/44/44 43/43/43 42/42/42
f 45/45/45 44/44/44 42/42/42
f 45/45/45 42/42/42 46/46/46
f 45/45/45 47/47/47 44/44/44
f 47/47/47 48/48/48 44/44/44
f 49/49/49 45/45/45 46/46/46
f 47/47/47 45/45/45 49/49/49
f 48/48/48 47/47/47 50/50/50
f 51/51/51 48/48/48 50/50/50
f 49/49/49 46/46/46 52/52/52
f 46/46/46 53/53/53 52/52/52
f 52/52/52 53/53/53 54/54/54
f 55/55/55 47/47/47 49/49/49
f 50/50/50 47/47/47 55/55/55
f 55/55/55 49/49/49 52/52/52
f 56/56/56 52/52/52 54/54/54
f 56/56/56 54/54/54 57/57/57
f 50/50/50 58/58/58 51/51/51
f 58/58/58 59/59/59 51/51/51
f 60/60/60 55/55/55 52/52/52
f 60/60/60 52/52/52 56/56/56
f 61/61/61 56/56/56 57/57/57
f 61/61/61 57/57/57 62/62/62
f 63/63/63 61/61/61 62/62/62
f 64/64/64 60/60/60 56/56/56
f 56/56/56 61/61/61 64/64/64
f 61/61/61 63/63/63 65/65/65
f 61/61/61 65/65/65 64/64/64
f 63/63/63 66/66/66 65/65/65
f 67/67/67 65/65/65 66/66/66
f 64/64/64 65/65/65 67/67/67
f 68/68/68 67/67/67 66/66/66
f 67/67/67 68/68/68 69/69/69
f 55/55/55 60/60/60 70/70/70
f 60/60/60 64/64/64 70/70/70
f 71/71/71 67/67/67 69/69/69
f 69/69/69 72/72/72 71/71/71
f 73/73/73 64/64/64 67/67/67
f 64/64/64 73/73/73 70/70/70
f 67/67/67 71/71/71 73/73/73
f 74/74/74 55/55/55 70/70/70
f 74/74/74 50/50/50 55/55/55
f 50/50/50 74/74/74 75/75/75
f 75/75/75 74/74/74 70/70/70
f 58/58/58 50/50/50 75/75/75
f 76/76/76 70/70/70 73/73/73
f 76/76/76 75/75/75 70/70/70
f 58/58/58 75/75/75 77/77/77
f 77/77/77 75/75/75 76/76/76
f 71/71/71 78/78/78 73/73/73
f 78/78/78 76/76/76 73/73/73
f 79/79/79 78/78/78 71/71/71
f 76/76/76 78/78/78 79/79/79
f 72/72/72 80/80/80 71/71/71
f 80/80/80 79/79/79 71/71/71
f 81/81/81 80/80/80 72/72/72
f 82/82/82 81/81/81 72/72/72
f 81/81/81 83/83/83 80/80/80
f 83/83/83 79/79/79 80/80/80
f 84/84/84 76/76/76 79/79/79
f 84/84/84 79/79/79 83/83/83
f 84/84/84 77/77/77 76/76/76
f 85/85/85 84/84/84 83/83/83
f 85/85/85 86/86/86 84/84/84
f 86/86/86 77/77/77 84/84/84
f 86/86/86 87/87/87 77/77/77
f 87/87/87 88/88/88 77/77/77
f 88/88/88 58/58/58 77/77/77
f 87/87/87 89/89/89 88/88/88
f 59/59/59 58/58/58 88/88/88
f 89/89/89 90/90/90 88/88/88
f 90/90/90 59/59/59 88/88/88
f 93/93/93 92/92/92 91/91/91
f 94/94/94 93/93/93 91/91/91
f 95/95/95 93/93/93 94/94/94
f 96/96/96 95/95/95 94/94/94
f 97/97/97 95/95/95 96/96/96
f 98/98/98 97/97/97 96/96/96
f 99/99/99 97/97/97 98/98/98
f 100/100/100 99/99/99 98/98/98
f 99/99/99 100/100/100 101/101/101
f 100/100/100 102/102/102 101/101/101
f 103/103/103 101/101/101 102/102/102
f 104/104/104 103/103/103 102/102/102
f 107/107/107 106/106/106 105/105/105
f 108/108/108 107/107/107 105/105/105
f 109/109/109 107/107/107 108/108/108
f 110/110/110 109/109/109 108/108/108
f 113/113/113 112/112/112 111/111/111
f 111/111/111 112/112/112 114/114/114
f 112/112/112 115/115/115 114/114/114
f 114/114/114 115/115/115 116/116/116
f 115/115/115 117/117/117 116/116/116
f 116/116/116 117/117/117 118/118/118
f 121/121/121 120/120/120 119/119/119
f 120/120/120 122/122/122 119/119/119
f 119/119/119 122/122/122 123/123/123
f 122/122/122 124/124/124 123/123/123
f 123/123/123 124/124/124 125/125/125
f 126/126/126 123/123/123 125/125/125
f 126/126/126 125/125/125 127/127/127
f 125/125/125 128/128/128 127/127/127
f 127/127/127 128/128/128 129/129/129
f 128/128/128 130/130/130 129/129/129
f 129/129/129 130/130/130 131/131/131
f 130/130/130 132/132/132 131/131/131
f 135/135/135 134/134/134 133/133/133
f 136/136/136 135/135/135 133/133/133
f 137/137/137 135/135/135 136/136/136
f 138/138/138 137/137/137 136/136/136
f 141/141/141 140/140/140 139/139/139
f 139/139/139 143/143/143 142/142/142
f 145/145/145 143/143/143 144/144/144
f 144/144/144 147/147/147 146/146/146
f 149/149/149 148/148/148 141/141/141
f 150/150/150 148/148/148 149/149/149
f 146/146/146 152/152/152 151/151/151
f 151/151/151 152/152/152 150/150/150
