g MainCity_Prop_CloseUp_02
v -0.50356054 6.67572E-08 0.023729201
v -0.50356054 -1.777182E-18 0.029023584
v 0.50356054 -1.777182E-18 0.029023584
v 0.50356054 6.67572E-08 0.023729201
v 0.5098643 0.0063038063 0.023729205
v 0.5098643 0.0063037393 0.029023584
v 0.5098643 0.5410986 0.029023709
v 0.5098643 0.54109865 0.023729328
v 0.50356054 0.5474024 0.023729332
v 0.50356054 0.5474023 0.029023709
v -0.50356054 0.5474023 0.029023709
v -0.50356054 0.5474024 0.023729332
v -0.5098643 0.54109865 0.023729328
v -0.5098643 0.5410986 0.029023709
v -0.5098643 0.0063037393 0.029023584
v -0.5098643 0.0063038063 0.023729205
v 0.50356054 6.67572E-08 0.023729201
v 0.50356054 -1.777182E-18 0.029023584
v 0.5098643 0.0063037393 0.029023584
v 0.5098643 0.0063038063 0.023729205
v -0.50356054 -1.777182E-18 0.029023584
v -0.50356054 6.67572E-08 0.023729201
v -0.5098643 0.0063038063 0.023729205
v -0.5098643 0.0063037393 0.029023584
v 0.5098643 0.54109865 0.023729328
v 0.5098643 0.5410986 0.029023709
v 0.50356054 0.5474023 0.029023709
v 0.50356054 0.5474024 0.023729332
v -0.50356054 0.5474024 0.023729332
v -0.50356054 0.5474023 0.029023709
v -0.5098643 0.5410986 0.029023709
v -0.5098643 0.54109865 0.023729328
v 0.006831779 0.7882365 0.0041425778
v 0.007808761 0.7919865 0.0063076434
v 0.47949585 0.53060734 0.03482469
v 0.4780925 0.52709574 0.032659624
v 0.48676717 0.5217077 0.027343828
v 0.48859695 0.52498096 0.02950889
v 0.47949585 0.53060734 0.03482469
v 0.007808761 0.7919865 0.0063076434
v 0.007808761 0.7919865 0.0019775128
v 0.47949585 0.53060734 0.030494561
v 0.48859695 0.52498096 0.02950889
v 0.48859695 0.52498096 0.025178766
v 0.47949585 0.53060734 0.030494561
v 0.007808761 0.7919865 0.0019775128
v 0.006831779 0.7882365 0.0041425778
v 0.4780925 0.52709574 0.032659624
v 0.48859695 0.52498096 0.025178766
v 0.48676717 0.5217077 0.027343828
v -0.4730432 0.52520764 0.032659624
v -0.48322874 0.51822346 0.027343826
v -0.48514944 0.52144426 0.029508892
v -0.47452018 0.5286931 0.03482469
v -0.47452018 0.5286931 0.03482469
v -0.48514944 0.52144426 0.029508892
v -0.48514944 0.52144426 0.025178764
v -0.47452018 0.5286931 0.030494561
v -0.47452018 0.5286931 0.030494561
v -0.48514944 0.52144426 0.025178764
v -0.48322874 0.51822346 0.027343826
v -0.4730432 0.52520764 0.032659624
v -0.50356054 -1.777182E-18 0.029023584
v -0.5098643 0.0063037393 0.029023584
v -0.5098643 0.5410986 0.029023709
v -0.50356054 0.5474023 0.029023709
v 0.50356054 -1.777182E-18 0.029023584
v 0.50356054 0.5474023 0.029023709
v 0.5098643 0.5410986 0.029023709
v 0.5098643 0.0063037393 0.029023584
v 0.0102282 0.82862306 -0.0056486772
v 0.0102282 0.8117783 0.023527235
v -0.02867302 0.8117783 0.023527233
v -0.028673016 0.82862306 -0.0056486772
v 0.010228195 0.8117783 -0.034824606
v -0.028673021 0.8117783 -0.0348246
v 0.010228191 0.77808887 -0.034824595
v -0.028673027 0.77808887 -0.034824595
v 0.0102282 0.8117783 0.023527235
v -0.028673023 0.77808887 0.02352723
v -0.02867302 0.8117783 0.023527233
v 0.010228195 0.77808887 0.023527231
v -0.028673029 0.7612442 -0.005648682
v 0.010228191 0.7612442 -0.005648682
v -0.028673027 0.77808887 -0.034824595
v 0.010228191 0.77808887 -0.034824595
v -0.030451793 0.7882365 0.0041425778
v -0.4730432 0.52520764 0.032659624
v -0.47452018 0.5286931 0.03482469
v -0.031485062 0.7919865 0.0063076434
v -0.031485062 0.7919865 0.0063076434
v -0.47452018 0.5286931 0.03482469
v -0.47452018 0.5286931 0.030494561
v -0.031485062 0.7919865 0.0019775128
v -0.47452018 0.5286931 0.030494561
v -0.4730432 0.52520764 0.032659624
v -0.030451793 0.7882365 0.0041425778
v -0.031485062 0.7919865 0.0019775128
v -0.5098643 0.0063038063 0.023729205
v -0.50356054 0.5474024 0.023729332
v -0.5098643 0.54109865 0.023729328
v -0.50356054 6.67572E-08 0.023729201
v 0.50356054 6.67572E-08 0.023729201
v 0.50356054 0.5474024 0.023729332
v 0.5098643 0.54109865 0.023729328
v 0.5098643 0.0063038063 0.023729205
v 0.029678801 0.7949336 -0.005648682
v 0.0102282 0.8117783 0.023527235
v 0.0102282 0.82862306 -0.0056486772
v 0.010228195 0.77808887 0.023527231
v 0.010228195 0.8117783 -0.034824606
v 0.010228191 0.7612442 -0.005648682
v 0.010228191 0.77808887 -0.034824595
v -0.048123624 0.7949336 -0.0056486796
v -0.028673016 0.82862306 -0.0056486772
v -0.02867302 0.8117783 0.023527233
v -0.028673023 0.77808887 0.02352723
v -0.028673021 0.8117783 -0.0348246
v -0.028673029 0.7612442 -0.005648682
v -0.028673027 0.77808887 -0.034824595
vt 1.7470703 0.40795898
vt 1.7470703 0.40405273
vt 1.0195312 0.40405273
vt 1.0195312 0.40795898
vt 1.7470703 0.40795898
vt 1.7470703 0.40405273
vt 1.3613281 0.40405273
vt 1.3613281 0.40795898
vt 1.7519531 0.40795898
vt 1.7519531 0.40405273
vt 1.0244141 0.40405273
vt 1.0244141 0.40795898
vt 1.3613281 0.40405273
vt 1.3613281 0.40795898
vt 1.7470703 0.40795898
vt 1.7470703 0.40405273
vt 1.0195312 0.40795898
vt 1.0195312 0.40405273
vt 1.015625 0.40405273
vt 1.015625 0.40795898
vt 1.7470703 0.40405273
vt 1.7470703 0.40795898
vt 1.7519531 0.40795898
vt 1.7519531 0.40405273
vt 1.3613281 0.40795898
vt 1.3613281 0.40405273
vt 1.3564453 0.40405273
vt 1.3564453 0.40795898
vt 1.3564453 0.40405273
vt 1.3564453 0.40795898
vt 1.3613281 0.40795898
vt 1.3613281 0.40405273
vt 1.9550781 0.65722656
vt 1.9580078 0.65722656
vt 1.9580078 0.38354492
vt 1.9550781 0.38354492
vt 1.9550781 0.3774414
vt 1.9570312 0.3774414
vt 1.9501953 0.38354492
vt 1.9501953 0.65722656
vt 1.953125 0.65722656
vt 1.953125 0.38354492
vt 1.9501953 0.3774414
vt 1.953125 0.3774414
vt 1.953125 0.38354492
vt 1.953125 0.65722656
vt 1.9550781 0.65722656
vt 1.9550781 0.38354492
vt 1.953125 0.3774414
vt 1.9550781 0.3774414
vt 1.9550781 0.3774414
vt 1.9550781 0.38354492
vt 1.9570312 0.38354492
vt 1.9570312 0.3774414
vt 1.9501953 0.3774414
vt 1.9501953 0.38354492
vt 1.953125 0.38354492
vt 1.953125 0.3774414
vt 1.953125 0.3774414
vt 1.953125 0.38354492
vt 1.9550781 0.38354492
vt 1.9550781 0.3774414
vt 0.015327454 0.0075569153
vt 0.01071167 0.012168884
vt 0.01071167 0.4033203
vt 0.015327454 0.40795898
vt 0.7519531 0.0075569153
vt 0.7519531 0.40795898
vt 0.75634766 0.4033203
vt 0.75634766 0.012168884
vt 1.90625 0.56689453
vt 1.90625 0.5839844
vt 1.9287109 0.5839844
vt 1.9287109 0.56689453
vt 1.90625 0.5498047
vt 1.9287109 0.5498047
vt 1.90625 0.53027344
vt 1.9287109 0.53027344
vt 0.90625 0.53027344
vt 0.92871094 0.5498047
vt 0.92871094 0.53027344
vt 0.90625 0.5498047
vt 0.92871094 0.56689453
vt 0.90625 0.56689453
vt 0.92871094 0.5839844
vt 0.90625 0.5839844
vt 0.9526367 0.3774414
vt 0.9526367 0.65722656
vt 0.9550781 0.65722656
vt 0.9550781 0.3774414
vt 0.9550781 0.3774414
vt 0.9550781 0.65722656
vt 0.95751953 0.65722656
vt 0.95751953 0.3774414
vt 0.9506836 0.65722656
vt 0.9526367 0.65722656
vt 0.9526367 0.3774414
vt 0.9506836 0.3774414
vt 0.86621094 0.75878906
vt 0.9892578 0.7602539
vt 0.98779297 0.75878906
vt 0.8647461 0.7602539
vt 0.8647461 0.9921875
vt 0.9892578 0.9921875
vt 0.98779297 0.99365234
vt 0.86621094 0.99365234
vt 1.9160156 0.625
vt 1.9335938 0.6152344
vt 1.9160156 0.60546875
vt 1.9335938 0.6347656
vt 1.8994141 0.6152344
vt 1.9160156 0.64453125
vt 1.8994141 0.6347656
vt 0.9160156 0.625
vt 0.9160156 0.60546875
vt 0.8989258 0.6152344
vt 0.8989258 0.6347656
vt 0.93310547 0.6152344
vt 0.9160156 0.64453125
vt 0.93310547 0.6347656
vn -0 -1 -1.2636185E-05
vn -0 -1 -1.2636185E-05
vn -0 -1 -1.2636185E-05
vn -0 -1 -1.2636185E-05
vn 1 0 0
vn 1 0 0
vn 1 0 0
vn 1 0 0
vn -0 1 1.4424324E-05
vn -0 1 1.4424324E-05
vn -0 1 1.4424324E-05
vn -0 1 1.4424324E-05
vn -1 0 0
vn -1 0 0
vn -1 0 0
vn -1 0 0
vn 0.70703125 -0.70703125 -8.940697E-06
vn 0.70703125 -0.70703125 -8.940697E-06
vn 0.70703125 -0.70703125 -8.940697E-06
vn 0.70703125 -0.70703125 -8.940697E-06
vn -0.70703125 -0.70703125 -8.940697E-06
vn -0.70703125 -0.70703125 -8.940697E-06
vn -0.70703125 -0.70703125 -8.940697E-06
vn -0.70703125 -0.70703125 -8.940697E-06
vn 0.70703125 0.70703125 1.0192394E-05
vn 0.70703125 0.70703125 1.0192394E-05
vn 0.70703125 0.70703125 1.0192394E-05
vn 0.70703125 0.70703125 1.0192394E-05
vn -0.70703125 0.70703125 1.0192394E-05
vn -0.70703125 0.70703125 1.0192394E-05
vn -0.70703125 0.70703125 1.0192394E-05
vn -0.70703125 0.70703125 1.0192394E-05
vn -0.2849121 -0.42016602 0.8613281
vn -0.2849121 -0.42016602 0.8613281
vn -0.11413574 -0.49804688 0.8598633
vn -0.053344727 -0.5209961 0.8520508
vn 0.12634277 -0.5756836 0.8076172
vn 0.12634277 -0.5756836 0.8076172
vn 0.5024414 0.8647461 0
vn 0.48461914 0.8745117 0
vn 0.48461914 0.8745117 0
vn 0.5078125 0.8613281 0
vn 0.5258789 0.85058594 0
vn 0.5258789 0.85058594 0
vn -0.40527344 -0.34375 -0.84716797
vn -0.19848633 -0.453125 -0.8691406
vn -0.19848633 -0.453125 -0.8691406
vn -0.4111328 -0.34033203 -0.8457031
vn -0.59472656 -0.21142578 -0.7753906
vn -0.59472656 -0.21142578 -0.7753906
vn 0.10772705 -0.5024414 0.85791016
vn -0.042663574 -0.5571289 0.82910156
vn -0.042663574 -0.5571289 0.82910156
vn 0.15771484 -0.48120117 0.8623047
vn -0.5341797 0.84521484 0
vn -0.56347656 0.8261719 0
vn -0.56347656 0.8261719 0
vn -0.54003906 0.8417969 0
vn 0.38867188 -0.34936523 -0.85253906
vn 0.5620117 -0.22839355 -0.7949219
vn 0.5620117 -0.22839355 -0.7949219
vn 0.4013672 -0.34155273 -0.8496094
vn -0 -2.3841858E-07 1
vn -0 -2.3841858E-07 1
vn -0 -2.3841858E-07 1
vn -0 -2.3841858E-07 1
vn -0 -2.3841858E-07 1
vn -0 -2.3841858E-07 1
vn -0 -2.3841858E-07 1
vn -0 -2.3841858E-07 1
vn 0.44140625 0.89746094 0
vn 0.44140625 0.44873047 0.77734375
vn -0.44140625 0.44873047 0.77734375
vn -0.44140625 0.89746094 1.1920929E-07
vn 0.44140625 0.44873047 -0.77734375
vn -0.44140625 0.44873047 -0.77734375
vn 0.44140625 -0.44873047 -0.77734375
vn -0.44140625 -0.44873047 -0.77734375
vn 0.44140625 0.44873047 0.77734375
vn -0.44140625 -0.44873047 0.77734375
vn -0.44140625 0.44873047 0.77734375
vn 0.44140625 -0.44873047 0.77734375
vn -0.44140625 -0.89746094 0
vn 0.44140625 -0.89746094 0
vn -0.44140625 -0.44873047 -0.77734375
vn 0.44140625 -0.44873047 -0.77734375
vn 0.2998047 -0.4111328 0.86083984
vn 0.10772705 -0.5024414 0.85791016
vn 0.15771484 -0.48120117 0.8623047
vn 0.2998047 -0.4111328 0.86083984
vn -0.5107422 0.8598633 0
vn -0.5341797 0.84521484 0
vn -0.54003906 0.8417969 0
vn -0.5107422 0.8598633 0
vn 0.38867188 -0.34936523 -0.85253906
vn 0.4013672 -0.34155273 -0.8496094
vn 0.20996094 -0.44750977 -0.8691406
vn 0.20996094 -0.44750977 -0.8691406
vn -0 2.3841858E-07 -1
vn -0 2.3841858E-07 -1
vn -0 2.3841858E-07 -1
vn -0 2.3841858E-07 -1
vn -0 2.3841858E-07 -1
vn -0 2.3841858E-07 -1
vn -0 2.3841858E-07 -1
vn -0 2.3841858E-07 -1
vn 1 -1.1920929E-07 0
vn 0.44140625 0.44873047 0.77734375
vn 0.44140625 0.89746094 0
vn 0.44140625 -0.44873047 0.77734375
vn 0.44140625 0.44873047 -0.77734375
vn 0.44140625 -0.89746094 0
vn 0.44140625 -0.44873047 -0.77734375
vn -1 0 0
vn -0.44140625 0.89746094 1.1920929E-07
vn -0.44140625 0.44873047 0.77734375
vn -0.44140625 -0.44873047 0.77734375
vn -0.44140625 0.44873047 -0.77734375
vn -0.44140625 -0.89746094 0
vn -0.44140625 -0.44873047 -0.77734375
g MainCity_Prop_CloseUp_02_0
f 3/3/3 2/2/2 1/1/1
f 4/4/4 3/3/3 1/1/1
f 7/7/7 6/6/6 5/5/5
f 8/8/8 7/7/7 5/5/5
f 11/11/11 10/10/10 9/9/9
f 12/12/12 11/11/11 9/9/9
f 15/15/15 14/14/14 13/13/13
f 16/16/16 15/15/15 13/13/13
f 19/19/19 18/18/18 17/17/17
f 20/20/20 19/19/19 17/17/17
f 23/23/23 22/22/22 21/21/21
f 24/24/24 23/23/23 21/21/21
f 27/27/27 26/26/26 25/25/25
f 28/28/28 27/27/27 25/25/25
f 31/31/31 30/30/30 29/29/29
f 32/32/32 31/31/31 29/29/29
f 35/35/35 34/34/34 33/33/33
f 36/36/36 35/35/35 33/33/33
f 35/35/35 36/36/36 37/37/37
f 38/38/38 35/35/35 37/37/37
f 41/41/41 40/40/40 39/39/39
f 42/42/42 41/41/41 39/39/39
f 42/42/42 39/39/39 43/43/43
f 44/44/44 42/42/42 43/43/43
f 47/47/47 46/46/46 45/45/45
f 48/48/48 47/47/47 45/45/45
f 48/48/48 45/45/45 49/49/49
f 50/50/50 48/48/48 49/49/49
f 53/53/53 52/52/52 51/51/51
f 54/54/54 53/53/53 51/51/51
f 57/57/57 56/56/56 55/55/55
f 58/58/58 57/57/57 55/55/55
f 61/61/61 60/60/60 59/59/59
f 62/62/62 61/61/61 59/59/59
f 65/65/65 64/64/64 63/63/63
f 66/66/66 65/65/65 63/63/63
f 66/66/66 63/63/63 67/67/67
f 68/68/68 66/66/66 67/67/67
f 69/69/69 68/68/68 67/67/67
f 70/70/70 69/69/69 67/67/67
f 73/73/73 72/72/72 71/71/71
f 74/74/74 73/73/73 71/71/71
f 74/74/74 71/71/71 75/75/75
f 76/76/76 74/74/74 75/75/75
f 76/76/76 75/75/75 77/77/77
f 78/78/78 76/76/76 77/77/77
f 81/81/81 80/80/80 79/79/79
f 80/80/80 82/82/82 79/79/79
f 80/80/80 83/83/83 82/82/82
f 83/83/83 84/84/84 82/82/82
f 83/83/83 85/85/85 84/84/84
f 85/85/85 86/86/86 84/84/84
f 89/89/89 88/88/88 87/87/87
f 90/90/90 89/89/89 87/87/87
f 93/93/93 92/92/92 91/91/91
f 94/94/94 93/93/93 91/91/91
f 97/97/97 96/96/96 95/95/95
f 98/98/98 97/97/97 95/95/95
f 101/101/101 100/100/100 99/99/99
f 100/100/100 102/102/102 99/99/99
f 103/103/103 102/102/102 100/100/100
f 104/104/104 103/103/103 100/100/100
f 103/103/103 104/104/104 105/105/105
f 106/106/106 103/103/103 105/105/105
f 109/109/109 108/108/108 107/107/107
f 108/108/108 110/110/110 107/107/107
f 111/111/111 109/109/109 107/107/107
f 110/110/110 112/112/112 107/107/107
f 113/113/113 111/111/111 107/107/107
f 112/112/112 113/113/113 107/107/107
f 116/116/116 115/115/115 114/114/114
f 117/117/117 116/116/116 114/114/114
f 115/115/115 118/118/118 114/114/114
f 119/119/119 117/117/117 114/114/114
f 118/118/118 120/120/120 114/114/114
f 120/120/120 119/119/119 114/114/114
