g MainCity_Prop_ManholeCover_17
v -0.116831206 4.7683715E-09 0.12250289
v -0.11683128 0.050286964 0.12250289
v 0.116832465 0.050286964 0.12250289
v 0.116832465 4.7683715E-09 0.12250289
v 0.12250332 4.7683715E-09 0.11683182
v 0.12250339 0.050286964 -0.11683182
v 0.12250339 8.881784E-18 -0.11683166
v 0.12250332 0.050286964 0.116831966
v 0.116832465 4.7683715E-09 0.12250289
v 0.116832465 0.050286964 0.12250289
v 0.1168325 8.881784E-18 -0.122502744
v 0.1168325 0.050286964 -0.122502744
v -0.11683128 0.050286964 -0.122502744
v -0.116831206 8.881784E-18 -0.12250289
v -0.11683128 0.050286964 0.12250289
v -0.116831206 4.7683715E-09 0.12250289
v -0.12250213 4.7683715E-09 0.11683182
v -0.12250221 0.050286964 0.116831966
v -0.12250213 8.881784E-18 -0.116831966
v -0.12250221 0.050286964 -0.11683182
v -0.116831206 8.881784E-18 -0.12250289
v -0.11683128 0.050286964 -0.122502744
v 0.12250339 8.881784E-18 -0.11683166
v 0.12250339 0.050286964 -0.11683182
v 0.1168325 0.050286964 -0.122502744
v 0.1168325 8.881784E-18 -0.122502744
v 0.1168325 0.050286964 -0.122502744
v -0.12250221 0.050286964 -0.11683182
v -0.11683128 0.050286964 -0.122502744
v 0.12250339 0.050286964 -0.11683182
v 0.12250332 0.050286964 0.116831966
v -0.12250221 0.050286964 0.116831966
v -0.11683128 0.050286964 0.12250289
v 0.116832465 0.050286964 0.12250289
vt 0.6772461 0.6616211
vt 0.6660156 0.6616211
vt 0.6660156 0.7441406
vt 0.6772461 0.7441406
vt 0.80859375 0.0736084
vt 0.7973633 0.15637207
vt 0.80859375 0.15637207
vt 0.7973633 0.0736084
vt 0.80859375 0.070739746
vt 0.7973633 0.070739746
vt 0.48510742 0.5307617
vt 0.48510742 0.54248047
vt 0.5678711 0.54248047
vt 0.5678711 0.5307617
vt 0.9404297 0.036895752
vt 0.9404297 0.025497437
vt 0.9375 0.025497437
vt 0.9375 0.036895752
vt 0.8544922 0.025497437
vt 0.8544922 0.036895752
vt 0.8515625 0.025497437
vt 0.8515625 0.036895752
vt 0.48217773 0.5307617
vt 0.48217773 0.54248047
vt 0.48510742 0.54248047
vt 0.48510742 0.5307617
vt 0.5678711 0.5258789
vt 0.4831543 0.5239258
vt 0.48510742 0.5258789
vt 0.5698242 0.5239258
vt 0.5698242 0.4411621
vt 0.4831543 0.4411621
vt 0.48510742 0.43896484
vt 0.5678711 0.43896484
vn -0.38256836 -1.1324883E-06 0.9238281
vn -0.38256836 -1.1324883E-06 0.9238281
vn 0.38256836 -5.9604645E-07 0.9238281
vn 0.38256836 -5.9604645E-07 0.9238281
vn 0.9238281 -5.9604645E-07 0.38256836
vn 0.9238281 -5.9604645E-07 -0.38256836
vn 0.9238281 -5.9604645E-07 -0.38256836
vn 0.9238281 -5.9604645E-07 0.38256836
vn 0.38256836 -5.9604645E-07 0.9238281
vn 0.38256836 -5.9604645E-07 0.9238281
vn 0.38256836 2.3841858E-07 -0.9238281
vn 0.38256836 2.3841858E-07 -0.9238281
vn -0.38256836 1.4305115E-06 -0.9238281
vn -0.38256836 1.4305115E-06 -0.9238281
vn -0.38256836 -1.1324883E-06 0.9238281
vn -0.38256836 -1.1324883E-06 0.9238281
vn -0.9238281 -1.9669533E-06 0.38256836
vn -0.9238281 -1.9669533E-06 0.38256836
vn -0.9238281 -2.3841858E-07 -0.38256836
vn -0.9238281 -2.3841858E-07 -0.38256836
vn -0.38256836 1.4305115E-06 -0.9238281
vn -0.38256836 1.4305115E-06 -0.9238281
vn 0.9238281 -5.9604645E-07 -0.38256836
vn 0.9238281 -5.9604645E-07 -0.38256836
vn 0.38256836 2.3841858E-07 -0.9238281
vn 0.38256836 2.3841858E-07 -0.9238281
vn -0 1 0
vn -0 1 0
vn -0 1 0
vn -0 1 0
vn -0 1 0
vn -0 1 0
vn -0 1 0
vn -0 1 0
g MainCity_Prop_ManholeCover_17_0
f 3/3/3 2/2/2 1/1/1
f 4/4/4 3/3/3 1/1/1
f 7/7/7 6/6/6 5/5/5
f 6/6/6 8/8/8 5/5/5
f 5/5/5 8/8/8 9/9/9
f 8/8/8 10/10/10 9/9/9
f 13/13/13 12/12/12 11/11/11
f 14/14/14 13/13/13 11/11/11
f 17/17/17 16/16/16 15/15/15
f 18/18/18 17/17/17 15/15/15
f 17/17/17 18/18/18 19/19/19
f 18/18/18 20/20/20 19/19/19
f 19/19/19 20/20/20 21/21/21
f 20/20/20 22/22/22 21/21/21
f 25/25/25 24/24/24 23/23/23
f 26/26/26 25/25/25 23/23/23
f 29/29/29 28/28/28 27/27/27
f 28/28/28 30/30/30 27/27/27
f 30/30/30 28/28/28 31/31/31
f 28/28/28 32/32/32 31/31/31
f 31/31/31 32/32/32 33/33/33
f 34/34/34 31/31/31 33/33/33
