g MainCity_Prop_ManholeCover_12
v -0.33948714 -1.3322676E-17 0.22136664
v -0.33948714 0.07269465 0.22136664
v 0.33948156 0.07269465 0.22136664
v 0.3394815 -1.3322676E-17 0.22136664
v 0.3564794 2.3841857E-09 0.20436881
v 0.35647956 0.07269465 -0.20436859
v 0.3564794 1.3322676E-17 -0.20436859
v 0.35647956 0.07269465 0.20436881
v 0.35222992 -1.3322676E-17 0.21711724
v 0.35222992 0.07269465 0.21711724
v 0.3394815 2.3841857E-09 -0.22136664
v -0.33948714 0.07269465 -0.22136672
v -0.33948714 2.3841857E-09 -0.22136664
v 0.33948156 0.07269465 -0.22136664
v 0.35222992 1.3322676E-17 -0.21711715
v 0.35222992 0.07269465 -0.21711715
v 0.3394815 -1.3322676E-17 0.22136664
v 0.33948156 0.07269465 0.22136664
v 0.35222992 0.07269465 0.21711724
v 0.35222992 -1.3322676E-17 0.21711724
v -0.33948714 0.07269465 0.22136664
v -0.33948714 -1.3322676E-17 0.22136664
v -0.35223556 -1.3322676E-17 0.21711724
v -0.35223556 0.07269465 0.21711715
v 0.3564794 1.3322676E-17 -0.20436859
v 0.35647956 0.07269465 -0.20436859
v 0.35222992 0.07269465 -0.21711715
v 0.35222992 1.3322676E-17 -0.21711715
v -0.33948714 2.3841857E-09 -0.22136664
v -0.33948714 0.07269465 -0.22136672
v -0.35223556 0.07269465 -0.21711724
v -0.35223556 1.3322676E-17 -0.21711715
v -0.35223556 0.07269465 0.21711715
v -0.35223556 -1.3322676E-17 0.21711724
v -0.35648513 2.3841857E-09 0.20436881
v -0.35648528 0.07269465 0.20436867
v -0.35648513 1.3322676E-17 -0.20436859
v -0.35648528 0.07269465 -0.20436867
v -0.35223556 1.3322676E-17 -0.21711715
v -0.35223556 0.07269465 -0.21711724
v 0.33948156 0.07269465 -0.22136664
v -0.35223556 0.07269465 -0.21711724
v -0.33948714 0.07269465 -0.22136672
v 0.35222992 0.07269465 -0.21711715
v -0.35648528 0.07269465 -0.20436867
v 0.35647956 0.07269465 -0.20436859
v 0.35647956 0.07269465 0.20436881
v -0.35648528 0.07269465 0.20436867
v -0.35223556 0.07269465 0.21711715
v 0.35222992 0.07269465 0.21711724
v -0.33948714 0.07269465 0.22136664
v 0.33948156 0.07269465 0.22136664
vt 0.2998047 0.24597168
vt 0.2998047 0.25732422
vt 0.54003906 0.25732422
vt 0.54003906 0.24597168
vt 0.83740234 0.83496094
vt 0.9824219 0.8461914
vt 0.9824219 0.83496094
vt 0.83740234 0.8461914
vt 0.8330078 0.83496094
vt 0.8330078 0.8461914
vt 0.29907227 0.26904297
vt 0.5395508 0.28027344
vt 0.5395508 0.26904297
vt 0.29907227 0.28027344
vt 0.2944336 0.26904297
vt 0.2944336 0.28027344
vt 0.828125 0.83496094
vt 0.828125 0.8461914
vt 0.8330078 0.8461914
vt 0.8330078 0.83496094
vt 0.81152344 0.9897461
vt 0.8227539 0.9897461
vt 0.8227539 0.98535156
vt 0.81152344 0.98535156
vt 0.28955078 0.26904297
vt 0.28955078 0.28027344
vt 0.2944336 0.28027344
vt 0.2944336 0.26904297
vt 0.8227539 0.8261719
vt 0.81152344 0.8261719
vt 0.81152344 0.8310547
vt 0.8227539 0.8310547
vt 0.81152344 0.98535156
vt 0.8227539 0.98535156
vt 0.8227539 0.98046875
vt 0.81152344 0.98046875
vt 0.8227539 0.8354492
vt 0.81152344 0.8354492
vt 0.8227539 0.8310547
vt 0.81152344 0.8310547
vt 0.99121094 0.5786133
vt 0.9897461 0.82373047
vt 0.99121094 0.81933594
vt 0.9897461 0.57421875
vt 0.98535156 0.8256836
vt 0.98535156 0.5727539
vt 0.84033203 0.5727539
vt 0.84033203 0.8256836
vt 0.8359375 0.82373047
vt 0.8359375 0.57421875
vt 0.83447266 0.81933594
vt 0.83447266 0.5786133
vn -0.16015625 2.3841858E-07 0.9873047
vn -0.16015625 2.3841858E-07 0.9873047
vn 0.16015625 0 0.9873047
vn 0.16015625 0 0.9873047
vn 0.9873047 -1.5497208E-06 0.16015625
vn 0.9873047 -1.5497208E-06 -0.16015625
vn 0.9873047 -1.5497208E-06 -0.16015625
vn 0.9873047 -1.5497208E-06 0.16015625
vn 0.70703125 -6.556511E-07 0.70703125
vn 0.70703125 -6.556511E-07 0.70703125
vn 0.16015625 -3.5762787E-07 -0.9873047
vn -0.16015625 -7.748604E-07 -0.9873047
vn -0.16015625 -7.748604E-07 -0.9873047
vn 0.16015625 -3.5762787E-07 -0.9873047
vn 0.70703125 -6.556511E-07 -0.70703125
vn 0.70703125 -6.556511E-07 -0.70703125
vn 0.16015625 0 0.9873047
vn 0.16015625 0 0.9873047
vn 0.70703125 -6.556511E-07 0.70703125
vn 0.70703125 -6.556511E-07 0.70703125
vn -0.16015625 2.3841858E-07 0.9873047
vn -0.16015625 2.3841858E-07 0.9873047
vn -0.70703125 0 0.70703125
vn -0.70703125 0 0.70703125
vn 0.9873047 -1.5497208E-06 -0.16015625
vn 0.9873047 -1.5497208E-06 -0.16015625
vn 0.70703125 -6.556511E-07 -0.70703125
vn 0.70703125 -6.556511E-07 -0.70703125
vn -0.16015625 -7.748604E-07 -0.9873047
vn -0.16015625 -7.748604E-07 -0.9873047
vn -0.70703125 -1.3113022E-06 -0.70703125
vn -0.70703125 -1.3113022E-06 -0.70703125
vn -0.70703125 0 0.70703125
vn -0.70703125 0 0.70703125
vn -0.9873047 -1.3113022E-06 0.16015625
vn -0.9873047 -1.3113022E-06 0.16015625
vn -0.9873047 -1.7285347E-06 -0.16015625
vn -0.9873047 -1.7285347E-06 -0.16015625
vn -0.70703125 -1.3113022E-06 -0.70703125
vn -0.70703125 -1.3113022E-06 -0.70703125
vn -0 1 0
vn -0 1 0
vn -0 1 0
vn -0 1 0
vn -0 1 0
vn -0 1 0
vn -0 1 0
vn -0 1 0
vn -0 1 0
vn -0 1 0
vn -0 1 0
vn -0 1 0
g MainCity_Prop_ManholeCover_12_0
f 3/3/3 2/2/2 1/1/1
f 4/4/4 3/3/3 1/1/1
f 7/7/7 6/6/6 5/5/5
f 6/6/6 8/8/8 5/5/5
f 5/5/5 8/8/8 9/9/9
f 8/8/8 10/10/10 9/9/9
f 13/13/13 12/12/12 11/11/11
f 12/12/12 14/14/14 11/11/11
f 11/11/11 14/14/14 15/15/15
f 14/14/14 16/16/16 15/15/15
f 19/19/19 18/18/18 17/17/17
f 20/20/20 19/19/19 17/17/17
f 23/23/23 22/22/22 21/21/21
f 24/24/24 23/23/23 21/21/21
f 27/27/27 26/26/26 25/25/25
f 28/28/28 27/27/27 25/25/25
f 31/31/31 30/30/30 29/29/29
f 32/32/32 31/31/31 29/29/29
f 35/35/35 34/34/34 33/33/33
f 36/36/36 35/35/35 33/33/33
f 35/35/35 36/36/36 37/37/37
f 36/36/36 38/38/38 37/37/37
f 37/37/37 38/38/38 39/39/39
f 38/38/38 40/40/40 39/39/39
f 43/43/43 42/42/42 41/41/41
f 42/42/42 44/44/44 41/41/41
f 42/42/42 45/45/45 44/44/44
f 45/45/45 46/46/46 44/44/44
f 46/46/46 45/45/45 47/47/47
f 45/45/45 48/48/48 47/47/47
f 47/47/47 48/48/48 49/49/49
f 50/50/50 47/47/47 49/49/49
f 50/50/50 49/49/49 51/51/51
f 52/52/52 50/50/50 51/51/51
