g MainCity_Prop_Ramp_02
v 0.20220436 5.474818E-06 0.202286
v 0.20219852 0.08713567 -0.20272663
v 0.20209602 5.5105806E-06 -0.20272668
v 0.20219852 0.08713567 -0.20272663
v -0.20219676 -3.2834432E-06 -0.2027268
v 0.20209602 5.5105806E-06 -0.20272668
v 0.20219852 0.08713567 -0.20272663
v -0.20249346 -3.422651E-06 -0.12727337
v -0.20219676 -3.2834432E-06 -0.2027268
v -0.19332679 -3.2553498E-06 -0.026440032
v -0.1658268 -2.672578E-06 0.056059964
v -0.11999346 -1.6743351E-06 0.12022664
v -0.055826835 -2.606229E-07 0.16605997
v 0.026673174 1.5685587E-06 0.19355996
v 0.1275065 3.813213E-06 0.20272663
v 0.20220436 5.474818E-06 0.202286
v -0.20219676 -3.2834432E-06 -0.2027268
v -0.20249346 -3.422651E-06 -0.12727337
v 0.20209602 5.5105806E-06 -0.20272668
v -0.19332679 -3.2553498E-06 -0.026440032
v -0.1658268 -2.672578E-06 0.056059964
v -0.11999346 -1.6743351E-06 0.12022664
v -0.055826835 -2.606229E-07 0.16605997
v 0.026673174 1.5685587E-06 0.19355996
v 0.1275065 3.813213E-06 0.20272663
v 0.20220436 5.474818E-06 0.202286
vt 0.98876953 0.20227051
vt 0.97509766 0.29125977
vt 0.98876953 0.29125977
vt 0.97509766 0.29125977
vt 0.98876953 0.20227051
vt 0.98876953 0.29125977
vt 0.2076416 0.009941101
vt 0.41015625 0.048858643
vt 0.4099121 0.009941101
vt 0.40551758 0.10089111
vt 0.39160156 0.14343262
vt 0.36889648 0.17651367
vt 0.33666992 0.20019531
vt 0.29541016 0.21435547
vt 0.24499512 0.21911621
vt 0.2076416 0.21887207
vt 0.4099121 0.009941101
vt 0.41015625 0.048858643
vt 0.2076416 0.009941101
vt 0.40551758 0.10089111
vt 0.39160156 0.14343262
vt 0.36889648 0.17651367
vt 0.33666992 0.20019531
vt 0.29541016 0.21435547
vt 0.24499512 0.21911621
vt 0.2076416 0.21887207
vn 1 -0.0011768341 -0.00026750565
vn 1 -0.0011768341 -0.00026750565
vn 1 -0.0011768341 -0.00026750565
vn 2.9802322E-07 6.556511E-07 -1
vn 2.9802322E-07 6.556511E-07 -1
vn 2.9802322E-07 6.556511E-07 -1
vn -0.119384766 0.98583984 0.11895752
vn -0.20874023 0.97802734 0.009887695
vn -0.21069336 0.97753906 -0.0008263588
vn -0.19628906 0.9794922 0.043884277
vn -0.1697998 0.9814453 0.08898926
vn -0.13269043 0.9824219 0.13269043
vn -0.08886719 0.9814453 0.16967773
vn -0.043823242 0.9794922 0.19592285
vn -0.00969696 0.97802734 0.20837402
vn 0.0012187958 0.97753906 0.21032715
vn 2.1755695E-05 -1 -1.7881393E-06
vn 2.1874905E-05 -1 -1.013279E-06
vn 2.2113323E-05 -1 -3.5762787E-07
vn 2.2053719E-05 -1 -2.9802322E-07
vn 2.2053719E-05 -1 -2.3841858E-07
vn 2.2113323E-05 -1 -1.7881393E-07
vn 2.2172928E-05 -1 -1.1920929E-07
vn 2.2232533E-05 -1 -1.1920929E-07
vn 2.2232533E-05 -1 0
vn 2.2232533E-05 -1 0
g MainCity_Prop_Ramp_02_0
f 3/3/3 2/2/2 1/1/1
f 6/6/6 5/5/5 4/4/4
f 9/9/9 8/8/8 7/7/7
f 8/8/8 10/10/10 7/7/7
f 10/10/10 11/11/11 7/7/7
f 11/11/11 12/12/12 7/7/7
f 12/12/12 13/13/13 7/7/7
f 13/13/13 14/14/14 7/7/7
f 14/14/14 15/15/15 7/7/7
f 15/15/15 16/16/16 7/7/7
f 19/19/19 18/18/18 17/17/17
f 20/20/20 18/18/18 19/19/19
f 21/21/21 20/20/20 19/19/19
f 22/22/22 21/21/21 19/19/19
f 23/23/23 22/22/22 19/19/19
f 24/24/24 23/23/23 19/19/19
f 25/25/25 24/24/24 19/19/19
f 26/26/26 25/25/25 19/19/19
