g MainCity_Prop_ManholeCover_06
v -0.2884275 4.7683715E-09 -0.077283606
v -0.29860204 0.07269465 -8.8214875E-08
v -0.29860213 0 -1.1205673E-07
v -0.2884275 0.07269465 -0.07728358
v -0.2585971 8.881784E-18 -0.14930037
v -0.2585971 0.07269465 -0.14930034
v -0.21114394 2.3841857E-09 -0.21114254
v -0.21114394 0.07269465 -0.2111425
v -0.14930168 1.7763568E-17 -0.2585957
v -0.14930168 0.07269465 -0.25859568
v -0.077284925 2.3841857E-09 -0.28842604
v -0.077284925 0.07269465 -0.28842598
v -1.4495849E-06 2.3841857E-09 -0.29860055
v -1.4495849E-06 0.07269465 -0.29860055
v 0.07728203 2.3841857E-09 -0.28842598
v 0.07728203 0.07269465 -0.28842598
v 0.14929886 1.7763568E-17 -0.2585957
v 0.14929886 0.07269465 -0.25859568
v 0.21114098 2.3841857E-09 -0.21114247
v 0.21114098 0.07269465 -0.21114247
v 0.25859421 8.881784E-18 -0.14930028
v 0.25859421 0.07269465 -0.14930026
v 0.28842452 4.7683715E-09 -0.07728352
v 0.28842452 0.07269465 -0.07728349
v 0.29859915 0 -1.847744E-08
v 0.29859915 0.07269465 2.8014183E-08
v 0.28842446 -4.440892E-18 0.07728371
v 0.28842446 0.07269465 0.077283755
v 0.25859413 2.3841857E-09 0.14930047
v 0.25859413 0.07269465 0.1493005
v 0.2111409 2.3841857E-09 0.21114261
v 0.2111409 0.07269465 0.21114264
v 0.14929862 2.3841857E-09 0.2585957
v 0.14929862 0.07269465 0.2585958
v 0.07728188 -1.7763568E-17 0.28842604
v 0.07728188 0.07269465 0.2884261
v -1.6021728E-06 2.3841857E-09 0.29860052
v -1.6021728E-06 0.07269465 0.2986006
v -0.07728523 -1.7763568E-17 0.28842595
v -0.077285156 0.07269465 0.288426
v -0.14930198 2.3841857E-09 0.25859553
v -0.1493019 0.07269465 0.25859565
v -0.21114418 2.3841857E-09 0.21114242
v -0.2111441 0.07269465 0.21114242
v -0.25859734 2.3841857E-09 0.14930019
v -0.25859725 0.07269465 0.14930019
v -0.28842756 -4.440892E-18 0.077283435
v -0.2884275 0.07269465 0.07728342
v -0.29860213 0 -1.1205673E-07
v -0.29860204 0.07269465 -8.8214875E-08
v 0.07728188 0.07269465 0.2884261
v 0.2111409 0.07269465 0.21114264
v 0.14929862 0.07269465 0.2585958
v -1.6021728E-06 0.07269465 0.2986006
v -0.077285156 0.07269465 0.288426
v -0.1493019 0.07269465 0.25859565
v -0.2111441 0.07269465 0.21114242
v -0.25859725 0.07269465 0.14930019
v -0.2884275 0.07269465 0.07728342
v -0.29860204 0.07269465 -8.8214875E-08
v -0.2884275 0.07269465 -0.07728358
v -0.2585971 0.07269465 -0.14930034
v -0.21114394 0.07269465 -0.2111425
v -0.14930168 0.07269465 -0.25859568
v -0.077284925 0.07269465 -0.28842598
v -1.4495849E-06 0.07269465 -0.29860055
v 0.07728203 0.07269465 -0.28842598
v 0.14929886 0.07269465 -0.25859568
v 0.21114098 0.07269465 -0.21114247
v 0.25859421 0.07269465 -0.14930026
v 0.28842452 0.07269465 -0.07728349
v 0.29859915 0.07269465 2.8014183E-08
v 0.28842446 0.07269465 0.077283755
v 0.25859413 0.07269465 0.1493005
vt 0.64453125 0.14038086
vt 0.671875 0.15783691
vt 0.671875 0.14038086
vt 0.64453125 0.15783691
vt 0.6166992 0.14038086
vt 0.6166992 0.15783691
vt 0.5888672 0.14038086
vt 0.5888672 0.15783691
vt 0.56152344 0.14038086
vt 0.56152344 0.15783691
vt 0.5336914 0.14038086
vt 0.5336914 0.15783691
vt 0.5058594 0.14038086
vt 0.5058594 0.15783691
vt 0.47827148 0.14038086
vt 0.47827148 0.15783691
vt 0.4506836 0.14038086
vt 0.4506836 0.15783691
vt 0.4230957 0.14038086
vt 0.4230957 0.15783691
vt 0.39526367 0.14038086
vt 0.39526367 0.15783691
vt 0.36767578 0.14038086
vt 0.36767578 0.15783691
vt 0.33984375 0.14038086
vt 0.33984375 0.15783691
vt 0.31225586 0.14038086
vt 0.31225586 0.15783691
vt 0.28466797 0.14038086
vt 0.28466797 0.15783691
vt 0.25683594 0.14038086
vt 0.25683594 0.15783691
vt 0.22924805 0.14038086
vt 0.22924805 0.15783691
vt 0.20153809 0.14038086
vt 0.20153809 0.15783691
vt 0.17382812 0.14038086
vt 0.17382812 0.15783691
vt 0.14624023 0.14038086
vt 0.14624023 0.15783691
vt 0.11853027 0.14038086
vt 0.11853027 0.15783691
vt 0.09082031 0.14038086
vt 0.09082031 0.15783691
vt 0.06317139 0.14038086
vt 0.06317139 0.15783691
vt 0.03552246 0.14038086
vt 0.03552246 0.15783691
vt 0.007873535 0.14038086
vt 0.007873535 0.15783691
vt 0.39331055 0.33862305
vt 0.44067383 0.3659668
vt 0.41870117 0.3491211
vt 0.36572266 0.33496094
vt 0.3383789 0.33862305
vt 0.31274414 0.3491211
vt 0.29077148 0.3659668
vt 0.27416992 0.38793945
vt 0.26342773 0.41333008
vt 0.25976562 0.44091797
vt 0.26342773 0.46826172
vt 0.27416992 0.49389648
vt 0.29077148 0.515625
vt 0.31274414 0.53271484
vt 0.3383789 0.54296875
vt 0.36572266 0.546875
vt 0.39331055 0.54296875
vt 0.41870117 0.53271484
vt 0.44067383 0.515625
vt 0.45751953 0.49389648
vt 0.46801758 0.46826172
vt 0.4716797 0.44091797
vt 0.46801758 0.41333008
vt 0.45751953 0.38793945
vn -0.9658203 3.5762787E-07 -0.25878906
vn -1 7.748604E-07 -2.3841858E-07
vn -1 7.748604E-07 -2.9802322E-07
vn -0.9658203 3.5762787E-07 -0.25878906
vn -0.86621094 2.3841858E-07 -0.5
vn -0.86621094 2.3841858E-07 -0.5
vn -0.70703125 2.9802322E-07 -0.70703125
vn -0.70703125 2.9802322E-07 -0.70703125
vn -0.5 3.5762787E-07 -0.86621094
vn -0.5 3.5762787E-07 -0.86621094
vn -0.25878906 2.9802322E-07 -0.9658203
vn -0.25878906 2.9802322E-07 -0.9658203
vn 2.3841858E-07 1.1920929E-07 -1
vn 2.3841858E-07 1.1920929E-07 -1
vn 0.25878906 0 -0.9658203
vn 0.25878906 0 -0.9658203
vn 0.5 1.1920929E-07 -0.86621094
vn 0.5 1.1920929E-07 -0.86621094
vn 0.70703125 0 -0.70703125
vn 0.70703125 0 -0.70703125
vn 0.86621094 0 -0.5
vn 0.86621094 0 -0.5
vn 0.9658203 0 -0.25878906
vn 0.9658203 0 -0.25878906
vn 1 0 2.3841858E-07
vn 1 0 3.5762787E-07
vn 0.9658203 -1.1920929E-07 0.25878906
vn 0.9658203 -1.1920929E-07 0.25878906
vn 0.86621094 -2.3841858E-07 0.5
vn 0.86621094 -2.3841858E-07 0.5
vn 0.70703125 -5.364418E-07 0.70703125
vn 0.70703125 -5.364418E-07 0.70703125
vn 0.5 -7.748604E-07 0.86621094
vn 0.5 -7.748604E-07 0.86621094
vn 0.25878906 -8.34465E-07 0.9658203
vn 0.25878906 -8.34465E-07 0.9658203
vn -4.172325E-07 -8.34465E-07 1
vn -4.172325E-07 -8.34465E-07 1
vn -0.25878906 -7.748604E-07 0.9658203
vn -0.25878906 -7.748604E-07 0.9658203
vn -0.5 -3.5762787E-07 0.86621094
vn -0.5 -3.5762787E-07 0.86621094
vn -0.70703125 4.172325E-07 0.70703125
vn -0.70703125 4.172325E-07 0.70703125
vn -0.86621094 9.536743E-07 0.5
vn -0.86621094 9.536743E-07 0.5
vn -0.9658203 1.013279E-06 0.25878906
vn -0.9658203 1.013279E-06 0.25878906
vn -1 7.748604E-07 -2.9802322E-07
vn -1 7.748604E-07 -2.3841858E-07
vn -0 1 0
vn -0 1 0
vn -0 1 0
vn -0 1 0
vn -0 1 0
vn -0 1 0
vn -0 1 0
vn -0 1 0
vn -0 1 0
vn -0 1 0
vn -0 1 0
vn -0 1 0
vn -0 1 0
vn -0 1 0
vn -0 1 0
vn -0 1 0
vn -0 1 0
vn -0 1 0
vn -0 1 0
vn -0 1 0
vn -0 1 0
vn -0 1 0
vn -0 1 0
vn -0 1 0
g MainCity_Prop_ManholeCover_06_0
f 3/3/3 2/2/2 1/1/1
f 2/2/2 4/4/4 1/1/1
f 1/1/1 4/4/4 5/5/5
f 4/4/4 6/6/6 5/5/5
f 5/5/5 6/6/6 7/7/7
f 6/6/6 8/8/8 7/7/7
f 7/7/7 8/8/8 9/9/9
f 8/8/8 10/10/10 9/9/9
f 9/9/9 10/10/10 11/11/11
f 10/10/10 12/12/12 11/11/11
f 11/11/11 12/12/12 13/13/13
f 12/12/12 14/14/14 13/13/13
f 13/13/13 14/14/14 15/15/15
f 14/14/14 16/16/16 15/15/15
f 15/15/15 16/16/16 17/17/17
f 16/16/16 18/18/18 17/17/17
f 17/17/17 18/18/18 19/19/19
f 18/18/18 20/20/20 19/19/19
f 19/19/19 20/20/20 21/21/21
f 20/20/20 22/22/22 21/21/21
f 21/21/21 22/22/22 23/23/23
f 22/22/22 24/24/24 23/23/23
f 23/23/23 24/24/24 25/25/25
f 24/24/24 26/26/26 25/25/25
f 25/25/25 26/26/26 27/27/27
f 26/26/26 28/28/28 27/27/27
f 27/27/27 28/28/28 29/29/29
f 28/28/28 30/30/30 29/29/29
f 29/29/29 30/30/30 31/31/31
f 30/30/30 32/32/32 31/31/31
f 31/31/31 32/32/32 33/33/33
f 32/32/32 34/34/34 33/33/33
f 33/33/33 34/34/34 35/35/35
f 34/34/34 36/36/36 35/35/35
f 35/35/35 36/36/36 37/37/37
f 36/36/36 38/38/38 37/37/37
f 37/37/37 38/38/38 39/39/39
f 38/38/38 40/40/40 39/39/39
f 39/39/39 40/40/40 41/41/41
f 40/40/40 42/42/42 41/41/41
f 41/41/41 42/42/42 43/43/43
f 42/42/42 44/44/44 43/43/43
f 43/43/43 44/44/44 45/45/45
f 44/44/44 46/46/46 45/45/45
f 45/45/45 46/46/46 47/47/47
f 46/46/46 48/48/48 47/47/47
f 47/47/47 48/48/48 49/49/49
f 48/48/48 50/50/50 49/49/49
f 53/53/53 52/52/52 51/51/51
f 51/51/51 52/52/52 54/54/54
f 54/54/54 52/52/52 55/55/55
f 55/55/55 52/52/52 56/56/56
f 56/56/56 52/52/52 57/57/57
f 57/57/57 52/52/52 58/58/58
f 58/58/58 52/52/52 59/59/59
f 59/59/59 52/52/52 60/60/60
f 60/60/60 52/52/52 61/61/61
f 61/61/61 52/52/52 62/62/62
f 62/62/62 52/52/52 63/63/63
f 63/63/63 52/52/52 64/64/64
f 64/64/64 52/52/52 65/65/65
f 65/65/65 52/52/52 66/66/66
f 66/66/66 52/52/52 67/67/67
f 67/67/67 52/52/52 68/68/68
f 68/68/68 52/52/52 69/69/69
f 69/69/69 52/52/52 70/70/70
f 70/70/70 52/52/52 71/71/71
f 71/71/71 52/52/52 72/72/72
f 72/72/72 52/52/52 73/73/73
f 73/73/73 52/52/52 74/74/74
