g MainCity_Prop_GroceryStall_02
v -0.29114038 0.4028706 0.16133268
v 0.29240656 0.4028706 0.16133268
v 0.29240662 0.43972957 0.16474766
v -0.29114044 0.43972957 0.16474766
v 0.29240662 0.5830063 -0.16326857
v 0.29240662 0.43972957 0.16474766
v 0.29240656 0.4028706 0.16133268
v 0.29240653 0.4028706 -0.1615389
v 0.29240662 0.5830063 -0.16326857
v 0.29240653 0.4028706 -0.1615389
v -0.29114038 0.4028706 -0.1615389
v -0.29114044 0.5830063 -0.16326857
v -0.29114044 0.5830063 -0.16326857
v -0.29114038 0.4028706 -0.1615389
v -0.29114038 0.4028706 0.16133268
v -0.29114044 0.43972957 0.16474766
v -0.29114044 0.5830063 -0.16326857
v -0.29114044 0.43972957 0.16474766
v -0.32131085 0.42699316 0.1924638
v -0.3213108 0.596251 -0.19246376
v -0.29114044 0.5830063 -0.16326857
v -0.3213108 0.596251 -0.19246376
v 0.32186657 0.59624445 -0.19246376
v 0.29240662 0.5830063 -0.16326857
v 0.29240653 0.4028706 -0.1615389
v 0.29240656 0.4028706 0.16133268
v -0.29114038 0.4028706 0.16133268
v -0.29114038 0.4028706 -0.1615389
v -0.3218663 -8.412854E-09 0.19246368
v -0.32131085 0.42699316 0.1924638
v 0.32186657 0.4269866 0.19246382
v 0.32186645 1.4417503E-07 0.19246368
v -0.32129166 1.6100076E-07 -0.19246368
v 0.32186645 1.6100076E-07 -0.19246368
v 0.32186657 0.59624445 -0.19246376
v -0.3213108 0.596251 -0.19246376
v -0.3213108 0.596251 -0.19246376
v -0.32131085 0.42699316 0.1924638
v -0.3218663 -8.412854E-09 0.19246368
v -0.32129166 1.6100076E-07 -0.19246368
v -0.32131085 0.42699316 0.1924638
v -0.29114044 0.43972957 0.16474766
v 0.29240662 0.43972957 0.16474766
v 0.32186657 0.4269866 0.19246382
v 0.29240662 0.43972957 0.16474766
v 0.29240662 0.5830063 -0.16326857
v 0.32186657 0.59624445 -0.19246376
v 0.32186657 0.4269866 0.19246382
v 0.32186657 0.4269866 0.19246382
v 0.32186657 0.59624445 -0.19246376
v 0.32186645 1.6100076E-07 -0.19246368
v 0.32186645 1.4417503E-07 0.19246368
v -0.32129166 1.6100076E-07 -0.19246368
v -0.3218663 -8.412854E-09 0.19246368
v 0.32186645 1.4417503E-07 0.19246368
v 0.32186645 1.6100076E-07 -0.19246368
v 0.29156318 0.720729 0.13663904
v 0.012831726 0.720729 0.13663906
v 0.012851562 0.720729 0.018865628
v 0.29157326 0.720729 0.018865628
v 0.29156318 0.720729 0.13663904
v 0.29156318 0.4028705 0.13663845
v 0.012831726 0.40287054 0.13663845
v 0.012831726 0.720729 0.13663906
v 0.012851562 0.720729 0.018865628
v 0.012851562 0.40287054 0.018865619
v 0.29157326 0.40287054 0.018865619
v 0.29157326 0.720729 0.018865628
v 0.012851562 0.40287054 0.018865619
v 0.012851562 0.720729 0.018865628
v 0.012831726 0.720729 0.13663906
v 0.012831726 0.40287054 0.13663845
v 0.29156318 0.720729 0.13663904
v 0.29157326 0.720729 0.018865628
v 0.29157326 0.40287054 0.018865619
v 0.29156318 0.4028705 0.13663845
v 0.29156318 0.720729 -0.010449848
v 0.012831726 0.720729 -0.010449839
v 0.012851562 0.720729 -0.12822327
v 0.29157326 0.720729 -0.12822327
v 0.29156318 0.720729 -0.010449848
v 0.29156318 0.40287054 -0.010450458
v 0.012831726 0.4028706 -0.010450458
v 0.012831726 0.720729 -0.010449839
v 0.012851562 0.720729 -0.12822327
v 0.012851562 0.4028706 -0.12822329
v 0.29157326 0.4028706 -0.12822329
v 0.29157326 0.720729 -0.12822327
v 0.012851562 0.4028706 -0.12822329
v 0.012851562 0.720729 -0.12822327
v 0.012831726 0.720729 -0.010449839
v 0.012831726 0.4028706 -0.010450458
v 0.29156318 0.720729 -0.010449848
v 0.29157326 0.720729 -0.12822327
v 0.29157326 0.4028706 -0.12822329
v 0.29156318 0.40287054 -0.010450458
v -0.004137344 0.720729 -0.010449848
v -0.2828688 0.720729 -0.010449839
v -0.28284895 0.720729 -0.12822327
v -0.0041272733 0.720729 -0.12822327
v -0.004137344 0.720729 -0.010449848
v -0.004137344 0.40287054 -0.010450458
v -0.2828688 0.4028706 -0.010450458
v -0.2828688 0.720729 -0.010449839
v -0.28284895 0.720729 -0.12822327
v -0.28284895 0.4028706 -0.12822329
v -0.0041272733 0.4028706 -0.12822329
v -0.0041272733 0.720729 -0.12822327
v -0.28284895 0.4028706 -0.12822329
v -0.28284895 0.720729 -0.12822327
v -0.2828688 0.720729 -0.010449839
v -0.2828688 0.4028706 -0.010450458
v -0.004137344 0.720729 -0.010449848
v -0.0041272733 0.720729 -0.12822327
v -0.0041272733 0.4028706 -0.12822329
v -0.004137344 0.40287054 -0.010450458
v -0.004137344 0.720729 0.15001313
v -0.2828688 0.720729 0.15001315
v -0.28284895 0.720729 0.032239717
v -0.0041272733 0.720729 0.032239717
v -0.004137344 0.720729 0.15001313
v -0.004137344 0.40287054 0.15001252
v -0.2828688 0.4028706 0.15001252
v -0.2828688 0.720729 0.15001315
v -0.28284895 0.720729 0.032239717
v -0.28284895 0.4028706 0.0322397
v -0.0041272733 0.4028706 0.0322397
v -0.0041272733 0.720729 0.032239717
v -0.28284895 0.4028706 0.0322397
v -0.28284895 0.720729 0.032239717
v -0.2828688 0.720729 0.15001315
v -0.2828688 0.4028706 0.15001252
v -0.004137344 0.720729 0.15001313
v -0.0041272733 0.720729 0.032239717
v -0.0041272733 0.4028706 0.0322397
v -0.004137344 0.40287054 0.15001252
vt 0.99072266 0.484375
vt 0.7788086 0.484375
vt 0.7788086 0.49780273
vt 0.99072266 0.49780273
vt 0.8730469 0.6977539
vt 0.9794922 0.6513672
vt 0.9794922 0.6411133
vt 0.8730469 0.6411133
vt 0.99072266 0.49609375
vt 0.99072266 0.43579102
vt 0.7788086 0.43579102
vt 0.7788086 0.49609375
vt 0.8730469 0.6977539
vt 0.8730469 0.6411133
vt 0.9794922 0.6411133
vt 0.9794922 0.6513672
vt 0.6767578 0.23461914
vt 0.85009766 0.23461914
vt 0.8652344 0.22094727
vt 0.66064453 0.22094727
vt 0.69628906 0.22094727
vt 0.6850586 0.23461914
vt 0.8339844 0.23461914
vt 0.8339844 0.22094727
vt 0.52001953 0.22680664
vt 0.52001953 0.28466797
vt 0.63964844 0.28466797
vt 0.63964844 0.22680664
vt 0.99072266 0.27905273
vt 0.99072266 0.4362793
vt 0.7788086 0.4362793
vt 0.7788086 0.27905273
vt 0.99072266 0.27856445
vt 0.7788086 0.27856445
vt 0.7788086 0.49780273
vt 0.99072266 0.49780273
vt 0.86328125 0.70214844
vt 0.9892578 0.64697266
vt 0.9892578 0.50634766
vt 0.86328125 0.50634766
vt 0.6850586 0.22094727
vt 0.69628906 0.23461914
vt 0.8339844 0.23461914
vt 0.8339844 0.22094727
vt 0.85009766 0.23461914
vt 0.6767578 0.23461914
vt 0.66064453 0.22094727
vt 0.8652344 0.22094727
vt 0.9892578 0.64697266
vt 0.86328125 0.70214844
vt 0.86328125 0.50634766
vt 0.9892578 0.50634766
vt 0.52001953 0.2265625
vt 0.52001953 0.2849121
vt 0.63964844 0.28515625
vt 0.63964844 0.22668457
vt 0.99072266 0.13513184
vt 0.8959961 0.13513184
vt 0.8959961 0.1763916
vt 0.99072266 0.1763916
vt 0.99072266 0.12445068
vt 0.99072266 0.012435913
vt 0.8959961 0.012435913
vt 0.8959961 0.12445068
vt 0.50878906 0.36450195
vt 0.50878906 0.26171875
vt 0.4243164 0.26171875
vt 0.4243164 0.36450195
vt 0.8959961 0.18811035
vt 0.99072266 0.18811035
vt 0.99072266 0.23791504
vt 0.8959961 0.23791504
vt 0.99072266 0.23791504
vt 0.99072266 0.18811035
vt 0.8959961 0.18811035
vt 0.8959961 0.23791504
vt 0.99072266 0.13513184
vt 0.8959961 0.13513184
vt 0.8959961 0.1763916
vt 0.99072266 0.1763916
vt 0.99072266 0.12445068
vt 0.99072266 0.012435913
vt 0.8959961 0.012435913
vt 0.8959961 0.12445068
vt 0.50878906 0.36450195
vt 0.50878906 0.26171875
vt 0.4243164 0.26171875
vt 0.4243164 0.36450195
vt 0.8959961 0.18811035
vt 0.99072266 0.18811035
vt 0.99072266 0.23791504
vt 0.8959961 0.23791504
vt 0.99072266 0.23791504
vt 0.99072266 0.18811035
vt 0.8959961 0.18811035
vt 0.8959961 0.23791504
vt 0.99072266 0.13513184
vt 0.8959961 0.13513184
vt 0.8959961 0.1763916
vt 0.99072266 0.1763916
vt 0.99072266 0.12445068
vt 0.99072266 0.012435913
vt 0.8959961 0.012435913
vt 0.8959961 0.12445068
vt 0.50878906 0.36450195
vt 0.50878906 0.26171875
vt 0.4243164 0.26171875
vt 0.4243164 0.36450195
vt 0.8959961 0.18811035
vt 0.99072266 0.18811035
vt 0.99072266 0.23791504
vt 0.8959961 0.23791504
vt 0.99072266 0.23791504
vt 0.99072266 0.18811035
vt 0.8959961 0.18811035
vt 0.8959961 0.23791504
vt 0.99072266 0.13513184
vt 0.8959961 0.13513184
vt 0.8959961 0.1763916
vt 0.99072266 0.1763916
vt 0.99072266 0.12445068
vt 0.99072266 0.012435913
vt 0.8959961 0.012435913
vt 0.8959961 0.12445068
vt 0.50878906 0.36450195
vt 0.50878906 0.26171875
vt 0.4243164 0.26171875
vt 0.4243164 0.36450195
vt 0.8959961 0.18811035
vt 0.99072266 0.18811035
vt 0.99072266 0.23791504
vt 0.8959961 0.23791504
vt 0.99072266 0.23791504
vt 0.99072266 0.18811035
vt 0.8959961 0.18811035
vt 0.8959961 0.23791504
vn -0 0.09222412 -0.99560547
vn -0 0.09222412 -0.99560547
vn -0 0.09222412 -0.99560547
vn -0 0.09222412 -0.99560547
vn -1 5.9604645E-07 1.7881393E-07
vn -1 5.9604645E-07 1.7881393E-07
vn -1 5.9604645E-07 1.7881393E-07
vn -1 5.9604645E-07 1.7881393E-07
vn -0 0.009597778 1
vn -0 0.009597778 1
vn -0 0.009597778 1
vn -0 0.009597778 1
vn 1 5.364418E-07 1.1920929E-07
vn 1 5.364418E-07 1.1920929E-07
vn 1 5.364418E-07 1.1920929E-07
vn 1 5.364418E-07 1.1920929E-07
vn -0.001074791 0.9135742 0.40722656
vn -0.0010633469 0.9121094 0.40966797
vn -0.0010538101 0.9121094 0.40966797
vn -0.0010194778 0.91308594 0.4074707
vn -0.001074791 0.9135742 0.40722656
vn -0.0010194778 0.91308594 0.4074707
vn 0.0011291504 0.91308594 0.4074707
vn 0.0012149811 0.9135742 0.40722656
vn -0 1 0
vn -0 1 0
vn -0 1 0
vn -0 1 0
vn -0 -2.9802322E-07 1
vn -0 -2.9802322E-07 1
vn -0 -2.9802322E-07 1
vn -0 -2.9802322E-07 1
vn -0 -1.1920929E-07 -1
vn -0 -1.1920929E-07 -1
vn -0 -1.1920929E-07 -1
vn -0 -1.1920929E-07 -1
vn -1 0.00052404404 -0.0006313324
vn -1 0.00052404404 -0.0006313324
vn -1 0.00052404404 -0.0006313324
vn -1 0.00052404404 -0.0006313324
vn -0.0010538101 0.9121094 0.40966797
vn -0.0010633469 0.9121094 0.40966797
vn 0.0012016296 0.9121094 0.40942383
vn 0.0011672974 0.9121094 0.40966797
vn 0.0012016296 0.9121094 0.40942383
vn 0.0012149811 0.9135742 0.40722656
vn 0.0011291504 0.91308594 0.4074707
vn 0.0011672974 0.9121094 0.40966797
vn 1 -2.3841858E-07 0
vn 1 -2.3841858E-07 0
vn 1 -2.3841858E-07 0
vn 1 -2.3841858E-07 0
vn 1.1920929E-07 -1 -2.3841858E-07
vn 1.1920929E-07 -1 -2.3841858E-07
vn 1.1920929E-07 -1 -2.3841858E-07
vn 1.1920929E-07 -1 -2.3841858E-07
vn -0 1 0
vn -0 1 0
vn -0 1 0
vn -0 1 0
vn -0 -1.9073486E-06 1
vn -0 -1.9073486E-06 1
vn -0 -1.9073486E-06 1
vn -0 -1.9073486E-06 1
vn -0 0 -1
vn -0 0 -1
vn -0 0 -1
vn -0 0 -1
vn -1 0 -0.00016844273
vn -1 0 -0.00016844273
vn -1 0 -0.00016844273
vn -1 0 -0.00016844273
vn 1 0 8.5532665E-05
vn 1 0 8.5532665E-05
vn 1 0 8.5532665E-05
vn 1 0 8.5532665E-05
vn -0 1 0
vn -0 1 0
vn -0 1 0
vn -0 1 0
vn -0 -1.9073486E-06 1
vn -0 -1.9073486E-06 1
vn -0 -1.9073486E-06 1
vn -0 -1.9073486E-06 1
vn -0 0 -1
vn -0 0 -1
vn -0 0 -1
vn -0 0 -1
vn -1 0 -0.00016844273
vn -1 0 -0.00016844273
vn -1 0 -0.00016844273
vn -1 0 -0.00016844273
vn 1 0 8.5532665E-05
vn 1 0 8.5532665E-05
vn 1 0 8.5532665E-05
vn 1 0 8.5532665E-05
vn -0 1 0
vn -0 1 0
vn -0 1 0
vn -0 1 0
vn -0 -1.9073486E-06 1
vn -0 -1.9073486E-06 1
vn -0 -1.9073486E-06 1
vn -0 -1.9073486E-06 1
vn -0 0 -1
vn -0 0 -1
vn -0 0 -1
vn -0 0 -1
vn -1 0 -0.00016844273
vn -1 0 -0.00016844273
vn -1 0 -0.00016844273
vn -1 0 -0.00016844273
vn 1 0 8.5532665E-05
vn 1 0 8.5532665E-05
vn 1 0 8.5532665E-05
vn 1 0 8.5532665E-05
vn -0 1 0
vn -0 1 0
vn -0 1 0
vn -0 1 0
vn -0 -1.9073486E-06 1
vn -0 -1.9073486E-06 1
vn -0 -1.9073486E-06 1
vn -0 -1.9073486E-06 1
vn -0 0 -1
vn -0 0 -1
vn -0 0 -1
vn -0 0 -1
vn -1 0 -0.00016844273
vn -1 0 -0.00016844273
vn -1 0 -0.00016844273
vn -1 0 -0.00016844273
vn 1 0 8.5532665E-05
vn 1 0 8.5532665E-05
vn 1 0 8.5532665E-05
vn 1 0 8.5532665E-05
g MainCity_Prop_GroceryStall_02_0
f 3/3/3 2/2/2 1/1/1
f 4/4/4 3/3/3 1/1/1
f 7/7/7 6/6/6 5/5/5
f 8/8/8 7/7/7 5/5/5
f 11/11/11 10/10/10 9/9/9
f 12/12/12 11/11/11 9/9/9
f 15/15/15 14/14/14 13/13/13
f 16/16/16 15/15/15 13/13/13
f 19/19/19 18/18/18 17/17/17
f 20/20/20 19/19/19 17/17/17
f 23/23/23 22/22/22 21/21/21
f 24/24/24 23/23/23 21/21/21
f 27/27/27 26/26/26 25/25/25
f 28/28/28 27/27/27 25/25/25
f 31/31/31 30/30/30 29/29/29
f 32/32/32 31/31/31 29/29/29
f 35/35/35 34/34/34 33/33/33
f 36/36/36 35/35/35 33/33/33
f 39/39/39 38/38/38 37/37/37
f 40/40/40 39/39/39 37/37/37
f 43/43/43 42/42/42 41/41/41
f 44/44/44 43/43/43 41/41/41
f 47/47/47 46/46/46 45/45/45
f 48/48/48 47/47/47 45/45/45
f 51/51/51 50/50/50 49/49/49
f 52/52/52 51/51/51 49/49/49
f 55/55/55 54/54/54 53/53/53
f 56/56/56 55/55/55 53/53/53
f 59/59/59 58/58/58 57/57/57
f 60/60/60 59/59/59 57/57/57
f 63/63/63 62/62/62 61/61/61
f 64/64/64 63/63/63 61/61/61
f 67/67/67 66/66/66 65/65/65
f 68/68/68 67/67/67 65/65/65
f 71/71/71 70/70/70 69/69/69
f 72/72/72 71/71/71 69/69/69
f 75/75/75 74/74/74 73/73/73
f 76/76/76 75/75/75 73/73/73
f 79/79/79 78/78/78 77/77/77
f 80/80/80 79/79/79 77/77/77
f 83/83/83 82/82/82 81/81/81
f 84/84/84 83/83/83 81/81/81
f 87/87/87 86/86/86 85/85/85
f 88/88/88 87/87/87 85/85/85
f 91/91/91 90/90/90 89/89/89
f 92/92/92 91/91/91 89/89/89
f 95/95/95 94/94/94 93/93/93
f 96/96/96 95/95/95 93/93/93
f 99/99/99 98/98/98 97/97/97
f 100/100/100 99/99/99 97/97/97
f 103/103/103 102/102/102 101/101/101
f 104/104/104 103/103/103 101/101/101
f 107/107/107 106/106/106 105/105/105
f 108/108/108 107/107/107 105/105/105
f 111/111/111 110/110/110 109/109/109
f 112/112/112 111/111/111 109/109/109
f 115/115/115 114/114/114 113/113/113
f 116/116/116 115/115/115 113/113/113
f 119/119/119 118/118/118 117/117/117
f 120/120/120 119/119/119 117/117/117
f 123/123/123 122/122/122 121/121/121
f 124/124/124 123/123/123 121/121/121
f 127/127/127 126/126/126 125/125/125
f 128/128/128 127/127/127 125/125/125
f 131/131/131 130/130/130 129/129/129
f 132/132/132 131/131/131 129/129/129
f 135/135/135 134/134/134 133/133/133
f 136/136/136 135/135/135 133/133/133
