g MainCity_Prop_Drinks_10
v -0.0075406847 0.14165987 -0.037067577
v -0.009053703 0.13041174 -0.044691265
v 0.008677875 0.13041174 -0.044691265
v 0.0071650287 0.14165992 -0.037067596
v 0.02511144 0.13041174 -0.03788425
v 0.020790895 0.14166006 -0.031423237
v 0.037650406 0.13041173 -0.025345555
v 0.031189246 0.14165987 -0.02102584
v 0.044457395 0.13041173 -0.00891196
v 0.03683405 0.1416598 -0.0073979907
v 0.044457395 0.13041173 0.008820069
v 0.03683405 0.1416598 0.0073061124
v 0.037650406 0.13041173 0.025253763
v 0.031189283 0.14165987 0.02093381
v 0.02511144 0.13041173 0.03779228
v 0.020790877 0.14166005 0.031331465
v 0.008677875 0.13041173 0.044599283
v 0.0071650096 0.14165986 0.036975823
v -0.009053703 0.13041173 0.044599283
v -0.0075406847 0.14165986 0.036975805
v -0.021166544 0.14166 0.031331446
v -0.02548727 0.13041173 0.03779228
v -0.03802624 0.13041173 0.025253763
v -0.031564932 0.14165983 0.020933801
v -0.04483324 0.13041173 0.008820069
v -0.03720967 0.14165975 0.007306103
v -0.04483324 0.13041173 -0.00891196
v -0.03720967 0.14165975 -0.0073979907
v -0.03802624 0.13041173 -0.025345555
v -0.031564884 0.14165975 -0.021025822
v -0.02548727 0.13041174 -0.03788425
v -0.021166563 0.14166003 -0.03142322
v -0.009053703 0.13041174 -0.044691265
v -0.0075406847 0.14165987 -0.037067577
v -0.0089474805 0.0070829415 -0.04415575
v -0.006824648 0.001154924 -0.03346711
v 0.0064488 0.001154924 -0.03346711
v 0.008571652 0.0070829415 -0.04415575
v 0.018750798 0.0011549232 -0.028371437
v 0.024807848 0.00708294 -0.037430387
v 0.02813722 0.0011549217 -0.018985258
v 0.03719623 0.0070829336 -0.025042053
v 0.033232935 0.0011549197 -0.006683061
v 0.043921605 0.0070829308 -0.008805667
v 0.033232935 0.0011549176 0.006591103
v 0.043921605 0.0070829284 0.00871374
v 0.02813722 0.0011549155 0.018893272
v 0.03719623 0.007082925 0.024950283
v 0.018750798 0.001154914 0.028279426
v 0.024807848 0.0070829233 0.037338387
v 0.0064488 0.0011549132 0.033375137
v 0.008571652 0.0070829224 0.044063825
v -0.006824648 0.0011549132 0.033375137
v -0.0089474805 0.0070829224 0.044063825
v -0.019126635 0.001154914 0.028279426
v -0.025183687 0.0070829233 0.037338387
v -0.028513068 0.0011549155 0.018893272
v -0.03757205 0.007082925 0.024950283
v -0.03360878 0.0011549176 0.006591103
v -0.044297446 0.0070829284 0.00871374
v -0.03360878 0.0011549197 -0.006683061
v -0.044297446 0.0070829308 -0.008805667
v -0.028513068 0.0011549217 -0.018985258
v -0.03757205 0.0070829336 -0.025042053
v -0.019126635 0.0011549232 -0.028371437
v -0.025183687 0.00708294 -0.037430387
v -0.0089474805 0.0070829415 -0.04415575
v -0.006824648 0.001154924 -0.03346711
v -0.025183687 0.00708294 -0.037430387
v -0.0089474805 0.0070829415 -0.04415575
v -0.009053703 0.13041174 -0.044691265
v -0.02548727 0.13041174 -0.03788425
v -0.03802624 0.13041173 -0.025345555
v -0.03757205 0.0070829336 -0.025042053
v -0.044297446 0.0070829308 -0.008805667
v -0.04483324 0.13041173 -0.00891196
v -0.04483324 0.13041173 0.008820069
v -0.044297446 0.0070829284 0.00871374
v -0.03757205 0.007082925 0.024950283
v -0.03802624 0.13041173 0.025253763
v -0.02548727 0.13041173 0.03779228
v -0.025183687 0.0070829233 0.037338387
v -0.0089474805 0.0070829224 0.044063825
v -0.009053703 0.13041173 0.044599283
v 0.008571652 0.0070829224 0.044063825
v 0.008677875 0.13041173 0.044599283
v 0.024807848 0.0070829233 0.037338387
v 0.02511144 0.13041173 0.03779228
v 0.03719623 0.007082925 0.024950283
v 0.037650406 0.13041173 0.025253763
v 0.043921605 0.0070829284 0.00871374
v 0.044457395 0.13041173 0.008820069
v 0.043921605 0.0070829308 -0.008805667
v 0.044457395 0.13041173 -0.00891196
v 0.03719623 0.0070829336 -0.025042053
v 0.037650406 0.13041173 -0.025345555
v 0.024807848 0.00708294 -0.037430387
v 0.02511144 0.13041174 -0.03788425
v 0.008571652 0.0070829415 -0.04415575
v 0.008677875 0.13041174 -0.044691265
v -0.0089474805 0.0070829415 -0.04415575
v -0.009053703 0.13041174 -0.044691265
v -0.03720967 0.14165975 -0.0073979907
v -0.031564884 0.14165975 -0.021025822
v -0.021166563 0.14166003 -0.03142322
v -0.03720967 0.14165975 0.007306103
v -0.0075406847 0.14165987 -0.037067577
v 0.0071650287 0.14165992 -0.037067596
v -0.031564932 0.14165983 0.020933801
v -0.021166544 0.14166 0.031331446
v 0.020790895 0.14166006 -0.031423237
v -0.0075406847 0.14165986 0.036975805
v 0.031189246 0.14165987 -0.02102584
v 0.0071650096 0.14165986 0.036975823
v 0.03683405 0.1416598 -0.0073979907
v 0.020790877 0.14166005 0.031331465
v 0.03683405 0.1416598 0.0073061124
v 0.031189283 0.14165987 0.02093381
v -0.006824648 0.0011549132 0.033375137
v 0.0064488 0.0011549132 0.033375137
v -0.019126635 0.001154914 0.028279426
v -0.028513068 0.0011549155 0.018893272
v 0.018750798 0.001154914 0.028279426
v -0.03360878 0.0011549176 0.006591103
v 0.02813722 0.0011549155 0.018893272
v -0.03360878 0.0011549197 -0.006683061
v 0.033232935 0.0011549176 0.006591103
v -0.028513068 0.0011549217 -0.018985258
v 0.033232935 0.0011549197 -0.006683061
v -0.019126635 0.0011549232 -0.028371437
v 0.02813722 0.0011549217 -0.018985258
v -0.006824648 0.001154924 -0.03346711
v 0.018750798 0.0011549232 -0.028371437
v 0.0064488 0.001154924 -0.03346711
vt 0.2368164 0.32202148
vt 0.2368164 0.33251953
vt 0.25073242 0.33251953
vt 0.25073242 0.32202148
vt 0.26464844 0.33251953
vt 0.26464844 0.32202148
vt 0.27856445 0.33251953
vt 0.27856445 0.32202148
vt 0.29248047 0.33251953
vt 0.29248047 0.32202148
vt 0.30664062 0.33251953
vt 0.30664062 0.32202148
vt 0.32055664 0.33251953
vt 0.32055664 0.32202148
vt 0.33447266 0.33251953
vt 0.33447266 0.32202148
vt 0.34838867 0.33251953
vt 0.34838867 0.32202148
vt 0.3623047 0.33251953
vt 0.3623047 0.32202148
vt 0.37646484 0.32202148
vt 0.37646484 0.33251953
vt 0.39038086 0.33251953
vt 0.39038086 0.32202148
vt 0.40429688 0.33251953
vt 0.40429688 0.32202148
vt 0.4182129 0.33251953
vt 0.4182129 0.32202148
vt 0.4321289 0.33251953
vt 0.4321289 0.32202148
vt 0.44604492 0.33251953
vt 0.44604492 0.32202148
vt 0.45996094 0.33251953
vt 0.45996094 0.32202148
vt 0.22607422 0.33251953
vt 0.22607422 0.32202148
vt 0.21325684 0.32202148
vt 0.21325684 0.33251953
vt 0.19995117 0.32202148
vt 0.19995117 0.33251953
vt 0.18652344 0.32202148
vt 0.18652344 0.33251953
vt 0.17297363 0.32202148
vt 0.17297363 0.33251953
vt 0.15942383 0.32202148
vt 0.15942383 0.33251953
vt 0.14587402 0.32202148
vt 0.14587402 0.33251953
vt 0.13232422 0.32202148
vt 0.13232422 0.33251953
vt 0.11883545 0.32202148
vt 0.11883545 0.33251953
vt 0.105285645 0.32202148
vt 0.105285645 0.33251953
vt 0.09173584 0.32202148
vt 0.09173584 0.33251953
vt 0.07824707 0.32202148
vt 0.07824707 0.33251953
vt 0.064697266 0.32202148
vt 0.064697266 0.33251953
vt 0.05117798 0.32202148
vt 0.05117798 0.33251953
vt 0.037628174 0.32202148
vt 0.037628174 0.33251953
vt 0.02418518 0.32202148
vt 0.02418518 0.33251953
vt 0.011558533 0.33251953
vt 0.011558533 0.32202148
vt 0.9189453 0.72216797
vt 0.9345703 0.72216797
vt 0.9345703 0.61621094
vt 0.9189453 0.61621094
vt 0.9038086 0.61621094
vt 0.9038086 0.72216797
vt 0.8886719 0.72216797
vt 0.8886719 0.61621094
vt 0.87353516 0.61621094
vt 0.87353516 0.72216797
vt 0.85839844 0.72216797
vt 0.85839844 0.61621094
vt 0.8432617 0.61621094
vt 0.8432617 0.72216797
vt 0.828125 0.72216797
vt 0.828125 0.61621094
vt 0.8129883 0.72216797
vt 0.8129883 0.61621094
vt 0.79785156 0.72216797
vt 0.79785156 0.61621094
vt 0.78271484 0.72216797
vt 0.78271484 0.61621094
vt 0.7675781 0.72216797
vt 0.7675781 0.61621094
vt 0.7524414 0.72216797
vt 0.7524414 0.61621094
vt 0.7373047 0.72216797
vt 0.7373047 0.61621094
vt 0.7216797 0.72216797
vt 0.7216797 0.61621094
vt 0.70654297 0.72216797
vt 0.70654297 0.61621094
vt 0.69140625 0.72216797
vt 0.69140625 0.61621094
vt 0.7128906 0.91796875
vt 0.70166016 0.9135742
vt 0.6899414 0.9135742
vt 0.7211914 0.92626953
vt 0.6791992 0.91796875
vt 0.67041016 0.92626953
vt 0.7260742 0.9375
vt 0.7260742 0.94921875
vt 0.6660156 0.9375
vt 0.7211914 0.9604492
vt 0.6660156 0.94921875
vt 0.7128906 0.96875
vt 0.67041016 0.9604492
vt 0.70166016 0.97314453
vt 0.6791992 0.96875
vt 0.6899414 0.97314453
vt 0.36743164 0.9355469
vt 0.37182617 0.94628906
vt 0.36743164 0.9238281
vt 0.37182617 0.91308594
vt 0.3798828 0.95458984
vt 0.3798828 0.90527344
vt 0.390625 0.9589844
vt 0.390625 0.9008789
vt 0.4020996 0.9589844
vt 0.4020996 0.9008789
vt 0.4128418 0.95458984
vt 0.4128418 0.90527344
vt 0.42114258 0.94628906
vt 0.42114258 0.91308594
vt 0.4255371 0.9355469
vt 0.4255371 0.9238281
vn -0.16052246 0.5683594 -0.8066406
vn -0.16052246 0.5683594 -0.8071289
vn 0.16052246 0.5683594 -0.8071289
vn 0.16052246 0.5683594 -0.8066406
vn 0.45703125 0.5683594 -0.68408203
vn 0.45703125 0.5683594 -0.68408203
vn 0.68408203 0.5683594 -0.45703125
vn 0.68408203 0.5683594 -0.45703125
vn 0.8071289 0.5683594 -0.16052246
vn 0.8071289 0.5683594 -0.16052246
vn 0.8071289 0.5683594 0.16052246
vn 0.8071289 0.5683594 0.16052246
vn 0.68408203 0.5683594 0.45703125
vn 0.68408203 0.5683594 0.45703125
vn 0.45703125 0.5683594 0.68408203
vn 0.45703125 0.5683594 0.68408203
vn 0.16052246 0.5683594 0.8071289
vn 0.16052246 0.5683594 0.8071289
vn -0.16052246 0.5683594 0.8071289
vn -0.16052246 0.5683594 0.8071289
vn -0.45703125 0.5683594 0.68408203
vn -0.45703125 0.5683594 0.68408203
vn -0.68408203 0.5683594 0.45703125
vn -0.68408203 0.5683594 0.45703125
vn -0.8071289 0.5683594 0.16052246
vn -0.8066406 0.5683594 0.16052246
vn -0.8071289 0.5683594 -0.16052246
vn -0.8066406 0.5683594 -0.16052246
vn -0.68408203 0.5683594 -0.45703125
vn -0.68408203 0.5683594 -0.45703125
vn -0.45703125 0.5683594 -0.68408203
vn -0.45703125 0.5683594 -0.68408203
vn -0.16052246 0.5683594 -0.8071289
vn -0.16052246 0.5683594 -0.8066406
vn -0.09320068 -0.87841797 -0.46875
vn -0.09326172 -0.87841797 -0.46875
vn 0.09326172 -0.87841797 -0.46875
vn 0.09320068 -0.87841797 -0.46875
vn 0.26538086 -0.87841797 -0.3972168
vn 0.26538086 -0.87841797 -0.3972168
vn 0.3972168 -0.87841797 -0.26538086
vn 0.3972168 -0.87841797 -0.26538086
vn 0.46875 -0.87841797 -0.09326172
vn 0.46875 -0.87841797 -0.09320068
vn 0.46875 -0.87841797 0.09326172
vn 0.46875 -0.87841797 0.09320068
vn 0.3972168 -0.87841797 0.26538086
vn 0.3972168 -0.87841797 0.26538086
vn 0.26538086 -0.87841797 0.3972168
vn 0.26538086 -0.87841797 0.3972168
vn 0.09326172 -0.87841797 0.46875
vn 0.09320068 -0.87841797 0.46875
vn -0.09326172 -0.87841797 0.46875
vn -0.09320068 -0.87841797 0.46875
vn -0.26538086 -0.87841797 0.3972168
vn -0.26538086 -0.87841797 0.3972168
vn -0.3972168 -0.87841797 0.26538086
vn -0.3972168 -0.87841797 0.26538086
vn -0.46875 -0.87841797 0.09326172
vn -0.46875 -0.87841797 0.09320068
vn -0.46875 -0.87841797 -0.09326172
vn -0.46875 -0.87841797 -0.09320068
vn -0.3972168 -0.87841797 -0.26538086
vn -0.3972168 -0.87841797 -0.26538086
vn -0.26538086 -0.87841797 -0.3972168
vn -0.26538086 -0.87841797 -0.3972168
vn -0.09320068 -0.87841797 -0.46875
vn -0.09326172 -0.87841797 -0.46875
vn -0.55566406 -0.0044288635 -0.83154297
vn -0.19506836 -0.004425049 -0.98095703
vn -0.19506836 -0.004425049 -0.98095703
vn -0.55566406 -0.0044288635 -0.83154297
vn -0.83154297 -0.0044288635 -0.55566406
vn -0.83154297 -0.0044288635 -0.55566406
vn -0.98095703 -0.0044288635 -0.19506836
vn -0.98095703 -0.0044288635 -0.19506836
vn -0.98095703 -0.0044288635 0.19506836
vn -0.98095703 -0.0044288635 0.19506836
vn -0.83154297 -0.0044288635 0.55566406
vn -0.83154297 -0.0044288635 0.55566406
vn -0.55566406 -0.0044288635 0.83154297
vn -0.55566406 -0.0044288635 0.83154297
vn -0.19506836 -0.004425049 0.98095703
vn -0.19506836 -0.004425049 0.98095703
vn 0.19506836 -0.004425049 0.98095703
vn 0.19506836 -0.004425049 0.98095703
vn 0.55566406 -0.0044288635 0.83154297
vn 0.55566406 -0.0044288635 0.83154297
vn 0.83154297 -0.0044288635 0.55566406
vn 0.83154297 -0.0044288635 0.55566406
vn 0.98095703 -0.0044288635 0.19506836
vn 0.98095703 -0.0044288635 0.19506836
vn 0.98095703 -0.0044288635 -0.19506836
vn 0.98095703 -0.0044288635 -0.19506836
vn 0.83154297 -0.0044288635 -0.55566406
vn 0.83154297 -0.0044288635 -0.55566406
vn 0.55566406 -0.0044288635 -0.83154297
vn 0.55566406 -0.0044288635 -0.83154297
vn 0.19506836 -0.004425049 -0.98095703
vn 0.19506836 -0.004425049 -0.98095703
vn -0.19506836 -0.004425049 -0.98095703
vn -0.19506836 -0.004425049 -0.98095703
vn 1.4305115E-06 1 7.212162E-06
vn -4.541874E-05 1 -1.8835068E-05
vn 1.4305115E-06 1 7.212162E-06
vn -2.7418137E-06 1 1.0728836E-06
vn -2.7418137E-06 1 1.0728836E-06
vn -8.225441E-06 1 -3.993511E-06
vn -8.225441E-06 1 -3.993511E-06
vn -1.1920929E-07 1 7.748604E-07
vn -1.1920929E-07 1 7.748604E-07
vn 7.390976E-06 1 5.066395E-06
vn 7.390976E-06 1 5.066395E-06
vn 6.556511E-07 1 -1.013279E-06
vn 6.556511E-07 1 -1.013279E-06
vn -5.543232E-06 1 -8.881092E-06
vn -5.543232E-06 1 -8.881092E-06
vn 2.0205975E-05 1 2.7418137E-06
vn -0 -1 -1.7881393E-07
vn -0 -1 -1.7881393E-07
vn -0 -1 -1.7881393E-07
vn -0 -1 -1.7881393E-07
vn -0 -1 -1.7881393E-07
vn -0 -1 -1.7881393E-07
vn -0 -1 -1.7881393E-07
vn -0 -1 -1.7881393E-07
vn -0 -1 -1.7881393E-07
vn -0 -1 -1.7881393E-07
vn -0 -1 -1.7881393E-07
vn -0 -1 -1.7881393E-07
vn -0 -1 -1.7881393E-07
vn -0 -1 -1.7881393E-07
vn -0 -1 -1.7881393E-07
vn -0 -1 -1.7881393E-07
g MainCity_Prop_Drinks_10_0
f 3/3/3 2/2/2 1/1/1
f 4/4/4 3/3/3 1/1/1
f 5/5/5 3/3/3 4/4/4
f 6/6/6 5/5/5 4/4/4
f 7/7/7 5/5/5 6/6/6
f 8/8/8 7/7/7 6/6/6
f 9/9/9 7/7/7 8/8/8
f 10/10/10 9/9/9 8/8/8
f 11/11/11 9/9/9 10/10/10
f 12/12/12 11/11/11 10/10/10
f 13/13/13 11/11/11 12/12/12
f 14/14/14 13/13/13 12/12/12
f 15/15/15 13/13/13 14/14/14
f 16/16/16 15/15/15 14/14/14
f 17/17/17 15/15/15 16/16/16
f 18/18/18 17/17/17 16/16/16
f 19/19/19 17/17/17 18/18/18
f 20/20/20 19/19/19 18/18/18
f 20/20/20 21/21/21 19/19/19
f 21/21/21 22/22/22 19/19/19
f 23/23/23 22/22/22 21/21/21
f 24/24/24 23/23/23 21/21/21
f 25/25/25 23/23/23 24/24/24
f 26/26/26 25/25/25 24/24/24
f 27/27/27 25/25/25 26/26/26
f 28/28/28 27/27/27 26/26/26
f 29/29/29 27/27/27 28/28/28
f 30/30/30 29/29/29 28/28/28
f 31/31/31 29/29/29 30/30/30
f 32/32/32 31/31/31 30/30/30
f 33/33/33 31/31/31 32/32/32
f 34/34/34 33/33/33 32/32/32
f 37/37/37 36/36/36 35/35/35
f 38/38/38 37/37/37 35/35/35
f 39/39/39 37/37/37 38/38/38
f 40/40/40 39/39/39 38/38/38
f 41/41/41 39/39/39 40/40/40
f 42/42/42 41/41/41 40/40/40
f 43/43/43 41/41/41 42/42/42
f 44/44/44 43/43/43 42/42/42
f 45/45/45 43/43/43 44/44/44
f 46/46/46 45/45/45 44/44/44
f 47/47/47 45/45/45 46/46/46
f 48/48/48 47/47/47 46/46/46
f 49/49/49 47/47/47 48/48/48
f 50/50/50 49/49/49 48/48/48
f 51/51/51 49/49/49 50/50/50
f 52/52/52 51/51/51 50/50/50
f 53/53/53 51/51/51 52/52/52
f 54/54/54 53/53/53 52/52/52
f 55/55/55 53/53/53 54/54/54
f 56/56/56 55/55/55 54/54/54
f 57/57/57 55/55/55 56/56/56
f 58/58/58 57/57/57 56/56/56
f 59/59/59 57/57/57 58/58/58
f 60/60/60 59/59/59 58/58/58
f 61/61/61 59/59/59 60/60/60
f 62/62/62 61/61/61 60/60/60
f 63/63/63 61/61/61 62/62/62
f 64/64/64 63/63/63 62/62/62
f 65/65/65 63/63/63 64/64/64
f 66/66/66 65/65/65 64/64/64
f 66/66/66 67/67/67 65/65/65
f 67/67/67 68/68/68 65/65/65
f 71/71/71 70/70/70 69/69/69
f 72/72/72 71/71/71 69/69/69
f 72/72/72 69/69/69 73/73/73
f 69/69/69 74/74/74 73/73/73
f 73/73/73 74/74/74 75/75/75
f 76/76/76 73/73/73 75/75/75
f 76/76/76 75/75/75 77/77/77
f 75/75/75 78/78/78 77/77/77
f 77/77/77 78/78/78 79/79/79
f 80/80/80 77/77/77 79/79/79
f 80/80/80 79/79/79 81/81/81
f 79/79/79 82/82/82 81/81/81
f 81/81/81 82/82/82 83/83/83
f 84/84/84 81/81/81 83/83/83
f 83/83/83 85/85/85 84/84/84
f 85/85/85 86/86/86 84/84/84
f 85/85/85 87/87/87 86/86/86
f 87/87/87 88/88/88 86/86/86
f 88/88/88 87/87/87 89/89/89
f 90/90/90 88/88/88 89/89/89
f 89/89/89 91/91/91 90/90/90
f 91/91/91 92/92/92 90/90/90
f 92/92/92 91/91/91 93/93/93
f 94/94/94 92/92/92 93/93/93
f 93/93/93 95/95/95 94/94/94
f 95/95/95 96/96/96 94/94/94
f 96/96/96 95/95/95 97/97/97
f 98/98/98 96/96/96 97/97/97
f 97/97/97 99/99/99 98/98/98
f 99/99/99 100/100/100 98/98/98
f 100/100/100 99/99/99 101/101/101
f 102/102/102 100/100/100 101/101/101
f 105/105/105 104/104/104 103/103/103
f 105/105/105 103/103/103 106/106/106
f 107/107/107 105/105/105 106/106/106
f 107/107/107 106/106/106 108/108/108
f 106/106/106 109/109/109 108/108/108
f 108/108/108 109/109/109 110/110/110
f 111/111/111 108/108/108 110/110/110
f 111/111/111 110/110/110 112/112/112
f 113/113/113 111/111/111 112/112/112
f 112/112/112 114/114/114 113/113/113
f 114/114/114 115/115/115 113/113/113
f 114/114/114 116/116/116 115/115/115
f 116/116/116 117/117/117 115/115/115
f 116/116/116 118/118/118 117/117/117
f 121/121/121 120/120/120 119/119/119
f 121/121/121 122/122/122 120/120/120
f 122/122/122 123/123/123 120/120/120
f 122/122/122 124/124/124 123/123/123
f 124/124/124 125/125/125 123/123/123
f 125/125/125 124/124/124 126/126/126
f 127/127/127 125/125/125 126/126/126
f 127/127/127 126/126/126 128/128/128
f 129/129/129 127/127/127 128/128/128
f 128/128/128 130/130/130 129/129/129
f 130/130/130 131/131/131 129/129/129
f 130/130/130 132/132/132 131/131/131
f 132/132/132 133/133/133 131/131/131
f 132/132/132 134/134/134 133/133/133
