g MainCity_Prop_ManholeCover_11
v -0.33948708 -1.3322676E-17 0.22136672
v -0.33948708 0.07269465 0.22136664
v 0.33948174 0.07269465 0.22136664
v 0.33948174 -1.3322676E-17 0.22136664
v 0.35647967 2.3841857E-09 0.20436881
v 0.3564797 0.07269465 -0.20436867
v 0.3564797 1.3322676E-17 -0.20436859
v 0.35647967 0.07269465 0.20436867
v 0.3522302 -1.3322676E-17 0.21711724
v 0.3522302 0.07269465 0.21711715
v 0.33948165 2.3841857E-09 -0.22136664
v -0.33948714 0.07269465 -0.22136664
v -0.33948714 2.3841857E-09 -0.22136664
v 0.33948165 0.07269465 -0.22136664
v 0.35223022 1.3322676E-17 -0.21711715
v 0.35223022 0.07269465 -0.21711715
v 0.33948174 -1.3322676E-17 0.22136664
v 0.33948174 0.07269465 0.22136664
v 0.3522302 0.07269465 0.21711715
v 0.3522302 -1.3322676E-17 0.21711724
v -0.33948708 0.07269465 0.22136664
v -0.33948708 -1.3322676E-17 0.22136672
v -0.35223547 -1.3322676E-17 0.21711724
v -0.35223547 0.07269465 0.21711724
v 0.3564797 1.3322676E-17 -0.20436859
v 0.3564797 0.07269465 -0.20436867
v 0.35223022 0.07269465 -0.21711715
v 0.35223022 1.3322676E-17 -0.21711715
v -0.33948714 2.3841857E-09 -0.22136664
v -0.33948714 0.07269465 -0.22136664
v -0.35223556 0.07269465 -0.21711715
v -0.35223556 1.3322676E-17 -0.21711715
v -0.35223547 0.07269465 0.21711724
v -0.35223547 -1.3322676E-17 0.21711724
v -0.35648504 2.3841857E-09 0.20436881
v -0.35648504 0.07269465 0.20436881
v -0.35648513 1.3322676E-17 -0.20436859
v -0.35648513 0.07269465 -0.20436859
v -0.35223556 1.3322676E-17 -0.21711715
v -0.35223556 0.07269465 -0.21711715
v 0.33948165 0.07269465 -0.22136664
v -0.35223556 0.07269465 -0.21711715
v -0.33948714 0.07269465 -0.22136664
v 0.35223022 0.07269465 -0.21711715
v -0.35648513 0.07269465 -0.20436859
v 0.3564797 0.07269465 -0.20436867
v 0.35647967 0.07269465 0.20436867
v -0.35648504 0.07269465 0.20436881
v -0.35223547 0.07269465 0.21711724
v 0.3522302 0.07269465 0.21711715
v -0.33948708 0.07269465 0.22136664
v 0.33948174 0.07269465 0.22136664
vt 0.3005371 0.22302246
vt 0.3005371 0.23449707
vt 0.5410156 0.23449707
vt 0.5410156 0.22302246
vt 0.26733398 0.5786133
vt 0.41235352 0.58984375
vt 0.41235352 0.5786133
vt 0.26733398 0.58984375
vt 0.2626953 0.5786133
vt 0.2626953 0.58984375
vt 0.36791992 0.1817627
vt 0.60839844 0.19311523
vt 0.60839844 0.1817627
vt 0.36791992 0.19311523
vt 0.3630371 0.1817627
vt 0.3630371 0.19311523
vt 0.2578125 0.5786133
vt 0.2578125 0.58984375
vt 0.2626953 0.58984375
vt 0.2626953 0.5786133
vt 0.9916992 0.8833008
vt 0.9916992 0.87158203
vt 0.9873047 0.87158203
vt 0.9873047 0.8833008
vt 0.35839844 0.1817627
vt 0.35839844 0.19311523
vt 0.3630371 0.19311523
vt 0.3630371 0.1817627
vt 0.828125 0.87158203
vt 0.828125 0.8833008
vt 0.8330078 0.8833008
vt 0.8330078 0.87158203
vt 0.9873047 0.8833008
vt 0.9873047 0.87158203
vt 0.9824219 0.87158203
vt 0.9824219 0.8833008
vt 0.83740234 0.87158203
vt 0.83740234 0.8833008
vt 0.8330078 0.87158203
vt 0.8330078 0.8833008
vt 0.99121094 0.3166504
vt 0.9897461 0.5620117
vt 0.99121094 0.5576172
vt 0.9897461 0.31225586
vt 0.98535156 0.56347656
vt 0.98535156 0.31079102
vt 0.84033203 0.31079102
vt 0.84033203 0.56347656
vt 0.8359375 0.5620117
vt 0.8359375 0.31225586
vt 0.83447266 0.5576172
vt 0.83447266 0.3166504
vn -0.16015625 5.364418E-07 0.9873047
vn -0.16015625 5.364418E-07 0.9873047
vn 0.16015625 5.364418E-07 0.9873047
vn 0.16015625 5.364418E-07 0.9873047
vn 0.9873047 2.3841858E-07 0.16015625
vn 0.9873047 0 -0.16015625
vn 0.9873047 0 -0.16015625
vn 0.9873047 2.3841858E-07 0.16015625
vn 0.70703125 5.364418E-07 0.70703125
vn 0.70703125 5.364418E-07 0.70703125
vn 0.16015625 0 -0.9873047
vn -0.16015625 0 -0.9873047
vn -0.16015625 0 -0.9873047
vn 0.16015625 0 -0.9873047
vn 0.70703125 0 -0.70703125
vn 0.70703125 0 -0.70703125
vn 0.16015625 5.364418E-07 0.9873047
vn 0.16015625 5.364418E-07 0.9873047
vn 0.70703125 5.364418E-07 0.70703125
vn 0.70703125 5.364418E-07 0.70703125
vn -0.16015625 5.364418E-07 0.9873047
vn -0.16015625 5.364418E-07 0.9873047
vn -0.70703125 2.9802322E-07 0.70703125
vn -0.70703125 2.9802322E-07 0.70703125
vn 0.9873047 0 -0.16015625
vn 0.9873047 0 -0.16015625
vn 0.70703125 0 -0.70703125
vn 0.70703125 0 -0.70703125
vn -0.16015625 0 -0.9873047
vn -0.16015625 0 -0.9873047
vn -0.70703125 0 -0.70703125
vn -0.70703125 0 -0.70703125
vn -0.70703125 2.9802322E-07 0.70703125
vn -0.70703125 2.9802322E-07 0.70703125
vn -0.9873047 0 0.16015625
vn -0.9873047 0 0.16015625
vn -0.9873047 0 -0.16015625
vn -0.9873047 0 -0.16015625
vn -0.70703125 0 -0.70703125
vn -0.70703125 0 -0.70703125
vn -0 1 0
vn -0 1 0
vn -0 1 0
vn -0 1 0
vn -0 1 0
vn -0 1 0
vn -0 1 0
vn -0 1 0
vn -0 1 0
vn -0 1 0
vn -0 1 0
vn -0 1 0
g MainCity_Prop_ManholeCover_11_0
f 3/3/3 2/2/2 1/1/1
f 4/4/4 3/3/3 1/1/1
f 7/7/7 6/6/6 5/5/5
f 6/6/6 8/8/8 5/5/5
f 5/5/5 8/8/8 9/9/9
f 8/8/8 10/10/10 9/9/9
f 13/13/13 12/12/12 11/11/11
f 12/12/12 14/14/14 11/11/11
f 11/11/11 14/14/14 15/15/15
f 14/14/14 16/16/16 15/15/15
f 19/19/19 18/18/18 17/17/17
f 20/20/20 19/19/19 17/17/17
f 23/23/23 22/22/22 21/21/21
f 24/24/24 23/23/23 21/21/21
f 27/27/27 26/26/26 25/25/25
f 28/28/28 27/27/27 25/25/25
f 31/31/31 30/30/30 29/29/29
f 32/32/32 31/31/31 29/29/29
f 35/35/35 34/34/34 33/33/33
f 36/36/36 35/35/35 33/33/33
f 35/35/35 36/36/36 37/37/37
f 36/36/36 38/38/38 37/37/37
f 37/37/37 38/38/38 39/39/39
f 38/38/38 40/40/40 39/39/39
f 43/43/43 42/42/42 41/41/41
f 42/42/42 44/44/44 41/41/41
f 42/42/42 45/45/45 44/44/44
f 45/45/45 46/46/46 44/44/44
f 46/46/46 45/45/45 47/47/47
f 45/45/45 48/48/48 47/47/47
f 47/47/47 48/48/48 49/49/49
f 50/50/50 47/47/47 49/49/49
f 50/50/50 49/49/49 51/51/51
f 52/52/52 50/50/50 51/51/51
