g MainCity_Prop_CoffeeTable_01
v -0.27428564 1.5633448E-07 0.27445668
v 0.27428564 2.8712407E-07 0.27445668
v 0.27428564 2.871241E-07 -0.27378404
v -0.27428564 1.5633447E-07 -0.27378404
v -0.27428564 1.5633448E-07 0.27445668
v -0.27459815 0.011618229 0.2760149
v 0.27397317 0.011618359 0.2760149
v 0.27428564 2.8712407E-07 0.27445668
v 0.27428564 2.871241E-07 -0.27378404
v 0.27428564 2.8712407E-07 0.27445668
v 0.27428564 0.011618358 -0.27378407
v 0.27397317 0.011618359 0.2760149
v 0.27428564 2.871241E-07 -0.27378404
v 0.27428564 0.011618358 -0.27378407
v -0.27428564 0.011618229 -0.27378407
v -0.27428564 1.5633447E-07 -0.27378404
v -0.27428564 1.5633447E-07 -0.27378404
v -0.27428564 0.011618229 -0.27378407
v -0.27428564 1.5633448E-07 0.27445668
v -0.27459815 0.011618229 0.2760149
v 0.27397317 0.011618359 0.2760149
v -0.27459815 0.011618229 0.2760149
v -0.09249882 0.046754587 0.09502654
v 0.093764246 0.046754625 0.09502654
v 0.094076745 0.046754625 -0.09279497
v 0.27428564 0.011618358 -0.27378407
v 0.27397317 0.011618359 0.2760149
v 0.093764246 0.046754625 0.09502654
v -0.27428564 0.011618229 -0.27378407
v 0.27428564 0.011618358 -0.27378407
v 0.094076745 0.046754625 -0.09279497
v -0.09218632 0.046754587 -0.09279497
v -0.09249882 0.046754587 0.09502654
v -0.27459815 0.011618229 0.2760149
v -0.27428564 0.011618229 -0.27378407
v -0.09218632 0.046754587 -0.09279497
v -0.67118657 0.7884811 -0.6717951
v -0.67118657 0.7884811 0.67246825
v 0.0009453159 0.7884813 0.67246825
v 0.0009453159 0.7884813 -0.6717951
v 0.000945305 0.83421844 0.67246825
v -0.67118657 0.83421826 0.67246825
v -0.67118657 0.83421826 -0.671795
v 0.000945305 0.83421844 -0.671795
v 0.0009453159 0.7884813 0.67246825
v -0.67118657 0.7884811 0.67246825
v -0.67118657 0.83421826 0.67246825
v 0.000945305 0.83421844 0.67246825
v 0.67307717 0.7884814 0.67246825
v 0.67307717 0.83421856 0.67246825
v 0.67307717 0.7884814 0.67246825
v 0.67307717 0.83421856 0.67246825
v 0.67307717 0.83421856 -0.671795
v 0.67307717 0.7884814 -0.6717951
v 0.0009453159 0.7884813 -0.6717951
v 0.67307717 0.7884814 -0.6717951
v 0.67307717 0.83421856 -0.671795
v 0.000945305 0.83421844 -0.671795
v -0.67118657 0.7884811 -0.6717951
v -0.67118657 0.83421826 -0.671795
v -0.67118657 0.7884811 -0.6717951
v -0.67118657 0.83421826 -0.671795
v -0.67118657 0.83421826 0.67246825
v -0.67118657 0.7884811 0.67246825
v 0.06809122 0.055017326 0.06748278
v -0.06620082 0.0550173 0.06748278
v -0.066200994 0.75081587 0.06748276
v 0.06809105 0.75081587 0.06748276
v 0.06809122 0.055017326 0.06748278
v 0.06809105 0.75081587 0.06748276
v 0.06809105 0.75081587 -0.066809446
v 0.06809122 0.055017326 -0.06680943
v -0.06620082 0.0550173 -0.06680943
v 0.06809122 0.055017326 -0.06680943
v 0.06809105 0.75081587 -0.066809446
v -0.066200994 0.75081587 -0.066809446
v -0.06620082 0.0550173 -0.06680943
v -0.066200994 0.75081587 -0.066809446
v -0.066200994 0.75081587 0.06748276
v -0.06620082 0.0550173 0.06748278
v 0.13197996 0.75028235 0.13137157
v -0.13008985 0.75028235 0.13137157
v -0.13008986 0.7884812 0.13137157
v 0.13197994 0.7884812 0.13137157
v 0.13197996 0.75028235 0.13137157
v 0.13197994 0.7884812 0.13137157
v 0.13197994 0.7884812 -0.13069808
v 0.13197996 0.75028235 -0.13069808
v -0.13008985 0.75028235 -0.13069808
v 0.13197996 0.75028235 -0.13069808
v 0.13197994 0.7884812 -0.13069808
v -0.13008986 0.7884812 -0.13069808
v -0.13008985 0.75028235 -0.13069808
v -0.13008986 0.7884812 -0.13069808
v -0.13008986 0.7884812 0.13137157
v -0.13008985 0.75028235 0.13137157
v -0.13008985 0.75028235 -0.13069808
v -0.13008985 0.75028235 0.13137157
v 0.13197996 0.75028235 0.13137157
v 0.13197996 0.75028235 -0.13069808
v 0.67307717 0.7884814 -0.6717951
v 0.0009453159 0.7884813 -0.6717951
v 0.0009453159 0.7884813 0.67246825
v 0.67307717 0.7884814 0.67246825
v 0.67307717 0.83421856 0.67246825
v 0.000945305 0.83421844 0.67246825
v 0.000945305 0.83421844 -0.671795
v 0.67307717 0.83421856 -0.671795
v 0.06809122 0.055017326 0.06748278
v 0.094076745 0.055017333 0.0934683
v -0.09218632 0.055017292 0.0934683
v -0.06620082 0.0550173 0.06748278
v 0.06809122 0.055017326 -0.06680943
v 0.094076745 0.055017333 -0.09279497
v 0.094076745 0.055017333 0.0934683
v 0.06809122 0.055017326 0.06748278
v -0.06620082 0.0550173 -0.06680943
v -0.09218632 0.055017292 -0.09279497
v 0.094076745 0.055017333 -0.09279497
v 0.06809122 0.055017326 -0.06680943
v -0.06620082 0.0550173 0.06748278
v -0.09218632 0.055017292 0.0934683
v -0.09218632 0.055017292 -0.09279497
v -0.06620082 0.0550173 -0.06680943
v 0.094076745 0.055017333 0.0934683
v 0.093764246 0.046754625 0.09502654
v -0.09249882 0.046754587 0.09502654
v -0.09218632 0.055017292 0.0934683
v 0.094076745 0.055017333 -0.09279497
v 0.094076745 0.046754625 -0.09279497
v 0.094076745 0.055017333 0.0934683
v 0.093764246 0.046754625 0.09502654
v -0.09218632 0.055017292 -0.09279497
v -0.09218632 0.046754587 -0.09279497
v 0.094076745 0.046754625 -0.09279497
v 0.094076745 0.055017333 -0.09279497
v -0.09218632 0.055017292 -0.09279497
v -0.09218632 0.055017292 0.0934683
v -0.09218632 0.046754587 -0.09279497
v -0.09249882 0.046754587 0.09502654
vt 0.9404297 0.27856445
vt 0.9404297 0.24365234
vt 0.9848633 0.24365234
vt 0.9848633 0.27856445
vt 0.4050293 0.45483398
vt 0.4050293 0.4658203
vt 0.5332031 0.4658203
vt 0.5332031 0.45483398
vt 0.4050293 0.45483398
vt 0.5332031 0.45483398
vt 0.4050293 0.4658203
vt 0.5332031 0.4658203
vt 0.5332031 0.45483398
vt 0.5332031 0.4658203
vt 0.4050293 0.4658203
vt 0.4050293 0.45483398
vt 0.4050293 0.45483398
vt 0.4050293 0.4658203
vt 0.5332031 0.45483398
vt 0.5332031 0.4658203
vt 0.3569336 0.5371094
vt 0.54003906 0.5371094
vt 0.47827148 0.47558594
vt 0.41674805 0.47558594
vt 0.6166992 0.53808594
vt 0.6777344 0.47607422
vt 0.49487305 0.47607422
vt 0.5551758 0.53808594
vt 0.3569336 0.5371094
vt 0.54003906 0.5371094
vt 0.47827148 0.47558594
vt 0.41674805 0.47558594
vt 0.6166992 0.53808594
vt 0.6777344 0.47607422
vt 0.49487305 0.47607422
vt 0.5551758 0.53808594
vt 0.54785156 0.23156738
vt 0.98779297 0.23156738
vt 0.98779297 0.011688232
vt 0.54785156 0.011688232
vt 0.98779297 0.011688232
vt 0.98779297 0.23156738
vt 0.54785156 0.23156738
vt 0.54785156 0.011688232
vt 0.23730469 0.031158447
vt 0.017288208 0.031158447
vt 0.017288208 0.015930176
vt 0.23730469 0.015930176
vt 0.45751953 0.031158447
vt 0.45751953 0.015930176
vt 0.45751953 0.031158447
vt 0.45751953 0.015930176
vt 0.017288208 0.015930176
vt 0.017288208 0.031158447
vt 0.23730469 0.031158447
vt 0.45751953 0.031158447
vt 0.45751953 0.015930176
vt 0.23730469 0.015930176
vt 0.017288208 0.031158447
vt 0.017288208 0.015930176
vt 0.45751953 0.031158447
vt 0.45751953 0.015930176
vt 0.017288208 0.015930176
vt 0.017288208 0.031158447
vt 0.92822266 0.3371582
vt 0.92822266 0.29418945
vt 0.6308594 0.29418945
vt 0.6308594 0.3371582
vt 0.92578125 0.24182129
vt 0.62890625 0.24182129
vt 0.62890625 0.28442383
vt 0.92578125 0.28442383
vt 0.92822266 0.3371582
vt 0.92822266 0.29418945
vt 0.6308594 0.29418945
vt 0.6308594 0.3371582
vt 0.92578125 0.28442383
vt 0.62890625 0.28442383
vt 0.62890625 0.24182129
vt 0.92578125 0.24182129
vt 0.43188477 0.46533203
vt 0.5004883 0.46533203
vt 0.5004883 0.45483398
vt 0.43188477 0.45483398
vt 0.43188477 0.45483398
vt 0.43188477 0.46533203
vt 0.5004883 0.46533203
vt 0.5004883 0.45483398
vt 0.5004883 0.45483398
vt 0.43188477 0.45483398
vt 0.43188477 0.46533203
vt 0.5004883 0.46533203
vt 0.5004883 0.46533203
vt 0.5004883 0.45483398
vt 0.43188477 0.45483398
vt 0.43188477 0.46533203
vt 0.9848633 0.27856445
vt 0.9848633 0.24365234
vt 0.9404297 0.24365234
vt 0.9404297 0.27856445
vt 0.54785156 0.23156738
vt 0.54785156 0.011688232
vt 0.98779297 0.011688232
vt 0.98779297 0.23156738
vt 0.98779297 0.23156738
vt 0.98779297 0.011688232
vt 0.54785156 0.011688232
vt 0.54785156 0.23156738
vt 0.74072266 0.56689453
vt 0.7524414 0.55371094
vt 0.7524414 0.64746094
vt 0.74072266 0.63427734
vt 0.69189453 0.5131836
vt 0.68066406 0.5004883
vt 0.7626953 0.5004883
vt 0.75146484 0.5131836
vt 0.74072266 0.56689453
vt 0.7524414 0.55371094
vt 0.7524414 0.64746094
vt 0.74072266 0.63427734
vt 0.69189453 0.5131836
vt 0.68066406 0.5004883
vt 0.7626953 0.5004883
vt 0.75146484 0.5131836
vt 0.4050293 0.4658203
vt 0.4050293 0.45483398
vt 0.5332031 0.45483398
vt 0.5332031 0.4658203
vt 0.4050293 0.45483398
vt 0.4050293 0.4658203
vt 0.5332031 0.45483398
vt 0.5332031 0.4658203
vt 0.5332031 0.4658203
vt 0.5332031 0.45483398
vt 0.4050293 0.45483398
vt 0.4050293 0.4658203
vt 0.5332031 0.4658203
vt 0.4050293 0.4658203
vt 0.5332031 0.45483398
vt 0.4050293 0.45483398
vn 2.3841858E-07 -1 0
vn 2.3841858E-07 -1 0
vn 2.3841858E-07 -1 0
vn 2.3841858E-07 -1 0
vn -0 -0.13293457 0.99121094
vn -0 -0.13293457 0.99121094
vn -0 -0.13293457 0.99121094
vn -0 -0.13293457 0.99121094
vn 1 0 0
vn 0.9995117 0.026473999 0.00056123734
vn 1 0.0003619194 7.688999E-06
vn 0.9995117 0.026809692 0.0005683899
vn -0 -1.66893E-06 -1
vn -0 -1.66893E-06 -1
vn -0 -1.66893E-06 -1
vn -0 -1.66893E-06 -1
vn -1 0 0
vn -1 -0.0003619194 -7.688999E-06
vn -0.9995117 -0.026473999 -0.00056123734
vn -0.9995117 -0.026809692 -0.0005683899
vn -2.3841858E-07 0.9814453 0.19055176
vn -2.3841858E-07 0.9814453 0.19055176
vn -2.3841858E-07 0.9814453 0.19055176
vn -2.3841858E-07 0.9814453 0.19055176
vn 0.19140625 0.9814453 0.00016212463
vn 0.19140625 0.9814453 0.00016212463
vn 0.19140625 0.9814453 0.00016212463
vn 0.19140625 0.9814453 0.00016212463
vn -2.3841858E-07 0.9814453 -0.19055176
vn -2.3841858E-07 0.9814453 -0.19055176
vn -2.3841858E-07 0.9814453 -0.19055176
vn -2.3841858E-07 0.9814453 -0.19055176
vn -0.18945312 0.9819336 -0.00016057491
vn -0.18945312 0.9819336 -0.00016057491
vn -0.18945312 0.9819336 -0.00016057491
vn -0.18945312 0.9819336 -0.00016057491
vn 2.3841858E-07 -1 0
vn 2.3841858E-07 -1 0
vn 2.3841858E-07 -1 0
vn 2.3841858E-07 -1 0
vn -2.3841858E-07 1 0
vn -2.3841858E-07 1 0
vn -2.3841858E-07 1 0
vn -2.3841858E-07 1 0
vn -0 0 1
vn -0 0 1
vn -0 0 1
vn -0 0 1
vn -0 0 1
vn -0 0 1
vn 1 0 0
vn 1 0 0
vn 1 0 0
vn 1 0 0
vn -0 1.66893E-06 -1
vn -0 1.66893E-06 -1
vn -0 1.66893E-06 -1
vn -0 1.66893E-06 -1
vn -0 1.66893E-06 -1
vn -0 1.66893E-06 -1
vn -1 0 0
vn -1 0 0
vn -1 0 0
vn -1 0 0
vn -0 0 1
vn -0 0 1
vn -0 0 1
vn -0 0 1
vn 1 2.3841858E-07 0
vn 1 2.3841858E-07 0
vn 1 2.3841858E-07 0
vn 1 2.3841858E-07 0
vn -0 0 -1
vn -0 0 -1
vn -0 0 -1
vn -0 0 -1
vn -1 -2.3841858E-07 0
vn -1 -2.3841858E-07 0
vn -1 -2.3841858E-07 0
vn -1 -2.3841858E-07 0
vn -0 0 1
vn -0 0 1
vn -0 0 1
vn -0 0 1
vn 1 2.3841858E-07 0
vn 1 2.3841858E-07 0
vn 1 2.3841858E-07 0
vn 1 2.3841858E-07 0
vn -0 0 -1
vn -0 0 -1
vn -0 0 -1
vn -0 0 -1
vn -1 -2.3841858E-07 0
vn -1 -2.3841858E-07 0
vn -1 -2.3841858E-07 0
vn -1 -2.3841858E-07 0
vn -0 -1 0
vn -0 -1 0
vn -0 -1 0
vn -0 -1 0
vn 2.3841858E-07 -1 0
vn 2.3841858E-07 -1 0
vn 2.3841858E-07 -1 0
vn 2.3841858E-07 -1 0
vn -2.3841858E-07 1 0
vn -2.3841858E-07 1 0
vn -2.3841858E-07 1 0
vn -2.3841858E-07 1 0
vn -1.7881393E-07 1 0
vn -1.7881393E-07 1 0
vn -1.7881393E-07 1 0
vn -1.7881393E-07 1 0
vn -1.7881393E-07 1 0
vn -1.7881393E-07 1 0
vn -1.7881393E-07 1 0
vn -1.7881393E-07 1 0
vn -1.7881393E-07 1 0
vn -1.7881393E-07 1 0
vn -1.7881393E-07 1 0
vn -1.7881393E-07 1 0
vn -1.7881393E-07 1 0
vn -1.7881393E-07 1 0
vn -1.7881393E-07 1 0
vn -1.7881393E-07 1 0
vn -0 0.18530273 0.98291016
vn -0 0.18530273 0.98291016
vn -0 0.18530273 0.98291016
vn -0 0.18530273 0.98291016
vn 1 0 0
vn 1 -0.0010585785 4.696846E-05
vn 0.9995117 -0.03652954 0.0016202927
vn 0.9995117 -0.037475586 0.0016622543
vn -0 0 -1
vn -0 0 -1
vn -0 0 -1
vn -0 0 -1
vn -1 0 0
vn -0.9995117 0.03652954 -0.0016202927
vn -1 0.0010585785 -4.696846E-05
vn -0.9995117 0.037475586 -0.0016622543
g MainCity_Prop_CoffeeTable_01_0
f 3/3/3 2/2/2 1/1/1
f 4/4/4 3/3/3 1/1/1
f 7/7/7 6/6/6 5/5/5
f 8/8/8 7/7/7 5/5/5
f 11/11/11 10/10/10 9/9/9
f 11/11/11 12/12/12 10/10/10
f 15/15/15 14/14/14 13/13/13
f 16/16/16 15/15/15 13/13/13
f 19/19/19 18/18/18 17/17/17
f 19/19/19 20/20/20 18/18/18
f 23/23/23 22/22/22 21/21/21
f 24/24/24 23/23/23 21/21/21
f 27/27/27 26/26/26 25/25/25
f 28/28/28 27/27/27 25/25/25
f 31/31/31 30/30/30 29/29/29
f 32/32/32 31/31/31 29/29/29
f 35/35/35 34/34/34 33/33/33
f 36/36/36 35/35/35 33/33/33
f 39/39/39 38/38/38 37/37/37
f 40/40/40 39/39/39 37/37/37
f 43/43/43 42/42/42 41/41/41
f 44/44/44 43/43/43 41/41/41
f 47/47/47 46/46/46 45/45/45
f 48/48/48 47/47/47 45/45/45
f 48/48/48 45/45/45 49/49/49
f 50/50/50 48/48/48 49/49/49
f 53/53/53 52/52/52 51/51/51
f 54/54/54 53/53/53 51/51/51
f 57/57/57 56/56/56 55/55/55
f 58/58/58 57/57/57 55/55/55
f 58/58/58 55/55/55 59/59/59
f 60/60/60 58/58/58 59/59/59
f 63/63/63 62/62/62 61/61/61
f 64/64/64 63/63/63 61/61/61
f 67/67/67 66/66/66 65/65/65
f 68/68/68 67/67/67 65/65/65
f 71/71/71 70/70/70 69/69/69
f 72/72/72 71/71/71 69/69/69
f 75/75/75 74/74/74 73/73/73
f 76/76/76 75/75/75 73/73/73
f 79/79/79 78/78/78 77/77/77
f 80/80/80 79/79/79 77/77/77
f 83/83/83 82/82/82 81/81/81
f 84/84/84 83/83/83 81/81/81
f 87/87/87 86/86/86 85/85/85
f 88/88/88 87/87/87 85/85/85
f 91/91/91 90/90/90 89/89/89
f 92/92/92 91/91/91 89/89/89
f 95/95/95 94/94/94 93/93/93
f 96/96/96 95/95/95 93/93/93
f 99/99/99 98/98/98 97/97/97
f 100/100/100 99/99/99 97/97/97
f 103/103/103 102/102/102 101/101/101
f 104/104/104 103/103/103 101/101/101
f 107/107/107 106/106/106 105/105/105
f 108/108/108 107/107/107 105/105/105
f 111/111/111 110/110/110 109/109/109
f 112/112/112 111/111/111 109/109/109
f 115/115/115 114/114/114 113/113/113
f 116/116/116 115/115/115 113/113/113
f 119/119/119 118/118/118 117/117/117
f 120/120/120 119/119/119 117/117/117
f 123/123/123 122/122/122 121/121/121
f 124/124/124 123/123/123 121/121/121
f 127/127/127 126/126/126 125/125/125
f 128/128/128 127/127/127 125/125/125
f 131/131/131 130/130/130 129/129/129
f 131/131/131 132/132/132 130/130/130
f 135/135/135 134/134/134 133/133/133
f 136/136/136 135/135/135 133/133/133
f 139/139/139 138/138/138 137/137/137
f 139/139/139 140/140/140 138/138/138
