g MainCity_Building_Card_02
v -19.377287 32.855675 -16.208652
v -19.377287 34.494556 -16.208652
v -19.377287 34.494545 -14.024312
v -19.377287 32.85567 -14.024312
v -19.377289 34.236195 -3.2870255
v -19.377287 36.136936 -14.024312
v -19.377287 31.216791 -14.024312
v -19.377287 37.773853 -14.024312
v -19.377287 36.136936 -16.208652
v -19.377287 37.773857 -16.208652
v -19.377287 39.447525 -14.024312
v -19.37729 68.23154 -3.2870388
v -19.377287 29.599314 -14.024328
v -19.377287 27.971247 -14.024328
v -19.377287 29.599316 -16.208652
v -19.377287 31.216793 -16.208652
v -19.377287 41.131527 -14.024312
v -19.377287 39.447525 -16.208652
v -19.377287 41.13153 -16.208652
v -19.377287 42.754417 -14.024311
v -19.377287 44.3616 -14.02431
v -19.377287 42.754417 -16.208652
v -19.377287 44.361607 -16.20865
v -19.377287 46.016052 -14.02431
v -19.377287 47.671314 -14.02431
v -19.377287 46.016052 -16.20865
v -19.377287 47.671314 -16.20865
v -19.377287 49.305656 -14.02431
v -19.377287 50.93226 -14.02431
v -19.377287 52.60845 -14.02431
v -19.377287 49.305656 -16.20865
v -19.377287 50.93226 -16.20865
v -19.377287 54.295414 -14.02431
v -19.377287 52.60845 -16.20865
v -19.377287 54.295414 -16.20865
v -19.377287 55.929134 -14.02431
v -19.377287 57.55447 -14.02431
v -19.377287 55.929134 -16.20865
v -19.377287 57.55447 -16.20865
v -19.377289 59.191345 -14.02431
v -19.377289 60.82822 -14.02431
v -19.377289 68.231544 -14.02431
v -19.377287 59.191345 -16.20865
v -19.377287 60.82822 -16.20865
v -19.37729 68.23154 5.582834
v -19.377287 -3.804973E-06 -3.2870283
v -19.377289 -4.5804004E-06 5.5828276
v -19.377293 68.23153 9.583157
v -19.377268 -0.01860868 9.583151
v -19.377287 21.350708 -14.024328
v -19.377287 23.012121 -14.024328
v -19.377287 24.677229 -14.024328
v -19.377287 23.012121 -16.208652
v -19.377287 24.677229 -16.208652
v -19.377287 26.324238 -14.024328
v -19.377287 26.324242 -16.208652
v -19.377287 27.971249 -16.208652
v -19.377287 19.723621 -14.024328
v -19.377287 19.723623 -16.208652
v -19.377287 21.35071 -16.208652
v -19.377287 18.088968 -14.024328
v -19.377287 16.452122 -14.024328
v -19.377287 14.81053 -14.024328
v -19.377287 13.1745 -14.024331
v -19.377285 16.452127 -16.208652
v -19.377287 18.08898 -16.208652
v -19.377285 13.174501 -16.208656
v -19.377285 14.810539 -16.208652
v -19.377287 11.532597 -14.024331
v -19.377287 9.898847 -14.024331
v -19.377285 9.898847 -16.208656
v -19.377285 11.532607 -16.208656
v -19.377285 8.258336 -14.024331
v -19.377285 6.5763335 -14.024331
v -19.377285 6.5763335 -16.208656
v -19.377285 8.258336 -16.208656
v -19.377285 4.904676 -14.024331
v -19.377285 3.3730583 -14.024331
v -19.377285 -6.958622E-06 -14.024331
v -19.377285 3.3730583 -16.208656
v -19.377285 4.904676 -16.208656
v -14.970476 68.23369 5.582834
v -14.970476 68.23369 -3.2870226
v -14.970476 74.391 -3.287022
v -14.970478 74.391 5.582834
v -19.37729 68.23154 5.582834
v -19.37729 68.23154 -3.2870388
v -14.970476 68.23369 -3.2870226
v -14.970476 68.23369 5.582834
v -4.1847997 68.23369 5.602772
v -14.970476 68.23369 5.582834
v -14.970478 74.391 5.582834
v -4.1847997 74.39101 5.602788
v -19.377293 59.191345 -14.02431
v -16.887156 59.207077 -14.02431
v -16.887154 59.207077 -16.20865
v -19.377293 59.191345 -16.20865
v -19.377293 55.929134 -14.02431
v -16.887154 55.933342 -14.02431
v -16.887154 55.933342 -16.20865
v -19.377293 55.929134 -16.20865
v -19.377293 52.60845 -14.02431
v -16.887154 52.6037 -14.02431
v -16.887154 52.6037 -16.20865
v -19.37729 52.60845 -16.20865
v -19.37729 49.305656 -14.02431
v -16.887154 49.310364 -14.02431
v -16.887154 49.310364 -16.20865
v -19.37729 49.305656 -16.20865
v -19.37729 46.016052 -14.02431
v -16.887154 46.015614 -14.02431
v -16.887152 46.015614 -16.20865
v -19.37729 46.016052 -16.20865
v -19.37729 42.754417 -14.024311
v -16.887152 42.75665 -14.024311
v -16.887152 42.75665 -16.208652
v -19.37729 42.754417 -16.208652
v -19.377289 39.447525 -14.024312
v -16.88715 39.444534 -14.024312
v -16.88715 39.444534 -16.208652
v -19.377289 39.447525 -16.208652
v -19.377289 36.136936 -14.024312
v -16.88715 36.137608 -14.024312
v -16.88715 36.137608 -16.208652
v -19.377289 36.136936 -16.208652
v -16.88715 32.8694 -16.208652
v -19.377289 32.855675 -16.208652
v -19.377289 32.85567 -14.024312
v -16.88715 32.8694 -14.024312
v -16.887146 3.3738894 -16.208656
v -19.377283 3.3730583 -16.208656
v -19.377285 3.3730583 -14.024331
v -16.887146 3.3738894 -14.024331
v -16.887146 6.575421 -16.208656
v -19.377285 6.5763335 -16.208656
v -19.377285 6.5763335 -14.024331
v -16.887146 6.575421 -14.024331
v -16.887146 9.899141 -16.208656
v -19.377285 9.898847 -16.208656
v -19.377285 9.898847 -14.024331
v -16.887146 9.899141 -14.024331
v -16.887146 13.174945 -16.208656
v -19.377285 13.174501 -16.208656
v -19.377285 13.1745 -14.024331
v -16.887146 13.174944 -14.024331
v -16.887148 16.454842 -16.208652
v -19.377285 16.452127 -16.208652
v -19.377287 16.452122 -14.024328
v -16.887148 16.45484 -14.024328
v -16.887148 19.728373 -16.208652
v -19.377287 19.723623 -16.208652
v -19.377287 19.723621 -14.024328
v -16.887148 19.72837 -14.024328
v -16.887148 23.00979 -16.208652
v -19.377287 23.012121 -16.208652
v -19.377287 23.012121 -14.024328
v -16.88715 23.009783 -14.024328
v -16.88715 26.329834 -16.208652
v -19.377287 26.324242 -16.208652
v -19.377287 26.324238 -14.024328
v -16.88715 26.329834 -14.024328
v -16.88715 29.605341 -16.208652
v -19.377289 29.599316 -16.208652
v -19.377289 29.599314 -14.024328
v -16.88715 29.605341 -14.024328
v -19.377293 68.23153 9.583157
v -9.14662 68.231544 9.583173
v -9.14662 64.86724 9.583173
v -19.377268 -0.01860868 9.583151
v -9.146589 -0.037216526 9.583134
v -9.126561 -0.037204828 16.208656
v -9.1266365 64.86724 16.208677
v 19.377321 64.86724 16.207253
v 19.37733 -0.03720892 16.207249
v -9.126561 -0.037204828 16.208656
v -9.146589 -0.037216526 9.583134
v -9.14662 64.86724 9.583173
v -9.1266365 64.86724 16.208677
v -2.4893782 64.86724 9.583157
v -9.14662 64.86724 9.583173
v -9.14662 68.231544 9.583173
v -2.4893782 68.23153 9.583157
vt 0.008842468 0.28295898
vt 0.008842468 0.296875
vt 0.027328491 0.296875
vt 0.027328491 0.28295898
vt 0.11816406 0.29467773
vt 0.027328491 0.31079102
vt 0.027328491 0.26904297
vt 0.027328491 0.32470703
vt 0.008842468 0.31079102
vt 0.008842468 0.32470703
vt 0.027328491 0.33911133
vt 0.11816406 0.5839844
vt 0.027328491 0.2553711
vt 0.027328491 0.24145508
vt 0.008842468 0.2553711
vt 0.008842468 0.26904297
vt 0.027328491 0.35327148
vt 0.008842468 0.33911133
vt 0.008842468 0.35327148
vt 0.027328491 0.3671875
vt 0.027328491 0.38085938
vt 0.008842468 0.3671875
vt 0.008842468 0.38085938
vt 0.027328491 0.39501953
vt 0.027328491 0.40893555
vt 0.008842468 0.39501953
vt 0.008842468 0.40893555
vt 0.027328491 0.42285156
vt 0.027328491 0.43676758
vt 0.027328491 0.45092773
vt 0.008842468 0.42285156
vt 0.008842468 0.43676758
vt 0.027328491 0.46533203
vt 0.008842468 0.45092773
vt 0.008842468 0.46533203
vt 0.027328491 0.47924805
vt 0.027328491 0.49291992
vt 0.008850098 0.47924805
vt 0.008850098 0.49291992
vt 0.027328491 0.50683594
vt 0.027328491 0.5209961
vt 0.027328491 0.5839844
vt 0.008850098 0.50683594
vt 0.008850098 0.5209961
vt 0.1932373 0.5839844
vt 0.11816406 0.0056533813
vt 0.1932373 0.0056533813
vt 0.22705078 0.5839844
vt 0.22705078 0.0056533813
vt 0.027328491 0.18518066
vt 0.027328491 0.19934082
vt 0.027328491 0.21350098
vt 0.008842468 0.19934082
vt 0.008842468 0.21350098
vt 0.027328491 0.22741699
vt 0.008842468 0.22741699
vt 0.008842468 0.24145508
vt 0.027328491 0.17138672
vt 0.008842468 0.17138672
vt 0.008842468 0.18518066
vt 0.027328491 0.1574707
vt 0.027328491 0.14355469
vt 0.027328491 0.1295166
vt 0.027328491 0.11566162
vt 0.008842468 0.14355469
vt 0.008842468 0.1574707
vt 0.008842468 0.11566162
vt 0.008842468 0.1295166
vt 0.027328491 0.10168457
vt 0.027328491 0.087768555
vt 0.008842468 0.087768555
vt 0.008842468 0.10168457
vt 0.027328491 0.07385254
vt 0.027328491 0.059539795
vt 0.008834839 0.059539795
vt 0.008842468 0.07385254
vt 0.027328491 0.045318604
vt 0.027328491 0.032287598
vt 0.027328491 0.0056533813
vt 0.008834839 0.032287598
vt 0.008834839 0.045318604
vt 0.5913086 0.9111328
vt 0.5913086 0.9863281
vt 0.6425781 0.9863281
vt 0.6425781 0.9111328
vt 0.5800781 0.9111328
vt 0.5800781 0.9863281
vt 0.5913086 0.9863281
vt 0.5913086 0.9111328
vt 0.5913086 0.8183594
vt 0.5913086 0.9111328
vt 0.6425781 0.9111328
vt 0.6425781 0.8183594
vt 0.027328491 0.50683594
vt 0.027328491 0.49389648
vt 0.008850098 0.49389648
vt 0.008850098 0.50683594
vt 0.027328491 0.47924805
vt 0.027328491 0.4663086
vt 0.008850098 0.4663086
vt 0.008850098 0.47924805
vt 0.027328491 0.45092773
vt 0.027328491 0.43798828
vt 0.008842468 0.43798828
vt 0.008842468 0.45092773
vt 0.027328491 0.42285156
vt 0.027328491 0.4099121
vt 0.008842468 0.4099121
vt 0.008842468 0.42285156
vt 0.027328491 0.39501953
vt 0.027328491 0.38183594
vt 0.008842468 0.38183594
vt 0.008842468 0.39501953
vt 0.027328491 0.3671875
vt 0.027328491 0.35424805
vt 0.008842468 0.35424805
vt 0.008842468 0.3671875
vt 0.027328491 0.33911133
vt 0.027328491 0.32592773
vt 0.008842468 0.32592773
vt 0.008842468 0.33911133
vt 0.027328491 0.31079102
vt 0.027328491 0.29785156
vt 0.008842468 0.29785156
vt 0.008842468 0.31079102
vt 0.008842468 0.27001953
vt 0.008842468 0.28295898
vt 0.027328491 0.28295898
vt 0.027328491 0.27001953
vt 0.008834839 0.019729614
vt 0.008834839 0.032196045
vt 0.027328491 0.032196045
vt 0.027328491 0.019729614
vt 0.008834839 0.04647827
vt 0.008834839 0.059570312
vt 0.027328491 0.059570312
vt 0.027328491 0.04647827
vt 0.008834839 0.0748291
vt 0.008842468 0.087768555
vt 0.027328491 0.087768555
vt 0.027328491 0.0748291
vt 0.008842468 0.10266113
vt 0.008842468 0.115600586
vt 0.027328491 0.115600586
vt 0.027328491 0.10266113
vt 0.008842468 0.13049316
vt 0.008842468 0.14343262
vt 0.027328491 0.14343262
vt 0.027328491 0.13049316
vt 0.008842468 0.15844727
vt 0.008842468 0.17126465
vt 0.027328491 0.17126465
vt 0.027328491 0.15844727
vt 0.008842468 0.1862793
vt 0.008842468 0.19934082
vt 0.027328491 0.19934082
vt 0.027328491 0.1862793
vt 0.008842468 0.21447754
vt 0.008842468 0.22741699
vt 0.027328491 0.22741699
vt 0.027328491 0.21447754
vt 0.008842468 0.24243164
vt 0.008842468 0.2553711
vt 0.027328491 0.2553711
vt 0.027328491 0.24243164
vt 0.2388916 0.5839844
vt 0.32543945 0.5839844
vt 0.32543945 0.55566406
vt 0.2388916 0.0056533813
vt 0.32543945 0.0056533813
vt 0.3815918 0.0056533813
vt 0.3815918 0.55566406
vt 0.6225586 0.55566406
vt 0.6225586 0.0056533813
vt 0.3815918 0.0056533813
vt 0.32543945 0.0056533813
vt 0.32543945 0.55566406
vt 0.3815918 0.55566406
vt 0.3815918 0.55566406
vt 0.32543945 0.55566406
vt 0.32543945 0.5839844
vt 0.3815918 0.5839844
vn -1 0 0
vn -1 0 0
vn -1 0 0
vn -1 0 0
vn -1 0 -1.1920929E-07
vn -1 0 0
vn -1 0 0
vn -1 0 0
vn -1 0 0
vn -1 0 0
vn -1 0 -1.1920929E-07
vn -1 0 -1.1920929E-07
vn -1 0 0
vn -1 0 0
vn -1 0 0
vn -1 0 0
vn -1 0 -2.3841858E-07
vn -1 0 0
vn -1 0 0
vn -1 0 -2.3841858E-07
vn -1 0 -2.3841858E-07
vn -1 0 0
vn -1 0 0
vn -1 0 -2.3841858E-07
vn -1 0 -2.3841858E-07
vn -1 0 0
vn -1 0 0
vn -1 0 -2.3841858E-07
vn -1 0 -2.3841858E-07
vn -1 0 -2.3841858E-07
vn -1 0 0
vn -1 0 0
vn -1 0 -2.3841858E-07
vn -1 0 0
vn -1 0 0
vn -1 0 -2.3841858E-07
vn -1 -1.1920929E-07 -1.1920929E-07
vn -1 0 0
vn -1 0 0
vn -1 -3.5762787E-07 0
vn -1 0 -3.5762787E-07
vn -1 0 -2.3841858E-07
vn -1 0 -5.364418E-07
vn -1 0 -5.364418E-07
vn -1 -1.1920929E-07 1.1324883E-06
vn -1 0 -1.7881393E-07
vn -1 -1.1920929E-07 1.0728836E-06
vn -1 -1.7881393E-07 2.2649765E-06
vn -1 -1.7881393E-07 2.2649765E-06
vn -1 0 0
vn -1 0 0
vn -1 0 0
vn -1 0 0
vn -1 0 0
vn -1 0 0
vn -1 0 0
vn -1 0 0
vn -1 0 0
vn -1 0 0
vn -1 0 0
vn -1 -2.3841858E-07 -1.7881393E-07
vn -1 -2.3841858E-07 -1.7881393E-07
vn -1 0 -3.5762787E-07
vn -1 0 -3.5762787E-07
vn -1 -7.748604E-07 -5.364418E-07
vn -1 -7.748604E-07 -5.364418E-07
vn -1 0 -1.1324883E-06
vn -1 0 -1.1324883E-06
vn -1 0 -3.5762787E-07
vn -1 -2.3841858E-07 -5.9604645E-07
vn -1 0 -1.1324883E-06
vn -1 0 -1.1324883E-06
vn -1 -7.1525574E-07 -7.1525574E-07
vn -1 0 -1.7881393E-07
vn -1 0 0
vn -1 0 0
vn -1 0 -1.7881393E-07
vn -1 0 -1.7881393E-07
vn -1 0 -2.3841858E-07
vn -1 0 0
vn -1 0 0
vn -1 -1.7881393E-07 -1.1920929E-07
vn -1 -1.7881393E-07 -1.1920929E-07
vn -1 -1.7881393E-07 -1.1920929E-07
vn -1 -1.7881393E-07 -1.1920929E-07
vn -0.0004887581 1 0
vn -0.0004887581 1 0
vn -0.0004887581 1 0
vn -0.0004887581 1 0
vn -0.0018491745 -1.3113022E-06 1
vn -0.0018491745 -1.3113022E-06 1
vn -0.0018491745 -1.3113022E-06 1
vn -0.0018491745 -1.3113022E-06 1
vn 0.0063171387 -1 0
vn 0.0063171387 -1 0
vn 0.0063171387 -1 0
vn 0.0063171387 -1 0
vn 0.0016899109 -1 0
vn 0.0016899109 -1 0
vn 0.0016899109 -1 0
vn 0.0016899109 -1 0
vn -0.0019083023 -1 0
vn -0.0019083023 -1 0
vn -0.0019083023 -1 0
vn -0.0019083023 -1 0
vn 0.0018901825 -1 0
vn 0.0018901825 -1 0
vn 0.0018901825 -1 0
vn 0.0018901825 -1 0
vn -0.00017642975 -1 0
vn -0.00017642975 -1 0
vn -0.00017642975 -1 0
vn -0.00017642975 -1 0
vn 0.000895977 -1 0
vn 0.000895977 -1 0
vn 0.000895977 -1 0
vn 0.000895977 -1 0
vn -0.001200676 -1 0
vn -0.001200676 -1 0
vn -0.001200676 -1 0
vn -0.001200676 -1 0
vn 0.0002696514 -1 0
vn 0.0002696514 -1 0
vn 0.0002696514 -1 0
vn 0.0002696514 -1 0
vn 0.0055122375 -1 -1.1324883E-06
vn 0.0055122375 -1 -1.1324883E-06
vn 0.0055122375 -1 -1.1324883E-06
vn 0.0055122375 -1 -1.1324883E-06
vn 0.000333786 -1 0
vn 0.000333786 -1 0
vn 0.000333786 -1 0
vn 0.000333786 -1 0
vn -0.00036644936 -1 0
vn -0.00036644936 -1 0
vn -0.00036644936 -1 0
vn -0.00036644936 -1 0
vn 0.000118374825 -1 0
vn 0.000118374825 -1 0
vn 0.000118374825 -1 0
vn 0.000118374825 -1 0
vn 0.00017797947 -1 -5.364418E-07
vn 0.00017797947 -1 -5.364418E-07
vn 0.00017797947 -1 -5.364418E-07
vn 0.00017797947 -1 -5.364418E-07
vn 0.0010910034 -1 -1.66893E-06
vn 0.0010910034 -1 -1.66893E-06
vn 0.0010910034 -1 -1.66893E-06
vn 0.0010910034 -1 -1.66893E-06
vn 0.0019073486 -1 -5.364418E-07
vn 0.0019073486 -1 -5.364418E-07
vn 0.0019073486 -1 -5.364418E-07
vn 0.0019073486 -1 -5.364418E-07
vn -0.0009379387 -1 -1.66893E-06
vn -0.0009379387 -1 -1.66893E-06
vn -0.0009379387 -1 -1.66893E-06
vn -0.0009379387 -1 -1.66893E-06
vn 0.0022468567 -1 -1.1324883E-06
vn 0.0022468567 -1 -1.1324883E-06
vn 0.0022468567 -1 -1.1324883E-06
vn 0.0022468567 -1 -1.1324883E-06
vn 0.0024204254 -1 -5.364418E-07
vn 0.0024204254 -1 -5.364418E-07
vn 0.0024204254 -1 -5.364418E-07
vn 0.0024204254 -1 -5.364418E-07
vn -0 -3.5762787E-07 1
vn 1.1920929E-06 -1.7881393E-07 1
vn 7.748604E-07 -2.3841858E-07 1
vn -0 -3.5762787E-07 1
vn -0 -3.5762787E-07 1
vn 4.965067E-05 -1.7881393E-07 1
vn 4.965067E-05 -1.7881393E-07 1
vn 4.965067E-05 -1.7881393E-07 1
vn 4.965067E-05 -1.7881393E-07 1
vn -1 -8.34465E-07 0.003019333
vn -1 -8.34465E-07 0.003019333
vn -1 -8.34465E-07 0.003019333
vn -1 -8.34465E-07 0.003019333
vn 2.503395E-06 0 1
vn 7.748604E-07 -2.3841858E-07 1
vn 1.1920929E-06 -1.7881393E-07 1
vn 2.503395E-06 0 1
g MainCity_Building_Card_02_0
f 3/3/3 2/2/2 1/1/1
f 4/4/4 3/3/3 1/1/1
f 4/4/4 5/5/5 3/3/3
f 3/3/3 5/5/5 6/6/6
f 7/7/7 5/5/5 4/4/4
f 6/6/6 5/5/5 8/8/8
f 9/9/9 6/6/6 8/8/8
f 10/10/10 9/9/9 8/8/8
f 8/8/8 5/5/5 11/11/11
f 5/5/5 12/12/12 11/11/11
f 13/13/13 5/5/5 7/7/7
f 14/14/14 5/5/5 13/13/13
f 13/13/13 7/7/7 15/15/15
f 7/7/7 16/16/16 15/15/15
f 17/17/17 11/11/11 12/12/12
f 18/18/18 11/11/11 17/17/17
f 19/19/19 18/18/18 17/17/17
f 20/20/20 17/17/17 12/12/12
f 21/21/21 20/20/20 12/12/12
f 22/22/22 20/20/20 21/21/21
f 23/23/23 22/22/22 21/21/21
f 24/24/24 21/21/21 12/12/12
f 25/25/25 24/24/24 12/12/12
f 26/26/26 24/24/24 25/25/25
f 27/27/27 26/26/26 25/25/25
f 28/28/28 25/25/25 12/12/12
f 29/29/29 28/28/28 12/12/12
f 30/30/30 29/29/29 12/12/12
f 31/31/31 28/28/28 29/29/29
f 32/32/32 31/31/31 29/29/29
f 33/33/33 30/30/30 12/12/12
f 34/34/34 30/30/30 33/33/33
f 35/35/35 34/34/34 33/33/33
f 36/36/36 33/33/33 12/12/12
f 37/37/37 36/36/36 12/12/12
f 38/38/38 36/36/36 37/37/37
f 39/39/39 38/38/38 37/37/37
f 40/40/40 37/37/37 12/12/12
f 41/41/41 40/40/40 12/12/12
f 42/42/42 41/41/41 12/12/12
f 43/43/43 40/40/40 41/41/41
f 44/44/44 43/43/43 41/41/41
f 12/12/12 5/5/5 45/45/45
f 5/5/5 46/46/46 45/45/45
f 46/46/46 47/47/47 45/45/45
f 45/45/45 47/47/47 48/48/48
f 47/47/47 49/49/49 48/48/48
f 46/46/46 5/5/5 50/50/50
f 5/5/5 51/51/51 50/50/50
f 51/51/51 5/5/5 52/52/52
f 51/51/51 52/52/52 53/53/53
f 52/52/52 54/54/54 53/53/53
f 52/52/52 5/5/5 55/55/55
f 55/55/55 5/5/5 14/14/14
f 55/55/55 14/14/14 56/56/56
f 14/14/14 57/57/57 56/56/56
f 58/58/58 46/46/46 50/50/50
f 58/58/58 50/50/50 59/59/59
f 50/50/50 60/60/60 59/59/59
f 61/61/61 46/46/46 58/58/58
f 62/62/62 46/46/46 61/61/61
f 63/63/63 46/46/46 62/62/62
f 64/64/64 46/46/46 63/63/63
f 62/62/62 61/61/61 65/65/65
f 61/61/61 66/66/66 65/65/65
f 64/64/64 63/63/63 67/67/67
f 63/63/63 68/68/68 67/67/67
f 69/69/69 46/46/46 64/64/64
f 70/70/70 46/46/46 69/69/69
f 70/70/70 69/69/69 71/71/71
f 69/69/69 72/72/72 71/71/71
f 73/73/73 46/46/46 70/70/70
f 74/74/74 46/46/46 73/73/73
f 74/74/74 73/73/73 75/75/75
f 73/73/73 76/76/76 75/75/75
f 77/77/77 46/46/46 74/74/74
f 78/78/78 46/46/46 77/77/77
f 79/79/79 46/46/46 78/78/78
f 78/78/78 77/77/77 80/80/80
f 77/77/77 81/81/81 80/80/80
f 84/84/84 83/83/83 82/82/82
f 85/85/85 84/84/84 82/82/82
f 88/88/88 87/87/87 86/86/86
f 89/89/89 88/88/88 86/86/86
f 92/92/92 91/91/91 90/90/90
f 93/93/93 92/92/92 90/90/90
f 96/96/96 95/95/95 94/94/94
f 97/97/97 96/96/96 94/94/94
f 100/100/100 99/99/99 98/98/98
f 101/101/101 100/100/100 98/98/98
f 104/104/104 103/103/103 102/102/102
f 105/105/105 104/104/104 102/102/102
f 108/108/108 107/107/107 106/106/106
f 109/109/109 108/108/108 106/106/106
f 112/112/112 111/111/111 110/110/110
f 113/113/113 112/112/112 110/110/110
f 116/116/116 115/115/115 114/114/114
f 117/117/117 116/116/116 114/114/114
f 120/120/120 119/119/119 118/118/118
f 121/121/121 120/120/120 118/118/118
f 124/124/124 123/123/123 122/122/122
f 125/125/125 124/124/124 122/122/122
f 128/128/128 127/127/127 126/126/126
f 129/129/129 128/128/128 126/126/126
f 132/132/132 131/131/131 130/130/130
f 133/133/133 132/132/132 130/130/130
f 136/136/136 135/135/135 134/134/134
f 137/137/137 136/136/136 134/134/134
f 140/140/140 139/139/139 138/138/138
f 141/141/141 140/140/140 138/138/138
f 144/144/144 143/143/143 142/142/142
f 145/145/145 144/144/144 142/142/142
f 148/148/148 147/147/147 146/146/146
f 149/149/149 148/148/148 146/146/146
f 152/152/152 151/151/151 150/150/150
f 153/153/153 152/152/152 150/150/150
f 156/156/156 155/155/155 154/154/154
f 157/157/157 156/156/156 154/154/154
f 160/160/160 159/159/159 158/158/158
f 161/161/161 160/160/160 158/158/158
f 164/164/164 163/163/163 162/162/162
f 165/165/165 164/164/164 162/162/162
f 168/168/168 167/167/167 166/166/166
f 166/166/166 169/169/169 168/168/168
f 170/170/170 168/168/168 169/169/169
f 173/173/173 172/172/172 171/171/171
f 174/174/174 173/173/173 171/171/171
f 177/177/177 176/176/176 175/175/175
f 178/178/178 177/177/177 175/175/175
f 181/181/181 180/180/180 179/179/179
f 182/182/182 181/181/181 179/179/179
