g 0003
v -0.05505406 -0.02610429 -0.02786728
v -0.062230065 -0.051929764 -0.027867254
v -0.04511985 -0.051929727 -0.027867304
v -0.038658187 -0.026102927 -0.02786732
v -0.028009601 -0.051929697 -0.027867345
v -0.022262255 -0.026101558 -0.027867367
v -0.010899328 -0.05192966 -0.02786739
v -0.0058663636 -0.026100192 -0.027867405
v 0.0062109237 -0.051929627 -0.027867436
v 0.010529681 -0.026098825 -0.027867448
v 0.023321137 -0.051929593 -0.02786748
v 0.026925728 -0.02609746 -0.027867489
v 0.040431406 -0.05192956 -0.027867524
v 0.043321867 -0.026096093 -0.027867531
v 0.057541642 -0.051929526 -0.027867569
v 0.059718084 -0.026094727 -0.027867572
v 0.07465189 -0.051929493 -0.027867615
v 0.07611426 -0.02609336 -0.027867615
v 0.09176215 -0.051929455 -0.02786766
v 0.092510596 -0.026091995 -0.027867652
v 0.10887244 -0.05192942 -0.027867705
v 0.10890696 -0.026090631 -0.027867697
v 0.12598266 -0.05192939 -0.027867747
v 0.12530339 -0.026089264 -0.027867738
v 0.14309289 -0.051929355 -0.027867794
v 0.14169988 -0.026087897 -0.027867785
v 0.16020317 -0.051929314 -0.027867839
v 0.15809637 -0.02608653 -0.027867822
v 0.17731334 -0.05192928 -0.027867883
v 0.17449299 -0.026085164 -0.027867863
v 0.19442362 -0.05192925 -0.02786793
v 0.19088963 -0.026083797 -0.027867906
v 0.21153384 -0.051929217 -0.02786797
v 0.20728628 -0.026082432 -0.027867949
v 0.2286441 -0.051929183 -0.027868016
v 0.22368312 -0.026081068 -0.02786799
v 0.24575439 -0.05192915 -0.02786806
v 0.24007991 -0.0260797 -0.027868032
v 0.26286465 -0.051929116 -0.027868103
v 0.25647682 -0.026078334 -0.02786807
v 0.27997485 -0.051929083 -0.027868148
v 0.27287376 -0.026076967 -0.027868114
v -0.039805386 0.03448901 -0.027867258
v -0.0459059 0.011464474 -0.02786728
v -0.030516535 0.011464231 -0.027867319
v -0.025071139 0.034490373 -0.027867295
v -0.015127112 0.011463988 -0.02786736
v -0.010336948 0.034491725 -0.027867334
v 0.00026225366 0.011463741 -0.027867397
v 0.0043971105 0.034493092 -0.027867373
v 0.015651677 0.0114635 -0.027867436
v 0.019131169 0.03449446 -0.027867412
v 0.031041099 0.011463255 -0.027867474
v 0.033865187 0.034495827 -0.02786745
v 0.046430543 0.011463016 -0.027867515
v 0.04859919 0.034497183 -0.02786749
v 0.061820023 0.011462767 -0.027867552
v 0.06333308 0.034498546 -0.02786753
v 0.07720945 0.011462526 -0.027867593
v 0.07806691 0.03449991 -0.027867565
v 0.092598885 0.011462283 -0.027867632
v 0.09280069 0.034501277 -0.027867602
v 0.10798839 0.011462042 -0.02786767
v 0.10753446 0.034502633 -0.027867641
v 0.12337788 0.011461794 -0.02786771
v 0.12226812 0.034503996 -0.027867679
v 0.13876738 0.011461552 -0.027867747
v 0.13700178 0.03450536 -0.027867718
v 0.15415694 0.011461309 -0.027867788
v 0.15173534 0.03450673 -0.027867757
v 0.16954641 0.011461068 -0.027867828
v 0.16646883 0.034508094 -0.027867796
v 0.18493593 0.01146082 -0.027867865
v 0.18120235 0.034509446 -0.027867833
v 0.2003255 0.011460579 -0.027867904
v 0.1959358 0.034510825 -0.027867874
v 0.21571507 0.011460335 -0.027867943
v 0.21066914 0.034512177 -0.02786791
v 0.23110461 0.011460094 -0.027867982
v 0.22540246 0.03451354 -0.027867949
v 0.24649422 0.011459849 -0.027868023
v 0.24013577 0.034514904 -0.027867986
v 0.26188377 0.011459606 -0.02786806
v 0.25486898 0.034516267 -0.027868027
v 0.26286465 -0.051929116 -0.03350304
v 0.27099848 -0.051929098 -0.033503063
v 0.2631714 -0.026077654 -0.033503026
v 0.25647682 -0.026078334 -0.033503007
v 0.24007991 -0.0260797 -0.03350297
v 0.24575439 -0.05192915 -0.033502996
v 0.22368312 -0.026081068 -0.033502925
v 0.2286441 -0.051929183 -0.033502955
v 0.22493121 -0.05192919 -0.03350295
v 0.21736442 -0.026081745 -0.033502918
v 0.21066914 0.034512002 -0.034183092
v 0.21571507 0.011460521 -0.034052487
v 0.23110454 0.01146028 -0.034052517
v 0.22540246 0.03451337 -0.03418314
v 0.24649413 0.011460037 -0.034052566
v 0.24013577 0.034514725 -0.034183197
v 0.24750242 0.034515414 -0.03418322
v 0.25418895 0.011459917 -0.034052566
v 0.25024363 0.034515753 -0.03418323
v 0.25674343 0.011459853 -0.03405258
v 0.25013992 0.03465444 -0.027800042
v 0.25674918 0.011459816 -0.027849631
v 0.26338115 -0.026078314 -0.027868068
v 0.26317137 -0.026077654 -0.033503026
v 0.27099842 -0.051929075 -0.03350307
v 0.270848 -0.051927917 -0.027868733
vt 0 0
vt 0 0.9003936
vt 0.05 0.9003936
vt 0.05 0
vt 0.1 0.9003936
vt 0.1 0
vt 0.15 0.9003936
vt 0.15 0
vt 0.2 0.9003936
vt 0.2 0
vt 0.25 0.9003936
vt 0.25 0
vt 0.3 0.9003936
vt 0.3 0
vt 0.35000002 0.9003936
vt 0.35000002 0
vt 0.40000004 0.9003936
vt 0.40000004 0
vt 0.45000005 0.9003936
vt 0.45000005 0
vt 0.50000006 0.9003936
vt 0.50000006 0
vt 0.5500001 0.9003936
vt 0.5500001 0
vt 0.6000001 0.9003936
vt 0.6000001 0
vt 0.6500001 0.9003936
vt 0.6500001 0
vt 0.7000001 0.9003936
vt 0.7000001 0
vt 0.7500001 0.9003936
vt 0.7500001 0
vt 0.80000013 0.9003936
vt 0.80000013 0
vt 0.85000014 0.9003936
vt 0.85000014 0
vt 0.90000015 0.9003936
vt 0.90000015 0
vt 0.95000017 0.9003936
vt 0.95000017 0
vt 1.0000001 0.9003936
vt 1.0000001 0
vt 0 0.91695005
vt 0 0
vt 0.05 0
vt 0.05 0.91695005
vt 0.1 0
vt 0.1 0.91695005
vt 0.15 0
vt 0.15 0.91695005
vt 0.2 0
vt 0.2 0.91695005
vt 0.25 0
vt 0.25 0.91695005
vt 0.3 0
vt 0.3 0.91695005
vt 0.35000002 0
vt 0.35000002 0.91695005
vt 0.40000004 0
vt 0.40000004 0.91695005
vt 0.45000005 0
vt 0.45000005 0.91695005
vt 0.50000006 0
vt 0.50000006 0.91695005
vt 0.5500001 0
vt 0.5500001 0.91695005
vt 0.6000001 0
vt 0.6000001 0.91695005
vt 0.6500001 0
vt 0.6500001 0.91695005
vt 0.7000001 0
vt 0.7000001 0.91695005
vt 0.7500001 0
vt 0.7500001 0.91695005
vt 0.80000013 0
vt 0.80000013 0.91695005
vt 0.85000014 0
vt 0.85000014 0.91695005
vt 0.90000015 0
vt 0.90000015 0.91695005
vt 0.95000017 0
vt 0.95000017 0.91695005
vt 1.0000001 0
vt 1.0000001 0.91695005
vt 0.95000017 0.9003936
vt 0.97500014 0.9003936
vt 0.97500014 0
vt 0.95000017 0
vt 0.90000015 0
vt 0.90000015 0.9003936
vt 0.85000014 0
vt 0.85000014 0.9003936
vt 0.82500017 0.9003936
vt 0.82500017 0
vt 0.85000014 0.91695005
vt 0.85000014 0
vt 0.90000015 0
vt 0.90000015 0.91695005
vt 0.95000017 0
vt 0.95000017 0.91695005
vt 0.97500014 0.91695005
vt 0.97500014 0
vt 0.98750013 0.91695005
vt 0.98750013 0
vt 0.9937501 0.91695005
vt 0.9937501 0
vt 0.98750013 0
vt 0.97500014 0
vt 0.97500014 0.9003936
vt 0.98750013 0.9003936
vn -2.703953E-06 -1.1693051E-07 -1
vn -2.703953E-06 -1.1693051E-07 -1
vn -2.643899E-06 -1.2372666E-07 -1
vn -2.6216824E-06 -1.262408E-07 -1
vn -2.5310133E-06 -1.5004917E-07 -1
vn -2.5210923E-06 -1.5556125E-07 -1
vn -2.552912E-06 -1.1048861E-07 -1
vn -2.5703505E-06 0 -1
vn -2.5691327E-06 0 -1
vn -2.5541203E-06 0 -1
vn -2.5553447E-06 0 -1
vn -2.567909E-06 0 -1
vn -2.5997217E-06 0 -1
vn -2.5946722E-06 0 -1
vn -2.5952963E-06 1.0100556E-07 -1
vn -2.5991058E-06 1.04893886E-07 -1
vn -2.5641823E-06 1.902159E-07 -1
vn -2.5590555E-06 1.9402366E-07 -1
vn -2.5952254E-06 2.807094E-07 -1
vn -2.5991662E-06 2.8205386E-07 -1
vn -2.597283E-06 3.0484233E-07 -1
vn -2.5970955E-06 3.0481957E-07 -1
vn -2.598974E-06 2.7599435E-07 -1
vn -2.5954082E-06 2.765161E-07 -1
vn -2.5935246E-06 3.0105284E-07 -1
vn -2.6008374E-06 2.983757E-07 -1
vn -2.5278737E-06 4.2033247E-07 -1
vn -2.5241904E-06 4.1230692E-07 -1
vn -2.5996483E-06 5.2532226E-07 -1
vn -2.5947263E-06 5.212497E-07 -1
vn -2.5554486E-06 5.2485575E-07 -1
vn -2.5677568E-06 5.292921E-07 -1
vn -2.529706E-06 4.819336E-07 -1
vn -2.5223314E-06 4.8559554E-07 -1
vn -2.6014611E-06 4.9579563E-07 -1
vn -2.5928728E-06 4.894004E-07 -1
vn -2.51133E-06 5.847657E-07 -1
vn -2.5406903E-06 5.688845E-07 -1
vn -2.5835354E-06 6.06384E-07 -1
vn -2.539649E-06 6.139111E-07 -1
vn -2.7038966E-06 5.857406E-07 -1
vn -2.7038964E-06 5.8574057E-07 -1
vn -2.5327574E-06 1.6704793E-06 -1
vn -2.5327574E-06 1.6704793E-06 -1
vn -2.5664808E-06 1.6692779E-06 -1
vn -2.5781835E-06 1.668861E-06 -1
vn -2.61191E-06 1.6353013E-06 -1
vn -2.611912E-06 1.6255813E-06 -1
vn -2.5768154E-06 1.5314597E-06 -1
vn -2.5678612E-06 1.5157035E-06 -1
vn -2.532761E-06 1.4213002E-06 -1
vn -2.5327615E-06 1.4144091E-06 -1
vn -2.6057612E-06 1.3564E-06 -1
vn -2.6180596E-06 1.3521259E-06 -1
vn -2.616637E-06 1.2847657E-06 -1
vn -2.6071734E-06 1.2794255E-06 -1
vn -2.5327674E-06 1.2524466E-06 -1
vn -2.5327681E-06 1.253756E-06 -1
vn -2.5327745E-06 1.2840562E-06 -1
vn -2.5327747E-06 1.2847988E-06 -1
vn -2.5327727E-06 1.2642038E-06 -1
vn -2.5327731E-06 1.2637996E-06 -1
vn -2.5728455E-06 1.2162125E-06 -1
vn -2.5718548E-06 1.2165018E-06 -1
vn -2.5711402E-06 1.1956494E-06 -1
vn -2.573563E-06 1.1961929E-06 -1
vn -2.6157807E-06 1.1416606E-06 -1
vn -2.6080784E-06 1.1458723E-06 -1
vn -2.6066566E-06 1.069669E-06 -1
vn -2.6172029E-06 1.0735196E-06 -1
vn -2.5327843E-06 1.0035709E-06 -1
vn -2.5327854E-06 1.0096675E-06 -1
vn -2.576398E-06 8.945828E-07 -1
vn -2.5683084E-06 9.0866996E-07 -1
vn -2.5676143E-06 8.290795E-07 -1
vn -2.5770933E-06 8.298577E-07 -1
vn -2.532788E-06 8.439985E-07 -1
vn -2.5327877E-06 8.397099E-07 -1
vn -2.578471E-06 8.3373465E-07 -1
vn -2.566256E-06 8.40086E-07 -1
vn -2.6119396E-06 7.727547E-07 -1
vn -2.6119383E-06 7.8550096E-07 -1
vn -2.6119444E-06 7.4192286E-07 -1
vn -2.611944E-06 7.419228E-07 -1
vn -2.693332E-06 6.075156E-07 -1
vn -2.894149E-06 5.8770127E-07 -1
vn -2.894149E-06 5.8770127E-07 -1
vn -2.6201114E-06 6.1474015E-07 -1
vn -2.5002219E-06 6.0343984E-07 -1
vn -2.4806482E-06 6.1096455E-07 -1
vn -1.9253243E-06 7.3319586E-07 -1
vn -2.0623677E-06 7.0016677E-07 -1
vn -1.4260658E-06 8.535234E-07 -1
vn -1.4260658E-06 8.535233E-07 -1
vn -2.4787441E-06 -0.005666426 -0.999984
vn -2.4787444E-06 -0.0056664264 -0.999984
vn -2.9374116E-06 -0.0056666587 -0.999984
vn -2.8147645E-06 -0.005666597 -0.999984
vn -2.158514E-06 -0.0056668045 -0.999984
vn -2.4845883E-06 -0.005666811 -0.999984
vn -2.5336053E-06 -0.0056672306 -0.999984
vn -3.0433907E-06 -0.0056674243 -0.999984
vn 0.6300079 0.17426649 -0.7567834
vn 0.7454054 0.20767109 -0.6334378
vn 0.96208936 0.27269793 0.0044812057
vn 0.96208936 0.27269796 0.0044812057
vn 0.95891154 0.28365996 -0.005063241
vn 0.95891154 0.28365996 -0.005063241
vn 0.95891154 0.28365996 -0.005063241
vn 0.95891154 0.28365996 -0.005063241
g 0003_0
f 3/3/3 2/2/2 1/1/1
f 4/4/4 3/3/3 1/1/1
f 5/5/5 3/3/3 4/4/4
f 6/6/6 5/5/5 4/4/4
f 7/7/7 5/5/5 6/6/6
f 8/8/8 7/7/7 6/6/6
f 9/9/9 7/7/7 8/8/8
f 10/10/10 9/9/9 8/8/8
f 11/11/11 9/9/9 10/10/10
f 12/12/12 11/11/11 10/10/10
f 13/13/13 11/11/11 12/12/12
f 14/14/14 13/13/13 12/12/12
f 15/15/15 13/13/13 14/14/14
f 16/16/16 15/15/15 14/14/14
f 17/17/17 15/15/15 16/16/16
f 18/18/18 17/17/17 16/16/16
f 19/19/19 17/17/17 18/18/18
f 20/20/20 19/19/19 18/18/18
f 21/21/21 19/19/19 20/20/20
f 22/22/22 21/21/21 20/20/20
f 23/23/23 21/21/21 22/22/22
f 24/24/24 23/23/23 22/22/22
f 25/25/25 23/23/23 24/24/24
f 26/26/26 25/25/25 24/24/24
f 27/27/27 25/25/25 26/26/26
f 28/28/28 27/27/27 26/26/26
f 29/29/29 27/27/27 28/28/28
f 30/30/30 29/29/29 28/28/28
f 31/31/31 29/29/29 30/30/30
f 32/32/32 31/31/31 30/30/30
f 33/33/33 31/31/31 32/32/32
f 34/34/34 33/33/33 32/32/32
f 35/35/35 33/33/33 34/34/34
f 36/36/36 35/35/35 34/34/34
f 37/37/37 35/35/35 36/36/36
f 38/38/38 37/37/37 36/36/36
f 39/39/39 37/37/37 38/38/38
f 40/40/40 39/39/39 38/38/38
f 41/41/41 39/39/39 40/40/40
f 42/42/42 41/41/41 40/40/40
f 45/45/45 44/44/44 43/43/43
f 46/46/46 45/45/45 43/43/43
f 47/47/47 45/45/45 46/46/46
f 48/48/48 47/47/47 46/46/46
f 49/49/49 47/47/47 48/48/48
f 50/50/50 49/49/49 48/48/48
f 51/51/51 49/49/49 50/50/50
f 52/52/52 51/51/51 50/50/50
f 53/53/53 51/51/51 52/52/52
f 54/54/54 53/53/53 52/52/52
f 55/55/55 53/53/53 54/54/54
f 56/56/56 55/55/55 54/54/54
f 57/57/57 55/55/55 56/56/56
f 58/58/58 57/57/57 56/56/56
f 59/59/59 57/57/57 58/58/58
f 60/60/60 59/59/59 58/58/58
f 61/61/61 59/59/59 60/60/60
f 62/62/62 61/61/61 60/60/60
f 63/63/63 61/61/61 62/62/62
f 64/64/64 63/63/63 62/62/62
f 65/65/65 63/63/63 64/64/64
f 66/66/66 65/65/65 64/64/64
f 67/67/67 65/65/65 66/66/66
f 68/68/68 67/67/67 66/66/66
f 69/69/69 67/67/67 68/68/68
f 70/70/70 69/69/69 68/68/68
f 71/71/71 69/69/69 70/70/70
f 72/72/72 71/71/71 70/70/70
f 73/73/73 71/71/71 72/72/72
f 74/74/74 73/73/73 72/72/72
f 75/75/75 73/73/73 74/74/74
f 76/76/76 75/75/75 74/74/74
f 77/77/77 75/75/75 76/76/76
f 78/78/78 77/77/77 76/76/76
f 79/79/79 77/77/77 78/78/78
f 80/80/80 79/79/79 78/78/78
f 81/81/81 79/79/79 80/80/80
f 82/82/82 81/81/81 80/80/80
f 83/83/83 81/81/81 82/82/82
f 84/84/84 83/83/83 82/82/82
f 87/87/87 86/86/86 85/85/85
f 88/88/88 87/87/87 85/85/85
f 88/88/88 85/85/85 89/89/89
f 85/85/85 90/90/90 89/89/89
f 89/89/89 90/90/90 91/91/91
f 90/90/90 92/92/92 91/91/91
f 92/92/92 93/93/93 91/91/91
f 93/93/93 94/94/94 91/91/91
f 97/97/97 96/96/96 95/95/95
f 98/98/98 97/97/97 95/95/95
f 99/99/99 97/97/97 98/98/98
f 100/100/100 99/99/99 98/98/98
f 100/100/100 101/101/101 99/99/99
f 101/101/101 102/102/102 99/99/99
f 102/102/102 101/101/101 103/103/103
f 104/104/104 102/102/102 103/103/103
f 104/104/104 103/103/103 105/105/105
f 106/106/106 104/104/104 105/105/105
f 109/109/109 108/108/108 107/107/107
f 110/110/110 109/109/109 107/107/107
