g Aokaku_Weapon_003
v 0.08851443 -0.02124812 0.80393815
v 0.25539476 0.021061504 0.80393
v 0.5930521 0.020879926 0.80389434
v 0.59174496 -0.021290367 0.80390286
v 0.59174496 -0.021290367 0.80390286
v 0.5930521 0.020879926 0.80389434
v 0.591712 0.020994842 0.28310442
v 0.5917085 -0.021248896 0.28310132
v 0.5917122 0.020991547 0.28382918
v 0.088396415 0.021236494 -0.80395865
v 0.5916363 0.021190954 -0.8039912
v 0.25539476 0.021061504 0.80393
v 0.5930521 0.020879926 0.80389434
v 0.089117885 -0.021120416 -0.803237
v 0.59090817 -0.021162467 -0.8032688
v 0.5916363 0.021190954 -0.8039912
v 0.088396415 0.021236494 -0.80395865
v 0.5917122 0.020991547 0.28382918
v 0.5916363 0.021190954 -0.8039912
v 0.59090817 -0.021162467 -0.8032688
v 0.5909836 -0.021248896 0.28310132
v 0.5909836 -0.021248896 0.28310132
v 0.59090817 -0.021162467 -0.8032688
v 0.44578436 -0.02115433 -0.7534602
v 0.4458547 -0.021236688 0.2831114
v 0.59090817 -0.021162467 -0.8032688
v 0.089156836 -0.021124292 -0.7533249
v 0.089117885 -0.021120416 -0.803237
v 0.4458547 -0.021236688 0.2831114
v 0.59174496 -0.021290367 0.8039021
v 0.5917085 -0.021248896 0.28310132
v 0.08851424 -0.02124812 0.80393815
v 0.088405326 -0.021124292 -0.753435
v 0.44578436 -0.02115433 -0.7534602
v -0.10044167 -0.0212332 0.8039529
v -0.603672 -0.021190954 0.80398774
v -0.60366714 0.02099368 0.8039912
v -0.2673152 0.021104913 0.80396795
v -0.603672 -0.021190954 0.80398774
v -0.60370904 -0.021149484 0.2831862
v -0.60370535 0.021094061 0.28318968
v -0.60366714 0.02099368 0.8039912
v -0.60370535 0.021090766 0.28391445
v -0.6037825 0.021290367 -0.8039063
v -0.10054244 0.02125161 -0.8039451
v -0.2673152 0.021104913 0.80396795
v -0.60366714 0.02099368 0.8039912
v -0.10127127 -0.0211053 -0.80322343
v -0.10054244 0.02125161 -0.8039451
v -0.6037825 0.021290367 -0.8039063
v -0.6030612 -0.02106325 -0.8031843
v -0.60370535 0.021090766 0.28391445
v -0.6029841 -0.021149678 0.2831862
v -0.6030612 -0.02106325 -0.8031843
v -0.6037825 0.021290367 -0.8039063
v -0.6029841 -0.021149678 0.2831862
v -0.45785534 -0.021161692 0.28317612
v -0.45793054 -0.021079333 -0.7533963
v -0.6030612 -0.02106325 -0.8031843
v -0.6030612 -0.02106325 -0.8031843
v -0.10130305 -0.021109177 -0.753311
v -0.10127127 -0.0211053 -0.80322343
v -0.45785534 -0.021161692 0.28317612
v -0.60370904 -0.021149484 0.2831862
v -0.6036724 -0.021190954 0.8039873
v -0.10044167 -0.0212332 0.80395246
v -0.10055174 -0.021109177 -0.7534214
v -0.45793054 -0.021079333 -0.7533963
vt 0.40370268 0.27392194
vt 0.40370265 0.28016216
vt 0.48056644 0.2801416
vt 0.48056662 0.27392194
vt 0.32210845 0.2731459
vt 0.3221096 0.2794764
vt 0.40026432 0.27947146
vt 0.40026307 0.27313203
vt 0.35534793 0.28634563
vt 0.42965353 0.32196197
vt 0.42965555 0.28635025
vt 0.31982 0.32195452
vt 0.31982222 0.2863435
vt 0.31936797 0.33145094
vt 0.39601767 0.33145094
vt 0.39612457 0.32520562
vt 0.31926098 0.32520512
vt 0.48535407 0.2653704
vt 0.32210845 0.2653553
vt 0.32221738 0.27171198
vt 0.48524553 0.27171028
vt 0.54941344 0.22244802
vt 0.30413198 0.22244781
vt 0.31537557 0.2593001
vt 0.54941344 0.2593007
vt 0.30413198 0.22244781
vt 0.31540027 0.33981982
vt 0.30413118 0.33982778
vt 0.41966212 0.50964797
vt 0.6284154 0.443932
vt 0.41966212 0.443932
vt 0.6284155 0.65289557
vt 0.0041717193 0.6528954
vt 0.0041717193 0.5096472
vt 0.40370268 0.27392194
vt 0.48056662 0.27392194
vt 0.48056644 0.2801416
vt 0.40370265 0.28016216
vt 0.32210845 0.2731459
vt 0.40026307 0.27313203
vt 0.40026432 0.27947146
vt 0.3221096 0.2794764
vt 0.35534793 0.28634563
vt 0.42965555 0.28635025
vt 0.42965353 0.32196197
vt 0.31982 0.32195452
vt 0.31982222 0.2863435
vt 0.31936797 0.33145094
vt 0.31926098 0.32520512
vt 0.39612457 0.32520562
vt 0.39601767 0.33145094
vt 0.48535407 0.2653704
vt 0.48524553 0.27171028
vt 0.32221738 0.27171198
vt 0.32210845 0.2653553
vt 0.54941344 0.22244802
vt 0.54941344 0.2593007
vt 0.31537557 0.2593001
vt 0.30413198 0.22244781
vt 0.30413198 0.22244781
vt 0.31540027 0.33981982
vt 0.30413118 0.33982778
vt 0.41966212 0.50964797
vt 0.41966212 0.443932
vt 0.6284154 0.443932
vt 0.6284155 0.65289557
vt 0.0041717193 0.6528954
vt 0.0041717193 0.5096472
vn -0 0 1
vn -0 0 1
vn -0 0 1
vn -0 0 1
vn 0.9999988 0 -0.0015261332
vn 1 0 0
vn 1 0 0
vn 0.9999988 0 -0.0015261332
vn -0 1 0
vn -0 1 0
vn 0.00076277537 0.99999857 0.0015255507
vn -0 1 0
vn 0.00038138824 1 0
vn -0 -0.016765937 -0.99985945
vn -0.0007620877 -0.01676593 -0.9998591
vn -0 -0.016791526 -0.999859
vn -0 -0.016765937 -0.99985945
vn 0.999846 -0.01754785 0
vn 0.9998591 -0.01678512 0
vn 0.99984574 -0.017561246 0
vn 0.99985886 -0.016797936 0
vn -0.00076277636 -0.99999976 0
vn -0.00076277636 -0.99999976 0
vn -0 -1 0
vn -0 -1 0
vn -0.00076277636 -0.99999976 0
vn -0 -1 0
vn -0 -1 0
vn -0 -1 0
vn -0 -0.9999988 -0.0015255512
vn -0.00076277537 -0.99999857 -0.0015255507
vn -0 -1 0
vn -0 -1 0
vn -0 -1 0
vn -0 0 1
vn -0 0 1
vn -0 0 1
vn -0 0 1
vn -1 0 0
vn -1 0 0
vn -1 0 0
vn -1 0 0
vn -0 1 0
vn -0 1 0
vn -0 1 0
vn -0 1 0
vn -0 1 0
vn -0 -0.016791526 -0.999859
vn -0.00076207786 -0.017527793 -0.9998461
vn -0.00076325086 -0.01679152 -0.99985874
vn -0 -0.016765937 -0.99985945
vn -0.9998592 -0.01677872 0
vn -0.9998592 -0.01677872 0
vn -0.9998592 -0.01677872 0
vn -0.9998592 -0.01677872 0
vn -0 -1 0
vn -0 -0.9999988 -0.0015255512
vn -0 -1 0
vn -0 -1 0
vn -0 -1 0
vn -0 -1 0
vn -0 -1 0
vn -0 -0.9999988 -0.0015255512
vn -0 -1 0
vn -0 -1 0
vn -0 -0.9999988 -0.0015267156
vn -0 -1 0
vn -0 -1 0
g Aokaku_Weapon_003_0
f 3/3/3 2/2/2 1/1/1
f 4/4/4 3/3/3 1/1/1
f 7/7/7 6/6/6 5/5/5
f 8/8/8 7/7/7 5/5/5
f 11/11/11 10/10/10 9/9/9
f 10/10/10 12/12/12 9/9/9
f 12/12/12 13/13/13 9/9/9
f 16/16/16 15/15/15 14/14/14
f 17/17/17 16/16/16 14/14/14
f 20/20/20 19/19/19 18/18/18
f 21/21/21 20/20/20 18/18/18
f 24/24/24 23/23/23 22/22/22
f 25/25/25 24/24/24 22/22/22
f 24/24/24 27/27/27 26/26/26
f 27/27/27 28/28/28 26/26/26
f 31/31/31 30/30/30 29/29/29
f 30/30/30 32/32/32 29/29/29
f 32/32/32 33/33/33 29/29/29
f 33/33/33 34/34/34 29/29/29
f 37/37/37 36/36/36 35/35/35
f 38/38/38 37/37/37 35/35/35
f 41/41/41 40/40/40 39/39/39
f 42/42/42 41/41/41 39/39/39
f 45/45/45 44/44/44 43/43/43
f 46/46/46 45/45/45 43/43/43
f 47/47/47 46/46/46 43/43/43
f 50/50/50 49/49/49 48/48/48
f 51/51/51 50/50/50 48/48/48
f 54/54/54 53/53/53 52/52/52
f 55/55/55 54/54/54 52/52/52
f 58/58/58 57/57/57 56/56/56
f 59/59/59 58/58/58 56/56/56
f 61/61/61 58/58/58 60/60/60
f 62/62/62 61/61/61 60/60/60
f 65/65/65 64/64/64 63/63/63
f 66/66/66 65/65/65 63/63/63
f 67/67/67 66/66/66 63/63/63
f 68/68/68 67/67/67 63/63/63
