g Circle004
v -0.3964166 -3.825352E-07 0.086982496
v -0.6092593 -3.6836164E-07 -1.4190674E-05
v -0.40578306 -3.683624E-07 -9.384155E-06
v -0.59518707 -3.8962315E-07 0.13048813
v -0.81273526 -3.6836087E-07 -1.8997192E-05
v -0.36963928 -3.9565268E-07 0.16749679
v -0.7939578 -3.967111E-07 0.17399368
v -0.55488217 -4.0936857E-07 0.2516844
v -0.32743806 -4.0739235E-07 0.23955458
v -0.7401254 -4.230844E-07 0.33587188
v -0.49152678 -4.2699529E-07 0.3598764
v -0.27180022 -4.1743004E-07 0.30116546
v -0.6556158 -4.4659816E-07 0.48019806
v -0.40818846 -4.4203094E-07 0.45216444
v -0.20471862 -4.254409E-07 0.35033593
v -0.544577 -4.6663175E-07 0.6031634
v -0.3076169 -4.5404008E-07 0.5258763
v -0.12818573 -4.3110077E-07 0.385076
v -0.41051543 -4.826392E-07 0.7014166
v -0.19252472 -4.6255042E-07 0.5781122
v -0.04418701 -4.3408602E-07 0.4033992
v -0.2568637 -4.94E-07 0.7711484
v -0.066147156 -4.6704287E-07 0.6056866
v 0.04417755 -4.3408616E-07 0.4034001
v -0.08810791 -4.9999966E-07 0.8079742
v 0.066133425 -4.670431E-07 0.60568815
v 0.12817688 -4.3110128E-07 0.38507882
v 0.088089295 -5E-07 0.80797607
v 0.19251144 -4.625511E-07 0.5781164
v 0.20471084 -4.2544164E-07 0.35034043
v 0.256846 -4.940009E-07 0.77115417
v 0.30760545 -4.5404119E-07 0.52588284
v 0.2717938 -4.1743098E-07 0.30117118
v 0.41049972 -4.826407E-07 0.7014258
v 0.40817887 -4.420323E-07 0.45217323
v 0.32743284 -4.073935E-07 0.2395616
v 0.5445642 -4.6663362E-07 0.60317487
v 0.491519 -4.26997E-07 0.3598869
v 0.36963576 -3.9565396E-07 0.16750473
v 0.6556056 -4.466004E-07 0.480212
v 0.554877 -4.0937047E-07 0.25169623
v 0.39641464 -3.8253665E-07 0.08699142
v 0.7401181 -4.2308704E-07 0.33588776
v 0.5951843 -3.8962534E-07 0.13050155
v 0.40578324 -3.6836386E-07 -5.340576E-07
v 0.79395384 -3.9671406E-07 0.1740116
v 0.6092592 -3.6836929E-07 3.250122E-05
v 0.3964145 -3.541912E-07 -0.08699165
v 0.81273526 -3.6837466E-07 6.55365E-05
v 0.595184 -3.4710249E-07 -0.13050205
v 0.3696353 -3.410739E-07 -0.16750519
v 0.79395354 -3.4001374E-07 -0.17401245
v 0.55487627 -3.273573E-07 -0.25169715
v 0.32743225 -3.2933434E-07 -0.23956199
v 0.7401172 -3.136407E-07 -0.33588913
v 0.49151823 -3.0973086E-07 -0.35988766
v 0.27179322 -3.1929693E-07 -0.30117133
v 0.65560424 -2.901273E-07 -0.4802133
v 0.4081781 -2.9469558E-07 -0.45217344
v 0.20471008 -3.1128627E-07 -0.35034043
v 0.544563 -2.7009418E-07 -0.60317564
v 0.30760404 -2.826867E-07 -0.5258833
v 0.12817627 -3.056267E-07 -0.38507855
v 0.4104982 -2.5408713E-07 -0.70142615
v 0.19251068 -2.7417687E-07 -0.5781163
v 0.04417694 -3.0264178E-07 -0.40339983
v 0.2568451 -2.4272703E-07 -0.7711541
v 0.0661322 -2.696849E-07 -0.6056879
v -0.044187926 -3.0264195E-07 -0.40339866
v 0.08808777 -2.3672797E-07 -0.807976
v -0.06614868 -2.696852E-07 -0.60568607
v -0.12818664 -3.0562725E-07 -0.38507515
v -0.08810943 -2.3672837E-07 -0.80797356
v -0.19252624 -2.741777E-07 -0.5781112
v -0.20471923 -3.1128715E-07 -0.35033503
v -0.25686583 -2.4272813E-07 -0.7711474
v -0.30761778 -2.82688E-07 -0.5258752
v -0.27180085 -3.1929804E-07 -0.30116442
v -0.41051665 -2.540889E-07 -0.70141536
v -0.4081894 -2.9469726E-07 -0.4521631
v -0.32743835 -3.2933573E-07 -0.2395534
v -0.54457825 -2.7009642E-07 -0.6031618
v -0.4915277 -3.097329E-07 -0.35987478
v -0.36963987 -3.410755E-07 -0.16749541
v -0.65561676 -2.901301E-07 -0.48019615
v -0.5548831 -3.273597E-07 -0.25168246
v -0.39641693 -3.5419296E-07 -0.08698104
v -0.740126 -3.1364385E-07 -0.33586955
v -0.59518766 -3.4710507E-07 -0.13048607
v -0.40578306 -3.6836587E-07 1.15966795E-05
v -0.7939584 -3.400172E-07 -0.17399108
v -0.6092593 -3.6836047E-07 -2.1438598E-05
v -0.81273526 -3.683551E-07 -5.4473876E-05
vt 0.96666706 0
vt 1.0000004 0.5
vt 1.0000004 0
vt 0.96666706 0.5
vt 1.0000004 1
vt 0.9333337 0
vt 0.96666706 1
vt 0.9333337 0.5
vt 0.90000033 0
vt 0.9333337 1
vt 0.90000033 0.5
vt 0.866667 0
vt 0.90000033 1
vt 0.866667 0.5
vt 0.8333336 0
vt 0.866667 1
vt 0.8333336 0.5
vt 0.80000025 0
vt 0.8333336 1
vt 0.80000025 0.5
vt 0.7666669 0
vt 0.80000025 1
vt 0.7666669 0.5
vt 0.7333335 0
vt 0.7666669 1
vt 0.7333335 0.5
vt 0.70000017 0
vt 0.7333335 1
vt 0.70000017 0.5
vt 0.6666668 0
vt 0.70000017 1
vt 0.6666668 0.5
vt 0.63333344 0
vt 0.6666668 1
vt 0.63333344 0.5
vt 0.6000001 0
vt 0.63333344 1
vt 0.6000001 0.5
vt 0.5666667 0
vt 0.6000001 1
vt 0.5666667 0.5
vt 0.53333336 0
vt 0.5666667 1
vt 0.53333336 0.5
vt 0.5 0
vt 0.53333336 1
vt 0.5 0.5
vt 0.46666667 0
vt 0.5 1
vt 0.46666667 0.5
vt 0.43333334 0
vt 0.46666667 1
vt 0.43333334 0.5
vt 0.4 0
vt 0.43333334 1
vt 0.4 0.5
vt 0.36666667 0
vt 0.4 1
vt 0.36666667 0.5
vt 0.33333334 0
vt 0.36666667 1
vt 0.33333334 0.5
vt 0.3 0
vt 0.33333334 1
vt 0.3 0.5
vt 0.26666668 0
vt 0.3 1
vt 0.26666668 0.5
vt 0.23333333 0
vt 0.26666668 1
vt 0.23333333 0.5
vt 0.2 0
vt 0.23333333 1
vt 0.2 0.5
vt 0.16666667 0
vt 0.2 1
vt 0.16666667 0.5
vt 0.13333334 0
vt 0.16666667 1
vt 0.13333334 0.5
vt 0.10000001 0
vt 0.13333334 1
vt 0.10000001 0.5
vt 0.06666667 0
vt 0.10000001 1
vt 0.06666667 0.5
vt 0.033333335 0
vt 0.06666667 1
vt 0.033333335 0.5
vt 0 0
vt 0.033333335 1
vt 0 0.5
vt 0 1
vn -0 1 1.6292084E-07
vn -0 1 1.629206E-07
vn -0 1 1.6292073E-07
vn -0 1 1.6292073E-07
vn -0 1 1.6292051E-07
vn -0 1 1.6292076E-07
vn -0 1 1.6292063E-07
vn -0 1 1.6292073E-07
vn -0 1 1.6292073E-07
vn -0 1 1.6292071E-07
vn -0 1 1.6292068E-07
vn -0 1 1.6292073E-07
vn -0 1 1.6292066E-07
vn -0 1 1.6292068E-07
vn -0 1 1.629207E-07
vn -0 1 1.6292064E-07
vn -0 1 1.6292071E-07
vn -0 1 1.6292088E-07
vn -0 1 1.6292071E-07
vn -0 1 1.6292078E-07
vn -0 1 1.6292088E-07
vn -0 1 1.6292068E-07
vn -0 1 1.6292071E-07
vn -0 1 1.6292076E-07
vn -0 1 1.6292057E-07
vn -0 1 1.6292068E-07
vn -0 1 1.6292073E-07
vn -0 1 1.629206E-07
vn -0 1 1.6292068E-07
vn -0 1 1.6292076E-07
vn -0 1 1.629206E-07
vn -0 1 1.6292068E-07
vn -0 1 1.6292073E-07
vn -0 1 1.629206E-07
vn -0 1 1.6292073E-07
vn -0 1 1.6292073E-07
vn -0 1 1.6292068E-07
vn -0 1 1.6292071E-07
vn -0 1 1.6292068E-07
vn -0 1 1.629207E-07
vn -0 1 1.6292071E-07
vn -0 1 1.629206E-07
vn -0 1 1.6292073E-07
vn -0 1 1.629206E-07
vn -0 1 1.629206E-07
vn -0 1 1.629206E-07
vn -0 1 1.6292059E-07
vn -0 1 1.629207E-07
vn -0 1 1.6292059E-07
vn -0 1 1.6292071E-07
vn -0 1 1.629206E-07
vn -0 1 1.6292073E-07
vn -0 1 1.6292064E-07
vn -0 1 1.6292056E-07
vn -0 1 1.6292068E-07
vn -0 1 1.6292066E-07
vn -0 1 1.6292063E-07
vn -0 1 1.6292073E-07
vn -0 1 1.6292071E-07
vn -0 1 1.6292066E-07
vn -0 1 1.6292078E-07
vn -0 1 1.6292068E-07
vn -0 1 1.6292064E-07
vn -0 1 1.6292071E-07
vn -0 1 1.6292066E-07
vn -0 1 1.6292059E-07
vn -0 1 1.6292068E-07
vn -0 1 1.6292066E-07
vn -0 1 1.6292056E-07
vn -0 1 1.6292071E-07
vn -0 1 1.6292066E-07
vn -0 1 1.6292059E-07
vn -0 1 1.6292071E-07
vn -0 1 1.6292064E-07
vn -0 1 1.6292064E-07
vn -0 1 1.6292066E-07
vn -0 1 1.6292068E-07
vn -0 1 1.6292063E-07
vn -0 1 1.6292073E-07
vn -0 1 1.6292068E-07
vn -0 1 1.6292064E-07
vn -0 1 1.6292078E-07
vn -0 1 1.6292068E-07
vn -0 1 1.6292068E-07
vn -0 1 1.6292074E-07
vn -0 1 1.6292068E-07
vn -0 1 1.629207E-07
vn -0 1 1.6292068E-07
vn -0 1 1.6292071E-07
vn -0 1 1.6292078E-07
vn -0 1 1.6292071E-07
vn -0 1 1.629208E-07
vn -0 1 1.629208E-07
g Circle004_0
f 3/3/3 2/2/2 1/1/1
f 2/2/2 4/4/4 1/1/1
f 2/2/2 5/5/5 4/4/4
f 1/1/1 4/4/4 6/6/6
f 5/5/5 7/7/7 4/4/4
f 4/4/4 8/8/8 6/6/6
f 4/4/4 7/7/7 8/8/8
f 6/6/6 8/8/8 9/9/9
f 7/7/7 10/10/10 8/8/8
f 8/8/8 11/11/11 9/9/9
f 8/8/8 10/10/10 11/11/11
f 9/9/9 11/11/11 12/12/12
f 10/10/10 13/13/13 11/11/11
f 11/11/11 14/14/14 12/12/12
f 11/11/11 13/13/13 14/14/14
f 12/12/12 14/14/14 15/15/15
f 13/13/13 16/16/16 14/14/14
f 14/14/14 17/17/17 15/15/15
f 14/14/14 16/16/16 17/17/17
f 15/15/15 17/17/17 18/18/18
f 16/16/16 19/19/19 17/17/17
f 17/17/17 20/20/20 18/18/18
f 17/17/17 19/19/19 20/20/20
f 18/18/18 20/20/20 21/21/21
f 19/19/19 22/22/22 20/20/20
f 20/20/20 23/23/23 21/21/21
f 20/20/20 22/22/22 23/23/23
f 21/21/21 23/23/23 24/24/24
f 22/22/22 25/25/25 23/23/23
f 23/23/23 26/26/26 24/24/24
f 23/23/23 25/25/25 26/26/26
f 24/24/24 26/26/26 27/27/27
f 25/25/25 28/28/28 26/26/26
f 26/26/26 29/29/29 27/27/27
f 26/26/26 28/28/28 29/29/29
f 27/27/27 29/29/29 30/30/30
f 28/28/28 31/31/31 29/29/29
f 29/29/29 32/32/32 30/30/30
f 29/29/29 31/31/31 32/32/32
f 30/30/30 32/32/32 33/33/33
f 31/31/31 34/34/34 32/32/32
f 32/32/32 35/35/35 33/33/33
f 32/32/32 34/34/34 35/35/35
f 33/33/33 35/35/35 36/36/36
f 34/34/34 37/37/37 35/35/35
f 35/35/35 38/38/38 36/36/36
f 35/35/35 37/37/37 38/38/38
f 36/36/36 38/38/38 39/39/39
f 37/37/37 40/40/40 38/38/38
f 38/38/38 41/41/41 39/39/39
f 38/38/38 40/40/40 41/41/41
f 39/39/39 41/41/41 42/42/42
f 40/40/40 43/43/43 41/41/41
f 41/41/41 44/44/44 42/42/42
f 41/41/41 43/43/43 44/44/44
f 42/42/42 44/44/44 45/45/45
f 43/43/43 46/46/46 44/44/44
f 44/44/44 47/47/47 45/45/45
f 44/44/44 46/46/46 47/47/47
f 45/45/45 47/47/47 48/48/48
f 46/46/46 49/49/49 47/47/47
f 47/47/47 50/50/50 48/48/48
f 47/47/47 49/49/49 50/50/50
f 48/48/48 50/50/50 51/51/51
f 49/49/49 52/52/52 50/50/50
f 50/50/50 53/53/53 51/51/51
f 50/50/50 52/52/52 53/53/53
f 51/51/51 53/53/53 54/54/54
f 52/52/52 55/55/55 53/53/53
f 53/53/53 56/56/56 54/54/54
f 53/53/53 55/55/55 56/56/56
f 54/54/54 56/56/56 57/57/57
f 55/55/55 58/58/58 56/56/56
f 56/56/56 59/59/59 57/57/57
f 56/56/56 58/58/58 59/59/59
f 57/57/57 59/59/59 60/60/60
f 58/58/58 61/61/61 59/59/59
f 59/59/59 62/62/62 60/60/60
f 59/59/59 61/61/61 62/62/62
f 60/60/60 62/62/62 63/63/63
f 61/61/61 64/64/64 62/62/62
f 62/62/62 65/65/65 63/63/63
f 62/62/62 64/64/64 65/65/65
f 63/63/63 65/65/65 66/66/66
f 64/64/64 67/67/67 65/65/65
f 65/65/65 68/68/68 66/66/66
f 65/65/65 67/67/67 68/68/68
f 66/66/66 68/68/68 69/69/69
f 67/67/67 70/70/70 68/68/68
f 68/68/68 71/71/71 69/69/69
f 68/68/68 70/70/70 71/71/71
f 69/69/69 71/71/71 72/72/72
f 70/70/70 73/73/73 71/71/71
f 71/71/71 74/74/74 72/72/72
f 71/71/71 73/73/73 74/74/74
f 72/72/72 74/74/74 75/75/75
f 73/73/73 76/76/76 74/74/74
f 74/74/74 77/77/77 75/75/75
f 74/74/74 76/76/76 77/77/77
f 75/75/75 77/77/77 78/78/78
f 76/76/76 79/79/79 77/77/77
f 77/77/77 80/80/80 78/78/78
f 77/77/77 79/79/79 80/80/80
f 78/78/78 80/80/80 81/81/81
f 79/79/79 82/82/82 80/80/80
f 80/80/80 83/83/83 81/81/81
f 80/80/80 82/82/82 83/83/83
f 81/81/81 83/83/83 84/84/84
f 82/82/82 85/85/85 83/83/83
f 83/83/83 86/86/86 84/84/84
f 83/83/83 85/85/85 86/86/86
f 84/84/84 86/86/86 87/87/87
f 85/85/85 88/88/88 86/86/86
f 86/86/86 89/89/89 87/87/87
f 86/86/86 88/88/88 89/89/89
f 87/87/87 89/89/89 90/90/90
f 88/88/88 91/91/91 89/89/89
f 89/89/89 92/92/92 90/90/90
f 89/89/89 91/91/91 92/92/92
f 91/91/91 93/93/93 92/92/92
