g Circle001
v 0.33505386 0 0
v 0.40201136 -3.2081067E-09 0.07339292
v 0.40860116 0 0
v 0.3830146 -6.2285244E-09 0.14249203
v 0.40201133 3.2081064E-09 -0.07339292
v 0.3527698 -9.0105905E-09 0.20613828
v 0.3830146 6.2285235E-09 -0.14249201
v 0.35276988 9.01059E-09 -0.20613827
v 0.31243625 1.1503643E-08 -0.2631727
v 0.31243628 -1.1503646E-08 0.26317275
v 0.26317275 1.3657023E-08 -0.31243628
v -6.4940022E-09 0 0
v 0.2631727 -1.3657021E-08 0.31243622
v -1.5814576E-08 -1.4645668E-08 0.33505383
v 0.20613828 -1.542006E-08 0.35276985
v 0.14249201 -1.67421E-08 0.38301456
v 2.8265714E-09 1.4645668E-08 -0.33505383
v 0.2061383 1.5420056E-08 -0.35276976
v 0.14249204 1.67421E-08 -0.38301456
v 0.07339293 1.7572473E-08 -0.40201133
v 4.8725206E-09 1.7860524E-08 -0.40860114
v -0.07339292 1.7572471E-08 -0.40201128
v -0.14249203 1.67421E-08 -0.38301456
v -0.20613828 1.542006E-08 -0.35276985
v -0.2631727 1.3657021E-08 -0.31243622
v -0.31243628 1.1503646E-08 -0.26317275
v -0.33505386 1.2803649E-15 -2.9291336E-08
v -0.3527698 9.010591E-09 -0.2061383
v -0.3830146 6.228526E-09 -0.14249207
v -0.40201136 3.2081084E-09 -0.073392965
v -0.40860116 1.5614166E-15 -3.5721047E-08
v -0.40201136 -3.208105E-09 0.07339288
v -0.3830146 -6.228522E-09 0.14249198
v -0.3527699 -9.010589E-09 0.20613824
v -0.31243625 -1.15036425E-08 0.26317266
v -0.26317275 -1.3657022E-08 0.31243625
v -0.20613831 -1.5420056E-08 0.35276976
v -0.14249206 -1.67421E-08 0.38301456
v -1.5814578E-08 -1.4645671E-08 0.3350539
v -0.073392935 -1.7572473E-08 0.40201133
v -1.7860526E-08 -1.7860524E-08 0.40860114
v 1.9181893E-08 -1.46456705E-08 0.33505386
v 0.0733929 -1.7572471E-08 0.40201128
vt 0.80036265 0.5
vt 0.8603874 0.56579393
vt 0.8662949 0.5
vt 0.84335756 0.62773854
vt 0.8603874 0.43420616
vt 0.81624424 0.6847949
vt 0.84335756 0.37226152
vt 0.81624436 0.31520516
vt 0.7800868 0.26407605
vt 0.7800868 0.735924
vt 0.735924 0.21991317
vt 0.5 0.5
vt 0.735924 0.7800869
vt 0.49999997 0.8003627
vt 0.6847949 0.81624436
vt 0.6277385 0.84335756
vt 0.5 0.19963738
vt 0.6847949 0.18375574
vt 0.6277385 0.15664247
vt 0.5657939 0.13961263
vt 0.5 0.13370511
vt 0.43420613 0.13961264
vt 0.37226152 0.15664247
vt 0.3152051 0.18375567
vt 0.264076 0.21991318
vt 0.21991314 0.264076
vt 0.19963735 0.5
vt 0.18375571 0.31520513
vt 0.15664244 0.37226146
vt 0.1396126 0.43420613
vt 0.13370508 0.5
vt 0.1396126 0.5657939
vt 0.15664244 0.62773854
vt 0.18375562 0.6847949
vt 0.21991315 0.735924
vt 0.26407596 0.7800869
vt 0.3152051 0.81624424
vt 0.37226146 0.84335756
vt 0.49999997 0.8003627
vt 0.43420613 0.86038744
vt 0.49999997 0.866295
vt 0.5 0.8003627
vt 0.5657939 0.86038744
vn -0 -1 0
vn -0 -1 0
vn -0 -1 0
vn -0 -1 0
vn -0 -1 0
vn -0 -1 0
vn -0 -1 0
vn -0 -1 0
vn -0 -1 0
vn -0 -1 0
vn -0 -1 0
vn -0 -1 0
vn -0 -1 0
vn -0 -1 0
vn -0 -1 0
vn -0 -1 0
vn -0 -1 0
vn -0 -1 0
vn -0 -1 0
vn -0 -1 0
vn -0 -1 0
vn -0 -1 0
vn -0 -1 0
vn -0 -1 0
vn -0 -1 0
vn -0 -1 0
vn -0 -1 0
vn -0 -1 0
vn -0 -1 0
vn -0 -1 0
vn -0 -1 0
vn -0 -1 0
vn -0 -1 0
vn -0 -1 0
vn -0 -1 0
vn -0 -1 0
vn -0 -1 0
vn -0 -1 0
vn -0 -1 0
vn -0 -1 0
vn -0 -1 0
vn -0 -1 0
vn -0 -1 0
g Circle001_0
f 3/3/3 2/2/2 1/1/1
f 4/4/4 1/1/1 2/2/2
f 3/3/3 1/1/1 5/5/5
f 6/6/6 1/1/1 4/4/4
f 5/5/5 1/1/1 7/7/7
f 7/7/7 1/1/1 8/8/8
f 8/8/8 1/1/1 9/9/9
f 1/1/1 6/6/6 10/10/10
f 11/11/11 9/9/9 1/1/1
f 12/12/12 1/1/1 10/10/10
f 12/12/12 11/11/11 1/1/1
f 10/10/10 13/13/13 12/12/12
f 13/13/13 14/14/14 12/12/12
f 15/15/15 14/14/14 13/13/13
f 15/15/15 16/16/16 14/14/14
f 12/12/12 17/17/17 11/11/11
f 17/17/17 18/18/18 11/11/11
f 19/19/19 18/18/18 17/17/17
f 19/19/19 17/17/17 20/20/20
f 21/21/21 20/20/20 17/17/17
f 21/21/21 17/17/17 22/22/22
f 22/22/22 17/17/17 23/23/23
f 23/23/23 17/17/17 24/24/24
f 24/24/24 17/17/17 25/25/25
f 25/25/25 17/17/17 12/12/12
f 26/26/26 25/25/25 12/12/12
f 12/12/12 27/27/27 26/26/26
f 27/27/27 28/28/28 26/26/26
f 28/28/28 27/27/27 29/29/29
f 29/29/29 27/27/27 30/30/30
f 31/31/31 30/30/30 27/27/27
f 31/31/31 27/27/27 32/32/32
f 32/32/32 27/27/27 33/33/33
f 33/33/33 27/27/27 34/34/34
f 34/34/34 27/27/27 35/35/35
f 35/35/35 27/27/27 12/12/12
f 36/36/36 35/35/35 12/12/12
f 12/12/12 14/14/14 36/36/36
f 14/14/14 37/37/37 36/36/36
f 37/37/37 14/14/14 38/38/38
f 14/14/14 39/39/39 38/38/38
f 38/38/38 39/39/39 40/40/40
f 41/41/41 40/40/40 39/39/39
f 14/14/14 42/42/42 39/39/39
f 41/41/41 39/39/39 42/42/42
f 16/16/16 42/42/42 14/14/14
f 43/43/43 41/41/41 42/42/42
f 43/43/43 42/42/42 16/16/16
