g Device_Prop_Box_005_v_026
v -0.5096223 0.012581112 -0.06437076
v -0.5096223 0.011617314 -0.0142560825
v -0.5096223 0.012581112 -0.014018476
v -0.5096223 0.012581112 -0.06437076
v 0.32631168 0.012581112 0.12243044
v 0.3558696 0.012581112 -0.06437076
v -0.43981937 0.012581112 -0.0026245732
v -0.5096223 0.012581112 -0.014018476
v -0.5096223 0.012581112 -0.06437076
v -0.5096223 -0.012818888 -0.020280764
v -0.5096223 0.011617314 -0.0142560825
v -0.5096223 -0.012818888 -0.06437076
v -0.5096223 -0.012818888 -0.06437076
v 0.35548726 0.0018976554 -0.06437076
v 0.3549607 -0.012818888 -0.06437076
v 0.3558696 0.012581112 -0.06437076
v -0.5096223 0.012581112 -0.06437076
v -0.5096223 -0.012818888 -0.06437076
v 0.3263916 -0.012818888 0.11618116
v -0.5096223 -0.012818888 -0.020280764
v 0.3549607 -0.012818888 -0.06437076
v 0.32631168 0.012581112 0.12243044
v 0.35548726 0.0018976554 -0.06437076
v 0.3558696 0.012581112 -0.06437076
v 0.3549607 -0.012818888 -0.06437076
v 0.3263916 -0.012818888 0.11618116
v -0.43981937 0.012581112 -0.0026245732
v 0.3263916 -0.012818888 0.11618116
v 0.32631168 0.012581112 0.12243044
v -0.5096223 0.011617314 -0.0142560825
v -0.5096223 0.012581112 -0.014018476
v -0.5096223 -0.012818888 -0.020280764
vt 0.639609 0.069198
vt 0.63960904 0.079267144
vt 0.639609 0.07931489
vt 0.639609 0.069198
vt 0.80756706 0.10673049
vt 0.8135059 0.069198
vt 0.653634 0.08160417
vt 0.639609 0.07931489
vt 0.639609 0.069198
vt 0.639609 0.07805665
vt 0.63960904 0.079267144
vt 0.639609 0.069198
vt 0.639609 0.069198
vt 0.8134291 0.069198
vt 0.8133234 0.069198
vt 0.8135059 0.069198
vt 0.639609 0.069198
vt 0.639609 0.069198
vt 0.8075832 0.10547487
vt 0.639609 0.07805665
vt 0.8133234 0.069198
vt 0.025065446 0.1489152
vt 0.01748024 0
vt 0.02589775 0
vt 0.0058850097 0
vt 0.005080558 0.14393336
vt 0.056484643 0.020583648
vt 0.66699046 0
vt 0.66772103 0.020583648
vt 0.00076423644 0.019802628
vt 0.0007943726 0.020583648
vt 0 7.6293944E-08
vn 1 0 0
vn 1 0 0
vn 1 0 0
vn -0 -1 0
vn -0 -1 0
vn -0 -1 0
vn -0 -1 0
vn -0 -1 0
vn 1 0 0
vn 1 0 0
vn 1 0 0
vn 1 0 0
vn -0 0 1
vn -0 0 1
vn -0 0 1
vn -0 0 1
vn -0 0 1
vn -0 1 0
vn -0 1 0
vn -0 1 0
vn -0 1 0
vn -0.98709506 0.035326295 -0.15619011
vn -0.98709506 0.035326295 -0.1561901
vn -0.98709506 0.0353263 -0.15619011
vn -0.9870955 0.035317246 -0.15618968
vn -0.98709524 0.03532143 -0.1561902
vn 0.15653095 0.23641421 -0.95896107
vn 0.15652993 0.23642848 -0.9589577
vn 0.15652992 0.23642938 -0.9589575
vn 0.15653095 0.23641424 -0.95896107
vn 0.15653096 0.23641425 -0.95896107
vn 0.15652993 0.23642845 -0.9589577
g Device_Prop_Box_005_v_026_0
f 3/3/3 2/2/2 1/1/1
f 6/6/6 5/5/5 4/4/4
f 5/5/5 7/7/7 4/4/4
f 7/7/7 8/8/8 4/4/4
f 11/11/11 10/10/10 9/9/9
f 10/10/10 12/12/12 9/9/9
f 15/15/15 14/14/14 13/13/13
f 14/14/14 16/16/16 13/13/13
f 16/16/16 17/17/17 13/13/13
f 20/20/20 19/19/19 18/18/18
f 21/21/21 18/18/18 19/19/19
f 24/24/24 23/23/23 22/22/22
f 23/23/23 25/25/25 22/22/22
f 25/25/25 26/26/26 22/22/22
f 29/29/29 28/28/28 27/27/27
f 28/28/28 30/30/30 27/27/27
f 30/30/30 31/31/31 27/27/27
f 32/32/32 30/30/30 28/28/28
