g Device_Prop_Box_005_v_019
v 0.0073157838 -0.5937742 0.8857313
v -0.051609688 -0.5937742 0.026451267
v -0.051609784 -0.5937742 0.86289865
v 0.15432067 -0.5937742 -0.26564887
v 0.15432067 -0.5937742 0.94269323
v -0.65879214 -0.5937742 -0.1258604
v -0.63667315 -0.5937742 -0.2656488
v -0.6828927 -0.5937742 0.026451267
v -0.6813147 -0.5496736 0.026451267
v -0.051609688 -0.5937742 0.026451267
v -0.6828927 -0.5937742 0.026451267
v -0.051584788 -0.5175097 0.026451292
v -0.6801647 -0.5175368 0.026451267
v -0.051609784 -0.545713 0.8595115
v -0.051584788 -0.5175097 0.026451292
v -0.05160058 -0.5175503 0.8575302
v -0.051609688 -0.5937742 0.026451267
v -0.051609784 -0.5937742 0.86289865
v -0.6332574 -0.4983184 -0.26564884
v -0.051609688 -0.38784406 -0.26564893
v -0.6293043 -0.38784406 -0.26564887
v 0.15432067 -0.5937742 -0.26564887
v -0.63667315 -0.5937742 -0.2656488
v -0.051609688 0.7002607 -0.26564893
v -0.051609688 0.9061909 -0.26564893
v 0.15432067 1.3344489 -0.26564887
v -0.012490565 1.1520096 -0.26564893
v -0.051609688 1.1092255 -0.26564893
v -0.26404008 0.876893 -0.2656489
v -0.23725198 0.9061909 -0.2656489
v -0.42554176 0.7002607 -0.2656489
v -0.051609688 0.7002607 -0.26564893
v -0.051609688 -0.38784406 -0.18944892
v -0.051609688 -0.38784406 -0.26564893
v -0.051609688 0.7002607 -0.18944892
v -0.63400716 -0.38784406 -0.23592713
v -0.051609688 -0.38784406 -0.18944892
v -0.64136153 -0.38784397 -0.1894489
v -0.051609688 -0.38784406 -0.26564893
v -0.6293043 -0.38784406 -0.26564887
v -0.24000274 0.90618443 -0.25603455
v -0.051609688 0.9061396 -0.18944892
v -0.25905415 0.9061396 -0.18944891
v -0.051609688 0.9061909 -0.26564893
v -0.23725198 0.9061909 -0.2656489
v -0.65992045 -0.5176039 -0.101504035
v -0.051584788 -0.5175097 0.026451292
v -0.6801647 -0.5175368 0.026451267
v -0.051468126 -0.5176243 -0.18949252
v -0.6460008 -0.51760745 -0.18947504
v -0.6432009 -0.43924683 -0.1894488
v -0.051468126 -0.5176243 -0.18949252
v -0.6460008 -0.51760745 -0.18947504
v -0.051609688 -0.38784406 -0.18944892
v -0.64136153 -0.38784397 -0.1894489
v 0.07825273 -0.5176668 -0.18953638
v 0.077670306 -0.3908272 -0.18949156
v -0.28897983 0.87341034 -0.18944891
v -0.051609688 0.7002607 -0.18944892
v -0.44729722 0.7002607 -0.1894489
v -0.051609688 0.9061396 -0.18944892
v -0.25905415 0.9061396 -0.18944891
v 0.0777297 0.7003029 -0.18951538
v -0.051609688 0.7002607 -0.18944892
v 0.0777237 0.90622306 -0.18951644
v -0.051609688 0.7002607 -0.18944892
v 0.077670306 -0.3908272 -0.18949156
v -0.051609688 -0.38784406 -0.18944892
v 0.0777297 0.7003029 -0.18951538
v 0.07825273 -0.5176668 -0.18953638
v 0.07806999 -0.30255827 0.026451243
v 0.078263775 -0.5173164 0.026451292
v 0.077670306 -0.3908272 -0.18949156
v 0.0777297 0.7003029 -0.18951538
v 0.078044705 0.80258125 0.026451219
v 0.0777237 0.90622306 -0.18951644
v 0.07775092 1.2744658 -0.18955606
v 0.07793105 1.3110597 -0.07299341
v 0.0780324 1.3422223 0.026451219
v 0.078263775 -0.5173164 0.026451292
v -0.051468126 -0.5176243 -0.18949252
v 0.07825273 -0.5176668 -0.18953638
v -0.051584788 -0.5175097 0.026451292
v -0.051609688 0.9061396 -0.18944892
v -0.051609688 1.1281643 -0.20499659
v -0.051609736 1.1330191 -0.18944892
v -0.051609688 1.1092255 -0.26564893
v -0.051609688 0.9061909 -0.26564893
v 0.0777237 0.90622306 -0.18951644
v 0.036047846 1.2288748 -0.1894947
v 0.07775092 1.2744658 -0.18955606
v -0.051609736 1.1330191 -0.18944892
v -0.051609688 0.9061396 -0.18944892
v -0.051609688 0.7002607 -0.18944892
v -0.44161466 0.7002607 -0.2093522
v -0.44729722 0.7002607 -0.1894489
v -0.42554176 0.7002607 -0.2656489
v -0.051609688 0.7002607 -0.26564893
v -0.051609688 1.1281643 -0.20499659
v 0.036047846 1.2288748 -0.1894947
v -0.051609736 1.1330191 -0.18944892
v -0.012490565 1.1520096 -0.26564893
v -0.051609688 1.1092255 -0.26564893
v 0.07775092 1.2744658 -0.18955606
v 0.15432067 1.3649015 -0.1681237
v 0.15432067 1.3344489 -0.26564887
v 0.10241686 1.3688914 0.026451195
v 0.15432067 1.4042325 -0.04216465
v 0.07793105 1.3110597 -0.07299341
v 0.0780324 1.3422223 0.026451219
v -0.44161466 0.7002607 -0.2093522
v -0.28897983 0.87341034 -0.18944891
v -0.44729722 0.7002607 -0.1894489
v -0.26404008 0.876893 -0.2656489
v -0.42554176 0.7002607 -0.2656489
v -0.24000274 0.90618443 -0.25603455
v -0.25905415 0.9061396 -0.18944891
v -0.23725198 0.9061909 -0.2656489
v 0.07806999 -0.30255827 0.026451243
v 0.12921648 -0.30196568 0.9124003
v 0.07810323 -0.30197886 0.8925957
v 0.15432067 -0.3016747 0.9221073
v 0.15432067 -0.3016746 0.02645117
v 0.078263775 -0.5173164 0.026451292
v 0.078169405 -0.37505937 0.89777184
v 0.07835379 -0.5170002 0.9078468
v 0.07810323 -0.30197886 0.8925957
v 0.07806999 -0.30255827 0.026451243
v -0.051584788 -0.5175097 0.026451292
v 0.033443548 -0.5170734 0.8904499
v -0.05160058 -0.5175503 0.8575302
v 0.07835379 -0.5170002 0.9078468
v 0.078263775 -0.5173164 0.026451292
v 0.15432067 -0.3016746 0.02645117
v 0.15432057 -0.46597677 0.9336867
v 0.15432067 -0.3016747 0.9221073
v 0.15432067 -0.5937742 0.94269323
v 0.15432067 -0.5937742 -0.26564887
v 0.15432067 1.3649015 -0.1681237
v 0.15432067 1.3344489 -0.26564887
v 0.15432067 1.3828192 0.02645117
v 0.15432067 1.4042325 -0.04216465
v -0.05160058 -0.5175503 0.8575302
v -0.051609784 -0.5937742 0.86289865
v -0.051609784 -0.545713 0.8595115
v 0.07835379 -0.5170002 0.9078468
v 0.033443548 -0.5170734 0.8904499
v 0.0073157838 -0.5937742 0.8857313
v 0.15432057 -0.46597677 0.9336867
v 0.15432067 -0.5937742 0.94269323
v 0.078169405 -0.37505937 0.89777184
v 0.12921648 -0.30196568 0.9124003
v 0.15432067 -0.3016747 0.9221073
v 0.07810323 -0.30197886 0.8925957
v -0.6460008 -0.51760745 -0.18947504
v -0.64136153 -0.38784397 -0.1894489
v -0.6432009 -0.43924683 -0.1894488
v -0.63400716 -0.38784406 -0.23592713
v -0.6332574 -0.4983184 -0.26564884
v -0.6293043 -0.38784406 -0.26564887
v -0.65879214 -0.5937742 -0.1258604
v -0.63667315 -0.5937742 -0.2656488
v -0.65992045 -0.5176039 -0.101504035
v -0.6813147 -0.5496736 0.026451267
v -0.6828927 -0.5937742 0.026451267
v -0.6801647 -0.5175368 0.026451267
v 0.117394045 1.3729104 0.026451195
v 0.0780324 1.3422223 0.026451219
v 0.10241686 1.3688914 0.026451195
v 0.078044705 0.80258125 0.026451219
v 0.13603254 1.3779118 0.026451195
v 0.07806999 -0.30255827 0.026451243
v 0.15432067 1.3828192 0.02645117
v 0.15432067 -0.3016746 0.02645117
v 0.15432067 1.4042325 -0.04216465
v 0.117394045 1.3729104 0.026451195
v 0.10241686 1.3688914 0.026451195
v 0.13603254 1.3779118 0.026451195
v 0.15432067 1.3828192 0.02645117
vt 0.95673466 0.24340117
vt 0.9445338 0.0654813
vt 0.9445338 0.2386735
vt 0.987173 0.005
vt 0.987173 0.25519562
vt 0.8188125 0.03394415
vt 0.8233924 0.005
vt 0.8138223 0.0654813
vt 0.18377699 0.8796263
vt 0.3141647 0.8705026
vt 0.18345323 0.8705026
vt 0.3141647 0.8862804
vt 0.1840151 0.8862804
vt 0.7291629 0.5823715
vt 0.7233366 0.40988058
vt 0.7233365 0.5819612
vt 0.7391143 0.40988058
vt 0.7391143 0.58307284
vt 1.0247648 0.23637004
vt 1.0476394 0.35680413
vt 1.0476394 0.23718855
vt 1.005 0.39944345
vt 1.005 0.23566277
vt 1.2729387 0.35680407
vt 1.315578 0.35680407
vt 1.4042519 0.39944342
vt 1.3664765 0.36490396
vt 1.3576176 0.35680407
vt 1.3095117 0.3128189
vt 1.315578 0.31836557
vt 1.2729387 0.2793789
vt 1.8539431 0.63518006
vt 1.8697212 0.40988058
vt 1.8539431 0.40988058
vt 1.8697212 0.63518006
vt 1.598884 0.598456
vt 1.6085076 0.71904546
vt 1.6085076 0.59693325
vt 1.5927298 0.71904546
vt 1.5927298 0.5994298
vt 1.2751566 0.91216046
vt 1.3141646 0.8983732
vt 1.2712119 0.8983732
vt 1.3141646 0.9141512
vt 1.2757262 0.9141512
vt 0.18819243 0.8862804
vt 0.3141647 0.8862804
vt 0.1840151 0.8862804
vt 0.3141647 0.8862804
vt 0.19107431 0.8862804
vt 1.6085076 0.5965524
vt 1.6085076 0.71904546
vt 1.6085076 0.595955
vt 1.6085076 0.71904546
vt 1.6085076 0.59693325
vt 1.6085076 0.71904546
vt 1.6085076 0.71904546
vt 1.6607503 0.45902967
vt 1.6607503 0.40988055
vt 1.6607502 0.49181038
vt 1.6607503 0.40988055
vt 1.6607503 0.45283335
vt 1.6607503 0.40988055
vt 1.6607503 0.40988055
vt 1.6607503 0.40988055
vt 1.8697212 0.63518006
vt 1.8697212 0.40988058
vt 1.8697212 0.40988058
vt 1.8697212 0.63518006
vt 1.005 0.8862804
vt 1.005 0.8862804
vt 1.005 0.8862804
vt 1.005 0.8862804
vt 1.0050001 0.8862804
vt 1.005 0.8862804
vt 1.0050001 0.8862804
vt 1.0050001 0.8862804
vt 1.005 0.8862804
vt 1.005 0.8862804
vt 1.005 0.8862804
vt 1.005 0.8862804
vt 1.005 0.8862804
vt 1.005 0.8862804
vt 1.8174784 0.40988058
vt 1.814259 0.45585012
vt 1.8174783 0.4568553
vt 1.8017006 0.45192027
vt 1.8017006 0.40988058
vt 1.8174784 0.40988058
vt 1.8174784 0.47669026
vt 1.8174784 0.48613805
vt 1.8174783 0.4568553
vt 1.8174784 0.40988058
vt 1.6607503 0.40988055
vt 1.6566291 0.4906338
vt 1.6607502 0.49181038
vt 1.6449726 0.48730582
vt 1.6449726 0.40988055
vt 0.28229368 0.048806343
vt 0.1771946 0.061280593
vt 0.27947253 0.061317407
vt 0.24765176 0
vt 0.29329917 0
vt 0.1285431 0.061231192
vt 0.035306167 0.07847763
vt 0.053002473 3.8146972E-08
vt 0.06056569 0.23505025
vt 0.012450539 0.1798357
vt 0.10718231 0.15502809
vt 0.089019544 0.23505028
vt 0.22825234 0.045301437
vt 0.046533756 0.061317407
vt 0.23127165 0.061317444
vt 0.031258658 0
vt 0.2197123 0
vt 0.0014653397 0.0077365492
vt 0.01161396 0.061317407
vt 0 0
vt 0.712993 0.40988058
vt 0.7024098 0.59332246
vt 0.712993 0.58922184
vt 0.6972152 0.5953324
vt 0.6972152 0.40988058
vt 0.712993 0.40988058
vt 0.712993 0.5902935
vt 0.712993 0.5923796
vt 0.712993 0.58922184
vt 0.712993 0.40988058
vt 0.7233366 0.40988058
vt 0.7233366 0.5887775
vt 0.7233365 0.5819612
vt 0.7233366 0.5923796
vt 0.7233366 0.40988058
vt 0.065481275 0.47036183
vt 0.031461343 0.65821123
vt 0.065481275 0.6558135
vt 0.0050000143 0.660076
vt 0.0050000143 0.40988055
vt 0.41055733 0.4300738
vt 0.4042519 0.40988055
vt 0.4142672 0.47036183
vt 0.41870102 0.45615447
vt 0 0.060148392
vt 0.0015206146 7.6293944E-08
vt 0.0005568695 0.037925187
vt 0.10972862 0.06058243
vt 0.07180572 0.06052475
vt 0.051279984 0
vt 0.17285545 0.10084503
vt 0.17541786 7.6293944E-08
vt 0.106726915 0.17258789
vt 0.148368 0.23026618
vt 0.16956124 0.23049584
vt 0.10520577 0.23025581
vt 0.10258072 0.06072468
vt 0.00033943178 0.060745526
vt 0.040839996 0.060745582
vt 0.0001324463 0.023693733
vt 0.08704331 1.9073486E-08
vt 0 0
vt 0.16287635 0.11143734
vt 0.1622535 3.8146972E-08
vt 0.10296982 0.13085388
vt 0.12880783 0.23285797
vt 0.16355492 0.23285797
vt 0.10348709 0.23285797
vt 0.11575549 0.85077137
vt 0.12206498 0.8426319
vt 0.116570994 0.84767425
vt 0.23377721 0.8426319
vt 0.11474064 0.8546254
vt 0.46255443 0.8426319
vt 0.11376842 0.85840964
vt 0.46255443 0.85840964
vt 0 0.04218872
vt 0.058922388 0.01217392
vt 0.059865113 0
vt 0.057749175 0.02732376
vt 0.056598015 0.04218872
vn -0 -1 0
vn -0 -1 0
vn -0 -1 0
vn -0 -1 0
vn -0 -1 0
vn -0 -1 0
vn -0 -1 0
vn -0 -1 0
vn -0 0 1
vn -0 -3.1761525E-07 1
vn -0 0 1
vn -0 0 1
vn -0 0 1
vn -1 0 0
vn -1 0.00032651587 -1.8953784E-05
vn -1 0.00032550996 -1.8987845E-05
vn -1 0 0
vn -1 0 0
vn -0 0 -1
vn -0 -3.0051518E-07 -1
vn -0 -2.9914705E-07 -1
vn -0 0 -1
vn -0 0 -1
vn -0 0 -1
vn -0 0 -1
vn -0 0 -1
vn -0 0 -1
vn -0 0 -1
vn -0 0 -1
vn -0 0 -1
vn -0 0 -1
vn -1 0 0
vn -1 0 0
vn -1 0 0
vn -1 0 0
vn -0 1 0
vn -0 1 0
vn -0 1 -2.058705E-06
vn -0 1 0
vn -0 1 0
vn -0 0.99999976 0.0006714465
vn -0 0.99999976 0.00067218125
vn -0 0.99999976 0.00067228737
vn -0 0.99999976 0.00067144656
vn -0 0.99999976 0.00067144656
vn 2.8356391E-05 1 -3.626581E-05
vn -4.3162927E-05 0.9999999 -0.0005308317
vn -4.3160966E-05 0.9999999 -0.000530841
vn 2.8356391E-05 1 -3.626581E-05
vn 2.8356391E-05 1 -3.6265814E-05
vn -0 1.6471519E-06 1
vn 2.9393861E-05 -0.00033593577 1
vn 2.938689E-05 -0.00033598838 1
vn -0 1.6471517E-06 1
vn -0 1.6471519E-06 1
vn 0.00033797233 -0.00033559918 0.9999999
vn 0.0003216523 -0.00035192407 0.9999999
vn -0 0 1
vn -0 0 1
vn -0 0 1
vn -0 0 1
vn -0 0 1
vn 0.0005138163 0 0.9999999
vn 0.00051381625 0 0.9999999
vn 0.0005220777 5.191151E-06 0.9999999
vn 0.00032977306 0 1
vn 0.0003297731 0 1
vn 0.00032977306 0 1
vn 0.0005138092 2.1805945E-05 0.9999999
vn -0.9999825 -0.0045930645 0.0037283152
vn -0.9999825 -0.004593065 0.0037283152
vn -0.99999964 -0.0009023479 5.2605184E-05
vn -0.9999825 -0.004593065 0.0037283152
vn -0.9999989 -2.9165714E-05 0.00147237
vn -0.9999989 -2.9165718E-05 0.0014723701
vn -0.9999989 -2.9165718E-05 0.0014723701
vn -0.9999989 7.410137E-05 0.0015219278
vn -0.9999995 -2.2803015E-05 0.0010263094
vn -0.9999995 -2.2803015E-05 0.0010263094
vn 0.00032735636 0.9999987 -0.0016226217
vn 0.00032735636 0.9999987 -0.0016226217
vn 0.00032735636 0.9999987 -0.0016226217
vn -0.0014886719 0.9999988 -0.0005316119
vn -1 0 0
vn -1 0 -3.049334E-06
vn -1 0 -3.0493345E-06
vn -1 0 0
vn -1 0 0
vn 0.0005220811 0 0.9999999
vn 0.0013542104 0.00010750085 0.99999917
vn 0.0013542104 0.00010750085 0.99999917
vn 0.0005220811 0 0.9999999
vn 0.0005220811 0 0.9999999
vn -0 -1 0
vn -0 -1 0
vn -0 -1 0
vn -0 -1 0
vn -0 -1 0
vn -0.7221527 0.66029185 -0.2061799
vn -0.72215277 0.6602918 -0.20617993
vn -0.7221527 0.66029185 -0.20617993
vn -0.7221533 0.66029197 -0.20617723
vn -0.7221533 0.66029197 -0.20617723
vn -0.7221529 0.6602923 -0.2061777
vn -0.72215295 0.66029197 -0.20617864
vn -0.72215295 0.66029197 -0.20617864
vn -0.722153 0.6602922 -0.20617758
vn -0.7221534 0.6602919 -0.2061773
vn -0.722153 0.6602922 -0.20617758
vn -0.722153 0.6602922 -0.2061776
vn -0.7221526 0.6602919 -0.2061804
vn -0.7221535 0.6602917 -0.20617776
vn -0.7221526 0.6602919 -0.2061804
vn -0.7221551 0.6602917 -0.20617202
vn -0.7221532 0.66029215 -0.20617722
vn -0.7221551 0.6602917 -0.20617202
vn -0.7221535 0.6602916 -0.20617774
vn -0.7221551 0.6602917 -0.20617202
vn -0.011588195 0.9999329 0
vn 1.3917469E-06 0.99999976 -0.00066896674
vn 1.3917469E-06 0.99999976 -0.00066896674
vn -0.011588196 0.9999329 0
vn -0.011588196 0.9999329 0
vn -0.99999964 -0.0009023482 3.897414E-05
vn -0.99999917 -0.0012917652 0.00010258985
vn -0.99999917 -0.0012917651 0.00010258983
vn -0.99999964 -0.0009023482 3.897414E-05
vn -0.99999964 -0.0009023481 3.897414E-05
vn -0.001488672 0.9999988 -0.00035855468
vn -0.00562656 0.99998415 4.8742415E-05
vn -0.0056265593 0.99998415 4.8742415E-05
vn -0.0014886721 0.9999988 -0.00035855468
vn -0.0014886721 0.9999988 -0.00035855468
vn 1 0 0
vn 1 -5.897266E-07 0
vn 1 -5.8972665E-07 0
vn 1 0 0
vn 1 0 0
vn 1 0 0
vn 1 0 0
vn 1 0 0
vn 1 0 0
vn -0.35830903 0.065634474 0.931293
vn -0.358309 0.065634474 0.931293
vn -0.35830903 0.065634474 0.931293
vn -0.36052898 0.065688014 0.93043214
vn -0.36052898 0.06568801 0.93043214
vn -0.36052984 0.06557247 0.9304399
vn -0.3605299 0.06557246 0.9304399
vn -0.3605299 0.06557247 0.9304399
vn -0.36052993 0.0655743 0.93043983
vn -0.36052984 0.06557459 0.93043983
vn -0.36053056 0.065574296 0.9304396
vn -0.3605299 0.065574594 0.93043983
vn -0.9877764 0.035345376 -0.15181752
vn -0.9877764 0.035345376 -0.15181752
vn -0.9877764 0.03534537 -0.1518175
vn -0.9870955 0.03532138 -0.15618822
vn -0.98709524 0.03532208 -0.1561899
vn -0.9870955 0.035321385 -0.15618823
vn -0.98709524 0.035322078 -0.1561899
vn -0.98709524 0.035322078 -0.1561899
vn -0.98709524 0.03532156 -0.15618995
vn -0.98709524 0.035322435 -0.15618993
vn -0.98709524 0.03532125 -0.15619004
vn -0.98709524 0.035322435 -0.15618992
vn 6.1539333E-07 0 1
vn 6.153934E-07 0 1
vn -3.2298183E-07 1.2036113E-06 1
vn -0 0 1
vn -0 0 1
vn 9.530405E-07 0 1
vn 9.530405E-07 0 1
vn 9.530405E-07 0 1
vn -0.24814801 0.92473847 0.28858498
vn -0.24814798 0.92473847 0.28858495
vn -0.24814798 0.92473847 0.28858495
vn -0.24814138 0.9247391 0.28858882
vn -0.2481424 0.9247389 0.28858846
g Device_Prop_Box_005_v_019_0
f 3/3/3 2/2/2 1/1/1
f 2/2/2 4/4/4 1/1/1
f 4/4/4 5/5/5 1/1/1
f 4/4/4 2/2/2 6/6/6
f 7/7/7 4/4/4 6/6/6
f 2/2/2 8/8/8 6/6/6
f 11/11/11 10/10/10 9/9/9
f 10/10/10 12/12/12 9/9/9
f 12/12/12 13/13/13 9/9/9
f 16/16/16 15/15/15 14/14/14
f 15/15/15 17/17/17 14/14/14
f 17/17/17 18/18/18 14/14/14
f 21/21/21 20/20/20 19/19/19
f 20/20/20 22/22/22 19/19/19
f 22/22/22 23/23/23 19/19/19
f 24/24/24 22/22/22 20/20/20
f 22/22/22 24/24/24 25/25/25
f 26/26/26 22/22/22 25/25/25
f 27/27/27 26/26/26 25/25/25
f 25/25/25 28/28/28 27/27/27
f 25/25/25 24/24/24 29/29/29
f 30/30/30 25/25/25 29/29/29
f 24/24/24 31/31/31 29/29/29
f 34/34/34 33/33/33 32/32/32
f 35/35/35 32/32/32 33/33/33
f 38/38/38 37/37/37 36/36/36
f 37/37/37 39/39/39 36/36/36
f 39/39/39 40/40/40 36/36/36
f 43/43/43 42/42/42 41/41/41
f 42/42/42 44/44/44 41/41/41
f 44/44/44 45/45/45 41/41/41
f 48/48/48 47/47/47 46/46/46
f 47/47/47 49/49/49 46/46/46
f 49/49/49 50/50/50 46/46/46
f 53/53/53 52/52/52 51/51/51
f 52/52/52 54/54/54 51/51/51
f 54/54/54 55/55/55 51/51/51
f 52/52/52 56/56/56 54/54/54
f 57/57/57 54/54/54 56/56/56
f 60/60/60 59/59/59 58/58/58
f 59/59/59 61/61/61 58/58/58
f 61/61/61 62/62/62 58/58/58
f 64/64/64 63/63/63 61/61/61
f 65/65/65 61/61/61 63/63/63
f 68/68/68 67/67/67 66/66/66
f 69/69/69 66/66/66 67/67/67
f 72/72/72 71/71/71 70/70/70
f 73/73/73 70/70/70 71/71/71
f 73/73/73 71/71/71 74/74/74
f 75/75/75 74/74/74 71/71/71
f 76/76/76 74/74/74 75/75/75
f 77/77/77 76/76/76 75/75/75
f 78/78/78 77/77/77 75/75/75
f 79/79/79 78/78/78 75/75/75
f 82/82/82 81/81/81 80/80/80
f 83/83/83 80/80/80 81/81/81
f 86/86/86 85/85/85 84/84/84
f 85/85/85 87/87/87 84/84/84
f 87/87/87 88/88/88 84/84/84
f 91/91/91 90/90/90 89/89/89
f 90/90/90 92/92/92 89/89/89
f 92/92/92 93/93/93 89/89/89
f 96/96/96 95/95/95 94/94/94
f 95/95/95 97/97/97 94/94/94
f 97/97/97 98/98/98 94/94/94
f 101/101/101 100/100/100 99/99/99
f 100/100/100 102/102/102 99/99/99
f 102/102/102 103/103/103 99/99/99
f 104/104/104 102/102/102 100/100/100
f 105/105/105 102/102/102 104/104/104
f 106/106/106 102/102/102 105/105/105
f 107/107/107 105/105/105 104/104/104
f 108/108/108 105/105/105 107/107/107
f 109/109/109 107/107/107 104/104/104
f 110/110/110 107/107/107 109/109/109
f 113/113/113 112/112/112 111/111/111
f 112/112/112 114/114/114 111/111/111
f 114/114/114 115/115/115 111/111/111
f 116/116/116 114/114/114 112/112/112
f 117/117/117 116/116/116 112/112/112
f 118/118/118 114/114/114 116/116/116
f 121/121/121 120/120/120 119/119/119
f 120/120/120 122/122/122 119/119/119
f 122/122/122 123/123/123 119/119/119
f 126/126/126 125/125/125 124/124/124
f 125/125/125 127/127/127 124/124/124
f 127/127/127 128/128/128 124/124/124
f 131/131/131 130/130/130 129/129/129
f 130/130/130 132/132/132 129/129/129
f 132/132/132 133/133/133 129/129/129
f 136/136/136 135/135/135 134/134/134
f 135/135/135 137/137/137 134/134/134
f 137/137/137 138/138/138 134/134/134
f 134/134/134 138/138/138 139/139/139
f 138/138/138 140/140/140 139/139/139
f 141/141/141 134/134/134 139/139/139
f 142/142/142 141/141/141 139/139/139
f 145/145/145 144/144/144 143/143/143
f 144/144/144 146/146/146 143/143/143
f 146/146/146 147/147/147 143/143/143
f 148/148/148 146/146/146 144/144/144
f 149/149/149 146/146/146 148/148/148
f 150/150/150 149/149/149 148/148/148
f 151/151/151 146/146/146 149/149/149
f 152/152/152 151/151/151 149/149/149
f 153/153/153 152/152/152 149/149/149
f 154/154/154 151/151/151 152/152/152
f 157/157/157 156/156/156 155/155/155
f 156/156/156 158/158/158 155/155/155
f 158/158/158 159/159/159 155/155/155
f 160/160/160 159/159/159 158/158/158
f 159/159/159 161/161/161 155/155/155
f 162/162/162 161/161/161 159/159/159
f 161/161/161 163/163/163 155/155/155
f 164/164/164 163/163/163 161/161/161
f 165/165/165 164/164/164 161/161/161
f 166/166/166 163/163/163 164/164/164
f 169/169/169 168/168/168 167/167/167
f 168/168/168 170/170/170 167/167/167
f 170/170/170 171/171/171 167/167/167
f 172/172/172 171/171/171 170/170/170
f 173/173/173 171/171/171 172/172/172
f 174/174/174 173/173/173 172/172/172
f 177/177/177 176/176/176 175/175/175
f 176/176/176 178/178/178 175/175/175
f 178/178/178 179/179/179 175/175/175
