g Device_Prop_Box_005_v_033
v -0.3378722 0.4739634 0.00589964
v -0.3378722 -0.32420763 0.012667637
v -0.3378722 0.4734395 0.012667831
v -0.3378722 -0.32420763 -0.012732362
v -0.3378722 0.47540548 -0.012732169
v 0.2527076 0.10616929 0.012667831
v -0.3378722 -0.32420763 0.012667637
v 0.61303496 -0.32420763 0.012667637
v -0.022279793 0.4346156 0.012667831
v -0.3378722 0.4734395 0.012667831
v -0.095050015 0.4697776 0.012667831
v 0.60989404 -0.32420763 -0.003454828
v -0.3378722 -0.32420763 -0.012732362
v 0.6080867 -0.32420754 -0.012732362
v -0.3378722 -0.32420763 0.012667637
v 0.61303496 -0.32420763 0.012667637
v -0.095050015 0.4697776 0.012667831
v 0.010902653 0.3890721 -0.012732169
v -0.16229019 0.47275752 -0.012732169
v -0.022279793 0.4346156 0.012667831
v 0.60989404 -0.32420763 -0.003454828
v 0.2527076 0.10616929 0.012667831
v 0.61303496 -0.32420763 0.012667637
v 0.010902653 0.3890721 -0.012732169
v 0.6080867 -0.32420754 -0.012732362
v -0.022279793 0.4346156 0.012667831
v 0.010902653 0.3890721 -0.012732169
v -0.3378722 0.47540548 -0.012732169
v -0.16229019 0.47275752 -0.012732169
v -0.3378722 -0.32420763 -0.012732362
v 0.6080867 -0.32420754 -0.012732362
v -0.16229019 0.47275752 -0.012732169
v -0.3378722 0.4734395 0.012667831
v -0.095050015 0.4697776 0.012667831
v -0.3378722 0.4739634 0.00589964
v -0.3378722 0.47540548 -0.012732169
vt 0.21100157 0.35158956
vt 0.05102955 0.35158956
vt 0.2108966 0.35158956
vt 0.05102955 0.35158956
vt 0.21129061 0.35158956
vt 0.13728711 0.23322368
vt 0.05102955 0.35158956
vt 0.051029593 0.16100569
vt 0.20311537 0.28833753
vt 0.2108966 0.35158956
vt 0.21016265 0.30292237
vt 0.051029593 0.16163522
vt 0.05102955 0.35158956
vt 0.051029593 0.16199744
vt 0.05102955 0.35158956
vt 0.051029593 0.16100569
vt 0.9090192 0.63731676
vt 0.83966845 0.55614465
vt 0.96558493 0.64031386
vt 0.85611296 0.6019514
vt 0.001587677 0.0073861694
vt 0.44197023 0.020222016
vt 0 0.020221863
vt 0.73499495 1.5258789E-07
vt 0.002501297 0
vt 0.77926415 0.020222016
vt 0.1939874 0.28168696
vt 0.21129061 0.35158956
vt 0.2107599 0.31639883
vt 0.05102955 0.35158956
vt 0.051029593 0.16199744
vt 0.00016082764 0.13826916
vt 0.020059815 0
vt 0.020282287 0.19122016
vt 0.014714508 0
vt 0 0
vn 1 0 0
vn 1 0 0
vn 1 0 0
vn 1 0 0
vn 1 0 0
vn -0 0 -1
vn -0 0 -1
vn -0 4.5027187E-07 -1
vn -0 0 -1
vn -0 0 -1
vn -0 0 -1
vn -0 1 1.0463818E-05
vn -0 1 1.04638175E-05
vn -0 1 1.0463818E-05
vn -0 1 0
vn -0 1 0
vn -0.30063105 -0.6221769 0.72285324
vn -0.30063105 -0.6221769 0.72285324
vn -0.30063105 -0.6221769 0.72285324
vn -0.3006313 -0.6221772 0.72285295
vn -0.7583353 -0.63490653 0.14772026
vn -0.7583338 -0.6349051 0.14773431
vn -0.75833344 -0.63490474 0.14773777
vn -0.7583353 -0.6349065 0.14772023
vn -0.7583353 -0.63490653 0.14772025
vn -0.7583338 -0.63490504 0.14773431
vn -0 -2.7168392E-07 1
vn -0 0 1
vn -0 0 1
vn -0 -2.7168392E-07 1
vn -0 -2.7168392E-07 1
vn -0.015033772 -0.9969056 -0.07715695
vn -0.015033772 -0.9969056 -0.077156946
vn -0.015033772 -0.9969056 -0.07715696
vn -0.015034698 -0.996905 -0.077163376
vn -0.015034173 -0.9969055 -0.077158414
g Device_Prop_Box_005_v_033_0
f 3/3/3 2/2/2 1/1/1
f 2/2/2 4/4/4 1/1/1
f 4/4/4 5/5/5 1/1/1
f 8/8/8 7/7/7 6/6/6
f 7/7/7 9/9/9 6/6/6
f 10/10/10 9/9/9 7/7/7
f 11/11/11 9/9/9 10/10/10
f 14/14/14 13/13/13 12/12/12
f 13/13/13 15/15/15 12/12/12
f 15/15/15 16/16/16 12/12/12
f 19/19/19 18/18/18 17/17/17
f 20/20/20 17/17/17 18/18/18
f 23/23/23 22/22/22 21/21/21
f 22/22/22 24/24/24 21/21/21
f 24/24/24 25/25/25 21/21/21
f 26/26/26 24/24/24 22/22/22
f 29/29/29 28/28/28 27/27/27
f 28/28/28 30/30/30 27/27/27
f 30/30/30 31/31/31 27/27/27
f 34/34/34 33/33/33 32/32/32
f 33/33/33 35/35/35 32/32/32
f 35/35/35 36/36/36 32/32/32
