g Device_Prop_Box_008_v_050
v -0.012689923 0.5968334 0.36380675
v 0.0037208968 0.5968335 -0.4895581
v -0.012689923 0.5968335 -0.48564404
v 0.012710077 0.5968334 0.36380675
v 0.0037208968 0.5968335 -0.4895581
v -0.012689923 0.5968334 0.36380675
v 0.0037208968 0.5968335 -0.4895581
v 0.012710077 0.5968334 0.36380675
v 0.012710077 0.5968335 -0.49170214
v -0.012689923 -0.73598164 0.36380658
v -0.012689923 -0.4027522 -0.23364678
v -0.012689923 -0.7268306 -0.11164416
v -0.012689923 0.5968334 0.36380675
v -0.012689923 0.22270884 -0.46910793
v -0.012689923 0.5968335 -0.48564404
v 0.012710077 0.5968334 0.36380675
v -0.002574649 -0.73293406 0.36380637
v 0.012710077 -0.7283292 0.36380658
v -0.012689923 0.5968334 0.36380675
v -0.012689923 -0.73598164 0.36380658
v -0.012689923 0.22270884 -0.46910793
v 0.012710077 0.5968335 -0.49170214
v 0.012710077 0.25036204 -0.47638828
v 0.0037208968 0.5968335 -0.4895581
v -0.012689923 0.5968335 -0.48564404
v 0.012710077 0.5968334 0.36380675
v 0.012710077 0.25036204 -0.47638828
v 0.012710077 0.5968335 -0.49170214
v 0.012710077 -0.7191829 -0.1113932
v 0.012710077 -0.7283292 0.36380658
v 0.012710077 -0.7191829 -0.1113932
v -0.012689923 0.22270884 -0.46910793
v 0.012710077 0.25036204 -0.47638828
v -0.012689923 -0.4027522 -0.23364678
v -0.012689923 -0.7268306 -0.11164416
v -0.002574649 -0.73293406 0.36380637
v 0.012710077 -0.7191829 -0.1113932
v 0.012710077 -0.7283292 0.36380658
v -0.012689923 -0.73598164 0.36380658
v -0.012689923 -0.7268306 -0.11164416
vt 0.5137456 0.74004924
vt 0.5137455 0.56863534
vt 0.51374555 0.5694216
vt 0.5137456 0.74004924
vt 0.5137455 0.56863534
vt 0.5137456 0.74004924
vt 0.5137455 0.56863534
vt 0.5137456 0.74004924
vt 0.51374555 0.5682047
vt 0.24602538 0.74004924
vt 0.31296057 0.6200399
vt 0.2478635 0.6445463
vt 0.5137456 0.74004924
vt 0.43859577 0.5727432
vt 0.51374555 0.5694216
vt 0.5137456 0.74004924
vt 0.24663751 0.74004924
vt 0.24756251 0.74004924
vt 0.5137456 0.74004924
vt 0.24602538 0.74004924
vt 0.02358182 0.16313782
vt 0 0.45799634
vt 0.0027975095 0.1849321
vt 0.0072766496 0.45799634
vt 0.020561028 0.45799634
vt 0.5137456 0.74004924
vt 0.44415045 0.5712808
vt 0.51374555 0.5682047
vt 0.24939963 0.6445967
vt 0.24756251 0.74004924
vt 0.01236299 0.28665167
vt 0.06666061 1.078376
vt 0.047511827 1.1016203
vt 0.043985825 0.55263335
vt 0.03223703 0.2802233
vt 4.623413E-05 0.008318291
vt 0.37435836 0.02088768
vt 0.000115966795 0.020887641
vt 0 0
vt 0.37444 0
vn -0 -1 0
vn -0 -1 0
vn -0 -1 0
vn -0 -1 0
vn -0 -1 0
vn -0 -1 0
vn -0 -1 0
vn -0 -1 0
vn -0 -1 0
vn 1 0 0
vn 1 0 0
vn 1 0 0
vn 1 0 0
vn 1 0 0
vn 1 0 0
vn 1.2634392E-05 0 -1
vn 1.2634392E-05 0 -1
vn 1.2634392E-05 0 -1
vn -0 2.914594E-07 -1
vn -1.9201627E-05 0 -1
vn 0.23178485 0.04295395 0.97181827
vn 0.23178485 0.04295395 0.97181827
vn 0.23178485 0.042953957 0.97181827
vn 0.2317929 0.04295329 0.97181636
vn 0.23178312 0.042953845 0.97181875
vn -1 0 0
vn -1 0 0
vn -1 0 0
vn -1 0 0
vn -1 0 0
vn -0.114567816 0.35000134 0.9297168
vn -0.114567794 0.35000134 0.9297168
vn -0.1145678 0.35000134 0.9297168
vn -0.11456836 0.3500013 0.9297167
vn -0.11456746 0.35000134 0.9297168
vn -0.28842014 0.9573266 0.018425766
vn -0.2884201 0.9573266 0.018425765
vn -0.28842014 0.9573266 0.018425766
vn -0.2884213 0.9573263 0.01842572
vn -0.28842345 0.95732564 0.018425582
g Device_Prop_Box_008_v_050_0
f 3/3/3 2/2/2 1/1/1
f 6/6/6 5/5/5 4/4/4
f 9/9/9 8/8/8 7/7/7
f 12/12/12 11/11/11 10/10/10
f 13/13/13 10/10/10 11/11/11
f 11/11/11 14/14/14 13/13/13
f 15/15/15 13/13/13 14/14/14
f 18/18/18 17/17/17 16/16/16
f 16/16/16 17/17/17 19/19/19
f 20/20/20 19/19/19 17/17/17
f 23/23/23 22/22/22 21/21/21
f 22/22/22 24/24/24 21/21/21
f 21/21/21 24/24/24 25/25/25
f 28/28/28 27/27/27 26/26/26
f 27/27/27 29/29/29 26/26/26
f 26/26/26 29/29/29 30/30/30
f 33/33/33 32/32/32 31/31/31
f 32/32/32 34/34/34 31/31/31
f 34/34/34 35/35/35 31/31/31
f 38/38/38 37/37/37 36/36/36
f 36/36/36 37/37/37 39/39/39
f 37/37/37 40/40/40 39/39/39
