g Device_Prop_Box_008_v_044
v -0.18843444 0.0984299 0.024623824
v -0.10788436 0.09844549 0.0014474104
v -0.03448119 0.0984299 0.024623811
v -0.16997978 0.09844336 0.0046163606
v -0.15371054 0.09845522 -0.013021807
v 0.013515103 -0.10744911 0.024623811
v 0.12162271 -0.013185333 0.024623806
v 0.094584 -0.10744912 0.024623811
v -0.055053774 -0.037546076 0.024623817
v -0.03448119 0.0984299 0.024623811
v -0.055053774 -0.037546076 0.024623817
v -0.18843444 0.0984299 0.024623824
v 0.12162271 -0.013185333 0.024623806
v 0.13565582 0.03573763 0.024623806
v 0.052889563 -0.022641392 -0.051576186
v -0.028900621 0.007496748 -0.051576186
v 0.006885905 -0.02898611 -0.051576186
v 0.04213081 -0.06491682 -0.051576186
v 0.054126408 -0.023097146 -0.051576186
v 0.052889563 -0.022641392 -0.051576186
v -0.15371054 0.09845522 -0.013021807
v -0.028900621 0.007496748 -0.051576186
v 0.13565582 0.03573763 0.024623806
v 0.054126408 -0.023097146 -0.051576186
v -0.10788436 0.09844549 0.0014474104
v -0.03448119 0.0984299 0.024623811
v 0.05672275 -0.10744911 -0.019999323
v 0.05575608 -0.10744911 -0.021138657
v 0.054795213 -0.10744911 -0.020097692
v 0.094584 -0.10744912 0.024623811
v 0.013515103 -0.10744911 0.024623811
v 0.054795213 -0.10744911 -0.020097692
v -0.055053774 -0.037546076 0.024623817
v 0.013515103 -0.10744911 0.024623811
v 0.006885905 -0.02898611 -0.051576186
v 0.05575608 -0.10744911 -0.021138657
v 0.04213081 -0.06491682 -0.051576186
v -0.16997978 0.09844336 0.0046163606
v -0.18843444 0.0984299 0.024623824
v -0.15371054 0.09845522 -0.013021807
v -0.028900621 0.007496748 -0.051576186
v 0.04213081 -0.06491682 -0.051576186
v 0.13565582 0.03573763 0.024623806
v 0.054126408 -0.023097146 -0.051576186
v 0.05672275 -0.10744911 -0.019999323
v 0.05575608 -0.10744911 -0.021138657
v 0.12162271 -0.013185333 0.024623806
v 0.094584 -0.10744912 0.024623811
vt 1.0823547 0.8983732
vt 1.0990332 0.90317214
vt 1.1142318 0.8983732
vt 1.0861759 0.90251595
vt 1.0895445 0.9061681
vt 1.6607504 0.59987557
vt 1.6607504 0.5774911
vt 1.6607504 0.5830897
vt 1.6607504 0.6140732
vt 1.6607503 0.6098135
vt 1.6607504 0.6140732
vt 1.6607503 0.6416906
vt 1.6607504 0.5774911
vt 1.6607504 0.5745855
vt 1.2904987 0.17496192
vt 1.2967391 0.1580267
vt 1.289185 0.16543655
vt 1.2817453 0.17273426
vt 1.2904043 0.17521803
vt 0.3719775 0.086253665
vt 0.51795256 0.20941497
vt 0.4333875 0.11690567
vt 0.29175982 0.14562806
vt 0.37104884 0.085790135
vt 0.48011303 0.2094051
vt 0.41950268 0.20938927
vt 1.6515107 0.5909291
vt 1.6512748 0.59112924
vt 1.6514903 0.5913282
vt 1.6607504 0.5830897
vt 1.6607504 0.59987557
vt 0.2498414 0.029683666
vt 0.14997855 0.0718553
vt 0.22708009 0.0718553
vt 0.17931958 0
vt 0.25037122 0.028702054
vt 0.21895036 8.734358E-09
vt 0.010168094 0.052988604
vt 0 0.0718553
vt 0.019132076 0.036356125
vt 0.13907976 5.4590914E-09
vt 0.029233722 0
vt 0.12572171 0.077424854
vt 0.06349049 0
vt 0.00020986557 0.032084428
vt 0 0.030926818
vt 0.08564625 0.077424854
vt 0.008429689 0.077424854
vn -0 0.99999976 0.00067256787
vn -0 0.99999976 0.0006725679
vn -0 0.99999976 0.0006725678
vn -0 0.99999976 0.000672546
vn -0 0.99999976 0.0006722327
vn -0 0 1
vn -0 0 1
vn -0 0 1
vn -0 0 1
vn -0 0 1
vn -0 0 1
vn -0 0 1
vn -0 0 1
vn -0 0 1
vn -0 0 -1
vn -0 0 -1
vn -0 0 -1
vn -0 0 -1
vn -0 0 -1
vn 0.23322617 0.63293934 -0.73823655
vn 0.2332262 0.63293934 -0.73823655
vn 0.23322617 0.63293934 -0.73823655
vn 0.23322617 0.6329393 -0.7382368
vn 0.23322633 0.63293904 -0.73823684
vn 0.23322617 0.6329393 -0.7382368
vn 0.23322617 0.6329393 -0.7382368
vn -0 -1 0
vn -0 -1 0
vn -0 -1 0
vn -0 -1 0
vn -0 -1 0
vn -0.59610355 -0.58472633 -0.5502324
vn -0.5961034 -0.5847264 -0.55023235
vn -0.5961035 -0.58472633 -0.55023235
vn -0.5961037 -0.5847262 -0.5502322
vn -0.5961017 -0.5847263 -0.55023444
vn -0.59610444 -0.58472675 -0.5502311
vn -0.59610355 -0.5847261 -0.55023265
vn -0.5961036 -0.58472604 -0.5502326
vn -0.5961038 -0.5847263 -0.5502322
vn -0.5961037 -0.5847263 -0.55023223
vn 0.7449063 -0.2136697 -0.63202846
vn 0.7449063 -0.21366967 -0.63202846
vn 0.7449063 -0.21366966 -0.6320284
vn 0.7449063 -0.21366957 -0.63202834
vn 0.7449129 -0.21366325 -0.6320228
vn 0.7449063 -0.21366957 -0.63202834
vn 0.7449063 -0.21366961 -0.63202846
g Device_Prop_Box_008_v_044_0
f 3/3/3 2/2/2 1/1/1
f 4/4/4 1/1/1 2/2/2
f 4/4/4 2/2/2 5/5/5
f 8/8/8 7/7/7 6/6/6
f 9/9/9 6/6/6 7/7/7
f 12/12/12 11/11/11 10/10/10
f 11/11/11 13/13/13 10/10/10
f 13/13/13 14/14/14 10/10/10
f 17/17/17 16/16/16 15/15/15
f 17/17/17 15/15/15 18/18/18
f 19/19/19 18/18/18 15/15/15
f 22/22/22 21/21/21 20/20/20
f 21/21/21 23/23/23 20/20/20
f 23/23/23 24/24/24 20/20/20
f 25/25/25 23/23/23 21/21/21
f 26/26/26 23/23/23 25/25/25
f 29/29/29 28/28/28 27/27/27
f 27/27/27 30/30/30 29/29/29
f 31/31/31 29/29/29 30/30/30
f 34/34/34 33/33/33 32/32/32
f 33/33/33 35/35/35 32/32/32
f 32/32/32 35/35/35 36/36/36
f 35/35/35 37/37/37 36/36/36
f 38/38/38 35/35/35 33/33/33
f 39/39/39 38/38/38 33/33/33
f 40/40/40 35/35/35 38/38/38
f 41/41/41 35/35/35 40/40/40
f 44/44/44 43/43/43 42/42/42
f 43/43/43 45/45/45 42/42/42
f 42/42/42 45/45/45 46/46/46
f 47/47/47 45/45/45 43/43/43
f 48/48/48 45/45/45 47/47/47
