g Device_Prop_Box_01_v_044
v -0.8185102 0.01988926 0.0062469053
v 0.072652206 0.10309878 0.006256595
v -0.8406986 0.102903396 0.006246518
v 0.072652206 0.10309878 0.082456596
v 0.072652206 0.36254722 0.082456596
v 0.113562785 0.3601745 0.082456596
v 0.27858266 0.3506036 0.082456596
v 0.27858266 -0.47866124 0.082456596
v 0.15452695 -0.49326438 0.082456596
v 0.072652206 -0.10283145 0.082456596
v 0.135148 -0.49554554 0.082456596
v 0.072652206 -0.50290227 0.082456596
v -0.82371444 0.020793324 0.082456596
v -0.8457134 0.10309878 0.082456596
v -0.7906716 -0.10283145 0.082456596
v 0.072652206 -0.102837645 0.006256595
v 0.07265225 -0.45743394 0.031088993
v 0.072652206 -0.4354533 0.006256595
v 0.072652206 -0.10283145 0.082456596
v 0.072652206 -0.50290227 0.082456596
v 0.072652206 0.10309878 0.006256595
v -0.8437969 0.10309878 0.053026028
v -0.8406986 0.102903396 0.006246518
v 0.072652206 0.10309878 0.082456596
v -0.8457134 0.10309878 0.082456596
v 0.072652206 0.10309878 0.082456596
v 0.072652206 0.36883754 0.06384688
v 0.072652206 0.36254722 0.082456596
v 0.072652206 0.10309878 0.006256595
v 0.072652206 0.38830388 0.006256595
v 0.072652206 -0.10283145 0.082456596
v -0.78780985 -0.10283568 0.038527105
v -0.7906716 -0.10283145 0.082456596
v 0.072652206 -0.102837645 0.006256595
v -0.78570676 -0.10283831 0.0062405104
v 0.072652206 -0.102837645 0.006256595
v -0.8185102 0.01988926 0.0062469053
v -0.78570676 -0.10283831 0.0062405104
v 0.072652206 0.10309878 0.006256595
v 0.20189916 0.10326688 0.0066329283
v 0.20190352 -0.10228738 0.0066329283
v 0.20190352 -0.10228738 0.0066329283
v 0.16359113 -0.4249828 0.0065213074
v 0.20191117 -0.42057064 0.0066329283
v 0.072652206 -0.102837645 0.006256595
v 0.072652206 -0.4354533 0.006256595
v 0.072652206 0.10309878 0.006256595
v 0.10628624 0.38632005 0.006354651
v 0.072652206 0.38830388 0.006256595
v 0.20189354 0.38068098 0.0066329283
v 0.20189916 0.10326688 0.0066329283
v 0.27858266 -0.22010669 -0.20964341
v 0.27858266 0.4223983 -0.12994479
v 0.27858266 0.44933748 -0.20964341
v 0.27858266 -0.37283444 -0.03710045
v 0.27858266 0.3506036 0.082456596
v 0.27858266 -0.47866124 0.082456596
v 0.20234245 -0.22908144 -0.20964341
v 0.21859571 -0.22716819 -0.20964341
v 0.2023314 0.01077478 -0.20964341
v 0.24815457 -0.22368866 -0.20964341
v 0.20231105 0.453761 -0.20964341
v 0.22480386 0.45245644 -0.20964341
v 0.27858266 -0.22010669 -0.20964341
v 0.27858266 0.44933748 -0.20964341
v 0.20191117 -0.42057064 0.0066329283
v 0.20203122 -0.36952373 -0.051020917
v 0.20190352 -0.10228738 0.0066329283
v 0.20234245 -0.22908144 -0.20964341
v 0.2023314 0.01077478 -0.20964341
v 0.20189916 0.10326688 0.0066329283
v 0.20189354 0.38068098 0.0066329283
v 0.20217074 0.42793545 -0.13321552
v 0.20231105 0.453761 -0.20964341
v 0.135148 -0.49554554 0.082456596
v 0.07265225 -0.45743394 0.031088993
v 0.072652206 -0.50290227 0.082456596
v 0.16359113 -0.4249828 0.0065213074
v 0.072652206 -0.4354533 0.006256595
v 0.20191117 -0.42057064 0.0066329283
v 0.27858266 -0.37283444 -0.03710045
v 0.15452695 -0.49326438 0.082456596
v 0.27858266 -0.47866124 0.082456596
v 0.21859571 -0.22716819 -0.20964341
v 0.20203122 -0.36952373 -0.051020917
v 0.20234245 -0.22908144 -0.20964341
v 0.24815457 -0.22368866 -0.20964341
v 0.27858266 -0.22010669 -0.20964341
v -0.8437969 0.10309878 0.053026028
v -0.8185102 0.01988926 0.0062469053
v -0.8406986 0.102903396 0.006246518
v -0.82371444 0.020793324 0.082456596
v -0.8457134 0.10309878 0.082456596
v -0.78780985 -0.10283568 0.038527105
v -0.78570676 -0.10283831 0.0062405104
v -0.7906716 -0.10283145 0.082456596
v 0.27858266 0.4223983 -0.12994479
v 0.22480386 0.45245644 -0.20964341
v 0.27858266 0.44933748 -0.20964341
v 0.27858266 0.3506036 0.082456596
v 0.20189354 0.38068098 0.0066329283
v 0.20217074 0.42793545 -0.13321552
v 0.20231105 0.453761 -0.20964341
v 0.072652206 0.36883754 0.06384688
v 0.10628624 0.38632005 0.006354651
v 0.072652206 0.38830388 0.006256595
v 0.113562785 0.3601745 0.082456596
v 0.072652206 0.36254722 0.082456596
vt 0.18953146 0.8983732
vt 0.005 0.8983732
vt 0.19412598 0.89837325
vt 0.315578 0.04763946
vt 0.36929858 0.047639452
vt 0.36880732 0.039168622
vt 0.36682564 0.0050000884
vt 0.19512066 0.0050001144
vt 0.19209695 0.030686721
vt 0.27293876 0.04763946
vt 0.19162463 0.03469927
vt 0.19010141 0.04763948
vt 0.29853612 0.23323826
vt 0.315578 0.23779328
vt 0.2729388 0.22639653
vt 0.89584243 0.40988058
vt 0.8907006 0.48330256
vt 0.89584243 0.4787513
vt 0.88006455 0.40988058
vt 0.8800646 0.49271795
vt 0.005 0.8983732
vt 0.19475698 0.90805733
vt 0.19412598 0.89837325
vt 0.005 0.9141512
vt 0.19515382 0.9141512
vt 0.82782185 0.6351801
vt 0.8316751 0.5801571
vt 0.82782185 0.5814595
vt 0.84359956 0.6351801
vt 0.84359956 0.57612646
vt 0.64497256 0.71904534
vt 0.6540652 0.54087543
vt 0.64497256 0.5402882
vt 0.66075027 0.71904534
vt 0.66075027 0.5413109
vt 0.005 0.8983732
vt 0.18953146 0.8983732
vt 0.18273431 0.8983732
vt 0.005 0.8983732
vt 0.005 0.8983732
vt 0.005 0.8983732
vt 0.89584243 0.40988058
vt 0.89584243 0.47666347
vt 0.89584243 0.48141283
vt 0.89584243 0.40988058
vt 0.89584243 0.4787513
vt 0.84359956 0.6351801
vt 0.84359956 0.5765402
vt 0.84359956 0.57612646
vt 0.84359956 0.5777337
vt 0.84359956 0.6351801
vt 0.24865618 0.7438424
vt 0.38169122 0.7603446
vt 0.38726917 0.7438425
vt 0.21703283 0.7795687
vt 0.3668257 0.8043239
vt 0.19512069 0.8043239
vt 0.18634997 0.81651044
vt 0.1867462 0.81987584
vt 0.23602296 0.81651044
vt 0.18746679 0.8259962
vt 0.32776314 0.81651044
vt 0.32749298 0.8211677
vt 0.18817496 0.83228827
vt 0.326788 0.83228827
vt 0.15326624 0.81651044
vt 0.16432872 0.81651044
vt 0.2222394 0.81651044
vt 0.18634997 0.81651044
vt 0.23602296 0.81651044
vt 0.26195592 0.81651044
vt 0.31310415 0.81651044
vt 0.3160749 0.81651044
vt 0.32776314 0.81651044
vt 0.0038394164 0.049400102
vt 0.05401596 7.6293944E-08
vt 0 0
vt 0.08543716 0.07188309
vt 0.08012878 0
vt 0.0876741 0.10217339
vt 0.13837242 0.1627787
vt 0.0050299075 0.06471832
vt 0.012651214 0.1627787
vt 0.31612602 0.11536179
vt 0.1483078 0.10226822
vt 0.3151275 0.10251434
vt 0.31794196 0.13872673
vt 0.3198113 0.16277878
vt 0.00038965224 0.036911774
vt 0.06882834 5.0354006E-06
vt 0.001168251 4.7302246E-06
vt 0.06708248 0.060131226
vt 0 0.060131226
vt 0.16842698 0.025472717
vt 0.16885658 0
vt 0.16784191 0.060131226
vt 0.06735825 0.16239457
vt 0.00032897948 0.119985275
vt 0.0011153412 0.16239464
vt 0.24389923 0.16239464
vt 0.1797557 0.101918414
vt 0.06352234 0.10213692
vt 0 0.10224762
vt 0.22542007 0
vt 0.17812622 0.026523514
vt 0.17755295 0
vt 0.24148606 0.032261696
vt 0.24088776 3.8146972E-08
vn 1.1033263E-05 -1.7197456E-06 -1
vn 1.1033262E-05 -1.7197453E-06 -1
vn 1.1033262E-05 -1.7197453E-06 -1
vn -0 0 1
vn -0 0 1
vn -0 0 1
vn -0 0 1
vn -0 0 1
vn -0 0 1
vn -0 0 1
vn -0 0 1
vn -0 0 1
vn -0 0 1
vn -0 0 1
vn -0 0 1
vn -1 0 1.9509455E-06
vn -1 0 1.9509455E-06
vn -1 0 1.9509455E-06
vn -1 0 0
vn -1 0 -9.431365E-07
vn -0.00021387335 0.9999912 -0.004190859
vn -0.00021387335 0.9999912 -0.004190859
vn -0.00021387334 0.9999912 -0.004190859
vn -0 1 0
vn -0 1 0
vn -1 0 0
vn -1 0 0
vn -1 0 0
vn -1 0 0
vn -1 0 0
vn -0 -1 9.622171E-05
vn -0 -1 9.622171E-05
vn -0 -1 9.622171E-05
vn 7.6582353E-07 -1 8.1221275E-05
vn 7.745376E-07 -1 8.145361E-05
vn 1.8738374E-05 5.7115467E-05 -1
vn 1.8738376E-05 5.711547E-05 -1
vn 1.8738374E-05 5.7115467E-05 -1
vn 0.0029117286 0 -0.9999958
vn 0.0029117286 0 -0.9999958
vn 0.00291163 0 -0.9999958
vn 0.0029128445 0 -0.9999958
vn 0.002912844 0 -0.9999958
vn 0.0029128445 0 -0.9999958
vn 0.0029116296 0 -0.9999958
vn 0.0029108704 0 -0.9999958
vn 0.0029153684 0 -0.9999958
vn 0.0029153684 0 -0.9999958
vn 0.0029153684 0 -0.9999958
vn 0.0029117286 0 -0.9999958
vn 0.0029117286 0 -0.9999958
vn 1 0 0
vn 1 0 0
vn 1 0 0
vn 1 0 0
vn 1 0 0
vn 1 0 0
vn -0 0 -1
vn -0 0 -1
vn -0 0 -1
vn -0 0 -1
vn -0 0 -1
vn -0 0 -1
vn -0 0 -1
vn -0 0 -1
vn -0.99999785 -2.4049505E-05 -0.0021035576
vn -0.999998 -4.583057E-05 -0.0020025992
vn -0.999998 -4.6051817E-05 -0.0020024693
vn -0.999998 -4.605182E-05 -0.0020024695
vn -0.9999981 -2.025781E-05 -0.0019898922
vn -0.9999981 -2.0257809E-05 -0.0019898918
vn -0.9999981 -2.0257809E-05 -0.0019898918
vn -0.9999981 -2.0658557E-05 -0.0019892063
vn -0.99999833 -4.5932717E-05 -0.0018512551
vn 0.087804414 -0.74590385 -0.66024065
vn 0.087804414 -0.74590385 -0.66024065
vn 0.08780442 -0.7459039 -0.66024065
vn 0.08780365 -0.7459023 -0.6602427
vn 0.08780364 -0.7459023 -0.6602426
vn 0.08780585 -0.74590385 -0.6602405
vn 0.08780722 -0.7459027 -0.6602416
vn 0.08780263 -0.74590284 -0.6602422
vn 0.087803446 -0.74590313 -0.66024166
vn 0.08780412 -0.74590355 -0.6602412
vn 0.08780412 -0.74590355 -0.6602412
vn 0.087804124 -0.74590355 -0.6602412
vn 0.08780722 -0.7459027 -0.6602416
vn 0.08780722 -0.7459027 -0.6602416
vn -0.9641801 -0.25771034 -0.06278536
vn -0.9641801 -0.25771034 -0.06278536
vn -0.9641801 -0.25771034 -0.06278536
vn -0.96418047 -0.25770956 -0.06278501
vn -0.9641801 -0.25771052 -0.06278486
vn -0.9641805 -0.25770932 -0.06278409
vn -0.9641805 -0.25770932 -0.0627841
vn -0.96418047 -0.25770956 -0.06278501
vn 0.05485934 0.9459182 0.31973296
vn 0.05485934 0.9459182 0.319733
vn 0.05485934 0.9459182 0.31973296
vn 0.05486171 0.94591874 0.3197311
vn 0.054859057 0.94591844 0.3197325
vn 0.05486275 0.9459179 0.3197334
vn 0.05486274 0.9459179 0.3197334
vn 0.054859728 0.945918 0.31973362
vn 0.054859728 0.945918 0.31973356
vn 0.054859728 0.945918 0.31973356
vn 0.05486118 0.94591844 0.31973207
vn 0.05486118 0.94591844 0.3197321
g Device_Prop_Box_01_v_044_0
f 3/3/3 2/2/2 1/1/1
f 6/6/6 5/5/5 4/4/4
f 6/6/6 4/4/4 7/7/7
f 7/7/7 4/4/4 8/8/8
f 4/4/4 9/9/9 8/8/8
f 4/4/4 10/10/10 9/9/9
f 11/11/11 9/9/9 10/10/10
f 10/10/10 12/12/12 11/11/11
f 10/10/10 4/4/4 13/13/13
f 14/14/14 13/13/13 4/4/4
f 10/10/10 13/13/13 15/15/15
f 18/18/18 17/17/17 16/16/16
f 16/16/16 17/17/17 19/19/19
f 20/20/20 19/19/19 17/17/17
f 23/23/23 22/22/22 21/21/21
f 21/21/21 22/22/22 24/24/24
f 25/25/25 24/24/24 22/22/22
f 28/28/28 27/27/27 26/26/26
f 26/26/26 27/27/27 29/29/29
f 30/30/30 29/29/29 27/27/27
f 33/33/33 32/32/32 31/31/31
f 31/31/31 32/32/32 34/34/34
f 35/35/35 34/34/34 32/32/32
f 38/38/38 37/37/37 36/36/36
f 36/36/36 37/37/37 39/39/39
f 39/39/39 40/40/40 36/36/36
f 41/41/41 36/36/36 40/40/40
f 44/44/44 43/43/43 42/42/42
f 42/42/42 43/43/43 45/45/45
f 46/46/46 45/45/45 43/43/43
f 49/49/49 48/48/48 47/47/47
f 48/48/48 50/50/50 47/47/47
f 51/51/51 47/47/47 50/50/50
f 54/54/54 53/53/53 52/52/52
f 55/55/55 52/52/52 53/53/53
f 53/53/53 56/56/56 55/55/55
f 57/57/57 55/55/55 56/56/56
f 60/60/60 59/59/59 58/58/58
f 60/60/60 61/61/61 59/59/59
f 62/62/62 61/61/61 60/60/60
f 63/63/63 61/61/61 62/62/62
f 61/61/61 63/63/63 64/64/64
f 65/65/65 64/64/64 63/63/63
f 68/68/68 67/67/67 66/66/66
f 67/67/67 68/68/68 69/69/69
f 70/70/70 69/69/69 68/68/68
f 68/68/68 71/71/71 70/70/70
f 71/71/71 72/72/72 70/70/70
f 73/73/73 70/70/70 72/72/72
f 70/70/70 73/73/73 74/74/74
f 77/77/77 76/76/76 75/75/75
f 76/76/76 78/78/78 75/75/75
f 79/79/79 78/78/78 76/76/76
f 78/78/78 80/80/80 75/75/75
f 80/80/80 81/81/81 75/75/75
f 75/75/75 81/81/81 82/82/82
f 82/82/82 81/81/81 83/83/83
f 84/84/84 81/81/81 80/80/80
f 85/85/85 84/84/84 80/80/80
f 86/86/86 84/84/84 85/85/85
f 87/87/87 81/81/81 84/84/84
f 88/88/88 81/81/81 87/87/87
f 91/91/91 90/90/90 89/89/89
f 90/90/90 92/92/92 89/89/89
f 89/89/89 92/92/92 93/93/93
f 94/94/94 92/92/92 90/90/90
f 95/95/95 94/94/94 90/90/90
f 96/96/96 92/92/92 94/94/94
f 99/99/99 98/98/98 97/97/97
f 98/98/98 100/100/100 97/97/97
f 101/101/101 100/100/100 98/98/98
f 102/102/102 101/101/101 98/98/98
f 103/103/103 102/102/102 98/98/98
f 104/104/104 100/100/100 101/101/101
f 105/105/105 104/104/104 101/101/101
f 106/106/106 104/104/104 105/105/105
f 107/107/107 100/100/100 104/104/104
f 108/108/108 107/107/107 104/104/104
