g Device_Prop_Box_008_v_034
v -0.751305 -0.11783767 -0.15633939
v -0.6671676 -0.76769656 -0.15627682
v -0.75137585 -0.7009689 -0.15630415
v -0.62157583 -0.031404573 -0.15636598
v -0.75130296 -0.031355742 -0.15663058
v -0.6215967 -0.803804 -0.15627865
v -0.7513359 -0.11753381 0.059657067
v -0.7513725 -0.7274426 -0.027672268
v -0.7513359 -0.62559843 0.059657067
v -0.7513725 -0.7274426 -0.027672268
v -0.7513359 -0.11753381 0.059657067
v -0.7513903 -0.718744 -0.06987348
v 1.001163 -0.118028745 0.059657115
v 1.0011276 -0.042368248 0.52165484
v 1.001163 -0.118028745 0.5249905
v -0.751114 0.098404944 0.059657067
v -0.7512055 0.0093584405 0.6040891
v -0.751131 0.0983937 0.6804485
v -0.7513359 -0.11756327 0.4952294
v -0.7513359 -0.11753381 0.059657067
v -0.62153316 0.09835262 0.059657115
v -0.6845176 0.09836638 0.7014698
v -0.62156934 0.09831444 0.721312
v -0.751114 0.098404944 0.059657067
v -0.7513359 -0.11756327 0.4952294
v -0.7512055 0.0093584405 0.6040891
v 1.0010617 0.098276265 0.059657164
v 1.0011276 -0.042368248 0.52165484
v 1.001163 -0.118028745 0.059657115
v 1.0011276 -0.042368248 0.52165484
v 1.0010617 0.098276265 0.059657164
v 1.0010617 0.098276265 0.51545405
v -0.751305 -0.11783767 -0.15633939
v -0.6215967 -0.803804 -0.15627865
v -0.6671676 -0.76769656 -0.15627682
v 1.0009313 -0.25503647 -0.15640359
v 0.87153393 -0.38481265 -0.15624303
v 0.90201837 -0.3542455 -0.15625894
v 1.0009313 -0.25503647 -0.15640359
v 0.87153393 -0.3690145 -0.20880477
v 1.0774642 -0.16745189 -0.19252244
v 1.0149928 -0.21808426 -0.232443
v 0.87153393 -0.3619097 -0.23244303
v 1.0774642 -0.1554532 -0.23244298
v 1.0681529 -0.25258303 0.059657067
v 1.0009738 -0.26352385 -0.12802337
v 1.0011677 -0.3197394 0.059657115
v 1.0729761 -0.24774757 0.059657067
v 1.0774643 -0.24324775 0.05965709
v 1.0774642 -0.117623344 0.059657067
v 1.0774642 -0.16745189 -0.19252244
v 1.0774643 -0.24324775 0.05965709
v 1.0774642 0.17447627 -0.23244298
v 1.0774642 -0.1554532 -0.23244298
v 1.0774642 0.17447627 0.49386346
v 1.0774642 -0.03729249 0.5032234
v 1.0774642 -0.117623344 0.5067741
v 1.0774642 -0.117623344 0.059657067
v 1.0011677 -0.3197394 0.059657115
v 1.001163 -0.118028745 0.059657115
v 1.0681529 -0.25258303 0.059657067
v 1.0729761 -0.24774757 0.059657067
v 1.0774643 -0.24324775 0.05965709
v 1.0774642 -0.117623344 0.059657067
v 1.0512735 -0.11776248 0.51302695
v 1.0774642 -0.117623344 0.5067741
v 1.001163 -0.118028745 0.059657115
v 1.001163 -0.118028745 0.5249905
v -0.8275357 0.17447627 -0.23244289
v -0.7006143 0.17447627 0.76163846
v -0.8275357 0.17447627 0.72154105
v -0.62160534 0.17447627 0.059657164
v -0.62160534 0.17447627 0.7865993
v 0.87153393 0.17447627 0.059657164
v 1.0774642 0.17447627 -0.23244298
v 0.98181903 0.17447627 0.51667565
v 0.87153393 0.17447627 0.5429795
v 1.0774642 0.17447627 0.49386346
v 0.87153393 0.098276265 0.059657164
v 0.87153393 0.12628308 0.54510957
v 0.8715338 0.098276265 0.54634744
v 0.87153393 0.17447627 0.059657164
v 0.87153393 0.17447627 0.5429795
v 0.87153393 0.17447627 0.059657164
v -0.62153316 0.09835262 0.059657115
v -0.62160534 0.17447627 0.059657164
v 0.87153393 0.098276265 0.059657164
v -0.62160534 0.17447627 0.059657164
v -0.62160534 0.13451397 0.7523369
v -0.62160534 0.17447627 0.7865993
v -0.62153316 0.09835262 0.059657115
v -0.62156934 0.09831444 0.721312
v -0.8275359 -0.117623344 0.059657067
v -0.8275359 -0.029412836 0.5467334
v -0.8275359 -0.117623344 0.47110468
v -0.8275357 0.17447627 0.72154105
v -0.8275357 0.17447627 -0.23244289
v -0.8275358 -0.6249553 -0.23244289
v -0.8275358 -0.6717528 -0.005038234
v -0.8275359 -0.59752023 0.059657067
v -0.8275358 -0.6719366 -0.004145023
v -0.7513359 -0.11753381 0.059657067
v -0.77601534 -0.117562786 0.48743305
v -0.7513359 -0.11756327 0.4952294
v -0.8275359 -0.117623344 0.47110468
v -0.8275359 -0.117623344 0.059657067
v 1.0149928 -0.21808426 -0.232443
v 0.87153393 -0.031453893 -0.23244303
v 0.87153393 -0.3619097 -0.23244303
v 1.0774642 0.17447627 -0.23244298
v 1.0774642 -0.1554532 -0.23244298
v -0.62160534 -0.031453893 -0.23244293
v -0.8275357 0.17447627 -0.23244289
v -0.68195945 -0.74030197 -0.2324429
v -0.62160534 -0.78812337 -0.23244293
v -0.8275358 -0.6249553 -0.23244289
v -0.62160534 -0.031453893 -0.23244293
v 0.87153393 -0.031453893 -0.15624303
v 0.87153393 -0.031453893 -0.23244303
v -0.62157583 -0.031404573 -0.15636598
v 0.87153393 -0.031453893 -0.23244303
v 0.87153393 -0.3690145 -0.20880477
v 0.87153393 -0.3619097 -0.23244303
v 0.87153393 -0.11823677 -0.15624303
v 0.87153393 -0.031453893 -0.15624303
v 0.87153393 -0.38481265 -0.15624303
v -0.62157583 -0.031404573 -0.15636598
v -0.6215964 -0.7928312 -0.2096002
v -0.6215967 -0.803804 -0.15627865
v -0.62160534 -0.031453893 -0.23244293
v -0.62160534 -0.78812337 -0.23244293
v 0.87153393 0.0983283 -0.15641828
v -0.62157583 -0.031404573 -0.15636598
v -0.62154627 0.09833111 -0.15648901
v 0.87153393 -0.031453893 -0.15624303
v 1.0009557 -0.031429477 -0.15630144
v 1.0010617 0.0983283 -0.15641828
v 0.87153393 0.098276265 0.059657164
v -0.62154627 0.09833111 -0.15648901
v -0.62153316 0.09835262 0.059657115
v 0.87153393 0.0983283 -0.15641828
v 1.0010617 0.0983283 -0.15641828
v 1.0010617 0.098276265 0.059657164
v 1.0010617 0.098276265 0.059657164
v 0.95529217 0.098276265 0.5263704
v 1.0010617 0.098276265 0.51545405
v 0.87153393 0.098276265 0.059657164
v 0.8715338 0.098276265 0.54634744
v 0.87153393 -0.11823677 -0.15624303
v 0.90201837 -0.3542455 -0.15625894
v 0.87153393 -0.38481265 -0.15624303
v 1.0009413 -0.11833551 -0.15641828
v 1.0009313 -0.25503647 -0.15640359
v 0.87153393 -0.031453893 -0.15624303
v 1.0009557 -0.031429477 -0.15630144
v 1.0010617 0.098276265 0.059657164
v 1.0009557 -0.031429477 -0.15630144
v 1.0010617 0.0983283 -0.15641828
v 1.001163 -0.118028745 0.059657115
v 1.0009413 -0.11833551 -0.15641828
v 1.0011677 -0.3197394 0.059657115
v 1.0009738 -0.26352385 -0.12802337
v 1.0009313 -0.25503647 -0.15640359
v -0.75130296 0.09833634 -0.15663058
v -0.7513359 -0.11753381 0.059657067
v -0.751114 0.098404944 0.059657067
v -0.75130296 -0.031355742 -0.15663058
v -0.751305 -0.11783767 -0.15633939
v -0.7513903 -0.718744 -0.06987348
v -0.75137585 -0.7009689 -0.15630415
v -0.751114 0.098404944 0.059657067
v -0.62154627 0.09833111 -0.15648901
v -0.75130296 0.09833634 -0.15663058
v -0.62153316 0.09835262 0.059657115
v -0.62154627 0.09833111 -0.15648901
v -0.75130296 -0.031355742 -0.15663058
v -0.75130296 0.09833634 -0.15663058
v -0.62157583 -0.031404573 -0.15636598
v -0.7513359 -0.62559843 0.059657067
v -0.76863486 -0.61922413 0.059657067
v -0.7513359 -0.11753381 0.059657067
v -0.8275359 -0.59752023 0.059657067
v -0.8275359 -0.117623344 0.059657067
v -0.751131 0.0983937 0.6804485
v -0.62153316 0.09835262 0.059657115
v -0.751114 0.098404944 0.059657067
v -0.6845176 0.09836638 0.7014698
v -0.8275359 -0.029412836 0.5467334
v -0.77601534 -0.117562786 0.48743305
v -0.8275359 -0.117623344 0.47110468
v -0.8275357 0.17447627 0.72154105
v -0.751131 0.0983937 0.6804485
v -0.7512055 0.0093584405 0.6040891
v -0.7513359 -0.11756327 0.4952294
v -0.62160534 0.13451397 0.7523369
v -0.7006143 0.17447627 0.76163846
v -0.62160534 0.17447627 0.7865993
v -0.6845176 0.09836638 0.7014698
v -0.62156934 0.09831444 0.721312
v 0.98181903 0.17447627 0.51667565
v 0.87153393 0.12628308 0.54510957
v 0.87153393 0.17447627 0.5429795
v 0.95529217 0.098276265 0.5263704
v 0.8715338 0.098276265 0.54634744
v 1.0010617 0.098276265 0.51545405
v 1.0774642 -0.03729249 0.5032234
v 1.0774642 0.17447627 0.49386346
v 1.0512735 -0.11776248 0.51302695
v 1.0774642 -0.117623344 0.5067741
v 1.0011276 -0.042368248 0.52165484
v 1.001163 -0.118028745 0.5249905
v -0.7513725 -0.7274426 -0.027672268
v -0.76863486 -0.61922413 0.059657067
v -0.7513359 -0.62559843 0.059657067
v -0.8275359 -0.59752023 0.059657067
v -0.8275358 -0.6719366 -0.004145023
v -0.68195945 -0.74030197 -0.2324429
v -0.6215964 -0.7928312 -0.2096002
v -0.62160534 -0.78812337 -0.23244293
v -0.8275358 -0.6249553 -0.23244289
v -0.75137585 -0.7009689 -0.15630415
v -0.8275358 -0.6717528 -0.005038234
v -0.8275358 -0.6719366 -0.004145023
v -0.6671676 -0.76769656 -0.15627682
v -0.6215967 -0.803804 -0.15627865
v -0.7513903 -0.718744 -0.06987348
v -0.7513725 -0.7274426 -0.027672268
vt 1.8435996 0.42983592
vt 1.8435994 0.5630446
vt 1.8435996 0.54934514
vt 1.8435996 0.40988058
vt 1.8435996 0.40988058
vt 1.8435996 0.5697964
vt 1.4625545 0.8426319
vt 1.3346347 0.84263194
vt 1.3562107 0.8426319
vt 1.3346347 0.84263194
vt 1.4625545 0.8426319
vt 1.3363304 0.8426319
vt 1.791357 0.40988058
vt 1.791357 0.5055404
vt 1.7913572 0.50623107
vt 1.712993 0.40988058
vt 1.712993 0.522609
vt 1.712993 0.5384197
vt 1.7129931 0.50006884
vt 1.712993 0.40988058
vt 1.7233366 0.40988058
vt 1.7233366 0.5427723
vt 1.7233367 0.54688084
vt 1.712993 0.40988058
vt 1.7129931 0.50006884
vt 1.712993 0.522609
vt 1.791357 0.40988058
vt 1.791357 0.5055404
vt 1.791357 0.40988058
vt 1.791357 0.5055404
vt 1.791357 0.40988058
vt 1.7913572 0.5042565
vt 1.8435996 0.42983592
vt 1.8435996 0.5697964
vt 1.8435994 0.5630446
vt 0.14430198 0.061207503
vt 0 0.061336745
vt 0.033992156 0.06132393
vt 0.14430198 0.061207503
vt 0.0088072205 0.01902748
vt 0.23568664 0.032133847
vt 0.17272156 3.8146972E-08
vt 0.012768097 0
vt 0.24237579 3.8146972E-08
vt 0.18304947 0.2351242
vt 0.13959403 0.084051974
vt 0.10836243 0.23512425
vt 0.18842712 0.2351242
vt 0.19343156 0.23512423
vt 0.52303565 0.47036183
vt 0.5127184 0.41814637
vt 0.49702424 0.47036183
vt 0.58351696 0.40988055
vt 0.51520276 0.40988058
vt 0.58351696 0.5602672
vt 0.53966874 0.5622053
vt 0.52303565 0.5629405
vt 0.005 0.85840964
vt 0.04675653 0.8426318
vt 0.005 0.8426319
vt 0.03292804 0.8564836
vt 0.031932335 0.85748094
vt 0.03101141 0.8584097
vt 0.76523554 0.40988058
vt 0.75981975 0.50375396
vt 0.76523554 0.5024592
vt 0.74945784 0.40988058
vt 0.74945784 0.50623107
vt 1.9871731 0.005
vt 1.9608932 0.21083139
vt 1.9871731 0.20252901
vt 1.9445338 0.0654813
vt 1.9445338 0.21599966
vt 1.6353691 0.0654813
vt 1.5927298 0.005
vt 1.6125338 0.16011013
vt 1.6353691 0.16555652
vt 1.5927298 0.15538678
vt 1.791357 0.40988058
vt 1.785558 0.5103969
vt 1.791357 0.5106532
vt 1.7755792 0.40988058
vt 1.7755792 0.5099558
vt 1.005 0.8705026
vt 1.3141646 0.8862804
vt 1.3141646 0.8705026
vt 1.005 0.8862804
vt 1.7391143 0.40988058
vt 1.7308397 0.55330473
vt 1.7391143 0.56039894
vt 1.7233366 0.40988058
vt 1.7233367 0.54688084
vt 1.0654813 0.47036183
vt 1.0472167 0.5712143
vt 1.0654813 0.55555487
vt 1.005 0.6074095
vt 1.005 0.40988055
vt 1.1705279 0.40988058
vt 1.1802176 0.4569662
vt 1.1648473 0.47036183
vt 1.1802555 0.45715114
vt 1.712993 0.40988058
vt 1.7078829 0.49845457
vt 1.7129931 0.50006884
vt 1.6972153 0.49507365
vt 1.6972152 0.40988058
vt 1.5022346 0.38650826
vt 1.5408776 0.35680407
vt 1.4724544 0.35680407
vt 1.583517 0.3994434
vt 1.5152028 0.39944342
vt 1.5408776 0.04763943
vt 1.5835168 0.005000055
vt 1.3941057 0.035142675
vt 1.3842039 0.047639452
vt 1.417989 0.005000081
vt 1.671094 0.7190452
vt 1.6868718 0.40988055
vt 1.671094 0.40988055
vt 1.6868718 0.7190452
vt 1.8017006 0.6351801
vt 1.8065951 0.56528914
vt 1.8017006 0.56675696
vt 1.8174784 0.617212
vt 1.8174784 0.6351801
vt 1.8174784 0.5620182
vt 1.8435996 0.40988058
vt 1.8325593 0.56753206
vt 1.8435996 0.5697964
vt 1.8278219 0.40988058
vt 1.8278219 0.5665542
vt 1.6868718 0.40988055
vt 1.6868718 0.7190452
vt 1.6868718 0.7190452
vt 1.6868718 0.40988055
vt 1.6868718 0.40988055
vt 1.6868718 0.40988055
vt 1.005 0.8862804
vt 1.3141646 0.8862804
vt 1.3141646 0.8862804
vt 1.005 0.8862804
vt 1.005 0.8862804
vt 1.005 0.8862804
vt 1.791357 0.40988058
vt 1.791357 0.5065168
vt 1.7913572 0.5042565
vt 1.791357 0.40988058
vt 1.791357 0.5106532
vt 1.8174784 0.617212
vt 1.8174784 0.56834304
vt 1.8174784 0.5620182
vt 1.8174784 0.617212
vt 1.8174784 0.58890325
vt 1.8174784 0.6351801
vt 1.8174784 0.6351801
vt 1.005 0.8862804
vt 1.005 0.8862804
vt 1.005 0.8862804
vt 1.005 0.8862804
vt 1.005 0.8862804
vt 1.005 0.8862804
vt 1.005 0.8862805
vt 1.005 0.8862804
vt 1.4625545 0.8426319
vt 1.4625545 0.8426319
vt 1.4625545 0.8426319
vt 1.4625545 0.8426319
vt 1.4625545 0.8426319
vt 1.3363304 0.8426319
vt 1.3400888 0.8426319
vt 1.4625545 0.8426319
vt 1.4625545 0.8426319
vt 1.4625545 0.8426319
vt 1.4625545 0.8426319
vt 1.4625545 0.8426319
vt 1.4625545 0.8426319
vt 1.4625545 0.8426319
vt 1.4625545 0.8426319
vt 1.3562107 0.8426319
vt 1.3586802 0.84621376
vt 1.4625545 0.8426319
vt 1.3631885 0.85840964
vt 1.4625545 0.85840964
vt 1.7233366 0.5384197
vt 1.7233366 0.40988058
vt 1.7233366 0.40988058
vt 1.7233366 0.5427723
vt 0.017939378 0.08971443
vt 0.042556 6.149292E-05
vt 0 0
vt 0.059404336 0.29707977
vt 0.10702347 0.21970001
vt 0.0888549 0.12914672
vt 0.06293522 6.1035156E-05
vt 0.22132653 0.25643617
vt 0.16421112 0.29707977
vt 0.22945365 0.29707977
vt 0.16202469 0.21967225
vt 0.21399437 0.21961945
vt 0.08988983 0.23053162
vt 0.00022621154 0.19254921
vt 0.0006153488 0.23053162
vt 0.0678014 0.17047623
vt 0 0.17047623
vt 0.10485122 0.17047623
vt 0.16560364 0.0636306
vt 0.1673135 0.23053162
vt 0.14375278 0.00020980835
vt 0.16495502 0.00031944274
vt 0.10376892 0.05963028
vt 0.10318672 0
vt 0.105757296 0.29154098
vt 0.11351105 0.40160462
vt 0.12649956 0.3951216
vt 0.0692868 0.42367858
vt 0.054152835 0.34799334
vt 0.16522197 0.14509735
vt 0.13926767 0.20526177
vt 0.15763211 0.20525292
vt 0.18352902 0
vt 0.1127434 0.07590942
vt 0.00071804045 0
vt 0 0
vt 0.102131754 0.15984054
vt 0.09640244 0.20526153
vt 0.04326347 0.07589493
vt 0.009335623 0.075912625
vn -0.0002767117 6.046407E-05 1
vn -0.0002767117 6.0464074E-05 1
vn -0.0002767117 6.046407E-05 1
vn -0.002038409 0.0033669972 0.99999225
vn -0.0020384092 0.0033669975 0.99999225
vn 0.00012955826 0.0001130534 1
vn 1 0 -0.00041939714
vn 1 0 -0.00041939717
vn 1 0 -0.0004193971
vn 1 0 -0.00042014307
vn 1 0 -0.000420143
vn 1 0 -0.00042014307
vn -0.9999999 -0.00046871154 0
vn -0.9999999 -0.00046871157 0
vn -0.9999999 -0.00046871157 0
vn 0.99999964 -0.000860282 2.7298473E-05
vn 0.99999964 -0.000860282 2.7298473E-05
vn 0.99999964 -0.00086028187 2.729847E-05
vn 0.9999995 -0.0010275395 0
vn 0.9999995 -0.0010275394 0
vn -0.0008068381 -0.99999976 -5.7741756E-05
vn -0.0008068381 -0.99999976 -5.774175E-05
vn -0.00080683816 -0.99999976 -5.7741756E-05
vn 0.9999995 -0.0010275048 0
vn 0.9999995 -0.0010275049 0
vn 0.9999995 -0.0010275048 0
vn -0.9999999 -0.00046855313 0
vn -0.9999999 -0.00046855313 0
vn -0.9999999 -0.00046855313 0
vn -0.9999999 -0.00046846792 0
vn -0.9999999 -0.00046846792 0
vn -0.9999999 -0.00046846792 0
vn 0.00012973488 0.00011308682 1
vn 0.00012973488 0.0001130868 1
vn 0.00012973486 0.0001130868 1
vn 0.6924883 -0.69072413 -0.20823109
vn 0.6924883 -0.69072413 -0.20823108
vn 0.6924883 -0.69072413 -0.20823106
vn 0.69257694 -0.6908153 -0.20763294
vn 0.69257843 -0.6908135 -0.20763361
vn 0.6925789 -0.69081306 -0.20763372
vn 0.6925784 -0.6908138 -0.20763338
vn 0.6925783 -0.6908138 -0.20763338
vn 0.69257885 -0.69081306 -0.2076337
vn 0.6925783 -0.6908138 -0.20763353
vn 0.69257826 -0.6908138 -0.20763353
vn 0.6925783 -0.6908138 -0.20763353
vn 0.6925772 -0.6908147 -0.20763384
vn 0.6925842 -0.69080836 -0.20763172
vn 1 7.7129374E-07 0
vn 1 7.712937E-07 0
vn 1 7.7129374E-07 0
vn 1 0 0
vn 1 0 0
vn 1 0 0
vn 1 0 0
vn 1 0 0
vn 6.349391E-07 0 1
vn 6.349391E-07 0 1
vn 6.3493917E-07 0 1
vn 7.7698775E-07 0 1
vn -0 0 1
vn -5.5903183E-06 0 1
vn 0.0053124432 -0.99998593 0
vn 0.0053124423 -0.99998593 0
vn 0.0053124423 -0.99998593 0
vn 0.0053130966 -0.99998593 0
vn 0.005313438 -0.99998593 0
vn -0 1 0
vn -0 1 0
vn -0 1 0
vn -0 1 0
vn -0 1 0
vn -0 1 0
vn -0 1 0
vn -0 1 0
vn -0 1 0
vn -0 1 0
vn -1 3.450834E-06 0
vn -1 3.4508344E-06 0
vn -1 3.450834E-06 0
vn -1 0 0
vn -1 0 0
vn -0 -6.364206E-07 1
vn -0 -6.3642057E-07 1
vn -0 -6.3642057E-07 1
vn -0 0 1
vn 1 0 0
vn 1 0 0
vn 1 0 0
vn 0.9999995 0.00094885024 5.4677166E-05
vn 0.9999995 0.00094885024 5.4677173E-05
vn -1 0 0
vn -1 0 0
vn -1 0 0
vn -1 6.6342653E-07 0
vn -1 0 -5.422231E-07
vn -1 0 -5.422232E-07
vn -1 0 0
vn -1 -1.1068179E-06 0
vn -1 -1.1068179E-06 0
vn 1.7327436E-06 -1 -6.762497E-05
vn 1.7327436E-06 -1 -6.762498E-05
vn 1.7327436E-06 -1 -6.762497E-05
vn 0.0011749261 -0.9999993 0
vn 0.001174926 -0.9999993 0
vn -0 0 -1
vn -0 0 -1
vn -0 0 -1
vn -0 0 -1
vn -0 0 -1
vn -0 0 -1
vn -0 0 -1
vn -0 0 -1
vn -0 0 -1
vn -0 0 -1
vn -0 -1 0
vn -0 -1 0
vn -0 -1 0
vn -3.3084227E-05 -0.99999976 0.0006482863
vn -1 0 0
vn -1 0 0
vn -1 0 0
vn -1 0 0
vn -1 0 0
vn -1 0 0
vn 1 -2.7033318E-05 0
vn 1 -2.7033322E-05 0
vn 1 -2.7033318E-05 0
vn 1 0 -0.0003884549
vn 1 0 -0.00039022823
vn -8.229723E-05 0.0013503826 0.99999917
vn -8.229723E-05 0.0013503826 0.99999917
vn -4.7371483E-05 0.0009484186 0.9999995
vn -8.229723E-05 0.0013503827 0.99999917
vn 0.00045109517 0.0013503825 0.99999905
vn -0 0.00090045604 0.99999964
vn -5.1137646E-05 -1 9.9520556E-05
vn -5.1137646E-05 -1 9.9520556E-05
vn -5.1137646E-05 -1 9.952057E-05
vn -1.870545E-06 -1 -0.00024080343
vn -0 -1 -0.00024080343
vn -0 -1 -0.00024080346
vn -0 -1 0
vn -0 -1 0
vn -0 -1 0
vn -0 -1 0
vn -0 -1 0
vn 0.00052206 0 0.9999999
vn 0.00052206 0 0.9999999
vn 0.00052206 0 0.9999999
vn 0.0013542937 0 0.99999917
vn 0.0013543831 0.00010750441 0.99999917
vn 0.0013542937 0 0.99999917
vn 0.00045160353 -0.0013445278 0.99999905
vn -0.99999964 0.00081691635 0
vn -0.9999995 0.00016362904 0.0010257603
vn -0.99999964 0.0008169165 0
vn -0.9999995 0.00016362905 0.0010257603
vn -0.9999995 0.00016362905 0.0010257604
vn -0.9999995 -2.3057171E-05 0.0010260255
vn -0.9999989 7.387853E-05 0.0015208896
vn -0.9999989 7.387853E-05 0.0015208898
vn 1 0 0.00015231442
vn 1 -2.3046225E-05 0.00014313181
vn 0.99999917 -0.001027539 -0.0008732412
vn 1 -2.3046225E-05 0.00014313181
vn 1 -2.3046225E-05 0.00014313182
vn 1 -0.00012128037 0.00014327002
vn 1 -0.00012145465 0.0001420588
vn -4.066952E-05 -1 0.0003172079
vn -4.0669525E-05 -1 0.0003172079
vn -4.066953E-05 -1 0.00031720792
vn -0.00040378192 -1 9.954191E-05
vn -0.0010909726 0 0.9999994
vn -0.0010909726 0 0.9999994
vn -0.0010909726 0 0.9999994
vn -0.0020393303 0.0009488705 0.9999975
vn -0 0 1
vn -0 0 1
vn -0 0 1
vn -0 0 1
vn -0 0 1
vn -0.00040378186 -1 -1.8116345E-05
vn -0.0004037818 -1 -1.8116343E-05
vn -0.00040378177 -1 -1.8116343E-05
vn -0.0004044271 -1 -1.8251054E-05
vn -0.23322466 -0.6329395 0.73823696
vn -0.23322466 -0.6329395 0.73823696
vn -0.23322468 -0.6329395 0.73823696
vn -0.23322432 -0.6329394 0.73823714
vn -0.23322755 -0.6329391 0.7382363
vn -0.2332259 -0.6329397 0.7382365
vn -0.2332259 -0.6329397 0.7382365
vn -0.23322481 -0.63294035 0.73823625
vn -0.23322628 -0.6329396 0.7382364
vn -0.23322628 -0.6329396 0.7382364
vn -0.23322481 -0.6329403 0.73823625
vn -0.23322478 -0.6329404 0.73823625
vn 0.2317858 0.042953625 0.97181803
vn 0.2317858 0.042953625 0.97181803
vn 0.23178579 0.042953625 0.97181803
vn 0.23178625 0.042952135 0.97181803
vn 0.23178628 0.04295214 0.97181803
vn 0.23178633 0.04295242 0.9718179
vn 0.23178679 0.04295473 0.97181773
vn 0.23178701 0.04295348 0.9718178
vn 0.23178701 0.042953853 0.97181773
vn 0.23178679 0.04295473 0.97181773
vn 0.23178704 0.042953853 0.97181773
vn 0.23178704 0.042953853 0.97181773
vn -0.2332257 -0.6329394 0.7382367
vn -0.2332257 -0.6329394 0.7382367
vn -0.23322569 -0.63293934 0.73823684
vn -0.23322602 -0.6329393 0.7382367
vn -0.23322614 -0.63293934 0.73823655
vn -0.6131062 -0.7737858 -0.15923674
vn -0.6131063 -0.7737858 -0.15923674
vn -0.6131062 -0.7737858 -0.15923671
vn -0.6131053 -0.7737859 -0.15923963
vn -0.61310554 -0.773786 -0.1592381
vn -0.6130513 -0.773837 -0.15919964
vn -0.6131061 -0.7737859 -0.15923665
vn -0.6131048 -0.7737867 -0.15923713
vn -0.6131048 -0.7737867 -0.15923713
vn -0.6131061 -0.7737859 -0.15923665
vn -0.6131061 -0.7737859 -0.15923667
g Device_Prop_Box_008_v_034_0
f 3/3/3 2/2/2 1/1/1
f 5/5/5 1/1/1 4/4/4
f 4/4/4 1/1/1 6/6/6
f 9/9/9 8/8/8 7/7/7
f 12/12/12 11/11/11 10/10/10
f 15/15/15 14/14/14 13/13/13
f 18/18/18 17/17/17 16/16/16
f 20/20/20 16/16/16 19/19/19
f 23/23/23 22/22/22 21/21/21
f 26/26/26 25/25/25 24/24/24
f 29/29/29 28/28/28 27/27/27
f 32/32/32 31/31/31 30/30/30
f 35/35/35 34/34/34 33/33/33
f 38/38/38 37/37/37 36/36/36
f 37/37/37 40/40/40 39/39/39
f 40/40/40 41/41/41 39/39/39
f 42/42/42 41/41/41 40/40/40
f 43/43/43 42/42/42 40/40/40
f 44/44/44 41/41/41 42/42/42
f 39/39/39 41/41/41 45/45/45
f 46/46/46 39/39/39 45/45/45
f 47/47/47 46/46/46 45/45/45
f 45/45/45 41/41/41 48/48/48
f 48/48/48 41/41/41 49/49/49
f 52/52/52 51/51/51 50/50/50
f 53/53/53 50/50/50 51/51/51
f 53/53/53 51/51/51 54/54/54
f 53/53/53 55/55/55 50/50/50
f 56/56/56 50/50/50 55/55/55
f 50/50/50 56/56/56 57/57/57
f 60/60/60 59/59/59 58/58/58
f 61/61/61 58/58/58 59/59/59
f 61/61/61 62/62/62 58/58/58
f 62/62/62 63/63/63 58/58/58
f 66/66/66 65/65/65 64/64/64
f 64/64/64 65/65/65 67/67/67
f 68/68/68 67/67/67 65/65/65
f 71/71/71 70/70/70 69/69/69
f 69/69/69 70/70/70 72/72/72
f 73/73/73 72/72/72 70/70/70
f 72/72/72 74/74/74 69/69/69
f 75/75/75 69/69/69 74/74/74
f 75/75/75 74/74/74 76/76/76
f 77/77/77 76/76/76 74/74/74
f 75/75/75 76/76/76 78/78/78
f 81/81/81 80/80/80 79/79/79
f 79/79/79 80/80/80 82/82/82
f 83/83/83 82/82/82 80/80/80
f 86/86/86 85/85/85 84/84/84
f 87/87/87 84/84/84 85/85/85
f 90/90/90 89/89/89 88/88/88
f 88/88/88 89/89/89 91/91/91
f 92/92/92 91/91/91 89/89/89
f 95/95/95 94/94/94 93/93/93
f 94/94/94 96/96/96 93/93/93
f 97/97/97 93/93/93 96/96/96
f 97/97/97 98/98/98 93/93/93
f 99/99/99 93/93/93 98/98/98
f 93/93/93 99/99/99 100/100/100
f 101/101/101 100/100/100 99/99/99
f 104/104/104 103/103/103 102/102/102
f 103/103/103 105/105/105 102/102/102
f 106/106/106 102/102/102 105/105/105
f 109/109/109 108/108/108 107/107/107
f 110/110/110 107/107/107 108/108/108
f 110/110/110 111/111/111 107/107/107
f 108/108/108 112/112/112 110/110/110
f 113/113/113 110/110/110 112/112/112
f 113/113/113 112/112/112 114/114/114
f 115/115/115 114/114/114 112/112/112
f 113/113/113 114/114/114 116/116/116
f 119/119/119 118/118/118 117/117/117
f 120/120/120 117/117/117 118/118/118
f 123/123/123 122/122/122 121/121/121
f 121/121/121 122/122/122 124/124/124
f 125/125/125 121/121/121 124/124/124
f 126/126/126 124/124/124 122/122/122
f 129/129/129 128/128/128 127/127/127
f 127/127/127 128/128/128 130/130/130
f 131/131/131 130/130/130 128/128/128
f 134/134/134 133/133/133 132/132/132
f 135/135/135 132/132/132 133/133/133
f 135/135/135 136/136/136 132/132/132
f 137/137/137 132/132/132 136/136/136
f 140/140/140 139/139/139 138/138/138
f 141/141/141 138/138/138 139/139/139
f 141/141/141 142/142/142 138/138/138
f 143/143/143 138/138/138 142/142/142
f 146/146/146 145/145/145 144/144/144
f 144/144/144 145/145/145 147/147/147
f 148/148/148 147/147/147 145/145/145
f 151/151/151 150/150/150 149/149/149
f 149/149/149 150/150/150 152/152/152
f 153/153/153 152/152/152 150/150/150
f 149/149/149 152/152/152 154/154/154
f 155/155/155 154/154/154 152/152/152
f 158/158/158 157/157/157 156/156/156
f 159/159/159 156/156/156 157/157/157
f 160/160/160 159/159/159 157/157/157
f 159/159/159 160/160/160 161/161/161
f 162/162/162 161/161/161 160/160/160
f 163/163/163 162/162/162 160/160/160
f 166/166/166 165/165/165 164/164/164
f 167/167/167 164/164/164 165/165/165
f 167/167/167 165/165/165 168/168/168
f 165/165/165 169/169/169 168/168/168
f 170/170/170 168/168/168 169/169/169
f 173/173/173 172/172/172 171/171/171
f 174/174/174 171/171/171 172/172/172
f 177/177/177 176/176/176 175/175/175
f 178/178/178 175/175/175 176/176/176
f 181/181/181 180/180/180 179/179/179
f 180/180/180 181/181/181 182/182/182
f 183/183/183 182/182/182 181/181/181
f 186/186/186 185/185/185 184/184/184
f 187/187/187 184/184/184 185/185/185
f 190/190/190 189/189/189 188/188/188
f 188/188/188 189/189/189 191/191/191
f 189/189/189 192/192/192 191/191/191
f 193/193/193 192/192/192 189/189/189
f 194/194/194 193/193/193 189/189/189
f 192/192/192 195/195/195 191/191/191
f 195/195/195 196/196/196 191/191/191
f 197/197/197 196/196/196 195/195/195
f 198/198/198 195/195/195 192/192/192
f 199/199/199 195/195/195 198/198/198
f 202/202/202 201/201/201 200/200/200
f 201/201/201 203/203/203 200/200/200
f 204/204/204 203/203/203 201/201/201
f 203/203/203 205/205/205 200/200/200
f 205/205/205 206/206/206 200/200/200
f 200/200/200 206/206/206 207/207/207
f 208/208/208 206/206/206 205/205/205
f 209/209/209 206/206/206 208/208/208
f 210/210/210 208/208/208 205/205/205
f 211/211/211 208/208/208 210/210/210
f 214/214/214 213/213/213 212/212/212
f 213/213/213 215/215/215 212/212/212
f 215/215/215 216/216/216 212/212/212
f 219/219/219 218/218/218 217/217/217
f 217/217/217 218/218/218 220/220/220
f 218/218/218 221/221/221 220/220/220
f 221/221/221 222/222/222 220/220/220
f 223/223/223 222/222/222 221/221/221
f 224/224/224 221/221/221 218/218/218
f 225/225/225 224/224/224 218/218/218
f 226/226/226 223/223/223 221/221/221
f 227/227/227 223/223/223 226/226/226
