g Device_Prop_Box_01_v_040
v -0.007715033 -0.024681875 -0.03548216
v -0.007715033 -0.031110747 0.016658043
v -0.007715033 -0.031110747 -0.03548216
v -0.007715033 -0.024681875 -0.03548216
v -0.007715033 -0.024681875 0.022603465
v -0.007715033 -0.031110747 0.016658043
v 0.00771387 -0.024681875 -0.03548216
v 0.00771387 0.021054456 -0.047862824
v 0.00771387 -0.02105494 -0.04786285
v 0.00771387 0.024681367 -0.035482135
v 0.00771387 -0.031110747 0.016658043
v 0.00771387 -0.031110747 -0.03548216
v 0.00771387 0.031110236 0.016658068
v 0.00771387 0.031110236 -0.035482135
v 0.00771387 -0.024681875 0.022603465
v 0.00771387 0.024681367 0.02260349
v 0.00771387 0.024681367 0.04937557
v 0.00771387 -0.024681875 0.049375545
v 0.00771387 0.021054456 -0.047862824
v -0.007715033 -0.02105494 -0.04786285
v 0.00771387 -0.02105494 -0.04786285
v -0.007715033 0.021054456 -0.047862824
v 0.00771387 0.024681367 0.02260349
v -0.007715033 0.024681367 0.04937557
v -0.007715033 0.024681367 0.02260349
v 0.00771387 0.024681367 0.04937557
v 0.00771387 -0.024681875 0.049375545
v -0.007715033 0.024681367 0.04937557
v 0.00771387 0.024681367 0.04937557
v -0.007715033 -0.024681875 0.049375545
v 0.00771387 -0.024681875 -0.03548216
v -0.007715033 -0.02105494 -0.04786285
v -0.007715033 -0.024681875 -0.03548216
v 0.00771387 -0.02105494 -0.04786285
v 0.00771387 0.021054456 -0.047862824
v -0.007715033 0.024681367 -0.035482135
v -0.007715033 0.021054456 -0.047862824
v 0.00771387 0.024681367 -0.035482135
v 0.00771387 -0.024681875 0.049375545
v -0.007715033 -0.024681875 0.022603465
v -0.007715033 -0.024681875 0.049375545
v 0.00771387 -0.024681875 0.022603465
v 0.00771387 0.031110236 -0.035482135
v -0.007715033 0.031110236 0.016658068
v -0.007715033 0.031110236 -0.035482135
v 0.00771387 0.031110236 0.016658068
v 0.00771387 -0.031110747 0.016658043
v -0.007715033 -0.031110747 -0.03548216
v -0.007715033 -0.031110747 0.016658043
v 0.00771387 -0.031110747 -0.03548216
v -0.007715033 0.024681367 0.02260349
v 0.00771387 0.031110236 0.016658068
v 0.00771387 0.024681367 0.02260349
v -0.007715033 0.031110236 0.016658068
v 0.00771387 0.024681367 -0.035482135
v -0.007715033 0.031110236 -0.035482135
v -0.007715033 0.024681367 -0.035482135
v 0.00771387 0.031110236 -0.035482135
v -0.007715033 -0.024681875 -0.03548216
v 0.00771387 -0.031110747 -0.03548216
v 0.00771387 -0.024681875 -0.03548216
v -0.007715033 -0.031110747 -0.03548216
v 0.00771387 -0.024681875 0.022603465
v -0.007715033 -0.031110747 0.016658043
v -0.007715033 -0.024681875 0.022603465
v 0.00771387 -0.031110747 0.016658043
v -0.007715033 0.024681367 -0.035482135
v -0.007715033 -0.02105494 -0.04786285
v -0.007715033 0.021054456 -0.047862824
v -0.007715033 -0.024681875 -0.03548216
v -0.007715033 -0.024681875 0.022603465
v -0.007715033 0.024681367 0.02260349
v -0.007715033 0.024681367 0.04937557
v -0.007715033 -0.024681875 0.049375545
v -0.007715033 0.024681367 0.02260349
v -0.007715033 0.031110236 -0.035482135
v -0.007715033 0.031110236 0.016658068
v -0.007715033 0.024681367 -0.035482135
vt 0.9157667 0.5555118
vt 0.915772 0.599484
vt 0.9157667 0.5599572
vt 0.9157667 0.5555118
vt 0.915772 0.60392946
vt 0.915772 0.599484
vt 0.9361837 0.56400126
vt 0.9678092 0.5554405
vt 0.9386915 0.5554405
vt 0.97031724 0.56400126
vt 0.931738 0.60005504
vt 0.931738 0.56400126
vt 0.9747627 0.6000553
vt 0.9747627 0.5640015
vt 0.9361837 0.6041662
vt 0.9703171 0.6041662
vt 0.9703171 0.6226786
vt 0.93618345 0.6226786
vt 0.9675958 0.55132943
vt 0.9384781 0.5406607
vt 0.9384781 0.55132943
vt 0.9675958 0.5406607
vt 0.97948885 0.6046528
vt 0.9901575 0.6231651
vt 0.9901575 0.6046528
vt 0.97948885 0.6231651
vt 0.93610144 0.6287554
vt 0.970235 0.63942415
vt 0.970235 0.6287554
vt 0.93610144 0.63942415
vt 0.92643535 0.5555118
vt 0.9157667 0.54695076
vt 0.9157667 0.5555118
vt 0.92643535 0.54695076
vt 0.979592 0.54818267
vt 0.99026066 0.5567437
vt 0.99026066 0.54818267
vt 0.979592 0.5567437
vt 0.9264409 0.6224418
vt 0.915772 0.60392946
vt 0.915772 0.6224418
vt 0.9264409 0.60392946
vt 0.97948885 0.5641536
vt 0.9901575 0.6002074
vt 0.9901577 0.5641536
vt 0.97948885 0.6002074
vt 0.9264409 0.599484
vt 0.915772 0.56343025
vt 0.915772 0.599484
vt 0.9264409 0.56343025
vt 0.9901575 0.6046528
vt 0.97948885 0.6002074
vt 0.97948885 0.6046528
vt 0.9901575 0.6002074
vt 0.979592 0.5567437
vt 0.99026066 0.5611889
vt 0.99026066 0.5567437
vt 0.979592 0.5611889
vt 0.9157667 0.5555118
vt 0.92643535 0.5599572
vt 0.92643535 0.5555118
vt 0.9157667 0.5599572
vt 0.9264409 0.60392946
vt 0.915772 0.599484
vt 0.915772 0.60392946
vt 0.9264409 0.599484
vt 0.99026066 0.5567437
vt 0.9384781 0.5406607
vt 0.99026066 0.54818267
vt 0.9157667 0.5555118
vt 0.915772 0.60392946
vt 0.9901575 0.6046528
vt 0.970235 0.63942415
vt 0.915772 0.6224418
vt 0.9901575 0.6046528
vt 0.9901577 0.5641536
vt 0.9901575 0.6002074
vt 0.99026066 0.5567437
vn -1 0 0
vn -1 0 0
vn -1 0 0
vn -1 0 0
vn -1 0 0
vn -1 0 0
vn 1 0 0
vn 1 0 0
vn 1 0 0
vn 1 0 0
vn 1 0 0
vn 1 0 0
vn 1 0 0
vn 1 0 0
vn 1 0 0
vn 1 0 0
vn 1 0 0
vn 1 0 0
vn -0 5.752476E-07 -1
vn -0 5.752476E-07 -1
vn -0 5.752476E-07 -1
vn -0 5.752476E-07 -1
vn -0 1 0
vn -0 1 0
vn -0 1 0
vn -0 1 0
vn -0 -4.907159E-07 1
vn -0 -4.907158E-07 1
vn -0 -4.907159E-07 1
vn -0 -4.907159E-07 1
vn -0 -0.95966804 -0.28113568
vn -0 -0.95966804 -0.2811357
vn -0 -0.95966804 -0.28113568
vn -0 -0.95966804 -0.28113568
vn -0 0.9596686 -0.28113398
vn -0 0.9596686 -0.28113398
vn -0 0.9596686 -0.281134
vn -0 0.9596686 -0.281134
vn -0 -1 0
vn -0 -1 0
vn -0 -1 0
vn -0 -1 0
vn -0 1 0
vn -0 1 0
vn -0 1 0
vn -0 1 0
vn -0 -1 0
vn -0 -1 0
vn -0 -1 0
vn -0 -1 0
vn -0 0.67896295 0.7341725
vn -0 0.67896295 0.7341725
vn -0 0.67896295 0.7341725
vn -0 0.67896295 0.7341725
vn -0 0 -1
vn -0 0 -1
vn -0 0 -1
vn -0 0 -1
vn -0 0 -1
vn -0 0 -1
vn -0 0 -1
vn -0 0 -1
vn -0 -0.67896295 0.7341725
vn -0 -0.67896295 0.7341725
vn -0 -0.67896295 0.7341725
vn -0 -0.67896295 0.7341725
vn -1 0 0
vn -1 0 0
vn -1 0 0
vn -1 0 0
vn -1 0 0
vn -1 0 0
vn -1 0 0
vn -1 0 0
vn -1 0 0
vn -1 0 0
vn -1 0 0
vn -1 0 0
g Device_Prop_Box_01_v_040_0
f 3/3/3 2/2/2 1/1/1
f 6/6/6 5/5/5 4/4/4
f 9/9/9 8/8/8 7/7/7
f 10/10/10 7/7/7 8/8/8
f 7/7/7 10/10/10 11/11/11
f 12/12/12 7/7/7 11/11/11
f 13/13/13 11/11/11 10/10/10
f 14/14/14 13/13/13 10/10/10
f 11/11/11 13/13/13 15/15/15
f 16/16/16 15/15/15 13/13/13
f 16/16/16 17/17/17 15/15/15
f 18/18/18 15/15/15 17/17/17
f 21/21/21 20/20/20 19/19/19
f 22/22/22 19/19/19 20/20/20
f 25/25/25 24/24/24 23/23/23
f 26/26/26 23/23/23 24/24/24
f 29/29/29 28/28/28 27/27/27
f 30/30/30 27/27/27 28/28/28
f 33/33/33 32/32/32 31/31/31
f 34/34/34 31/31/31 32/32/32
f 37/37/37 36/36/36 35/35/35
f 38/38/38 35/35/35 36/36/36
f 41/41/41 40/40/40 39/39/39
f 42/42/42 39/39/39 40/40/40
f 45/45/45 44/44/44 43/43/43
f 46/46/46 43/43/43 44/44/44
f 49/49/49 48/48/48 47/47/47
f 50/50/50 47/47/47 48/48/48
f 53/53/53 52/52/52 51/51/51
f 54/54/54 51/51/51 52/52/52
f 57/57/57 56/56/56 55/55/55
f 58/58/58 55/55/55 56/56/56
f 61/61/61 60/60/60 59/59/59
f 62/62/62 59/59/59 60/60/60
f 65/65/65 64/64/64 63/63/63
f 66/66/66 63/63/63 64/64/64
f 69/69/69 68/68/68 67/67/67
f 68/68/68 70/70/70 67/67/67
f 70/70/70 71/71/71 67/67/67
f 71/71/71 72/72/72 67/67/67
f 73/73/73 72/72/72 71/71/71
f 74/74/74 73/73/73 71/71/71
f 77/77/77 76/76/76 75/75/75
f 75/75/75 76/76/76 78/78/78
