g Device_Prop_Box_01_v_033
v -0.2892939 -0.21781291 0.004999065
v 0.15471864 -0.21781291 -0.0025540593
v 0.15800498 -0.21781291 0.004999065
v -0.2892939 0.21057476 0.0049991617
v -0.2892939 -0.21781291 -0.005000906
v -0.2892939 -0.21781291 0.004999065
v -0.2892939 0.21057476 -0.0050008576
v 0.29855618 0.21057476 -0.0050008576
v 0.29855615 -0.153396 0.0034953777
v 0.29855618 -0.15170962 -0.0050008576
v 0.29855615 -0.1536945 0.0049991133
v 0.29855618 0.21057476 0.0049991617
v 0.29855618 0.21057476 0.0049991617
v -0.2892939 0.21057476 -0.0050008576
v -0.2892939 0.21057476 0.0049991617
v 0.29855618 0.21057476 -0.0050008576
v -0.2892939 -0.21781291 0.004999065
v 0.29855618 0.21057476 0.0049991617
v -0.2892939 0.21057476 0.0049991617
v 0.15800498 -0.21781291 0.004999065
v 0.29855615 -0.1536945 0.0049991133
v -0.2892939 0.21057476 -0.0050008576
v 0.15365402 -0.21781291 -0.005000906
v -0.2892939 -0.21781291 -0.005000906
v 0.24276944 -0.17715912 -0.005000906
v 0.29855618 0.21057476 -0.0050008576
v 0.29855618 -0.15170962 -0.0050008576
v -0.2892939 -0.21781291 0.004999065
v 0.15365402 -0.21781291 -0.005000906
v 0.15471864 -0.21781291 -0.0025540593
v -0.2892939 -0.21781291 -0.005000906
v 0.15471864 -0.21781291 -0.0025540593
v 0.29855615 -0.1536945 0.0049991133
v 0.15800498 -0.21781291 0.004999065
v 0.24276944 -0.17715912 -0.005000906
v 0.15365402 -0.21781291 -0.005000906
v 0.29855615 -0.153396 0.0034953777
v 0.29855618 -0.15170962 -0.0050008576
vt 0.31946352 0.35327202
vt 0.31946358 0.12723638
vt 0.3194636 0.12556338
vt 0.5375448 0.35327214
vt 0.31946352 0.35327202
vt 0.31946352 0.35327202
vt 0.5375448 0.35327214
vt 0.5375449 0.054012384
vt 0.3522566 0.054012332
vt 0.3531151 0.054012332
vt 0.35210466 0.054012336
vt 0.5375449 0.054012384
vt 0.5375449 0.054012384
vt 0.5375448 0.35327214
vt 0.5375448 0.35327214
vt 0.5375449 0.054012384
vt 0.31946352 0.35327202
vt 0.5375449 0.054012384
vt 0.5375448 0.35327214
vt 0.3194636 0.12556338
vt 0.35210466 0.054012336
vt 0.5375448 0.35327214
vt 0.31946358 0.12777835
vt 0.31946352 0.35327202
vt 0.34015942 0.08241195
vt 0.5375449 0.054012384
vt 0.3531151 0.054012332
vt 0.31946352 0.35327202
vt 0.31946358 0.12777835
vt 0.31946358 0.12723638
vt 0.31946352 0.35327202
vt 0.0058335112 0.00091838837
vt 0.009829216 0.124997675
vt 0 0.0037532807
vt 0.013955498 0.07687411
vt 0.0077233124 0
vt 0.011036377 0.12499769
vt 0.017856827 0.12499771
vn -0 1 0
vn -0 1 0
vn -0 1 0
vn 1 0 0
vn 1 0 0
vn 1 0 0
vn 1 0 0
vn -1 0 -2.8377947E-06
vn -1 0 -2.8377947E-06
vn -1 0 -2.837795E-06
vn -1 0 0
vn -1 0 0
vn -0 -1 0
vn -0 -1 0
vn -0 -1 0
vn -0 -1 0
vn -0 0 -1
vn -0 0 -1
vn -0 0 -1
vn -0 0 -1
vn 2.8401843E-07 0 -1
vn -0 0 1
vn -0 0 1
vn -0 0 1
vn -8.684261E-07 0 1
vn -8.684261E-07 0 1
vn -8.684262E-07 0 1
vn -0 1 0
vn -0 1 0
vn -0 1 0
vn -0 1 0
vn -0.40843838 0.8953196 0.17771035
vn -0.40843922 0.8953171 0.1777207
vn -0.40843838 0.8953196 0.17771035
vn -0.40843853 0.89531994 0.17770813
vn -0.40843838 0.8953196 0.17771025
vn -0.40843853 0.89531994 0.17770816
vn -0.4084386 0.89531994 0.17770813
g Device_Prop_Box_01_v_033_0
f 3/3/3 2/2/2 1/1/1
f 6/6/6 5/5/5 4/4/4
f 7/7/7 4/4/4 5/5/5
f 10/10/10 9/9/9 8/8/8
f 9/9/9 11/11/11 8/8/8
f 11/11/11 12/12/12 8/8/8
f 15/15/15 14/14/14 13/13/13
f 16/16/16 13/13/13 14/14/14
f 19/19/19 18/18/18 17/17/17
f 18/18/18 20/20/20 17/17/17
f 21/21/21 20/20/20 18/18/18
f 24/24/24 23/23/23 22/22/22
f 23/23/23 25/25/25 22/22/22
f 25/25/25 26/26/26 22/22/22
f 27/27/27 26/26/26 25/25/25
f 30/30/30 29/29/29 28/28/28
f 29/29/29 31/31/31 28/28/28
f 34/34/34 33/33/33 32/32/32
f 33/33/33 35/35/35 32/32/32
f 35/35/35 36/36/36 32/32/32
f 37/37/37 35/35/35 33/33/33
f 38/38/38 35/35/35 37/37/37
