g Device_Prop_Box_004_v_021
v 0.025114164 -0.3025792 -0.27321985
v 0.06746584 -0.30257997 0.058580436
v 0.02511426 -0.3025792 0.058580436
v 0.179275 -0.17283693 0.27442577
v 0.15483367 -0.17284352 0.31013912
v 0.15483202 -0.17283674 0.274425
v 0.14952692 -0.25366494 0.2746494
v 0.17852122 -0.17489523 0.27442616
v 0.15477335 -0.23943985 0.2745938
v 0.1110596 -0.21662718 0.35068044
v 0.06726469 -0.33623627 0.35068044
v 0.15483367 -0.17284352 0.31013912
v 0.1548355 -0.09706995 0.35068044
v 0.17852122 -0.17489523 0.27442616
v 0.179275 -0.17283693 0.27442577
v -0.05109504 -0.37878153 0.35068044
v 0.030954216 -0.36883697 0.35068044
v 0.01987805 -0.37878162 0.35068062
v 0.06726469 -0.33623627 0.35068044
v 0.1110596 -0.21662718 0.35068044
v 0.1548355 -0.09706995 0.35068044
v 0.1548355 0.2245799 0.35068044
v 0.05825749 0.3083727 0.35068044
v 0.044842515 0.3200119 0.35068044
v -0.05109494 0.40324897 0.35068044
v 0.15483202 -0.17283674 0.274425
v 0.15483357 0.3058306 0.30797103
v 0.15485586 0.36960158 0.27443895
v 0.1548355 -0.09706995 0.35068044
v 0.15483367 -0.17284352 0.31013912
v 0.1548355 0.2245799 0.35068044
v 0.02510496 -0.086682014 0.058580436
v -0.03153732 -0.08668192 -0.9232186
v 0.02510496 -0.08668192 -0.90301985
v -0.05109504 -0.08668192 -0.93019295
v -0.05109504 -0.086682014 0.058580436
v 0.02510496 -0.086682014 0.058580436
v -0.05109504 0.95893 0.058580436
v -0.05109504 -0.086682014 0.058580436
v -0.009712585 0.92302585 0.058580436
v 0.02510496 0.8928175 0.058580436
v 0.025114164 -0.3025792 -0.27321985
v 0.025107576 -0.14852591 -0.8838753
v 0.025111355 -0.23569094 -0.85689247
v 0.02511426 -0.3025792 0.058580436
v 0.02510496 -0.08668192 -0.90301985
v 0.02510496 -0.086682014 0.058580436
v 0.025104864 -0.08668211 0.2752331
v 0.025114164 -0.3025792 0.2752331
v 0.15483202 -0.17283674 0.274425
v 0.17852122 -0.17489523 0.27442616
v 0.179275 -0.17283693 0.27442577
v 0.15477335 -0.23943985 0.2745938
v 0.02510496 -0.086682014 0.058580436
v 0.025104864 0.7388472 0.13951658
v 0.02510496 0.8928175 0.058580436
v 0.025104864 0.6267074 0.19846433
v 0.025104864 -0.08668211 0.2752331
v 0.025104864 0.4806651 0.2752331
v 0.025114164 -0.3025792 0.2752331
v 0.0828184 -0.30258018 0.17885914
v 0.095087215 -0.30257997 0.27497458
v 0.02511426 -0.3025792 0.058580436
v 0.06746584 -0.30257997 0.058580436
v 0.025104864 -0.08668211 0.2752331
v 0.0912549 0.4240288 0.27483544
v 0.025104864 0.4806651 0.2752331
v 0.15485586 0.36960158 0.27443895
v 0.15483202 -0.17283674 0.274425
v 0.15477335 -0.23943985 0.2745938
v 0.095087215 -0.30257997 0.27497458
v 0.14952692 -0.25366494 0.2746494
v 0.15483202 -0.17283674 0.274425
v 0.025114164 -0.3025792 0.2752331
v 0.025104864 -0.08668211 0.2752331
v -0.05109504 0.95893 0.058580436
v -0.05109494 0.76890177 0.15847085
v -0.05109504 -0.086682014 0.058580436
v -0.05109494 0.40324897 0.35068044
v -0.05109504 -0.37878153 0.35068044
v -0.05109504 -0.08668192 -0.93019295
v -0.05109504 -0.15038374 -0.9104745
v -0.05109504 -0.37878153 -0.20534222
v -0.05109504 -0.30339912 -0.8631091
v 0.025104864 0.7388472 0.13951658
v -0.009712585 0.92302585 0.058580436
v 0.02510496 0.8928175 0.058580436
v 0.025104864 0.6267074 0.19846433
v 0.025104864 0.4806651 0.2752331
v -0.05109494 0.76890177 0.15847085
v -0.05109504 0.95893 0.058580436
v 0.05825749 0.3083727 0.35068044
v 0.044842515 0.3200119 0.35068044
v -0.05109494 0.40324897 0.35068044
v 0.15483357 0.3058306 0.30797103
v 0.1548355 0.2245799 0.35068044
v 0.0912549 0.4240288 0.27483544
v 0.15485586 0.36960158 0.27443895
v 0.0089979 -0.37878153 0.26544222
v -0.05109504 -0.37878153 -0.20534222
v -0.05109504 -0.37878153 0.35068044
v 0.018354112 -0.37878153 0.33874086
v 0.01987805 -0.37878162 0.35068062
v -0.05109504 -0.15038374 -0.9104745
v -0.03153732 -0.08668192 -0.9232186
v -0.05109504 -0.08668192 -0.93019295
v 0.025107576 -0.14852591 -0.8838753
v 0.02510496 -0.08668192 -0.90301985
v -0.05109504 -0.30339912 -0.8631091
v 0.025111355 -0.23569094 -0.85689247
v 0.0089979 -0.37878153 0.26544222
v -0.05109504 -0.30339912 -0.8631091
v -0.05109504 -0.37878153 -0.20534222
v 0.018354112 -0.37878153 0.33874086
v 0.06746584 -0.30257997 0.058580436
v 0.025114164 -0.3025792 -0.27321985
v 0.025111355 -0.23569094 -0.85689247
v 0.06726469 -0.33623627 0.35068044
v 0.0828184 -0.30258018 0.17885914
v 0.095087215 -0.30257997 0.27497458
v 0.14952692 -0.25366494 0.2746494
v 0.030954216 -0.36883697 0.35068044
v 0.01987805 -0.37878162 0.35068062
vt 0.79135704 0.61465985
vt 0.79135704 0.68336135
vt 0.791357 0.68336135
vt 0.6085077 0.7139844
vt 0.60111815 0.71904546
vt 0.6085077 0.71904546
vt 0.08332375 0.00020935059
vt 0.14941543 4.5776366E-07
vt 0.09526215 0.00015731812
vt 0.100295104 0.07137085
vt 0 0.071371004
vt 0.14451951 0.03342621
vt 0.20054673 0.071371004
vt 0.14941543 4.5776366E-07
vt 0.15114143 0
vt 0.0050000027 0.39944345
vt 0.007059086 0.3824546
vt 0.005000002 0.38474795
vt 0.0138093345 0.37493628
vt 0.03857527 0.3658682
vt 0.06333043 0.3568041
vt 0.1299302 0.3568041
vt 0.14728001 0.37680125
vt 0.14968994 0.3795789
vt 0.1669248 0.39944342
vt 0.8697212 0.40988058
vt 0.8627802 0.50899327
vt 0.8697212 0.5221984
vt 0.85394317 0.42557162
vt 0.86233157 0.40988058
vt 0.85394317 0.49217144
vt 1.7494578 0.68336135
vt 1.761186 0.4800731
vt 1.7494578 0.48425537
vt 1.7652355 0.478629
vt 1.7652355 0.68336135
vt 1.4625545 0.81651044
vt 1.2460533 0.83228827
vt 1.4625545 0.83228827
vt 1.2534875 0.8237197
vt 1.2597424 0.81651044
vt 1.7494578 0.61465985
vt 1.7494578 0.48821938
vt 1.7494578 0.49380636
vt 1.7494578 0.68336135
vt 1.7494578 0.48425537
vt 1.7494578 0.68336135
vt 1.7494578 0.68336135
vt 1.7494578 0.68336135
vt 0.6085077 0.71904546
vt 0.6085077 0.7141405
vt 0.6085077 0.7139844
vt 0.6085077 0.7190454
vt 1.4625545 0.81651044
vt 1.291623 0.81651044
vt 1.2597424 0.81651044
vt 1.3148422 0.81651044
vt 1.4625545 0.81651044
vt 1.3450813 0.81651044
vt 0.791357 0.68336135
vt 0.791357 0.68336135
vt 0.791357 0.68336135
vt 0.791357 0.68336135
vt 0.79135704 0.68336135
vt 1.4625545 0.81651044
vt 1.3459404 0.81651044
vt 1.3450813 0.81651044
vt 1.3485029 0.81651044
vt 1.4625545 0.81651044
vt 1.7494578 0.68336135
vt 1.7494578 0.68336135
vt 1.7494578 0.68336135
vt 1.7494578 0.68336135
vt 1.7494578 0.68336135
vt 1.7494578 0.68336135
vt 1.3065345 0.7438425
vt 1.3458812 0.76452553
vt 1.5230356 0.7438425
vt 1.4215922 0.80432385
vt 1.583517 0.80432385
vt 1.5230356 0.5391102
vt 1.5362256 0.5431931
vt 1.5835171 0.6891955
vt 1.5679085 0.55300033
vt 0.12358536 0.44886467
vt 0.12508652 0.60962003
vt 0.15003014 0.5832535
vt 0.10432495 0.35098633
vt 0.07924179 0.22351722
vt 0.062801816 0.47509697
vt 0.095439605 0.6409581
vt 0.07834137 0.07313644
vt 0.0687307 0.083295286
vt 0 0.15594666
vt 0.16148423 0.07091751
vt 0.1475309 0
vt 0.12676239 0.17408371
vt 0.17245635 0.12657838
vt 0.6051725 0.3817943
vt 0.59272987 0.28431514
vt 0.59272987 0.3994435
vt 0.6071098 0.39697134
vt 0.6074254 0.3994435
vt 0.19085006 0.1873288
vt 0.1797155 0.23957619
vt 0.19606517 0.23957619
vt 0.12729912 0.18885261
vt 0.13236435 0.23957619
vt 0.17832305 0.06182761
vt 0.120159954 0.117360994
vt 0.06668045 0.063406065
vt 0.956283 0
vt 0.4349662 0
vt 0.00934021 0.07327812
vt 0.23533615 0.12509766
vt 0.4948973 0.08041092
vt 0.95749 0.08040795
vt 0.0038144528 0.12488545
vt 0.14124435 0.14129677
vt 0.06605515 0.15424202
vt 0.07069493 0.21168315
vt 0.0008917236 0.08657295
vt 0 0.07488617
vn 1.8302657E-05 1 0
vn 1.8302657E-05 1 0
vn 1.8302659E-05 1 0
vn 7.922086E-06 1 0.00018991152
vn 7.922085E-06 1 0.00018991153
vn 7.922086E-06 1 0.00018991153
vn 0.7899907 -0.28925535 0.54059774
vn 0.79324615 -0.2904689 0.5351527
vn 0.79324615 -0.2904689 0.5351527
vn 0.7899907 -0.28925535 0.5405978
vn 0.7899907 -0.28925538 0.5405978
vn 0.79000264 -0.28920883 0.5406054
vn 0.78999174 -0.2892557 0.5405961
vn 0.79000264 -0.2892088 0.5406054
vn 0.79000264 -0.2892088 0.5406054
vn -2.7303934E-06 2.2527593E-05 1
vn -2.7303931E-06 2.2527593E-05 1
vn -2.7303931E-06 2.252759E-05 1
vn -0 0 1
vn -0 0 1
vn -0 0 1
vn -0 0 1
vn -0 0 1
vn -0 0 1
vn -0 0 1
vn 0.9999999 -4.3956814E-05 0.0005810049
vn 0.9999999 -4.395681E-05 0.0005810049
vn 0.9999999 -4.3956814E-05 0.0005810049
vn 1 3.8072756E-07 -4.6121386E-05
vn 1 3.8072753E-07 -4.6121386E-05
vn 1 0 -4.5373283E-05
vn -0 1 0
vn -0 1 0
vn -0 1 0
vn -0 1 0
vn -0 1 0
vn -0 0 -1
vn -0 0 -1
vn -0 0 -1
vn -0 0 -1
vn -0 0 -1
vn 1 4.1611704E-05 -2.9202303E-07
vn 1 4.1611707E-05 -2.92023E-07
vn 1 4.340212E-05 0
vn 1 4.1611707E-05 -2.9202303E-07
vn 1 4.30842E-05 0
vn 1 4.30842E-05 4.472481E-07
vn 1 4.3084223E-05 4.472288E-07
vn 1 4.308422E-05 4.4722876E-07
vn 3.1710846E-05 -0.00019991033 -1
vn 3.1710846E-05 -0.00019991034 -1
vn 3.1710846E-05 -0.00019991033 -1
vn -0.0001711194 -0.0025340794 -0.9999968
vn 1 0 1.1971575E-06
vn 1 0 1.1971575E-06
vn 1 0 1.1971575E-06
vn 1 0 0
vn 1 0 0
vn 1 0 0
vn 1.1065119E-05 1 -3.4286122E-06
vn 1.1065118E-05 1 -3.4286122E-06
vn 1.1065118E-05 1 -3.4286122E-06
vn 1.8302657E-05 1 -7.250316E-07
vn 1.8302657E-05 1 -7.2503155E-07
vn -0.00601123 0 -0.999982
vn -0.0060112285 0 -0.999982
vn -0.0060112285 0 -0.999982
vn -0.006211769 2.5994534E-05 -0.9999807
vn -0.006211769 2.5994534E-05 -0.9999807
vn -0.0036793894 -0.002552708 -0.99999
vn -0.0036793898 -0.0025527081 -0.99999
vn -0.0036793894 -0.0025527081 -0.99999
vn -0.003702405 -0.0025309515 -0.99999
vn -0.0036944328 -0.0025346228 -0.99999
vn -0.0062292092 -2.6838063E-07 -0.99998057
vn -1 0 9.699961E-07
vn -1 0 0
vn -1 0 0
vn -1 0 0
vn -1 0 0
vn -1 0 0
vn -1 0 0
vn -1 0 0
vn -1 0 0
vn 0.3743432 0.43146083 0.8207977
vn 0.37434316 0.43146083 0.82079756
vn 0.3743432 0.43146083 0.8207977
vn 0.3743531 0.43146077 0.8207931
vn 0.37434056 0.43146172 0.82079834
vn 0.3743438 0.43146113 0.8207972
vn 0.37434384 0.43146113 0.8207972
vn 0.37434816 0.43146154 0.82079494
vn 0.37434375 0.43146136 0.820797
vn 0.37434366 0.4314614 0.8207971
vn 0.37434316 0.43146098 0.82079756
vn 0.37434307 0.43146086 0.82079756
vn 0.37434074 0.43145955 0.8207994
vn 0.37434444 0.43146083 0.820797
vn -0 -1 0
vn -0 -1 0
vn -0 -1 0
vn -0 -1 0
vn -1.3651902E-06 -1 -7.940925E-06
vn 0.32245678 -0.27990618 -0.9042533
vn 0.32245678 -0.27990618 -0.9042533
vn 0.32245678 -0.27990618 -0.9042533
vn 0.3224584 -0.27990872 -0.90425205
vn 0.32245833 -0.2799087 -0.90425205
vn 0.32246023 -0.2799075 -0.90425175
vn 0.32245883 -0.27990687 -0.90425247
vn 0.66565835 -0.7414037 -0.08496748
vn 0.66565835 -0.7414037 -0.08496749
vn 0.6656583 -0.7414037 -0.08496748
vn 0.6656602 -0.741402 -0.08496784
vn 0.66575134 -0.7413189 -0.08497961
vn 0.6656575 -0.7414045 -0.084967375
vn 0.6656575 -0.74140453 -0.08496737
vn 0.6656574 -0.74140435 -0.084968865
vn 0.665659 -0.74140304 -0.08496771
vn 0.6656574 -0.74140435 -0.084968865
vn 0.6656574 -0.74140435 -0.084968865
vn 0.6656602 -0.741402 -0.08496784
vn 0.6656602 -0.74140203 -0.08496784
g Device_Prop_Box_004_v_021_0
f 3/3/3 2/2/2 1/1/1
f 6/6/6 5/5/5 4/4/4
f 9/9/9 8/8/8 7/7/7
f 11/11/11 7/7/7 10/10/10
f 7/7/7 12/12/12 10/10/10
f 12/12/12 13/13/13 10/10/10
f 14/14/14 12/12/12 7/7/7
f 15/15/15 12/12/12 14/14/14
f 18/18/18 17/17/17 16/16/16
f 17/17/17 19/19/19 16/16/16
f 20/20/20 16/16/16 19/19/19
f 16/16/16 20/20/20 21/21/21
f 22/22/22 16/16/16 21/21/21
f 23/23/23 16/16/16 22/22/22
f 23/23/23 24/24/24 16/16/16
f 16/16/16 24/24/24 25/25/25
f 28/28/28 27/27/27 26/26/26
f 26/26/26 27/27/27 29/29/29
f 30/30/30 26/26/26 29/29/29
f 29/29/29 27/27/27 31/31/31
f 34/34/34 33/33/33 32/32/32
f 33/33/33 35/35/35 32/32/32
f 36/36/36 32/32/32 35/35/35
f 39/39/39 38/38/38 37/37/37
f 40/40/40 37/37/37 38/38/38
f 37/37/37 40/40/40 41/41/41
f 44/44/44 43/43/43 42/42/42
f 45/45/45 42/42/42 43/43/43
f 43/43/43 46/46/46 45/45/45
f 47/47/47 45/45/45 46/46/46
f 47/47/47 48/48/48 45/45/45
f 49/49/49 45/45/45 48/48/48
f 52/52/52 51/51/51 50/50/50
f 50/50/50 51/51/51 53/53/53
f 56/56/56 55/55/55 54/54/54
f 55/55/55 57/57/57 54/54/54
f 54/54/54 57/57/57 58/58/58
f 59/59/59 58/58/58 57/57/57
f 62/62/62 61/61/61 60/60/60
f 60/60/60 61/61/61 63/63/63
f 64/64/64 63/63/63 61/61/61
f 67/67/67 66/66/66 65/65/65
f 66/66/66 68/68/68 65/65/65
f 69/69/69 65/65/65 68/68/68
f 72/72/72 71/71/71 70/70/70
f 70/70/70 71/71/71 73/73/73
f 71/71/71 74/74/74 73/73/73
f 75/75/75 73/73/73 74/74/74
f 78/78/78 77/77/77 76/76/76
f 77/77/77 78/78/78 79/79/79
f 80/80/80 79/79/79 78/78/78
f 78/78/78 81/81/81 80/80/80
f 82/82/82 80/80/80 81/81/81
f 80/80/80 82/82/82 83/83/83
f 84/84/84 83/83/83 82/82/82
f 87/87/87 86/86/86 85/85/85
f 85/85/85 86/86/86 88/88/88
f 88/88/88 86/86/86 89/89/89
f 86/86/86 90/90/90 89/89/89
f 91/91/91 90/90/90 86/86/86
f 90/90/90 92/92/92 89/89/89
f 93/93/93 92/92/92 90/90/90
f 94/94/94 93/93/93 90/90/90
f 92/92/92 95/95/95 89/89/89
f 96/96/96 95/95/95 92/92/92
f 89/89/89 95/95/95 97/97/97
f 97/97/97 95/95/95 98/98/98
f 101/101/101 100/100/100 99/99/99
f 99/99/99 102/102/102 101/101/101
f 101/101/101 102/102/102 103/103/103
f 106/106/106 105/105/105 104/104/104
f 105/105/105 107/107/107 104/104/104
f 108/108/108 107/107/107 105/105/105
f 104/104/104 107/107/107 109/109/109
f 107/107/107 110/110/110 109/109/109
f 113/113/113 112/112/112 111/111/111
f 112/112/112 114/114/114 111/111/111
f 115/115/115 114/114/114 112/112/112
f 116/116/116 115/115/115 112/112/112
f 117/117/117 116/116/116 112/112/112
f 118/118/118 114/114/114 115/115/115
f 119/119/119 118/118/118 115/115/115
f 120/120/120 118/118/118 119/119/119
f 121/121/121 118/118/118 120/120/120
f 122/122/122 114/114/114 118/118/118
f 123/123/123 114/114/114 122/122/122
