g Device_Prop_Box_010_v_046
v -0.012671368 0.010004719 0.11498126
v 0.034571096 0.010004719 -0.046690464
v -0.012671368 0.010004719 -0.052694168
v -0.012671368 0.010004719 -0.052694168
v -0.012671368 -0.011753159 0.057020742
v -0.012671368 0.010004719 0.11498126
v -0.01267132 -0.0098767225 -0.040547814
v -0.012671368 -0.015395281 0.04731872
v -0.012671368 -0.015395281 -0.03717641
v -0.012671368 -0.011753159 0.057020742
v -0.012671368 0.010004719 -0.052694168
v -0.01267132 -0.0098767225 -0.040547814
v -0.012671368 -0.015395281 -0.03717641
v 0.011135076 -0.015395281 -0.034151115
v -0.012671368 -0.015395281 0.04731872
v -0.012671368 -0.011753159 0.057020742
v 0.034571096 0.010004719 -0.046690464
v -0.012671368 0.010004719 0.11498126
v 0.011135076 -0.015395281 -0.034151115
v -0.012671368 -0.015395281 0.04731872
v -0.01267132 -0.0098767225 -0.040547814
v 0.011135076 -0.015395281 -0.034151115
v -0.012671368 -0.015395281 -0.03717641
v 0.034571096 0.010004719 -0.046690464
v -0.012671368 0.010004719 -0.052694168
vt 0.6396091 0.30816934
vt 0.64910114 0.2756859
vt 0.6396091 0.27447963
vt 0.6396091 0.27447963
vt 0.63960916 0.29652378
vt 0.6396091 0.30816934
vt 0.6396091 0.2769201
vt 0.63960916 0.2945744
vt 0.63960916 0.2775975
vt 0.63960916 0.29652378
vt 0.6396091 0.27447963
vt 0.6396091 0.2769201
vt 0.63960916 0.2775975
vt 0.6443924 0.27820534
vt 0.63960916 0.2945744
vt 0.002263031 0.20176224
vt 0.038631782 0.117957056
vt 0.015782166 0.2485981
vt 0.011514369 0.12808967
vt 0 0.19392243
vt 0.03629219 0.0050811768
vt 0.017061615 0
vt 0.035957564 0
vt 0 0.023386383
vt 0.03749794 0.023386383
vn -0 -1 0
vn -0 -1 0
vn -0 -1 0
vn 1 0 0
vn 1 -1.2582403E-06 4.723412E-07
vn 1 0 0
vn 1 -8.778861E-06 0
vn 1 -8.778861E-06 0
vn 1 -8.778861E-06 0
vn 1 2.7727112E-06 5.498643E-07
vn 1 2.7727112E-06 5.498643E-07
vn 1 2.7727112E-06 5.498643E-07
vn -0 1 0
vn -0 1 0
vn -0 1 0
vn -0.76892906 0.5985501 -0.22469054
vn -0.7689292 0.5985501 -0.22469054
vn -0.7689292 0.5985501 -0.22469054
vn -0.76892924 0.5985499 -0.22469066
vn -0.7689347 0.5985424 -0.22469178
vn -0.10781128 0.51829386 0.8483798
vn -0.10781127 0.51829374 0.84837985
vn -0.10781128 0.51829386 0.8483798
vn -0.10781002 0.5182971 0.8483779
vn -0.10781361 0.5183041 0.8483732
g Device_Prop_Box_010_v_046_0
f 3/3/3 2/2/2 1/1/1
f 6/6/6 5/5/5 4/4/4
f 5/5/5 8/8/8 7/7/7
f 9/9/9 7/7/7 8/8/8
f 12/12/12 11/11/11 10/10/10
f 15/15/15 14/14/14 13/13/13
f 18/18/18 17/17/17 16/16/16
f 17/17/17 19/19/19 16/16/16
f 19/19/19 20/20/20 16/16/16
f 23/23/23 22/22/22 21/21/21
f 22/22/22 24/24/24 21/21/21
f 24/24/24 25/25/25 21/21/21
