g Device_Prop_Box_007_v_037
v -0.012765306 -0.41930726 0.5384776
v -0.0038055817 0.36018923 0.5384778
v -0.012765306 0.35126755 0.5384778
v 0.012634694 0.37655962 0.5384778
v 0.012634694 -0.41930726 0.5384776
v 0.012634694 -0.41930726 0.5384776
v -0.011229353 -0.41930696 -0.70245254
v 0.012634694 -0.41930696 -0.7141059
v -0.012765306 -0.41930726 0.5384776
v -0.012765306 -0.41930696 -0.70170254
v 0.012634694 -0.41930726 0.5384776
v 0.012634694 0.55637527 -0.044688553
v 0.012634694 0.37655962 0.5384778
v 0.0126347905 0.56262285 -0.22897439
v 0.0126347905 0.59757006 -0.17828892
v 0.012634694 -0.41930696 -0.7141059
v 0.012634694 -0.38694856 -0.7169878
v -0.012765306 -0.41930696 -0.70170254
v -0.012765306 0.28958938 -0.3586142
v -0.012765306 -0.38409117 -0.70483893
v -0.012765306 -0.41930726 0.5384776
v -0.012765306 0.5752363 -0.18788272
v -0.012765306 0.35126755 0.5384778
v -0.012765306 0.5553465 -0.22203353
v -0.012765306 0.57636636 -0.19154751
v 0.012634694 0.55637527 -0.044688553
v -0.0038055817 0.36018923 0.5384778
v 0.012634694 0.37655962 0.5384778
v -0.012765306 0.5752363 -0.18788272
v -0.012765306 0.35126755 0.5384778
v 0.0126347905 0.59757006 -0.17828892
v -0.012765306 0.57636636 -0.19154751
v 0.0126347905 0.56262285 -0.22897439
v -0.012765306 0.57636636 -0.19154751
v 0.0126347905 0.59757006 -0.17828892
v -0.012765306 0.5553465 -0.22203353
v -0.012765306 0.28958938 -0.3586142
v 0.012634694 -0.38694856 -0.7169878
v -0.012765306 -0.38409117 -0.70483893
v 0.0126347905 0.56262285 -0.22897439
v -0.012765306 0.5553465 -0.22203353
v 0.012634694 -0.38694856 -0.7169878
v -0.012765306 -0.41930696 -0.70170254
v -0.012765306 -0.38409117 -0.70483893
v -0.011229353 -0.41930696 -0.70245254
v 0.012634694 -0.41930696 -0.7141059
vt 0.06986674 0.74004924
vt 0.22644284 0.74004924
vt 0.22465076 0.74004924
vt 0.22973113 0.74004924
vt 0.06986674 0.74004924
vt 0.06986674 0.74004924
vt 0.06986674 0.49078578
vt 0.06986674 0.48844498
vt 0.06986674 0.74004924
vt 0.06986674 0.49093646
vt 0.06986674 0.74004924
vt 0.2658503 0.62290967
vt 0.22973113 0.74004924
vt 0.26710525 0.58589256
vt 0.27412504 0.5960736
vt 0.06986674 0.48844498
vt 0.07636651 0.4878661
vt 0.06986674 0.49093646
vt 0.21226154 0.55985194
vt 0.07694046 0.49030644
vt 0.06986674 0.74004924
vt 0.26963896 0.5941465
vt 0.22465076 0.74004924
vt 0.2656437 0.5872866
vt 0.26986593 0.5934103
vt 0.6077978 0.027607422
vt 1.092115 0.0097383885
vt 1.088317 0.027607422
vt 0.4956762 7.6293944E-08
vt 1.0941851 0
vt 0.49771327 0.027607422
vt 0.49265653 7.5823586E-08
vt 0.5346271 0.021474227
vt 0.5650319 0
vt 0.58310395 0.021474227
vt 0.53587425 3.9370343E-09
vt 0.13288997 0.6176579
vt 0.005075565 0.028193695
vt 0.027219927 0.030683313
vt 0.15402035 0.8555507
vt 0.17457524 0.8492109
vt 0 0.025560455
vt 0.023252869 0
vt 0.02216919 0.027817613
vt 0.021906966 0
vt 0.0009957122 0
vn -0 0 -1
vn -0 0 -1
vn -0 0 -1
vn -0 0 -1
vn -0 0 -1
vn -0 1 0
vn -0 1 0
vn -0 1 0
vn -0 1 0
vn -0 1 0
vn -1 0 0
vn -1 0 0
vn -1 0 0
vn -1 7.268202E-07 -5.0113704E-07
vn -1 7.268202E-07 -5.0113704E-07
vn -1 0 0
vn -1 0 0
vn 1 0 0
vn 1 0 0
vn 1 0 0
vn 1 0 0
vn 1 0 0
vn 1 0 0
vn 1 0 0
vn 1 0 0
vn 0.68933636 -0.6922791 -0.21345986
vn 0.68933636 -0.6922791 -0.21345986
vn 0.6893363 -0.6922791 -0.21345985
vn 0.6893376 -0.6922779 -0.21345964
vn 0.6893376 -0.6922779 -0.21345964
vn 0.68933284 -0.6922824 -0.2134603
vn 0.6893328 -0.6922828 -0.21345906
vn 0.3641188 -0.76675963 0.5286749
vn 0.36411878 -0.76675963 0.5286749
vn 0.3641188 -0.76675963 0.52867496
vn 0.36411837 -0.76676 0.5286747
vn 0.35029173 -0.4281365 0.8330636
vn 0.35029173 -0.42813644 0.8330635
vn 0.3502917 -0.4281365 0.8330636
vn 0.35029045 -0.42813677 0.833064
vn 0.35029125 -0.42813674 0.83306366
vn 0.4373992 0.079777256 0.89572185
vn 0.4373992 0.07977724 0.89572173
vn 0.4373992 0.07977724 0.89572173
vn 0.43741786 0.07975908 0.8957143
vn 0.43740034 0.07977526 0.8957215
g Device_Prop_Box_007_v_037_0
f 3/3/3 2/2/2 1/1/1
f 2/2/2 4/4/4 1/1/1
f 5/5/5 1/1/1 4/4/4
f 8/8/8 7/7/7 6/6/6
f 6/6/6 7/7/7 9/9/9
f 10/10/10 9/9/9 7/7/7
f 13/13/13 12/12/12 11/11/11
f 12/12/12 14/14/14 11/11/11
f 15/15/15 14/14/14 12/12/12
f 11/11/11 14/14/14 16/16/16
f 14/14/14 17/17/17 16/16/16
f 20/20/20 19/19/19 18/18/18
f 18/18/18 19/19/19 21/21/21
f 19/19/19 22/22/22 21/21/21
f 21/21/21 22/22/22 23/23/23
f 19/19/19 24/24/24 22/22/22
f 25/25/25 22/22/22 24/24/24
f 28/28/28 27/27/27 26/26/26
f 27/27/27 29/29/29 26/26/26
f 30/30/30 29/29/29 27/27/27
f 26/26/26 29/29/29 31/31/31
f 29/29/29 32/32/32 31/31/31
f 35/35/35 34/34/34 33/33/33
f 36/36/36 33/33/33 34/34/34
f 39/39/39 38/38/38 37/37/37
f 38/38/38 40/40/40 37/37/37
f 40/40/40 41/41/41 37/37/37
f 44/44/44 43/43/43 42/42/42
f 43/43/43 45/45/45 42/42/42
f 42/42/42 45/45/45 46/46/46
