g Device_Prop_Box_01_v_063
v -0.31883413 0.45861435 -0.012734688
v -0.00954496 -0.6294904 -0.012734882
v -0.31883413 -0.6294904 -0.012734882
v 0.3131163 -0.0019109298 -0.012734688
v 0.5498889 0.45861426 -0.012734882
v -0.31883413 0.45861435 0.012665312
v -0.31883413 -0.6294904 -0.012734882
v -0.31883413 -0.6294904 0.012665118
v -0.31883413 0.45861435 -0.012734688
v -0.31883413 -0.6294904 0.012665118
v -0.0021048135 -0.6294904 0.007277075
v -0.000101689526 -0.6294904 0.012665118
v -0.00954496 -0.6294904 -0.012734882
v -0.31883413 -0.6294904 -0.012734882
v -0.31883413 0.45861435 -0.012734688
v 0.55541795 0.45861435 0.0021374663
v 0.5498889 0.45861426 -0.012734882
v 0.55933213 0.45861435 0.012665312
v -0.31883413 0.45861435 0.012665312
v -0.31883413 -0.6294904 0.012665118
v 0.55933213 0.45861435 0.012665312
v -0.31883413 0.45861435 0.012665312
v 0.19086824 -0.25805178 0.012665118
v -0.000101689526 -0.6294904 0.012665118
v -0.0021048135 -0.6294904 0.007277075
v 0.19086824 -0.25805178 0.012665118
v -0.000101689526 -0.6294904 0.012665118
v 0.3131163 -0.0019109298 -0.012734688
v -0.00954496 -0.6294904 -0.012734882
v 0.55541795 0.45861435 0.0021374663
v 0.55933213 0.45861435 0.012665312
v 0.5498889 0.45861426 -0.012734882
vt 0.5375448 0.35327214
vt 0.31946355 0.2912833
vt 0.31946352 0.35327202
vt 0.44524497 0.22661456
vt 0.53754485 0.17915988
vt 0.5375448 0.35327214
vt 0.31946352 0.35327202
vt 0.31946352 0.35327202
vt 0.5375448 0.35327214
vt 0.31946352 0.35327202
vt 0.31946355 0.28979212
vt 0.31946355 0.28939065
vt 0.31946355 0.2912833
vt 0.31946352 0.35327202
vt 0.5375448 0.35327214
vt 0.53754485 0.17805174
vt 0.53754485 0.17915988
vt 0.53754485 0.17726725
vt 0.5375448 0.35327214
vt 0.31946352 0.35327202
vt 0.53754485 0.17726725
vt 0.5375448 0.35327214
vt 0.39390844 0.2511159
vt 0.31946355 0.28939065
vt 0.0026786996 0.016596299
vt 0.33226255 0.021064835
vt 0.0033999062 0.021064835
vt 0.55564356 0
vt 0 0
vt 0.9653721 0.012333908
vt 0.9667813 0.021064835
vt 0.96338135 0
vn -0 0 1
vn -0 0 1
vn -0 0 1
vn -0 0 1
vn -0 3.0610616E-07 1
vn 1 0 0
vn 1 0 0
vn 1 0 0
vn 1 0 0
vn -0 1 0
vn -0 1 0
vn -0 1 0
vn -0 1 0
vn -0 1 0
vn -0 -1 6.5564627E-06
vn -0 -1 6.5564627E-06
vn -0 -1 6.5564627E-06
vn -0 -1 0
vn -0 -1 0
vn -3.1511405E-07 4.3241167E-07 -1
vn -3.151141E-07 4.3241167E-07 -1
vn -0 0 -1
vn -3.1511408E-07 4.3241167E-07 -1
vn -0 0 -1
vn -0.8443855 0.43412894 0.31391892
vn -0.8443855 0.4341289 0.31391892
vn -0.8443855 0.43412894 0.3139189
vn -0.8443873 0.43413007 0.31391248
vn -0.84438264 0.43412754 0.31392884
vn -0.84438145 0.43412682 0.31393278
vn -0.84438145 0.43412685 0.31393278
vn -0.8443874 0.43413007 0.31391248
g Device_Prop_Box_01_v_063_0
f 3/3/3 2/2/2 1/1/1
f 4/4/4 1/1/1 2/2/2
f 1/1/1 4/4/4 5/5/5
f 8/8/8 7/7/7 6/6/6
f 9/9/9 6/6/6 7/7/7
f 12/12/12 11/11/11 10/10/10
f 11/11/11 13/13/13 10/10/10
f 14/14/14 10/10/10 13/13/13
f 17/17/17 16/16/16 15/15/15
f 16/16/16 18/18/18 15/15/15
f 19/19/19 15/15/15 18/18/18
f 22/22/22 21/21/21 20/20/20
f 23/23/23 20/20/20 21/21/21
f 20/20/20 23/23/23 24/24/24
f 27/27/27 26/26/26 25/25/25
f 26/26/26 28/28/28 25/25/25
f 25/25/25 28/28/28 29/29/29
f 30/30/30 28/28/28 26/26/26
f 31/31/31 30/30/30 26/26/26
f 32/32/32 28/28/28 30/30/30
