g Device_Prop_Box_01_v_014
v -0.21143027 -0.012728389 -0.5139744
v -0.00030376052 -0.009136845 -0.5139744
v 0.00035588912 -0.012728389 -0.5139744
v -0.0043086032 0.01267161 -0.5139744
v -0.21143027 0.01267161 -0.5139744
v -0.21143027 0.01267161 -0.5139744
v -0.21143027 -0.009098088 0.61804074
v -0.21143027 0.012671417 0.6291525
v -0.21143027 -0.012728583 0.6161877
v -0.21143027 -0.012728389 -0.5139744
v -0.21143027 0.01267161 -0.5139744
v 0.31320474 0.01267161 -0.049893174
v -0.0043086032 0.01267161 -0.5139744
v -0.21143027 0.012671417 0.6291525
v 0.39282647 0.01267161 0.066482954
v -0.21143027 -0.009098088 0.61804074
v 0.39282647 0.01267161 0.066482954
v -0.21143027 0.012671417 0.6291525
v -0.21143027 -0.012728583 0.6161877
v 0.3902574 -0.012728583 0.05591015
v 0.00035588912 -0.012728389 -0.5139744
v -0.21143027 -0.012728583 0.6161877
v -0.21143027 -0.012728389 -0.5139744
v 0.3902574 -0.012728583 0.05591015
v 0.3902574 -0.012728583 0.05591015
v 0.31320474 0.01267161 -0.049893174
v 0.39282647 0.01267161 0.066482954
v -0.00030376052 -0.009136845 -0.5139744
v 0.00035588912 -0.012728389 -0.5139744
v -0.0043086032 0.01267161 -0.5139744
vt 1.9396145 0.069198
vt 1.8971945 0.069198
vt 1.8970621 0.069198
vt 1.897999 0.069198
vt 1.9396145 0.069198
vt 1.9396145 0.069198
vt 1.9396145 0.29664484
vt 1.9396145 0.29887745
vt 1.9396145 0.29627255
vt 1.9396145 0.069198
vt 1.9396145 0.069198
vt 1.8342035 0.16244216
vt 1.897999 0.069198
vt 1.9396145 0.29887745
vt 1.8182057 0.18582469
vt 0.0059625246 0.0030516053
vt 0.6501302 0.021350017
vt 0 0.02134987
vt 0.0069569396 0
vt 0.6543231 3.7822698E-08
vt 1.8970621 0.069198
vt 1.9396145 0.29627255
vt 1.9396145 0.069198
vt 1.8187218 0.1837004
vt 0 0.5408664
vt 0.030629806 0.44045052
vt 0.019305877 0.5509008
vt 0.058327943 0
vt 0.055452574 2.8610229E-08
vt 0.075787045 3.8146972E-08
vn -0 0 1
vn -0 0 1
vn -0 0 1
vn -0 0 1
vn -0 0 1
vn 1 0 0
vn 1 0 0
vn 1 0 0
vn 1 0 0
vn 1 0 0
vn -0 -1 0
vn -0 -1 0
vn -0 -1 0
vn -0 -1 0
vn -0 -1 0
vn -0.6383876 0.34993342 -0.6855711
vn -0.6383877 0.34993345 -0.6855711
vn -0.6383877 0.34993342 -0.6855711
vn -0.6383883 0.3499309 -0.68557185
vn -0.638387 0.34993652 -0.6855701
vn -0 1 0
vn -0 1 0
vn -0 1 0
vn -0 1 0
vn -0.8160012 -0.14985366 0.5582883
vn -0.81600124 -0.14985366 0.5582883
vn -0.81600124 -0.14985366 0.5582883
vn -0.8160019 -0.14984824 0.55828893
vn -0.81599903 -0.14986949 0.5582872
vn -0.8160019 -0.14984824 0.55828893
g Device_Prop_Box_01_v_014_0
f 3/3/3 2/2/2 1/1/1
f 2/2/2 4/4/4 1/1/1
f 5/5/5 1/1/1 4/4/4
f 8/8/8 7/7/7 6/6/6
f 7/7/7 9/9/9 6/6/6
f 10/10/10 6/6/6 9/9/9
f 13/13/13 12/12/12 11/11/11
f 11/11/11 12/12/12 14/14/14
f 15/15/15 14/14/14 12/12/12
f 18/18/18 17/17/17 16/16/16
f 16/16/16 17/17/17 19/19/19
f 17/17/17 20/20/20 19/19/19
f 23/23/23 22/22/22 21/21/21
f 24/24/24 21/21/21 22/22/22
f 27/27/27 26/26/26 25/25/25
f 26/26/26 28/28/28 25/25/25
f 25/25/25 28/28/28 29/29/29
f 30/30/30 28/28/28 26/26/26
