g Device_Prop_Box_005_v_011
v 0.012687694 -0.6730415 0.11198066
v -0.011243403 -0.67304134 -0.59472114
v 0.012687694 -0.6730414 -0.5908148
v 0.0022636214 -0.6730415 0.10764546
v -0.012712305 -0.6730415 0.10141687
v -0.012712305 -0.67304134 -0.594961
v 0.012687694 0.79632527 -0.22854632
v -0.012712305 0.97012025 -0.18984379
v 0.012687694 0.9736049 -0.18483852
v -0.012712209 -0.45620263 -0.5414999
v -0.011243403 -0.67304134 -0.59472114
v 0.012687694 -0.6730414 -0.5908148
v -0.012712305 -0.67304134 -0.594961
v -0.012712209 -0.036045812 0.6496955
v -0.0034833145 0.12988505 0.6496955
v -0.012712209 0.12679192 0.6496955
v -0.005430967 -0.03956401 0.6496955
v 0.012687694 0.13530433 0.6496955
v 0.012687694 -0.048318997 0.6496955
v -0.012712209 -0.45620263 -0.5414999
v -0.012712209 0.655749 0.12311487
v -0.012712305 0.97012025 -0.18984379
v -0.012712209 -0.036045812 0.6496955
v -0.012712209 0.12679192 0.6496955
v -0.012712305 -0.67304134 -0.594961
v -0.012712305 -0.6730415 0.10141687
v -0.012712305 0.97012025 -0.18984379
v 0.012687694 0.13530433 0.6496955
v 0.012687694 0.9736049 -0.18483852
v -0.012712209 0.655749 0.12311487
v -0.0034833145 0.12988505 0.6496955
v -0.012712209 0.12679192 0.6496955
v 0.012687694 -0.6730414 -0.5908148
v 0.012687694 -0.30434662 0.42932603
v 0.012687694 -0.6730415 0.11198066
v 0.012687694 0.79632527 -0.22854632
v 0.012687694 -0.048318997 0.6496955
v 0.012687694 0.13530433 0.6496955
v 0.012687694 0.9736049 -0.18483852
v -0.005430967 -0.03956401 0.6496955
v 0.012687694 -0.30434662 0.42932603
v 0.012687694 -0.048318997 0.6496955
v -0.012712209 -0.036045812 0.6496955
v 0.0022636214 -0.6730415 0.10764546
v 0.012687694 -0.6730415 0.11198066
v -0.012712305 -0.6730415 0.10141687
vt 1.5137455 0.6320394
vt 1.5137455 0.49008548
vt 1.5137455 0.49087015
vt 1.5137455 0.6311686
vt 1.5137455 0.6299175
vt 1.5137455 0.49003732
vt 0.008565559 1.1907405
vt 0.023394968 1.3315799
vt 0.0030213038 1.3344036
vt 0.06800186 0.17572112
vt 0.07361145 7.6293944E-08
vt 0.0545187 0
vt 0.07478335 7.6293944E-08
vt 1.3857933 0.74004924
vt 1.3524631 0.74004924
vt 1.3530844 0.74004924
vt 1.3865 0.74004924
vt 1.3513745 0.74004924
vt 1.3882586 0.74004924
vt 1.4701895 0.50077593
vt 1.2468338 0.6342759
vt 1.1836865 0.5714125
vt 1.3857933 0.74004924
vt 1.3530844 0.74004924
vt 1.5137455 0.49003732
vt 1.5137455 0.6299175
vt 0 0.9133289
vt 0.2281847 0.009218979
vt 0.020219307 0.9171028
vt 0.0779892 0.57286334
vt 0.21610612 0.0033498383
vt 0.2092128 0
vt 1.5137455 0.49087015
vt 1.4396864 0.69578403
vt 1.5137455 0.6320394
vt 1.2185965 0.5636383
vt 1.3882586 0.74004924
vt 1.3513745 0.74004924
vt 1.1829867 0.57241786
vt 0.17107643 0.63713944
vt 0.11761631 0.37082627
vt 0.18424927 0.62833387
vt 0.16578273 0.6406779
vt 0.012771301 7.6293944E-08
vt 0.021660767 3.8146972E-08
vt 0 0
vn -0 1 2.7812968E-07
vn -0 1 2.7812976E-07
vn 4.0263417E-06 1 0
vn -0 1 2.7812976E-07
vn -0 1 2.781298E-07
vn -0 1 2.7827804E-07
vn -0.15653273 -0.23642845 0.9589574
vn -0.1565356 -0.23642829 0.95895684
vn -0.15653348 -0.23642823 0.95895725
vn -0.15654196 -0.23642796 0.95895594
vn -0.15653276 -0.23642845 0.9589574
vn -0.15653273 -0.23642842 0.9589574
vn -0.15654196 -0.23642796 0.95895594
vn -0 0 -1
vn -0 0 -1
vn -0 0 -1
vn -0 0 -1
vn -0 0 -1
vn -0 0 -1
vn 1 -4.894046E-07 0
vn 1 0 0
vn 1 0 0
vn 1 0 0
vn 1 0 0
vn 1 0 0
vn 1 0 0
vn 0.23010424 -0.68658113 -0.6896799
vn 0.23009059 -0.68658364 -0.68968195
vn 0.23010153 -0.6865815 -0.68968046
vn 0.23011184 -0.68657994 -0.6896785
vn 0.23011184 -0.68657994 -0.6896785
vn 0.23011187 -0.68657994 -0.6896785
vn -1 0 0
vn -1 0 0
vn -1 0 0
vn -1 0 0
vn -1 0 0
vn -1 0 0
vn -1 0 0
vn 0.30062783 0.6221779 -0.7228538
vn 0.30062318 0.62217957 -0.72285426
vn 0.3006374 0.62217635 -0.72285116
vn 0.30063865 0.6221762 -0.7228507
vn 0.30063862 0.6221762 -0.7228506
vn 0.30062318 0.62217957 -0.72285426
vn 0.30063865 0.62217623 -0.7228507
g Device_Prop_Box_005_v_011_0
f 3/3/3 2/2/2 1/1/1
f 2/2/2 4/4/4 1/1/1
f 5/5/5 4/4/4 2/2/2
f 6/6/6 5/5/5 2/2/2
f 9/9/9 8/8/8 7/7/7
f 8/8/8 10/10/10 7/7/7
f 10/10/10 11/11/11 7/7/7
f 11/11/11 12/12/12 7/7/7
f 13/13/13 11/11/11 10/10/10
f 16/16/16 15/15/15 14/14/14
f 15/15/15 17/17/17 14/14/14
f 18/18/18 17/17/17 15/15/15
f 19/19/19 17/17/17 18/18/18
f 22/22/22 21/21/21 20/20/20
f 21/21/21 23/23/23 20/20/20
f 24/24/24 23/23/23 21/21/21
f 23/23/23 25/25/25 20/20/20
f 26/26/26 25/25/25 23/23/23
f 29/29/29 28/28/28 27/27/27
f 28/28/28 30/30/30 27/27/27
f 31/31/31 30/30/30 28/28/28
f 32/32/32 30/30/30 31/31/31
f 35/35/35 34/34/34 33/33/33
f 34/34/34 36/36/36 33/33/33
f 37/37/37 36/36/36 34/34/34
f 38/38/38 36/36/36 37/37/37
f 39/39/39 36/36/36 38/38/38
f 42/42/42 41/41/41 40/40/40
f 41/41/41 43/43/43 40/40/40
f 44/44/44 43/43/43 41/41/41
f 45/45/45 44/44/44 41/41/41
f 46/46/46 43/43/43 44/44/44
