g Device_Prop_Box_006_v_015
v -0.012721025 -0.39142087 0.49147862
v -0.0019908668 0.54210615 0.4914788
v -0.012721025 0.541633 0.4914788
v 0.012678974 -0.39142087 0.49147862
v 0.012678974 0.5427529 0.4914788
v 0.012678974 -0.39142087 0.49147862
v -0.009466574 -0.39142057 -0.66008884
v 0.012678974 -0.39142057 -0.6692639
v -0.012721025 -0.39142087 0.49147862
v -0.012721025 -0.39142066 -0.6587405
v 0.012678974 -0.39142087 0.49147862
v 0.012678974 0.41534987 0.009271042
v 0.012678974 0.5427529 0.4914788
v 0.012678974 -0.39142057 -0.6692639
v 0.012678974 0.29914573 -0.43055
v -0.012721025 0.28542706 -0.42476875
v -0.009466574 -0.39142057 -0.66008884
v -0.012721025 -0.39142066 -0.6587405
v 0.012678974 0.29914573 -0.43055
v -0.012721025 0.3009733 -0.4193948
v 0.012678974 -0.39142057 -0.6692639
v -0.012721025 0.541633 0.4914788
v -0.012721025 0.30220258 -0.41474202
v -0.012721025 -0.39142087 0.49147862
v -0.012721025 -0.39142066 -0.6587405
v -0.012721025 0.28542706 -0.42476875
v -0.012721025 0.3009733 -0.4193948
v -0.012721025 0.30220258 -0.41474202
v 0.012678974 0.29914573 -0.43055
v -0.012721025 0.3009733 -0.4193948
v -0.0019908668 0.54210615 0.4914788
v -0.012721025 0.541633 0.4914788
v 0.012678974 0.41534987 0.009271042
v 0.012678974 0.5427529 0.4914788
vt 0.06986674 0.74004924
vt 0.2573827 0.74004924
vt 0.25728765 0.74004924
vt 0.06986674 0.74004924
vt 0.2575126 0.74004924
vt 0.06986674 0.74004924
vt 0.06986674 0.5087359
vt 0.06986674 0.5068929
vt 0.06986674 0.74004924
vt 0.06986674 0.50900674
vt 0.06986674 0.74004924
vt 0.23192132 0.643189
vt 0.2575126 0.74004924
vt 0.06986674 0.5068929
vt 0.20857958 0.55484295
vt 0.09216408 0.5594684
vt 0.018874817 7.6293944E-08
vt 0.021648597 0
vt 0.07194469 0.57080793
vt 0.09378371 0.57231855
vt 0 7.6293944E-08
vt 0.25728765 0.74004924
vt 0.20919365 0.55801827
vt 0.06986674 0.74004924
vt 0.06986674 0.50900674
vt 0.20582399 0.5560042
vt 0.2089467 0.55708367
vt 0.012649116 0
vt 0 0.020018235
vt 0.008859825 0
vt 0.75078917 0.008456574
vt 0.750694 0
vt 0.35819936 0.020018158
vt 0.75091916 0.020018158
vn -0 0 -1
vn -0 0 -1
vn -0 0 -1
vn -0 0 -1
vn -0 0 -1
vn -0 1 0
vn -0 1 0
vn -0 1 0
vn -2.970274E-05 1 0
vn -2.970274E-05 1 0
vn -1 0 0
vn -1 0 0
vn -1 0 0
vn -1 0 0
vn -1 0 0
vn 0.36461762 -0.30421782 0.8800599
vn 0.36461765 -0.30421788 0.8800599
vn 0.36461765 -0.30421782 0.8800599
vn 0.3646159 -0.304218 0.8800607
vn 0.3646185 -0.30421486 0.88006055
vn 0.3646158 -0.30421796 0.8800607
vn 1 0 0
vn 1 0 0
vn 1 0 0
vn 1 0 0
vn 1 0 0
vn 1 0 0
vn 0.042582195 -0.965948 0.2552084
vn 0.042582195 -0.965948 0.25520843
vn 0.042582195 -0.96594787 0.25520843
vn 0.0425882 -0.9659471 0.25521067
vn 0.042586204 -0.9659472 0.25521067
vn 0.042588197 -0.9659471 0.25521067
vn 0.042588193 -0.9659471 0.25521067
g Device_Prop_Box_006_v_015_0
f 3/3/3 2/2/2 1/1/1
f 1/1/1 2/2/2 4/4/4
f 5/5/5 4/4/4 2/2/2
f 8/8/8 7/7/7 6/6/6
f 6/6/6 7/7/7 9/9/9
f 10/10/10 9/9/9 7/7/7
f 13/13/13 12/12/12 11/11/11
f 11/11/11 12/12/12 14/14/14
f 15/15/15 14/14/14 12/12/12
f 18/18/18 17/17/17 16/16/16
f 17/17/17 19/19/19 16/16/16
f 19/19/19 20/20/20 16/16/16
f 21/21/21 19/19/19 17/17/17
f 24/24/24 23/23/23 22/22/22
f 25/25/25 23/23/23 24/24/24
f 26/26/26 23/23/23 25/25/25
f 26/26/26 27/27/27 23/23/23
f 30/30/30 29/29/29 28/28/28
f 29/29/29 31/31/31 28/28/28
f 28/28/28 31/31/31 32/32/32
f 33/33/33 31/31/31 29/29/29
f 34/34/34 31/31/31 33/33/33
