g Device_Prop_Box_009_v_018
v 0.011490481 0.40199232 0.26588434
v 0.011372755 0.4020242 0.18970974
v 0.011498281 0.31578043 0.18962893
v 0.011573422 -0.68643177 0.18966807
v 0.011490481 -0.6861124 0.26588434
v -0.118240066 0.31582296 -0.026215648
v -0.118082814 0.4688954 -0.96210307
v -0.118240066 0.31589186 -1.0436084
v -0.11805432 0.53182715 -0.026215648
v -0.037686847 0.53180957 -0.845162
v -0.11802962 0.5318436 -0.92858243
v 0.011573422 -0.68643177 0.18966807
v 0.011490481 0.40199232 0.26588434
v 0.011498281 0.31578043 0.18962893
v 0.011573422 -0.68643177 0.18966807
v 0.84331846 -0.800976 0.18967699
v 0.8589815 -0.6862505 0.18967718
v 0.011387483 0.5308832 0.19007348
v 0.61732054 0.47858134 0.18991554
v 0.57896554 0.5308671 0.19006863
v -0.118240066 0.31582296 -0.026215648
v -0.11802962 0.5318436 -0.92858243
v -0.118082814 0.4688954 -0.96210307
v -0.11805432 0.53182715 -0.026215648
v 0.011532484 0.53176683 -0.79406905
v -0.037686847 0.53180957 -0.845162
v -0.11802962 0.5318436 -0.92858243
v -0.118240066 0.31589186 -1.0436084
v -0.118082814 0.4688954 -0.96210307
v 0.57896554 0.5308671 0.19006863
v 0.588282 0.5317225 -0.026215648
v 0.5847128 0.5313841 0.05681378
v 0.011490481 0.40199232 0.26588434
v 0.58856916 0.51302034 0.26588434
v 0.67000055 0.40199232 0.26588434
v -0.19443987 0.6079225 0.26588434
v 0.51896524 0.6079224 0.26588434
v 0.011490481 -0.6861124 0.26588434
v -0.19443998 -1.2357322 0.26588434
v -0.064525224 -1.239799 0.26588434
v 0.011490481 -0.89204264 0.26588434
v -0.043953374 -1.2404429 0.26588434
v 0.011490529 -1.2421784 0.26588434
v 0.82833004 -0.89204264 0.26588434
v 0.8408291 -0.8004928 0.26588434
v 0.8564449 -0.6861124 0.26588434
v 0.011490481 -0.89204264 0.26588434
v 0.011489415 -1.2231783 0.24267782
v 0.011490529 -1.2421784 0.26588434
v 0.011522165 -1.1797627 0.18964927
v 0.011534809 -0.89204997 0.18965665
v 0.011372755 0.4020242 0.18970974
v 0.6719405 0.40201014 0.2234067
v 0.6734901 0.40201005 0.1896985
v 0.011490481 0.40199232 0.26588434
v 0.67000055 0.40199232 0.26588434
v 0.011490481 -0.6861124 0.26588434
v 0.85789335 -0.6861124 0.2226897
v 0.8564449 -0.6861124 0.26588434
v 0.011573422 -0.68643177 0.18966807
v 0.8589815 -0.6862505 0.18967718
v 0.011534809 -0.89204997 0.18965665
v 0.8294855 -0.8920459 0.23141591
v 0.8308848 -0.8920493 0.18967195
v 0.82833004 -0.89204264 0.26588434
v 0.011490481 -0.89204264 0.26588434
v 0.011490578 0.6079225 -0.026215648
v -0.09558041 0.6079224 -0.86482203
v 0.011490529 0.6079225 -0.7536256
v -0.19443987 0.6079224 -0.9674906
v -0.19443987 0.6079225 0.26588434
v 0.51896524 0.6079224 0.26588434
v 0.5283096 0.6079225 0.06263455
v 0.5323946 0.6079225 -0.026215648
v 0.011490481 0.5317225 -0.026215648
v 0.011490481 0.57470715 -0.77128404
v 0.011532484 0.53176683 -0.79406905
v 0.011490529 0.6079225 -0.7536256
v 0.011490578 0.6079225 -0.026215648
v 0.011490481 0.5317225 -0.026215648
v 0.5323946 0.6079225 -0.026215648
v 0.011490578 0.6079225 -0.026215648
v 0.5674719 0.56009614 -0.026215648
v 0.588282 0.5317225 -0.026215648
v -0.19443987 0.6079225 0.26588434
v -0.19443987 0.3607584 -1.0988917
v -0.19443987 0.6079224 -0.9674906
v -0.19444007 0.31582296 -0.026215648
v -0.19443998 0.31582287 -1.122781
v -0.19444007 -1.0748751 0.069415726
v -0.19444007 -0.9965775 -0.026215648
v -0.19443998 -1.2357322 0.26588434
v -0.118240066 0.31582296 -0.026215648
v -0.14913595 -0.99799573 -0.026215648
v -0.118240066 -0.9989629 -0.026215648
v -0.19444007 0.31582296 -0.026215648
v -0.19444007 -0.9965775 -0.026215648
v -0.19444007 0.31582296 -0.026215648
v -0.13475496 0.31589293 -1.0607591
v -0.19443998 0.31582287 -1.122781
v -0.118240066 0.31589186 -1.0436084
v -0.118240066 0.31582296 -0.026215648
v 0.011490481 0.5317225 -0.026215648
v 0.5847128 0.5313841 0.05681378
v 0.588282 0.5317225 -0.026215648
v 0.011387483 0.5308832 0.19007348
v 0.57896554 0.5308671 0.19006863
v -0.118240066 0.31582296 -0.026215648
v -0.11824016 0.31582287 0.19043702
v -0.11815955 0.40947607 0.19043702
v -0.11805432 0.53182715 0.19043702
v -0.11805432 0.53182715 -0.026215648
v -0.11802962 0.5318436 -0.92858243
v 0.011387483 0.5308832 0.19007348
v -0.11805432 0.53182715 -0.026215648
v -0.11805432 0.53182715 0.19043702
v 0.011490481 0.5317225 -0.026215648
v 0.011532484 0.53176683 -0.79406905
v 0.011534809 -0.89204997 0.18965665
v -0.02560522 -1.1787894 0.18988007
v 0.011522165 -1.1797627 0.18964927
v -0.11824016 -1.1763456 0.19043702
v -0.11824016 -0.7890776 0.19043702
v 0.011573422 -0.68643177 0.18966807
v 0.011498281 0.31578043 0.18962893
v -0.11824016 0.31582287 0.19043702
v 0.011498281 0.31578043 0.18962893
v -0.11815955 0.40947607 0.19043702
v -0.11824016 0.31582287 0.19043702
v 0.011372755 0.4020242 0.18970974
v -0.11805432 0.53182715 0.19043702
v 0.011387483 0.5308832 0.19007348
v 0.011490481 0.57470715 -0.77128404
v -0.037686847 0.53180957 -0.845162
v 0.011532484 0.53176683 -0.79406905
v -0.09558041 0.6079224 -0.86482203
v 0.011490529 0.6079225 -0.7536256
v -0.11802962 0.5318436 -0.92858243
v -0.19443987 0.3607584 -1.0988917
v -0.19443987 0.6079224 -0.9674906
v -0.13475496 0.31589293 -1.0607591
v -0.118240066 0.31589186 -1.0436084
v -0.19443998 0.31582287 -1.122781
v 0.8308848 -0.8920493 0.18967195
v 0.011573422 -0.68643177 0.18966807
v 0.011534809 -0.89204997 0.18965665
v 0.84331846 -0.800976 0.18967699
v 0.8294855 -0.8920459 0.23141591
v 0.84331846 -0.800976 0.18967699
v 0.8308848 -0.8920493 0.18967195
v 0.8408291 -0.8004928 0.26588434
v 0.82833004 -0.89204264 0.26588434
v 0.85789335 -0.6861124 0.2226897
v 0.8589815 -0.6862505 0.18967718
v 0.8564449 -0.6861124 0.26588434
v -0.118240066 -0.9989629 -0.026215648
v -0.11824016 0.31582287 0.19043702
v -0.118240066 0.31582296 -0.026215648
v -0.118240066 -1.0654681 0.05501292
v -0.11824016 -0.7890776 0.19043702
v -0.11824016 -1.1227735 0.12500477
v -0.11824016 -1.1763456 0.19043702
v -0.19444007 -1.0748751 0.069415726
v -0.14913595 -0.99799573 -0.026215648
v -0.19444007 -0.9965775 -0.026215648
v -0.19443998 -1.2357322 0.26588434
v -0.11824016 -1.1227735 0.12500477
v -0.118240066 -1.0654681 0.05501292
v -0.118240066 -0.9989629 -0.026215648
v -0.11824016 -1.1763456 0.19043702
v 0.011489415 -1.2231783 0.24267782
v -0.064525224 -1.239799 0.26588434
v -0.02560522 -1.1787894 0.18988007
v 0.011522165 -1.1797627 0.18964927
v -0.043953374 -1.2404429 0.26588434
v 0.011490529 -1.2421784 0.26588434
v 0.011372755 0.4020242 0.18970974
v 0.61732054 0.47858134 0.18991554
v 0.011387483 0.5308832 0.19007348
v 0.6734901 0.40201005 0.1896985
v 0.6719405 0.40201014 0.2234067
v 0.61732054 0.47858134 0.18991554
v 0.6734901 0.40201005 0.1896985
v 0.58856916 0.51302034 0.26588434
v 0.67000055 0.40199232 0.26588434
v 0.57896554 0.5308671 0.19006863
v 0.5283096 0.6079225 0.06263455
v 0.51896524 0.6079224 0.26588434
v 0.5674719 0.56009614 -0.026215648
v 0.588282 0.5317225 -0.026215648
v 0.5323946 0.6079225 -0.026215648
vt 0.8017006 0.6351801
vt 0.81747836 0.6351801
vt 0.81747836 0.6318745
vt 0.81747836 0.40988058
vt 0.8017006 0.40988058
vt 1.712993 0.68336135
vt 1.7129931 0.48957938
vt 1.712993 0.47270313
vt 1.7233366 0.68336135
vt 1.7233367 0.5137929
vt 1.7233366 0.49652004
vt 0.81747836 0.40988058
vt 0.8017006 0.6351801
vt 0.81747836 0.6318745
vt 0.31416458 0.8983732
vt 0.14193657 0.8983732
vt 0.13869326 0.8983731
vt 0.6868718 0.40988055
vt 0.6868718 0.53533447
vt 0.68687177 0.52739334
vt 1.712993 0.68336135
vt 1.7129929 0.49652004
vt 1.7129931 0.48957938
vt 1.7233366 0.68336135
vt 1.7233366 0.524372
vt 1.7233367 0.5137929
vt 0.15128556 0.20139518
vt 0 0.082106665
vt 0.10718414 0.16663231
vt 0.12583412 0.17041954
vt 0.122038804 0
vt 0.12348602 0.06542244
vt 0.5408776 0.35680407
vt 0.5638668 0.23731604
vt 0.5408775 0.22045508
vt 0.58351696 0.3994434
vt 0.58351696 0.25172797
vt 0.31557804 0.35680407
vt 0.20177557 0.39944345
vt 0.20093344 0.3725437
vt 0.2729388 0.35680407
vt 0.20080012 0.3682841
vt 0.2004408 0.35680407
vt 0.2729388 0.18767188
vt 0.2918948 0.1850839
vt 0.31557804 0.18185051
vt 0.85394317 0.63518006
vt 0.85874486 0.5666153
vt 0.8539431 0.56268203
vt 0.8697212 0.575606
vt 0.8697212 0.63518006
vt 0.6868718 0.40988055
vt 0.6798922 0.54664487
vt 0.6868718 0.54696566
vt 0.6710939 0.40988055
vt 0.6710939 0.54622954
vt 0.31416458 0.9141512
vt 0.13891113 0.9052073
vt 0.13921104 0.9141512
vt 0.31416458 0.8983732
vt 0.13869326 0.8983731
vt 0.66075027 0.40988055
vt 0.6521069 0.57924795
vt 0.66075027 0.5795377
vt 0.64497256 0.5790128
vt 0.64497256 0.40988055
vt 1.9445338 0.33896202
vt 1.9667035 0.16532281
vt 1.9445338 0.18834677
vt 1.9871731 0.14406464
vt 1.9871731 0.3994435
vt 1.8394575 0.3994435
vt 1.8375229 0.3573591
vt 1.8366772 0.33896202
vt 1.7233366 0.68336135
vt 1.7322369 0.5290898
vt 1.7233366 0.524372
vt 1.7391143 0.5327461
vt 1.7391143 0.68336135
vt 1.634629 0.7190454
vt 1.6188512 0.61118865
vt 1.6188512 0.7190454
vt 1.628754 0.6039256
vt 1.634629 0.59961677
vt 1.005 0.80432385
vt 1.056177 0.5217376
vt 1.005 0.54894507
vt 1.0654813 0.7438425
vt 1.0654813 0.5167911
vt 1.3534348 0.7636436
vt 1.3372227 0.7438425
vt 1.3867415 0.8043239
vt 1.005 0.81651044
vt 1.2770352 0.82290775
vt 1.2772355 0.81651044
vt 1.005 0.83228827
vt 1.2767416 0.83228827
vt 1.6972152 0.68336135
vt 1.7095735 0.46915197
vt 1.6972152 0.4563099
vt 1.712993 0.47270313
vt 1.712993 0.68336135
vt 1.634629 0.7190454
vt 1.634629 0.60035574
vt 1.634629 0.59961677
vt 1.634629 0.7190454
vt 1.634629 0.6015326
vt 1.712993 0.68336135
vt 1.712993 0.68336135
vt 1.712993 0.68336135
vt 1.712993 0.68336135
vt 1.712993 0.68336135
vt 1.7129929 0.49652004
vt 1.7233366 0.68336135
vt 1.7233366 0.68336135
vt 1.7233366 0.68336135
vt 1.7233366 0.68336135
vt 1.7233366 0.524372
vt 1.2337773 0.81651044
vt 1.2992505 0.81651044
vt 1.294271 0.81651044
vt 1.3139637 0.81651044
vt 1.2337773 0.81651044
vt 1.1953263 0.81651044
vt 1.005 0.81651044
vt 1.005 0.81651044
vt 1.712993 0.68336135
vt 1.712993 0.68336135
vt 1.712993 0.68336135
vt 1.712993 0.68336135
vt 1.712993 0.68336135
vt 1.712993 0.68336135
vt 0.13485703 0.36452276
vt 0.122434765 0.287907
vt 0.10474495 0.3408934
vt 0.19655465 0.26751843
vt 0.15813774 0.38283554
vt 0.15128556 0.20139518
vt 0.05878746 0.024774665
vt 0.23202537 0.16104512
vt 0.005926285 0.06432045
vt 0 0.082106665
vt 0.027292175 0
vt 0.14450757 0.8983732
vt 0.31416458 0.8983732
vt 0.31416458 0.8983732
vt 0.14193657 0.8983732
vt 0.00012046814 0.032887574
vt 0.07264338 3.967285E-06
vt 0.00026687622 0
vt 0.07275519 0.06004303
vt 0 0.06004303
vt 0.16380827 0.026012726
vt 0.1638164 4.119873E-06
vt 0.16365398 0.06004303
vt 1.2772355 0.81651044
vt 1.005 0.81651044
vt 1.005 0.81651044
vt 1.2910057 0.81651044
vt 1.2337773 0.81651044
vt 1.3028712 0.81651044
vt 1.3139637 0.81651044
vt 0.203152 0
vt 0.29976395 0.035682984
vt 0.30047134 0
vt 0.0032156373 7.6293944E-08
vt 0.14539193 0.06001755
vt 0.2166192 0.06001755
vt 0.29928148 0.06001755
vt 0.078804776 0.06001747
vt 0.023616333 0.16219682
vt 0.0011869812 0.10232521
vt 0.07792511 0.13297981
vt 0.07758011 0.16222252
vt 0.0008657837 0.11852822
vt 0 0.16219765
vt 0.6868718 0.40988055
vt 0.6868718 0.53533447
vt 0.6868718 0.40988055
vt 0.6868718 0.54696566
vt 0.0007216644 0.196688
vt 0.074774854 0.17029884
vt 0 0.17012794
vt 0.11003037 0.230158
vt 0.0016136932 0.230158
vt 0.12583412 0.17041954
vt 0.19834885 0.07000878
vt 0.2027002 0.230158
vt 0.14974503 0
vt 0.122038804 0
vt 0.19644654 0
vn 0.99999774 0.0014569152 -0.001544854
vn 0.99999774 0.001456915 -0.0015448541
vn 0.99999774 0.001456915 -0.001544854
vn 0.9999994 0 0.001088227
vn 0.9999994 0 0.001088227
vn 0.9999995 -0.0010277677 0
vn 0.9999995 -0.0010277677 0
vn 0.9999995 -0.0010277677 0
vn -0.00040434088 -1 -1.8265137E-05
vn -0.00040434088 -1 -1.8265137E-05
vn -0.00040434088 -1 -1.8265137E-05
vn 1 7.497558E-05 1.7521705E-05
vn 1 7.497557E-05 1.7521705E-05
vn 1 7.497558E-05 1.7521705E-05
vn 1.0747986E-05 0 -1
vn 1.0747986E-05 0 -1
vn 1.07479855E-05 0 -1
vn -8.4528465E-06 0.0029217622 -0.9999957
vn -8.4528465E-06 0.0029217617 -0.9999957
vn -8.4528465E-06 0.0029217624 -0.9999957
vn 0.99999964 -0.0008596557 2.7426593E-05
vn 0.99999964 -0.00085965573 2.7426595E-05
vn 0.99999964 -0.0008596557 2.7426591E-05
vn -0.00080806535 -0.99999964 -5.788473E-05
vn -0.00080806523 -0.99999964 -5.788473E-05
vn -0.00080806535 -0.99999964 -5.7884725E-05
vn 0.67536056 0.34619212 -0.6511829
vn 0.6753606 0.34619212 -0.65118295
vn 0.6753606 0.34619212 -0.65118295
vn 0.80502397 0.5920863 0.037018165
vn 0.80502397 0.5920863 0.037018165
vn 0.80502397 0.59208626 0.037018165
vn -0 0 1
vn -0 0 1
vn -0 0 1
vn -0 0 1
vn -0 0 1
vn -0 0 1
vn -0 0 1
vn -0 0 1
vn -0 0 1
vn -0 0 1
vn -0 0 1
vn -0 0 1
vn -0 0 1
vn -0 0 1
vn 1 0 -4.790222E-05
vn 1 0 -4.7902216E-05
vn 1 0 -4.7902216E-05
vn 0.9999999 -4.3963486E-05 0.000581534
vn 0.9999999 -4.3963482E-05 0.00058153394
vn -2.13654E-05 -1 1.8922588E-06
vn -2.1365398E-05 -1 1.8922586E-06
vn -2.1365398E-05 -1 1.8922586E-06
vn -0 -1 -0.0004184847
vn -0 -1 -0.0004197119
vn -0 1 2.80878E-07
vn -0 1 2.80878E-07
vn -0 1 2.80878E-07
vn -0.00021387037 0.9999912 -0.0041909222
vn -0.00021387039 0.9999912 -0.004190922
vn 7.6714764E-07 -1 8.126539E-05
vn 7.671476E-07 -1 8.126538E-05
vn 7.671476E-07 -1 8.126539E-05
vn -0 -1 9.6286094E-05
vn -0 -1 9.628611E-05
vn -9.0494507E-07 1 0
vn -9.049453E-07 1 0
vn -9.0494507E-07 1 0
vn -0 1 0
vn -0 1 0
vn -0 1 0
vn -0 1 4.729819E-07
vn -0 1 0
vn 0.9999995 0.00094912184 5.4756994E-05
vn 0.9999995 0.000949122 5.4756994E-05
vn 0.9999995 0.00094912184 5.4756994E-05
vn 1 -1.2715659E-06 0
vn 1 -1.2715658E-06 0
vn -0 0 -1
vn -0 0 -1
vn -0 0 -1
vn -0 0 -1
vn -0 0 -1
vn -1 0 0
vn -1 0 0
vn -1 0 0
vn -1 0 0
vn -1 2.2032498E-06 0
vn -1 0 0
vn -1 0 0
vn -1 0 5.3620346E-07
vn -0 0 -1
vn -0 0 -1
vn -0 0 -1
vn -0 0 -1
vn -0 0 -1
vn 0.0011736333 -0.9999993 0
vn 0.0011736334 -0.9999993 0
vn 0.0011736333 -0.9999993 0
vn -0 -1 -6.771342E-05
vn -0 -1 -6.771342E-05
vn -0 -0.9999918 -0.0040750457
vn -0 -0.9999918 -0.0040750457
vn -0 -0.9999918 -0.004075045
vn -2.8195369E-05 -0.9999925 -0.0038803918
vn -2.8371382E-05 -0.9999925 -0.0038811488
vn 0.99999964 -0.0008599112 0
vn 0.99999964 -0.00086078444 4.468289E-07
vn 0.99999964 -0.00086003414 0
vn 0.99999964 -0.0008599112 0
vn 0.99999964 -0.0008599112 0
vn 0.99999964 -0.0008599113 2.7365395E-05
vn -0.00080778194 -0.99999213 -0.0038807613
vn -0.00080778194 -0.99999213 -0.0038807613
vn -0.0072921533 -0.9999734 0
vn -0.000807782 -0.99999213 -0.0038807618
vn -0.0008077879 -0.99999964 -5.7837922E-05
vn -0.006215634 2.5867266E-05 -0.9999807
vn -0.006215634 2.5867268E-05 -0.9999807
vn -0.006215634 2.5867268E-05 -0.9999807
vn -0.006012136 -4.9180306E-07 -0.999982
vn -0.0059682047 5.67248E-05 -0.99998224
vn -0.005968205 5.672481E-05 -0.99998224
vn -0.0062284903 0 -0.9999807
vn -0.00622849 0 -0.9999807
vn -0.0055611436 0.00092887494 -0.99998415
vn -0.0055611436 0.00092887494 -0.99998415
vn -0.0062284884 5.3613862E-06 -0.9999807
vn -0.0055611446 0.00092887494 -0.99998415
vn -0.0027879407 0.002823053 -0.99999213
vn -0.0027879404 0.0028230525 -0.99999213
vn 0.6758555 0.34597987 -0.6507819
vn 0.67585564 0.3459799 -0.6507819
vn 0.6758556 0.3459799 -0.6507819
vn 0.6758569 0.34597835 -0.6507814
vn 0.6758566 0.34597743 -0.6507821
vn 0.6758568 0.34597787 -0.6507817
vn 0.6758574 0.34597775 -0.6507811
vn 0.6758569 0.34597835 -0.6507815
vn 0.6758568 0.34597787 -0.6507817
vn 0.6758568 0.34597787 -0.6507817
vn 0.6758574 0.34597775 -0.65078104
vn 1.8684455E-05 5.5601562E-05 -1
vn 1.8684457E-05 5.5601562E-05 -1
vn 1.8684455E-05 5.5601555E-05 -1
vn 1.79979E-05 5.2865882E-05 -1
vn 0.9902623 -0.1351958 0.0332058
vn 0.9902623 -0.1351958 0.0332058
vn 0.9902623 -0.13519579 0.033205796
vn 0.9902623 -0.13519621 0.03320726
vn 0.9902621 -0.13519697 0.033208635
vn 0.9902623 -0.1351963 0.03320382
vn 0.9902623 -0.1351963 0.03320382
vn 0.9902623 -0.13519621 0.03320726
vn 1 0 4.472288E-07
vn 1 0 4.4722887E-07
vn 1 0 4.4722887E-07
vn 1 0 0
vn 1 0 7.154806E-07
vn 1 0 1.1928489E-06
vn 1 0 0
vn -0.024213431 -0.7735179 -0.63331187
vn -0.024213431 -0.7735179 -0.6333118
vn -0.024213433 -0.77351797 -0.63331175
vn -0.024213474 -0.7735179 -0.63331187
vn -0.024209982 -0.77351755 -0.63331246
vn -0.024214214 -0.77351815 -0.63331133
vn -0.02421421 -0.77351815 -0.63331133
vn -0.024213614 -0.77351797 -0.63331175
vn -0.024216736 -0.7735196 -0.6333096
vn -0.024213832 -0.7735145 -0.6333159
vn -0.024216738 -0.7735195 -0.6333096
vn -0.024216736 -0.7735196 -0.6333096
vn -0.024209613 -0.77352166 -0.6333072
vn -0.024213953 -0.77351636 -0.63331366
vn -1.6999586E-05 0.0028227465 -0.99999607
vn -1.6999586E-05 0.0028227468 -0.99999607
vn -1.6999586E-05 0.0028227468 -0.99999607
vn -1.691491E-05 0.0028220762 -0.99999607
vn 0.8058148 0.5910078 0.037043344
vn 0.8058148 0.5910078 0.037043344
vn 0.8058148 0.5910078 0.037043344
vn 0.80581456 0.59100795 0.037047435
vn 0.8058137 0.59100896 0.037049487
vn 0.8058149 0.59100753 0.037047938
vn 0.80581355 0.5910092 0.037048277
vn 0.80581456 0.59100795 0.037047435
vn 0.8058149 0.5910074 0.037047934
vn 0.8058149 0.59100753 0.037047938
vn 0.80581355 0.5910092 0.037048273
g Device_Prop_Box_009_v_018_0
f 3/3/3 2/2/2 1/1/1
f 5/5/5 4/4/4 1/1/1
f 8/8/8 7/7/7 6/6/6
f 11/11/11 10/10/10 9/9/9
f 14/14/14 13/13/13 12/12/12
f 17/17/17 16/16/16 15/15/15
f 20/20/20 19/19/19 18/18/18
f 23/23/23 22/22/22 21/21/21
f 26/26/26 25/25/25 24/24/24
f 29/29/29 28/28/28 27/27/27
f 32/32/32 31/31/31 30/30/30
f 35/35/35 34/34/34 33/33/33
f 36/36/36 33/33/33 34/34/34
f 36/36/36 34/34/34 37/37/37
f 36/36/36 38/38/38 33/33/33
f 36/36/36 39/39/39 38/38/38
f 40/40/40 38/38/38 39/39/39
f 38/38/38 40/40/40 41/41/41
f 42/42/42 41/41/41 40/40/40
f 41/41/41 42/42/42 43/43/43
f 41/41/41 44/44/44 38/38/38
f 45/45/45 38/38/38 44/44/44
f 38/38/38 45/45/45 46/46/46
f 49/49/49 48/48/48 47/47/47
f 48/48/48 50/50/50 47/47/47
f 51/51/51 47/47/47 50/50/50
f 54/54/54 53/53/53 52/52/52
f 52/52/52 53/53/53 55/55/55
f 56/56/56 55/55/55 53/53/53
f 59/59/59 58/58/58 57/57/57
f 57/57/57 58/58/58 60/60/60
f 61/61/61 60/60/60 58/58/58
f 64/64/64 63/63/63 62/62/62
f 63/63/63 65/65/65 62/62/62
f 66/66/66 62/62/62 65/65/65
f 69/69/69 68/68/68 67/67/67
f 68/68/68 70/70/70 67/67/67
f 71/71/71 67/67/67 70/70/70
f 71/71/71 72/72/72 67/67/67
f 73/73/73 67/67/67 72/72/72
f 67/67/67 73/73/73 74/74/74
f 77/77/77 76/76/76 75/75/75
f 76/76/76 78/78/78 75/75/75
f 79/79/79 75/75/75 78/78/78
f 82/82/82 81/81/81 80/80/80
f 83/83/83 80/80/80 81/81/81
f 80/80/80 83/83/83 84/84/84
f 87/87/87 86/86/86 85/85/85
f 85/85/85 86/86/86 88/88/88
f 89/89/89 88/88/88 86/86/86
f 85/85/85 88/88/88 90/90/90
f 91/91/91 90/90/90 88/88/88
f 85/85/85 90/90/90 92/92/92
f 95/95/95 94/94/94 93/93/93
f 96/96/96 93/93/93 94/94/94
f 96/96/96 94/94/94 97/97/97
f 100/100/100 99/99/99 98/98/98
f 99/99/99 101/101/101 98/98/98
f 102/102/102 98/98/98 101/101/101
f 105/105/105 104/104/104 103/103/103
f 103/103/103 104/104/104 106/106/106
f 107/107/107 106/106/106 104/104/104
f 110/110/110 109/109/109 108/108/108
f 111/111/111 110/110/110 108/108/108
f 112/112/112 111/111/111 108/108/108
f 112/112/112 108/108/108 113/113/113
f 116/116/116 115/115/115 114/114/114
f 117/117/117 114/114/114 115/115/115
f 117/117/117 115/115/115 118/118/118
f 121/121/121 120/120/120 119/119/119
f 120/120/120 122/122/122 119/119/119
f 123/123/123 119/119/119 122/122/122
f 124/124/124 119/119/119 123/123/123
f 124/124/124 123/123/123 125/125/125
f 126/126/126 125/125/125 123/123/123
f 129/129/129 128/128/128 127/127/127
f 130/130/130 127/127/127 128/128/128
f 128/128/128 131/131/131 130/130/130
f 132/132/132 130/130/130 131/131/131
f 135/135/135 134/134/134 133/133/133
f 134/134/134 136/136/136 133/133/133
f 133/133/133 136/136/136 137/137/137
f 138/138/138 136/136/136 134/134/134
f 139/139/139 136/136/136 138/138/138
f 140/140/140 136/136/136 139/139/139
f 141/141/141 139/139/139 138/138/138
f 142/142/142 141/141/141 138/138/138
f 143/143/143 139/139/139 141/141/141
f 146/146/146 145/145/145 144/144/144
f 147/147/147 144/144/144 145/145/145
f 150/150/150 149/149/149 148/148/148
f 149/149/149 151/151/151 148/148/148
f 148/148/148 151/151/151 152/152/152
f 153/153/153 151/151/151 149/149/149
f 154/154/154 153/153/153 149/149/149
f 155/155/155 151/151/151 153/153/153
f 158/158/158 157/157/157 156/156/156
f 159/159/159 156/156/156 157/157/157
f 157/157/157 160/160/160 159/159/159
f 161/161/161 159/159/159 160/160/160
f 160/160/160 162/162/162 161/161/161
f 165/165/165 164/164/164 163/163/163
f 163/163/163 164/164/164 166/166/166
f 164/164/164 167/167/167 166/166/166
f 168/168/168 167/167/167 164/164/164
f 169/169/169 168/168/168 164/164/164
f 167/167/167 170/170/170 166/166/166
f 170/170/170 171/171/171 166/166/166
f 166/166/166 171/171/171 172/172/172
f 173/173/173 171/171/171 170/170/170
f 174/174/174 171/171/171 173/173/173
f 172/172/172 171/171/171 175/175/175
f 175/175/175 171/171/171 176/176/176
f 179/179/179 178/178/178 177/177/177
f 180/180/180 177/177/177 178/178/178
f 183/183/183 182/182/182 181/181/181
f 182/182/182 184/184/184 181/181/181
f 181/181/181 184/184/184 185/185/185
f 186/186/186 184/184/184 182/182/182
f 187/187/187 184/184/184 186/186/186
f 188/188/188 184/184/184 187/187/187
f 189/189/189 187/187/187 186/186/186
f 190/190/190 189/189/189 186/186/186
f 191/191/191 187/187/187 189/189/189
