g Device_Prop_Box_01_v_008
v -0.039791927 -0.04912911 -0.005230543
v -0.039791927 0.06447883 -0.0025785367
v -0.039791927 0.059020925 -0.005230525
v -0.039791927 -0.04912911 0.004769458
v 0.039247386 -0.04912911 0.003424903
v 0.03985871 -0.04912911 0.004769452
v 0.035311848 -0.04912911 -0.005230546
v -0.039791927 -0.04912911 -0.005230543
v 0.05975201 0.023412174 0.004769461
v 0.03985871 -0.04912911 0.004769452
v 0.06006823 0.023233684 0.004769461
v -0.039791927 -0.04912911 0.004769458
v -0.039791927 0.07960132 0.0047694794
v -0.039791927 -0.04912911 -0.005230543
v -0.039791927 0.07960132 0.0047694794
v -0.039791927 0.06447883 -0.0025785367
v -0.039791927 -0.04912911 0.004769458
v -0.039791927 -0.04912911 -0.005230543
v 0.051175535 0.007672921 -0.00523054
v 0.035311848 -0.04912911 -0.005230546
v -0.039791927 0.059020925 -0.005230525
v 0.051175535 0.007672921 -0.00523054
v 0.039247386 -0.04912911 0.003424903
v 0.035311848 -0.04912911 -0.005230546
v 0.03985871 -0.04912911 0.004769452
v 0.06006823 0.023233684 0.004769461
v 0.05975201 0.023412174 0.004769461
v -0.039791927 0.06447883 -0.0025785367
v -0.039791927 0.07960132 0.0047694794
v 0.051175535 0.007672921 -0.00523054
v 0.06006823 0.023233684 0.004769461
v -0.039791927 0.059020925 -0.005230525
vt 1.3194636 0.054012325
vt 1.3772986 0.05401234
vt 1.3745201 0.05401234
vt 1.3194636 0.054012325
vt 1.3194636 0.09424925
vt 1.3194636 0.09456046
vt 1.3194636 0.09224576
vt 1.3194636 0.054012325
vt 1.3563925 0.104687676
vt 1.3194636 0.09456046
vt 1.3563017 0.104848646
vt 1.3194636 0.054012325
vt 1.384997 0.054012343
vt 1.3194636 0.054012325
vt 1.384997 0.054012343
vt 1.3772986 0.05401234
vt 1.3194636 0.054012325
vt 1.3194636 0.054012325
vt 1.3483801 0.100321576
vt 1.3194636 0.09224576
vt 1.3745201 0.05401234
vt 0.04643752 6.979188E-09
vt 0.0008335495 0.0074402047
vt 0 0
vt 0.00096302986 0.008595962
vt 0.060121994 0.008595972
vt 0.00024012565 0.013686295
vt 0.07735996 0.049396362
vt 0.07582958 0.06254633
vt 0.008835449 0
vt 0 0.013531075
vt 0.07791229 0.044650346
vn 1 0 0
vn 1 0 0
vn 1 0 0
vn -0 1 0
vn -0 1 0
vn -0 1 0
vn -0 1 0
vn -0 1 0
vn -0 0 -1
vn -0 0 -1
vn -0 0 -1
vn -0 0 -1
vn -0 0 -1
vn 1 0 0
vn 1 0 0
vn 1 0 0
vn 1 0 0
vn -0 0 1
vn -0 0 1
vn -0 0 1
vn -0 0 1
vn -0.8822515 0.24639544 0.40115038
vn -0.8822515 0.24639541 0.4011503
vn -0.8822515 0.24639544 0.40115035
vn -0.8822586 0.2463946 0.4011352
vn -0.8822519 0.24639574 0.40114942
vn -0.23950514 -0.42432246 0.87326264
vn -0.23951244 -0.42431742 0.8732632
vn -0.23951295 -0.42431816 0.87326264
vn -0.23950514 -0.42432246 0.87326264
vn -0.23950513 -0.42432243 0.8732627
vn -0.23951244 -0.42431742 0.8732632
g Device_Prop_Box_01_v_008_0
f 3/3/3 2/2/2 1/1/1
f 6/6/6 5/5/5 4/4/4
f 5/5/5 7/7/7 4/4/4
f 7/7/7 8/8/8 4/4/4
f 11/11/11 10/10/10 9/9/9
f 10/10/10 12/12/12 9/9/9
f 12/12/12 13/13/13 9/9/9
f 16/16/16 15/15/15 14/14/14
f 15/15/15 17/17/17 14/14/14
f 20/20/20 19/19/19 18/18/18
f 21/21/21 18/18/18 19/19/19
f 24/24/24 23/23/23 22/22/22
f 23/23/23 25/25/25 22/22/22
f 25/25/25 26/26/26 22/22/22
f 29/29/29 28/28/28 27/27/27
f 28/28/28 30/30/30 27/27/27
f 30/30/30 31/31/31 27/27/27
f 32/32/32 30/30/30 28/28/28
