g Device_Prop_Box_010_v_017
v 0.5704852 0.6146859 -0.012710852
v -0.39042535 0.22683164 -0.012710852
v -0.08851274 0.6146859 -0.012710852
v 0.5704853 -0.47341877 -0.012711045
v -0.9226539 -0.4568999 -0.012711045
v -0.9226539 -0.47341877 -0.012711045
v -0.9226539 -0.47341877 -0.012711045
v -0.9226539 -0.4567538 -0.012322116
v -0.9226539 -0.4568999 -0.012711045
v -0.9226539 -0.44736493 0.012688954
v -0.9226539 -0.47341877 0.012688954
v -0.9226539 -0.47341877 0.012688954
v 0.5704853 -0.47341877 -0.012711045
v 0.5704853 -0.47341877 0.012688954
v -0.9226539 -0.47341877 -0.012711045
v 0.5704853 -0.47341877 0.012688954
v 0.5704852 0.6146859 -0.012710852
v 0.5704852 0.6146859 0.012689148
v 0.5704853 -0.47341877 -0.012711045
v 0.5704852 0.6146859 0.012689148
v -0.09263853 0.6146859 0.0014086349
v -0.09593474 0.6146859 0.012689148
v -0.08851274 0.6146859 -0.012710852
v 0.5704852 0.6146859 -0.012710852
v 0.5704852 0.6146859 0.012689148
v -0.9226539 -0.47341877 0.012688954
v 0.5704853 -0.47341877 0.012688954
v -0.9226539 -0.44736493 0.012688954
v -0.09593474 0.6146859 0.012689148
v -0.39042535 0.22683164 -0.012710852
v -0.09263853 0.6146859 0.0014086349
v -0.08851274 0.6146859 -0.012710852
v -0.9226539 -0.44736493 0.012688954
v -0.09593474 0.6146859 0.012689148
v -0.9226539 -0.4567538 -0.012322116
v -0.9226539 -0.4568999 -0.012711045
vt 0.26911104 0.052329853
vt 0.19137603 0.2449186
vt 0.26911104 0.1844083
vt 0.051029615 0.0523298
vt 0.05434031 0.35158956
vt 0.05102955 0.35158956
vt 0.05102955 0.35158956
vt 0.05436958 0.35158956
vt 0.05434031 0.35158956
vt 0.05625135 0.35158956
vt 0.05102955 0.35158956
vt 0.05102955 0.35158956
vt 0.051029615 0.0523298
vt 0.051029615 0.0523298
vt 0.05102955 0.35158956
vt 0.051029615 0.0523298
vt 0.26911104 0.052329853
vt 0.26911104 0.052329853
vt 0.051029615 0.0523298
vt 0.26911104 0.052329853
vt 0.26911104 0.1852352
vt 0.26911104 0.18589586
vt 0.26911104 0.1844083
vt 0.26911104 0.052329853
vt 0.26911104 0.052329853
vt 0.05102955 0.35158956
vt 0.051029615 0.0523298
vt 0.05625135 0.35158956
vt 0.26911104 0.18589586
vt 0.38701585 1.5258789E-07
vt 0.0019955062 0.011409607
vt 0 1.5258789E-07
vt 1.0633448 0.02052475
vt 0.0035897826 0.020524902
vt 1.0691785 0.00031417847
vt 1.0692693 0
vn -0 0 1
vn -0 0 1
vn -0 0 1
vn -0 0 1
vn -0 -2.8100507E-07 1
vn -0 0 1
vn 1 0 0
vn 1 0 0
vn 1 0 0
vn 1 0 0
vn 1 0 0
vn -0 1 0
vn -0 1 0
vn -0 1 0
vn -0 1 0
vn -1 0 0
vn -1 0 0
vn -1 0 0
vn -1 0 0
vn -0 -1 0
vn -0 -1 0
vn -0 -1 0
vn -0 -1 0
vn -0 -1 0
vn -0 0 -1
vn -0 0 -1
vn -0 0 -1
vn -0 0 -1
vn -0 0 -1
vn 0.768931 -0.59854937 0.22468573
vn 0.768931 -0.5985495 0.22468573
vn 0.768931 -0.59854937 0.22468573
vn 0.76893103 -0.5985496 0.22468488
vn 0.76893103 -0.5985496 0.2246849
vn 0.7689305 -0.5985492 0.22468841
vn 0.76889986 -0.5985252 0.224857
g Device_Prop_Box_010_v_017_0
f 3/3/3 2/2/2 1/1/1
f 4/4/4 1/1/1 2/2/2
f 2/2/2 5/5/5 4/4/4
f 6/6/6 4/4/4 5/5/5
f 9/9/9 8/8/8 7/7/7
f 8/8/8 10/10/10 7/7/7
f 11/11/11 7/7/7 10/10/10
f 14/14/14 13/13/13 12/12/12
f 15/15/15 12/12/12 13/13/13
f 18/18/18 17/17/17 16/16/16
f 19/19/19 16/16/16 17/17/17
f 22/22/22 21/21/21 20/20/20
f 21/21/21 23/23/23 20/20/20
f 24/24/24 20/20/20 23/23/23
f 27/27/27 26/26/26 25/25/25
f 26/26/26 28/28/28 25/25/25
f 29/29/29 25/25/25 28/28/28
f 32/32/32 31/31/31 30/30/30
f 31/31/31 33/33/33 30/30/30
f 34/34/34 33/33/33 31/31/31
f 33/33/33 35/35/35 30/30/30
f 35/35/35 36/36/36 30/30/30
