g Device_Prop_Box_01_v_051
v 0.6533064 -0.3847919 -0.012662405
v -0.6510191 -0.38479182 0.010424751
v -0.65994024 -0.3847919 -0.012662405
v 0.65335864 -0.3847919 -0.011764204
v -0.65012544 -0.3847919 0.012737595
v 0.6547853 -0.3847919 0.012737595
v 0.6547853 -0.3847919 0.012737595
v 0.33381027 0.3268599 0.012737788
v 0.26013994 0.37828055 0.012737788
v -0.65012544 -0.3847919 0.012737595
v -0.57425344 -0.22977212 0.012737595
v -0.13996816 0.65754914 0.012737788
v 0.65335864 -0.3847919 -0.011764204
v 0.33381027 0.3268599 0.012737788
v 0.6547853 -0.3847919 0.012737595
v 0.6274282 -0.32741597 -0.012662211
v 0.6533064 -0.3847919 -0.012662405
v 0.32277662 0.348044 -0.012662211
v -0.30079174 0.3490116 -0.012662211
v 0.6533064 -0.3847919 -0.012662405
v -0.65994024 -0.3847919 -0.012662405
v 0.6274282 -0.32741597 -0.012662211
v 0.32277662 0.348044 -0.012662211
v -0.1423651 0.67270505 -0.012662211
v -0.1423651 0.67270505 -0.012662211
v 0.33381027 0.3268599 0.012737788
v 0.32277662 0.348044 -0.012662211
v 0.26013994 0.37828055 0.012737788
v -0.13996816 0.65754914 0.012737788
v -0.30079174 0.3490116 -0.012662211
v -0.13996816 0.65754914 0.012737788
v -0.1423651 0.67270505 -0.012662211
v -0.6510191 -0.38479182 0.010424751
v -0.65994024 -0.3847919 -0.012662405
v -0.57425344 -0.22977212 0.012737595
v -0.65012544 -0.3847919 0.012737595
vt 0.051029615 0.06292323
vt 0.05102956 0.32434034
vt 0.05102956 0.32612836
vt 0.05102961 0.06291276
vt 0.05102956 0.32416123
vt 0.05102961 0.06262683
vt 0.05102961 0.06262683
vt 0.19366114 0.1269577
vt 0.20396703 0.14172296
vt 0.05102956 0.32416123
vt 0.08209911 0.30895472
vt 0.25993896 0.22191387
vt 0.00046180724 0.0007081604
vt 0.61471474 0.020028215
vt 0 0.020028077
vt 0.05003929 1.5258789E-07
vt 0.0004787445 0
vt 0.63349205 1.5258789E-07
vt 0.19810085 0.25414667
vt 0.051029615 0.06292323
vt 0.05102956 0.32612836
vt 0.0625291 0.06810984
vt 0.19790694 0.1291691
vt 0.26297653 0.2223943
vt 0.01129981 0.058431912
vt 0.1566449 0.49890137
vt 0.13115875 0.4886951
vt 0.13766144 0.4307552
vt 0.03456051 0.060649123
vt 0.28376675 1.5258789E-07
vt 0.009889144 0.021170503
vt 0 1.5258789E-07
vt 0.92396957 0.019242706
vt 0.9270576 0
vt 0.7877617 0.02117035
vt 0.9236603 0.02117035
vn -0 1 -4.196849E-06
vn -0 1 -4.196849E-06
vn -0 1 -4.196849E-06
vn -0 1 0
vn 7.8180227E-07 1 4.1591513E-05
vn -0 1 0
vn -0 0 -1
vn 2.7738963E-07 3.9741596E-07 -1
vn 3.61009E-07 0 -1
vn 3.6100903E-07 0 -1
vn 3.61009E-07 0 -1
vn -0 0 -1
vn -0.91028917 -0.41056606 0.05300127
vn -0.91028917 -0.410566 0.053001262
vn -0.91028917 -0.41056606 0.053001262
vn -0.9102889 -0.41056612 0.053005096
vn -0.910292 -0.41056904 0.05292853
vn -0.9102889 -0.41056606 0.053005096
vn -3.6663666E-06 -5.0311287E-06 1
vn -3.6663664E-06 -5.0311287E-06 1
vn -0 -2.6408517E-07 1
vn -3.6663664E-06 -5.0311287E-06 1
vn -0 0 1
vn -0 0 1
vn -0.52479184 -0.7518691 -0.39910692
vn -0.5247919 -0.7518691 -0.39910698
vn -0.5247919 -0.7518691 -0.39910698
vn -0.52479196 -0.7518691 -0.39910683
vn -0.52479136 -0.7518686 -0.39910856
vn 0.84853786 -0.41530344 -0.32788193
vn 0.84853786 -0.41530344 -0.32788193
vn 0.84853786 -0.4153035 -0.32788193
vn 0.84853864 -0.41530368 -0.32787964
vn 0.84853745 -0.41530308 -0.32788354
vn 0.84853864 -0.41530368 -0.32787964
vn 0.84853864 -0.41530368 -0.3278797
g Device_Prop_Box_01_v_051_0
f 3/3/3 2/2/2 1/1/1
f 4/4/4 1/1/1 2/2/2
f 2/2/2 5/5/5 4/4/4
f 6/6/6 4/4/4 5/5/5
f 9/9/9 8/8/8 7/7/7
f 10/10/10 9/9/9 7/7/7
f 11/11/11 9/9/9 10/10/10
f 9/9/9 11/11/11 12/12/12
f 15/15/15 14/14/14 13/13/13
f 14/14/14 16/16/16 13/13/13
f 13/13/13 16/16/16 17/17/17
f 18/18/18 16/16/16 14/14/14
f 21/21/21 20/20/20 19/19/19
f 22/22/22 19/19/19 20/20/20
f 22/22/22 23/23/23 19/19/19
f 24/24/24 19/19/19 23/23/23
f 27/27/27 26/26/26 25/25/25
f 26/26/26 28/28/28 25/25/25
f 28/28/28 29/29/29 25/25/25
f 32/32/32 31/31/31 30/30/30
f 31/31/31 33/33/33 30/30/30
f 33/33/33 34/34/34 30/30/30
f 35/35/35 33/33/33 31/31/31
f 36/36/36 33/33/33 35/35/35
