g Device_Prop_Box_009_v_026
v -0.09980505 0.019842163 0.035442796
v -0.5487035 0.06799977 0.035437178
v -0.5260294 0.019841837 0.035434853
v -0.09033199 0.3055481 0.035470314
v 0.029441904 0.22594666 0.035819132
v 0.029439094 0.36732712 0.035819132
v -0.09980505 0.22577858 0.11164279
v -0.09980505 0.23533127 0.11164279
v -0.098148175 0.23619004 0.11164279
v 0.1061253 0.34206623 0.11164279
v -0.008732413 -0.43758032 0.11164279
v 0.1061253 -0.41317812 0.11164279
v -0.09980505 0.019848352 0.11164279
v -0.026412826 -0.44133666 0.11164279
v -0.09980495 -0.45692933 0.11164279
v -0.11823561 0.22577858 0.111642994
v -0.42817304 0.06513609 0.11164279
v -0.4503865 0.019848352 0.11164279
v -0.46317002 0.0469969 0.11164279
v -0.09980505 0.019842163 0.035442796
v -0.09980505 -0.46296108 0.06925372
v -0.099805005 -0.46777228 0.035442796
v -0.09980505 0.019848352 0.11164279
v -0.09980495 -0.45692933 0.11164279
v -0.09980505 0.22577858 0.035442796
v -0.23303495 0.22577858 0.042241994
v -0.24434423 0.22574764 0.035441052
v -0.11823561 0.22577858 0.111642994
v -0.09980505 0.22577858 0.11164279
v -0.09980505 0.22577858 0.11164279
v -0.09980505 0.23594145 0.11093102
v -0.09980505 0.23533127 0.11164279
v -0.09980505 0.22577858 0.035442796
v -0.09980505 0.3006619 0.035442796
v -0.09980505 0.019848352 0.11164279
v -0.46910048 0.019846536 0.09278891
v -0.4503865 0.019848352 0.11164279
v -0.09980505 0.019842163 0.035442796
v -0.5260294 0.019841837 0.035434853
v 0.029441904 0.22594666 0.035819132
v 0.029734619 0.49596468 -0.11404187
v 0.029439094 0.36732712 0.035819132
v 0.029874146 0.13345458 -0.1804572
v 0.02985496 0.55296874 -0.1804572
v 0.029446265 0.02039242 0.035819132
v 0.029901953 -0.47093695 -0.1804572
v 0.029673383 -0.4547982 -0.06669922
v 0.02945731 -0.44025606 0.035819132
v -0.5487035 0.06799977 0.035437178
v -0.09980505 0.019842163 0.035442796
v -0.5278758 0.078794144 0.035437953
v -0.24434423 0.22574764 0.035441052
v 0.029446265 0.02039242 0.035819132
v -0.026663197 -0.45220253 0.03565577
v 0.02945731 -0.44025606 0.035819132
v -0.09980505 0.019842163 0.035442796
v -0.099805005 -0.46777228 0.035442796
v -0.09980505 0.22577858 0.035442796
v -0.09033199 0.3055481 0.035470314
v -0.09980505 0.3006619 0.035442796
v 0.029441904 0.22594666 0.035819132
v 0.029441904 0.22594666 0.035819132
v -0.09980505 0.019842163 0.035442796
v 0.029446265 0.02039242 0.035819132
v -0.09980505 0.22577858 0.035442796
v -0.24434423 0.22574764 0.035441052
v 0.029901953 -0.47093695 -0.1804572
v 0.070595495 -0.4622913 -0.1804572
v 0.029874146 0.13345458 -0.1804572
v 0.08804618 -0.45858386 -0.1804572
v 0.052703276 0.5648111 -0.1804572
v 0.02985496 0.55296874 -0.1804572
v 0.1061254 -0.45474273 -0.1804572
v 0.1061254 0.5925002 -0.1804572
v 0.1061254 -0.45474273 -0.1804572
v 0.1061254 0.5218443 -0.09804595
v 0.1061254 0.5925002 -0.1804572
v 0.1061254 -0.42724857 0.012761817
v 0.1061253 0.34206623 0.11164279
v 0.1061253 -0.41317812 0.11164279
v 0.029673383 -0.4547982 -0.06669922
v 0.070595495 -0.4622913 -0.1804572
v 0.029901953 -0.47093695 -0.1804572
v 0.02945731 -0.44025606 0.035819132
v 0.1061254 -0.42724857 0.012761817
v 0.08804618 -0.45858386 -0.1804572
v 0.1061254 -0.45474273 -0.1804572
v -0.026412826 -0.44133666 0.11164279
v -0.008732413 -0.43758032 0.11164279
v 0.1061253 -0.41317812 0.11164279
v -0.09980505 -0.46296108 0.06925372
v -0.09980495 -0.45692933 0.11164279
v -0.026663197 -0.45220253 0.03565577
v -0.099805005 -0.46777228 0.035442796
v -0.5487035 0.06799977 0.035437178
v -0.46910048 0.019846536 0.09278891
v -0.5260294 0.019841837 0.035434853
v -0.4503865 0.019848352 0.11164279
v -0.46317002 0.0469969 0.11164279
v 0.1061254 0.5218443 -0.09804595
v 0.052703276 0.5648111 -0.1804572
v 0.1061254 0.5925002 -0.1804572
v 0.1061253 0.34206623 0.11164279
v 0.029439094 0.36732712 0.035819132
v 0.029734619 0.49596468 -0.11404187
v 0.02985496 0.55296874 -0.1804572
v -0.09980505 0.23594145 0.11093102
v -0.098148175 0.23619004 0.11164279
v -0.09980505 0.23533127 0.11164279
v -0.09033199 0.3055481 0.035470314
v -0.09980505 0.3006619 0.035442796
v -0.23303495 0.22577858 0.042241994
v -0.5278758 0.078794144 0.035437953
v -0.24434423 0.22574764 0.035441052
v -0.46317002 0.0469969 0.11164279
v -0.5487035 0.06799977 0.035437178
v -0.42817304 0.06513609 0.11164279
v -0.11823561 0.22577858 0.111642994
vt 0.005 0.8983732
vt 0.097952105 0.8983731
vt 0.093255274 0.8983731
vt 0.84359956 0.61866415
vt 0.84359956 0.6351801
vt 0.8435996 0.60590327
vt 0.315578 0.04763946
vt 0.31755596 0.04763946
vt 0.3177338 0.047296394
vt 0.33965623 0.005000093
vt 0.17822501 0.02878224
vt 0.1832777 0.005000117
vt 0.27293876 0.04763946
vt 0.17744724 0.032443102
vt 0.17421874 0.047639485
vt 0.315578 0.051455636
vt 0.2823159 0.115630284
vt 0.27293876 0.12022972
vt 0.27856004 0.122876644
vt 0.89584243 0.40988058
vt 0.88884157 0.50984883
vt 0.89584243 0.510845
vt 0.88006455 0.40988058
vt 0.88006455 0.50860065
vt 0.005 0.8983732
vt 0.032586154 0.899781
vt 0.034929466 0.8983731
vt 0.008816174 0.9141512
vt 0.005 0.9141512
vt 0.82782185 0.6351801
vt 0.8279692 0.63307583
vt 0.82782185 0.6332022
vt 0.84359956 0.6351801
vt 0.84359956 0.61967504
vt 0.64497256 0.71904534
vt 0.64887494 0.6425779
vt 0.64497256 0.646455
vt 0.66075027 0.71904534
vt 0.66075027 0.63079
vt 0.26195592 0.81651044
vt 0.3055876 0.81651044
vt 0.28802294 0.81651044
vt 0.23602296 0.81651044
vt 0.3229022 0.81651044
vt 0.2222394 0.81651044
vt 0.110856555 0.81651044
vt 0.11926459 0.81651044
vt 0.122415155 0.81651044
vt 0.097952105 0.8983731
vt 0.005 0.8983732
vt 0.09363986 0.8983731
vt 0.034929466 0.8983731
vt 0.89584243 0.40988058
vt 0.89584243 0.50768566
vt 0.89584243 0.51340854
vt 0.89584243 0.40988058
vt 0.89584243 0.510845
vt 0.84359956 0.6351801
vt 0.84359956 0.61866415
vt 0.84359956 0.61967504
vt 0.84359956 0.6351801
vt 0.005 0.8983732
vt 0.005 0.8983732
vt 0.005 0.8983732
vt 0.005 0.8983732
vt 0.034929466 0.8983731
vt 0.110856555 0.81651044
vt 0.11264702 0.82493645
vt 0.23602296 0.81651044
vt 0.113414824 0.8285498
vt 0.3253547 0.8212415
vt 0.3229022 0.81651044
vt 0.114190266 0.83228827
vt 0.33102912 0.8322882
vt 0.1746715 0.7438425
vt 0.3768805 0.7609063
vt 0.39151028 0.7438424
vt 0.18036434 0.78384984
vt 0.3396563 0.80432385
vt 0.18327774 0.80432385
vt 0.14364304 0.104182355
vt 0.23315415 0.13710956
vt 0.23411323 0.10436619
vt 0.062111817 0.104008526
vt 0.078643344 0.16569798
vt 0.23274292 0.15115093
vt 0.23231682 0.16569798
vt 0.0031236268 0.05905369
vt 0.002706909 0.073279835
vt 0 0.1656979
vt 0.03856659 0
vt 0.0048532104 3.8146972E-08
vt 0.06356445 0.058852196
vt 0.06545761 0
vt 0.13722181 2.3999598E-06
vt 0.19822712 0.060698546
vt 0.17913423 0
vt 0.20450325 0.08065193
vt 0.18087512 0.08065193
vt 0.08547516 0.1742514
vt 0.014190827 0.1290474
vt 0 0.1742514
vt 0.30295998 0.17425133
vt 0.24468796 0.10936203
vt 0.089176714 0.10961212
vt 0.020260163 0.1097139
vt 0.3569243 7.6293944E-08
vt 0.35722238 0.0014020539
vt 0.3576625 7.6293944E-08
vt 0.27614167 0.0080159
vt 0.27862945 0
vt 0.004049606 0.267108
vt 0.07531303 0.017623711
vt 0 0.25753844
vt 0.13716286 0.07237553
vt 0.08084473 0
vt 0.12786636 0.101988755
vt 0.04553589 0.3642473
vn 1.8640962E-05 5.706446E-05 -1
vn 1.8640963E-05 5.7064466E-05 -1
vn 1.8640963E-05 5.7064466E-05 -1
vn 0.0029123132 0 -0.9999958
vn 0.002912313 0 -0.9999958
vn 0.0029123132 0 -0.9999958
vn -0 0 1
vn -0 0 1
vn -0 0 1
vn -0 0 1
vn -0 0 1
vn -0 0 1
vn 1.0514417E-05 0 1
vn -0 0 1
vn -0 0 1
vn 1.0514418E-05 0 1
vn -0 -9.527912E-07 1
vn -0 0 1
vn -0 0 1
vn -1 0 -1.4187323E-06
vn -1 0 -1.4187324E-06
vn -1 0 -1.4187323E-06
vn -1 0 0
vn -1 0 2.3147265E-06
vn -0.00021387619 0.9999912 -0.004190892
vn -0.00021387618 0.9999912 -0.0041908915
vn -0.00021387622 0.9999912 -0.004190892
vn -0 1 0
vn -0 1 0
vn -1 0 0
vn -1 0 0
vn -1 0 0
vn -1 0 0
vn -1 0 0
vn -0 -1 9.635943E-05
vn -0 -1 9.6359436E-05
vn -0 -1 9.635942E-05
vn 7.7285813E-07 -1 8.122126E-05
vn 7.6572337E-07 -1 8.117531E-05
vn -0.9999981 -1.9874744E-05 -0.001989048
vn -0.9999981 -1.9874744E-05 -0.0019890475
vn -0.9999981 -1.9874744E-05 -0.0019890475
vn -0.9999981 -2.0327005E-05 -0.0019898624
vn -0.99999833 -4.57311E-05 -0.0018512015
vn -0.999998 -4.5870504E-05 -0.002002766
vn -0.999998 -4.5870504E-05 -0.002002766
vn -0.999998 -4.5870504E-05 -0.002002766
vn -0.99999785 -2.3978833E-05 -0.002104237
vn 1.6754722E-05 3.948197E-05 -1
vn 1.6754722E-05 3.9481973E-05 -1
vn 1.6754722E-05 3.948197E-05 -1
vn 1.1237281E-05 -5.820729E-07 -1
vn 0.0029108895 0 -0.9999958
vn 0.0029108897 0 -0.9999958
vn 0.0029108892 0 -0.9999958
vn 0.0029116303 0 -0.9999958
vn 0.0029117495 0 -0.9999958
vn 0.0029048237 0 -0.9999958
vn 0.0029048237 0 -0.9999958
vn 0.0029048235 0 -0.9999958
vn 0.0029117297 -8.201054E-07 -0.9999958
vn 0.0029117286 0 -0.9999958
vn 0.0029117286 0 -0.9999958
vn 0.00291163 0 -0.9999958
vn 0.0029117286 0 -0.9999958
vn 1.2066481E-05 0 -1
vn -0 0 -1
vn -0 0 -1
vn -0 0 -1
vn -0 0 -1
vn -0 0 -1
vn -0 0 -1
vn -0 0 -1
vn -0 0 -1
vn 1 0 0
vn 1 0 0
vn 1 0 0
vn 1 0 0
vn 1 0 9.798983E-07
vn 1 0 9.798985E-07
vn 0.20583455 -0.9688274 0.13786028
vn 0.20583457 -0.9688274 0.13786027
vn 0.20583457 -0.9688274 0.13786027
vn 0.20583683 -0.9688269 0.13786104
vn 0.20583852 -0.9688268 0.1378595
vn 0.20583852 -0.9688268 0.13785946
vn 0.20583846 -0.9688268 0.13785946
vn 0.20583577 -0.96882653 0.13786462
vn 0.20583309 -0.96882766 0.13786136
vn 0.20583306 -0.96882766 0.13786139
vn 0.20583397 -0.9688278 0.13785887
vn 0.20583397 -0.9688278 0.13785887
vn 0.20583442 -0.968827 0.1378637
vn 0.20583346 -0.96882755 0.13786145
vn -0.6731249 -0.31695828 0.66816187
vn -0.6731249 -0.31695834 0.66816187
vn -0.6731249 -0.31695828 0.66816175
vn -0.6731253 -0.3169603 0.6681606
vn -0.67312497 -0.31695646 0.6681627
vn -0.36616 0.7064529 0.6056823
vn -0.36616006 0.7064529 0.6056824
vn -0.36616006 0.7064529 0.6056824
vn -0.3661599 0.7064531 0.6056823
vn -0.36615822 0.7064535 0.60568285
vn -0.36615705 0.7064537 0.6056834
vn -0.366157 0.7064537 0.6056834
vn -0.366151 0.70645535 0.60568494
vn -0.3661705 0.7064754 0.60564977
vn -0.3661671 0.7064815 0.6056449
vn -0.366151 0.70645535 0.60568494
vn -0.366151 0.70645535 0.60568494
vn -0.36616102 0.70645666 0.60567737
vn -0.366161 0.70645666 0.60567737
vn -0.36616096 0.70645666 0.60567737
vn -0.36615628 0.7064564 0.6056804
vn -0.3661563 0.7064565 0.6056804
vn -0.36616018 0.70645404 0.605681
vn -0.36615974 0.70645386 0.60568154
g Device_Prop_Box_009_v_026_0
f 3/3/3 2/2/2 1/1/1
f 6/6/6 5/5/5 4/4/4
f 9/9/9 8/8/8 7/7/7
f 9/9/9 7/7/7 10/10/10
f 7/7/7 11/11/11 10/10/10
f 10/10/10 11/11/11 12/12/12
f 7/7/7 13/13/13 11/11/11
f 14/14/14 11/11/11 13/13/13
f 13/13/13 15/15/15 14/14/14
f 7/7/7 16/16/16 13/13/13
f 17/17/17 13/13/13 16/16/16
f 13/13/13 17/17/17 18/18/18
f 19/19/19 18/18/18 17/17/17
f 22/22/22 21/21/21 20/20/20
f 20/20/20 21/21/21 23/23/23
f 24/24/24 23/23/23 21/21/21
f 27/27/27 26/26/26 25/25/25
f 26/26/26 28/28/28 25/25/25
f 29/29/29 25/25/25 28/28/28
f 32/32/32 31/31/31 30/30/30
f 30/30/30 31/31/31 33/33/33
f 34/34/34 33/33/33 31/31/31
f 37/37/37 36/36/36 35/35/35
f 35/35/35 36/36/36 38/38/38
f 39/39/39 38/38/38 36/36/36
f 42/42/42 41/41/41 40/40/40
f 43/43/43 40/40/40 41/41/41
f 43/43/43 41/41/41 44/44/44
f 45/45/45 40/40/40 43/43/43
f 43/43/43 46/46/46 45/45/45
f 47/47/47 45/45/45 46/46/46
f 45/45/45 47/47/47 48/48/48
f 51/51/51 50/50/50 49/49/49
f 51/51/51 52/52/52 50/50/50
f 55/55/55 54/54/54 53/53/53
f 53/53/53 54/54/54 56/56/56
f 57/57/57 56/56/56 54/54/54
f 60/60/60 59/59/59 58/58/58
f 58/58/58 59/59/59 61/61/61
f 64/64/64 63/63/63 62/62/62
f 65/65/65 62/62/62 63/63/63
f 65/65/65 63/63/63 66/66/66
f 69/69/69 68/68/68 67/67/67
f 69/69/69 70/70/70 68/68/68
f 71/71/71 70/70/70 69/69/69
f 72/72/72 71/71/71 69/69/69
f 70/70/70 71/71/71 73/73/73
f 74/74/74 73/73/73 71/71/71
f 77/77/77 76/76/76 75/75/75
f 78/78/78 75/75/75 76/76/76
f 76/76/76 79/79/79 78/78/78
f 80/80/80 78/78/78 79/79/79
f 83/83/83 82/82/82 81/81/81
f 81/81/81 82/82/82 84/84/84
f 82/82/82 85/85/85 84/84/84
f 86/86/86 85/85/85 82/82/82
f 87/87/87 85/85/85 86/86/86
f 85/85/85 88/88/88 84/84/84
f 89/89/89 88/88/88 85/85/85
f 90/90/90 89/89/89 85/85/85
f 88/88/88 91/91/91 84/84/84
f 92/92/92 91/91/91 88/88/88
f 84/84/84 91/91/91 93/93/93
f 93/93/93 91/91/91 94/94/94
f 97/97/97 96/96/96 95/95/95
f 96/96/96 98/98/98 95/95/95
f 98/98/98 99/99/99 95/95/95
f 102/102/102 101/101/101 100/100/100
f 100/100/100 101/101/101 103/103/103
f 101/101/101 104/104/104 103/103/103
f 105/105/105 104/104/104 101/101/101
f 106/106/106 105/105/105 101/101/101
f 104/104/104 107/107/107 103/103/103
f 103/103/103 107/107/107 108/108/108
f 107/107/107 109/109/109 108/108/108
f 110/110/110 107/107/107 104/104/104
f 111/111/111 107/107/107 110/110/110
f 114/114/114 113/113/113 112/112/112
f 113/113/113 115/115/115 112/112/112
f 116/116/116 115/115/115 113/113/113
f 115/115/115 117/117/117 112/112/112
f 112/112/112 117/117/117 118/118/118
