g Device_Prop_Box_009_v_001
v 0.70572114 -0.11768187 0.15047605
v 0.70570534 -0.08412422 0.35538563
v 0.70572114 -0.11768187 0.3454745
v 0.57609206 -0.117889896 -0.06542409
v 0.64612114 -0.6600501 -0.06546065
v 0.57609206 -0.6805781 -0.06542409
v 0.7054607 -0.6426667 -0.0655429
v 0.7054995 -0.11798863 -0.06559935
v 0.57609206 -0.031107016 -0.06542409
v 0.70551383 -0.031082598 -0.06548251
v 0.7054995 -0.11798863 -0.06559935
v 0.70561206 -0.6216134 0.032896016
v 0.7054607 -0.6426667 -0.0655429
v -1.0465559 0.09875182 0.150476
v -1.0465654 0.08945782 0.20729946
v -1.0465575 0.098750755 0.21004546
v 0.7056197 0.09862315 0.40935907
v 0.70572114 -0.11768187 0.15047605
v 0.7056198 0.09862315 0.1504761
v 0.70572114 -0.11768187 0.15047605
v 0.7056197 0.09862315 0.40935907
v 0.70570534 -0.08412422 0.35538563
v -1.046763 -0.10282822 0.150476
v -1.0465654 0.08945782 0.20729946
v -1.0465559 0.09875182 0.150476
v -1.0467771 -0.1139162 0.14719898
v -1.0465654 0.08945782 0.20729946
v -1.046763 -0.10282822 0.150476
v -1.0756307 0.17482315 0.22920945
v -1.0465654 0.08945782 0.20729946
v -1.0467771 -0.11567433 0.14667965
v -1.0467771 -0.11719284 0.14623109
v -1.0465575 0.098750755 0.21004546
v -1.0467837 -0.20001715 0.12176416
v -1.1229777 -0.10728783 0.14048739
v -1.1229777 -0.17328468 0.12099204
v -1.1229776 0.17482315 0.22382262
v -0.9170472 0.16933356 0.2456304
v -0.91704714 0.17482315 0.247252
v -0.92418575 0.098701045 0.22395353
v -0.916979 0.09869514 0.22477174
v 0.57609206 -0.117889896 -0.06542409
v 0.7054607 -0.6426667 -0.0655429
v 0.64612114 -0.6600501 -0.06546065
v 0.7820224 -0.11727647 0.150476
v 0.78202254 -0.6167294 -0.049209278
v 0.7820224 -0.5741124 0.15047598
v 0.7820224 0.17482315 -0.14162405
v 0.7820224 -0.6364527 -0.14162405
v 0.7820224 0.17482315 0.4405611
v 0.7820224 -0.07828185 0.36579427
v 0.7820224 -0.11727647 0.35427532
v 0.70572114 -0.11768187 0.15047605
v 0.7498526 -0.583546 0.15047602
v 0.7057321 -0.5964841 0.15047605
v 0.7820224 -0.11727647 0.150476
v 0.7661043 -0.5787803 0.150476
v 0.7820224 -0.5741124 0.15047598
v 0.7820224 -0.11727647 0.150476
v 0.770327 -0.11733867 0.35292637
v 0.7820224 -0.11727647 0.35427532
v 0.70572114 -0.11768187 0.15047605
v 0.70572114 -0.11768187 0.3454745
v -1.1229776 0.17482315 -0.14162394
v -1.0756307 0.17482315 0.22920945
v -1.1229776 0.17482315 0.22382262
v -0.9170472 0.17482315 0.1504761
v -0.91704714 0.17482315 0.247252
v 0.57609206 0.17482315 0.1504761
v 0.7820224 0.17482315 -0.14162405
v 0.7087551 0.17482315 0.43222517
v 0.57609206 0.17482315 0.41713166
v 0.7820224 0.17482315 0.4405611
v 0.57609206 0.09862315 0.1504761
v 0.57609206 0.112952694 0.3988552
v 0.576092 0.09862315 0.39462227
v 0.57609206 0.17482315 0.41713166
v 0.57609206 0.17482315 0.1504761
v 0.57609206 0.17482315 0.1504761
v -0.916975 0.098699495 0.15047605
v -0.9170472 0.17482315 0.1504761
v 0.57609206 0.09862315 0.1504761
v -0.9170472 0.17482315 0.1504761
v -0.9170472 0.16933356 0.2456304
v -0.91704714 0.17482315 0.247252
v -0.916975 0.098699495 0.15047605
v -0.916979 0.09869514 0.22477174
v 0.6465976 -0.6761653 -0.14162408
v 0.57609206 -0.031107016 -0.1416241
v 0.57609206 -0.69684076 -0.1416241
v 0.7820224 0.17482315 -0.14162405
v 0.7820224 -0.6364527 -0.14162405
v -0.9170472 -0.031107016 -0.141624
v -1.1229776 0.17482315 -0.14162394
v -1.0537268 -0.2603374 -0.14162396
v -0.9170472 -0.30862117 -0.141624
v -1.1229776 -0.23587368 -0.14162394
v -0.9170472 -0.031107016 -0.141624
v 0.57609206 -0.031107016 -0.06542409
v 0.57609206 -0.031107016 -0.1416241
v -0.91701764 -0.031057697 -0.06554704
v 0.57609206 -0.031107016 -0.1416241
v 0.576092 -0.68703777 -0.095691405
v 0.57609206 -0.69684076 -0.1416241
v 0.57609206 -0.117889896 -0.06542409
v 0.57609206 -0.031107016 -0.06542409
v 0.57609206 -0.6805781 -0.06542409
v -0.91701764 -0.031057697 -0.06554704
v -0.91702473 -0.294894 -0.08399283
v -0.9170246 -0.29049098 -0.06551771
v -0.9170472 -0.30862117 -0.141624
v -0.9170472 -0.031107016 -0.141624
v -1.0467469 -0.11749079 -0.06552046
v -1.0294927 -0.25075775 -0.06550763
v -1.0467622 -0.24465822 -0.06551278
v -0.9170246 -0.29049098 -0.06551771
v -0.91701764 -0.031057697 -0.06554704
v -1.0467448 -0.031008862 -0.06581164
v 0.57609206 0.09867518 -0.06559935
v -0.91701764 -0.031057697 -0.06554704
v -0.91698813 0.098677985 -0.06567008
v 0.57609206 -0.031107016 -0.06542409
v 0.70551383 -0.031082598 -0.06548251
v 0.7056198 0.09867518 -0.06559935
v 0.57609206 0.09862315 0.1504761
v -0.91698813 0.098677985 -0.06567008
v -0.916975 0.098699495 0.15047605
v 0.57609206 0.09867518 -0.06559935
v 0.7056198 0.09867518 -0.06559935
v 0.7056198 0.09862315 0.1504761
v 0.7056198 0.09862315 0.1504761
v 0.68051183 0.09862315 0.40650246
v 0.7056197 0.09862315 0.40935907
v 0.576092 0.09862315 0.39462227
v 0.57609206 0.09862315 0.1504761
v 0.7056198 0.09862315 0.1504761
v 0.70551383 -0.031082598 -0.06548251
v 0.7056198 0.09867518 -0.06559935
v 0.70572114 -0.11768187 0.15047605
v 0.7054995 -0.11798863 -0.06559935
v 0.70561206 -0.6216134 0.032896016
v 0.7057321 -0.5964841 0.15047605
v -1.0465559 0.09875182 0.150476
v -1.0467771 -0.1139162 0.14719898
v -1.046763 -0.10282822 0.150476
v -1.0467448 0.09868322 -0.06581164
v -1.0467771 -0.11567433 0.14667965
v -1.0467448 -0.031008862 -0.06581164
v -1.0467469 -0.11749079 -0.06552046
v -1.0467771 -0.11719284 0.14623109
v -1.0467622 -0.24465822 -0.06551278
v -1.0467837 -0.20001715 0.12176416
v -1.0465559 0.09875182 0.150476
v -0.91698813 0.098677985 -0.06567008
v -1.0467448 0.09868322 -0.06581164
v -0.916975 0.098699495 0.15047605
v -0.91698813 0.098677985 -0.06567008
v -1.0467448 -0.031008862 -0.06581164
v -1.0467448 0.09868322 -0.06581164
v -0.91701764 -0.031057697 -0.06554704
v -0.916975 0.098699495 0.15047605
v -0.92418575 0.098701045 0.22395353
v -0.916979 0.09869514 0.22477174
v -1.0465575 0.098750755 0.21004546
v -1.0465559 0.09875182 0.150476
v -1.1229776 0.17482315 0.22382262
v -1.1229777 -0.10728783 0.14048739
v -1.1229776 0.17482315 -0.14162394
v -1.1229776 -0.23587368 -0.14162394
v -1.1229777 -0.17328468 0.12099204
v 0.7087551 0.17482315 0.43222517
v 0.57609206 0.112952694 0.3988552
v 0.57609206 0.17482315 0.41713166
v 0.68051183 0.09862315 0.40650246
v 0.576092 0.09862315 0.39462227
v 0.7056197 0.09862315 0.40935907
v 0.770327 -0.11733867 0.35292637
v 0.70570534 -0.08412422 0.35538563
v 0.70572114 -0.11768187 0.3454745
v 0.7820224 -0.07828185 0.36579427
v 0.7820224 0.17482315 0.4405611
v 0.7820224 -0.11727647 0.35427532
v -0.91702473 -0.294894 -0.08399283
v -1.0294927 -0.25075775 -0.06550763
v -0.9170246 -0.29049098 -0.06551771
v -1.0537268 -0.2603374 -0.14162396
v -0.9170472 -0.30862117 -0.141624
v -1.0467622 -0.24465822 -0.06551278
v -1.1229777 -0.17328468 0.12099204
v -1.0467837 -0.20001715 0.12176416
v -1.1229776 -0.23587368 -0.14162394
v 0.7498526 -0.583546 0.15047602
v 0.70561206 -0.6216134 0.032896016
v 0.7057321 -0.5964841 0.15047605
v 0.7054607 -0.6426667 -0.0655429
v 0.78202254 -0.6167294 -0.049209278
v 0.7661043 -0.5787803 0.150476
v 0.7820224 -0.5741124 0.15047598
v 0.576092 -0.68703777 -0.095691405
v 0.57609206 -0.6805781 -0.06542409
v 0.64612114 -0.6600501 -0.06546065
v 0.6465976 -0.6761653 -0.14162408
v 0.57609206 -0.69684076 -0.1416241
v 0.7820224 -0.6364527 -0.14162405
vt 1.791357 0.40988058
vt 1.7913572 0.4523085
vt 1.791357 0.45025635
vt 1.8174784 0.617212
vt 1.8174784 0.5049499
vt 1.8174784 0.500709
vt 1.8174783 0.5085591
vt 1.8174784 0.617212
vt 1.8174784 0.6351801
vt 1.8174784 0.6351801
vt 1.005 0.8862804
vt 1.005 0.8862805
vt 1.0050001 0.8862804
vt 1.712993 0.40988058
vt 1.7129929 0.42164627
vt 1.712993 0.42221484
vt 1.7913569 0.4634841
vt 1.791357 0.40988058
vt 1.791357 0.40988058
vt 1.791357 0.40988058
vt 1.7913569 0.4634841
vt 1.7913572 0.4523085
vt 1.712993 0.40988058
vt 1.7129929 0.42164627
vt 1.712993 0.40988058
vt 0.08532425 0.9939518
vt 0.09083962 1.1608438
vt 0.08562706 1.0030508
vt 0.07005051 1.2308961
vt 0.09083962 1.1608438
vt 0.08527801 0.9925091
vt 0.08523819 0.991263
vt 0.091090165 1.1684699
vt 0.08305523 0.923296
vt 0.025111008 0.9993912
vt 0.023375707 0.9452331
vt 0.032528915 1.2308961
vt 0.1955806 1.2263913
vt 0.19572495 1.2308961
vt 0.18806618 1.168429
vt 0.19377723 1.1684242
vt 1.8174784 0.617212
vt 1.8174783 0.5085591
vt 1.8174784 0.5049499
vt 0.52303565 0.47036183
vt 0.41962057 0.42901567
vt 0.42844462 0.4703618
vt 0.58351696 0.40988055
vt 0.4155367 0.40988058
vt 0.58351696 0.53042597
vt 0.53110975 0.514945
vt 0.52303565 0.5125599
vt 0.005 0.8426319
vt 0.10148803 0.85175526
vt 0.10411783 0.8426318
vt 0.005 0.85840964
vt 0.10051934 0.8551159
vt 0.09959101 0.85840964
vt 0.76523554 0.40988058
vt 0.76281714 0.45179933
vt 0.76523554 0.45207864
vt 0.74945784 0.40988058
vt 0.74945784 0.45025635
vt 1.9871731 0.005
vt 1.9773695 0.0817836
vt 1.9871731 0.080668256
vt 1.9445338 0.0654813
vt 1.9445338 0.08551942
vt 1.6353691 0.0654813
vt 1.5927298 0.005
vt 1.6079004 0.12381942
vt 1.6353691 0.12069417
vt 1.5927298 0.12554547
vt 1.791357 0.40988058
vt 1.7883899 0.4613092
vt 1.791357 0.46043274
vt 1.7755792 0.46509346
vt 1.7755792 0.40988058
vt 1.005 0.8705026
vt 1.3141646 0.8862804
vt 1.3141646 0.8705026
vt 1.005 0.8862804
vt 1.7391143 0.40988058
vt 1.7379776 0.42958292
vt 1.7391143 0.4299187
vt 1.7233366 0.40988058
vt 1.7233366 0.425264
vt 1.4073138 0.37140274
vt 1.5408776 0.35680407
vt 1.4030328 0.35680404
vt 1.583517 0.3994434
vt 1.4155366 0.39944342
vt 1.5408776 0.04763943
vt 1.5835168 0.005000055
vt 1.4934138 0.019338917
vt 1.4834164 0.04763944
vt 1.4984791 0.005000068
vt 1.671094 0.7190452
vt 1.6868718 0.40988055
vt 1.671094 0.40988055
vt 1.6868718 0.7190452
vt 1.8017006 0.6351801
vt 1.8112113 0.49937156
vt 1.8017006 0.4973354
vt 1.8174784 0.617212
vt 1.8174784 0.6351801
vt 1.8174784 0.500709
vt 1.8435996 0.40988058
vt 1.839774 0.46450722
vt 1.8435996 0.46359304
vt 1.8278219 0.4673418
vt 1.8278219 0.40988058
vt 1.8435996 0.42983592
vt 1.8435996 0.45715308
vt 1.8435996 0.45589814
vt 1.8435996 0.46359304
vt 1.8435996 0.40988058
vt 1.8435996 0.40988058
vt 1.6868718 0.40988055
vt 1.6868718 0.7190452
vt 1.6868718 0.7190452
vt 1.6868718 0.40988055
vt 1.6868718 0.40988055
vt 1.6868718 0.40988055
vt 1.005 0.8862804
vt 1.3141646 0.8862804
vt 1.3141646 0.8862804
vt 1.005 0.8862804
vt 1.005 0.8862804
vt 1.005 0.8862804
vt 1.791357 0.40988058
vt 1.791357 0.46289262
vt 1.7913569 0.4634841
vt 1.791357 0.46043274
vt 1.791357 0.40988058
vt 1.005 0.8862804
vt 1.005 0.8862804
vt 1.005 0.8862804
vt 1.005 0.8862804
vt 1.005 0.8862804
vt 1.005 0.8862805
vt 1.005 0.8862804
vt 1.4625545 0.8426319
vt 1.4625545 0.8426319
vt 1.4625545 0.8426319
vt 1.4625545 0.8426319
vt 1.4625545 0.8426319
vt 1.4625545 0.8426319
vt 1.4625545 0.8426319
vt 1.4625545 0.8426319
vt 1.4358475 0.8426319
vt 1.4451675 0.8426319
vt 1.4625545 0.8426319
vt 1.4625545 0.8426319
vt 1.4625545 0.8426319
vt 1.4625545 0.8426319
vt 1.4625545 0.8426319
vt 1.4625545 0.8426319
vt 1.4625545 0.8426319
vt 1.4625545 0.8426319
vt 1.7233366 0.40988058
vt 1.7233366 0.4250946
vt 1.7233366 0.425264
vt 1.7233366 0.42221484
vt 1.7233366 0.40988058
vt 1.005 0.4855488
vt 1.0634131 0.4682936
vt 1.005 0.40988055
vt 1.0900376 0.40988052
vt 1.0770782 0.46425694
vt 0.107136615 0.24003449
vt 0.0003768158 0.18926254
vt 0.0020035552 0.24003449
vt 0.082750775 0.17750351
vt 0 0.17750351
vt 0.10264832 0.17750351
vt 0.14824921 0.00028167723
vt 0.097911075 0.027537994
vt 0.09704124 0
vt 0.15854447 0.032332383
vt 0.16519958 0.24003449
vt 0.15751915 0.0003327179
vt 0.17920741 0.1714756
vt 0.15699174 0.07783523
vt 0.16425267 0.17147568
vt 0.2170417 0.05765808
vt 0.22585581 0.1714569
vt 0.15588222 0.06345673
vt 0 0
vt 0.004288559 0.06343887
vt 0.2125759 2.2888183E-07
vt 0.0015503311 0.14233467
vt 0.09835018 0.10609528
vt 0.0036766434 0.10619369
vt 0.17761402 0.10597137
vt 0.16077347 0.16868638
vt 0.00076713564 0.15564713
vt 0 0.1686863
vt 0.2081224 0
vt 0.18375316 0
vt 0.1804076 0.05736389
vt 0.24170645 0.057754137
vt 0.2451044 7.6293944E-08
vt 0.23517978 0.1686863
vn -0.9999999 -0.00047064121 0
vn -0.9999999 -0.00047064121 0
vn -0.9999999 -0.00047064121 0
vn 0.0005220552 0 0.9999999
vn 0.00052205514 0 0.9999999
vn 0.00052205514 0 0.9999999
vn 0.0013543756 0.00010749434 0.99999917
vn 0.0013542937 0 0.99999917
vn 0.0013542937 0 0.99999917
vn 0.00045160353 -0.0013445278 0.99999905
vn -0.9999989 7.403242E-05 0.0015216399
vn -0.9999989 7.403242E-05 0.0015216399
vn -0.9999989 7.403242E-05 0.0015216399
vn 0.99999964 -0.0008527166 2.7636248E-05
vn 0.99999964 -0.0008527165 2.763625E-05
vn 0.99999964 -0.00085271674 2.7636252E-05
vn -0.9999999 -0.00046855313 -3.742745E-07
vn -0.9999999 -0.00046855313 -3.742745E-07
vn -0.9999999 -0.00046855313 -3.742745E-07
vn -0.9999999 -0.00046860124 -3.340768E-07
vn -0.9999999 -0.00046860124 -3.3407676E-07
vn -0.9999999 -0.00046860124 -3.340768E-07
vn 0.9999995 -0.0010271897 -9.0044017E-07
vn 0.9999995 -0.0010271897 -9.004402E-07
vn 0.9999995 -0.0010271897 -9.004402E-07
vn -0.11988738 -0.2812424 0.9521185
vn -0.11988738 -0.2812424 0.9521185
vn -0.11988738 -0.28124237 0.9521185
vn -0.10846863 -0.28162286 0.9533746
vn -0.108464725 -0.28162447 0.9533745
vn -0.108334094 -0.28161705 0.9533917
vn -0.10854497 -0.28163007 0.9533638
vn -0.10846932 -0.28162464 0.95337397
vn -0.10846839 -0.28162494 0.9533741
vn -0.10846839 -0.28162494 0.9533741
vn -0.10846839 -0.28162497 0.95337397
vn -0.10846843 -0.2816254 0.95337385
vn -0.108469725 -0.28162464 0.95337397
vn -0.10846866 -0.2816229 0.9533746
vn -0.108469725 -0.28162462 0.95337397
vn -0.108469725 -0.28162462 0.95337397
vn 0.001354494 0.00010752351 0.99999917
vn 0.0013544939 0.00010752351 0.99999917
vn 0.001354494 0.00010752351 0.99999917
vn 1 0 4.8523015E-07
vn 1 0 4.852302E-07
vn 1 0 4.8523015E-07
vn 1 0 0
vn 1 0 -1.0484614E-06
vn 1 0 0
vn 1 0 0
vn 1 0 0
vn 5.490233E-07 0 1
vn 5.490233E-07 0 1
vn 5.490233E-07 0 1
vn 6.3489586E-07 0 1
vn 1.5057383E-06 0 1
vn 1.5372946E-06 0 1
vn 0.0053187213 -0.99998593 0
vn 0.0053187218 -0.99998593 0
vn 0.0053187213 -0.99998593 0
vn 0.0053120777 -0.99998593 0
vn 0.0053120777 -0.99998593 0
vn -0 1 0
vn -0 1 0
vn -0 1 0
vn -0 1 0
vn -0 1 0
vn -0 1 0
vn -0 1 0
vn -0 1 0
vn -0 1 0
vn -0 1 0
vn -1 3.4395082E-06 0
vn -1 3.4395082E-06 0
vn -1 3.4395084E-06 0
vn -1 0 0
vn -1 0 0
vn -0 -6.364206E-07 1
vn -0 -6.3642057E-07 1
vn -0 -6.3642057E-07 1
vn -0 0 1
vn 1 -8.677313E-06 -5.006065E-07
vn 1 -8.677314E-06 -5.006066E-07
vn 1 -8.677313E-06 -5.006065E-07
vn 0.9999995 0.00094897806 5.4178217E-05
vn 0.9999995 0.00094897806 5.4178217E-05
vn -0 0 -1
vn -0 0 -1
vn -0 0 -1
vn -0 0 -1
vn -0 0 -1
vn -0 0 -1
vn -0 0 -1
vn -0 0 -1
vn -0 0 -1
vn -0 0 -1
vn -0 -1 0
vn -0 -1 0
vn -0 -1 0
vn -3.3084227E-05 -0.99999976 0.0006482863
vn -1 0 -1.0547316E-06
vn -1 0 -1.0547316E-06
vn -1 0 -1.0547316E-06
vn -1 0 0
vn -1 0 0
vn -1 0 1.6006263E-06
vn 1 -2.689077E-05 -1.458134E-06
vn 1 -2.689077E-05 -1.458134E-06
vn 1 -2.689077E-05 -1.458134E-06
vn 1 0 -0.0003884548
vn 1 0 -0.00038845482
vn -0.00027671072 6.0464496E-05 1
vn -0.00027671072 6.0464496E-05 1
vn -0.00027671072 6.04645E-05 1
vn 0.0001295487 0.000113067785 1
vn -0.002038409 0.0033669972 0.99999225
vn -0.0020384092 0.0033669975 0.99999225
vn -8.229723E-05 0.0013503826 0.99999917
vn -8.229723E-05 0.0013503826 0.99999917
vn -4.7371483E-05 0.0009484186 0.9999995
vn -8.229723E-05 0.0013503827 0.99999917
vn 0.00045109517 0.0013503825 0.99999905
vn -0 0.00090045604 0.99999964
vn -5.1137646E-05 -1 9.9520556E-05
vn -5.1137646E-05 -1 9.9520556E-05
vn -5.1137646E-05 -1 9.952057E-05
vn -1.870545E-06 -1 -0.00024080343
vn -0 -1 -0.00024080343
vn -0 -1 -0.00024080346
vn -0 -1 0
vn -0 -1 0
vn -0 -1 0
vn -0 -1 0
vn -0 -1 0
vn -0.99999964 0.00081691635 0
vn -0.9999995 0.00016362904 0.0010257603
vn -0.99999964 0.0008169165 0
vn -0.9999995 0.00016362905 0.0010257603
vn -0.9999995 0.00016362905 0.0010257604
vn -0.9999995 -2.2896495E-05 0.0010260255
vn -0.9999995 -2.2867347E-05 0.0010259002
vn 0.99999917 -0.0010271526 -0.0008732415
vn 0.99999917 -0.0010271526 -0.0008732413
vn 0.99999917 -0.0010271892 -0.0008708637
vn 0.99999917 -0.0010271526 -0.0008732413
vn 1 -2.3046276E-05 0.00014311713
vn 1 -2.3046276E-05 0.00014311713
vn 1 -2.3046276E-05 0.00014311713
vn 1 2.1644355E-05 0.00014273459
vn 1 -0.00012113902 0.00014293547
vn 1 -0.000121912635 0.00014340116
vn -4.066952E-05 -1 0.0003172079
vn -4.0669525E-05 -1 0.0003172079
vn -4.066953E-05 -1 0.00031720792
vn -0.00040378192 -1 9.954191E-05
vn -0.0010909726 0 0.9999994
vn -0.0010909726 0 0.9999994
vn -0.0010909726 0 0.9999994
vn -0.0020393303 0.0009488705 0.9999975
vn -0.00081347226 -0.99999964 -5.8731115E-05
vn -0.00081347226 -0.99999964 -5.8731115E-05
vn -0.00081347226 -0.99999964 -5.8731108E-05
vn -0.00040378177 -1 -1.7903323E-05
vn -0.00040378177 -1 -1.7903323E-05
vn -1 6.8691634E-07 0
vn -1 6.869163E-07 0
vn -1 6.869163E-07 0
vn -1 0 -6.8691537E-07
vn -1 0 -7.937933E-07
vn -0.10846847 -0.28162545 0.95337385
vn -0.10846847 -0.28162545 0.95337385
vn -0.10846847 -0.28162545 0.95337385
vn -0.10846846 -0.281625 0.95337397
vn -0.10846846 -0.281625 0.95337397
vn -0.10846863 -0.28162527 0.95337385
vn -0.1084695 -0.28162622 0.95337355
vn -0.1084695 -0.28162622 0.95337355
vn -0.1084695 -0.28162622 0.95337355
vn -0.10846428 -0.28162572 0.9533742
vn -0.10846927 -0.28162506 0.95337385
vn -0.10846428 -0.28162575 0.9533742
vn -0.32498556 -0.9199537 0.21924758
vn -0.32498553 -0.9199537 0.21924758
vn -0.32498556 -0.9199537 0.21924758
vn -0.32498538 -0.919953 0.21925125
vn -0.32498488 -0.9199534 0.21925013
vn -0.32498473 -0.9199531 0.21925141
vn -0.32498473 -0.9199531 0.21925141
vn -0.32498476 -0.9199531 0.21925142
vn -0.32498533 -0.919953 0.21925126
vn 0.27567407 -0.94008 0.20063263
vn 0.27567407 -0.94008 0.20063263
vn 0.2756741 -0.94008 0.20063263
vn 0.27567354 -0.94008005 0.20063286
vn 0.27567375 -0.94008005 0.2006326
vn 0.27567455 -0.94007975 0.20063303
vn 0.27567008 -0.9400811 0.20063291
vn 0.27567446 -0.94008017 0.20063101
vn 0.27552816 -0.93957275 0.2031929
vn 0.27552816 -0.93957275 0.20319292
vn 0.27567402 -0.94008 0.20063286
vn 0.27567402 -0.94008 0.20063287
vn 0.27567375 -0.94008005 0.20063262
g Device_Prop_Box_009_v_001_0
f 3/3/3 2/2/2 1/1/1
f 6/6/6 5/5/5 4/4/4
f 8/8/8 4/4/4 7/7/7
f 4/4/4 8/8/8 9/9/9
f 10/10/10 9/9/9 8/8/8
f 13/13/13 12/12/12 11/11/11
f 16/16/16 15/15/15 14/14/14
f 19/19/19 18/18/18 17/17/17
f 22/22/22 21/21/21 20/20/20
f 25/25/25 24/24/24 23/23/23
f 28/28/28 27/27/27 26/26/26
f 30/30/30 29/29/29 26/26/26
f 26/26/26 29/29/29 31/31/31
f 31/31/31 29/29/29 32/32/32
f 33/33/33 29/29/29 30/30/30
f 32/32/32 29/29/29 34/34/34
f 34/34/34 29/29/29 35/35/35
f 36/36/36 34/34/34 35/35/35
f 35/35/35 29/29/29 37/37/37
f 38/38/38 29/29/29 33/33/33
f 39/39/39 29/29/29 38/38/38
f 40/40/40 38/38/38 33/33/33
f 41/41/41 38/38/38 40/40/40
f 44/44/44 43/43/43 42/42/42
f 47/47/47 46/46/46 45/45/45
f 48/48/48 45/45/45 46/46/46
f 48/48/48 46/46/46 49/49/49
f 48/48/48 50/50/50 45/45/45
f 51/51/51 45/45/45 50/50/50
f 45/45/45 51/51/51 52/52/52
f 55/55/55 54/54/54 53/53/53
f 56/56/56 53/53/53 54/54/54
f 54/54/54 57/57/57 56/56/56
f 57/57/57 58/58/58 56/56/56
f 61/61/61 60/60/60 59/59/59
f 59/59/59 60/60/60 62/62/62
f 63/63/63 62/62/62 60/60/60
f 66/66/66 65/65/65 64/64/64
f 64/64/64 65/65/65 67/67/67
f 68/68/68 67/67/67 65/65/65
f 67/67/67 69/69/69 64/64/64
f 70/70/70 64/64/64 69/69/69
f 70/70/70 69/69/69 71/71/71
f 72/72/72 71/71/71 69/69/69
f 70/70/70 71/71/71 73/73/73
f 76/76/76 75/75/75 74/74/74
f 75/75/75 77/77/77 74/74/74
f 78/78/78 74/74/74 77/77/77
f 81/81/81 80/80/80 79/79/79
f 82/82/82 79/79/79 80/80/80
f 85/85/85 84/84/84 83/83/83
f 83/83/83 84/84/84 86/86/86
f 87/87/87 86/86/86 84/84/84
f 90/90/90 89/89/89 88/88/88
f 91/91/91 88/88/88 89/89/89
f 91/91/91 92/92/92 88/88/88
f 89/89/89 93/93/93 91/91/91
f 94/94/94 91/91/91 93/93/93
f 94/94/94 93/93/93 95/95/95
f 96/96/96 95/95/95 93/93/93
f 94/94/94 95/95/95 97/97/97
f 100/100/100 99/99/99 98/98/98
f 101/101/101 98/98/98 99/99/99
f 104/104/104 103/103/103 102/102/102
f 102/102/102 103/103/103 105/105/105
f 106/106/106 102/102/102 105/105/105
f 107/107/107 105/105/105 103/103/103
f 110/110/110 109/109/109 108/108/108
f 109/109/109 111/111/111 108/108/108
f 112/112/112 108/108/108 111/111/111
f 115/115/115 114/114/114 113/113/113
f 114/114/114 116/116/116 113/113/113
f 117/117/117 113/113/113 116/116/116
f 118/118/118 113/113/113 117/117/117
f 121/121/121 120/120/120 119/119/119
f 122/122/122 119/119/119 120/120/120
f 122/122/122 123/123/123 119/119/119
f 124/124/124 119/119/119 123/123/123
f 127/127/127 126/126/126 125/125/125
f 128/128/128 125/125/125 126/126/126
f 128/128/128 129/129/129 125/125/125
f 130/130/130 125/125/125 129/129/129
f 133/133/133 132/132/132 131/131/131
f 132/132/132 134/134/134 131/131/131
f 135/135/135 131/131/131 134/134/134
f 138/138/138 137/137/137 136/136/136
f 139/139/139 136/136/136 137/137/137
f 140/140/140 139/139/139 137/137/137
f 140/140/140 141/141/141 139/139/139
f 142/142/142 139/139/139 141/141/141
f 145/145/145 144/144/144 143/143/143
f 146/146/146 143/143/143 144/144/144
f 144/144/144 147/147/147 146/146/146
f 148/148/148 146/146/146 147/147/147
f 148/148/148 147/147/147 149/149/149
f 150/150/150 149/149/149 147/147/147
f 149/149/149 150/150/150 151/151/151
f 152/152/152 151/151/151 150/150/150
f 155/155/155 154/154/154 153/153/153
f 156/156/156 153/153/153 154/154/154
f 159/159/159 158/158/158 157/157/157
f 160/160/160 157/157/157 158/158/158
f 163/163/163 162/162/162 161/161/161
f 162/162/162 164/164/164 161/161/161
f 165/165/165 161/161/161 164/164/164
f 168/168/168 167/167/167 166/166/166
f 168/168/168 169/169/169 167/167/167
f 170/170/170 167/167/167 169/169/169
f 173/173/173 172/172/172 171/171/171
f 172/172/172 174/174/174 171/171/171
f 175/175/175 174/174/174 172/172/172
f 174/174/174 176/176/176 171/171/171
f 176/176/176 177/177/177 171/171/171
f 178/178/178 177/177/177 176/176/176
f 179/179/179 177/177/177 178/178/178
f 177/177/177 180/180/180 171/171/171
f 171/171/171 180/180/180 181/181/181
f 182/182/182 180/180/180 177/177/177
f 185/185/185 184/184/184 183/183/183
f 184/184/184 186/186/186 183/183/183
f 183/183/183 186/186/186 187/187/187
f 188/188/188 186/186/186 184/184/184
f 189/189/189 186/186/186 188/188/188
f 190/190/190 189/189/189 188/188/188
f 191/191/191 186/186/186 189/189/189
f 194/194/194 193/193/193 192/192/192
f 193/193/193 195/195/195 192/192/192
f 195/195/195 196/196/196 192/192/192
f 192/192/192 196/196/196 197/197/197
f 197/197/197 196/196/196 198/198/198
f 199/199/199 196/196/196 195/195/195
f 200/200/200 199/199/199 195/195/195
f 201/201/201 200/200/200 195/195/195
f 202/202/202 196/196/196 199/199/199
f 203/203/203 202/202/202 199/199/199
f 204/204/204 196/196/196 202/202/202
