g Device_Prop_Box_006_v_016
v -0.24271841 0.008611684 -0.12312252
v -0.27575633 0.008612362 -0.45950878
v -0.24271841 0.008611684 -0.47468033
v -0.37243977 0.008614009 0.09353014
v -0.24283615 0.008612459 0.093051106
v -0.37243965 0.008614009 -0.12312252
v -0.37243965 0.008614009 -0.41510993
v -0.2427219 0.13835648 0.09272205
v 0.5571615 0.06885161 0.092760034
v 0.55458254 0.13834862 0.092751704
v 0.5571615 0.06885161 0.092760034
v -0.24283615 0.008612459 0.093051106
v 0.55937636 0.008612071 0.09291235
v -0.24283615 0.008612459 0.093051106
v 0.5571615 0.06885161 0.092760034
v -0.2427219 0.13835648 0.09272205
v -0.24271841 0.008611684 -0.12312252
v -0.37243965 0.008614009 -0.41510993
v -0.27575633 0.008612362 -0.45950878
v -0.24271677 0.25521803 0.09272515
v -0.29635343 0.17397426 0.09305614
v -0.2427219 0.13835648 0.09272205
v -0.44629088 -0.067588314 0.16563272
v -0.44864896 -0.067588314 -0.35437554
v -0.44864896 -0.067588314 0.14793864
v -0.24271841 -0.067588314 -0.12312252
v -0.28201437 -0.067588314 -0.4308983
v -0.24271841 -0.067588314 -0.4489439
v 0.5765445 -0.067588314 -0.007271455
v 0.5931261 -0.067588314 -0.12312252
v -0.44590795 -0.067588314 0.16850619
v 0.5513184 -0.067588314 0.16897747
v -0.44584516 -0.067588314 0.16897766
v -0.2427219 0.13835648 0.09272205
v -0.24272157 0.2535827 0.10079733
v -0.24271677 0.25521803 0.09272515
v -0.24271841 0.23983584 0.16897747
v -0.24271841 0.13834184 0.16897747
v -0.24271841 0.13834184 0.16897747
v 0.5494591 0.13834184 0.1285499
v 0.54367274 0.13834195 0.16897747
v -0.2427219 0.13835648 0.09272205
v 0.55458254 0.13834862 0.092751704
v -0.24271841 -0.067588314 -0.12312252
v 0.5902969 0.008611684 -0.12312252
v -0.24271841 0.008611684 -0.12312252
v 0.59154534 -0.025013007 -0.12312252
v 0.5931261 -0.067588314 -0.12312252
v -0.24271841 -0.067588314 -0.12312252
v -0.24271841 -0.048417393 -0.4554189
v -0.24271841 -0.067588314 -0.4489439
v -0.24271841 0.008611684 -0.12312252
v -0.24271841 0.008611684 -0.47468033
v -0.24271841 0.13834184 0.16897747
v -0.44038454 -0.059323996 0.16897747
v -0.24271841 0.23983584 0.16897747
v -0.44560108 -0.06721886 0.16897747
v 0.5468388 0.05306653 0.16897747
v 0.54367274 0.13834195 0.16897747
v -0.44584516 -0.067588314 0.16897766
v 0.5513184 -0.067588314 0.16897747
v -0.37243965 0.008614009 -0.12312252
v -0.3724418 0.059130885 -0.4321709
v -0.37243965 0.008614009 -0.41510993
v -0.37244374 0.102416806 -0.12312252
v -0.37244675 0.17246592 -0.47044745
v -0.37244305 0.08662775 -0.04483583
v -0.37243977 0.008614009 0.09353014
v -0.3724419 0.0587219 0.09353014
v -0.24283615 0.008612459 0.093051106
v 0.5763297 0.008612071 -0.02553662
v 0.55937636 0.008612071 0.09291235
v 0.5902969 0.008611684 -0.12312252
v -0.24271841 0.008611684 -0.12312252
v -0.3724419 0.0587219 0.09353014
v -0.2427219 0.13835648 0.09272205
v -0.29635343 0.17397426 0.09305614
v -0.37243977 0.008614009 0.09353014
v -0.24283615 0.008612459 0.093051106
v 0.5765445 -0.067588314 -0.007271455
v 0.59154534 -0.025013007 -0.12312252
v 0.5931261 -0.067588314 -0.12312252
v 0.5763297 0.008612071 -0.02553662
v 0.5902969 0.008611684 -0.12312252
v 0.55937636 0.008612071 0.09291235
v 0.5468388 0.05306653 0.16897747
v 0.5513184 -0.067588314 0.16897747
v 0.5494591 0.13834184 0.1285499
v 0.54367274 0.13834195 0.16897747
v 0.55458254 0.13834862 0.092751704
v 0.5571615 0.06885161 0.092760034
v -0.44864887 0.033367246 -0.38847318
v -0.44864896 -0.067588314 0.14793864
v -0.44864896 -0.067588314 -0.35437554
v -0.44864896 -0.030269664 -0.037086688
v -0.44864887 0.041132275 -0.3910958
v -0.44864887 0.033367246 -0.38847318
v -0.37244675 0.17246592 -0.47044745
v -0.44864887 0.041132275 -0.3910958
v -0.3724418 0.059130885 -0.4321709
v -0.37243965 0.008614009 -0.41510993
v -0.24271841 -0.048417393 -0.4554189
v -0.27575633 0.008612362 -0.45950878
v -0.24271841 0.008611684 -0.47468033
v -0.28201437 -0.067588314 -0.4308983
v -0.44864896 -0.067588314 -0.35437554
v -0.24271841 -0.067588314 -0.4489439
v -0.44590795 -0.067588314 0.16850619
v -0.44560108 -0.06721886 0.16897747
v -0.44584516 -0.067588314 0.16897766
v -0.44629088 -0.067588314 0.16563272
v -0.24272157 0.2535827 0.10079733
v -0.44038454 -0.059323996 0.16897747
v -0.24271841 0.23983584 0.16897747
v -0.3724419 0.0587219 0.09353014
v -0.29635343 0.17397426 0.09305614
v -0.24271677 0.25521803 0.09272515
v -0.44864887 0.041132275 -0.3910958
v -0.37244305 0.08662775 -0.04483583
v -0.37244374 0.102416806 -0.12312252
v -0.37244675 0.17246592 -0.47044745
v -0.44864896 -0.030269664 -0.037086688
v -0.44864896 -0.067588314 0.14793864
vt 0.791357 0.68336135
vt 0.791357 0.6137103
vt 0.791357 0.6105689
vt 0.791357 0.68336135
vt 0.791357 0.68336135
vt 0.791357 0.68336135
vt 0.7913569 0.62290335
vt 0.6085077 0.71904546
vt 0.60850763 0.55342436
vt 0.60850775 0.5539584
vt 0.60850763 0.55342436
vt 0.6085077 0.71904546
vt 0.60850763 0.55295485
vt 0.6085077 0.71904546
vt 0.60850763 0.55342436
vt 0.6085077 0.71904546
vt 0.791357 0.68336135
vt 0.7913569 0.62290335
vt 0.791357 0.6137103
vt 1.4379834 0.81651044
vt 1.4625545 0.81651044
vt 1.4625545 0.81651044
vt 0.5932181 0.39875096
vt 0.59272987 0.2910796
vt 0.59272987 0.39508727
vt 0.6353691 0.33896202
vt 0.6272327 0.27523494
vt 0.6353691 0.27149847
vt 0.80500317 0.36294988
vt 0.8084364 0.33896202
vt 0.5932974 0.39934593
vt 0.7997799 0.3994435
vt 0.5933104 0.39944354
vt 0.8697212 0.40988058
vt 0.86805034 0.4337393
vt 0.8697212 0.43407807
vt 0.85394317 0.4308956
vt 0.85394317 0.40988058
vt 0.59272987 0.71904546
vt 0.6011007 0.5550196
vt 0.5927298 0.5562177
vt 0.6085077 0.71904546
vt 0.60850775 0.5539584
vt 0.6188512 0.4098806
vt 0.63462895 0.5823622
vt 0.63462895 0.4098806
vt 0.6276667 0.58262074
vt 0.6188512 0.58294797
vt 0.7755792 0.68336135
vt 0.77954865 0.6145571
vt 0.7755792 0.6158978
vt 0.791357 0.68336135
vt 0.791357 0.6105689
vt 0.047639377 0.35680413
vt 0.006711199 0.39773226
vt 0.06865439 0.35680413
vt 0.0050764917 0.39881238
vt 0.029982474 0.19332094
vt 0.04763937 0.19397652
vt 0.005000003 0.39886293
vt 0.004999995 0.19239336
vt 1.7494578 0.68336135
vt 1.7494578 0.61937076
vt 1.7494578 0.62290335
vt 1.7494578 0.6833614
vt 1.7494578 0.61144537
vt 1.7494578 0.68336135
vt 1.7494578 0.68336135
vt 1.7494578 0.68336135
vt 0.63462895 0.4098806
vt 0.63462895 0.5794812
vt 0.63462895 0.5759711
vt 0.63462895 0.5823622
vt 0.63462895 0.4098806
vt 1.7494578 0.68336135
vt 1.7494578 0.68336135
vt 1.7494578 0.68336135
vt 1.7494578 0.68336135
vt 1.7494578 0.68336135
vt 0.00048446655 0.092149734
vt 0.03354698 0
vt 0 0
vt 0.060449753 0.07762123
vt 0.060041428 0
vt 0.060945053 0.17183739
vt 0.09629074 0.23234062
vt 0.0012213897 0.23234062
vt 0.16331382 0.20018394
vt 0.16348296 0.23234062
vt 0.16316947 0.17170952
vt 0.10840981 0.17171608
vt 1.5626134 0.6888999
vt 1.583517 0.7999676
vt 1.5835168 0.69596
vt 1.5757899 0.7616569
vt 1.5610056 0.6883569
vt 0.17568283 0.08315277
vt 0.09421895 0.19772224
vt 0.17482103 0.08954845
vt 0.106793135 0.10437309
vt 0.11239792 0.062764585
vt 0.0063293455 0.015790252
vt 0.02862587 0.062763214
vt 0 0.0627626
vt 0.04250534 7.6293944E-08
vt 0.18688735 0
vt 0.008457031 0
vt 0.3002672 0.50621355
vt 0.2998912 0.5065871
vt 0.30023986 0.5065872
vt 0.30043334 0.50393707
vt 0.0010765076 0.45257095
vt 0.29244033 0.5065871
vt 0.010106049 0.5065871
vt 0.1853981 0.4468135
vt 0.076655276 0.44643798
vt 0 0.4461757
vt 0.23003297 0.06286675
vt 0.16706589 0.33719254
vt 0.15669358 0.2751696
vt 0.11067612 0
vt 0.27694046 0.34333175
vt 0.3014569 0.48991883
vn 2.0529544E-05 1 0
vn 2.0529546E-05 1 0
vn 2.0529547E-05 1 0
vn 1.7926437E-05 1 0
vn 1.1948575E-05 1 -3.579252E-06
vn 1.7926435E-05 1 0
vn 1.7926433E-05 1 0
vn 3.7185826E-05 -0.00011852194 -1
vn 3.7185826E-05 -0.00011852194 -1
vn 3.718583E-05 -0.00011852195 -1
vn -0.00017296134 -0.0025348612 -0.9999968
vn -0.00017296134 -0.0025348612 -0.9999968
vn -0.00017296134 -0.0025348612 -0.9999968
vn -0.00017287672 -0.0025359849 -0.9999968
vn -0.00017287672 -0.0025359849 -0.9999968
vn -0.00017287671 -0.0025359849 -0.9999968
vn 1.7187647E-05 1 3.2822206E-07
vn 1.7187647E-05 1 3.2822206E-07
vn 1.7187647E-05 1 3.2822206E-07
vn -0.0062114038 2.6804568E-05 -0.9999807
vn -0.0062114038 2.6804571E-05 -0.9999807
vn -0.0062114038 2.6804571E-05 -0.9999807
vn -0 -1 0
vn -0 -1 0
vn -0 -1 0
vn -0 -1 0
vn -0 -1 0
vn -0 -1 0
vn -0 -1 0
vn -0 -1 0
vn -0 -1 0
vn -0 -1 0
vn -0 -1 0
vn 0.9999999 -4.395936E-05 0.00058526045
vn 0.9999999 -4.395936E-05 0.00058526045
vn 0.9999999 -4.395936E-05 0.00058526045
vn 1 2.8964305E-07 -4.612855E-05
vn 1 0 -4.5743094E-05
vn -0 1 -2.414349E-06
vn -0 1 -2.414349E-06
vn -0 1 -2.414349E-06
vn 9.836517E-06 1 0.00019087353
vn 9.836517E-06 1 0.00019087351
vn -0 0 -1
vn -0 0 -1
vn -0 0 -1
vn -0 0 -1
vn -0 0 -1
vn 1 0 0
vn 1 0 0
vn 1 0 0
vn 1 0 0
vn 1 0 0
vn -0 0 1
vn -0 0 1
vn -0 0 1
vn -0 0 1
vn -0 0 1
vn -0 0 1
vn -6.9106216E-05 0.00057017535 0.9999999
vn -0 0 1
vn 1 4.2196843E-05 0
vn 1 4.2196843E-05 0
vn 1 4.2196843E-05 0
vn 1 4.3383767E-05 0
vn 1 4.365407E-05 0
vn 1 4.3383767E-05 0
vn 1 4.2541258E-05 0
vn 1 4.2541258E-05 0
vn 4.8314234E-07 1 0
vn 4.8314234E-07 1 0
vn 4.831424E-07 1 0
vn -0 1 -3.5857583E-06
vn -0 1 -3.5857588E-06
vn -0.006229293 0 -0.99998057
vn -0.006229293 0 -0.99998057
vn -0.006229293 0 -0.99998057
vn -0.006229212 -2.6499853E-07 -0.99998057
vn -0.003696191 -0.002532865 -0.99999
vn 0.989244 0.03672878 0.14158884
vn 0.989244 0.03672878 0.14158884
vn 0.989244 0.03672878 0.14158884
vn 0.9892441 0.03672806 0.14158757
vn 0.9892441 0.03672806 0.14158757
vn 0.9892441 0.03672675 0.14158861
vn 0.98924387 0.036728416 0.14158975
vn 0.9892441 0.03672842 0.14158808
vn 0.989244 0.036728304 0.14158857
vn 0.98924387 0.03672842 0.14158975
vn 0.9893497 0.036731303 0.1408478
vn 0.9893497 0.036731303 0.1408478
vn -1 -1.3390591E-05 -2.7008132E-06
vn -1 -1.3390591E-05 -2.7008134E-06
vn -1 9.59762E-07 0
vn -1 -1.3390591E-05 -2.7008132E-06
vn -1 0 -2.9371103E-07
vn -0.39895764 -0.29341945 -0.8687565
vn -0.3989576 -0.29341942 -0.86875653
vn -0.39895764 -0.29341942 -0.86875653
vn -0.3989538 -0.29342198 -0.8687574
vn -0.39895427 -0.2934208 -0.86875755
vn -0.39895403 -0.29342067 -0.8687577
vn -0.398954 -0.29342067 -0.8687578
vn -0.39895403 -0.29342067 -0.8687577
vn -0.39895323 -0.29342335 -0.8687572
vn -0.3989549 -0.29342136 -0.86875707
vn -0.3989532 -0.29342335 -0.8687572
vn -0.8292363 0.5478802 0.11042852
vn -0.8292363 0.5478801 0.110428505
vn -0.8292363 0.5478802 0.110428505
vn -0.8292109 0.54790246 0.110509075
vn -0.8292164 0.5478944 0.110507615
vn -0.82921636 0.5478944 0.11050762
vn -0.8292164 0.5478944 0.110507615
vn -0.8292173 0.5478955 0.110495046
vn -0.8292168 0.547894 0.11050664
vn -0.8292168 0.54789406 0.110506654
vn -0.8292162 0.54789466 0.11050755
vn -0.8292166 0.547894 0.110507816
vn -0.8292162 0.54789466 0.11050755
vn -0.8292162 0.54789466 0.11050755
vn -0.8292109 0.54790246 0.110509075
vn -0.8292109 0.54790246 0.110509075
g Device_Prop_Box_006_v_016_0
f 3/3/3 2/2/2 1/1/1
f 5/5/5 1/1/1 4/4/4
f 6/6/6 4/4/4 1/1/1
f 6/6/6 1/1/1 7/7/7
f 10/10/10 9/9/9 8/8/8
f 13/13/13 12/12/12 11/11/11
f 16/16/16 15/15/15 14/14/14
f 19/19/19 18/18/18 17/17/17
f 22/22/22 21/21/21 20/20/20
f 25/25/25 24/24/24 23/23/23
f 23/23/23 24/24/24 26/26/26
f 24/24/24 27/27/27 26/26/26
f 26/26/26 27/27/27 28/28/28
f 26/26/26 29/29/29 23/23/23
f 30/30/30 29/29/29 26/26/26
f 29/29/29 31/31/31 23/23/23
f 29/29/29 32/32/32 31/31/31
f 33/33/33 31/31/31 32/32/32
f 36/36/36 35/35/35 34/34/34
f 35/35/35 37/37/37 34/34/34
f 38/38/38 34/34/34 37/37/37
f 41/41/41 40/40/40 39/39/39
f 39/39/39 40/40/40 42/42/42
f 43/43/43 42/42/42 40/40/40
f 46/46/46 45/45/45 44/44/44
f 47/47/47 44/44/44 45/45/45
f 44/44/44 47/47/47 48/48/48
f 51/51/51 50/50/50 49/49/49
f 49/49/49 50/50/50 52/52/52
f 53/53/53 52/52/52 50/50/50
f 56/56/56 55/55/55 54/54/54
f 55/55/55 57/57/57 54/54/54
f 57/57/57 58/58/58 54/54/54
f 54/54/54 58/58/58 59/59/59
f 57/57/57 60/60/60 58/58/58
f 61/61/61 58/58/58 60/60/60
f 64/64/64 63/63/63 62/62/62
f 62/62/62 63/63/63 65/65/65
f 66/66/66 65/65/65 63/63/63
f 65/65/65 67/67/67 62/62/62
f 62/62/62 67/67/67 68/68/68
f 69/69/69 68/68/68 67/67/67
f 72/72/72 71/71/71 70/70/70
f 71/71/71 73/73/73 70/70/70
f 74/74/74 70/70/70 73/73/73
f 77/77/77 76/76/76 75/75/75
f 78/78/78 75/75/75 76/76/76
f 79/79/79 78/78/78 76/76/76
f 82/82/82 81/81/81 80/80/80
f 81/81/81 83/83/83 80/80/80
f 84/84/84 83/83/83 81/81/81
f 83/83/83 85/85/85 80/80/80
f 85/85/85 86/86/86 80/80/80
f 86/86/86 87/87/87 80/80/80
f 88/88/88 86/86/86 85/85/85
f 89/89/89 86/86/86 88/88/88
f 90/90/90 88/88/88 85/85/85
f 91/91/91 90/90/90 85/85/85
f 94/94/94 93/93/93 92/92/92
f 95/95/95 92/92/92 93/93/93
f 92/92/92 95/95/95 96/96/96
f 99/99/99 98/98/98 97/97/97
f 98/98/98 100/100/100 97/97/97
f 100/100/100 101/101/101 97/97/97
f 101/101/101 102/102/102 97/97/97
f 103/103/103 102/102/102 101/101/101
f 104/104/104 102/102/102 103/103/103
f 102/102/102 105/105/105 97/97/97
f 97/97/97 105/105/105 106/106/106
f 107/107/107 105/105/105 102/102/102
f 110/110/110 109/109/109 108/108/108
f 109/109/109 111/111/111 108/108/108
f 112/112/112 111/111/111 109/109/109
f 113/113/113 112/112/112 109/109/109
f 114/114/114 112/112/112 113/113/113
f 115/115/115 111/111/111 112/112/112
f 116/116/116 115/115/115 112/112/112
f 117/117/117 116/116/116 112/112/112
f 118/118/118 111/111/111 115/115/115
f 119/119/119 118/118/118 115/115/115
f 120/120/120 118/118/118 119/119/119
f 121/121/121 118/118/118 120/120/120
f 122/122/122 111/111/111 118/118/118
f 123/123/123 111/111/111 122/122/122
