g Device_Prop_Box_006_v_029
v 0.33640027 -0.0126855625 -0.8125619
v 0.008195745 -0.0126855625 -0.522239
v 0.2641821 -0.0126855625 -0.8125619
v -0.44449747 -0.012685756 0.5082381
v 0.33640018 -0.012685756 0.5082381
v -0.4802511 -0.012685659 0.031725194
v 0.33640018 -0.012685756 0.5082381
v -0.4420504 0.00055655517 0.5082381
v -0.44449747 -0.012685756 0.5082381
v -0.43980372 0.0127142435 0.5082381
v 0.33640018 0.0127142435 0.5082381
v 0.33640018 0.0127142435 0.5082381
v 0.33640027 -0.0126855625 -0.8125619
v 0.33640027 0.012714437 -0.8125619
v 0.33640018 -0.012685756 0.5082381
v 0.33640027 0.012714437 -0.8125619
v 0.2670296 0.011534373 -0.8125619
v 0.26716834 0.012714437 -0.8125619
v 0.33640027 -0.0126855625 -0.8125619
v 0.2641821 -0.0126855625 -0.8125619
v -0.43980372 0.0127142435 0.5082381
v -0.35677308 0.0127142435 -0.10492867
v -0.4756912 0.0127142435 0.029940518
v 0.33640018 0.0127142435 0.5082381
v 0.33640027 0.012714437 -0.8125619
v 0.26716834 0.012714437 -0.8125619
v -0.4756912 0.0127142435 0.029940518
v -0.4420504 0.00055655517 0.5082381
v -0.43980372 0.0127142435 0.5082381
v -0.44449747 -0.012685756 0.5082381
v -0.4802511 -0.012685659 0.031725194
v 0.2670296 0.011534373 -0.8125619
v -0.35677308 0.0127142435 -0.10492867
v 0.26716834 0.012714437 -0.8125619
v -0.4802511 -0.012685659 0.031725194
v -0.4756912 0.0127142435 0.029940518
v 0.008195745 -0.0126855625 -0.522239
v 0.2641821 -0.0126855625 -0.8125619
vt 1.639609 0.069198
vt 1.7055528 0.12753028
vt 1.6541193 0.069198
vt 1.796509 0.3345759
vt 1.6396091 0.3345759
vt 1.8036928 0.23883393
vt 1.6396091 0.3345759
vt 1.7960174 0.3345759
vt 1.796509 0.3345759
vt 1.7955661 0.3345759
vt 1.6396091 0.3345759
vt 1.6396091 0.3345759
vt 1.639609 0.069198
vt 1.639609 0.069198
vt 1.6396091 0.3345759
vt 1.639609 0.069198
vt 1.6535472 0.069198
vt 1.6535192 0.069198
vt 1.639609 0.069198
vt 1.6541193 0.069198
vt 1.7955661 0.3345759
vt 1.7788833 0.21137716
vt 1.8027766 0.23847535
vt 1.6396091 0.3345759
vt 1.639609 0.069198
vt 1.6535192 0.069198
vt 0.005134945 0.1704474
vt 0.009735107 0.54808336
vt 0 0.54808336
vt 0.020338593 0.54808336
vt 0.025454396 0.17185654
vt 0.00093566894 0
vt 0.057365876 0.74063474
vt 0 0
vt 0.088581696 0.8836616
vt 0.06829933 0.88179374
vt 0.0436734 0.30386248
vt 0.020137787 0
vn -0 1 0
vn -0 1 0
vn -0 1 0
vn -0 1 0
vn -0 1 0
vn -0 1 0
vn -0 0 -1
vn -0 0 -1
vn -0 0 -1
vn -0 0 -1
vn -0 0 -1
vn -1 0 0
vn -1 0 0
vn -1 0 0
vn -1 0 0
vn -0 0 1
vn -0 0 1
vn -0 0 1
vn -0 0 1
vn -0 0 1
vn -0 -1 0
vn -0 -1 0
vn -0 -1 0
vn -0 -1 0
vn -0 -1 0
vn -0 -1 -2.7385175E-07
vn 0.9806851 -0.18122452 -0.07358247
vn 0.9806851 -0.18122451 -0.07358247
vn 0.9806851 -0.18122451 -0.07358246
vn 0.9806855 -0.18122219 -0.07358243
vn 0.9806847 -0.18122697 -0.07358265
vn 0.7471695 -0.08785176 0.6588018
vn 0.7471695 -0.08785177 0.6588018
vn 0.7471695 -0.08785177 0.6588018
vn 0.7471702 -0.08784576 0.65880173
vn 0.7471702 -0.08784576 0.6588018
vn 0.7471702 -0.08784205 0.6588022
vn 0.74717003 -0.08784363 0.6588023
g Device_Prop_Box_006_v_029_0
f 3/3/3 2/2/2 1/1/1
f 1/1/1 2/2/2 4/4/4
f 5/5/5 1/1/1 4/4/4
f 2/2/2 6/6/6 4/4/4
f 9/9/9 8/8/8 7/7/7
f 8/8/8 10/10/10 7/7/7
f 11/11/11 7/7/7 10/10/10
f 14/14/14 13/13/13 12/12/12
f 15/15/15 12/12/12 13/13/13
f 18/18/18 17/17/17 16/16/16
f 16/16/16 17/17/17 19/19/19
f 20/20/20 19/19/19 17/17/17
f 23/23/23 22/22/22 21/21/21
f 24/24/24 21/21/21 22/22/22
f 24/24/24 22/22/22 25/25/25
f 26/26/26 25/25/25 22/22/22
f 29/29/29 28/28/28 27/27/27
f 28/28/28 30/30/30 27/27/27
f 30/30/30 31/31/31 27/27/27
f 34/34/34 33/33/33 32/32/32
f 33/33/33 35/35/35 32/32/32
f 36/36/36 35/35/35 33/33/33
f 35/35/35 37/37/37 32/32/32
f 32/32/32 37/37/37 38/38/38
