g Device_Prop_Box_01_v_001
v 0.21648848 -0.08183522 -0.13190728
v 0.21661162 -0.6328914 -0.024135603
v 0.21644574 -0.6601622 -0.13184506
v -0.80546016 0.13483024 -0.13194956
v -0.7411048 0.1348188 0.084168114
v -0.7784102 0.13480835 -0.041124936
v 0.29301143 -0.081123054 0.08416807
v 0.29301152 -0.64169264 -0.10838177
v 0.29301143 -0.59298986 0.08416807
v 0.29301143 0.21097656 -0.20793198
v 0.29301143 -0.66687244 -0.20793198
v 0.29301143 0.21097656 0.6411196
v 0.29301143 0.039758038 0.5627846
v 0.29301143 0.00036054 0.53410006
v 0.29301143 -0.081123054 0.47477344
v 0.21671017 -0.081528455 0.084168114
v 0.25729218 -0.59883755 0.08416807
v 0.21672219 -0.6054794 0.084168114
v 0.29301143 -0.081123054 0.08416807
v 0.27525592 -0.5958966 0.08416807
v 0.29301143 -0.59298986 0.08416807
v 0.29301143 -0.081123054 0.08416807
v 0.26967323 -0.08124708 0.48815846
v 0.29301143 -0.081123054 0.47477344
v 0.21671017 -0.081528455 0.084168114
v 0.23456413 -0.081433594 0.5082945
v 0.21671017 -0.081528455 0.5085435
v 0.08708107 0.21097656 0.084168166
v 0.18437998 0.21097656 0.64289784
v 0.08708107 0.21097656 0.6444907
v 0.29301143 0.21097656 -0.20793198
v 0.29301143 0.21097656 0.6411196
v -0.8472394 0.21097656 -0.20793192
v -0.80597866 0.21097656 -0.06936456
v -0.76026183 0.21097656 0.084168166
v 0.08708107 0.13477656 0.084168166
v 0.08708107 0.16591342 0.6238737
v 0.08708107 0.13477656 0.6096282
v 0.08708107 0.21097656 0.6444907
v 0.08708107 0.21097656 0.084168166
v 0.08708107 0.21097656 0.084168166
v -0.7495324 0.168322 0.08416814
v -0.76026183 0.21097656 0.084168166
v 0.08708107 0.13477656 0.084168166
v -0.7411048 0.1348188 0.084168114
v 0.14957513 -0.69035494 -0.207932
v 0.08708107 0.0050463974 -0.20793203
v 0.08708107 -0.7005861 -0.20793203
v 0.29301143 0.21097656 -0.20793198
v 0.29301143 -0.66687244 -0.20793198
v -0.8135042 0.07686498 -0.20793195
v -0.7954386 0.0050463974 -0.20793198
v -0.8472394 0.21097656 -0.20793192
v 0.08708107 0.0050463974 -0.13173203
v -0.78601646 0.0050463974 -0.17628911
v -0.77277696 0.005074787 -0.13180283
v -0.7954386 0.0050463974 -0.20793198
v 0.08708107 0.0050463974 -0.20793203
v 0.08708107 0.0050463974 -0.20793203
v 0.08708107 -0.6883052 -0.15937889
v 0.08708107 -0.7005861 -0.20793203
v 0.08708107 -0.08173648 -0.13173203
v 0.08708107 0.0050463974 -0.13173203
v 0.08708107 -0.6813123 -0.13173203
v 0.08708107 0.1348286 -0.13190728
v -0.7863482 0.058938358 -0.13187668
v -0.80546016 0.13483024 -0.13194956
v -0.77277696 0.005074787 -0.13180283
v 0.08708107 0.0050463974 -0.13173203
v 0.21650282 0.0050708144 -0.13179044
v 0.21660882 0.1348286 -0.13190728
v 0.08708107 0.13477656 0.084168166
v -0.7784102 0.13480835 -0.041124936
v -0.7411048 0.1348188 0.084168114
v -0.80546016 0.13483024 -0.13194956
v 0.08708107 0.1348286 -0.13190728
v 0.21660882 0.1348286 -0.13190728
v 0.21660882 0.13477656 0.084168166
v 0.21660882 0.13477656 0.084168166
v 0.16520353 0.13477656 0.6083493
v 0.21660872 0.13477656 0.60750777
v 0.08708107 0.13477656 0.6096282
v 0.08708107 0.13477656 0.084168166
v 0.21671017 -0.081528455 0.084168114
v 0.21667491 -0.006400094 0.54291636
v 0.21671017 -0.081528455 0.5085435
v 0.21660872 0.13477656 0.60750777
v 0.21660882 0.13477656 0.084168166
v 0.08708107 -0.08173648 -0.13173203
v 0.16292392 -0.66890585 -0.13177162
v 0.08708107 -0.6813123 -0.13173203
v 0.21648848 -0.08183522 -0.13190728
v 0.21644574 -0.6601622 -0.13184506
v 0.08708107 0.0050463974 -0.13173203
v 0.21650282 0.0050708144 -0.13179044
v 0.21660882 0.13477656 0.084168166
v 0.21650282 0.0050708144 -0.13179044
v 0.21660882 0.1348286 -0.13190728
v 0.21671017 -0.081528455 0.084168114
v 0.21648848 -0.08183522 -0.13190728
v 0.21661162 -0.6328914 -0.024135603
v 0.21672219 -0.6054794 0.084168114
v 0.18437998 0.21097656 0.64289784
v 0.08708107 0.16591342 0.6238737
v 0.08708107 0.21097656 0.6444907
v 0.29301143 0.21097656 0.6411196
v 0.21660872 0.13477656 0.60750777
v 0.16520353 0.13477656 0.6083493
v 0.08708107 0.13477656 0.6096282
v 0.23456413 -0.081433594 0.5082945
v 0.29301143 0.039758038 0.5627846
v 0.21667491 -0.006400094 0.54291636
v 0.21671017 -0.081528455 0.5085435
v 0.26967323 -0.08124708 0.48815846
v 0.29301143 0.00036054 0.53410006
v 0.29301143 -0.081123054 0.47477344
v 0.23456413 -0.081433594 0.5082945
v 0.29301143 0.039758038 0.5627846
v 0.25729218 -0.59883755 0.08416807
v 0.21661162 -0.6328914 -0.024135603
v 0.21672219 -0.6054794 0.084168114
v 0.21644574 -0.6601622 -0.13184506
v 0.29301152 -0.64169264 -0.10838177
v 0.27525592 -0.5958966 0.08416807
v 0.29301143 -0.59298986 0.08416807
v 0.14957513 -0.69035494 -0.207932
v 0.29301143 -0.66687244 -0.20793198
v 0.08708107 -0.6883052 -0.15937889
v 0.08708107 -0.7005861 -0.20793203
v 0.08708107 -0.6813123 -0.13173203
v 0.16292392 -0.66890585 -0.13177162
v -0.8135042 0.07686498 -0.20793195
v -0.78601646 0.0050463974 -0.17628911
v -0.7954386 0.0050463974 -0.20793198
v -0.7863482 0.058938358 -0.13187668
v -0.77277696 0.005074787 -0.13180283
v -0.80546016 0.13483024 -0.13194956
v -0.80597866 0.21097656 -0.06936456
v -0.8472394 0.21097656 -0.20793192
v -0.7495324 0.168322 0.08416814
v -0.7411048 0.1348188 0.084168114
v -0.76026183 0.21097656 0.084168166
vt 1.005 0.8862804
vt 1.0049999 0.88628036
vt 1.0050001 0.8862804
vt 0.066171415 0.062273234
vt 0.07854172 0.23939773
vt 0.071383975 0.13671076
vt 0.52303565 0.47036183
vt 0.4069659 0.4304931
vt 0.41705012 0.47036183
vt 0.58351696 0.40988055
vt 0.40175223 0.40988052
vt 0.58351696 0.5856825
vt 0.548065 0.5694627
vt 0.53990746 0.56352335
vt 0.52303565 0.5512393
vt 0.005 0.8426319
vt 0.11213385 0.85102105
vt 0.11346416 0.8426318
vt 0.005 0.85840964
vt 0.11154482 0.85473573
vt 0.11098551 0.85840964
vt 0.76523554 0.40988058
vt 0.76040965 0.4935296
vt 0.76523554 0.49075812
vt 0.74945784 0.40988058
vt 0.7531497 0.4976989
vt 0.74945784 0.4977504
vt 1.6353691 0.0654813
vt 1.6152227 0.18117015
vt 1.6353691 0.18149994
vt 1.5927298 0.005
vt 1.5927298 0.18080203
vt 1.8288264 0.005
vt 1.8202832 0.033691302
vt 1.8108172 0.0654813
vt 1.791357 0.40988058
vt 1.7849098 0.5216303
vt 1.791357 0.5186807
vt 1.7755792 0.52589923
vt 1.7755792 0.40988058
vt 1.005 0.8705026
vt 1.1782348 0.8793434
vt 1.180448 0.8705026
vt 1.005 0.8862804
vt 1.1764898 0.8862804
vt 1.3968899 0.3697439
vt 1.5408776 0.35680407
vt 1.3947715 0.35680407
vt 1.583517 0.3994434
vt 1.4017524 0.39944342
vt 1.5557482 0.17033178
vt 1.5408776 0.17407238
vt 1.5835168 0.16334662
vt 1.6868718 0.40988055
vt 1.6776459 0.59066135
vt 1.6868718 0.5879235
vt 1.671094 0.59261227
vt 1.671094 0.40988055
vt 1.8017006 0.6351801
vt 1.8117539 0.49162364
vt 1.8017006 0.48907405
vt 1.8174784 0.617212
vt 1.8174784 0.6351801
vt 1.8174784 0.49307156
vt 1.6868718 0.40988055
vt 1.6868718 0.59073365
vt 1.6868718 0.5946946
vt 1.6868718 0.5879235
vt 1.6868718 0.40988055
vt 1.6868718 0.40988055
vt 1.6868718 0.40988055
vt 1.005 0.8862804
vt 1.1842129 0.8862804
vt 1.1764898 0.8862804
vt 1.1898141 0.8862804
vt 1.005 0.8862804
vt 1.005 0.8862804
vt 1.005 0.8862804
vt 1.791357 0.40988058
vt 1.791357 0.5184159
vt 1.791357 0.51824164
vt 1.791357 0.5186807
vt 1.791357 0.40988058
vt 1.791357 0.40988058
vt 1.791357 0.50486755
vt 1.791357 0.4977504
vt 1.791357 0.51824164
vt 1.791357 0.40988058
vt 1.8174784 0.617212
vt 1.8174784 0.4956301
vt 1.8174784 0.49307156
vt 1.8174784 0.617212
vt 1.8174784 0.49744928
vt 1.8174784 0.6351801
vt 1.8174784 0.6351801
vt 1.005 0.8862804
vt 1.005 0.8862804
vt 1.005 0.8862804
vt 1.005 0.8862804
vt 1.005 0.8862804
vt 1.0049999 0.88628036
vt 1.005 0.8862804
vt 0.07662365 0.25327355
vt 0.00026573183 0.21425438
vt 0 0.25327355
vt 0.16217166 0.2532737
vt 0.10245327 0.18729378
vt 0.06197132 0.18729371
vt 0.0004493332 0.18729371
vt 0.117868185 8.210662E-05
vt 0.16318125 0.105019234
vt 0.1033379 0.06505196
vt 0.103808634 0
vt 0.031868838 0.00017364502
vt 0.029694691 0.076138385
vt 0.053053036 0.00028907775
vt 0 0
vt 0.018400822 0.11281166
vt 0.0011290741 0.13570206
vt 0.09037909 0.1032692
vt 0.002411461 0.103357315
vt 0.17786583 0.10313698
vt 0.15638871 0.16417961
vt 0.00056121824 0.15002373
vt 0 0.16417946
vt 0.24177735 0.049823914
vt 0.23724326 0.16417953
vt 0.20431799 3.8146972E-08
vt 0.24375278 0
vt 0.18186325 0
vt 0.179498 0.060466234
vt 0.10888931 0
vt 0.16901092 0.025933648
vt 0.16720109 0
vt 0.12779456 0.062332954
vt 0.17153229 0.062393494
vt 0.066171415 0.062273234
vt 0.007925492 0.1135663
vt 0 3.8146972E-08
vt 0.051339492 0.23939775
vt 0.07854172 0.23939773
vt 0.016706925 0.2393978
vn -0.9999989 7.4049065E-05 0.0015213317
vn -0.9999989 7.4049065E-05 0.0015213316
vn -0.9999989 7.4049065E-05 0.0015213317
vn -0.93231875 -0.23176046 0.27761278
vn -0.93231875 -0.23176046 0.27761278
vn -0.93231875 -0.23176044 0.27761278
vn 1 0 5.032116E-07
vn 1 0 5.032116E-07
vn 1 0 5.032116E-07
vn 1 0 0
vn 1 0 -9.733109E-07
vn 1 0 0
vn 1 0 0
vn 1 0 0
vn 1 0 0
vn 1.1941452E-06 0 1
vn 1.1941452E-06 0 1
vn 1.1941453E-06 0 1
vn 6.3517206E-07 0 1
vn -0 0 1
vn -0 0 1
vn 0.005314105 -0.99998593 0
vn 0.0053141047 -0.99998593 0
vn 0.005314105 -0.99998593 0
vn 0.0053130966 -0.99998593 0
vn 0.005312508 -0.99998593 0
vn 0.0053129545 -0.99998593 0
vn -0 1 0
vn -0 1 0
vn -0 1 0
vn -0 1 0
vn -0 1 0
vn -0 1 0
vn -0 1 0
vn -0 1 0
vn -1 0 0
vn -1 0 0
vn -1 0 0
vn -1 0 0
vn -1 0 0
vn -0 -5.6789526E-07 1
vn -0 -5.6789526E-07 1
vn -0 -5.6789526E-07 1
vn -0 -7.3773987E-07 1
vn -0 -7.377399E-07 1
vn -0 0 -1
vn -0 0 -1
vn -0 0 -1
vn -0 0 -1
vn -0 0 -1
vn -0 2.988424E-07 -1
vn -0 2.7872642E-07 -1
vn -0 0 -1
vn -3.3070126E-05 -0.99999976 0.00064801006
vn -3.307013E-05 -0.99999976 0.0006480101
vn -3.307013E-05 -0.99999976 0.0006480101
vn -0 -1 0
vn -0 -1 0
vn -1 0 0
vn -1 0 0
vn -1 0 0
vn -1 0 0
vn -1 0 0
vn -1 0 0
vn -4.7370628E-05 0.000948489 0.9999995
vn -4.7370628E-05 0.000948489 0.9999995
vn -4.7370628E-05 0.000948489 0.9999995
vn -8.2300096E-05 0.0013503826 0.99999917
vn 0.00045109517 0.0013503825 0.99999905
vn 0.00045109517 0.0013503825 0.99999905
vn -0 0.00090045604 0.99999964
vn -5.1009672E-05 -1 9.87079E-05
vn -5.1009672E-05 -1 9.87079E-05
vn -5.100967E-05 -1 9.87079E-05
vn -1.8340945E-06 -1 -0.00024080343
vn -0 -1 -0.00024080346
vn -0 -1 -0.00024080343
vn -0 -1 -0.00024080346
vn -0 -1 0
vn -0 -1 0
vn -0 -1 0
vn -0 -1 0
vn -0 -1 0
vn -0.9999999 -0.000469452 0
vn -0.9999999 -0.00046945206 0
vn -0.9999999 -0.000469452 0
vn -0.9999999 -0.0004685532 0
vn -0.9999999 -0.00046855313 0
vn 0.00052196207 0 0.9999999
vn 0.0005219621 0 0.9999999
vn 0.00052196207 0 0.9999999
vn 0.0013542937 0 0.99999917
vn 0.0013544564 0.00010750286 0.99999917
vn 0.0013542937 0 0.99999917
vn 0.00045160353 -0.0013445278 0.99999905
vn -0.99999964 0.00081691635 0
vn -0.9999995 0.00016362904 0.0010257603
vn -0.99999964 0.0008169165 0
vn -0.9999995 0.00016362905 0.0010257603
vn -0.9999995 0.00016362905 0.0010257604
vn -0.9999995 -2.2819615E-05 0.0010260253
vn -0.9999995 -2.2931086E-05 0.0010265926
vn 0.014884796 -0.4159918 0.9092465
vn 0.014884796 -0.4159918 0.9092465
vn 0.014884796 -0.4159918 0.9092465
vn 0.01488426 -0.4159909 0.909247
vn 0.014884629 -0.4159929 0.9092461
vn 0.014884709 -0.4159927 0.9092462
vn 0.014884711 -0.41599274 0.9092462
vn 0.014886847 -0.41599324 0.9092458
vn 0.014885241 -0.41599315 0.9092459
vn 0.014886847 -0.41599324 0.9092458
vn 0.014886845 -0.41599324 0.9092458
vn 0.4229696 -0.5333551 0.73254967
vn 0.4229696 -0.5333551 0.7325496
vn 0.4229696 -0.5333551 0.73254967
vn 0.42297125 -0.5333551 0.7325487
vn 0.42297134 -0.5333551 0.7325487
vn 0.15675305 -0.9574844 0.24218212
vn 0.15675305 -0.9574844 0.24218212
vn 0.15675305 -0.9574844 0.24218212
vn 0.15675111 -0.95748454 0.24218284
vn 0.15675323 -0.9574844 0.24218194
vn 0.15675564 -0.95748377 0.2421828
vn 0.1567497 -0.95748484 0.24218251
vn 0.15675357 -0.95748395 0.24218316
vn 0.1567532 -0.9574844 0.24218194
vn 0.15675278 -0.9574843 0.2421824
vn 0.15675357 -0.95748395 0.24218313
vn 0.15674978 -0.9574657 0.24225807
vn 0.15674977 -0.9574657 0.24225804
vn -0.9317197 -0.23436992 0.27743325
vn -0.9317197 -0.23436995 0.27743325
vn -0.9317196 -0.23436992 0.27743322
vn -0.9317183 -0.23437107 0.27743694
vn -0.9317183 -0.23437107 0.27743694
vn -0.9317194 -0.23436923 0.27743468
vn -0.9317199 -0.23436774 0.2774344
vn -0.9317192 -0.23436972 0.27743486
vn -0.9317192 -0.2343709 0.2774341
vn -0.9317192 -0.23437092 0.2774341
vn -0.9317199 -0.23436777 0.2774344
g Device_Prop_Box_01_v_001_0
f 3/3/3 2/2/2 1/1/1
f 6/6/6 5/5/5 4/4/4
f 9/9/9 8/8/8 7/7/7
f 10/10/10 7/7/7 8/8/8
f 10/10/10 8/8/8 11/11/11
f 10/10/10 12/12/12 7/7/7
f 12/12/12 13/13/13 7/7/7
f 13/13/13 14/14/14 7/7/7
f 7/7/7 14/14/14 15/15/15
f 18/18/18 17/17/17 16/16/16
f 19/19/19 16/16/16 17/17/17
f 17/17/17 20/20/20 19/19/19
f 20/20/20 21/21/21 19/19/19
f 24/24/24 23/23/23 22/22/22
f 22/22/22 23/23/23 25/25/25
f 23/23/23 26/26/26 25/25/25
f 25/25/25 26/26/26 27/27/27
f 30/30/30 29/29/29 28/28/28
f 31/31/31 28/28/28 29/29/29
f 31/31/31 29/29/29 32/32/32
f 31/31/31 33/33/33 28/28/28
f 34/34/34 28/28/28 33/33/33
f 28/28/28 34/34/34 35/35/35
f 38/38/38 37/37/37 36/36/36
f 37/37/37 39/39/39 36/36/36
f 40/40/40 36/36/36 39/39/39
f 43/43/43 42/42/42 41/41/41
f 41/41/41 42/42/42 44/44/44
f 45/45/45 44/44/44 42/42/42
f 48/48/48 47/47/47 46/46/46
f 49/49/49 46/46/46 47/47/47
f 49/49/49 50/50/50 46/46/46
f 49/49/49 47/47/47 51/51/51
f 52/52/52 51/51/51 47/47/47
f 49/49/49 51/51/51 53/53/53
f 56/56/56 55/55/55 54/54/54
f 55/55/55 57/57/57 54/54/54
f 58/58/58 54/54/54 57/57/57
f 61/61/61 60/60/60 59/59/59
f 59/59/59 60/60/60 62/62/62
f 63/63/63 59/59/59 62/62/62
f 64/64/64 62/62/62 60/60/60
f 67/67/67 66/66/66 65/65/65
f 66/66/66 68/68/68 65/65/65
f 69/69/69 65/65/65 68/68/68
f 69/69/69 70/70/70 65/65/65
f 71/71/71 65/65/65 70/70/70
f 74/74/74 73/73/73 72/72/72
f 73/73/73 75/75/75 72/72/72
f 76/76/76 72/72/72 75/75/75
f 76/76/76 77/77/77 72/72/72
f 78/78/78 72/72/72 77/77/77
f 81/81/81 80/80/80 79/79/79
f 80/80/80 82/82/82 79/79/79
f 83/83/83 79/79/79 82/82/82
f 86/86/86 85/85/85 84/84/84
f 85/85/85 87/87/87 84/84/84
f 88/88/88 84/84/84 87/87/87
f 91/91/91 90/90/90 89/89/89
f 89/89/89 90/90/90 92/92/92
f 93/93/93 92/92/92 90/90/90
f 89/89/89 92/92/92 94/94/94
f 95/95/95 94/94/94 92/92/92
f 98/98/98 97/97/97 96/96/96
f 99/99/99 96/96/96 97/97/97
f 100/100/100 99/99/99 97/97/97
f 100/100/100 101/101/101 99/99/99
f 102/102/102 99/99/99 101/101/101
f 105/105/105 104/104/104 103/103/103
f 103/103/103 104/104/104 106/106/106
f 104/104/104 107/107/107 106/106/106
f 108/108/108 107/107/107 104/104/104
f 109/109/109 108/108/108 104/104/104
f 107/107/107 110/110/110 106/106/106
f 110/110/110 111/111/111 106/106/106
f 112/112/112 110/110/110 107/107/107
f 113/113/113 110/110/110 112/112/112
f 116/116/116 115/115/115 114/114/114
f 114/114/114 115/115/115 117/117/117
f 117/117/117 115/115/115 118/118/118
f 121/121/121 120/120/120 119/119/119
f 120/120/120 122/122/122 119/119/119
f 122/122/122 123/123/123 119/119/119
f 119/119/119 123/123/123 124/124/124
f 124/124/124 123/123/123 125/125/125
f 126/126/126 123/123/123 122/122/122
f 127/127/127 123/123/123 126/126/126
f 128/128/128 126/126/126 122/122/122
f 129/129/129 126/126/126 128/128/128
f 130/130/130 128/128/128 122/122/122
f 131/131/131 130/130/130 122/122/122
f 134/134/134 133/133/133 132/132/132
f 133/133/133 135/135/135 132/132/132
f 136/136/136 135/135/135 133/133/133
f 135/135/135 137/137/137 132/132/132
f 137/137/137 138/138/138 132/132/132
f 132/132/132 138/138/138 139/139/139
f 140/140/140 138/138/138 137/137/137
f 141/141/141 140/140/140 137/137/137
f 142/142/142 138/138/138 140/140/140
