g Device_Prop_Box_004_v_015
v -0.26549813 -0.03679039 -0.73798686
v -0.26549813 0.03859183 -0.63483286
v -0.26549813 -0.03679039 0.02293358
v 0.04788889 0.03941029 0.50301164
v -0.059644226 0.08608447 0.5029118
v -0.05968531 0.039410386 0.50303024
v -0.18928882 0.039412033 -0.044943962
v -0.18929175 0.1063002 -0.6286163
v -0.18928882 0.03941213 -0.7201498
v -0.26549813 -0.03679039 0.02293358
v -0.19991425 -0.03679039 -0.81237423
v -0.26549813 -0.03679039 -0.73798686
v -0.20540519 -0.03679039 0.49371842
v -0.059567586 -0.03679039 0.28685662
v -0.059567537 -0.03679039 -0.9715605
v -0.19604897 -0.03679039 0.5670172
v 0.30119637 -0.03679039 0.48153174
v 1.0005428 -0.03679039 0.28685662
v -0.04878985 -0.03679039 0.5789566
v -0.19452494 -0.03679039 0.5789566
v -0.059567586 0.039409608 0.28685662
v 0.88868004 0.011601908 0.28685662
v 0.82440025 0.039409608 0.28685662
v -0.059567586 -0.03679039 0.28685662
v 1.0005428 -0.03679039 0.28685662
v -0.059567586 -0.03679039 0.28685662
v -0.059567586 0.030498428 -0.87948185
v -0.059567537 -0.03679039 -0.9715605
v -0.059567586 0.039409608 -0.8672876
v -0.059567586 0.039409608 0.28685662
v -0.059567586 0.039409608 0.28685662
v -0.16155903 0.039411645 -0.75160265
v -0.059567586 0.039409608 -0.8672876
v -0.18928882 0.03941213 -0.7201498
v -0.18928882 0.039412033 -0.044943962
v -0.14693725 0.03941116 0.28685662
v -0.1315847 0.03941087 0.40713513
v -0.11931588 0.03941116 0.5032508
v -0.05968531 0.039410386 0.50303024
v -0.05968531 0.039410386 0.50303024
v 0.16431458 0.03941029 0.47060257
v 0.04788889 0.03941029 0.50301164
v 0.82440025 0.039409608 0.28685662
v -0.059567586 0.039409608 0.28685662
v -0.19991425 -0.03679039 -0.81237423
v -0.26549813 0.03859183 -0.63483286
v -0.26549813 -0.03679039 -0.73798686
v -0.059567586 0.030498428 -0.87948185
v -0.059567537 -0.03679039 -0.9715605
v -0.16155903 0.039411645 -0.75160265
v -0.059567586 0.039409608 -0.8672876
v -0.18928882 0.03941213 -0.7201498
v -0.18929175 0.1063002 -0.6286163
v -0.05968531 0.039410386 0.50303024
v -0.06487583 0.08832639 0.5029256
v -0.11931588 0.03941116 0.5032508
v -0.059644226 0.08608447 0.5029118
v 0.88868004 0.011601908 0.28685662
v 0.16431458 0.03941029 0.47060257
v 0.82440025 0.039409608 0.28685662
v 0.30119637 -0.03679039 0.48153174
v 1.0005428 -0.03679039 0.28685662
v -0.09621695 -0.016273232 0.5789566
v -0.04878985 -0.03679039 0.5789566
v 0.04788889 0.03941029 0.50301164
v -0.06487583 0.08832639 0.5029256
v -0.059644226 0.08608447 0.5029118
v -0.14713782 0.0057554627 0.5789566
v -0.19452494 -0.03679039 0.5789566
v -0.09621695 -0.016273232 0.5789566
v -0.04878985 -0.03679039 0.5789566
v -0.18344878 -0.02684584 0.5789566
v -0.14713782 0.0057554627 0.5789566
v -0.19604897 -0.03679039 0.5670172
v -0.18344878 -0.02684584 0.5789566
v -0.19452494 -0.03679039 0.5789566
v -0.20540519 -0.03679039 0.49371842
v -0.26549813 0.03859183 -0.63483286
v -0.26549813 -0.03679039 0.02293358
v -0.1315847 0.03941087 0.40713513
v -0.11931588 0.03941116 0.5032508
v -0.06487583 0.08832639 0.5029256
v -0.14713782 0.0057554627 0.5789566
v -0.14693725 0.03941116 0.28685662
v -0.18928882 0.039412033 -0.044943962
v -0.18929175 0.1063002 -0.6286163
vt 1.583517 0.53164166
vt 1.5679085 0.55300045
vt 1.583517 0.6891955
vt 0.6085077 0.69677323
vt 0.6085077 0.7190455
vt 0.6085077 0.71904546
vt 1.7494578 0.6146597
vt 1.7494578 0.49380633
vt 1.7494578 0.4748537
vt 0.59272987 0.28431508
vt 0.6063094 0.11135871
vt 0.59272987 0.1267612
vt 0.6051725 0.3817943
vt 0.6353691 0.33896202
vt 0.6353691 0.078398086
vt 0.6071098 0.39697132
vt 0.7100678 0.37927097
vt 0.8548722 0.33896202
vt 0.6376008 0.3994435
vt 0.60742533 0.3994435
vt 0.63462895 0.4098806
vt 0.62887114 0.60622185
vt 0.63462895 0.59291226
vt 0.6188512 0.4098806
vt 0.6188512 0.6293838
vt 0.7755792 0.68336135
vt 0.7895118 0.44186288
vt 0.7755792 0.42279735
vt 0.791357 0.4443878
vt 0.791357 0.68336135
vt 0.791357 0.68336135
vt 0.791357 0.46834117
vt 0.791357 0.4443878
vt 0.791357 0.4748537
vt 0.791357 0.6146597
vt 0.79135704 0.68336135
vt 0.791357 0.68336135
vt 0.791357 0.68336135
vt 0.791357 0.68336135
vt 0.63462895 0.4098806
vt 0.63462895 0.4562577
vt 0.63462895 0.43215284
vt 0.63462895 0.59291226
vt 0.63462895 0.4098806
vt 0.10120098 0.06213791
vt 0.24909233 0
vt 0.14849198 0
vt 0.089799196 0.19511017
vt 0 0.19511025
vt 0.175238 0.09847771
vt 0.10169155 0.19511017
vt 0.19523403 0.07220497
vt 0.28450054 0.07220228
vt 1.7494578 0.68336135
vt 1.7494578 0.6833614
vt 1.7494578 0.68336135
vt 1.7494578 0.6833614
vt 0.937193 0.044831697
vt 0.34891874 0.07059372
vt 0.88843286 0.07059311
vt 0.45044392 1.5258789E-07
vt 1.0220475 0
vt 0.12841004 0.019007416
vt 0.16438629 0
vt 0.25375935 0.07059372
vt 0.1682387 0.1159108
vt 0.17221008 0.11383377
vt 0.08978347 0.03941523
vt 0.005000002 0.38474798
vt 0.0092482325 0.36439264
vt 0.005000001 0.35457253
vt 0.007059087 0.38245457
vt 0.013809415 0.37493616
vt 0.9481499 0.07327828
vt 0.9565983 0.08657318
vt 0.95748985 0.07488632
vt 0.89080954 0.06340622
vt 0.0012071228 0
vt 0.5225235 1.5258789E-07
vt 0.8162455 0.14129668
vt 0.89143485 0.15424217
vt 0.8867951 0.21168366
vt 0.95367545 0.12488617
vt 0.72215384 0.12509781
vt 0.46259254 0.08041115
vt 0 0.0804081
vn -1 0 0
vn -1 0 0
vn -1 0 0
vn -0.00017293834 -0.0025366566 -0.9999968
vn -0.00017293834 -0.0025366566 -0.9999968
vn -0.00017293834 -0.002536656 -0.9999968
vn 1 4.3457658E-05 0
vn 1 4.3457654E-05 0
vn 1 4.3457658E-05 0
vn -0 -1 0
vn -0 -1 0
vn -0 -1 0
vn -0 -1 0
vn -0 -1 0
vn -0 -1 0
vn -0 -1 0
vn -0 -1 0
vn -0 -1 0
vn -0 -1 0
vn -0 -1 0
vn -0 0 -1
vn -0 0 -1
vn -0 0 -1
vn -0 0 -1
vn -0 0 -1
vn 1 6.672996E-07 0
vn 1 6.672996E-07 0
vn 1 6.672996E-07 0
vn 1 0 0
vn 1 0 0
vn 1.9950294E-05 1 0
vn 1.9950294E-05 1 0
vn 1.9950296E-05 1 0
vn 1.830632E-05 1 0
vn 1.7744065E-05 1 3.6332256E-07
vn 1.7744062E-05 1 0
vn 1.7744063E-05 1 0
vn 1.0253583E-05 1 -4.333107E-06
vn 1.2985913E-05 1 -3.5786868E-06
vn 9.0127133E-07 1 3.2377097E-06
vn 9.0127133E-07 1 3.2377097E-06
vn 9.0127133E-07 1 3.2377097E-06
vn -0 1 -3.5857588E-06
vn -0 1 -3.5857593E-06
vn -0.5561675 0.6709973 -0.49034703
vn -0.5561675 0.6709973 -0.49034703
vn -0.5561675 0.6709973 -0.490347
vn -0.55616623 0.6709998 -0.49034527
vn -0.55616957 0.6709955 -0.49034745
vn -0.5561867 0.67097056 -0.490362
vn -0.55616623 0.67099977 -0.49034524
vn -0.55617017 0.67099524 -0.49034694
vn -0.55617017 0.67099524 -0.49034694
vn -0.0036982533 -0.0025316782 -0.99999
vn -0.0036982535 -0.0025316789 -0.99999
vn -0.0036982533 -0.0025316786 -0.99999
vn -0.0037156173 -0.002533521 -0.99998987
vn 0.22792967 0.52687836 0.8188085
vn 0.22792967 0.52687836 0.8188085
vn 0.22792967 0.52687836 0.8188085
vn 0.22792983 0.5268786 0.8188084
vn 0.22792959 0.5268776 0.8188089
vn 0.22793075 0.526878 0.81880844
vn 0.22792983 0.5268786 0.8188084
vn 0.22842257 0.528014 0.81793904
vn 0.2284226 0.528014 0.81793916
vn 0.22842258 0.528014 0.81793904
vn 0.22793075 0.526878 0.8188084
vn -0 0 1
vn -0 0 1
vn -0 0 1
vn -0 0 1
vn -0 0 1
vn -0.66565734 0.74140435 0.0849696
vn -0.66565734 0.74140435 0.0849696
vn -0.66565746 0.7414043 0.08496961
vn -0.665658 0.74140406 0.08496737
vn -0.66565853 0.7414036 0.08496731
vn -0.66565794 0.74140406 0.08496736
vn -0.6656592 0.741403 0.08496681
vn -0.66565645 0.741405 0.08497072
vn -0.66565895 0.74140346 0.08496448
vn -0.665659 0.74140346 0.0849645
vn -0.66580355 0.7412712 0.08498622
vn -0.66565853 0.7414035 0.08496731
vn -0.6656585 0.7414036 0.08496731
g Device_Prop_Box_004_v_015_0
f 3/3/3 2/2/2 1/1/1
f 6/6/6 5/5/5 4/4/4
f 9/9/9 8/8/8 7/7/7
f 12/12/12 11/11/11 10/10/10
f 10/10/10 11/11/11 13/13/13
f 13/13/13 11/11/11 14/14/14
f 14/14/14 11/11/11 15/15/15
f 14/14/14 16/16/16 13/13/13
f 17/17/17 16/16/16 14/14/14
f 18/18/18 17/17/17 14/14/14
f 17/17/17 19/19/19 16/16/16
f 20/20/20 16/16/16 19/19/19
f 23/23/23 22/22/22 21/21/21
f 24/24/24 21/21/21 22/22/22
f 24/24/24 22/22/22 25/25/25
f 28/28/28 27/27/27 26/26/26
f 27/27/27 29/29/29 26/26/26
f 30/30/30 26/26/26 29/29/29
f 33/33/33 32/32/32 31/31/31
f 31/31/31 32/32/32 34/34/34
f 35/35/35 31/31/31 34/34/34
f 36/36/36 31/31/31 35/35/35
f 36/36/36 37/37/37 31/31/31
f 37/37/37 38/38/38 31/31/31
f 39/39/39 31/31/31 38/38/38
f 42/42/42 41/41/41 40/40/40
f 41/41/41 43/43/43 40/40/40
f 44/44/44 40/40/40 43/43/43
f 47/47/47 46/46/46 45/45/45
f 46/46/46 48/48/48 45/45/45
f 48/48/48 49/49/49 45/45/45
f 50/50/50 48/48/48 46/46/46
f 51/51/51 48/48/48 50/50/50
f 52/52/52 50/50/50 46/46/46
f 53/53/53 52/52/52 46/46/46
f 56/56/56 55/55/55 54/54/54
f 57/57/57 54/54/54 55/55/55
f 60/60/60 59/59/59 58/58/58
f 59/59/59 61/61/61 58/58/58
f 58/58/58 61/61/61 62/62/62
f 63/63/63 61/61/61 59/59/59
f 64/64/64 61/61/61 63/63/63
f 65/65/65 63/63/63 59/59/59
f 66/66/66 63/63/63 65/65/65
f 67/67/67 66/66/66 65/65/65
f 68/68/68 63/63/63 66/66/66
f 71/71/71 70/70/70 69/69/69
f 72/72/72 69/69/69 70/70/70
f 70/70/70 73/73/73 72/72/72
f 76/76/76 75/75/75 74/74/74
f 75/75/75 77/77/77 74/74/74
f 78/78/78 77/77/77 75/75/75
f 79/79/79 77/77/77 78/78/78
f 80/80/80 78/78/78 75/75/75
f 81/81/81 80/80/80 75/75/75
f 82/82/82 81/81/81 75/75/75
f 83/83/83 82/82/82 75/75/75
f 84/84/84 78/78/78 80/80/80
f 85/85/85 78/78/78 84/84/84
f 86/86/86 78/78/78 85/85/85
