g Device_Prop_Box_010_v_044
v 0.012726354 0.25634575 -0.40538543
v 0.012726258 -0.121730156 -0.61994314
v 0.012726354 1.1493188 0.10137569
v 0.012726354 1.1968203 0.16686724
v 0.012726354 0.25634575 -0.40538543
v 0.012726354 1.1493188 0.10137569
v 0.012726354 1.1968203 0.3532923
v 0.012726354 -1.0129807 0.3532919
v 0.012726354 -1.0129806 -0.07545063
v 0.012726258 -0.121730156 -0.61994314
v 0.012726354 -1.0129807 0.3532919
v 0.004461065 -1.0129806 -0.07650105
v 0.012726354 -1.0129806 -0.07545063
v -0.012673645 -1.0129807 0.3532919
v -0.012673645 -1.0129806 -0.07867853
v -0.012673645 -1.0129807 0.3532919
v 0.012726354 1.1968203 0.3532923
v -0.012673645 1.1968203 0.3532923
v 0.012726354 -1.0129807 0.3532919
v -0.012673645 1.1968203 0.3532923
v -0.008817581 1.1968203 0.15278079
v -0.012673645 1.1968203 0.15025952
v 0.012726354 1.1968203 0.16686724
v 0.012726354 1.1968203 0.3532923
v -0.012673645 -1.0129807 0.3532919
v -0.012673645 -0.27757934 -0.527958
v -0.012673645 -1.0129806 -0.07867853
v -0.012673645 1.1968203 0.3532923
v -0.012673645 1.1560495 0.09404804
v -0.012673645 1.1968203 0.15025952
v -0.012673645 -0.11500978 -0.6272767
v -0.012673645 1.1560495 0.09404804
v 0.012726258 -0.121730156 -0.61994314
v -0.012673645 -0.11500978 -0.6272767
v 0.012726354 1.1493188 0.10137569
v -0.008817581 1.1968203 0.15278079
v -0.012673645 1.1560495 0.09404804
v -0.012673645 1.1968203 0.15025952
v 0.012726354 1.1968203 0.16686724
v 0.012726354 1.1493188 0.10137569
v 0.012726258 -0.121730156 -0.61994314
v -0.012673645 -0.27757934 -0.527958
v -0.012673645 -0.11500978 -0.6272767
v 0.004461065 -1.0129806 -0.07650105
v 0.012726354 -1.0129806 -0.07545063
v -0.012673645 -1.0129806 -0.07867853
vt 0.16888687 0.87896454
vt 0.23678035 0.54347074
vt 0.008530138 1.6713632
vt 1.0698668 0.7026024
vt 1.2587782 0.587655
vt 1.0794083 0.68944716
vt 1.0698668 0.74004924
vt 1.5137455 0.74004924
vt 1.5137455 0.6539285
vt 1.3347216 0.5445572
vt 1.5137455 0.74004924
vt 1.5137455 0.65371746
vt 1.5137455 0.6539285
vt 1.5137455 0.74004924
vt 1.5137455 0.65328014
vt 1.5137455 0.74004924
vt 1.0698668 0.74004924
vt 1.0698668 0.74004924
vt 1.5137455 0.74004924
vt 1.0698668 0.74004924
vt 1.0698668 0.69977283
vt 1.0698668 0.6992665
vt 1.0698668 0.7026024
vt 1.0698668 0.74004924
vt 1.5137455 0.74004924
vt 1.3660268 0.56303406
vt 1.5137455 0.65328014
vt 1.0698668 0.74004924
vt 1.0780563 0.68797535
vt 1.0698668 0.6992665
vt 1.3333718 0.54308414
vt 0.02916281 1.677336
vt 0.23678035 0.54347074
vt 0.2574149 0.5494343
vt 0.008530138 1.6713632
vt 0.05628479 0.0032523347
vt 0 7.6293944E-08
vt 0.054677736 0
vt 0.06526337 0.02142311
vt 0.0015591431 0.02142311
vt 0.054049417 0.82059485
vt 0.06475884 0.67710096
vt 0.074617766 0.8267825
vt 0.00656044 7.6293944E-08
vt 0 0
vt 0.020160904 7.6293944E-08
vn -0.62068385 -0.38698134 0.6819069
vn -0.62068385 -0.38698134 0.6819069
vn -0.62068385 -0.38698134 0.6819069
vn -1 0 0
vn -1 0 0
vn -1 0 0
vn -1 0 0
vn -1 0 0
vn -1 0 0
vn -1 0 3.097309E-07
vn -0 1 0
vn -0 1 0
vn -0 1 0
vn -0 1 0
vn -0 1 0
vn -0 0 -1
vn -0 0 -1
vn -0 0 -1
vn -0 0 -1
vn -0 -1 0
vn -0 -1 0
vn -0 -1 0
vn -0 -1 0
vn -0 -1 0
vn 1 0 0
vn 1 0 0
vn 1 0 0
vn 1 0 0
vn 1 0 0
vn 1 0 0
vn 1 0 0
vn -0.3566005 -0.4611122 0.81253403
vn -0.3566005 -0.4611122 0.81253403
vn -0.35660046 -0.4611122 0.81253403
vn -0.35659778 -0.46111262 0.812535
vn -0.35839105 -0.7557179 0.5481299
vn -0.35839105 -0.7557179 0.54812986
vn -0.35839105 -0.7557179 0.5481299
vn -0.358393 -0.7557172 0.5481295
vn -0.35838673 -0.75572044 0.54812914
vn -0.10781367 0.51829916 0.8483763
vn -0.10781367 0.51829916 0.8483763
vn -0.10781367 0.51829916 0.8483763
vn -0.107811876 0.5182994 0.8483763
vn -0.10781527 0.5182993 0.84837604
vn -0.107811876 0.5182994 0.8483763
g Device_Prop_Box_010_v_044_0
f 3/3/3 2/2/2 1/1/1
f 6/6/6 5/5/5 4/4/4
f 4/4/4 5/5/5 7/7/7
f 7/7/7 5/5/5 8/8/8
f 8/8/8 5/5/5 9/9/9
f 10/10/10 9/9/9 5/5/5
f 13/13/13 12/12/12 11/11/11
f 11/11/11 12/12/12 14/14/14
f 15/15/15 14/14/14 12/12/12
f 18/18/18 17/17/17 16/16/16
f 19/19/19 16/16/16 17/17/17
f 22/22/22 21/21/21 20/20/20
f 21/21/21 23/23/23 20/20/20
f 24/24/24 20/20/20 23/23/23
f 27/27/27 26/26/26 25/25/25
f 28/28/28 25/25/25 26/26/26
f 28/28/28 26/26/26 29/29/29
f 30/30/30 28/28/28 29/29/29
f 29/29/29 26/26/26 31/31/31
f 34/34/34 33/33/33 32/32/32
f 32/32/32 33/33/33 35/35/35
f 38/38/38 37/37/37 36/36/36
f 36/36/36 37/37/37 39/39/39
f 37/37/37 40/40/40 39/39/39
f 43/43/43 42/42/42 41/41/41
f 42/42/42 44/44/44 41/41/41
f 41/41/41 44/44/44 45/45/45
f 46/46/46 44/44/44 42/42/42
