g Device_Prop_Box_010_v_030
v -0.16672198 -0.1623836 -0.20445655
v -0.166744 -0.40469941 -0.2566634
v -0.16672198 -0.395263 -0.20445655
v -0.16668905 0.05348656 -0.42074418
v -0.1665001 0.05355516 -0.20445655
v -0.16668905 -0.07620552 -0.42074418
v -0.16669108 -0.16268745 -0.420453
v -0.16672403 -0.4343297 -0.4204366
v -0.16653624 0.053531133 1.1163435
v -0.16669418 -0.13537827 0.95068556
v -0.16659535 -0.0152720325 1.1163435
v -0.16672198 -0.1623836 -0.20445655
v -0.16672403 -0.4343297 -0.4204366
v -0.166744 -0.40469941 -0.2566634
v -0.2429218 0.12962648 -0.49655652
v -0.04529951 0.12962648 1.0512716
v -0.2429218 0.12962648 1.1583726
v -0.036991443 0.12962648 -0.20445646
v -0.036991347 0.1296264 1.0467689
v 0.8004858 0.12962648 -0.3171763
v 0.8629816 0.12962648 -0.20445646
v 0.70103127 0.12962648 -0.49655655
v -0.03691926 0.05350284 -0.20445651
v 0.87938195 0.10022034 -0.20445648
v 0.9054642 0.053454585 -0.20445646
v 0.8629816 0.12962648 -0.20445646
v -0.036991443 0.12962648 -0.20445646
v -0.036991443 0.12962648 -0.20445646
v -0.036991443 0.056821726 1.0574924
v -0.036991347 0.1296264 1.0467689
v -0.03691926 0.05350284 -0.20445651
v -0.036988247 0.053429782 1.0579902
v -0.242922 -0.16247313 -0.20445655
v -0.2429218 0.058958706 1.1687814
v -0.242922 -0.16247313 0.8634878
v -0.2429218 0.085514836 1.16487
v -0.2429218 0.12962648 1.1583726
v -0.2429218 0.12962648 -0.49655652
v -0.242922 -0.37559432 -0.2293387
v -0.24292189 -0.42392984 -0.49655652
v -0.242922 -0.37109354 -0.20445655
v -0.16672198 -0.1623836 -0.20445655
v -0.22886577 -0.16245645 0.87270147
v -0.16672198 -0.16245936 0.9133303
v -0.242922 -0.16247313 0.8634878
v -0.242922 -0.16247313 -0.20445655
v -0.036991443 -0.076303676 -0.49655655
v 0.84071696 -0.076303676 -0.45176414
v 0.81588256 -0.076303676 -0.4965566
v -0.03696189 -0.07625435 -0.4204796
v 0.85809207 -0.07628391 -0.42040586
v -0.03696189 -0.07625435 -0.4204796
v -0.03697284 -0.48060632 -0.44874933
v -0.036972743 -0.47548464 -0.42043445
v -0.036991395 -0.48924798 -0.49655655
v -0.036991443 -0.076303676 -0.49655655
v -0.16669108 -0.16268745 -0.420453
v -0.13001415 -0.4459716 -0.42042574
v -0.16672403 -0.4343297 -0.4204366
v -0.036972743 -0.47548464 -0.42043445
v -0.03696189 -0.07625435 -0.4204796
v -0.16668905 -0.07620552 -0.42074418
v -0.03696189 -0.07625435 -0.4204796
v 0.81665283 -0.0020856285 -0.4205095
v 0.85809207 -0.07628391 -0.42040586
v 0.78563285 0.053479776 -0.42056367
v -0.036932338 0.05348133 -0.42060262
v -0.036932338 0.05348133 -0.42060262
v 0.8574112 0.053448383 -0.29113275
v 0.78563285 0.053479776 -0.42056367
v -0.03691926 0.05350284 -0.20445651
v 0.9054642 0.053454585 -0.20445646
v -0.1665001 0.05355516 -0.20445655
v -0.036932338 0.05348133 -0.42060262
v -0.16668905 0.05348656 -0.42074418
v -0.03691926 0.05350284 -0.20445651
v -0.036932338 0.05348133 -0.42060262
v -0.16668905 -0.07620552 -0.42074418
v -0.16668905 0.05348656 -0.42074418
v -0.03696189 -0.07625435 -0.4204796
v -0.16653624 0.053531133 1.1163435
v -0.03691926 0.05350284 -0.20445651
v -0.1665001 0.05355516 -0.20445655
v -0.036988247 0.053429782 1.0579902
v -0.144684 0.053513497 1.1163435
v -0.16118309 0.053492084 1.1252882
v -0.16653624 0.053531133 1.1281836
v -0.16672198 -0.395263 -0.20445655
v -0.17466511 -0.39274356 -0.20445655
v -0.16672198 -0.1623836 -0.20445655
v -0.242922 -0.37109354 -0.20445655
v -0.242922 -0.16247313 -0.20445655
v -0.036991443 -0.076303676 -0.49655655
v -0.15014684 -0.4533567 -0.49655652
v -0.036991395 -0.48924798 -0.49655655
v -0.2429218 0.12962648 -0.49655652
v -0.24292189 -0.42392984 -0.49655652
v 0.70103127 0.12962648 -0.49655655
v 0.7618815 0.020521034 -0.4965566
v 0.81588256 -0.076303676 -0.4965566
v -0.242922 -0.37559432 -0.2293387
v -0.15014684 -0.4533567 -0.49655652
v -0.24292189 -0.42392984 -0.49655652
v -0.16672403 -0.4343297 -0.4204366
v -0.17466511 -0.39274356 -0.20445655
v -0.242922 -0.37109354 -0.20445655
v -0.166744 -0.40469941 -0.2566634
v -0.16672198 -0.395263 -0.20445655
v -0.13001415 -0.4459716 -0.42042574
v -0.03697284 -0.48060632 -0.44874933
v -0.036991395 -0.48924798 -0.49655655
v -0.036972743 -0.47548464 -0.42043445
v -0.16672198 -0.16245936 0.9133303
v -0.1665001 0.05355516 -0.20445655
v -0.16672198 -0.1623836 -0.20445655
v -0.16669418 -0.13537827 0.95068556
v -0.16653624 0.053531133 1.1163435
v -0.16659535 -0.0152720325 1.1163435
v -0.16653624 0.053531133 1.1281836
v -0.16658296 -0.00086109084 1.1362203
v -0.2429218 0.058958706 1.1687814
v -0.22886577 -0.16245645 0.87270147
v -0.242922 -0.16247313 0.8634878
v -0.16669418 -0.13537827 0.95068556
v -0.16672198 -0.16245936 0.9133303
v -0.16659535 -0.0152720325 1.1163435
v -0.16658296 -0.00086109084 1.1362203
v -0.2429218 0.085514836 1.16487
v -0.16658296 -0.00086109084 1.1362203
v -0.2429218 0.058958706 1.1687814
v -0.16653624 0.053531133 1.1281836
v -0.036991443 0.056821726 1.0574924
v -0.04529951 0.12962648 1.0512716
v -0.2429218 0.12962648 1.1583726
v -0.036991347 0.1296264 1.0467689
v -0.144684 0.053513497 1.1163435
v -0.16118309 0.053492084 1.1252882
v -0.036988247 0.053429782 1.0579902
v 0.87938195 0.10022034 -0.20445648
v 0.8574112 0.053448383 -0.29113275
v 0.9054642 0.053454585 -0.20445646
v 0.8004858 0.12962648 -0.3171763
v 0.8629816 0.12962648 -0.20445646
v 0.78563285 0.053479776 -0.42056367
v 0.7618815 0.020521034 -0.4965566
v 0.70103127 0.12962648 -0.49655655
v 0.84071696 -0.076303676 -0.45176414
v 0.81588256 -0.076303676 -0.4965566
v 0.81665283 -0.0020856285 -0.4205095
v 0.85809207 -0.07628391 -0.42040586
vt 1.4625545 0.8426319
vt 1.4116802 0.8426319
vt 1.4138101 0.8426319
vt 1.4625545 0.8426319
vt 1.4625545 0.8426319
vt 1.4625545 0.8426319
vt 1.4625545 0.8426319
vt 1.4055059 0.84263194
vt 1.712993 0.68336135
vt 1.712993 0.6490607
vt 1.7129931 0.68336135
vt 1.4625545 0.8426319
vt 1.4055059 0.84263194
vt 1.4116802 0.8426319
vt 1.9871731 0.005
vt 1.9462541 0.32548845
vt 1.9871731 0.34766465
vt 1.9445338 0.0654813
vt 1.9445337 0.3245561
vt 1.7711285 0.04214189
vt 1.7581882 0.0654813
vt 1.7917211 0.005
vt 1.3141646 0.8862804
vt 1.124429 0.8765975
vt 1.1190282 0.8862804
vt 1.1278192 0.8705026
vt 1.3141646 0.8705026
vt 1.7391143 0.40988058
vt 1.7240396 0.6711758
vt 1.7391143 0.66895545
vt 1.7233366 0.40988058
vt 1.7233366 0.6712789
vt 1.0654813 0.47036183
vt 1.0196323 0.75470024
vt 1.0654813 0.691487
vt 1.0141336 0.75389034
vt 1.005 0.75254506
vt 1.005 0.40988055
vt 1.1096095 0.4652098
vt 1.1196177 0.40988055
vt 1.1086775 0.47036183
vt 1.712993 0.40988058
vt 1.7001257 0.6329136
vt 1.712993 0.64132607
vt 1.6972152 0.6310058
vt 1.6972152 0.40988058
vt 1.671094 0.7190452
vt 1.6803685 0.53730977
vt 1.671094 0.54245186
vt 1.6868718 0.7190452
vt 1.6868718 0.53371453
vt 1.8435996 0.40988058
vt 1.8377366 0.49360067
vt 1.8435996 0.4925363
vt 1.827822 0.49538353
vt 1.8278219 0.40988058
vt 1.8435996 0.42983592
vt 1.8435996 0.48790377
vt 1.8435996 0.48550737
vt 1.8435996 0.4925363
vt 1.8435996 0.40988058
vt 1.8435996 0.40988058
vt 1.6868718 0.7190452
vt 1.6868718 0.542295
vt 1.6868718 0.53371453
vt 1.6868718 0.5487207
vt 1.6868718 0.7190452
vt 1.3141646 0.8862804
vt 1.1289774 0.8862804
vt 1.1438401 0.8862804
vt 1.3141646 0.8862804
vt 1.1190282 0.8862804
vt 1.4625545 0.8426319
vt 1.4625545 0.8426319
vt 1.4625545 0.8426319
vt 1.4625545 0.8426319
vt 1.4625545 0.8426319
vt 1.4625545 0.8426319
vt 1.4625545 0.8426319
vt 1.4625545 0.8426319
vt 1.7233366 0.68336135
vt 1.7233366 0.40988058
vt 1.7233366 0.40988058
vt 1.7233366 0.6712789
vt 1.7233366 0.68336135
vt 1.7233366 0.68336135
vt 1.7233366 0.68336135
vt 1.4138101 0.8426319
vt 1.4148588 0.84427655
vt 1.4625545 0.8426319
vt 1.4193583 0.85840964
vt 1.4625545 0.85840964
vt 1.5408776 0.04763943
vt 1.4628061 0.024209782
vt 1.4553746 0.04763944
vt 1.5835168 0.005000055
vt 1.4688993 0.0050000725
vt 1.5835168 0.20045204
vt 1.5609257 0.21305151
vt 1.5408776 0.22423278
vt 0.019910201 7.6293944E-08
vt 0.23785672 0.07652687
vt 0.23373237 7.6293944E-08
vt 0.17621018 0.062852934
vt 0.0030343246 0.05630272
vt 0 0
vt 0.04516132 0.062836535
vt 0.0033874512 0.06285469
vt 0.17783341 0.09313362
vt 0.20463356 0.16988014
vt 0.24288704 0.16986473
vt 0.18197654 0.16988021
vt 1.712993 0.64132607
vt 1.712993 0.40988058
vt 1.712993 0.40988058
vt 1.712993 0.6490607
vt 1.712993 0.68336135
vt 1.7129931 0.68336135
vt 1.712993 0.68336135
vt 1.7129931 0.68336135
vt 0.1854298 1.3107766E-07
vt 0.4765117 0.011855469
vt 0.48239213 0
vt 0.4142865 0.06429283
vt 0.45061645 0.06426941
vt 0.25317094 0.06437622
vt 0.23383921 0.06438665
vt 0.0014674377 0.06858032
vt 0.06506348 0
vt 0 0.0474955
vt 0.068110965 0.043186113
vt 0.18431328 0.045798644
vt 0.18089569 0.103603974
vt 0.0039050293 0.103603974
vt 0.18833649 0.1036039
vt 0.08768089 0.043172073
vt 0.072903134 0.043155137
vt 0.18412872 0.043105546
vt 0.11321312 0.2555452
vt 0.08947548 0.17971604
vt 0.071049884 0.25554523
vt 0.16369438 0.15693168
vt 0.1397252 0.2555452
vt 0.11702644 0.06648279
vt 0.103470765 7.6293944E-08
vt 0.20183845 7.6293944E-08
vt 0.006650314 0.039186936
vt 0.016175156 0
vt 0.06691803 0.06653019
vt 0 0.06662083
vn 1 -2.3046225E-05 0.00014313181
vn 1 0 -0.00042130053
vn 1 0 -0.00042130053
vn 1 0 0.00015231442
vn 0.99999917 -0.001027539 -0.0008732412
vn 1 -2.3046225E-05 0.00014313181
vn 1 -2.3046225E-05 0.00014313182
vn 1 -0.0001212675 0.00014327001
vn 0.99999964 -0.00085904344 2.6230695E-05
vn 0.99999964 -0.0008590433 2.6230691E-05
vn 0.99999964 -0.00085904344 2.6230695E-05
vn 1 -0.000121773934 0.00014390766
vn 1 -0.00012177394 0.00014390767
vn 1 -0.000121773934 0.00014390766
vn -0 1 0
vn -0 1 0
vn -0 1 0
vn -0 1 0
vn 1.1704387E-05 1 0
vn -0 1 0
vn -0 1 0
vn -0 1 0
vn -0 4.8931383E-07 1
vn -0 4.8931383E-07 1
vn -0 4.8931383E-07 1
vn -0 -6.3642057E-07 1
vn -0 -6.3642057E-07 1
vn 1 -1.3422728E-06 0
vn 1 -1.3422728E-06 0
vn 1 -1.3422728E-06 0
vn 0.9999995 0.0009506968 5.4701297E-05
vn 0.9999995 0.0009506968 5.470129E-05
vn -1 8.7515247E-07 0
vn -1 8.751525E-07 0
vn -1 8.751525E-07 0
vn -1 0 0
vn -1 6.6342653E-07 0
vn -1 0 -5.940677E-07
vn -1 0 -5.940677E-07
vn -1 0 -3.9426214E-07
vn -1 0 0
vn -2.4575997E-06 -1 -6.778624E-05
vn -2.4576E-06 -1 -6.778624E-05
vn -2.4575997E-06 -1 -6.778625E-05
vn 0.0011749261 -0.9999993 0
vn 0.0011749261 -0.9999993 0
vn -0 -1 0
vn -0 -1 0
vn -0 -1 0
vn -3.3084234E-05 -0.99999976 0.0006482865
vn -3.3070926E-05 -0.99999976 0.0006486599
vn 1 -2.7182266E-05 1.4948182E-06
vn 1 -2.718227E-05 1.4948182E-06
vn 1 -2.7182266E-05 1.4948182E-06
vn 1 0 -0.0003884549
vn 1 0 -0.0003884549
vn -0.0002766043 6.0470975E-05 1
vn -0.0002766043 6.0470982E-05 1
vn -0.00027660432 6.047099E-05 1
vn 0.00012955091 0.00011306449 1
vn -0.002038409 0.0033669972 0.99999225
vn -0.0020384092 0.0033669975 0.99999225
vn -8.2302926E-05 0.0013504163 0.99999917
vn -8.2302926E-05 0.0013504163 0.99999917
vn -8.230292E-05 0.0013504162 0.99999917
vn -4.737351E-05 0.0009484186 0.9999995
vn -4.737351E-05 0.0009484187 0.9999995
vn -1.8732637E-06 -1 -0.0002415108
vn -1.8732637E-06 -1 -0.00024151083
vn -1.8732637E-06 -1 -0.0002415108
vn -5.124277E-05 -1 9.952057E-05
vn -5.1203016E-05 -1 9.993082E-05
vn -4.066952E-05 -1 0.0003172079
vn -4.0669525E-05 -1 0.0003172079
vn -4.066953E-05 -1 0.00031720792
vn -0.00040378192 -1 9.954191E-05
vn -0.0010909726 0 0.9999994
vn -0.0010909726 0 0.9999994
vn -0.0010909726 0 0.9999994
vn -0.0020393303 0.0009488705 0.9999975
vn -0.0008069913 -0.99999976 -5.4731114E-05
vn -0.0008084249 -0.99999964 -5.7913967E-05
vn -0.00040378177 -1 -1.820422E-05
vn -0.0008069913 -0.99999976 -5.4731114E-05
vn -0.00080699136 -0.99999976 -5.4731114E-05
vn -0.0008069852 -0.99999213 -0.0038824524
vn -0.0072941883 -0.9999734 0
vn -0 0 1
vn -0 0 1
vn -0 0 1
vn -0 0 1
vn -0 0 1
vn -0 0 -1
vn -0 0 -1
vn -0 0 -1
vn -0 0 -1
vn -0 0 -1
vn -0 0 -1
vn -0 0 -1
vn -0 2.770806E-07 -1
vn -0.2979447 -0.93933964 0.16991174
vn -0.2979447 -0.93933964 0.16991173
vn -0.2979447 -0.93933964 0.16991173
vn -0.29794607 -0.9393391 0.16991259
vn -0.29794237 -0.93934023 0.16991213
vn -0.2979442 -0.9393398 0.16991183
vn -0.29794237 -0.93934023 0.16991213
vn -0.29794243 -0.93934023 0.16991214
vn -0.29794547 -0.9393395 0.16991144
vn -0.29794487 -0.93933964 0.16991156
vn -0.29794487 -0.93933964 0.16991158
vn -0.29794544 -0.9393395 0.16991144
vn 0.9999995 -0.0010275394 0
vn 0.99999964 -0.0008600227 2.7347463E-05
vn 0.9999995 -0.0010275395 0
vn 0.99999964 -0.00086002273 2.7347458E-05
vn 0.99999964 -0.0008600226 2.7347458E-05
vn 0.99999964 -0.00085881865 -1.3057744E-06
vn 0.99999964 -0.0008588187 -1.3057745E-06
vn 0.99999964 -0.0008588187 -1.3057745E-06
vn -0.3583953 -0.75571734 0.54812795
vn -0.35839537 -0.75571734 0.54812795
vn -0.3583953 -0.75571734 0.54812795
vn -0.35839602 -0.75571513 0.5481304
vn -0.35839605 -0.75571513 0.5481304
vn -0.35839218 -0.75571805 0.5481288
vn -0.35839376 -0.7557186 0.5481271
vn 0.47252923 0.12842129 0.8719083
vn 0.4725292 0.12842129 0.8719083
vn 0.47252923 0.12842129 0.8719083
vn 0.4725306 0.12842286 0.8719073
vn 0.47253034 0.128416 0.8719085
vn 0.47253326 0.12842216 0.87190604
vn 0.4725292 0.12842475 0.87190783
vn 0.47253332 0.12842216 0.87190604
vn 0.472508 0.12875625 0.8718704
vn 0.47250807 0.12875627 0.8718704
vn 0.47253028 0.128416 0.8719085
vn 0.78605 0.43839592 -0.43581456
vn 0.78605 0.43839592 -0.4358146
vn 0.78605 0.43839592 -0.4358146
vn 0.78605074 0.43839565 -0.43581346
vn 0.78605026 0.43839708 -0.43581313
vn 0.78604805 0.4383957 -0.4358183
vn 0.7860509 0.438396 -0.43581298
vn 0.78605074 0.4383957 -0.43581346
vn 0.7860507 0.4383948 -0.43581438
vn 0.78605086 0.438396 -0.43581295
vn 0.7860507 0.43839487 -0.43581438
vn 0.78605074 0.43839487 -0.43581438
g Device_Prop_Box_010_v_030_0
f 3/3/3 2/2/2 1/1/1
f 5/5/5 1/1/1 4/4/4
f 6/6/6 4/4/4 1/1/1
f 6/6/6 1/1/1 7/7/7
f 7/7/7 1/1/1 8/8/8
f 11/11/11 10/10/10 9/9/9
f 14/14/14 13/13/13 12/12/12
f 17/17/17 16/16/16 15/15/15
f 15/15/15 16/16/16 18/18/18
f 19/19/19 18/18/18 16/16/16
f 15/15/15 18/18/18 20/20/20
f 21/21/21 20/20/20 18/18/18
f 15/15/15 20/20/20 22/22/22
f 25/25/25 24/24/24 23/23/23
f 24/24/24 26/26/26 23/23/23
f 27/27/27 23/23/23 26/26/26
f 30/30/30 29/29/29 28/28/28
f 28/28/28 29/29/29 31/31/31
f 32/32/32 31/31/31 29/29/29
f 35/35/35 34/34/34 33/33/33
f 36/36/36 33/33/33 34/34/34
f 36/36/36 37/37/37 33/33/33
f 38/38/38 33/33/33 37/37/37
f 33/33/33 38/38/38 39/39/39
f 40/40/40 39/39/39 38/38/38
f 33/33/33 39/39/39 41/41/41
f 44/44/44 43/43/43 42/42/42
f 43/43/43 45/45/45 42/42/42
f 46/46/46 42/42/42 45/45/45
f 49/49/49 48/48/48 47/47/47
f 47/47/47 48/48/48 50/50/50
f 51/51/51 50/50/50 48/48/48
f 54/54/54 53/53/53 52/52/52
f 53/53/53 55/55/55 52/52/52
f 56/56/56 52/52/52 55/55/55
f 59/59/59 58/58/58 57/57/57
f 58/58/58 60/60/60 57/57/57
f 61/61/61 57/57/57 60/60/60
f 62/62/62 57/57/57 61/61/61
f 65/65/65 64/64/64 63/63/63
f 64/64/64 66/66/66 63/63/63
f 67/67/67 63/63/63 66/66/66
f 70/70/70 69/69/69 68/68/68
f 68/68/68 69/69/69 71/71/71
f 72/72/72 71/71/71 69/69/69
f 75/75/75 74/74/74 73/73/73
f 76/76/76 73/73/73 74/74/74
f 79/79/79 78/78/78 77/77/77
f 80/80/80 77/77/77 78/78/78
f 83/83/83 82/82/82 81/81/81
f 82/82/82 84/84/84 81/81/81
f 85/85/85 81/81/81 84/84/84
f 85/85/85 86/86/86 81/81/81
f 81/81/81 86/86/86 87/87/87
f 90/90/90 89/89/89 88/88/88
f 89/89/89 90/90/90 91/91/91
f 92/92/92 91/91/91 90/90/90
f 95/95/95 94/94/94 93/93/93
f 96/96/96 93/93/93 94/94/94
f 96/96/96 94/94/94 97/97/97
f 96/96/96 98/98/98 93/93/93
f 99/99/99 93/93/93 98/98/98
f 93/93/93 99/99/99 100/100/100
f 103/103/103 102/102/102 101/101/101
f 102/102/102 104/104/104 101/101/101
f 104/104/104 105/105/105 101/101/101
f 105/105/105 106/106/106 101/101/101
f 107/107/107 105/105/105 104/104/104
f 108/108/108 105/105/105 107/107/107
f 109/109/109 104/104/104 102/102/102
f 110/110/110 109/109/109 102/102/102
f 111/111/111 110/110/110 102/102/102
f 112/112/112 109/109/109 110/110/110
f 115/115/115 114/114/114 113/113/113
f 116/116/116 113/113/113 114/114/114
f 114/114/114 117/117/117 116/116/116
f 117/117/117 119/119/119 118/118/118
f 120/120/120 118/118/118 119/119/119
f 123/123/123 122/122/122 121/121/121
f 122/122/122 124/124/124 121/121/121
f 125/125/125 124/124/124 122/122/122
f 124/124/124 126/126/126 121/121/121
f 126/126/126 127/127/127 121/121/121
f 130/130/130 129/129/129 128/128/128
f 129/129/129 131/131/131 128/128/128
f 131/131/131 132/132/132 128/128/128
f 132/132/132 133/133/133 128/128/128
f 128/128/128 133/133/133 134/134/134
f 135/135/135 133/133/133 132/132/132
f 136/136/136 132/132/132 131/131/131
f 137/137/137 136/136/136 131/131/131
f 138/138/138 132/132/132 136/136/136
f 141/141/141 140/140/140 139/139/139
f 140/140/140 142/142/142 139/139/139
f 139/139/139 142/142/142 143/143/143
f 144/144/144 142/142/142 140/140/140
f 145/145/145 142/142/142 144/144/144
f 146/146/146 142/142/142 145/145/145
f 147/147/147 145/145/145 144/144/144
f 148/148/148 145/145/145 147/147/147
f 149/149/149 147/147/147 144/144/144
f 150/150/150 147/147/147 149/149/149
