g Device_Prop_Box_01_v_053
v -0.3081072 0.10521679 -0.0049986774
v 0.2797429 -0.20217608 -0.004998726
v -0.3081072 -0.20217608 -0.004998726
v -0.20599574 0.15179929 -0.004998629
v 0.27974287 0.22621161 -0.004998629
v -0.04287985 0.22621161 -0.004998629
v -0.3081072 -0.20217608 -0.004998726
v -0.30810717 0.10379913 0.0021438613
v -0.3081072 0.10521679 -0.0049986774
v -0.3081072 0.10323195 0.005001342
v -0.3081072 -0.20217608 0.0050012935
v -0.3081072 -0.20217608 0.0050012935
v 0.2797429 -0.20217608 -0.004998726
v 0.2797429 -0.20217608 0.0050012935
v -0.3081072 -0.20217608 -0.004998726
v 0.2797429 -0.20217608 0.0050012935
v 0.27974287 0.22621161 -0.004998629
v 0.27974287 0.22621161 0.005001342
v 0.2797429 -0.20217608 -0.004998726
v 0.27974287 0.22621161 0.005001342
v -0.3081072 -0.20217608 0.0050012935
v 0.2797429 -0.20217608 0.0050012935
v -0.3081072 0.10323195 0.005001342
v -0.038528904 0.22621161 0.005001342
v 0.27974287 0.22621161 0.005001342
v -0.04090216 0.22621161 -0.00045317
v -0.038528904 0.22621161 0.005001342
v -0.04287985 0.22621161 -0.004998629
v 0.27974287 0.22621161 -0.004998629
v -0.30810717 0.10379913 0.0021438613
v -0.20599574 0.15179929 -0.004998629
v -0.3081072 0.10521679 -0.0049986774
v -0.3081072 0.10323195 0.005001342
v -0.04090216 0.22621161 -0.00045317
v -0.04287985 0.22621161 -0.004998629
v -0.038528904 0.22621161 0.005001342
vt 0.2075156 0.35158956
vt 0.051029615 0.0523298
vt 0.05102955 0.35158956
vt 0.23122959 0.2996072
vt 0.26911104 0.052329853
vt 0.26911104 0.21656898
vt 0.05102955 0.35158956
vt 0.2067939 0.35158956
vt 0.2075156 0.35158956
vt 0.20650516 0.35158956
vt 0.05102955 0.35158956
vt 0.05102955 0.35158956
vt 0.051029615 0.0523298
vt 0.051029615 0.0523298
vt 0.05102955 0.35158956
vt 0.051029615 0.0523298
vt 0.26911104 0.052329853
vt 0.26911104 0.052329853
vt 0.051029615 0.0523298
vt 0.26911104 0.052329853
vt 0.05102955 0.35158956
vt 0.051029615 0.0523298
vt 0.20650516 0.35158956
vt 0.26911104 0.21435402
vt 0.26911104 0.052329853
vt 0.26911104 0.2155622
vt 0.26911104 0.21435402
vt 0.26911104 0.21656898
vt 0.26911104 0.052329853
vt 0.024282074 3.8146972E-08
vt 0.0114073185 0.08808498
vt 0.018548317 0
vt 0.026575929 1.9073486E-08
vt 0.0035106277 0.23050056
vt 0 0.22879453
vt 0.0077233124 0.23254782
vn -0 -5.687471E-07 1
vn -0 0 1
vn -0 0 1
vn -0 0 1
vn -0 0 1
vn -0 0 1
vn 1 0 -6.767193E-06
vn 1 0 -6.767194E-06
vn 1 0 -6.767193E-06
vn 1 -2.75778E-07 8.422424E-06
vn 1 0 0
vn -0 1 0
vn -0 1 0
vn -0 1 0
vn -0 1 0
vn -1 0 0
vn -1 0 0
vn -1 0 0
vn -1 0 0
vn -0 0 -1
vn -0 0 -1
vn -0 0 -1
vn -0 0 -1
vn -0 0 -1
vn -0 -1 0
vn -0 -1 0
vn -0 -1 0
vn -0 -1 0
vn -0 -1 0
vn 0.40843853 -0.8953201 -0.1777073
vn 0.40843862 -0.89531994 -0.17770807
vn 0.4084384 -0.89531994 -0.17770825
vn 0.40843824 -0.89531946 -0.17771134
vn 0.4084383 -0.89531946 -0.17771134
vn 0.40843862 -0.89531994 -0.17770807
vn 0.40843824 -0.89531946 -0.17771131
g Device_Prop_Box_01_v_053_0
f 3/3/3 2/2/2 1/1/1
f 2/2/2 4/4/4 1/1/1
f 5/5/5 4/4/4 2/2/2
f 6/6/6 4/4/4 5/5/5
f 9/9/9 8/8/8 7/7/7
f 8/8/8 10/10/10 7/7/7
f 10/10/10 11/11/11 7/7/7
f 14/14/14 13/13/13 12/12/12
f 15/15/15 12/12/12 13/13/13
f 18/18/18 17/17/17 16/16/16
f 19/19/19 16/16/16 17/17/17
f 22/22/22 21/21/21 20/20/20
f 21/21/21 23/23/23 20/20/20
f 23/23/23 24/24/24 20/20/20
f 27/27/27 26/26/26 25/25/25
f 26/26/26 28/28/28 25/25/25
f 28/28/28 29/29/29 25/25/25
f 32/32/32 31/31/31 30/30/30
f 31/31/31 33/33/33 30/30/30
f 34/34/34 33/33/33 31/31/31
f 35/35/35 34/34/34 31/31/31
f 36/36/36 33/33/33 34/34/34
