g Device_Prop_Box_008_v_020
v -0.683085 0.012675001 -0.57748246
v -0.68308496 -0.010422911 0.6235958
v -0.683085 0.012674808 0.6302214
v 0.81005424 0.012674808 0.26867738
v 0.81005424 -0.010676383 -0.4709533
v 0.81005424 0.012675001 -0.4801856
v 0.8100541 0.003485446 0.26546857
v 0.81005424 -0.012724998 -0.4701433
v 0.81005424 -0.010676383 -0.4709533
v 0.81005424 0.012674808 0.26867738
v 0.8100541 0.003485446 0.26546857
v 0.81005424 -0.012724998 -0.4701433
v 0.8100541 -0.012725095 0.25980827
v -0.68308496 -0.010422911 0.6235958
v -0.683085 -0.012724998 -0.57748246
v -0.683085 -0.012725192 0.6229353
v -0.683085 -0.012724998 -0.57748246
v -0.68308496 -0.010422911 0.6235958
v -0.683085 0.012675001 -0.57748246
v -0.683085 -0.012724998 -0.57748246
v 0.078137584 0.00022421112 -0.57748246
v 0.041478995 -0.012724998 -0.57748246
v 0.11338446 0.012675001 -0.57748246
v -0.683085 0.012675001 -0.57748246
v 0.11338446 0.012675001 -0.57748246
v 0.81005424 0.012674808 0.26867738
v 0.81005424 0.012675001 -0.4801856
v -0.683085 0.012675001 -0.57748246
v 0.4415044 0.012674808 0.417306
v -0.683085 0.012674808 0.6302214
v -0.3133457 0.012674808 0.721722
v -0.683085 -0.012724998 -0.57748246
v -0.57674533 -0.012725095 0.64925164
v -0.683085 -0.012725192 0.6229353
v 0.70525527 -0.012724998 -0.4847795
v 0.041478995 -0.012724998 -0.57748246
v 0.8100541 -0.012725095 0.25980827
v 0.81005424 -0.012724998 -0.4701433
v -0.3157781 -0.012725192 0.71383375
v 0.81005424 -0.010676383 -0.4709533
v 0.11338446 0.012675001 -0.57748246
v 0.81005424 0.012675001 -0.4801856
v 0.70525527 -0.012724998 -0.4847795
v 0.81005424 -0.012724998 -0.4701433
v 0.078137584 0.00022421112 -0.57748246
v 0.041478995 -0.012724998 -0.57748246
v 0.4415044 0.012674808 0.417306
v 0.8100541 0.003485446 0.26546857
v 0.81005424 0.012674808 0.26867738
v -0.3133457 0.012674808 0.721722
v 0.8100541 -0.012725095 0.25980827
v -0.3157781 -0.012725192 0.71383375
v -0.57674533 -0.012725095 0.64925164
v -0.68308496 -0.010422911 0.6235958
v -0.683085 -0.012725192 0.6229353
v -0.3133457 0.012674808 0.721722
v -0.3157781 -0.012725192 0.71383375
v -0.683085 0.012674808 0.6302214
vt 1.9396145 0.069198
vt 1.9396144 0.31052116
vt 1.9396145 0.3118524
vt 1.6396091 0.2392102
vt 1.639609 0.09060207
vt 1.639609 0.088747084
vt 1.6396091 0.23856547
vt 1.639609 0.090764806
vt 1.639609 0.09060207
vt 1.6396091 0.2392102
vt 1.6396091 0.23856547
vt 1.639609 0.090764806
vt 1.6396091 0.23742822
vt 1.9396144 0.31052116
vt 1.9396145 0.069198
vt 1.9396145 0.31038848
vt 1.9396145 0.069198
vt 1.9396144 0.31052116
vt 1.9396145 0.069198
vt 1.9396145 0.069198
vt 1.7866676 0.069198
vt 1.7940332 0.069198
vt 1.7795857 0.069198
vt 1.9396145 0.069198
vt 1.7795857 0.069198
vt 1.6396091 0.2392102
vt 1.639609 0.088747084
vt 1.9396145 0.069198
vt 1.713659 0.269073
vt 1.9396145 0.3118524
vt 1.8653256 0.33023685
vt 1.9396145 0.069198
vt 1.9182484 0.31567597
vt 1.9396145 0.31038848
vt 1.6606655 0.08782408
vt 1.7940332 0.069198
vt 1.6396091 0.23742822
vt 1.639609 0.090764806
vt 1.8658142 0.32865196
vt 8.8195804E-05 0.0017324067
vt 0.5549765 0.021478577
vt 0.0010936738 0.021478577
vt 0.0833197 0
vt 0 0
vt 0.5824632 0.0109500885
vt 0.6110508 0
vt 0.70240766 0.021022491
vt 1.0162587 0.0134169
vt 1.0153137 0.021022644
vt 0.061524853 0.021022491
vt 1.0179256 1.5258789E-07
vt 0.062071525 9.304572E-09
vt 0.086257935 1.5258789E-07
vt 0.00012495041 0.0018818665
vt 0 0
vt 0.30129403 0.020760955
vt 0.29794273 0
vt 0.0013781929 0.020760955
vn 1 2.097465E-06 0
vn 1 2.0974646E-06 0
vn 1 2.0974649E-06 0
vn -1 0 0
vn -1 0 0
vn -1 0 0
vn -1 0 0
vn -1 0 0
vn -1 1.06616135E-05 -3.3660226E-07
vn -1 1.0661613E-05 -3.3660223E-07
vn -1 1.06616135E-05 -3.3660223E-07
vn -1 0 0
vn -1 0 0
vn 1 -2.1042886E-05 0
vn 1 -2.1042886E-05 0
vn 1 -2.1042886E-05 0
vn 1 0 0
vn 1 0 0
vn 1 0 0
vn -0 0 1
vn -0 0 1
vn -0 0 1
vn -0 0 1
vn -0 0 1
vn -0 -1 -2.587745E-07
vn -0 -1 -2.587745E-07
vn -0 -1 -2.587745E-07
vn -0 -1 0
vn -0 -1 0
vn -0 -1 0
vn -0 -1 0
vn -9.511184E-07 1 0
vn -9.511185E-07 1 0
vn -9.511184E-07 1 0
vn -0 1 0
vn -0 1 0
vn -0 1 0
vn -0 1 0
vn -0 1 7.02801E-07
vn -0.12879571 0.36461088 0.9222096
vn -0.12879571 0.36461094 0.9222096
vn -0.12879573 0.3646109 0.9222096
vn -0.12879558 0.36461407 0.9222084
vn -0.12879525 0.36462083 0.9222057
vn -0.12879558 0.364614 0.9222084
vn -0.12879556 0.36461398 0.9222084
vn -0.35581756 0.3080959 -0.8823099
vn -0.35581762 0.30809593 -0.8823099
vn -0.3558176 0.3080959 -0.8823099
vn -0.35581985 0.30808002 -0.8823145
vn -0.3558196 0.30808184 -0.88231397
vn -0.35581884 0.3080875 -0.8823124
vn 0.2314228 0.2682463 -0.9351403
vn 0.23142277 0.2682463 -0.9351403
vn 0.23142278 0.26824632 -0.9351403
vn 0.23142213 0.26824865 -0.9351398
vn 0.23142058 0.26825663 -0.9351379
vn 0.23142213 0.26824865 -0.9351398
g Device_Prop_Box_008_v_020_0
f 3/3/3 2/2/2 1/1/1
f 6/6/6 5/5/5 4/4/4
f 5/5/5 8/8/8 7/7/7
f 11/11/11 10/10/10 9/9/9
f 13/13/13 11/11/11 12/12/12
f 16/16/16 15/15/15 14/14/14
f 19/19/19 18/18/18 17/17/17
f 22/22/22 21/21/21 20/20/20
f 21/21/21 23/23/23 20/20/20
f 24/24/24 20/20/20 23/23/23
f 27/27/27 26/26/26 25/25/25
f 25/25/25 26/26/26 28/28/28
f 26/26/26 29/29/29 28/28/28
f 28/28/28 29/29/29 30/30/30
f 31/31/31 30/30/30 29/29/29
f 34/34/34 33/33/33 32/32/32
f 33/33/33 35/35/35 32/32/32
f 32/32/32 35/35/35 36/36/36
f 35/35/35 33/33/33 37/37/37
f 38/38/38 35/35/35 37/37/37
f 37/37/37 33/33/33 39/39/39
f 42/42/42 41/41/41 40/40/40
f 41/41/41 43/43/43 40/40/40
f 40/40/40 43/43/43 44/44/44
f 45/45/45 43/43/43 41/41/41
f 46/46/46 43/43/43 45/45/45
f 49/49/49 48/48/48 47/47/47
f 47/47/47 48/48/48 50/50/50
f 48/48/48 51/51/51 50/50/50
f 51/51/51 52/52/52 50/50/50
f 55/55/55 54/54/54 53/53/53
f 54/54/54 56/56/56 53/53/53
f 56/56/56 57/57/57 53/53/53
f 58/58/58 56/56/56 54/54/54
