g Device_Prop_Box_004_v_026
v 0.0026047828 0.21288545 -0.032725528
v 0.0025429649 -0.23653643 0.017703619
v 0.0025832725 0.20855577 0.113598615
v 0.0025429649 -0.23653643 0.017703619
v 0.0026047828 0.21288545 -0.032725528
v 0.0025524604 -0.2182156 -0.03269948
v -0.07358746 -0.051047806 0.18325168
v -0.07358746 0.20674048 0.1453055
v -0.07358746 0.20561773 0.18325168
v -0.07358746 -0.15705878 0.10283149
v -0.073587365 0.21426041 -0.108848274
v -0.073587365 -0.14980975 -0.108848274
v -0.07358746 -0.2117021 0.061378907
v -0.020287909 -0.13229275 0.18325168
v 0.0026125342 0.2064952 0.18325168
v 0.0026125342 -0.16720013 0.18325168
v -0.0086105205 0.20636594 0.18325168
v -0.07358746 -0.051047806 0.18325168
v -0.07358746 0.20561773 0.18325168
v 0.13236168 0.2143796 -0.03272573
v 0.1323487 -0.26515478 -0.09451442
v 0.13234808 -0.28764066 -0.032668967
v 0.13236178 0.21521413 -0.060930014
v 0.13234313 -0.25994015 -0.10884832
v 0.13234308 0.21663179 -0.10884832
v 0.043838795 0.21335989 -0.032714147
v 0.0025524604 -0.2182156 -0.03269948
v 0.0026047828 0.21288545 -0.032725528
v 0.106944636 -0.2740556 -0.03266721
v 0.13234808 -0.28764066 -0.032668967
v 0.13236168 0.2143796 -0.03272573
v 0.0026125342 -0.16720013 0.18325168
v 0.0025429649 -0.23653643 0.017703619
v 0.002580172 -0.26873004 0.10619337
v 0.0025832725 0.20855577 0.113598615
v 0.0026125342 0.2064952 0.18325168
v -0.07358746 0.20674048 0.1453055
v -0.0086105205 0.20636594 0.18325168
v -0.07358746 0.20561773 0.18325168
v 0.0025832725 0.20855577 0.113598615
v 0.0026125342 0.2064952 0.18325168
v 0.0026047828 0.21288545 -0.032725528
v 0.02324548 0.21537547 -0.108848296
v -0.073587365 0.21426041 -0.108848274
v 0.13234308 0.21663179 -0.10884832
v 0.13236168 0.2143796 -0.03272573
v 0.043838795 0.21335989 -0.032714147
v 0.13236178 0.21521413 -0.060930014
v 0.13234308 0.21663179 -0.10884832
v 0.09577409 -0.24038324 -0.10884831
v 0.13234313 -0.25994015 -0.10884832
v 0.02324548 0.21537547 -0.108848296
v -0.073587365 -0.14980975 -0.108848274
v -0.073587365 0.21426041 -0.108848274
v 0.002580172 -0.26873004 0.10619337
v -0.020287909 -0.13229275 0.18325168
v 0.0026125342 -0.16720013 0.18325168
v -0.07358746 -0.15705878 0.10283149
v -0.07358746 -0.2117021 0.061378907
v -0.07358746 -0.051047806 0.18325168
v 0.1323487 -0.26515478 -0.09451442
v 0.106944636 -0.2740556 -0.03266721
v 0.13234808 -0.28764066 -0.032668967
v 0.0025524604 -0.2182156 -0.03269948
v -0.073587365 -0.14980975 -0.108848274
v 0.09577409 -0.24038324 -0.10884831
v 0.13234313 -0.25994015 -0.10884832
v -0.07358746 -0.2117021 0.061378907
v 0.0025429649 -0.23653643 0.017703619
v 0.002580172 -0.26873004 0.10619337
vt 1.3956319 0.8426319
vt 1.3012322 0.84263194
vt 1.3946793 0.84263194
vt 1.3012322 0.84263194
vt 1.3956319 0.8426319
vt 1.3050947 0.84263194
vt 1.1861552 0.47036183
vt 1.1327784 0.4625048
vt 1.1330109 0.47036183
vt 1.2081056 0.4537103
vt 1.1312213 0.40988055
vt 1.2066046 0.40988058
vt 1.2194198 0.44512725
vt 1.3250452 0.8473736
vt 1.3944545 0.84263194
vt 1.3162358 0.84263194
vt 1.395164 0.8449557
vt 1.3418806 0.85840964
vt 1.3950249 0.85840964
vt 1.8435996 0.4934404
vt 1.8307946 0.5927307
vt 1.8435996 0.59737754
vt 1.8377597 0.49327153
vt 1.8278217 0.59164906
vt 1.8278219 0.4929716
vt 1.8435996 0.49505752
vt 1.8435996 0.58349454
vt 1.8435996 0.495143
vt 1.8435996 0.5949684
vt 1.8435996 0.59737754
vt 1.8435996 0.4934404
vt 1.3162358 0.84263194
vt 1.3012322 0.84263194
vt 1.2947559 0.84263194
vt 1.3946793 0.84263194
vt 1.3944545 0.84263194
vt 0.20026393 0
vt 0.23013845 0.05116646
vt 0.23015587 7.6293944E-08
vt 0.17526652 0.059981003
vt 0.23013544 0.060004044
vt 0.06000023 0.05999794
vt 2.9258728E-05 0.07625157
vt 5.5274963E-05 1.5258789E-07
vt 0 0.16216083
vt 0.059965286 0.16217548
vt 0.059998132 0.09246776
vt 0.037747458 0.16217557
vt 1.4577866 0.04763944
vt 1.3631585 0.040067576
vt 1.359109 0.047639452
vt 1.4575264 0.025049988
vt 1.3819125 0.0050000856
vt 1.4572957 0.0050000744
vt 0.17621338 0.20895216
vt 0.07651009 0.28382832
vt 0.109383084 0.28382832
vt 0.06979446 0.20568547
vt 0.105770014 0.16540675
vt 0 0.28382835
vt 0.14948702 0.18148346
vt 0.10132484 0.15909584
vt 0.097670995 0.18148293
vt 0.11637287 0.067099154
vt 0.19112854 7.6293944E-08
vt 0.16675915 0.14925171
vt 0.16149724 0.18147857
vt 0.048506737 0
vt 0.0741449 0.06709076
vt 0 0.06712356
vn 1 -0.00012145793 0.00014341065
vn 1 -0.00012145794 0.00014341067
vn 1 -0.00012145793 0.00014341065
vn 1 -0.0001213605 0.00014427923
vn 1 -0.00012136049 0.00014427923
vn 1 -0.0001213605 0.00014427923
vn -1 0 0
vn -1 0 0
vn -1 0 0
vn -1 0 0
vn -1 0 -4.577354E-07
vn -1 3.3844702E-07 -4.4614512E-07
vn -1 3.38447E-07 -4.4614512E-07
vn -0 0 1
vn -0 0 1
vn -0 0 1
vn -0 0 1
vn -0 0 1
vn -0 0 1
vn 1 -2.7117418E-05 3.241531E-07
vn 1 -2.7117418E-05 3.241531E-07
vn 1 -2.7117421E-05 3.241531E-07
vn 1 -2.7413784E-05 2.6242587E-06
vn 1 0 -0.00039025303
vn 1 0 -0.00039025303
vn -0.00027679454 6.046464E-05 1
vn -0.00027679454 6.046464E-05 1
vn -0.00027665487 6.045128E-05 1
vn -0.00027679454 6.0464637E-05 1
vn 0.00012960473 0.000113081296 1
vn 0.00012949713 0.000113062284 1
vn 1 2.9418584E-07 -0.00042036013
vn 1 2.9418587E-07 -0.00042036013
vn 1 2.9418587E-07 -0.00042036013
vn 1 0 -0.00042022756
vn 1 0 -0.00042010762
vn -0.01150921 0.99949634 0.029573085
vn -0.01150921 0.99949634 0.029573085
vn -0.011509209 0.99949634 0.029573081
vn -0.011511177 0.99949634 0.029573439
vn -0.011511177 0.99949634 0.029573433
vn -0.0115098385 0.99949634 0.029573033
vn -0.01150974 0.99949634 0.029573137
vn -0.011509378 0.99949634 0.029573236
vn -0.011553304 0.99949586 0.029574234
vn -0.011508142 0.9994137 0.032245982
vn -0.01150814 0.9994137 0.03224598
vn -0.011553304 0.99949586 0.029574234
vn -0 0 -1
vn -0 0 -1
vn -0 0 -1
vn -0 0 -1
vn -0 0 -1
vn -0 0 -1
vn -0.6775578 -0.4445011 0.5859472
vn -0.6775578 -0.4445011 0.58594716
vn -0.6775578 -0.44450116 0.5859472
vn -0.6775572 -0.44450143 0.5859478
vn -0.67755723 -0.44450146 0.5859475
vn -0.6775572 -0.44450143 0.5859478
vn -0.4490759 -0.8397126 -0.30530885
vn -0.4490759 -0.8397126 -0.30530885
vn -0.4490759 -0.8397126 -0.30530885
vn -0.44907376 -0.83971405 -0.3053082
vn -0.44907397 -0.8397137 -0.30530903
vn -0.44907376 -0.8397133 -0.3053102
vn -0.4490736 -0.8397133 -0.30531052
vn -0.4490739 -0.8397137 -0.30530897
vn -0.44907397 -0.8397137 -0.305309
vn -0.4490739 -0.8397137 -0.30530903
g Device_Prop_Box_004_v_026_0
f 3/3/3 2/2/2 1/1/1
f 6/6/6 5/5/5 4/4/4
f 9/9/9 8/8/8 7/7/7
f 10/10/10 7/7/7 8/8/8
f 10/10/10 8/8/8 11/11/11
f 12/12/12 10/10/10 11/11/11
f 13/13/13 10/10/10 12/12/12
f 16/16/16 15/15/15 14/14/14
f 17/17/17 14/14/14 15/15/15
f 14/14/14 17/17/17 18/18/18
f 19/19/19 18/18/18 17/17/17
f 22/22/22 21/21/21 20/20/20
f 23/23/23 20/20/20 21/21/21
f 21/21/21 24/24/24 23/23/23
f 25/25/25 23/23/23 24/24/24
f 28/28/28 27/27/27 26/26/26
f 29/29/29 26/26/26 27/27/27
f 29/29/29 30/30/30 26/26/26
f 31/31/31 26/26/26 30/30/30
f 34/34/34 33/33/33 32/32/32
f 33/33/33 35/35/35 32/32/32
f 32/32/32 35/35/35 36/36/36
f 39/39/39 38/38/38 37/37/37
f 38/38/38 40/40/40 37/37/37
f 41/41/41 40/40/40 38/38/38
f 40/40/40 42/42/42 37/37/37
f 42/42/42 43/43/43 37/37/37
f 43/43/43 44/44/44 37/37/37
f 45/45/45 43/43/43 42/42/42
f 46/46/46 45/45/45 42/42/42
f 47/47/47 46/46/46 42/42/42
f 48/48/48 45/45/45 46/46/46
f 51/51/51 50/50/50 49/49/49
f 52/52/52 49/49/49 50/50/50
f 50/50/50 53/53/53 52/52/52
f 54/54/54 52/52/52 53/53/53
f 57/57/57 56/56/56 55/55/55
f 56/56/56 58/58/58 55/55/55
f 58/58/58 59/59/59 55/55/55
f 60/60/60 58/58/58 56/56/56
f 63/63/63 62/62/62 61/61/61
f 62/62/62 64/64/64 61/61/61
f 64/64/64 65/65/65 61/61/61
f 65/65/65 66/66/66 61/61/61
f 61/61/61 66/66/66 67/67/67
f 68/68/68 65/65/65 64/64/64
f 69/69/69 68/68/68 64/64/64
f 70/70/70 68/68/68 69/69/69
