g Device_Prop_Box_009_v_030
v 0.012683819 -0.7493645 -0.43831453
v -0.007141521 0.97544134 -0.4383143
v 0.012683819 0.981255 -0.43831432
v -0.012716181 -0.7493645 -0.43831453
v -0.007141521 0.97544134 -0.4383143
v 0.012683819 -0.7493645 -0.43831453
v -0.007141521 0.97544134 -0.4383143
v -0.012716181 -0.7493645 -0.43831453
v -0.012716181 0.97380656 -0.43831432
v -0.012716181 0.97380656 -0.43831432
v -0.012716181 0.6780755 0.30692166
v -0.012716181 0.9848517 -0.38656145
v -0.012716181 -0.7493645 -0.43831453
v -0.012716181 0.5460705 0.33596843
v -0.012716181 -0.74936473 0.6210206
v -0.012716181 -0.7493645 -0.43831453
v 0.007692941 -0.74936473 0.62295604
v -0.012716181 -0.74936473 0.6210206
v 0.012683916 -0.7493648 0.62342936
v 0.012683819 -0.7493645 -0.43831453
v 0.012683819 0.6890934 0.30690607
v 0.012683819 -0.06340923 0.47248936
v 0.012683819 0.85999787 -0.07943178
v 0.012683819 -0.7493645 -0.43831453
v 0.012683916 -0.7493648 0.62342936
v 0.012683819 0.981255 -0.43831432
v 0.012683819 0.9934596 -0.3811285
v 0.012683819 -0.06340923 0.47248936
v 0.007692941 -0.74936473 0.62295604
v 0.012683916 -0.7493648 0.62342936
v -0.012716181 0.5460705 0.33596843
v -0.012716181 -0.74936473 0.6210206
v 0.012683819 0.6890934 0.30690607
v -0.012716181 0.6780755 0.30692166
v 0.012683819 0.85999787 -0.07943178
v -0.012716181 0.6780755 0.30692166
v 0.012683819 0.6890934 0.30690607
v 0.012683819 0.9934596 -0.3811285
v -0.012716181 0.9848517 -0.38656145
v -0.007141521 0.97544134 -0.4383143
v 0.012683819 0.9934596 -0.3811285
v 0.012683819 0.981255 -0.43831432
v -0.012716181 0.97380656 -0.43831432
v -0.012716181 0.9848517 -0.38656145
vt 0.06986674 0.47474247
vt 0.41632542 0.4747425
vt 0.4174932 0.47474247
vt 0.06986674 0.47474247
vt 0.41632542 0.4747425
vt 0.06986674 0.47474247
vt 0.41632542 0.4747425
vt 0.06986674 0.47474247
vt 0.41599706 0.47474247
vt 0.41599706 0.47474247
vt 0.35659415 0.62443674
vt 0.41821566 0.48513797
vt 0.06986674 0.47474247
vt 0.33007854 0.63027126
vt 0.06986674 0.68752927
vt 0.06986674 0.47474247
vt 0.06986674 0.687918
vt 0.06986674 0.68752927
vt 0.06986674 0.6880131
vt 0.06986674 0.47474247
vt 0.3588073 0.6244336
vt 0.2076534 0.65769404
vt 0.39313653 0.5468306
vt 0.06986674 0.47474247
vt 0.06986674 0.6880131
vt 0.4174932 0.47474247
vt 0.41994473 0.48622927
vt 0.032218706 0.55293024
vt 0.03949196 7.6293944E-08
vt 0.043439485 0
vt 0.0021592712 1.0442154
vt 0.023349686 1.5258789E-07
vt 0.019909516 1.1595024
vt 0 1.150621
vt 0.30899984 0.021514434
vt 0.6451598 0
vt 0.6416389 0.021514405
vt 0.049237296 0.021514434
vt 0.048067104 0
vt 0.00026866913 0.0045664976
vt 0.047266386 0.020806199
vt 0.0012240983 0.020806199
vt 0 0
vt 0.041668013 0
vn 1.2546727E-06 0 1
vn 1.2546727E-06 0 1
vn 1.2546728E-06 0 1
vn -0 0 1
vn -0 0 1
vn -0 0 1
vn -4.312278E-06 0 1
vn -4.3122777E-06 0 1
vn -4.312278E-06 0 1
vn 1 0 0
vn 1 0 0
vn 1 0 0
vn 1 0 0
vn 1 0 0
vn 1 0 0
vn -0 1 0
vn -0 1 0
vn -0 1 0
vn 1.943183E-05 1 0
vn -0 1 2.7377595E-07
vn -1 0 0
vn -1 0 0
vn -1 0 0
vn -1 0 0
vn -1 0 0
vn -1 0 0
vn -1 0 0
vn 0.09222131 -0.2139864 -0.9724736
vn 0.092221305 -0.21398637 -0.9724736
vn 0.0922213 -0.2139864 -0.9724736
vn 0.09222191 -0.21398658 -0.9724736
vn 0.09222191 -0.21398658 -0.9724736
vn 0.09222783 -0.21398637 -0.972473
vn 0.09222532 -0.21398602 -0.9724734
vn 0.36854264 -0.8501422 -0.37607774
vn 0.36854264 -0.8501422 -0.37607774
vn 0.36854264 -0.8501422 -0.3760778
vn 0.3685405 -0.85014296 -0.37607822
vn 0.36854914 -0.85014 -0.3760766
vn 0.27567253 -0.9400804 0.20063262
vn 0.27567253 -0.9400804 0.20063262
vn 0.27567253 -0.9400804 0.20063259
vn 0.27567983 -0.9400789 0.2006296
vn 0.2756729 -0.9400803 0.20063314
g Device_Prop_Box_009_v_030_0
f 3/3/3 2/2/2 1/1/1
f 6/6/6 5/5/5 4/4/4
f 9/9/9 8/8/8 7/7/7
f 12/12/12 11/11/11 10/10/10
f 10/10/10 11/11/11 13/13/13
f 11/11/11 14/14/14 13/13/13
f 13/13/13 14/14/14 15/15/15
f 18/18/18 17/17/17 16/16/16
f 17/17/17 19/19/19 16/16/16
f 20/20/20 16/16/16 19/19/19
f 23/23/23 22/22/22 21/21/21
f 22/22/22 23/23/23 24/24/24
f 25/25/25 22/22/22 24/24/24
f 24/24/24 23/23/23 26/26/26
f 23/23/23 27/27/27 26/26/26
f 30/30/30 29/29/29 28/28/28
f 29/29/29 31/31/31 28/28/28
f 32/32/32 31/31/31 29/29/29
f 28/28/28 31/31/31 33/33/33
f 33/33/33 31/31/31 34/34/34
f 37/37/37 36/36/36 35/35/35
f 35/35/35 36/36/36 38/38/38
f 36/36/36 39/39/39 38/38/38
f 42/42/42 41/41/41 40/40/40
f 40/40/40 41/41/41 43/43/43
f 41/41/41 44/44/44 43/43/43
