g Device_Prop_Box_009_v_005
v -0.012734785 0.19309102 -0.06827924
v -0.007160125 -0.29190388 -0.06827929
v -0.012734785 -0.29353857 -0.06827931
v 0.012665215 0.19309102 -0.06827924
v 0.008920967 0.19309102 0.12642436
v 0.012665215 0.19309093 0.12685035
v -0.012734785 0.19309093 0.1239605
v 0.012665215 0.19309102 -0.06827924
v -0.012734785 0.19309102 -0.06827924
v 0.012665215 0.19309102 -0.06827924
v -0.012734785 0.19309093 0.1239605
v 0.008920967 0.19309102 0.12642436
v 0.012665215 -0.2860901 -0.06827929
v -0.012734785 0.19309102 -0.06827924
v 0.012665215 0.19309102 -0.06827924
v -0.012734785 0.19309102 -0.06827924
v 0.012665215 -0.2860901 -0.06827929
v -0.007160125 -0.29190388 -0.06827929
v 0.012665215 -0.2860901 -0.06827929
v 0.012665215 -0.025394864 0.062309954
v 0.012665215 -0.2738856 -0.011093823
v 0.012665215 0.19309102 -0.06827924
v 0.012665215 0.19309093 0.12685035
v 0.008920967 0.19309102 0.12642436
v 0.012665215 -0.025394864 0.062309954
v 0.012665215 0.19309093 0.12685035
v -0.012734785 0.19309093 0.1239605
v 0.012665215 -0.2738856 -0.011093823
v -0.012734785 -0.2824934 -0.016526414
v -0.012734785 -0.29353857 -0.06827931
v -0.012734785 0.19309093 0.1239605
v -0.012734785 0.19309102 -0.06827924
v -0.012734785 -0.2824934 -0.016526414
v -0.012734785 -0.2824934 -0.016526414
v 0.012665215 -0.2860901 -0.06827929
v 0.012665215 -0.2738856 -0.011093823
v -0.007160125 -0.29190388 -0.06827929
v -0.012734785 -0.29353857 -0.06827931
vt 0.5137455 0.47474247
vt 0.4163254 0.47474244
vt 0.41599703 0.47474247
vt 0.5137455 0.47474247
vt 0.51374555 0.51385224
vt 0.5137455 0.51393783
vt 0.5137455 0.5133573
vt 0.5137455 0.47474247
vt 0.5137455 0.47474247
vt 0.5137455 0.47474247
vt 0.5137455 0.5133573
vt 0.51374555 0.51385224
vt 0.4174932 0.47474247
vt 0.5137455 0.47474247
vt 0.5137455 0.47474247
vt 0.5137455 0.47474247
vt 0.4174932 0.47474247
vt 0.4163254 0.47474244
vt 0.4174932 0.47474247
vt 0.46985862 0.5009737
vt 0.4199447 0.4862292
vt 0.5137455 0.47474247
vt 0.5137455 0.51393783
vt 0.0342733 0.54207
vt 0.031495668 0.36277685
vt 0.037240524 0.5420699
vt 0.017111512 0.5420698
vt 0.024961904 0.15886122
vt 0.0046065925 0.15179747
vt 0.41599703 0.47474247
vt 0.5137455 0.5133573
vt 0.5137455 0.47474247
vt 0.4182157 0.48513797
vt 0.0055981064 0
vt 0.046041984 0.020806199
vt 0 0.020806199
vt 0.04699749 0.0045664976
vt 0.04726616 0
vn -4.301467E-06 0 1
vn -4.301467E-06 0 1
vn -4.3014675E-06 0 1
vn -2.5821413E-05 -1 -4.965588E-07
vn -2.5821413E-05 -1 -4.965588E-07
vn -2.5821413E-05 -1 -4.965588E-07
vn -0 -1 -5.040233E-07
vn -0 -1 -5.040233E-07
vn -0 -1 -5.040233E-07
vn 4.4644853E-06 -1 0
vn 4.464485E-06 -1 0
vn 4.464485E-06 -1 0
vn -0 0 1
vn -0 0 1
vn -0 0 1
vn -0 0 1
vn -0 0 1
vn -0 0 1
vn -1 0 0
vn -1 0 0
vn -1 0 0
vn -1 0 0
vn -1 0 0
vn 0.108474664 0.28162503 -0.9533732
vn 0.108474664 0.28162503 -0.9533732
vn 0.108474664 0.2816251 -0.9533732
vn 0.1084675 0.28162524 -0.9533741
vn 0.108467475 0.28162518 -0.9533741
vn 0.10846902 0.28162524 -0.95337385
vn 1 0 0
vn 1 0 0
vn 1 0 0
vn 1 0 0
vn -0.27567264 0.9400807 -0.20063147
vn -0.27567264 0.9400806 -0.20063144
vn -0.27567264 0.9400806 -0.20063144
vn -0.27567852 0.9400784 -0.20063418
vn -0.2756645 0.9400826 -0.20063345
g Device_Prop_Box_009_v_005_0
f 3/3/3 2/2/2 1/1/1
f 6/6/6 5/5/5 4/4/4
f 9/9/9 8/8/8 7/7/7
f 12/12/12 11/11/11 10/10/10
f 15/15/15 14/14/14 13/13/13
f 18/18/18 17/17/17 16/16/16
f 21/21/21 20/20/20 19/19/19
f 22/22/22 19/19/19 20/20/20
f 22/22/22 20/20/20 23/23/23
f 26/26/26 25/25/25 24/24/24
f 24/24/24 25/25/25 27/27/27
f 25/25/25 28/28/28 27/27/27
f 28/28/28 29/29/29 27/27/27
f 32/32/32 31/31/31 30/30/30
f 33/33/33 30/30/30 31/31/31
f 36/36/36 35/35/35 34/34/34
f 35/35/35 37/37/37 34/34/34
f 34/34/34 37/37/37 38/38/38
