g Device_Prop_Box_01_v_074
v -0.60134053 -0.61159176 -0.012720347
v -0.60134053 0.069377884 0.003175775
v -0.60134053 0.08087263 -0.012720154
v -0.60134053 0.06250544 0.012679846
v -0.60134053 -0.61159176 0.012679652
v -0.60134053 -0.61159176 0.012679652
v 0.004469628 -0.61159176 0.0023742737
v 0.009889137 -0.61159176 0.012679846
v -0.003468187 -0.61159176 -0.012720347
v -0.60134053 -0.61159176 -0.012720347
v 0.8917987 0.4765129 -0.012720154
v 0.8917987 0.37067443 -0.010249568
v 0.8917987 0.372102 -0.012720154
v 0.8917987 0.35742536 0.012679846
v 0.8917987 0.4765129 0.012679846
v 0.8917987 0.4765129 0.012679846
v -0.39663297 0.4765129 -0.009237808
v -0.3884844 0.4765129 0.012679846
v 0.8917987 0.4765129 -0.012720154
v -0.39792758 0.4765129 -0.012720154
v 0.8917987 0.4765129 0.012679846
v 0.009889137 -0.61159176 0.012679846
v 0.8917987 0.35742536 0.012679846
v -0.60134053 -0.61159176 0.012679652
v -0.60134053 0.06250544 0.012679846
v -0.3884844 0.4765129 0.012679846
v 0.8917987 0.4765129 -0.012720154
v -0.4533683 0.36868018 -0.012720154
v -0.39792758 0.4765129 -0.012720154
v 0.3535281 -0.21933448 -0.012720154
v 0.8917987 0.372102 -0.012720154
v -0.60134053 -0.61159176 -0.012720347
v -0.003468187 -0.61159176 -0.012720347
v -0.60134053 0.08087263 -0.012720154
v 0.004469628 -0.61159176 0.0023742737
v 0.8917987 0.35742536 0.012679846
v 0.009889137 -0.61159176 0.012679846
v 0.3535281 -0.21933448 -0.012720154
v -0.003468187 -0.61159176 -0.012720347
v 0.8917987 0.37067443 -0.010249568
v 0.8917987 0.372102 -0.012720154
v -0.4533683 0.36868018 -0.012720154
v -0.39663297 0.4765129 -0.009237808
v -0.39792758 0.4765129 -0.012720154
v -0.60134053 0.06250544 0.012679846
v -0.3884844 0.4765129 0.012679846
v -0.60134053 0.069377884 0.003175775
v -0.60134053 0.08087263 -0.012720154
vt 0.05102955 0.35158956
vt 0.18751171 0.35158956
vt 0.18981552 0.35158956
vt 0.1861343 0.35158956
vt 0.05102955 0.35158956
vt 0.05102955 0.35158956
vt 0.051029578 0.23017114
vt 0.051029578 0.22908497
vt 0.051029578 0.23176208
vt 0.05102955 0.35158956
vt 0.26911104 0.052329853
vt 0.24789855 0.052329846
vt 0.24818467 0.052329846
vt 0.24524313 0.05232985
vt 0.26911104 0.052329853
vt 0.26911104 0.052329853
vt 0.26911104 0.31056142
vt 0.26911104 0.30892825
vt 0.26911104 0.052329853
vt 0.26911104 0.3108209
vt 0.26911104 0.052329853
vt 0.051029578 0.22908497
vt 0.24524313 0.05232985
vt 0.05102955 0.35158956
vt 0.1861343 0.35158956
vt 0.26911104 0.30892825
vt 0.26911104 0.052329853
vt 0.24749885 0.3219325
vt 0.26911104 0.3108209
vt 0.12964709 0.16021173
vt 0.24818467 0.052329846
vt 0.05102955 0.35158956
vt 0.051029578 0.23176208
vt 0.18981552 0.35158956
vt 0.0042068483 0.012752533
vt 1.0387731 0.02145935
vt 0.0070791626 0.02145935
vt 0.41762882 0
vt 0 0
vt 1.0464885 0.0020872497
vt 1.0473198 0
vt 0.098872334 0
vt 0.0029337693 0.0028879547
vt 0.0033998871 0
vt 0.36655217 0.021064911
vt 0 0.021064911
vt 0.36173955 0.013182907
vt 0.35369015 0
vn 1 0 0
vn 1 0 0
vn 1 0 0
vn 1 0 0
vn 1 0 0
vn -0 1 0
vn -0 1 0
vn -0 1 0
vn -0 1 0
vn -0 1 0
vn -1 0 0
vn -1 0 0
vn -1 0 0
vn -1 0 0
vn -1 0 0
vn -0 -1 0
vn -0 -1 0
vn -0 -1 0
vn -0 -1 0
vn -0 -1 0
vn 3.170439E-07 -2.5696428E-07 -1
vn 3.1704388E-07 -2.5696428E-07 -1
vn -0 0 -1
vn 3.1704388E-07 -2.5696428E-07 -1
vn -0 0 -1
vn -0 0 -1
vn -0 0 1
vn -0 0 1
vn -0 0 1
vn -0 0 1
vn -0 0 1
vn -0 -4.9402934E-07 1
vn -0 -4.9402934E-07 1
vn 5.4431246E-07 -2.7985064E-07 1
vn -0.6892707 0.6273102 0.36247468
vn -0.6892707 0.6273102 0.36247468
vn -0.68927073 0.6273102 0.36247468
vn -0.68927133 0.6273107 0.3624726
vn -0.6892725 0.62731194 0.362468
vn -0.68927133 0.6273107 0.3624726
vn -0.68927133 0.6273107 0.3624726
vn 0.8443854 -0.43412903 -0.3139192
vn 0.8443854 -0.4341291 -0.3139192
vn 0.8443854 -0.4341291 -0.3139192
vn 0.8443834 -0.43412787 -0.3139263
vn 0.8443834 -0.43412784 -0.31392625
vn 0.8443852 -0.43412834 -0.31392074
vn 0.8443827 -0.43412757 -0.3139285
g Device_Prop_Box_01_v_074_0
f 3/3/3 2/2/2 1/1/1
f 2/2/2 4/4/4 1/1/1
f 5/5/5 1/1/1 4/4/4
f 8/8/8 7/7/7 6/6/6
f 7/7/7 9/9/9 6/6/6
f 10/10/10 6/6/6 9/9/9
f 13/13/13 12/12/12 11/11/11
f 12/12/12 14/14/14 11/11/11
f 15/15/15 11/11/11 14/14/14
f 18/18/18 17/17/17 16/16/16
f 16/16/16 17/17/17 19/19/19
f 20/20/20 19/19/19 17/17/17
f 23/23/23 22/22/22 21/21/21
f 24/24/24 21/21/21 22/22/22
f 24/24/24 25/25/25 21/21/21
f 26/26/26 21/21/21 25/25/25
f 29/29/29 28/28/28 27/27/27
f 28/28/28 30/30/30 27/27/27
f 27/27/27 30/30/30 31/31/31
f 30/30/30 28/28/28 32/32/32
f 33/33/33 30/30/30 32/32/32
f 32/32/32 28/28/28 34/34/34
f 37/37/37 36/36/36 35/35/35
f 36/36/36 38/38/38 35/35/35
f 35/35/35 38/38/38 39/39/39
f 40/40/40 38/38/38 36/36/36
f 41/41/41 38/38/38 40/40/40
f 44/44/44 43/43/43 42/42/42
f 43/43/43 45/45/45 42/42/42
f 46/46/46 45/45/45 43/43/43
f 45/45/45 47/47/47 42/42/42
f 47/47/47 48/48/48 42/42/42
