g Device_Prop_Box_009_v_011
v -0.19916391 -0.15034102 0.18156004
v 1.243139 -0.1503418 -0.027237097
v 1.1126639 -0.15034169 0.1813333
v 1.1028761 -0.13372624 0.1812928
v -0.19916391 -0.15034102 0.18156004
v 1.1126639 -0.15034169 0.1813333
v -0.19904618 -0.22654179 -0.034613583
v 1.2925963 -0.22654179 -0.034356236
v 1.2927573 -0.22654179 -0.034613583
v -0.40497673 -0.22654179 0.2574864
v 1.1100287 -0.22654189 0.2574864
v -0.40497673 -0.22654179 -0.7063425
v -0.2862771 -0.22654179 -0.71782786
v -0.19904618 -0.22654179 -0.72626835
v -0.40497673 -0.22654179 0.2574864
v 1.0088263 -0.055186458 0.2574864
v 1.1100287 -0.22654189 0.2574864
v -0.19904618 -0.020611629 0.2574864
v 0.98840624 -0.020611629 0.2574864
v -0.19904613 0.7173572 0.2574864
v -0.25449 0.71909285 0.2574864
v -0.27506188 0.71973675 0.2574864
v -0.40497664 0.7238037 0.2574864
v -0.19904967 -0.020596998 0.18123099
v -0.19904725 0.73635745 0.23427969
v -0.1990145 0.779773 0.18125133
v -0.19904613 0.7173572 0.2574864
v -0.19904618 -0.020611629 0.2574864
v -0.19904618 -0.020611629 0.2574864
v 1.0275657 -0.020611629 0.1948883
v 0.98840624 -0.020611629 0.2574864
v -0.19904967 -0.020596998 0.18123099
v 1.036079 -0.02060911 0.18127672
v -0.19904618 -0.22654179 -0.034613583
v 1.2477536 -0.1503418 -0.034613583
v -0.19904618 -0.1503418 -0.034613583
v 1.2491094 -0.15263748 -0.034613583
v 1.2927573 -0.22654179 -0.034613583
v -0.19904618 -0.22654179 -0.034613583
v -0.19904618 -0.18439668 -0.76513034
v -0.19904618 -0.22654179 -0.72626835
v -0.19904618 -0.1503418 -0.034613583
v -0.19904618 -0.1503418 -0.7965322
v -0.40497673 0.065557726 -0.034613583
v -0.40497673 -0.0169978 -0.8995623
v -0.40497673 0.06555782 -0.97568667
v -0.40497673 -0.22654179 0.2574864
v -0.40497673 -0.22654179 -0.7063425
v -0.40497664 0.7238037 0.2574864
v -0.40497664 0.8846607 0.061017785
v -0.40497673 0.9629581 -0.034613583
v -0.32877672 0.065557726 -0.034613583
v -0.38319105 0.06555782 -0.97779465
v -0.32877672 0.06555782 -0.9830598
v -0.40497673 0.06555782 -0.97568667
v -0.40497673 0.065557726 -0.034613583
v -0.32877672 0.065557726 -0.034613583
v -0.40497673 0.9629581 -0.034613583
v -0.40497673 0.065557726 -0.034613583
v -0.3596726 0.9615399 -0.034613583
v -0.32877672 0.96057284 -0.034613583
v -0.32876742 -0.15033947 -0.034613583
v -0.32877362 -0.0061089294 -0.91697645
v -0.32876742 -0.15033928 -0.78398263
v -0.32877672 0.06555782 -0.9830598
v -0.32877672 0.065557726 -0.034613583
v -0.32877684 0.06555763 0.18203908
v -0.32876754 -0.15033947 0.18203908
v -0.19904618 -0.1503418 -0.034613583
v -0.27317306 -0.15034024 -0.789361
v -0.19904618 -0.1503418 -0.7965322
v -0.32876742 -0.15033928 -0.78398263
v -0.32876742 -0.15033947 -0.034613583
v -0.32876754 -0.15033947 0.18203908
v -0.19916391 -0.15034102 0.18156004
v -0.19904967 -0.020596998 0.18123099
v 1.1028761 -0.13372624 0.1812928
v 1.036079 -0.02060911 0.18127672
v -0.19916391 -0.15034102 0.18156004
v -0.32877672 0.065557726 -0.034613583
v -0.32877684 0.8940676 0.046614982
v -0.32877672 0.96057284 -0.034613583
v -0.32877684 0.8367623 0.11660683
v -0.32877684 0.06555763 0.18203908
v -0.32877684 0.78319013 0.18203908
v -0.32877684 0.06555763 0.18203908
v -0.23614188 0.78074634 0.18148214
v -0.32877684 0.78319013 0.18203908
v -0.1990145 0.779773 0.18125133
v -0.19904967 -0.020596998 0.18123099
v -0.32876754 -0.15033947 0.18203908
v -0.19904967 -0.020596998 0.18123099
v -0.32877684 0.06555763 0.18203908
v -0.19916391 -0.15034102 0.18156004
v -0.19904725 0.73635745 0.23427969
v -0.23614188 0.78074634 0.18148214
v -0.1990145 0.779773 0.18125133
v -0.32877684 0.78319013 0.18203908
v -0.40497664 0.7238037 0.2574864
v -0.27506188 0.71973675 0.2574864
v -0.25449 0.71909285 0.2574864
v -0.19904613 0.7173572 0.2574864
v -0.3596726 0.9615399 -0.034613583
v -0.32877684 0.8367623 0.11660683
v -0.40497664 0.8846607 0.061017785
v -0.40497673 0.9629581 -0.034613583
v -0.32877684 0.8940676 0.046614982
v -0.32877672 0.96057284 -0.034613583
v 1.2477536 -0.1503418 -0.034613583
v -0.19916391 -0.15034102 0.18156004
v -0.19904618 -0.1503418 -0.034613583
v 1.243139 -0.1503418 -0.027237097
v 1.2925963 -0.22654179 -0.034356236
v 1.2491094 -0.15263748 -0.034613583
v 1.2927573 -0.22654179 -0.034613583
v 1.1100287 -0.22654189 0.2574864
v 1.1126639 -0.15034169 0.1813333
v 1.243139 -0.1503418 -0.027237097
v 1.2477536 -0.1503418 -0.034613583
v 1.0275657 -0.020611629 0.1948883
v 1.0088263 -0.055186458 0.2574864
v 0.98840624 -0.020611629 0.2574864
v 1.036079 -0.02060911 0.18127672
v 1.1028761 -0.13372624 0.1812928
v -0.40497673 -0.0169978 -0.8995623
v -0.38319105 0.06555782 -0.97779465
v -0.40497673 0.06555782 -0.97568667
v -0.32877362 -0.0061089294 -0.91697645
v -0.32877672 0.06555782 -0.9830598
v -0.32876742 -0.15033928 -0.78398263
v -0.2862771 -0.22654179 -0.71782786
v -0.40497673 -0.22654179 -0.7063425
v -0.19904618 -0.18439668 -0.76513034
v -0.19904618 -0.22654179 -0.72626835
v -0.27317306 -0.15034024 -0.789361
v -0.19904618 -0.1503418 -0.7965322
vt 0.63462895 0.4098806
vt 0.63462895 0.70849586
vt 0.6346289 0.6814822
vt 0.6085077 0.4494733
vt 0.6085077 0.71904546
vt 0.60850763 0.44744378
vt 0.6353691 0.33896202
vt 0.94422394 0.3390153
vt 0.94425726 0.33896202
vt 0.59272987 0.3994435
vt 0.906422 0.3994435
vt 0.59272987 0.19987603
vt 0.6173074 0.1974978
vt 0.6353691 0.19575013
vt 0.0050000027 0.39944345
vt 0.04048039 0.10670597
vt 0.0049999906 0.08575121
vt 0.047639377 0.35680413
vt 0.047639366 0.11093405
vt 0.2004408 0.35680407
vt 0.20080014 0.3682841
vt 0.20093344 0.37254366
vt 0.20177558 0.39944345
vt 0.8697212 0.40988058
vt 0.85874486 0.5666153
vt 0.8697212 0.575606
vt 0.8539431 0.56268203
vt 0.85394317 0.40988058
vt 0.59272987 0.71904546
vt 0.6056913 0.4650669
vt 0.5927298 0.47317517
vt 0.6085077 0.71904546
vt 0.6085077 0.46330407
vt 0.6188512 0.4098806
vt 0.63462895 0.7094505
vt 0.63462895 0.4098806
vt 0.6341536 0.7097312
vt 0.6188512 0.71876884
vt 0.7755792 0.68336135
vt 0.7843057 0.5321028
vt 0.7755792 0.54014945
vt 0.791357 0.68336135
vt 0.791357 0.52560085
vt 1.5230356 0.7438425
vt 1.5401294 0.564749
vt 1.5230358 0.5489869
vt 1.583517 0.80432385
vt 1.583517 0.6047565
vt 1.3867414 0.80432385
vt 1.3534348 0.7636436
vt 1.3372228 0.7438425
vt 1.7494578 0.68336135
vt 1.7607248 0.48806918
vt 1.7494578 0.48697898
vt 1.7652357 0.48850566
vt 1.7652355 0.68336135
vt 1.4625545 0.81651044
vt 1.2767415 0.83228827
vt 1.4625545 0.83228827
vt 1.2770352 0.8229077
vt 1.2772354 0.81651044
vt 1.7494578 0.68336135
vt 1.7494578 0.500662
vt 1.7494578 0.5281993
vt 1.7494578 0.48697898
vt 1.7494578 0.68336135
vt 1.7494578 0.68336135
vt 1.7494578 0.68336135
vt 0.791357 0.68336135
vt 0.791357 0.52708566
vt 0.791357 0.52560085
vt 0.791357 0.5281993
vt 0.791357 0.68336135
vt 0.791357 0.68336135
vt 0.791357 0.68336135
vt 0.6085077 0.71904546
vt 0.6085077 0.4494733
vt 0.6085077 0.46330407
vt 0.6085077 0.71904546
vt 1.4625545 0.81651044
vt 1.2910058 0.81651044
vt 1.2772354 0.81651044
vt 1.3028713 0.81651044
vt 1.4625545 0.81651044
vt 1.3139637 0.81651044
vt 1.4625545 0.81651044
vt 1.2992505 0.81651044
vt 1.3139637 0.81651044
vt 1.294271 0.81651044
vt 1.4625545 0.81651044
vt 1.7494578 0.68336135
vt 1.7494578 0.68336135
vt 1.7494578 0.68336135
vt 1.7494578 0.68336135
vt 0.27685502 0.16219682
vt 0.22254623 0.13297981
vt 0.22289108 0.16222252
vt 0.22166656 0.06001747
vt 0.2972557 7.6293944E-08
vt 0.29928437 0.10232521
vt 0.29960555 0.11852822
vt 0.30047134 0.16219765
vt 0.00070739747 0.035682984
vt 0.15507942 0.06001755
vt 0.097319335 7.6293944E-08
vt 0 0
vt 0.08385216 0.06001747
vt 0.001189804 0.06001755
vt 0.63462895 0.7094505
vt 0.63462895 0.4098806
vt 0.63462895 0.4098806
vt 0.63462895 0.70849586
vt 6.446838E-05 0.00023017883
vt 0.06758362 0
vt 0 7.6293944E-08
vt 0.07316803 0.26124343
vt 0.12377548 0.19313492
vt 0.071530685 0.00659729
vt 0.069682926 0
vt 0.24580574 0.20525803
vt 0.22986808 0.26124343
vt 0.26148596 0.26124343
vt 0.24239853 0.19308442
vt 0.13895981 0.19309875
vt 0.15358292 0.22395493
vt 0.13057594 0.31218827
vt 0.14781006 0.31218818
vt 0.09253883 0.23559272
vt 0.08752983 0.31218827
vt 0.102619626 0.08144325
vt 0.074335024 0
vt 0.16823578 0
vt 0.0023814393 0.045043565
vt 0.0053285216 0
vt 0.058640137 0.08144211
vt 0 0.08144058
vn 5.170047E-07 1 0
vn 5.170047E-07 1 0
vn 5.170047E-07 1 0
vn -0.0001728362 -0.0025393795 -0.9999968
vn -0.0001728362 -0.0025393795 -0.9999968
vn -0.00017283621 -0.0025393795 -0.9999968
vn -0 -1 0
vn -0 -1 0
vn -0 -1 0
vn -0 -1 0
vn -0 -1 -3.7201403E-07
vn -0 -1 0
vn -0 -1 0
vn -0 -1 0
vn -0 0 1
vn -0 0 1
vn -0 0 1
vn -0 0 1
vn -0 0 1
vn -0 0 1
vn -0 0 1
vn -0 0 1
vn -0 0 1
vn 0.9999999 -4.39598E-05 0.0005816021
vn 0.9999999 -4.39598E-05 0.0005816021
vn 0.9999999 -4.3959804E-05 0.0005816021
vn 1 0 -4.7887428E-05
vn 1 0 -4.57431E-05
vn -0 1 0
vn -0 1 0
vn -0 1 0
vn 9.798914E-06 1 0.0001912085
vn 9.798913E-06 1 0.00019120847
vn -0 0 -1
vn -0 0 -1
vn -0 0 -1
vn -0 0 -1
vn -0 0 -1
vn 1 0 0
vn 1 0 0
vn 1 0 0
vn 1 0 0
vn 1 0 0
vn -1 0 0
vn -1 0 0
vn -1 0 0
vn -1 0 0
vn -1 0 0
vn -1 0 0
vn -1 0 0
vn -1 0 1.0131959E-06
vn -0 1 0
vn -0 1 0
vn -0 1 0
vn -0 1 0
vn -0 1 0
vn -0 0 -1
vn -0 0 -1
vn -0 0 -1
vn -0 0 -1
vn -0 0 -1
vn 1 4.299493E-05 0
vn 1 4.299493E-05 0
vn 1 4.299493E-05 0
vn 1 4.30842E-05 0
vn 1 4.30842E-05 4.472481E-07
vn 1 4.30842E-05 4.4724808E-07
vn 1 4.308422E-05 4.4722876E-07
vn 2.0914049E-05 1 0
vn 2.0914049E-05 1 0
vn 2.091405E-05 1 0
vn 1.7926435E-05 1 2.585997E-07
vn 1.7926435E-05 1 0
vn 1.7926437E-05 1 0
vn 1.1948575E-05 1 -3.579252E-06
vn 3.702625E-05 -0.00012032702 -1
vn 3.702625E-05 -0.000120327015 -1
vn 3.702625E-05 -0.000120327015 -1
vn -0.00017287953 -0.0025359853 -0.9999968
vn 1 0 1.1928478E-06
vn 1 0 1.1928478E-06
vn 1 0 1.1928479E-06
vn 1 0 0
vn 1 0 0
vn 1 0 0
vn -0.0060121235 0 -0.999982
vn -0.0060121235 0 -0.999982
vn -0.006012124 0 -0.999982
vn -0.0062119663 2.5695224E-05 -0.9999807
vn -0.006211967 2.5695232E-05 -0.9999807
vn -0.0062292092 -2.6838063E-07 -0.99998057
vn -0.0062292092 -2.6838066E-07 -0.99998057
vn -0.0062292092 -2.6838063E-07 -0.99998057
vn -0.003696191 -0.002532865 -0.99999
vn 0.024216205 0.77351797 0.6333116
vn 0.024216205 0.77351797 0.6333116
vn 0.024216201 0.77351797 0.6333116
vn 0.024213506 0.773517 0.63331276
vn 0.024213664 0.7735181 0.63331145
vn 0.024214782 0.77351725 0.6333124
vn 0.024211422 0.77352303 0.6333056
vn 0.02421408 0.77351975 0.6333094
vn 0.024212388 0.773518 0.6333117
vn 0.02421037 0.7735176 0.6333123
vn 0.024213027 0.7735182 0.6333113
vn 0.02421303 0.7735183 0.63331133
vn 0.024212388 0.773518 0.6333116
vn 0.02421239 0.77351797 0.63331175
vn -0 1 -3.5857593E-06
vn -0 1 -3.5857593E-06
vn -0 1 -3.5857593E-06
vn 5.9095487E-07 1 3.6968643E-07
vn 0.7581188 0.44774538 0.4741097
vn 0.7581188 0.44774535 0.47410965
vn 0.7581188 0.44774535 0.47410965
vn 0.7580662 0.44771445 0.4742231
vn 0.7580624 0.447724 0.47421998
vn 0.7580658 0.44771093 0.47422677
vn 0.7580658 0.44771093 0.47422677
vn 0.75806826 0.4477161 0.47421825
vn 0.7580661 0.44771454 0.47422305
vn 0.7580661 0.44771454 0.47422305
vn 0.75808465 0.44772562 0.47418278
vn 0.75808465 0.44772562 0.47418278
vn -0.07095594 -0.67618245 -0.7333092
vn -0.07095594 -0.6761825 -0.7333092
vn -0.07095594 -0.6761825 -0.7333092
vn -0.07095576 -0.67618227 -0.7333095
vn -0.07095575 -0.67618227 -0.7333095
vn -0.07095635 -0.67618257 -0.7333092
vn -0.07095502 -0.6761833 -0.73330855
vn -0.07095484 -0.6761822 -0.7333096
vn -0.07095591 -0.67618173 -0.73331
vn -0.07095502 -0.6761833 -0.73330855
vn -0.07095591 -0.67618173 -0.73331
vn -0.0709559 -0.6761817 -0.73331
g Device_Prop_Box_009_v_011_0
f 3/3/3 2/2/2 1/1/1
f 6/6/6 5/5/5 4/4/4
f 9/9/9 8/8/8 7/7/7
f 10/10/10 7/7/7 8/8/8
f 10/10/10 8/8/8 11/11/11
f 10/10/10 12/12/12 7/7/7
f 13/13/13 7/7/7 12/12/12
f 7/7/7 13/13/13 14/14/14
f 17/17/17 16/16/16 15/15/15
f 15/15/15 16/16/16 18/18/18
f 19/19/19 18/18/18 16/16/16
f 18/18/18 20/20/20 15/15/15
f 21/21/21 15/15/15 20/20/20
f 21/21/21 22/22/22 15/15/15
f 15/15/15 22/22/22 23/23/23
f 26/26/26 25/25/25 24/24/24
f 25/25/25 27/27/27 24/24/24
f 28/28/28 24/24/24 27/27/27
f 31/31/31 30/30/30 29/29/29
f 29/29/29 30/30/30 32/32/32
f 33/33/33 32/32/32 30/30/30
f 36/36/36 35/35/35 34/34/34
f 37/37/37 34/34/34 35/35/35
f 34/34/34 37/37/37 38/38/38
f 41/41/41 40/40/40 39/39/39
f 39/39/39 40/40/40 42/42/42
f 43/43/43 42/42/42 40/40/40
f 46/46/46 45/45/45 44/44/44
f 47/47/47 44/44/44 45/45/45
f 47/47/47 45/45/45 48/48/48
f 47/47/47 49/49/49 44/44/44
f 50/50/50 44/44/44 49/49/49
f 44/44/44 50/50/50 51/51/51
f 54/54/54 53/53/53 52/52/52
f 53/53/53 55/55/55 52/52/52
f 56/56/56 52/52/52 55/55/55
f 59/59/59 58/58/58 57/57/57
f 60/60/60 57/57/57 58/58/58
f 57/57/57 60/60/60 61/61/61
f 64/64/64 63/63/63 62/62/62
f 63/63/63 65/65/65 62/62/62
f 66/66/66 62/62/62 65/65/65
f 66/66/66 67/67/67 62/62/62
f 68/68/68 62/62/62 67/67/67
f 71/71/71 70/70/70 69/69/69
f 70/70/70 72/72/72 69/69/69
f 73/73/73 69/69/69 72/72/72
f 73/73/73 74/74/74 69/69/69
f 75/75/75 69/69/69 74/74/74
f 78/78/78 77/77/77 76/76/76
f 76/76/76 77/77/77 79/79/79
f 82/82/82 81/81/81 80/80/80
f 81/81/81 83/83/83 80/80/80
f 80/80/80 83/83/83 84/84/84
f 85/85/85 84/84/84 83/83/83
f 88/88/88 87/87/87 86/86/86
f 87/87/87 89/89/89 86/86/86
f 90/90/90 86/86/86 89/89/89
f 93/93/93 92/92/92 91/91/91
f 94/94/94 91/91/91 92/92/92
f 97/97/97 96/96/96 95/95/95
f 96/96/96 98/98/98 95/95/95
f 98/98/98 99/99/99 95/95/95
f 99/99/99 100/100/100 95/95/95
f 100/100/100 101/101/101 95/95/95
f 101/101/101 102/102/102 95/95/95
f 103/103/103 99/99/99 98/98/98
f 104/104/104 103/103/103 98/98/98
f 105/105/105 99/99/99 103/103/103
f 106/106/106 105/105/105 103/103/103
f 107/107/107 103/103/103 104/104/104
f 108/108/108 103/103/103 107/107/107
f 111/111/111 110/110/110 109/109/109
f 112/112/112 109/109/109 110/110/110
f 115/115/115 114/114/114 113/113/113
f 114/114/114 116/116/116 113/113/113
f 117/117/117 116/116/116 114/114/114
f 118/118/118 117/117/117 114/114/114
f 119/119/119 118/118/118 114/114/114
f 120/120/120 116/116/116 117/117/117
f 121/121/121 116/116/116 120/120/120
f 122/122/122 121/121/121 120/120/120
f 123/123/123 120/120/120 117/117/117
f 124/124/124 123/123/123 117/117/117
f 127/127/127 126/126/126 125/125/125
f 126/126/126 128/128/128 125/125/125
f 129/129/129 128/128/128 126/126/126
f 128/128/128 130/130/130 125/125/125
f 130/130/130 131/131/131 125/125/125
f 125/125/125 131/131/131 132/132/132
f 133/133/133 131/131/131 130/130/130
f 134/134/134 131/131/131 133/133/133
f 135/135/135 133/133/133 130/130/130
f 136/136/136 133/133/133 135/135/135
