g Device_Prop_Box_006_v_001
v -0.46106943 0.2134078 -0.112962045
v -0.4610678 0.24324086 -0.10706735
v -0.46107194 0.24558288 -0.112960145
v -0.4610678 0.24324086 -0.10706735
v -0.46106943 0.2134078 -0.112962045
v -0.46104735 0.21340539 -0.032049738
v -0.46106943 0.2134078 -0.112962045
v -0.46112835 0.12723187 -0.11286876
v -0.46108183 -0.0025021727 -0.11289196
v -0.4610013 -0.0024957778 0.51063406
v -0.46100828 0.15968338 0.103031285
v -0.4610013 -0.002495681 0.103031404
v -0.4610013 -0.002495681 0.103031404
v -0.41300482 -0.0024965531 0.5917234
v -0.4610013 -0.0024957778 0.51063406
v -0.33128005 -0.0025058547 -0.112868555
v -0.46108183 -0.0025021727 -0.11289196
v -0.33128005 -0.002498297 0.10303133
v -0.4610013 -0.002495681 0.103031404
v -0.33128005 -0.002498297 0.7297965
v -0.41300482 -0.0024965531 0.5917234
v -0.33128005 -0.0786983 0.10303133
v 0.89837015 -0.0786983 0.10303135
v 0.90501606 -0.0786983 -0.10950986
v 0.9075039 -0.0786983 -0.18906878
v -0.53721064 -0.0786983 -0.18906872
v -0.4130875 -0.0786983 0.7830948
v -0.53721064 -0.0786983 0.57339656
v -0.33128005 -0.0786983 0.92130345
v -0.53721064 0.21121627 -0.15522082
v -0.53721064 -0.0786983 -0.18906872
v -0.53721064 0.22468425 -0.18906872
v -0.53721064 0.13832934 0.027959242
v -0.53721064 -0.0786983 0.57339656
v -0.48314735 0.2610268 -0.18906872
v -0.33128005 0.12723187 -0.18906876
v -0.33128005 0.36311543 -0.18906876
v -0.53721064 -0.0786983 -0.18906872
v -0.49132428 0.25553003 -0.18906872
v -0.53721064 0.22468425 -0.18906872
v 0.9075039 -0.0786983 -0.18906878
v 0.85990244 -0.01714159 -0.1890688
v 0.7482594 0.12723187 -0.18906884
v -0.33128005 0.21335404 -0.11286876
v -0.33128005 0.12723187 -0.18906876
v -0.33128005 0.12723187 -0.11286876
v -0.33128002 0.35672078 -0.17299765
v -0.33128005 0.33279568 -0.11286876
v -0.33128005 0.36311543 -0.18906876
v -0.4565038 0.24865313 -0.11295877
v -0.46106943 0.2134078 -0.112962045
v -0.46107194 0.24558288 -0.112960145
v -0.33128005 0.33279568 -0.11286876
v -0.33128005 0.21335404 -0.11286876
v -0.46112835 0.12723187 -0.11286876
v -0.33128005 0.12723187 -0.11286876
v -0.46108183 -0.0025021727 -0.11289196
v -0.33128005 -0.0025058547 -0.112868555
v -0.4610013 -0.002495681 0.103031404
v -0.46106943 0.2134078 -0.112962045
v -0.46108183 -0.0025021727 -0.11289196
v -0.46104735 0.21340539 -0.032049738
v -0.46100828 0.15968338 0.103031285
v 0.85164857 -0.01827931 0.10303135
v -0.33128005 -0.002498297 0.10303133
v 0.83940613 -0.002447622 0.10303133
v -0.33128005 -0.0786983 0.10303133
v 0.89837015 -0.0786983 0.10303135
v -0.33128005 0.12723187 -0.11286876
v 0.74759847 0.12723187 -0.16792768
v 0.7458767 0.12723187 -0.11286884
v 0.7482594 0.12723187 -0.18906884
v -0.33128005 0.12723187 -0.18906876
v 0.8447938 -0.0025378296 -0.06704105
v -0.33128005 -0.0025058547 -0.112868555
v 0.8462291 -0.0025393798 -0.112903185
v -0.33128005 -0.002498297 0.10303133
v 0.83940613 -0.002447622 0.10303133
v -0.33128005 -0.0025058547 -0.112868555
v 0.7720672 0.093363196 -0.112868786
v 0.8462291 -0.0025393798 -0.112903185
v 0.7458767 0.12723187 -0.11286884
v -0.33128005 0.12723187 -0.11286876
v 0.74759847 0.12723187 -0.16792768
v 0.7720672 0.093363196 -0.112868786
v 0.7458767 0.12723187 -0.11286884
v 0.8462291 -0.0025393798 -0.112903185
v 0.90501606 -0.0786983 -0.10950986
v 0.85990244 -0.01714159 -0.1890688
v 0.7482594 0.12723187 -0.18906884
v 0.9075039 -0.0786983 -0.18906878
v 0.85164857 -0.01827931 0.10303135
v 0.89837015 -0.0786983 0.10303135
v 0.8447938 -0.0025378296 -0.06704105
v 0.83940613 -0.002447622 0.10303133
v -0.33128005 -0.002498297 0.10303133
v -0.33128005 -0.044789806 0.8360841
v -0.33128005 -0.002498297 0.7297965
v -0.33128005 -0.0786983 0.92130345
v -0.33128005 -0.0786983 0.10303133
v -0.33128002 0.35672078 -0.17299765
v -0.48314735 0.2610268 -0.18906872
v -0.33128005 0.36311543 -0.18906876
v -0.49132428 0.25553003 -0.18906872
v -0.46107194 0.24558288 -0.112960145
v -0.4565038 0.24865313 -0.11295877
v -0.33128005 0.33279568 -0.11286876
v -0.53721064 -0.0786983 0.57339656
v -0.53721064 0.13832934 0.027959242
v -0.53721064 0.21121627 -0.15522082
v -0.53721064 0.22468425 -0.18906872
v -0.4610013 -0.0024957778 0.51063406
v -0.46104735 0.21340539 -0.032049738
v -0.4610678 0.24324086 -0.10706735
v -0.46100828 0.15968338 0.103031285
v -0.33128005 -0.044789806 0.8360841
v -0.4130875 -0.0786983 0.7830948
v -0.33128005 -0.0786983 0.92130345
v -0.41300482 -0.0024965531 0.5917234
v -0.33128005 -0.002498297 0.7297965
vt 1.005 0.8426319
vt 1.011108 0.8426319
vt 1.0117992 0.84263194
vt 1.011108 0.8426319
vt 1.005 0.8426319
vt 1.005 0.84263194
vt 1.8958424 0.6177389
vt 1.8958424 0.63518006
vt 1.005 0.8426319
vt 1.7494578 0.49427754
vt 1.7494578 0.40988058
vt 1.7494578 0.40988058
vt 0.791357 0.40988058
vt 0.7913569 0.5110676
vt 0.79135704 0.49427754
vt 0.791357 0.40988058
vt 0.791357 0.40988058
vt 0.791357 0.40988058
vt 0.791357 0.40988058
vt 0.791357 0.53965664
vt 0.7913569 0.5110676
vt 0.6353691 0.0654813
vt 0.8899766 0.0654813
vt 0.89135265 0.021473214
vt 0.89186776 0.005
vt 0.59272987 0.005
vt 0.6184304 0.20629314
vt 0.59272987 0.16287374
vt 0.6353691 0.23491016
vt 1.5234882 0.41688898
vt 1.583517 0.40988055
vt 1.5206995 0.40988055
vt 1.53858 0.45481765
vt 1.583517 0.5677542
vt 1.0753424 0.016194314
vt 1.0476394 0.04763952
vt 1.0964806 0.047639504
vt 1.005 0.0050001442
vt 1.0742042 0.01450121
vt 1.0678174 0.0050001345
vt 1.005 0.30413815
vt 1.0177457 0.29428196
vt 1.0476394 0.2711655
vt 1.8958424 0.61781883
vt 1.8800645 0.63518006
vt 1.8958424 0.63518006
vt 1.8833922 0.5876628
vt 1.8958424 0.5930315
vt 1.8800645 0.58633876
vt 1.8958424 0.61042696
vt 1.8958424 0.6177389
vt 1.8958424 0.6110637
vt 1.8958424 0.5930315
vt 1.8958424 0.61781883
vt 1.8958424 0.63518006
vt 1.8958424 0.63518006
vt 1.8958424 0.63518006
vt 1.8958424 0.63518006
vt 1.005 0.8426319
vt 1.005 0.8426319
vt 1.005 0.8426319
vt 1.005 0.84263194
vt 1.005 0.8426318
vt 0.24992938 0.8830023
vt 0.005 0.8862804
vt 0.24739453 0.8862804
vt 0.005 0.8705026
vt 0.2596075 0.8705026
vt 1.6085076 0.4098806
vt 1.5971073 0.6332699
vt 1.6085076 0.6329134
vt 1.5927298 0.63340676
vt 1.5927298 0.4098806
vt 0.24849103 0.8862804
vt 0.005 0.8862804
vt 0.24878821 0.8862804
vt 0.005 0.8862804
vt 0.24739453 0.8862804
vt 1.6085076 0.4098806
vt 1.6085076 0.63833636
vt 1.6085076 0.6536689
vt 1.6085076 0.6329134
vt 1.6085076 0.4098806
vt 0.20529412 0.016651668
vt 0.17241165 0.060018387
vt 0.20612335 0.060018357
vt 0.076953046 0.059991304
vt 0.001198349 0.06266401
vt 0.06127144 1.9073486E-08
vt 0.20497566 0
vt 0 3.8146972E-08
vt 0.06453842 0.23007052
vt 0.0043994905 0.23007052
vt 0.07764541 0.09611426
vt 0.08029671 0.2300705
vt 0.791357 0.40988058
vt 0.7826002 0.5616642
vt 0.791357 0.53965664
vt 0.7755792 0.57930946
vt 0.7755792 0.40988058
vt 0.013619347 0.19118042
vt 0.029718742 0.050190963
vt 0 0.19118035
vt 0.031318855 0.042599715
vt 0.08989662 0.070685044
vt 0.08900383 0.074926
vt 0.064575195 0.19118027
vt 0.6864447 1.5258789E-07
vt 0.22421734 0
vt 0.06898247 7.6293944E-08
vt 0.040298272 1.5258789E-07
vt 0.61834383 0.070750736
vt 0.15845878 0.07070793
vt 0.09488964 0.07068893
vt 0.27292472 0.070744246
vt 0.86875945 0.19118035
vt 0.8398628 0.1152327
vt 0.9409781 0.19118035
vt 0.6776701 0.11530937
vt 0.7786867 0.19118035
vn 0.99999976 7.8337376E-05 -0.0006758998
vn 0.99999976 7.8337376E-05 -0.0006758998
vn 0.99999976 7.8337376E-05 -0.0006758998
vn 0.99999976 7.8337376E-05 -0.0006758998
vn 0.99999976 7.8337376E-05 -0.0006758998
vn 1 -1.2650838E-06 -0.00027303238
vn -0.7708743 -0.00016250252 -0.6369872
vn -0.7708743 -0.00016250255 -0.6369873
vn -0.7708743 -0.00016250255 -0.6369873
vn 1 4.3016153E-05 0
vn 1 4.3016156E-05 0
vn 1 4.3016153E-05 0
vn 2.016722E-05 1 -3.500548E-05
vn 1.5748452E-05 1 0
vn 1.5748452E-05 1 0
vn 2.016722E-05 1 -3.5005476E-05
vn 2.8371338E-05 1 -3.0076117E-05
vn 2.016722E-05 1 -3.5005476E-05
vn 2.0167241E-05 1 0
vn 2.016724E-05 1 0
vn 1.5748452E-05 1 0
vn -0 -1 0
vn -0 -1 0
vn -0 -1 0
vn -0 -1 0
vn -0 -1 0
vn -0 -1 0
vn -0 -1 0
vn -0 -1 0
vn -1 0 0
vn -1 0 0
vn -1 0 0
vn -1 0 0
vn -1 0 0
vn -0 0 -1
vn -0 0 -1
vn -0 0 -1
vn -0 0 -1
vn -2.6394918E-07 0 -1
vn -2.6394918E-07 0 -1
vn -0 0 -1
vn -0 -3.015595E-07 -1
vn -0 -3.0155948E-07 -1
vn 1 0 8.057134E-07
vn 1 0 -3.0145193E-06
vn 1 0 0
vn 1 0 8.057134E-07
vn 1 0 8.0571346E-07
vn 1 0 -3.0145193E-06
vn -0.0007187102 0 0.99999976
vn -0.00071828486 0.0010829034 0.99999917
vn -0.0002625178 -5.9120077E-05 1
vn -0.0007187102 0 0.99999976
vn -0.00071828486 0.0010829034 0.99999917
vn -0.00071828486 0.0010829034 0.99999917
vn -0 0 1
vn -0 -0.00017873323 1
vn -0.00018027281 1.5870351E-06 1
vn 1 4.3015945E-05 -0.00027196342
vn 1 4.2347987E-05 -0.00027303104
vn 1 -5.756326E-05 -0.00037290071
vn 1 4.3015945E-05 -0.00027196342
vn 1 4.3015945E-05 -0.00027196342
vn -0 1.5300024E-06 1
vn -0 1.5300022E-06 1
vn -0 1.5300022E-06 1
vn -0 0 1
vn -0 0 1
vn -0 1 0
vn -0 1 0
vn -0 1 0
vn -0 1 0
vn -0 1 0
vn 2.8470226E-05 1 -3.2912318E-05
vn 2.8470222E-05 1 -3.2912314E-05
vn 2.8470222E-05 1 -3.2912314E-05
vn -4.3286745E-05 0.9999999 -0.00053177867
vn -4.3286745E-05 0.9999999 -0.0005317787
vn -0 1.587035E-06 1
vn 2.9392497E-05 -0.00033587494 1
vn 2.9392495E-05 -0.00033587494 1
vn -0 1.587035E-06 1
vn -0 1.587035E-06 1
vn 0.7908262 0.6115411 0.024728538
vn 0.7908262 0.61154103 0.024728538
vn 0.7908262 0.611541 0.024728535
vn 0.7908186 0.611551 0.024729267
vn 0.7908263 0.61154085 0.0247282
vn 0.7908265 0.61154073 0.024726253
vn 0.7908265 0.6115408 0.024726253
vn 0.7908263 0.61154085 0.02472841
vn 0.7908263 0.6115409 0.0247282
vn 0.7908263 0.6115409 0.0247282
vn 0.7908281 0.6115386 0.024727738
vn 0.7908281 0.6115386 0.024727741
vn 1 0 0
vn 1 0 0
vn 1 0 0
vn 1 0 0
vn 1 0 0
vn -0.52975136 0.7880595 0.31356922
vn -0.5297514 0.7880595 0.31356922
vn -0.5297514 0.7880595 0.31356922
vn -0.5297512 0.7880604 0.313567
vn -0.52975285 0.78806007 0.3135653
vn -0.5297525 0.78806 0.3135661
vn -0.5297525 0.78806 0.31356612
vn -0.529754 0.78805906 0.31356597
vn -0.5297509 0.78806055 0.31356743
vn -0.5297512 0.78806055 0.31356704
vn -0.52975124 0.78806055 0.31356704
vn -0.53050405 0.7876232 0.3133928
vn -0.51066905 0.7988638 0.31785783
vn -0.510669 0.7988638 0.3178578
vn -0.53050405 0.7876232 0.3133928
vn -0.52975124 0.78806055 0.3135669
vn -0.5297518 0.7880603 0.31356668
vn -0.52975166 0.7880603 0.31356668
vn -0.52975124 0.7880606 0.31356686
vn -0.52975124 0.7880606 0.31356686
g Device_Prop_Box_006_v_001_0
f 3/3/3 2/2/2 1/1/1
f 6/6/6 5/5/5 4/4/4
f 9/9/9 8/8/8 7/7/7
f 12/12/12 11/11/11 10/10/10
f 15/15/15 14/14/14 13/13/13
f 17/17/17 13/13/13 16/16/16
f 18/18/18 16/16/16 13/13/13
f 20/20/20 18/18/18 19/19/19
f 21/21/21 20/20/20 19/19/19
f 24/24/24 23/23/23 22/22/22
f 25/25/25 24/24/24 22/22/22
f 26/26/26 25/25/25 22/22/22
f 26/26/26 22/22/22 27/27/27
f 28/28/28 26/26/26 27/27/27
f 22/22/22 29/29/29 27/27/27
f 32/32/32 31/31/31 30/30/30
f 33/33/33 30/30/30 31/31/31
f 31/31/31 34/34/34 33/33/33
f 37/37/37 36/36/36 35/35/35
f 38/38/38 35/35/35 36/36/36
f 35/35/35 38/38/38 39/39/39
f 40/40/40 39/39/39 38/38/38
f 41/41/41 38/38/38 36/36/36
f 42/42/42 41/41/41 36/36/36
f 43/43/43 42/42/42 36/36/36
f 46/46/46 45/45/45 44/44/44
f 45/45/45 47/47/47 44/44/44
f 47/47/47 48/48/48 44/44/44
f 49/49/49 47/47/47 45/45/45
f 52/52/52 51/51/51 50/50/50
f 51/51/51 53/53/53 50/50/50
f 54/54/54 53/53/53 51/51/51
f 51/51/51 55/55/55 54/54/54
f 56/56/56 54/54/54 55/55/55
f 55/55/55 57/57/57 56/56/56
f 58/58/58 56/56/56 57/57/57
f 61/61/61 60/60/60 59/59/59
f 60/60/60 62/62/62 59/59/59
f 62/62/62 63/63/63 59/59/59
f 66/66/66 65/65/65 64/64/64
f 65/65/65 67/67/67 64/64/64
f 67/67/67 68/68/68 64/64/64
f 71/71/71 70/70/70 69/69/69
f 70/70/70 72/72/72 69/69/69
f 72/72/72 73/73/73 69/69/69
f 76/76/76 75/75/75 74/74/74
f 75/75/75 77/77/77 74/74/74
f 77/77/77 78/78/78 74/74/74
f 81/81/81 80/80/80 79/79/79
f 80/80/80 82/82/82 79/79/79
f 82/82/82 83/83/83 79/79/79
f 86/86/86 85/85/85 84/84/84
f 85/85/85 87/87/87 84/84/84
f 87/87/87 88/88/88 84/84/84
f 88/88/88 89/89/89 84/84/84
f 89/89/89 90/90/90 84/84/84
f 91/91/91 89/89/89 88/88/88
f 92/92/92 88/88/88 87/87/87
f 93/93/93 88/88/88 92/92/92
f 94/94/94 92/92/92 87/87/87
f 95/95/95 92/92/92 94/94/94
f 98/98/98 97/97/97 96/96/96
f 97/97/97 99/99/99 96/96/96
f 99/99/99 100/100/100 96/96/96
f 103/103/103 102/102/102 101/101/101
f 102/102/102 104/104/104 101/101/101
f 104/104/104 105/105/105 101/101/101
f 105/105/105 106/106/106 101/101/101
f 106/106/106 107/107/107 101/101/101
f 108/108/108 105/105/105 104/104/104
f 109/109/109 108/108/108 104/104/104
f 110/110/110 109/109/109 104/104/104
f 111/111/111 110/110/110 104/104/104
f 112/112/112 105/105/105 108/108/108
f 113/113/113 105/105/105 112/112/112
f 114/114/114 105/105/105 113/113/113
f 115/115/115 113/113/113 112/112/112
f 116/116/116 112/112/112 108/108/108
f 117/117/117 116/116/116 108/108/108
f 118/118/118 116/116/116 117/117/117
f 119/119/119 112/112/112 116/116/116
f 120/120/120 119/119/119 116/116/116
