g Device_Prop_Box_01_v_046
v -0.012655914 0.40098527 -0.6182584
v 0.009761516 -0.5685493 -0.61825854
v -0.012655914 -0.5887165 -0.61825854
v 0.009761516 -0.5685493 -0.61825854
v -0.012655914 0.40098527 -0.6182584
v -0.0014123169 0.40357175 -0.6182584
v 0.012744086 -0.3042356 0.38946712
v 0.012744086 0.4344268 0.7025416
v 0.012744086 -0.22295383 0.7025416
v 0.012744086 0.41885433 -0.04272433
v 0.012744086 -0.56586605 -0.61825854
v 0.012744086 0.4068283 -0.6182584
v 0.012744086 -0.56586605 -0.61825854
v -0.0014123169 0.40357175 -0.6182584
v 0.012744086 0.4068283 -0.6182584
v 0.009761516 -0.5685493 -0.61825854
v -0.005893729 -0.23972078 0.7025416
v -0.012655914 0.42858377 0.7025416
v -0.012655914 -0.24580418 0.7025416
v 0.0018262451 0.4319152 0.7025416
v 0.012744086 -0.22295383 0.7025416
v 0.012744086 0.4344268 0.7025416
v -0.012655914 -0.5447584 -0.448945
v -0.012655914 0.40098527 -0.6182584
v -0.012655914 -0.5887165 -0.61825854
v -0.012655914 0.41652882 0.12561752
v -0.012655914 -0.24580418 0.7025416
v -0.012655914 0.42858377 0.7025416
v 0.012744086 -0.3042356 0.38946712
v 0.009761516 -0.5685493 -0.61825854
v 0.012744086 -0.56586605 -0.61825854
v -0.005893729 -0.23972078 0.7025416
v 0.012744086 -0.22295383 0.7025416
v -0.012655914 -0.5447584 -0.448945
v -0.012655914 -0.5887165 -0.61825854
v -0.012655914 -0.24580418 0.7025416
v 0.012744086 0.41885433 -0.04272433
v 0.0018262451 0.4319152 0.7025416
v 0.012744086 0.4344268 0.7025416
v -0.0014123169 0.40357175 -0.6182584
v 0.012744086 0.4068283 -0.6182584
v -0.012655914 0.41652882 0.12561752
v -0.012655914 0.42858377 0.7025416
v -0.012655914 0.40098527 -0.6182584
vt 1.2668748 0.47474244
vt 1.4616234 0.47474247
vt 1.4656745 0.47474247
vt 1.4616234 0.47474247
vt 1.2668748 0.47474244
vt 1.2663553 0.47474247
vt 1.4085313 0.6771625
vt 1.2601573 0.74004924
vt 1.3922043 0.74004924
vt 1.2632855 0.59034896
vt 1.4610846 0.47474247
vt 1.2657012 0.47474247
vt 1.4610846 0.47474247
vt 1.2663553 0.47474247
vt 1.2657012 0.47474247
vt 1.4616234 0.47474247
vt 1.3955723 0.74004924
vt 1.2613311 0.74004924
vt 1.3967942 0.74004924
vt 1.2606621 0.74004924
vt 1.3922043 0.74004924
vt 1.2601573 0.74004924
vt 1.4568447 0.5087522
vt 1.2668748 0.47474244
vt 1.4656745 0.47474247
vt 1.2637527 0.62416357
vt 1.3967942 0.74004924
vt 1.2613311 0.74004924
vt 0.25468802 0.026519546
vt 1.07501 0.023405457
vt 1.0744791 0.026519546
vt 0.0033176423 0.007060318
vt 0 0.026519546
vt 0.94126284 7.6293944E-08
vt 1.0790004 0
vt 0.0045213317 7.6293944E-08
vt 0.45337144 0.020522118
vt 1.040282 0.011700974
vt 1.0403231 0.020522118
vt 4.2533873E-05 0.00908432
vt 9.6092226E-05 0.020522118
vt 0.5858569 7.6293944E-08
vt 1.040227 0
vt 0 0
vn -0 0 1
vn -0 0 1
vn -0 0 1
vn -0 0 1
vn -0 0 1
vn -0 0 1
vn -1 0 0
vn -1 0 0
vn -1 0 0
vn -1 0 0
vn -1 0 0
vn -1 0 0
vn -0 0 1
vn -0 0 1
vn -0 0 1
vn -0 0 1
vn -0 0 -1
vn -0 0 -1
vn -0 0 -1
vn -0 0 -1
vn -0 0 -1
vn -0 0 -1
vn 1 0 0
vn 1 0 0
vn 1 0 0
vn 1 0 0
vn 1 0 0
vn 1 0 0
vn -0.65670025 0.7299516 -0.18951344
vn -0.6567003 0.72995156 -0.18951343
vn -0.65670025 0.7299516 -0.18951344
vn -0.6566884 0.7299617 -0.18951601
vn -0.6566882 0.7299618 -0.18951587
vn -0.6566884 0.72996163 -0.18951647
vn -0.6566884 0.7299616 -0.18951645
vn -0.65668833 0.7299617 -0.189516
vn 0.22414604 -0.9743429 0.020359127
vn 0.22414604 -0.9743429 0.020359127
vn 0.22414607 -0.9743429 0.020359127
vn 0.22413968 -0.9743444 0.020359302
vn 0.2241396 -0.9743444 0.020359306
vn 0.22413556 -0.97434527 0.02035912
vn 0.2241356 -0.97434527 0.020359121
vn 0.22413968 -0.9743444 0.020359302
g Device_Prop_Box_01_v_046_0
f 3/3/3 2/2/2 1/1/1
f 6/6/6 5/5/5 4/4/4
f 9/9/9 8/8/8 7/7/7
f 10/10/10 7/7/7 8/8/8
f 7/7/7 10/10/10 11/11/11
f 12/12/12 11/11/11 10/10/10
f 15/15/15 14/14/14 13/13/13
f 16/16/16 13/13/13 14/14/14
f 19/19/19 18/18/18 17/17/17
f 20/20/20 17/17/17 18/18/18
f 17/17/17 20/20/20 21/21/21
f 22/22/22 21/21/21 20/20/20
f 25/25/25 24/24/24 23/23/23
f 26/26/26 23/23/23 24/24/24
f 23/23/23 26/26/26 27/27/27
f 28/28/28 27/27/27 26/26/26
f 31/31/31 30/30/30 29/29/29
f 30/30/30 32/32/32 29/29/29
f 32/32/32 33/33/33 29/29/29
f 34/34/34 32/32/32 30/30/30
f 35/35/35 34/34/34 30/30/30
f 36/36/36 32/32/32 34/34/34
f 39/39/39 38/38/38 37/37/37
f 38/38/38 40/40/40 37/37/37
f 40/40/40 41/41/41 37/37/37
f 42/42/42 40/40/40 38/38/38
f 43/43/43 42/42/42 38/38/38
f 44/44/44 40/40/40 42/42/42
