g Device_Prop_Box_009_v_053
v 0.012728196 0.2669866 -0.12370919
v 0.012728196 -0.13416012 0.24618705
v 0.012728196 -0.13416012 -0.12370923
v 0.012728196 -0.13416012 -0.12370923
v 0.008111714 0.26747108 -0.12370919
v 0.012728196 0.2669866 -0.12370919
v -0.012671804 -0.13416012 -0.12370923
v -0.012671804 0.26965195 -0.12370921
v -0.012671804 -0.13416012 -0.12370923
v -0.005524469 -0.13416022 0.24795322
v -0.012671804 -0.13416022 0.24864475
v 0.012728196 -0.13416012 -0.12370923
v 0.012728196 -0.13416012 0.24618705
v -0.012671804 -0.13416012 -0.12370923
v -0.012671804 0.11084207 0.022728894
v -0.012671804 0.26965195 -0.12370921
v -0.012671804 -0.13416022 0.24864475
v -0.005524469 -0.13416022 0.24795322
v -0.012671804 0.11084207 0.022728894
v -0.012671804 -0.13416022 0.24864475
v 0.008111714 0.26747108 -0.12370919
v -0.012671804 0.26965195 -0.12370921
v 0.012728196 -0.13416012 0.24618705
v 0.012728196 0.2669866 -0.12370919
vt 1.4331678 0.47474247
vt 1.5137455 0.54904294
vt 1.5137455 0.47474247
vt 1.5137455 0.47474247
vt 1.4330705 0.47474247
vt 1.4331678 0.47474247
vt 1.5137455 0.47474247
vt 1.4326326 0.47474247
vt 1.5137455 0.47474247
vt 1.5137455 0.54939765
vt 1.5137455 0.5495366
vt 1.5137455 0.47474247
vt 1.5137455 0.54904294
vt 1.5137455 0.47474247
vt 1.4645324 0.50415725
vt 1.4326326 0.47474247
vt 1.5137455 0.5495366
vt 0.005654068 0
vt 0.01713234 0.26185173
vt 0 0
vt 0.04452637 0.4292526
vt 0.028237456 0.4315834
vt 0.020093383 7.6293944E-08
vt 0.048144456 0.42873478
vn -1 0 0
vn -1 0 0
vn -1 0 0
vn -0 0 1
vn -0 0 1
vn -0 0 1
vn -0 0 1
vn -1.1718012E-06 0 1
vn -0 1 2.6021826E-07
vn -0 1 2.6021826E-07
vn -0 1 2.6021826E-07
vn -0 1 2.6070245E-07
vn -5.3084473E-06 1 0
vn 1 0 0
vn 1 0 0
vn 1 0 0
vn 1 0 0
vn -0.07095007 -0.6761826 -0.7333097
vn -0.07095007 -0.6761826 -0.7333097
vn -0.070950076 -0.6761827 -0.7333097
vn -0.07095293 -0.67618257 -0.73330957
vn -0.07095294 -0.6761825 -0.73330957
vn -0.07095318 -0.6761825 -0.73330957
vn -0.070958294 -0.67618227 -0.7333092
g Device_Prop_Box_009_v_053_0
f 3/3/3 2/2/2 1/1/1
f 6/6/6 5/5/5 4/4/4
f 4/4/4 5/5/5 7/7/7
f 8/8/8 7/7/7 5/5/5
f 11/11/11 10/10/10 9/9/9
f 9/9/9 10/10/10 12/12/12
f 13/13/13 12/12/12 10/10/10
f 16/16/16 15/15/15 14/14/14
f 14/14/14 15/15/15 17/17/17
f 20/20/20 19/19/19 18/18/18
f 19/19/19 21/21/21 18/18/18
f 22/22/22 21/21/21 19/19/19
f 18/18/18 21/21/21 23/23/23
f 23/23/23 21/21/21 24/24/24
