g Device_Prop_Box_01_v_028
v -0.01873982 0.018742412 -0.07144399
v 0.048813347 0.018742412 0.07144801
v -0.01873982 0.018742412 0.07144801
v 0.048813347 0.018742412 -0.07144399
v -0.01873982 -0.048810877 0.07144796
v -0.01873982 -0.048810877 -0.07144404
v -0.01873982 0.018742412 -0.07144399
v -0.01873982 0.018742412 0.07144801
v 0.048813347 0.018742412 0.07144801
v 0.048813347 0.013742426 0.07144796
v -0.01373981 0.013742378 0.07144796
v -0.01873982 0.018742412 0.07144801
v -0.01873982 -0.048810877 0.07144796
v -0.01373981 -0.048810877 0.07144796
v 0.048813347 0.018742412 -0.07144399
v 0.048813347 0.013742426 0.07144796
v 0.048813347 0.018742412 0.07144801
v 0.048813347 0.013742426 -0.07144404
v -0.01373981 0.013742378 -0.07144404
v 0.048813347 0.013742426 -0.07144404
v 0.048813347 0.018742412 -0.07144399
v -0.01873982 0.018742412 -0.07144399
v -0.01873982 -0.048810877 -0.07144404
v -0.01373981 -0.048810877 -0.07144404
v -0.01873982 -0.048810877 0.07144796
v -0.01373981 -0.048810877 0.07144796
v -0.01373981 -0.048810877 -0.07144404
v -0.01873982 -0.048810877 -0.07144404
v -0.01373981 0.013742378 -0.07144404
v -0.01373981 -0.048810877 -0.07144404
v -0.01373981 0.013742378 0.07144796
v -0.01373981 -0.048810877 0.07144796
v -0.01373981 0.013742378 0.07144796
v 0.048813347 0.013742426 0.07144796
v -0.01373981 0.013742378 -0.07144404
v 0.048813347 0.013742426 -0.07144404
vt 0.7675965 0.6937734
vt 0.71746325 0.79981744
vt 0.7675965 0.79981744
vt 0.71746325 0.6937734
vt 0.8259233 0.80004656
vt 0.8259233 0.6940025
vt 0.77579004 0.6940025
vt 0.77579004 0.80004656
vt 0.896267 0.7696719
vt 0.8925565 0.7696719
vt 0.89255637 0.8160945
vt 0.8962669 0.819805
vt 0.84613365 0.819805
vt 0.84613365 0.8160945
vt 0.47981787 0.842671
vt 0.58586216 0.8463815
vt 0.58586216 0.842671
vt 0.47981787 0.8463815
vt 0.9336691 0.86724955
vt 0.8872467 0.86724955
vt 0.8872467 0.8709602
vt 0.9373797 0.8709602
vt 0.9373797 0.8208268
vt 0.9336691 0.8208268
vt 0.4792807 0.82793283
vt 0.4792807 0.83164334
vt 0.5853249 0.83164334
vt 0.5853249 0.82793283
vt 0.9336691 0.86724955
vt 0.5853249 0.83164334
vt 0.89255637 0.8160945
vt 0.84613365 0.8160945
vt 0.89255637 0.8160945
vt 0.58586216 0.8463815
vt 0.9336691 0.86724955
vt 0.8872467 0.86724955
vn -0 1 0
vn -0 1 0
vn -0 1 0
vn -0 1 0
vn -1 0 0
vn -1 0 0
vn -1 0 0
vn -1 0 0
vn -0 -9.689265E-06 1
vn -0 -9.68936E-06 1
vn -0 -9.689265E-06 1
vn -0 -9.689265E-06 1
vn -0 -7.17162E-07 1
vn -0 -7.17162E-07 1
vn 1 0 0
vn 1 0 0
vn 1 0 0
vn 1 0 0
vn -0 9.689258E-06 -1
vn -0 9.689359E-06 -1
vn -0 9.689359E-06 -1
vn -0 9.689359E-06 -1
vn -8.972146E-06 7.17162E-07 -1
vn -0 0 -1
vn -0 -1 0
vn -0 -1 0
vn -0 -1 0
vn -0 -1 0
vn 1 0 0
vn 1 0 0
vn 1 0 0
vn 1 0 0
vn 1 0 0
vn 7.744878E-07 -1 0
vn 1 0 0
vn 7.744878E-07 -1 0
g Device_Prop_Box_01_v_028_0
f 3/3/3 2/2/2 1/1/1
f 4/4/4 1/1/1 2/2/2
f 7/7/7 6/6/6 5/5/5
f 5/5/5 8/8/8 7/7/7
f 11/11/11 10/10/10 9/9/9
f 12/12/12 11/11/11 9/9/9
f 11/11/11 12/12/12 13/13/13
f 13/13/13 14/14/14 11/11/11
f 17/17/17 16/16/16 15/15/15
f 18/18/18 15/15/15 16/16/16
f 21/21/21 20/20/20 19/19/19
f 19/19/19 22/22/22 21/21/21
f 22/22/22 19/19/19 23/23/23
f 19/19/19 24/24/24 23/23/23
f 27/27/27 26/26/26 25/25/25
f 25/25/25 28/28/28 27/27/27
f 31/31/31 30/30/30 29/29/29
f 30/30/30 31/31/31 32/32/32
f 35/35/35 34/34/34 33/33/33
f 35/35/35 36/36/36 34/34/34
