g Device_Prop_Box_008_v_041
v -0.5645505 -0.11194161 -0.15843509
v -0.5645522 -0.074177936 -0.38946295
v -0.5645505 -0.11194161 -0.39184263
v -0.43482926 -0.11194394 -0.15843509
v -0.4636036 -0.11194336 -0.45141023
v -0.43482926 -0.11194394 -0.4683895
v 1.0583099 -0.11194394 0.057480406
v 1.0583099 -0.11194394 0.05821757
v 1.1877244 -0.11157817 0.057848986
v 1.0583099 -0.11194394 0.057480406
v 1.0583099 -0.11194394 -0.099242
v 1.0583099 -0.11194394 0.05821757
v 1.1876497 0.103962064 0.027263451
v 1.187585 0.121277094 0.05784143
v 1.1875854 0.10396313 0.057841238
v 1.187585 0.121277094 0.05784143
v 1.1876497 0.103962064 0.027263451
v 1.1876521 0.124599755 0.025874196
v 1.1877681 -0.11155133 0.04192806
v 1.1876497 0.103962064 0.027263451
v 1.1877494 -0.09454927 0.04076069
v 1.2642403 0.06739366 0.113264985
v 1.1876497 0.103962064 0.027263451
v 1.1876521 0.124599755 0.025874196
v 1.2642404 -0.12395406 0.12617078
v 1.1154279 -0.11162254 -0.036966734
v 1.0583099 -0.11194394 -0.099242
v 1.0103972 -0.11194394 -0.15149908
v 1.2545843 -0.18814394 0.11996845
v 1.2642404 -0.18475007 0.13027093
v 1.2642404 -0.18756364 0.13046083
v 1.2642404 -0.18814394 0.13049997
v 1.003866 -0.11472245 -0.15843509
v 1.0040377 -0.11194394 -0.15843509
v 1.0073571 -0.18814394 -0.14967535
v 0.99932563 -0.18814394 -0.15843509
v 1.2642404 -0.18814394 0.1336649
v 1.2642404 -0.18756364 0.13046083
v 1.2642404 -0.18814394 0.13049997
v 1.2642404 -0.18475007 0.13027093
v 1.2642404 -0.12395406 0.12617078
v 1.2642404 0.0652464 0.1336649
v 1.2642403 0.06739366 0.113264985
v 1.2194481 0.09332337 0.1336649
v 1.05831 0.01778622 0.1336649
v 1.05831 0.19432902 0.1336649
v 1.2642404 -0.18814394 0.1336649
v 1.2261767 0.0891058 0.1336649
v 1.2642404 0.0652464 0.1336649
v -0.6407598 -0.18814394 0.1336649
v -0.43482926 0.01778622 0.1336649
v -0.49914965 0.7017121 0.1336649
v -0.43482926 0.7167454 0.1336649
v -0.51923585 0.6970173 0.1336651
v -0.6407597 0.66861385 0.1336649
v -0.43482926 -0.18814394 -0.15843509
v 1.0073571 -0.18814394 -0.14967535
v 0.99932563 -0.18814394 -0.15843509
v -0.6407598 -0.18814394 0.1336649
v 1.2545843 -0.18814394 0.11996845
v 1.2642404 -0.18814394 0.1336649
v 1.2642404 -0.18814394 0.13049997
v -0.6407598 -0.18814394 -0.3516728
v -0.47220063 -0.18814394 -0.45113727
v -0.43482926 -0.18814394 -0.47318953
v -0.43483275 0.01780085 0.05740948
v -0.43483052 0.7200442 0.10662411
v -0.43480164 0.726053 0.057427697
v -0.43482926 0.01778622 0.1336649
v -0.43482926 0.7167454 0.1336649
v -0.43482926 0.01778622 0.1336649
v 1.05831 0.01778622 0.0574649
v 1.05831 0.01778622 0.1336649
v -0.43483275 0.01780085 0.05740948
v 1.05831 0.01778622 0.1336649
v 1.05831 0.19564009 0.12120965
v 1.05831 0.19432902 0.1336649
v 1.05831 0.01778622 0.0574649
v 1.05831 0.20234966 0.0574649
v -0.43482926 -0.18814394 -0.15843509
v 1.0040377 -0.11194394 -0.15843509
v -0.43482926 -0.11194394 -0.15843509
v 1.003866 -0.11472245 -0.15843509
v 0.99932563 -0.18814394 -0.15843509
v -0.43482926 -0.18814394 -0.15843509
v -0.43482926 -0.17005076 -0.47204977
v -0.43482926 -0.18814394 -0.47318953
v -0.43482926 -0.11194394 -0.15843509
v -0.43482926 -0.11194394 -0.4683895
v -0.6407598 0.103955574 -0.15843509
v -0.6407598 -0.10123965 -0.34619853
v -0.6407598 0.103955574 -0.33327278
v -0.6407598 -0.18814394 0.1336649
v -0.6407598 -0.18814394 -0.3516728
v -0.6407597 0.62789255 -0.0972648
v -0.6407598 0.5969162 -0.15843509
v -0.6407597 0.66861385 0.1336649
v -0.6407597 0.68341184 0.012371919
v -0.5645598 0.103955574 -0.15843509
v -0.57682323 0.103955574 -0.3710009
v -0.5645598 0.103955574 -0.37823737
v -0.6407598 0.103955574 -0.33327278
v -0.6407598 0.103955574 -0.15843509
v -0.5645598 0.103955574 -0.15843509
v -0.6407598 0.5969162 -0.15843509
v -0.6407598 0.103955574 -0.15843509
v -0.5820779 0.61198133 -0.15843509
v -0.5645598 0.61647856 -0.15843509
v 1.0583099 -0.11194394 0.057480406
v -0.43483275 0.01780085 0.05740948
v -0.43494698 -0.11194316 0.057738528
v 1.05831 0.01778622 0.0574649
v 1.1875854 0.10396313 0.057841238
v 1.1877244 -0.11157817 0.057848986
v 1.0583099 -0.11194394 0.057480406
v 1.0103972 -0.11194394 -0.15149908
v 1.0583099 -0.11194394 -0.099242
v -0.43494698 -0.11194316 0.057738528
v 1.0040377 -0.11194394 -0.15843509
v -0.43482926 -0.11194394 -0.15843509
v -0.5645598 0.103955574 -0.15843509
v -0.56455994 0.6432536 -0.10556138
v -0.5645598 0.61647856 -0.15843509
v -0.56455994 0.6729803 -0.04685877
v -0.56455994 0.10395548 0.05821757
v -0.56455994 0.7015621 0.009582942
v -0.56455994 0.6956286 0.05821757
v -0.56455994 0.10395548 0.05821757
v -0.5645505 -0.11194161 -0.15843509
v -0.56455064 -0.11194161 0.05821757
v -0.5645598 0.103955574 -0.15843509
v -0.5645522 -0.074177936 -0.38946295
v -0.5645598 0.103955574 -0.37823737
v -0.56455064 -0.11194161 0.05821757
v -0.43482926 -0.11194394 -0.15843509
v -0.43494698 -0.11194316 0.057738528
v -0.5645505 -0.11194161 -0.15843509
v -0.5645505 -0.11194161 -0.39184263
v -0.4636036 -0.11194336 -0.45141023
v 1.1875854 0.10396313 0.057841238
v 1.1877494 -0.09454927 0.04076069
v 1.1876497 0.103962064 0.027263451
v 1.1877244 -0.11157817 0.057848986
v 1.1877681 -0.11155133 0.04192806
v 1.0583099 -0.11194394 0.05821757
v 1.1877681 -0.11155133 0.04192806
v 1.1877244 -0.11157817 0.057848986
v 1.1154279 -0.11162254 -0.036966734
v 1.0583099 -0.11194394 -0.099242
v -0.56455994 0.10395548 0.05821757
v -0.48552307 0.71415967 0.057742212
v -0.56455994 0.6956286 0.05821757
v -0.43480164 0.726053 0.057427697
v -0.43483275 0.01780085 0.05740948
v -0.56455064 -0.11194161 0.05821757
v -0.43483275 0.01780085 0.05740948
v -0.56455994 0.10395548 0.05821757
v -0.43494698 -0.11194316 0.057738528
v 1.05831 0.01778622 0.0574649
v 1.078704 0.18955985 0.0575242
v 1.05831 0.20234966 0.0574649
v 1.1875854 0.10396313 0.057841238
v 1.187585 0.121277094 0.05784143
v -0.56455994 0.6432536 -0.10556138
v -0.5820779 0.61198133 -0.15843509
v -0.5645598 0.61647856 -0.15843509
v -0.56455994 0.6729803 -0.04685877
v -0.6407597 0.62789255 -0.0972648
v -0.6407598 0.5969162 -0.15843509
v -0.56455994 0.7015621 0.009582942
v -0.6407597 0.68341184 0.012371919
v -0.56455994 0.6956286 0.05821757
v -0.6407597 0.68341184 0.012371919
v -0.56455994 0.7015621 0.009582942
v -0.51923585 0.6970173 0.1336651
v -0.6407597 0.66861385 0.1336649
v -0.43483052 0.7200442 0.10662411
v -0.48552307 0.71415967 0.057742212
v -0.43480164 0.726053 0.057427697
v -0.49914965 0.7017121 0.1336649
v -0.43482926 0.7167454 0.1336649
v 1.2261767 0.0891058 0.1336649
v 1.2642403 0.06739366 0.113264985
v 1.2642404 0.0652464 0.1336649
v 1.187585 0.121277094 0.05784143
v 1.1876521 0.124599755 0.025874196
v 1.05831 0.19564009 0.12120965
v 1.2194481 0.09332337 0.1336649
v 1.05831 0.19432902 0.1336649
v 1.078704 0.18955985 0.0575242
v 1.05831 0.20234966 0.0574649
v -0.6407598 -0.10123965 -0.34619853
v -0.57682323 0.103955574 -0.3710009
v -0.6407598 0.103955574 -0.33327278
v -0.5645522 -0.074177936 -0.38946295
v -0.5645598 0.103955574 -0.37823737
v -0.5645505 -0.11194161 -0.39184263
v -0.43482926 -0.17005076 -0.47204977
v -0.4636036 -0.11194336 -0.45141023
v -0.43482926 -0.11194394 -0.4683895
v -0.47220063 -0.18814394 -0.45113727
v -0.6407598 -0.18814394 -0.3516728
v -0.43482926 -0.18814394 -0.47318953
vt 1.7494578 0.68336135
vt 1.7494578 0.63552547
vt 1.749458 0.6350327
vt 0.791357 0.68336135
vt 0.791357 0.62269884
vt 0.79135704 0.6191831
vt 0.63462895 0.7190454
vt 0.7233366 0.68336135
vt 0.6085077 0.4098806
vt 0.63462895 0.7190454
vt 0.6990174 0.6931441
vt 0.7233366 0.68336135
vt 0.0050000004 0.8165105
vt 0.008752002 0.8165105
vt 0.005 0.81651044
vt 0.008752002 0.8165105
vt 0.0050000004 0.8165105
vt 0.009472275 0.8165105
vt 0.06935226 0.21385574
vt 0.23871857 0.19820358
vt 0.08271332 0.21260986
vt 0.21370164 0.2899965
vt 0.23871857 0.19820358
vt 0.2549379 0.19672073
vt 0.06332138 0.3037712
vt 0.065780565 0.12964813
vt 0.062752225 0.063179165
vt 0.06042366 0.007403107
vt 0.012405243 0.29715133
vt 0.015541763 0.30814773
vt 0.013330612 0.30835038
vt 0.012874527 0.30839202
vt 0.05792259 0
vt 0.060114592 0
vt 0.00039031982 0.0093495175
vt 0 0
vt 0.0050000143 0.80432385
vt 0.0051201615 0.80366045
vt 0.0050000143 0.8036685
vt 0.0057027247 0.8036212
vt 0.018290987 0.8027721
vt 0.05746624 0.8043239
vt 0.057910822 0.80009997
vt 0.063279726 0.014274681
vt 0.047639366 0.04763952
vt 0.08419375 0.04763951
vt 0.004999988 0.0050001442
vt 0.06240643 0.012881486
vt 0.057466205 0.005000136
vt 0.0050000027 0.39944345
vt 0.047639377 0.35680413
vt 0.18925081 0.37012208
vt 0.19236358 0.35680407
vt 0.18827872 0.37428105
vt 0.18239762 0.39944342
vt 0.6353691 0.33896202
vt 0.9339837 0.3407758
vt 0.9323208 0.33896202
vt 0.59272987 0.3994435
vt 0.9851737 0.39660755
vt 0.987173 0.3994435
vt 0.98717296 0.3987882
vt 0.59272987 0.29895097
vt 0.6276311 0.27835605
vt 0.6353692 0.27378994
vt 0.8697212 0.40988058
vt 0.8595382 0.55528677
vt 0.8697212 0.5565319
vt 0.85394317 0.40988058
vt 0.85394317 0.5546048
vt 0.59272987 0.71904546
vt 0.6085077 0.4098806
vt 0.59272987 0.4098806
vt 0.6085077 0.71904546
vt 0.88006455 0.63518006
vt 0.8826435 0.598354
vt 0.8800646 0.59862566
vt 0.89584243 0.63518006
vt 0.89584243 0.5969647
vt 0.6188512 0.4098806
vt 0.63462895 0.707808
vt 0.63462895 0.4098806
vt 0.63405365 0.70777243
vt 0.6188512 0.7068323
vt 0.7755792 0.68336135
vt 0.77932554 0.61842525
vt 0.7755792 0.6181893
vt 0.791357 0.68336135
vt 0.79135704 0.6191831
vt 1.5230356 0.7438425
vt 1.5655229 0.7049649
vt 1.5230358 0.7076412
vt 1.583517 0.80432385
vt 1.583517 0.7038313
vt 1.4145509 0.75650823
vt 1.4209648 0.7438425
vt 1.4061193 0.80432385
vt 1.4030553 0.77920926
vt 1.7494578 0.68336135
vt 1.7519971 0.63934815
vt 1.7494578 0.63784975
vt 1.7652357 0.64716
vt 1.7652355 0.68336135
vt 1.4625545 0.81651044
vt 1.3604836 0.83228827
vt 1.4625545 0.83228827
vt 1.3573642 0.82013774
vt 1.356433 0.81651044
vt 0.6085077 0.4098806
vt 0.6085077 0.71904546
vt 0.6085077 0.71904546
vt 0.6085077 0.4098806
vt 0.6085077 0.4098806
vt 0.6085077 0.4098806
vt 0.63462895 0.7190454
vt 0.63462895 0.7091255
vt 0.63462895 0.7190454
vt 0.63462895 0.4098806
vt 0.63462895 0.707808
vt 0.63462895 0.4098806
vt 1.4625545 0.81651044
vt 1.3508891 0.81651044
vt 1.356433 0.81651044
vt 1.344734 0.81651044
vt 1.4625545 0.81651044
vt 1.3388159 0.81651044
vt 1.3400445 0.81651044
vt 1.7494578 0.68336135
vt 1.7494578 0.68336135
vt 1.7494578 0.68336135
vt 1.7494578 0.68336135
vt 1.7494578 0.63552547
vt 1.7494578 0.63784975
vt 0.791357 0.68336135
vt 0.791357 0.68336135
vt 0.791357 0.68336135
vt 0.791357 0.68336135
vt 0.791357 0.6350327
vt 0.791357 0.62269884
vt 0.712993 0.68336135
vt 0.7129931 0.6833614
vt 0.7129931 0.6833614
vt 0.712993 0.68336135
vt 0.712993 0.68336135
vt 0.7233366 0.68336135
vt 0.7233366 0.68336135
vt 0.7233366 0.68336135
vt 0.7233366 0.68336135
vt 0.7233366 0.68336135
vt 1.4625545 0.81651044
vt 1.3232223 0.81651044
vt 1.3400445 0.81651044
vt 1.3136393 0.81651044
vt 1.4625545 0.81651044
vt 1.7494578 0.68336135
vt 1.7494578 0.68336135
vt 1.7494578 0.68336135
vt 1.7494578 0.68336135
vt 0.89584243 0.63518006
vt 0.89584243 0.59963095
vt 0.89584243 0.5969647
vt 0.89584243 0.63518006
vt 0.89584243 0.6312888
vt 0.053625487 0.061553422
vt 0.0053591155 0.047402497
vt 0.006958847 0.061553497
vt 0.10543678 0.061553497
vt 0.053989258 7.6293944E-08
vt 0 0
vt 0.1552526 0.061553497
vt 0.15075509 4.0072493E-08
vt 0.038578797 0.06159355
vt 0.0039105224 7.6293944E-08
vt 0 0.06159355
vt 0.097416684 0.09822968
vt 0.10012497 0
vt 0.074085385 0.16645584
vt 0.036440123 0.12548026
vt 0.03506012 0.16647919
vt 0.096968845 0.11446571
vt 0.09553528 0.16645688
vt 0.28920746 0.15575805
vt 0.27502263 0.19107606
vt 0.29117402 0.19107606
vt 0.22718033 0.119950026
vt 0.20187366 0.12001236
vt 0.27067322 7.6293944E-08
vt 0.28885987 0.14951476
vt 0.2805345 0
vt 0.22130387 0.018923035
vt 0.22020325 0
vt 0.19046631 0.0685292
vt 0.13718346 0.23033783
vt 0.19563866 0.23033783
vt 0.12147423 0.089868926
vt 0.12597145 0.23033775
vt 0.120520785 0.060090028
vt 0.0004560852 0.014267501
vt 0.028228149 0.060088653
vt 0.0019207763 0.060088273
vt 0.034167405 0
vt 0.18827568 0
vt 0 0
vn 1 4.3618264E-05 0
vn 1 4.361826E-05 0
vn 1 4.361826E-05 0
vn 2.0204126E-05 1 0
vn 2.0204128E-05 1 0
vn 2.0204128E-05 1 0
vn 0.002826352 -0.99999607 0
vn 0.002826352 -0.99999607 0
vn 0.0028263521 -0.99999607 0
vn -0 -1 0
vn -0 -1 0
vn -0 -1 0
vn -0.99999785 -2.2361415E-05 -0.002104044
vn -0.99999785 -2.2361412E-05 -0.0021040437
vn -0.99999785 -2.2361415E-05 -0.0021040437
vn -0.99999785 -2.4192988E-05 -0.0021030067
vn -0.99999785 -2.4192987E-05 -0.0021030065
vn -0.99999785 -2.4192992E-05 -0.0021030067
vn 0.7446406 -0.04490569 -0.66595334
vn 0.7446406 -0.044905685 -0.6659533
vn 0.7446406 -0.044905685 -0.6659533
vn 0.7363165 -0.045532007 -0.67510355
vn 0.7363165 -0.045532007 -0.6751036
vn 0.7363165 -0.045532007 -0.67510355
vn 0.7363166 -0.04553322 -0.67510337
vn 0.73631734 -0.04552628 -0.67510295
vn 0.73631585 -0.045548126 -0.6751031
vn 0.73631084 -0.045537986 -0.6751093
vn 0.73631644 -0.045533378 -0.6751036
vn 0.7363112 -0.045529995 -0.67510957
vn 0.736316 -0.045567848 -0.67510164
vn 0.73631626 -0.045539975 -0.67510337
vn 0.7363193 -0.045532886 -0.6751005
vn 0.73631084 -0.045537986 -0.6751093
vn 0.7363193 -0.045532886 -0.6751005
vn 0.7363193 -0.04553289 -0.6751005
vn 1 0 0
vn 1 0 0
vn 1 0 0
vn 1 0 0
vn 1 0 0
vn 1 0 -4.729971E-06
vn 1 0 -4.7299714E-06
vn -0 0 1
vn -0 0 1
vn -0 0 1
vn -0 0 1
vn -0 0 1
vn -0 0 1
vn -0 0 1
vn -0 0 1
vn -0 0 1
vn -0 0 1
vn 1.0020475E-05 -1.594641E-06 1
vn -1.5946383E-06 0 1
vn -0 -1 0
vn -0 -1 0
vn -0 -1 0
vn -0 -1 0
vn -0 -1 0
vn -0 -1 0
vn -0 -1 0
vn -0 -1 0
vn -0 -1 0
vn -0 -1 0
vn 0.9999999 -4.392976E-05 0.0005815513
vn 0.9999999 -4.3929762E-05 0.00058155134
vn 0.9999999 -4.3929762E-05 0.0005815513
vn 1 0 -4.574309E-05
vn 1 0 -4.658196E-05
vn -0 1 0
vn -0 1 0
vn -0 1 0
vn 9.791601E-06 1 0.00019186645
vn -1 0 0
vn -1 0 0
vn -1 0 0
vn -1 0 0
vn -1 0 0
vn -0 0 -1
vn -0 0 -1
vn -0 0 -1
vn -0 0 -1
vn -0 0 -1
vn 1 0 0
vn 1 0 0
vn 1 0 0
vn 1 0 0
vn 1 0 0
vn -1 0 0
vn -1 0 0
vn -1 0 0
vn -1 0 0
vn -1 0 0
vn -1 0 0
vn -1 0 1.5839929E-06
vn -1 0 0
vn -1 0 0
vn -0 1 0
vn -0 1 0
vn -0 1 0
vn -0 1 0
vn -0 1 0
vn -0 0 -1
vn -0 0 -1
vn -0 0 -1
vn -0 0 -1
vn -0 0 -1
vn 3.7117163E-05 -0.000119501376 -1
vn 3.7117163E-05 -0.000119501376 -1
vn -0.00017286035 -0.0025359849 -0.9999968
vn 3.7117163E-05 -0.00011950136 -1
vn 0.0029907501 -0.00011950195 -0.9999956
vn 0.002848161 -3.4125333E-05 -0.99999595
vn 5.190773E-07 1 0
vn 5.190773E-07 1 0
vn -0 1 0
vn 5.190773E-07 1 0
vn -0 1 -3.5857593E-06
vn -0 1 -3.5857593E-06
vn 1 0 1.8325422E-06
vn 1 0 1.8325422E-06
vn 1 0 1.8325422E-06
vn 1 0 0
vn 1 0 0
vn 1 0 0
vn 1 0 0
vn 1 4.30842E-05 4.4724808E-07
vn 1 4.3084205E-05 4.472481E-07
vn 1 4.308422E-05 4.4722876E-07
vn 1 4.30842E-05 4.472481E-07
vn 1 4.3084205E-05 0
vn 1 4.2970987E-05 0
vn 1.7926437E-05 1 0
vn 1.7926435E-05 1 0
vn 1.1948575E-05 1 -3.579252E-06
vn 1.7926435E-05 1 0
vn 1.7926433E-05 1 0
vn 1.743753E-05 1 2.7171924E-07
vn -0.9999976 -0.00064515666 -0.0021058104
vn -0.9999976 -0.00064515666 -0.0021058107
vn -0.9999976 -0.0006453107 -0.0021040216
vn -0.9999976 -0.00064515666 -0.0021058107
vn -0.99999547 -0.0012884897 -0.002746905
vn -0.0028208415 0.99999464 0.0016838132
vn -0.002820842 0.99999464 0.0016838133
vn -0.0028215684 0.99999464 0.0016780432
vn -0.002820842 0.99999464 0.0016838132
vn -0.005626775 0.99998415 0
vn -0.006014285 0 -0.999982
vn -0.006014285 0 -0.999982
vn -0.0060142847 0 -0.999982
vn -0.00621177 2.5991863E-05 -0.9999807
vn -0.0062117698 2.5991867E-05 -0.9999807
vn -0.0062292092 -2.6838063E-07 -0.99998057
vn -0.0062292092 -2.6838066E-07 -0.99998057
vn -0.0062292092 -2.6838063E-07 -0.99998057
vn -0.003696191 -0.002532865 -0.99999
vn 0.0029076417 0 -0.9999958
vn 0.0029076415 0 -0.9999958
vn 0.0029076415 0 -0.9999958
vn 0.0029113856 -4.4451227E-07 -0.9999958
vn 0.002920585 1.12578355E-05 -0.9999957
vn -0.22324589 0.8696172 -0.44037145
vn -0.22324589 0.8696172 -0.44037145
vn -0.22324586 0.8696172 -0.4403715
vn -0.22325274 0.8696168 -0.44036907
vn -0.2232531 0.86961627 -0.44037
vn -0.22325307 0.86961615 -0.44037
vn -0.2232514 0.8696166 -0.44037002
vn -0.22325438 0.8696168 -0.44036803
vn -0.22600433 0.96695656 0.1179703
vn -0.22600435 0.96695656 0.11797028
vn -0.22600435 0.96695656 0.117970295
vn -0.22600433 0.96695656 0.11797059
vn -0.22600433 0.96695656 0.11797059
vn -0.2260027 0.96695656 0.11797399
vn -0.22600393 0.96695673 0.11796976
vn -0.22600436 0.96695656 0.11797026
vn -0.22600272 0.96695656 0.11797399
vn -0.2260027 0.96695656 0.11797399
vn 0.5290131 0.8439517 0.088830076
vn 0.5290131 0.8439517 0.08883008
vn 0.5290131 0.8439516 0.08883007
vn 0.5290131 0.8439514 0.08883126
vn 0.52901316 0.8439514 0.08883127
vn 0.52901393 0.843951 0.08883161
vn 0.5289999 0.84394735 0.08894835
vn 0.5290115 0.843952 0.088836014
vn 0.52901393 0.843951 0.08883161
vn 0.52901393 0.843951 0.0888316
vn -0.50745785 0.0541718 -0.85997206
vn -0.5074579 0.05417179 -0.859972
vn -0.5074579 0.05417179 -0.859972
vn -0.50745845 0.05417168 -0.8599717
vn -0.50745845 0.05417169 -0.8599717
vn -0.50745726 0.054169517 -0.8599726
vn -0.5074562 0.05417108 -0.85997313
vn -0.5074561 0.054171074 -0.85997313
vn -0.5074562 0.05417108 -0.85997313
vn -0.5074562 0.054172862 -0.85997295
vn -0.5074578 0.0541714 -0.8599722
vn -0.5074562 0.054172862 -0.85997295
g Device_Prop_Box_008_v_041_0
f 3/3/3 2/2/2 1/1/1
f 6/6/6 5/5/5 4/4/4
f 9/9/9 8/8/8 7/7/7
f 12/12/12 11/11/11 10/10/10
f 15/15/15 14/14/14 13/13/13
f 18/18/18 17/17/17 16/16/16
f 21/21/21 20/20/20 19/19/19
f 23/23/23 22/22/22 19/19/19
f 24/24/24 22/22/22 23/23/23
f 22/22/22 25/25/25 19/19/19
f 19/19/19 25/25/25 26/26/26
f 26/26/26 25/25/25 27/27/27
f 27/27/27 25/25/25 28/28/28
f 28/28/28 25/25/25 29/29/29
f 25/25/25 30/30/30 29/29/29
f 30/30/30 31/31/31 29/29/29
f 29/29/29 31/31/31 32/32/32
f 33/33/33 28/28/28 29/29/29
f 34/34/34 28/28/28 33/33/33
f 35/35/35 33/33/33 29/29/29
f 36/36/36 33/33/33 35/35/35
f 39/39/39 38/38/38 37/37/37
f 37/37/37 38/38/38 40/40/40
f 40/40/40 41/41/41 37/37/37
f 37/37/37 41/41/41 42/42/42
f 43/43/43 42/42/42 41/41/41
f 46/46/46 45/45/45 44/44/44
f 47/47/47 44/44/44 45/45/45
f 47/47/47 48/48/48 44/44/44
f 49/49/49 48/48/48 47/47/47
f 47/47/47 45/45/45 50/50/50
f 51/51/51 50/50/50 45/45/45
f 50/50/50 51/51/51 52/52/52
f 53/53/53 52/52/52 51/51/51
f 52/52/52 54/54/54 50/50/50
f 50/50/50 54/54/54 55/55/55
f 58/58/58 57/57/57 56/56/56
f 59/59/59 56/56/56 57/57/57
f 57/57/57 60/60/60 59/59/59
f 61/61/61 59/59/59 60/60/60
f 61/61/61 60/60/60 62/62/62
f 59/59/59 63/63/63 56/56/56
f 64/64/64 56/56/56 63/63/63
f 56/56/56 64/64/64 65/65/65
f 68/68/68 67/67/67 66/66/66
f 66/66/66 67/67/67 69/69/69
f 70/70/70 69/69/69 67/67/67
f 73/73/73 72/72/72 71/71/71
f 74/74/74 71/71/71 72/72/72
f 77/77/77 76/76/76 75/75/75
f 75/75/75 76/76/76 78/78/78
f 79/79/79 78/78/78 76/76/76
f 82/82/82 81/81/81 80/80/80
f 83/83/83 80/80/80 81/81/81
f 80/80/80 83/83/83 84/84/84
f 87/87/87 86/86/86 85/85/85
f 85/85/85 86/86/86 88/88/88
f 89/89/89 88/88/88 86/86/86
f 92/92/92 91/91/91 90/90/90
f 93/93/93 90/90/90 91/91/91
f 93/93/93 91/91/91 94/94/94
f 93/93/93 95/95/95 90/90/90
f 90/90/90 95/95/95 96/96/96
f 97/97/97 95/95/95 93/93/93
f 98/98/98 95/95/95 97/97/97
f 101/101/101 100/100/100 99/99/99
f 100/100/100 102/102/102 99/99/99
f 103/103/103 99/99/99 102/102/102
f 106/106/106 105/105/105 104/104/104
f 107/107/107 104/104/104 105/105/105
f 104/104/104 107/107/107 108/108/108
f 111/111/111 110/110/110 109/109/109
f 112/112/112 109/109/109 110/110/110
f 112/112/112 113/113/113 109/109/109
f 114/114/114 109/109/109 113/113/113
f 117/117/117 116/116/116 115/115/115
f 118/118/118 115/115/115 116/116/116
f 116/116/116 119/119/119 118/118/118
f 120/120/120 118/118/118 119/119/119
f 123/123/123 122/122/122 121/121/121
f 122/122/122 124/124/124 121/121/121
f 124/124/124 125/125/125 121/121/121
f 126/126/126 125/125/125 124/124/124
f 127/127/127 125/125/125 126/126/126
f 130/130/130 129/129/129 128/128/128
f 131/131/131 128/128/128 129/129/129
f 129/129/129 132/132/132 131/131/131
f 133/133/133 131/131/131 132/132/132
f 136/136/136 135/135/135 134/134/134
f 137/137/137 134/134/134 135/135/135
f 137/137/137 135/135/135 138/138/138
f 139/139/139 138/138/138 135/135/135
f 142/142/142 141/141/141 140/140/140
f 143/143/143 140/140/140 141/141/141
f 143/143/143 141/141/141 144/144/144
f 147/147/147 146/146/146 145/145/145
f 148/148/148 145/145/145 146/146/146
f 145/145/145 148/148/148 149/149/149
f 152/152/152 151/151/151 150/150/150
f 151/151/151 153/153/153 150/150/150
f 154/154/154 150/150/150 153/153/153
f 157/157/157 156/156/156 155/155/155
f 158/158/158 155/155/155 156/156/156
f 161/161/161 160/160/160 159/159/159
f 159/159/159 160/160/160 162/162/162
f 163/163/163 162/162/162 160/160/160
f 166/166/166 165/165/165 164/164/164
f 164/164/164 165/165/165 167/167/167
f 165/165/165 168/168/168 167/167/167
f 169/169/169 168/168/168 165/165/165
f 167/167/167 168/168/168 170/170/170
f 168/168/168 171/171/171 170/170/170
f 174/174/174 173/173/173 172/172/172
f 173/173/173 175/175/175 172/172/172
f 176/176/176 175/175/175 173/173/173
f 175/175/175 177/177/177 172/172/172
f 172/172/172 177/177/177 178/178/178
f 178/178/178 177/177/177 179/179/179
f 180/180/180 177/177/177 175/175/175
f 181/181/181 177/177/177 180/180/180
f 184/184/184 183/183/183 182/182/182
f 183/183/183 185/185/185 182/182/182
f 186/186/186 185/185/185 183/183/183
f 185/185/185 187/187/187 182/182/182
f 182/182/182 187/187/187 188/188/188
f 187/187/187 189/189/189 188/188/188
f 190/190/190 187/187/187 185/185/185
f 191/191/191 187/187/187 190/190/190
f 194/194/194 193/193/193 192/192/192
f 193/193/193 195/195/195 192/192/192
f 196/196/196 195/195/195 193/193/193
f 195/195/195 197/197/197 192/192/192
f 197/197/197 198/198/198 192/192/192
f 199/199/199 198/198/198 197/197/197
f 200/200/200 198/198/198 199/199/199
f 198/198/198 201/201/201 192/192/192
f 192/192/192 201/201/201 202/202/202
f 203/203/203 201/201/201 198/198/198
