g Device_Prop_Box_01_v_022
v -0.10225706 -0.013222473 -0.18840508
v -0.10487458 -0.013396638 0.4657872
v -0.10225706 -0.013358414 0.4635281
v -0.10525702 -0.013402355 0.4661174
v -0.10525704 -0.013266292 -0.19103508
v -0.10481378 0.027138386 0.45058978
v -0.102257006 0.02727118 -0.18840507
v -0.102257006 0.027138386 0.44839695
v -0.10525704 0.02727118 -0.19103506
v -0.10525702 0.02713824 0.45097005
v -0.10525702 -0.008164667 0.46416047
v -0.10525704 0.02727118 -0.19103506
v -0.10525702 0.02713824 0.45097005
v -0.10525702 -0.013402355 0.4661174
v -0.10525704 -0.013266292 -0.19103508
v -0.10225706 0.02727118 -0.1940351
v 0.41936025 -0.008295715 -0.1914051
v -0.09925707 0.02727118 -0.19140509
v 0.4192911 -0.008353075 -0.19219886
v 0.41922992 -0.008206427 -0.1940351
v -0.0992571 -0.013222473 -0.1914051
v 0.39114133 -0.046832945 -0.19403511
v -0.10225706 -0.013266268 -0.1940351
v 0.39151025 -0.046773043 -0.19313298
v 0.3920225 -0.046914577 -0.19140512
v -0.10225706 0.02727118 -0.1940351
v -0.10525704 -0.013266292 -0.19103508
v -0.10225706 -0.013266268 -0.1940351
v -0.10525704 0.02727118 -0.19103506
v -0.09925707 0.02727118 -0.19140509
v -0.10525704 0.02727118 -0.19103506
v -0.10225706 0.02727118 -0.1940351
v -0.102257006 0.02727118 -0.18840507
v -0.10225706 -0.013266268 -0.1940351
v -0.10225706 -0.013222473 -0.18840508
v -0.0992571 -0.013222473 -0.1914051
v -0.10525704 -0.013266292 -0.19103508
v -0.09925707 0.02727118 -0.19140509
v -0.10225706 -0.013222473 -0.18840508
v -0.102257006 0.02727118 -0.18840507
v -0.0992571 -0.013222473 -0.1914051
v -0.102257006 0.02727118 -0.18840507
v -0.10225706 -0.008091149 0.46156004
v -0.102257006 0.027138386 0.44839695
v -0.10225706 -0.013358414 0.4635281
v -0.10225706 -0.013222473 -0.18840508
v -0.10487458 -0.013396638 0.4657872
v -0.10225706 -0.008091149 0.46156004
v -0.10225706 -0.013358414 0.4635281
v -0.10525702 -0.008164667 0.46416047
v -0.10525702 -0.013402355 0.4661174
v -0.10481378 0.027138386 0.45058978
v -0.102257006 0.027138386 0.44839695
v -0.10525702 0.02713824 0.45097005
v -0.0992571 -0.013222473 -0.1914051
v 0.41209346 -0.020459773 -0.1914051
v 0.3920225 -0.046914577 -0.19140512
v 0.41936025 -0.008295715 -0.1914051
v -0.09925707 0.02727118 -0.19140509
v 0.4176502 -0.013135608 -0.1914051
v -0.10225706 0.02727118 -0.1940351
v 0.41816914 -0.011208618 -0.1940351
v 0.41922992 -0.008206427 -0.1940351
v 0.40077186 -0.034139365 -0.19403511
v 0.39114133 -0.046832945 -0.19403511
v -0.10225706 -0.013266268 -0.1940351
v 0.41816914 -0.011208618 -0.1940351
v 0.4192911 -0.008353075 -0.19219886
v 0.41922992 -0.008206427 -0.1940351
v 0.41936025 -0.008295715 -0.1914051
v 0.4176502 -0.013135608 -0.1914051
v 0.40077186 -0.034139365 -0.19403511
v 0.4176502 -0.013135608 -0.1914051
v 0.41816914 -0.011208618 -0.1940351
v 0.41209346 -0.020459773 -0.1914051
v 0.39151025 -0.046773043 -0.19313298
v 0.39114133 -0.046832945 -0.19403511
v 0.3920225 -0.046914577 -0.19140512
vt 0.9886324 0.99502593
vt 0.7036449 0.9938477
vt 0.7040869 0.995026
vt 0.7035011 0.99367553
vt 0.9897782 0.9936755
vt 0.7102654 0.97581285
vt 0.98863226 0.9746619
vt 0.71069115 0.97466195
vt 0.9897781 0.97601235
vt 0.7100998 0.9760124
vt 0.7043536 0.99139357
vt 0.9897781 0.97601235
vt 0.7100998 0.9760124
vt 0.7035011 0.99367553
vt 0.9897782 0.9936755
vt 1.6605725 0.9760124
vt 1.4331235 0.97466195
vt 1.6598365 0.97466195
vt 1.4329798 0.9750695
vt 1.4334316 0.97601247
vt 1.6598618 0.995026
vt 1.445668 0.9936755
vt 1.6605641 0.9936755
vt 1.4457147 0.9941387
vt 1.4450905 0.99502605
vt 1.6605725 0.9760124
vt 1.6620066 0.99367553
vt 1.6605641 0.9936755
vt 1.6620067 0.9760124
vt 1.6598365 0.97466195
vt 1.6620067 0.9760124
vt 1.6605725 0.9760124
vt 1.6625311 0.97466195
vt 1.6605641 0.9936755
vt 1.662531 0.995026
vt 1.6598618 0.995026
vt 1.6620066 0.99367553
vt 1.6598365 0.97466195
vt 1.6625311 0.97466195
vt 1.6625311 0.97466195
vt 1.6598365 0.97466195
vt 0.98863226 0.9746619
vt 0.7049459 0.97466195
vt 0.71069115 0.97466195
vt 0.7040869 0.97466195
vt 0.98863226 0.9746619
vt 0.00039783478 4.6920777E-06
vt 0.004129219 0.004346962
vt 0.003120346 3.593445E-05
vt 0.001003151 0.0042868233
vt 0 0
vt 0.00822464 0.033180848
vt 0.010876885 0.03318083
vt 0.0077648163 0.033180695
vt 1.6598365 0.97466195
vt 1.4363003 0.97466195
vt 1.4450741 0.97466195
vt 1.4331235 0.97466195
vt 1.6598365 0.97466195
vt 1.433871 0.97466195
vt 1.6605725 0.9760124
vt 1.4338942 0.977352
vt 1.4334316 0.97601247
vt 1.4414762 0.9878591
vt 1.445668 0.9936755
vt 1.6605641 0.9936755
vt 0.03055129 0
vt 0.032965623 0.0014482975
vt 0.033058442 0
vt 0.033026353 0.0020743562
vt 0.028984532 0.0020743562
vt 0.012545986 9.536743E-09
vt 0.03375433 0.0021537114
vt 0.035210114 9.536743E-09
vt 0.026515312 0.0021537114
vt 0.00021314621 0.0007387543
vt 0 0
vt 0.0003681469 0.0021537114
vn 0.014421798 -0.99989605 -0.00020849862
vn 0.014421798 -0.99989605 -0.00020849862
vn 0.014421798 -0.99989605 -0.00020849862
vn 0.0147676 -0.9998909 -0.00020711367
vn 0.01478663 -0.9998907 -0.00020702642
vn -0.00018154527 1 0.00020708794
vn -0.00018154527 1 0.00020708793
vn 0.00017885059 1 0.00020852995
vn -0.00018154524 1 0.00020708793
vn -0.00015026086 1 0.00020706633
vn -1 0 0
vn -1 0 0
vn -1 0 0
vn -1 0 0
vn -1 0 0
vn 0.068212084 0.9946321 -0.077807985
vn 0.068212084 0.9946321 -0.077807985
vn 0.06821209 0.9946321 -0.077807985
vn 0.06821208 0.9946313 -0.077817656
vn 0.06767226 0.99471766 0.07718339
vn -0.06757657 -0.99331164 0.09362354
vn -0.06757657 -0.99331164 0.093623534
vn -0.06757657 -0.99331164 0.093623534
vn -0.067576915 -0.99331445 0.09359431
vn -0.068290815 -0.9957788 -0.06132613
vn -0.7071119 0 -0.7071016
vn -0.7071119 0 -0.7071016
vn -0.7071119 0 -0.7071016
vn -0.70711195 0 -0.7071015
vn -0 1 0
vn -0 1 0
vn -0 1 0
vn -0 1 0
vn 0.0077786637 -0.99993956 0.0077784867
vn 0.007778663 -0.99993956 0.0077784867
vn 0.0077786637 -0.99993956 0.0077784867
vn 0.007786674 -0.99993944 0.0077784867
vn 0.7071176 -1.0244433E-06 0.707096
vn 0.7071176 -1.0244433E-06 0.707096
vn 0.70711756 -1.0244432E-06 0.707096
vn 0.70711476 -6.113579E-07 0.7070987
vn 1 -1.1964012E-06 0
vn 1 -1.3752787E-06 0
vn 1 -1.3752787E-06 0
vn 1 -1.1964013E-06 0
vn 1 -1.1964012E-06 0
vn 0.6262963 0.27285814 0.73027486
vn 0.6263153 0.27285245 0.7302607
vn 0.6262963 0.27285814 0.73027486
vn 0.6263712 0.27283588 0.7302189
vn 0.626403 0.27282286 0.7301966
vn 0.6263712 0.27283585 0.73021895
vn 0.6263153 0.27285245 0.7302607
vn 0.6263712 0.27283585 0.73021895
vn -0 -2.663862E-07 1
vn -0 0 1
vn -0 0 1
vn -0 -2.6638622E-07 1
vn -0 -2.663862E-07 1
vn -0 -2.6454157E-07 1
vn -0 0 -1
vn -0 0 -1
vn -0 0 -1
vn -0 0 -1
vn -0 0 -1
vn -0 0 -1
vn 0.9412916 -0.33258644 -0.057933703
vn 0.9412916 -0.3325864 -0.057933703
vn 0.9412916 -0.33258644 -0.057933703
vn 0.9412939 -0.3325773 -0.057949323
vn 0.9412918 -0.3325847 -0.057940125
vn 0.7660237 -0.5811752 -0.27466905
vn 0.7660254 -0.58117574 -0.27466315
vn 0.766025 -0.58117497 -0.27466586
vn 0.76602167 -0.58117175 -0.27468207
vn 0.7660237 -0.5811752 -0.27466908
vn 0.7660237 -0.5811752 -0.27466905
vn 0.76602167 -0.58117175 -0.27468207
g Device_Prop_Box_01_v_022_0
f 3/3/3 2/2/2 1/1/1
f 2/2/2 4/4/4 1/1/1
f 4/4/4 5/5/5 1/1/1
f 8/8/8 7/7/7 6/6/6
f 7/7/7 9/9/9 6/6/6
f 9/9/9 10/10/10 6/6/6
f 13/13/13 12/12/12 11/11/11
f 12/12/12 14/14/14 11/11/11
f 15/15/15 14/14/14 12/12/12
f 18/18/18 17/17/17 16/16/16
f 17/17/17 19/19/19 16/16/16
f 19/19/19 20/20/20 16/16/16
f 23/23/23 22/22/22 21/21/21
f 22/22/22 24/24/24 21/21/21
f 24/24/24 25/25/25 21/21/21
f 28/28/28 27/27/27 26/26/26
f 29/29/29 26/26/26 27/27/27
f 32/32/32 31/31/31 30/30/30
f 33/33/33 30/30/30 31/31/31
f 36/36/36 35/35/35 34/34/34
f 37/37/37 34/34/34 35/35/35
f 40/40/40 39/39/39 38/38/38
f 41/41/41 38/38/38 39/39/39
f 44/44/44 43/43/43 42/42/42
f 43/43/43 45/45/45 42/42/42
f 45/45/45 46/46/46 42/42/42
f 49/49/49 48/48/48 47/47/47
f 48/48/48 50/50/50 47/47/47
f 50/50/50 51/51/51 47/47/47
f 52/52/52 50/50/50 48/48/48
f 53/53/53 52/52/52 48/48/48
f 54/54/54 50/50/50 52/52/52
f 57/57/57 56/56/56 55/55/55
f 56/56/56 58/58/58 55/55/55
f 58/58/58 59/59/59 55/55/55
f 60/60/60 58/58/58 56/56/56
f 63/63/63 62/62/62 61/61/61
f 62/62/62 64/64/64 61/61/61
f 64/64/64 65/65/65 61/61/61
f 65/65/65 66/66/66 61/61/61
f 69/69/69 68/68/68 67/67/67
f 68/68/68 70/70/70 67/67/67
f 70/70/70 71/71/71 67/67/67
f 74/74/74 73/73/73 72/72/72
f 73/73/73 75/75/75 72/72/72
f 75/75/75 76/76/76 72/72/72
f 76/76/76 77/77/77 72/72/72
f 78/78/78 76/76/76 75/75/75
