g Device_Prop_Box_004_v_037
v -0.012607952 -0.32140145 0.13474254
v -0.0016351715 0.6332279 0.13474274
v -0.012607952 0.6432431 0.13474274
v 0.012792048 -0.32140145 0.13474254
v 0.012792048 0.6200595 0.13474274
v 0.012792048 -0.32140145 0.13474254
v 0.0062002027 -0.32140136 -0.20803304
v 0.012792048 -0.32140136 -0.2098681
v -0.012607952 -0.32140136 -0.2027975
v -0.012607952 -0.32140145 0.13474254
v 0.012792048 -0.32140145 0.13474254
v 0.012792048 0.074429035 -0.101845525
v 0.012792048 0.6200595 0.13474274
v 0.012792048 -0.32140136 -0.2098681
v 0.012792048 -0.2623418 -0.2478711
v -0.012607952 0.6432431 0.13474274
v -0.012607952 -0.32140136 -0.2027975
v -0.012607952 -0.32140145 0.13474254
v -0.012607952 -0.24644402 -0.2510302
v 0.012792048 0.074429035 -0.101845525
v -0.0016351715 0.6332279 0.13474274
v 0.012792048 0.6200595 0.13474274
v 0.012792048 -0.2623418 -0.2478711
v -0.012607952 0.6432431 0.13474274
v -0.012607952 -0.24644402 -0.2510302
v 0.012792048 -0.2623418 -0.2478711
v -0.012607952 -0.32140136 -0.2027975
v -0.012607952 -0.24644402 -0.2510302
v 0.0062002027 -0.32140136 -0.20803304
v 0.012792048 -0.32140136 -0.2098681
vt 0.06986674 0.74004924
vt 0.26162148 0.74004924
vt 0.2636332 0.74004924
vt 0.06986674 0.74004924
vt 0.25897634 0.74004924
vt 0.06986674 0.74004924
vt 0.06986674 0.6711965
vt 0.06986674 0.670828
vt 0.06986674 0.6722482
vt 0.06986674 0.74004924
vt 0.06986674 0.74004924
vt 0.14937648 0.69252616
vt 0.25897634 0.74004924
vt 0.06986674 0.670828
vt 0.08172993 0.66319436
vt 0.2636332 0.74004924
vt 0.06986674 0.6722482
vt 0.06986674 0.74004924
vt 0.08492328 0.66255975
vt 0.06855347 0.33605614
vt 0.010562897 0.8104709
vt 0 0.799291
vt 0.11086568 0.050141007
vt 0.018596496 0.8189736
vt 0.13037768 0.063638024
vt 0 0.05471405
vt 0.028785057 1.5258789E-07
vt 0.018600311 0.06944199
vt 0.013412399 0
vt 0.008024598 1.5258789E-07
vn -0 0 -1
vn -0 0 -1
vn -0 0 -1
vn -0 0 -1
vn -0 0 -1
vn -0 1 2.8116753E-07
vn -0 1 2.811675E-07
vn -0 1 2.811675E-07
vn -0 1 2.8705722E-07
vn -0 1 2.8705722E-07
vn -1 0 0
vn -1 0 0
vn -1 0 0
vn -1 0 0
vn -1 0 0
vn 1 0 0
vn 1 0 0
vn 1 0 0
vn 1 0 0
vn -0.34130403 -0.37392977 0.8623736
vn -0.341304 -0.3739297 0.8623736
vn -0.341304 -0.37392974 0.8623736
vn -0.34130096 -0.3739301 0.86237454
vn -0.34129754 -0.37393054 0.8623758
vn -0.34129816 -0.3739305 0.86237556
vn 0.22793205 0.5268776 0.8188084
vn 0.22793204 0.52687764 0.81880826
vn 0.22793202 0.5268776 0.81880826
vn 0.22792763 0.52687955 0.81880826
vn 0.22794217 0.5268764 0.8188062
g Device_Prop_Box_004_v_037_0
f 3/3/3 2/2/2 1/1/1
f 1/1/1 2/2/2 4/4/4
f 5/5/5 4/4/4 2/2/2
f 8/8/8 7/7/7 6/6/6
f 7/7/7 9/9/9 6/6/6
f 10/10/10 6/6/6 9/9/9
f 13/13/13 12/12/12 11/11/11
f 11/11/11 12/12/12 14/14/14
f 15/15/15 14/14/14 12/12/12
f 18/18/18 17/17/17 16/16/16
f 19/19/19 16/16/16 17/17/17
f 22/22/22 21/21/21 20/20/20
f 20/20/20 21/21/21 23/23/23
f 21/21/21 24/24/24 23/23/23
f 24/24/24 25/25/25 23/23/23
f 28/28/28 27/27/27 26/26/26
f 27/27/27 29/29/29 26/26/26
f 26/26/26 29/29/29 30/30/30
