g Device_Prop_Box_008_v_028
v -0.012631109 -0.58992743 -0.16801643
v -0.0045823753 0.7221065 -0.1680163
v 0.010379308 -0.57956666 -0.16801643
v -0.0045823753 0.7221065 -0.1680163
v -0.012631109 -0.58992743 -0.16801643
v -0.012631109 0.7303118 -0.1680163
v 0.012768891 0.7044176 -0.1680163
v 0.010379308 -0.57956666 -0.16801643
v -0.0045823753 0.7221065 -0.1680163
v 0.010379308 -0.57956666 -0.16801643
v 0.012768891 0.7044176 -0.1680163
v 0.012768891 -0.57849073 -0.16801643
v 0.012768891 -0.57849073 -0.16801643
v 0.012768891 -0.28655422 0.30301735
v 0.012768891 -0.5688844 -0.11536602
v 0.012768891 0.7044176 -0.1680163
v 0.012768891 0.520438 0.027497062
v 0.012768891 0.520438 0.027497062
v -0.012631109 0.7303118 -0.1680163
v -0.012631012 0.5456629 0.028208258
v -0.0045823753 0.7221065 -0.1680163
v 0.012768891 0.7044176 -0.1680163
v -0.012631012 -0.47830588 0.016762154
v -0.012631012 -0.2802893 0.31020185
v -0.012631012 -0.09385367 0.24654968
v -0.012631109 -0.58508426 -0.14147209
v -0.012631109 0.7303118 -0.1680163
v -0.012631012 0.5456629 0.028208258
v -0.012631109 -0.58992743 -0.16801643
v -0.012631012 -0.09385367 0.24654968
v 0.012768891 0.520438 0.027497062
v -0.012631012 0.5456629 0.028208258
v -0.012631012 -0.2802893 0.31020185
v 0.012768891 -0.28655422 0.30301735
v -0.012631012 -0.47830588 0.016762154
v 0.012768891 -0.28655422 0.30301735
v -0.012631012 -0.2802893 0.31020185
v -0.012631109 -0.58508426 -0.14147209
v 0.012768891 -0.5688844 -0.11536602
v 0.010379308 -0.57956666 -0.16801643
v -0.012631109 -0.58508426 -0.14147209
v -0.012631109 -0.58992743 -0.16801643
v 0.012768891 -0.57849073 -0.16801643
v 0.012768891 -0.5688844 -0.11536602
vt 1.4740685 0.47474247
vt 1.2105227 0.47474247
vt 1.4719875 0.4747425
vt 1.2105227 0.47474247
vt 1.4740685 0.47474247
vt 1.2088745 0.47474247
vt 1.2140758 0.47474247
vt 1.4719875 0.4747425
vt 1.2105227 0.47474247
vt 1.4719875 0.4747425
vt 1.2140758 0.47474247
vt 1.4717714 0.47474247
vt 1.4717714 0.47474247
vt 1.4131305 0.56935817
vt 1.4698418 0.4853183
vt 1.2140758 0.47474247
vt 1.2510314 0.5140149
vt 0 0.18436573
vt 0.13197853 3.8146972E-08
vt 0.028184509 0.18503636
vt 0.12292824 0
vt 0.10341774 3.8146972E-08
vt 1.4516473 0.5118586
vt 1.411872 0.5708013
vt 1.374423 0.5580156
vt 1.4730958 0.4800744
vt 1.2088745 0.47474247
vt 1.2459645 0.5141578
vt 1.4740685 0.47474247
vt 0.06425163 0.5735083
vt 0.14246105 1.081439
vt 0.12349302 1.1022964
vt 0.046981204 0.41935295
vt 0.067705564 0.41417274
vt 0.27874175 7.6293944E-08
vt 0.007448654 0.020021362
vt 0 7.6293944E-08
vt 0.4290503 1.0959997E-08
vt 0.40487587 0.020021362
vt 0.04229351 0.019816361
vt 0.022511693 0
vt 0.04375784 7.6293944E-08
vt 0.042141456 0.021874314
vt 0 0.021874238
vn -0 0 1
vn -0 0 1
vn -0 0 1
vn -0 0 1
vn -0 0 1
vn -0 0 1
vn -0 0 1
vn -0 0 1
vn -0 0 1
vn -0 0 1
vn -0 0 1
vn -0 0 1
vn -1 0 0
vn -1 0 0
vn -1 0 0
vn -1 0 0
vn -1 0 0
vn -0.59610426 -0.5847262 -0.55023175
vn -0.59610426 -0.5847262 -0.55023175
vn -0.59610426 -0.5847262 -0.55023175
vn -0.59610236 -0.58472705 -0.5502329
vn -0.5961049 -0.5847258 -0.5502314
vn 1 0 0
vn 1 0 0
vn 1 0 0
vn 1 6.134054E-07 -1.0262745E-06
vn 1 0 -7.2752323E-07
vn 1 0 -7.275233E-07
vn 1 0 0
vn -0.32814145 -0.30521327 -0.893962
vn -0.32814145 -0.30521327 -0.893962
vn -0.32814145 -0.30521327 -0.893962
vn -0.32814115 -0.30521327 -0.89396214
vn -0.32814297 -0.30521303 -0.89396155
vn 0.046185892 0.82803637 -0.5587688
vn 0.04618589 0.82803637 -0.5587688
vn 0.046185892 0.82803637 -0.55876887
vn 0.04618733 0.8280363 -0.5587689
vn 0.046186924 0.8280363 -0.55876887
vn -0.40499938 0.8994675 -0.16411443
vn -0.4049994 0.8994675 -0.16411443
vn -0.4049994 0.8994675 -0.16411443
vn -0.40498653 0.89947563 -0.16410159
vn -0.40499723 0.8994687 -0.16411357
g Device_Prop_Box_008_v_028_0
f 3/3/3 2/2/2 1/1/1
f 6/6/6 5/5/5 4/4/4
f 9/9/9 8/8/8 7/7/7
f 12/12/12 11/11/11 10/10/10
f 15/15/15 14/14/14 13/13/13
f 13/13/13 14/14/14 16/16/16
f 14/14/14 17/17/17 16/16/16
f 20/20/20 19/19/19 18/18/18
f 19/19/19 21/21/21 18/18/18
f 18/18/18 21/21/21 22/22/22
f 25/25/25 24/24/24 23/23/23
f 23/23/23 26/26/26 25/25/25
f 25/25/25 26/26/26 27/27/27
f 28/28/28 25/25/25 27/27/27
f 27/27/27 26/26/26 29/29/29
f 32/32/32 31/31/31 30/30/30
f 30/30/30 31/31/31 33/33/33
f 31/31/31 34/34/34 33/33/33
f 37/37/37 36/36/36 35/35/35
f 35/35/35 36/36/36 38/38/38
f 36/36/36 39/39/39 38/38/38
f 42/42/42 41/41/41 40/40/40
f 40/40/40 41/41/41 43/43/43
f 41/41/41 44/44/44 43/43/43
