g Device_Prop_Box_01_v_073
v 0.012586247 -0.45958632 0.5456283
v 0.012586247 0.4934476 -0.024000764
v 0.012586247 0.08153848 0.5456283
v 0.012586247 -0.45958605 -0.40138155
v 0.012586247 0.786296 -0.42898068
v 0.012586247 -0.45958632 0.5456283
v -0.0056700995 -0.45958614 -0.40369973
v 0.012586247 -0.45958605 -0.40138155
v -0.012813849 -0.45958614 -0.40460685
v -0.0128137525 -0.45958632 0.5456283
v -0.0128137525 -0.45958632 0.5456283
v -0.0070325164 0.043379765 0.5456283
v -0.0128137525 0.032135297 0.5456285
v 0.012586247 0.08153848 0.5456283
v 0.012586247 -0.45958632 0.5456283
v -0.0128137525 0.032135297 0.5456285
v -0.012813656 0.5506131 -0.17137451
v -0.0128137525 -0.45958632 0.5456283
v -0.012813849 -0.45958614 -0.40460685
v -0.012813656 0.1382405 -0.41785008
v -0.0128137525 0.7384586 -0.4311463
v -0.012813656 0.1382405 -0.41785008
v -0.0056700995 -0.45958614 -0.40369973
v -0.012813849 -0.45958614 -0.40460685
v -0.0128137525 0.7384586 -0.4311463
v 0.012586247 -0.45958605 -0.40138155
v 0.012586247 0.786296 -0.42898068
v -0.0070325164 0.043379765 0.5456283
v -0.012813656 0.5506131 -0.17137451
v -0.0128137525 0.032135297 0.5456285
v 0.012586247 0.786296 -0.42898068
v -0.0128137525 0.7384586 -0.4311463
v 0.012586247 0.4934476 -0.024000764
v 0.012586247 0.08153848 0.5456283
vt 1.5137455 0.74004924
vt 1.3223113 0.6256288
vt 1.4050508 0.74004924
vt 1.5137455 0.549825
vt 1.2634873 0.54428124
vt 1.5137455 0.74004924
vt 1.5137455 0.5493594
vt 1.5137455 0.549825
vt 1.5137455 0.54917717
vt 1.5137455 0.74004924
vt 1.5137455 0.74004924
vt 1.4127157 0.74004924
vt 1.4149743 0.74004924
vt 1.4050508 0.74004924
vt 1.5137455 0.74004924
vt 1.4149743 0.74004924
vt 1.3108286 0.5960261
vt 1.5137455 0.74004924
vt 1.5137455 0.54917717
vt 1.3936611 0.546517
vt 1.2730963 0.5438462
vt 0.021474114 0.47084332
vt 0.014490509 0
vt 0.020160712 0
vt 0.022792984 0.9435701
vt 0 1.5258789E-07
vt 0.0027375263 0.9812464
vt 0.5273049 0.8100647
vt 0.17418636 0.21543556
vt 0.53726053 0.81006485
vt 0 0.0017959594
vt 0.042643968 0
vt 0.20507279 0.33765644
vt 0.49352014 0.8100647
vn -1 0 0
vn -1 0 0
vn -1 0 0
vn -1 0 0
vn -1 0 0
vn -5.3463523E-06 1 3.06945E-07
vn -5.3463523E-06 1 3.06945E-07
vn -5.3463527E-06 1 3.0694503E-07
vn -0 1 0
vn -0 1 0
vn -3.4286448E-05 3.9409827E-07 -1
vn -3.428645E-05 3.9409827E-07 -1
vn -3.4286448E-05 3.9409827E-07 -1
vn -0 0 -1
vn -0 0 -1
vn 1 0 0
vn 1 -3.1256735E-07 5.229493E-07
vn 1 0 0
vn 1 -3.1256735E-07 5.229493E-07
vn 1 -3.1256735E-07 5.229493E-07
vn 1 0 -2.604328E-07
vn -0.12593834 0.02197057 0.99179476
vn -0.12593834 0.021970568 0.99179476
vn -0.12593834 0.021970572 0.99179476
vn -0.12594016 0.021970544 0.9917945
vn -0.12593722 0.02197057 0.9917949
vn -0.12593928 0.021970518 0.99179465
vn 0.8443785 -0.43413448 -0.3139303
vn 0.8443785 -0.43413454 -0.3139303
vn 0.8443785 -0.43413448 -0.3139303
vn 0.84438425 -0.43412703 -0.31392515
vn 0.84438425 -0.43412703 -0.31392515
vn 0.8443824 -0.43412933 -0.31392688
vn 0.8443836 -0.4341278 -0.3139257
g Device_Prop_Box_01_v_073_0
f 3/3/3 2/2/2 1/1/1
f 1/1/1 2/2/2 4/4/4
f 5/5/5 4/4/4 2/2/2
f 8/8/8 7/7/7 6/6/6
f 7/7/7 9/9/9 6/6/6
f 10/10/10 6/6/6 9/9/9
f 13/13/13 12/12/12 11/11/11
f 12/12/12 14/14/14 11/11/11
f 15/15/15 11/11/11 14/14/14
f 18/18/18 17/17/17 16/16/16
f 19/19/19 17/17/17 18/18/18
f 20/20/20 17/17/17 19/19/19
f 20/20/20 21/21/21 17/17/17
f 24/24/24 23/23/23 22/22/22
f 22/22/22 23/23/23 25/25/25
f 23/23/23 26/26/26 25/25/25
f 26/26/26 27/27/27 25/25/25
f 30/30/30 29/29/29 28/28/28
f 29/29/29 31/31/31 28/28/28
f 32/32/32 31/31/31 29/29/29
f 31/31/31 33/33/33 28/28/28
f 28/28/28 33/33/33 34/34/34
