g Device_Prop_Box_010_v_002
v 0.046406567 -0.0015933135 0.29684666
v 0.046406567 0.013182238 -0.25562495
v 0.04640652 0.013182238 0.2948432
v 0.046406567 -0.012217762 -0.25562495
v 0.046406567 -0.012217859 0.29828715
v 0.046406567 0.013182238 -0.25562495
v 0.046406567 -0.012217762 -0.25562495
v -0.06734221 -0.012217762 -0.15500513
v -0.07453852 -0.012217762 -0.25562495
v 0.046406567 -0.012217859 0.29828715
v -0.035130803 -0.012217956 0.2953822
v 0.046406567 0.013182238 -0.25562495
v -0.055545155 0.011447945 -0.25562495
v -0.054153234 0.013182238 -0.25562495
v 0.046406567 -0.012217762 -0.25562495
v -0.07453852 -0.012217762 -0.25562495
v -0.035130803 -0.012217956 0.2953822
v 0.04640652 0.013182238 0.2948432
v -0.01494027 0.013182238 0.29265767
v 0.046406567 -0.0015933135 0.29684666
v 0.046406567 -0.012217859 0.29828715
v 0.046406567 0.013182238 -0.25562495
v -0.01494027 0.013182238 0.29265767
v 0.04640652 0.013182238 0.2948432
v -0.054153234 0.013182238 -0.25562495
v -0.055545155 0.011447945 -0.25562495
v -0.01494027 0.013182238 0.29265767
v -0.054153234 0.013182238 -0.25562495
v -0.06734221 -0.012217762 -0.15500513
v -0.07453852 -0.012217762 -0.25562495
v -0.035130803 -0.012217956 0.2953822
vt 1.6396091 0.18020177
vt 1.639609 0.069198
vt 1.6396091 0.17979923
vt 1.639609 0.069198
vt 1.6396091 0.18049118
vt 1.639609 0.069198
vt 1.639609 0.069198
vt 1.6624637 0.089414746
vt 1.6639096 0.069198
vt 1.6396091 0.18049118
vt 1.6559918 0.17990753
vt 1.639609 0.069198
vt 1.6600933 0.069198
vt 1.6598138 0.069198
vt 1.639609 0.069198
vt 1.6639096 0.069198
vt 0.06848402 0
vt 0.13263084 0.020182876
vt 0.0842956 0.020182876
vt 0.13268703 0.0084422305
vt 0.13272743 0
vt 1.639609 0.069198
vt 1.6519351 0.17936009
vt 1.6396091 0.17979923
vt 1.6598138 0.069198
vt 0.021077119 0
vt 0 0.43238968
vt 0.01932602 0
vt 0.041424025 0.079351366
vt 0.044970702 0
vt 0.025548859 0.43453828
vn -1 0 0
vn -1 -3.2907724E-06 0
vn -1 -3.2907728E-06 0
vn -1 0 0
vn -1 0 0
vn -1 0 0
vn -0 1 0
vn -0 1 0
vn -0 1 0
vn -0 1 0
vn -1.2067343E-06 1 5.1657145E-07
vn -0 0 1
vn -0 0 1
vn -0 0 1
vn -0 0 1
vn -0 0 1
vn 0.035280768 -0.13427053 -0.99031645
vn 0.03528077 -0.13427053 -0.99031657
vn 0.035280768 -0.13427053 -0.99031645
vn 0.035283666 -0.13427979 -0.99031514
vn 0.03528249 -0.13427056 -0.99031645
vn -0 -1 0
vn -0 -1 0
vn -0 -1 0
vn -0 -1 0
vn 0.77867347 -0.624953 -0.055690426
vn 0.77867347 -0.624953 -0.055690426
vn 0.77867347 -0.62495303 -0.055690438
vn 0.77868056 -0.62494415 -0.055690985
vn 0.77868015 -0.6249447 -0.05569108
vn 0.7786805 -0.6249442 -0.05569098
g Device_Prop_Box_010_v_002_0
f 3/3/3 2/2/2 1/1/1
f 5/5/5 1/1/1 4/4/4
f 4/4/4 1/1/1 6/6/6
f 9/9/9 8/8/8 7/7/7
f 7/7/7 8/8/8 10/10/10
f 11/11/11 10/10/10 8/8/8
f 14/14/14 13/13/13 12/12/12
f 12/12/12 13/13/13 15/15/15
f 16/16/16 15/15/15 13/13/13
f 19/19/19 18/18/18 17/17/17
f 18/18/18 20/20/20 17/17/17
f 17/17/17 20/20/20 21/21/21
f 24/24/24 23/23/23 22/22/22
f 25/25/25 22/22/22 23/23/23
f 28/28/28 27/27/27 26/26/26
f 27/27/27 29/29/29 26/26/26
f 26/26/26 29/29/29 30/30/30
f 31/31/31 29/29/29 27/27/27
