g Device_Prop_Box_01_v_004
v 0.012810652 0.19547789 -0.14887558
v 0.004643418 0.19547789 0.27581713
v 0.012810652 0.1954778 0.2756834
v -0.012589348 0.19547789 -0.14887558
v -0.0065260553 -0.33202952 -0.14887565
v -0.012589348 -0.33302215 -0.14887565
v 0.012810652 -0.3288639 -0.14887565
v 0.012810652 0.19547789 -0.14887558
v 0.012810652 -0.3288639 -0.14887565
v 0.012810652 -0.13233088 0.047055945
v 0.012810652 -0.31248194 -0.08410863
v 0.012810652 0.19547789 -0.14887558
v 0.012810652 0.1954778 0.2756834
v 0.012810652 0.1583566 0.25869995
v -0.012589348 0.19547789 0.27609923
v 0.012810652 0.19547789 -0.14887558
v -0.012589348 0.19547789 -0.14887558
v 0.004643418 0.19547789 0.27581713
v 0.004643418 0.19547789 0.27581713
v 0.012810652 0.1583566 0.25869995
v 0.012810652 0.1954778 0.2756834
v -0.012589348 0.19547789 0.27609923
v -0.012589348 0.10568851 0.23501933
v -0.012589348 0.19547789 -0.14887558
v -0.012589348 0.10568851 0.23501933
v -0.012589348 0.19547789 0.27609923
v -0.012589348 -0.31303194 -0.06984312
v -0.012589348 -0.33302215 -0.14887565
v -0.012589348 -0.31303194 -0.06984312
v 0.012810652 0.1583566 0.25869995
v -0.012589348 0.10568851 0.23501933
v 0.012810652 -0.13233088 0.047055945
v 0.012810652 -0.31248194 -0.08410863
v -0.012589348 -0.31303194 -0.06984312
v 0.012810652 -0.3288639 -0.14887565
v 0.012810652 -0.31248194 -0.08410863
v -0.0065260553 -0.33202952 -0.14887565
v -0.012589348 -0.33302215 -0.14887565
vt 0.5137455 0.47474247
vt 0.51374555 0.5600498
vt 0.5137455 0.5600229
vt 0.5137455 0.47474247
vt 0.40778598 0.47474247
vt 0.40758663 0.47474247
vt 0.4084219 0.47474247
vt 0.5137455 0.47474247
vt 0.4084219 0.47474247
vt 0.4478991 0.5140989
vt 0.41171247 0.4877521
vt 0.5137455 0.47474247
vt 0.5137455 0.5600229
vt 0.506289 0.5566114
vt 0.51374555 0.5601064
vt 0.5137455 0.47474247
vt 0.5137455 0.47474247
vt 0.51374555 0.5600498
vt 0.013570938 0.8042949
vt 0.020221557 0.7721525
vt 0.02000267 0.8042949
vt 0 0.8042949
vt 0.00052945147 0.7265483
vt 0.5137455 0.47474247
vt 0.49570972 0.5518547
vt 0.51374555 0.5601064
vt 0.41160202 0.49061757
vt 0.40758663 0.47474247
vt 0.12003194 0.101043336
vt 0.007996521 0.53983724
vt 0 0.4908109
vt 0.09132603 0.26924962
vt 0.14296879 0.10155531
vt 0 0
vt 0.06338726 0.020250397
vt 0.010783539 0.020250397
vt 0.06399849 0.0048340606
vt 0.06419014 0
vn -1.18674E-05 -1 0
vn -1.1867399E-05 -1 0
vn -1.18674E-05 -1 0
vn -0 0 1
vn -0 0 1
vn -0 0 1
vn -0 0 1
vn -0 0 1
vn -1 0 0
vn -1 0 0
vn -1 0 0
vn -1 0 0
vn -1 0 0
vn -1 0 0
vn -0 -1 0
vn -0 -1 0
vn -0 -1 0
vn -0 -1 0
vn -0.014881113 0.4159928 -0.9092462
vn -0.014881113 0.41599286 -0.9092462
vn -0.014881111 0.41599286 -0.9092461
vn -0.0148846 0.41599217 -0.9092464
vn -0.014883327 0.4159929 -0.9092461
vn 1 0 0
vn 1 0 0
vn 1 0 0
vn 1 0 0
vn 1 0 0
vn -0.42297474 0.533354 -0.7325476
vn -0.4229747 0.533354 -0.7325476
vn -0.4229747 0.533354 -0.7325476
vn -0.42297313 0.53335434 -0.7325482
vn -0.42297328 0.53335434 -0.73254806
vn -0.15675157 0.9574844 -0.24218275
vn -0.15675157 0.9574844 -0.24218278
vn -0.15675159 0.9574844 -0.24218278
vn -0.15675166 0.9574844 -0.2421828
vn -0.15675013 0.9574847 -0.2421827
g Device_Prop_Box_01_v_004_0
f 3/3/3 2/2/2 1/1/1
f 6/6/6 5/5/5 4/4/4
f 5/5/5 7/7/7 4/4/4
f 8/8/8 4/4/4 7/7/7
f 11/11/11 10/10/10 9/9/9
f 12/12/12 9/9/9 10/10/10
f 12/12/12 10/10/10 13/13/13
f 14/14/14 13/13/13 10/10/10
f 17/17/17 16/16/16 15/15/15
f 18/18/18 15/15/15 16/16/16
f 21/21/21 20/20/20 19/19/19
f 19/19/19 20/20/20 22/22/22
f 20/20/20 23/23/23 22/22/22
f 26/26/26 25/25/25 24/24/24
f 25/25/25 27/27/27 24/24/24
f 24/24/24 27/27/27 28/28/28
f 31/31/31 30/30/30 29/29/29
f 30/30/30 32/32/32 29/29/29
f 32/32/32 33/33/33 29/29/29
f 36/36/36 35/35/35 34/34/34
f 35/35/35 37/37/37 34/34/34
f 34/34/34 37/37/37 38/38/38
