g Device_Prop_Box_01_v_048
v 0.014830272 0.0024591521 0.012721801
v -0.030734945 0.0024592006 0.012721801
v 0.014830272 0.0024591521 -0.026358323
v 0.014830272 -0.0025408333 0.012721753
v 0.002313352 -0.0025408333 -0.013754732
v -0.028556686 -0.0025408333 0.012721753
v 0.014830272 -0.0025408333 -0.024490172
v 0.014830272 -0.0025408333 0.012721753
v -0.030734945 0.0024592006 0.012721801
v 0.014830272 0.0024591521 0.012721801
v -0.030122047 0.0010523582 0.012721753
v -0.028556686 -0.0025408333 0.012721753
v 0.014830272 0.0011093315 -0.025853993
v 0.014830272 0.0024591521 0.012721801
v 0.014830272 0.0024591521 -0.026358323
v 0.014830272 -0.0025408333 -0.024490172
v 0.014830272 -0.0025408333 0.012721753
v 0.014830272 0.0011093315 -0.025853993
v 0.002313352 -0.0025408333 -0.013754732
v 0.014830272 -0.0025408333 -0.024490172
v 0.014830272 0.0024591521 -0.026358323
v -0.030122047 0.0010523582 0.012721753
v -0.028556686 -0.0025408333 0.012721753
v -0.030734945 0.0024592006 0.012721801
vt 0.8925565 0.7696719
vt 0.8925564 0.80348724
vt 0.7796749 0.7906515
vt 0.71746325 0.79981744
vt 0.7267524 0.78016853
vt 0.74966204 0.79981744
vt 0.71746325 0.7722015
vt 0.896267 0.7696719
vt 0.8925564 0.80348724
vt 0.8925565 0.7696719
vt 0.89360046 0.8030324
vt 0.89626694 0.8018706
vt 0.557234 0.8453798
vt 0.58586216 0.8463815
vt 0.5568597 0.8463815
vt 0.55824614 0.842671
vt 0.58586216 0.842671
vt 0.00025852202 0.0029875564
vt 0.013941994 3.8146972E-08
vt 0.0009576416 0
vt 0 0.004092293
vt 0.04690037 0.0029409027
vt 0.045964774 0
vt 0.047266692 0.004092331
vn 1.0632377E-06 1 0
vn 1.0632376E-06 1 0
vn 1.0632377E-06 1 0
vn -0 -1 0
vn -0 -1 0
vn -0 -1 0
vn -0 -1 0
vn -0 -9.689359E-06 1
vn -0 -9.689359E-06 1
vn -0 -9.689359E-06 1
vn -2.8519364E-06 -3.567891E-05 1
vn -0 0 1
vn 1 0 0
vn 1 0 0
vn 1 0 0
vn 1 0 0
vn 1 0 0
vn -0.6263237 -0.2728438 -0.7302568
vn -0.6263217 -0.2728546 -0.73025453
vn -0.6263222 -0.27284786 -0.7302565
vn -0.62632453 -0.2728366 -0.7302587
vn -0.62632453 -0.27283657 -0.7302587
vn -0.6263216 -0.2728546 -0.73025453
vn -0.62632453 -0.2728366 -0.7302587
g Device_Prop_Box_01_v_048_0
f 3/3/3 2/2/2 1/1/1
f 6/6/6 5/5/5 4/4/4
f 7/7/7 4/4/4 5/5/5
f 10/10/10 9/9/9 8/8/8
f 9/9/9 11/11/11 8/8/8
f 11/11/11 12/12/12 8/8/8
f 15/15/15 14/14/14 13/13/13
f 14/14/14 16/16/16 13/13/13
f 17/17/17 16/16/16 14/14/14
f 20/20/20 19/19/19 18/18/18
f 19/19/19 21/21/21 18/18/18
f 22/22/22 21/21/21 19/19/19
f 23/23/23 22/22/22 19/19/19
f 24/24/24 21/21/21 22/22/22
