g Device_Prop_Box_01_v_009
v 0.62145734 0.012627523 0.13587135
v 0.62145734 0.0053487043 -0.24262822
v 0.6214574 0.01262762 -0.24518415
v 0.62145734 -0.012772476 -0.23626523
v 0.62145734 -0.012772476 0.13587135
v 0.62145734 0.012627523 0.13587135
v 0.62145734 -0.012772476 -0.23626523
v 0.62145734 0.0053487043 -0.24262822
v -0.87168187 0.012627523 0.13587135
v 0.2596977 0.012627523 -0.18413381
v -0.87168187 0.012627523 0.006797259
v 0.62145734 0.012627523 0.13587135
v 0.6214574 0.01262762 -0.24518415
v 0.62145734 -0.012772476 0.13587135
v -0.87168187 0.012627523 0.13587135
v -0.87168187 -0.012772476 0.13587135
v 0.62145734 0.012627523 0.13587135
v -0.87168187 -0.012772476 0.13587135
v -0.87168187 -0.010446068 0.014899188
v -0.87168187 -0.012772476 0.015716095
v -0.87168187 0.012627523 0.13587135
v -0.87168187 0.012627523 0.006797259
v 0.62145734 -0.012772476 0.13587135
v -0.70382506 -0.012772476 -0.012611246
v 0.62145734 -0.012772476 -0.23626523
v -0.87168187 -0.012772476 0.13587135
v -0.87168187 -0.012772476 0.015716095
v -0.87168187 -0.010446068 0.014899188
v -0.70382506 -0.012772476 -0.012611246
v -0.87168187 -0.012772476 0.015716095
v 0.2596977 0.012627523 -0.18413381
v -0.87168187 0.012627523 0.006797259
v 0.62145734 0.0053487043 -0.24262822
v 0.62145734 -0.012772476 -0.23626523
v 0.6214574 0.01262762 -0.24518415
vt 0.9396146 0.3345759
vt 0.9396146 0.25852695
vt 0.9396146 0.25801343
vt 0.93961453 0.25980544
vt 0.9396146 0.3345759
vt 0.9396146 0.3345759
vt 0.93961453 0.25980544
vt 0.9396146 0.25852695
vt 0.63960916 0.3345759
vt 0.8669289 0.2702798
vt 0.63960916 0.30864206
vt 0.9396146 0.3345759
vt 0.9396146 0.25801343
vt 0.9396146 0.3345759
vt 0.63960916 0.3345759
vt 0.63960916 0.3345759
vt 0.9396146 0.3345759
vt 0.63960916 0.3345759
vt 0.63960916 0.31026992
vt 0.63960916 0.31043404
vt 0.63960916 0.3345759
vt 0.63960916 0.30864206
vt 0.9396146 0.3345759
vt 0.6733354 0.30474246
vt 0.93961453 0.25980544
vt 0.63960916 0.3345759
vt 0.63960916 0.31043404
vt 1.1933861 0.0019386292
vt 1.0594536 0
vt 1.1934931 0
vt 0.2888779 0.021165008
vt 1.1923244 0.021164857
vt 0.00033493043 0.015099793
vt 0.0011686706 0
vt 0 0.021165008
vn -1 1.3266863E-05 0
vn -1 1.3266861E-05 0
vn -1 1.3266859E-05 0
vn -1 0 0
vn -1 0 0
vn -1 -2.6109078E-06 0
vn -1 -2.6109076E-06 0
vn -1 -2.6109076E-06 0
vn -0 -1 0
vn -0 -1 0
vn -0 -1 0
vn -0 -1 0
vn -0 -1 -2.5427607E-07
vn -0 0 -1
vn -0 0 -1
vn -0 0 -1
vn -0 0 -1
vn 1 0 0
vn 1 0 0
vn 1 0 0
vn 1 0 0
vn 1 0 0
vn -0 1 0
vn -0 1 0
vn -0 1 0
vn -0 1 0
vn -0 1 0
vn 0.15724678 0.32719126 0.93178296
vn 0.15724678 0.32719126 0.93178296
vn 0.15724678 0.32719126 0.93178296
vn 0.1572472 0.32718834 0.9317838
vn 0.15724774 0.32718194 0.93178594
vn 0.15724766 0.32718313 0.93178564
vn 0.15724766 0.32718313 0.93178564
vn 0.1572472 0.3271883 0.9317838
g Device_Prop_Box_01_v_009_0
f 3/3/3 2/2/2 1/1/1
f 5/5/5 1/1/1 4/4/4
f 8/8/8 7/7/7 6/6/6
f 11/11/11 10/10/10 9/9/9
f 12/12/12 9/9/9 10/10/10
f 12/12/12 10/10/10 13/13/13
f 16/16/16 15/15/15 14/14/14
f 17/17/17 14/14/14 15/15/15
f 20/20/20 19/19/19 18/18/18
f 18/18/18 19/19/19 21/21/21
f 22/22/22 21/21/21 19/19/19
f 25/25/25 24/24/24 23/23/23
f 26/26/26 23/23/23 24/24/24
f 26/26/26 24/24/24 27/27/27
f 30/30/30 29/29/29 28/28/28
f 29/29/29 31/31/31 28/28/28
f 28/28/28 31/31/31 32/32/32
f 33/33/33 31/31/31 29/29/29
f 34/34/34 33/33/33 29/29/29
f 35/35/35 31/31/31 33/33/33
