g Device_Prop_Box_006_v_019
v 0.008253844 -0.0050519565 -0.042708825
v -0.013400454 0.007051562 -0.042708438
v -0.021397833 -0.0050519807 -0.042709406
v -0.011236269 -0.00504515 0.03350629
v 0.0003475139 0.012486398 0.033506483
v 0.03171319 -0.00504515 0.03350629
v 0.018968621 -0.0050491225 -0.007900293
v -0.011236269 -0.00504515 0.03350629
v 0.03171319 -0.00504515 0.03350629
v -0.01700187 -0.005049304 -0.009736615
v -0.021397833 -0.0050519807 -0.042709406
v 0.008253844 -0.0050519565 -0.042708825
v 0.018968621 -0.0050491225 -0.007900293
v -0.013400454 0.007051562 -0.042708438
v 0.008253844 -0.0050519565 -0.042708825
v 0.03171319 -0.00504515 0.03350629
v 0.0003475139 0.012486398 0.033506483
v 0.0003475139 0.012486398 0.033506483
v -0.021397833 -0.0050519807 -0.042709406
v -0.013400454 0.007051562 -0.042708438
v -0.01700187 -0.005049304 -0.009736615
v -0.011236269 -0.00504515 0.03350629
vt 0.17515564 0.89837325
vt 0.17963992 0.89837325
vt 0.1812954 0.89837325
vt 0.2729388 0.22182561
vt 0.27656883 0.21942714
vt 0.2729388 0.21293265
vt 0.653543 0.55110824
vt 0.64497256 0.5448591
vt 0.64497256 0.55375206
vt 0.6539231 0.5436601
vt 0.66075027 0.5427499
vt 0.66075027 0.54888964
vt 0.027011413 0.3404356
vt 0.0016169179 0.31133717
vt 0 0.33080348
vt 0.059143066 0.35189244
vt 0.06148481 0.32369602
vt 0 0.060382538
vt 0.020960921 0
vt 0.0095380405 7.6293946E-07
vt 0.01905098 0.026122894
vt 0.016545562 0.060382385
vn 1.9606252E-05 6.70989E-05 -1
vn 1.9606252E-05 6.70989E-05 -1
vn 1.9606252E-05 6.7098896E-05 -1
vn -0 -1.1053595E-05 1
vn -0 -1.1053595E-05 1
vn -0 -1.1053594E-05 1
vn -0 -1 9.604933E-05
vn -0 -1 9.604932E-05
vn -0 -1 9.594191E-05
vn -0 -1 9.604932E-05
vn 9.126582E-07 -1 8.105669E-05
vn 8.153379E-07 -1 8.116955E-05
vn 0.48248273 0.8632103 -0.1485883
vn 0.48248273 0.8632103 -0.1485883
vn 0.48248273 0.8632103 -0.1485883
vn 0.4824808 0.86321175 -0.14858603
vn 0.48248252 0.8632106 -0.14858721
vn -0.82921684 0.54789364 0.110507675
vn -0.82921684 0.5478937 0.11050768
vn -0.82921684 0.54789364 0.110507675
vn -0.8292166 0.5478941 0.110507466
vn -0.82921624 0.54789454 0.110507235
g Device_Prop_Box_006_v_019_0
f 3/3/3 2/2/2 1/1/1
f 6/6/6 5/5/5 4/4/4
f 9/9/9 8/8/8 7/7/7
f 10/10/10 7/7/7 8/8/8
f 10/10/10 11/11/11 7/7/7
f 12/12/12 7/7/7 11/11/11
f 15/15/15 14/14/14 13/13/13
f 13/13/13 14/14/14 16/16/16
f 14/14/14 17/17/17 16/16/16
f 20/20/20 19/19/19 18/18/18
f 19/19/19 21/21/21 18/18/18
f 21/21/21 22/22/22 18/18/18
