g Device_Prop_Box_01_v_061
v 0.04725815 -0.04590127 -0.018029144
v -0.07250394 0.016045144 -0.018029142
v -0.07250393 -0.04590127 -0.018029144
v 0.053594522 -0.035650875 -0.018029144
v 0.07859764 0.016045144 -0.018029142
v 0.07859764 0.0047968486 -0.018029142
v 0.07859764 0.016045144 -0.018029142
v -0.07250395 0.016045144 0.04391727
v -0.07250394 0.016045144 -0.018029142
v 0.07859766 0.016045144 0.04391727
v 0.07859764 0.016045144 -0.018029142
v 0.07859764 0.0047968486 -0.018029142
v 0.07859764 0.0049024625 -0.017129764
v 0.07859764 0.0053842645 -0.013029142
v 0.07859764 0.011045159 -0.013029142
v 0.07859766 0.016045144 0.04391727
v 0.07859766 0.012074892 0.04391727
v 0.07859766 0.011045159 0.035152655
v -0.07250393 -0.04590127 -0.018029144
v -0.07250394 0.011045159 -0.013029142
v -0.07250393 -0.04590127 -0.013029145
v -0.07250394 0.016045144 -0.018029142
v -0.07250395 0.011045159 0.04391727
v -0.07250395 0.016045144 0.04391727
v 0.047182653 -0.04590127 -0.016989611
v -0.07250393 -0.04590127 -0.013029145
v 0.04689502 -0.04590127 -0.013029145
v 0.04725815 -0.04590127 -0.018029144
v -0.07250393 -0.04590127 -0.018029144
v 0.07859766 0.011045159 0.035152655
v -0.07250395 0.011045159 0.04391727
v 0.0779611 0.011045159 0.04391727
v 0.07859764 0.011045159 -0.013029142
v -0.07250394 0.011045159 -0.013029142
v -0.07250393 -0.04590127 -0.013029145
v 0.07859764 0.0053842645 -0.013029142
v 0.04689502 -0.04590127 -0.013029145
v -0.07250395 0.016045144 0.04391727
v 0.0779611 0.011045159 0.04391727
v -0.07250395 0.011045159 0.04391727
v 0.07797386 0.011065797 0.04391727
v 0.07859766 0.012074892 0.04391727
v 0.07859766 0.016045144 0.04391727
v 0.047182653 -0.04590127 -0.016989611
v 0.053594522 -0.035650875 -0.018029144
v 0.04725815 -0.04590127 -0.018029144
v 0.04689502 -0.04590127 -0.013029145
v 0.07859764 0.0049024625 -0.017129764
v 0.07859764 0.0047968486 -0.018029142
v 0.07859764 0.0053842645 -0.013029142
v 0.07859766 0.011045159 0.035152655
v 0.07797386 0.011065797 0.04391727
v 0.07859766 0.012074892 0.04391727
v 0.0779611 0.011045159 0.04391727
vt 0.9408576 0.7370647
vt 0.894885 0.6481863
vt 0.9408575 0.6481863
vt 0.93325037 0.74176717
vt 0.894885 0.7603226
vt 0.9032327 0.7603226
vt 0.8828215 0.7595246
vt 0.8368496 0.64738786
vt 0.8828215 0.64738786
vt 0.8368496 0.7595246
vt 0.97084516 0.79013336
vt 0.9624975 0.79013336
vt 0.9625759 0.7894659
vt 0.9629334 0.7864228
vt 0.96713454 0.78642285
vt 0.97084516 0.74416137
vt 0.9678987 0.74416137
vt 0.96713454 0.75066584
vt 0.99288076 0.766747
vt 0.98917013 0.80900836
vt 0.98917013 0.766747
vt 0.99288076 0.8127192
vt 0.9469088 0.80900836
vt 0.9469088 0.8127192
vt 0.9498775 0.4418006
vt 0.94693846 0.5306234
vt 0.94693846 0.44201407
vt 0.95064896 0.44174457
vt 0.95064896 0.5306234
vt 0.96713454 0.75066584
vt 0.4748581 0.816769
vt 0.9650607 0.74446726
vt 0.96713454 0.78642285
vt 0.98917013 0.80900836
vt 0.98917013 0.766747
vt 0.9651269 0.74984735
vt 0.95579904 0.49155515
vt 0.4748581 0.81305814
vt 0.5865224 0.816769
vt 0.4748581 0.816769
vt 0.5865319 0.8167537
vt 0.5869948 0.81600475
vt 0.5869948 0.81305814
vt 0.000119094846 0.0008200836
vt 0.009639092 0
vt 0.00015033722 0
vt 0 0.0039445115
vt 0.047152176 0.00070952415
vt 0.047081452 0
vt 0.0474749 0.0039445115
vt 0.00026355742 0
vt 1.9073486E-05 0.00691443
vt 0.0009532166 0.00691443
vt 0 0.00691443
vn -0 0 -1
vn -0 0 -1
vn -0 0 -1
vn -0 0 -1
vn -0 0 -1
vn -0 0 -1
vn -0 1 0
vn -0 1 0
vn -0 1 0
vn -0 1 0
vn 1 0 0
vn 1 0 0
vn 1 0 0
vn 1 0 0
vn 1 0 0
vn 1 0 0
vn 1 0 0
vn 1 2.1395801E-06 0
vn -1 0 0
vn -1 0 0
vn -1 0 0
vn -1 0 0
vn -1 0 0
vn -1 0 0
vn -0 -1 0
vn -0 -1 0
vn -0 -1 0
vn -0 -1 0
vn -0 -1 0
vn -0 -1 0
vn -0 -1 0
vn -0 -1 0
vn -0 -1 0
vn -0 -1 0
vn -0 0 1
vn -0 0 1
vn -0 0 1
vn -0 0 1
vn -0 0 1
vn -0 0 1
vn -0 0 1
vn -0 0 1
vn -0 0 1
vn 0.84898466 -0.5248079 0.061658558
vn 0.8489865 -0.52480847 0.061628107
vn 0.84898466 -0.52480793 0.061656706
vn 0.84898454 -0.5248077 0.061662205
vn 0.84898454 -0.52480763 0.061662193
vn 0.8489865 -0.52480847 0.061628107
vn 0.84898454 -0.5248076 0.061662186
vn 0.84898037 -0.5248147 0.06165925
vn 0.84898037 -0.52481467 0.061659247
vn 0.84898037 -0.5248147 0.061659258
vn 0.8489499 -0.52486426 0.061657198
g Device_Prop_Box_01_v_061_0
f 3/3/3 2/2/2 1/1/1
f 2/2/2 4/4/4 1/1/1
f 5/5/5 4/4/4 2/2/2
f 6/6/6 4/4/4 5/5/5
f 9/9/9 8/8/8 7/7/7
f 10/10/10 7/7/7 8/8/8
f 13/13/13 12/12/12 11/11/11
f 14/14/14 13/13/13 11/11/11
f 15/15/15 14/14/14 11/11/11
f 11/11/11 16/16/16 15/15/15
f 16/16/16 17/17/17 15/15/15
f 17/17/17 18/18/18 15/15/15
f 21/21/21 20/20/20 19/19/19
f 22/22/22 19/19/19 20/20/20
f 20/20/20 23/23/23 22/22/22
f 24/24/24 22/22/22 23/23/23
f 27/27/27 26/26/26 25/25/25
f 26/26/26 28/28/28 25/25/25
f 29/29/29 28/28/28 26/26/26
f 32/32/32 31/31/31 30/30/30
f 31/31/31 33/33/33 30/30/30
f 34/34/34 33/33/33 31/31/31
f 35/35/35 33/33/33 34/34/34
f 36/36/36 33/33/33 35/35/35
f 37/37/37 36/36/36 35/35/35
f 40/40/40 39/39/39 38/38/38
f 39/39/39 41/41/41 38/38/38
f 41/41/41 42/42/42 38/38/38
f 42/42/42 43/43/43 38/38/38
f 46/46/46 45/45/45 44/44/44
f 45/45/45 47/47/47 44/44/44
f 48/48/48 47/47/47 45/45/45
f 49/49/49 48/48/48 45/45/45
f 50/50/50 47/47/47 48/48/48
f 53/53/53 52/52/52 51/51/51
f 54/54/54 51/51/51 52/52/52
