g Device_Prop_Box_01_v_063
v -0.0051102983 -0.054070972 -0.013837394
v -0.0051103225 0.028478203 0.026273202
v -0.0051103225 0.028478203 -0.013837382
v 0.0048896726 0.028478203 -0.013837382
v 0.0048896726 -0.011068995 0.009800008
v 0.0048896726 -0.059715636 -0.013837394
v 0.0048896726 0.028478203 0.029015962
v 0.0048896726 0.028478203 -0.013837382
v 0.0040699067 0.028478203 0.028791072
v 0.0048896726 0.028478203 0.029015962
v -0.0051103225 0.028478203 0.026273202
v -0.0051103225 0.028478203 -0.013837382
v -0.0051103225 0.028478203 -0.013837382
v -0.0041552694 -0.054610036 -0.013837394
v -0.0051102983 -0.054070972 -0.013837394
v 0.0048896726 -0.059715636 -0.013837394
v 0.0048896726 0.028478203 -0.013837382
v -0.0041552694 -0.054610036 -0.013837394
v -0.0051103225 0.028478203 0.026273202
v -0.0051102983 -0.054070972 -0.013837394
v 0.0048896726 -0.011068995 0.009800008
v 0.0048896726 -0.059715636 -0.013837394
v 0.0040699067 0.028478203 0.028791072
v 0.0048896726 0.028478203 0.029015962
vt 1.1119838 0.47474244
vt 1.0698668 0.49520713
vt 1.0698668 0.47474247
vt 1.0698668 0.47474247
vt 1.090044 0.48680237
vt 1.1148638 0.47474247
vt 1.0698668 0.49660647
vt 1.0698668 0.47474247
vt 1.0698668 0.49649173
vt 1.0698668 0.49660647
vt 1.0698668 0.49520713
vt 1.0698668 0.47474247
vt 1.0698668 0.47474247
vt 1.1122588 0.47474247
vt 1.1119838 0.47474244
vt 1.1148638 0.47474247
vt 1.0698668 0.47474247
vt 0.0007252121 0.00443964
vt 0.008353882 0.07669016
vt 0 0.00490839
vt 0.012516555 0.042301387
vt 0.0075935554 0
vt 0.015849361 0.0766902
vt 0.016518688 0.07669016
vn 1 2.934412E-07 0
vn 1 2.9344116E-07 0
vn 1 2.934412E-07 0
vn -1 0 0
vn -1 0 0
vn -1 0 0
vn -1 0 0
vn -0 -1 0
vn -0 -1 0
vn -0 -1 0
vn -0 -1 0
vn -0 -1 0
vn -0 0 1
vn -0 0 1
vn -0 0 1
vn -0 0 1
vn -0 0 1
vn 0.23950657 0.4243186 -0.8732642
vn 0.23951082 0.42431706 -0.8732637
vn 0.23950657 0.4243186 -0.8732642
vn 0.23956238 0.42431247 -0.8732518
vn 0.23951484 0.42431808 -0.87326217
vn 0.23956242 0.42431247 -0.8732519
vn 0.23956242 0.42431247 -0.8732519
g Device_Prop_Box_01_v_063_0
f 3/3/3 2/2/2 1/1/1
f 6/6/6 5/5/5 4/4/4
f 7/7/7 4/4/4 5/5/5
f 10/10/10 9/9/9 8/8/8
f 9/9/9 11/11/11 8/8/8
f 11/11/11 12/12/12 8/8/8
f 15/15/15 14/14/14 13/13/13
f 14/14/14 16/16/16 13/13/13
f 16/16/16 17/17/17 13/13/13
f 20/20/20 19/19/19 18/18/18
f 19/19/19 21/21/21 18/18/18
f 21/21/21 22/22/22 18/18/18
f 23/23/23 21/21/21 19/19/19
f 24/24/24 21/21/21 23/23/23
