g Device_Prop_Box_01_v_023
v 0.63808525 0.012738757 0.35632378
v 0.63808537 -0.0026918899 -0.44607624
v 0.63808537 0.012738951 -0.43901652
v -0.8550539 -0.012661243 0.35632378
v 0.63808537 -0.012661049 -0.4506373
v 0.63808525 -0.012661243 0.35632378
v 0.046247564 -0.012661049 -0.44094875
v -0.25336608 -0.012661049 -0.3945916
v -0.8550539 -0.012661243 0.16568601
v -0.027452677 -0.012661049 -0.43974224
v -0.8550539 0.012738757 0.35632378
v 0.63808525 -0.012661243 0.35632378
v 0.63808525 0.012738757 0.35632378
v -0.8550539 -0.012661243 0.35632378
v -0.8550539 -0.012661243 0.35632378
v -0.8550539 -0.009030747 0.16753909
v -0.8550539 -0.012661243 0.16568601
v -0.8550539 0.012738757 0.17865072
v -0.8550539 0.012738757 0.35632378
v -0.8550539 0.012738757 0.17865072
v -0.20843025 0.012738854 -0.3924864
v -0.25079706 0.012738854 -0.384019
v -0.8550539 0.012738757 0.35632378
v 0.63808525 0.012738757 0.35632378
v 0.63808537 0.012738951 -0.43901652
v -0.03036732 0.012738854 -0.42807367
v 0.63808537 -0.012661049 -0.4506373
v 0.63808525 0.012738757 0.35632378
v 0.63808525 -0.012661243 0.35632378
v 0.63808537 -0.0026918899 -0.44607624
v 0.63808537 -0.0026918899 -0.44607624
v -0.03036732 0.012738854 -0.42807367
v 0.63808537 0.012738951 -0.43901652
v 0.046247564 -0.012661049 -0.44094875
v 0.63808537 -0.012661049 -0.4506373
v -0.027452677 -0.012661049 -0.43974224
v -0.25336608 -0.012661049 -0.3945916
v -0.03036732 0.012738854 -0.42807367
v -0.027452677 -0.012661049 -0.43974224
v -0.20843025 0.012738854 -0.3924864
v -0.25079706 0.012738854 -0.384019
v -0.25336608 -0.012661049 -0.3945916
v -0.8550539 0.012738757 0.17865072
v -0.25079706 0.012738854 -0.384019
v -0.8550539 -0.009030747 0.16753909
v -0.8550539 -0.012661243 0.16568601
vt 1.6396091 0.3345759
vt 1.6396091 0.173356
vt 1.639609 0.17477445
vt 1.9396145 0.3345759
vt 1.6396091 0.17243958
vt 1.6396091 0.3345759
vt 1.7585226 0.17438623
vt 1.8187218 0.1837004
vt 1.9396147 0.29627255
vt 1.7733307 0.17462865
vt 1.9396145 0.3345759
vt 1.6396091 0.3345759
vt 1.6396091 0.3345759
vt 1.9396145 0.3345759
vt 1.9396145 0.3345759
vt 1.9396145 0.29664487
vt 1.9396147 0.29627255
vt 1.9396145 0.29887745
vt 1.9396145 0.3345759
vt 1.9396145 0.29887745
vt 1.8096931 0.1841234
vt 1.8182056 0.18582468
vt 1.9396145 0.3345759
vt 1.6396091 0.3345759
vt 1.639609 0.17477445
vt 1.7739162 0.17697312
vt 1.6396091 0.17243958
vt 1.6396091 0.3345759
vt 1.6396091 0.3345759
vt 1.6396091 0.173356
vt 5.8746336E-05 0.008632126
vt 0.526561 0.021993274
vt 0.00014976501 0.021993332
vt 0.46607646 7.6293944E-08
vt 0 7.6293944E-08
vt 0.5241159 7.005532E-08
vt 0.18140246 1.10935396E-07
vt 0.004051151 0.021754837
vt 0 1.5258789E-07
vt 0.14703092 0.021754837
vt 0.18105035 0.021754833
vt 0 1.5258789E-07
vt 0.6543231 0.02134987
vt 0.004192772 0.021349944
vt 0.6483606 0.0030516053
vt 0.64736634 0
vn -1 -3.111731E-06 0
vn -1 -3.1117306E-06 0
vn -1 -3.1117306E-06 0
vn -0 1 0
vn -0 1 0
vn -0 1 0
vn -0 1 0
vn -0 1 0
vn -3.220717E-07 1 0
vn -0 1 0
vn -0 0 -1
vn -0 0 -1
vn -0 0 -1
vn -0 0 -1
vn 1 0 0
vn 1 0 0
vn 1 0 0
vn 1 0 0
vn 1 0 0
vn -0 -1 0
vn -0 -1 0
vn -0 -1 0
vn -0 -1 0
vn -0 -1 0
vn -0 -1 7.899814E-07
vn -0 -1 7.8998147E-07
vn -1 0 0
vn -1 0 0
vn -1 0 0
vn -1 4.9585274E-06 0
vn 0.014884816 -0.41598874 0.90924793
vn 0.014884816 -0.41598874 0.90924793
vn 0.014884816 -0.41598874 0.90924793
vn 0.014884872 -0.41599417 0.9092455
vn 0.014884604 -0.4159951 0.909245
vn 0.014884872 -0.4159941 0.9092455
vn 0.18017372 -0.39347273 0.90150803
vn 0.18017372 -0.3934727 0.90150803
vn 0.18017374 -0.39347276 0.90150803
vn 0.18017362 -0.39347056 0.901509
vn 0.18017483 -0.39347255 0.90150785
vn 0.6383874 -0.34993476 0.6855707
vn 0.6383874 -0.3499348 0.6855707
vn 0.6383874 -0.34993476 0.6855707
vn 0.6383885 -0.34993064 0.68557173
vn 0.63838893 -0.34992915 0.68557215
g Device_Prop_Box_01_v_023_0
f 3/3/3 2/2/2 1/1/1
f 6/6/6 5/5/5 4/4/4
f 7/7/7 4/4/4 5/5/5
f 7/7/7 8/8/8 4/4/4
f 4/4/4 8/8/8 9/9/9
f 10/10/10 8/8/8 7/7/7
f 13/13/13 12/12/12 11/11/11
f 14/14/14 11/11/11 12/12/12
f 17/17/17 16/16/16 15/15/15
f 16/16/16 18/18/18 15/15/15
f 19/19/19 15/15/15 18/18/18
f 22/22/22 21/21/21 20/20/20
f 20/20/20 21/21/21 23/23/23
f 23/23/23 21/21/21 24/24/24
f 24/24/24 21/21/21 25/25/25
f 26/26/26 25/25/25 21/21/21
f 29/29/29 28/28/28 27/27/27
f 30/30/30 27/27/27 28/28/28
f 33/33/33 32/32/32 31/31/31
f 32/32/32 34/34/34 31/31/31
f 31/31/31 34/34/34 35/35/35
f 36/36/36 34/34/34 32/32/32
f 39/39/39 38/38/38 37/37/37
f 38/38/38 40/40/40 37/37/37
f 40/40/40 41/41/41 37/37/37
f 44/44/44 43/43/43 42/42/42
f 43/43/43 45/45/45 42/42/42
f 42/42/42 45/45/45 46/46/46
