g Device_Prop_Box_01_v_040
v 0.021854965 -0.08646342 0.06949188
v 0.021854868 -0.06536447 0.08557869
v 0.021854868 -0.0044228975 0.08557869
v 0.15163726 -0.067793064 0.084800445
v 0.33600187 -0.06978881 0.08480393
v 0.15165973 0.051790558 0.084807225
v 0.11960781 0.072872 0.08499966
v 0.021854868 0.13716921 0.08557869
v 0.037289485 0.12701854 0.085482575
v 0.33600187 -0.06978881 0.08480393
v 0.11960781 0.072872 0.08499966
v 0.15165973 0.051790558 0.084807225
v -0.054344937 0.16469158 0.16102602
v 0.14281473 0.03465751 0.16102602
v 0.1464833 0.032237943 0.16102602
v -0.02443126 0.23297939 -0.13107398
v 0.021854868 0.16481115 -0.006155632
v 0.021854965 0.20245202 -0.13107398
v -0.054344937 0.20642069 0.022540677
v -0.054345034 0.2527087 -0.13107398
v 0.021854868 -0.06536447 0.08557869
v 0.15163726 -0.067793064 0.084800445
v 0.100516245 -0.06683822 0.08510566
v 0.15165973 0.051790558 0.084807225
v 0.100516245 -0.06683822 0.08510566
v 0.15163726 -0.067793064 0.084800445
v 0.11960781 0.072872 0.08499966
v 0.021854868 -0.0044228975 0.08557869
v 0.021854868 -0.06536447 0.08557869
v 0.037289485 0.12701854 0.085482575
v 0.021854868 0.13716921 0.08557869
v -0.054344937 0.16469158 0.16102602
v 0.1424885 0.032281313 0.16102602
v -0.054344937 0.03441658 0.16102602
v 0.14281473 0.03465751 0.16102602
v 0.1464833 0.032237943 0.16102602
v -0.054345034 0.2527087 -0.13107398
v -0.054344937 -0.2111595 -0.02621216
v -0.054345034 -0.3486929 -0.13107398
v -0.054344937 0.20642069 0.022540677
v -0.054344937 0.03441658 0.16102602
v -0.054344937 0.16469158 0.16102602
v 0.021854965 0.20245202 -0.13107398
v -0.004354967 -0.34923518 -0.13107398
v 0.021854965 -0.3495194 -0.13107398
v -0.02443126 0.23297939 -0.13107398
v -0.054345034 -0.3486929 -0.13107398
v -0.054345034 0.2527087 -0.13107398
v 0.021854965 -0.3495194 -0.13107398
v 0.021854868 0.16481115 -0.006155632
v 0.021854965 0.20245202 -0.13107398
v 0.021854868 -0.23740014 -0.045589272
v 0.021854868 -0.0044228975 0.08557869
v 0.021854965 -0.08646342 0.06949188
v 0.021854868 0.13716921 0.08557869
v -0.054344937 -0.2111595 -0.02621216
v -0.004354967 -0.34923518 -0.13107398
v -0.054345034 -0.3486929 -0.13107398
v -0.054344937 0.03441658 0.16102602
v 0.021854965 -0.08646342 0.06949188
v 0.021854868 -0.23740014 -0.045589272
v 0.021854965 -0.3495194 -0.13107398
v 0.021854868 -0.06536447 0.08557869
v 0.1424885 0.032281313 0.16102602
v 0.15163726 -0.067793064 0.084800445
v 0.33600187 -0.06978881 0.08480393
v 0.1464833 0.032237943 0.16102602
vt 1.2507644 0.81651044
vt 1.2463957 0.8165105
vt 1.2337773 0.81651044
vt 0.31416458 0.8983732
vt 0.27598944 0.8983732
vt 0.31416458 0.89837325
vt 0.20375626 0.16199547
vt 0.18958603 0.07096199
vt 0.19181961 0.08533562
vt 0.2360174 0.36351472
vt 0.20375626 0.16199547
vt 0.20840026 0.19184418
vt 0.24021484 7.6293944E-08
vt 0.26975524 0.18360718
vt 0.27030492 0.18702357
vt 0.0044819643 0.027857514
vt 0.11414627 0.070961915
vt 0.011417007 0.070962064
vt 0.12632842 1.5258789E-07
vt 0 0
vt 0.061408844 0.2813561
vt 0.16359116 0.27895138
vt 0.123341754 0.27989683
vt 1.2040093 0.81651044
vt 1.2337773 0.81651044
vt 1.2263715 0.81651044
vt 1.2048228 0.81651044
vt 1.2337773 0.81651044
vt 1.2463957 0.8165105
vt 1.2065604 0.81651044
vt 1.2044597 0.81651044
vt 0.32927477 0.3994434
vt 0.3018583 0.35868764
vt 0.30230042 0.3994434
vt 0.30235028 0.3586201
vt 0.3018493 0.3578605
vt 1.2410177 0.7438425
vt 1.3370646 0.76555485
vt 1.3655419 0.7438425
vt 1.2506018 0.7756495
vt 1.2862164 0.8043238
vt 1.259242 0.8043238
vt 1.1909424 0.81651044
vt 1.3051729 0.82193744
vt 1.3052318 0.81651044
vt 1.1846215 0.8260944
vt 1.3050607 0.83228827
vt 1.1805365 0.83228827
vt 1.3052318 0.81651044
vt 1.1987362 0.81651044
vt 1.1909424 0.81651044
vt 1.2820168 0.81651044
vt 1.2337773 0.81651044
vt 1.2507644 0.81651044
vt 1.2044597 0.81651044
vt 0.0006829834 0.13699718
vt 0.039360885 0.00028148651
vt 0 0.0008184433
vt 0.0019024658 0.3801543
vt 0.061304167 0.2604649
vt 0.06055458 0.11101482
vt 0.05999794 0
vt 0.061408844 0.2813561
vt 0.15688407 0.37804005
vt 0.16359116 0.27895138
vt 0.3087552 0.27697536
vt 0.16002949 0.3779971
vn 1 0 6.0231537E-06
vn 1 0 6.023153E-06
vn 1 0 6.023153E-06
vn 1.9533833E-05 5.671423E-05 -1
vn 1.9533833E-05 5.671423E-05 -1
vn 1.9533833E-05 5.671423E-05 -1
vn 0.5324565 0.80721587 0.2547404
vn 0.5324565 0.80721587 0.2547404
vn 0.5324565 0.80721587 0.2547404
vn 0.53394675 0.80957884 0.2438913
vn 0.53394675 0.80957884 0.2438913
vn 0.5339468 0.80957884 0.24389136
vn 0.53394085 0.80956715 0.2439428
vn 0.53393966 0.80956763 0.2439437
vn 0.5339404 0.8095659 0.24394809
vn 0.5339384 0.8095688 0.24394278
vn 0.5339384 0.8095688 0.24394278
vn 0.5339384 0.8095688 0.24394278
vn 0.5339414 0.80956686 0.24394283
vn 0.5339413 0.80956686 0.24394283
vn -0.0064634634 -0.6014138 0.79891163
vn -0.0064634634 -0.6014138 0.79891163
vn -0.006463464 -0.6014138 0.7989116
vn -0.005969234 5.7838977E-05 -0.99998224
vn -0.005969234 5.7838985E-05 -0.99998224
vn -0.005969234 5.7838985E-05 -0.99998224
vn -0.0059663644 5.6601813E-05 -0.99998224
vn -0.005968308 5.6867364E-05 -0.99998224
vn -0.0060134293 0 -0.999982
vn -0.0062273196 0 -0.9999807
vn -0.006227319 0 -0.9999807
vn -0 0 1
vn -0 0 1
vn -0 0 1
vn -0 0 1
vn -0 0 1
vn -1 0 6.0931984E-07
vn -1 0 6.0931984E-07
vn -1 0 9.2400956E-07
vn -1 0 6.0931984E-07
vn -1 0 0
vn -1 0 0
vn -0 0 -1
vn -0 0 -1
vn -0 0 -1
vn -0 0 -1
vn -0 0 -1
vn -0 0 -1
vn 1 0 1.3007158E-06
vn 1 0 1.3007157E-06
vn 1 0 7.7565323E-07
vn 1 0 1.3007158E-06
vn 1 0 0
vn 1 1.8121892E-06 -3.2187652E-06
vn 1 0 0
vn -0.0065771136 -0.60630256 0.7952069
vn -0.006577113 -0.6063025 0.79520696
vn -0.0065771136 -0.60630256 0.7952069
vn -0.006573786 -0.6063017 0.7952075
vn -0.0065682493 -0.6063026 0.7952069
vn -0.0065751052 -0.6063016 0.7952076
vn -0.006575105 -0.6063016 0.79520756
vn -0.0065780296 -0.6063023 0.79520696
vn -0.006577213 -0.6063019 0.79520726
vn -0.006577091 -0.6063021 0.79520726
vn -0.0065782685 -0.60630214 0.7952072
vn -0.006582628 -0.6063074 0.79520303
g Device_Prop_Box_01_v_040_0
f 3/3/3 2/2/2 1/1/1
f 6/6/6 5/5/5 4/4/4
f 9/9/9 8/8/8 7/7/7
f 11/11/11 8/8/8 10/10/10
f 12/12/12 11/11/11 10/10/10
f 8/8/8 13/13/13 10/10/10
f 13/13/13 14/14/14 10/10/10
f 14/14/14 15/15/15 10/10/10
f 16/16/16 13/13/13 8/8/8
f 17/17/17 16/16/16 8/8/8
f 18/18/18 16/16/16 17/17/17
f 19/19/19 13/13/13 16/16/16
f 20/20/20 19/19/19 16/16/16
f 23/23/23 22/22/22 21/21/21
f 26/26/26 25/25/25 24/24/24
f 24/24/24 25/25/25 27/27/27
f 27/27/27 25/25/25 28/28/28
f 28/28/28 25/25/25 29/29/29
f 28/28/28 30/30/30 27/27/27
f 31/31/31 30/30/30 28/28/28
f 34/34/34 33/33/33 32/32/32
f 35/35/35 32/32/32 33/33/33
f 35/35/35 33/33/33 36/36/36
f 39/39/39 38/38/38 37/37/37
f 40/40/40 37/37/37 38/38/38
f 38/38/38 41/41/41 40/40/40
f 42/42/42 40/40/40 41/41/41
f 45/45/45 44/44/44 43/43/43
f 46/46/46 43/43/43 44/44/44
f 44/44/44 47/47/47 46/46/46
f 48/48/48 46/46/46 47/47/47
f 51/51/51 50/50/50 49/49/49
f 52/52/52 49/49/49 50/50/50
f 50/50/50 53/53/53 52/52/52
f 53/53/53 54/54/54 52/52/52
f 55/55/55 53/53/53 50/50/50
f 58/58/58 57/57/57 56/56/56
f 56/56/56 57/57/57 59/59/59
f 57/57/57 60/60/60 59/59/59
f 61/61/61 60/60/60 57/57/57
f 62/62/62 61/61/61 57/57/57
f 60/60/60 63/63/63 59/59/59
f 59/59/59 63/63/63 64/64/64
f 63/63/63 65/65/65 64/64/64
f 65/65/65 66/66/66 64/64/64
f 66/66/66 67/67/67 64/64/64
