g Device_Prop_Box_01_v_044
v -0.061563756 0.23712777 0.00044835563
v -0.06189432 0.23712783 0.005000185
v 0.20601542 0.23712777 0.0050001643
v 0.20601542 0.23712777 0.0050001643
v -0.302184 -0.19125989 0.005000128
v 0.20601542 -0.19125989 0.0050000944
v -0.2819745 -0.118897125 0.005000137
v -0.2815145 -0.118152976 0.005000134
v -0.06189432 0.23712783 0.005000185
v 0.20601542 0.23712777 -0.004999837
v 0.20601542 -0.19125989 0.0050000944
v 0.20601542 -0.19125989 -0.0049999035
v 0.20601542 0.23712777 0.0050001643
v -0.061563756 0.23712777 0.00044835563
v 0.20601542 0.23712777 -0.004999837
v -0.061168075 0.23712777 -0.004999822
v 0.20601542 0.23712777 0.0050001643
v 0.20601542 -0.19125989 -0.0049999035
v -0.30279532 -0.19125989 0.0036555787
v -0.3067309 -0.19125989 -0.0049998704
v -0.302184 -0.19125989 0.005000128
v 0.20601542 -0.19125989 0.0050000944
v -0.16075775 0.07602104 -0.00499984
v -0.3067309 -0.19125989 -0.0049998704
v -0.29086718 -0.13445774 -0.0049998644
v 0.20601542 -0.19125989 -0.0049999035
v 0.20601542 0.23712777 -0.004999837
v -0.061168075 0.23712777 -0.004999822
v -0.29086718 -0.13445774 -0.0049998644
v -0.302184 -0.19125989 0.005000128
v -0.2819745 -0.118897125 0.005000137
v -0.30279532 -0.19125989 0.0036555787
v -0.3067309 -0.19125989 -0.0049998704
v -0.2815145 -0.118152976 0.005000134
v -0.29086718 -0.13445774 -0.0049998644
v -0.2819745 -0.118897125 0.005000137
v -0.16075775 0.07602104 -0.00499984
v -0.061563756 0.23712777 0.00044835563
v -0.06189432 0.23712783 0.005000185
v -0.061168075 0.23712777 -0.004999822
vt 1.537545 0.21705428
vt 1.537545 0.216886
vt 1.5375447 0.35327214
vt 1.5375447 0.35327214
vt 1.3194636 0.09456046
vt 1.3194635 0.35327202
vt 1.3563015 0.10484863
vt 1.3566804 0.1050828
vt 1.537545 0.216886
vt 1.5375447 0.35327214
vt 1.3194635 0.35327202
vt 1.3194635 0.35327202
vt 1.5375447 0.35327214
vt 1.537545 0.21705428
vt 1.5375447 0.35327214
vt 1.5375447 0.2172557
vt 1.5375447 0.35327214
vt 1.3194635 0.35327202
vt 1.3194636 0.09424923
vt 1.3194636 0.09224574
vt 1.3194636 0.09456046
vt 1.3194635 0.35327202
vt 1.4555296 0.16655706
vt 1.3194636 0.09224574
vt 1.3483801 0.100321576
vt 1.3194635 0.35327202
vt 1.5375447 0.35327214
vt 1.5375447 0.2172557
vt 0.30474633 6.979203E-09
vt 0.35022095 0.008595982
vt 0.291062 0.008595991
vt 0.3503504 0.007440214
vt 0.35118398 0
vt 0.32918343 0.007889023
vt 0.343976 0
vt 0.32987228 0.007889023
vt 0.14913622 1.9073486E-08
vt 0.00016384125 0.00429811
vt 0.00030067444 0.007889061
vt 0 2.8610229E-08
vn -0 -1 1.0630205E-05
vn -0 -1 1.0630206E-05
vn -0 -1 1.0630205E-05
vn -0 0 -1
vn -0 0 -1
vn -0 0 -1
vn -0 0 -1
vn 5.5088917E-06 -7.474288E-06 -1
vn -0 0 -1
vn -1 0 0
vn -1 0 0
vn -1 0 0
vn -1 0 0
vn -0 -1 1.0630205E-05
vn -0 -1 0
vn -0 -1 0
vn -0 -1 1.0630205E-05
vn -0 1 0
vn -0 1 3.4982773E-07
vn -0 1 3.4982773E-07
vn -0 1 0
vn -0 1 0
vn -0 0 1
vn -0 0 1
vn -0 0 1
vn -0 0 1
vn -0 0 1
vn -0 0 1
vn 0.8822506 -0.24639498 -0.40115246
vn 0.88225275 -0.24639474 -0.40114793
vn 0.882251 -0.24639502 -0.40115148
vn 0.8822506 -0.24639498 -0.40115246
vn 0.88225067 -0.24639498 -0.4011524
vn 0.84898454 -0.5248078 0.06166067
vn 0.84898466 -0.5248079 0.061658755
vn 0.84898734 -0.52480453 0.0616506
vn 0.8489846 -0.524808 0.061658774
vn 0.84898454 -0.5248079 0.06166067
vn 0.84898454 -0.5248079 0.06166067
vn 0.8489846 -0.524808 0.061658774
g Device_Prop_Box_01_v_044_0
f 3/3/3 2/2/2 1/1/1
f 6/6/6 5/5/5 4/4/4
f 5/5/5 7/7/7 4/4/4
f 7/7/7 8/8/8 4/4/4
f 8/8/8 9/9/9 4/4/4
f 12/12/12 11/11/11 10/10/10
f 13/13/13 10/10/10 11/11/11
f 16/16/16 15/15/15 14/14/14
f 15/15/15 17/17/17 14/14/14
f 20/20/20 19/19/19 18/18/18
f 19/19/19 21/21/21 18/18/18
f 21/21/21 22/22/22 18/18/18
f 25/25/25 24/24/24 23/23/23
f 24/24/24 26/26/26 23/23/23
f 26/26/26 27/27/27 23/23/23
f 27/27/27 28/28/28 23/23/23
f 31/31/31 30/30/30 29/29/29
f 30/30/30 32/32/32 29/29/29
f 32/32/32 33/33/33 29/29/29
f 36/36/36 35/35/35 34/34/34
f 35/35/35 37/37/37 34/34/34
f 37/37/37 38/38/38 34/34/34
f 38/38/38 39/39/39 34/34/34
f 40/40/40 38/38/38 37/37/37
