g Device_Prop_Box_008_v_001
v -0.020741515 0.08085219 -0.019893201
v -0.92374855 -0.04365744 -0.019893153
v -0.7845526 0.08085219 -0.019893153
v -0.92374855 -0.04365744 -0.019893153
v -0.020741515 -0.12502682 -0.019893201
v -1.0147157 -0.12502682 -0.019893141
v 0.10855631 -0.8890187 -0.01994297
v -0.020741515 -0.94019103 -0.019893201
v 0.07151826 -0.90367436 -0.019923626
v -0.020741515 -0.12502682 -0.0960932
v -0.939994 -0.04587773 -0.09609314
v -1.028479 -0.12502682 -0.09609313
v -0.020741515 0.0809034 -0.0960932
v -0.7982586 0.0809034 -0.096093155
v 0.10772254 -0.93227565 -0.09609317
v -0.020741515 -0.983146 -0.0960932
v 0.11780952 -0.9282814 -0.09609316
v 0.18518884 -0.9015999 -0.096093155
v 0.18518884 0.96058905 -0.096093155
v 0.108306035 0.89181805 -0.09609317
v -0.020741515 0.77638614 -0.0960932
v -0.020741515 -0.12502682 -0.0960932
v -0.020741563 -0.9505568 -0.03828132
v -0.020741515 -0.983146 -0.0960932
v -0.020741515 -0.12502682 -0.019893201
v -0.020741515 -0.94019103 -0.019893201
v -0.020741515 0.08085219 -0.019893201
v -0.020741515 0.77189326 -0.068284556
v -0.020741515 0.7640749 -0.019893201
v -0.020741515 0.0809034 -0.0960932
v -0.020741515 0.77638614 -0.0960932
v -0.020741515 0.0809034 -0.0960932
v -0.7911865 0.080876976 -0.056774713
v -0.7982586 0.0809034 -0.096093155
v -0.020741515 0.08085219 -0.019893201
v -0.7845526 0.08085219 -0.019893153
v -0.020741515 -0.12502682 -0.019893201
v -1.0239631 -0.12502682 -0.07109097
v -1.0147157 -0.12502682 -0.019893141
v -0.020741515 -0.12502682 -0.0960932
v -1.028479 -0.12502682 -0.09609313
v -0.020741515 -0.12502682 -0.019893201
v 0.07151826 -0.90367436 -0.019923626
v -0.020741515 -0.94019103 -0.019893201
v 0.108597875 -0.12498459 -0.019959658
v 0.10855631 -0.8890187 -0.01994297
v 0.10859187 0.08093556 -0.019960724
v 0.016096352 0.79702914 -0.019912435
v 0.108650975 0.87984025 -0.020046687
v -0.020741515 0.7640749 -0.019893201
v -0.020741515 0.08085219 -0.019893201
v 0.108597875 -0.12498459 -0.019959658
v -0.020741515 0.08085219 -0.019893201
v 0.10859187 0.08093556 -0.019960724
v -0.020741515 -0.12502682 -0.019893201
v -0.92374855 -0.04365744 -0.019893153
v 0.10891288 -0.022706272 0.19600694
v 0.1087126 0.87330055 0.020772254
v 0.10889311 0.84515053 0.19600694
v 0.108650975 0.87984025 -0.020046687
v 0.10859187 0.08093556 -0.019960724
v 0.108597875 -0.12498459 -0.019959658
v 0.10892993 -0.767137 0.19600694
v 0.108829066 -0.8062208 0.1267449
v 0.10855631 -0.8890187 -0.01994297
v 0.10889311 0.84515053 0.19600694
v 0.17272943 0.9022517 0.1960069
v 0.10891288 -0.022706272 0.19600694
v 0.1791585 0.9080025 0.1960069
v 0.121552125 -0.7621387 0.19600694
v 0.10892993 -0.767137 0.19600694
v 0.18518884 -0.7369394 0.1960069
v 0.18518884 0.91339666 0.1960069
v 0.18518884 0.91339666 0.1960069
v 0.18518884 -0.76102334 0.15328307
v 0.18518884 -0.7369394 0.1960069
v 0.18518893 0.9526231 -0.046787333
v 0.18518884 0.96058905 -0.096093155
v 0.18518884 -0.9015999 -0.096093155
v 0.108306035 0.89181805 -0.09609317
v -0.020741515 0.77189326 -0.068284556
v -0.020741515 0.77638614 -0.0960932
v 0.18518893 0.9526231 -0.046787333
v 0.18518884 0.96058905 -0.096093155
v 0.108650975 0.87984025 -0.020046687
v 0.016096352 0.79702914 -0.019912435
v -0.020741515 0.7640749 -0.019893201
v 0.17272943 0.9022517 0.1960069
v 0.1087126 0.87330055 0.020772254
v 0.10889311 0.84515053 0.19600694
v 0.1791585 0.9080025 0.1960069
v 0.18518884 0.91339666 0.1960069
v -1.0239631 -0.12502682 -0.07109097
v -0.92374855 -0.04365744 -0.019893153
v -1.0147157 -0.12502682 -0.019893141
v -0.939994 -0.04587773 -0.09609314
v -1.028479 -0.12502682 -0.09609313
v -0.7911865 0.080876976 -0.056774713
v -0.7845526 0.08085219 -0.019893153
v -0.7982586 0.0809034 -0.096093155
v 0.18518884 -0.76102334 0.15328307
v 0.121552125 -0.7621387 0.19600694
v 0.18518884 -0.7369394 0.1960069
v 0.108829066 -0.8062208 0.1267449
v 0.10892993 -0.767137 0.19600694
v 0.10855631 -0.8890187 -0.01994297
v 0.10772254 -0.93227565 -0.09609317
v 0.11780952 -0.9282814 -0.09609316
v 0.18518884 -0.9015999 -0.096093155
v -0.020741563 -0.9505568 -0.03828132
v -0.020741515 -0.94019103 -0.019893201
v -0.020741515 -0.983146 -0.0960932
vt 1.6607503 0.40988055
vt 1.6607502 0.5968544
vt 1.6607503 0.5680329
vt 1.6607502 0.5968544
vt 1.6607503 0.40988055
vt 1.6607503 0.6156898
vt 0.20692892 0.107696496
vt 0.2266813 3.8146972E-08
vt 0.21258245 0.07684627
vt 1.2729387 0.35680407
vt 1.2893271 0.16646662
vt 1.2729387 0.14814518
vt 1.315578 0.35680407
vt 1.315578 0.19581386
vt 1.1057924 0.38340348
vt 1.0952594 0.35680413
vt 1.1066194 0.3854921
vt 1.112144 0.39944345
vt 1.4977231 0.3994434
vt 1.4834836 0.38352424
vt 1.4595826 0.35680407
vt 1.8539431 0.63518006
vt 1.8659136 0.46424848
vt 1.8539431 0.45750064
vt 1.8697212 0.63518006
vt 1.8697212 0.46639475
vt 1.8174784 0.40988058
vt 1.8074585 0.5529586
vt 1.8174784 0.55133986
vt 1.8017006 0.40988058
vt 1.8017006 0.55388504
vt 1.3141646 0.9141512
vt 1.1546388 0.9060099
vt 1.1531744 0.9141512
vt 1.3141646 0.8983732
vt 1.1560123 0.8983731
vt 1.6607503 0.40988055
vt 1.6501493 0.61760443
vt 1.6607503 0.6156898
vt 1.6449726 0.40988055
vt 1.6449726 0.6185395
vt 1.8697212 0.63518006
vt 1.8697212 0.4743966
vt 1.8697212 0.46639475
vt 1.8697212 0.63518006
vt 1.8697212 0.47742027
vt 1.8174784 0.40988058
vt 1.8174784 0.55815804
vt 1.8174784 0.57532156
vt 1.8174784 0.55133986
vt 1.8174784 0.40988058
vt 1.6607503 0.40988055
vt 1.6607503 0.40988055
vt 1.6607503 0.40988055
vt 1.6607503 0.40988055
vt 1.6607502 0.5968544
vt 1.005 0.8862804
vt 1.0050001 0.8862804
vt 1.005 0.8862804
vt 1.005 0.8862804
vt 1.0050001 0.8862804
vt 1.0050001 0.8862804
vt 1.005 0.8862804
vt 1.005 0.8862804
vt 1.0050001 0.8862804
vt 0.054120384 0.8426319
vt 0.04236996 0.8558324
vt 0.23377721 0.8426319
vt 0.041186564 0.8571618
vt 0.38686255 0.8452419
vt 0.38788337 0.8426319
vt 0.38179752 0.85840964
vt 0.04008413 0.85840964
vt 0.48795152 0.47036183
vt 0.14125142 0.46151558
vt 0.14623816 0.47036183
vt 0.49607372 0.4200897
vt 0.4977231 0.40988055
vt 0.11214406 0.40988052
vt 0.008636722 0.13555862
vt 0.045313932 7.6293944E-08
vt 0.023133412 7.6293944E-08
vt 0.039326895 0.21632057
vt 0 0.2163205
vt 0.06925356 0.13592094
vt 0.0797579 0.038696516
vt 0.083911456 0
vt 0.23438214 0.2032325
vt 0.10180429 0.13598572
vt 0.2415533 0.1361753
vt 0.2336599 0.20998603
vt 0.23298249 0.21632057
vt 0.04529686 0.004743767
vt 0.074875124 0.11001457
vt 0.08509405 0.014457703
vt 0.01592205 0.09294949
vt 0.02586214 0
vt 0.030566406 0.24926499
vt 0.05923836 0.25623357
vt 0 0.24183601
vt 0.038617726 0.17152622
vt 0.0097436905 0.11852112
vt 0 0.17152625
vt 0.07429718 0.10792366
vt 0.01167633 0.10800766
vt 0.20692892 0.107696496
vt 0.2758881 0.10700199
vt 0.27434367 0.11540379
vt 0.26402688 0.17152622
vt 0.24330226 0
vt 0.2266813 3.8146972E-08
vt 0.2955579 3.8146972E-08
vn -0 0 1
vn -0 0 1
vn -0 0 1
vn -0 0 1
vn -0 0 1
vn -0 0 1
vn 0.32528692 -0.82145095 0.46840873
vn 0.32528692 -0.82145095 0.46840873
vn 0.32528695 -0.82145095 0.46840873
vn -0 0 -1
vn -0 0 -1
vn -0 0 -1
vn -0 0 -1
vn -0 0 -1
vn -0 0 -1
vn -0 0 -1
vn -0 0 -1
vn -0 0 -1
vn -0 0 -1
vn -0 0 -1
vn -0 0 -1
vn -1 0 -8.3800523E-07
vn -1 0 -8.3800523E-07
vn -1 0 -8.3800523E-07
vn -1 0 2.6346713E-06
vn -1 0 2.6346713E-06
vn -1 0 0
vn -1 0 0
vn -1 0 0
vn -1 0 0
vn -1 0 0
vn -0 0.99999976 0.00067214377
vn -0 0.99999976 0.0006721438
vn -0 0.99999976 0.00067214377
vn -0 0.99999976 0.00067218125
vn -0 0.99999976 0.0006722213
vn -0 -1 0
vn -0 -1 0
vn -0 -1 0
vn -0 -1 0
vn -0 -1 0
vn 0.00032976991 0 1
vn 0.00032976991 0 1
vn 0.00032976994 0 1
vn 0.00051359594 2.1816466E-05 0.9999999
vn 0.00051359594 2.1816464E-05 0.9999999
vn 0.001354329 0.000107500186 0.99999917
vn 0.001354329 0.000107500186 0.99999917
vn 0.001354329 0.0001075002 0.99999917
vn 0.00052208116 0 0.9999999
vn 0.0005220812 0 0.9999999
vn 0.0005138163 0 0.9999999
vn 0.0005138163 0 0.9999999
vn 0.0005220777 5.191151E-06 0.9999999
vn 0.00051381625 0 0.9999999
vn -0 0 1
vn -0.9999989 -2.9165718E-05 0.0014723701
vn -0.9999995 -2.2775906E-05 0.0010264578
vn -0.9999995 -2.2775908E-05 0.0010264578
vn -0.9999989 7.414613E-05 0.0015219495
vn -0.9999989 -2.9165718E-05 0.0014723701
vn -0.9999989 -2.9165714E-05 0.00147237
vn -0.9999989 -2.2960672E-05 0.001469249
vn -0.99999833 5.44448E-05 0.0018286878
vn -0.99999833 5.44448E-05 0.0018286878
vn 7.589045E-07 0 1
vn 7.5890455E-07 0 1
vn 7.589045E-07 0 1
vn 5.623238E-07 0 1
vn -0 0 1
vn -0 0 1
vn 7.601968E-07 0 1
vn -0 0 1
vn 1 0 3.9743745E-07
vn 1 0 3.9743745E-07
vn 1 0 0
vn 1 0 3.9743747E-07
vn 1 -2.914738E-07 -2.0122404E-06
vn 1 0 0
vn -0.6619114 0.7399865 0.119554356
vn -0.6619114 0.7399865 0.11955436
vn -0.6619114 0.7399865 0.119554356
vn -0.6619151 0.7399833 0.1195534
vn -0.6619114 0.73998654 0.11955409
vn -0.66191185 0.7399857 0.11955727
vn -0.6619111 0.73998654 0.11955625
vn -0.6619111 0.73998654 0.11955624
vn -0.66191226 0.73998576 0.119554535
vn -0.66191226 0.73998576 0.11955453
vn -0.66191226 0.73998576 0.119554535
vn -0.6619151 0.7399833 0.11955342
vn -0.6619151 0.73998326 0.119553395
vn -0.6619117 0.7399863 0.11955481
vn -0.6619117 0.7399863 0.11955482
vn -0.6619117 0.7399863 0.11955481
vn -0.6619117 0.7399863 0.1195544
vn -0.6619115 0.73998636 0.11955547
vn -0.6619116 0.7399862 0.11955524
vn -0.6619116 0.7399862 0.11955524
vn -0.6619117 0.7399863 0.1195544
vn 0.32609823 -0.8235043 0.46422046
vn 0.32609823 -0.82350427 0.46422046
vn 0.32609823 -0.82350427 0.46422046
vn 0.3260981 -0.82350457 0.4642201
vn 0.3260981 -0.82350457 0.4642201
vn 0.32609802 -0.82350457 0.46422014
vn 0.3260987 -0.8235049 0.46421906
vn 0.32609084 -0.8235057 0.464223
vn 0.32609904 -0.8235043 0.4642198
vn 0.32609737 -0.8235028 0.46422374
vn 0.3260974 -0.8235027 0.46422377
vn 0.3260987 -0.8235049 0.46421906
g Device_Prop_Box_008_v_001_0
f 3/3/3 2/2/2 1/1/1
f 6/6/6 5/5/5 4/4/4
f 9/9/9 8/8/8 7/7/7
f 12/12/12 11/11/11 10/10/10
f 13/13/13 10/10/10 11/11/11
f 13/13/13 11/11/11 14/14/14
f 10/10/10 13/13/13 15/15/15
f 10/10/10 15/15/15 16/16/16
f 17/17/17 15/15/15 13/13/13
f 18/18/18 17/17/17 13/13/13
f 19/19/19 18/18/18 13/13/13
f 20/20/20 19/19/19 13/13/13
f 13/13/13 21/21/21 20/20/20
f 24/24/24 23/23/23 22/22/22
f 22/22/22 23/23/23 25/25/25
f 26/26/26 25/25/25 23/23/23
f 29/29/29 28/28/28 27/27/27
f 27/27/27 28/28/28 30/30/30
f 31/31/31 30/30/30 28/28/28
f 34/34/34 33/33/33 32/32/32
f 32/32/32 33/33/33 35/35/35
f 36/36/36 35/35/35 33/33/33
f 39/39/39 38/38/38 37/37/37
f 37/37/37 38/38/38 40/40/40
f 41/41/41 40/40/40 38/38/38
f 44/44/44 43/43/43 42/42/42
f 42/42/42 43/43/43 45/45/45
f 46/46/46 45/45/45 43/43/43
f 49/49/49 48/48/48 47/47/47
f 48/48/48 50/50/50 47/47/47
f 51/51/51 47/47/47 50/50/50
f 54/54/54 53/53/53 52/52/52
f 55/55/55 52/52/52 53/53/53
f 53/53/53 56/56/56 55/55/55
f 59/59/59 58/58/58 57/57/57
f 58/58/58 60/60/60 57/57/57
f 61/61/61 57/57/57 60/60/60
f 61/61/61 62/62/62 57/57/57
f 57/57/57 62/62/62 63/63/63
f 64/64/64 63/63/63 62/62/62
f 65/65/65 64/64/64 62/62/62
f 68/68/68 67/67/67 66/66/66
f 68/68/68 69/69/69 67/67/67
f 70/70/70 69/69/69 68/68/68
f 71/71/71 70/70/70 68/68/68
f 70/70/70 72/72/72 69/69/69
f 73/73/73 69/69/69 72/72/72
f 76/76/76 75/75/75 74/74/74
f 77/77/77 74/74/74 75/75/75
f 77/77/77 75/75/75 78/78/78
f 79/79/79 78/78/78 75/75/75
f 82/82/82 81/81/81 80/80/80
f 81/81/81 83/83/83 80/80/80
f 80/80/80 83/83/83 84/84/84
f 85/85/85 83/83/83 81/81/81
f 86/86/86 85/85/85 81/81/81
f 87/87/87 86/86/86 81/81/81
f 88/88/88 83/83/83 85/85/85
f 89/89/89 88/88/88 85/85/85
f 90/90/90 88/88/88 89/89/89
f 91/91/91 83/83/83 88/88/88
f 92/92/92 83/83/83 91/91/91
f 95/95/95 94/94/94 93/93/93
f 94/94/94 96/96/96 93/93/93
f 93/93/93 96/96/96 97/97/97
f 98/98/98 96/96/96 94/94/94
f 99/99/99 98/98/98 94/94/94
f 100/100/100 96/96/96 98/98/98
f 103/103/103 102/102/102 101/101/101
f 102/102/102 104/104/104 101/101/101
f 105/105/105 104/104/104 102/102/102
f 104/104/104 106/106/106 101/101/101
f 106/106/106 107/107/107 101/101/101
f 107/107/107 108/108/108 101/101/101
f 108/108/108 109/109/109 101/101/101
f 110/110/110 107/107/107 106/106/106
f 111/111/111 110/110/110 106/106/106
f 112/112/112 107/107/107 110/110/110
