g Device_Prop_Box_01_v_080
v 0.6849549 0.012677811 0.52533984
v 0.684955 -0.012721995 -0.3886412
v 0.684955 0.012678005 -0.3886412
v -0.14117715 0.012677811 0.400689
v 0.6849549 0.012677811 0.52533984
v 0.13047479 0.012677908 0.4416772
v -0.80818427 -0.012722092 0.13053128
v -0.18283173 -0.012722189 0.3789848
v -0.15874775 -0.012722092 0.3885534
v -0.80818427 -0.012721995 -0.3886412
v -0.18283173 -0.012722189 0.3789848
v -0.80818427 -0.012722092 0.13053128
v 0.684955 -0.012721995 -0.3886412
v 0.6849549 -0.012722092 0.51585555
v -0.15874775 -0.012722092 0.3885534
v 0.684955 -0.012721995 -0.3886412
v 0.6849549 0.004797866 0.52239746
v 0.6849549 -0.012722092 0.51585555
v 0.6849549 0.012677811 0.52533984
v 0.684955 0.012678005 -0.3886412
v -0.80818427 -0.012721995 -0.3886412
v -0.80818427 0.012678005 -0.3886412
v 0.684955 -0.012721995 -0.3886412
v -0.80818427 0.012678005 -0.3886412
v -0.80818427 0.0026338508 0.13364765
v -0.80818427 0.012678005 0.135686
v -0.80818427 -0.012722092 0.13053128
v -0.80818427 -0.012721995 -0.3886412
v -0.80818427 0.012678005 -0.3886412
v 0.6849549 0.012677811 0.52533984
v 0.684955 0.012678005 -0.3886412
v 0.13047479 0.012677908 0.4416772
v -0.80818427 0.012678005 0.135686
v -0.14117715 0.012677811 0.400689
v -0.14117715 0.012677811 0.400689
v 0.6849549 0.004797866 0.52239746
v 0.6849549 0.012677811 0.52533984
v 0.6849549 -0.012722092 0.51585555
v -0.15874775 -0.012722092 0.3885534
v -0.80818427 0.0026338508 0.13364765
v -0.14117715 0.012677811 0.400689
v -0.80818427 0.012678005 0.135686
v -0.80818427 -0.012722092 0.13053128
v -0.15874775 -0.012722092 0.3885534
vt 1.6396091 0.25283697
vt 1.639609 0.069198
vt 1.639609 0.069198
vt 0.5322615 0.021319732
vt 1.1901222 0.021319656
vt 0.7485818 0.021319732
vt 0 7.6293944E-08
vt 0.5298429 0
vt 0.55024856 7.6293944E-08
vt 1.9396145 0.069198
vt 1.8139671 0.22343102
vt 1.9396145 0.17351122
vt 1.639609 0.069198
vt 1.6396091 0.25093135
vt 1.809128 0.22535358
vt 1.639609 0.069198
vt 1.6396091 0.25224578
vt 1.6396091 0.25093135
vt 1.6396091 0.25283697
vt 1.639609 0.069198
vt 1.9396145 0.069198
vt 1.9396145 0.069198
vt 1.639609 0.069198
vt 1.9396145 0.069198
vt 1.9396145 0.17413738
vt 1.9396145 0.17454693
vt 1.9396145 0.17351122
vt 1.9396145 0.069198
vt 1.9396145 0.069198
vt 1.6396091 0.25283697
vt 1.639609 0.069198
vt 1.7510166 0.23602732
vt 1.9396145 0.17454693
vt 1.8055977 0.22779188
vt 0.5322615 0.021319732
vt 1.1897764 0.014705505
vt 1.1901222 0.021319656
vt 1.189008 0
vt 0.5171556 0
vt 0.0009060287 0.0123046115
vt 0.56663424 0.02035263
vt 0.0014986419 0.020352783
vt 0 7.6293944E-08
vt 0.55024856 7.6293944E-08
vn -1 0 0
vn -1 0 0
vn -1 0 0
vn 0.14274523 0.29087082 -0.9460539
vn 0.14274523 0.29087082 -0.9460539
vn 0.14274523 0.2908708 -0.9460539
vn 0.3692125 -0.009086428 -0.9293006
vn 0.36921254 -0.009086429 -0.9293006
vn 0.3692125 -0.009086428 -0.9293006
vn -0 1 0
vn -0 1 0
vn -0 1 0
vn -0 1 0
vn 2.4634408E-06 1 -1.6326605E-05
vn 2.4634408E-06 1 -1.6326605E-05
vn -1 0 0
vn -1 0 0
vn -1 0 0
vn -1 0 0
vn -0 0 1
vn -0 0 1
vn -0 0 1
vn -0 0 1
vn 1 0 0
vn 1 0 0
vn 1 0 0
vn 1 0 0
vn 1 0 0
vn -0 -1 0
vn -0 -1 0
vn -0 -1 0
vn -0 -1 0
vn -0 -1 0
vn 7.5298135E-07 -1 -2.6265006E-06
vn 0.13996086 0.34636453 -0.92760044
vn 0.13996086 0.34636456 -0.92760044
vn 0.13996084 0.3463645 -0.92760044
vn 0.13996081 0.34636545 -0.9276
vn 0.13996072 0.34637028 -0.9275983
vn 0.3628314 0.1853313 -0.9132391
vn 0.3628314 0.1853313 -0.9132391
vn 0.36283138 0.18533128 -0.9132391
vn 0.3628311 0.18533526 -0.9132384
vn 0.36283097 0.18533672 -0.9132382
g Device_Prop_Box_01_v_080_0
f 3/3/3 2/2/2 1/1/1
f 6/6/6 5/5/5 4/4/4
f 9/9/9 8/8/8 7/7/7
f 12/12/12 11/11/11 10/10/10
f 13/13/13 10/10/10 11/11/11
f 13/13/13 11/11/11 14/14/14
f 15/15/15 14/14/14 11/11/11
f 18/18/18 17/17/17 16/16/16
f 17/17/17 19/19/19 16/16/16
f 22/22/22 21/21/21 20/20/20
f 23/23/23 20/20/20 21/21/21
f 26/26/26 25/25/25 24/24/24
f 25/25/25 27/27/27 24/24/24
f 28/28/28 24/24/24 27/27/27
f 31/31/31 30/30/30 29/29/29
f 32/32/32 29/29/29 30/30/30
f 29/29/29 32/32/32 33/33/33
f 34/34/34 33/33/33 32/32/32
f 37/37/37 36/36/36 35/35/35
f 36/36/36 38/38/38 35/35/35
f 38/38/38 39/39/39 35/35/35
f 42/42/42 41/41/41 40/40/40
f 40/40/40 41/41/41 43/43/43
f 41/41/41 44/44/44 43/43/43
