g Device_Prop_Box_005_v_030
v 0.91100913 -0.11299659 0.17171568
v 0.83640826 -0.023896022 0.17170212
v -0.11449393 -0.02388672 0.17166685
v -0.24422109 0.062267903 0.17247494
v -0.15199547 0.7742959 0.17192031
v -0.24422109 0.77564377 0.17247494
v 0.98011583 -0.22983152 0.02433708
v -0.32042098 -0.22983152 0.24792227
v 1.0236739 -0.22983152 0.24792227
v -0.11449044 -0.22983152 -0.04417773
v 0.9667681 -0.22983152 -0.04417773
v -0.32042098 -0.22983152 -0.8755652
v -0.2150441 -0.22983152 -0.8317394
v -0.11449044 -0.22983152 -0.7899195
v -0.114491366 0.76944685 0.2272652
v -0.11449044 -0.02390135 0.24792227
v -0.11449044 0.767848 0.24792227
v -0.11449393 -0.02388672 0.17166685
v -0.11445885 0.77374786 0.17168719
v -0.11449044 -0.22983152 -0.04417773
v 0.90297085 -0.15363151 -0.04417773
v -0.11449044 -0.15363151 -0.04417773
v 0.9224623 -0.17691226 -0.04417773
v 0.9667681 -0.22983152 -0.04417773
v -0.11449044 -0.02390135 0.24792227
v -0.16153902 0.7685576 0.24792227
v -0.11449044 0.767848 0.24792227
v -0.32042098 -0.22983152 0.24792227
v -0.18330689 0.7688858 0.24792227
v -0.3204209 0.77095354 0.24792227
v 0.89984757 -0.08193289 0.24792227
v 0.8512616 -0.023901448 0.24792227
v 1.0236739 -0.22983152 0.24792227
v -0.32042098 -0.05380447 -0.72405416
v -0.32042098 -0.22983152 0.24792227
v -0.32042098 -0.22983152 -0.8755652
v -0.32042098 0.062268 -0.04417773
v -0.32042098 0.062268097 -0.6241475
v -0.3204209 0.77095354 0.24792227
v -0.3204209 0.78701234 0.04043726
v -0.32042098 0.7360828 -0.04417773
v -0.32042098 0.78997123 0.0022056792
v -0.2665586 0.71005696 -0.04417773
v -0.24422099 0.062268 -0.04417773
v -0.24422099 0.69926363 -0.04417773
v -0.32042098 0.7360828 -0.04417773
v -0.32042098 0.062268 -0.04417773
v -0.24422099 0.062268 -0.04417773
v -0.24422099 0.7811482 0.026302464
v -0.24422099 0.69926363 -0.04417773
v -0.24422099 0.7865943 0.030990163
v -0.24422099 0.7814969 0.09685126
v -0.24422109 0.062267903 0.17247494
v -0.24422109 0.77564377 0.17247494
v -0.24422109 0.062267903 0.17247494
v -0.24421169 -0.15362918 -0.04417773
v -0.2442118 -0.15362918 0.17247494
v -0.24422099 0.062268 -0.04417773
v -0.24422099 0.062268097 -0.5924563
v -0.24421625 -0.04843319 -0.68773764
v -0.24421169 -0.15362899 -0.7782804
v -0.2442118 -0.15362918 0.17247494
v -0.11449044 -0.15363151 -0.04417773
v -0.11460817 -0.15363073 0.1719959
v -0.24421169 -0.15362918 -0.04417773
v -0.11449044 -0.15363151 -0.04417773
v -0.24421169 -0.15362899 -0.7782804
v -0.1841359 -0.15363015 -0.7532961
v -0.11449044 -0.15363151 -0.72433203
v -0.2442118 -0.15362918 0.17247494
v -0.11449393 -0.02388672 0.17166685
v -0.24422109 0.062267903 0.17247494
v -0.11460817 -0.15363073 0.1719959
v -0.11449044 -0.18884331 -0.7546398
v -0.11449044 -0.15363151 -0.04417773
v -0.11449044 -0.15363151 -0.72433203
v -0.11449044 -0.22983152 -0.04417773
v -0.11449044 -0.22983152 -0.7899195
v -0.24422099 0.062268 -0.04417773
v -0.27663007 0.062268097 -0.605935
v -0.24422099 0.062268097 -0.5924563
v -0.32042098 0.062268097 -0.6241475
v -0.32042098 0.062268 -0.04417773
v -0.27663007 0.062268097 -0.605935
v -0.24421625 -0.04843319 -0.68773764
v -0.24422099 0.062268097 -0.5924563
v -0.32042098 -0.05380447 -0.72405416
v -0.32042098 0.062268097 -0.6241475
v -0.24421169 -0.15362899 -0.7782804
v -0.2150441 -0.22983152 -0.8317394
v -0.32042098 -0.22983152 -0.8755652
v -0.11449044 -0.18884331 -0.7546398
v -0.11449044 -0.22983152 -0.7899195
v -0.1841359 -0.15363015 -0.7532961
v -0.11449044 -0.15363151 -0.72433203
v 0.8417545 -0.023901254 0.19912176
v -0.11449393 -0.02388672 0.17166685
v 0.83640826 -0.023896022 0.17170212
v -0.11449044 -0.02390135 0.24792227
v 0.8512616 -0.023901448 0.24792227
v 0.91100913 -0.11299659 0.17171568
v -0.11460817 -0.15363073 0.1719959
v 0.94504887 -0.15363131 0.17181258
v -0.11449393 -0.02388672 0.17166685
v -0.11460817 -0.15363073 0.1719959
v 0.9160181 -0.15363131 0.022795701
v 0.94504887 -0.15363131 0.17181258
v 0.90297085 -0.15363151 -0.04417773
v -0.11449044 -0.15363151 -0.04417773
v 0.94504887 -0.15363131 0.17181258
v 0.83640826 -0.023896022 0.17170212
v 0.91100913 -0.11299659 0.17171568
v 0.8417545 -0.023901254 0.19912176
v 1.0236739 -0.22983152 0.24792227
v 0.89984757 -0.08193289 0.24792227
v 0.8512616 -0.023901448 0.24792227
v 0.9224623 -0.17691226 -0.04417773
v 0.9160181 -0.15363131 0.022795701
v 0.90297085 -0.15363151 -0.04417773
v 0.98011583 -0.22983152 0.02433708
v 0.9667681 -0.22983152 -0.04417773
v -0.24422109 0.062267903 0.17247494
v -0.11445885 0.77374786 0.17168719
v -0.15199547 0.7742959 0.17192031
v -0.11449393 -0.02388672 0.17166685
v -0.32042098 0.7360828 -0.04417773
v -0.24422099 0.7865943 0.030990163
v -0.32042098 0.78997123 0.0022056792
v -0.2665586 0.71005696 -0.04417773
v -0.24422099 0.7811482 0.026302464
v -0.24422099 0.69926363 -0.04417773
v -0.24422099 0.7814969 0.09685126
v -0.32042098 0.78997123 0.0022056792
v -0.24422099 0.7865943 0.030990163
v -0.24422109 0.77564377 0.17247494
v -0.3204209 0.78701234 0.04043726
v -0.3204209 0.77095354 0.24792227
v -0.114491366 0.76944685 0.2272652
v -0.18330689 0.7688858 0.24792227
v -0.15199547 0.7742959 0.17192031
v -0.11445885 0.77374786 0.17168719
v -0.16153902 0.7685576 0.24792227
v -0.11449044 0.767848 0.24792227
vt 0.60850775 0.50670844
vt 0.6085077 0.52215505
vt 0.6085077 0.71904546
vt 1.4625545 0.81651044
vt 1.299972 0.8165103
vt 1.3148451 0.81651044
vt 0.8620149 0.35314852
vt 0.59272987 0.3994435
vt 0.8710337 0.3994435
vt 0.6353691 0.33896202
vt 0.85925114 0.33896202
vt 0.59272987 0.16681764
vt 0.6145488 0.17589197
vt 0.6353691 0.18455103
vt 0.8582173 0.5741479
vt 0.85394317 0.40988058
vt 0.85394317 0.5738177
vt 0.8697212 0.40988058
vt 0.8697212 0.57503957
vt 0.6188512 0.4098806
vt 0.63462895 0.620553
vt 0.63462895 0.4098806
vt 0.62980855 0.62458885
vt 0.6188512 0.63376266
vt 0.047639377 0.35680413
vt 0.2117233 0.3665458
vt 0.21157643 0.35680407
vt 0.0050000027 0.39944345
vt 0.21179126 0.371053
vt 0.21221945 0.39944342
vt 0.03562351 0.14677855
vt 0.04763937 0.15683863
vt 0.004999992 0.12113943
vt 1.5470693 0.6030695
vt 1.583517 0.80432385
vt 1.583517 0.57169807
vt 1.5230356 0.7438425
vt 1.5230355 0.62375575
vt 1.3762975 0.80432385
vt 1.3729722 0.76136255
vt 1.3835176 0.7438425
vt 1.3723596 0.75344646
vt 1.3284253 0.82113564
vt 1.4625545 0.81651044
vt 1.3306601 0.81651044
vt 1.3230364 0.83228827
vt 1.4625545 0.83228827
vt 1.4625545 0.81651044
vt 1.3137053 0.81651044
vt 1.3306601 0.81651044
vt 1.3125777 0.81651044
vt 1.3136332 0.81651044
vt 1.4625545 0.81651044
vt 1.3148451 0.81651044
vt 1.7494578 0.68336135
vt 1.7494578 0.68336135
vt 1.7494578 0.68336135
vt 1.7494578 0.68336135
vt 1.7494578 0.5698365
vt 1.7494578 0.55010784
vt 1.7494578 0.5313603
vt 0.791357 0.68336135
vt 0.791357 0.68336135
vt 0.791357 0.68336135
vt 0.791357 0.68336135
vt 0.791357 0.68336135
vt 0.791357 0.5313603
vt 0.791357 0.5365335
vt 0.79135704 0.5425307
vt 1.7494578 0.68336135
vt 1.7494578 0.68336135
vt 1.7494578 0.68336135
vt 1.7494578 0.68336135
vt 0.78406614 0.53625524
vt 0.791357 0.68336135
vt 0.79135704 0.5425307
vt 0.7755792 0.68336135
vt 0.7755792 0.52895033
vt 1.7494578 0.68336135
vt 1.7561684 0.5670456
vt 1.7494578 0.5698365
vt 1.7652354 0.56327456
vt 1.7652355 0.68336135
vt 0.08208094 0.2937882
vt 0.08324972 0.18244702
vt 0.054442957 0.29378814
vt 0.14963393 0.17704467
vt 0.119425185 0.29378822
vt 0.11062369 0.076643184
vt 0.105582334 0
vt 0.19544622 7.6293944E-08
vt 0.009164142 0.041225318
vt 0.019831657 7.6293944E-08
vt 0.059392262 0.076642
vt 0 0.07664058
vt 0.60283434 0.5210483
vt 0.6085077 0.71904546
vt 0.6085077 0.52215505
vt 0.59272987 0.71904546
vt 0.59272987 0.5190798
vt 0.60850775 0.50670844
vt 0.6085077 0.71904546
vt 0.6085077 0.4996534
vt 0.6085077 0.71904546
vt 0.63462895 0.4098806
vt 0.63462895 0.62326205
vt 0.63462895 0.6292726
vt 0.63462895 0.620553
vt 0.63462895 0.4098806
vt 0.08574761 0.17195816
vt 0.21898857 0.17187011
vt 0.12748657 0.1718808
vt 0.21628296 0.19369979
vt 0 0.23255187
vt 0.15188263 0.23255187
vt 0.21147735 0.23255187
vt 0.08310898 0
vt 0.100421906 0.053320006
vt 0.10701683 0
vt 0.022017365 0.054547194
vt 0.028764267 0
vt 1.4625545 0.81651044
vt 1.294846 0.81651044
vt 1.299972 0.8165103
vt 1.4625545 0.81651044
vt 0.23804004 0.037032053
vt 0.15991181 0.08783556
vt 0.22401512 0.0912321
vt 0.19888034 0.010855751
vt 0.1613292 0.08235798
vt 0.18264027 0
vt 0.07481659 0.060006715
vt 0 0
vt 0.02280243 0.060006715
vt 0.13454102 0.060006637
vt 0.030193482 0
vt 0.1940561 7.6293944E-08
vt 0.17793076 0.16216755
vt 0.19418183 0.107976
vt 0.13418731 0.1326334
vt 0.13403778 0.16219318
vt 0.19420166 0.12511791
vt 0.19424485 0.16216828
vn -0.00017300222 -0.0025294118 -0.9999968
vn 3.7089023E-05 -0.00012119102 -1
vn 3.7089027E-05 -0.00012119105 -1
vn -0.006211909 2.578259E-05 -0.9999807
vn -0.0060135922 0 -0.999982
vn -0.006013593 0 -0.999982
vn -0 -1 0
vn -0 -1 0
vn -0 -1 0
vn -0 -1 0
vn -0 -1 0
vn -0 -1 0
vn -0 -1 0
vn -0 -1 0
vn 0.9999999 -4.398907E-05 0.000581498
vn 1 0 -4.5743105E-05
vn 1 0 -4.4560355E-05
vn 0.9999999 -4.3989072E-05 0.0005814981
vn 0.9999999 -4.3989072E-05 0.000581498
vn -0 0 -1
vn -0 0 -1
vn -0 0 -1
vn -0 0 -1
vn -0 0 -1
vn -0 0 1
vn -0 0 1
vn -0 0 1
vn -0 0 1
vn -0 0 1
vn -0 0 1
vn -0 0 1
vn -0 0 1
vn -0 0 1
vn -1 0 0
vn -1 0 0
vn -1 0 0
vn -1 0 0
vn -1 0 0
vn -1 0 0
vn -1 -2.0451728E-06 2.3760917E-06
vn -1 -2.0451728E-06 2.3760917E-06
vn -1 -2.0451728E-06 2.3760917E-06
vn -0 0 -1
vn -0 0 -1
vn -0 0 -1
vn -0 0 -1
vn -0 0 -1
vn 1 0 0
vn 1 0 0
vn 1 0 0
vn 1 0 0
vn 1 0 1.2812562E-06
vn 1 0 1.2812562E-06
vn 1 0 1.2812563E-06
vn 1 4.30842E-05 4.4724808E-07
vn 1 4.3084205E-05 4.472481E-07
vn 1 4.308422E-05 4.4722876E-07
vn 1 4.30842E-05 4.472481E-07
vn 1 4.30842E-05 0
vn 1 4.3290547E-05 0
vn 1 4.3290547E-05 0
vn 1.7926437E-05 1 0
vn 1.7926435E-05 1 0
vn 1.1948575E-05 1 -3.579252E-06
vn 1.7926435E-05 1 0
vn 1.7926435E-05 1 2.6397754E-07
vn 1.7926437E-05 1 2.6397757E-07
vn 1.9477311E-05 1 0
vn 1.9477313E-05 1 0
vn -0.0062292092 -2.6838063E-07 -0.99998057
vn -0.0062292092 -2.6838066E-07 -0.99998057
vn -0.0062292092 -2.6838063E-07 -0.99998057
vn -0.003696191 -0.002532865 -0.99999
vn 1 0 0
vn 1 0 0
vn 1 0 0
vn 1 0 0
vn 1 0 0
vn -0 1 0
vn -0 1 0
vn -0 1 0
vn -0 1 0
vn -0 1 0
vn 0.30063012 0.62217766 -0.722853
vn 0.30063012 0.6221776 -0.722853
vn 0.30063012 0.62217766 -0.722853
vn 0.30063105 0.622178 -0.7228524
vn 0.30063105 0.62217796 -0.7228524
vn 0.30063128 0.6221796 -0.72285074
vn 0.30063146 0.6221791 -0.7228513
vn 0.3006305 0.6221777 -0.72285277
vn 0.30063143 0.622179 -0.7228513
vn 0.30063146 0.6221791 -0.7228513
vn 0.30063063 0.62217826 -0.72285235
vn 0.30063063 0.62217826 -0.72285235
vn 9.775028E-06 1 0.00018891493
vn 9.775027E-06 1 0.00018891491
vn 9.775028E-06 1 0.00018891493
vn -0 1 3.9514503E-06
vn -0 1 3.9514503E-06
vn -0.00017300222 -0.0025294118 -0.9999968
vn -0.00017300222 -0.0025294118 -0.9999968
vn -0.0001730022 -0.0025294118 -0.9999968
vn 3.7089027E-05 -0.00012119105 -1
vn -0 1 -3.5857588E-06
vn 5.4861164E-07 1 0
vn 5.4861164E-07 1 0
vn -0 1 -3.5857593E-06
vn -0 1 -3.5857593E-06
vn 0.75824356 0.6348287 -0.14852354
vn 0.75824356 0.6348287 -0.14852354
vn 0.75824356 0.6348287 -0.14852352
vn 0.75833404 0.6349052 -0.14773238
vn 0.758334 0.6349053 -0.1477322
vn 0.758334 0.63490516 -0.14773238
vn 0.75833404 0.63490516 -0.14773239
vn 0.7583343 0.6349044 -0.1477349
vn 0.7583343 0.6349043 -0.14773488
vn 0.7583342 0.63490444 -0.1477349
vn 0.75833476 0.63490367 -0.14773546
vn 0.75833476 0.63490367 -0.14773546
vn -0.006211909 2.578259E-05 -0.9999807
vn -0.0062119085 2.5782587E-05 -0.9999807
vn -0.0060135922 0 -0.999982
vn -0.006211909 2.578259E-05 -0.9999807
vn 0.30063105 0.6221785 -0.72285193
vn 0.30058458 0.6221961 -0.72285604
vn 0.30062973 0.6221797 -0.72285146
vn 0.3006311 0.62217796 -0.7228524
vn 0.30063108 0.62217796 -0.72285247
vn 0.30063108 0.62217796 -0.72285247
vn 0.015034157 0.9969056 0.077156916
vn 0.015034155 0.9969056 0.077156916
vn 0.015034155 0.9969056 0.077156916
vn 0.0150327915 0.9969055 0.077158
vn 0.015037351 0.9969056 0.07715597
vn 0.015034036 0.9969054 0.07715881
vn 0.015034546 0.9969056 0.07715648
vn 0.015030719 0.99690634 0.07714779
vn 0.015033835 0.9969056 0.077156894
vn 0.015033852 0.9969056 0.07715687
vn 0.015034546 0.9969056 0.07715648
vn 0.015034546 0.9969056 0.07715648
g Device_Prop_Box_005_v_030_0
f 3/3/3 2/2/2 1/1/1
f 6/6/6 5/5/5 4/4/4
f 9/9/9 8/8/8 7/7/7
f 8/8/8 10/10/10 7/7/7
f 10/10/10 11/11/11 7/7/7
f 8/8/8 12/12/12 10/10/10
f 12/12/12 13/13/13 10/10/10
f 13/13/13 14/14/14 10/10/10
f 17/17/17 16/16/16 15/15/15
f 16/16/16 18/18/18 15/15/15
f 18/18/18 19/19/19 15/15/15
f 22/22/22 21/21/21 20/20/20
f 21/21/21 23/23/23 20/20/20
f 23/23/23 24/24/24 20/20/20
f 27/27/27 26/26/26 25/25/25
f 28/28/28 25/25/25 26/26/26
f 26/26/26 29/29/29 28/28/28
f 30/30/30 28/28/28 29/29/29
f 25/25/25 28/28/28 31/31/31
f 32/32/32 25/25/25 31/31/31
f 28/28/28 33/33/33 31/31/31
f 36/36/36 35/35/35 34/34/34
f 35/35/35 37/37/37 34/34/34
f 37/37/37 38/38/38 34/34/34
f 35/35/35 39/39/39 37/37/37
f 39/39/39 40/40/40 37/37/37
f 40/40/40 41/41/41 37/37/37
f 42/42/42 41/41/41 40/40/40
f 45/45/45 44/44/44 43/43/43
f 44/44/44 46/46/46 43/43/43
f 47/47/47 46/46/46 44/44/44
f 50/50/50 49/49/49 48/48/48
f 49/49/49 51/51/51 48/48/48
f 51/51/51 52/52/52 48/48/48
f 52/52/52 53/53/53 48/48/48
f 54/54/54 53/53/53 52/52/52
f 57/57/57 56/56/56 55/55/55
f 58/58/58 55/55/55 56/56/56
f 59/59/59 58/58/58 56/56/56
f 60/60/60 59/59/59 56/56/56
f 61/61/61 60/60/60 56/56/56
f 64/64/64 63/63/63 62/62/62
f 65/65/65 62/62/62 63/63/63
f 67/67/67 65/65/65 66/66/66
f 68/68/68 67/67/67 66/66/66
f 69/69/69 68/68/68 66/66/66
f 72/72/72 71/71/71 70/70/70
f 73/73/73 70/70/70 71/71/71
f 76/76/76 75/75/75 74/74/74
f 75/75/75 77/77/77 74/74/74
f 77/77/77 78/78/78 74/74/74
f 81/81/81 80/80/80 79/79/79
f 80/80/80 82/82/82 79/79/79
f 82/82/82 83/83/83 79/79/79
f 86/86/86 85/85/85 84/84/84
f 85/85/85 87/87/87 84/84/84
f 87/87/87 88/88/88 84/84/84
f 89/89/89 87/87/87 85/85/85
f 90/90/90 87/87/87 89/89/89
f 91/91/91 87/87/87 90/90/90
f 92/92/92 90/90/90 89/89/89
f 93/93/93 90/90/90 92/92/92
f 94/94/94 92/92/92 89/89/89
f 95/95/95 92/92/92 94/94/94
f 98/98/98 97/97/97 96/96/96
f 97/97/97 99/99/99 96/96/96
f 99/99/99 100/100/100 96/96/96
f 103/103/103 102/102/102 101/101/101
f 102/102/102 104/104/104 101/101/101
f 107/107/107 106/106/106 105/105/105
f 106/106/106 108/108/108 105/105/105
f 108/108/108 109/109/109 105/105/105
f 112/112/112 111/111/111 110/110/110
f 111/111/111 113/113/113 110/110/110
f 113/113/113 114/114/114 110/110/110
f 115/115/115 114/114/114 113/113/113
f 116/116/116 115/115/115 113/113/113
f 114/114/114 117/117/117 110/110/110
f 117/117/117 118/118/118 110/110/110
f 119/119/119 118/118/118 117/117/117
f 120/120/120 117/117/117 114/114/114
f 121/121/121 117/117/117 120/120/120
f 124/124/124 123/123/123 122/122/122
f 123/123/123 125/125/125 122/122/122
f 128/128/128 127/127/127 126/126/126
f 127/127/127 129/129/129 126/126/126
f 130/130/130 129/129/129 127/127/127
f 131/131/131 129/129/129 130/130/130
f 134/134/134 133/133/133 132/132/132
f 133/133/133 135/135/135 132/132/132
f 136/136/136 135/135/135 133/133/133
f 137/137/137 135/135/135 136/136/136
f 138/138/138 135/135/135 137/137/137
f 139/139/139 138/138/138 137/137/137
f 140/140/140 135/135/135 138/138/138
f 141/141/141 140/140/140 138/138/138
f 142/142/142 138/138/138 139/139/139
f 143/143/143 138/138/138 142/142/142
