g Device_Prop_Box_01_v_019
v 0.012615509 0.71738315 -0.1594578
v 0.012615509 -0.35341296 0.32367912
v 0.012615509 -0.35341287 -0.15945792
v 0.012615509 -0.35341287 -0.15945792
v 0.00042478027 0.7071809 -0.1594578
v 0.012615509 0.71738315 -0.1594578
v -0.01278449 0.6961264 -0.1594578
v -0.01278449 -0.35341287 -0.15945792
v -0.01278449 -0.35341287 -0.15945792
v -0.0036112135 -0.35341296 0.31755194
v -0.01278449 -0.35341296 0.31408814
v 0.012615509 -0.35341287 -0.15945792
v 0.012615509 -0.35341296 0.32367912
v -0.01278449 -0.35341287 -0.15945792
v -0.01278449 0.09805836 0.110386916
v -0.01278449 0.6961264 -0.1594578
v -0.01278449 -0.35341296 0.31408814
v -0.0036112135 -0.35341296 0.31755194
v -0.01278449 0.09805836 0.110386916
v -0.01278449 -0.35341296 0.31408814
v 0.00042478027 0.7071809 -0.1594578
v -0.01278449 0.6961264 -0.1594578
v 0.012615509 -0.35341296 0.32367912
v 0.012615509 0.71738315 -0.1594578
vt 1.2986567 0.47474247
vt 1.5137455 0.5717894
vt 1.5137455 0.47474247
vt 1.5137455 0.47474247
vt 1.3007059 0.47474247
vt 1.2986567 0.47474247
vt 1.3029264 0.47474247
vt 1.5137455 0.47474247
vt 1.5137455 0.47474247
vt 1.5137455 0.5705586
vt 1.5137455 0.56986284
vt 1.5137455 0.47474247
vt 1.5137455 0.5717894
vt 1.5137455 0.47474247
vt 1.4230593 0.52894574
vt 1.3029264 0.47474247
vt 1.5137455 0.56986284
vt 0.13943882 0
vt 0.07505802 0.38586098
vt 0.13171802 0
vt 0.009730415 0.90646243
vt 0 0.8970143
vt 0.15309632 0
vt 0.018710556 0.91518193
vn -1 0 0
vn -1 0 0
vn -1 0 0
vn -0 0 1
vn -0 0 1
vn -0 0 1
vn -0 0 1
vn -0 0 1
vn -0 1 0
vn -0 1 0
vn -0 1 0
vn -0 1 0
vn -0 1 0
vn 1 0 0
vn 1 0 0
vn 1 0 0
vn 1 0 0
vn 0.32544652 -0.38888037 -0.8618913
vn 0.32544652 -0.3888804 -0.8618913
vn 0.32544652 -0.3888804 -0.8618913
vn 0.32544434 -0.38888052 -0.86189204
vn 0.32544437 -0.38888052 -0.86189204
vn 0.32544905 -0.38887998 -0.8618906
vn 0.32544756 -0.3888802 -0.861891
g Device_Prop_Box_01_v_019_0
f 3/3/3 2/2/2 1/1/1
f 6/6/6 5/5/5 4/4/4
f 5/5/5 7/7/7 4/4/4
f 8/8/8 4/4/4 7/7/7
f 11/11/11 10/10/10 9/9/9
f 9/9/9 10/10/10 12/12/12
f 13/13/13 12/12/12 10/10/10
f 16/16/16 15/15/15 14/14/14
f 14/14/14 15/15/15 17/17/17
f 20/20/20 19/19/19 18/18/18
f 19/19/19 21/21/21 18/18/18
f 22/22/22 21/21/21 19/19/19
f 18/18/18 21/21/21 23/23/23
f 23/23/23 21/21/21 24/24/24
