g Device_Prop_Box_008_v_027
v -0.31767276 0.32756767 0.012728208
v -0.31767285 -0.456525 -0.005575223
v -0.31767282 -0.45318547 0.012728111
v -0.31767276 0.32756767 -0.012671792
v -0.31767285 -0.456525 -0.005575223
v -0.31767276 0.32756767 0.012728208
v -0.31767285 -0.456525 -0.005575223
v -0.31767276 0.32756767 -0.012671792
v -0.31767282 -0.45781997 -0.012671882
v -0.31767276 0.32756767 -0.012671792
v 0.24897105 0.32756767 -0.0030325789
v 0.2578685 0.32756767 -0.012671828
v 0.23442312 0.32756767 0.012728171
v -0.31767276 0.32756767 0.012728208
v -0.31767276 0.32756767 -0.012671792
v 0.34847546 -0.15787873 -0.012671889
v -0.31767282 -0.45781997 -0.012671882
v 0.32059476 0.2636209 -0.01267184
v 0.2578685 0.32756767 -0.012671828
v 0.44969523 -0.11230332 -0.012671894
v 0.24897105 0.32756767 -0.0030325789
v 0.32059476 0.2636209 -0.01267184
v 0.2578685 0.32756767 -0.012671828
v 0.23442312 0.32756767 0.012728171
v 0.331965 0.22812784 0.012728147
v 0.331965 0.22812784 0.012728147
v 0.44969523 -0.11230332 -0.012671894
v 0.32059476 0.2636209 -0.01267184
v 0.4476076 -0.10860887 0.012728099
v 0.23442312 0.32756767 0.012728171
v 0.4476076 -0.10860887 0.012728099
v 0.331965 0.22812784 0.012728147
v -0.31767276 0.32756767 0.012728208
v -0.31767282 -0.45318547 0.012728111
v 0.4476076 -0.10860887 0.012728099
v 0.34847546 -0.15787873 -0.012671889
v 0.44969523 -0.11230332 -0.012671894
v -0.31767285 -0.456525 -0.005575223
v -0.31767282 -0.45318547 0.012728111
v -0.31767282 -0.45781997 -0.012671882
vt 1.269111 0.052329853
vt 1.1119606 0.052329816
vt 1.11263 0.052329812
vt 1.269111 0.052329853
vt 1.1119606 0.052329816
vt 1.269111 0.052329853
vt 1.1119606 0.052329816
vt 1.269111 0.052329853
vt 1.1117011 0.052329812
vt 1.269111 0.052329853
vt 1.269111 0.16589841
vt 1.269111 0.16768166
vt 1.2691109 0.16298267
vt 1.269111 0.052329853
vt 1.269111 0.052329853
vt 1.1718162 0.1858414
vt 1.1117011 0.052329812
vt 1.2562946 0.18025346
vt 1.269111 0.16768166
vt 1.1809506 0.2061282
vt 1.050125 0.009089775
vt 0.9746871 1.421571E-07
vt 1.0452191 1.5258789E-07
vt 1.0581465 0.023951894
vt 0.9484665 0.023951888
vt 0.8233126 0.020009398
vt 0.5396806 7.282317E-08
vt 0.8526526 1.0967255E-07
vt 0.54296577 0.020009367
vt 1.2691109 0.16298267
vt 1.181691 0.2057098
vt 1.2491808 0.18253233
vt 1.269111 0.052329853
vt 1.11263 0.052329812
vt 0 0.65905184
vt 0.026638642 0.57368016
vt 0.020197334 0.66084963
vt 0.063350104 0
vt 0.048700105 7.6293944E-08
vt 0.06903031 0
vn 1 0 -2.6355544E-06
vn 1 0 -2.6355547E-06
vn 1 0 -2.6355547E-06
vn 1 0 0
vn 1 0 0
vn 1 0 0
vn 1 0 6.83794E-06
vn 1 0 6.83794E-06
vn 1 0 6.8379413E-06
vn -0 -1 0
vn -0 -1 0
vn -0 -1 0
vn -0 -1 0
vn -0 -1 0
vn -0 0 1
vn -0 0 1
vn -0 0 1
vn -0 0 1
vn -0 0 1
vn -0 0 1
vn -0.596104 -0.5847267 -0.5502315
vn -0.596104 -0.5847267 -0.55023146
vn -0.596104 -0.5847267 -0.5502315
vn -0.5961037 -0.5847262 -0.55023223
vn -0.5961037 -0.58472604 -0.5502325
vn -0.94534266 -0.324651 -0.030476741
vn -0.94534266 -0.32465103 -0.030476745
vn -0.94534266 -0.324651 -0.030476741
vn -0.94534266 -0.32465097 -0.030477244
vn -0 0 -1
vn -0 0 -1
vn -0 0 -1
vn -0 0 -1
vn -0 0 -1
vn -0.4049965 0.8994687 -0.16411504
vn -0.40499648 0.8994687 -0.16411504
vn -0.40499648 0.8994688 -0.16411504
vn -0.4049953 0.89946574 -0.16413483
vn -0.40499678 0.8994694 -0.16411103
vn -0.40499523 0.89946574 -0.16413482
g Device_Prop_Box_008_v_027_0
f 3/3/3 2/2/2 1/1/1
f 6/6/6 5/5/5 4/4/4
f 9/9/9 8/8/8 7/7/7
f 12/12/12 11/11/11 10/10/10
f 11/11/11 13/13/13 10/10/10
f 14/14/14 10/10/10 13/13/13
f 17/17/17 16/16/16 15/15/15
f 15/15/15 16/16/16 18/18/18
f 19/19/19 15/15/15 18/18/18
f 16/16/16 20/20/20 18/18/18
f 23/23/23 22/22/22 21/21/21
f 21/21/21 22/22/22 24/24/24
f 22/22/22 25/25/25 24/24/24
f 28/28/28 27/27/27 26/26/26
f 29/29/29 26/26/26 27/27/27
f 32/32/32 31/31/31 30/30/30
f 30/30/30 31/31/31 33/33/33
f 33/33/33 31/31/31 34/34/34
f 37/37/37 36/36/36 35/35/35
f 36/36/36 38/38/38 35/35/35
f 35/35/35 38/38/38 39/39/39
f 40/40/40 38/38/38 36/36/36
