g Device_Prop_Box_01_v_015
v 0.006275828 0.015662028 0.0013378154
v -0.002546889 0.015786875 0.0013378154
v 0.0030099906 0.02311121 0.0013378173
v 0.019072697 -0.013527033 0.0013378101
v -0.022617865 -0.010667905 0.0013378104
v -0.013868473 0.002107284 -0.0012921905
v -0.023129983 -0.010526368 -0.00039006144
v -0.023498928 -0.010586296 -0.0012921926
v 0.0035289875 0.025038127 -0.0012921867
v -0.002546889 0.015786875 0.0013378154
v -0.022617865 -0.010667905 0.0013378104
v 0.0030099906 0.02311121 0.0013378173
v -0.013868473 0.002107284 -0.0012921905
v 0.015134469 -0.0014334397 -0.001292191
v 0.0035289875 0.025038127 -0.0012921867
v 0.020458272 -0.013576787 -0.0012921931
v -0.023498928 -0.010586296 -0.0012921926
v -0.023129983 -0.010526368 -0.00039006144
v 0.020458272 -0.013576787 -0.0012921931
v -0.023498928 -0.010586296 -0.0012921926
v 0.020025352 -0.013476624 -0.00054200104
v 0.019072697 -0.013527033 0.0013378101
v -0.022617865 -0.010667905 0.0013378104
v 0.015134469 -0.0014334397 -0.001292191
v 0.0030099906 0.02311121 0.0013378173
v 0.0035289875 0.025038127 -0.0012921867
v 0.020025352 -0.013476624 -0.00054200104
v 0.020458272 -0.013576787 -0.0012921931
v 0.006275828 0.015662028 0.0013378154
v 0.019072697 -0.013527033 0.0013378101
vt 1.4324433 0.97466195
vt 1.4363002 0.97466195
vt 1.4338709 0.97466195
vt 1.4268491 0.97466195
vt 1.4450741 0.97466195
vt 0.025865555 0
vt 0.038198337 0.0007387543
vt 0.03841152 0
vt 0.00320131 1.6916822E-08
vt 0.01189621 0.0021537018
vt 0.038043402 0.0021536923
vt 0.004657041 0.0021537018
vt 1.4414763 0.98785913
vt 1.428844 0.98854214
vt 1.4338942 0.977352
vt 1.4265227 0.9936755
vt 1.445668 0.9936755
vt 1.4457147 0.9941387
vt 1.4265227 0.9936755
vt 1.445668 0.9936755
vt 1.4268838 0.9940607
vt 1.4268647 0.995026
vt 1.4450905 0.995026
vt 0.010440235 0
vt 0.03197365 0.0022925376
vt 0.03319914 1.9073486E-08
vt 0.00020910263 0.0006539345
vt 0 0
vt 0.02556921 0.0022925376
vt 0.00047393798 0.0022925376
vn -0 0 1
vn -0 0 1
vn -0 -2.5563367E-07 1
vn -0 0 1
vn -0 0 1
vn -0.76601 0.58116597 0.2747268
vn -0.766029 0.58117855 0.27464715
vn -0.76602393 0.5811724 0.2746743
vn -0.76603085 0.5811778 0.27464366
vn -0.7660308 0.5811778 0.27464363
vn -0.76602906 0.58117855 0.27464715
vn -0.7660308 0.5811778 0.27464363
vn -0 0 -1
vn -0 0 -1
vn -0 0 -1
vn -0 0 -1
vn -0 0 -1
vn -0.06829024 -0.9957787 -0.061327934
vn -0.06757675 -0.9933114 0.09362699
vn -0.06757686 -0.99331176 0.0936226
vn -0.06757674 -0.9933114 0.09362698
vn -0.068290226 -0.9957787 -0.061327923
vn -0.06829023 -0.9957787 -0.061327927
vn 0.82729495 0.3626968 0.42899185
vn 0.8273079 0.3627046 0.42896053
vn 0.82729495 0.3626968 0.42899185
vn 0.82729757 0.36269805 0.4289858
vn 0.8272965 0.36269757 0.4289883
vn 0.82729757 0.36269805 0.4289858
vn 0.82729757 0.3626981 0.42898586
g Device_Prop_Box_01_v_015_0
f 3/3/3 2/2/2 1/1/1
f 2/2/2 4/4/4 1/1/1
f 5/5/5 4/4/4 2/2/2
f 8/8/8 7/7/7 6/6/6
f 7/7/7 9/9/9 6/6/6
f 10/10/10 9/9/9 7/7/7
f 11/11/11 10/10/10 7/7/7
f 12/12/12 9/9/9 10/10/10
f 15/15/15 14/14/14 13/13/13
f 14/14/14 16/16/16 13/13/13
f 16/16/16 17/17/17 13/13/13
f 20/20/20 19/19/19 18/18/18
f 19/19/19 21/21/21 18/18/18
f 21/21/21 22/22/22 18/18/18
f 22/22/22 23/23/23 18/18/18
f 26/26/26 25/25/25 24/24/24
f 25/25/25 27/27/27 24/24/24
f 27/27/27 28/28/28 24/24/24
f 29/29/29 27/27/27 25/25/25
f 30/30/30 27/27/27 29/29/29
