g Device_Prop_Box_005_v_050
v -0.11335362 0.12003087 0.011963417
v 0.020065738 0.12003087 0.03954313
v -0.10503068 0.12003087 0.03954313
v 0.043295257 0.12003087 0.0039691376
v -0.12812813 0.119823895 -0.036667336
v 0.070005156 0.11986629 -0.036665205
v -0.16060102 0.051804855 -0.036667723
v 0.070005156 0.11986629 -0.036665205
v -0.12812813 0.119823895 -0.036667336
v 0.19521482 0.0028034837 -0.036663845
v -0.22634818 -0.08590637 -0.036676638
v 0.29010075 -0.08590597 -0.036667142
v 0.13667017 0.0110142045 0.03954313
v 0.25965798 -0.08590221 0.009947261
v 0.24032913 -0.08589936 0.03954313
v 0.043295257 0.12003087 0.0039691376
v 0.020065738 0.12003087 0.03954313
v 0.19521482 0.0028034837 -0.036663845
v 0.29010075 -0.08590597 -0.036667142
v 0.070005156 0.11986629 -0.036665205
v 0.020065738 0.12003087 0.03954313
v -0.1389298 0.0490243 0.03954313
v -0.10503068 0.12003087 0.03954313
v 0.13667017 0.0110142045 0.03954313
v -0.20334338 -0.08589936 0.03954313
v 0.24032913 -0.08589936 0.03954313
v 0.25965798 -0.08590221 0.009947261
v -0.20334338 -0.08589936 0.03954313
v 0.24032913 -0.08589936 0.03954313
v -0.21966207 -0.08590455 -0.014523726
v -0.22634818 -0.08590637 -0.036676638
v 0.29010075 -0.08590597 -0.036667142
v -0.1389298 0.0490243 0.03954313
v -0.11335362 0.12003087 0.011963417
v -0.10503068 0.12003087 0.03954313
v -0.21966207 -0.08590455 -0.014523726
v -0.20334338 -0.08589936 0.03954313
v -0.16060102 0.051804855 -0.036667723
v -0.12812813 0.119823895 -0.036667336
v -0.22634818 -0.08590637 -0.036676638
vt 0.20226619 0.9084406
vt 0.1746408 0.9141512
vt 0.20054287 0.9141512
vt 0.16983098 0.90678525
vt 0.20533648 0.8983732
vt 0.16430937 0.8983732
vt 0.21206059 0.8983732
vt 0.16430937 0.8983732
vt 0.20533648 0.8983732
vt 0.1383824 0.8983732
vt 0.22566901 0.8983731
vt 0.118731596 0.8983731
vt 0.095877536 0.117463835
vt 0.11575119 0.24135809
vt 0.13564026 0.22188681
vt 0.027241059 0.023400802
vt 0.05114891 0
vt 0.0480307 0.17644003
vt 0.0844252 0.2720253
vt 0 0.050307542
vt 0.31557804 0.21728028
vt 0.30087566 0.25020137
vt 0.31557804 0.24318233
vt 0.2930054 0.19313654
vt 0.2729388 0.26353866
vt 0.27293876 0.17167325
vt 0.6510984 0.5990101
vt 0.64497256 0.503146
vt 0.64497256 0.5950115
vt 0.6561634 0.4997606
vt 0.6607502 0.4983762
vt 0.6607502 0.60531366
vt 0.061955463 0.062201384
vt 0.0028234338 0.039694212
vt 0 0.062201384
vt 0.18522012 0.018078614
vt 0.17968056 0.062201384
vt 0.06733131 7.171631E-06
vt 0.00798254 7.6293945E-06
vt 0.18748958 0
vn -0.00021388283 0.9999912 -0.004191059
vn -0 1 0
vn -0 1 0
vn -0.00021388283 0.9999912 -0.0041910596
vn -0.00021388283 0.9999912 -0.0041910596
vn -0.00021390404 0.9999912 -0.00419097
vn 1.8585035E-05 5.585799E-05 -1
vn 1.0902654E-05 0 -1
vn 1.0758562E-05 5.6177794E-07 -1
vn 1.8585035E-05 5.5857992E-05 -1
vn 1.8585035E-05 5.5857992E-05 -1
vn 1.8386178E-05 5.6802986E-05 -1
vn 0.6237289 0.6671417 0.4072889
vn 0.6237291 0.66714156 0.4072888
vn 0.6237289 0.66714174 0.4072889
vn 0.62372893 0.6671414 0.40728936
vn 0.62372875 0.6671414 0.4072896
vn 0.6237289 0.6671414 0.40728936
vn 0.623729 0.6671416 0.4072888
vn 0.6237289 0.6671414 0.4072894
vn -0 0 1
vn -0 0 1
vn -0 0 1
vn -0 0 1
vn -0 0 1
vn -0 0 1
vn 7.7241486E-07 -1 8.1310536E-05
vn -0 -1 9.6102776E-05
vn -0 -1 9.617022E-05
vn -0 -1 9.610277E-05
vn 7.7241486E-07 -1 8.131053E-05
vn 7.72415E-07 -1 8.1310536E-05
vn -0.870722 0.41568977 0.26276448
vn -0.8707223 0.41568902 0.26276496
vn -0.870722 0.41568983 0.26276448
vn -0.8707222 0.41568986 0.26276365
vn -0.870722 0.41568938 0.2627653
vn -0.8707222 0.41568992 0.26276368
vn -0.8707223 0.41568902 0.26276496
vn -0.8707222 0.41568992 0.26276368
g Device_Prop_Box_005_v_050_0
f 3/3/3 2/2/2 1/1/1
f 2/2/2 4/4/4 1/1/1
f 4/4/4 5/5/5 1/1/1
f 6/6/6 5/5/5 4/4/4
f 9/9/9 8/8/8 7/7/7
f 8/8/8 10/10/10 7/7/7
f 10/10/10 11/11/11 7/7/7
f 12/12/12 11/11/11 10/10/10
f 15/15/15 14/14/14 13/13/13
f 14/14/14 16/16/16 13/13/13
f 16/16/16 17/17/17 13/13/13
f 18/18/18 16/16/16 14/14/14
f 19/19/19 18/18/18 14/14/14
f 20/20/20 16/16/16 18/18/18
f 23/23/23 22/22/22 21/21/21
f 22/22/22 24/24/24 21/21/21
f 25/25/25 24/24/24 22/22/22
f 26/26/26 24/24/24 25/25/25
f 29/29/29 28/28/28 27/27/27
f 28/28/28 30/30/30 27/27/27
f 30/30/30 31/31/31 27/27/27
f 31/31/31 32/32/32 27/27/27
f 35/35/35 34/34/34 33/33/33
f 34/34/34 36/36/36 33/33/33
f 36/36/36 37/37/37 33/33/33
f 38/38/38 36/36/36 34/34/34
f 39/39/39 38/38/38 34/34/34
f 40/40/40 36/36/36 38/38/38
