g Device_Prop_Box_01_v_019
v 0.048606697 -0.0150212245 0.021664908
v -0.01394646 -0.015021176 -0.08214697
v 0.048606697 -0.0150212245 -0.08214697
v -0.01394646 -0.015021176 -0.08214697
v -0.01394646 0.047532078 0.05194305
v -0.01394646 0.047532078 -0.08214697
v 0.048606697 -0.0150212245 0.021664908
v -0.01394646 0.047532078 0.05194305
v -0.01394646 -0.015021176 -0.08214697
v -0.01394646 0.047532078 0.05194305
v -0.01394646 -0.015021176 0.06074503
v -0.01394646 0.02397436 0.06074508
v -0.018946469 0.047532078 -0.08214697
v -0.018946469 -0.02002121 0.060744982
v -0.018946469 -0.02002121 -0.08214702
v -0.018946469 0.035451856 0.060744982
v -0.018946469 0.047532078 0.056231353
v 0.0036543796 -0.016428018 0.060744982
v -0.01394646 -0.015021176 0.06074503
v 0.003041481 -0.015021176 0.06074503
v 0.0052197394 -0.02002121 0.060744982
v -0.018946469 -0.02002121 0.060744982
v -0.01394646 0.02397436 0.06074508
v -0.015436849 0.027395662 0.060744982
v -0.018946469 0.035451856 0.060744982
v 0.048606697 -0.02002121 -0.08214702
v 0.048606697 -0.0150212245 0.021664908
v 0.048606697 -0.0150212245 -0.08214697
v 0.048606697 -0.016371045 0.022169238
v 0.048606697 -0.02002121 0.02353306
v 0.048606697 -0.0150212245 -0.08214697
v -0.018946469 -0.02002121 -0.08214702
v 0.048606697 -0.02002121 -0.08214702
v -0.01394646 -0.015021176 -0.08214697
v -0.018946469 0.047532078 -0.08214697
v -0.01394646 0.047532078 -0.08214697
v -0.018783664 0.047532078 0.056091778
v -0.01394646 0.047532078 -0.08214697
v -0.01394646 0.047532078 0.05194305
v -0.018946469 0.047532078 0.056231353
v -0.018946469 0.047532078 -0.08214697
v 0.048606697 -0.0150212245 0.021664908
v -0.01394646 -0.015021176 0.06074503
v -0.01394646 0.047532078 0.05194305
v 0.003041481 -0.015021176 0.06074503
v -0.018946469 -0.02002121 -0.08214702
v 0.048606697 -0.02002121 0.02353306
v 0.048606697 -0.02002121 -0.08214702
v 0.036089778 -0.02002121 0.0342685
v -0.018946469 -0.02002121 0.060744982
v 0.0052197394 -0.02002121 0.060744982
v 0.048606697 -0.016371045 0.022169238
v 0.003041481 -0.015021176 0.06074503
v 0.048606697 -0.0150212245 0.021664908
v 0.036089778 -0.02002121 0.0342685
v 0.048606697 -0.02002121 0.02353306
v 0.0036543796 -0.016428018 0.060744982
v 0.0052197394 -0.02002121 0.060744982
v -0.018783664 0.047532078 0.056091778
v -0.018946469 0.035451856 0.060744982
v -0.018946469 0.047532078 0.056231353
v -0.01394646 0.047532078 0.05194305
v -0.015436849 0.027395662 0.060744982
v -0.01394646 0.02397436 0.06074508
vt 0.7796749 0.7906515
vt 0.9336691 0.86724955
vt 0.47981787 0.8463815
vt 0.9336691 0.86724955
vt 0.5072706 0.8309771
vt 0.9336691 0.8208268
vt 0.7796749 0.7906515
vt 0.5072706 0.8309771
vt 0.9336691 0.86724955
vt 0.5072706 0.8309771
vt 0.89255637 0.8160945
vt 0.6349212 0.82578766
vt 0.8259233 0.6940025
vt 0.77579004 0.80004656
vt 0.77579004 0.6940025
vt 0.8169582 0.80004656
vt 0.82592326 0.7966969
vt 0.89360046 0.8030324
vt 0.89255637 0.8160945
vt 0.8925564 0.80348724
vt 0.89626694 0.8018706
vt 0.8962669 0.819805
vt 0.8636165 0.8160945
vt 0.8610774 0.81720054
vt 0.8550987 0.819805
vt 0.47981787 0.842671
vt 0.5568597 0.8463815
vt 0.47981787 0.8463815
vt 0.557234 0.8453798
vt 0.55824614 0.842671
vt 0.8872467 0.86724955
vt 0.9373797 0.8709602
vt 0.8872467 0.8709602
vt 0.9336691 0.86724955
vt 0.9373797 0.8208268
vt 0.9336691 0.8208268
vt 0.48273402 0.8280537
vt 0.5853249 0.83164334
vt 0.48581293 0.8316434
vt 0.48263037 0.8279328
vt 0.5853249 0.82793283
vt 0.7796749 0.7906515
vt 0.89255637 0.8160945
vt 0.5072706 0.8309771
vt 0.8925564 0.80348724
vt 0.7675965 0.6937734
vt 0.71746325 0.7722015
vt 0.71746325 0.6937734
vt 0.7267524 0.78016853
vt 0.7675965 0.79981744
vt 0.74966204 0.79981744
vt 0.04700817 0.0029875564
vt 0 0.004092331
vt 0.047266692 0.004092293
vt 0.0333247 3.8146972E-08
vt 0.04630905 0
vt 0.00036632537 0.0029409027
vt 0.0013019181 0
vt 0.0024826431 0.019281005
vt 0 0.009393845
vt 0.0023137664 0.019281005
vt 0.0075004576 0.019280968
vt 0.0020976258 0.0028001785
vt 0.0029883957 0
vn 7.744877E-07 1 0
vn 1 0 0
vn 7.744878E-07 1 0
vn 1 0 0
vn 1 0 0
vn 1 0 0
vn 7.744877E-07 1 0
vn 1 0 0
vn 1 0 0
vn 1 0 0
vn 1 0 0
vn 1 0 0
vn -1 0 0
vn -1 0 0
vn -1 0 0
vn -1 0 0
vn -1 0 0
vn 2.8518243E-06 1.2423861E-06 1
vn 2.8518239E-06 1.2423861E-06 1
vn -0 -3.443645E-05 1
vn 2.851824E-06 1.2423861E-06 1
vn -0 -9.689265E-06 1
vn -8.446942E-06 -1.2423642E-06 1
vn -5.5570177E-05 4.113098E-06 1
vn -0 0 1
vn 1 0 0
vn 1 0 0
vn 1 0 0
vn 1 0 0
vn 1 0 0
vn -0 9.689258E-06 -1
vn -0 9.689258E-06 -1
vn -0 9.689359E-06 -1
vn -0 9.689258E-06 -1
vn -0 0 -1
vn -0 0 -1
vn -0 1 0
vn -0 1 0
vn -0 1 0
vn -0 1 0
vn -0 1 0
vn 7.744877E-07 1 0
vn 1 0 0
vn 1 0 0
vn -0 1 -1.2396752E-06
vn -0 -1 0
vn -0 -1 0
vn -0 -1 0
vn -0 -1 0
vn -0 -1 0
vn -0 -1 0
vn 0.62632316 0.27284393 0.73025715
vn 0.62632364 0.2728362 0.73025954
vn 0.62632316 0.27284393 0.73025715
vn 0.6263217 0.2728546 0.73025453
vn 0.6263222 0.27284786 0.7302565
vn 0.6263216 0.27285457 0.73025453
vn 0.6263216 0.2728546 0.73025453
vn 0.6263206 0.2728485 0.7302577
vn 0.6263178 0.27285066 0.7302591
vn 0.62616116 0.27289638 0.7303764
vn 0.6263097 0.27285382 0.7302649
vn 0.6263097 0.27285382 0.7302649
vn 0.62630975 0.27285382 0.730265
g Device_Prop_Box_01_v_019_0
f 3/3/3 2/2/2 1/1/1
f 6/6/6 5/5/5 4/4/4
f 9/9/9 8/8/8 7/7/7
f 12/12/12 11/11/11 10/10/10
f 15/15/15 14/14/14 13/13/13
f 14/14/14 16/16/16 13/13/13
f 16/16/16 17/17/17 13/13/13
f 20/20/20 19/19/19 18/18/18
f 19/19/19 21/21/21 18/18/18
f 22/22/22 21/21/21 19/19/19
f 19/19/19 23/23/23 22/22/22
f 23/23/23 24/24/24 22/22/22
f 24/24/24 25/25/25 22/22/22
f 28/28/28 27/27/27 26/26/26
f 27/27/27 29/29/29 26/26/26
f 29/29/29 30/30/30 26/26/26
f 33/33/33 32/32/32 31/31/31
f 34/34/34 31/31/31 32/32/32
f 32/32/32 35/35/35 34/34/34
f 36/36/36 34/34/34 35/35/35
f 39/39/39 38/38/38 37/37/37
f 38/38/38 40/40/40 37/37/37
f 41/41/41 40/40/40 38/38/38
f 44/44/44 43/43/43 42/42/42
f 43/43/43 45/45/45 42/42/42
f 48/48/48 47/47/47 46/46/46
f 47/47/47 49/49/49 46/46/46
f 49/49/49 50/50/50 46/46/46
f 51/51/51 50/50/50 49/49/49
f 54/54/54 53/53/53 52/52/52
f 53/53/53 55/55/55 52/52/52
f 55/55/55 56/56/56 52/52/52
f 57/57/57 55/55/55 53/53/53
f 58/58/58 55/55/55 57/57/57
f 61/61/61 60/60/60 59/59/59
f 60/60/60 62/62/62 59/59/59
f 63/63/63 62/62/62 60/60/60
f 64/64/64 62/62/62 63/63/63
