g Device_Prop_Box_005_v_043
v 0.4359413 0.268326 -0.0028002167
v 0.4359413 0.2741461 0.012686823
v 0.43594122 -0.39512005 0.012686823
v -0.37098184 0.19291404 -0.012713177
v -0.3170106 -0.39512005 -0.012713177
v -0.47057146 -0.25155184 -0.012713177
v 0.43594122 -0.39512005 -0.012713177
v 0.4359413 0.26460066 -0.012712983
v -0.29533514 0.5305232 -0.012712983
v 0.43594122 -0.39512005 -0.012713177
v -0.3254685 -0.39512005 0.00023932647
v -0.3170106 -0.39512005 -0.012713177
v -0.33359662 -0.39512005 0.012686823
v 0.43594122 -0.39512005 0.012686823
v 0.4359413 0.268326 -0.0028002167
v 0.43594122 -0.39512005 -0.012713177
v 0.4359413 0.26460066 -0.012712983
v 0.43594122 -0.39512005 0.012686823
v -0.47039023 -0.26722798 0.012686823
v -0.3254685 -0.39512005 0.00023932647
v -0.33359662 -0.39512005 0.012686823
v -0.3170106 -0.39512005 -0.012713177
v -0.47057146 -0.25155184 -0.012713177
v 0.052522182 0.41357324 0.012687016
v 0.43594122 -0.39512005 0.012686823
v 0.4359413 0.2741461 0.012686823
v -0.47039023 -0.26722798 0.012686823
v -0.33359662 -0.39512005 0.012686823
v -0.39012328 0.091001466 0.012687016
v -0.28994212 0.5381075 0.012687016
v -0.39012328 0.091001466 0.012687016
v -0.47057146 -0.25155184 -0.012713177
v -0.47039023 -0.26722798 0.012686823
v -0.37098184 0.19291404 -0.012713177
v -0.29533514 0.5305232 -0.012712983
v -0.28994212 0.5381075 0.012687016
v -0.28994212 0.5381075 0.012687016
v 0.4359413 0.26460066 -0.012712983
v -0.29533514 0.5305232 -0.012712983
v 0.052522182 0.41357324 0.012687016
v 0.4359413 0.268326 -0.0028002167
v 0.4359413 0.2741461 0.012686823
vt 0.4524335 0.05401236
vt 0.45359993 0.054012362
vt 0.3194636 0.054012325
vt 0.43731916 0.21573848
vt 0.31946355 0.2049213
vt 0.34823793 0.23569848
vt 0.3194636 0.054012325
vt 0.45168686 0.054012366
vt 0.5049838 0.20057715
vt 0.3194636 0.054012325
vt 0.31946355 0.20661648
vt 0.31946355 0.2049213
vt 0.31946355 0.20824555
vt 0.3194636 0.054012325
vt 0.4524335 0.05401236
vt 0.3194636 0.054012325
vt 0.45168686 0.054012366
vt 0.3194636 0.054012325
vt 0.052472964 0.59113264
vt 0.008365478 0.7371225
vt 0 0.72893447
vt 0.017070312 0.7456427
vt 0.075975046 0.5909501
vt 0.48154444 0.13085845
vt 0.3194636 0.054012325
vt 0.45359993 0.054012362
vt 0.34509608 0.23566216
vt 0.31946355 0.20824555
vt 0.41689354 0.21957484
vt 0.50650394 0.19949627
vt 0.38765174 0.0202005
vt 0.66470265 0
vt 0.67671615 0.0202005
vt 0.3060518 0
vt 0.033626363 1.4512224E-07
vt 0.026870457 0.020200644
vt 0.09448166 0.004485741
vt 0 0.6082537
vt 0.07365921 0
vt 0.059986267 0.28933725
vt 0.0083381655 0.6082537
vt 0.021365356 0.6082537
vn -1 0 0
vn -1 0 0
vn -1 0 0
vn -0 -5.307515E-07 1
vn -0 0 1
vn -0 0 1
vn -0 -2.9374036E-07 1
vn -0 -5.307515E-07 1
vn -0 -5.307515E-07 1
vn -0 1 -9.455865E-07
vn -0 1 -9.455867E-07
vn -0 1 -9.455866E-07
vn -0 1 0
vn -0 1 0
vn -1 0 0
vn -1 0 0
vn -1 0 4.859701E-06
vn -1 0 0
vn 0.62372875 0.6671413 0.40728983
vn 0.62372875 0.6671413 0.40728977
vn 0.62372875 0.6671413 0.4072898
vn 0.6237287 0.6671414 0.40728968
vn 0.6237288 0.66714156 0.40728918
vn -4.7114568E-07 6.465243E-07 -1
vn -0 0 -1
vn -5.054171E-07 0 -1
vn -4.711457E-07 6.465243E-07 -1
vn -0 0 -1
vn -4.711457E-07 6.465243E-07 -1
vn -0 0 -1
vn 0.96612585 -0.21647562 -0.14049602
vn 0.96612585 -0.21647562 -0.14049603
vn 0.96612585 -0.21647562 -0.14049602
vn 0.9661262 -0.21647586 -0.14049366
vn 0.9661262 -0.21647581 -0.14049333
vn 0.9661261 -0.21647581 -0.14049399
vn -0.32224044 -0.8861485 0.3330193
vn -0.32223895 -0.886146 0.33302742
vn -0.3222404 -0.8861485 0.33301935
vn -0.3222404 -0.886149 0.3330183
vn -0.32224038 -0.88614887 0.33301827
vn -0.3222404 -0.886149 0.3330183
g Device_Prop_Box_005_v_043_0
f 3/3/3 2/2/2 1/1/1
f 6/6/6 5/5/5 4/4/4
f 5/5/5 7/7/7 4/4/4
f 7/7/7 8/8/8 4/4/4
f 8/8/8 9/9/9 4/4/4
f 12/12/12 11/11/11 10/10/10
f 11/11/11 13/13/13 10/10/10
f 13/13/13 14/14/14 10/10/10
f 17/17/17 16/16/16 15/15/15
f 16/16/16 18/18/18 15/15/15
f 21/21/21 20/20/20 19/19/19
f 20/20/20 22/22/22 19/19/19
f 22/22/22 23/23/23 19/19/19
f 26/26/26 25/25/25 24/24/24
f 25/25/25 27/27/27 24/24/24
f 28/28/28 27/27/27 25/25/25
f 27/27/27 29/29/29 24/24/24
f 29/29/29 30/30/30 24/24/24
f 33/33/33 32/32/32 31/31/31
f 32/32/32 34/34/34 31/31/31
f 34/34/34 35/35/35 31/31/31
f 35/35/35 36/36/36 31/31/31
f 39/39/39 38/38/38 37/37/37
f 38/38/38 40/40/40 37/37/37
f 41/41/41 40/40/40 38/38/38
f 42/42/42 40/40/40 41/41/41
