g Device_Prop_Box_005_v_016
v 0.34999257 0.016364941 -0.01271434
v 0.325539 0.5164355 -0.01271434
v 0.42563924 0.35397398 -0.012714534
v -0.33622345 0.5164355 -0.01271434
v 0.250403 -0.428101 -0.012714534
v 0.18186237 -0.5716693 -0.012714534
v -0.33622345 -0.5716693 -0.012714534
v -0.33622345 0.5164355 0.012685659
v -0.33622345 -0.5716693 -0.012714534
v -0.33622345 -0.5716693 0.012685466
v -0.33622345 0.5164355 -0.01271434
v 0.3300306 0.5164355 -0.0013803421
v -0.33622345 0.5164355 0.012685659
v 0.33560508 0.5164355 0.012685659
v -0.33622345 0.5164355 -0.01271434
v 0.325539 0.5164355 -0.01271434
v -0.33622345 -0.5716693 0.012685466
v 0.18684244 -0.5716693 0.0037875595
v 0.18952757 -0.5716693 0.012685466
v 0.18186237 -0.5716693 -0.012714534
v -0.33622345 -0.5716693 -0.012714534
v 0.3308512 -0.08554773 0.012685466
v 0.18952757 -0.5716693 0.012685466
v 0.2505843 -0.44377697 0.012685466
v -0.33622345 -0.5716693 0.012685466
v -0.33622345 0.5164355 0.012685659
v 0.33560508 0.5164355 0.012685659
v 0.43103236 0.36155832 0.012685659
v 0.2505843 -0.44377697 0.012685466
v 0.18186237 -0.5716693 -0.012714534
v 0.250403 -0.428101 -0.012714534
v 0.18684244 -0.5716693 0.0037875595
v 0.18952757 -0.5716693 0.012685466
v 0.34999257 0.016364941 -0.01271434
v 0.2505843 -0.44377697 0.012685466
v 0.250403 -0.428101 -0.012714534
v 0.42563924 0.35397398 -0.012714534
v 0.3308512 -0.08554773 0.012685466
v 0.43103236 0.36155832 0.012685659
v 0.42563924 0.35397398 -0.012714534
v 0.33560508 0.5164355 0.012685659
v 0.43103236 0.36155832 0.012685659
v 0.3300306 0.5164355 -0.0013803421
v 0.325539 0.5164355 -0.01271434
vt 0.4373192 0.21573849
vt 0.53754485 0.22063957
vt 0.5049838 0.20057715
vt 0.5375448 0.35327214
vt 0.34823796 0.2356985
vt 0.31946355 0.24943562
vt 0.31946352 0.35327202
vt 0.5375448 0.35327214
vt 0.31946352 0.35327202
vt 0.31946352 0.35327202
vt 0.5375448 0.35327214
vt 0.53754485 0.21973936
vt 0.5375448 0.35327214
vt 0.53754485 0.21862212
vt 0.5375448 0.35327214
vt 0.53754485 0.22063957
vt 0.31946352 0.35327202
vt 0.31946355 0.2484375
vt 0.31946355 0.24789932
vt 0.31946355 0.24943562
vt 0.31946352 0.35327202
vt 0.41689354 0.21957484
vt 0.31946355 0.24789932
vt 0.3450961 0.23566213
vt 0.31946352 0.35327202
vt 0.5375448 0.35327214
vt 0.53754485 0.21862212
vt 0.5065039 0.19949627
vt 0.1141903 0.020728301
vt 0 0
vt 0.1252678 0
vt 0.001689415 0.013467102
vt 0.0026003076 0.020728301
vt 0.37066433 1.5258789E-07
vt 0 0.0202005
vt 0.012013435 0
vt 0.6430898 7.465641E-09
vt 0.2890643 0.0202005
vt 0.6498456 0.020200644
vt 0 0
vt 0.14609733 0.02110794
vt 0.0028566741 0.02110794
vt 0.14839981 0.009418946
vt 0.15025505 1.5258789E-07
vn -2.7313018E-07 -3.7479975E-07 1
vn -0 0 1
vn 2.102815E-06 0 1
vn -0 0 1
vn -0 0 1
vn -0 0 1
vn -0 0 1
vn 1 0 0
vn 1 0 0
vn 1 0 0
vn 1 0 0
vn -0 -1 0
vn -0 -1 0
vn -0 -1 0
vn -0 -1 0
vn -0 -1 0
vn -0 1 0
vn -0 1 0
vn -0 1 0
vn -0 1 0
vn -0 1 0
vn -0 0 -1
vn -0 0 -1
vn -0 0 -1
vn -0 0 -1
vn -0 3.2191366E-07 -1
vn 5.158499E-07 3.1783992E-07 -1
vn 5.158499E-07 3.1783992E-07 -1
vn -0.8707234 0.41569 0.2627592
vn -0.8707211 0.41568816 0.26277006
vn -0.87072194 0.41568947 0.26276547
vn -0.8707234 0.41569003 0.2627592
vn -0.8707234 0.41569003 0.26275924
vn -0.9661251 0.21647562 0.1405013
vn -0.9661262 0.2164757 0.14049414
vn -0.96612555 0.21647562 0.14049865
vn -0.96612585 0.2164757 0.14049584
vn -0.96612585 0.2164757 0.14049582
vn -0.96612585 0.21647573 0.14049585
vn -0.806689 -0.49703988 0.31969407
vn -0.806689 -0.49703982 0.31969407
vn -0.806689 -0.49703988 0.31969407
vn -0.80668753 -0.49703974 0.31969792
vn -0.8066907 -0.49704087 0.31968808
g Device_Prop_Box_005_v_016_0
f 3/3/3 2/2/2 1/1/1
f 2/2/2 4/4/4 1/1/1
f 4/4/4 5/5/5 1/1/1
f 6/6/6 5/5/5 4/4/4
f 7/7/7 6/6/6 4/4/4
f 10/10/10 9/9/9 8/8/8
f 11/11/11 8/8/8 9/9/9
f 14/14/14 13/13/13 12/12/12
f 13/13/13 15/15/15 12/12/12
f 15/15/15 16/16/16 12/12/12
f 19/19/19 18/18/18 17/17/17
f 18/18/18 20/20/20 17/17/17
f 20/20/20 21/21/21 17/17/17
f 24/24/24 23/23/23 22/22/22
f 23/23/23 25/25/25 22/22/22
f 25/25/25 26/26/26 22/22/22
f 26/26/26 27/27/27 22/22/22
f 27/27/27 28/28/28 22/22/22
f 31/31/31 30/30/30 29/29/29
f 30/30/30 32/32/32 29/29/29
f 32/32/32 33/33/33 29/29/29
f 36/36/36 35/35/35 34/34/34
f 35/35/35 37/37/37 34/34/34
f 38/38/38 37/37/37 35/35/35
f 39/39/39 37/37/37 38/38/38
f 42/42/42 41/41/41 40/40/40
f 41/41/41 43/43/43 40/40/40
f 43/43/43 44/44/44 40/40/40
