g Device_Prop_Box_007_v_010
v -0.008596762 0.14611685 -0.023578212
v 0.02856405 0.14610872 -0.40224743
v -0.008591239 0.14612053 -0.2252753
v -0.008782507 -0.3055852 -0.023578212
v -0.008782604 -0.0698874 0.19307445
v -0.008782507 -0.0698873 -0.023578212
v -0.008782604 -0.0698874 0.19307445
v -0.008782507 -0.3055852 -0.023578212
v -0.008782604 -0.3500459 0.16560714
v -0.008782604 -0.3500459 0.16560714
v -0.008782604 -0.35650092 0.19307445
v -0.008782604 -0.0698874 0.19307445
v 0.120957196 -0.35729486 0.26013508
v 0.1209712 -0.28624812 0.24733722
v 0.12097725 -0.36638722 0.24172555
v 0.121352084 0.016313927 0.19234717
v 0.120830804 0.020655328 0.19235937
v 0.12083032 0.016313927 0.19234717
v 0.120957196 -0.35729486 0.26013508
v 0.12095444 -0.05471381 0.20572524
v 0.1209712 -0.28624812 0.24733722
v 0.115127325 -0.35461506 0.2685218
v 0.064623915 0.07260613 0.2685218
v 0.048856027 0.20599082 0.2685218
v 0.12083153 0.016313637 0.19313918
v 0.12095444 -0.05471381 0.20572524
v 0.105839424 0.1452824 0.19275296
v 0.120830804 0.020655328 0.19235937
v 0.121335134 0.016313927 0.19237295
v 0.121352084 0.016313927 0.19234717
v 0.22696972 0.22221221 -0.0053512235
v 0.046938412 0.22221221 0.2685218
v 0.24795929 0.14601222 -0.023578212
v 0.1208559 0.14526138 0.16991289
v 0.1137105 0.14522485 0.18078955
v 0.2471976 0.15245514 -0.023578212
v 0.23895131 0.22221221 -0.023578212
v 0.1208559 0.14526138 0.16991289
v 0.24795929 0.14601222 -0.023578212
v 0.23692459 0.1459438 -0.006779431
v -0.008591239 0.14612053 -0.2252753
v -0.008782409 -0.06982403 -0.9587787
v -0.008681446 0.028473262 -0.6249566
v 0.12083032 0.016313927 0.19234717
v 0.121335134 0.016313927 0.19237295
v 0.121352084 0.016313927 0.19234717
v 0.12083153 0.016313637 0.19313918
v 0.120948136 0.22221221 -0.023578212
v 0.076501094 0.22221221 -0.37169883
v 0.12094809 0.22221221 -0.5833537
v -0.04647284 0.22221221 0.21389838
v 0.046938412 0.22221221 0.2685218
v -0.057943653 0.22221221 0.2685218
v 0.22696972 0.22221221 -0.0053512235
v 0.23895131 0.22221221 -0.023578212
v 0.12094804 0.14601222 -0.023578212
v 0.12094804 0.18550844 -0.7081802
v 0.12099281 0.14605959 -0.8425572
v 0.12094809 0.22221221 -0.5833537
v 0.120948136 0.22221221 -0.023578212
v 0.12094804 0.14601222 -0.023578212
v 0.23895131 0.22221221 -0.023578212
v 0.120948136 0.22221221 -0.023578212
v 0.2471976 0.15245514 -0.023578212
v 0.24795929 0.14601222 -0.023578212
v -0.008782507 -0.0698873 -0.023578212
v -0.07793265 -0.2743348 -0.023578212
v -0.008782507 -0.3055852 -0.023578212
v -0.08498251 -0.0698873 -0.023578212
v -0.08498251 -0.27114886 -0.023578212
v -0.08498251 -0.0698873 -0.023578212
v -0.039452728 -0.069833815 -0.8127616
v -0.08498241 -0.0698874 -0.5961324
v -0.008782507 -0.0698873 -0.023578212
v -0.008782409 -0.06982403 -0.9587787
v -0.008782507 -0.0698873 -0.023578212
v -0.008681446 0.028473262 -0.6249566
v -0.008782409 -0.06982403 -0.9587787
v -0.008596762 0.14611685 -0.023578212
v -0.008591239 0.14612053 -0.2252753
v -0.008596762 0.14611685 0.19307445
v -0.0087019885 0.023765797 0.19307445
v -0.008782604 -0.0698874 0.19307445
v 0.12094804 0.14601222 -0.023578212
v 0.23692459 0.1459438 -0.006779431
v 0.24795929 0.14601222 -0.023578212
v 0.1208559 0.14526138 0.16991289
v 0.12095584 -0.06992984 0.19226636
v -0.0087019885 0.023765797 0.19307445
v -0.008782604 -0.0698874 0.19307445
v 0.12083032 0.016313927 0.19234717
v -0.008596762 0.14611685 0.19307445
v 0.105839424 0.1452824 0.19275296
v 0.120830804 0.020655328 0.19235937
v 0.120979875 -0.3908214 0.19227897
v 0.08247791 -0.3976098 0.19250607
v 0.08644501 -0.39939713 0.19248283
v 0.12095584 -0.06992984 0.19226636
v -0.008782604 -0.35650092 0.19307445
v -0.008782604 -0.0698874 0.19307445
v -0.08498241 -0.33979574 0.2685218
v -0.08498231 0.18300694 0.26394454
v -0.08498231 0.18435289 0.2685218
v -0.08498231 -0.32478714 0.20465901
v -0.08498231 0.1685841 0.21489367
v -0.08498251 -0.0698873 -0.023578212
v -0.08498241 -0.0698874 -0.5961324
v -0.08498251 -0.27114886 -0.023578212
v 0.010977043 -0.38078126 0.2685218
v 0.0075916876 -0.38163173 0.2685218
v -0.08498241 -0.33979574 0.2685218
v -0.08498231 0.18435289 0.2685218
v -0.08005529 0.1912517 0.2685218
v -0.069208756 0.20643875 0.2685218
v 0.064623915 0.07260613 0.2685218
v 0.115127325 -0.35461506 0.2685218
v 0.048856027 0.20599082 0.2685218
v -0.060097687 0.21919611 0.2685218
v 0.046938412 0.22221221 0.2685218
v -0.057943653 0.22221221 0.2685218
v 0.12095444 -0.05471381 0.20572524
v 0.12097725 -0.36638722 0.24172555
v 0.1209712 -0.28624812 0.24733722
v 0.12095584 -0.06992984 0.19226636
v 0.120979875 -0.3908214 0.19227897
v 0.0075916876 -0.38163173 0.2685218
v -0.08498231 -0.32478714 0.20465901
v -0.08498241 -0.33979574 0.2685218
v -0.07793265 -0.2743348 -0.023578212
v -0.08498251 -0.27114886 -0.023578212
v -0.008782604 -0.35650092 0.19307445
v 0.08247791 -0.3976098 0.19250607
v 0.08644501 -0.39939713 0.19248283
v -0.008782604 -0.3500459 0.16560714
v -0.008782507 -0.3055852 -0.023578212
v 0.010977043 -0.38078126 0.2685218
v 0.08644501 -0.39939713 0.19248283
v 0.0075916876 -0.38163173 0.2685218
v 0.12097725 -0.36638722 0.24172555
v 0.120979875 -0.3908214 0.19227897
v 0.115127325 -0.35461506 0.2685218
v 0.120957196 -0.35729486 0.26013508
v 0.12083032 0.016313927 0.19234717
v 0.12095444 -0.05471381 0.20572524
v 0.12083153 0.016313637 0.19313918
v 0.12095584 -0.06992984 0.19226636
v 0.1137105 0.14522485 0.18078955
v -0.008596762 0.14611685 0.19307445
v 0.105839424 0.1452824 0.19275296
v -0.008596762 0.14611685 -0.023578212
v 0.1208559 0.14526138 0.16991289
v 0.12094804 0.14601222 -0.023578212
v 0.12099281 0.14605959 -0.8425572
v 0.02856405 0.14610872 -0.40224743
v -0.060097687 0.21919611 0.2685218
v -0.04647284 0.22221221 0.21389838
v -0.057943653 0.22221221 0.2685218
v -0.069208756 0.20643875 0.2685218
v 0.12094804 0.18550844 -0.7081802
v 0.076501094 0.22221221 -0.37169883
v 0.12094809 0.22221221 -0.5833537
v -0.08498231 0.18300694 0.26394454
v -0.08005529 0.1912517 0.2685218
v -0.08498231 0.18435289 0.2685218
v -0.008591239 0.14612053 -0.2252753
v 0.02856405 0.14610872 -0.40224743
v 0.12099281 0.14605959 -0.8425572
v -0.039452728 -0.069833815 -0.8127616
v -0.008782409 -0.06982403 -0.9587787
v -0.08498231 0.1685841 0.21489367
v -0.08498241 -0.0698874 -0.5961324
vt 1.7233366 0.68336135
vt 1.7233366 0.60495526
vt 1.7233367 0.6415986
vt 1.0538028 0.81651044
vt 1.005 0.81651044
vt 1.005 0.81651044
vt 1.005 0.81651044
vt 1.0538028 0.81651044
vt 1.0630087 0.8165104
vt 1.0630087 0.8165104
vt 1.0643454 0.81651044
vt 1.005 0.81651044
vt 0.80343676 0.5578357
vt 0.80608606 0.5725575
vt 0.80724776 0.55596906
vt 0.6868719 0.40998858
vt 0.6868719 0.40988055
vt 0.6868718 0.40988055
vt 0 0.26678398
vt 0.23660553 0.2156208
vt 0.0555542 0.25474983
vt 0.0026343537 0.27467033
vt 0.3413713 0.27467033
vt 0.44712996 0.27467033
vt 0.2921573 0.20378578
vt 0.23660553 0.2156208
vt 0.3943911 0.20342262
vt 0.29555237 0.2030526
vt 0.29211098 0.20306526
vt 0.29210937 0.203041
vt 0.44334984 0.017139511
vt 0.4599916 0.27467033
vt 0.3818245 0
vt 0.3929866 0.18194541
vt 0.39361855 0.19217308
vt 0.38693297 0
vt 0.44224226 7.6293944E-08
vt 0.3929866 0.18194541
vt 0.3818245 0
vt 0.38279107 0.015796432
vt 0.10803741 0.58593446
vt 0.24649456 0
vt 0.1834629 0.2666625
vt 0.6868718 0.40988055
vt 0.6868665 0.40998507
vt 0.6868719 0.40998858
vt 0.6867078 0.40988055
vt 1.9445338 0.33896202
vt 1.9537369 0.26688126
vt 1.9445338 0.22305664
vt 1.9791994 0.38813332
vt 1.959858 0.3994435
vt 1.9815745 0.3994435
vt 1.9225813 0.34273607
vt 1.9201005 0.33896202
vt 1.7233366 0.68336135
vt 1.7315145 0.54160976
vt 1.7233366 0.5137861
vt 1.7391143 0.56745595
vt 1.7391143 0.68336135
vt 1.634629 0.7190454
vt 1.6188512 0.694612
vt 1.6188512 0.7190454
vt 1.6332948 0.6929046
vt 1.634629 0.6927468
vt 1.005 0.81651044
vt 1.0473323 0.8308285
vt 1.0538028 0.81651044
vt 1.005 0.83228827
vt 1.0466726 0.83228827
vt 1.6972152 0.68336135
vt 1.7066425 0.51995546
vt 1.6972151 0.56481004
vt 1.712993 0.68336135
vt 1.712993 0.4897217
vt 1.712993 0.68336135
vt 1.712993 0.5588418
vt 1.712993 0.4897217
vt 1.712993 0.68336135
vt 1.712993 0.6415986
vt 1.712993 0.68336135
vt 1.712993 0.68336135
vt 1.712993 0.68336135
vt 1.634629 0.7190454
vt 1.634629 0.69503164
vt 1.634629 0.6927468
vt 1.634629 0.71904534
vt 1.712993 0.68336135
vt 1.712993 0.68336135
vt 1.712993 0.68336135
vt 1.712993 0.68336135
vt 1.712993 0.68336135
vt 1.712993 0.68336135
vt 1.712993 0.68336135
vt 1.0659393 0.81651044
vt 1.072851 0.81651044
vt 1.0726111 0.81651044
vt 1.005 0.81651044
vt 1.0643454 0.81651044
vt 1.005 0.81651044
vt 1.1213676 0.80432385
vt 1.0131178 0.8033761
vt 1.0128391 0.80432385
vt 1.11826 0.7911006
vt 1.0161041 0.7932198
vt 1.0654813 0.7438425
vt 1.0654813 0.6252912
vt 1.1071539 0.7438425
vt 0.45866296 0.37957436
vt 0.45848688 0.3802753
vt 0.46714932 0.3994434
vt 0.57567793 0.3994434
vt 0.57710636 0.39842322
vt 0.580251 0.39617738
vt 0.5525399 0.36846638
vt 0.4640808 0.35800934
vt 0.5801582 0.37173125
vt 0.5828925 0.39429086
vt 0.5835169 0.37212828
vt 0.58351696 0.39384484
vt 0.8146936 0.632458
vt 0.80724776 0.55596906
vt 0.80608606 0.5725575
vt 0.81747836 0.6318745
vt 0.8174784 0.5607958
vt 0.009228194 0.079635225
vt 0.06842026 2.2888183E-07
vt 0.016764527 1.5258789E-07
vt 0.2524568 0.0060645295
vt 0.25303078 0
vt 0.071587145 0.06554947
vt 0.06461746 0.14405471
vt 0.064313345 0.14746737
vt 0.093804166 0.06554962
vt 0.2468274 0.06554962
vt 0.009638062 0.0027324676
vt 0.069808654 0.06364468
vt 0.009934693 0
vt 0.02353241 0.09151657
vt 0.06696106 0.091518745
vt 0.0005101397 0.08679492
vt 0.007365261 0.09150038
vt 0.81747836 0.6351801
vt 0.8146936 0.632458
vt 0.8173143 0.6351801
vt 0.81747836 0.6318745
vt 1.7233366 0.68336135
vt 1.7233366 0.68336135
vt 1.7233367 0.68336135
vt 1.7233366 0.68336135
vt 1.7233366 0.68336135
vt 1.7233366 0.68336135
vt 1.7233366 0.5137861
vt 1.7233366 0.60495526
vt 0.084783934 0.98038757
vt 0.07661625 0.9367534
vt 0.08186558 0.98038757
vt 0.09712784 0.98038745
vt 0.023518449 0.20018211
vt 0.020340119 0.46896896
vt 0 0.29989555
vt 0.11936051 0.97673124
vt 0.11182289 0.98038757
vt 0.11849808 0.98038757
vt 0.10803741 0.58593446
vt 0.091041796 0.4445662
vt 0.048775367 0.09283966
vt 0.26053637 0.11664078
vt 0.24649456 0
vt 0.12860215 0.9375485
vt 0.28140628 0.2896878
vn -0.0004051521 -1 -1.8265924E-05
vn -0.00040515212 -1 -1.8265924E-05
vn -0.00040515212 -1 -1.8265924E-05
vn 1 0 4.472288E-07
vn 1 0 4.472288E-07
vn 1 0 4.4722887E-07
vn 1 0 5.006259E-07
vn 1 0 5.006259E-07
vn 1 0 5.006259E-07
vn 1 0 0
vn 1 0 0
vn 1 0 0
vn 0.9999994 -7.497002E-07 0.0010898549
vn 0.9999994 -7.497002E-07 0.001089855
vn 0.9999994 -7.497002E-07 0.0010898549
vn -0 0.002812112 -0.99999607
vn -0 0.0028121122 -0.99999607
vn -0 0.0028121122 -0.99999607
vn 0.8317604 0.09825542 0.5463703
vn 0.8317604 0.09825542 0.5463703
vn 0.8317604 0.09825542 0.5463703
vn 0.8315744 0.09830349 0.5466447
vn 0.83157223 0.09830315 0.5466481
vn 0.83157724 0.09830508 0.5466399
vn 0.8316454 0.098285906 0.5465398
vn 0.8316454 0.09828589 0.5465397
vn 0.8316157 0.09830885 0.546581
vn 0.831372 0.0982874 0.5469553
vn 0.831372 0.09828739 0.5469552
vn 0.831372 0.09828738 0.5469552
vn 0.8315771 0.09830449 0.5466406
vn 0.83157724 0.098305084 0.54664
vn 0.8315933 0.098112375 0.54665035
vn 0.83144706 0.099880435 0.5465526
vn 0.83144706 0.099880435 0.5465526
vn 0.8315771 0.098304495 0.5466406
vn 0.8315771 0.09830447 0.5466406
vn 0.83231235 0.08916899 0.5470878
vn 0.83231235 0.08916899 0.5470878
vn 0.83231235 0.089168996 0.5470879
vn -0.8021105 0.5729222 -0.16846018
vn -0.8021105 0.5729222 -0.16846018
vn -0.8021105 0.5729223 -0.16846018
vn -0 -1 0
vn -0 -1 0
vn -0 -1 0
vn 1.8739778E-05 -1 -0.00036704604
vn -0 1 0
vn -0 1 0
vn -0 1 0
vn -0 1 0
vn -0 1 0
vn -0 1 0
vn -0 1 0
vn -0 1 0
vn 0.9999995 0.00094837707 5.471401E-05
vn 0.9999995 0.00094837707 5.4714004E-05
vn 0.9999995 0.00094837707 5.4714004E-05
vn 1 -1.2715658E-06 0
vn 1 -1.2715658E-06 0
vn -0 0 -1
vn -0 0 -1
vn -0 0 -1
vn -0 0 -1
vn -0 0 -1
vn -0 0 -1
vn -0 0 -1
vn -0 0 -1
vn -0 0 -1
vn -0 0 -1
vn 0.0011776639 -0.9999993 0
vn 0.0011776638 -0.9999993 0
vn 0.0011776639 -0.9999993 0
vn -0 -1 -6.777272E-05
vn -3.019649E-06 -1 -6.765537E-05
vn 0.9999995 -0.0010272325 0
vn 0.9999995 -0.0010272325 0
vn 0.9999995 -0.0010272325 0
vn 0.99999964 -0.0008599112 0
vn 0.99999964 -0.00085973553 2.736654E-05
vn 0.99999964 -0.0008599112 0
vn 0.99999964 -0.00086003414 0
vn 0.99999964 -0.00086078444 4.468289E-07
vn -0 -0.9999918 -0.0040720883
vn -0 -0.9999918 -0.0040720883
vn -0 -0.9999918 -0.0040720887
vn -2.7765493E-05 -0.9999925 -0.0038804016
vn -0.0055611436 0.00092887494 -0.99998415
vn -0.0055611436 0.00092887494 -0.99998415
vn -0.0062284884 5.3613862E-06 -0.9999807
vn -0.0055611446 0.00092887494 -0.99998415
vn -0.0027887549 0.00282224 -0.99999213
vn -0.0028732228 0.0028124207 -0.9999919
vn -0.002873223 0.0028124212 -0.9999919
vn -0.005891765 -3.9694056E-05 -0.9999827
vn -0.0058917655 -3.9694056E-05 -0.9999827
vn -0.0058883405 -5.911685E-05 -0.9999827
vn -0.0058917655 -3.969406E-05 -0.9999827
vn -0.0062280353 0 -0.9999807
vn -0.0062284903 0 -0.9999807
vn -1 0 -1.4766937E-06
vn -1 0 -1.4766936E-06
vn -1 0 0
vn -1 0 -1.4766937E-06
vn -1 0 8.298327E-07
vn -1 0 8.49058E-07
vn -1 9.818505E-07 0
vn -1 0 8.490579E-07
vn -0 0 1
vn -0 0 1
vn -0 0 1
vn -0 0 1
vn -0 0 1
vn -0 0 1
vn -0 0 1
vn -0 0 1
vn -0 0 1
vn -0 0 1
vn -0 0 1
vn -0 0 1
vn 1 7.4678035E-05 1.2688248E-05
vn 1 7.4678035E-05 1.2688248E-05
vn 1 7.4678035E-05 1.268825E-05
vn 1 7.542103E-05 1.912081E-05
vn 1 7.48843E-05 1.5903703E-05
vn -0.40268758 -0.89106095 -0.20941153
vn -0.40268764 -0.89106095 -0.20941153
vn -0.4026876 -0.89106095 -0.20941153
vn -0.40268585 -0.89106226 -0.20940924
vn -0.4026858 -0.89106214 -0.20940922
vn -0.40269685 -0.8910581 -0.20940559
vn -0.40268832 -0.8910611 -0.20940924
vn -0.40268737 -0.8910618 -0.20940818
vn -0.40268916 -0.89106065 -0.20940934
vn -0.40268922 -0.89106065 -0.20940937
vn 0.21972121 -0.8746043 0.43219203
vn 0.21972121 -0.8746043 0.43219203
vn 0.21972121 -0.8746043 0.43219203
vn 0.2197327 -0.8745989 0.432197
vn 0.2197327 -0.8745989 0.432197
vn 0.21972884 -0.87459886 0.43219906
vn 0.21972884 -0.87459886 0.43219912
vn 0.99999785 0.0014595567 -0.0015287
vn 0.99999785 0.0014595567 -0.0015287
vn 0.99999785 0.0014595567 -0.0015286999
vn 0.99999774 0.0014569131 -0.0015427362
vn -0.00080150174 -0.99999213 -0.0038849728
vn -0.007291563 -0.9999734 1.3426197E-05
vn -0.007291564 -0.9999734 1.3426197E-05
vn -0.00080150185 -0.99999213 -0.0038849735
vn -0.00080150185 -0.99999213 -0.0038849732
vn -0.000807782 -0.99999213 -0.003880772
vn -0.000807788 -0.99999964 -5.789766E-05
vn -0.0008058088 -0.99999976 -5.7584493E-05
vn -0.80214554 0.57287645 -0.16844901
vn -0.80214554 0.57287645 -0.16844901
vn -0.80214554 0.57287645 -0.168449
vn -0.8021369 0.5728826 -0.16846928
vn -0.80214363 0.5728794 -0.16844812
vn -0.80214363 0.5728794 -0.16844812
vn -0.80214363 0.5728794 -0.16844812
vn -0.8021534 0.5728667 -0.16844502
vn -0.8021426 0.5728785 -0.16845587
vn -0.8021426 0.57287854 -0.16845588
vn -0.80214256 0.572881 -0.16844805
vn -0.80214155 0.57288253 -0.16844754
vn -0.80214155 0.57288253 -0.16844754
vn -0.80214167 0.5728821 -0.16844836
vn -0.80214167 0.5728821 -0.16844836
vn -0.8021437 0.5728794 -0.1684475
vn -0.8021437 0.5728794 -0.1684475
g Device_Prop_Box_007_v_010_0
f 3/3/3 2/2/2 1/1/1
f 6/6/6 5/5/5 4/4/4
f 9/9/9 8/8/8 7/7/7
f 12/12/12 11/11/11 10/10/10
f 15/15/15 14/14/14 13/13/13
f 18/18/18 17/17/17 16/16/16
f 21/21/21 20/20/20 19/19/19
f 19/19/19 23/23/23 22/22/22
f 24/24/24 23/23/23 19/19/19
f 25/25/25 24/24/24 19/19/19
f 26/26/26 25/25/25 19/19/19
f 27/27/27 24/24/24 25/25/25
f 28/28/28 27/27/27 25/25/25
f 29/29/29 28/28/28 25/25/25
f 30/30/30 28/28/28 29/29/29
f 31/31/31 24/24/24 27/27/27
f 32/32/32 24/24/24 31/31/31
f 33/33/33 31/31/31 27/27/27
f 34/34/34 33/33/33 27/27/27
f 35/35/35 34/34/34 27/27/27
f 36/36/36 31/31/31 33/33/33
f 37/37/37 31/31/31 36/36/36
f 40/40/40 39/39/39 38/38/38
f 43/43/43 42/42/42 41/41/41
f 46/46/46 45/45/45 44/44/44
f 44/44/44 45/45/45 47/47/47
f 50/50/50 49/49/49 48/48/48
f 48/48/48 49/49/49 51/51/51
f 51/51/51 52/52/52 48/48/48
f 53/53/53 52/52/52 51/51/51
f 52/52/52 54/54/54 48/48/48
f 48/48/48 54/54/54 55/55/55
f 58/58/58 57/57/57 56/56/56
f 57/57/57 59/59/59 56/56/56
f 60/60/60 56/56/56 59/59/59
f 63/63/63 62/62/62 61/61/61
f 64/64/64 61/61/61 62/62/62
f 61/61/61 64/64/64 65/65/65
f 68/68/68 67/67/67 66/66/66
f 69/69/69 66/66/66 67/67/67
f 69/69/69 67/67/67 70/70/70
f 73/73/73 72/72/72 71/71/71
f 71/71/71 72/72/72 74/74/74
f 75/75/75 74/74/74 72/72/72
f 78/78/78 77/77/77 76/76/76
f 76/76/76 77/77/77 79/79/79
f 80/80/80 79/79/79 77/77/77
f 79/79/79 81/81/81 76/76/76
f 81/81/81 82/82/82 76/76/76
f 82/82/82 83/83/83 76/76/76
f 86/86/86 85/85/85 84/84/84
f 84/84/84 85/85/85 87/87/87
f 90/90/90 89/89/89 88/88/88
f 91/91/91 88/88/88 89/89/89
f 89/89/89 92/92/92 91/91/91
f 92/92/92 93/93/93 91/91/91
f 94/94/94 91/91/91 93/93/93
f 97/97/97 96/96/96 95/95/95
f 98/98/98 95/95/95 96/96/96
f 96/96/96 99/99/99 98/98/98
f 100/100/100 98/98/98 99/99/99
f 103/103/103 102/102/102 101/101/101
f 104/104/104 101/101/101 102/102/102
f 104/104/104 102/102/102 105/105/105
f 106/106/106 104/104/104 105/105/105
f 106/106/106 105/105/105 107/107/107
f 108/108/108 104/104/104 106/106/106
f 111/111/111 110/110/110 109/109/109
f 112/112/112 111/111/111 109/109/109
f 113/113/113 112/112/112 109/109/109
f 113/113/113 109/109/109 114/114/114
f 114/114/114 109/109/109 115/115/115
f 109/109/109 116/116/116 115/115/115
f 115/115/115 117/117/117 114/114/114
f 118/118/118 114/114/114 117/117/117
f 117/117/117 119/119/119 118/118/118
f 120/120/120 118/118/118 119/119/119
f 123/123/123 122/122/122 121/121/121
f 121/121/121 122/122/122 124/124/124
f 124/124/124 122/122/122 125/125/125
f 128/128/128 127/127/127 126/126/126
f 127/127/127 129/129/129 126/126/126
f 130/130/130 129/129/129 127/127/127
f 129/129/129 131/131/131 126/126/126
f 131/131/131 132/132/132 126/126/126
f 132/132/132 133/133/133 126/126/126
f 134/134/134 131/131/131 129/129/129
f 135/135/135 134/134/134 129/129/129
f 138/138/138 137/137/137 136/136/136
f 137/137/137 139/139/139 136/136/136
f 140/140/140 139/139/139 137/137/137
f 139/139/139 141/141/141 136/136/136
f 142/142/142 141/141/141 139/139/139
f 145/145/145 144/144/144 143/143/143
f 146/146/146 143/143/143 144/144/144
f 149/149/149 148/148/148 147/147/147
f 150/150/150 147/147/147 148/148/148
f 147/147/147 150/150/150 151/151/151
f 152/152/152 151/151/151 150/150/150
f 152/152/152 150/150/150 153/153/153
f 154/154/154 153/153/153 150/150/150
f 157/157/157 156/156/156 155/155/155
f 156/156/156 158/158/158 155/155/155
f 159/159/159 158/158/158 156/156/156
f 160/160/160 159/159/159 156/156/156
f 161/161/161 159/159/159 160/160/160
f 162/162/162 158/158/158 159/159/159
f 163/163/163 158/158/158 162/162/162
f 164/164/164 163/163/163 162/162/162
f 165/165/165 162/162/162 159/159/159
f 166/166/166 165/165/165 159/159/159
f 167/167/167 166/166/166 159/159/159
f 168/168/168 162/162/162 165/165/165
f 169/169/169 168/168/168 165/165/165
f 170/170/170 162/162/162 168/168/168
f 171/171/171 170/170/170 168/168/168
