g Device_Prop_Box_005_v_054
v -0.01282538 0.26608396 0.38971516
v 0.004322895 0.26608405 -0.50199485
v -0.01282538 0.26608405 -0.48180038
v 0.01257462 0.26608396 -0.5117124
v 0.01257462 0.26608396 0.38971516
v -0.01282538 -0.3165258 0.041488647
v -0.01282538 0.26608405 -0.48180038
v -0.01282538 -0.3872748 -0.14677118
v -0.01282538 0.26608396 0.38971516
v -0.01282538 -0.18566042 0.38971516
v 0.01257462 0.26608396 0.38971516
v 0.0072981007 -0.19297819 0.38971496
v 0.01257462 -0.19489692 0.38971496
v -0.01282538 -0.18566042 0.38971516
v -0.01282538 0.26608396 0.38971516
v 0.01257462 -0.19489692 0.38971496
v 0.01257462 0.26608396 -0.5117124
v 0.01257462 0.26608396 0.38971516
v 0.012574523 -0.40444383 -0.16787928
v 0.012574523 -0.40444383 -0.16787928
v 0.004322895 0.26608405 -0.50199485
v 0.01257462 0.26608396 -0.5117124
v -0.01282538 0.26608405 -0.48180038
v -0.01282538 -0.3872748 -0.14677118
v -0.01282538 -0.3165258 0.041488647
v 0.0072981007 -0.19297819 0.38971496
v -0.01282538 -0.18566042 0.38971516
v 0.012574523 -0.40444383 -0.16787928
v -0.01282538 -0.3872748 -0.14677118
v 0.01257462 -0.19489692 0.38971496
vt 0.5137456 0.74004924
vt 0.51374555 0.56093305
vt 0.51374555 0.56498945
vt 0.51374555 0.55898106
vt 0.5137456 0.74004924
vt 0.3967178 0.67010164
vt 0.51374555 0.56498945
vt 0.38250655 0.6322862
vt 0.5137456 0.74004924
vt 0.4230045 0.74004924
vt 0.5137456 0.74004924
vt 0.42153457 0.74004924
vt 0.4211492 0.74004924
vt 0.4230045 0.74004924
vt 0.5137456 0.74004924
vt 0.4211492 0.74004924
vt 0.51374555 0.55898106
vt 0.5137456 0.74004924
vt 0.3790578 0.6280463
vt 0.4920594 0.34311238
vt 0.005390587 0.009697113
vt 0.007984543 0
vt 0 0.029849205
vt 0.47168005 0.36417615
vt 0.292917 0
vt 0.0020271302 0.016738052
vt 0 0
vt 0.47158906 0.02112686
vt 0.45127517 0
vt 0.0025585936 0.021126937
vn -0 -1 0
vn -0 -1 0
vn -0 -1 0
vn -1.21452E-05 -1 -3.4222174E-07
vn -0 -1 0
vn 1 0 0
vn 1 0 0
vn 1 0 0
vn 1 0 0
vn 1 0 0
vn -0 0 -1
vn -0 4.2037888E-07 -1
vn -0 4.2037888E-07 -1
vn -0 0 -1
vn -0 0 -1
vn -1 0 0
vn -1 0 0
vn -1 0 0
vn -1 0 0
vn 0.72344923 0.31501088 0.6143202
vn 0.72344923 0.31501094 0.6143203
vn 0.72344923 0.31501088 0.6143203
vn 0.72344804 0.31501147 0.61432135
vn 0.7234499 0.31501067 0.6143196
vn 0.3222408 0.88614845 -0.33301923
vn 0.32223567 0.8861501 -0.33301994
vn 0.32223895 0.886149 -0.33301944
vn 0.3222408 0.88614845 -0.33301923
vn 0.3222408 0.88614845 -0.33301923
vn 0.32223567 0.8861501 -0.33301994
g Device_Prop_Box_005_v_054_0
f 3/3/3 2/2/2 1/1/1
f 2/2/2 4/4/4 1/1/1
f 4/4/4 5/5/5 1/1/1
f 8/8/8 7/7/7 6/6/6
f 7/7/7 9/9/9 6/6/6
f 9/9/9 10/10/10 6/6/6
f 13/13/13 12/12/12 11/11/11
f 12/12/12 14/14/14 11/11/11
f 14/14/14 15/15/15 11/11/11
f 18/18/18 17/17/17 16/16/16
f 19/19/19 16/16/16 17/17/17
f 22/22/22 21/21/21 20/20/20
f 21/21/21 23/23/23 20/20/20
f 23/23/23 24/24/24 20/20/20
f 27/27/27 26/26/26 25/25/25
f 26/26/26 28/28/28 25/25/25
f 28/28/28 29/29/29 25/25/25
f 30/30/30 28/28/28 26/26/26
