g Device_Prop_Box_009_v_047
v 0.012659305 0.12270685 -0.18993637
v -0.012740695 0.122706756 0.13805921
v 0.012659305 0.122706756 0.13805921
v -0.012740695 0.122706756 0.13805921
v -0.012740695 -0.13928035 -0.018530846
v -0.012740792 -0.14125562 0.13805902
v -0.012740695 0.122706756 -0.18377154
v -0.012740695 -0.13849793 -0.080560975
v -0.012740695 0.122706756 0.13805921
v -0.006522664 0.122706756 -0.18528084
v -0.012740695 0.122706756 -0.18377154
v 0.012659305 0.12270685 -0.18993637
v 0.012659305 0.122706756 0.13805921
v 0.009637493 -0.14019008 0.13805902
v 0.012659305 -0.1400462 0.13805902
v -0.012740695 0.122706756 0.13805921
v -0.012740792 -0.14125562 0.13805902
v 0.012659305 -0.1400462 0.13805902
v 0.012659305 0.12270685 -0.18993637
v 0.012659305 0.122706756 0.13805921
v 0.012659305 -0.13720441 -0.08723692
v 0.012659305 -0.13720441 -0.08723692
v -0.006522664 0.122706756 -0.18528084
v 0.012659305 0.12270685 -0.18993637
v -0.012740695 0.122706756 -0.18377154
v -0.012740695 -0.13849793 -0.080560975
v 0.009637493 -0.14019008 0.13805902
v 0.012659305 -0.13720441 -0.08723692
v 0.012659305 -0.1400462 0.13805902
v -0.012740695 -0.13928035 -0.018530846
v -0.012740792 -0.14125562 0.13805902
v -0.012740695 -0.13849793 -0.080560975
vt 0.51374555 0.67416537
vt 0.5137456 0.74004924
vt 0.5137456 0.74004924
vt 0.5137456 0.74004924
vt 0.4611207 0.7085953
vt 0.46072394 0.74004924
vt 0.51374555 0.67540365
vt 0.46127784 0.6961354
vt 0.5137456 0.74004924
vt 0.51374555 0.6751005
vt 0.51374555 0.67540365
vt 0.51374555 0.67416537
vt 0.5137456 0.74004924
vt 0.46093798 0.74004924
vt 0.46096689 0.74004924
vt 0.5137456 0.74004924
vt 0.46072394 0.74004924
vt 0.46096689 0.74004924
vt 0.51374555 0.67416537
vt 0.5137456 0.74004924
vt 0.46153766 0.6947944
vt 0.019073324 0.48091897
vt 0.015542316 0.7001424
vt 0 0.7001425
vt 0.02058054 0.7001424
vt 0.03974879 0.4798279
vt 1.0604858E-05 0.017640686
vt 0.17742462 0.020022735
vt 1.2054444E-05 0.020022811
vt 0.12330894 1.5258789E-07
vt 0 0
vt 0.17215545 1.5258789E-07
vn -0 -1 -2.9541044E-07
vn -0 -1 -2.9541042E-07
vn -0 -1 -2.9541042E-07
vn 1 -3.670729E-07 6.1414096E-07
vn 1 -3.670729E-07 6.1414096E-07
vn 1 -3.6707291E-07 6.14141E-07
vn 1 0 0
vn 1 0 0
vn -0 -1 0
vn -0 -1 0
vn -0 -1 0
vn 5.0749563E-06 -1 0
vn -0 7.3752403E-07 -1
vn -0 7.3752403E-07 -1
vn -0 7.3752403E-07 -1
vn -0 7.3712044E-07 -1
vn -0 7.341449E-07 -1
vn -1 0 0
vn -1 0 0
vn -1 0 0
vn -1 0 0
vn 0.22018015 0.35846668 0.90720576
vn 0.22018015 0.35846668 0.90720576
vn 0.22018015 0.35846668 0.90720576
vn 0.22020528 0.35846636 0.9071999
vn 0.22018757 0.3584662 0.9072042
vn -0.047558334 0.998789 0.012598286
vn -0.04755833 0.998789 0.012598285
vn -0.04755833 0.998789 0.012598285
vn -0.04755334 0.99878925 0.012598172
vn -0.04755706 0.99878913 0.012598966
vn -0.04755334 0.99878925 0.012598171
g Device_Prop_Box_009_v_047_0
f 3/3/3 2/2/2 1/1/1
f 6/6/6 5/5/5 4/4/4
f 4/4/4 5/5/5 7/7/7
f 8/8/8 7/7/7 5/5/5
f 11/11/11 10/10/10 9/9/9
f 10/10/10 12/12/12 9/9/9
f 15/15/15 14/14/14 13/13/13
f 13/13/13 14/14/14 16/16/16
f 17/17/17 16/16/16 14/14/14
f 20/20/20 19/19/19 18/18/18
f 21/21/21 18/18/18 19/19/19
f 24/24/24 23/23/23 22/22/22
f 23/23/23 25/25/25 22/22/22
f 25/25/25 26/26/26 22/22/22
f 29/29/29 28/28/28 27/27/27
f 28/28/28 30/30/30 27/27/27
f 27/27/27 30/30/30 31/31/31
f 32/32/32 30/30/30 28/28/28
