g Device_Prop_Box_009_v_038
v -0.2489819 -0.5209877 -0.1805132
v -0.24898256 -0.5039478 -0.28475899
v -0.2489819 -0.52098763 -0.28465685
v -0.11926065 -0.52099 -0.1805132
v -0.13664989 -0.52098966 -0.3575676
v -0.11926065 -0.52099 -0.36885443
v -0.11937837 -0.52098924 0.03566042
v 0.7590507 -0.52098966 -0.09150682
v 0.8453034 -0.5209898 0.03549357
v -0.24899119 -0.30509052 -0.1805132
v -0.2489913 0.978942 -0.054624572
v -0.2489913 0.9860959 -0.1805132
v -0.11917771 0.9024557 0.035370514
v -0.11918119 0.94834256 0.038583692
v -0.11918114 0.9485253 0.03536877
v -0.11917771 0.9024557 0.035370514
v 0.68614316 0.79155046 0.035379235
v 0.11690943 0.9025061 0.035373036
v 0.94765407 0.6968383 0.035378847
v -0.119216315 0.6968375 0.03535908
v 0.94765407 0.6968383 0.035378847
v 0.68614316 0.79155046 0.035379235
v -0.11917771 0.9024557 0.035370514
v 0.94765407 0.6968383 0.035378847
v 0.92498004 0.74499613 0.035380978
v 0.68614316 0.79155046 0.035379235
v 0.6986014 -0.52099 -0.1805132
v -0.11937837 -0.52098924 0.03566042
v -0.11926065 -0.52099 -0.1805132
v -0.11937837 -0.52098924 0.03566042
v 0.6986014 -0.52099 -0.1805132
v 0.7590507 -0.52098966 -0.09150682
v -0.11926065 -0.59719 -0.1805132
v 0.73471195 -0.59719 -0.07062922
v 0.66008365 -0.59719 -0.1805132
v -0.3251912 -0.59719 0.111586794
v 0.85846436 -0.59719 0.111586794
v -0.3251912 -0.59719 -0.23473276
v -0.14141308 -0.59719 -0.35401696
v -0.119260594 -0.59719 -0.36839533
v -0.3251912 -0.59719 0.111586794
v 0.9357143 -0.44436613 0.111586794
v 0.85846436 -0.59719 0.111586794
v -0.11926065 -0.39125988 0.111586794
v 0.96255857 -0.39125988 0.111586794
v -0.11926065 0.6968448 0.111586794
v -0.11926065 0.90277505 0.111586794
v -0.3251911 0.9843496 0.111586794
v 1.0232971 0.6968448 0.111586794
v -0.12606555 0.94553596 0.111586794
v -0.11926065 0.9442095 0.111586794
v 1.0105135 0.7239934 0.111586794
v 0.6076235 0.80252486 0.111586794
v 0.09331048 0.90277505 0.111586794
v -0.11926065 0.6968448 0.111586794
v -0.11926413 -0.39124525 0.03533137
v -0.11926065 -0.39125988 0.111586794
v -0.119216315 0.6968375 0.03535908
v -0.11926065 -0.39125988 0.111586794
v 0.92631924 -0.39125988 0.05822726
v 0.96255857 -0.39125988 0.111586794
v -0.11926413 -0.39124525 0.03533137
v 0.9107978 -0.39125532 0.03536974
v -0.11926065 -0.52099 -0.1805132
v 0.68072045 -0.55636424 -0.1805132
v 0.6986014 -0.52099 -0.1805132
v -0.11926065 -0.59719 -0.1805132
v 0.66008365 -0.59719 -0.1805132
v -0.11926065 -0.59719 -0.1805132
v -0.11926065 -0.5863469 -0.36846066
v -0.119260594 -0.59719 -0.36839533
v -0.11926065 -0.52099 -0.1805132
v -0.11926065 -0.52099 -0.36885443
v -0.11926065 0.90277505 0.111586794
v 0.096520945 0.90277505 0.10057467
v 0.09331048 0.90277505 0.111586794
v -0.11917771 0.9024557 0.035370514
v 0.11690943 0.9025061 0.035373036
v -0.119216315 0.6968375 0.03535908
v 1.004583 0.696843 0.09273291
v 0.94765407 0.6968383 0.035378847
v 1.0232971 0.6968448 0.111586794
v -0.11926065 0.6968448 0.111586794
v -0.3251912 -0.30509052 -0.1805132
v -0.3251912 -0.5344022 -0.23511113
v -0.3251912 -0.30509052 -0.23649283
v -0.3251912 -0.59719 0.111586794
v -0.3251912 -0.59719 -0.23473276
v -0.3251911 0.9843496 0.111586794
v -0.325191 0.99234086 -0.029036406
v -0.3251912 1.0009489 -0.1805132
v -0.24899119 -0.30509052 -0.1805132
v -0.2548546 -0.30509052 -0.28214577
v -0.24899119 -0.30509052 -0.28595164
v -0.3251912 -0.30509052 -0.23649283
v -0.3251912 -0.30509052 -0.1805132
v -0.3251912 -0.30509052 -0.1805132
v -0.29381606 0.9948332 -0.1805132
v -0.3251912 1.0009489 -0.1805132
v -0.24899119 -0.30509052 -0.1805132
v -0.2489913 0.9860959 -0.1805132
v -0.11926413 -0.39124525 0.03533137
v 0.8674682 -0.47698614 0.035378266
v 0.9107978 -0.39125532 0.03536974
v -0.11937837 -0.52098924 0.03566042
v 0.8453034 -0.5209898 0.03549357
v -0.2489913 0.978942 -0.054624572
v -0.2489913 0.7998099 0.036139462
v -0.2489913 0.97378415 0.036139462
v -0.24899119 -0.30509052 -0.1805132
v -0.2489913 -0.30509064 0.036139462
v -0.2489913 -0.30509064 0.036139462
v -0.2489819 -0.5209877 -0.1805132
v -0.24898198 -0.5209877 0.036139462
v -0.24899119 -0.30509052 -0.1805132
v -0.24898256 -0.5039478 -0.28475899
v -0.24899119 -0.30509052 -0.28595164
v -0.24898198 -0.5209877 0.036139462
v -0.11926065 -0.52099 -0.1805132
v -0.11937837 -0.52098924 0.03566042
v -0.2489819 -0.5209877 -0.1805132
v -0.2489819 -0.52098763 -0.28465685
v -0.13664989 -0.52098966 -0.3575676
v -0.119216315 0.6968375 0.03535908
v -0.2489913 -0.30509064 0.036139462
v -0.11926413 -0.39124525 0.03533137
v -0.2489913 0.7998099 0.036139462
v -0.11917771 0.9024557 0.035370514
v -0.22901867 0.96989816 0.03601505
v -0.11918114 0.9485253 0.03536877
v -0.2489913 0.97378415 0.036139462
v -0.24898198 -0.5209877 0.036139462
v -0.11926413 -0.39124525 0.03533137
v -0.2489913 -0.30509064 0.036139462
v -0.11937837 -0.52098924 0.03566042
v 1.004583 0.696843 0.09273291
v 0.92498004 0.74499613 0.035380978
v 0.94765407 0.6968383 0.035378847
v 1.0232971 0.6968448 0.111586794
v 1.0105135 0.7239934 0.111586794
v -0.3251912 -0.5344022 -0.23511113
v -0.2548546 -0.30509052 -0.28214577
v -0.3251912 -0.30509052 -0.23649283
v -0.24898256 -0.5039478 -0.28475899
v -0.24899119 -0.30509052 -0.28595164
v -0.2489819 -0.52098763 -0.28465685
v -0.11926065 -0.5863469 -0.36846066
v -0.13664989 -0.52098966 -0.3575676
v -0.11926065 -0.52099 -0.36885443
v -0.14141308 -0.59719 -0.35401696
v -0.3251912 -0.59719 -0.23473276
v -0.119260594 -0.59719 -0.36839533
v -0.11926065 0.90277505 0.111586794
v -0.11918119 0.94834256 0.038583692
v -0.11917771 0.9024557 0.035370514
v -0.11926065 0.9442095 0.111586794
v 0.68614316 0.79155046 0.035379235
v 0.096520945 0.90277505 0.10057467
v 0.11690943 0.9025061 0.035373036
v 0.6076235 0.80252486 0.111586794
v 0.09331048 0.90277505 0.111586794
v 0.92498004 0.74499613 0.035380978
v 1.0105135 0.7239934 0.111586794
v -0.12606555 0.94553596 0.111586794
v -0.11918119 0.94834256 0.038583692
v -0.11926065 0.9442095 0.111586794
v -0.3251911 0.9843496 0.111586794
v -0.2489913 0.97378415 0.036139462
v -0.22901867 0.96989816 0.03601505
v -0.11918114 0.9485253 0.03536877
v -0.29381606 0.9948332 -0.1805132
v -0.2489913 0.978942 -0.054624572
v -0.2489913 0.9860959 -0.1805132
v -0.325191 0.99234086 -0.029036406
v -0.3251912 1.0009489 -0.1805132
v 0.68072045 -0.55636424 -0.1805132
v 0.7590507 -0.52098966 -0.09150682
v 0.6986014 -0.52099 -0.1805132
v 0.8453034 -0.5209898 0.03549357
v 0.85846436 -0.59719 0.111586794
v 0.73471195 -0.59719 -0.07062922
v 0.66008365 -0.59719 -0.1805132
v 0.92631924 -0.39125988 0.05822726
v 0.9357143 -0.44436613 0.111586794
v 0.96255857 -0.39125988 0.111586794
v 0.9107978 -0.39125532 0.03536974
v 0.8674682 -0.47698614 0.035378266
vt 1.7494578 0.68336135
vt 1.7494578 0.66177654
vt 1.7494577 0.66179764
vt 0.791357 0.68336135
vt 0.791357 0.646701
vt 0.79135704 0.644364
vt 0.63462895 0.4098806
vt 0.6346289 0.5917511
vt 0.63462895 0.6096089
vt 1.4625545 0.81651044
vt 1.1966866 0.81651044
vt 1.1952055 0.8165105
vt 0.81747836 0.40988058
vt 0.8168132 0.419379
vt 0.81747836 0.4200852
vt 0.31416458 0.8983732
vt 0.14740819 0.8983731
vt 0.26527843 0.8983732
vt 0.09325528 0.8983732
vt 0.31416458 0.8983732
vt 0.09325528 0.8983732
vt 0.14740819 0.8983731
vt 0.31416458 0.8983732
vt 0.09325528 0.8983732
vt 0.097952105 0.8983732
vt 0.14740819 0.8983731
vt 0.63462895 0.5792246
vt 0.63462895 0.4098806
vt 0.63462895 0.4098806
vt 0.63462895 0.4098806
vt 0.63462895 0.5792246
vt 0.6346289 0.5917511
vt 0.6353691 0.33896202
vt 0.81219 0.36171436
vt 0.7967377 0.33896202
vt 0.59272987 0.3994435
vt 0.8378138 0.3994435
vt 0.59272987 0.3277356
vt 0.6307823 0.3030369
vt 0.6353691 0.30005974
vt 0.0050000027 0.39944345
vt 0.03664332 0.13836442
vt 0.0049999934 0.15435947
vt 0.047639377 0.35680413
vt 0.04763937 0.13280612
vt 0.2729388 0.35680407
vt 0.31557804 0.35680407
vt 0.3324687 0.39944345
vt 0.27293876 0.12022972
vt 0.32443196 0.35821307
vt 0.32415733 0.35680407
vt 0.27856004 0.122876644
vt 0.29482055 0.20629776
vt 0.31557804 0.31278977
vt 0.85394317 0.63518006
vt 0.8697212 0.40988058
vt 0.85394317 0.40988058
vt 0.8697212 0.63518006
vt 0.59272987 0.71904546
vt 0.60377836 0.50255084
vt 0.5927298 0.49504727
vt 0.6085077 0.71904546
vt 0.6085077 0.5057645
vt 0.63462895 0.4098806
vt 0.62730443 0.57552224
vt 0.63462895 0.5792246
vt 0.6188512 0.4098806
vt 0.6188512 0.57124925
vt 0.7755792 0.68336135
vt 0.7778244 0.64444554
vt 0.7755792 0.64445907
vt 0.791357 0.68336135
vt 0.79135704 0.644364
vt 0.31416458 0.9141512
vt 0.26948553 0.911871
vt 0.27015027 0.9141512
vt 0.31416458 0.8983732
vt 0.26527843 0.8983732
vt 0.66075027 0.40988055
vt 0.64887494 0.6425779
vt 0.66075027 0.63079
vt 0.64497256 0.64645505
vt 0.64497256 0.40988055
vt 1.5230356 0.7438425
vt 1.5705163 0.7325376
vt 1.5230355 0.7322515
vt 1.583517 0.80432385
vt 1.583517 0.732616
vt 1.2560483 0.8043239
vt 1.2543936 0.7752068
vt 1.2526112 0.7438425
vt 1.7494578 0.68336135
vt 1.7506719 0.66231763
vt 1.7494578 0.6615296
vt 1.7652354 0.6717704
vt 1.7652355 0.68336135
vt 1.4625545 0.83228827
vt 1.1933963 0.82579184
vt 1.19213 0.83228827
vt 1.4625545 0.81651044
vt 1.1952055 0.8165105
vt 0.6085077 0.71904546
vt 0.6085077 0.5147362
vt 0.6085077 0.5057645
vt 0.6085077 0.71904546
vt 0.6085077 0.51931715
vt 1.1966866 0.81651044
vt 1.2337773 0.81651044
vt 1.1977546 0.81651044
vt 1.4625545 0.81651044
vt 1.4625545 0.81651044
vt 1.7494578 0.68336135
vt 1.7494578 0.68336135
vt 1.7494578 0.68336135
vt 1.7494578 0.68336135
vt 1.7494578 0.66177654
vt 1.7494578 0.6615296
vt 0.791357 0.68336135
vt 0.791357 0.68336135
vt 0.791357 0.68336135
vt 0.791357 0.68336135
vt 0.791357 0.66179764
vt 0.791357 0.646701
vt 1.2337773 0.81651044
vt 1.4625545 0.81651044
vt 1.4625545 0.81651044
vt 1.2337773 0.81651044
vt 1.1953263 0.81651044
vt 1.198558 0.81651044
vt 1.1865774 0.81651044
vt 1.1977546 0.81651044
vt 1.7494578 0.68336135
vt 1.7494578 0.68336135
vt 1.7494578 0.68336135
vt 1.7494578 0.68336135
vt 0.00627615 0.060698546
vt 0.06728139 2.3999555E-06
vt 0.025369054 0
vt 0 0.08065193
vt 0.023628123 0.08065193
vt 0.19334625 0.04943985
vt 0.12672745 0.2300026
vt 0.19275391 0.2300026
vt 0.1217289 0.073420025
vt 0.1212233 0.2300026
vt 0.12177223 0.06000267
vt 0.00016876221 0.008538055
vt 0.0163237 0.060001146
vt 0 0.060000762
vt 0.02099182 0
vt 0.19350845 0
vt 0.00019683837 0
vt 0.8017006 0.40988058
vt 0.8168132 0.419379
vt 0.81747836 0.40988058
vt 0.8017006 0.4184599
vt 0.0049617006 0.47555447
vt 0.05124527 0.0025753784
vt 0 0.018930472
vt 0.064380795 0.41256812
vt 0.059902344 0
vt 0.0070428466 0.6671429
vt 0.0678891 0.7357556
vt 0.23210503 0.1597332
vt 0.17458962 0.16525574
vt 0.23216438 0.16519195
vt 0.23037118 7.6293944E-08
vt 0.17153145 0.061125487
vt 0.17160729 0.07714707
vt 0.1720539 0.16525574
vt 0.00027320863 0.025168229
vt 0.09994835 0.061125487
vt 0.00066352845 0.061125487
vt 0.11946556 1.5258789E-07
vt 0 0
vt 0.0360199 0
vt 0.0887027 0.08195251
vt 0.067229845 0
vt 0.1193409 0.19888778
vt 0.070467986 0.2689505
vt 0.026509171 0.10117554
vt 0 0
vt 0.23928344 0.2198198
vt 0.20530158 0.2689505
vt 0.25215623 0.2689505
vt 0.23377319 0.1987738
vt 0.15813659 0.19878174
vn 1 3.9803937E-05 0
vn 1 3.980394E-05 0
vn 1 3.9803937E-05 0
vn 2.2288097E-05 1 0
vn 2.2288097E-05 1 0
vn 2.2288099E-05 1 0
vn 5.022764E-07 1 4.2181435E-07
vn 5.022764E-07 1 4.2181435E-07
vn 5.0227646E-07 1 4.2181435E-07
vn 1 0 0
vn 1 0 0
vn 1 0 0
vn 1 7.466405E-05 1.9312209E-05
vn 1 7.466405E-05 1.9312209E-05
vn 1 7.466406E-05 1.931221E-05
vn 1.067099E-05 -1.1435543E-06 -1
vn 1.067099E-05 -1.1435544E-06 -1
vn 1.0670991E-05 -1.1435543E-06 -1
vn 1.8527264E-05 5.560158E-05 -1
vn 1.8527264E-05 5.5601584E-05 -1
vn 1.8381586E-05 5.4845743E-05 -1
vn 1.8381586E-05 5.4845743E-05 -1
vn 1.8381586E-05 5.4845746E-05 -1
vn 1.7540067E-05 5.2522213E-05 -1
vn 1.7540066E-05 5.2522206E-05 -1
vn 1.7540067E-05 5.2522213E-05 -1
vn -0 1 -3.5857583E-06
vn -0 1 -3.5857588E-06
vn -0 1 -3.5857588E-06
vn -0 1 -4.23747E-06
vn -0 1 -4.23747E-06
vn -0 1 -4.23747E-06
vn -0 -1 0
vn -0 -1 0
vn -0 -1 0
vn -0 -1 0
vn -0 -1 0
vn -0 -1 0
vn -0 -1 0
vn -0 -1 0
vn -0 0 1
vn -0 0 1
vn -0 0 1
vn -0 0 1
vn -0 0 1
vn -0 0 1
vn -0 0 1
vn -0 0 1
vn -0 0 1
vn -0 0 1
vn -0 0 1
vn -0 0 1
vn -0 0 1
vn -0 0 1
vn 1 0 -4.5743105E-05
vn 1 0 -4.57431E-05
vn 1 0 -4.57431E-05
vn 0.9999999 -4.3960776E-05 0.000581534
vn -0 1 0
vn -0 1 0
vn -0 1 0
vn 9.775641E-06 1 0.00019259541
vn 9.77564E-06 1 0.00019259541
vn -0 0 -1
vn -0 0 -1
vn -0 0 -1
vn -0 0 -1
vn -0 0 -1
vn 1 4.469509E-06 2.5785664E-07
vn 1 4.469509E-06 2.5785664E-07
vn 1 4.469509E-06 2.5785664E-07
vn 1 0 0
vn 1 0 0
vn -0 1 0
vn -0 1 0
vn -0 1 0
vn -0.00021387471 0.9999912 -0.004190858
vn -0.00021388136 0.9999912 -0.0041908366
vn 7.704673E-07 -1 8.117061E-05
vn 7.7046724E-07 -1 8.117061E-05
vn 7.7046724E-07 -1 8.117061E-05
vn -0 -1 9.628609E-05
vn -0 -1 9.6286094E-05
vn -1 0 0
vn -1 0 0
vn -1 0 0
vn -1 0 0
vn -1 0 0
vn -1 0 0
vn -1 0 -6.760547E-07
vn -1 0 1.2793155E-06
vn -0 1 0
vn -0 1 0
vn -0 1 0
vn -0 1 0
vn -0 1 0
vn -0 0 -1
vn -0 0 -1
vn -0 0 -1
vn -0 0 -1
vn -0 0 -1
vn 3.724879E-05 -0.00011828404 -1
vn 3.7248792E-05 -0.00011828406 -1
vn 3.7248792E-05 -0.00011828407 -1
vn -0.00017295961 -0.0025331804 -0.9999968
vn -0.00017295961 -0.0025331806 -0.9999968
vn 1 0 0
vn 1 0 0
vn 1 0 0
vn 1 0 0
vn 1 0 4.472288E-07
vn 1 4.30842E-05 4.4724808E-07
vn 1 4.3084205E-05 4.472481E-07
vn 1 4.308422E-05 4.4722876E-07
vn 1 4.30842E-05 4.472481E-07
vn 1 4.30842E-05 5.3622676E-07
vn 1 4.3365304E-05 0
vn 1.7926437E-05 1 0
vn 1.7926435E-05 1 0
vn 1.1948575E-05 1 -3.579252E-06
vn 1.7926435E-05 1 0
vn 1.7926435E-05 1 9.303814E-07
vn 1.8363955E-05 1 3.854062E-07
vn -0.006013214 0 -0.999982
vn -0.006013214 0 -0.999982
vn -0.0062119374 2.574068E-05 -0.9999807
vn -0.006013214 0 -0.999982
vn -0.005968205 5.672481E-05 -0.99998224
vn -0.006228959 0 -0.9999807
vn -0.0058913 -3.8296665E-05 -0.9999827
vn -0.0062289587 0 -0.9999807
vn -0.0062292092 -2.6838063E-07 -0.99998057
vn -0.0062292092 -2.6838066E-07 -0.99998057
vn -0.0062292092 -2.6838063E-07 -0.99998057
vn -0.003696191 -0.002532865 -0.99999
vn 0.6731253 0.31695536 -0.6681628
vn 0.6731253 0.3169554 -0.6681629
vn 0.6731253 0.31695536 -0.6681628
vn 0.6731255 0.3169559 -0.66816247
vn 0.6731255 0.31695738 -0.66816163
vn -0.5444291 -0.0050540697 -0.8387916
vn -0.54442906 -0.005054069 -0.8387916
vn -0.54442906 -0.005054069 -0.8387916
vn -0.5444444 -0.0050542597 -0.8387817
vn -0.5444444 -0.0050542597 -0.8387817
vn -0.5444314 -0.005048821 -0.8387902
vn -0.544432 -0.0050536995 -0.83878964
vn -0.544432 -0.0050536995 -0.83878976
vn -0.544432 -0.0050536986 -0.83878964
vn -0.5444296 -0.0050543076 -0.83879125
vn -0.54443073 -0.005054671 -0.8387906
vn -0.5444296 -0.005054308 -0.83879125
vn 0.9999994 0 0.001088228
vn 0.9999994 0 0.001088228
vn 0.9999994 0 0.001088228
vn 0.9999994 0 0.0010883437
vn 0.19102302 0.9800045 0.055691164
vn 0.19102302 0.9800045 0.05569116
vn 0.19102299 0.9800045 0.055691153
vn 0.19102298 0.9800045 0.055690665
vn 0.19102296 0.9800045 0.055690657
vn 0.19102302 0.9800045 0.055690914
vn 0.19102298 0.9800045 0.055690695
vn 0.19102183 0.9800047 0.055690844
vn 0.19102181 0.9800047 0.055690836
vn 0.19102181 0.9800047 0.055690844
vn 0.19102746 0.98000354 0.055691365
vn 0.1910223 0.98000354 0.055708595
vn 0.19102283 0.9800044 0.055692997
vn 0.19102283 0.9800044 0.055692997
vn 0.19102323 0.9800045 0.05569073
vn 0.19102325 0.9800045 0.055690736
vn 0.19102323 0.9800045 0.05569073
vn 0.19102469 0.98000413 0.0556908
vn 0.1910247 0.98000413 0.0556908
vn 0.7632117 -0.38578844 -0.51833886
vn 0.7632117 -0.38578844 -0.51833886
vn 0.76321167 -0.38578844 -0.5183389
vn 0.7632114 -0.38579005 -0.51833797
vn 0.7632113 -0.38579047 -0.5183379
vn 0.7632131 -0.3857867 -0.5183381
vn 0.76321065 -0.38579094 -0.51833844
vn 0.7632114 -0.38578957 -0.51833844
vn 0.7632118 -0.38579002 -0.51833755
vn 0.7632118 -0.38579002 -0.51833755
vn 0.7630589 -0.38571283 -0.51862
vn 0.7630589 -0.38571283 -0.51861995
g Device_Prop_Box_009_v_038_0
f 3/3/3 2/2/2 1/1/1
f 6/6/6 5/5/5 4/4/4
f 9/9/9 8/8/8 7/7/7
f 12/12/12 11/11/11 10/10/10
f 15/15/15 14/14/14 13/13/13
f 18/18/18 17/17/17 16/16/16
f 20/20/20 16/16/16 19/19/19
f 23/23/23 22/22/22 21/21/21
f 26/26/26 25/25/25 24/24/24
f 29/29/29 28/28/28 27/27/27
f 32/32/32 31/31/31 30/30/30
f 35/35/35 34/34/34 33/33/33
f 36/36/36 33/33/33 34/34/34
f 36/36/36 34/34/34 37/37/37
f 36/36/36 38/38/38 33/33/33
f 39/39/39 33/33/33 38/38/38
f 33/33/33 39/39/39 40/40/40
f 43/43/43 42/42/42 41/41/41
f 41/41/41 42/42/42 44/44/44
f 45/45/45 44/44/44 42/42/42
f 46/46/46 41/41/41 44/44/44
f 46/46/46 47/47/47 41/41/41
f 41/41/41 47/47/47 48/48/48
f 46/46/46 49/49/49 47/47/47
f 50/50/50 48/48/48 47/47/47
f 47/47/47 51/51/51 50/50/50
f 49/49/49 52/52/52 47/47/47
f 52/52/52 53/53/53 47/47/47
f 47/47/47 53/53/53 54/54/54
f 57/57/57 56/56/56 55/55/55
f 58/58/58 55/55/55 56/56/56
f 61/61/61 60/60/60 59/59/59
f 59/59/59 60/60/60 62/62/62
f 63/63/63 62/62/62 60/60/60
f 66/66/66 65/65/65 64/64/64
f 67/67/67 64/64/64 65/65/65
f 67/67/67 65/65/65 68/68/68
f 71/71/71 70/70/70 69/69/69
f 69/69/69 70/70/70 72/72/72
f 73/73/73 72/72/72 70/70/70
f 76/76/76 75/75/75 74/74/74
f 74/74/74 75/75/75 77/77/77
f 78/78/78 77/77/77 75/75/75
f 81/81/81 80/80/80 79/79/79
f 80/80/80 82/82/82 79/79/79
f 83/83/83 79/79/79 82/82/82
f 86/86/86 85/85/85 84/84/84
f 87/87/87 84/84/84 85/85/85
f 87/87/87 85/85/85 88/88/88
f 87/87/87 89/89/89 84/84/84
f 90/90/90 84/84/84 89/89/89
f 84/84/84 90/90/90 91/91/91
f 94/94/94 93/93/93 92/92/92
f 93/93/93 95/95/95 92/92/92
f 96/96/96 92/92/92 95/95/95
f 99/99/99 98/98/98 97/97/97
f 100/100/100 97/97/97 98/98/98
f 100/100/100 98/98/98 101/101/101
f 104/104/104 103/103/103 102/102/102
f 102/102/102 103/103/103 105/105/105
f 106/106/106 105/105/105 103/103/103
f 109/109/109 108/108/108 107/107/107
f 110/110/110 107/107/107 108/108/108
f 108/108/108 111/111/111 110/110/110
f 114/114/114 113/113/113 112/112/112
f 115/115/115 112/112/112 113/113/113
f 113/113/113 116/116/116 115/115/115
f 117/117/117 115/115/115 116/116/116
f 120/120/120 119/119/119 118/118/118
f 121/121/121 118/118/118 119/119/119
f 121/121/121 119/119/119 122/122/122
f 123/123/123 122/122/122 119/119/119
f 126/126/126 125/125/125 124/124/124
f 127/127/127 124/124/124 125/125/125
f 128/128/128 124/124/124 127/127/127
f 127/127/127 129/129/129 128/128/128
f 130/130/130 128/128/128 129/129/129
f 131/131/131 129/129/129 127/127/127
f 134/134/134 133/133/133 132/132/132
f 135/135/135 132/132/132 133/133/133
f 138/138/138 137/137/137 136/136/136
f 136/136/136 137/137/137 139/139/139
f 137/137/137 140/140/140 139/139/139
f 143/143/143 142/142/142 141/141/141
f 142/142/142 144/144/144 141/141/141
f 145/145/145 144/144/144 142/142/142
f 144/144/144 146/146/146 141/141/141
f 146/146/146 147/147/147 141/141/141
f 148/148/148 147/147/147 146/146/146
f 149/149/149 147/147/147 148/148/148
f 147/147/147 150/150/150 141/141/141
f 141/141/141 150/150/150 151/151/151
f 152/152/152 150/150/150 147/147/147
f 155/155/155 154/154/154 153/153/153
f 156/156/156 153/153/153 154/154/154
f 159/159/159 158/158/158 157/157/157
f 158/158/158 160/160/160 157/157/157
f 161/161/161 160/160/160 158/158/158
f 157/157/157 160/160/160 162/162/162
f 162/162/162 160/160/160 163/163/163
f 166/166/166 165/165/165 164/164/164
f 165/165/165 167/167/167 164/164/164
f 168/168/168 167/167/167 165/165/165
f 169/169/169 168/168/168 165/165/165
f 170/170/170 169/169/169 165/165/165
f 171/171/171 167/167/167 168/168/168
f 172/172/172 171/171/171 168/168/168
f 173/173/173 171/171/171 172/172/172
f 174/174/174 167/167/167 171/171/171
f 175/175/175 174/174/174 171/171/171
f 178/178/178 177/177/177 176/176/176
f 177/177/177 179/179/179 176/176/176
f 179/179/179 180/180/180 176/176/176
f 180/180/180 181/181/181 176/176/176
f 176/176/176 181/181/181 182/182/182
f 183/183/183 180/180/180 179/179/179
f 184/184/184 180/180/180 183/183/183
f 185/185/185 184/184/184 183/183/183
f 186/186/186 183/183/183 179/179/179
f 187/187/187 186/186/186 179/179/179
