g Device_Prop_Box_004_v_035
v 0.21314237 0.012311942 0.059330486
v 0.21314241 0.008780375 -0.12431431
v 0.21314247 0.012311845 -0.12658675
v 0.21314237 -0.013088058 -0.110242784
v 0.21314237 -0.013088058 0.059330486
v -0.39602825 -0.013088058 0.059330486
v 0.21314237 -0.013088058 -0.110242784
v 0.21314237 -0.013088058 0.059330486
v 0.21314237 0.012311942 0.059330486
v 0.21314237 -0.013088058 -0.110242784
v 0.21314241 0.008780375 -0.12431431
v -0.45474258 0.012311942 0.059330486
v 0.053274896 0.012311942 -0.082085006
v 0.21314247 0.012311845 -0.12658675
v 0.21314237 0.012311942 0.059330486
v 0.053274896 0.012311942 -0.082085006
v -0.45474258 0.012311942 0.059330486
v 0.21314247 0.012311845 -0.12658675
v 0.21314237 -0.013088058 0.059330486
v -0.42096296 -0.002301313 0.059330486
v -0.39602825 -0.013088058 0.059330486
v 0.21314237 0.012311942 0.059330486
v -0.45474258 0.012311942 0.059330486
v -0.42096296 -0.002301313 0.059330486
v 0.21314237 -0.013088058 -0.110242784
v -0.39602825 -0.013088058 0.059330486
v -0.45474258 0.012311942 0.059330486
v 0.21314241 0.008780375 -0.12431431
v 0.21314247 0.012311845 -0.12658675
vt 0.9396146 0.3345759
vt 0.9396146 0.29767758
vt 0.9396146 0.297221
vt 0.93961453 0.30050486
vt 0.9396146 0.3345759
vt 0.8172184 0.3345759
vt 0.93961453 0.30050486
vt 0.9396146 0.3345759
vt 0.9396146 0.3345759
vt 0.93961453 0.30050486
vt 0.9396146 0.29767758
vt 0.545889 0.023530884
vt 0.13066612 0.023531036
vt 0 0.023530884
vt 0.9396146 0.3345759
vt 0.9074936 0.3061624
vt 0.8054214 0.3345759
vt 0.9396146 0.297221
vt 0.9396146 0.3345759
vt 0.8122085 0.3345759
vt 0.8172184 0.3345759
vt 0.9396146 0.3345759
vt 0.8054214 0.3345759
vt 0.5202651 0.009992981
vt 0.0034512328 0
vt 0.50135064 0
vt 0.545889 0.023530884
vt 0.00047988893 0.020259246
vt 0 0.023530884
vn -1 1.3383185E-05 -5.2117065E-07
vn -1 1.3383185E-05 -5.2117065E-07
vn -1 1.3383187E-05 -5.2117065E-07
vn -1 0 0
vn -1 0 0
vn -0 1 0
vn -0 1 0
vn -0 1 0
vn -1 2.0206164E-06 -3.026636E-07
vn -1 2.0206166E-06 -3.0266364E-07
vn -1 2.0206166E-06 -3.026636E-07
vn 0.13681377 0.86007154 0.49148643
vn 0.13681376 0.86007154 0.4914864
vn 0.13681377 0.86007154 0.49148643
vn -0 -1 0
vn -0 -1 0
vn -0 -1 0
vn -4.6101056E-07 -1 5.2116343E-07
vn -0 0 -1
vn -0 0 -1
vn -0 0 -1
vn -0 0 -1
vn -0 0 -1
vn 0.22792895 0.5268823 0.8188061
vn 0.22792898 0.5268823 0.8188061
vn 0.22792898 0.5268823 0.8188061
vn 0.22792976 0.5268769 0.81880933
vn 0.22793008 0.52687407 0.81881106
vn 0.22792856 0.5268836 0.8188054
g Device_Prop_Box_004_v_035_0
f 3/3/3 2/2/2 1/1/1
f 5/5/5 1/1/1 4/4/4
f 8/8/8 7/7/7 6/6/6
f 11/11/11 10/10/10 9/9/9
f 14/14/14 13/13/13 12/12/12
f 17/17/17 16/16/16 15/15/15
f 15/15/15 16/16/16 18/18/18
f 21/21/21 20/20/20 19/19/19
f 19/19/19 20/20/20 22/22/22
f 23/23/23 22/22/22 20/20/20
f 26/26/26 25/25/25 24/24/24
f 24/24/24 25/25/25 27/27/27
f 25/25/25 28/28/28 27/27/27
f 28/28/28 29/29/29 27/27/27
