g Device_Prop_Box_008_v_024
v -0.08780181 -0.25099587 0.05796468
v -0.73949254 -0.16124794 0.0579577
v -0.79661787 -0.2509964 0.057951503
v 0.041445144 -0.044891335 0.05834101
v 0.041449506 -0.2504456 0.05834101
v -0.08780181 -0.045059435 0.05796468
v -0.6656162 -0.045183048 0.057958476
v -0.08780181 -0.25099587 0.05796468
v -0.6656162 -0.045183048 0.057958476
v -0.73949254 -0.16124794 0.0579577
v 0.041352514 1.0655501 0.05834101
v 0.027061816 1.0430945 0.058299154
v 0.041422956 1.0431007 0.05834101
v 0.04147586 1.06575 0.058406707
v 0.041352514 1.0655501 0.05834101
v 0.041422956 1.0431007 0.05834101
v 0.11812864 1.1875244 0.07271358
v 0.11812864 -1.2916343 0.13416468
v 0.11812874 1.1933125 0.13416468
v 0.11812864 -1.2812492 0.10336869
v 0.11812864 -1.289487 0.11376515
v 0.11812864 0.95687586 -0.15793532
v 0.11812864 -1.074199 -0.15793532
v 0.11812864 1.1329908 -0.5062725
v 0.11812864 1.0880202 -0.7545886
v 0.11812874 0.95687586 -0.8532884
v 0.11812864 1.111249 -0.7371066
v -0.08780181 -0.045059435 0.13416468
v -0.08780176 0.8697816 0.13416468
v 0.10631754 1.1747564 0.13416468
v 0.11812874 1.1933125 0.13416468
v 0.11812864 -1.2916343 0.13416468
v 0.080064975 -1.2677748 0.13416468
v 0.07333651 -1.2635573 0.13416468
v -0.08780181 -0.25098968 0.13416468
v -0.08780171 -1.1625516 0.13416468
v -0.7436119 -0.16054188 0.13416468
v -0.6701063 -0.045059446 0.13416468
v -0.8011827 -0.25098968 0.13416468
v -0.08780181 -0.25099587 0.05796468
v -0.08780171 -1.1612406 0.12170962
v -0.08780171 -1.154531 0.05796468
v -0.08780171 -1.1625516 0.13416468
v -0.08780181 -0.25098968 0.13416468
v 0.041827194 0.9564704 -0.15793532
v 0.07969039 0.95667154 -0.8133588
v 0.04182729 0.9564704 -0.7740264
v 0.11812874 0.95687586 -0.8532884
v 0.11812864 0.95687586 -0.15793532
v -0.08780181 -0.045059435 0.05796468
v -0.667311 -0.045059446 0.08753884
v -0.6656162 -0.045183048 0.057958476
v -0.6701063 -0.045059446 0.13416468
v -0.08780181 -0.045059435 0.13416468
v -0.08780181 -0.045059435 0.13416468
v -0.08780171 0.8637868 0.07051817
v -0.08780176 0.8697816 0.13416468
v -0.08780181 -0.045059435 0.05796468
v -0.08780171 0.86260444 0.05796468
v -0.08780181 -0.25098968 0.13416468
v -0.7990081 -0.25099316 0.09785507
v -0.8011827 -0.25098968 0.13416468
v -0.79661787 -0.2509964 0.057951503
v -0.08780181 -0.25099587 0.05796468
v 0.041422956 1.0431007 0.05834101
v 0.041877385 -0.13738343 -0.15793532
v 0.041827194 0.9564704 -0.15793532
v 0.041445144 -0.044891335 0.05834101
v 0.041449506 -0.2504456 0.05834101
v 0.041921083 -1.0861793 -0.15793532
v 0.041860525 -1.1105309 -0.12721491
v 0.041473243 -1.2356036 0.05834101
v 0.04154039 -1.2322809 0.026373971
v 0.041422956 1.0431007 0.05834101
v 0.04146869 1.06266 0.02571936
v 0.04147586 1.06575 0.058406707
v 0.041785337 1.0458595 -0.15793532
v 0.041827194 0.9564704 -0.15793532
v 0.04182729 0.9564704 -0.7740264
v 0.041811496 0.9902695 -0.7485725
v 0.041449506 -0.2504456 0.05834101
v -0.06740766 -1.1673208 0.058023978
v 0.041473243 -1.2356036 0.05834101
v -0.08780171 -1.154531 0.05796468
v -0.08780181 -0.25099587 0.05796468
v -0.08780171 0.86260444 0.05796468
v 0.041422956 1.0431007 0.05834101
v 0.027061816 1.0430945 0.058299154
v -0.08780181 -0.045059435 0.05796468
v 0.041445144 -0.044891335 0.05834101
v -0.7436119 -0.16054188 0.13416468
v -0.667311 -0.045059446 0.08753884
v -0.6701063 -0.045059446 0.13416468
v -0.7990081 -0.25099316 0.09785507
v -0.8011827 -0.25098968 0.13416468
v -0.73949254 -0.16124794 0.0579577
v -0.6656162 -0.045183048 0.057958476
v -0.79661787 -0.2509964 0.057951503
v 0.041785337 1.0458595 -0.15793532
v 0.04147586 1.06575 0.058406707
v 0.04146869 1.06266 0.02571936
v 0.11812864 1.1875244 0.07271358
v 0.041811496 0.9902695 -0.7485725
v 0.11812864 1.1329908 -0.5062725
v 0.11812864 1.111249 -0.7371066
v -0.08780171 0.8637868 0.07051817
v 0.027061816 1.0430945 0.058299154
v 0.041352514 1.0655501 0.05834101
v -0.08780171 0.86260444 0.05796468
v 0.10631754 1.1747564 0.13416468
v -0.08780176 0.8697816 0.13416468
v 0.11812874 1.1933125 0.13416468
v 0.11812864 1.0880202 -0.7545886
v 0.07969039 0.95667154 -0.8133588
v 0.11812874 0.95687586 -0.8532884
v 0.041811496 0.9902695 -0.7485725
v 0.11812864 1.111249 -0.7371066
v 0.04182729 0.9564704 -0.7740264
v -0.08780171 -1.1612406 0.12170962
v -0.06740766 -1.1673208 0.058023978
v -0.08780171 -1.154531 0.05796468
v 0.041473243 -1.2356036 0.05834101
v 0.080064975 -1.2677748 0.13416468
v 0.07333651 -1.2635573 0.13416468
v -0.08780171 -1.1625516 0.13416468
v 0.11812864 -1.289487 0.11376515
v 0.04154039 -1.2322809 0.026373971
v 0.11812864 -1.2916343 0.13416468
v 0.041921083 -1.0861793 -0.15793532
v 0.106041975 -1.076099 -0.15793532
v 0.041877385 -0.13738343 -0.15793532
v 0.041827194 0.9564704 -0.15793532
v 0.11198958 -1.0751641 -0.15793532
v 0.11812864 0.95687586 -0.15793532
v 0.11812864 -1.074199 -0.15793532
v 0.041860525 -1.1105309 -0.12721491
v 0.106041975 -1.076099 -0.15793532
v 0.041921083 -1.0861793 -0.15793532
v 0.11198958 -1.0751641 -0.15793532
v 0.11812864 -1.2812492 0.10336869
v 0.11812864 -1.074199 -0.15793532
v 0.04154039 -1.2322809 0.026373971
v 0.11812864 -1.289487 0.11376515
vt 0.005 0.8983732
vt 0.13994448 0.89837325
vt 0.15176953 0.8983732
vt 0.005 0.8983732
vt 0.005 0.8983732
vt 0.005 0.8983732
vt 0.124647036 0.89837325
vt 0.005 0.8983732
vt 0.124647036 0.89837325
vt 0.13994448 0.89837325
vt 0.6868718 0.71904516
vt 0.6868718 0.7190452
vt 0.6868718 0.7190452
vt 1.791357 0.68336135
vt 1.5988392 0.6895813
vt 1.791357 0.68336135
vt 0.5707931 0.7916
vt 0.057466216 0.80432385
vt 0.57199156 0.80432385
vt 0.05961651 0.7979472
vt 0.057910815 0.80009997
vt 0.52303565 0.7438425
vt 0.10248774 0.7438425
vt 0.5595015 0.6717169
vt 0.55019003 0.62030137
vt 0.52303565 0.59986484
vt 0.5549997 0.6239211
vt 0.315578 0.04763946
vt 0.5050021 0.047639433
vt 0.5681493 0.007445627
vt 0.5719915 0.0050000562
vt 0.057466187 0.005000136
vt 0.062406432 0.012881486
vt 0.06327972 0.01427468
vt 0.27293876 0.04763946
vt 0.084193744 0.047639508
vt 0.2916666 0.18342939
vt 0.315578 0.16820955
vt 0.2729388 0.19534983
vt 0.89584243 0.40988058
vt 0.8826435 0.598354
vt 0.89584243 0.5969647
vt 0.88006455 0.59862566
vt 0.88006455 0.40988058
vt 0.74945784 0.68336135
vt 0.7572872 0.5476514
vt 0.74945784 0.55579543
vt 0.76523554 0.5393837
vt 0.76523554 0.68336135
vt 0.005 0.8983732
vt 0.124991305 0.9044968
vt 0.124647036 0.89837325
vt 0.12557007 0.91415113
vt 0.005 0.9141512
vt 0.82782185 0.6351801
vt 0.8410003 0.44699728
vt 0.82782185 0.44575602
vt 0.84359956 0.6351801
vt 0.84359956 0.44724208
vt 0.64497256 0.71904534
vt 0.652488 0.5717808
vt 0.64497256 0.5713349
vt 0.66075027 0.5722757
vt 0.66075027 0.71904534
vt 0.4625545 0.81651044
vt 0.23602296 0.81651044
vt 0.4625545 0.81651044
vt 0.26195592 0.81651044
vt 0.2222394 0.81651044
vt 0.03953221 0.81651044
vt 0.035857126 0.81651044
vt 0.008752002 0.81651044
vt 0.009472275 0.81651044
vt 1.791357 0.68336135
vt 1.791357 0.68336135
vt 1.791357 0.68336135
vt 1.791357 0.68336135
vt 1.791357 0.68336135
vt 1.791357 0.55579543
vt 1.791357 0.56106585
vt 0.89584243 0.40988058
vt 0.89584243 0.59963095
vt 0.89584243 0.6312889
vt 0.89584243 0.5969647
vt 0.89584243 0.40988058
vt 0.84359956 0.44724208
vt 0.84359956 0.40988058
vt 0.84359956 0.40988058
vt 0.84359956 0.6351801
vt 0.84359956 0.6351801
vt 0.10960487 0.06008713
vt 0.0006344605 0.023326874
vt 0.00181633 0.06008713
vt 0.19310956 0.031460267
vt 0.19402665 0.06008713
vt 0.10833218 4.8828124E-06
vt 0 5.4931643E-06
vt 0.19210106 0
vt 0.13022506 1.2716233
vt 0.1171434 1.442189
vt 0.11919907 1.4164182
vt 0.003844757 1.4534689
vt 0.16713999 0.80596024
vt 0.040069122 0.9969915
vt 0.05451124 0.81500006
vt 0.30595797 1.451738
vt 0.13828689 1.4421045
vt 0.11732834 1.4421371
vt 0.30674344 1.4418405
vt 0.017319793 1.5019174
vt 0.30197605 1.5019174
vt 0 1.5019174
vt 0.014831161 0.09844708
vt 0.116407625 0.039827462
vt 0.09856476 0
vt 0.11241058 0.10444778
vt 0 0.11588433
vt 0.13398346 0.079059064
vt 0.020500641 7.6293944E-08
vt 0.069870144 0.018923035
vt 0.070970766 0
vt 0.063993834 0.119950026
vt 0.0019665528 0.15575805
vt 0.002314148 0.14951493
vt 0.010639496 0
vt 0.016151333 0.19107606
vt 0.08930036 0.12001234
vt 0 0.19107606
vt 0.03953221 0.81651044
vt 0.041619774 0.82978725
vt 0.23602296 0.81651044
vt 0.4625545 0.81651044
vt 0.041813396 0.8310188
vt 0.4625545 0.83228827
vt 0.042006485 0.83228827
vt 0.23623154 0.00025405883
vt 0.27202788 0.051172715
vt 0.26709855 0.00030204773
vt 0.2724852 0.055891342
vt 0.010444488 0.060761873
vt 0.272957 0.060761794
vt 0.0819075 0
vt 0 0.060761873
vn 1.8590805E-05 5.726188E-05 -1
vn 1.8590803E-05 5.7261877E-05 -1
vn 1.8590803E-05 5.726188E-05 -1
vn 0.0029117286 0 -0.9999958
vn 0.00291163 0 -0.9999958
vn 0.0029117286 0 -0.9999958
vn 1.07321175E-05 0 -1
vn 1.068783E-05 0 -1
vn 1.068783E-05 0 -1
vn 1.068783E-05 0 -1
vn 0.0029146485 9.145545E-06 -0.9999958
vn 0.0029146492 9.145546E-06 -0.9999958
vn 0.0029146492 9.145546E-06 -0.9999958
vn 0.46822712 0.0014691966 -0.8836069
vn 0.46822706 0.0014691965 -0.88360703
vn 0.46822712 0.0014691965 -0.8836069
vn 1 0 -1.5730822E-06
vn 1 0 -1.5730822E-06
vn 1 0 -1.5730822E-06
vn 1 0 0
vn 1 0 0
vn 1 0 0
vn 1 0 0
vn 1 0 0
vn 1 6.339588E-07 0
vn 1 6.3395873E-07 0
vn 1 0 0
vn -0 0 1
vn -0 0 1
vn -0 0 1
vn -0 0 1
vn -0 0 1
vn -0 0 1
vn -0 0 1
vn -0 0 1
vn -0 0 1
vn -0 0 1
vn -0 0 1
vn -0 0 1
vn -1 0 0
vn -1 0 0
vn -1 0 0
vn -1 0 0
vn -1 0 0
vn 0.005312501 -0.99998593 0
vn 0.005312501 -0.99998593 0
vn 0.005312501 -0.99998593 0
vn 0.005316413 -0.99998593 0
vn 0.0053143525 -0.99998593 0
vn -0.00021388277 0.9999912 -0.004190649
vn -0.00021388275 0.9999912 -0.0041906484
vn -0.00021388277 0.9999912 -0.004190649
vn -0 1 0
vn -0 1 0
vn -1 0 -7.661713E-07
vn -1 0 -7.6617124E-07
vn -1 0 -7.6617124E-07
vn -1 0 0
vn -1 0 0
vn -0 -1 9.640071E-05
vn -0 -1 9.64007E-05
vn -0 -1 9.64007E-05
vn 7.8179E-07 -1 8.108756E-05
vn 7.674129E-07 -1 8.122127E-05
vn -0.9999981 -2.0394014E-05 -0.0019898338
vn -0.9999981 -2.0394014E-05 -0.0019898338
vn -0.99999833 -4.5884237E-05 -0.0018507028
vn -0.9999981 -2.0394014E-05 -0.0019898338
vn -0.999998 -4.6057114E-05 -0.002002472
vn -0.999998 -4.6057114E-05 -0.002002472
vn -0.999998 -4.4917764E-05 -0.002006875
vn -0.99999785 -2.3437644E-05 -0.0021029413
vn -0.99999785 -2.3437644E-05 -0.0021029413
vn -0.99999726 0.0023357663 -1.4598199E-06
vn -0.99999726 0.0023357666 -1.4598199E-06
vn -0.99999726 0.0023357666 -1.4598202E-06
vn -0.99999845 -0.00046826605 -0.0016815165
vn -0.99999845 -0.00046826602 -0.0016815165
vn -0.9999999 -0.00046826672 0
vn -0.9999999 -0.00046702483 -3.3746454E-07
vn 0.0029117905 0 -0.9999958
vn 0.0029117903 0 -0.9999958
vn 0.0029117903 0 -0.9999958
vn 0.00291163 0 -0.9999958
vn 0.0029116306 0 -0.9999958
vn 0.0029146536 -1.734729E-06 -0.9999958
vn 0.0029146536 -1.7347289E-06 -0.9999958
vn 0.0029146536 -1.7347289E-06 -0.9999958
vn 0.0029122313 0 -0.9999958
vn 0.0029117286 0 -0.9999958
vn -0.8425292 0.53627735 -0.050510198
vn -0.8425292 0.53627735 -0.050510198
vn -0.84252906 0.5362774 -0.050510198
vn -0.84252906 0.53627735 -0.05051123
vn -0.84252924 0.53627706 -0.05051064
vn -0.84252906 0.53627723 -0.05051288
vn -0.842529 0.53627723 -0.050512873
vn -0.84252906 0.5362773 -0.05051122
vn -0.8428052 0.5358469 -0.050471798
vn -0.8428052 0.5358469 -0.050471805
vn -0.8428052 0.53584695 -0.0504718
vn -0.84252805 0.536279 -0.05051027
vn -0.8425292 0.53627723 -0.050510954
vn -0.842529 0.5362775 -0.050511032
vn -0.84252894 0.5362776 -0.050511103
vn -0.842529 0.5362774 -0.05051092
vn -0.842523 0.53627414 -0.05064612
vn -0.842523 0.53627414 -0.050646123
vn -0.842529 0.5362774 -0.05051092
vn -0.84252894 0.53627753 -0.05051199
vn -0.84252894 0.53627753 -0.050511993
vn -0.84252805 0.536279 -0.05051027
vn -0.64012206 0.46198612 -0.6138506
vn -0.64012206 0.46198612 -0.6138506
vn -0.64012206 0.46198612 -0.6138506
vn -0.6401237 0.4619863 -0.6138488
vn -0.6401229 0.46198505 -0.6138506
vn -0.6401237 0.46198627 -0.61384875
vn -0.5290131 -0.8439515 -0.08883141
vn -0.52901304 -0.8439515 -0.088831395
vn -0.52901304 -0.8439515 -0.08883141
vn -0.52901137 -0.8439526 -0.08883078
vn -0.5290142 -0.8439501 -0.088838115
vn -0.5289937 -0.8439448 -0.08900961
vn -0.5290116 -0.84395176 -0.08883738
vn -0.5290118 -0.8439522 -0.08883187
vn -0.5290118 -0.8439522 -0.08883188
vn -0.52901435 -0.8439501 -0.08883814
vn -0 0 -1
vn -0 0 -1
vn -0 0 -1
vn -0 0 -1
vn -0 0 -1
vn -0 0 -1
vn -0 0 -1
vn 0.12228954 -0.7778928 -0.616383
vn 0.12228954 -0.7778928 -0.616383
vn 0.12228952 -0.7778928 -0.61638296
vn 0.12227816 -0.7778838 -0.61639667
vn 0.122296624 -0.77789295 -0.61638135
vn 0.122296624 -0.77789295 -0.61638135
vn 0.12229045 -0.77789354 -0.61638194
vn 0.12228325 -0.77789795 -0.6163777
g Device_Prop_Box_008_v_024_0
f 3/3/3 2/2/2 1/1/1
f 5/5/5 1/1/1 4/4/4
f 6/6/6 4/4/4 1/1/1
f 6/6/6 1/1/1 7/7/7
f 10/10/10 9/9/9 8/8/8
f 13/13/13 12/12/12 11/11/11
f 16/16/16 15/15/15 14/14/14
f 19/19/19 18/18/18 17/17/17
f 18/18/18 20/20/20 17/17/17
f 21/21/21 20/20/20 18/18/18
f 17/17/17 20/20/20 22/22/22
f 22/22/22 20/20/20 23/23/23
f 22/22/22 24/24/24 17/17/17
f 25/25/25 24/24/24 22/22/22
f 26/26/26 25/25/25 22/22/22
f 24/24/24 25/25/25 27/27/27
f 30/30/30 29/29/29 28/28/28
f 30/30/30 28/28/28 31/31/31
f 31/31/31 28/28/28 32/32/32
f 28/28/28 33/33/33 32/32/32
f 33/33/33 28/28/28 34/34/34
f 35/35/35 34/34/34 28/28/28
f 35/35/35 36/36/36 34/34/34
f 35/35/35 28/28/28 37/37/37
f 38/38/38 37/37/37 28/28/28
f 35/35/35 37/37/37 39/39/39
f 42/42/42 41/41/41 40/40/40
f 41/41/41 43/43/43 40/40/40
f 44/44/44 40/40/40 43/43/43
f 47/47/47 46/46/46 45/45/45
f 46/46/46 48/48/48 45/45/45
f 49/49/49 45/45/45 48/48/48
f 52/52/52 51/51/51 50/50/50
f 51/51/51 53/53/53 50/50/50
f 54/54/54 50/50/50 53/53/53
f 57/57/57 56/56/56 55/55/55
f 55/55/55 56/56/56 58/58/58
f 59/59/59 58/58/58 56/56/56
f 62/62/62 61/61/61 60/60/60
f 61/61/61 63/63/63 60/60/60
f 64/64/64 60/60/60 63/63/63
f 67/67/67 66/66/66 65/65/65
f 68/68/68 65/65/65 66/66/66
f 69/69/69 68/68/68 66/66/66
f 66/66/66 70/70/70 69/69/69
f 71/71/71 69/69/69 70/70/70
f 69/69/69 71/71/71 72/72/72
f 73/73/73 72/72/72 71/71/71
f 76/76/76 75/75/75 74/74/74
f 75/75/75 77/77/77 74/74/74
f 78/78/78 74/74/74 77/77/77
f 78/78/78 77/77/77 79/79/79
f 80/80/80 79/79/79 77/77/77
f 83/83/83 82/82/82 81/81/81
f 82/82/82 84/84/84 81/81/81
f 85/85/85 81/81/81 84/84/84
f 88/88/88 87/87/87 86/86/86
f 89/89/89 86/86/86 87/87/87
f 90/90/90 89/89/89 87/87/87
f 93/93/93 92/92/92 91/91/91
f 92/92/92 94/94/94 91/91/91
f 94/94/94 95/95/95 91/91/91
f 96/96/96 94/94/94 92/92/92
f 97/97/97 96/96/96 92/92/92
f 98/98/98 94/94/94 96/96/96
f 101/101/101 100/100/100 99/99/99
f 100/100/100 102/102/102 99/99/99
f 99/99/99 102/102/102 103/103/103
f 102/102/102 104/104/104 103/103/103
f 104/104/104 105/105/105 103/103/103
f 106/106/106 102/102/102 100/100/100
f 107/107/107 106/106/106 100/100/100
f 108/108/108 107/107/107 100/100/100
f 109/109/109 106/106/106 107/107/107
f 110/110/110 102/102/102 106/106/106
f 111/111/111 110/110/110 106/106/106
f 112/112/112 102/102/102 110/110/110
f 115/115/115 114/114/114 113/113/113
f 114/114/114 116/116/116 113/113/113
f 116/116/116 117/117/117 113/113/113
f 118/118/118 116/116/116 114/114/114
f 121/121/121 120/120/120 119/119/119
f 120/120/120 122/122/122 119/119/119
f 122/122/122 123/123/123 119/119/119
f 123/123/123 124/124/124 119/119/119
f 119/119/119 124/124/124 125/125/125
f 126/126/126 123/123/123 122/122/122
f 127/127/127 126/126/126 122/122/122
f 128/128/128 123/123/123 126/126/126
f 131/131/131 130/130/130 129/129/129
f 131/131/131 132/132/132 130/130/130
f 133/133/133 130/130/130 132/132/132
f 132/132/132 134/134/134 133/133/133
f 135/135/135 133/133/133 134/134/134
f 138/138/138 137/137/137 136/136/136
f 137/137/137 139/139/139 136/136/136
f 139/139/139 140/140/140 136/136/136
f 141/141/141 140/140/140 139/139/139
f 136/136/136 140/140/140 142/142/142
f 142/142/142 140/140/140 143/143/143
