g Device_Prop_Box_01_v_016
v -0.09154858 0.0050992044 -0.077219196
v -0.0109812515 0.0050991075 0.14747985
v 0.10553549 0.0050992044 -0.07721918
v 0.10553549 0.0050992044 -0.07721918
v -0.09543494 -2.3254393E-05 -0.07721918
v -0.09154858 0.0050992044 -0.077219196
v 0.106276914 0.0034081254 -0.07721918
v 0.10991964 -0.0049008634 -0.07721918
v -0.09913552 -0.004900815 -0.07721918
v -0.025734682 -0.0049008634 0.1274926
v 0.028766692 -0.0049008634 0.07928184
v -0.013674407 -0.0049008634 0.16112818
v 0.10991964 -0.0049008634 -0.07721918
v -0.09913552 -0.004900815 -0.07721918
v -0.09154858 0.0050992044 -0.077219196
v -0.013674407 -0.0049008634 0.16112818
v -0.0109812515 0.0050991075 0.14747985
v -0.09543494 -2.3254393E-05 -0.07721918
v -0.025734682 -0.0049008634 0.1274926
v -0.09913552 -0.004900815 -0.07721918
v -0.0109812515 0.0050991075 0.14747985
v 0.106276914 0.0034081254 -0.07721918
v 0.10553549 0.0050992044 -0.07721918
v 0.028766692 -0.0049008634 0.07928184
v -0.013674407 -0.0049008634 0.16112818
v 0.10991964 -0.0049008634 -0.07721918
vt 0.78792167 0.069198
vt 0.82903886 0.18387137
vt 0.88850236 0.069198
vt 0.88850236 0.069198
vt 0.7859383 0.069198
vt 0.78792167 0.069198
vt 0.8888807 0.069198
vt 0.8907398 0.069198
vt 0.78404975 0.069198
vt 0.8215095 0.17367107
vt 0.8493239 0.14906709
vt 0.82766426 0.19083673
vt 0.8907398 0.069198
vt 0.78404975 0.069198
vt 0.04068962 0
vt 0.009900591 0.19518173
vt 0.0023459152 0.18400517
vt 0.045752525 0
vt 0.015640335 0.16763768
vt 0.050573386 0
vt 0.04543514 0.19586699
vt 0.007143593 0
vt 0.008597527 1.9073486E-08
vt 0.025657158 0.13641976
vt 0.03907524 0.20776406
vt 0 1.9073486E-08
vn -0 -1 -4.3121378E-07
vn -0 -1 -4.3121378E-07
vn -0 -1 -4.3121375E-07
vn -0 0 1
vn -0 0 1
vn -0 2.4110489E-06 1
vn -0 0 1
vn -0 0 1
vn -0 0 1
vn -0 1 0
vn -0 1 0
vn -0 1 0
vn -0 1 0
vn -0 1 0
vn 0.76602435 -0.581177 -0.2746635
vn 0.76602376 -0.58117783 -0.27466327
vn 0.7660259 -0.58117473 -0.2746639
vn 0.7660241 -0.5811774 -0.2746634
vn 0.7660241 -0.5811774 -0.27466342
vn 0.7660241 -0.5811774 -0.27466342
vn -0.8272951 -0.36269784 -0.42899075
vn -0.8272971 -0.36269253 -0.42899144
vn -0.82728976 -0.36271358 -0.4289879
vn -0.8272952 -0.3626978 -0.4289907
vn -0.8272952 -0.3626978 -0.4289907
vn -0.8272971 -0.36269256 -0.42899144
g Device_Prop_Box_01_v_016_0
f 3/3/3 2/2/2 1/1/1
f 6/6/6 5/5/5 4/4/4
f 5/5/5 7/7/7 4/4/4
f 8/8/8 7/7/7 5/5/5
f 9/9/9 8/8/8 5/5/5
f 12/12/12 11/11/11 10/10/10
f 11/11/11 13/13/13 10/10/10
f 13/13/13 14/14/14 10/10/10
f 17/17/17 16/16/16 15/15/15
f 16/16/16 18/18/18 15/15/15
f 19/19/19 18/18/18 16/16/16
f 20/20/20 18/18/18 19/19/19
f 23/23/23 22/22/22 21/21/21
f 22/22/22 24/24/24 21/21/21
f 24/24/24 25/25/25 21/21/21
f 26/26/26 24/24/24 22/22/22
