g Device_Prop_Box_007_v_033
v 0.14027366 -0.15647717 -1.0969367
v 0.14007357 0.05829528 -1.1159678
v 0.14025544 -0.1424504 -1.0981772
v 0.14390677 0.058294114 -1.1178395
v 0.14007357 0.05829528 -1.1159678
v 0.16878277 -0.2329663 -1.1040457
v 0.024573596 -0.1566292 -1.0404247
v 0.21632163 0.053425904 -1.1527674
v 0.21632163 0.059133213 -1.1532757
v 0.21632163 -0.2329663 -1.12726
v 0.010391226 -0.22392151 -1.0275056
v 0.0103912745 -0.2329663 -1.0267001
v 0.010413318 -0.15670913 -1.0335028
v 0.21632163 -0.2329663 0.42861772
v 0.21632163 0.053425904 -1.1527674
v 0.21632163 -0.2329663 -1.12726
v 0.21632163 0.059133213 0.13651773
v 0.21632163 0.059133213 -1.1532757
v 0.21632163 0.9308757 0.13651773
v 0.21632163 0.88090754 0.2985716
v 0.21632163 0.84080845 0.42861772
v 0.06881678 0.6939313 0.42861772
v 0.0103912745 -0.02703614 0.42861772
v 0.0103912745 0.63575417 0.42861772
v 0.21632163 -0.2329663 0.42861772
v 0.08663226 0.711671 0.42861772
v 0.21632163 0.84080845 0.42861772
v -0.86204135 -0.2329663 0.42861772
v -0.7474789 -0.11889129 0.42861772
v -0.65523124 -0.027036043 0.42861772
v 0.010391178 -0.2329663 0.13651773
v 0.16878277 -0.2329663 -1.1040457
v 0.0103912745 -0.2329663 -1.0267001
v 0.21632163 -0.2329663 -1.12726
v 0.21632163 -0.2329663 0.42861772
v -0.86204135 -0.2329663 0.42861772
v -0.9038241 -0.2329663 0.2936874
v -0.9524934 -0.2329663 0.13651773
v 0.0103912745 -0.02703614 0.35241774
v -0.66810507 -0.027036237 0.38704392
v -0.67882854 -0.027029455 0.35239214
v -0.65523124 -0.027036043 0.42861772
v 0.0103912745 -0.02703614 0.42861772
v 0.0103912745 -0.02703614 0.42861772
v 0.010391226 0.65038204 0.381178
v 0.0103912745 0.63575417 0.42861772
v 0.0103912745 -0.02703614 0.35241774
v 0.010391226 0.65925 0.35241774
v 0.21632163 0.059133213 0.13651773
v 0.1400851 0.8549635 0.13651773
v 0.14012162 0.059133213 0.13651773
v 0.1605321 0.8753235 0.13651773
v 0.18721691 0.90189475 0.13651773
v 0.21632163 0.9308757 0.13651773
v 0.21632163 0.059133213 0.13651773
v 0.14390677 0.058294114 -1.1178395
v 0.21632163 0.059133213 -1.1532757
v 0.14012162 0.059133213 0.13651773
v 0.14007357 0.05829528 -1.1159678
v 0.010391178 -0.1567663 0.13651773
v -0.9524934 -0.2329663 0.13651773
v 0.010391178 -0.2329663 0.13651773
v -0.9238491 -0.20444381 0.13651773
v -0.87596786 -0.1567663 0.13651773
v 0.010391178 -0.1567663 0.13651773
v 0.010391226 -0.22392151 -1.0275056
v 0.010413318 -0.15670913 -1.0335028
v 0.0103912745 -0.2329663 -1.0267001
v 0.010391178 -0.2329663 0.13651773
v 0.14012162 0.059133213 0.13651773
v 0.14025544 -0.1424504 -1.0981772
v 0.14007357 0.05829528 -1.1159678
v 0.14039962 -0.15603475 0.13651773
v 0.14027366 -0.15647717 -1.0969367
v 0.13980566 -0.15640053 0.3528018
v 0.13966662 0.059140768 0.35279405
v 0.14039962 -0.15603475 0.13651773
v 0.024573596 -0.1566292 -1.0404247
v 0.14027366 -0.15647717 -1.0969367
v 0.010413318 -0.15670913 -1.0335028
v 0.010391178 -0.1567663 0.13651773
v 0.010391178 -0.1567663 0.3531704
v 0.13980566 -0.15640053 0.3528018
v 0.010391226 -0.1567663 0.35243323
v -0.7433435 -0.09127146 0.35239738
v -0.8090629 -0.15676591 0.35257488
v -0.67882854 -0.027029455 0.35239214
v 0.0103912745 -0.02703614 0.35241774
v 0.13966662 0.059140768 0.35279405
v 0.13980566 -0.15640053 0.3528018
v 0.010391178 -0.1567663 0.13651773
v -0.837938 -0.15676591 0.2593273
v -0.87596786 -0.1567663 0.13651773
v -0.8090629 -0.15676591 0.35257488
v 0.010391226 -0.1567663 0.35243323
v 0.14012162 0.059133213 0.13651773
v 0.13964908 0.7878419 0.35279405
v 0.13966662 0.059140768 0.35279405
v 0.13976516 0.8050262 0.29743776
v 0.1400851 0.8549635 0.13651773
v 0.0103912745 -0.02703614 0.35241774
v 0.10278447 0.75116724 0.3526867
v 0.010391226 0.65925 0.35241774
v 0.13964908 0.7878419 0.35279405
v 0.13966662 0.059140768 0.35279405
v 0.010391226 -0.1567663 0.35243323
v 0.010391178 -0.1567663 0.3531704
v 0.13980566 -0.15640053 0.3528018
v 0.010391178 -0.1567663 0.13651773
v 0.08663226 0.711671 0.42861772
v 0.21632163 0.88090754 0.2985716
v 0.21632163 0.84080845 0.42861772
v 0.13964908 0.7878419 0.35279405
v 0.010391226 0.65038204 0.381178
v 0.06881678 0.6939313 0.42861772
v 0.0103912745 0.63575417 0.42861772
v 0.10278447 0.75116724 0.3526867
v 0.010391226 0.65925 0.35241774
v 0.1605321 0.8753235 0.13651773
v 0.13976516 0.8050262 0.29743776
v 0.1400851 0.8549635 0.13651773
v 0.18721691 0.90189475 0.13651773
v 0.21632163 0.9308757 0.13651773
v -0.7474789 -0.11889129 0.42861772
v -0.66810507 -0.027036237 0.38704392
v -0.65523124 -0.027036043 0.42861772
v -0.7433435 -0.09127146 0.35239738
v -0.67882854 -0.027029455 0.35239214
v -0.8090629 -0.15676591 0.35257488
v -0.9038241 -0.2329663 0.2936874
v -0.86204135 -0.2329663 0.42861772
v -0.9238491 -0.20444381 0.13651773
v -0.9524934 -0.2329663 0.13651773
v -0.837938 -0.15676591 0.2593273
v -0.87596786 -0.1567663 0.13651773
vt 0.073273316 0.060420226
vt 0.06683945 0.2300731
vt 0.07285759 0.07150032
vt 0.06348061 0.23007217
vt 0.06683945 0.2300731
vt 0.05064545 0
vt 0.17466207 0.06030014
vt 0.00017562867 0.22622673
vt 0 0.2307351
vt 0.008988724 0
vt 0.18916044 0.007144699
vt 0.18943876 0
vt 0.18707274 0.060237046
vt 0.0050000143 0.80432385
vt 0.06429951 0.4768872
vt 0.0050000143 0.4821687
vt 0.065481275 0.7438425
vt 0.065481275 0.47678196
vt 0.24598151 0.7438425
vt 0.23563524 0.7773969
vt 0.22733247 0.80432385
vt 0.19692048 0.03554204
vt 0.047639366 0.04763952
vt 0.18487456 0.04763948
vt 0.004999988 0.0050001442
vt 0.20059359 0.031853225
vt 0.22733244 0.00500011
vt 0.004999996 0.22828259
vt 0.028620075 0.20456168
vt 0.04763937 0.18546118
vt 0.9445338 0.33896202
vt 0.97732985 0.082094826
vt 0.9445338 0.09810975
vt 0.9871731 0.07728822
vt 0.987173 0.3994435
vt 0.7638907 0.3994435
vt 0.75523937 0.3715052
vt 0.745162 0.33896202
vt 0.6085077 0.4098806
vt 0.60133815 0.550368
vt 0.6085077 0.55258805
vt 0.59272987 0.5477024
vt 0.59272987 0.4098806
vt 0.88006455 0.63518006
vt 0.88988745 0.49491525
vt 0.8800646 0.49794483
vt 0.89584243 0.63518006
vt 0.89584243 0.493079
vt 0.005 0.83228827
vt 0.16981238 0.81651044
vt 0.005 0.81651044
vt 0.17402883 0.82074434
vt 0.1795316 0.8262699
vt 0.18550031 0.83228827
vt 0.6972152 0.68336135
vt 0.71219933 0.42363802
vt 0.69721526 0.4163007
vt 0.712993 0.68336135
vt 0.712993 0.4240256
vt 0.63462895 0.7190454
vt 0.6188512 0.51967347
vt 0.6188512 0.7190454
vt 0.62475693 0.5256045
vt 0.63462895 0.53551865
vt 0.7233366 0.68336135
vt 0.7372415 0.44234222
vt 0.7233366 0.44110048
vt 0.7391143 0.44250903
vt 0.7391143 0.68336135
vt 0.712993 0.68336135
vt 0.712993 0.42770922
vt 0.712993 0.4240256
vt 0.712993 0.68336135
vt 0.712993 0.42796606
vt 0.712993 0.68336135
vt 0.712993 0.68336135
vt 0.7233366 0.68336135
vt 0.7233366 0.43966728
vt 0.7233366 0.42796606
vt 0.7233366 0.44110048
vt 0.7233366 0.68336135
vt 0.7233366 0.68336135
vt 0.7233366 0.68336135
vt 0.6085077 0.4098806
vt 0.6085077 0.5659463
vt 0.6085077 0.5795409
vt 0.6085077 0.55258805
vt 0.6085077 0.4098806
vt 0.6085077 0.4098806
vt 0.6085077 0.4098806
vt 0.63462895 0.7190454
vt 0.63462895 0.54340684
vt 0.63462895 0.53551865
vt 0.63462895 0.54938513
vt 0.63462895 0.7190454
vt 0.005 0.81651044
vt 0.16291226 0.81651044
vt 0.005 0.81651044
vt 0.16663659 0.81651044
vt 0.16981238 0.81651044
vt 0.89584243 0.63518006
vt 0.89584243 0.4741283
vt 0.89584243 0.493079
vt 0.89584243 0.4714089
vt 0.89584243 0.63518006
vt 0.63462895 0.7190454
vt 0.7233366 0.68336135
vt 0.6085077 0.4098806
vt 0.7233366 0.68336135
vt 0.2706468 0.082866974
vt 0.13352966 0.22382721
vt 0.24068542 0.22382706
vt 0.19592117 0.14049126
vt 0.24917084 7.6293944E-08
vt 0.27476257 0.06350312
vt 0.28826034 0
vt 0.20434937 0.10042282
vt 0.22547287 0
vt 0.012888794 0.16318908
vt 0.15028168 0.14061737
vt 0.017612457 0.14096512
vt 0.006723938 0.19219299
vt 0 0.22382714
vt 0.21100144 0.22283165
vt 0.15840805 0.30910346
vt 0.18968993 0.3230962
vt 0.14724167 0.22732635
vt 0.13233292 0.29744804
vt 0.1625708 0.15589562
vt 0.1359407 0.052899092
vt 0.23746811 0.09831299
vt 0.011061707 0.031133728
vt 0.01767929 0
vt 0.09240708 0.12451096
vt 0 0.083176196
vn -0.43739805 -0.0797771 -0.8957223
vn -0.44342932 -0.07952197 -0.89277476
vn -0.44342932 -0.07952196 -0.89277476
vn -0.43739238 -0.079777785 -0.89572513
vn -0.43739238 -0.07977778 -0.89572513
vn -0.43739855 -0.07978419 -0.8957215
vn -0.43740124 -0.07977749 -0.8957208
vn -0.43739817 -0.07977077 -0.8957228
vn -0.43739823 -0.07977077 -0.8957229
vn -0.43739825 -0.07977735 -0.8957222
vn -0.4373986 -0.0797842 -0.8957215
vn -0.4373986 -0.0797842 -0.8957215
vn -0.43740124 -0.07977749 -0.8957208
vn 1 0 0
vn 1 0 0
vn 1 0 0
vn 1 0 0
vn 1 0 0
vn 1 0 0
vn 1 0 0
vn 1 0 0
vn -0 0 1
vn -0 0 1
vn -0 0 1
vn -0 0 1
vn -0 0 1
vn -0 0 1
vn -0 0 1
vn -0 0 1
vn -0 0 1
vn -0 -1 0
vn -0 -1 0
vn -0 -1 0
vn -0 -1 0
vn -0 -1 0
vn -0 -1 0
vn -0 -1 0
vn -0 -1 0
vn 9.693145E-06 1 0.00019273441
vn 9.693146E-06 1 0.00019273443
vn 9.693145E-06 1 0.00019273441
vn -0 1 0
vn -0 1 0
vn -1 0 1.0212252E-06
vn -1 0 1.0212252E-06
vn -1 0 1.0212252E-06
vn -1 0 0
vn -1 0 0
vn -0 0 -1
vn -0 0 -1
vn -0 0 -1
vn -0 0 -1
vn -0 0 -1
vn -0 0 -1
vn -0.011586566 0.9999329 0
vn -0.011586566 0.9999329 0
vn -0.011586567 0.9999329 0
vn -0 0.99999976 -0.0006689449
vn -2.3340439E-05 0.99999976 -0.0006690153
vn -0 0 -1
vn -0 0 -1
vn -0 0 -1
vn -0 0 -1
vn -0 0 -1
vn -1 0.00032699766 -1.890687E-05
vn -1 0.0003269977 -1.890687E-05
vn -1 0.0003269977 -1.890687E-05
vn -1 0 0
vn -1 0 0
vn -0.99999964 -0.0009025115 3.8974747E-05
vn -0.99999964 -0.0009025115 3.8974744E-05
vn -0.99999964 -0.0009025115 3.8974747E-05
vn -0.99999547 -0.0012919472 -0.0027483571
vn -0.99999917 -0.0012895842 0.0001025832
vn -0.99999547 -0.0012919471 -0.0027483571
vn -0.9999976 -0.00064515666 -0.0021038132
vn -0.001489079 0.9999988 -0.000358527
vn -0.001489079 0.9999988 -0.00035852697
vn -0.0014890791 0.9999988 -0.000358527
vn -0.0056268102 0.99998415 4.8752627E-05
vn -0.0056268093 0.99998415 0
vn -0.0056268107 0.99998415 0
vn -0.002821553 0.99999464 0.0016834084
vn -0.0001728694 -0.002536812 -0.9999968
vn -0.00017286942 -0.0025368123 -0.9999968
vn -0.00017286939 -0.0025368119 -0.9999968
vn 3.7113026E-05 -0.000119501376 -1
vn 0.0029907497 -0.000119501936 -0.9999956
vn 0.0029907501 -0.00011950195 -0.9999956
vn 0.002848161 -3.4125333E-05 -0.99999595
vn -0 1 -3.1558882E-06
vn -0 1 -3.1558882E-06
vn -0 1 -3.1558882E-06
vn 4.7296518E-07 1 0
vn 4.7296518E-07 1 0
vn -0.99999785 -2.4067005E-05 -0.0021038356
vn -0.99999785 -2.4067002E-05 -0.0021038353
vn -0.99999785 -2.4067002E-05 -0.0021038356
vn -0.99999785 -2.3915118E-05 -0.0021043473
vn -0.999998 -4.590012E-05 -0.0020024437
vn 0.0029111947 0 -0.9999958
vn 0.0029111947 0 -0.9999958
vn 0.0029111942 0 -0.9999958
vn 0.0029110422 0 -0.9999958
vn 0.0029110422 0 -0.9999958
vn 0.002826352 -0.99999607 0
vn 0.002826352 -0.99999607 0
vn 0.0028263521 -0.99999607 0
vn -0 -1 0
vn -0.6893345 0.6922805 0.2134614
vn -0.68933445 0.6922805 0.21346138
vn -0.6893345 0.6922805 0.2134614
vn -0.6893402 0.69227594 0.21345788
vn -0.68933517 0.6922806 0.2134585
vn -0.6893353 0.69227964 0.21346131
vn -0.68933576 0.69227886 0.21346259
vn -0.68933517 0.6922806 0.2134585
vn -0.68933517 0.6922806 0.21345846
vn -0.6893342 0.6922815 0.21345918
vn -0.6893355 0.69227976 0.21346013
vn -0.68933547 0.6922798 0.21346013
vn -0.68933684 0.6922788 0.2134593
vn -0.6893369 0.6922788 0.21345928
vn -0.689336 0.6922805 0.2134566
vn -0.68933594 0.69228053 0.21345662
vn -0.68933594 0.6922805 0.21345662
vn -0.6893346 0.6922805 0.21346118
vn -0.6893346 0.6922805 0.21346119
vn -0.6893347 0.6922807 0.21346018
vn -0.6893349 0.6922802 0.21346056
vn -0.68933475 0.6922807 0.21345992
vn -0.68933433 0.6922808 0.21346042
vn -0.689335 0.6922803 0.21346056
vn -0.68933433 0.6922808 0.21346045
vn -0.68933433 0.6922808 0.2134604
g Device_Prop_Box_007_v_033_0
f 3/3/3 2/2/2 1/1/1
f 5/5/5 4/4/4 1/1/1
f 1/1/1 4/4/4 6/6/6
f 7/7/7 1/1/1 6/6/6
f 4/4/4 8/8/8 6/6/6
f 9/9/9 8/8/8 4/4/4
f 6/6/6 8/8/8 10/10/10
f 11/11/11 7/7/7 6/6/6
f 12/12/12 11/11/11 6/6/6
f 13/13/13 7/7/7 11/11/11
f 16/16/16 15/15/15 14/14/14
f 14/14/14 15/15/15 17/17/17
f 18/18/18 17/17/17 15/15/15
f 17/17/17 19/19/19 14/14/14
f 20/20/20 14/14/14 19/19/19
f 14/14/14 20/20/20 21/21/21
f 24/24/24 23/23/23 22/22/22
f 25/25/25 22/22/22 23/23/23
f 25/25/25 26/26/26 22/22/22
f 27/27/27 26/26/26 25/25/25
f 25/25/25 23/23/23 28/28/28
f 29/29/29 28/28/28 23/23/23
f 30/30/30 29/29/29 23/23/23
f 33/33/33 32/32/32 31/31/31
f 32/32/32 34/34/34 31/31/31
f 35/35/35 31/31/31 34/34/34
f 35/35/35 36/36/36 31/31/31
f 37/37/37 31/31/31 36/36/36
f 31/31/31 37/37/37 38/38/38
f 41/41/41 40/40/40 39/39/39
f 40/40/40 42/42/42 39/39/39
f 43/43/43 39/39/39 42/42/42
f 46/46/46 45/45/45 44/44/44
f 44/44/44 45/45/45 47/47/47
f 48/48/48 47/47/47 45/45/45
f 51/51/51 50/50/50 49/49/49
f 52/52/52 49/49/49 50/50/50
f 52/52/52 53/53/53 49/49/49
f 53/53/53 54/54/54 49/49/49
f 57/57/57 56/56/56 55/55/55
f 55/55/55 56/56/56 58/58/58
f 59/59/59 58/58/58 56/56/56
f 62/62/62 61/61/61 60/60/60
f 63/63/63 60/60/60 61/61/61
f 60/60/60 63/63/63 64/64/64
f 67/67/67 66/66/66 65/65/65
f 66/66/66 68/68/68 65/65/65
f 69/69/69 65/65/65 68/68/68
f 72/72/72 71/71/71 70/70/70
f 70/70/70 71/71/71 73/73/73
f 74/74/74 73/73/73 71/71/71
f 73/73/73 75/75/75 70/70/70
f 76/76/76 70/70/70 75/75/75
f 79/79/79 78/78/78 77/77/77
f 78/78/78 80/80/80 77/77/77
f 81/81/81 77/77/77 80/80/80
f 81/81/81 82/82/82 77/77/77
f 83/83/83 77/77/77 82/82/82
f 86/86/86 85/85/85 84/84/84
f 85/85/85 87/87/87 84/84/84
f 88/88/88 84/84/84 87/87/87
f 88/88/88 89/89/89 84/84/84
f 90/90/90 84/84/84 89/89/89
f 93/93/93 92/92/92 91/91/91
f 92/92/92 94/94/94 91/91/91
f 95/95/95 91/91/91 94/94/94
f 98/98/98 97/97/97 96/96/96
f 99/99/99 96/96/96 97/97/97
f 96/96/96 99/99/99 100/100/100
f 103/103/103 102/102/102 101/101/101
f 102/102/102 104/104/104 101/101/101
f 105/105/105 101/101/101 104/104/104
f 108/108/108 107/107/107 106/106/106
f 109/109/109 106/106/106 107/107/107
f 112/112/112 111/111/111 110/110/110
f 111/111/111 113/113/113 110/110/110
f 113/113/113 114/114/114 110/110/110
f 110/110/110 114/114/114 115/115/115
f 114/114/114 116/116/116 115/115/115
f 117/117/117 114/114/114 113/113/113
f 118/118/118 114/114/114 117/117/117
f 119/119/119 113/113/113 111/111/111
f 120/120/120 113/113/113 119/119/119
f 121/121/121 120/120/120 119/119/119
f 122/122/122 119/119/119 111/111/111
f 123/123/123 122/122/122 111/111/111
f 126/126/126 125/125/125 124/124/124
f 125/125/125 127/127/127 124/124/124
f 128/128/128 127/127/127 125/125/125
f 127/127/127 129/129/129 124/124/124
f 129/129/129 130/130/130 124/124/124
f 124/124/124 130/130/130 131/131/131
f 132/132/132 130/130/130 129/129/129
f 133/133/133 130/130/130 132/132/132
f 134/134/134 132/132/132 129/129/129
f 135/135/135 132/132/132 134/134/134
