g Device_Prop_Box_01_v_007
v 0.0013088833 0.19579859 0.029625723
v 0.001322303 -0.09550231 0.061589953
v 0.001322303 0.26157466 0.061589967
v 0.05239736 -0.05033873 -0.05341004
v 0.05239736 -0.003929908 -0.05341003
v 0.04428305 0.00065032975 -0.05341003
v -0.028677633 0.041834146 -0.053410016
v -0.028677657 -0.13070187 -0.05341002
v 0.04436536 -0.108842425 -0.05341004
v 0.05239736 -0.10643868 -0.05341004
v 0.10236931 -0.09148363 -0.05341004
v 0.11386025 -0.05033873 -0.05341004
v 0.001322303 -0.09550231 0.061589953
v 0.0013199049 -0.13999754 0.05279818
v 0.0013223272 -0.14150943 0.061589953
v 0.0012729359 -0.12820812 -0.015807386
v 0.001322303 -0.09550231 0.061589953
v 0.0012691328 -0.12689891 -0.023423512
v 0.0012865978 -0.050430108 -0.023424175
v 0.0012865978 -0.050430108 -0.023424175
v 0.041878935 -0.11474748 -0.023412948
v 0.0012691328 -0.12689891 -0.023423512
v 0.05239736 -0.11160014 -0.02341004
v 0.05239736 -0.0503589 -0.023410035
v 0.115681216 -0.09266124 -0.02341004
v 0.12749544 -0.0503589 -0.02341004
v 0.05239736 -0.0503589 -0.023410035
v 0.12579302 -0.05035638 -0.027155673
v 0.12749544 -0.0503589 -0.02341004
v 0.11386025 -0.05033873 -0.05341004
v 0.05239736 -0.05033873 -0.05341004
v 0.10236931 -0.09148363 -0.05341004
v 0.12579302 -0.05035638 -0.027155673
v 0.11386025 -0.05033873 -0.05341004
v 0.12749544 -0.0503589 -0.02341004
v 0.115681216 -0.09266124 -0.02341004
v -0.0019530542 -0.14248963 0.061589953
v 0.001322303 -0.09550231 0.061589953
v 0.0013223272 -0.14150943 0.061589953
v -0.01559883 -0.14657341 0.061589953
v 0.001322303 0.26157466 0.061589967
v -0.0014709616 0.2631514 0.06158998
v -0.028677681 -0.15048745 0.061589953
v -0.028677706 0.27850866 0.06158998
v 0.0013199049 -0.13999754 0.05279818
v -0.0019530542 -0.14248963 0.061589953
v 0.0013223272 -0.14150943 0.061589953
v 0.0012729359 -0.12820812 -0.015807386
v 0.0012691328 -0.12689891 -0.023423512
v -0.028677657 -0.13070187 -0.05341002
v -0.02867773 -0.14074795 0.0049805706
v -0.01559883 -0.14657341 0.061589953
v -0.028677681 -0.15048745 0.061589953
v 0.115681216 -0.09266124 -0.02341004
v 0.04436536 -0.108842425 -0.05341004
v 0.041878935 -0.11474748 -0.023412948
v 0.05239736 -0.11160014 -0.02341004
v 0.05239736 -0.10643868 -0.05341004
v 0.10236931 -0.09148363 -0.05341004
v -0.028677681 -0.15048745 0.061589953
v -0.028677706 0.2577564 0.05150646
v -0.028677706 0.27850866 0.06158998
v -0.02867773 -0.14074795 0.0049805706
v -0.028677633 0.041834146 -0.053410016
v -0.028677657 -0.13070187 -0.05341002
v 0.052398834 0.0038689438 -0.04962017
v 0.05239736 -0.0503589 -0.023410035
v 0.05240029 0.05778443 -0.023422258
v 0.05239736 -0.05033873 -0.05341004
v 0.05239736 -0.003929908 -0.05341003
v 0.03729157 0.066314824 -0.023421265
v 0.0012865978 -0.050430108 -0.023424175
v 0.0013032393 0.08660597 -0.023432454
v 0.05239736 -0.0503589 -0.023410035
v 0.05240029 0.05778443 -0.023422258
v 0.0013088833 0.19579859 0.029625723
v 0.0012865978 -0.050430108 -0.023424175
v 0.001322303 -0.09550231 0.061589953
v 0.0013032393 0.08660597 -0.023432454
v -0.0014709616 0.2631514 0.06158998
v 0.0013088833 0.19579859 0.029625723
v 0.001322303 0.26157466 0.061589967
v 0.0013032393 0.08660597 -0.023432454
v -0.028677633 0.041834146 -0.053410016
v -0.028677706 0.2577564 0.05150646
v -0.028677706 0.27850866 0.06158998
v 0.04428305 0.00065032975 -0.05341003
v 0.05239736 -0.003929908 -0.05341003
v 0.05240029 0.05778443 -0.023422258
v 0.03729157 0.066314824 -0.023421265
v 0.052398834 0.0038689438 -0.04962017
vt 1.3834376 0.84263194
vt 1.2288079 0.8426319
vt 1.4186482 0.8426319
vt 1.315578 0.04763946
vt 1.3399856 0.04763946
vt 1.3423944 0.04337194
vt 1.364054 0.005000089
vt 1.273313 0.005000103
vt 1.2848095 0.043415245
vt 1.2860736 0.04763946
vt 1.2939389 0.07392091
vt 1.315578 0.07996429
vt 1.2288079 0.8426319
vt 1.2056689 0.8426319
vt 1.2048827 0.8426318
vt 1.2178022 0.8426319
vt 1.2288079 0.8426319
vt 1.2186985 0.8426319
vt 1.2521305 0.8426319
vt 1.6607503 0.71904534
vt 1.6607503 0.71904534
vt 1.6607503 0.71904534
vt 1.6607503 0.7190453
vt 1.6607503 0.71904534
vt 1.6607503 0.68576276
vt 1.6607503 0.6795494
vt 1.005 0.8983732
vt 1.0436006 0.9003432
vt 1.0444959 0.8983732
vt 1.0373248 0.91415125
vt 1.005 0.9141512
vt 0.032644093 0
vt 0.068795376 0.022568226
vt 0.06628139 0
vt 0.06915404 0.025787964
vt 0.03457048 0.025787959
vt 1.2043731 0.8443545
vt 1.2288079 0.8426319
vt 1.2048827 0.8426318
vt 1.2044766 0.8515311
vt 1.4186482 0.8426319
vt 1.4199522 0.84410095
vt 1.2024262 0.85840964
vt 1.4280457 0.85840964
vt 0.008222924 0.024626102
vt 0.001067791 0.02193922
vt 0.0011986542 0.024628086
vt 0.06303485 0.024587536
vt 0.06911977 0.024584427
vt 0.09188157 7.6293944E-08
vt 0.045229215 0
vt 0.00052256585 0.010736942
vt 0 5.7220458E-08
vt 0.07368037 0.11850923
vt 0.094800025 0.059963588
vt 0.0707339 0.0579224
vt 0.07115184 0.06655735
vt 0.09512095 0.06655733
vt 0.0971176 0.10758104
vt 1.3256094 0.47036183
vt 1.1109041 0.46505865
vt 1.09999 0.47036186
vt 1.3204873 0.44058958
vt 1.2244629 0.40988058
vt 1.3152038 0.40988058
vt 1.8298182 0.6066722
vt 1.8435996 0.6351801
vt 1.8435996 0.57831013
vt 1.8278219 0.6351801
vt 1.8278219 0.6107726
vt 1.8435996 0.57443374
vt 1.8435996 0.6351801
vt 1.8435996 0.5638449
vt 1.8435996 0.6351801
vt 1.8435996 0.57831013
vt 1.3834376 0.84263194
vt 1.2521305 0.8426319
vt 1.2288079 0.8426319
vt 1.3252304 0.8426319
vt 0.023201905 0.23224422
vt 0.02774826 0.17367667
vt 0.021080818 0.23087318
vt 0.038803063 0.07872673
vt 0.06781275 0.03979477
vt 0.045961685 0.22755294
vt 0.04386156 0.24559838
vt 0.012409496 0.003982811
vt 0.0062478255 0
vt 0 0.05366455
vt 0.011472721 0.061082266
vt 0.005457382 0.006781597
vn 1 0 -0.00041983553
vn 1 0 -0.00041983553
vn 1 0 -0.00041983553
vn -0 0 -1
vn -0 0 -1
vn -0 0 -1
vn -0 0 -1
vn -0 0 -1
vn -2.988891E-07 0 -1
vn -0 0 -1
vn -0 0 -1
vn -0 0 -1
vn 1 5.265127E-07 -0.00027543216
vn 1 5.265127E-07 -0.0002754322
vn 1 5.265127E-07 -0.0002754322
vn 0.99999976 7.870595E-05 -0.00067109894
vn 0.9999999 -0.00023297584 -0.0005393916
vn 0.9999999 -0.00023297586 -0.0005393916
vn 0.9999999 -0.00022839874 -0.000541082
vn -0.0002627568 8.7317E-06 1
vn -0.0002627568 8.7317E-06 1
vn -0.0002627568 8.7317E-06 1
vn -0.00027639105 0 1
vn -0.00027666116 0 1
vn -0 0 1
vn -0 0 1
vn -0 0.99999976 0.000672298
vn -0 0.99999976 0.0006725769
vn -0 0.99999976 0.0006725768
vn -0 0.99999976 0.000672298
vn -0 0.99999976 0.00067229796
vn 0.88225013 -0.24639463 -0.4011538
vn 0.88225013 -0.24639466 -0.40115383
vn 0.88225013 -0.24639466 -0.40115383
vn 0.88224995 -0.24639428 -0.4011544
vn 0.8822503 -0.2463954 -0.401153
vn -0 0 1
vn -0 0 1
vn -0 0 1
vn 4.2205043E-06 0 1
vn 4.2205043E-06 0 1
vn -0 0 1
vn -0 0 1
vn -0 0 1
vn 0.28288546 -0.9452656 -0.16263059
vn 0.2828891 -0.9452644 -0.16263159
vn 0.28288552 -0.9452656 -0.1626306
vn 0.28288314 -0.9452662 -0.16263169
vn 0.2828944 -0.945263 -0.16263062
vn 0.28288776 -0.94526523 -0.16262922
vn 0.28288564 -0.9452655 -0.1626309
vn 0.28288564 -0.9452655 -0.1626309
vn 0.28288564 -0.9452655 -0.1626309
vn 0.2828156 -0.94502115 -0.16416557
vn 0.2828893 -0.945264 -0.1626336
vn 0.2828156 -0.94502115 -0.16416559
vn 0.2828156 -0.94502115 -0.16416557
vn 0.2828884 -0.9452646 -0.16263136
vn 0.2828884 -0.9452646 -0.16263138
vn -1 0 8.4920634E-07
vn -1 0 8.4920634E-07
vn -1 0 0
vn -1 0 -1.2203944E-06
vn -1 0 -1.2203944E-06
vn -1 0 -1.2203944E-06
vn 1 -2.7103097E-05 3.006705E-07
vn 1 -2.7103097E-05 3.0067048E-07
vn 1 -2.7103104E-05 3.0067048E-07
vn 1 0 -0.0003898882
vn 1 0 -0.0003898882
vn -0.00027680313 6.044341E-05 1
vn -0.00027680313 6.044341E-05 1
vn -0.00027680313 6.044341E-05 1
vn 0.00012955013 0.00011302886 1
vn 0.00012955013 0.00011302886 1
vn 1 0 -0.00041983553
vn 1 -0.00012142961 0.0001435251
vn 1 0 -0.00041983553
vn 1 -0.0001214296 0.00014352509
vn 0.2395155 0.42431775 -0.87326217
vn 0.2395155 0.42431775 -0.87326217
vn 0.2395155 0.4243177 -0.87326217
vn 0.23963955 0.4245426 -0.87311876
vn 0.23951271 0.42431787 -0.8732628
vn 0.23951294 0.42431796 -0.8732627
vn 0.2395129 0.42431793 -0.8732627
vn 0.23951204 0.42431766 -0.87326306
vn 0.23934084 0.4243365 -0.8733009
vn 0.23934081 0.42433643 -0.8733009
vn 0.23963955 0.4245426 -0.87311876
vn 0.23934087 0.4243365 -0.8733009
g Device_Prop_Box_01_v_007_0
f 3/3/3 2/2/2 1/1/1
f 6/6/6 5/5/5 4/4/4
f 7/7/7 6/6/6 4/4/4
f 8/8/8 7/7/7 4/4/4
f 9/9/9 8/8/8 4/4/4
f 10/10/10 9/9/9 4/4/4
f 10/10/10 4/4/4 11/11/11
f 12/12/12 11/11/11 4/4/4
f 15/15/15 14/14/14 13/13/13
f 16/16/16 13/13/13 14/14/14
f 16/16/16 18/18/18 17/17/17
f 19/19/19 17/17/17 18/18/18
f 22/22/22 21/21/21 20/20/20
f 21/21/21 23/23/23 20/20/20
f 23/23/23 24/24/24 20/20/20
f 23/23/23 25/25/25 24/24/24
f 26/26/26 24/24/24 25/25/25
f 29/29/29 28/28/28 27/27/27
f 28/28/28 30/30/30 27/27/27
f 30/30/30 31/31/31 27/27/27
f 34/34/34 33/33/33 32/32/32
f 33/33/33 35/35/35 32/32/32
f 35/35/35 36/36/36 32/32/32
f 39/39/39 38/38/38 37/37/37
f 38/38/38 40/40/40 37/37/37
f 41/41/41 40/40/40 38/38/38
f 42/42/42 40/40/40 41/41/41
f 43/43/43 40/40/40 42/42/42
f 44/44/44 43/43/43 42/42/42
f 47/47/47 46/46/46 45/45/45
f 46/46/46 48/48/48 45/45/45
f 49/49/49 48/48/48 46/46/46
f 50/50/50 49/49/49 46/46/46
f 51/51/51 50/50/50 46/46/46
f 52/52/52 51/51/51 46/46/46
f 53/53/53 51/51/51 52/52/52
f 54/54/54 49/49/49 50/50/50
f 55/55/55 54/54/54 50/50/50
f 56/56/56 49/49/49 54/54/54
f 57/57/57 56/56/56 54/54/54
f 58/58/58 54/54/54 55/55/55
f 59/59/59 54/54/54 58/58/58
f 62/62/62 61/61/61 60/60/60
f 61/61/61 63/63/63 60/60/60
f 64/64/64 63/63/63 61/61/61
f 65/65/65 63/63/63 64/64/64
f 68/68/68 67/67/67 66/66/66
f 67/67/67 69/69/69 66/66/66
f 69/69/69 70/70/70 66/66/66
f 73/73/73 72/72/72 71/71/71
f 72/72/72 74/74/74 71/71/71
f 74/74/74 75/75/75 71/71/71
f 78/78/78 77/77/77 76/76/76
f 77/77/77 79/79/79 76/76/76
f 82/82/82 81/81/81 80/80/80
f 81/81/81 83/83/83 80/80/80
f 83/83/83 84/84/84 80/80/80
f 84/84/84 85/85/85 80/80/80
f 85/85/85 86/86/86 80/80/80
f 87/87/87 84/84/84 83/83/83
f 88/88/88 87/87/87 83/83/83
f 89/89/89 88/88/88 83/83/83
f 90/90/90 89/89/89 83/83/83
f 91/91/91 88/88/88 89/89/89
