g Device_Prop_Box_01_v_041
v 0.118803166 0.025943136 0.33726874
v 0.12062154 0.025943184 -0.11720149
v 0.12062156 0.025943112 0.33791566
v 0.1176216 0.025943184 -0.11457148
v 0.1176216 0.025943112 0.33684838
v 0.12062156 0.0011311809 0.3433257
v 0.12062154 -0.014594264 -0.11720149
v 0.12062156 -0.014594313 0.34675455
v 0.12062154 0.025943184 -0.11720149
v 0.12062156 0.025943112 0.33791566
v 0.11946577 -0.014577647 0.34633967
v 0.11762155 -0.014551026 -0.11457148
v 0.11762155 -0.014551098 0.3456778
v 0.12062154 -0.014594264 -0.11720149
v 0.12062156 -0.014594313 0.34675455
v 0.114621565 0.02594316 -0.11757152
v -0.35994458 0.0034456472 -0.12020151
v 0.11762155 0.02594316 -0.12020151
v -0.35998344 0.0034953535 -0.119242474
v -0.36016613 0.0033961833 -0.11757152
v -0.38592944 -0.03838203 -0.11842865
v 0.11762155 -0.014594289 -0.12020153
v -0.38575476 -0.03830769 -0.12020153
v 0.11462151 -0.014551026 -0.11757152
v -0.38595504 -0.03832271 -0.11757152
v 0.12062154 0.025943184 -0.11720149
v 0.11762155 -0.014594289 -0.12020153
v 0.12062154 -0.014594264 -0.11720149
v 0.11762155 0.02594316 -0.12020151
v 0.1176216 0.025943184 -0.11457148
v 0.11762155 0.02594316 -0.12020151
v 0.12062154 0.025943184 -0.11720149
v 0.114621565 0.02594316 -0.11757152
v 0.12062154 -0.014594264 -0.11720149
v 0.11462151 -0.014551026 -0.11757152
v 0.11762155 -0.014551026 -0.11457148
v 0.11762155 -0.014594289 -0.12020153
v 0.11762157 0.010102509 0.3403022
v 0.1176216 0.025943184 -0.11457148
v 0.1176216 0.025943112 0.33684838
v 0.11762155 -0.014551026 -0.11457148
v 0.11762155 -0.014551098 0.3456778
v -0.37721443 -0.024182923 -0.11757152
v 0.11462151 -0.014551026 -0.11757152
v -0.38595504 -0.03832271 -0.11757152
v 0.114621565 0.02594316 -0.11757152
v -0.36016613 0.0033961833 -0.11757152
v 0.1176216 0.025943184 -0.11457148
v 0.11462151 -0.014551026 -0.11757152
v 0.114621565 0.02594316 -0.11757152
v 0.11762155 -0.014551026 -0.11457148
v 0.11762157 0.010102509 0.3403022
v 0.11946577 -0.014577647 0.34633967
v 0.11762155 -0.014551098 0.3456778
v 0.118803166 0.025943136 0.33726874
v 0.1176216 0.025943112 0.33684838
v 0.12062156 0.0011311809 0.3433257
v 0.12062156 -0.014594313 0.34675455
v 0.12062156 0.025943112 0.33791566
v 0.11762155 -0.014594289 -0.12020153
v -0.36900803 -0.011216466 -0.12020151
v -0.38575476 -0.03830769 -0.12020153
v -0.35994458 0.0034456472 -0.12020151
v 0.11762155 0.02594316 -0.12020151
v -0.38592944 -0.03838203 -0.11842865
v -0.37721443 -0.024182923 -0.11757152
v -0.38595504 -0.03832271 -0.11757152
v -0.36900803 -0.011216466 -0.12020151
v -0.38575476 -0.03830769 -0.12020153
v -0.35998344 0.0034953535 -0.119242474
v -0.36016613 0.0033961833 -0.11757152
v -0.35994458 0.0034456472 -0.12020151
vt 0.20303221 0.97519386
vt 0.0046845265 0.9760124
vt 0.20295815 0.9760124
vt 0.0058219023 0.97466195
vt 0.2028446 0.97466195
vt 0.20531042 0.9868235
vt 0.0046931095 0.9936754
vt 0.20680748 0.99367535
vt 0.0046845265 0.9760124
vt 0.20295815 0.9760124
vt 0.20662682 0.99419576
vt 0.0058390684 0.995026
vt 0.20672126 0.995026
vt 0.0046931095 0.9936754
vt 0.20680748 0.99367535
vt 1.3345976 0.97466195
vt 1.5419103 0.97601247
vt 1.3338997 0.9760124
vt 1.5417051 0.97552
vt 1.5421506 0.97466195
vt 1.5536324 0.9945859
vt 1.3339071 0.9936755
vt 1.553149 0.9936755
vt 1.3346094 0.995026
vt 1.5534452 0.995026
vt 1.3324721 0.9760124
vt 1.3339071 0.9936755
vt 1.3324645 0.9936754
vt 1.3338997 0.9760124
vt 1.3319135 0.97466195
vt 1.3338997 0.9760124
vt 1.3324721 0.9760124
vt 1.3345976 0.97466195
vt 1.3324645 0.9936754
vt 1.3346094 0.995026
vt 1.3319402 0.995026
vt 1.3339071 0.9936755
vt 0.20435205 0.97466195
vt 0.0058219023 0.97466195
vt 0.2028446 0.97466195
vt 0.0058219023 0.97466195
vt 0.20669818 0.97466195
vt 1.5496033 0.97466195
vt 1.3345976 0.97466195
vt 1.5534241 0.97466195
vt 1.3345976 0.97466195
vt 1.5421506 0.97466195
vt 1.3319135 0.97466195
vt 1.3345976 0.97466195
vt 1.3345976 0.97466195
vt 1.3319135 0.97466195
vt 0.0009115601 0.0198524
vt 0.0038731385 1.3399124E-05
vt 0.0023303223 3.472328E-05
vt 0.0009874725 0.032585762
vt 0 0.032585744
vt 0.0039350893 0.0126408385
vt 0.004840088 0
vt 0.0025071716 0.032585762
vt 1.3339071 0.9936755
vt 1.5458606 0.98221505
vt 1.553149 0.9936755
vt 1.5419103 0.97601247
vt 1.3338997 0.9760124
vt 0.038790274 0.0013986301
vt 0.025671987 0.0020748235
vt 0.03876115 0.0020748235
vt 0.013589868 0
vt 0.038668167 0
vt 0 0.000756588
vt 0.00014204979 0.0020748235
vt 1.7185212E-05 9.536743E-09
vn -2.055832E-05 1 0
vn -0 1 0
vn 1.326445E-05 1 0
vn -2.055832E-05 1 0
vn -2.0558318E-05 1 0
vn 1 0 0
vn 1 0 0
vn 1 0 0
vn 1 0 0
vn 1 0 0
vn -0.0144177135 -0.99989605 0
vn -0.014411529 -0.99989617 0
vn -0.014394123 -0.9998964 0
vn -0.014417712 -0.99989605 0
vn -0.0144177135 -0.99989605 0
vn -0.04698886 0.9974564 -0.05359912
vn -0.046988863 0.9974564 -0.053599123
vn -0.046988852 0.9974564 -0.053599123
vn -0.046988834 0.99745613 -0.053602435
vn -0.047365826 0.997416 0.054017
vn 0.047317542 -0.99639773 0.07037423
vn 0.047317587 -0.9963983 0.07036531
vn 0.047023896 -0.99819994 -0.037224524
vn 0.04731754 -0.99639773 0.07037422
vn 0.047317542 -0.99639773 0.07037422
vn 0.70711195 0 -0.7071016
vn 0.7071119 0 -0.7071016
vn 0.7071119 0 -0.7071016
vn 0.7071119 0 -0.7071016
vn -3.7719312E-06 1 -4.3024856E-06
vn -3.7719312E-06 1 -4.3024856E-06
vn -3.7719312E-06 1 -4.3024856E-06
vn -3.7718696E-06 1 -4.302485E-06
vn -0.0076795896 -0.999941 0.007679601
vn -0.0076795896 -0.999941 0.007679601
vn -0.0076795896 -0.999941 0.0076796003
vn -0.007680112 -0.999941 0.0076880734
vn -1 9.82547E-07 0
vn -1 1.1963848E-06 0
vn -1 1.5291922E-06 0
vn -1 9.82547E-07 0
vn -1 9.825471E-07 0
vn -0 0 1
vn -0 0 1
vn -0 0 1
vn -0 0 1
vn -0 0 1
vn -0.7071063 8.1953505E-07 0.70710725
vn -0.7071063 8.1953505E-07 0.70710725
vn -0.7071063 8.1953505E-07 0.70710725
vn -0.70710623 8.1292535E-07 0.7071073
vn -0.3283198 0.2012302 0.92288274
vn -0.32838044 0.2012252 0.9228623
vn -0.32831982 0.20123018 0.92288274
vn -0.32831994 0.20122713 0.92288333
vn -0.32834086 0.20122033 0.9228773
vn -0.3283199 0.20122713 0.92288333
vn -0.3283804 0.20122524 0.9228623
vn -0.32831994 0.20122713 0.92288333
vn -0 0 -1
vn -0 0 -1
vn -0 0 -1
vn -0 0 -1
vn -0 0 -1
vn -0.84898615 0.5248054 -0.061659425
vn -0.84898347 0.5248071 -0.061681464
vn -0.84898615 0.5248054 -0.061659425
vn -0.84898776 0.5248076 -0.061617635
vn -0.8489854 0.5248089 -0.061640274
vn -0.84898776 0.5248076 -0.061617628
vn -0.84898347 0.5248071 -0.061681464
vn -0.84898776 0.5248076 -0.061617635
g Device_Prop_Box_01_v_041_0
f 3/3/3 2/2/2 1/1/1
f 2/2/2 4/4/4 1/1/1
f 4/4/4 5/5/5 1/1/1
f 8/8/8 7/7/7 6/6/6
f 7/7/7 9/9/9 6/6/6
f 9/9/9 10/10/10 6/6/6
f 13/13/13 12/12/12 11/11/11
f 12/12/12 14/14/14 11/11/11
f 14/14/14 15/15/15 11/11/11
f 18/18/18 17/17/17 16/16/16
f 17/17/17 19/19/19 16/16/16
f 19/19/19 20/20/20 16/16/16
f 23/23/23 22/22/22 21/21/21
f 22/22/22 24/24/24 21/21/21
f 24/24/24 25/25/25 21/21/21
f 28/28/28 27/27/27 26/26/26
f 29/29/29 26/26/26 27/27/27
f 32/32/32 31/31/31 30/30/30
f 33/33/33 30/30/30 31/31/31
f 36/36/36 35/35/35 34/34/34
f 37/37/37 34/34/34 35/35/35
f 40/40/40 39/39/39 38/38/38
f 39/39/39 41/41/41 38/38/38
f 41/41/41 42/42/42 38/38/38
f 45/45/45 44/44/44 43/43/43
f 44/44/44 46/46/46 43/43/43
f 46/46/46 47/47/47 43/43/43
f 50/50/50 49/49/49 48/48/48
f 51/51/51 48/48/48 49/49/49
f 54/54/54 53/53/53 52/52/52
f 53/53/53 55/55/55 52/52/52
f 55/55/55 56/56/56 52/52/52
f 57/57/57 55/55/55 53/53/53
f 58/58/58 57/57/57 53/53/53
f 59/59/59 55/55/55 57/57/57
f 62/62/62 61/61/61 60/60/60
f 61/61/61 63/63/63 60/60/60
f 63/63/63 64/64/64 60/60/60
f 67/67/67 66/66/66 65/65/65
f 66/66/66 68/68/68 65/65/65
f 68/68/68 69/69/69 65/65/65
f 70/70/70 68/68/68 66/66/66
f 71/71/71 70/70/70 66/66/66
f 72/72/72 68/68/68 70/70/70
