g Device_Prop_Box_010_v_019
v -0.01270407 -0.61351913 0.30040812
v 0.0010095314 0.57957137 0.3004083
v -0.01270407 0.5820062 0.3004083
v 0.01269593 -0.61351913 0.30040812
v 0.01269593 0.5774961 0.3004083
v 0.01269593 -0.61351913 0.30040812
v 0.0021046195 -0.613519 -0.25033763
v 0.012696027 -0.613519 -0.25099602
v -0.01270407 -0.61351913 0.30040812
v -0.01270407 -0.613519 -0.24941704
v 0.01269593 0.5774961 0.3004083
v 0.01269593 0.48285675 -0.3490322
v 0.01269593 0.59630054 -0.22397877
v 0.01269593 -0.61351913 0.30040812
v 0.01269593 0.47131914 -0.34800047
v 0.012696027 -0.613519 -0.25099602
v 0.01269593 0.59630054 -0.22397877
v -0.01270407 0.47254092 -0.3465308
v -0.01270407 0.6001605 -0.20585081
v 0.01269593 0.48285675 -0.3490322
v 0.01269593 0.47131914 -0.34800047
v -0.01270407 0.47254092 -0.3465308
v 0.01269593 0.48285675 -0.3490322
v 0.0021046195 -0.613519 -0.25033763
v 0.012696027 -0.613519 -0.25099602
v -0.01270407 -0.613519 -0.24941704
v -0.01270407 -0.61351913 0.30040812
v -0.01270407 0.47254092 -0.3465308
v -0.01270407 -0.613519 -0.24941704
v -0.01270407 0.5820062 0.3004083
v -0.01270407 0.6001605 -0.20585081
v -0.01270407 0.6001605 -0.20585081
v 0.01269593 0.5774961 0.3004083
v 0.01269593 0.59630054 -0.22397877
v 0.0010095314 0.57957137 0.3004083
v -0.01270407 0.5820062 0.3004083
vt 0.06986674 0.74004924
vt 0.30952078 0.74004924
vt 0.3100098 0.74004924
vt 0.06986674 0.74004924
vt 0.30910394 0.74004924
vt 0.06986674 0.74004924
vt 0.06986674 0.6294219
vt 0.06986674 0.6292897
vt 0.06986674 0.74004924
vt 0.06986674 0.62960684
vt 0.30910394 0.74004924
vt 0.29009378 0.6095973
vt 0.31288105 0.6347166
vt 0.06986674 0.74004924
vt 0.28777623 0.6098045
vt 0.06986674 0.6292897
vt 0.8533418 0.021304207
vt 0.71639603 3.5208E-08
vt 0.86595595 2.755185E-08
vt 0.72039485 0.021304207
vt 5.039215E-05 0.8575984
vt 0.020083657 0.8585642
vt 0 0.8667192
vt 0.013145218 0
vt 0.0047893906 0
vt 0.02482807 0
vt 0.06986674 0.74004924
vt 0.28802168 0.6100997
vt 0.06986674 0.62960684
vt 0.3100098 0.74004924
vt 0.31365642 0.6383578
vt 0.01415596 3.8146972E-08
vt 0.41316855 0.020312423
vt 0 0.020312423
vt 0.41311005 0.010966796
vt 0.4130413 0
vn -0 0 -1
vn -0 0 -1
vn -0 0 -1
vn -0 0 -1
vn -0 0 -1
vn -0 1 0
vn -0 1 0
vn -0 1 0
vn -0 1 0
vn -0 1 0
vn -1 0 0
vn -1 0 0
vn -1 0 0
vn -1 0 0
vn -1 0 0
vn -1 0 0
vn 0.3445077 -0.6953106 0.63075954
vn 0.3445077 -0.69531065 0.63075954
vn 0.3445077 -0.69531065 0.63075954
vn 0.3445077 -0.69531065 0.63075954
vn 0.06179727 0.08889664 0.99412197
vn 0.06179726 0.08889664 0.99412197
vn 0.06179727 0.08889664 0.99412197
vn 0.061799686 0.08889282 0.9941222
vn 0.061797377 0.0888928 0.9941223
vn 0.061799686 0.08889282 0.9941222
vn 1 0 0
vn 1 0 0
vn 1 0 0
vn 1 0 0
vn 1 0 0
vn -0.17471755 -0.98398614 -0.03528538
vn -0.17471755 -0.98398614 -0.03528538
vn -0.17471758 -0.98398614 -0.035285383
vn -0.17472894 -0.9839842 -0.035284717
vn -0.17471084 -0.98398733 -0.03528533
g Device_Prop_Box_010_v_019_0
f 3/3/3 2/2/2 1/1/1
f 1/1/1 2/2/2 4/4/4
f 5/5/5 4/4/4 2/2/2
f 8/8/8 7/7/7 6/6/6
f 6/6/6 7/7/7 9/9/9
f 10/10/10 9/9/9 7/7/7
f 13/13/13 12/12/12 11/11/11
f 11/11/11 12/12/12 14/14/14
f 12/12/12 15/15/15 14/14/14
f 14/14/14 15/15/15 16/16/16
f 19/19/19 18/18/18 17/17/17
f 20/20/20 17/17/17 18/18/18
f 23/23/23 22/22/22 21/21/21
f 22/22/22 24/24/24 21/21/21
f 21/21/21 24/24/24 25/25/25
f 26/26/26 24/24/24 22/22/22
f 29/29/29 28/28/28 27/27/27
f 27/27/27 28/28/28 30/30/30
f 28/28/28 31/31/31 30/30/30
f 34/34/34 33/33/33 32/32/32
f 33/33/33 35/35/35 32/32/32
f 32/32/32 35/35/35 36/36/36
