g Device_Prop_Box_01_v_011
v -0.10811588 0.10841881 -0.035443768
v -0.10811646 0.115989275 -0.034913566
v -0.10811646 0.11639164 -0.035444155
v -0.10811588 0.10841881 -0.035443768
v 0.1541478 0.07230102 -0.03544086
v 0.13818608 0.10847149 -0.035441052
v -0.1745749 0.055868536 -0.035049994
v -0.09762776 -0.09719936 -0.035455007
v -0.108150564 -0.07623931 -0.03545404
v -0.18734476 0.08126767 -0.03497577
v -0.09776215 -0.09719932 -0.03492461
v -0.10817871 -0.097195365 0.0061722975
v -0.110304795 -0.110425696 0.040772513
v -0.108198866 -0.11402503 0.03959274
v -0.10819882 -0.11462063 0.040772513
v -0.13227865 -0.06665555 0.040772513
v -0.17943497 0.027275734 0.040772513
v -0.09762776 -0.09719936 -0.035455007
v -0.1745749 0.055868536 -0.035049994
v -0.108127266 0.10846258 -0.02499828
v -0.10811646 0.115989275 -0.034913566
v -0.10811588 0.10841881 -0.035443768
v -0.10819882 -0.097192034 0.040772513
v -0.108198866 -0.11402503 0.03959274
v -0.10819882 -0.11462063 0.040772513
v -0.10817871 -0.097195365 0.0061722975
v 0.04303051 0.1087382 0.040772513
v -0.021158593 0.09673381 0.040772513
v 0.0061960365 0.1087382 0.040772513
v 0.052831173 0.086529315 0.040772513
v -0.10819882 0.058536995 0.040772513
v -0.10819882 -0.097192034 0.040772513
v 0.13390695 -0.097192034 0.040772513
v -0.13227865 -0.06665555 0.040772513
v -0.11553277 0.055318534 0.040772513
v -0.17943497 0.027275734 0.040772513
v -0.110304795 -0.110425696 0.040772513
v -0.10819882 -0.11462063 0.040772513
v -0.10811588 0.10841881 -0.035443768
v -0.0030775252 0.1087382 0.035407916
v -0.108127266 0.10846258 -0.02499828
v 0.053308617 0.1087382 0.03253038
v 0.13818608 0.10847149 -0.035441052
v 0.0061960365 0.1087382 0.040772513
v 0.04303051 0.1087382 0.040772513
v -0.10819882 -0.097192034 0.040772513
v -0.09776215 -0.09719932 -0.03492461
v -0.10817871 -0.097195365 0.0061722975
v 0.20878735 -0.09719781 -0.01927421
v 0.13390695 -0.097192034 0.040772513
v -0.09762776 -0.09719936 -0.035455007
v 0.22895773 -0.097199105 -0.035449
v -0.09762776 -0.09719936 -0.035455007
v -0.10811588 0.10841881 -0.035443768
v -0.108150564 -0.07623931 -0.03545404
v 0.1541478 0.07230102 -0.03544086
v 0.22895773 -0.097199105 -0.035449
v 0.20878735 -0.09719781 -0.01927421
v 0.1541478 0.07230102 -0.03544086
v 0.22895773 -0.097199105 -0.035449
v 0.052831173 0.086529315 0.040772513
v 0.13390695 -0.097192034 0.040772513
v 0.053308617 0.1087382 0.03253038
v 0.13818608 0.10847149 -0.035441052
v 0.04303051 0.1087382 0.040772513
v -0.1745749 0.055868536 -0.035049994
v -0.108150564 -0.07623931 -0.03545404
v -0.10811588 0.10841881 -0.035443768
v -0.18734476 0.08126767 -0.03497577
v -0.10811646 0.11639164 -0.035444155
v -0.021158593 0.09673381 0.040772513
v -0.0030775252 0.1087382 0.035407916
v 0.0061960365 0.1087382 0.040772513
v -0.10819882 0.058536995 0.040772513
v -0.108127266 0.10846258 -0.02499828
v -0.18734476 0.08126767 -0.03497577
v -0.10811646 0.115989275 -0.034913566
v -0.10811646 0.11639164 -0.035444155
v -0.11553277 0.055318534 0.040772513
v -0.17943497 0.027275734 0.040772513
vt 0.81747836 0.40988058
vt 0.8173686 0.41144764
vt 0.81747836 0.41164657
vt 0.31416458 0.8983732
vt 0.25985807 0.8983732
vt 0.26316327 0.8983731
vt 0.09989342 0.00032699585
vt 0.23479123 0
vt 0.21632415 7.6293946E-07
vt 0.07750867 0.00038692763
vt 0.23474374 0.0004281616
vt 0.23106098 0.03360733
vt 0.23962009 0.061541595
vt 0.24289694 0.060589295
vt 0.24331608 0.061541595
vt 0.2010561 0.061541595
vt 0.11829725 0.061541595
vt 0.23479123 0
vt 0.09989342 0.00032699585
vt 0.815316 0.40988058
vt 0.8173686 0.41144764
vt 0.81747836 0.40988058
vt 0.85394317 0.63518006
vt 0.85418725 0.6316946
vt 0.85394317 0.63157135
vt 0.86110485 0.63518006
vt 0.31557804 0.325491
vt 0.31309247 0.33878177
vt 0.31557804 0.33311784
vt 0.31097955 0.3234617
vt 0.30518353 0.35680404
vt 0.2729388 0.35680407
vt 0.2729388 0.30667442
vt 0.2792616 0.36178997
vt 0.30451715 0.35832262
vt 0.2987107 0.37155402
vt 0.27019864 0.3572401
vt 0.26933008 0.35680407
vt 0.31416458 0.8983732
vt 0.2923985 0.9130404
vt 0.31416458 0.9005356
vt 0.2807234 0.91244453
vt 0.26316327 0.8983731
vt 0.29047835 0.9141512
vt 0.28285152 0.91415125
vt 0.64497256 0.40988055
vt 0.6606405 0.41203243
vt 0.6521342 0.40988055
vt 0.6574011 0.4755075
vt 0.64497256 0.4600102
vt 0.66075027 0.41206023
vt 0.66075027 0.479684
vt 0.31198487 0.8983732
vt 0.31416458 0.8983732
vt 0.31416458 0.8983732
vt 0.25985807 0.8983732
vt 0.24436113 0.8983732
vt 0.13140038 1.0299683E-06
vt 0.10580032 0.13845764
vt 0.15175842 0
vt 0.006020355 0.15008019
vt 0.055823363 5.760193E-06
vt 0.010373687 0.16822167
vt 0.095995404 0.16800381
vt 0 0.1682217
vt 1.2150116 0.81651044
vt 1.2298577 0.81651044
vt 1.1953263 0.81651044
vt 1.2120527 0.81651044
vt 1.1938123 0.81651044
vt 0.05716728 0.13862237
vt 0.048089143 0.1537045
vt 0.05145447 0.16143996
vt 0.0753447 0.06601873
vt 0.010326309 0.066078395
vt 0.017009048 0
vt 0.0005243683 0.066087455
vt 0 0.06608744
vt 0.0768763 0.05990118
vt 0.090221636 0.006597862
vn 1 7.2920324E-05 5.5297798E-05
vn 1 7.2920324E-05 5.5297798E-05
vn 1 7.292033E-05 5.5297798E-05
vn 1.1015092E-05 -4.9672605E-07 -1
vn 1.1015092E-05 -4.9672605E-07 -1
vn 1.1015093E-05 -4.9672605E-07 -1
vn -0.8716679 -0.437603 -0.22067755
vn -0.8716679 -0.437603 -0.22067755
vn -0.8716679 -0.43760306 -0.22067755
vn -0.8716261 -0.4375825 -0.22088361
vn -0.8716383 -0.43758756 -0.22082542
vn -0.87162656 -0.43758172 -0.22088328
vn -0.8716273 -0.4375816 -0.22088079
vn -0.871628 -0.43758044 -0.22087975
vn -0.8716283 -0.4375821 -0.22087552
vn -0.8716261 -0.4375825 -0.22088358
vn -0.8716261 -0.4375825 -0.22088361
vn -0.8727837 -0.43817896 -0.21505308
vn -0.8727837 -0.43817893 -0.21505308
vn 0.9999994 4.588815E-07 0.0010899385
vn 0.9999994 4.588815E-07 0.0010899385
vn 0.9999994 4.588814E-07 0.0010899385
vn 1 0 -4.106439E-05
vn 1 0 -4.106439E-05
vn 1 0 -4.106439E-05
vn 0.9999999 -4.3604214E-05 0.00058108044
vn -0 0 1
vn -0 0 1
vn -0 0 1
vn -0 0 1
vn -0 0 1
vn -0 0 1
vn -0 0 1
vn -0 0 1
vn -0 0 1
vn -0 0 1
vn -0 0 1
vn -0 0 1
vn -0.00021399555 0.9999912 -0.0041906713
vn -0.00021399556 0.9999912 -0.0041906717
vn -0.00021399552 0.9999912 -0.0041906717
vn -0.00021387075 0.9999912 -0.004190857
vn -0.00021385905 0.9999912 -0.004190885
vn -0 1 0
vn -0 1 0
vn -4.2504558E-07 -1 9.626239E-05
vn -4.250457E-07 -1 9.62624E-05
vn -4.2504564E-07 -1 9.62624E-05
vn -0 -1 9.632389E-05
vn -0 -1 9.621282E-05
vn 1.422852E-06 -1 6.88662E-05
vn 7.7730886E-07 -1 8.109081E-05
vn 1.8701438E-05 5.5616518E-05 -1
vn 1.870144E-05 5.5616525E-05 -1
vn 1.8701438E-05 5.5616518E-05 -1
vn 1.8743049E-05 5.561864E-05 -1
vn 1.8394481E-05 5.6136403E-05 -1
vn 0.6030526 0.2661248 0.7520008
vn 0.6030526 0.2661248 0.75200075
vn 0.6030526 0.2661248 0.75200075
vn 0.6030446 0.26612037 0.7520087
vn 0.6030516 0.26612517 0.75200146
vn 0.60305214 0.26612583 0.75200075
vn 0.60305214 0.26612583 0.75200075
vn 0.6030446 0.26612034 0.7520087
vn -0.00596983 5.6740464E-05 -0.99998224
vn -0.005969831 5.6740475E-05 -0.99998224
vn -0.005969831 5.6740468E-05 -0.99998224
vn -0.005892846 -4.0624393E-05 -0.9999827
vn -0.0058899615 -4.9040398E-05 -0.9999827
vn -0.33003435 0.75205547 0.57051724
vn -0.33003435 0.75205547 0.57051724
vn -0.33003435 0.75205547 0.5705173
vn -0.3300352 0.7520554 0.5705168
vn -0.33003268 0.7520518 0.5705231
vn -0.33007365 0.7521454 0.5703758
vn -0.33007365 0.7521454 0.5703758
vn -0.33007368 0.75214547 0.5703758
vn -0.33003256 0.7520578 0.5705152
vn -0.33003256 0.7520578 0.5705152
g Device_Prop_Box_01_v_011_0
f 3/3/3 2/2/2 1/1/1
f 6/6/6 5/5/5 4/4/4
f 9/9/9 8/8/8 7/7/7
f 8/8/8 11/11/11 10/10/10
f 11/11/11 12/12/12 10/10/10
f 10/10/10 12/12/12 13/13/13
f 12/12/12 14/14/14 13/13/13
f 13/13/13 14/14/14 15/15/15
f 16/16/16 10/10/10 13/13/13
f 17/17/17 10/10/10 16/16/16
f 19/19/19 18/18/18 10/10/10
f 22/22/22 21/21/21 20/20/20
f 25/25/25 24/24/24 23/23/23
f 23/23/23 24/24/24 26/26/26
f 29/29/29 28/28/28 27/27/27
f 30/30/30 27/27/27 28/28/28
f 30/30/30 28/28/28 31/31/31
f 32/32/32 30/30/30 31/31/31
f 33/33/33 30/30/30 32/32/32
f 31/31/31 34/34/34 32/32/32
f 35/35/35 34/34/34 31/31/31
f 34/34/34 35/35/35 36/36/36
f 32/32/32 34/34/34 37/37/37
f 32/32/32 37/37/37 38/38/38
f 41/41/41 40/40/40 39/39/39
f 40/40/40 42/42/42 39/39/39
f 39/39/39 42/42/42 43/43/43
f 40/40/40 44/44/44 42/42/42
f 45/45/45 42/42/42 44/44/44
f 48/48/48 47/47/47 46/46/46
f 47/47/47 49/49/49 46/46/46
f 46/46/46 49/49/49 50/50/50
f 47/47/47 51/51/51 49/49/49
f 52/52/52 49/49/49 51/51/51
f 55/55/55 54/54/54 53/53/53
f 54/54/54 56/56/56 53/53/53
f 53/53/53 56/56/56 57/57/57
f 60/60/60 59/59/59 58/58/58
f 59/59/59 61/61/61 58/58/58
f 58/58/58 61/61/61 62/62/62
f 63/63/63 61/61/61 59/59/59
f 64/64/64 63/63/63 59/59/59
f 65/65/65 61/61/61 63/63/63
f 68/68/68 67/67/67 66/66/66
f 66/66/66 69/69/69 68/68/68
f 70/70/70 68/68/68 69/69/69
f 73/73/73 72/72/72 71/71/71
f 72/72/72 74/74/74 71/71/71
f 75/75/75 74/74/74 72/72/72
f 76/76/76 74/74/74 75/75/75
f 77/77/77 76/76/76 75/75/75
f 78/78/78 76/76/76 77/77/77
f 79/79/79 74/74/74 76/76/76
f 80/80/80 79/79/79 76/76/76
