g Device_Prop_Box_01_v_001
v 0.034344487 -0.03454445 -0.0014795851
v 0.034344487 -0.083137944 0.26684126
v 0.034344487 -0.034544498 0.23330729
v 0.034344487 -0.14954436 0.3126678
v 0.034344487 -0.14954431 -0.1164796
v 0.034344487 0.32769582 -0.116479576
v 0.034344465 0.33020756 -0.044064835
v 0.034344487 0.30568123 -0.0014795609
v 0.034344487 0.33107677 -0.0190048
v -0.0798982 -0.14954431 -0.09683926
v 0.034344487 -0.14954431 -0.1164796
v -0.06971379 -0.14954427 -0.11647959
v -0.046730455 -0.14954431 -0.0014795488
v -0.12934656 -0.14954431 -0.0014795488
v -0.019412115 -0.14954436 0.30455586
v -0.04673048 -0.14954436 0.3004335
v 0.034344487 -0.14954436 0.3126678
v -0.07555336 -0.13622448 -0.11647959
v -0.046730455 -0.06846941 -0.11647961
v -0.105258085 -0.06846941 -0.11647961
v 0.034344487 -0.14954431 -0.1164796
v -0.06971379 -0.14954427 -0.11647959
v -0.046730455 0.3101333 -0.11647959
v -0.03907177 0.31179234 -0.11647959
v -0.029283557 0.31391266 -0.11647959
v 0.034344487 0.32769582 -0.116479576
v -0.046730455 -0.06846941 -0.08647962
v -0.046730455 0.31025392 -0.11300161
v -0.046730455 0.31117386 -0.08647959
v -0.046730455 0.3101333 -0.11647959
v -0.046730455 -0.06846941 -0.11647961
v -0.10684898 -0.06846941 -0.11341156
v -0.046730455 -0.06846941 -0.08647962
v -0.12081445 -0.06846941 -0.086479604
v -0.046730455 -0.06846941 -0.11647961
v -0.105258085 -0.06846941 -0.11647961
v -0.10259946 -0.11956218 -0.07840949
v -0.046720646 -0.11951887 -0.0014795366
v -0.1425083 -0.11952303 -0.0014795366
v -0.046674717 -0.11956402 -0.08649678
v -0.09840642 -0.11956257 -0.08649526
v 0.0043964856 -0.11958078 -0.08651405
v -0.046730455 -0.06846941 -0.08647962
v 0.0041671633 -0.06964391 -0.0864964
v -0.046674717 -0.11956402 -0.08649678
v -0.09840642 -0.11956257 -0.08649526
v -0.11809589 -0.07467029 -0.0864796
v -0.12081445 -0.06846941 -0.086479604
v 0.0043964856 -0.11958078 -0.08651405
v 0.0043245424 -0.034892347 -0.0014795488
v 0.0044008214 -0.119442806 -0.0014795366
v 0.0041671633 -0.06964391 -0.0864964
v 0.004188504 0.3222031 -0.08650494
v 0.0042032558 0.32248598 -0.07844113
v 0.004316888 0.29911512 -0.0014795366
v 0.0042904844 0.324565 -0.01904627
v 0.0044008214 -0.119442806 -0.0014795366
v -0.046674717 -0.11956402 -0.08649678
v 0.0043964856 -0.11958078 -0.08651405
v -0.046720646 -0.11951887 -0.0014795366
v 0.0043245424 -0.034892347 -0.0014795488
v 0.034344487 0.30568123 -0.0014795609
v 0.034344487 -0.03454445 -0.0014795851
v 0.0159327 0.30165514 -0.0014795488
v 0.004316888 0.29911512 -0.0014795366
v 0.0043245424 -0.034892347 -0.0014795488
v 0.017741965 -0.03473693 0.23093474
v 0.004333384 -0.03473824 0.22891235
v 0.034344487 -0.034544498 0.23330729
v 0.034344487 -0.03454445 -0.0014795851
v -0.046730503 -0.13279316 0.28887364
v -0.046720646 -0.11951887 -0.0014795366
v -0.046725973 -0.11953262 0.27972338
v -0.046730455 -0.14954431 -0.0014795488
v -0.04673048 -0.14954436 0.3004335
v 0.0044008214 -0.119442806 -0.0014795366
v 0.004372674 -0.077058524 0.25812316
v 0.0044303252 -0.11933923 0.2873094
v 0.004333384 -0.03473824 0.22891235
v 0.0043245424 -0.034892347 -0.0014795488
v -0.046720646 -0.11951887 -0.0014795366
v -0.01864036 -0.11937479 0.28385255
v -0.046725973 -0.11953262 0.27972338
v 0.0044303252 -0.11933923 0.2873094
v 0.0044008214 -0.119442806 -0.0014795366
v 0.017741965 -0.03473693 0.23093474
v 0.004372674 -0.077058524 0.25812316
v 0.004333384 -0.03473824 0.22891235
v 0.034344487 -0.083137944 0.26684126
v 0.034344487 -0.034544498 0.23330729
v 0.0044303252 -0.11933923 0.2873094
v -0.019412115 -0.14954436 0.30455586
v 0.034344487 -0.14954436 0.3126678
v -0.04673048 -0.14954436 0.3004335
v -0.046725973 -0.11953262 0.27972338
v -0.01864036 -0.11937479 0.28385255
v -0.046730503 -0.13279316 0.28887364
v 0.0041671633 -0.06964391 -0.0864964
v -0.04109938 0.3123936 -0.08648146
v 0.004188504 0.3222031 -0.08650494
v -0.046730455 0.31117386 -0.08647959
v -0.046730455 -0.06846941 -0.08647962
v 0.0042904844 0.324565 -0.01904627
v 0.0159327 0.30165514 -0.0014795488
v 0.004316888 0.29911512 -0.0014795366
v 0.034344487 0.30568123 -0.0014795609
v 0.034344487 0.33107677 -0.0190048
v -0.046730455 0.31025392 -0.11300161
v -0.04109938 0.3123936 -0.08648146
v -0.046730455 0.31117386 -0.08647959
v 0.004188504 0.3222031 -0.08650494
v 0.034344487 0.32769582 -0.116479576
v -0.029283557 0.31391266 -0.11647959
v -0.03907177 0.31179234 -0.11647959
v -0.046730455 0.3101333 -0.11647959
v 0.034344465 0.33020756 -0.044064835
v 0.034344487 0.33107677 -0.0190048
v 0.0042032558 0.32248598 -0.07844113
v 0.0042904844 0.324565 -0.01904627
v -0.046720646 -0.11951887 -0.0014795366
v -0.14041218 -0.124304235 -0.0014795366
v -0.1425083 -0.11952303 -0.0014795366
v -0.12934656 -0.14954431 -0.0014795488
v -0.046730455 -0.14954431 -0.0014795488
v -0.09840642 -0.11956257 -0.08649526
v -0.12081445 -0.06846941 -0.086479604
v -0.11809589 -0.07467029 -0.0864796
v -0.10684898 -0.06846941 -0.11341156
v -0.0798982 -0.14954431 -0.09683926
v -0.10259946 -0.11956218 -0.07840949
v -0.07555336 -0.13622448 -0.11647959
v -0.105258085 -0.06846941 -0.11647961
v -0.06971379 -0.14954427 -0.11647959
v -0.14041218 -0.124304235 -0.0014795366
v -0.12934656 -0.14954431 -0.0014795488
v -0.1425083 -0.11952303 -0.0014795366
vt 0.065481275 0.47036183
vt 0.03992477 0.6114783
vt 0.065481275 0.5938419
vt 0.0050000143 0.6355796
vt 0.0050000143 0.40988055
vt 0.2559923 0.40988055
vt 0.25731328 0.4479652
vt 0.24441426 0.47036183
vt 0.2577704 0.4611449
vt 0.92709005 0.0153293265
vt 0.987173 0.005
vt 0.93244624 0.005
vt 0.9445338 0.0654813
vt 0.90108395 0.0654813
vt 0.9589012 0.22643282
vt 0.9445338 0.22426477
vt 0.987173 0.23069917
vt 1.0120052 0.3416455
vt 1.0476394 0.35680413
vt 1.0476394 0.32602304
vt 1.005 0.39944345
vt 1.005 0.34471667
vt 1.2467556 0.35680407
vt 1.2476281 0.36083195
vt 1.2487433 0.36597985
vt 1.2559923 0.39944342
vt 1.8697212 0.40988058
vt 1.8557723 0.6090604
vt 1.8697212 0.6095442
vt 1.8539431 0.6089969
vt 1.8539431 0.40988058
vt 1.5943434 0.68742764
vt 1.6085076 0.71904546
vt 1.6085076 0.6800829
vt 1.5927298 0.71904546
vt 1.5927298 0.68826437
vt 0.28475532 0.8862804
vt 0.3141647 0.8862804
vt 0.26378846 0.8862804
vt 0.3141647 0.8862804
vt 0.2869603 0.8862804
vt 1.6085076 0.71904546
vt 1.6085076 0.71904546
vt 1.6085076 0.71904546
vt 1.6085076 0.71904546
vt 1.6085076 0.6918411
vt 1.6085076 0.6815126
vt 1.6085076 0.6800829
vt 1.005 0.8862804
vt 1.005 0.8862804
vt 1.005 0.8862804
vt 1.005 0.8862804
vt 1.0050001 0.8862804
vt 1.0050001 0.8862804
vt 1.005 0.8862804
vt 1.005 0.8862804
vt 1.005 0.8862804
vt 1.005 0.8862804
vt 1.005 0.8862804
vt 1.005 0.8862804
vt 0.46255443 0.8426319
vt 0.28362143 0.85840964
vt 0.46255443 0.85840964
vt 0.28562662 0.8487328
vt 0.28692973 0.8426319
vt 0.712993 0.40988058
vt 0.70594114 0.53211296
vt 0.712993 0.5310494
vt 0.6972152 0.5333608
vt 0.6972152 0.40988058
vt 0.7303044 0.56258446
vt 0.7233366 0.40988058
vt 0.7233366 0.5577721
vt 0.7391143 0.40988058
vt 0.7391143 0.5686641
vt 0.712993 0.40988058
vt 0.712993 0.546412
vt 0.712993 0.5617618
vt 0.712993 0.5310494
vt 0.712993 0.40988058
vt 0.7233366 0.40988058
vt 0.7233366 0.55994374
vt 0.7233366 0.5577721
vt 0.7233366 0.5617618
vt 0.7233366 0.40988058
vt 0.044461783 0.10944042
vt 0.037246954 0.06909729
vt 0.033784427 0.109439164
vt 0.061606903 0.06330204
vt 0.057667047 0.10962387
vt 0.040720884 0.028793106
vt 0.02418375 3.8146972E-08
vt 0.066991 0
vt 0.002429695 3.8146972E-08
vt 0 0.02860878
vt 0.022352219 0.028759232
vt 0.0010715293 0.01596817
vt 1.8697212 0.40988058
vt 1.8697212 0.610254
vt 1.8697212 0.6153911
vt 1.8697212 0.6095442
vt 1.8697212 0.40988058
vt 0.38828743 0.024260135
vt 0.39941582 0.0024212645
vt 0.3903719 0
vt 0.413751 0.0062591364
vt 0.41169196 0.030467462
vt 0.0027402258 1.9073486E-08
vt 0.023668084 0.004536648
vt 0.023636255 0
vt 0.02391735 0.04102249
vt 0.0004793787 0.06531742
vt 0.00010315895 0.014055977
vt 4.5285225E-05 0.0061701965
vt 0 1.9073486E-08
vt 0.05753316 0.065317385
vt 0.07727733 0.0653174
vt 0.030270718 0.041034374
vt 0.077066965 0.04110464
vt 0.3141647 0.8862804
vt 0.26489085 0.8837658
vt 0.26378846 0.8862804
vt 0.27071488 0.8705026
vt 0.3141647 0.8705026
vt 0.0439299 0.026136933
vt 0 0.02615057
vt 0.0053312303 0.026150579
vt 0.004415283 0.0026743698
vt 0.071402475 0.017120218
vt 0.04260395 0.033185188
vt 0.063170664 0
vt 0.004918251 0
vt 0.07462235 0
vt 0.034068834 0.10024394
vt 0.055769004 0.10024392
vt 0.02995823 0.10024394
vn 1 0 0
vn 1 0 0
vn 1 0 0
vn 1 0 0
vn 1 0 0
vn 1 0 0
vn 1 -6.5145747E-07 -9.440159E-07
vn 1 -6.5145747E-07 -9.440158E-07
vn 1 -6.514574E-07 -9.440158E-07
vn -0 -1 0
vn -0 -1 0
vn -4.6557247E-07 -1 -2.7081128E-06
vn -0 -1 0
vn -0 -1 0
vn -0 -1 0
vn -0 -1 0
vn -0 -1 0
vn -0 0 -1
vn -0 -2.609113E-07 -1
vn -0 -2.6296956E-07 -1
vn -0 0 -1
vn -0 0 -1
vn -0 0 -1
vn -0 0 -1
vn -0 0 -1
vn -0 0 -1
vn -1 0 0
vn -1 0 0
vn -1 0 0
vn -1 0 0
vn -1 0 0
vn -0 1 0
vn -0 1 0
vn -0 1 0
vn -0 1 0
vn -0 1 0
vn 2.8093971E-05 1 -3.3364104E-05
vn -4.388651E-05 0.9999999 -0.00053111924
vn -4.3496326E-05 0.9999999 -0.0005314026
vn 2.8093971E-05 1 -3.3364104E-05
vn 2.8093971E-05 1 -3.33641E-05
vn 0.00033800994 -0.00033564097 0.9999999
vn 0.00033800997 -0.00033564097 0.9999999
vn 0.0003216317 -0.00035202428 0.9999999
vn 0.00033800997 -0.00033564094 0.9999999
vn 2.943173E-05 -0.00033597762 1
vn -0 1.5007497E-06 1
vn -0 1.5007497E-06 1
vn -0.9999825 -0.0045934804 0.0037287532
vn -0.9999825 -0.0045934804 0.0037287527
vn -0.99999964 -0.0009021741 5.2454612E-05
vn -0.9999825 -0.0045934794 0.0037287525
vn -0.99999833 5.450172E-05 0.0018288688
vn -0.9999989 -2.3198038E-05 0.001469426
vn -0.9999989 -2.319804E-05 0.0014694257
vn -0.9999989 -2.319804E-05 0.001469426
vn 0.00032767002 0.9999987 -0.0016226041
vn 0.00032767 0.9999987 -0.0016226036
vn 0.00032767002 0.9999987 -0.0016226036
vn -0.0014878517 0.9999988 -0.00053189875
vn 1.0506116E-06 0 1
vn 6.6282036E-07 0 1
vn 1.2111867E-06 0 1
vn 1.0506116E-06 0 1
vn 1.0506116E-06 0 1
vn -0.011588033 0.9999329 0
vn 3.3343285E-06 0.99999976 -0.0006688986
vn 3.3343283E-06 0.99999976 -0.00066889846
vn -0.011588032 0.9999329 0
vn -0.0115880305 0.9999329 0
vn -1 0.0003285315 -1.8935125E-05
vn -1 0.00032853146 -1.8935121E-05
vn -1 0.00032853146 -1.8935123E-05
vn -1 -1.501433E-06 0
vn -1 -1.5014327E-06 0
vn -0.99999964 -0.000902174 3.8979426E-05
vn -0.99999917 -0.0012926969 0.00010262818
vn -0.99999917 -0.0012926968 0.000102628175
vn -0.99999964 -0.000902174 3.8979422E-05
vn -0.99999964 -0.0009021741 3.8979426E-05
vn -0.0014878518 0.9999988 -0.00035851414
vn -0.005627018 0.99998415 4.882112E-05
vn -0.0056270184 0.99998415 4.8821126E-05
vn -0.0014878515 0.9999988 -0.00035851417
vn -0.0014878517 0.9999988 -0.00035851417
vn -0.12324632 0.5636461 0.8167702
vn -0.12324632 0.5636461 0.8167702
vn -0.123246305 0.563646 0.8167702
vn -0.12325184 0.5636463 0.8167692
vn -0.12325184 0.5636463 0.8167692
vn -0.123236924 0.5637863 0.8166747
vn -0.12325147 0.56364626 0.81676924
vn -0.12325109 0.56364584 0.81676954
vn -0.1265899 0.5634065 0.8164239
vn -0.1265899 0.5634065 0.8164239
vn -0.123236924 0.5637863 0.8166747
vn -0.1265899 0.5634065 0.8164239
vn 0.00032975376 0 1
vn 0.000513845 2.17707E-05 0.9999999
vn 0.000513845 2.1770702E-05 0.9999999
vn 0.0003297538 0 1
vn 0.0003297538 0 1
vn -0.123251215 0.56364596 0.8167695
vn -0.1232512 0.5636459 0.8167695
vn -0.1232512 0.5636459 0.8167695
vn -0.123251304 0.56364584 0.81676954
vn -0.123251386 0.56364584 0.8167695
vn -0.21158762 0.9767716 -0.033879604
vn -0.21158762 0.9767716 -0.033879604
vn -0.21158762 0.9767716 -0.033879604
vn -0.21158963 0.97677124 -0.033878963
vn -0.21158879 0.9767716 -0.033876173
vn -0.21158943 0.97677124 -0.033879735
vn -0.21158902 0.9767715 -0.033878744
vn -0.21158902 0.9767715 -0.033878744
vn -0.211589 0.97677135 -0.033879276
vn -0.21158892 0.9767715 -0.033879373
vn -0.21158892 0.9767715 -0.033879373
vn -0.21158892 0.9767715 -0.033879377
vn -0 -4.0337997E-07 1
vn -0 0 1
vn -0 0 1
vn -0 -4.0338003E-07 1
vn -0 -4.0338003E-07 1
vn -0.8297425 -0.36377227 -0.42331684
vn -0.8297425 -0.36377224 -0.42331684
vn -0.8297425 -0.36377224 -0.42331684
vn -0.8272987 -0.3626989 -0.4289828
vn -0.8272952 -0.3626971 -0.42899114
vn -0.82729495 -0.36269584 -0.42899275
vn -0.8272952 -0.3626971 -0.42899114
vn -0.8272988 -0.36269894 -0.42898282
vn -0.8272952 -0.36269715 -0.42899114
vn -0.82729614 -0.36269552 -0.42899078
vn -0.8272952 -0.36269793 -0.42899036
vn -0.82729614 -0.36269552 -0.42899078
g Device_Prop_Box_01_v_001_0
f 3/3/3 2/2/2 1/1/1
f 2/2/2 4/4/4 1/1/1
f 4/4/4 5/5/5 1/1/1
f 5/5/5 6/6/6 1/1/1
f 6/6/6 7/7/7 1/1/1
f 7/7/7 8/8/8 1/1/1
f 9/9/9 8/8/8 7/7/7
f 12/12/12 11/11/11 10/10/10
f 11/11/11 13/13/13 10/10/10
f 13/13/13 14/14/14 10/10/10
f 13/13/13 11/11/11 15/15/15
f 16/16/16 13/13/13 15/15/15
f 11/11/11 17/17/17 15/15/15
f 20/20/20 19/19/19 18/18/18
f 19/19/19 21/21/21 18/18/18
f 21/21/21 22/22/22 18/18/18
f 19/19/19 23/23/23 21/21/21
f 24/24/24 21/21/21 23/23/23
f 24/24/24 25/25/25 21/21/21
f 26/26/26 21/21/21 25/25/25
f 29/29/29 28/28/28 27/27/27
f 28/28/28 30/30/30 27/27/27
f 30/30/30 31/31/31 27/27/27
f 34/34/34 33/33/33 32/32/32
f 33/33/33 35/35/35 32/32/32
f 35/35/35 36/36/36 32/32/32
f 39/39/39 38/38/38 37/37/37
f 38/38/38 40/40/40 37/37/37
f 40/40/40 41/41/41 37/37/37
f 44/44/44 43/43/43 42/42/42
f 45/45/45 42/42/42 43/43/43
f 46/46/46 45/45/45 43/43/43
f 47/47/47 46/46/46 43/43/43
f 48/48/48 47/47/47 43/43/43
f 51/51/51 50/50/50 49/49/49
f 52/52/52 49/49/49 50/50/50
f 52/52/52 50/50/50 53/53/53
f 53/53/53 50/50/50 54/54/54
f 54/54/54 50/50/50 55/55/55
f 56/56/56 54/54/54 55/55/55
f 59/59/59 58/58/58 57/57/57
f 60/60/60 57/57/57 58/58/58
f 63/63/63 62/62/62 61/61/61
f 62/62/62 64/64/64 61/61/61
f 64/64/64 65/65/65 61/61/61
f 68/68/68 67/67/67 66/66/66
f 67/67/67 69/69/69 66/66/66
f 69/69/69 70/70/70 66/66/66
f 73/73/73 72/72/72 71/71/71
f 72/72/72 74/74/74 71/71/71
f 74/74/74 75/75/75 71/71/71
f 78/78/78 77/77/77 76/76/76
f 77/77/77 79/79/79 76/76/76
f 79/79/79 80/80/80 76/76/76
f 83/83/83 82/82/82 81/81/81
f 82/82/82 84/84/84 81/81/81
f 84/84/84 85/85/85 81/81/81
f 88/88/88 87/87/87 86/86/86
f 87/87/87 89/89/89 86/86/86
f 89/89/89 90/90/90 86/86/86
f 91/91/91 89/89/89 87/87/87
f 92/92/92 89/89/89 91/91/91
f 93/93/93 89/89/89 92/92/92
f 94/94/94 92/92/92 91/91/91
f 95/95/95 94/94/94 91/91/91
f 96/96/96 95/95/95 91/91/91
f 97/97/97 94/94/94 95/95/95
f 100/100/100 99/99/99 98/98/98
f 99/99/99 101/101/101 98/98/98
f 101/101/101 102/102/102 98/98/98
f 105/105/105 104/104/104 103/103/103
f 104/104/104 106/106/106 103/103/103
f 106/106/106 107/107/107 103/103/103
f 110/110/110 109/109/109 108/108/108
f 109/109/109 111/111/111 108/108/108
f 111/111/111 112/112/112 108/108/108
f 112/112/112 113/113/113 108/108/108
f 113/113/113 114/114/114 108/108/108
f 114/114/114 115/115/115 108/108/108
f 116/116/116 112/112/112 111/111/111
f 117/117/117 116/116/116 111/111/111
f 118/118/118 117/117/117 111/111/111
f 119/119/119 117/117/117 118/118/118
f 122/122/122 121/121/121 120/120/120
f 121/121/121 123/123/123 120/120/120
f 123/123/123 124/124/124 120/120/120
f 127/127/127 126/126/126 125/125/125
f 126/126/126 128/128/128 125/125/125
f 128/128/128 129/129/129 125/125/125
f 129/129/129 130/130/130 125/125/125
f 131/131/131 129/129/129 128/128/128
f 132/132/132 131/131/131 128/128/128
f 133/133/133 129/129/129 131/131/131
f 134/134/134 130/130/130 129/129/129
f 135/135/135 134/134/134 129/129/129
f 136/136/136 130/130/130 134/134/134
