g Device_Prop_Box_007_v_014
v 0.10727572 0.6797963 0.13009593
v 0.1072358 1.2034564 0.16676483
v 0.10723812 1.1815484 0.13007636
v 0.10727572 0.6797963 0.13009593
v 0.52316856 0.6225214 0.13010058
v 0.49877334 0.67988 0.13010019
v 0.10723711 0.47417814 0.1300845
v 0.58626115 0.47417852 0.13009322
v 0.10723711 0.47417814 0.1300845
v 0.52316856 0.6225214 0.13010058
v 0.10727572 0.6797963 0.13009593
v 0.28058836 -0.7436494 -0.08578779
v 0.107101895 -0.7436488 0.08098498
v 0.10719278 -0.7436494 -0.08578779
v -0.038031302 -0.8198494 0.12020371
v -0.09873777 -0.8198494 -0.6300628
v -0.09873777 -0.8198494 0.17856061
v 0.10719278 -0.8198494 -0.08578779
v 0.17625359 -0.81984955 -0.08578779
v 0.036410663 -0.8198494 -0.640171
v 0.10719278 -0.8198494 -0.64546514
v 0.10719278 0.47418544 0.20631221
v 0.51578194 0.62376404 0.20631221
v 0.57939935 0.47418544 0.20631221
v 0.10719278 0.6801157 0.20631221
v 0.49181494 0.6801157 0.20631221
v -0.094941296 -0.79599255 0.20631221
v 0.10719278 -0.61391926 0.20631221
v -0.020548746 -0.7416606 0.20631221
v 0.15435724 -0.61391926 0.20631221
v -0.095520526 -0.7964157 0.20631221
v -0.09873748 1.2061548 0.20631221
v -0.09873777 -0.79876536 0.20631221
v 0.021536088 1.2183689 0.20631221
v 0.10719278 1.2270675 0.20631221
v 0.10719278 0.47418544 0.20631221
v 0.10718929 -0.6139046 0.13005678
v 0.10719278 -0.61391926 0.20631221
v 0.10723711 0.47417814 0.1300845
v 0.10719278 -0.61391926 0.20631221
v 0.15700147 -0.61391926 0.20377031
v 0.15435724 -0.61391926 0.20631221
v 0.10718929 -0.6139046 0.13005678
v 0.23369634 -0.6139059 0.13006143
v 0.10719278 -0.7436494 -0.08578779
v 0.18144183 -0.81606025 -0.08578779
v 0.28058836 -0.7436494 -0.08578779
v 0.10719278 -0.8198494 -0.08578779
v 0.17625359 -0.81984955 -0.08578779
v 0.10719278 -0.8198494 -0.08578779
v 0.10719278 -0.78704447 -0.6544078
v 0.10719278 -0.8198494 -0.64546514
v 0.10719278 -0.7436494 -0.08578779
v 0.10719278 -0.7436494 -0.6662374
v 0.10719278 0.6801157 0.20631221
v 0.4935894 0.6801157 0.18659307
v 0.49181494 0.6801157 0.20631221
v 0.10727572 0.6797963 0.13009593
v 0.49877334 0.67988 0.13010019
v 0.10723711 0.47417814 0.1300845
v 0.58407044 0.47418046 0.15442856
v 0.58626115 0.47417852 0.13009322
v 0.10719278 0.47418544 0.20631221
v 0.57939935 0.47418544 0.20631221
v -0.022537772 -0.5277499 -0.08578779
v -0.058704846 -0.5277498 -0.7126839
v -0.022537772 -0.5277498 -0.71538895
v -0.09873777 -0.5277498 -0.7096898
v -0.09873777 -0.5277499 -0.08578779
v -0.09873777 -0.5277499 -0.08578779
v -0.07639117 1.0339983 -0.08578779
v -0.09873777 1.031729 -0.08578779
v -0.022537772 -0.5277499 -0.08578779
v -0.022537772 1.0394676 -0.08578779
v -0.02252847 -0.7436471 -0.08578779
v -0.022532636 -0.646002 -0.68315357
v -0.02252847 -0.7436469 -0.6565357
v -0.022537772 -0.5277498 -0.71538895
v -0.022537772 -0.5277499 -0.08578779
v -0.022537868 -0.52775 0.13086487
v -0.022528566 -0.7436471 0.13086487
v 0.10719278 -0.7436494 -0.08578779
v 0.050600108 -0.74364823 -0.66200495
v 0.10719278 -0.7436494 -0.6662374
v -0.02252847 -0.7436469 -0.6565357
v -0.02252847 -0.7436471 -0.08578779
v -0.022528566 -0.7436471 0.13086487
v 0.055514924 -0.74364805 0.13057652
v 0.107101895 -0.7436488 0.08098498
v 0.10718929 -0.6139046 0.13005678
v 0.22024629 -0.6237285 0.13006201
v 0.23369634 -0.6139059 0.13006143
v 0.107108094 -0.70618445 0.13029088
v -0.022537772 -0.5277499 -0.08578779
v -0.022537868 1.1369257 0.077419885
v -0.022537772 1.0394676 -0.08578779
v -0.022537868 0.57715046 0.13086487
v -0.022537868 1.16884 0.13086487
v -0.022537868 -0.52775 0.13086487
v 0.10723711 0.47417814 0.1300845
v -0.022537868 -0.52775 0.13086487
v 0.10718929 -0.6139046 0.13005678
v -0.022537868 0.57715046 0.13086487
v 0.10727572 0.6797963 0.13009593
v 0.047749024 1.1757164 0.13042693
v 0.10723812 1.1815484 0.13007636
v -0.022537868 1.16884 0.13086487
v -0.022528566 -0.7436471 0.13086487
v 0.10718929 -0.6139046 0.13005678
v -0.022537868 -0.52775 0.13086487
v 0.055514924 -0.74364805 0.13057652
v 0.107108094 -0.70618445 0.13029088
v 0.58407044 0.47418046 0.15442856
v 0.52316856 0.6225214 0.13010058
v 0.58626115 0.47417852 0.13009322
v 0.51578194 0.62376404 0.20631221
v 0.57939935 0.47418544 0.20631221
v 0.4935894 0.6801157 0.18659307
v 0.49877334 0.67988 0.13010019
v 0.49181494 0.6801157 0.20631221
v -0.09873777 1.031729 -0.08578779
v -0.09873767 1.1485997 0.109928176
v -0.09873777 -0.5277499 -0.08578779
v -0.09873748 1.2061548 0.20631221
v -0.09873777 -0.79876536 0.20631221
v -0.09873777 -0.807868 0.19433077
v -0.09873777 -0.660514 -0.6734979
v -0.09873777 -0.5277498 -0.7096898
v -0.09873777 -0.8157911 0.18390253
v -0.09873777 -0.8198494 0.17856061
v -0.09873777 -0.8198494 -0.6300628
v 0.10719278 0.6801157 0.20631221
v 0.1072358 1.2034564 0.16676483
v 0.10727572 0.6797963 0.13009593
v 0.10719278 1.2270675 0.20631221
v 0.021536088 1.2183689 0.20631221
v 0.1072358 1.2034564 0.16676483
v 0.10719278 1.2270675 0.20631221
v -0.09873767 1.1485997 0.109928176
v -0.09873748 1.2061548 0.20631221
v -0.022537868 1.16884 0.13086487
v 0.047749024 1.1757164 0.13042693
v 0.10723812 1.1815484 0.13007636
v -0.07639117 1.0339983 -0.08578779
v -0.09873777 1.031729 -0.08578779
v -0.022537868 1.1369257 0.077419885
v -0.022537772 1.0394676 -0.08578779
v -0.09873777 -0.660514 -0.6734979
v -0.058704846 -0.5277498 -0.7126839
v -0.09873777 -0.5277498 -0.7096898
v -0.022532636 -0.646002 -0.68315357
v -0.022537772 -0.5277498 -0.71538895
v -0.02252847 -0.7436469 -0.6565357
v 0.036410663 -0.8198494 -0.640171
v -0.09873777 -0.8198494 -0.6300628
v 0.10719278 -0.78704447 -0.6544078
v 0.10719278 -0.8198494 -0.64546514
v 0.050600108 -0.74364823 -0.66200495
v 0.10719278 -0.7436494 -0.6662374
v 0.18144183 -0.81606025 -0.08578779
v 0.107101895 -0.7436488 0.08098498
v 0.28058836 -0.7436494 -0.08578779
v -0.038031302 -0.8198494 0.12020371
v 0.17625359 -0.81984955 -0.08578779
v 0.055514924 -0.74364805 0.13057652
v -0.094941296 -0.79599255 0.20631221
v 0.15700147 -0.61391926 0.20377031
v 0.22024629 -0.6237285 0.13006201
v 0.107108094 -0.70618445 0.13029088
v 0.23369634 -0.6139059 0.13006143
v -0.020548746 -0.7416606 0.20631221
v 0.15435724 -0.61391926 0.20631221
v -0.09873777 -0.807868 0.19433077
v -0.095520526 -0.7964157 0.20631221
v -0.09873777 -0.79876536 0.20631221
v -0.09873777 -0.8157911 0.18390253
v -0.09873777 -0.8198494 0.17856061
vt 0.81747836 0.40988058
vt 0.8098874 0.5182762
vt 0.81747836 0.5210206
vt 0.31416458 0.8983732
vt 0.22804636 0.8983731
vt 0.23309784 0.8983731
vt 0.31416458 0.8983732
vt 0.21497646 0.8983731
vt 0.31416458 0.8983732
vt 0.22804636 0.8983731
vt 0.31416458 0.8983732
vt 0.63462895 0.44578338
vt 0.634629 0.4098806
vt 0.63462895 0.4098806
vt 0.60529953 0.3816141
vt 0.5927299 0.22626625
vt 0.59272987 0.39369738
vt 0.6353691 0.33896202
vt 0.64966863 0.33896202
vt 0.62071323 0.22417317
vt 0.6353691 0.22307698
vt 0.2729388 0.35680407
vt 0.30391008 0.2722029
vt 0.2729388 0.2590305
vt 0.31557804 0.35680407
vt 0.31557804 0.27716544
vt 0.009939726 0.39865735
vt 0.047639377 0.35680413
vt 0.021189597 0.38325387
vt 0.047639374 0.3470384
vt 0.009852119 0.39877728
vt 0.4244981 0.3994434
vt 0.009365607 0.39944345
vt 0.4270271 0.3745399
vt 0.42882812 0.35680407
vt 0.85394317 0.63518006
vt 0.8697212 0.40988058
vt 0.85394317 0.40988058
vt 0.8697212 0.63518006
vt 0.59272987 0.71904546
vt 0.5932562 0.7087322
vt 0.59272987 0.7092797
vt 0.6085077 0.71904546
vt 0.6085077 0.69285136
vt 0.63462895 0.4098806
vt 0.61963576 0.42525437
vt 0.63462895 0.44578338
vt 0.6188512 0.4098806
vt 0.6188512 0.42418015
vt 0.7755792 0.68336135
vt 0.78237176 0.56562465
vt 0.7755792 0.5674763
vt 0.791357 0.68336135
vt 0.791357 0.56317526
vt 0.31416458 0.9141512
vt 0.23415855 0.9100681
vt 0.23452595 0.9141512
vt 0.31416458 0.8983732
vt 0.23309784 0.8983731
vt 0.66075027 0.40988055
vt 0.65571153 0.50861514
vt 0.66075027 0.5090687
vt 0.64497256 0.40988055
vt 0.64497256 0.5076542
vt 1.7494578 0.68336135
vt 1.7569464 0.5535582
vt 1.7494578 0.55299807
vt 1.7652354 0.5541781
vt 1.7652355 0.68336135
vt 1.4625545 0.83228827
vt 1.1391838 0.82766116
vt 1.1396537 0.83228827
vt 1.4625545 0.81651044
vt 1.1380514 0.81651044
vt 1.7494578 0.68336135
vt 1.7494578 0.55967265
vt 1.7494578 0.565184
vt 1.7494578 0.55299807
vt 1.7494578 0.68336135
vt 1.7494578 0.68336135
vt 1.7494578 0.68336135
vt 0.791357 0.68336135
vt 0.791357 0.5640516
vt 0.791357 0.56317526
vt 0.791357 0.565184
vt 0.791357 0.68336135
vt 0.791357 0.68336135
vt 0.791357 0.68336135
vt 0.79135704 0.6833614
vt 0.6085077 0.71904546
vt 0.6085077 0.6956363
vt 0.6085077 0.69285136
vt 0.6085077 0.7190454
vt 1.4625545 0.81651044
vt 1.117872 0.81651044
vt 1.1380514 0.81651044
vt 1.2337773 0.81651044
vt 1.1112639 0.81651044
vt 1.4625545 0.81651044
vt 1.2337773 0.81651044
vt 1.4625545 0.81651044
vt 1.4625545 0.81651044
vt 1.2337773 0.81651044
vt 1.1953263 0.81651044
vt 1.1098353 0.81651044
vt 1.1000406 0.81651044
vt 1.1112639 0.81651044
vt 1.7494578 0.68336135
vt 1.7494578 0.68336135
vt 1.7494578 0.68336135
vt 1.7494578 0.68336135
vt 1.7494578 0.68336135
vt 0.0006765461 0.019227294
vt 0.1269312 5.7983398E-06
vt 0 0
vt 0.130108 0.06022049
vt 0.0021196841 0.06022049
vt 0.177779 0.04464035
vt 0.17601067 5.4931643E-06
vt 0.17832585 0.06022049
vt 1.2001349 0.7438425
vt 1.175936 0.78436685
vt 1.5230356 0.7438425
vt 1.1640188 0.8043238
vt 1.5791514 0.80432385
vt 1.5810361 0.80184305
vt 1.5505254 0.62215316
vt 1.5230356 0.6146593
vt 1.5826765 0.7996838
vt 1.583517 0.7985777
vt 1.5835171 0.6311467
vt 0.8017006 0.40988058
vt 0.8098874 0.5182762
vt 0.81747836 0.40988058
vt 0.8017006 0.52313066
vt 0.27281722 0.0950631
vt 0.24006134 0.16279918
vt 0.2763289 0.1627652
vt 0.17949219 0
vt 0.26788652 1.5258789E-07
vt 0.20181717 0.06022751
vt 0.20429702 0.11578148
vt 0.20641434 0.16280098
vt 0.0009161377 0.017662507
vt 0 0
vt 0.15280242 0.06022751
vt 0.0031239318 0.060227662
vt 0.16127197 0.13001403
vt 0.12753639 0.23834649
vt 0.1591465 0.23834649
vt 0.100867994 0.14185546
vt 0.098978885 0.23834649
vt 0.1024279 0.062179413
vt 0.057109527 0
vt 0.16382286 0
vt 0.00069473265 0.026768036
vt 0.0012199401 0
vt 0.04468559 0.06217842
vt 0 0.06217743
vt 0.27942806 0.2552066
vt 0.14037293 0.18749267
vt 0.24493572 0.3455159
vt 0.15208127 0.055295564
vt 0.2812331 0.25048065
vt 0.10927978 0.14050384
vt 0.08672924 0.0034580994
vt 0.0015937042 0.23294464
vt 0.05247967 0.29055238
vt 0.09161343 0.18749832
vt 0.047801018 0.3028035
vt 0.060848657 0.07121979
vt 0 0.2305362
vt 0.09989811 0
vt 0.08693081 0.0029304505
vt 0.08805004 0
vt 0.110210456 0
vt 0.115492895 0
vn 1 7.492739E-05 1.8641438E-05
vn 1 7.492739E-05 1.864144E-05
vn 1 7.492739E-05 1.864144E-05
vn 1.089019E-05 -2.1253015E-06 -1
vn 1.089019E-05 -2.1253013E-06 -1
vn 1.089019E-05 -2.1253013E-06 -1
vn 1.8204466E-05 5.7383662E-05 -1
vn 1.8204466E-05 5.7383662E-05 -1
vn 1.8840068E-05 5.560152E-05 -1
vn 1.8840068E-05 5.560152E-05 -1
vn 1.8840068E-05 5.5601526E-05 -1
vn -0 1 -3.4859404E-06
vn -0 1 -3.4859404E-06
vn -0 1 -3.48594E-06
vn -0 -1 0
vn -0 -1 0
vn -0 -1 0
vn -0 -1 0
vn -1.4030145E-06 -1 -9.891257E-07
vn -0 -1 0
vn -0 -1 0
vn -0 0 1
vn -0 0 1
vn -0 0 1
vn -0 0 1
vn -0 0 1
vn -0 0 1
vn -0 0 1
vn -0 0 1
vn -0 0 1
vn -0 0 1
vn -0 0 1
vn -0 0 1
vn -0 0 1
vn -0 0 1
vn 1 0 -4.5743105E-05
vn 1 0 -4.57431E-05
vn 1 0 -4.57431E-05
vn 0.9999999 -4.3960776E-05 0.000581534
vn -0 1 0
vn -0 1 0
vn -0 1 0
vn 9.791568E-06 1 0.00019186645
vn 9.94981E-06 1 0.0001917595
vn -0 0 -1
vn -0 0 -1
vn -0 0 -1
vn -0 0 -1
vn -0 0 -1
vn 1 0 0
vn 1 0 0
vn 1 0 0
vn 1 0 0
vn 1 0 0
vn -0 1 0
vn -0 1 0
vn -0 1 0
vn -0.00021387386 0.9999912 -0.004190859
vn -0.00021388008 0.9999912 -0.0041908165
vn 7.823361E-07 -1 8.069761E-05
vn 7.823361E-07 -1 8.069761E-05
vn 7.823362E-07 -1 8.069761E-05
vn -0 -1 9.628609E-05
vn -0 -1 9.6410266E-05
vn -0 1 0
vn -0 1 0
vn -0 1 0
vn -0 1 0
vn -0 1 0
vn -0 0 -1
vn -0 0 -1
vn -0 0 -1
vn -0 0 -1
vn -0 0 -1
vn 1 4.2669017E-05 0
vn 1 4.2669024E-05 0
vn 1 4.2669024E-05 0
vn 1 4.30842E-05 0
vn 1 4.30842E-05 4.472481E-07
vn 1 4.30842E-05 4.4724808E-07
vn 1 4.308422E-05 4.4722876E-07
vn 2.0545413E-05 1 0
vn 2.0545414E-05 1 0
vn 2.0545413E-05 1 0
vn 1.7926435E-05 1 3.3953108E-07
vn 1.7926435E-05 1 0
vn 1.7926437E-05 1 0
vn 1.24030785E-05 1 -3.3071162E-06
vn 1.16810315E-05 1 -3.479574E-06
vn 3.6762704E-05 -0.000109524364 -1
vn 3.6762704E-05 -0.000109524364 -1
vn 3.6762704E-05 -0.000109524364 -1
vn -0.00017413666 -0.0025366254 -0.9999968
vn 1 0 5.9368114E-07
vn 1 0 5.936812E-07
vn 1 0 5.9368114E-07
vn 1 0 0
vn 1 0 0
vn 1 0 4.472288E-07
vn -0.006013214 0 -0.999982
vn -0.006013214 0 -0.999982
vn -0.0062119374 2.574068E-05 -0.9999807
vn -0.006013214 0 -0.999982
vn -0.005968205 5.672481E-05 -0.99998224
vn -0.0062308814 0 -0.99998057
vn -0.0058888737 -3.944877E-05 -0.9999827
vn -0.0062308814 0 -0.99998057
vn -0.0062292092 -2.6838063E-07 -0.99998057
vn -0.0062292092 -2.6838066E-07 -0.99998057
vn -0.0062292092 -2.6838063E-07 -0.99998057
vn -0.0036947867 -0.0025342691 -0.99999
vn -0.0036966961 -0.0025335085 -0.99999
vn 0.91708875 0.39004815 0.082526475
vn 0.91708875 0.39004818 0.08252649
vn 0.91708875 0.39004812 0.08252648
vn 0.91708887 0.3900483 0.082525566
vn 0.9170886 0.39004803 0.08252781
vn 0.91708875 0.390048 0.08252794
vn 0.9170886 0.390048 0.08252794
vn 0.91708887 0.39004824 0.082525566
vn -1 0 4.9507105E-07
vn -1 0 2.124142E-06
vn -1 0 0
vn -1 0 0
vn -1 0 0
vn -1 0 0
vn -1 0 0
vn -1 0 0
vn -1 0 0
vn -1 0 0
vn -1 0 0
vn 0.9999994 0 0.0010882269
vn 0.9999994 0 0.0010882269
vn 0.9999994 0 0.0010882269
vn 0.9999994 0 0.001087824
vn -0.08686016 0.855328 -0.5107537
vn -0.08686015 0.855328 -0.5107537
vn -0.08686016 0.855328 -0.5107537
vn -0.08686192 0.8553275 -0.5107543
vn -0.08686069 0.85532826 -0.51075315
vn -0.086861186 0.8553283 -0.510753
vn -0.08686038 0.85532784 -0.5107539
vn -0.08686037 0.85532784 -0.5107539
vn -0.08686382 0.85532826 -0.51075274
vn -0.08686191 0.8553275 -0.5107542
vn -0.08686382 0.85532826 -0.51075274
vn -0.08686384 0.8553282 -0.5107528
vn -0.07197075 -0.26232353 -0.96229243
vn -0.071970746 -0.2623235 -0.96229243
vn -0.07197075 -0.2623235 -0.96229243
vn -0.071973346 -0.2623231 -0.9622923
vn -0.071973346 -0.2623231 -0.9622923
vn -0.07197282 -0.26232255 -0.9622925
vn -0.07197473 -0.262322 -0.9622925
vn -0.07197305 -0.26232275 -0.96229243
vn -0.07197399 -0.26232353 -0.9622921
vn -0.07197473 -0.26232195 -0.9622925
vn -0.071973994 -0.26232356 -0.9622921
vn -0.071973994 -0.26232356 -0.9622921
vn 0.50271475 -0.68832856 0.5229547
vn 0.5027148 -0.68832856 0.5229547
vn 0.5027148 -0.6883285 0.5229547
vn 0.5027071 -0.68834 0.5229471
vn 0.5027217 -0.6883179 0.5229621
vn 0.5025814 -0.6881422 0.52332795
vn 0.5027342 -0.6883551 0.52290124
vn 0.502714 -0.6883294 0.5229544
vn 0.5025814 -0.6881422 0.52332795
vn 0.5025815 -0.68814224 0.52332795
vn 0.502714 -0.6883294 0.5229544
vn 0.50271624 -0.6883293 0.5229522
vn 0.50271636 -0.6883293 0.5229523
vn 0.502714 -0.68833464 0.5229475
vn 0.502714 -0.68833464 0.5229475
vn 0.50271404 -0.6883346 0.5229475
vn 0.50270706 -0.68833995 0.52294713
vn 0.5027071 -0.68834007 0.5229471
g Device_Prop_Box_007_v_014_0
f 3/3/3 2/2/2 1/1/1
f 6/6/6 5/5/5 4/4/4
f 8/8/8 7/7/7 5/5/5
f 11/11/11 10/10/10 9/9/9
f 14/14/14 13/13/13 12/12/12
f 17/17/17 16/16/16 15/15/15
f 15/15/15 16/16/16 18/18/18
f 18/18/18 19/19/19 15/15/15
f 16/16/16 20/20/20 18/18/18
f 18/18/18 20/20/20 21/21/21
f 24/24/24 23/23/23 22/22/22
f 25/25/25 22/22/22 23/23/23
f 25/25/25 23/23/23 26/26/26
f 22/22/22 25/25/25 27/27/27
f 22/22/22 27/27/27 28/28/28
f 29/29/29 28/28/28 27/27/27
f 28/28/28 29/29/29 30/30/30
f 31/31/31 27/27/27 25/25/25
f 32/32/32 31/31/31 25/25/25
f 33/33/33 31/31/31 32/32/32
f 34/34/34 32/32/32 25/25/25
f 25/25/25 35/35/35 34/34/34
f 38/38/38 37/37/37 36/36/36
f 39/39/39 36/36/36 37/37/37
f 42/42/42 41/41/41 40/40/40
f 40/40/40 41/41/41 43/43/43
f 44/44/44 43/43/43 41/41/41
f 47/47/47 46/46/46 45/45/45
f 48/48/48 45/45/45 46/46/46
f 48/48/48 46/46/46 49/49/49
f 52/52/52 51/51/51 50/50/50
f 50/50/50 51/51/51 53/53/53
f 54/54/54 53/53/53 51/51/51
f 57/57/57 56/56/56 55/55/55
f 55/55/55 56/56/56 58/58/58
f 59/59/59 58/58/58 56/56/56
f 62/62/62 61/61/61 60/60/60
f 60/60/60 61/61/61 63/63/63
f 64/64/64 63/63/63 61/61/61
f 67/67/67 66/66/66 65/65/65
f 66/66/66 68/68/68 65/65/65
f 69/69/69 65/65/65 68/68/68
f 72/72/72 71/71/71 70/70/70
f 73/73/73 70/70/70 71/71/71
f 73/73/73 71/71/71 74/74/74
f 77/77/77 76/76/76 75/75/75
f 76/76/76 78/78/78 75/75/75
f 79/79/79 75/75/75 78/78/78
f 79/79/79 80/80/80 75/75/75
f 81/81/81 75/75/75 80/80/80
f 84/84/84 83/83/83 82/82/82
f 83/83/83 85/85/85 82/82/82
f 86/86/86 82/82/82 85/85/85
f 86/86/86 87/87/87 82/82/82
f 87/87/87 88/88/88 82/82/82
f 89/89/89 82/82/82 88/88/88
f 92/92/92 91/91/91 90/90/90
f 90/90/90 91/91/91 93/93/93
f 96/96/96 95/95/95 94/94/94
f 94/94/94 95/95/95 97/97/97
f 98/98/98 97/97/97 95/95/95
f 97/97/97 99/99/99 94/94/94
f 102/102/102 101/101/101 100/100/100
f 103/103/103 100/100/100 101/101/101
f 104/104/104 100/100/100 103/103/103
f 103/103/103 105/105/105 104/104/104
f 106/106/106 104/104/104 105/105/105
f 107/107/107 105/105/105 103/103/103
f 110/110/110 109/109/109 108/108/108
f 108/108/108 109/109/109 111/111/111
f 112/112/112 111/111/111 109/109/109
f 115/115/115 114/114/114 113/113/113
f 114/114/114 116/116/116 113/113/113
f 113/113/113 116/116/116 117/117/117
f 118/118/118 116/116/116 114/114/114
f 119/119/119 118/118/118 114/114/114
f 120/120/120 116/116/116 118/118/118
f 123/123/123 122/122/122 121/121/121
f 124/124/124 122/122/122 123/123/123
f 125/125/125 124/124/124 123/123/123
f 126/126/126 125/125/125 123/123/123
f 123/123/123 127/127/127 126/126/126
f 128/128/128 127/127/127 123/123/123
f 127/127/127 129/129/129 126/126/126
f 129/129/129 127/127/127 130/130/130
f 131/131/131 130/130/130 127/127/127
f 134/134/134 133/133/133 132/132/132
f 135/135/135 132/132/132 133/133/133
f 138/138/138 137/137/137 136/136/136
f 137/137/137 139/139/139 136/136/136
f 139/139/139 140/140/140 136/136/136
f 141/141/141 139/139/139 137/137/137
f 142/142/142 141/141/141 137/137/137
f 143/143/143 142/142/142 137/137/137
f 144/144/144 139/139/139 141/141/141
f 145/145/145 139/139/139 144/144/144
f 146/146/146 144/144/144 141/141/141
f 147/147/147 144/144/144 146/146/146
f 150/150/150 149/149/149 148/148/148
f 149/149/149 151/151/151 148/148/148
f 152/152/152 151/151/151 149/149/149
f 151/151/151 153/153/153 148/148/148
f 153/153/153 154/154/154 148/148/148
f 148/148/148 154/154/154 155/155/155
f 156/156/156 154/154/154 153/153/153
f 157/157/157 154/154/154 156/156/156
f 158/158/158 156/156/156 153/153/153
f 159/159/159 156/156/156 158/158/158
f 162/162/162 161/161/161 160/160/160
f 161/161/161 163/163/163 160/160/160
f 160/160/160 163/163/163 164/164/164
f 165/165/165 163/163/163 161/161/161
f 166/166/166 163/163/163 165/165/165
f 167/167/167 166/166/166 165/165/165
f 168/168/168 167/167/167 165/165/165
f 169/169/169 168/168/168 165/165/165
f 170/170/170 167/167/167 168/168/168
f 171/171/171 166/166/166 167/167/167
f 172/172/172 171/171/171 167/167/167
f 173/173/173 163/163/163 166/166/166
f 174/174/174 173/173/173 166/166/166
f 175/175/175 173/173/173 174/174/174
f 176/176/176 163/163/163 173/173/173
f 177/177/177 163/163/163 176/176/176
