g Device_Prop_Box_01_v_042
v 0.11662723 -0.004974987 -0.10765837
v 0.11662718 -5.6198118E-05 0.14812313
v 0.11662721 -0.0049750353 0.14919564
v -0.090452895 -0.0049750353 0.07552039
v 0.11662723 -0.004974987 -0.10765837
v 0.11662721 -0.0049750353 0.14919564
v -0.13133879 -0.004974987 -0.10765837
v -0.14327763 -0.0049750353 0.056726333
v 0.11662723 -0.004974987 -0.10765837
v 0.11662721 0.005024984 0.14701523
v 0.11662718 -5.6198118E-05 0.14812313
v 0.11662723 0.0050250324 -0.10765837
v -0.12772672 0.0008682609 -0.10765837
v 0.11662723 -0.004974987 -0.10765837
v -0.13133879 -0.004974987 -0.10765837
v 0.11662723 0.0050250324 -0.10765837
v -0.12515718 0.0050250324 -0.10765837
v 0.11662718 -5.6198118E-05 0.14812313
v -0.090452895 -0.0049750353 0.07552039
v 0.11662721 -0.0049750353 0.14919564
v -0.13709737 0.005024984 0.056744743
v 0.11662721 0.005024984 0.14701523
v -0.14327763 -0.0049750353 0.056726333
v 0.11662723 0.0050250324 -0.10765837
v -0.13709737 0.005024984 0.056744743
v 0.11662721 0.005024984 0.14701523
v -0.12515718 0.0050250324 -0.10765837
v -0.13709737 0.005024984 0.056744743
v -0.13133879 -0.004974987 -0.10765837
v -0.14327763 -0.0049750353 0.056726333
v -0.12772672 0.0008682609 -0.10765837
v -0.12515718 0.0050250324 -0.10765837
vt 1.639609 0.069198
vt 1.639609 0.19973408
vt 1.6396091 0.20028143
vt 1.745291 0.16268183
vt 1.639609 0.069198
vt 1.6396091 0.20028143
vt 1.7661569 0.069198
vt 1.7722498 0.15309043
vt 1.639609 0.069198
vt 1.6396091 0.19916867
vt 1.639609 0.19973408
vt 1.639609 0.069198
vt 1.7643135 0.069198
vt 1.639609 0.069198
vt 1.7661569 0.069198
vt 1.639609 0.069198
vt 1.7630022 0.069198
vt 0.4915892 0.00395401
vt 0.3188047 0
vt 0.49187228 0
vt 0.27924597 0.008038444
vt 0.49129677 0.008038444
vt 0.27465633 0
vt 1.639609 0.069198
vt 1.7690958 0.15309983
vt 1.6396091 0.19916867
vt 1.7630022 0.069198
vt 0.0049435426 0.12969807
vt 0.009256973 0
vt 0.014199943 0.12968355
vt 0.0038478852 0
vt 0 0
vn -1 -4.945168E-06 0
vn -1 -4.945168E-06 0
vn -1 -4.9451683E-06 0
vn -0 1 2.8729164E-07
vn -0 1 2.6447748E-07
vn -0 1 0
vn -0 1 2.8729167E-07
vn -0 1 2.8729164E-07
vn -1 -4.945168E-06 0
vn -1 4.706231E-06 -2.7990927E-07
vn -1 -4.945168E-06 0
vn -1 0 0
vn -0 0 1
vn -0 0 1
vn -0 0 1
vn -0 0 1
vn -0 0 1
vn 0.32834202 -0.20122567 -0.9228758
vn 0.3283421 -0.20122454 -0.922876
vn 0.32834208 -0.20122394 -0.9228761
vn 0.32834202 -0.20122567 -0.9228758
vn 0.32834202 -0.20122567 -0.9228758
vn 0.3283421 -0.20122452 -0.922876
vn -0 -1 0
vn -0 -1 0
vn -0 -1 0
vn -0 -1 -2.9468208E-07
vn 0.84898573 -0.52480596 0.06165954
vn 0.84898484 -0.52480745 0.06165952
vn 0.84898496 -0.52480716 0.061659515
vn 0.84898573 -0.52480596 0.06165954
vn 0.84898573 -0.524806 0.06165954
g Device_Prop_Box_01_v_042_0
f 3/3/3 2/2/2 1/1/1
f 6/6/6 5/5/5 4/4/4
f 5/5/5 7/7/7 4/4/4
f 7/7/7 8/8/8 4/4/4
f 11/11/11 10/10/10 9/9/9
f 10/10/10 12/12/12 9/9/9
f 15/15/15 14/14/14 13/13/13
f 14/14/14 16/16/16 13/13/13
f 16/16/16 17/17/17 13/13/13
f 20/20/20 19/19/19 18/18/18
f 19/19/19 21/21/21 18/18/18
f 21/21/21 22/22/22 18/18/18
f 23/23/23 21/21/21 19/19/19
f 26/26/26 25/25/25 24/24/24
f 27/27/27 24/24/24 25/25/25
f 30/30/30 29/29/29 28/28/28
f 29/29/29 31/31/31 28/28/28
f 31/31/31 32/32/32 28/28/28
