g Device_Prop_Box_01_v_054
v -0.06119878 0.0049778935 -0.122294396
v 0.20463942 0.0049779424 -0.13283
v -0.010978896 0.0049778935 -0.16536674
v 0.20463939 0.004977845 0.11286055
v -0.33537614 0.004977845 0.11286055
v 0.20463939 -0.005022126 0.11286055
v -0.33501896 0.004158031 0.11286055
v -0.3310198 -0.005022126 0.11286055
v -0.33537614 0.004977845 0.11286055
v 0.20463939 0.004977845 0.11286055
v 0.20463942 -0.005022077 -0.12592904
v -0.3310198 -0.005022126 0.11286055
v -0.014116592 -0.005022077 -0.15893933
v 0.20463939 -0.005022126 0.11286055
v -0.06119878 0.0049778935 -0.122294396
v -0.33501896 0.004158031 0.11286055
v -0.33537614 0.004977845 0.11286055
v -0.014116592 -0.005022077 -0.15893933
v -0.010978896 0.0049778935 -0.16536674
v -0.3310198 -0.005022126 0.11286055
v 0.20463939 0.004977845 0.11286055
v 0.20463939 0.00031500016 -0.12961212
v 0.20463942 0.0049779424 -0.13283
v 0.20463942 -0.005022077 -0.12592904
v 0.20463939 -0.005022126 0.11286055
v -0.010978896 0.0049778935 -0.16536674
v 0.20463942 -0.005022077 -0.12592904
v -0.014116592 -0.005022077 -0.15893933
v 0.20463939 0.00031500016 -0.12961212
v 0.20463942 0.0049779424 -0.13283
vt 0.8039458 0.21456641
vt 0.9396146 0.20918965
vt 0.8295752 0.19258478
vt 0.9396146 0.3345759
vt 0.6640212 0.3345759
vt 0.9396146 0.3345759
vt 0.66420346 0.3345759
vt 0.6662444 0.3345759
vt 0.6640212 0.3345759
vt 0.9396146 0.3345759
vt 0.9396146 0.2127115
vt 0.6662444 0.3345759
vt 0.82797384 0.19586498
vt 0.9396146 0.3345759
vt 0.27576512 0.008184586
vt 0.5599672 0.0075136186
vt 0.5601807 0.008184548
vt 0.22884008 4.513652E-08
vt 0.22366993 0.0081846
vt 0.55757695 0
vt 0.9396146 0.3345759
vt 0.9396146 0.21083185
vt 0.9396146 0.20918965
vt 0.9396146 0.2127115
vt 0.9396146 0.3345759
vt 0.17251112 0.009532547
vt 0 0
vt 0.17419893 3.8146972E-08
vt 0.00043273927 0.0050875475
vt 0.0008107948 0.009532585
vn -0 -1 0
vn -0 -1 -3.9437137E-07
vn -0 -1 0
vn -0 -1 0
vn -0 -1 0
vn -0 0 -1
vn -0 0 -1
vn -0 0 -1
vn -0 0 -1
vn -0 0 -1
vn -0 1 0
vn -0 1 0
vn -0 1 0
vn -0 1 0
vn 0.6263229 0.27284613 0.73025656
vn 0.6263226 0.27284652 0.7302566
vn 0.6263179 0.27287138 0.7302513
vn 0.6263229 0.27284607 0.73025656
vn 0.6263229 0.27284607 0.73025656
vn 0.6263226 0.27284652 0.7302566
vn -1 0 0
vn -1 5.126822E-06 0
vn -1 5.126822E-06 0
vn -1 0 0
vn -1 0 0
vn -0.12325056 0.56364584 0.81676966
vn -0.12325056 0.56364584 0.81676966
vn -0.12325057 0.56364584 0.8167697
vn -0.12325041 0.56364673 0.81676906
vn -0.123250194 0.56364846 0.816768
g Device_Prop_Box_01_v_054_0
f 3/3/3 2/2/2 1/1/1
f 2/2/2 4/4/4 1/1/1
f 4/4/4 5/5/5 1/1/1
f 8/8/8 7/7/7 6/6/6
f 7/7/7 9/9/9 6/6/6
f 9/9/9 10/10/10 6/6/6
f 13/13/13 12/12/12 11/11/11
f 14/14/14 11/11/11 12/12/12
f 17/17/17 16/16/16 15/15/15
f 16/16/16 18/18/18 15/15/15
f 18/18/18 19/19/19 15/15/15
f 20/20/20 18/18/18 16/16/16
f 23/23/23 22/22/22 21/21/21
f 22/22/22 24/24/24 21/21/21
f 24/24/24 25/25/25 21/21/21
f 28/28/28 27/27/27 26/26/26
f 27/27/27 29/29/29 26/26/26
f 29/29/29 30/30/30 26/26/26
