g Device_Prop_Box_005_v_001
v -0.009988343 0.12897749 0.22515626
v -0.009963927 0.15278283 0.19360699
v -0.009988343 0.12897962 0.19360699
v -0.086188346 0.1288901 0.19360699
v -0.086188346 0.13818808 0.24494822
v -0.08618825 0.1288901 0.2572669
v -0.08618825 0.324845 -0.0023481487
v -0.086188346 -0.25490314 0.14879867
v -0.086188346 -0.25440994 0.19360699
v -0.08618825 -0.25762498 -0.09849296
v -0.08618815 0.3974142 -0.09849296
v -0.011853637 0.1289774 0.22593954
v -0.086188346 0.1288901 0.19360699
v -0.08618825 0.1288901 0.2572669
v -0.009988343 0.12897962 0.19360699
v -0.009988343 0.12897749 0.22515626
v 0.38699874 0.24745147 -0.09849301
v 0.11974221 0.21505955 -0.098493
v 0.48920706 0.21505955 -0.09849303
v -0.051674463 0.38647613 -0.098492965
v 0.03926698 -0.36735073 -0.09849299
v 0.119742304 -0.43773615 -0.098493
v -0.08223713 0.39616206 -0.09849296
v -0.08618815 0.3974142 -0.09849296
v -0.08618825 -0.25762498 -0.09849296
v 0.119771756 0.21510886 -0.02241605
v -0.009957435 0.12867577 -0.02238947
v -0.0099554 0.2151577 -0.022680653
v 0.11975412 -0.4369084 -0.022342326
v 0.05605588 -0.3811965 -0.022340376
v -0.0100122765 -0.3234121 -0.022362152
v 0.119771756 0.21510886 -0.02241605
v 0.26740152 0.22793609 -0.02242122
v 0.30784643 0.21510266 -0.022400564
v 0.119785324 0.27475753 -0.022472622
v -0.009988343 0.12897962 0.19360699
v -0.009963927 0.15278283 0.19360699
v -0.009973422 0.22664633 0.095751315
v -0.0099554 0.31603205 -0.022680653
v -0.0099554 0.2151577 -0.022680653
v -0.009957435 0.12867577 -0.02238947
v -0.009988343 0.12897962 0.19360699
v -0.0100122765 -0.3234121 -0.022362152
v -0.010029136 -0.32209003 0.096424185
v -0.009988343 -0.32105604 0.19360699
v 0.0666267 0.29169858 -0.022597106
v -0.0099554 0.2151577 -0.022680653
v -0.0099554 0.31603205 -0.022680653
v 0.119785324 0.27475753 -0.022472622
v 0.119771756 0.21510886 -0.02241605
v -0.009988343 0.12897962 0.19360699
v -0.086188346 -0.25440994 0.19360699
v -0.086188346 0.1288901 0.19360699
v -0.025051862 -0.3078812 0.19360699
v -0.009988343 -0.32105604 0.19360699
v 0.119771756 0.21510886 -0.02241605
v 0.119754076 -0.43741134 -0.0680362
v 0.11975412 -0.4369084 -0.022342326
v 0.119742304 -0.43773615 -0.098493
v 0.11974221 0.21505955 -0.098493
v 0.119754076 -0.43741134 -0.0680362
v 0.05605588 -0.3811965 -0.022340376
v 0.11975412 -0.4369084 -0.022342326
v -0.0100122765 -0.3234121 -0.022362152
v -0.08618825 -0.25762498 -0.09849296
v 0.03926698 -0.36735073 -0.09849299
v 0.119742304 -0.43773615 -0.098493
v -0.025051862 -0.3078812 0.19360699
v -0.010029136 -0.32209003 0.096424185
v -0.009988343 -0.32105604 0.19360699
v -0.086188346 -0.25490314 0.14879867
v -0.086188346 -0.25440994 0.19360699
v 0.44916773 0.21505944 -0.08168131
v 0.119771756 0.21510886 -0.02241605
v 0.30784643 0.21510266 -0.022400564
v 0.11974221 0.21505955 -0.098493
v 0.48920706 0.21505955 -0.09849303
v 0.44916773 0.21505944 -0.08168131
v 0.38699874 0.24745147 -0.09849301
v 0.48920706 0.21505955 -0.09849303
v 0.26740152 0.22793609 -0.02242122
v 0.30784643 0.21510266 -0.022400564
v -0.0099554 0.31603205 -0.022680653
v -0.051674463 0.38647613 -0.098492965
v 0.0666267 0.29169858 -0.022597106
v 0.119785324 0.27475753 -0.022472622
v -0.009973422 0.22664633 0.095751315
v -0.08618825 0.324845 -0.0023481487
v -0.08223713 0.39616206 -0.09849296
v -0.08618815 0.3974142 -0.09849296
v -0.011853637 0.1289774 0.22593954
v -0.086188346 0.13818808 0.24494822
v -0.08618825 0.1288901 0.2572669
v -0.009963927 0.15278283 0.19360699
v -0.009988343 0.12897749 0.22515626
vt 1.7129931 0.41641307
vt 1.712993 0.40988058
vt 1.712993 0.40988058
vt 1.0654813 0.47036183
vt 1.0635561 0.48099238
vt 1.0654813 0.48354304
vt 1.0249075 0.429788
vt 1.1449484 0.46108398
vt 1.1448462 0.47036183
vt 1.1455119 0.40988055
vt 1.0098815 0.40988055
vt 1.7126068 0.41657525
vt 1.6972152 0.40988058
vt 1.6972152 0.4230618
vt 1.712993 0.40988058
vt 1.7129931 0.41641307
vt 1.5475845 0.102976725
vt 1.5408776 0.04763943
vt 1.5408776 0.12413964
vt 1.5763706 0.012146355
vt 1.4202855 0.030976456
vt 1.4057118 0.04763945
vt 1.5783762 0.0058181453
vt 1.5786353 0.005000056
vt 1.443005 0.0050000763
vt 1.8435996 0.40988058
vt 1.8435996 0.42983592
vt 1.8435996 0.40988058
vt 1.8435996 0.54487276
vt 1.8435996 0.53435004
vt 1.8435996 0.5224886
vt 1.6868718 0.7190452
vt 1.6868718 0.68847686
vt 1.6868718 0.6801023
vt 1.6868718 0.7190452
vt 1.4625545 0.8426319
vt 1.4625545 0.84263194
vt 1.4625545 0.8426319
vt 1.4625545 0.8426319
vt 1.4625545 0.8426319
vt 1.4625545 0.8426319
vt 1.4625545 0.8426319
vt 1.3676097 0.8426318
vt 1.3678523 0.8426319
vt 1.3683568 0.8426319
vt 1.4625545 0.8426319
vt 1.4625545 0.8426319
vt 1.4625545 0.8426319
vt 1.4625545 0.8426319
vt 1.4625545 0.8426319
vt 1.4625545 0.8426319
vt 1.3831896 0.85840964
vt 1.4625545 0.85840964
vt 1.372103 0.84575087
vt 1.3683568 0.8426319
vt 1.8435996 0.40988058
vt 1.8341384 0.54498327
vt 1.8435996 0.54487276
vt 1.8278219 0.5450464
vt 1.8278219 0.40988058
vt 0.20759167 0.21542625
vt 0.17112571 0.14879464
vt 0.17161006 0.21542625
vt 0.17064212 0.07968399
vt 0.23001389 2.2888183E-07
vt 0.23096478 0.13123268
vt 0.23157474 0.2154139
vt 0.00046339034 0.06395187
vt 0.077103764 0.07966644
vt 0.00057756423 0.079709016
vt 0.035284292 7.6293944E-08
vt 0 0
vt 1.674575 0.65083545
vt 1.6868718 0.7190452
vt 1.6868718 0.6801023
vt 1.671094 0.7190452
vt 1.671094 0.64254504
vt 0.09706852 0.43481743
vt 0.07113716 0.38432366
vt 0.08650276 0.46733743
vt 0.12820366 0.28718644
vt 0.13430439 0.32003585
vt 0.08625095 0.061916504
vt 0.005188675 0.028032226
vt 0.09784641 0.12411667
vt 0.10596088 0.16729225
vt 0.20308377 0.061901856
vt 0.09484883 7.6293944E-08
vt 0.00059402466 0.0032091523
vt 0 1.5258789E-07
vt 0.33123437 0.060374755
vt 0.3388116 0
vt 0.35096416 7.6293944E-08
vt 0.29962173 0.06190956
vt 0.33074203 0.0618898
vn 0.9999995 -0.0010257909 0
vn 0.9999995 -0.0010257908 0
vn 0.9999995 -0.0010257909 0
vn -1 -8.40438E-06 1.5220462E-06
vn -1 -8.40438E-06 1.5220462E-06
vn -1 -8.40438E-06 1.5220461E-06
vn -1 4.1864925E-07 0
vn -1 0 -3.9253118E-07
vn -1 0 0
vn -1 0 -8.961366E-07
vn -1 0 -8.961367E-07
vn 2.3571802E-05 -1 -6.756586E-05
vn 0.001174926 -0.9999993 -1.1432223E-06
vn 0.0011744294 -0.9999993 0
vn 2.3571802E-05 -1 -6.756586E-05
vn 2.3571802E-05 -1 -6.756586E-05
vn -0 0 -1
vn -0 0 -1
vn -0 3.0725025E-07 -1
vn -0 0 -1
vn -0 0 -1
vn -0 0 -1
vn -0 0 -1
vn -3.916212E-07 0 -1
vn -0 0 -1
vn -0.002038409 0.0033669972 0.99999225
vn -0.0020384095 0.003366998 0.99999225
vn -0.0020384092 0.0033669975 0.99999225
vn 0.00012954946 0.000113066664 1
vn -0.00027673165 6.045957E-05 1
vn -0.00027673165 6.045957E-05 1
vn -8.228848E-05 0.0013502459 0.99999917
vn -8.228848E-05 0.001350246 0.99999917
vn -8.228848E-05 0.001350246 0.99999917
vn -4.7377893E-05 0.0009484567 0.9999995
vn 1 -2.3046225E-05 0.00014313181
vn 0.99999917 -0.0010257906 -0.00087132433
vn 1 -1.2839133E-06 0.00015120406
vn 1 0 0.00015231442
vn 1 -2.3046225E-05 0.00014313181
vn 1 -2.3046225E-05 0.00014313182
vn 1 -0.00012129876 0.00014327004
vn 1 -0.00012129875 0.00014327004
vn 1 0 -0.0004197459
vn 1 0 -0.00041974592
vn -0.0020393294 0.0009489057 0.9999975
vn -0.0020393294 0.0009489058 0.9999975
vn -0.0010909364 0 0.9999994
vn -0.0020393291 0.0009489058 0.9999975
vn -0.0020393305 0.00094890787 0.9999975
vn -0 0 1
vn -0 0 1
vn -0 0 1
vn -0 0 1
vn -0 0 1
vn 1 0 -0.0003884549
vn 1 -2.7046277E-05 -7.62562E-07
vn 1 -2.7046277E-05 -7.625621E-07
vn 1 0 -0.0003884549
vn 1 0 -0.0003884549
vn -0.6583209 -0.7526918 0.00828512
vn -0.65832084 -0.7526918 0.008285119
vn -0.65832096 -0.7526918 0.008285119
vn -0.6583226 -0.7526904 0.008283809
vn -0.6583203 -0.7526923 0.008281406
vn -0.6583206 -0.7526921 0.008282245
vn -0.65832067 -0.7526921 0.008282245
vn -0.6583192 -0.75269336 0.008284766
vn -0.6583192 -0.75269336 0.008284766
vn -0.6583192 -0.7526933 0.008284765
vn -0.65832025 -0.7526923 0.008284293
vn -0.6583204 -0.7526922 0.008284585
vn -3.3025397E-05 -0.99999976 0.0006502484
vn -3.3025397E-05 -0.99999976 0.0006502484
vn -3.3025397E-05 -0.99999976 0.0006502484
vn -0 -1 -5.7634415E-06
vn -0 -1 -5.7634415E-06
vn 0.24522938 0.77378774 0.5840506
vn 0.2452294 0.77378774 0.58405066
vn 0.2452294 0.77378774 0.5840506
vn 0.24523 0.7737898 0.5840476
vn 0.24523 0.7737898 0.5840477
vn 0.24542853 0.7744122 0.5831385
vn 0.24522974 0.7737888 0.584049
vn 0.24525449 0.7738662 0.5839361
vn 0.24525449 0.7738661 0.58393615
vn 0.24522853 0.773789 0.5840493
vn 0.2452286 0.7737891 0.5840492
vn 0.2452286 0.7737891 0.5840492
vn 0.24522856 0.7737891 0.58404917
vn 0.24522495 0.77379024 0.58404917
vn 0.24523015 0.7737891 0.58404857
vn 0.24522981 0.77379066 0.5840465
vn 0.24522494 0.7737902 0.58404917
vn 0.24522495 0.7737902 0.58404917
g Device_Prop_Box_005_v_001_0
f 3/3/3 2/2/2 1/1/1
f 6/6/6 5/5/5 4/4/4
f 7/7/7 4/4/4 5/5/5
f 4/4/4 7/7/7 8/8/8
f 9/9/9 4/4/4 8/8/8
f 7/7/7 10/10/10 8/8/8
f 11/11/11 10/10/10 7/7/7
f 14/14/14 13/13/13 12/12/12
f 13/13/13 15/15/15 12/12/12
f 15/15/15 16/16/16 12/12/12
f 19/19/19 18/18/18 17/17/17
f 20/20/20 17/17/17 18/18/18
f 20/20/20 18/18/18 21/21/21
f 18/18/18 22/22/22 21/21/21
f 23/23/23 20/20/20 21/21/21
f 23/23/23 21/21/21 24/24/24
f 25/25/25 24/24/24 21/21/21
f 28/28/28 27/27/27 26/26/26
f 29/29/29 26/26/26 27/27/27
f 30/30/30 29/29/29 27/27/27
f 31/31/31 30/30/30 27/27/27
f 34/34/34 33/33/33 32/32/32
f 35/35/35 32/32/32 33/33/33
f 38/38/38 37/37/37 36/36/36
f 39/39/39 38/38/38 36/36/36
f 40/40/40 39/39/39 36/36/36
f 40/40/40 36/36/36 41/41/41
f 43/43/43 41/41/41 42/42/42
f 44/44/44 43/43/43 42/42/42
f 45/45/45 44/44/44 42/42/42
f 48/48/48 47/47/47 46/46/46
f 47/47/47 49/49/49 46/46/46
f 50/50/50 49/49/49 47/47/47
f 53/53/53 52/52/52 51/51/51
f 52/52/52 54/54/54 51/51/51
f 54/54/54 55/55/55 51/51/51
f 58/58/58 57/57/57 56/56/56
f 57/57/57 59/59/59 56/56/56
f 59/59/59 60/60/60 56/56/56
f 63/63/63 62/62/62 61/61/61
f 62/62/62 64/64/64 61/61/61
f 64/64/64 65/65/65 61/61/61
f 65/65/65 66/66/66 61/61/61
f 66/66/66 67/67/67 61/61/61
f 68/68/68 65/65/65 64/64/64
f 69/69/69 68/68/68 64/64/64
f 70/70/70 68/68/68 69/69/69
f 71/71/71 65/65/65 68/68/68
f 72/72/72 71/71/71 68/68/68
f 75/75/75 74/74/74 73/73/73
f 74/74/74 76/76/76 73/73/73
f 76/76/76 77/77/77 73/73/73
f 80/80/80 79/79/79 78/78/78
f 79/79/79 81/81/81 78/78/78
f 81/81/81 82/82/82 78/78/78
f 83/83/83 81/81/81 79/79/79
f 84/84/84 83/83/83 79/79/79
f 85/85/85 81/81/81 83/83/83
f 86/86/86 81/81/81 85/85/85
f 87/87/87 83/83/83 84/84/84
f 88/88/88 87/87/87 84/84/84
f 89/89/89 88/88/88 84/84/84
f 90/90/90 88/88/88 89/89/89
f 91/91/91 87/87/87 88/88/88
f 92/92/92 91/91/91 88/88/88
f 93/93/93 91/91/91 92/92/92
f 94/94/94 87/87/87 91/91/91
f 95/95/95 94/94/94 91/91/91
