g Device_Prop_Box_01_v_027
v 0.0707763 0.26529026 -0.01420491
v -1.108969 0.102623045 -0.014204837
v -1.1913637 0.26529026 -0.014204825
v 0.0707763 0.059411246 -0.01420491
v 0.17983757 -0.8610359 -0.01424087
v 0.0707763 -0.93461126 -0.01420491
v 0.17983757 -0.8610359 -0.01424087
v 0.2001157 0.05945348 -0.014271367
v 0.20006637 -0.8473913 -0.014251565
v 0.2001157 0.05945348 -0.014271367
v 0.17983757 -0.8610359 -0.01424087
v 0.0707763 0.059411246 -0.01420491
v 0.20006637 -0.8473913 -0.014251565
v 0.0707763 -0.93461126 -0.01420491
v 0.17983757 -0.8610359 -0.01424087
v 0.0707763 0.059411246 -0.09040491
v -1.0991693 0.103985354 -0.09040484
v -1.0765914 0.059411246 -0.09040484
v 0.0707763 0.2653415 -0.09040491
v -1.1808999 0.2653415 -0.09040482
v 0.21980645 -0.87707144 -0.090404876
v 0.0707763 -0.97763884 -0.09040491
v 0.2269559 -0.8722469 -0.090404876
v 0.27670667 -0.8386745 -0.09040486
v 0.27670655 0.6815272 -0.09040486
v 0.13327044 0.6580449 -0.0904049
v 0.0707763 0.6478137 -0.09040491
v 0.0707763 0.059411246 -0.09040491
v 0.0707763 -0.9381901 -0.02054286
v 0.0707763 -0.97763884 -0.09040491
v 0.0707763 0.059411246 -0.01420491
v 0.0707763 -0.93461126 -0.01420491
v 0.0707763 0.26529026 -0.01420491
v 0.0707763 0.66009456 -0.04185177
v 0.0707763 0.66708744 -0.01420491
v 0.0707763 0.6478137 -0.09040491
v 0.0707763 0.2653415 -0.09040491
v 0.0707763 0.2653415 -0.09040491
v -1.1897336 0.26529825 -0.026076702
v -1.1808999 0.2653415 -0.09040482
v 0.0707763 0.26529026 -0.01420491
v -1.1913637 0.26529026 -0.014204825
v 0.0707763 0.059411246 -0.01420491
v -1.0790036 0.059411246 -0.072882034
v -1.0870811 0.059411246 -0.014204837
v 0.0707763 0.059411246 -0.09040491
v -1.0765914 0.059411246 -0.09040484
v 0.20010968 0.26537362 -0.014272433
v 0.14661905 0.6794939 -0.014244503
v 0.20014088 0.6882376 -0.014317936
v 0.0707763 0.26529026 -0.01420491
v 0.0707763 0.66708744 -0.01420491
v 0.2001157 0.05945348 -0.014271367
v 0.0707763 0.26529026 -0.01420491
v 0.20010968 0.26537362 -0.014272433
v 0.0707763 0.059411246 -0.01420491
v -1.108969 0.102623045 -0.014204837
v -1.0870811 0.059411246 -0.014204837
v 0.20043069 0.16173181 0.20169523
v 0.20030695 0.7155084 0.0933915
v 0.20041741 0.7429203 0.20169523
v 0.20010968 0.26537362 -0.014272433
v 0.20014088 0.6882376 -0.014317936
v 0.2001157 0.05945348 -0.014271367
v 0.20045094 -0.7251939 0.20169523
v 0.20039 -0.7488888 0.15980552
v 0.20006637 -0.8473913 -0.014251565
v 0.27670667 0.7554099 0.20169519
v 0.27670667 -0.6903597 0.17225468
v 0.27670667 -0.6737356 0.20169519
v 0.27670667 0.706707 0.0091453595
v 0.27670655 0.6815272 -0.09040486
v 0.27670667 -0.8386745 -0.09040486
v 0.20041741 0.7429203 0.20169523
v 0.24098751 0.7495622 0.20169519
v 0.20043069 0.16173181 0.20169523
v 0.25895116 0.75250316 0.2016952
v 0.20045094 -0.7251939 0.20169523
v 0.2081621 -0.7199904 0.20169523
v 0.27670667 -0.6737356 0.20169519
v 0.27670667 0.7554099 0.20169519
v 0.13327044 0.6580449 -0.0904049
v 0.0707763 0.66009456 -0.04185177
v 0.0707763 0.6478137 -0.09040491
v 0.14661905 0.6794939 -0.014244503
v 0.0707763 0.66708744 -0.01420491
v 0.20014088 0.6882376 -0.014317936
v 0.27670667 0.706707 0.0091453595
v 0.27670655 0.6815272 -0.09040486
v 0.24098751 0.7495622 0.20169519
v 0.20030695 0.7155084 0.0933915
v 0.20041741 0.7429203 0.20169523
v 0.25895116 0.75250316 0.2016952
v 0.27670667 0.7554099 0.20169519
v 0.27670667 -0.6903597 0.17225468
v 0.2081621 -0.7199904 0.20169523
v 0.27670667 -0.6737356 0.20169519
v 0.20039 -0.7488888 0.15980552
v 0.20045094 -0.7251939 0.20169523
v 0.21980645 -0.87707144 -0.090404876
v 0.20006637 -0.8473913 -0.014251565
v 0.2269559 -0.8722469 -0.090404876
v 0.27670667 -0.8386745 -0.09040486
v 0.0707763 -0.9381901 -0.02054286
v 0.0707763 -0.93461126 -0.01420491
v 0.0707763 -0.97763884 -0.09040491
v -1.0790036 0.059411246 -0.072882034
v -1.108969 0.102623045 -0.014204837
v -1.0870811 0.059411246 -0.014204837
v -1.0991693 0.103985354 -0.09040484
v -1.0765914 0.059411246 -0.09040484
v -1.1897336 0.26529825 -0.026076702
v -1.1913637 0.26529026 -0.014204825
v -1.1808999 0.2653415 -0.09040482
vt 1.6607503 0.40988055
vt 1.6607503 0.65415496
vt 1.6607504 0.6712154
vt 1.8697212 0.63518006
vt 1.8697213 0.44511634
vt 1.869721 0.42936093
vt 1.8697213 0.44511634
vt 1.8697212 0.63518006
vt 1.8697212 0.44793233
vt 1.8697212 0.63518006
vt 1.8697213 0.44511634
vt 1.8697212 0.63518006
vt 0.21529523 0.11807766
vt 0.24903129 3.8146972E-08
vt 0.22057052 0.099603154
vt 1.2729387 0.35680407
vt 1.2821681 0.114558905
vt 1.2729387 0.11923379
vt 1.315578 0.35680407
vt 1.315578 0.09763601
vt 1.0790336 0.38766184
vt 1.0582106 0.35680413
vt 1.0800326 0.38914222
vt 1.0869839 0.39944342
vt 1.4017522 0.39944342
vt 1.3968899 0.3697439
vt 1.3947716 0.35680407
vt 1.8539431 0.63518006
vt 1.8684089 0.42861992
vt 1.8539431 0.4204518
vt 1.8697212 0.63518006
vt 1.869721 0.42936093
vt 1.8174784 0.40988058
vt 1.811754 0.49162364
vt 1.8174784 0.49307153
vt 1.8017006 0.48907408
vt 1.8017006 0.40988058
vt 1.3141646 0.9141512
vt 1.0531675 0.90083134
vt 1.0549966 0.91415113
vt 1.3141646 0.8983732
vt 1.05283 0.89837325
vt 1.6607503 0.40988055
vt 1.6486007 0.6479504
vt 1.6607503 0.64962286
vt 1.6449726 0.40988055
vt 1.6449726 0.647451
vt 1.8174784 0.40988058
vt 1.8174784 0.49563015
vt 1.8174784 0.49744928
vt 1.8174784 0.40988058
vt 1.8174784 0.49307153
vt 1.6607503 0.40988055
vt 1.6607503 0.40988055
vt 1.6607503 0.40988055
vt 1.6607503 0.40988055
vt 1.6607503 0.65415496
vt 1.6607503 0.64962286
vt 1.005 0.8862804
vt 1.005 0.8862804
vt 1.005 0.8862804
vt 1.0050001 0.8862804
vt 1.0050001 0.8862804
vt 1.0050001 0.8862804
vt 1.005 0.8862804
vt 1.005 0.8862804
vt 1.005 0.8862804
vt 0.41705012 0.47036183
vt 0.11769364 0.46426597
vt 0.12113575 0.47036183
vt 0.4069659 0.4304931
vt 0.40175223 0.40988055
vt 0.086984016 0.40988052
vt 0.11346416 0.8426318
vt 0.11213385 0.8510211
vt 0.23377721 0.8426319
vt 0.11154478 0.8547357
vt 0.41738155 0.8426319
vt 0.4163128 0.8442264
vt 0.40689993 0.85840964
vt 0.11098553 0.85840964
vt 0.00197546 0.04982399
vt 0.039434794 3.8146972E-08
vt 0 0
vt 0.06425478 0.060466155
vt 0.061889533 0
vt 0.065886974 0.103136905
vt 0.08736405 0.16417953
vt 0.006509495 0.16417946
vt 0.24262372 0.13570213
vt 0.1533737 0.10326927
vt 0.24134132 0.103357315
vt 0.24319157 0.15002373
vt 0.24375278 0.16417946
vt 0.026621876 0.18807152
vt 0.017907944 0.12547134
vt 0 0.18807155
vt 0.057817727 0.11837326
vt 0.019922523 0.11842895
vt 0.27900028 0.13610588
vt 0.21529523 0.11807766
vt 0.27713245 0.1426353
vt 0.26413453 0.18807155
vt 0.2547625 3.8146972E-08
vt 0.24903129 3.8146972E-08
vt 0.31793597 0
vt 0.18459328 0.013901139
vt 0.14357838 0.060450744
vt 0.18171932 0.060450744
vt 0.14610817 0
vt 0.18545155 0
vt 0.0005744171 0.0510326
vt 0 0.060450744
vt 0.0036870574 0
vn -0 0 1
vn -0 0 1
vn -0 0 1
vn 0.0003297186 0 1
vn 0.00032971863 0 1
vn 0.00032971858 0 1
vn 0.0005139714 2.1808828E-05 0.9999999
vn 0.0005139714 2.1808828E-05 0.9999999
vn 0.0005139714 2.1808828E-05 0.9999999
vn 0.0005138092 2.1812399E-05 0.9999999
vn 0.00051380915 2.1812397E-05 0.9999999
vn 0.00051380915 2.1812397E-05 0.9999999
vn 0.50848985 -0.7535346 0.41668162
vn 0.50848985 -0.7535346 0.41668162
vn 0.50848985 -0.7535346 0.41668168
vn -0 0 -1
vn -0 0 -1
vn -0 0 -1
vn -0 0 -1
vn -0 0 -1
vn -0 0 -1
vn -0 0 -1
vn -0 0 -1
vn -0 0 -1
vn -0 0 -1
vn -0 0 -1
vn -0 0 -1
vn -1 0 0
vn -1 0 0
vn -1 0 0
vn -1 0 0
vn -1 0 0
vn -1 0 0
vn -1 0 0
vn -1 0 0
vn -1 0 0
vn -1 0 0
vn -0 0.99999976 0.00067215745
vn -0 0.99999976 0.00067215745
vn -0 0.99999976 0.00067215745
vn -0 0.99999976 0.00067218137
vn -0 0.99999976 0.0006723103
vn -0 -1 0
vn -0 -1 0
vn -0 -1 0
vn -0 -1 0
vn -0 -1 0
vn 0.0013544554 0.00010750793 0.99999917
vn 0.0013544554 0.00010750791 0.99999917
vn 0.0013544554 0.0001075079 0.99999917
vn 0.00052208116 0 0.9999999
vn 0.000522041 0 0.9999999
vn 0.0005138163 0 0.9999999
vn 0.0005138163 0 0.9999999
vn 0.0005220777 5.191151E-06 0.9999999
vn 0.00051381625 0 0.9999999
vn -0 0 1
vn -0 0 1
vn -0.9999989 -2.9165718E-05 0.0014723701
vn -0.9999995 -2.2840057E-05 0.0010256749
vn -0.9999995 -2.2840057E-05 0.0010256749
vn -0.9999989 -2.9165718E-05 0.0014723701
vn -0.9999988 7.394557E-05 0.0015231571
vn -0.9999989 -2.9165714E-05 0.00147237
vn -0.9999989 -2.3200268E-05 0.0014680346
vn -0.99999833 5.4424778E-05 0.0018284927
vn -0.99999833 5.442478E-05 0.0018284927
vn 1 0 0
vn 1 0 0
vn 1 0 0
vn 1 0 0
vn 1 0 -9.453929E-07
vn 1 0 0
vn 1.1941422E-06 0 1
vn 1.1941422E-06 0 1
vn 1.1941422E-06 0 1
vn -0 0 1
vn -0 0 1
vn -0 0 1
vn 7.122682E-07 0 1
vn 1.3642715E-06 0 1
vn -0.15675338 0.9574843 -0.24218228
vn -0.15675339 0.9574843 -0.24218231
vn -0.15675338 0.9574843 -0.24218228
vn -0.15675302 0.9574843 -0.24218228
vn -0.15675302 0.9574843 -0.24218228
vn -0.15675446 0.9574842 -0.24218172
vn -0.15674998 0.9574847 -0.24218288
vn -0.15675247 0.95748454 -0.24218188
vn -0.15675496 0.9574843 -0.24218135
vn -0.15675496 0.9574843 -0.24218135
vn -0.15675496 0.9574843 -0.24218135
vn -0.15674998 0.9574847 -0.24218288
vn -0.15674998 0.9574847 -0.24218291
vn 0.5066168 -0.75075126 0.42392454
vn 0.5066168 -0.75075126 0.42392454
vn 0.5066168 -0.75075126 0.42392454
vn 0.50661457 -0.75075245 0.42392525
vn 0.50661445 -0.75075245 0.42392525
vn 0.5066166 -0.7507516 0.4239242
vn 0.5066148 -0.7507512 0.4239269
vn 0.50661355 -0.7507531 0.42392528
vn 0.5066171 -0.7507516 0.42392352
vn 0.50661486 -0.7507512 0.4239269
vn 0.50661486 -0.7507512 0.42392683
vn 0.5066165 -0.7507516 0.4239242
vn -0.8854354 -0.44849426 -0.12188915
vn -0.8854354 -0.44849426 -0.12188914
vn -0.8854354 -0.44849426 -0.12188917
vn -0.8854354 -0.44849363 -0.1218919
vn -0.8854351 -0.44849426 -0.12189114
vn -0.885436 -0.4484945 -0.121884786
vn -0.885436 -0.4484945 -0.121884786
vn -0.8854354 -0.44849357 -0.121891886
g Device_Prop_Box_01_v_027_0
f 3/3/3 2/2/2 1/1/1
f 6/6/6 5/5/5 4/4/4
f 9/9/9 8/8/8 7/7/7
f 12/12/12 11/11/11 10/10/10
f 15/15/15 14/14/14 13/13/13
f 18/18/18 17/17/17 16/16/16
f 19/19/19 16/16/16 17/17/17
f 19/19/19 17/17/17 20/20/20
f 16/16/16 19/19/19 21/21/21
f 16/16/16 21/21/21 22/22/22
f 23/23/23 21/21/21 19/19/19
f 24/24/24 23/23/23 19/19/19
f 25/25/25 24/24/24 19/19/19
f 26/26/26 25/25/25 19/19/19
f 19/19/19 27/27/27 26/26/26
f 30/30/30 29/29/29 28/28/28
f 28/28/28 29/29/29 31/31/31
f 32/32/32 31/31/31 29/29/29
f 35/35/35 34/34/34 33/33/33
f 34/34/34 36/36/36 33/33/33
f 37/37/37 33/33/33 36/36/36
f 40/40/40 39/39/39 38/38/38
f 38/38/38 39/39/39 41/41/41
f 42/42/42 41/41/41 39/39/39
f 45/45/45 44/44/44 43/43/43
f 43/43/43 44/44/44 46/46/46
f 47/47/47 46/46/46 44/44/44
f 50/50/50 49/49/49 48/48/48
f 48/48/48 49/49/49 51/51/51
f 52/52/52 51/51/51 49/49/49
f 55/55/55 54/54/54 53/53/53
f 56/56/56 53/53/53 54/54/54
f 54/54/54 57/57/57 56/56/56
f 58/58/58 56/56/56 57/57/57
f 61/61/61 60/60/60 59/59/59
f 59/59/59 60/60/60 62/62/62
f 63/63/63 62/62/62 60/60/60
f 62/62/62 64/64/64 59/59/59
f 59/59/59 64/64/64 65/65/65
f 66/66/66 65/65/65 64/64/64
f 67/67/67 66/66/66 64/64/64
f 70/70/70 69/69/69 68/68/68
f 71/71/71 68/68/68 69/69/69
f 71/71/71 69/69/69 72/72/72
f 73/73/73 72/72/72 69/69/69
f 76/76/76 75/75/75 74/74/74
f 76/76/76 77/77/77 75/75/75
f 78/78/78 77/77/77 76/76/76
f 79/79/79 77/77/77 78/78/78
f 79/79/79 80/80/80 77/77/77
f 81/81/81 77/77/77 80/80/80
f 84/84/84 83/83/83 82/82/82
f 83/83/83 85/85/85 82/82/82
f 86/86/86 85/85/85 83/83/83
f 85/85/85 87/87/87 82/82/82
f 87/87/87 88/88/88 82/82/82
f 82/82/82 88/88/88 89/89/89
f 90/90/90 88/88/88 87/87/87
f 91/91/91 90/90/90 87/87/87
f 92/92/92 90/90/90 91/91/91
f 93/93/93 88/88/88 90/90/90
f 94/94/94 88/88/88 93/93/93
f 97/97/97 96/96/96 95/95/95
f 96/96/96 98/98/98 95/95/95
f 99/99/99 98/98/98 96/96/96
f 98/98/98 100/100/100 95/95/95
f 101/101/101 100/100/100 98/98/98
f 100/100/100 102/102/102 95/95/95
f 102/102/102 103/103/103 95/95/95
f 104/104/104 100/100/100 101/101/101
f 105/105/105 104/104/104 101/101/101
f 106/106/106 100/100/100 104/104/104
f 109/109/109 108/108/108 107/107/107
f 108/108/108 110/110/110 107/107/107
f 107/107/107 110/110/110 111/111/111
f 112/112/112 110/110/110 108/108/108
f 113/113/113 112/112/112 108/108/108
f 114/114/114 110/110/110 112/112/112
