g Device_Prop_Box_008_v_016
v -0.012513093 -0.20333846 -0.35502806
v -0.000115206145 -0.20333865 0.28966153
v -0.012513093 -0.20333865 0.30459008
v -0.012513093 -0.20333846 -0.35502806
v -0.012513093 0.11692096 -0.16360867
v -0.012513093 -0.0100055905 -0.35502806
v -0.012513093 -0.20333865 0.30459008
v -0.012513093 0.37527812 0.2260223
v 0.012886907 -0.20333846 -0.35502806
v 0.010730934 -0.015765123 -0.35502803
v 0.012886907 -0.016299393 -0.35502803
v -0.012513093 -0.20333846 -0.35502806
v -0.012513093 -0.0100055905 -0.35502806
v 0.012886907 -0.016299393 -0.35502803
v 0.012886907 -0.20333865 0.27400532
v 0.012886907 -0.20333846 -0.35502806
v 0.012887004 0.35089913 0.1987477
v 0.010730934 -0.015765123 -0.35502803
v 0.012887004 0.35089913 0.1987477
v 0.012886907 -0.016299393 -0.35502803
v -0.012513093 0.11692096 -0.16360867
v -0.012513093 -0.0100055905 -0.35502806
v -0.012513093 0.37527812 0.2260223
v -0.012513093 -0.20333846 -0.35502806
v 0.012886907 -0.20333865 0.27400532
v -0.000115206145 -0.20333865 0.28966153
v 0.012886907 -0.20333846 -0.35502806
v -0.000115206145 -0.20333865 0.28966153
v -0.012513093 0.37527812 0.2260223
v -0.012513093 -0.20333865 0.30459008
v 0.012887004 0.35089913 0.1987477
v 0.012886907 -0.20333865 0.27400532
vt 0.06986674 0.47474247
vt 0.06986674 0.6042402
vt 0.06986673 0.6072388
vt 0.06986674 0.47474247
vt 0.1341967 0.51319253
vt 0.108701155 0.47474247
vt 0.06986673 0.6072388
vt 0.18609245 0.591457
vt 0.06986674 0.47474247
vt 0.10754426 0.47474247
vt 0.10743695 0.47474247
vt 0.06986674 0.47474247
vt 0.108701155 0.47474247
vt 0.10743695 0.47474247
vt 0.06986674 0.6010953
vt 0.06986674 0.47474247
vt 0.1811955 0.5859784
vt 0.00023246765 0.018688584
vt 0.5231941 0.020422107
vt 0 0.020422058
vt 0.18358707 0
vt 0.0027386665 0
vt 0.5517011 0
vt 0.06986674 0.47474247
vt 0.06986674 0.6010953
vt 0.06986674 0.6042402
vt 0.06986674 0.47474247
vt 0.001147232 0.092814066
vt 0.45497543 0.027844695
vt 0.0022411346 0.1080547
vt 0.43365914 0
vt 0 0.076830596
vn 3.5375373E-07 1 2.9378603E-07
vn 3.5375373E-07 1 2.9378606E-07
vn 3.5375376E-07 1 2.9378606E-07
vn 1 0 0
vn 1 0 0
vn 1 0 0
vn 1 0 0
vn 1 0 0
vn -0 0 1
vn -0 0 1
vn -0 0 1
vn -0 0 1
vn -1.0421312E-06 0 1
vn -1 0 0
vn -1 0 0
vn -1 0 0
vn -1 0 0
vn -0.20226203 -0.81620103 0.54120785
vn -0.20226204 -0.81620103 0.5412079
vn -0.20226203 -0.8162009 0.5412079
vn -0.20224133 -0.8162046 0.54121023
vn -0.20224416 -0.81620437 0.5412096
vn -0.2022413 -0.8162046 0.54121023
vn 3.5375612E-07 1 2.9378603E-07
vn 3.5375612E-07 1 2.9378606E-07
vn 3.5375612E-07 1 2.9378603E-07
vn -0 1 3.0807047E-07
vn -0.7664204 -0.08642726 -0.63649833
vn -0.7664204 -0.08642726 -0.6364983
vn -0.7664205 -0.08642725 -0.6364982
vn -0.7664219 -0.0864271 -0.63649654
vn -0.7664227 -0.086426936 -0.6364957
g Device_Prop_Box_008_v_016_0
f 3/3/3 2/2/2 1/1/1
f 6/6/6 5/5/5 4/4/4
f 4/4/4 5/5/5 7/7/7
f 8/8/8 7/7/7 5/5/5
f 11/11/11 10/10/10 9/9/9
f 9/9/9 10/10/10 12/12/12
f 13/13/13 12/12/12 10/10/10
f 16/16/16 15/15/15 14/14/14
f 17/17/17 14/14/14 15/15/15
f 20/20/20 19/19/19 18/18/18
f 19/19/19 21/21/21 18/18/18
f 18/18/18 21/21/21 22/22/22
f 23/23/23 21/21/21 19/19/19
f 26/26/26 25/25/25 24/24/24
f 27/27/27 24/24/24 25/25/25
f 30/30/30 29/29/29 28/28/28
f 29/29/29 31/31/31 28/28/28
f 31/31/31 32/32/32 28/28/28
