g Device_Prop_Box_008_v_053
v 0.33925053 0.11308943 -0.012792048
v 0.3392506 -0.047031358 -0.009054292
v 0.3392506 -0.046959415 -0.012792048
v 0.33925053 0.11308943 0.012607952
v 0.3392506 -0.04744829 0.012607952
v 0.33925053 0.11308943 0.012607952
v 0.3392506 -0.047031358 -0.009054292
v 0.33925053 0.11308943 -0.012792048
v 0.33925053 0.11308943 0.012607952
v -0.40267408 0.11308943 -1.29837035E-05
v -0.41300192 0.11308943 0.012607952
v -0.3922168 0.11308943 -0.012792048
v 0.33925053 0.11308943 -0.012792048
v 0.33925053 0.11308943 0.012607952
v -0.036316484 -0.16059986 0.012607952
v 0.3392506 -0.04744829 0.012607952
v -0.41300192 0.11308943 0.012607952
v -0.12975504 -0.18875124 0.012607952
v -0.40267408 0.11308943 -1.29837035E-05
v -0.12975504 -0.18875124 0.012607952
v -0.41300192 0.11308943 0.012607952
v -0.3922168 0.11308943 -0.012792048
v -0.11390877 -0.18348818 -0.012792048
v 0.3392506 -0.046959415 -0.012792048
v -0.3922168 0.11308943 -0.012792048
v 0.33925053 0.11308943 -0.012792048
v -0.11390877 -0.18348818 -0.012792048
v -0.11390877 -0.18348818 -0.012792048
v -0.036316484 -0.16059986 0.012607952
v -0.12975504 -0.18875124 0.012607952
v 0.3392506 -0.047031358 -0.009054292
v 0.3392506 -0.046959415 -0.012792048
v 0.3392506 -0.04744829 0.012607952
vt 0.26911104 0.052329853
vt 0.2370191 0.052329846
vt 0.23703355 0.052329846
vt 0.26911104 0.052329853
vt 0.23693556 0.052329846
vt 0.26911104 0.052329853
vt 0.2370191 0.052329846
vt 0.26911104 0.052329853
vt 0.26911104 0.052329853
vt 0.26911104 0.20102873
vt 0.26911104 0.2030987
vt 0.26911104 0.19893286
vt 0.26911104 0.052329853
vt 0.26911104 0.052329853
vt 0.21425733 0.12760219
vt 0.23693556 0.052329846
vt 0.26911104 0.2030987
vt 0.20861515 0.14632945
vt 0.005564766 0.011717682
vt 0.32592776 0.023290252
vt 0 0.023290252
vt 0.011199265 7.6293944E-08
vt 0.33144394 4.7265694E-08
vt 0.23703355 0.052329846
vt 0.26911104 0.19893286
vt 0.26911104 0.052329853
vt 0.20967 0.14315346
vt 0.020075988 0.013031197
vt 0.00042648317 0.07683912
vt 0 0
vt 0.01920105 0.3856865
vt 0.022144623 0.3856865
vt 0.0021411134 0.3856865
vn -1 -3.026992E-07 0
vn -1 -3.026992E-07 0
vn -1 -3.026992E-07 0
vn -1 -3.0177742E-07 0
vn -1 -3.0177745E-07 0
vn -1 -3.025632E-07 0
vn -1 -3.025632E-07 0
vn -1 -3.0256322E-07 0
vn -0 -1 0
vn -0 -1 0
vn -0 -1 0
vn -0 -1 0
vn -0 -1 0
vn -0 0 -1
vn -0 0 -1
vn -0 0 -1
vn -0 0 -1
vn -0 0 -1
vn 0.62619656 0.587622 0.5124239
vn 0.62619656 0.587622 0.512424
vn 0.62619656 0.587622 0.5124239
vn 0.6261961 0.5876216 0.5124248
vn 0.6261964 0.58762187 0.5124243
vn -0 0 1
vn -0 0 1
vn -0 0 1
vn -0 0 1
vn -0.28842512 0.9573252 0.018425658
vn -0.28842512 0.9573252 0.01842566
vn -0.28842512 0.9573252 0.018425658
vn -0.28842476 0.9573253 0.01842558
vn -0.28842488 0.9573252 0.01842788
vn -0.2884248 0.9573253 0.018425582
g Device_Prop_Box_008_v_053_0
f 3/3/3 2/2/2 1/1/1
f 5/5/5 4/4/4 2/2/2
f 8/8/8 7/7/7 6/6/6
f 11/11/11 10/10/10 9/9/9
f 10/10/10 12/12/12 9/9/9
f 13/13/13 9/9/9 12/12/12
f 16/16/16 15/15/15 14/14/14
f 14/14/14 15/15/15 17/17/17
f 18/18/18 17/17/17 15/15/15
f 21/21/21 20/20/20 19/19/19
f 19/19/19 20/20/20 22/22/22
f 20/20/20 23/23/23 22/22/22
f 26/26/26 25/25/25 24/24/24
f 27/27/27 24/24/24 25/25/25
f 30/30/30 29/29/29 28/28/28
f 29/29/29 31/31/31 28/28/28
f 28/28/28 31/31/31 32/32/32
f 33/33/33 31/31/31 29/29/29
