g Device_Prop_Box_01_v_012
v -0.09916541 -0.0049737757 -0.12315227
v 0.2008819 -0.004973824 -0.040857267
v -0.09916541 -0.0049738726 0.15986376
v -0.09916541 0.005026195 -0.118293285
v -0.09916541 -0.002158153 0.15986997
v -0.09916543 0.005026147 0.15988562
v -0.09916541 0.003208186 -0.11917661
v -0.09916541 -0.0049738726 0.15986376
v -0.09916541 -0.0049737757 -0.12315227
v 0.057183076 0.0050262436 -0.075411044
v 0.14131655 0.005026195 -0.0009883359
v 0.19575368 0.005026195 -0.03740486
v -0.09916541 0.005026195 -0.118293285
v -0.09916543 0.005026147 0.15988562
v 0.19575368 0.005026195 -0.03740486
v -0.09916541 -0.0049738726 0.15986376
v 0.2008819 -0.004973824 -0.040857267
v 0.14131655 0.005026195 -0.0009883359
v -0.09916541 -0.002158153 0.15986997
v -0.09916543 0.005026147 0.15988562
v 0.057183076 0.0050262436 -0.075411044
v -0.09916541 0.003208186 -0.11917661
v -0.09916541 0.005026195 -0.118293285
v 0.2008819 -0.004973824 -0.040857267
v 0.19575368 0.005026195 -0.03740486
v -0.09916541 -0.0049737757 -0.12315227
vt 1.9396145 0.11541531
vt 1.7864873 0.15741393
vt 1.9396145 0.25985032
vt 1.9396145 0.11789507
vt 1.9396145 0.25985348
vt 1.9396145 0.25986147
vt 1.9396145 0.11744425
vt 1.9396145 0.25985032
vt 1.9396145 0.11541531
vt 1.8598231 0.13977966
vt 1.8168862 0.1777607
vt 1.7891045 0.15917581
vt 1.9396145 0.11789507
vt 1.9396145 0.25986147
vt 0.27938977 0.007874075
vt 9.613037E-06 0
vt 0.28425756 4.09923E-08
vt 0.22781914 0.007874069
vt 6.866455E-06 0.002217102
vt 0 0.007874031
vt 0.116315395 0.008695717
vt 0.24415495 0.007114792
vt 0.24397099 0.008695641
vt 0 0
vt 0.0031751252 0.008695641
vt 0.24498297 3.8146972E-08
vn -0 1 3.423598E-07
vn -0 1 3.423598E-07
vn -0 1 3.423598E-07
vn 1 0 0
vn 1 0 0
vn 1 3.3715137E-06 0
vn 1 0 0
vn 1 0 0
vn 1 0 0
vn 7.0789736E-07 -1 -1.4512307E-06
vn 7.0789736E-07 -1 -1.4512307E-06
vn -0 -1 -3.7065644E-07
vn 7.0789736E-07 -1 -1.4512307E-06
vn -0 -1 0
vn -0.556021 0.001819646 -0.83116627
vn -0.5560214 0.0018305102 -0.83116597
vn -0.5560209 0.001812282 -0.8311664
vn -0.556021 0.0018085059 -0.8311664
vn -0.556021 0.0018085059 -0.8311664
vn -0.5560209 0.0018085059 -0.8311664
vn -0.2395132 -0.4243134 0.8732649
vn -0.23951238 -0.42432165 0.8732611
vn -0.23951471 -0.4243019 0.8732701
vn -0.2395132 -0.4243134 0.8732649
vn -0.2395132 -0.42431346 0.8732649
vn -0.23951241 -0.4243217 0.8732611
g Device_Prop_Box_01_v_012_0
f 3/3/3 2/2/2 1/1/1
f 6/6/6 5/5/5 4/4/4
f 5/5/5 7/7/7 4/4/4
f 8/8/8 7/7/7 5/5/5
f 9/9/9 7/7/7 8/8/8
f 12/12/12 11/11/11 10/10/10
f 11/11/11 13/13/13 10/10/10
f 14/14/14 13/13/13 11/11/11
f 17/17/17 16/16/16 15/15/15
f 16/16/16 18/18/18 15/15/15
f 19/19/19 18/18/18 16/16/16
f 20/20/20 18/18/18 19/19/19
f 23/23/23 22/22/22 21/21/21
f 22/22/22 24/24/24 21/21/21
f 24/24/24 25/25/25 21/21/21
f 26/26/26 24/24/24 22/22/22
