g Device_Prop_Box_007_v_037
v 0.39621475 0.012742633 -0.34904695
v 0.3477355 0.012742633 0.31743038
v 0.45571315 0.012742633 -0.06311906
v -0.4057045 0.012742633 -0.34904695
v -0.4057045 0.012742439 0.38437948
v 0.34466362 0.012742633 0.32825676
v -0.4057045 0.012742633 -0.34904695
v -0.4057045 -0.0014361526 0.38824457
v -0.4057045 0.012742439 0.38437948
v -0.4057045 -0.012657464 0.39130348
v -0.4057045 -0.012657367 -0.34904695
v -0.4057045 -0.012657367 -0.34904695
v 0.40133646 0.0010714462 -0.34904695
v 0.40736085 -0.012657367 -0.34904695
v 0.39621475 0.012742633 -0.34904695
v -0.4057045 0.012742633 -0.34904695
v 0.40736085 -0.012657367 -0.34904695
v 0.46685633 -0.012657367 -0.063132964
v 0.36721197 -0.012657464 0.2880472
v -0.4057045 -0.012657367 -0.34904695
v -0.4057045 -0.012657464 0.39130348
v 0.31108958 -0.01265756 0.33769184
v 0.35403717 -0.01265756 0.33447963
v 0.36721197 -0.012657464 0.2880472
v 0.34466362 0.012742633 0.32825676
v 0.35403717 -0.01265756 0.33447963
v 0.46685633 -0.012657367 -0.063132964
v 0.3477355 0.012742633 0.31743038
v 0.45571315 0.012742633 -0.06311906
v 0.40133646 0.0010714462 -0.34904695
v 0.46685633 -0.012657367 -0.063132964
v 0.40736085 -0.012657367 -0.34904695
v 0.39621475 0.012742633 -0.34904695
v 0.45571315 0.012742633 -0.06311906
v -0.4057045 -0.0014361526 0.38824457
v 0.34466362 0.012742633 0.32825676
v -0.4057045 0.012742439 0.38437948
v 0.31108958 -0.01265756 0.33769184
v -0.4057045 -0.012657464 0.39130348
v 0.35403717 -0.01265756 0.33447963
vt 0.80073273 0.069198
vt 0.79099214 0.20310803
vt 0.8126873 0.12664723
vt 0.639609 0.069198
vt 0.6396091 0.21655957
vt 0.79037493 0.20528327
vt 0.639609 0.069198
vt 0.6396091 0.21733615
vt 0.6396091 0.21655957
vt 0.6396091 0.21795079
vt 0.639609 0.069198
vt 0.639609 0.069198
vt 0.80176175 0.069198
vt 0.80297226 0.069198
vt 0.80073273 0.069198
vt 0.639609 0.069198
vt 0.80297226 0.069198
vt 0.81492627 0.12664443
vt 0.79490554 0.19720429
vt 0.639609 0.069198
vt 0.6396091 0.21795079
vt 0.7836293 0.20717901
vt 0.79225844 0.20653361
vt 0.05716728 0.5183087
vt 0.08261414 0.55102116
vt 0.061333723 0.55608386
vt 0.025655434 0.23260567
vt 0.08164269 0.5422134
vt 0.047495462 0.23261696
vt 0.030629806 0
vt 0 0.2291798
vt 0.018824615 0
vt 0.04066559 0
vt 0.021840058 0.22919095
vt 0.00017967224 0.009156418
vt 0.592898 0.020725938
vt 0.00040664672 0.020725785
vt 0.5659813 0
vt 0 7.6293944E-08
vt 0.5998928 0
vn -0 -1 0
vn -0 -1 0
vn -0 -1 0
vn -0 -1 0
vn -0 -1 -2.6422094E-07
vn 2.638549E-07 -1 0
vn 1 0 0
vn 1 0 0
vn 1 0 0
vn 1 0 0
vn 1 0 0
vn -0 0 1
vn -0 0 1
vn -0 0 1
vn -0 0 1
vn -0 0 1
vn -0 1 0
vn -5.609816E-07 1 0
vn 3.0712152E-07 1 2.298933E-06
vn -0 1 0
vn 3.0712155E-07 1 2.298933E-06
vn 3.0712152E-07 1 2.298933E-06
vn -0 1 2.132005E-06
vn -0.8863676 -0.38871592 -0.25150004
vn -0.8863676 -0.388716 -0.25150007
vn -0.8863676 -0.38871598 -0.25150007
vn -0.88636744 -0.3887169 -0.25149933
vn -0.88635546 -0.38874802 -0.25149357
vn -0.8863666 -0.38871917 -0.251499
vn -0.89952946 -0.39472738 0.18718202
vn -0.89952946 -0.39472735 0.18718202
vn -0.89952946 -0.39472738 0.18718202
vn -0.8995251 -0.39473796 0.18718049
vn -0.8995271 -0.39473292 0.18718144
vn -0.0719733 -0.2623204 -0.9622931
vn -0.0719733 -0.2623204 -0.9622931
vn -0.071973294 -0.26232037 -0.9622931
vn -0.071973525 -0.2623163 -0.96229416
vn -0.07197346 -0.26232043 -0.9622931
vn -0.07197353 -0.26231626 -0.96229416
g Device_Prop_Box_007_v_037_0
f 3/3/3 2/2/2 1/1/1
f 4/4/4 1/1/1 2/2/2
f 4/4/4 2/2/2 5/5/5
f 6/6/6 5/5/5 2/2/2
f 9/9/9 8/8/8 7/7/7
f 8/8/8 10/10/10 7/7/7
f 11/11/11 7/7/7 10/10/10
f 14/14/14 13/13/13 12/12/12
f 13/13/13 15/15/15 12/12/12
f 16/16/16 12/12/12 15/15/15
f 19/19/19 18/18/18 17/17/17
f 20/20/20 19/19/19 17/17/17
f 21/21/21 19/19/19 20/20/20
f 22/22/22 19/19/19 21/21/21
f 19/19/19 22/22/22 23/23/23
f 26/26/26 25/25/25 24/24/24
f 24/24/24 25/25/25 27/27/27
f 25/25/25 28/28/28 27/27/27
f 28/28/28 29/29/29 27/27/27
f 32/32/32 31/31/31 30/30/30
f 30/30/30 31/31/31 33/33/33
f 31/31/31 34/34/34 33/33/33
f 37/37/37 36/36/36 35/35/35
f 36/36/36 38/38/38 35/35/35
f 38/38/38 39/39/39 35/35/35
f 40/40/40 38/38/38 36/36/36
