g Device_Prop_Box_007_v_030
v 0.012684981 0.43327543 -0.5154518
v -0.012715018 0.43327534 0.6664569
v 0.012684981 0.43327534 0.6664569
v -0.012715018 -0.20858295 0.6664567
v -0.012715018 -0.466684 0.1285502
v -0.012715018 -0.47929427 0.29722556
v -0.012715018 0.43327534 0.6664569
v -0.012715018 -0.4081543 -0.6543433
v -0.012715018 0.21789508 -0.65434325
v -0.012715018 0.43327543 -0.51461995
v -0.012715018 0.43327534 0.6664569
v 0.0100122765 0.43327543 -0.51536417
v -0.012715018 0.43327543 -0.51461995
v 0.012684981 0.43327543 -0.5154518
v 0.012684981 0.43327534 0.6664569
v 0.00530394 -0.20887649 0.6664567
v 0.012684981 -0.20899668 0.6664567
v -0.012715018 0.43327534 0.6664569
v -0.012715018 -0.20858295 0.6664567
v -0.0030082467 -0.41121176 -0.6543433
v 0.012684981 0.21917726 -0.65434325
v 0.012684981 -0.41615486 -0.6543433
v -0.010240847 0.21802007 -0.65434325
v -0.012715018 0.21789508 -0.65434325
v -0.012715018 -0.4081543 -0.6543433
v -0.012715018 -0.466684 0.1285502
v 0.012684981 -0.48659268 0.28783533
v -0.012715018 -0.47929427 0.29722556
v -0.0030082467 -0.41121176 -0.6543433
v -0.012715018 -0.4081543 -0.6543433
v 0.012684981 -0.45588666 -0.12289037
v 0.012684981 -0.41615486 -0.6543433
v 0.012684981 -0.20899668 0.6664567
v 0.012684981 -0.48659268 0.28783533
v 0.012684981 0.43327534 0.6664569
v 0.012684981 -0.45588666 -0.12289037
v 0.012684981 0.43327543 -0.5154518
v 0.012684981 0.32184386 -0.5877405
v 0.012684981 0.21917726 -0.65434325
v 0.012684981 -0.41615486 -0.6543433
v 0.00530394 -0.20887649 0.6664567
v 0.012684981 -0.48659268 0.28783533
v 0.012684981 -0.20899668 0.6664567
v -0.012715018 -0.20858295 0.6664567
v -0.012715018 -0.47929427 0.29722556
v -0.010240847 0.21802007 -0.65434325
v 0.012684981 0.32184386 -0.5877405
v 0.012684981 0.21917726 -0.65434325
v 0.0100122765 0.43327543 -0.51536417
v 0.012684981 0.43327543 -0.5154518
v -0.012715018 0.43327543 -0.51461995
v -0.012715018 0.21789508 -0.65434325
vt 0.5137455 0.5026414
vt 0.5137456 0.74004924
vt 0.5137456 0.74004924
vt 0.38481665 0.74004924
vt 0.33297232 0.6320009
vt 0.33043933 0.66588247
vt 0.5137456 0.74004924
vt 0.344729 0.47474247
vt 0.4704824 0.47474247
vt 0.5137455 0.50280845
vt 0.5137456 0.74004924
vt 0.5137455 0.50265896
vt 0.5137455 0.50280845
vt 0.5137455 0.5026414
vt 0.5137456 0.74004924
vt 0.3847577 0.74004924
vt 0.38473356 0.74004924
vt 0.5137456 0.74004924
vt 0.38481665 0.74004924
vt 0.34411487 0.47474247
vt 0.47073996 0.47474247
vt 0.34312195 0.47474247
vt 0.4705075 0.47474247
vt 0.4704824 0.47474247
vt 0.344729 0.47474247
vt 0.42520002 0
vt 0.298959 0.020963382
vt 0.29201406 0
vt 1.0431924 0.008011284
vt 1.0433719 0
vt 0.62326753 0.020963402
vt 1.0429022 0.020963402
vt 0.38473356 0.74004924
vt 0.3289733 0.6639962
vt 0.5137456 0.74004924
vt 0.3351411 0.58149445
vt 0.5137455 0.5026414
vt 0.49136245 0.48812085
vt 0.47073996 0.47474247
vt 0.34312195 0.47474247
vt 0.00013664245 0.014189453
vt 0.36986375 0.020001754
vt 0.00019256592 0.020001754
vt 0 7.6293944E-08
vt 0.36050284 0
vt 0.018042145 0.00011734009
vt 0.0017164611 0.0975486
vt 0 0.0012033081
vt 0.0056851194 0.20211914
vt 0.0035795593 0.20211914
vt 0.02359024 0.20211914
vt 0.019989243 0
vn -0 -1 0
vn -0 -1 0
vn -0 -1 0
vn 1 0 0
vn 1 0 0
vn 1 0 0
vn 1 0 0
vn 1 0 0
vn 1 0 0
vn 1 0 0
vn -0 -1 0
vn -0 -1 0
vn -0 -1 0
vn -0 -1 0
vn -0 3.0172046E-07 -1
vn -0 3.017205E-07 -1
vn -0 3.0172046E-07 -1
vn -0 3.0177696E-07 -1
vn -0 3.0191495E-07 -1
vn -0 0 1
vn -0 0 1
vn 1.5075248E-06 0 1
vn -0 0 1
vn -0 0 1
vn -2.5320705E-06 0 1
vn 0.29966554 0.9513893 0.07112647
vn 0.29966554 0.9513893 0.07112646
vn 0.29966557 0.9513893 0.07112647
vn 0.2996715 0.9513874 0.071126364
vn 0.2996708 0.9513877 0.07112647
vn 0.29967147 0.95138747 0.07112638
vn 0.29967147 0.95138747 0.07112637
vn -1 0 0
vn -1 0 0
vn -1 0 0
vn -1 0 0
vn -1 0 0
vn -1 0 0
vn -1 0 0
vn -1 0 0
vn 0.01313171 0.806396 -0.59123003
vn 0.013131709 0.806396 -0.5912301
vn 0.013131709 0.806396 -0.5912301
vn 0.013136616 0.8063961 -0.5912299
vn 0.013134359 0.806396 -0.59123003
vn 0.02746044 -0.5440331 0.83861434
vn 0.027460443 -0.5440331 0.83861434
vn 0.02746044 -0.5440331 0.83861434
vn 0.027483584 -0.544032 0.8386142
vn 0.027483584 -0.5440319 0.8386142
vn 0.027461614 -0.54403293 0.83861434
vn 0.02748321 -0.5440325 0.8386139
g Device_Prop_Box_007_v_030_0
f 3/3/3 2/2/2 1/1/1
f 6/6/6 5/5/5 4/4/4
f 7/7/7 4/4/4 5/5/5
f 7/7/7 5/5/5 8/8/8
f 9/9/9 7/7/7 8/8/8
f 10/10/10 7/7/7 9/9/9
f 13/13/13 12/12/12 11/11/11
f 12/12/12 14/14/14 11/11/11
f 17/17/17 16/16/16 15/15/15
f 15/15/15 16/16/16 18/18/18
f 19/19/19 18/18/18 16/16/16
f 22/22/22 21/21/21 20/20/20
f 23/23/23 20/20/20 21/21/21
f 23/23/23 24/24/24 20/20/20
f 25/25/25 20/20/20 24/24/24
f 28/28/28 27/27/27 26/26/26
f 27/27/27 29/29/29 26/26/26
f 29/29/29 30/30/30 26/26/26
f 31/31/31 29/29/29 27/27/27
f 32/32/32 29/29/29 31/31/31
f 35/35/35 34/34/34 33/33/33
f 36/36/36 34/34/34 35/35/35
f 37/37/37 36/36/36 35/35/35
f 38/38/38 36/36/36 37/37/37
f 38/38/38 39/39/39 36/36/36
f 40/40/40 36/36/36 39/39/39
f 43/43/43 42/42/42 41/41/41
f 41/41/41 42/42/42 44/44/44
f 42/42/42 45/45/45 44/44/44
f 48/48/48 47/47/47 46/46/46
f 47/47/47 49/49/49 46/46/46
f 50/50/50 49/49/49 47/47/47
f 49/49/49 51/51/51 46/46/46
f 51/51/51 52/52/52 46/46/46
