g Device_Prop_Box_010_v_040
v -0.43457636 -0.39441302 0.012801689
v -0.43457627 0.52729374 0.012434391
v -0.43457636 -0.4863544 -0.011227664
v -0.43457627 0.52729374 0.012434391
v -0.43457636 -0.39441302 0.012801689
v -0.43457627 0.52712274 0.012801798
v -0.43457636 -0.49159887 -0.012598328
v -0.43457627 0.5389384 -0.012598202
v -0.43457627 0.52729374 0.012434391
v -0.43457636 -0.49159887 -0.012598328
v -0.43457636 -0.4863544 -0.011227664
v -0.43457636 -0.49159887 -0.012598328
v 0.18814823 -0.5450718 -0.012598371
v -0.3767121 -0.5450718 -0.012598335
v 0.43900916 -0.09358043 -0.012598328
v -0.42716524 0.5376322 -0.012598202
v -0.43457627 0.5389384 -0.012598202
v 0.68119854 0.3423042 -0.0125982985
v 0.18814823 -0.5450718 -0.012598371
v -0.28227246 -0.5450718 0.010210799
v -0.3767121 -0.5450718 -0.012598335
v 0.17642443 -0.5450718 0.002407811
v -0.2715452 -0.5450718 0.012801653
v 0.16830419 -0.54507184 0.012801629
v 0.16830419 -0.54507184 0.012801629
v -0.3434253 -0.47864664 0.012801665
v -0.2715452 -0.5450718 0.012801653
v 0.57850796 0.1931995 0.012801689
v -0.43457627 0.52712274 0.012801798
v 0.65714484 0.33472764 0.012801701
v -0.43457636 -0.39441302 0.012801689
v 0.65714484 0.33472764 0.012801701
v -0.43457627 0.52729374 0.012434391
v -0.43457627 0.52712274 0.012801798
v -0.42716524 0.5376322 -0.012598202
v 0.68119854 0.3423042 -0.0125982985
v -0.43457627 0.5389384 -0.012598202
v 0.43900916 -0.09358043 -0.012598328
v 0.17642443 -0.5450718 0.002407811
v 0.18814823 -0.5450718 -0.012598371
v 0.57850796 0.1931995 0.012801689
v 0.16830419 -0.54507184 0.012801629
v 0.68119854 0.3423042 -0.0125982985
v 0.65714484 0.33472764 0.012801701
v -0.3434253 -0.47864664 0.012801665
v -0.28227246 -0.5450718 0.010210799
v -0.2715452 -0.5450718 0.012801653
v -0.43457636 -0.49159887 -0.012598328
v -0.3767121 -0.5450718 -0.012598335
v -0.43457636 -0.4863544 -0.011227664
v -0.43457636 -0.39441302 0.012801689
vt 1.0812252 0.05232981
vt 1.2659565 0.052329853
vt 1.0627978 0.052329805
vt 1.2659565 0.052329853
vt 1.0812252 0.05232981
vt 1.2659223 0.052329853
vt 1.0617467 0.052329805
vt 1.2682904 0.052329853
vt 1.2659565 0.052329853
vt 1.0617467 0.052329805
vt 1.0627978 0.052329805
vt 1.0617467 0.052329805
vt 1.0510296 0.17713827
vt 1.0510296 0.06392713
vt 1.1415188 0.22741662
vt 1.2680286 0.053815197
vt 1.2682904 0.052329853
vt 1.2288803 0.275957
vt 1.0510296 0.17713827
vt 1.0510296 0.08285504
vt 1.0510296 0.06392713
vt 1.0510296 0.17478853
vt 1.0510296 0.08500503
vt 1.0510296 0.17316106
vt 1.0510296 0.17316106
vt 1.0643427 0.0705986
vt 1.0510296 0.08500503
vt 1.1989963 0.25537544
vt 1.2659223 0.052329853
vt 1.2273618 0.2711361
vt 1.0812252 0.05232981
vt 0.08595376 0.87052804
vt 0.021738969 0
vt 0.022058047 0
vt 0.00043377877 0.0059095
vt 0.06530354 0.88970816
vt 0 0
vt 0.41428462 5.7220458E-08
vt 0.003105545 0.014308414
vt 0.007589111 0
vt 0.66502196 0.024218932
vt 0 0.024218874
vt 0.8069219 7.6293944E-08
vt 0.79250807 0.024218941
vt 0.07446194 0.05396469
vt 0.12078903 0
vt 0.12947857 0
vt 0 0.043442152
vt 0.044288978 0
vt 0.00025337219 0.04770279
vt 0.0046953964 0.12239731
vn 1 0 4.0161348E-07
vn 1 0 4.0161348E-07
vn 1 0 4.0161353E-07
vn 1 0 0
vn 1 0 0
vn 1 0 0
vn 1 0 0
vn 1 0 0
vn 1 0 4.0161297E-07
vn 1 0 4.0161297E-07
vn 1 0 4.0161302E-07
vn -0 0 1
vn -0 0 1
vn -0 0 1
vn -0 0 1
vn -0 0 1
vn -0 0 1
vn -0 0 1
vn -0 1 0
vn -0 1 0
vn -0 1 0
vn -0 1 0
vn -0 1 0
vn -0 1 9.494308E-06
vn -0 0 -1
vn -0 0 -1
vn -0 0 -1
vn -0 0 -1
vn -0 0 -1
vn -0 0 -1
vn -0 0 -1
vn -0.15778153 -0.8953106 -0.41656217
vn -0.15778151 -0.8953106 -0.41656217
vn -0.15778153 -0.8953106 -0.41656223
vn -0.15779772 -0.89533913 -0.41649434
vn -0.1577869 -0.8953413 -0.41649425
vn -0.15779772 -0.89533913 -0.4164944
vn -0.7218578 0.40108398 -0.5639619
vn -0.7218578 0.40108398 -0.5639619
vn -0.7218578 0.40108398 -0.5639619
vn -0.7218616 0.4010861 -0.5639555
vn -0.7218616 0.4010861 -0.56395555
vn -0.7218596 0.40108496 -0.5639589
vn -0.7218597 0.40108508 -0.56395864
vn 0.22754233 0.24622886 -0.94212306
vn 0.22754233 0.24622883 -0.94212306
vn 0.22754233 0.24622886 -0.94212306
vn 0.22754215 0.24622872 -0.9421232
vn 0.22754218 0.24622872 -0.9421232
vn 0.22754212 0.24622904 -0.94212306
vn 0.22754218 0.2462287 -0.9421232
g Device_Prop_Box_010_v_040_0
f 3/3/3 2/2/2 1/1/1
f 6/6/6 5/5/5 4/4/4
f 8/8/8 4/4/4 7/7/7
f 11/11/11 10/10/10 9/9/9
f 14/14/14 13/13/13 12/12/12
f 13/13/13 15/15/15 12/12/12
f 15/15/15 16/16/16 12/12/12
f 12/12/12 16/16/16 17/17/17
f 16/16/16 15/15/15 18/18/18
f 21/21/21 20/20/20 19/19/19
f 22/22/22 19/19/19 20/20/20
f 20/20/20 23/23/23 22/22/22
f 24/24/24 22/22/22 23/23/23
f 27/27/27 26/26/26 25/25/25
f 28/28/28 25/25/25 26/26/26
f 28/28/28 26/26/26 29/29/29
f 30/30/30 28/28/28 29/29/29
f 29/29/29 26/26/26 31/31/31
f 34/34/34 33/33/33 32/32/32
f 33/33/33 35/35/35 32/32/32
f 35/35/35 36/36/36 32/32/32
f 37/37/37 35/35/35 33/33/33
f 40/40/40 39/39/39 38/38/38
f 39/39/39 41/41/41 38/38/38
f 42/42/42 41/41/41 39/39/39
f 38/38/38 41/41/41 43/43/43
f 43/43/43 41/41/41 44/44/44
f 47/47/47 46/46/46 45/45/45
f 46/46/46 48/48/48 45/45/45
f 49/49/49 48/48/48 46/46/46
f 48/48/48 50/50/50 45/45/45
f 50/50/50 51/51/51 45/45/45
