g Device_Prop_Box_01_v_017
v -0.052101083 0.051050153 0.012547684
v -0.07780712 -0.062629424 0.009826919
v -0.07790755 -0.063073635 0.012547684
v -0.07790755 -0.063073635 0.012547684
v 0.13286228 0.009224909 0.01254749
v -0.052101083 0.051050153 0.012547684
v -0.052101083 0.051050153 0.012547684
v -0.07697001 -0.058927387 -0.012852316
v -0.07780712 -0.062629424 0.009826919
v -0.07697001 -0.058927387 -0.012852316
v -0.052101083 0.051050153 0.012547684
v -0.052101083 0.051050153 -0.012852316
v -0.052101083 0.051050153 -0.012852316
v 0.12696876 0.010557604 -0.009729251
v 0.12614249 0.010744445 -0.012852316
v -0.052101083 0.051050153 0.012547684
v 0.13286228 0.009224909 0.01254749
v -0.052101083 0.051050153 -0.012852316
v 0.016154634 -0.026983693 -0.012852316
v -0.07697001 -0.058927387 -0.012852316
v 0.12614249 0.010744445 -0.012852316
v 0.12696876 0.010557604 -0.009729251
v 0.016154634 -0.026983693 -0.012852316
v 0.12614249 0.010744445 -0.012852316
v -0.07780712 -0.062629424 0.009826919
v -0.07697001 -0.058927387 -0.012852316
v 0.13286228 0.009224909 0.01254749
v -0.07790755 -0.063073635 0.012547684
vt 1.269111 0.052329853
vt 1.2457517 0.05232985
vt 1.2456605 0.052329846
vt 1.2456605 0.052329846
vt 1.269111 0.09033677
vt 1.269111 0.052329853
vt 1.269111 0.052329853
vt 1.2465124 0.05232985
vt 1.2457517 0.05232985
vt 1.2465124 0.05232985
vt 1.269111 0.052329853
vt 1.269111 0.052329853
vt 1.269111 0.052329853
vt 1.269111 0.08912574
vt 1.269111 0.08895596
vt 1.269111 0.052329853
vt 1.269111 0.09033677
vt 1.269111 0.052329853
vt 1.2568736 0.069122486
vt 1.2465124 0.05232985
vt 1.269111 0.08895596
vt 0.025977783 0.17034765
vt 0.024008026 0.0782095
vt 0.028431397 0.16966066
vt 0.0021704102 8.350372E-05
vt 0.02026306 0.0007795334
vt 0.00847641 0.17524792
vt 0 0
vn 0.9753738 -0.22055832 -6.2209792E-06
vn 0.9753738 -0.22055829 -6.2209792E-06
vn 0.9753738 -0.22055832 -6.2209783E-06
vn -9.96736E-07 0 -1
vn -9.96736E-07 0 -1
vn -9.96736E-07 0 -1
vn 0.9753737 -0.2205584 -9.274579E-07
vn 0.9753737 -0.2205584 -9.274579E-07
vn 0.9753737 -0.2205584 -9.274579E-07
vn 0.9753737 -0.22055866 0
vn 0.9753737 -0.22055866 0
vn 0.9753737 -0.22055863 0
vn -0.22055845 -0.9753737 -4.0006196E-07
vn -0.22055851 -0.9753737 -4.0006208E-07
vn -0.22055843 -0.9753737 -4.0006194E-07
vn -0.22055845 -0.9753737 0
vn -0.22055851 -0.9753737 -2.6853635E-07
vn -0 0 1
vn -0 0 1
vn -0 0 1
vn -0 0 1
vn -0.32122108 0.93644744 0.1410082
vn -0.32122108 0.93644744 0.1410082
vn -0.32122108 0.93644744 0.1410082
vn -0.32122117 0.9364479 0.14100428
vn -0.32122117 0.9364479 0.14100428
vn -0.32122108 0.9364479 0.14100479
vn -0.3212201 0.9364441 0.14103217
g Device_Prop_Box_01_v_017_0
f 3/3/3 2/2/2 1/1/1
f 6/6/6 5/5/5 4/4/4
f 9/9/9 8/8/8 7/7/7
f 12/12/12 11/11/11 10/10/10
f 15/15/15 14/14/14 13/13/13
f 13/13/13 14/14/14 16/16/16
f 17/17/17 16/16/16 14/14/14
f 20/20/20 19/19/19 18/18/18
f 18/18/18 19/19/19 21/21/21
f 24/24/24 23/23/23 22/22/22
f 23/23/23 25/25/25 22/22/22
f 26/26/26 25/25/25 23/23/23
f 22/22/22 25/25/25 27/27/27
f 25/25/25 28/28/28 27/27/27
