g Device_Prop_Box_010_v_010
v 0.18904631 -0.013261981 0.028687032
v 0.18872404 0.93634564 -0.17581142
v 0.18902335 0.98883265 0.028687008
v 0.059376463 -0.22825235 0.8254498
v 0.05936658 -0.30447793 0.83226633
v 0.05936653 -0.25835544 0.82814217
v 0.18904631 -0.013261981 0.028687032
v 0.18870291 0.9334037 -0.18727838
v 0.18872404 0.93634564 -0.17581142
v 0.265297 -0.0123783145 0.02868696
v 0.265297 -0.1531391 0.8059324
v 0.265297 -0.0123783145 0.79334587
v 0.265297 -0.30447793 0.8194648
v 0.265297 -0.30447793 -0.26341307
v 0.265297 0.8952242 -0.26341307
v 0.265297 0.9416708 -0.08269948
v 0.265297 0.9702991 0.02868696
v 0.265297 -0.30447793 -0.26341307
v 0.12593208 -0.30447793 0.82812834
v 0.265297 -0.30447793 0.8194648
v 0.05936663 -0.30447793 0.028687056
v 0.05936658 -0.30447793 0.83226633
v -0.9835836 -0.30447793 -0.048708413
v -1.0020278 -0.30447793 0.028687056
v -0.8659369 -0.30447793 -0.26341304
v -0.9615969 -0.30447793 -0.1409693
v 0.18904631 -0.013261981 0.028687032
v 0.23330727 -0.012749027 0.7953676
v 0.18907586 -0.012747284 0.798117
v 0.265297 -0.0123783145 0.79334587
v 0.265297 -0.0123783145 0.02868696
v 0.05939153 -0.2282134 0.02868708
v -0.99359787 -0.28199568 0.028687056
v -0.97344863 -0.22825797 0.028687056
v -1.0020278 -0.30447793 0.028687056
v 0.05936663 -0.30447793 0.028687056
v 0.05936663 -0.30447793 0.028687056
v 0.05936653 -0.25835544 0.82814217
v 0.05936658 -0.30447793 0.83226633
v 0.05939153 -0.2282134 0.02868708
v 0.059376463 -0.22825235 0.8254498
v 0.265297 -0.30447793 -0.26341307
v -0.7945627 -0.17602104 -0.26341307
v -0.8659369 -0.30447793 -0.26341304
v 0.05936663 -0.098547764 -0.26341313
v -0.7515164 -0.098547764 -0.26341307
v 0.05936663 0.93837297 -0.26341313
v 0.06700676 0.94154745 -0.26341313
v 0.06982965 0.9427205 -0.26341313
v 0.09490554 0.9366272 -0.26341313
v 0.265297 0.8952242 -0.26341307
v 0.05936663 -0.098547764 -0.18721314
v 0.05936663 0.9387119 -0.25985244
v 0.05936663 0.94562703 -0.18721314
v 0.05936663 0.93837297 -0.26341313
v 0.05936663 -0.098547764 -0.26341313
v 0.05936663 -0.098547764 -0.26341313
v -0.78518903 -0.098547764 -0.22031252
v -0.7515164 -0.098547764 -0.26341307
v 0.05936663 -0.098547764 -0.18721314
v -0.81104815 -0.098547764 -0.1872131
v -0.8831303 -0.22830108 -0.18722902
v -0.9570327 -0.22829391 -0.040254448
v -0.9390738 -0.22829711 -0.11561907
v 0.05950819 -0.22832802 -0.18725674
v -0.97344863 -0.22825797 0.028687056
v 0.05939153 -0.2282134 0.02868708
v 0.05936663 -0.098547764 -0.18721314
v -0.85520184 -0.17801394 -0.18721294
v -0.81104815 -0.098547764 -0.1872131
v 0.05950819 -0.22832802 -0.18725674
v -0.8831303 -0.22830108 -0.18722902
v 0.18922904 -0.22837055 -0.1873006
v 0.18864663 -0.10153092 -0.18725577
v 0.18870291 0.9334037 -0.18727838
v 0.064327516 0.94768816 -0.18721478
v 0.088551424 0.9577523 -0.18722744
v 0.18864663 -0.10153092 -0.18725577
v 0.05936663 0.94562703 -0.18721314
v 0.05936663 -0.098547764 -0.18721314
v 0.18922904 -0.22837055 -0.1873006
v 0.18904631 -0.013261981 0.028687032
v 0.1892401 -0.22802009 0.02868708
v 0.18864663 -0.10153092 -0.18725577
v 0.18870291 0.9334037 -0.18727838
v 0.1892401 -0.22802009 0.02868708
v 0.05950819 -0.22832802 -0.18725674
v 0.18922904 -0.22837055 -0.1873006
v 0.05939153 -0.2282134 0.02868708
v 0.1892401 -0.22802009 0.02868708
v 0.18915589 -0.10110914 0.80601317
v 0.18932071 -0.22773726 0.8173259
v 0.18907586 -0.012747284 0.798117
v 0.18904631 -0.013261981 0.028687032
v 0.05939153 -0.2282134 0.02868708
v 0.13732234 -0.22781351 0.8205651
v 0.059376463 -0.22825235 0.8254498
v 0.18932071 -0.22773726 0.8173259
v 0.1892401 -0.22802009 0.02868708
v -0.9835836 -0.30447793 -0.048708413
v -0.99359787 -0.28199568 0.028687056
v -1.0020278 -0.30447793 0.028687056
v -0.9570327 -0.22829391 -0.040254448
v -0.97344863 -0.22825797 0.028687056
v -0.9390738 -0.22829711 -0.11561907
v -0.9615969 -0.30447793 -0.1409693
v 0.265297 -0.1531391 0.8059324
v 0.23330727 -0.012749027 0.7953676
v 0.265297 -0.0123783145 0.79334587
v 0.18915589 -0.10110914 0.80601317
v 0.18907586 -0.012747284 0.798117
v 0.18932071 -0.22773726 0.8173259
v 0.12593208 -0.30447793 0.82812834
v 0.265297 -0.30447793 0.8194648
v 0.05936658 -0.30447793 0.83226633
v 0.059376463 -0.22825235 0.8254498
v 0.13732234 -0.22781351 0.8205651
v 0.18902335 0.98883265 0.028687008
v 0.22332299 0.98049825 0.028687008
v 0.18904631 -0.013261981 0.028687032
v 0.265297 0.9702991 0.02868696
v 0.265297 -0.0123783145 0.02868696
v 0.06700676 0.94154745 -0.26341313
v 0.05936663 0.9387119 -0.25985244
v 0.05936663 0.93837297 -0.26341313
v 0.064327516 0.94768816 -0.18721478
v 0.05936663 0.94562703 -0.18721314
v 0.06982965 0.9427205 -0.26341313
v 0.088551424 0.9577523 -0.18722744
v 0.09490554 0.9366272 -0.26341313
v 0.088551424 0.9577523 -0.18722744
v 0.06982965 0.9427205 -0.26341313
v 0.265297 0.8952242 -0.26341307
v 0.18870291 0.9334037 -0.18727838
v 0.22332299 0.98049825 0.028687008
v 0.265297 0.9416708 -0.08269948
v 0.265297 0.9702991 0.02868696
v 0.18872404 0.93634564 -0.17581142
v 0.18902335 0.98883265 0.028687008
v -0.9615969 -0.30447793 -0.1409693
v -0.8831303 -0.22830108 -0.18722902
v -0.9390738 -0.22829711 -0.11561907
v -0.7945627 -0.17602104 -0.26341307
v -0.8659369 -0.30447793 -0.26341304
v -0.78518903 -0.098547764 -0.22031252
v -0.7515164 -0.098547764 -0.26341307
v -0.81104815 -0.098547764 -0.1872131
v -0.85520184 -0.17801394 -0.18721294
vt 1.005 0.8862804
vt 1.0050001 0.88628036
vt 1.005 0.88628036
vt 0.00034080504 0.06025879
vt 0 0
vt 0.00020149231 0.036461335
vt 1.005 0.8862804
vt 1.0050001 0.8862804
vt 1.0050001 0.88628036
vt 0.065481275 0.47036183
vt 0.036335774 0.6312958
vt 0.065481275 0.62868965
vt 0.0050000143 0.6340978
vt 0.0050000143 0.40988055
vt 0.2534066 0.40988058
vt 0.2630237 0.44729853
vt 0.26895133 0.47036183
vt 0.987173 0.005
vt 0.9583167 0.23101112
vt 0.987173 0.22921741
vt 0.9445338 0.0654813
vt 0.9445338 0.23186792
vt 0.7285838 0.04945605
vt 0.7247648 0.0654813
vt 0.7529434 0.005
vt 0.73313636 0.030352801
vt 0.712993 0.40988058
vt 0.70383453 0.5686271
vt 0.712993 0.56919634
vt 0.6972152 0.56820846
vt 0.6972152 0.40988058
vt 0.3141647 0.8862804
vt 0.09613966 0.8751538
vt 0.100311644 0.8862804
vt 0.09439573 0.8705026
vt 0.3141647 0.8705026
vt 0.7391143 0.40988058
vt 0.7295643 0.5754133
vt 0.7391143 0.57626724
vt 0.7233366 0.40988058
vt 0.7233366 0.5748558
vt 1.005 0.39944345
vt 1.031598 0.17999229
vt 1.005 0.16521373
vt 1.0476394 0.35680413
vt 1.0476394 0.18890531
vt 1.2623407 0.35680407
vt 1.2629981 0.358386
vt 1.2632409 0.35897052
vt 1.2619792 0.36416262
vt 1.2534065 0.39944342
vt 1.8697212 0.40988058
vt 1.8546804 0.6246522
vt 1.8697212 0.6260841
vt 1.8539432 0.62458205
vt 1.8539431 0.40988058
vt 1.5927298 0.71904546
vt 1.601654 0.5441744
vt 1.5927298 0.5511465
vt 1.6085076 0.71904546
vt 1.6085076 0.53882
vt 0.11900346 0.8862804
vt 0.10370291 0.8862804
vt 0.107421085 0.8862804
vt 0.3141647 0.8862804
vt 0.100311644 0.8862804
vt 0.3141647 0.8862804
vt 1.6085076 0.71904546
vt 1.6085076 0.5296777
vt 1.6085076 0.53882
vt 1.6085076 0.71904546
vt 1.6085076 0.5238841
vt 1.6085076 0.71904546
vt 1.6085076 0.71904546
vt 1.8697212 0.62357664
vt 1.8697212 0.6265346
vt 1.8697212 0.62861097
vt 1.8697212 0.40988058
vt 1.8697212 0.6260841
vt 1.8697212 0.40988058
vt 1.005 0.8862804
vt 1.005 0.8862804
vt 1.005 0.8862804
vt 1.005 0.8862804
vt 1.0050001 0.8862804
vt 1.005 0.8862804
vt 1.005 0.8862804
vt 1.005 0.8862804
vt 1.005 0.8862804
vt 0.712993 0.40988058
vt 0.712993 0.57083136
vt 0.712993 0.5731737
vt 0.712993 0.56919634
vt 0.712993 0.40988058
vt 0.7233366 0.40988058
vt 0.7233366 0.57384443
vt 0.7233366 0.5748558
vt 0.7233366 0.5731737
vt 0.7233366 0.40988058
vt 0.18731819 0.17321648
vt 0.1735109 0.23565654
vt 0.192417 0.23565654
vt 0.123809434 0.18003684
vt 0.12832108 0.23565654
vt 0.118847065 0.11923522
vt 0.18124004 0.09878347
vt 0.16312408 0.11963806
vt 0.13850006 0.2306208
vt 0.16373901 0.23091385
vt 0.10328209 0.16076934
vt 0.10360489 0.23062225
vt 0.102858886 0.06066597
vt 0.05251503 0
vt 0.162463 0
vt 0 0
vt 0.00034080504 0.06025879
vt 0.061835937 0.060605697
vt 0.25510874 0.8426319
vt 0.2568718 0.8497244
vt 0.46255443 0.8426319
vt 0.2590843 0.85840964
vt 0.46255443 0.85840964
vt 0.0002368927 0.0065102004
vt 0.0028163528 0
vt 0 0
vt 0.060423814 0.0042271805
vt 0.060271263 0
vt 0.00032441784 0.008915568
vt 0.06116488 0.024868479
vt 0.008115215 0.020284234
vt 0.07035626 0.01514431
vt 0.009309501 0
vt 0 0.15811604
vt 0.06554495 0.0961581
vt 0.23947442 0.124162786
vt 0.1469189 0.15811612
vt 0.23747528 0.15811612
vt 0.07486649 0.096175194
vt 0.241108 0.09641735
vt 0.22208191 0.11674984
vt 0.13964172 0.072641335
vt 0.16103363 0.1409212
vt 0.069786526 0
vt 0.18549828 5.7220458E-08
vt 0.0128775025 0.041096285
vt 0 1.9073486E-08
vt 0.022766953 0.072656505
vt 0.09434868 0.072656654
vn -0.9999989 -2.291565E-05 0.0014694778
vn -0.9999989 -2.291565E-05 0.0014694778
vn -0.9999989 -2.2915652E-05 0.0014694778
vn 0.06218382 0.08889009 0.9940984
vn 0.06218382 0.08889009 0.9940984
vn 0.062183812 0.08889009 0.9940984
vn -0.99999833 5.4317334E-05 0.0018281154
vn -0.99999833 5.4317326E-05 0.0018281154
vn -0.99999833 5.4317323E-05 0.001828115
vn 1 0 0
vn 1 0 0
vn 1 0 0
vn 1 0 0
vn 1 0 0
vn 1 0 0
vn 1 0 0
vn 1 0 0
vn -0 -1 0
vn -0 -1 0
vn -0 -1 0
vn -0 -1 0
vn -0 -1 0
vn -0 -1 0
vn -0 -1 0
vn -0 -1 0
vn -0 -1 0
vn -2.1489302E-06 0.99999976 -0.0006689329
vn -2.1489302E-06 0.99999976 -0.00066893286
vn -2.1489298E-06 0.99999976 -0.0006689328
vn -0.011588194 0.9999329 0
vn -0.011588194 0.9999329 0
vn -0 0 1
vn -0 0 1
vn -0 0 1
vn -0 -3.176225E-07 1
vn -0 -3.1762247E-07 1
vn -1 -1.0557821E-06 0
vn -1 -1.0557824E-06 0
vn -1 -1.0557823E-06 0
vn -1 0.0003282284 -1.8894114E-05
vn -1 0.0003282284 -1.8894116E-05
vn -0 0 -1
vn -0 0 -1
vn -0 0 -1
vn -0 0 -1
vn -0 -2.9590018E-07 -1
vn -0 0 -1
vn -0 0 -1
vn 5.1773145E-07 0 -1
vn -0 0 -1
vn -0 0 -1
vn -1 0 0
vn -1 0 0
vn -1 0 0
vn -1 0 0
vn -1 0 0
vn -0 1 0
vn -0 1 0
vn -0 1 0
vn -0 1 0
vn -0 1 0
vn 2.8574463E-05 1 -3.441674E-05
vn 2.8574463E-05 1 -3.441674E-05
vn 2.4034529E-05 1 -3.669951E-05
vn 2.8574463E-05 1 -3.441674E-05
vn -4.315373E-05 0.9999999 -0.00053083163
vn -4.315373E-05 0.9999999 -0.00053083163
vn -0 1.6417493E-06 1
vn -0 1.6417493E-06 1
vn -0 1.6417493E-06 1
vn 0.0003379723 -0.00033559915 0.9999999
vn 2.9388186E-05 -0.00033605006 1
vn 0.00033797233 -0.00033559918 0.9999999
vn 0.0003216523 -0.00035192407 0.9999999
vn 0.0005138639 2.1960024E-05 0.9999999
vn 0.0005138639 2.1960026E-05 0.9999999
vn 0.0005138639 2.1960024E-05 0.9999999
vn 0.00051384664 2.1809534E-05 0.9999999
vn 0.00032977303 0 1
vn 0.0003297731 0 1
vn -0.9999825 -0.0045930645 0.0037283152
vn -0.9999825 -0.004593065 0.0037283152
vn -0.99999964 -0.0009023479 5.2605184E-05
vn -0.9999825 -0.004593065 0.0037283152
vn -0.99999833 5.4434604E-05 0.0018286295
vn 0.00032735636 0.9999987 -0.0016226217
vn 0.00032735636 0.9999987 -0.0016226217
vn 0.00032735636 0.9999987 -0.0016226217
vn -0.0014886719 0.9999988 -0.0005316119
vn -0.99999917 -0.0012923966 0.00010268414
vn -0.99999917 -0.0012923965 0.00010268414
vn -0.99999917 -0.0012923965 0.00010268414
vn -0.99999964 -0.000902348 3.9011844E-05
vn -0.99999964 -0.0009023479 3.9011848E-05
vn -0.0056267837 0.99998415 4.8779533E-05
vn -0.0056267832 0.99998415 4.8779537E-05
vn -0.0056267832 0.99998415 4.8779537E-05
vn -0.001488672 0.9999988 -0.00035847997
vn -0.0014886721 0.9999988 -0.00035847997
vn -0.9138676 0.3426605 -0.21778424
vn -0.9138676 0.3426605 -0.21778421
vn -0.9138676 0.3426605 -0.21778424
vn -0.91386765 0.3426606 -0.21778329
vn -0.91386765 0.34266055 -0.21778329
vn -0.9138679 0.34265974 -0.21778373
vn -0.9138679 0.3426595 -0.21778403
vn 0.0617992 0.088892356 0.9941222
vn 0.0617992 0.088892356 0.9941222
vn 0.0617992 0.088892356 0.9941222
vn 0.06179642 0.088893086 0.9941223
vn 0.061796427 0.088893086 0.9941223
vn 0.061798982 0.08889315 0.9941222
vn 0.061799273 0.08889128 0.9941223
vn 0.061798915 0.08889239 0.9941222
vn 0.061798703 0.08889225 0.9941223
vn 0.061798 0.08896539 0.9941157
vn 0.061798 0.0889654 0.9941157
vn -0 0 1
vn -0 0 1
vn -0 0 1
vn 9.530405E-07 0 1
vn 9.530406E-07 0 1
vn -0.3822323 0.9199078 -0.087566905
vn -0.3822323 0.9199079 -0.08756691
vn -0.3822323 0.9199079 -0.08756691
vn -0.38223782 0.9199049 -0.08757358
vn -0.38223785 0.919905 -0.08757358
vn -0.38222837 0.91990894 -0.08757391
vn -0.38223112 0.9199077 -0.08757403
vn 0.22908174 0.9427665 -0.24230742
vn 0.22908174 0.9427665 -0.24230745
vn 0.22908174 0.9427665 -0.24230745
vn 0.2290809 0.9427667 -0.24230757
vn 0.2290806 0.9427666 -0.24230815
vn 0.22908024 0.9427668 -0.24230766
vn 0.22908139 0.9427665 -0.24230751
vn 0.22908139 0.9427665 -0.24230751
vn 0.22908024 0.9427668 -0.2423077
vn 0.22908024 0.9427668 -0.2423077
vn -0.72186023 0.4010857 -0.56395745
vn -0.7218603 0.40108567 -0.56395745
vn -0.7218603 0.40108573 -0.56395745
vn -0.7218601 0.401085 -0.5639581
vn -0.72186 0.4010853 -0.5639581
vn -0.72186023 0.40108576 -0.5639574
vn -0.7218601 0.401085 -0.5639581
vn -0.7212427 0.40074277 -0.5649905
vn -0.7212427 0.40074277 -0.5649905
g Device_Prop_Box_010_v_010_0
f 3/3/3 2/2/2 1/1/1
f 6/6/6 5/5/5 4/4/4
f 9/9/9 8/8/8 7/7/7
f 12/12/12 11/11/11 10/10/10
f 11/11/11 13/13/13 10/10/10
f 14/14/14 10/10/10 13/13/13
f 14/14/14 15/15/15 10/10/10
f 16/16/16 10/10/10 15/15/15
f 10/10/10 16/16/16 17/17/17
f 20/20/20 19/19/19 18/18/18
f 18/18/18 19/19/19 21/21/21
f 22/22/22 21/21/21 19/19/19
f 18/18/18 21/21/21 23/23/23
f 24/24/24 23/23/23 21/21/21
f 18/18/18 23/23/23 25/25/25
f 26/26/26 25/25/25 23/23/23
f 29/29/29 28/28/28 27/27/27
f 28/28/28 30/30/30 27/27/27
f 31/31/31 27/27/27 30/30/30
f 34/34/34 33/33/33 32/32/32
f 33/33/33 35/35/35 32/32/32
f 36/36/36 32/32/32 35/35/35
f 39/39/39 38/38/38 37/37/37
f 37/37/37 38/38/38 40/40/40
f 41/41/41 40/40/40 38/38/38
f 44/44/44 43/43/43 42/42/42
f 42/42/42 43/43/43 45/45/45
f 46/46/46 45/45/45 43/43/43
f 45/45/45 47/47/47 42/42/42
f 48/48/48 42/42/42 47/47/47
f 48/48/48 49/49/49 42/42/42
f 50/50/50 42/42/42 49/49/49
f 42/42/42 50/50/50 51/51/51
f 54/54/54 53/53/53 52/52/52
f 53/53/53 55/55/55 52/52/52
f 56/56/56 52/52/52 55/55/55
f 59/59/59 58/58/58 57/57/57
f 57/57/57 58/58/58 60/60/60
f 61/61/61 60/60/60 58/58/58
f 64/64/64 63/63/63 62/62/62
f 65/65/65 62/62/62 63/63/63
f 63/63/63 66/66/66 65/65/65
f 67/67/67 65/65/65 66/66/66
f 70/70/70 69/69/69 68/68/68
f 68/68/68 69/69/69 71/71/71
f 72/72/72 71/71/71 69/69/69
f 71/71/71 73/73/73 68/68/68
f 74/74/74 68/68/68 73/73/73
f 77/77/77 76/76/76 75/75/75
f 78/78/78 75/75/75 76/76/76
f 76/76/76 79/79/79 78/78/78
f 80/80/80 78/78/78 79/79/79
f 83/83/83 82/82/82 81/81/81
f 84/84/84 81/81/81 82/82/82
f 84/84/84 82/82/82 85/85/85
f 88/88/88 87/87/87 86/86/86
f 89/89/89 86/86/86 87/87/87
f 92/92/92 91/91/91 90/90/90
f 91/91/91 93/93/93 90/90/90
f 94/94/94 90/90/90 93/93/93
f 97/97/97 96/96/96 95/95/95
f 96/96/96 98/98/98 95/95/95
f 99/99/99 95/95/95 98/98/98
f 102/102/102 101/101/101 100/100/100
f 101/101/101 103/103/103 100/100/100
f 104/104/104 103/103/103 101/101/101
f 103/103/103 105/105/105 100/100/100
f 105/105/105 106/106/106 100/100/100
f 109/109/109 108/108/108 107/107/107
f 108/108/108 110/110/110 107/107/107
f 111/111/111 110/110/110 108/108/108
f 110/110/110 112/112/112 107/107/107
f 112/112/112 113/113/113 107/107/107
f 113/113/113 114/114/114 107/107/107
f 115/115/115 113/113/113 112/112/112
f 116/116/116 115/115/115 112/112/112
f 117/117/117 116/116/116 112/112/112
f 120/120/120 119/119/119 118/118/118
f 119/119/119 120/120/120 121/121/121
f 122/122/122 121/121/121 120/120/120
f 125/125/125 124/124/124 123/123/123
f 124/124/124 126/126/126 123/123/123
f 127/127/127 126/126/126 124/124/124
f 123/123/123 126/126/126 128/128/128
f 126/126/126 129/129/129 128/128/128
f 132/132/132 131/131/131 130/130/130
f 130/130/130 131/131/131 133/133/133
f 131/131/131 134/134/134 133/133/133
f 134/134/134 135/135/135 133/133/133
f 135/135/135 136/136/136 133/133/133
f 137/137/137 136/136/136 135/135/135
f 138/138/138 135/135/135 134/134/134
f 139/139/139 135/135/135 138/138/138
f 142/142/142 141/141/141 140/140/140
f 141/141/141 143/143/143 140/140/140
f 140/140/140 143/143/143 144/144/144
f 145/145/145 143/143/143 141/141/141
f 146/146/146 143/143/143 145/145/145
f 147/147/147 145/145/145 141/141/141
f 148/148/148 147/147/147 141/141/141
