g Device_Prop_Box_005_v_015
v 0.13282914 -0.09243171 -0.0127957305
v -0.17859748 0.13451616 -0.0127957305
v 0.24117568 0.13451616 -0.0127957305
v -0.17859748 -0.15397544 -0.0127957305
v -0.0030153682 -0.1566233 -0.0127957305
v 0.122221075 -0.11465179 -0.0127957305
v -0.17859748 -0.15541747 0.005836078
v -0.17859748 0.13451616 -0.0127957305
v -0.17859748 -0.15397544 -0.0127957305
v -0.17859748 0.13451616 0.012604269
v -0.17859748 -0.15594131 0.012604269
v -0.17859748 0.13451616 -0.0127957305
v 0.24334185 0.13451616 -0.005618068
v 0.24117568 0.13451616 -0.0127957305
v 0.24884084 0.13451616 0.012604269
v -0.17859748 0.13451616 0.012604269
v 0.13282914 -0.09243171 -0.0127957305
v 0.11684505 -0.14196822 0.012604269
v 0.122221075 -0.11465179 -0.0127957305
v 0.24334185 0.13451616 -0.005618068
v 0.24117568 0.13451616 -0.0127957305
v 0.24884084 0.13451616 0.012604269
v 0.06422486 -0.15960327 0.012604269
v -0.17859748 0.13451616 0.012604269
v -0.17859748 -0.15594131 0.012604269
v 0.24884084 0.13451616 0.012604269
v 0.11684505 -0.14196822 0.012604269
v 0.06422486 -0.15960327 0.012604269
v 0.122221075 -0.11465179 -0.0127957305
v 0.11684505 -0.14196822 0.012604269
v -0.0030153682 -0.1566233 -0.0127957305
v 0.06422486 -0.15960327 0.012604269
v -0.17859748 -0.15397544 -0.0127957305
v -0.0030153682 -0.1566233 -0.0127957305
v -0.17859748 -0.15541747 0.005836078
v -0.17859748 -0.15594131 0.012604269
vt 0.22362542 0.2891724
vt 0.26911104 0.35158956
vt 0.26911104 0.26745728
vt 0.21129061 0.35158956
vt 0.21075994 0.3163988
vt 0.219172 0.2912985
vt 0.21100157 0.35158956
vt 0.26911104 0.35158956
vt 0.21129061 0.35158956
vt 0.26911104 0.35158956
vt 0.21089658 0.35158956
vt 0.26911104 0.35158956
vt 0.26911104 0.26702315
vt 0.26911104 0.26745728
vt 0.26911104 0.26592103
vt 0.26911104 0.35158956
vt 0.58058566 1.5258789E-07
vt 0.53996384 0.020728407
vt 0.56119794 1.4739032E-07
vt 0.7793396 0.0058576968
vt 0.77860475 1.5258789E-07
vt 0.78120506 0.020728454
vt 0.21016267 0.30292237
vt 0.26911104 0.35158956
vt 0.21089658 0.35158956
vt 0.26911104 0.26592103
vt 0.21369714 0.29237604
vt 0.039303463 0.08813385
vt 0.0023141098 0.13681649
vt 0 0.10723267
vt 0.09585667 0.09136111
vt 0 0.19122028
vt 0.020282287 0
vt 0.02012146 0.13826923
vt 0.0055677798 0
vt 0.00022247314 0
vn -0 0 1
vn -0 0 1
vn -0 0 1
vn -0 0 1
vn -0 0 1
vn -0 0 1
vn 1 0 0
vn 1 0 0
vn 1 0 0
vn 1 0 0
vn 1 0 0
vn -0 -1 0
vn -0 -1 0
vn -0 -1 0
vn -0 -1 0
vn -0 -1 0
vn -0.8707192 0.41568756 0.26277724
vn -0.87072337 0.41569012 0.2627597
vn -0.8707222 0.41569087 0.2627623
vn -0.8707192 0.41568756 0.26277724
vn -0.8707192 0.41568756 0.26277724
vn -0.87072337 0.41569012 0.2627597
vn -0 0 -1
vn -0 0 -1
vn -0 0 -1
vn -0 0 -1
vn -0 0 -1
vn -0.23009956 0.6865809 0.68968177
vn -0.23009957 0.6865809 0.6896817
vn -0.23009959 0.6865809 0.68968177
vn -0.23009947 0.6865809 0.6896818
vn 0.0150341615 0.9969056 0.07715628
vn 0.015034135 0.9969055 0.0771571
vn 0.015033891 0.9969054 0.07715944
vn 0.01503416 0.9969056 0.07715628
vn 0.0150341615 0.9969056 0.07715628
g Device_Prop_Box_005_v_015_0
f 3/3/3 2/2/2 1/1/1
f 2/2/2 4/4/4 1/1/1
f 4/4/4 5/5/5 1/1/1
f 5/5/5 6/6/6 1/1/1
f 9/9/9 8/8/8 7/7/7
f 8/8/8 10/10/10 7/7/7
f 10/10/10 11/11/11 7/7/7
f 14/14/14 13/13/13 12/12/12
f 13/13/13 15/15/15 12/12/12
f 15/15/15 16/16/16 12/12/12
f 19/19/19 18/18/18 17/17/17
f 18/18/18 20/20/20 17/17/17
f 20/20/20 21/21/21 17/17/17
f 22/22/22 20/20/20 18/18/18
f 25/25/25 24/24/24 23/23/23
f 24/24/24 26/26/26 23/23/23
f 26/26/26 27/27/27 23/23/23
f 30/30/30 29/29/29 28/28/28
f 31/31/31 28/28/28 29/29/29
f 34/34/34 33/33/33 32/32/32
f 33/33/33 35/35/35 32/32/32
f 35/35/35 36/36/36 32/32/32
