g Device_Prop_Box_01_v_067
v 0.21579307 -0.7090513 -0.14412841
v 0.2153402 0.43688947 0.07214792
v 0.21578261 -0.7123684 -0.13840744
v 0.2153402 0.43688947 0.07214792
v 0.21579307 -0.7090513 -0.14412841
v 0.21574444 0.35025918 -0.14412841
v 0.21572612 -0.7289337 -0.1098464
v 0.21578261 -0.7123684 -0.13840744
v 0.21536238 -0.6511026 0.07214792
v 0.21536626 -0.834489 0.072148114
v 0.08611543 -0.85720706 0.071771584
v -1.1095191 -0.69254965 0.071758606
v -1.19418 -0.85720813 0.07174775
v 0.21536626 -0.834489 0.072148114
v 0.19508146 -0.8567432 0.072088815
v 0.21536238 -0.6511026 0.07214792
v 0.08611543 -0.6512706 0.071771584
v -1.0884252 -0.6515219 0.0717588
v 0.21493596 0.5656828 0.07214792
v 0.21564308 0.5665642 0.07252426
v 0.08611548 0.5656828 0.07214792
v 0.21564308 0.5665642 0.07252426
v 0.21493596 0.5656828 0.07214792
v 0.2153402 0.43688947 0.07214792
v 0.08611538 -0.9762887 0.071771584
v 0.19508146 -0.8567432 0.072088815
v 0.08611543 -0.85720706 0.071771584
v 0.08611543 -0.85720706 0.071771584
v -1.0884252 -0.6515219 0.0717588
v -1.1095191 -0.69254965 0.071758606
v -0.46246213 0.5656984 0.07215257
v -0.52884686 0.43684712 0.07178205
v -0.50267124 0.48765585 0.07192507
v 0.2920459 0.35066468 -0.14412841
v 0.2920459 0.51857024 -0.53779644
v 0.2920459 0.3506646 -0.600493
v 0.2920459 0.6427642 0.14797159
v 0.29204577 0.6427642 -0.49142194
v 0.2920459 -0.6958672 -0.02194459
v 0.2920459 -0.7940481 0.14797159
v 0.2920459 -0.6252668 -0.14412841
v 0.08611543 -0.6512706 0.14797159
v -1.0829417 -0.6959673 0.14797159
v -1.0599614 -0.6512706 0.14797159
v 0.08611543 -0.85720086 0.14797159
v -1.1658378 -0.85720086 0.14797159
v 0.10821025 -0.9960413 0.14797159
v 0.08611543 -1.0203185 0.14797159
v 0.1301408 -0.97194463 0.14797159
v 0.2920459 -0.7940481 0.14797159
v 0.2920459 0.6427642 0.14797159
v 0.086115524 0.43683404 0.14797159
v -0.39465174 0.6427642 0.14797159
v -0.46611592 0.5037655 0.14797159
v -0.5005278 0.43683404 0.14797159
v 0.08611543 -0.85720706 0.071771584
v 0.08611548 -0.9813104 0.08046253
v 0.08611538 -0.9762887 0.071771584
v 0.08611543 -1.0203185 0.14797159
v 0.08611543 -0.85720086 0.14797159
v 0.21574444 0.35025918 -0.14412841
v 0.24254532 0.3504016 -0.60806006
v 0.21574453 0.35025918 -0.6121572
v 0.2920459 0.3506646 -0.600493
v 0.2920459 0.35066468 -0.14412841
v 0.086115524 0.43683404 0.14797159
v -0.51186216 0.43684682 0.11746725
v -0.5005278 0.43683404 0.14797159
v 0.086115524 0.43683404 0.071771584
v -0.52884686 0.43684712 0.07178205
v 0.08611543 -0.6512706 0.071771584
v -1.0664239 -0.6512706 0.13058971
v -1.0884252 -0.6515219 0.0717588
v -1.0599614 -0.6512706 0.14797159
v 0.08611543 -0.6512706 0.14797159
v 0.08611543 -0.6512706 0.14797159
v 0.086115524 0.43683404 0.071771584
v 0.086115524 0.43683404 0.14797159
v 0.08611543 -0.6512706 0.071771584
v 0.08611543 -0.85720086 0.14797159
v -1.1900638 -0.8572072 0.0828182
v -1.1658378 -0.85720086 0.14797159
v -1.19418 -0.85720813 0.07174775
v 0.08611543 -0.85720706 0.071771584
v 0.086115524 0.6427642 -0.14412841
v -0.4415394 0.6427642 0.021855256
v -0.503249 0.6427642 -0.14412841
v 0.2920459 0.6427642 0.14797159
v -0.39465174 0.6427642 0.14797159
v 0.29204577 0.6427642 -0.49142194
v 0.13351099 0.6427642 -0.51534235
v 0.086115524 0.6427642 -0.5224938
v 0.086115524 0.6427642 -0.14412841
v 0.086115524 0.6204548 -0.53082407
v 0.086115524 0.6427642 -0.5224938
v 0.08611543 0.5665642 -0.14412841
v 0.08611543 0.5665642 -0.550947
v 0.086115524 0.6427642 -0.14412841
v -0.542426 0.5665642 -0.14412841
v 0.08611543 0.5665642 -0.14412841
v -0.51912946 0.6118764 -0.14412841
v -0.503249 0.6427642 -0.14412841
v 0.08611543 0.5665642 -0.14412841
v 0.12542945 0.5665642 -0.54501516
v 0.08611543 0.5665642 -0.550947
v 0.21564308 0.5665642 -0.5314033
v 0.21564308 0.5665642 -0.14412841
v 0.21564308 0.5665642 0.07252426
v 0.08611548 0.5656828 0.07214792
v 0.21564308 0.5665642 -0.14412841
v 0.21567486 0.49901077 -0.55662316
v 0.21564308 0.5665642 -0.5314033
v 0.21574444 0.35025918 -0.14412841
v 0.21574453 0.35025918 -0.6121572
v 0.2153402 0.43688947 0.07214792
v 0.21564308 0.5665642 0.07252426
v 0.08611548 0.5656828 0.07214792
v -0.4935094 0.56602496 -0.011808969
v -0.46246213 0.5656984 0.07215257
v -0.542426 0.5665642 -0.14412841
v 0.08611543 0.5665642 -0.14412841
v 0.086115524 0.43683404 0.071771584
v -0.50267124 0.48765585 0.07192507
v -0.52884686 0.43684712 0.07178205
v -0.46246213 0.5656984 0.07215257
v 0.08611548 0.5656828 0.07214792
v 0.21493596 0.5656828 0.07214792
v 0.2153402 0.43688947 0.07214792
v 0.08611543 -0.6512706 0.071771584
v 0.2153402 0.43688947 0.07214792
v 0.086115524 0.43683404 0.071771584
v 0.21536238 -0.6511026 0.07214792
v 0.21579307 -0.7090513 -0.14412841
v 0.2509921 -0.67037565 -0.14412841
v 0.21574444 0.35025918 -0.14412841
v 0.2920459 -0.6252668 -0.14412841
v 0.2920459 0.35066468 -0.14412841
v 0.08611548 -0.9813104 0.08046253
v 0.19508146 -0.8567432 0.072088815
v 0.08611538 -0.9762887 0.071771584
v 0.21536626 -0.834489 0.072148114
v 0.2920459 -0.7940481 0.14797159
v 0.1301408 -0.97194463 0.14797159
v 0.10821025 -0.9960413 0.14797159
v 0.08611543 -1.0203185 0.14797159
v 0.2509921 -0.67037565 -0.14412841
v 0.21572612 -0.7289337 -0.1098464
v 0.2920459 -0.6958672 -0.02194459
v 0.2920459 -0.6252668 -0.14412841
v 0.21578261 -0.7123684 -0.13840744
v 0.21579307 -0.7090513 -0.14412841
v 0.24254532 0.3504016 -0.60806006
v 0.21567486 0.49901077 -0.55662316
v 0.21574453 0.35025918 -0.6121572
v 0.2920459 0.51857024 -0.53779644
v 0.2920459 0.3506646 -0.600493
v 0.21564308 0.5665642 -0.5314033
v 0.13351099 0.6427642 -0.51534235
v 0.29204577 0.6427642 -0.49142194
v 0.086115524 0.6204548 -0.53082407
v 0.086115524 0.6427642 -0.5224938
v 0.12542945 0.5665642 -0.54501516
v 0.08611543 0.5665642 -0.550947
v -1.0829417 -0.6959673 0.14797159
v -1.0664239 -0.6512706 0.13058971
v -1.0599614 -0.6512706 0.14797159
v -1.1900638 -0.8572072 0.0828182
v -1.1658378 -0.85720086 0.14797159
v -1.1095191 -0.69254965 0.071758606
v -1.0884252 -0.6515219 0.0717588
v -1.19418 -0.85720813 0.07174775
v -0.4415394 0.6427642 0.021855256
v -0.51912946 0.6118764 -0.14412841
v -0.503249 0.6427642 -0.14412841
v -0.4935094 0.56602496 -0.011808969
v -0.542426 0.5665642 -0.14412841
v -0.46246213 0.5656984 0.07215257
v -0.46611592 0.5037655 0.14797159
v -0.39465174 0.6427642 0.14797159
v -0.51186216 0.43684682 0.11746725
v -0.52884686 0.43684712 0.07178205
v -0.5005278 0.43683404 0.14797159
vt 0.24317673 0.8165105
vt 0.4625545 0.81651044
vt 0.2420152 0.81651044
vt 0.4625545 0.81651044
vt 0.24317673 0.8165105
vt 0.4625545 0.81651044
vt 0.24013361 0.81651044
vt 0.2420152 0.81651044
vt 0.26195592 0.81651044
vt 0.22652261 0.81651044
vt 0.005 0.8983732
vt 0.252578 0.89837325
vt 0.2701017 0.8983732
vt 0.005 0.8983732
vt 0.005 0.8983731
vt 0.005 0.8983732
vt 0.005 0.8983732
vt 0.2482101 0.8983732
vt 0.6868718 0.7190452
vt 1.791357 0.68336135
vt 0.6868718 0.7190452
vt 1.791357 0.68336135
vt 0.6868718 0.7190452
vt 1.791357 0.68336135
vt 0.89584243 0.43453735
vt 0.89584243 0.40988058
vt 0.89584243 0.40988058
vt 0.005 0.8983732
vt 0.2482101 0.8983732
vt 0.252578 0.89837325
vt 0.078380816 0.17936745
vt 0.19251212 0.1790602
vt 0.14750823 0.1791787
vt 0.52303565 0.7438425
vt 0.55780166 0.66233087
vt 0.52303565 0.6493491
vt 0.58351696 0.80432385
vt 0.58351696 0.67193305
vt 0.30634403 0.7691415
vt 0.2860151 0.80432385
vt 0.32096237 0.7438425
vt 0.315578 0.04763946
vt 0.3063233 0.2897007
vt 0.31557804 0.28494248
vt 0.27293876 0.04763946
vt 0.2729388 0.30686486
vt 0.24419089 0.043064576
vt 0.23916416 0.047639467
vt 0.24918027 0.0385237
vt 0.28601503 0.0050001005
vt 0.5835169 0.005000055
vt 0.5408775 0.04763943
vt 0.5835169 0.14718552
vt 0.5547362 0.16198272
vt 0.5408776 0.16910791
vt 0.89584243 0.40988058
vt 0.8940429 0.43557718
vt 0.89584243 0.43453735
vt 0.88006455 0.44365516
vt 0.88006455 0.40988058
vt 0.74945784 0.68336135
vt 0.75499976 0.58730114
vt 0.74945784 0.5864527
vt 0.76523554 0.5888679
vt 0.76523554 0.68336135
vt 0.6710939 0.7190452
vt 0.67741215 0.59523964
vt 0.6710939 0.59757674
vt 0.6868718 0.7190452
vt 0.6868718 0.5917231
vt 0.005 0.8983732
vt 0.24364106 0.9105521
vt 0.2482101 0.8983732
vt 0.24230298 0.9141512
vt 0.005 0.9141512
vt 0.82782185 0.6351801
vt 0.84359956 0.40988058
vt 0.82782185 0.40988058
vt 0.84359956 0.6351801
vt 0.64497256 0.71904534
vt 0.6584581 0.45479578
vt 0.64497256 0.45981976
vt 0.66075027 0.45394343
vt 0.66075027 0.71904534
vt 1.6353691 0.33896202
vt 1.7446237 0.37333018
vt 1.757401 0.33896202
vt 1.5927298 0.3994435
vt 1.7349153 0.3994435
vt 1.5927298 0.26705265
vt 1.6255555 0.26209962
vt 1.6353691 0.26061887
vt 1.7755792 0.68336135
vt 1.7801986 0.6032933
vt 1.7755792 0.6050182
vt 1.791357 0.68336135
vt 1.791357 0.59912676
vt 1.6188512 0.4098806
vt 1.634629 0.54002446
vt 1.634629 0.4098806
vt 1.6252468 0.5352007
vt 1.6188512 0.53191257
vt 1.791357 0.68336135
vt 1.791357 0.60035497
vt 1.791357 0.59912676
vt 1.791357 0.6031734
vt 1.791357 0.68336135
vt 1.791357 0.68336135
vt 1.791357 0.68336135
vt 1.791357 0.68336135
vt 1.791357 0.5979514
vt 1.791357 0.6031734
vt 1.791357 0.68336135
vt 1.791357 0.5864527
vt 1.791357 0.68336135
vt 1.791357 0.68336135
vt 1.634629 0.4098806
vt 1.634629 0.5298959
vt 1.634629 0.52345955
vt 1.634629 0.54002446
vt 1.634629 0.4098806
vt 0.6868718 0.7190452
vt 0.6868718 0.5971413
vt 0.6868718 0.5917231
vt 0.6868718 0.60546637
vt 0.6868718 0.7190452
vt 0.6868718 0.7190452
vt 0.6868718 0.7190452
vt 0.84359956 0.6351801
vt 0.84359956 0.40988058
vt 0.84359956 0.40988058
vt 0.84359956 0.6351801
vt 0.24317673 0.8165105
vt 0.25118625 0.823799
vt 0.4625545 0.81651044
vt 0.26048118 0.83228827
vt 0.4625545 0.83228827
vt 0.022715759 0.18974715
vt 0.15300633 0.18267258
vt 0.025640106 0.18240447
vt 0.17671642 0.18272263
vt 0.24090584 0.24678253
vt 0.051502686 0.24678253
vt 0.025847472 0.24678253
vt 0 0.24678253
vt 0.29116666 0
vt 0.23837571 0.028963318
vt 0.29808003 0.10322785
vt 0.3391931 0
vt 0.24805218 0.004833374
vt 0.24998944 0
vt 0.05224281 0.00011955261
vt 0.0671212 0.12485603
vt 0.07359093 0
vt 0.0054478454 0.14127342
vt 0.012813263 0.00034027098
vt 0.06418312 0.1815577
vt 0.12624344 0.24551673
vt 0 0.24551673
vt 0.16496384 0.22679116
vt 0.16398521 0.24551673
vt 0.13602157 0.18155761
vt 0.16732788 0.1815577
vt 0.039573327 0.063214414
vt 0.00232666 0.048799135
vt 0 0.06321457
vt 0.19105221 0.009181061
vt 0.18232563 0.063214414
vt 0.04674883 9.002685E-06
vt 0.010423851 9.155274E-06
vt 0.19253479 0
vt 0.016881103 0.13765457
vt 0.06644585 0
vt 0.039098665 0
vt 0.08933014 0.109736025
vt 0.10656425 0
vt 0.078380816 0.17936745
vt 0.12306602 0.24224617
vt 0 0.24224617
vt 0.18639733 0.21694817
vt 0.19251212 0.1790602
vt 0.18232544 0.24224617
vn -0.99999833 -4.505365E-05 -0.0018552642
vn -0.99999833 -4.5053654E-05 -0.0018552644
vn -0.99999833 -4.5053654E-05 -0.0018552642
vn -0.99999833 -4.5917004E-05 -0.00185069
vn -0.99999833 -4.5917008E-05 -0.00185069
vn -0.99999833 -4.5916997E-05 -0.0018506898
vn -0.9999981 -2.0428846E-05 -0.0019896717
vn -0.9999981 -2.0428848E-05 -0.0019896717
vn -0.9999981 -2.0394016E-05 -0.0019898945
vn -0.9999981 -2.1136304E-05 -0.001989577
vn 1.8617342E-05 5.6334135E-05 -1
vn 1.861734E-05 5.6334135E-05 -1
vn 1.8617342E-05 5.6334135E-05 -1
vn 0.0029112028 1.1020554E-05 -0.9999958
vn 0.0029112033 1.1020556E-05 -0.9999958
vn 0.0029117286 0 -0.9999958
vn 0.0029117286 0 -0.9999958
vn 1.0889293E-05 0 -1
vn -0 0.3926987 -0.9196672
vn -0 0.39269868 -0.9196672
vn -0 0.39269868 -0.9196672
vn 0.46838057 0.0014700879 -0.8835256
vn 0.4683805 0.0014700881 -0.8835256
vn 0.4683806 0.001470088 -0.8835256
vn 0.0029112506 0 -0.9999958
vn 0.0029112503 0 -0.9999958
vn 0.0029112503 0 -0.9999958
vn 1.0748672E-05 -8.029934E-07 -1
vn 1.0748672E-05 -8.029934E-07 -1
vn 1.0748672E-05 -8.029934E-07 -1
vn -0.8392905 0.43145534 0.3308138
vn -0.8392905 0.43145534 0.3308138
vn -0.8392905 0.43145528 0.33081377
vn 1 0 0
vn 1 0 0
vn 1 0 0
vn 1 0 0
vn 1 8.367628E-07 0
vn 1 0 0
vn 1 0 0
vn 1 0 0
vn -0 0 1
vn -0 0 1
vn -0 0 1
vn -0 0 1
vn -0 0 1
vn -0 0 1
vn -0 0 1
vn -0 0 1
vn -0 0 1
vn -0 0 1
vn -0 0 1
vn -0 0 1
vn -0 0 1
vn -0 0 1
vn -1 4.068359E-07 1.138385E-05
vn -1 4.068359E-07 1.1383849E-05
vn -1 4.068359E-07 1.13838505E-05
vn -1 0 0
vn -1 0 0
vn 0.005314439 -0.99998593 0
vn 0.005314439 -0.99998593 0
vn 0.0053144386 -0.99998593 0
vn 0.0053143515 -0.99998593 0
vn 0.0053143525 -0.99998593 0
vn -0 -1 -0.00041928192
vn -0 -1 -0.00041928195
vn -0 -1 -0.0004192819
vn -2.1270536E-05 -1 1.545241E-06
vn -2.1270536E-05 -1 1.545241E-06
vn -0.00021387139 0.9999912 -0.0041908044
vn -0.00021387138 0.9999912 -0.004190804
vn -0.00021387138 0.9999912 -0.0041908035
vn -0 1 0
vn -0 1 0
vn -1 0 0
vn -1 0 0
vn -1 0 0
vn -1 0 0
vn -0 -1 9.6293414E-05
vn -0 -1 9.629341E-05
vn -0 -1 9.629341E-05
vn 7.4103735E-07 -1 8.177849E-05
vn 7.742124E-07 -1 8.122127E-05
vn -0 1 0
vn -0 1 0
vn -0 1 0
vn -0 1 0
vn -0 1 0
vn -0 1 0
vn -0 1 0
vn -0 1 0
vn -1 0 0
vn -1 0 0
vn -1 0 0
vn -1 1.2715658E-06 0
vn -1 1.7979629E-06 0
vn -0 0 -1
vn -0 0 -1
vn -0 0 -1
vn -0 0 -1
vn -0 0 -1
vn -0 -1 0
vn -0 -1 0
vn -0 -1 0
vn -0 -1 0
vn -0 -1 0
vn -0 -1 0
vn 0.0068159 -0.9999685 -0.0040749446
vn -0.9999999 -0.00047045728 0
vn -0.9999999 -0.00047045728 0
vn -0.9999999 -0.0004704573 0
vn -0.99999845 -0.0004685525 -0.0016814017
vn -0.9999999 -0.0004682625 0
vn -0.99999845 -0.00046855243 -0.0016814017
vn -0.99999726 0.0023357486 0
vn -2.829291E-05 -0.9999925 -0.003879711
vn -2.8292912E-05 -0.9999925 -0.003879711
vn -2.8292912E-05 -0.9999925 -0.0038797108
vn -0 -0.9999918 -0.0040750382
vn -0 -0.9999918 -0.0040750387
vn -1.6956325E-05 0.0028234879 -0.99999607
vn -1.6956325E-05 0.0028234879 -0.99999607
vn -1.6956323E-05 0.0028234879 -0.99999607
vn -8.395492E-06 0.002920725 -0.9999957
vn -0 0.0029207252 -0.9999957
vn -0 0.002920725 -0.9999957
vn 0.0029122268 9.140495E-06 -0.9999958
vn 0.002912231 0 -0.9999958
vn 0.002912231 0 -0.9999958
vn 0.002912231 0 -0.9999958
vn 0.0029117286 0 -0.9999958
vn -0 0 -1
vn -0 0 -1
vn -0 0 -1
vn -0 0 -1
vn -0 0 -1
vn 0.6892685 -0.62730855 -0.36248165
vn 0.68926847 -0.62730855 -0.36248156
vn 0.68926847 -0.6273086 -0.36248162
vn 0.68928313 -0.62731826 -0.36243698
vn 0.6892704 -0.6273115 -0.36247286
vn 0.68927133 -0.6273114 -0.3624711
vn 0.6892719 -0.6273106 -0.36247164
vn 0.6892717 -0.62731093 -0.36247164
vn 0.68927234 -0.6273122 -0.36246789
vn 0.68927 -0.6273111 -0.3624741
vn 0.6892717 -0.62731004 -0.36247298
vn 0.6892717 -0.62731004 -0.36247295
vn 0.68927234 -0.6273122 -0.36246789
vn 0.68927234 -0.6273122 -0.36246789
vn 0.13996452 0.34636945 -0.92759806
vn 0.13996452 0.34636942 -0.92759806
vn 0.1399645 0.34636942 -0.92759806
vn 0.13996023 0.346369 -0.9275989
vn 0.13996059 0.3463687 -0.9275989
vn 0.13996053 0.34636903 -0.9275988
vn 0.13996366 0.34636486 -0.9275999
vn 0.13996024 0.34636903 -0.9275989
vn 0.13995875 0.34636793 -0.9275995
vn 0.13996366 0.34636483 -0.9275999
vn 0.13995875 0.34636796 -0.92759943
vn 0.13995875 0.34636793 -0.9275995
vn -0.84438205 0.434128 0.31392974
vn -0.84438205 0.43412793 0.31392974
vn -0.84438205 0.434128 0.31392974
vn -0.8443842 0.43412808 0.3139239
vn -0.8443836 0.43412828 0.3139254
vn -0.8443835 0.4341283 0.31392545
vn -0.8443835 0.4341283 0.31392536
vn -0.8443842 0.43412802 0.31392387
vn -0.8443841 0.4341268 0.31392586
vn -0.844384 0.43412682 0.31392586
vn -0.8443841 0.4341268 0.31392586
vn -0.844384 0.4341269 0.31392604
vn -0.844384 0.4341269 0.313926
vn -0.84438425 0.4341273 0.31392485
vn -0.8443834 0.4341272 0.31392714
vn -0.8443836 0.4341278 0.313926
vn -0.8443836 0.4341278 0.3139259
vn -0.8443836 0.4341278 0.31392586
vn -0.8443834 0.43412727 0.31392714
g Device_Prop_Box_01_v_067_0
f 3/3/3 2/2/2 1/1/1
f 6/6/6 5/5/5 4/4/4
f 8/8/8 7/7/7 4/4/4
f 9/9/9 4/4/4 7/7/7
f 9/9/9 7/7/7 10/10/10
f 13/13/13 12/12/12 11/11/11
f 15/15/15 11/11/11 14/14/14
f 16/16/16 14/14/14 11/11/11
f 17/17/17 16/16/16 11/11/11
f 17/17/17 11/11/11 18/18/18
f 21/21/21 20/20/20 19/19/19
f 24/24/24 23/23/23 22/22/22
f 27/27/27 26/26/26 25/25/25
f 30/30/30 29/29/29 28/28/28
f 33/33/33 32/32/32 31/31/31
f 36/36/36 35/35/35 34/34/34
f 37/37/37 34/34/34 35/35/35
f 37/37/37 35/35/35 38/38/38
f 34/34/34 37/37/37 39/39/39
f 40/40/40 39/39/39 37/37/37
f 34/34/34 39/39/39 41/41/41
f 44/44/44 43/43/43 42/42/42
f 45/45/45 42/42/42 43/43/43
f 45/45/45 43/43/43 46/46/46
f 45/45/45 47/47/47 42/42/42
f 45/45/45 48/48/48 47/47/47
f 49/49/49 42/42/42 47/47/47
f 49/49/49 50/50/50 42/42/42
f 51/51/51 42/42/42 50/50/50
f 51/51/51 52/52/52 42/42/42
f 51/51/51 53/53/53 52/52/52
f 54/54/54 52/52/52 53/53/53
f 52/52/52 54/54/54 55/55/55
f 58/58/58 57/57/57 56/56/56
f 57/57/57 59/59/59 56/56/56
f 60/60/60 56/56/56 59/59/59
f 63/63/63 62/62/62 61/61/61
f 62/62/62 64/64/64 61/61/61
f 65/65/65 61/61/61 64/64/64
f 68/68/68 67/67/67 66/66/66
f 66/66/66 67/67/67 69/69/69
f 70/70/70 69/69/69 67/67/67
f 73/73/73 72/72/72 71/71/71
f 72/72/72 74/74/74 71/71/71
f 75/75/75 71/71/71 74/74/74
f 78/78/78 77/77/77 76/76/76
f 79/79/79 76/76/76 77/77/77
f 82/82/82 81/81/81 80/80/80
f 81/81/81 83/83/83 80/80/80
f 84/84/84 80/80/80 83/83/83
f 87/87/87 86/86/86 85/85/85
f 88/88/88 85/85/85 86/86/86
f 88/88/88 86/86/86 89/89/89
f 88/88/88 90/90/90 85/85/85
f 91/91/91 85/85/85 90/90/90
f 85/85/85 91/91/91 92/92/92
f 95/95/95 94/94/94 93/93/93
f 93/93/93 94/94/94 96/96/96
f 97/97/97 96/96/96 94/94/94
f 100/100/100 99/99/99 98/98/98
f 101/101/101 98/98/98 99/99/99
f 98/98/98 101/101/101 102/102/102
f 105/105/105 104/104/104 103/103/103
f 104/104/104 106/106/106 103/103/103
f 107/107/107 103/103/103 106/106/106
f 107/107/107 108/108/108 103/103/103
f 109/109/109 103/103/103 108/108/108
f 112/112/112 111/111/111 110/110/110
f 110/110/110 111/111/111 113/113/113
f 114/114/114 113/113/113 111/111/111
f 113/113/113 115/115/115 110/110/110
f 116/116/116 110/110/110 115/115/115
f 119/119/119 118/118/118 117/117/117
f 118/118/118 120/120/120 117/117/117
f 121/121/121 117/117/117 120/120/120
f 124/124/124 123/123/123 122/122/122
f 123/123/123 125/125/125 122/122/122
f 126/126/126 122/122/122 125/125/125
f 126/126/126 127/127/127 122/122/122
f 128/128/128 122/122/122 127/127/127
f 131/131/131 130/130/130 129/129/129
f 132/132/132 129/129/129 130/130/130
f 135/135/135 134/134/134 133/133/133
f 134/134/134 135/135/135 136/136/136
f 137/137/137 136/136/136 135/135/135
f 140/140/140 139/139/139 138/138/138
f 139/139/139 141/141/141 138/138/138
f 141/141/141 142/142/142 138/138/138
f 142/142/142 143/143/143 138/138/138
f 143/143/143 144/144/144 138/138/138
f 138/138/138 144/144/144 145/145/145
f 146/146/146 142/142/142 141/141/141
f 147/147/147 146/146/146 141/141/141
f 148/148/148 142/142/142 146/146/146
f 149/149/149 148/148/148 146/146/146
f 150/150/150 146/146/146 147/147/147
f 151/151/151 146/146/146 150/150/150
f 154/154/154 153/153/153 152/152/152
f 153/153/153 155/155/155 152/152/152
f 152/152/152 155/155/155 156/156/156
f 157/157/157 155/155/155 153/153/153
f 158/158/158 155/155/155 157/157/157
f 159/159/159 155/155/155 158/158/158
f 160/160/160 158/158/158 157/157/157
f 161/161/161 158/158/158 160/160/160
f 162/162/162 160/160/160 157/157/157
f 163/163/163 160/160/160 162/162/162
f 166/166/166 165/165/165 164/164/164
f 165/165/165 167/167/167 164/164/164
f 167/167/167 168/168/168 164/164/164
f 169/169/169 167/167/167 165/165/165
f 170/170/170 169/169/169 165/165/165
f 171/171/171 167/167/167 169/169/169
f 174/174/174 173/173/173 172/172/172
f 173/173/173 175/175/175 172/172/172
f 176/176/176 175/175/175 173/173/173
f 175/175/175 177/177/177 172/172/172
f 177/177/177 178/178/178 172/172/172
f 172/172/172 178/178/178 179/179/179
f 180/180/180 178/178/178 177/177/177
f 181/181/181 180/180/180 177/177/177
f 182/182/182 178/178/178 180/180/180
