g Device_Prop_Box_01_v_021
v -0.20456958 0.0956709 -0.3402802
v -0.20453432 0.7512034 -0.21075411
v -0.20462026 0.73975533 -0.34024218
v -0.20451076 0.09566441 -0.124286935
v -0.20450185 -0.11043289 1.1365596
v -0.20451076 0.095664315 0.8930805
v -0.20456958 0.0956709 -0.3402802
v -0.2046285 0.009494963 -0.34018692
v -0.20458199 -0.12023907 -0.34021014
v -0.068412974 -0.1202351 1.196513
v -0.074781865 -0.1202351 1.1995728
v -0.07478022 -0.1202352 1.196513
v -0.20462026 0.73975533 -0.34024218
v -0.11869944 0.758558 -0.34021848
v -0.20456958 0.0956709 -0.3402802
v -0.07478022 0.09561713 -0.34018692
v -0.2046285 0.009494963 -0.34018692
v -0.07478022 0.009494963 -0.34018692
v -0.20458199 -0.12023907 -0.34021014
v -0.07478022 -0.12024276 -0.34018674
v 0.9664744 -0.12027018 -0.274863
v -0.07478022 -0.12024276 -0.34018674
v 0.96097314 -0.12027221 -0.3402172
v -0.07478022 -0.1964352 1.196513
v -0.068412974 -0.1202351 1.196513
v -0.07478022 -0.1202352 1.196513
v 0.09271667 -0.18788727 1.196513
v 0.113075554 -0.1964352 1.196513
v -0.07478022 -0.1964352 1.196513
v -0.07478022 -0.1202352 -0.12428684
v -0.07478022 -0.1964352 -0.12428684
v -0.07478022 -0.1202352 1.196513
v -0.07478022 -0.1964352 -0.12428684
v 0.97714275 -0.14270747 -0.124286816
v 0.9723394 -0.1964352 -0.12428684
v -0.07478022 -0.1202352 -0.12428684
v 0.9791559 -0.12018966 -0.124286816
v -0.28071076 0.09566441 -0.124286935
v -0.28071076 0.7258893 -0.30870435
v -0.28071076 0.74216706 -0.124286935
v -0.28071076 -0.1964352 -0.41638687
v -0.28071067 0.71638477 -0.41638687
v -0.28071088 -0.1964352 1.2038463
v -0.28071076 -0.1308266 1.126339
v -0.28071076 0.095664315 0.8587716
v -0.20451076 0.09566441 -0.124286935
v -0.23494709 0.75218076 -0.124286935
v -0.20451076 0.75884056 -0.124286935
v -0.28071076 0.09566441 -0.124286935
v -0.25824904 0.74708194 -0.12428691
v -0.28071076 0.74216706 -0.124286935
v -0.28071076 0.09566441 -0.124286935
v -0.22248332 0.095664315 0.8849883
v -0.28071076 0.095664315 0.8587716
v -0.20451076 0.09566441 -0.124286935
v -0.20451076 0.095664315 0.8930805
v -0.13020523 0.7493172 -0.41638693
v -0.07478022 0.009494963 -0.41638693
v -0.07478017 0.7614451 -0.41638693
v -0.28071076 -0.1964352 -0.41638687
v -0.1515081 0.74465597 -0.41638693
v -0.28071067 0.71638477 -0.41638687
v 0.9477527 -0.1964352 -0.41638693
v 0.9550049 -0.1153167 -0.416387
v 0.9661633 0.009494963 -0.416387
v -0.07478022 0.009494963 -0.34018692
v 0.9680975 0.009494963 -0.39340863
v 0.9725773 0.009494963 -0.340187
v 0.9661633 0.009494963 -0.416387
v -0.07478022 0.009494963 -0.41638693
v -0.07478022 0.009494963 -0.41638693
v -0.07478022 0.766122 -0.3634003
v -0.07478017 0.7614451 -0.41638693
v -0.07478022 0.09561713 -0.34018692
v -0.07478012 0.76817095 -0.34018692
v -0.07478022 0.009494963 -0.34018692
v -0.07478012 0.76817095 -0.34018692
v -0.20456958 0.0956709 -0.3402802
v -0.11869944 0.758558 -0.34021848
v -0.07478022 0.09561713 -0.34018692
v -0.20450146 -0.12023258 -0.12428677
v -0.20456958 0.0956709 -0.3402802
v -0.20458199 -0.12023907 -0.34021014
v -0.20451076 0.09566441 -0.124286935
v -0.20453432 0.7512034 -0.21075411
v -0.20451076 0.75884056 -0.124286935
v -0.07478022 -0.1202352 -0.12428684
v 0.9664744 -0.12027018 -0.274863
v 0.9791559 -0.12018966 -0.124286816
v -0.07478022 -0.12024276 -0.34018674
v -0.07478022 -0.12024276 -0.34018674
v -0.20450146 -0.12023258 -0.12428677
v -0.20458199 -0.12023907 -0.34021014
v -0.07478022 -0.1202352 -0.12428684
v -0.07478022 -0.1202352 1.196513
v -0.20450146 -0.12023287 1.148137
v -0.09706345 -0.12023481 1.196513
v -0.08227448 -0.1202351 1.2031722
v -0.077351384 -0.1202352 1.2008072
v -0.074781865 -0.1202351 1.1995728
v -0.07478022 -0.12024276 -0.34018674
v 0.9690872 -0.029541899 -0.34018692
v 0.96097314 -0.12027221 -0.3402172
v 0.9725773 0.009494963 -0.340187
v -0.07478022 0.009494963 -0.34018692
v 0.09271667 -0.18788727 1.196513
v -0.074781865 -0.1202351 1.1995728
v -0.068412974 -0.1202351 1.196513
v 0.113075554 -0.1964352 1.196513
v -0.077351384 -0.1202352 1.2008072
v -0.08227448 -0.1202351 1.2031722
v -0.08531349 -0.1964352 1.2918237
v -0.20450185 -0.11043289 1.1365596
v -0.20450146 -0.12023258 -0.12428677
v -0.20450146 -0.12023287 1.148137
v -0.20451076 0.09566441 -0.124286935
v 0.113075554 -0.1964352 1.196513
v -0.12832211 -0.1964352 1.2724593
v -0.08531349 -0.1964352 1.2918237
v -0.07478022 -0.1964352 1.196513
v -0.28071088 -0.1964352 1.2038463
v -0.28071076 -0.1964352 -0.41638687
v -0.07478022 -0.1964352 -0.12428684
v 0.9477527 -0.1964352 -0.41638693
v 0.957403 -0.1964352 -0.3017374
v 0.9723394 -0.1964352 -0.12428684
v -0.12832211 -0.1964352 1.2724593
v -0.08227448 -0.1202351 1.2031722
v -0.08531349 -0.1964352 1.2918237
v -0.28071076 -0.1308266 1.126339
v -0.28071088 -0.1964352 1.2038463
v -0.09706345 -0.12023481 1.196513
v -0.20450146 -0.12023287 1.148137
v -0.22248332 0.095664315 0.8849883
v -0.28071076 0.095664315 0.8587716
v -0.20450185 -0.11043289 1.1365596
v -0.20451076 0.095664315 0.8930805
v -0.23494709 0.75218076 -0.124286935
v -0.20453432 0.7512034 -0.21075411
v -0.20451076 0.75884056 -0.124286935
v -0.20462026 0.73975533 -0.34024218
v -0.28071076 0.7258893 -0.30870435
v -0.25824904 0.74708194 -0.12428691
v -0.28071076 0.74216706 -0.124286935
v -0.1515081 0.74465597 -0.41638693
v -0.28071067 0.71638477 -0.41638687
v -0.07478022 0.766122 -0.3634003
v -0.11869944 0.758558 -0.34021848
v -0.07478012 0.76817095 -0.34018692
v -0.13020523 0.7493172 -0.41638693
v -0.07478017 0.7614451 -0.41638693
v 0.9550049 -0.1153167 -0.416387
v 0.9680975 0.009494963 -0.39340863
v 0.9661633 0.009494963 -0.416387
v 0.9690872 -0.029541899 -0.34018692
v 0.9725773 0.009494963 -0.340187
v 0.96097314 -0.12027221 -0.3402172
v 0.97714275 -0.14270747 -0.124286816
v 0.9664744 -0.12027018 -0.274863
v 0.9791559 -0.12018966 -0.124286816
v 0.957403 -0.1964352 -0.3017374
v 0.9477527 -0.1964352 -0.41638693
v 0.9723394 -0.1964352 -0.12428684
vt 1.005 0.8426319
vt 1.1392124 0.8426319
vt 1.1411068 0.84263194
vt 1.7494578 0.40988058
vt 1.7494578 0.67094755
vt 1.749458 0.6205335
vt 1.8958424 0.6177389
vt 1.8958424 0.63518006
vt 1.005 0.8426319
vt 0.63462895 0.41119897
vt 0.63462895 0.4098806
vt 0.63462895 0.4098806
vt 1.8958426 0.484114
vt 1.8958424 0.48021758
vt 1.8958424 0.6177389
vt 1.8958424 0.61781883
vt 1.8958424 0.63518006
vt 1.8958424 0.63518006
vt 1.8958424 0.63518006
vt 1.8958424 0.63518006
vt 0.22057846 0.8862804
vt 0.005 0.8862804
vt 0.21943949 0.88628036
vt 0.6188512 0.4098806
vt 0.63462895 0.41119897
vt 0.63462895 0.4098806
vt 0.6206211 0.44456202
vt 0.6188512 0.44877744
vt 0.7755792 0.68336135
vt 0.791357 0.40988058
vt 0.7755792 0.40988058
vt 0.791357 0.68336135
vt 0.005 0.8705026
vt 0.22280422 0.8816179
vt 0.22181328 0.8705026
vt 0.005 0.8862804
vt 0.22322103 0.8862804
vt 1.5230356 0.47036183
vt 1.3925433 0.43217695
vt 1.3891729 0.47036183
vt 1.583517 0.40988055
vt 1.3945113 0.40988058
vt 1.583517 0.745361
vt 1.5699322 0.7293125
vt 1.5230358 0.6739108
vt 1.005 0.8426319
vt 1.139413 0.848934
vt 1.1407764 0.8426319
vt 1.005 0.85840964
vt 1.139875 0.8537588
vt 1.1388628 0.85840964
vt 1.7652355 0.40988058
vt 1.7531792 0.618858
vt 1.7652355 0.6134296
vt 1.7494578 0.40988058
vt 1.749458 0.6205335
vt 1.2008245 0.03616332
vt 1.0476394 0.04763952
vt 1.2033358 0.04763948
vt 1.005 0.0050001442
vt 1.1998594 0.031752422
vt 1.1940057 0.0050001154
vt 1.005 0.2593619
vt 1.0217962 0.26086354
vt 1.0476394 0.26317394
vt 1.6085076 0.4098806
vt 1.5974877 0.6258157
vt 1.6085076 0.62674326
vt 1.5927298 0.6254152
vt 1.5927298 0.4098806
vt 1.8800645 0.63518006
vt 1.8910359 0.47851533
vt 1.8800645 0.4794837
vt 1.8958424 0.61781883
vt 1.8958426 0.4782459
vt 1.8958424 0.63518006
vt 1.8958426 0.4782459
vt 1.8958424 0.6177389
vt 1.8958424 0.48021758
vt 1.8958424 0.61781883
vt 1.005 0.8426319
vt 1.005 0.8426319
vt 1.005 0.8426319
vt 1.005 0.8426319
vt 1.1392124 0.8426319
vt 1.1407764 0.8426319
vt 0.005 0.8862804
vt 0.22057846 0.8862804
vt 0.22322103 0.8862804
vt 0.005 0.8862804
vt 0.791357 0.40988058
vt 0.791357 0.40988058
vt 0.791357 0.40988058
vt 0.791357 0.40988058
vt 0.791357 0.68336135
vt 0.791357 0.6733448
vt 0.791357 0.68336135
vt 0.791357 0.68336135
vt 0.791357 0.68336135
vt 0.791357 0.68336135
vt 1.6085076 0.4098806
vt 1.6085076 0.62602055
vt 1.6085076 0.62432015
vt 1.6085076 0.62674326
vt 1.6085076 0.4098806
vt 0.25462523 0.3083816
vt 0.22138534 0.17005898
vt 0.21957107 0.1753185
vt 0.25905442 0.3251942
vt 0.22211716 0.16793709
vt 0.22351933 0.16387151
vt 0.3155632 0.16136175
vt 1.7494578 0.67094755
vt 1.7494578 0.40988058
vt 1.7494578 0.6733448
vt 1.7494578 0.40988058
vt 0.674266 0.338962
vt 0.6242829 0.3546872
vt 0.6331881 0.35869676
vt 0.6353691 0.33896202
vt 0.59272987 0.34048063
vt 0.59272987 0.005
vt 0.6353691 0.0654813
vt 0.84709156 0.005
vt 0.8490897 0.028738966
vt 0.8521824 0.0654813
vt 0.39722413 0.12496506
vt 0.31681764 0.16272599
vt 0.408862 0.16023389
vt 0.27602935 0
vt 0.35598814 0
vt 0.31281525 0.15059848
vt 0.28374055 0.06249489
vt 0.015756072 0.047749024
vt 0 1.5258789E-07
vt 0.27179703 0.062494583
vt 0.020619506 0.06248718
vt 0.23158741 0.036880568
vt 0.16369906 0.06138985
vt 0.2320485 0.061408844
vt 0.06134224 0.061320573
vt 0.08511904 0
vt 0.23123443 0.01810173
vt 0.23089416 7.6293944E-08
vt 0.0019572258 0.10412308
vt 0 1.5258789E-07
vt 0.04500349 0.16595718
vt 0.06266254 0.1305632
vt 0.063352816 0.16595733
vt 0.00227993 0.12129082
vt 0.003119545 0.16595726
vt 0.06412758 3.8146972E-08
vt 0.16293205 0.0181567
vt 0.16279648 0
vt 0.13238586 0.060210552
vt 0.16324615 0.060210496
vt 0.06065956 0.060186654
vt 0.04419792 0.23080705
vt 0.061046906 0.11182718
vt 0.061999205 0.23080705
vt 0.000676651 0.090592004
vt 0 3.8146972E-08
vt 0.001723938 0.23080704
vn 0.99999976 7.8717465E-05 -0.00067068345
vn 0.99999976 7.871748E-05 -0.0006706835
vn 0.99999976 7.871747E-05 -0.00067068345
vn 1 4.325234E-05 0
vn 1 4.325234E-05 0
vn 1 4.3252337E-05 0
vn -0.7708743 -0.00016250252 -0.6369872
vn -0.7708743 -0.00016250255 -0.6369873
vn -0.7708743 -0.00016250255 -0.6369873
vn -1.5217458E-05 1 -3.167581E-05
vn -1.5217458E-05 1 -3.167581E-05
vn -1.5217458E-05 1 -3.167581E-05
vn -0.00026265276 -5.908549E-05 1
vn -0.00026265273 -5.908549E-05 1
vn -0.00071828486 0.0010829034 0.99999917
vn -0.00071828486 0.0010829034 0.99999917
vn -0.00071828486 0.0010829034 0.99999917
vn -0 0 1
vn -0 -0.00017873323 1
vn -0.00018027281 1.5870351E-06 1
vn 2.8437798E-05 1 -3.352811E-05
vn 2.8437797E-05 1 -3.352811E-05
vn 2.8437798E-05 1 -3.352811E-05
vn -0 0 -1
vn -0 0 -1
vn -0 0 -1
vn -0 0 -1
vn -0 0 -1
vn 1 0 0
vn 1 0 0
vn 1 0 0
vn 1 0 0
vn -0 -4.5085338E-07 1
vn -0 -4.5085338E-07 1
vn -0 -4.5085338E-07 1
vn -0 0 1
vn -0 0 1
vn -1 0 0
vn -1 0 0
vn -1 0 0
vn -1 0 0
vn -1 0 -9.0917433E-07
vn -1 0 0
vn -1 1.8788027E-06 3.4025516E-07
vn -1 0 0
vn -0 0 1
vn -0 0 1
vn -0 0 1
vn -0 0 1
vn 1.0556415E-06 0 1
vn -1.0784275E-06 0 1
vn -0 1 0
vn -0 1 0
vn -0 1 0
vn -0 1 0
vn -0 1 0
vn -0 0 -1
vn -0 0 -1
vn -0 0 -1
vn -0 0 -1
vn -0 0 -1
vn -0 0 -1
vn -0 0 -1
vn -0 -2.9752724E-07 -1
vn -0 -2.975272E-07 -1
vn -0 1 0
vn -0 1 0
vn -0 1 0
vn -0 1 0
vn -0 1 0
vn 1 0 9.2000556E-07
vn 1 0 9.200057E-07
vn 1 0 9.2000556E-07
vn 1 0 -4.1613116E-06
vn 1 0 -4.1613116E-06
vn 1 0 0
vn -0.0007186553 0 0.99999976
vn -0.0007186552 0 0.99999976
vn -0.0007186551 0 0.99999976
vn -0.0007187339 0 0.99999976
vn 1 4.3084026E-05 -0.00027229535
vn 1 4.3084023E-05 -0.00027229535
vn 1 -5.756326E-05 -0.00037290071
vn 1 4.3084026E-05 -0.00027229535
vn 1 0 -0.00027229663
vn 1 0 -0.0002723007
vn -4.3209297E-05 0.9999999 -0.00053109584
vn -4.3209304E-05 0.9999999 -0.0005310959
vn -4.3209297E-05 0.9999999 -0.00053109584
vn 2.8530481E-05 1 -3.5005472E-05
vn 2.016722E-05 1 -3.5005476E-05
vn 2.0167243E-05 1 0
vn 2.8371338E-05 1 -3.0076117E-05
vn 2.0167241E-05 1 0
vn 2.0167241E-05 1 0
vn 1.7393044E-05 1 1.4302949E-06
vn 1.7393044E-05 1 1.430295E-06
vn 1.7393044E-05 1 5.023917E-06
vn 2.7628219E-05 1 1.6542768E-05
vn -5.2935953E-05 1 -3.1696116E-05
vn 2.9399795E-05 -0.00033602255 1
vn 2.9399795E-05 -0.00033602255 1
vn 2.9399793E-05 -0.00033602255 1
vn -0 1.587035E-06 1
vn -0 1.587035E-06 1
vn 0.30143607 0.71794134 0.62745243
vn 0.30143604 0.71794134 0.62745243
vn 0.30143607 0.71794134 0.62745243
vn 0.3014319 0.71793044 0.6274669
vn 0.3014254 0.7179134 0.6274896
vn 0.30143413 0.71793705 0.6274582
vn 0.30143812 0.71794856 0.6274432
vn 1 3.954837E-05 0
vn 1 3.9548373E-05 0
vn 1 3.954837E-05 0
vn 1 4.3084245E-05 0
vn -0 -1 0
vn -0 -1 0
vn -0 -1 0
vn -0 -1 0
vn -0 -1 0
vn -0 -1 0
vn -0 -1 0
vn -0 -1 0
vn -0 -1 0
vn -0 -1 0
vn -0.27932084 0.7328837 0.620372
vn -0.27932084 0.7328837 0.62037194
vn -0.27932084 0.7328837 0.620372
vn -0.27932057 0.7328834 0.6203725
vn -0.27932188 0.73288333 0.62037206
vn -0.27932018 0.7328868 0.6203687
vn -0.2793871 0.7328662 0.6203628
vn -0.2793226 0.732883 0.620372
vn -0.27932057 0.7328834 0.6203725
vn -0.2793226 0.732883 0.620372
vn -0.2793226 0.732883 0.620372
vn -0.21296549 0.97327584 -0.085906215
vn -0.21296547 0.97327584 -0.085906215
vn -0.21296549 0.97327584 -0.08590621
vn -0.21296585 0.9732757 -0.08590633
vn -0.2129657 0.97327584 -0.085906
vn -0.21296719 0.97327536 -0.08590636
vn -0.21296328 0.9732763 -0.08590693
vn -0.21296102 0.9732762 -0.08591389
vn -0.2129657 0.97327584 -0.085906
vn -0.21296701 0.9732755 -0.085906304
vn -0.21296701 0.9732755 -0.08590631
vn -0.21296701 0.9732755 -0.08590632
vn -0.21296746 0.97327524 -0.0859069
vn -0.21296744 0.97327524 -0.0859069
vn 0.99254555 -0.08873628 -0.083542414
vn 0.99254555 -0.08873628 -0.08354241
vn 0.99254555 -0.08873628 -0.08354241
vn 0.9925452 -0.08873756 -0.08354489
vn 0.9925452 -0.08873756 -0.083544895
vn 0.9925454 -0.08873552 -0.08354431
vn 0.9925453 -0.08873619 -0.0835445
vn 0.9925453 -0.08873619 -0.0835445
vn 0.9925453 -0.088736184 -0.0835445
vn 0.9925454 -0.08873502 -0.08354468
vn 0.9925453 -0.08873576 -0.08354496
vn 0.9925454 -0.08873502 -0.08354468
g Device_Prop_Box_01_v_021_0
f 3/3/3 2/2/2 1/1/1
f 6/6/6 5/5/5 4/4/4
f 9/9/9 8/8/8 7/7/7
f 12/12/12 11/11/11 10/10/10
f 15/15/15 14/14/14 13/13/13
f 15/15/15 17/17/17 16/16/16
f 18/18/18 16/16/16 17/17/17
f 17/17/17 19/19/19 18/18/18
f 20/20/20 18/18/18 19/19/19
f 23/23/23 22/22/22 21/21/21
f 26/26/26 25/25/25 24/24/24
f 27/27/27 24/24/24 25/25/25
f 24/24/24 27/27/27 28/28/28
f 31/31/31 30/30/30 29/29/29
f 32/32/32 29/29/29 30/30/30
f 35/35/35 34/34/34 33/33/33
f 33/33/33 34/34/34 36/36/36
f 37/37/37 36/36/36 34/34/34
f 40/40/40 39/39/39 38/38/38
f 41/41/41 38/38/38 39/39/39
f 41/41/41 39/39/39 42/42/42
f 41/41/41 43/43/43 38/38/38
f 44/44/44 38/38/38 43/43/43
f 38/38/38 44/44/44 45/45/45
f 48/48/48 47/47/47 46/46/46
f 49/49/49 46/46/46 47/47/47
f 47/47/47 50/50/50 49/49/49
f 50/50/50 51/51/51 49/49/49
f 54/54/54 53/53/53 52/52/52
f 52/52/52 53/53/53 55/55/55
f 56/56/56 55/55/55 53/53/53
f 59/59/59 58/58/58 57/57/57
f 60/60/60 57/57/57 58/58/58
f 60/60/60 61/61/61 57/57/57
f 62/62/62 61/61/61 60/60/60
f 60/60/60 58/58/58 63/63/63
f 64/64/64 63/63/63 58/58/58
f 65/65/65 64/64/64 58/58/58
f 68/68/68 67/67/67 66/66/66
f 67/67/67 69/69/69 66/66/66
f 70/70/70 66/66/66 69/69/69
f 73/73/73 72/72/72 71/71/71
f 71/71/71 72/72/72 74/74/74
f 75/75/75 74/74/74 72/72/72
f 74/74/74 76/76/76 71/71/71
f 79/79/79 78/78/78 77/77/77
f 80/80/80 77/77/77 78/78/78
f 83/83/83 82/82/82 81/81/81
f 84/84/84 81/81/81 82/82/82
f 82/82/82 85/85/85 84/84/84
f 86/86/86 84/84/84 85/85/85
f 89/89/89 88/88/88 87/87/87
f 87/87/87 88/88/88 90/90/90
f 93/93/93 92/92/92 91/91/91
f 94/94/94 91/91/91 92/92/92
f 94/94/94 92/92/92 95/95/95
f 92/92/92 96/96/96 95/95/95
f 97/97/97 95/95/95 96/96/96
f 97/97/97 98/98/98 95/95/95
f 99/99/99 95/95/95 98/98/98
f 95/95/95 99/99/99 100/100/100
f 103/103/103 102/102/102 101/101/101
f 102/102/102 104/104/104 101/101/101
f 105/105/105 101/101/101 104/104/104
f 108/108/108 107/107/107 106/106/106
f 106/106/106 107/107/107 109/109/109
f 107/107/107 110/110/110 109/109/109
f 110/110/110 111/111/111 109/109/109
f 111/111/111 112/112/112 109/109/109
f 115/115/115 114/114/114 113/113/113
f 116/116/116 113/113/113 114/114/114
f 119/119/119 118/118/118 117/117/117
f 120/120/120 117/117/117 118/118/118
f 118/118/118 121/121/121 120/120/120
f 122/122/122 120/120/120 121/121/121
f 123/123/123 120/120/120 122/122/122
f 122/122/122 124/124/124 123/123/123
f 125/125/125 123/123/123 124/124/124
f 123/123/123 125/125/125 126/126/126
f 129/129/129 128/128/128 127/127/127
f 128/128/128 130/130/130 127/127/127
f 130/130/130 131/131/131 127/127/127
f 132/132/132 130/130/130 128/128/128
f 133/133/133 130/130/130 132/132/132
f 134/134/134 130/130/130 133/133/133
f 135/135/135 130/130/130 134/134/134
f 136/136/136 134/134/134 133/133/133
f 137/137/137 134/134/134 136/136/136
f 140/140/140 139/139/139 138/138/138
f 139/139/139 141/141/141 138/138/138
f 141/141/141 142/142/142 138/138/138
f 138/138/138 142/142/142 143/143/143
f 143/143/143 142/142/142 144/144/144
f 145/145/145 142/142/142 141/141/141
f 146/146/146 142/142/142 145/145/145
f 147/147/147 145/145/145 141/141/141
f 148/148/148 147/147/147 141/141/141
f 149/149/149 147/147/147 148/148/148
f 150/150/150 145/145/145 147/147/147
f 151/151/151 150/150/150 147/147/147
f 154/154/154 153/153/153 152/152/152
f 153/153/153 155/155/155 152/152/152
f 156/156/156 155/155/155 153/153/153
f 155/155/155 157/157/157 152/152/152
f 157/157/157 158/158/158 152/152/152
f 159/159/159 158/158/158 157/157/157
f 160/160/160 158/158/158 159/159/159
f 158/158/158 161/161/161 152/152/152
f 152/152/152 161/161/161 162/162/162
f 163/163/163 161/161/161 158/158/158
