g Eff_HeavySoldier_Hit_01_LQ
v 0.67176324 0.1728436 -1.9704632
v 1.0426883 0.82561535 -2.1977835
v 0.82852757 0.82561547 -2.3686144
v 0.78989065 0.17284359 -1.8400997
v 0.26438096 -0.0108513255 -0.92702216
v 0.29384547 -0.010851345 -0.89389634
v 1.1453451 0.82561535 -1.9244736
v 0.30016783 -0.010851345 -0.848853
v 0.8315563 0.17284362 -1.6748576
v 1.1453451 0.8256153 1.9244736
v 0.8315563 0.17284362 1.6748576
v 0.30016783 -0.010851345 0.848853
v 0.78989065 0.17284359 1.8400997
v 0.29384547 -0.010851345 0.89389634
v 1.0426883 0.82561535 2.1977835
v 0.26438096 -0.0108513255 0.92702216
v 0.67176324 0.17284359 1.9704632
v 0.82852757 0.82561547 2.3686144
v -0.8285275 0.82561535 2.3686144
v -0.67176306 0.17284356 1.9704632
v -0.26438093 -0.0108513255 0.92702216
v -1.042688 0.82561547 2.1977835
v -0.7898905 0.17284359 1.8400997
v -0.29384544 -0.010851307 0.89389634
v -1.145345 0.82561535 1.9244736
v -0.3001678 -0.010851307 0.848853
v -0.83155614 0.17284362 1.6748576
v -1.1453449 0.82561535 -1.9244736
v -0.83155614 0.17284362 -1.6748576
v -0.3001678 -0.010851307 -0.848853
v -0.7898905 0.17284359 -1.8400997
v -0.29384544 -0.010851307 -0.89389634
v -1.042688 0.82561547 -2.1977835
v -0.26438093 -0.0108513255 -0.92702216
v -0.67176306 0.17284359 -1.9704632
v -0.82852745 0.82561535 -2.3686144
v 0.26438096 -0.0108513255 -0.92702216
v 0.82852757 0.82561547 -2.3686144
v 0.67176324 0.1728436 -1.9704632
vt 0.002 0.5279019
vt 0.018609492 0.99799997
vt 0.002 0.99799997
vt 0.018609492 0.5279019
vt 0.002 0.0013297803
vt 0.018609492 0.0013297803
vt 0.035219043 0.99799997
vt 0.035219043 0.0013297803
vt 0.035219043 0.5279019
vt 0.33404922 0.99799997
vt 0.33404922 0.5279019
vt 0.33404922 0.0013297803
vt 0.35065883 0.5279019
vt 0.35065883 0.0013297803
vt 0.35065883 0.99799997
vt 0.36726838 0.0013297803
vt 0.36726838 0.5279019
vt 0.36726838 0.99799997
vt 0.50016207 0.99799997
vt 0.50016207 0.52790195
vt 0.50016207 0.0013298702
vt 0.5167715 0.99799997
vt 0.5167715 0.52790195
vt 0.5167715 0.0013298702
vt 0.53338104 0.99799997
vt 0.53338104 0.0013298702
vt 0.53338104 0.52790195
vt 0.8322111 0.99799997
vt 0.8322111 0.52790195
vt 0.8322111 0.0013298702
vt 0.8488206 0.52790195
vt 0.8488206 0.0013298702
vt 0.8488206 0.99799997
vt 0.8654301 0.0013298702
vt 0.8654301 0.52790195
vt 0.8654301 0.99799997
vt 0.9983251 0.0013298702
vt 0.9983251 0.99799997
vt 0.9983251 0.52790195
vn 0.2366992 -0.7979643 -0.5542802
vn 0.67972857 -0.52546114 -0.51172227
vn 0.27931327 -0.5479963 -0.78846955
vn 0.54104334 -0.7927146 -0.28084815
vn 0.06931983 -0.9867757 -0.14652126
vn 0.2334258 -0.9701343 -0.06596785
vn 0.8655236 -0.469563 -0.1742969
vn 0.3151082 -0.949008 -0.009515777
vn 0.64245105 -0.7625202 -0.076286264
vn 0.8655236 -0.46956307 0.1742969
vn 0.6424511 -0.76252013 0.076286264
vn 0.3151082 -0.949008 0.009515777
vn 0.5410434 -0.7927146 0.28084815
vn 0.2334258 -0.9701343 0.06596785
vn 0.6797285 -0.5254611 0.5117223
vn 0.06931983 -0.9867757 0.14652126
vn 0.23669921 -0.7979643 0.55428016
vn 0.27931327 -0.5479962 0.78846955
vn -0.27931353 -0.5479963 0.78846943
vn -0.23669925 -0.7979643 0.55428016
vn -0.06932017 -0.9867757 0.14652106
vn -0.6797286 -0.5254611 0.5117222
vn -0.54104334 -0.79271466 0.28084803
vn -0.23342603 -0.9701343 0.06596773
vn -0.8655236 -0.46956307 0.17429699
vn -0.3151082 -0.949008 0.009515786
vn -0.64245105 -0.76252025 0.07628624
vn -0.8655237 -0.46956304 -0.17429693
vn -0.6424511 -0.76252013 -0.076286264
vn -0.3151082 -0.949008 -0.009515785
vn -0.54104334 -0.79271466 -0.28084806
vn -0.23342603 -0.9701343 -0.06596773
vn -0.67972857 -0.5254611 -0.5117222
vn -0.06932017 -0.9867757 -0.14652106
vn -0.23669925 -0.7979643 -0.5542801
vn -0.2793134 -0.5479963 -0.7884695
vn 0.06931983 -0.9867757 -0.14652126
vn 0.27931327 -0.5479963 -0.78846955
vn 0.2366992 -0.7979643 -0.5542802
g Eff_HeavySoldier_Hit_01_LQ_0
f 3/3/3 2/2/2 1/1/1
f 4/4/4 1/1/1 2/2/2
f 1/1/1 4/4/4 5/5/5
f 6/6/6 5/5/5 4/4/4
f 2/2/2 7/7/7 4/4/4
f 6/6/6 4/4/4 8/8/8
f 9/9/9 4/4/4 7/7/7
f 9/9/9 8/8/8 4/4/4
f 7/7/7 10/10/10 9/9/9
f 9/9/9 11/11/11 8/8/8
f 11/11/11 9/9/9 10/10/10
f 12/12/12 8/8/8 11/11/11
f 11/11/11 10/10/10 13/13/13
f 11/11/11 13/13/13 12/12/12
f 14/14/14 12/12/12 13/13/13
f 15/15/15 13/13/13 10/10/10
f 14/14/14 13/13/13 16/16/16
f 13/13/13 15/15/15 17/17/17
f 17/17/17 16/16/16 13/13/13
f 18/18/18 17/17/17 15/15/15
f 18/18/18 19/19/19 17/17/17
f 17/17/17 20/20/20 16/16/16
f 20/20/20 17/17/17 19/19/19
f 21/21/21 16/16/16 20/20/20
f 19/19/19 22/22/22 20/20/20
f 20/20/20 23/23/23 21/21/21
f 23/23/23 20/20/20 22/22/22
f 24/24/24 21/21/21 23/23/23
f 22/22/22 25/25/25 23/23/23
f 24/24/24 23/23/23 26/26/26
f 27/27/27 23/23/23 25/25/25
f 27/27/27 26/26/26 23/23/23
f 25/25/25 28/28/28 27/27/27
f 27/27/27 29/29/29 26/26/26
f 29/29/29 27/27/27 28/28/28
f 30/30/30 26/26/26 29/29/29
f 29/29/29 28/28/28 31/31/31
f 29/29/29 31/31/31 30/30/30
f 32/32/32 30/30/30 31/31/31
f 33/33/33 31/31/31 28/28/28
f 32/32/32 31/31/31 34/34/34
f 31/31/31 33/33/33 35/35/35
f 35/35/35 34/34/34 31/31/31
f 36/36/36 35/35/35 33/33/33
f 34/34/34 35/35/35 37/37/37
f 36/36/36 38/38/38 35/35/35
f 39/39/39 37/37/37 35/35/35
f 39/39/39 35/35/35 38/38/38
