g Eff_EjectCylinder_02
v 0.14009926 0.40387598 -0.7043346
v -7.6293944E-08 0.40387598 -0.71813285
v -7.6293944E-08 0.22071378 -0.55513966
v 0.10830108 0.22071378 -0.5444728
v 0.27481613 0.40387598 -0.663469
v -7.6293944E-08 0.08476511 -0.3749504
v 0.21244162 0.2207138 -0.5128829
v 0.39897215 0.40387598 -0.5971067
v 0.0731485 0.08476511 -0.36774626
v -0 0.001113098 -0.18821189
v 0.03671791 0.0011130986 -0.1845954
v 0.1434864 0.08476511 -0.3464093
v 0.072025225 0.0011131003 -0.17388527
v 0.30841812 0.2207138 -0.46158266
v 0.5077959 0.40387604 -0.5077978
v 0.20831062 0.08476512 -0.3117602
v 0.104564585 0.0011131031 -0.1564926
v 0.39254227 0.22071382 -0.39254382
v 0.5971048 0.40387604 -0.39897436
v 0.2651294 0.08476512 -0.26513055
v 0.13308562 0.001113107 -0.13308623
v 0.4615814 0.22071382 -0.30841997
v 0.6634678 0.40387607 -0.27481893
v 0.31175947 0.08476513 -0.20831193
v 0.15649231 0.0011131116 -0.10456528
v 0.51288193 0.22071384 -0.21244372
v 0.7043341 0.40387607 -0.14010215
v 0.34640855 0.08476514 -0.14348786
v 0.17388496 0.001113117 -0.07202591
v 0.54447263 0.22071385 -0.10830326
v 0.7181331 0.4038761 -1.2102089E-06
v 0.36774582 0.08476516 -0.07314981
v 0.18459556 0.0011131227 -0.03671875
v 0.5551396 0.22071388 -9.514862E-07
v 0.7043344 0.40387616 0.14009972
v 0.3749504 0.084765166 -7.004555E-07
v 0.18821189 0.0011131286 -3.0535713E-07
v 0.54447293 0.2207139 0.10830158
v 0.6634689 0.40387616 0.2748166
v 0.3677461 0.08476517 0.07314864
v 0.1845954 0.0011131346 0.036717985
v 0.51288253 0.22071391 0.21244198
v 0.59710646 0.4038762 0.3989725
v 0.3464093 0.08476518 0.14348677
v 0.17388527 0.0011131404 0.0720253
v 0.46158233 0.22071393 0.30841848
v 0.50779754 0.4038762 0.507796
v 0.3117601 0.0847652 0.20831083
v 0.15649253 0.0011131457 0.10456467
v 0.39254346 0.22071393 0.39254257
v 0.39897415 0.40387622 0.5971054
v 0.26513037 0.08476521 0.2651297
v 0.13308609 0.0011131503 0.13308579
v 0.30841956 0.22071396 0.46158138
v 0.27481842 0.40387622 0.66346806
v 0.20831162 0.08476521 0.3117596
v 0.10456512 0.0011131541 0.15649238
v 0.21244323 0.22071396 0.5128819
v 0.14010139 0.40387622 0.7043341
v 0.14348778 0.084765226 0.3464089
v 0.07202583 0.0011131569 0.17388503
v 0.10830299 0.22071397 0.54447263
v 7.629394E-07 0.40387622 0.718133
v 0.07314956 0.084765226 0.36774582
v 0.036718674 0.0011131588 0.18459533
v 5.340576E-07 0.22071397 0.55513966
v -0.14010024 0.40387622 0.7043343
v 3.0517577E-07 0.084765226 0.37495044
v 2.2888183E-07 0.0011131593 0.18821181
v -0.10830192 0.22071397 0.54447293
v -0.2748171 0.40387622 0.6634687
v -0.07314888 0.084765226 0.36774603
v -0.036718216 0.0011131588 0.18459548
v -0.21244223 0.22071396 0.51288235
v -0.39897284 0.40387622 0.597106
v -0.14348717 0.084765226 0.34640926
v -0.07202545 0.0011131569 0.17388527
v -0.30841884 0.22071396 0.46158198
v -0.50779647 0.4038762 0.5077971
v -0.20831108 0.08476521 0.31176004
v -0.104564816 0.0011131541 0.15649253
v -0.39254278 0.22071393 0.39254326
v -0.59710556 0.4038762 0.39897373
v -0.26512977 0.08476521 0.26513028
v -0.13308579 0.0011131503 0.13308601
v -0.46158168 0.22071393 0.3084195
v -0.6634683 0.40387616 0.27481806
v -0.31175983 0.0847652 0.20831151
v -0.15649238 0.0011131457 0.10456512
v -0.51288205 0.22071399 0.21244289
v -0.70433426 0.40387616 0.14010102
v -0.34640902 0.08476518 0.14348754
v -0.1738851 0.0011131404 0.072025605
v -0.5444728 0.2207139 0.10830257
v -0.7181331 0.4038761 1.6308205E-07
v -0.36774594 0.08476517 0.07314947
v -0.1845954 0.0011131346 0.03671837
v -0.5551397 0.22071388 2.692169E-07
v -0.7043344 0.40387607 -0.14010061
v -0.37495053 0.084765166 2.9136578E-07
v -0.18821189 0.0011131286 -1.8135167E-10
v -0.5444729 0.22071385 -0.1083025
v -0.66346854 0.40387607 -0.27481756
v -0.36774585 0.08476516 -0.0731492
v -0.1845954 0.0011131227 -0.036718216
v -0.51288223 0.22071384 -0.21244258
v -0.59710586 0.40387604 -0.39897332
v -0.3464091 0.08476514 -0.14348732
v -0.1738851 0.001113117 -0.072025605
v -0.46158183 0.2207139 -0.30841908
v -0.5077968 0.40387604 -0.5077967
v -0.3117599 0.08476513 -0.20831117
v -0.15649246 0.0011131116 -0.10456489
v -0.39254305 0.22071382 -0.39254305
v -0.39897332 0.40387598 -0.5971058
v -0.26513007 0.08476512 -0.26513016
v -0.13308586 0.001113107 -0.13308579
v -0.30841914 0.2207138 -0.46158177
v -0.27481773 0.40387598 -0.66346884
v -0.2083113 0.08476512 -0.31175974
v -0.10456489 0.0011131031 -0.15649253
v -0.2124427 0.2207138 -0.5128824
v -0.14010085 0.40387598 -0.7043343
v -0.1434874 0.08476511 -0.346409
v -0.072025605 0.0011131003 -0.17388518
v -0.1083023 0.22071378 -0.5444728
v -7.6293944E-08 0.40387598 -0.71813285
v -7.6293944E-08 0.22071378 -0.55513966
v -0.07314918 0.08476511 -0.36774567
v -0.03671837 0.0011130986 -0.1845954
v -7.6293944E-08 0.08476511 -0.3749504
v -0 0.001113098 -0.18821189
vt 0.9668749 0.50086
vt 0.99799997 0.50086
vt 0.99799997 0.334858
vt 0.9668749 0.334858
vt 0.93574995 0.50086
vt 0.99799997 0.16885601
vt 0.93574995 0.334858
vt 0.9046249 0.50086
vt 0.9668749 0.16885601
vt 0.99799997 0.0028537998
vt 0.9668749 0.0028537998
vt 0.93574995 0.16885601
vt 0.93574995 0.0028537998
vt 0.9046249 0.334858
vt 0.87349993 0.50086
vt 0.9046249 0.16885601
vt 0.9046249 0.0028537998
vt 0.87349993 0.334858
vt 0.84237504 0.50086
vt 0.87349993 0.16885601
vt 0.87349993 0.0028537998
vt 0.84237504 0.334858
vt 0.8112499 0.50086
vt 0.84237504 0.16885601
vt 0.84237504 0.0028537998
vt 0.8112499 0.334858
vt 0.7801249 0.50086
vt 0.8112499 0.16885601
vt 0.8112499 0.0028537998
vt 0.7801249 0.334858
vt 0.7489999 0.50086
vt 0.7801249 0.16885601
vt 0.7801249 0.0028537998
vt 0.7489999 0.334858
vt 0.7178749 0.50086
vt 0.7489999 0.16885601
vt 0.7489999 0.0028537998
vt 0.7178749 0.334858
vt 0.68674994 0.50086
vt 0.7178749 0.16885601
vt 0.7178749 0.0028537998
vt 0.68674994 0.334858
vt 0.65562487 0.50086
vt 0.68674994 0.16885601
vt 0.68674994 0.0028537998
vt 0.65562487 0.334858
vt 0.62449986 0.50086
vt 0.65562487 0.16885601
vt 0.65562487 0.0028537998
vt 0.62449986 0.334858
vt 0.5933749 0.50086
vt 0.62449986 0.16885601
vt 0.62449986 0.0028537998
vt 0.5933749 0.334858
vt 0.5622499 0.50086
vt 0.5933749 0.16885601
vt 0.5933749 0.0028537998
vt 0.5622499 0.334858
vt 0.5311249 0.50086
vt 0.5622499 0.16885601
vt 0.5622499 0.0028537998
vt 0.5311249 0.334858
vt 0.49999994 0.50086
vt 0.5311249 0.16885601
vt 0.5311249 0.0028537998
vt 0.49999994 0.334858
vt 0.4688749 0.50086
vt 0.49999994 0.16885601
vt 0.49999994 0.0028537998
vt 0.4688749 0.334858
vt 0.4377499 0.50086
vt 0.4688749 0.16885601
vt 0.4688749 0.0028537998
vt 0.4377499 0.334858
vt 0.4066249 0.50086
vt 0.4377499 0.16885601
vt 0.4377499 0.0028537998
vt 0.4066249 0.334858
vt 0.3754999 0.50086
vt 0.4066249 0.16885601
vt 0.4066249 0.0028537998
vt 0.3754999 0.334858
vt 0.34437487 0.50086
vt 0.3754999 0.16885601
vt 0.3754999 0.0028537998
vt 0.34437487 0.334858
vt 0.3132499 0.50086
vt 0.34437487 0.16885601
vt 0.34437487 0.0028537998
vt 0.3132499 0.334858
vt 0.2821249 0.50086
vt 0.3132499 0.16885601
vt 0.3132499 0.0028537998
vt 0.2821249 0.334858
vt 0.25099993 0.50086
vt 0.2821249 0.16885601
vt 0.2821249 0.0028537998
vt 0.25099993 0.334858
vt 0.21987495 0.50086
vt 0.25099993 0.16885601
vt 0.25099993 0.0028537998
vt 0.21987495 0.334858
vt 0.18874992 0.50086
vt 0.21987495 0.16885601
vt 0.21987495 0.0028537998
vt 0.18874992 0.334858
vt 0.15762497 0.50086
vt 0.18874992 0.16885601
vt 0.18874992 0.0028537998
vt 0.15762497 0.334858
vt 0.12649994 0.50086
vt 0.15762497 0.16885601
vt 0.15762497 0.0028537998
vt 0.12649994 0.334858
vt 0.09537494 0.50086
vt 0.12649994 0.16885601
vt 0.12649994 0.0028537998
vt 0.09537494 0.334858
vt 0.064249985 0.50086
vt 0.09537494 0.16885601
vt 0.09537494 0.0028537998
vt 0.064249985 0.334858
vt 0.03312496 0.50086
vt 0.064249985 0.16885601
vt 0.064249985 0.0028537998
vt 0.03312496 0.334858
vt 0.002 0.50086
vt 0.002 0.334858
vt 0.03312496 0.16885601
vt 0.03312496 0.0028537998
vt 0.002 0.16885601
vt 0.002 0.0028537998
vn 0.15834178 -0.58415383 -0.7960479
vn -3.340305E-07 -0.58415365 -0.8116432
vn -3.8256587E-07 -0.7320488 -0.6812522
vn 0.13290413 -0.73204887 -0.6681624
vn 0.31060037 -0.58415365 -0.7498612
vn -8.538217E-07 -0.8578263 -0.5139398
vn 0.26070204 -0.7320489 -0.6293956
vn 0.4509233 -0.5841535 -0.6748576
vn 0.10026381 -0.85782605 -0.50406504
vn -9.498334E-07 -0.9126158 -0.4088183
vn 0.07975591 -0.91261595 -0.40096283
vn 0.1966753 -0.8578264 -0.47481847
vn 0.15644784 -0.9126158 -0.377699
vn 0.37848222 -0.732049 -0.566441
vn 0.57391757 -0.58415365 -0.57391906
vn 0.28552863 -0.8578264 -0.4273257
vn 0.22712654 -0.91261566 -0.3399208
vn 0.4817172 -0.7320489 -0.48171872
vn 0.67485577 -0.5841537 -0.4509258
vn 0.3634093 -0.8578263 -0.36341122
vn 0.28907734 -0.9126158 -0.28907925
vn 0.56644 -0.73204875 -0.3784844
vn 0.74985987 -0.58415353 -0.31060395
vn 0.42732492 -0.8578263 -0.28553003
vn 0.3399201 -0.91261566 -0.22712746
vn 0.6293944 -0.73204887 -0.26070487
vn 0.79604733 -0.58415365 -0.1583451
vn 0.47481796 -0.8578264 -0.1966769
vn 0.37769905 -0.91261554 -0.15644912
vn 0.6681618 -0.732049 -0.13290662
vn 0.8116432 -0.5841536 -7.6058046E-07
vn 0.5040646 -0.8578261 -0.10026569
vn 0.40096298 -0.91261566 -0.0797576
vn 0.6812522 -0.7320488 -8.574751E-07
vn 0.7960479 -0.5841535 0.15834254
vn 0.5139399 -0.85782623 -6.0738853E-07
vn 0.40881848 -0.91261566 -1.1227361E-07
vn 0.6681624 -0.73204875 0.13290462
vn 0.7498612 -0.5841535 0.3106008
vn 0.5040649 -0.85782623 0.1002638
vn 0.4009631 -0.9126158 0.07975574
vn 0.62939537 -0.7320488 0.26070285
vn 0.6748572 -0.5841534 0.4509241
vn 0.47481862 -0.85782623 0.19667591
vn 0.3776989 -0.9126158 0.15644795
vn 0.5664409 -0.73204887 0.37848273
vn 0.57391906 -0.5841534 0.5739178
vn 0.42732564 -0.8578263 0.28552914
vn 0.3399205 -0.91261566 0.22712705
vn 0.4817183 -0.7320489 0.48171768
vn 0.45092553 -0.58415353 0.67485607
vn 0.36341086 -0.8578261 0.3634101
vn 0.28907886 -0.91261566 0.28907782
vn 0.37848386 -0.73204887 0.56644017
vn 0.31060296 -0.58415365 0.74986017
vn 0.28553015 -0.8578261 0.42732516
vn 0.22712786 -0.91261554 0.33992004
vn 0.26070452 -0.7320488 0.6293947
vn 0.15834446 -0.58415365 0.79604745
vn 0.19667697 -0.85782605 0.47481853
vn 0.15644851 -0.9126158 0.3776989
vn 0.13290651 -0.73204875 0.6681621
vn 8.146501E-07 -0.5841536 0.8116432
vn 0.10026514 -0.8578261 0.5040647
vn 0.07975672 -0.9126158 0.4009631
vn 7.915156E-07 -0.73204875 0.6812523
vn -0.15834281 -0.58415353 0.7960478
vn 7.345025E-07 -0.85782623 0.51394
vn 7.140603E-07 -0.9126158 0.40881845
vn -0.13290499 -0.7320487 0.66816247
vn -0.31060168 -0.58415365 0.7498607
vn -0.100263916 -0.8578261 0.50406504
vn -0.0797556 -0.9126158 0.40096328
vn -0.26070344 -0.7320487 0.62939525
vn -0.4509243 -0.58415365 0.67485684
vn -0.19667612 -0.85782605 0.47481883
vn -0.15644792 -0.9126158 0.37769902
vn -0.37848306 -0.7320487 0.5664409
vn -0.5739179 -0.58415353 0.573919
vn -0.28552955 -0.85782623 0.42732555
vn -0.22712743 -0.91261566 0.3399202
vn -0.48171747 -0.7320488 0.4817186
vn -0.67485636 -0.5841535 0.45092523
vn -0.36340988 -0.85782623 0.36341092
vn -0.28907788 -0.9126158 0.2890788
vn -0.5664403 -0.7320488 0.3784836
vn -0.7498603 -0.5841537 0.3106027
vn -0.42732525 -0.85782623 0.28553006
vn -0.33991975 -0.9126158 0.22712784
vn -0.6293949 -0.73204875 0.2607042
vn -0.7960475 -0.5841536 0.15834415
vn -0.47481856 -0.8578261 0.19667667
vn -0.37769878 -0.9126158 0.15644827
vn -0.668162 -0.73204875 0.13290642
vn -0.8116432 -0.5841536 5.202706E-07
vn -0.5040646 -0.85782623 0.100265294
vn -0.40096292 -0.91261584 0.079756774
vn -0.6812521 -0.73204887 3.633776E-07
vn -0.7960476 -0.5841537 -0.15834334
vn -0.5139398 -0.85782623 1.1212405E-07
vn -0.4088183 -0.91261584 0
vn -0.66816205 -0.73204887 -0.13290554
vn -0.74986047 -0.5841537 -0.31060225
vn -0.5040646 -0.8578263 -0.100264505
vn -0.40096304 -0.9126158 -0.07975628
vn -0.6293948 -0.7320489 -0.26070386
vn -0.67485654 -0.5841538 -0.45092466
vn -0.47481853 -0.85782623 -0.19667622
vn -0.37769893 -0.91261584 -0.15644781
vn -0.56644064 -0.7320488 -0.3784832
vn -0.5739183 -0.5841537 -0.5739183
vn -0.4273254 -0.8578263 -0.2855293
vn -0.33992004 -0.91261584 -0.22712715
vn -0.48171803 -0.73204887 -0.48171794
vn -0.4509254 -0.5841537 -0.674856
vn -0.36341044 -0.85782623 -0.36341032
vn -0.28907812 -0.91261584 -0.28907803
vn -0.3784837 -0.7320489 -0.5664401
vn -0.31060237 -0.5841536 -0.7498605
vn -0.28552958 -0.8578263 -0.4273251
vn -0.22712746 -0.9126158 -0.33992007
vn -0.26070368 -0.73204917 -0.6293946
vn -0.15834242 -0.5841536 -0.7960478
vn -0.19667608 -0.8578263 -0.4748184
vn -0.15644789 -0.91261566 -0.37769914
vn -0.13290481 -0.73204905 -0.66816205
vn -3.340305E-07 -0.58415365 -0.8116432
vn -3.8256587E-07 -0.7320488 -0.6812522
vn -0.100264385 -0.8578263 -0.5040644
vn -0.079756424 -0.91261566 -0.40096337
vn -8.538217E-07 -0.8578263 -0.5139398
vn -9.498334E-07 -0.9126158 -0.4088183
g Eff_EjectCylinder_02_0
f 3/3/3 2/2/2 1/1/1
f 4/4/4 3/3/3 1/1/1
f 4/4/4 1/1/1 5/5/5
f 6/6/6 3/3/3 4/4/4
f 7/7/7 4/4/4 5/5/5
f 7/7/7 5/5/5 8/8/8
f 9/9/9 6/6/6 4/4/4
f 9/9/9 4/4/4 7/7/7
f 10/10/10 6/6/6 9/9/9
f 11/11/11 10/10/10 9/9/9
f 11/11/11 9/9/9 12/12/12
f 12/12/12 9/9/9 7/7/7
f 13/13/13 11/11/11 12/12/12
f 14/14/14 7/7/7 8/8/8
f 12/12/12 7/7/7 14/14/14
f 14/14/14 8/8/8 15/15/15
f 13/13/13 12/12/12 16/16/16
f 16/16/16 12/12/12 14/14/14
f 17/17/17 13/13/13 16/16/16
f 18/18/18 14/14/14 15/15/15
f 16/16/16 14/14/14 18/18/18
f 18/18/18 15/15/15 19/19/19
f 17/17/17 16/16/16 20/20/20
f 20/20/20 16/16/16 18/18/18
f 21/21/21 17/17/17 20/20/20
f 22/22/22 18/18/18 19/19/19
f 20/20/20 18/18/18 22/22/22
f 22/22/22 19/19/19 23/23/23
f 21/21/21 20/20/20 24/24/24
f 24/24/24 20/20/20 22/22/22
f 25/25/25 21/21/21 24/24/24
f 26/26/26 22/22/22 23/23/23
f 24/24/24 22/22/22 26/26/26
f 26/26/26 23/23/23 27/27/27
f 25/25/25 24/24/24 28/28/28
f 28/28/28 24/24/24 26/26/26
f 29/29/29 25/25/25 28/28/28
f 30/30/30 26/26/26 27/27/27
f 28/28/28 26/26/26 30/30/30
f 30/30/30 27/27/27 31/31/31
f 29/29/29 28/28/28 32/32/32
f 32/32/32 28/28/28 30/30/30
f 33/33/33 29/29/29 32/32/32
f 34/34/34 30/30/30 31/31/31
f 32/32/32 30/30/30 34/34/34
f 34/34/34 31/31/31 35/35/35
f 33/33/33 32/32/32 36/36/36
f 36/36/36 32/32/32 34/34/34
f 37/37/37 33/33/33 36/36/36
f 38/38/38 34/34/34 35/35/35
f 36/36/36 34/34/34 38/38/38
f 38/38/38 35/35/35 39/39/39
f 37/37/37 36/36/36 40/40/40
f 40/40/40 36/36/36 38/38/38
f 41/41/41 37/37/37 40/40/40
f 42/42/42 38/38/38 39/39/39
f 40/40/40 38/38/38 42/42/42
f 42/42/42 39/39/39 43/43/43
f 41/41/41 40/40/40 44/44/44
f 44/44/44 40/40/40 42/42/42
f 45/45/45 41/41/41 44/44/44
f 46/46/46 42/42/42 43/43/43
f 44/44/44 42/42/42 46/46/46
f 46/46/46 43/43/43 47/47/47
f 45/45/45 44/44/44 48/48/48
f 48/48/48 44/44/44 46/46/46
f 49/49/49 45/45/45 48/48/48
f 50/50/50 46/46/46 47/47/47
f 48/48/48 46/46/46 50/50/50
f 50/50/50 47/47/47 51/51/51
f 49/49/49 48/48/48 52/52/52
f 52/52/52 48/48/48 50/50/50
f 53/53/53 49/49/49 52/52/52
f 54/54/54 50/50/50 51/51/51
f 52/52/52 50/50/50 54/54/54
f 54/54/54 51/51/51 55/55/55
f 53/53/53 52/52/52 56/56/56
f 56/56/56 52/52/52 54/54/54
f 57/57/57 53/53/53 56/56/56
f 58/58/58 54/54/54 55/55/55
f 56/56/56 54/54/54 58/58/58
f 58/58/58 55/55/55 59/59/59
f 57/57/57 56/56/56 60/60/60
f 60/60/60 56/56/56 58/58/58
f 61/61/61 57/57/57 60/60/60
f 62/62/62 58/58/58 59/59/59
f 60/60/60 58/58/58 62/62/62
f 62/62/62 59/59/59 63/63/63
f 61/61/61 60/60/60 64/64/64
f 64/64/64 60/60/60 62/62/62
f 65/65/65 61/61/61 64/64/64
f 66/66/66 62/62/62 63/63/63
f 64/64/64 62/62/62 66/66/66
f 66/66/66 63/63/63 67/67/67
f 65/65/65 64/64/64 68/68/68
f 68/68/68 64/64/64 66/66/66
f 69/69/69 65/65/65 68/68/68
f 70/70/70 66/66/66 67/67/67
f 68/68/68 66/66/66 70/70/70
f 70/70/70 67/67/67 71/71/71
f 69/69/69 68/68/68 72/72/72
f 72/72/72 68/68/68 70/70/70
f 73/73/73 69/69/69 72/72/72
f 74/74/74 70/70/70 71/71/71
f 72/72/72 70/70/70 74/74/74
f 74/74/74 71/71/71 75/75/75
f 73/73/73 72/72/72 76/76/76
f 76/76/76 72/72/72 74/74/74
f 77/77/77 73/73/73 76/76/76
f 78/78/78 74/74/74 75/75/75
f 76/76/76 74/74/74 78/78/78
f 78/78/78 75/75/75 79/79/79
f 77/77/77 76/76/76 80/80/80
f 80/80/80 76/76/76 78/78/78
f 81/81/81 77/77/77 80/80/80
f 82/82/82 78/78/78 79/79/79
f 80/80/80 78/78/78 82/82/82
f 82/82/82 79/79/79 83/83/83
f 81/81/81 80/80/80 84/84/84
f 84/84/84 80/80/80 82/82/82
f 85/85/85 81/81/81 84/84/84
f 86/86/86 82/82/82 83/83/83
f 84/84/84 82/82/82 86/86/86
f 86/86/86 83/83/83 87/87/87
f 85/85/85 84/84/84 88/88/88
f 88/88/88 84/84/84 86/86/86
f 89/89/89 85/85/85 88/88/88
f 90/90/90 86/86/86 87/87/87
f 88/88/88 86/86/86 90/90/90
f 90/90/90 87/87/87 91/91/91
f 89/89/89 88/88/88 92/92/92
f 92/92/92 88/88/88 90/90/90
f 93/93/93 89/89/89 92/92/92
f 94/94/94 90/90/90 91/91/91
f 92/92/92 90/90/90 94/94/94
f 94/94/94 91/91/91 95/95/95
f 93/93/93 92/92/92 96/96/96
f 96/96/96 92/92/92 94/94/94
f 97/97/97 93/93/93 96/96/96
f 98/98/98 94/94/94 95/95/95
f 96/96/96 94/94/94 98/98/98
f 98/98/98 95/95/95 99/99/99
f 97/97/97 96/96/96 100/100/100
f 100/100/100 96/96/96 98/98/98
f 101/101/101 97/97/97 100/100/100
f 102/102/102 98/98/98 99/99/99
f 100/100/100 98/98/98 102/102/102
f 102/102/102 99/99/99 103/103/103
f 101/101/101 100/100/100 104/104/104
f 104/104/104 100/100/100 102/102/102
f 105/105/105 101/101/101 104/104/104
f 106/106/106 102/102/102 103/103/103
f 104/104/104 102/102/102 106/106/106
f 106/106/106 103/103/103 107/107/107
f 105/105/105 104/104/104 108/108/108
f 108/108/108 104/104/104 106/106/106
f 109/109/109 105/105/105 108/108/108
f 110/110/110 106/106/106 107/107/107
f 108/108/108 106/106/106 110/110/110
f 110/110/110 107/107/107 111/111/111
f 109/109/109 108/108/108 112/112/112
f 112/112/112 108/108/108 110/110/110
f 113/113/113 109/109/109 112/112/112
f 114/114/114 110/110/110 111/111/111
f 112/112/112 110/110/110 114/114/114
f 114/114/114 111/111/111 115/115/115
f 113/113/113 112/112/112 116/116/116
f 116/116/116 112/112/112 114/114/114
f 117/117/117 113/113/113 116/116/116
f 118/118/118 114/114/114 115/115/115
f 116/116/116 114/114/114 118/118/118
f 118/118/118 115/115/115 119/119/119
f 117/117/117 116/116/116 120/120/120
f 120/120/120 116/116/116 118/118/118
f 121/121/121 117/117/117 120/120/120
f 122/122/122 118/118/118 119/119/119
f 120/120/120 118/118/118 122/122/122
f 122/122/122 119/119/119 123/123/123
f 121/121/121 120/120/120 124/124/124
f 124/124/124 120/120/120 122/122/122
f 125/125/125 121/121/121 124/124/124
f 126/126/126 122/122/122 123/123/123
f 124/124/124 122/122/122 126/126/126
f 126/126/126 123/123/123 127/127/127
f 128/128/128 126/126/126 127/127/127
f 125/125/125 124/124/124 129/129/129
f 129/129/129 124/124/124 126/126/126
f 129/129/129 126/126/126 128/128/128
f 130/130/130 125/125/125 129/129/129
f 131/131/131 129/129/129 128/128/128
f 130/130/130 129/129/129 131/131/131
f 132/132/132 130/130/130 131/131/131
