g Eff_Device_Teller_02
v 0.2756172 0.58217704 0.04886658
v 0.2756172 0.58222 -0.04879822
v 0.2756172 0.55998045 -0.0487976
v 0.2756172 0.55993825 0.048867192
v 0.15914892 0.9522547 0.275653
v 0.18393293 0.9522547 0.25663665
v 0.18393336 0.94085705 0.25663635
v 0.15914893 0.94085807 0.275653
v 0.08238183 0.9408597 0.30745098
v 0.08238183 0.95224744 0.30745095
v -2.3397536E-06 0.95225215 0.31829637
v 2.9962032E-07 0.94087154 0.31829673
v -0.0823836 0.9408575 0.3074507
v -0.0823812 0.95224553 0.30745095
v -0.15914822 0.952233 0.27565306
v -0.15914835 0.9408646 0.275653
v -0.18391405 0.94079685 0.2566507
v -0.18391466 0.95219314 0.25665018
v -0.2756172 0.58217704 -0.04886656
v -0.2756172 0.58222 0.04879824
v -0.2756172 0.55998045 0.048797626
v -0.2756172 0.55993825 -0.048867166
v 0.049243145 0.58184177 -0.27561873
v -0.04819293 0.58184224 -0.27561873
v -0.048193 0.55960196 -0.27561873
v 0.049243048 0.5596023 -0.27561873
v -0.049243167 0.58184177 0.27561873
v 0.048192907 0.58184224 0.27561873
v 0.048192978 0.55960196 0.27561873
v -0.049243074 0.5596023 0.27561873
vt 0.7440002 0.9296024
vt 0.8486655 0.9297763
vt 0.8486649 0.8399897
vt 0.7439994 0.8398198
vt 0.8217877 0.701955
vt 0.8862962 0.701955
vt 0.8862975 0.5356471
vt 0.82178724 0.53566146
vt 0.6498779 0.53568685
vt 0.6498779 0.7018476
vt 0.4780873 0.7019161
vt 0.4780873 0.53585935
vt 0.30629665 0.5356538
vt 0.30629665 0.7018188
vt 0.13438547 0.7016353
vt 0.13438547 0.5357545
vt 0.069924854 0.53477
vt 0.069923066 0.7010568
vt 0.7440002 0.9296024
vt 0.8486655 0.9297763
vt 0.8486649 0.8399897
vt 0.7439994 0.8398198
vt 0.08294384 0.9278023
vt 0.18736514 0.92782134
vt 0.18736616 0.8380317
vt 0.082944974 0.8380167
vt 0.08294384 0.9278023
vt 0.18736514 0.92782134
vt 0.18736616 0.8380317
vt 0.082944974 0.8380167
vn 1 0 0
vn 1 0 0
vn 1 0 0
vn 1 0 0
vn 0.44749564 9.76305E-07 0.89428616
vn 0.6087611 2.188631E-06 0.7933536
vn 0.608761 1.9280224E-06 0.79335374
vn 0.4474908 7.489235E-07 0.89428854
vn 0.2588277 5.683738E-06 0.9659235
vn 0.2588142 3.235677E-06 0.9659272
vn -1.9997009E-05 2.94813E-05 1
vn 1.6427655E-05 3.18471E-05 1
vn -0.25883496 3.0777603E-05 0.9659216
vn -0.25879464 3.3582903E-05 0.96593237
vn -0.4474357 5.216724E-06 0.8943161
vn -0.44752294 1.5042697E-06 0.89427245
vn -0.608761 2.2629913E-06 0.7933536
vn -0.60876095 1.9194388E-06 0.79335374
vn -1 0 0
vn -1 0 0
vn -1 0 0
vn -1 0 0
vn -0 0 -1
vn -0 0 -1
vn -0 0 -1
vn -0 0 -1
vn -0 0 1
vn -0 0 1
vn -0 0 1
vn -0 0 1
g Eff_Device_Teller_02_0
f 3/3/3 2/2/2 1/1/1
f 4/4/4 3/3/3 1/1/1
f 7/7/7 6/6/6 5/5/5
f 8/8/8 7/7/7 5/5/5
f 9/9/9 8/8/8 5/5/5
f 10/10/10 9/9/9 5/5/5
f 10/10/10 11/11/11 9/9/9
f 11/11/11 12/12/12 9/9/9
f 13/13/13 12/12/12 11/11/11
f 14/14/14 13/13/13 11/11/11
f 14/14/14 15/15/15 13/13/13
f 15/15/15 16/16/16 13/13/13
f 17/17/17 16/16/16 15/15/15
f 18/18/18 17/17/17 15/15/15
f 21/21/21 20/20/20 19/19/19
f 22/22/22 21/21/21 19/19/19
f 25/25/25 24/24/24 23/23/23
f 26/26/26 25/25/25 23/23/23
f 29/29/29 28/28/28 27/27/27
f 30/30/30 29/29/29 27/27/27
