g Eff_Cone_04
v 0.47615093 2.3937995 0.55537766
v -1.066862E-07 2.4406958 0.55537766
v -9.421839E-08 2.1729457 0.36185494
v 0.42391604 2.1311939 0.36185494
v 0.93400913 2.254911 0.55537766
v 0.8315461 2.0075417 0.36185494
v 1.3559738 2.029367 0.55537754
v 1.2072203 1.8067405 0.36185488
v 1.7258291 1.7258358 0.5553775
v 1.5365015 1.5365075 0.36185488
v 2.0293617 1.3559817 0.5553775
v 1.806736 1.2072272 0.36185488
v 2.2549071 0.9340179 0.5553774
v 2.0075386 0.83155376 0.36185485
v 2.3937976 0.47616008 0.5553775
v 2.1311922 0.4239243 0.36185488
v 2.4406958 3.8726907E-06 0.5553775
v 2.1729457 3.4791894E-06 0.36185482
v 2.1311922 0.4239243 0.36185488
v 1.886585 0.37526825 2.6062615E-08
v 1.9235461 2.9499106E-06 -1.563757E-08
v 2.1311922 0.4239243 0.36185488
v 2.0075386 0.83155376 0.36185485
v 1.7771236 0.73611236 2.6062615E-08
v 1.886585 0.37526825 2.6062615E-08
v 2.0075386 0.83155376 0.36185485
v 1.806736 1.2072272 0.36185488
v 1.5993681 1.068668 2.6062619E-08
v 1.7771236 0.73611236 2.6062615E-08
v 1.806736 1.2072272 0.36185488
v 1.5365015 1.5365075 0.36185488
v 1.3601499 1.360155 2.6062615E-08
v 1.5993681 1.068668 2.6062619E-08
v 1.5365015 1.5365075 0.36185488
v 1.2072203 1.8067405 0.36185488
v 1.0686617 1.5993718 6.77628E-08
v 1.3601499 1.360155 2.6062615E-08
v 1.2072203 1.8067405 0.36185488
v 0.8315461 2.0075417 0.36185494
v 0.73610556 1.777126 6.77628E-08
v 1.0686617 1.5993718 6.77628E-08
v 0.8315461 2.0075417 0.36185494
v 0.42391604 2.1311939 0.36185494
v 0.37526107 1.8865861 6.77628E-08
v 0.73610556 1.777126 6.77628E-08
v 0.42391604 2.1311939 0.36185494
v -9.421839E-08 2.1729457 0.36185494
v -9.072148E-08 1.9235458 -1.5637562E-08
v 0.37526107 1.8865861 6.77628E-08
vt 0.9668749 0.99859804
vt 0.99799997 0.99859804
vt 0.99799997 0.66639876
vt 0.9668749 0.66639876
vt 0.93574995 0.99859804
vt 0.93574995 0.66639876
vt 0.9046249 0.99859804
vt 0.9046249 0.66639876
vt 0.87349993 0.99859804
vt 0.87349993 0.66639876
vt 0.84237504 0.99859804
vt 0.84237504 0.66639876
vt 0.8112499 0.99859804
vt 0.8112499 0.66639876
vt 0.7801249 0.99859804
vt 0.7801249 0.66639876
vt 0.7489999 0.99859804
vt 0.7489999 0.66639876
vt 0.7801249 0.66639876
vt 0.7801249 0.0020000634
vt 0.7489999 0.0020000634
vt 0.7801249 0.66639876
vt 0.8112499 0.66639876
vt 0.8112499 0.0020000634
vt 0.7801249 0.0020000634
vt 0.8112499 0.66639876
vt 0.84237504 0.66639876
vt 0.84237504 0.0020000634
vt 0.8112499 0.0020000634
vt 0.84237504 0.66639876
vt 0.87349993 0.66639876
vt 0.87349993 0.0020000634
vt 0.84237504 0.0020000634
vt 0.87349993 0.66639876
vt 0.9046249 0.66639876
vt 0.9046249 0.0020000634
vt 0.87349993 0.0020000634
vt 0.9046249 0.66639876
vt 0.93574995 0.66639876
vt 0.93574995 0.0020000634
vt 0.9046249 0.0020000634
vt 0.93574995 0.66639876
vt 0.9668749 0.66639876
vt 0.9668749 0.0020000634
vt 0.93574995 0.0020000634
vt 0.9668749 0.66639876
vt 0.99799997 0.66639876
vt 0.99799997 0.0020000634
vt 0.9668749 0.0020000634
vn 0.15743916 0.79150707 -0.59053326
vn -5.6072315E-07 0.8070134 -0.59053314
vn -5.3144083E-07 0.7399942 -0.6726132
vn 0.14436454 0.7257756 -0.67261326
vn 0.308829 0.74558365 -0.5905334
vn 0.28318208 0.683666 -0.6726133
vn 0.44835111 0.67100793 -0.5905333
vn 0.41111743 0.6152835 -0.6726134
vn 0.57064337 0.57064563 -0.59053344
vn 0.5232538 0.52325577 -0.6726135
vn 0.6710059 0.44835365 -0.59053373
vn 0.61528164 0.41111967 -0.67261356
vn 0.7455822 0.3088318 -0.5905338
vn 0.68366474 0.2831846 -0.67261356
vn 0.79150623 0.15744172 -0.5905336
vn 0.7257749 0.14436692 -0.6726135
vn 0.80701315 1.2202526E-06 -0.5905335
vn 0.739994 1.1470466E-06 -0.67261344
vn 0.4188168 0.08330863 -0.90424126
vn 0.42702192 6.830125E-07 -0.90424126
vn 0.5535751 8.842587E-07 -0.83279926
vn 0.7257749 0.14436692 -0.6726135
vn 0.39451665 0.163415 -0.90424126
vn 0.4188168 0.08330863 -0.90424126
vn 0.5429381 0.10799812 -0.83279926
vn 0.68366474 0.2831846 -0.67261356
vn 0.35505545 0.23724148 -0.90424114
vn 0.39451665 0.163415 -0.90424126
vn 0.51143634 0.21184497 -0.8327992
vn 0.61528164 0.41111967 -0.67261356
vn 0.30194953 0.3019508 -0.90424114
vn 0.35505545 0.23724148 -0.90424114
vn 0.46028033 0.30755076 -0.83279926
vn 0.5232538 0.52325577 -0.6726135
vn 0.23723994 0.35505617 -0.9042413
vn 0.30194953 0.3019508 -0.90424114
vn 0.39143592 0.39143744 -0.8327994
vn 0.41111743 0.6152835 -0.6726134
vn 0.1634134 0.39451694 -0.9042413
vn 0.23723994 0.35505617 -0.9042413
vn 0.3075489 0.4602815 -0.83279926
vn 0.28318208 0.683666 -0.6726133
vn 0.083307244 0.41881666 -0.90424144
vn 0.1634134 0.39451694 -0.9042413
vn 0.21184297 0.51143706 -0.83279926
vn 0.14436454 0.7257756 -0.67261326
vn -2.741038E-07 0.4270217 -0.9042413
vn 0.083307244 0.41881666 -0.90424144
vn 0.10799636 0.5429384 -0.83279926
g Eff_Cone_04_0
f 3/3/3 2/2/2 1/1/1
f 4/4/4 3/3/3 1/1/1
f 4/4/4 1/1/1 5/5/5
f 6/6/6 4/4/4 5/5/5
f 6/6/6 5/5/5 7/7/7
f 8/8/8 6/6/6 7/7/7
f 8/8/8 7/7/7 9/9/9
f 10/10/10 8/8/8 9/9/9
f 10/10/10 9/9/9 11/11/11
f 12/12/12 10/10/10 11/11/11
f 12/12/12 11/11/11 13/13/13
f 14/14/14 12/12/12 13/13/13
f 14/14/14 13/13/13 15/15/15
f 16/16/16 14/14/14 15/15/15
f 16/16/16 15/15/15 17/17/17
f 18/18/18 16/16/16 17/17/17
f 20/20/20 19/19/19 18/18/18
f 21/21/21 20/20/20 18/18/18
f 24/24/24 23/23/23 22/22/22
f 25/25/25 24/24/24 22/22/22
f 28/28/28 27/27/27 26/26/26
f 29/29/29 28/28/28 26/26/26
f 32/32/32 31/31/31 30/30/30
f 33/33/33 32/32/32 30/30/30
f 36/36/36 35/35/35 34/34/34
f 37/37/37 36/36/36 34/34/34
f 40/40/40 39/39/39 38/38/38
f 41/41/41 40/40/40 38/38/38
f 44/44/44 43/43/43 42/42/42
f 45/45/45 44/44/44 42/42/42
f 48/48/48 47/47/47 46/46/46
f 49/49/49 48/48/48 46/46/46
