g Eff_Cubeside_02
v 1.3565062E-07 -1.27 2.5272357
v -1.3565062E-07 -1.27 0.012764337
v -1.2572358 -1.27 1.2700001
v 1.2572358 -1.27 1.2699999
v 1.27 1.3565062E-07 2.5272357
v 1.27 -1.3565062E-07 0.012764337
v 1.27 -1.2572358 1.2700001
v 1.27 1.2572358 1.2699999
v -1.3565062E-07 1.27 2.5272357
v 1.3565062E-07 1.27 0.012764337
v 1.2572358 1.27 1.2700001
v -1.2572358 1.27 1.2699999
v -1.27 -1.3565062E-07 2.5272357
v -1.27 1.3565062E-07 0.012764337
v -1.27 1.2572358 1.2700001
v -1.27 -1.2572358 1.2699999
vt 1 1
vt 0 0
vt 0 1
vt 1 0
vt 1 1
vt 0 0
vt 0 1
vt 1 0
vt 1 1
vt 0 0
vt 0 1
vt 1 0
vt 1 1
vt 0 0
vt 0 1
vt 1 0
vn -0 -1 0
vn -0 -1 0
vn -0 -1 0
vn -0 -1 0
vn 1 0 0
vn 1 0 0
vn 1 0 0
vn 1 0 0
vn -0 1 0
vn -0 1 0
vn -0 1 0
vn -0 1 0
vn -1 0 0
vn -1 0 0
vn -1 0 0
vn -1 0 0
g Eff_Cubeside_02_0
f 3/3/3 2/2/2 1/1/1
f 4/4/4 1/1/1 2/2/2
f 7/7/7 6/6/6 5/5/5
f 8/8/8 5/5/5 6/6/6
f 11/11/11 10/10/10 9/9/9
f 12/12/12 9/9/9 10/10/10
f 15/15/15 14/14/14 13/13/13
f 16/16/16 13/13/13 14/14/14
