g Eff_Cylinder_01
v 0.099999994 0 0
v 0.049999993 0.086602546 1
v 0.049999993 0.086602546 0
v 0.099999994 0 1
v 0.04999999 -0.086602546 0
v 0.04999999 -0.086602546 1
v -0.04999999 -0.086602546 0
v -0.04999999 -0.086602546 1
v -0.099999994 -8.742278E-09 0
v -0.099999994 -8.742278E-09 1
v -0.050000004 0.08660253 0
v -0.050000004 0.08660253 1
v 0.049999993 0.086602546 0
v 0.049999993 0.086602546 1
vt 0.0020000597 0.16799998
vt 0.99799997 0.0020000597
vt 0.0020000597 0.002
vt 0.99799997 0.16800007
vt 0.0020000597 0.33400002
vt 0.99799997 0.33400008
vt 0.002 0.49999994
vt 0.99799997 0.50000006
vt 0.002 0.66599995
vt 0.99799985 0.666
vt 0.002 0.83199996
vt 0.99799985 0.8320001
vt 0.002 0.9979999
vt 0.99799985 0.99799997
vn 1 0 0
vn 0.49999997 0.86602545 0
vn 0.49999997 0.86602545 0
vn 1 0 0
vn 0.49999997 -0.86602545 0
vn 0.49999997 -0.86602545 0
vn -0.49999997 -0.86602545 0
vn -0.49999997 -0.86602545 0
vn -1 0 0
vn -1 0 0
vn -0.5000002 0.8660253 0
vn -0.5000002 0.8660253 0
vn 0.49999997 0.86602545 0
vn 0.49999997 0.86602545 0
g Eff_Cylinder_01_0
f 3/3/3 2/2/2 1/1/1
f 2/2/2 4/4/4 1/1/1
f 1/1/1 4/4/4 5/5/5
f 4/4/4 6/6/6 5/5/5
f 5/5/5 6/6/6 7/7/7
f 6/6/6 8/8/8 7/7/7
f 7/7/7 8/8/8 9/9/9
f 8/8/8 10/10/10 9/9/9
f 9/9/9 10/10/10 11/11/11
f 10/10/10 12/12/12 11/11/11
f 11/11/11 12/12/12 13/13/13
f 12/12/12 14/14/14 13/13/13
