g Eff_EjectCylinder_01
v 0.69008046 -0.18490712 1.4671961
v 0.7144239 -6.4849854E-07 1.467196
v 0.65240693 -5.7220456E-07 1.0936972
v 0.63017637 -0.16885588 1.0936973
v 0.61870915 -0.35721248 1.4671963
v 0.55316925 -4.959106E-07 0.729822
v 0.5650006 -0.32620394 1.0936973
v 0.5051736 -0.5051744 1.467196
v 0.53432035 -0.14317127 0.729822
v 0.42777923 -3.814697E-07 0.41618788
v 0.46132088 -0.46132177 1.0936973
v 0.3572116 -0.61870956 1.467196
v 0.47905853 -0.27658507 0.7298219
v 0.41320312 -0.11071775 0.41618797
v 0.28826973 -1.9073485E-07 0.18072589
v 0.32620314 -0.5650013 1.0936974
v 0.18490615 -0.6900807 1.4671963
v 0.39114952 -0.3911502 0.72982204
v 0.37046766 -0.21388991 0.41618797
v 0.27844694 -0.07460987 0.18072586
v 0.14420784 -7.6293944E-08 0.037040845
v 0.16885506 -0.6301769 1.0936975
v -3.814697E-07 -0.71442395 1.4671961
v 0.27658448 -0.47905907 0.7298222
v 0.3024854 -0.30248588 0.41618788
v 0.24964866 -0.14413506 0.1807258
v 0.13929409 -0.037323836 0.03704085
v -3.8146972E-08 -3.8146972E-08 -0.010977996
v -2.2888183E-07 -0.65240705 1.0936977
v -0.1849068 -0.6900804 1.4671961
v 0.14317046 -0.5343208 0.7298224
v 0.21388935 -0.3704679 0.4161879
v 0.20383723 -0.20383754 0.1807258
v 0.124887615 -0.07210399 0.03704085
v -3.8146972E-08 -3.8146972E-08 -0.010977996
v -0.16885553 -0.63017666 1.0936977
v -0.3572122 -0.61870915 1.467196
v -1.9073485E-07 -0.5531695 0.7298223
v 0.110717125 -0.41320318 0.41618782
v 0.14413463 -0.24964885 0.18072584
v 0.10197037 -0.101970345 0.037040845
v -3.8146972E-08 -3.8146972E-08 -0.010977996
v -0.32620364 -0.56500095 1.0936973
v -0.5051742 -0.5051739 1.4671961
v -0.14317094 -0.53432065 0.72982204
v -2.2888183E-07 -0.42777935 0.41618803
v 0.07460949 -0.27844712 0.1807258
v 0.07210388 -0.124887675 0.03704085
v -3.8146972E-08 -3.8146972E-08 -0.010977996
v -0.4613215 -0.46132135 1.0936972
v -0.61870927 -0.35721186 1.4671959
v -0.27658483 -0.47905874 0.7298222
v -0.110717565 -0.4132031 0.4161879
v -1.14440915E-07 -0.28826964 0.18072586
v 0.037323684 -0.13929409 0.037040852
v -3.8146972E-08 -3.8146972E-08 -0.010977996
v -0.56500113 -0.3262034 1.0936975
v -0.69008064 -0.18490642 1.4671959
v -0.39115 -0.39114982 0.72982204
v -0.21388973 -0.37046775 0.41618812
v -0.07460981 -0.27844706 0.18072584
v -3.8146972E-08 -0.14420782 0.037040845
v -3.8146972E-08 -3.8146972E-08 -0.010977996
v -0.63017666 -0.16885526 1.0936974
v -0.71442395 3.8146972E-08 1.467196
v -0.65240705 1.14440915E-07 1.0936977
v -0.47905883 -0.27658466 0.72982216
v -0.5343208 -0.1431707 0.7298217
v -0.5531693 1.14440915E-07 0.7298223
v -0.30248573 -0.30248564 0.4161879
v -0.14413486 -0.24964873 0.18072577
v -0.0373238 -0.13929409 0.03704085
v -3.8146972E-08 -3.8146972E-08 -0.010977996
v -0.41320303 -0.11071741 0.41618797
v -0.42777926 3.8146972E-08 0.41618812
v -0.37046775 -0.2138896 0.41618797
v -0.20383742 -0.20383732 0.18072578
v -0.07210394 -0.124887556 0.03704085
v -3.8146972E-08 -3.8146972E-08 -0.010977996
v -0.27844703 -0.07460966 0.1807258
v -0.28826958 3.8146972E-08 0.18072589
v -0.24964881 -0.14413473 0.18072581
v -0.101970285 -0.101970285 0.037040845
v -3.8146972E-08 -3.8146972E-08 -0.010977996
v -0.12488764 -0.072103806 0.037040856
v -3.8146972E-08 -3.8146972E-08 -0.010977996
v -0.13929413 -0.037323684 0.037040852
v -3.8146972E-08 -3.8146972E-08 -0.010977996
v -0.14420782 7.6293944E-08 0.037040852
v -3.8146972E-08 -3.8146972E-08 -0.010977996
vt 0.70833325 0.9982998
vt 0.7499999 0.9982998
vt 0.7499999 0.83191663
vt 0.70833325 0.83191663
vt 0.66666657 0.9982998
vt 0.7499999 0.6655333
vt 0.66666657 0.83191663
vt 0.6249999 0.9982998
vt 0.70833325 0.6655333
vt 0.7499999 0.49915007
vt 0.6249999 0.83191663
vt 0.58333325 0.9982998
vt 0.66666657 0.6655333
vt 0.70833325 0.49915007
vt 0.7499999 0.33276677
vt 0.58333325 0.83191663
vt 0.54166657 0.9982998
vt 0.6249999 0.6655333
vt 0.66666657 0.49915007
vt 0.70833325 0.33276677
vt 0.7499999 0.16638348
vt 0.54166657 0.83191663
vt 0.4999999 0.9982998
vt 0.58333325 0.6655333
vt 0.6249999 0.49915007
vt 0.66666657 0.33276677
vt 0.70833325 0.16638348
vt 0.70833325 1.9406072E-07
vt 0.4999999 0.83191663
vt 0.45833325 0.9982998
vt 0.54166657 0.6655333
vt 0.58333325 0.49915007
vt 0.6249999 0.33276677
vt 0.66666657 0.16638348
vt 0.66666657 1.9406072E-07
vt 0.45833325 0.83191663
vt 0.4166666 0.9982998
vt 0.4999999 0.6655333
vt 0.54166657 0.49915007
vt 0.58333325 0.33276677
vt 0.6249999 0.16638348
vt 0.6249999 1.9406072E-07
vt 0.4166666 0.83191663
vt 0.37499994 0.9982998
vt 0.45833325 0.6655333
vt 0.4999999 0.49915007
vt 0.54166657 0.33276677
vt 0.58333325 0.16638348
vt 0.58333325 1.9406072E-07
vt 0.37499994 0.83191663
vt 0.33333328 0.9982998
vt 0.4166666 0.6655333
vt 0.45833325 0.49915007
vt 0.4999999 0.33276677
vt 0.54166657 0.16638348
vt 0.54166657 1.9406072E-07
vt 0.33333328 0.83191663
vt 0.29166663 0.9982998
vt 0.37499994 0.6655333
vt 0.4166666 0.49915007
vt 0.45833325 0.33276677
vt 0.4999999 0.16638348
vt 0.4999999 1.9406072E-07
vt 0.29166663 0.83191663
vt 0.24999999 0.9982998
vt 0.24999999 0.83191663
vt 0.33333328 0.6655333
vt 0.29166663 0.6655333
vt 0.24999999 0.6655333
vt 0.37499994 0.49915007
vt 0.4166666 0.33276677
vt 0.45833325 0.16638348
vt 0.45833325 1.9406072E-07
vt 0.29166663 0.49915007
vt 0.24999999 0.49915007
vt 0.33333328 0.49915007
vt 0.37499994 0.33276677
vt 0.4166666 0.16638348
vt 0.4166666 1.9406072E-07
vt 0.29166663 0.33276677
vt 0.24999999 0.33276677
vt 0.33333328 0.33276677
vt 0.37499994 0.16638348
vt 0.37499994 1.9406072E-07
vt 0.33333328 0.16638348
vt 0.33333328 1.9406072E-07
vt 0.29166663 0.16638348
vt 0.29166663 1.9406072E-07
vt 0.24999999 0.16638348
vt 0.24999999 1.9406072E-07
vn 0.9528792 -0.25532407 -0.16380116
vn 0.9864934 -1.1977095E-06 -0.16380087
vn 0.9770833 -1.2741754E-06 -0.21285728
vn 0.9437897 -0.2528885 -0.21285728
vn 0.854328 -0.4932473 -0.16380122
vn 0.94866925 -1.1157655E-06 -0.31626976
vn 0.84617865 -0.48854217 -0.21285722
vn 0.69755584 -0.69755656 -0.16380094
vn 0.9163441 -0.24553421 -0.31626955
vn 0.89835125 -4.96269E-07 -0.43927783
vn 0.6909018 -0.69090265 -0.21285713
vn 0.49324626 -0.8543286 -0.16380069
vn 0.82157147 -0.47433513 -0.31626955
vn 0.8677405 -0.23251079 -0.4392779
vn 0.7933768 -1.01783705E-07 -0.60873085
vn 0.48854125 -0.8461793 -0.21285708
vn 0.25532264 -0.9528797 -0.16380061
vn 0.6708101 -0.67081094 -0.31626973
vn 0.77799463 -0.44917613 -0.43927792
vn 0.7663429 -0.20534155 -0.60873103
vn 0.5385967 0 -0.8425637
vn 0.25288713 -0.94379026 -0.21285708
vn -7.12807E-07 -0.98649347 -0.1638006
vn 0.47433412 -0.82157207 -0.31626976
vn 0.6352296 -0.63523084 -0.439278
vn 0.6870841 -0.39668873 -0.6087311
vn 0.5202446 -0.13939957 -0.8425636
vn -1.0385491E-07 0 -1
vn -5.5534815E-07 -0.9770833 -0.21285702
vn -0.2553236 -0.9528795 -0.16380055
vn 0.24553296 -0.9163444 -0.31626973
vn 0.4491751 -0.7779952 -0.43927798
vn 0.5610015 -0.5610026 -0.60873103
vn 0.4664384 -0.26929852 -0.8425637
vn -1.0385491E-07 0 -1
vn -0.25288808 -0.9437901 -0.21285693
vn -0.49324664 -0.8543285 -0.1638006
vn -3.2463007E-07 -0.9486694 -0.31626967
vn 0.23250979 -0.86774075 -0.439278
vn 0.39668798 -0.68708456 -0.6087309
vn 0.3808452 -0.38084573 -0.8425637
vn -1.0385491E-07 0 -1
vn -0.48854154 -0.84617907 -0.2128571
vn -0.69755644 -0.69755596 -0.16380061
vn -0.24553385 -0.9163441 -0.31626973
vn -4.1676967E-07 -0.8983513 -0.4392778
vn 0.20534064 -0.76634306 -0.6087311
vn 0.2692981 -0.4664387 -0.8425636
vn -1.0385491E-07 0 -1
vn -0.69090253 -0.690902 -0.21285714
vn -0.8543286 -0.49324638 -0.1638007
vn -0.47433463 -0.8215717 -0.31626976
vn -0.2325107 -0.8677405 -0.43927804
vn -4.0713473E-07 -0.79337674 -0.608731
vn 0.13939898 -0.52024454 -0.8425637
vn -1.0385491E-07 0 -1
vn -0.84617925 -0.4885413 -0.21285698
vn -0.9528795 -0.2553232 -0.16380093
vn -0.67081064 -0.6708102 -0.31626993
vn -0.44917586 -0.77799493 -0.43927792
vn -0.20534138 -0.76634294 -0.608731
vn -1.09191404E-07 -0.53859663 -0.8425638
vn -1.0385491E-07 0 -1
vn -0.9437901 -0.2528876 -0.2128571
vn -0.9864934 1.8426309E-07 -0.1638009
vn -0.9770833 1.6588321E-07 -0.21285705
vn -0.8215719 -0.47433445 -0.31626976
vn -0.9163442 -0.24553315 -0.3162699
vn -0.9486694 1.00996004E-07 -0.3162696
vn -0.6352303 -0.6352301 -0.43927804
vn -0.3966887 -0.6870841 -0.60873115
vn -0.13939953 -0.52024466 -0.8425635
vn -1.0385491E-07 0 -1
vn -0.8677407 -0.2325099 -0.43927807
vn -0.89835125 0 -0.43927786
vn -0.77799505 -0.44917536 -0.43927798
vn -0.5610022 -0.56100166 -0.60873115
vn -0.26929876 -0.4664381 -0.8425638
vn -1.0385491E-07 0 -1
vn -0.7663431 -0.20534073 -0.608731
vn -0.7933769 0 -0.6087307
vn -0.68708444 -0.39668816 -0.608731
vn -0.38084555 -0.38084513 -0.8425637
vn -1.0385491E-07 0 -1
vn -0.4664384 -0.2692985 -0.8425637
vn -1.0385491E-07 0 -1
vn -0.5202448 -0.1393991 -0.84256345
vn -1.0385491E-07 0 -1
vn -0.5385968 0 -0.8425637
vn -1.0385491E-07 0 -1
g Eff_EjectCylinder_01_0
f 3/3/3 2/2/2 1/1/1
f 4/4/4 3/3/3 1/1/1
f 4/4/4 1/1/1 5/5/5
f 6/6/6 3/3/3 4/4/4
f 7/7/7 4/4/4 5/5/5
f 7/7/7 5/5/5 8/8/8
f 9/9/9 6/6/6 4/4/4
f 9/9/9 4/4/4 7/7/7
f 10/10/10 6/6/6 9/9/9
f 11/11/11 7/7/7 8/8/8
f 11/11/11 8/8/8 12/12/12
f 13/13/13 9/9/9 7/7/7
f 13/13/13 7/7/7 11/11/11
f 14/14/14 10/10/10 9/9/9
f 14/14/14 9/9/9 13/13/13
f 15/15/15 10/10/10 14/14/14
f 16/16/16 11/11/11 12/12/12
f 16/16/16 12/12/12 17/17/17
f 18/18/18 13/13/13 11/11/11
f 18/18/18 11/11/11 16/16/16
f 19/19/19 14/14/14 13/13/13
f 19/19/19 13/13/13 18/18/18
f 20/20/20 15/15/15 14/14/14
f 20/20/20 14/14/14 19/19/19
f 21/21/21 15/15/15 20/20/20
f 22/22/22 16/16/16 17/17/17
f 22/22/22 17/17/17 23/23/23
f 24/24/24 18/18/18 16/16/16
f 24/24/24 16/16/16 22/22/22
f 25/25/25 19/19/19 18/18/18
f 25/25/25 18/18/18 24/24/24
f 26/26/26 20/20/20 19/19/19
f 26/26/26 19/19/19 25/25/25
f 27/27/27 21/21/21 20/20/20
f 27/27/27 20/20/20 26/26/26
f 21/21/21 27/27/27 28/28/28
f 29/29/29 22/22/22 23/23/23
f 29/29/29 23/23/23 30/30/30
f 31/31/31 24/24/24 22/22/22
f 31/31/31 22/22/22 29/29/29
f 32/32/32 25/25/25 24/24/24
f 32/32/32 24/24/24 31/31/31
f 33/33/33 26/26/26 25/25/25
f 33/33/33 25/25/25 32/32/32
f 34/34/34 27/27/27 26/26/26
f 34/34/34 26/26/26 33/33/33
f 27/27/27 34/34/34 35/35/35
f 36/36/36 29/29/29 30/30/30
f 36/36/36 30/30/30 37/37/37
f 38/38/38 31/31/31 29/29/29
f 38/38/38 29/29/29 36/36/36
f 39/39/39 32/32/32 31/31/31
f 39/39/39 31/31/31 38/38/38
f 40/40/40 33/33/33 32/32/32
f 40/40/40 32/32/32 39/39/39
f 41/41/41 34/34/34 33/33/33
f 41/41/41 33/33/33 40/40/40
f 34/34/34 41/41/41 42/42/42
f 43/43/43 36/36/36 37/37/37
f 43/43/43 37/37/37 44/44/44
f 45/45/45 38/38/38 36/36/36
f 45/45/45 36/36/36 43/43/43
f 46/46/46 39/39/39 38/38/38
f 46/46/46 38/38/38 45/45/45
f 47/47/47 40/40/40 39/39/39
f 47/47/47 39/39/39 46/46/46
f 48/48/48 41/41/41 40/40/40
f 48/48/48 40/40/40 47/47/47
f 41/41/41 48/48/48 49/49/49
f 50/50/50 43/43/43 44/44/44
f 50/50/50 44/44/44 51/51/51
f 52/52/52 45/45/45 43/43/43
f 52/52/52 43/43/43 50/50/50
f 53/53/53 46/46/46 45/45/45
f 53/53/53 45/45/45 52/52/52
f 54/54/54 47/47/47 46/46/46
f 54/54/54 46/46/46 53/53/53
f 55/55/55 48/48/48 47/47/47
f 55/55/55 47/47/47 54/54/54
f 48/48/48 55/55/55 56/56/56
f 57/57/57 50/50/50 51/51/51
f 57/57/57 51/51/51 58/58/58
f 59/59/59 52/52/52 50/50/50
f 59/59/59 50/50/50 57/57/57
f 60/60/60 53/53/53 52/52/52
f 60/60/60 52/52/52 59/59/59
f 61/61/61 54/54/54 53/53/53
f 61/61/61 53/53/53 60/60/60
f 62/62/62 55/55/55 54/54/54
f 62/62/62 54/54/54 61/61/61
f 55/55/55 62/62/62 63/63/63
f 64/64/64 57/57/57 58/58/58
f 64/64/64 58/58/58 65/65/65
f 66/66/66 64/64/64 65/65/65
f 67/67/67 59/59/59 57/57/57
f 67/67/67 57/57/57 64/64/64
f 68/68/68 64/64/64 66/66/66
f 68/68/68 67/67/67 64/64/64
f 69/69/69 68/68/68 66/66/66
f 70/70/70 60/60/60 59/59/59
f 70/70/70 59/59/59 67/67/67
f 71/71/71 61/61/61 60/60/60
f 71/71/71 60/60/60 70/70/70
f 72/72/72 62/62/62 61/61/61
f 72/72/72 61/61/61 71/71/71
f 62/62/62 72/72/72 73/73/73
f 74/74/74 68/68/68 69/69/69
f 75/75/75 74/74/74 69/69/69
f 76/76/76 67/67/67 68/68/68
f 76/76/76 70/70/70 67/67/67
f 74/74/74 76/76/76 68/68/68
f 77/77/77 71/71/71 70/70/70
f 77/77/77 70/70/70 76/76/76
f 78/78/78 72/72/72 71/71/71
f 78/78/78 71/71/71 77/77/77
f 72/72/72 78/78/78 79/79/79
f 80/80/80 74/74/74 75/75/75
f 81/81/81 80/80/80 75/75/75
f 82/82/82 76/76/76 74/74/74
f 82/82/82 77/77/77 76/76/76
f 80/80/80 82/82/82 74/74/74
f 83/83/83 78/78/78 77/77/77
f 83/83/83 77/77/77 82/82/82
f 78/78/78 83/83/83 84/84/84
f 85/85/85 83/83/83 82/82/82
f 85/85/85 82/82/82 80/80/80
f 83/83/83 85/85/85 86/86/86
f 87/87/87 80/80/80 81/81/81
f 87/87/87 85/85/85 80/80/80
f 85/85/85 87/87/87 88/88/88
f 89/89/89 87/87/87 81/81/81
f 87/87/87 89/89/89 90/90/90
