g Eff_PlaneXie_01_a
v -0.002402518 0.7693425 0
v -0.0029577652 0.8202195 0
v 0.09037007 0.8581574 0
v 0.09096441 0.8049092 0
v 0.005371232 0.05706367 0
v -0.002402518 0.7693425 0
v 0.09096441 0.8049092 0
v 0.09928541 0.05943479 0
v 0.005926479 0.0061865407 0
v 0.09987976 0.0061865407 0
v 1.4152256 0.0061865407 0
v 1.3981012 1.3028446 0
v 0.09037007 0.8581574 0
v 1.3969594 1.3892883 0
v 1.4902872 1.4272262 0
v 1.491468 1.3384113 0
v 1.4140841 0.092630535 0
v 1.5091789 0.0061865407 0
v 1.5079981 0.09500166 0
vt 0 0.9375
vt 0 1
vt 0.0625 1
vt 0.0625 0.9375
vt 0 0.0625
vt 0 0.9375
vt 0.0625 0.9375
vt 0.0625 0.0625
vt 0 0
vt 0.0625 0
vt 0.9375 0
vt 0.9375 0.9375
vt 0.0625 1
vt 0.9375 1
vt 1 1
vt 1 0.9375
vt 0.9375 0.0625
vt 1 0
vt 1 0.0625
vn 0.0292508 0.99957174 0.00089230353
vn 0.029250655 0.99957174 0.0008365345
vn 0.03577567 0.9993594 0.0009558361
vn 0.035775796 0.9993593 0.0010195585
vn -0 0 1
vn -0 0 1
vn -0 0 1
vn -0 0 1
vn -0 0 1
vn -0 0 1
vn -0 0 1
vn -0 0 1
vn -0 0 1
vn -0 0 1
vn -0 0 1
vn -0 0 1
vn -0 0 1
vn -0 0 1
vn -0 0 1
g Eff_PlaneXie_01_a_0
f 3/3/3 2/2/2 1/1/1
f 4/4/4 3/3/3 1/1/1
f 7/7/7 6/6/6 5/5/5
f 8/8/8 7/7/7 5/5/5
f 8/8/8 5/5/5 9/9/9
f 10/10/10 8/8/8 9/9/9
f 8/8/8 10/10/10 11/11/11
f 7/7/7 8/8/8 12/12/12
f 13/13/13 7/7/7 12/12/12
f 14/14/14 13/13/13 12/12/12
f 14/14/14 12/12/12 15/15/15
f 12/12/12 16/16/16 15/15/15
f 17/17/17 8/8/8 11/11/11
f 8/8/8 17/17/17 12/12/12
f 12/12/12 17/17/17 16/16/16
f 17/17/17 11/11/11 18/18/18
f 17/17/17 19/19/19 16/16/16
f 19/19/19 17/17/17 18/18/18
