g Eff_Smoke_Ground_Zy_001_R
v 1.8733221 0.2572037 -1.2017664
v 1.3346204 0.007016029 -0.6613454
v 1.5000012 0.007015953 -0.69583184
v 1.6619934 0.24930331 -1.1806223
v 2.0278769 0.53714937 -1.5726053
v 1.1632445 0.007015953 -0.61546
v 1.8042096 0.5203687 -1.5287298
v 2.107243 0.8570866 -1.8209252
v 1.4369284 0.23238178 -1.1305126
v 0.9909157 0.007015953 -0.5576601
v 1.8772452 0.82954437 -1.7335788
v 2.1364832 1.2272493 -1.7855432
v 1.2059078 0.20835838 -1.0465716
v 0.82267433 0.007015953 -0.48929694
v 1.5626867 0.49178594 -1.4647412
v 0.97671217 0.17915303 -0.92760974
v 0.66356117 0.007015953 -0.41361412
v 1.3122919 0.4531852 -1.3720434
v 1.6273111 0.79038554 -1.645744
v 1.9041637 1.1861621 -1.6724893
v 0.75712234 0.14668491 -0.77786094
v 0.51861715 0.007015953 -0.33542296
v 1.0620092 0.406351 -1.2441857
v 1.3670766 0.7402164 -1.5468347
v 0.5549195 0.11287384 -0.6080626
v 0.39288315 0.007015953 -0.2603791
v 0.82082206 0.35306758 -1.0791837
v 0.37788445 0.07963928 -0.43505058
v 0.29139984 0.007016029 -0.19382446
v 1.906097 1.3928585 -1.4793081
v 2.1385715 1.44256 -1.5808231
v 1.6512097 1.1333379 -1.5762497
v 1.1061776 0.6796425 -1.4265096
v 0.59771454 0.29511923 -0.8819213
v 0.23379776 0.048900794 -0.279059
v 0.21920837 0.007016029 -0.1392646
v 1.9080304 1.5995545 -1.2557187
v 2.14066 1.6578708 -1.3377118
v 1.6547894 1.525799 -1.1949651
v 1.6529993 1.3295683 -1.3983487
v 1.391048 1.4357703 -1.1469796
v 1.3893048 1.251971 -1.328208
v 1.126918 1.3286326 -1.1015164
v 1.3875616 1.0681715 -1.4864023
v 1.125041 1.1593459 -1.2575707
v 0.87251025 1.2035524 -1.0460819
v 1.1231642 0.9900589 -1.3913571
v 0.8702352 1.0509741 -1.1735789
v 0.63793695 1.059695 -0.96652395
v 0.85424924 0.6092694 -1.2762525
v 0.6349147 0.9261366 -1.0629305
v 0.4333092 0.8962257 -0.8494503
v 0.86796004 0.89839584 -1.2788609
v 0.6209285 0.5297035 -1.0917292
v 0.4291069 0.7841139 -0.9146023
v 0.26873833 0.71231 -0.6870542
v 0.63189256 0.7925786 -1.1375008
v 0.40167022 0.23429035 -0.66571766
v 0.2628389 0.62418604 -0.72448295
v 0.1543357 0.50711316 -0.48409033
v 0.41585118 0.4415507 -0.8756121
v 0.4249046 0.67200196 -0.9595498
v 0.24167313 0.17236507 -0.45182028
v 0.14613792 0.44563407 -0.5013485
v 0.10021293 0.27980116 -0.26507026
v 0.08903144 0.24773857 -0.27214682
v 0.24865234 0.34541634 -0.6400547
v 0.25693938 0.5360622 -0.74513996
v 0.13794006 0.38415495 -0.50695825
v 0.077849805 0.21567604 -0.27346367
v 0.066435546 0.1316275 -0.2073835
v 0.1289685 0.24190669 -0.40741348
v 0.06575508 0.052363127 -0.12855339
v 0.12670669 0.11112789 -0.26557335
v 0.07559357 0.0025902176 -0.08125862
v 0.1304406 0.022577934 -0.1583036
v 0.18134941 0.007015953 -0.09660423
vt 0.9995 0.20499627
vt 0.8996001 0.0067641586
vt 0.9995 0.0067641586
vt 0.8996001 0.20499627
vt 0.9995 0.40322834
vt 0.7996999 0.0067641586
vt 0.8996001 0.40322834
vt 0.9995 0.6014604
vt 0.7996999 0.20499627
vt 0.6998 0.0067641586
vt 0.8996001 0.6014604
vt 0.9995 0.79969245
vt 0.6998 0.20499627
vt 0.59989995 0.0067641586
vt 0.7996999 0.40322834
vt 0.59989995 0.20499627
vt 0.4999999 0.0067641586
vt 0.6998 0.40322834
vt 0.7996999 0.6014604
vt 0.8996001 0.79969245
vt 0.4999999 0.20499627
vt 0.4000999 0.0067641586
vt 0.59989995 0.40322834
vt 0.6998 0.6014604
vt 0.4000999 0.20499627
vt 0.30019996 0.0067641586
vt 0.4999999 0.40322834
vt 0.30019996 0.20499627
vt 0.20029992 0.0067641586
vt 0.8996001 0.89880854
vt 0.9995 0.89880854
vt 0.7996999 0.79969245
vt 0.59989995 0.6014604
vt 0.4000999 0.40322834
vt 0.20029992 0.20499627
vt 0.10039998 0.0067641586
vt 0.8996001 0.9979246
vt 0.9995 0.9979246
vt 0.7996999 0.9979246
vt 0.7996999 0.89880854
vt 0.6998 0.9979246
vt 0.6998 0.89880854
vt 0.59989995 0.9979246
vt 0.6998 0.79969245
vt 0.59989995 0.89880854
vt 0.4999999 0.9979246
vt 0.59989995 0.79969245
vt 0.4999999 0.89880854
vt 0.4000999 0.9979246
vt 0.4999999 0.6014604
vt 0.4000999 0.89880854
vt 0.30019996 0.9979246
vt 0.4999999 0.79969245
vt 0.4000999 0.6014604
vt 0.30019996 0.89880854
vt 0.20029992 0.9979246
vt 0.4000999 0.79969245
vt 0.30019996 0.40322834
vt 0.20029992 0.89880854
vt 0.10039998 0.9979246
vt 0.30019996 0.6014604
vt 0.30019996 0.79969245
vt 0.20029992 0.40322834
vt 0.10039998 0.89880854
vt 0.0005 0.9979246
vt 0.0005 0.89880854
vt 0.20029992 0.6014604
vt 0.20029992 0.79969245
vt 0.10039998 0.79969245
vt 0.0005 0.79969245
vt 0.0005 0.6014604
vt 0.10039998 0.6014604
vt 0.0005 0.40322834
vt 0.10039998 0.40322834
vt 0.0005 0.20499627
vt 0.10039998 0.20499627
vt 0.0005 0.0067641586
vn 0.0018159106 -0.7690381 -0.6392005
vn 0.032919914 -0.99888426 -0.033860482
vn 0.030386236 -0.99040145 -0.13483894
vn 0.020704646 -0.8460672 -0.53267413
vn -0.08694702 -0.41620535 -0.9051041
vn 0.035650704 -0.9941062 0.10238152
vn -0.06418581 -0.42486635 -0.9029777
vn -0.2150944 -0.1342821 -0.9673172
vn 0.017818639 -0.88499236 -0.4652644
vn 0.020845553 -0.96975255 0.24319817
vn -0.1828412 -0.13130209 -0.9743351
vn -0.37497124 0.13254477 -0.91751206
vn -0.0031742647 -0.9454019 -0.3258912
vn 0.004844888 -0.92779607 0.37305638
vn -0.05996668 -0.37891442 -0.9234868
vn -0.04960226 -0.99314755 -0.10581816
vn -0.016280564 -0.87656033 0.48101664
vn -0.08332457 -0.34520176 -0.93482226
vn -0.1646732 -0.06314537 -0.9843248
vn -0.33618042 0.14911227 -0.9299184
vn -0.117109686 -0.97360736 0.19589257
vn -0.03135202 -0.8318509 0.5541129
vn -0.1418741 -0.3326551 -0.9323155
vn -0.17486672 -0.0057021757 -0.9845756
vn -0.18585835 -0.86564803 0.46487653
vn -0.042129345 -0.80173427 0.5961941
vn -0.2606674 -0.35101828 -0.8993545
vn -0.2516956 -0.7375974 0.62657756
vn -0.037301358 -0.80011415 0.5986868
vn -0.4698829 0.33310193 -0.8174675
vn -0.5199381 0.31295636 -0.7948098
vn -0.29762977 0.20631152 -0.93212235
vn -0.20754935 0.042035315 -0.97732097
vn -0.49398828 -0.41327763 -0.7649687
vn -0.31454608 -0.6477082 0.6939271
vn -0.0012733674 -0.8308723 0.5564616
vn -0.55470043 0.3728314 -0.7438442
vn -0.61895585 0.35504523 -0.7005972
vn -0.472124 0.41637507 -0.7770012
vn -0.4033136 0.3783019 -0.8332021
vn -0.42175844 0.43499014 -0.7955522
vn -0.37200397 0.40363187 -0.8358794
vn -0.41204524 0.4430261 -0.79620767
vn -0.28535005 0.25319788 -0.9243734
vn -0.37284526 0.4190002 -0.82790405
vn -0.42972457 0.44358665 -0.78649074
vn -0.2991805 0.28657645 -0.9101456
vn -0.40514797 0.42606783 -0.8089013
vn -0.48966768 0.43730435 -0.7543146
vn -0.27387127 0.07859825 -0.9585494
vn -0.4774405 0.43221653 -0.76500946
vn -0.6012444 0.43088 -0.6729394
vn -0.33903947 0.30996007 -0.8882438
vn -0.39405492 0.10314966 -0.91328025
vn -0.60366684 0.43189746 -0.6701126
vn -0.77145493 0.40763113 -0.48856333
vn -0.4225997 0.32543877 -0.8458718
vn -0.82159054 -0.47388166 -0.31689918
vn -0.7869923 0.40923604 -0.4617022
vn -0.9354521 0.32105643 -0.14782454
vn -0.60833466 0.10942878 -0.7861006
vn -0.56258357 0.34033278 -0.75344104
vn -0.8907759 -0.39077023 0.23198465
vn -0.9412924 0.3208425 -0.10501703
vn -0.9681129 0.23613438 0.083654694
vn -0.9641545 0.25130364 0.0851619
vn -0.89770955 0.07938588 -0.43337703
vn -0.7731915 0.32936558 -0.54193485
vn -0.95124346 0.2606311 -0.16494626
vn -0.97891974 0.18673708 0.08273651
vn -0.962184 -0.068839826 0.26355818
vn -0.9985397 0.017610932 0.0510717
vn -0.8097702 -0.34342936 0.47574
vn -0.8371108 -0.3009248 0.45682564
vn -0.19471925 -0.77763677 0.59780055
vn -0.38049722 -0.61501014 0.6906405
vn 0.01692912 -0.8853929 0.46453503
g Eff_Smoke_Ground_Zy_001_R_0
f 3/3/3 2/2/2 1/1/1
f 2/2/2 4/4/4 1/1/1
f 1/1/1 4/4/4 5/5/5
f 2/2/2 6/6/6 4/4/4
f 4/4/4 7/7/7 5/5/5
f 5/5/5 7/7/7 8/8/8
f 6/6/6 9/9/9 4/4/4
f 4/4/4 9/9/9 7/7/7
f 6/6/6 10/10/10 9/9/9
f 7/7/7 11/11/11 8/8/8
f 8/8/8 11/11/11 12/12/12
f 10/10/10 13/13/13 9/9/9
f 10/10/10 14/14/14 13/13/13
f 9/9/9 15/15/15 7/7/7
f 7/7/7 15/15/15 11/11/11
f 9/9/9 13/13/13 15/15/15
f 14/14/14 16/16/16 13/13/13
f 14/14/14 17/17/17 16/16/16
f 13/13/13 18/18/18 15/15/15
f 13/13/13 16/16/16 18/18/18
f 15/15/15 19/19/19 11/11/11
f 15/15/15 18/18/18 19/19/19
f 11/11/11 20/20/20 12/12/12
f 11/11/11 19/19/19 20/20/20
f 17/17/17 21/21/21 16/16/16
f 17/17/17 22/22/22 21/21/21
f 16/16/16 23/23/23 18/18/18
f 16/16/16 21/21/21 23/23/23
f 18/18/18 24/24/24 19/19/19
f 18/18/18 23/23/23 24/24/24
f 22/22/22 25/25/25 21/21/21
f 22/22/22 26/26/26 25/25/25
f 21/21/21 27/27/27 23/23/23
f 21/21/21 25/25/25 27/27/27
f 26/26/26 28/28/28 25/25/25
f 26/26/26 29/29/29 28/28/28
f 12/12/12 20/20/20 30/30/30
f 31/31/31 12/12/12 30/30/30
f 19/19/19 32/32/32 20/20/20
f 19/19/19 24/24/24 32/32/32
f 23/23/23 33/33/33 24/24/24
f 23/23/23 27/27/27 33/33/33
f 25/25/25 34/34/34 27/27/27
f 25/25/25 28/28/28 34/34/34
f 29/29/29 35/35/35 28/28/28
f 29/29/29 36/36/36 35/35/35
f 31/31/31 30/30/30 37/37/37
f 38/38/38 31/31/31 37/37/37
f 37/37/37 30/30/30 39/39/39
f 30/30/30 40/40/40 39/39/39
f 30/30/30 20/20/20 40/40/40
f 39/39/39 40/40/40 41/41/41
f 20/20/20 32/32/32 40/40/40
f 40/40/40 42/42/42 41/41/41
f 40/40/40 32/32/32 42/42/42
f 41/41/41 42/42/42 43/43/43
f 32/32/32 44/44/44 42/42/42
f 24/24/24 44/44/44 32/32/32
f 24/24/24 33/33/33 44/44/44
f 42/42/42 45/45/45 43/43/43
f 42/42/42 44/44/44 45/45/45
f 43/43/43 45/45/45 46/46/46
f 33/33/33 47/47/47 44/44/44
f 44/44/44 47/47/47 45/45/45
f 45/45/45 48/48/48 46/46/46
f 45/45/45 47/47/47 48/48/48
f 46/46/46 48/48/48 49/49/49
f 33/33/33 50/50/50 47/47/47
f 27/27/27 50/50/50 33/33/33
f 27/27/27 34/34/34 50/50/50
f 48/48/48 51/51/51 49/49/49
f 49/49/49 51/51/51 52/52/52
f 47/47/47 53/53/53 48/48/48
f 50/50/50 53/53/53 47/47/47
f 48/48/48 53/53/53 51/51/51
f 34/34/34 54/54/54 50/50/50
f 50/50/50 54/54/54 53/53/53
f 51/51/51 55/55/55 52/52/52
f 52/52/52 55/55/55 56/56/56
f 53/53/53 57/57/57 51/51/51
f 54/54/54 57/57/57 53/53/53
f 51/51/51 57/57/57 55/55/55
f 34/34/34 58/58/58 54/54/54
f 28/28/28 58/58/58 34/34/34
f 28/28/28 35/35/35 58/58/58
f 55/55/55 59/59/59 56/56/56
f 56/56/56 59/59/59 60/60/60
f 54/54/54 61/61/61 57/57/57
f 58/58/58 61/61/61 54/54/54
f 57/57/57 62/62/62 55/55/55
f 55/55/55 62/62/62 59/59/59
f 61/61/61 62/62/62 57/57/57
f 35/35/35 63/63/63 58/58/58
f 58/58/58 63/63/63 61/61/61
f 59/59/59 64/64/64 60/60/60
f 60/60/60 64/64/64 65/65/65
f 64/64/64 66/66/66 65/65/65
f 61/61/61 67/67/67 62/62/62
f 63/63/63 67/67/67 61/61/61
f 62/62/62 68/68/68 59/59/59
f 59/59/59 68/68/68 64/64/64
f 67/67/67 68/68/68 62/62/62
f 64/64/64 69/69/69 66/66/66
f 68/68/68 69/69/69 64/64/64
f 69/69/69 70/70/70 66/66/66
f 71/71/71 70/70/70 69/69/69
f 72/72/72 69/69/69 68/68/68
f 72/72/72 71/71/71 69/69/69
f 67/67/67 72/72/72 68/68/68
f 73/73/73 71/71/71 72/72/72
f 74/74/74 72/72/72 67/67/67
f 74/74/74 73/73/73 72/72/72
f 63/63/63 74/74/74 67/67/67
f 75/75/75 73/73/73 74/74/74
f 76/76/76 74/74/74 63/63/63
f 76/76/76 75/75/75 74/74/74
f 35/35/35 76/76/76 63/63/63
f 77/77/77 75/75/75 76/76/76
f 36/36/36 76/76/76 35/35/35
f 36/36/36 77/77/77 76/76/76
