g Eff_Cylinder_01
v 1.7528044 -0.4696641 3.7266784
v 1.8146367 -1.6471863E-06 3.726678
v 1.6571136 -1.4533996E-06 2.7779908
v 1.600648 -0.42889392 2.777991
v 1.5715213 -0.9073197 3.7266786
v 1.4050499 -1.259613E-06 1.8537478
v 1.4351015 -0.828558 2.7779913
v 1.283141 -1.2831429 3.726678
v 1.3571737 -0.36365503 1.8537478
v 1.0865593 -9.689331E-07 1.0571172
v 1.171755 -1.1717573 2.777991
v 0.90731746 -1.5715222 3.726678
v 1.2168087 -0.7025261 1.8537477
v 1.0495359 -0.2812231 1.0571175
v 0.7322051 -4.8446657E-07 0.45904377
v 0.828556 -1.4351033 2.7779915
v 0.46966162 -1.752805 3.7266786
v 0.9935198 -0.9935215 1.8537481
v 0.9409879 -0.5432804 1.0571175
v 0.70725524 -0.18950906 0.45904368
v 0.36628792 -1.9378662E-07 0.09408374
v 0.42889184 -1.6006494 2.7779918
v -9.689331E-07 -1.814637 3.7266784
v 0.70252454 -1.21681 1.8537484
v 0.768313 -0.7683141 1.0571172
v 0.6341076 -0.36610302 0.45904353
v 0.35380697 -0.09480254 0.094083756
v -9.689331E-08 -9.689331E-08 -0.027884107
v -5.8135987E-07 -1.6571139 2.777992
v -0.4696633 -1.7528043 3.7266784
v 0.363653 -1.3571748 1.8537488
v 0.54327893 -0.9409885 1.0571173
v 0.51774657 -0.51774734 0.45904353
v 0.31721455 -0.18314415 0.094083756
v -9.689331E-08 -9.689331E-08 -0.027884107
v -0.42889306 -1.6006488 2.777992
v -0.90731895 -1.5715213 3.726678
v -4.8446657E-07 -1.4050505 1.8537487
v 0.28122148 -1.0495361 1.0571171
v 0.36610198 -0.63410807 0.45904362
v 0.25900474 -0.25900468 0.09408374
v -9.689331E-08 -9.689331E-08 -0.027884107
v -0.82855725 -1.4351025 2.7779913
v -1.2831426 -1.2831419 3.7266784
v -0.3636542 -1.3571745 1.8537481
v -5.8135987E-07 -1.0865595 1.0571176
v 0.1895081 -0.7072557 0.45904353
v 0.18314385 -0.3172147 0.094083756
v -9.689331E-08 -9.689331E-08 -0.027884107
v -1.1717566 -1.1717563 2.7779908
v -1.5715215 -0.9073182 3.7266774
v -0.7025255 -1.2168093 1.8537484
v -0.2812226 -1.0495359 1.0571173
v -2.9067994E-07 -0.7322049 0.45904368
v 0.094802156 -0.35380697 0.09408376
v -9.689331E-08 -9.689331E-08 -0.027884107
v -1.4351029 -0.82855666 2.7779918
v -1.7528048 -0.4696623 3.7266774
v -0.99352103 -0.99352056 1.8537481
v -0.5432799 -0.9409881 1.0571178
v -0.18950893 -0.70725554 0.45904362
v -9.689331E-08 -0.36628786 0.09408374
v -9.689331E-08 -9.689331E-08 -0.027884107
v -1.6006486 -0.42889237 2.7779915
v -1.814637 9.689331E-08 3.726678
v -1.6571139 2.9067994E-07 2.7779922
v -1.2168094 -0.702525 1.8537482
v -1.3571748 -0.36365357 1.8537471
v -1.40505 2.9067994E-07 1.8537487
v -0.76831377 -0.7683135 1.0571173
v -0.36610255 -0.6341078 0.45904344
v -0.09480245 -0.35380697 0.094083756
v -9.689331E-08 -9.689331E-08 -0.027884107
v -1.0495358 -0.28122222 1.0571175
v -1.0865593 9.689331E-08 1.0571178
v -0.9409881 -0.5432796 1.0571175
v -0.51774704 -0.5177468 0.45904347
v -0.183144 -0.3172144 0.094083756
v -9.689331E-08 -9.689331E-08 -0.027884107
v -0.7072555 -0.18950854 0.45904353
v -0.7322048 9.689331E-08 0.45904377
v -0.634108 -0.36610222 0.4590436
v -0.25900453 -0.25900453 0.09408374
v -9.689331E-08 -9.689331E-08 -0.027884107
v -0.3172146 -0.18314366 0.09408378
v -9.689331E-08 -9.689331E-08 -0.027884107
v -0.3538071 -0.094802156 0.09408376
v -9.689331E-08 -9.689331E-08 -0.027884107
v -0.36628786 1.9378662E-07 0.09408376
v -9.689331E-08 -9.689331E-08 -0.027884107
vt 1.0739315 0.89347047
vt 1.1535044 0.87212366
vt 1.0962021 0.7134177
vt 1.0166286 0.73476464
vt 0.9943583 0.9148173
vt 1.0388993 0.5547122
vt 0.93705636 0.75611156
vt 0.9147862 0.9361639
vt 0.95932674 0.57605904
vt 0.98159695 0.3960063
vt 0.857483 0.7774585
vt 0.83521307 0.95751125
vt 0.8797538 0.59740585
vt 0.9020241 0.41735348
vt 0.9242944 0.23730013
vt 0.77790946 0.7988057
vt 0.7556395 0.9788583
vt 0.8001805 0.6187529
vt 0.8224505 0.43870035
vt 0.8447209 0.25864738
vt 0.8669921 0.07859446
vt 0.69833666 0.82015276
vt 0.6760661 1.000205
vt 0.7206073 0.64009994
vt 0.74287814 0.46004707
vt 0.7651481 0.27999443
vt 0.7874186 0.099941425
vt 0.7301165 -0.05876425
vt 0.6187638 0.84149957
vt 0.5964939 1.0215521
vt 0.6410344 0.6614468
vt 0.6633049 0.48139414
vt 0.6855751 0.3013412
vt 0.7078459 0.121288456
vt 0.6505434 -0.03741745
vt 0.5391903 0.8628466
vt 0.5169202 1.0428991
vt 0.5614608 0.6827939
vt 0.58373165 0.5027411
vt 0.6060023 0.3226881
vt 0.62827283 0.14263526
vt 0.57097036 -0.016070269
vt 0.45961744 0.88419354
vt 0.43734723 1.0642457
vt 0.48188818 0.7041408
vt 0.50415856 0.52408785
vt 0.526429 0.3440351
vt 0.54870015 0.16398215
vt 0.49139714 0.0052765086
vt 0.38004446 0.9055406
vt 0.35777438 1.0855927
vt 0.40231502 0.7254877
vt 0.42458576 0.545435
vt 0.44685608 0.36538213
vt 0.46912682 0.18532929
vt 0.41182438 0.02662341
vt 0.3004718 0.9268872
vt 0.278201 1.10694
vt 0.32274228 0.74683475
vt 0.3450132 0.5667817
vt 0.36728343 0.3867288
vt 0.38955364 0.20667626
vt 0.3322514 0.047970265
vt 0.22089899 0.9482344
vt 0.1986284 1.1282868
vt 0.14132583 0.9695813
vt 0.24316952 0.7681816
vt 0.16359618 0.7895284
vt 0.0840233 0.81087524
vt 0.26543975 0.58812875
vt 0.28771058 0.40807584
vt 0.30998108 0.22802301
vt 0.25267798 0.06931758
vt 0.1062935 0.6308228
vt 0.026720539 0.65216976
vt 0.18586707 0.6094757
vt 0.20813751 0.42942283
vt 0.2304076 0.24937019
vt 0.1731049 0.09066449
vt 0.04899083 0.47211716
vt -0.030582214 0.49346384
vt 0.1285642 0.45076978
vt 0.1508345 0.27071717
vt 0.09353195 0.11201139
vt 0.07126185 0.292064
vt 0.013959028 0.13335827
vt -0.008311465 0.3134111
vt -0.06561395 0.15470523
vt -0.08788429 0.33475807
vt -0.14518702 0.1760523
vn 0.9528792 -0.25532407 -0.16380116
vn 0.9864934 -1.1977095E-06 -0.16380087
vn 0.9770833 -1.2741755E-06 -0.21285729
vn 0.9437897 -0.2528885 -0.21285726
vn 0.854328 -0.49324724 -0.16380121
vn 0.94866925 -1.1157654E-06 -0.31626976
vn 0.84617865 -0.48854217 -0.21285725
vn 0.69755584 -0.69755656 -0.16380094
vn 0.9163441 -0.24553421 -0.31626955
vn 0.89835125 -4.96269E-07 -0.43927783
vn 0.6909018 -0.69090265 -0.21285713
vn 0.49324626 -0.8543286 -0.16380067
vn 0.82157147 -0.4743352 -0.31626958
vn 0.8677406 -0.2325108 -0.43927786
vn 0.7933768 0 -0.60873085
vn 0.48854125 -0.8461793 -0.2128571
vn 0.25532266 -0.9528797 -0.16380061
vn 0.6708101 -0.67081094 -0.3162697
vn 0.77799463 -0.4491762 -0.4392779
vn 0.7663429 -0.20534158 -0.60873103
vn 0.5385967 0 -0.8425637
vn 0.25288716 -0.94379026 -0.21285708
vn -7.128069E-07 -0.98649347 -0.1638006
vn 0.47433415 -0.82157207 -0.3162698
vn 0.6352296 -0.63523084 -0.439278
vn 0.68708414 -0.39668873 -0.60873103
vn 0.5202446 -0.13939956 -0.8425636
vn -0 0 -1
vn -5.5534815E-07 -0.9770833 -0.21285702
vn -0.2553236 -0.9528795 -0.16380055
vn 0.24553296 -0.9163444 -0.3162697
vn 0.44917515 -0.7779952 -0.43927795
vn 0.5610015 -0.5610026 -0.60873103
vn 0.4664384 -0.26929852 -0.8425637
vn -0 0 -1
vn -0.25288808 -0.9437901 -0.21285693
vn -0.49324664 -0.8543285 -0.1638006
vn -3.2463004E-07 -0.9486694 -0.31626967
vn 0.2325098 -0.86774075 -0.43927807
vn 0.39668798 -0.68708456 -0.608731
vn 0.3808452 -0.38084573 -0.8425637
vn -0 0 -1
vn -0.4885416 -0.84617907 -0.21285707
vn -0.69755644 -0.697556 -0.16380063
vn -0.24553385 -0.9163441 -0.3162697
vn -4.1676967E-07 -0.8983513 -0.4392778
vn 0.20534067 -0.76634306 -0.6087311
vn 0.2692981 -0.46643877 -0.8425636
vn -0 0 -1
vn -0.69090253 -0.69090205 -0.21285716
vn -0.8543286 -0.49324638 -0.1638007
vn -0.4743346 -0.8215717 -0.31626976
vn -0.2325107 -0.8677405 -0.43927804
vn -4.0713476E-07 -0.7933767 -0.608731
vn 0.13939898 -0.5202446 -0.8425637
vn -0 0 -1
vn -0.84617925 -0.48854136 -0.21285698
vn -0.9528795 -0.25532317 -0.16380093
vn -0.67081064 -0.6708102 -0.3162699
vn -0.44917586 -0.77799493 -0.43927786
vn -0.20534138 -0.76634294 -0.608731
vn -0 -0.53859663 -0.8425638
vn -0 0 -1
vn -0.9437901 -0.25288758 -0.2128571
vn -0.9864934 0 -0.1638009
vn -0.9770833 0 -0.21285705
vn -0.8215718 -0.47433445 -0.31626976
vn -0.9163442 -0.24553315 -0.31626993
vn -0.9486694 0 -0.31626958
vn -0.6352303 -0.6352301 -0.43927804
vn -0.3966887 -0.6870841 -0.60873115
vn -0.13939951 -0.5202446 -0.8425635
vn -0 0 -1
vn -0.8677407 -0.2325099 -0.43927813
vn -0.89835125 0 -0.4392779
vn -0.77799505 -0.44917542 -0.43927804
vn -0.5610022 -0.56100166 -0.60873115
vn -0.26929876 -0.4664381 -0.8425638
vn -0 0 -1
vn -0.7663431 -0.2053407 -0.60873085
vn -0.7933769 0 -0.6087307
vn -0.68708444 -0.39668816 -0.6087309
vn -0.38084555 -0.38084513 -0.8425637
vn -0 0 -1
vn -0.4664384 -0.2692985 -0.8425637
vn -0 0 -1
vn -0.5202448 -0.1393991 -0.84256345
vn -0 0 -1
vn -0.5385968 0 -0.8425637
vn -0 0 -1
g Eff_Cylinder_01_0
f 3/3/3 2/2/2 1/1/1
f 4/4/4 3/3/3 1/1/1
f 4/4/4 1/1/1 5/5/5
f 6/6/6 3/3/3 4/4/4
f 7/7/7 4/4/4 5/5/5
f 7/7/7 5/5/5 8/8/8
f 9/9/9 6/6/6 4/4/4
f 9/9/9 4/4/4 7/7/7
f 10/10/10 6/6/6 9/9/9
f 11/11/11 7/7/7 8/8/8
f 11/11/11 8/8/8 12/12/12
f 13/13/13 9/9/9 7/7/7
f 13/13/13 7/7/7 11/11/11
f 14/14/14 10/10/10 9/9/9
f 14/14/14 9/9/9 13/13/13
f 15/15/15 10/10/10 14/14/14
f 16/16/16 11/11/11 12/12/12
f 16/16/16 12/12/12 17/17/17
f 18/18/18 13/13/13 11/11/11
f 18/18/18 11/11/11 16/16/16
f 19/19/19 14/14/14 13/13/13
f 19/19/19 13/13/13 18/18/18
f 20/20/20 15/15/15 14/14/14
f 20/20/20 14/14/14 19/19/19
f 21/21/21 15/15/15 20/20/20
f 22/22/22 16/16/16 17/17/17
f 22/22/22 17/17/17 23/23/23
f 24/24/24 18/18/18 16/16/16
f 24/24/24 16/16/16 22/22/22
f 25/25/25 19/19/19 18/18/18
f 25/25/25 18/18/18 24/24/24
f 26/26/26 20/20/20 19/19/19
f 26/26/26 19/19/19 25/25/25
f 27/27/27 21/21/21 20/20/20
f 27/27/27 20/20/20 26/26/26
f 21/21/21 27/27/27 28/28/28
f 29/29/29 22/22/22 23/23/23
f 29/29/29 23/23/23 30/30/30
f 31/31/31 24/24/24 22/22/22
f 31/31/31 22/22/22 29/29/29
f 32/32/32 25/25/25 24/24/24
f 32/32/32 24/24/24 31/31/31
f 33/33/33 26/26/26 25/25/25
f 33/33/33 25/25/25 32/32/32
f 34/34/34 27/27/27 26/26/26
f 34/34/34 26/26/26 33/33/33
f 27/27/27 34/34/34 35/35/35
f 36/36/36 29/29/29 30/30/30
f 36/36/36 30/30/30 37/37/37
f 38/38/38 31/31/31 29/29/29
f 38/38/38 29/29/29 36/36/36
f 39/39/39 32/32/32 31/31/31
f 39/39/39 31/31/31 38/38/38
f 40/40/40 33/33/33 32/32/32
f 40/40/40 32/32/32 39/39/39
f 41/41/41 34/34/34 33/33/33
f 41/41/41 33/33/33 40/40/40
f 34/34/34 41/41/41 42/42/42
f 43/43/43 36/36/36 37/37/37
f 43/43/43 37/37/37 44/44/44
f 45/45/45 38/38/38 36/36/36
f 45/45/45 36/36/36 43/43/43
f 46/46/46 39/39/39 38/38/38
f 46/46/46 38/38/38 45/45/45
f 47/47/47 40/40/40 39/39/39
f 47/47/47 39/39/39 46/46/46
f 48/48/48 41/41/41 40/40/40
f 48/48/48 40/40/40 47/47/47
f 41/41/41 48/48/48 49/49/49
f 50/50/50 43/43/43 44/44/44
f 50/50/50 44/44/44 51/51/51
f 52/52/52 45/45/45 43/43/43
f 52/52/52 43/43/43 50/50/50
f 53/53/53 46/46/46 45/45/45
f 53/53/53 45/45/45 52/52/52
f 54/54/54 47/47/47 46/46/46
f 54/54/54 46/46/46 53/53/53
f 55/55/55 48/48/48 47/47/47
f 55/55/55 47/47/47 54/54/54
f 48/48/48 55/55/55 56/56/56
f 57/57/57 50/50/50 51/51/51
f 57/57/57 51/51/51 58/58/58
f 59/59/59 52/52/52 50/50/50
f 59/59/59 50/50/50 57/57/57
f 60/60/60 53/53/53 52/52/52
f 60/60/60 52/52/52 59/59/59
f 61/61/61 54/54/54 53/53/53
f 61/61/61 53/53/53 60/60/60
f 62/62/62 55/55/55 54/54/54
f 62/62/62 54/54/54 61/61/61
f 55/55/55 62/62/62 63/63/63
f 64/64/64 57/57/57 58/58/58
f 64/64/64 58/58/58 65/65/65
f 66/66/66 64/64/64 65/65/65
f 67/67/67 59/59/59 57/57/57
f 67/67/67 57/57/57 64/64/64
f 68/68/68 64/64/64 66/66/66
f 68/68/68 67/67/67 64/64/64
f 69/69/69 68/68/68 66/66/66
f 70/70/70 60/60/60 59/59/59
f 70/70/70 59/59/59 67/67/67
f 71/71/71 61/61/61 60/60/60
f 71/71/71 60/60/60 70/70/70
f 72/72/72 62/62/62 61/61/61
f 72/72/72 61/61/61 71/71/71
f 62/62/62 72/72/72 73/73/73
f 74/74/74 68/68/68 69/69/69
f 75/75/75 74/74/74 69/69/69
f 76/76/76 67/67/67 68/68/68
f 76/76/76 70/70/70 67/67/67
f 74/74/74 76/76/76 68/68/68
f 77/77/77 71/71/71 70/70/70
f 77/77/77 70/70/70 76/76/76
f 78/78/78 72/72/72 71/71/71
f 78/78/78 71/71/71 77/77/77
f 72/72/72 78/78/78 79/79/79
f 80/80/80 74/74/74 75/75/75
f 81/81/81 80/80/80 75/75/75
f 82/82/82 76/76/76 74/74/74
f 82/82/82 77/77/77 76/76/76
f 80/80/80 82/82/82 74/74/74
f 83/83/83 78/78/78 77/77/77
f 83/83/83 77/77/77 82/82/82
f 78/78/78 83/83/83 84/84/84
f 85/85/85 83/83/83 82/82/82
f 85/85/85 82/82/82 80/80/80
f 83/83/83 85/85/85 86/86/86
f 87/87/87 80/80/80 81/81/81
f 87/87/87 85/85/85 80/80/80
f 85/85/85 87/87/87 88/88/88
f 89/89/89 87/87/87 81/81/81
f 87/87/87 89/89/89 90/90/90
