g Eff_Xplane_02
v -0.5 0.00049690244 -2.1833978E-08
v 0.5 0.00049682613 -2.1833975E-08
v 0.5 -0.999503 -2.1833968E-08
v -0.5 -0.999503 -2.1833975E-08
v -2.1833978E-08 0.00049690244 -0.5
v -2.1833975E-08 0.00049682613 0.5
v -2.1833968E-08 -0.999503 0.5
v -2.1833975E-08 -0.999503 -0.5
vt 1.0013394 0.9866045
vt 1.0013392 0.010715846
vt 0.020092487 0.010716036
vt 0.010716021 0.99866045
vt 1.0013394 0.9866045
vt 1.0013392 0.010715846
vt 0.020092487 0.010716036
vt 0.020092666 0.98660475
vn -0 0 1
vn -0 0 1
vn -0 0 1
vn -0 0 1
vn -1 0 0
vn -1 0 0
vn -1 0 0
vn -1 0 0
g Eff_Xplane_02_0
f 3/3/3 2/2/2 1/1/1
f 4/4/4 3/3/3 1/1/1
f 7/7/7 6/6/6 5/5/5
f 8/8/8 7/7/7 5/5/5
