g Eff_EjectCylinder_06
v 3.993511E-08 0.6422364 1.0949001
v -0.06314638 0.47964388 0.5810308
v 2.771616E-08 0.4838005 0.58103085
v -0.08382564 0.6367185 1.0949
v 5.2452087E-08 0.7083379 1.4671953
v -0.12521689 0.46731552 0.58103085
v -0.09245331 0.7022521 1.4671952
v -0.16622311 0.6203527 1.0949001
v -0.18513572 0.44695693 0.5810308
v -0.18333143 0.68420196 1.4671952
v -0.24576423 0.5933271 1.0949001
v -0.24190037 0.41898352 0.5810308
v -0.27105924 0.65439475 1.4671952
v -0.32111827 0.556193 1.0949001
v -0.2945083 0.38381058 0.5810308
v -0.35416904 0.6134386 1.4671952
v -0.39095435 0.50950146 1.0949001
v -0.431193 0.5619415 1.4671954
v -0.3420987 0.34209862 0.5810308
v -0.45412976 0.45412958 1.0949004
v -0.5008707 0.5008705 1.4671957
v -0.5619416 0.43119285 1.4671959
v -0.5095016 0.3909543 1.0949001
v -0.38381067 0.29450825 0.5810308
v -0.6134388 0.35416892 1.4671959
v -0.55619305 0.32111827 1.0949004
v -0.41898364 0.24190037 0.5810308
v -0.6543949 0.27105916 1.467196
v -0.5933272 0.2457642 1.0949004
v -0.446957 0.18513572 0.5810307
v -0.684202 0.18333137 1.467196
v -0.62035275 0.16622302 1.0949005
v -0.46731555 0.12521689 0.5810307
v -0.70225227 0.09245327 1.467196
v -0.6367186 0.08382562 1.0949005
v -0.4796439 0.0631464 0.5810308
v -0.70833814 3.8146972E-08 1.467196
v -0.6422365 8.463859E-08 1.0949006
v -0.48380056 7.197261E-08 0.58103096
v -0.47964397 -0.06314626 0.58103085
v -0.6367186 -0.08382549 1.0949005
v -0.7022523 -0.09245319 1.467196
v -0.46731558 -0.12521677 0.5810307
v -0.6203527 -0.16622293 1.0949004
v -0.6842021 -0.1833313 1.4671959
v -0.44695708 -0.1851356 0.5810308
v -0.5933272 -0.24576409 1.0949004
v -0.654395 -0.27105916 1.4671959
v -0.41898373 -0.24190028 0.58103085
v -0.5561932 -0.32111815 1.0949004
v -0.6134388 -0.35416895 1.4671959
v -0.3838108 -0.29450828 0.58103085
v -0.50950176 -0.3909543 1.0949004
v -0.56194174 -0.43119293 1.467196
v -0.34209883 -0.34209868 0.58103085
v -0.45412984 -0.4541297 1.0949004
v -0.5008709 -0.5008706 1.467196
v -0.43119323 -0.56194156 1.467196
v -0.3909545 -0.5095016 1.0949001
v -0.29450843 -0.38381067 0.5810309
v -0.35416928 -0.61343867 1.467196
v -0.32111838 -0.55619305 1.0949004
v -0.24190044 -0.41898367 0.58103096
v -0.27105948 -0.6543948 1.467196
v -0.24576436 -0.59332716 1.0949004
v -0.1851358 -0.446957 0.5810309
v -0.18333168 -0.68420196 1.4671961
v -0.16622324 -0.6203527 1.0949005
v -0.12521698 -0.46731558 0.58103085
v -0.09245359 -0.7022522 1.4671961
v -0.083825804 -0.6367186 1.0949005
v -0.0631465 -0.479644 0.5810309
v -3.671646E-07 -0.70833814 1.4671963
v -2.449751E-07 -0.6422365 1.0949005
v -2.1010636E-07 -0.48380065 0.58103096
v 0.06314608 -0.47964403 0.58103096
v 0.08382531 -0.63671863 1.0949005
v 0.09245288 -0.7022523 1.4671963
v 0.12521654 -0.46731567 0.58103096
v 0.16622272 -0.6203529 1.0949005
v 0.18333103 -0.68420225 1.4671963
v 0.18513538 -0.4469572 0.58103096
v 0.24576387 -0.5933274 1.0949004
v 0.2710589 -0.6543951 1.4671961
v 0.24190006 -0.4189839 0.58103085
v 0.32111788 -0.55619335 1.0949004
v 0.35416868 -0.613439 1.467196
v 0.29450804 -0.38381094 0.58103085
v 0.39095396 -0.509502 1.0949003
v 0.4311926 -0.561942 1.467196
v 0.34209844 -0.34209904 0.58103085
v 0.4541293 -0.45413017 1.0949004
v 0.5008703 -0.50087106 1.467196
v 0.5619414 -0.43119347 1.4671961
v 0.5095012 -0.39095482 1.0949003
v 0.38381046 -0.29450864 0.5810308
v 0.6134386 -0.35416952 1.4671963
v 0.55619276 -0.32111868 1.0949004
v 0.41898352 -0.24190065 0.5810308
v 0.6543948 -0.27105978 1.4671963
v 0.5933269 -0.24576469 1.0949003
v 0.44695684 -0.18513604 0.5810308
v 0.68420196 -0.18333198 1.4671961
v 0.6203525 -0.16622359 1.0949004
v 0.46731547 -0.12521721 0.5810308
v 0.7022522 -0.09245389 1.467196
v 0.63671833 -0.08382614 1.0949001
v 0.47964385 -0.06314674 0.5810308
v 0.7083381 -6.41346E-07 1.467196
v 0.6422364 -5.728006E-07 1.0949004
v 0.48380056 -4.288554E-07 0.5810308
v 0.479644 0.06314589 0.5810308
v 0.63671863 0.08382499 1.0949003
v 0.7022523 0.09245262 1.467196
v 0.4673156 0.12521638 0.58103085
v 0.620353 0.16622242 1.0949004
v 0.68420225 0.18333076 1.467196
v 0.44695717 0.18513519 0.5810308
v 0.59332746 0.24576357 1.0949003
v 0.6543953 0.27105862 1.467196
v 0.41898388 0.24189986 0.5810308
v 0.5561934 0.3211176 1.0949004
v 0.6134392 0.35416847 1.4671959
v 0.38381094 0.29450786 0.5810308
v 0.509502 0.39095375 1.0949001
v 0.5619421 0.43119243 1.4671957
v 0.34209907 0.3420983 0.5810308
v 0.45413023 0.45412916 1.0949004
v 0.5008711 0.50087017 1.4671955
v 0.43119353 0.5619412 1.4671955
v 0.39095488 0.50950116 1.0949001
v 0.2945087 0.3838103 0.5810308
v 0.35416964 0.6134384 1.4671955
v 0.3211188 0.5561927 1.0949004
v 0.24190073 0.4189833 0.58103085
v 0.2710599 0.6543947 1.4671955
v 0.24576478 0.5933269 1.0949001
v 0.18513612 0.44695678 0.5810308
v 0.18333198 0.6842018 1.4671955
v 0.16622359 0.6203526 1.0949004
v 0.12521726 0.46731532 0.5810308
v 0.09245359 0.70225203 1.4671954
v 0.08382588 0.63671845 1.0949
v 5.2452087E-08 0.7083379 1.4671953
v 0.06314656 0.47964382 0.5810308
v 3.993511E-08 0.6422364 1.0949001
v 2.771616E-08 0.4838005 0.58103085
vt 0 0.83191663
vt 0.020833334 0.5823417
vt 0 0.5823417
vt 0.020833334 0.8319166
vt 0 0.9982998
vt 0.041666664 0.5823417
vt 0.020833334 0.9982998
vt 0.041666664 0.8319166
vt 0.0625 0.5823417
vt 0.041666668 0.9982998
vt 0.0625 0.8319166
vt 0.08333333 0.5823417
vt 0.0625 0.9982998
vt 0.08333333 0.8319166
vt 0.10416667 0.5823417
vt 0.083333336 0.9982998
vt 0.10416667 0.8319166
vt 0.10416667 0.9982998
vt 0.125 0.5823417
vt 0.125 0.8319166
vt 0.125 0.9982998
vt 0.14583334 0.9982998
vt 0.14583334 0.8319166
vt 0.14583334 0.5823417
vt 0.16666667 0.9982998
vt 0.16666666 0.8319166
vt 0.16666666 0.5823417
vt 0.1875 0.9982998
vt 0.1875 0.8319166
vt 0.1875 0.5823417
vt 0.20833331 0.9982998
vt 0.20833334 0.8319166
vt 0.20833334 0.5823417
vt 0.22916666 0.9982998
vt 0.22916666 0.8319166
vt 0.22916666 0.5823417
vt 0.24999999 0.9982998
vt 0.25 0.8319166
vt 0.25 0.5823417
vt 0.2708333 0.5823417
vt 0.2708333 0.8319166
vt 0.2708333 0.9982998
vt 0.29166663 0.5823417
vt 0.29166663 0.8319166
vt 0.29166663 0.9982998
vt 0.31249994 0.5823417
vt 0.31249994 0.8319166
vt 0.31249994 0.9982998
vt 0.33333325 0.5823417
vt 0.33333325 0.8319166
vt 0.33333328 0.9982998
vt 0.35416663 0.5823417
vt 0.35416663 0.8319166
vt 0.35416663 0.9982998
vt 0.37499994 0.5823417
vt 0.37499994 0.8319166
vt 0.37499994 0.9982998
vt 0.39583325 0.9982998
vt 0.39583325 0.8319166
vt 0.39583325 0.5823417
vt 0.41666663 0.9982998
vt 0.41666663 0.8319166
vt 0.41666663 0.5823417
vt 0.43749994 0.9982998
vt 0.43749994 0.8319166
vt 0.43749994 0.5823417
vt 0.45833325 0.9982998
vt 0.45833325 0.8319166
vt 0.45833325 0.5823417
vt 0.47916657 0.9982998
vt 0.47916657 0.8319166
vt 0.47916657 0.5823417
vt 0.4999999 0.9982998
vt 0.49999988 0.8319166
vt 0.49999988 0.5823417
vt 0.52083325 0.5823417
vt 0.52083325 0.8319166
vt 0.52083325 0.9982998
vt 0.54166657 0.5823417
vt 0.54166657 0.8319166
vt 0.54166657 0.9982998
vt 0.5624999 0.5823417
vt 0.5624999 0.8319166
vt 0.5624999 0.9982998
vt 0.58333325 0.5823417
vt 0.58333325 0.8319166
vt 0.58333325 0.9982998
vt 0.60416657 0.5823417
vt 0.60416657 0.8319166
vt 0.60416657 0.9982998
vt 0.6249999 0.5823417
vt 0.6249999 0.8319166
vt 0.6249999 0.9982998
vt 0.64583325 0.9982998
vt 0.64583325 0.8319166
vt 0.64583325 0.5823417
vt 0.66666657 0.9982998
vt 0.66666657 0.8319166
vt 0.66666657 0.5823417
vt 0.6874999 0.9982998
vt 0.6874999 0.8319166
vt 0.6874999 0.5823417
vt 0.70833325 0.9982998
vt 0.7083333 0.8319166
vt 0.7083333 0.5823417
vt 0.72916657 0.9982998
vt 0.7291666 0.8319166
vt 0.7291666 0.5823417
vt 0.7499999 0.9982998
vt 0.7499999 0.8319166
vt 0.7499999 0.5823417
vt 0.77083325 0.5823417
vt 0.77083325 0.8319166
vt 0.77083325 0.9982998
vt 0.79166657 0.5823417
vt 0.79166657 0.8319166
vt 0.7916666 0.9982998
vt 0.8124999 0.5823417
vt 0.8124999 0.8319166
vt 0.8124999 0.9982998
vt 0.83333313 0.5823417
vt 0.83333313 0.8319166
vt 0.8333332 0.9982998
vt 0.8541665 0.5823417
vt 0.8541665 0.8319166
vt 0.8541665 0.9982998
vt 0.87499976 0.5823417
vt 0.87499976 0.8319166
vt 0.8749999 0.9982998
vt 0.8958332 0.9982998
vt 0.8958332 0.8319166
vt 0.8958332 0.5823417
vt 0.9166665 0.9982998
vt 0.9166665 0.8319166
vt 0.9166665 0.5823417
vt 0.9374999 0.9982998
vt 0.9374999 0.8319166
vt 0.9374999 0.5823417
vt 0.9583332 0.9982998
vt 0.95833313 0.8319166
vt 0.95833313 0.5823417
vt 0.9791665 0.9982998
vt 0.9791665 0.8319166
vt 0.9999998 0.9982998
vt 0.9791665 0.5823417
vt 0.9999998 0.83191663
vt 0.9999998 0.5823417
vn 4.702258E-07 0.97209555 -0.23458529
vn -0.11968593 0.908951 -0.39935362
vn 3.998656E-07 0.9168163 -0.39930907
vn -0.12688372 0.96377987 -0.23458233
vn 5.865473E-07 0.98460084 -0.17481726
vn -0.23728968 0.88557565 -0.3993113
vn -0.12851608 0.9761786 -0.17481112
vn -0.25159723 0.938972 -0.23458534
vn -0.35147792 0.84671175 -0.39942765
vn -0.25483385 0.9510513 -0.17481746
vn -0.37200543 0.8980997 -0.23458236
vn -0.45839125 0.7939569 -0.39938688
vn -0.37679106 0.9096535 -0.17481123
vn -0.4860481 0.84185916 -0.23458537
vn -0.5575922 0.7276966 -0.39943513
vn -0.49230078 0.8526892 -0.17481749
vn -0.5917751 0.7712155 -0.23458226
vn -0.5993883 0.78113675 -0.1748112
vn -0.64830065 0.648268 -0.39931783
vn -0.68737537 0.68737537 -0.23458524
vn -0.69621813 0.69621783 -0.17481741
vn -0.7811371 0.59938794 -0.174811
vn -0.7712156 0.59177506 -0.2345822
vn -0.7276074 0.5577241 -0.39941353
vn -0.8526894 0.49230048 -0.1748172
vn -0.84185934 0.48604807 -0.23458517
vn -0.7939642 0.45839593 -0.399367
vn -0.9096538 0.37679064 -0.17481102
vn -0.8981 0.372005 -0.23458213
vn -0.84705657 0.35057628 -0.39948887
vn -0.9510514 0.25483364 -0.17481734
vn -0.93897223 0.25159684 -0.23458521
vn -0.88554037 0.23727946 -0.39939553
vn -0.9761786 0.12851675 -0.17481118
vn -0.96377987 0.12688404 -0.23458226
vn -0.90884113 0.12014685 -0.39946538
vn -0.98460084 3.2080547E-07 -0.17481752
vn -0.97209555 2.721104E-07 -0.23458536
vn -0.91680187 1.4889503E-07 -0.3993423
vn -0.90897965 -0.119366236 -0.39938393
vn -0.96377987 -0.12688383 -0.23458228
vn -0.9761786 -0.12851648 -0.17481133
vn -0.88557625 -0.23728897 -0.39931014
vn -0.93897223 -0.25159672 -0.23458534
vn -0.9510514 -0.25483343 -0.17481759
vn -0.8468709 -0.35114065 -0.399387
vn -0.8981 -0.37200484 -0.23458223
vn -0.90965366 -0.37679058 -0.17481124
vn -0.7939726 -0.45840016 -0.39934558
vn -0.8418596 -0.4860475 -0.2345852
vn -0.85268945 -0.4923002 -0.17481732
vn -0.72681844 -0.55868965 -0.3995006
vn -0.7712161 -0.5917743 -0.23458217
vn -0.78113765 -0.5993873 -0.17481107
vn -0.64825016 -0.6482498 -0.3994295
vn -0.68737566 -0.6873751 -0.23458529
vn -0.69621813 -0.69621766 -0.17481738
vn -0.59938776 -0.7811372 -0.17481108
vn -0.5917748 -0.7712158 -0.23458226
vn -0.55892485 -0.7266539 -0.3994712
vn -0.49230048 -0.8526894 -0.17481725
vn -0.4860478 -0.8418594 -0.23458524
vn -0.4583702 -0.7940068 -0.39931196
vn -0.37679076 -0.90965366 -0.17481104
vn -0.37200508 -0.8980999 -0.23458217
vn -0.35102612 -0.8469443 -0.3993318
vn -0.25483367 -0.9510514 -0.17481728
vn -0.25159708 -0.9389721 -0.23458514
vn -0.23728465 -0.8855875 -0.39928785
vn -0.12851703 -0.9761786 -0.17481104
vn -0.12688442 -0.96377987 -0.23458213
vn -0.12010825 -0.9089345 -0.39926454
vn -6.4400535E-07 -0.98460084 -0.17481726
vn -5.597358E-07 -0.97209555 -0.2345852
vn -3.1342586E-07 -0.9168467 -0.39923942
vn 0.120132536 -0.90893006 -0.39926717
vn 0.12688327 -0.96378 -0.23458216
vn 0.12851562 -0.9761787 -0.17481095
vn 0.23729108 -0.8855847 -0.39929014
vn 0.2515962 -0.93897235 -0.23458523
vn 0.2548328 -0.9510516 -0.17481723
vn 0.35113987 -0.8468894 -0.39934835
vn 0.37200436 -0.8981002 -0.23458216
vn 0.37679008 -0.90965396 -0.17481099
vn 0.45840403 -0.79398066 -0.39932495
vn 0.48604712 -0.8418598 -0.23458521
vn 0.49229988 -0.85268974 -0.17481725
vn 0.5575811 -0.72777313 -0.39931136
vn 0.5917744 -0.77121603 -0.23458217
vn 0.59938747 -0.7811375 -0.17481102
vn 0.64830446 -0.6483054 -0.39925107
vn 0.68737495 -0.6873758 -0.23458523
vn 0.69621754 -0.6962183 -0.1748174
vn 0.7811368 -0.59938824 -0.17481127
vn 0.7712153 -0.5917754 -0.23458225
vn 0.72745234 -0.55804074 -0.39925393
vn 0.852689 -0.492301 -0.17481765
vn 0.8418591 -0.4860483 -0.2345853
vn 0.7940029 -0.45841834 -0.3992643
vn 0.9096533 -0.37679142 -0.17481145
vn 0.89809966 -0.37200573 -0.23458233
vn 0.84720963 -0.35040352 -0.3993161
vn 0.9510512 -0.25483423 -0.17481767
vn 0.938972 -0.25159755 -0.23458529
vn 0.88557327 -0.23728928 -0.39931667
vn 0.97617847 -0.1285173 -0.17481135
vn 0.96377975 -0.12688483 -0.23458235
vn 0.9089648 -0.119474635 -0.39938566
vn 0.98460084 -1.1323954E-06 -0.17481744
vn 0.97209555 -1.2042078E-06 -0.2345853
vn 0.916804 -9.822307E-07 -0.39933744
vn 0.90882725 0.12024809 -0.39946643
vn 0.96378 0.12688284 -0.23458223
vn 0.9761788 0.12851514 -0.1748111
vn 0.8855379 0.23727849 -0.39940143
vn 0.9389725 0.2515959 -0.23458526
vn 0.9510517 0.2548323 -0.17481737
vn 0.8470039 0.35067704 -0.39951217
vn 0.8981002 0.37200412 -0.23458236
vn 0.9096541 0.37678975 -0.1748113
vn 0.79395795 0.45839074 -0.39938548
vn 0.8418598 0.48604697 -0.23458533
vn 0.8526898 0.4922997 -0.1748176
vn 0.72754216 0.557778 -0.39945722
vn 0.7712163 0.5917741 -0.23458238
vn 0.78113776 0.59938705 -0.17481133
vn 0.64827704 0.6482757 -0.399344
vn 0.6873761 0.6873746 -0.23458534
vn 0.6962187 0.6962172 -0.17481762
vn 0.59938854 0.7811365 -0.17481136
vn 0.5917755 0.77121526 -0.2345824
vn 0.557927 0.72743803 -0.39943877
vn 0.4923015 0.85268867 -0.17481764
vn 0.48604882 0.84185874 -0.23458539
vn 0.45841742 0.7939513 -0.39936805
vn 0.3767916 0.9096533 -0.17481132
vn 0.37200603 0.8980994 -0.2345824
vn 0.35142916 0.84674466 -0.39940077
vn 0.25483382 0.9510514 -0.17481737
vn 0.25159726 0.938972 -0.23458523
vn 0.23730423 0.88557625 -0.39930117
vn 0.12851676 0.9761786 -0.174811
vn 0.12688431 0.96377975 -0.2345823
vn 5.865473E-07 0.98460084 -0.17481726
vn 0.1195948 0.90896726 -0.39934406
vn 4.702258E-07 0.97209555 -0.23458529
vn 3.998656E-07 0.9168163 -0.39930907
g Eff_EjectCylinder_06_0
f 3/3/3 2/2/2 1/1/1
f 4/4/4 1/1/1 2/2/2
f 1/1/1 4/4/4 5/5/5
f 4/4/4 2/2/2 6/6/6
f 7/7/7 5/5/5 4/4/4
f 6/6/6 8/8/8 4/4/4
f 7/7/7 4/4/4 8/8/8
f 6/6/6 9/9/9 8/8/8
f 8/8/8 10/10/10 7/7/7
f 11/11/11 8/8/8 9/9/9
f 8/8/8 11/11/11 10/10/10
f 11/11/11 9/9/9 12/12/12
f 13/13/13 10/10/10 11/11/11
f 12/12/12 14/14/14 11/11/11
f 13/13/13 11/11/11 14/14/14
f 12/12/12 15/15/15 14/14/14
f 14/14/14 16/16/16 13/13/13
f 17/17/17 14/14/14 15/15/15
f 14/14/14 17/17/17 16/16/16
f 18/18/18 16/16/16 17/17/17
f 17/17/17 15/15/15 19/19/19
f 18/18/18 17/17/17 20/20/20
f 19/19/19 20/20/20 17/17/17
f 20/20/20 21/21/21 18/18/18
f 20/20/20 22/22/22 21/21/21
f 23/23/23 20/20/20 19/19/19
f 23/23/23 22/22/22 20/20/20
f 19/19/19 24/24/24 23/23/23
f 25/25/25 22/22/22 23/23/23
f 24/24/24 26/26/26 23/23/23
f 23/23/23 26/26/26 25/25/25
f 24/24/24 27/27/27 26/26/26
f 28/28/28 25/25/25 26/26/26
f 29/29/29 26/26/26 27/27/27
f 26/26/26 29/29/29 28/28/28
f 27/27/27 30/30/30 29/29/29
f 29/29/29 31/31/31 28/28/28
f 30/30/30 32/32/32 29/29/29
f 29/29/29 32/32/32 31/31/31
f 30/30/30 33/33/33 32/32/32
f 34/34/34 31/31/31 32/32/32
f 35/35/35 32/32/32 33/33/33
f 32/32/32 35/35/35 34/34/34
f 33/33/33 36/36/36 35/35/35
f 35/35/35 37/37/37 34/34/34
f 38/38/38 35/35/35 36/36/36
f 35/35/35 38/38/38 37/37/37
f 36/36/36 39/39/39 38/38/38
f 39/39/39 40/40/40 38/38/38
f 38/38/38 41/41/41 37/37/37
f 41/41/41 38/38/38 40/40/40
f 42/42/42 37/37/37 41/41/41
f 41/41/41 40/40/40 43/43/43
f 42/42/42 41/41/41 44/44/44
f 43/43/43 44/44/44 41/41/41
f 44/44/44 45/45/45 42/42/42
f 43/43/43 46/46/46 44/44/44
f 44/44/44 47/47/47 45/45/45
f 47/47/47 44/44/44 46/46/46
f 48/48/48 45/45/45 47/47/47
f 47/47/47 46/46/46 49/49/49
f 48/48/48 47/47/47 50/50/50
f 49/49/49 50/50/50 47/47/47
f 50/50/50 51/51/51 48/48/48
f 49/49/49 52/52/52 50/50/50
f 50/50/50 53/53/53 51/51/51
f 53/53/53 50/50/50 52/52/52
f 54/54/54 51/51/51 53/53/53
f 53/53/53 52/52/52 55/55/55
f 54/54/54 53/53/53 56/56/56
f 55/55/55 56/56/56 53/53/53
f 56/56/56 57/57/57 54/54/54
f 58/58/58 57/57/57 56/56/56
f 59/59/59 56/56/56 55/55/55
f 56/56/56 59/59/59 58/58/58
f 55/55/55 60/60/60 59/59/59
f 59/59/59 61/61/61 58/58/58
f 60/60/60 62/62/62 59/59/59
f 59/59/59 62/62/62 61/61/61
f 60/60/60 63/63/63 62/62/62
f 64/64/64 61/61/61 62/62/62
f 65/65/65 62/62/62 63/63/63
f 62/62/62 65/65/65 64/64/64
f 63/63/63 66/66/66 65/65/65
f 65/65/65 67/67/67 64/64/64
f 66/66/66 68/68/68 65/65/65
f 65/65/65 68/68/68 67/67/67
f 66/66/66 69/69/69 68/68/68
f 70/70/70 67/67/67 68/68/68
f 71/71/71 68/68/68 69/69/69
f 68/68/68 71/71/71 70/70/70
f 69/69/69 72/72/72 71/71/71
f 73/73/73 70/70/70 71/71/71
f 72/72/72 74/74/74 71/71/71
f 71/71/71 74/74/74 73/73/73
f 72/72/72 75/75/75 74/74/74
f 75/75/75 76/76/76 74/74/74
f 74/74/74 77/77/77 73/73/73
f 77/77/77 74/74/74 76/76/76
f 78/78/78 73/73/73 77/77/77
f 77/77/77 76/76/76 79/79/79
f 78/78/78 77/77/77 80/80/80
f 79/79/79 80/80/80 77/77/77
f 80/80/80 81/81/81 78/78/78
f 79/79/79 82/82/82 80/80/80
f 80/80/80 83/83/83 81/81/81
f 83/83/83 80/80/80 82/82/82
f 84/84/84 81/81/81 83/83/83
f 83/83/83 82/82/82 85/85/85
f 84/84/84 83/83/83 86/86/86
f 85/85/85 86/86/86 83/83/83
f 86/86/86 87/87/87 84/84/84
f 85/85/85 88/88/88 86/86/86
f 86/86/86 89/89/89 87/87/87
f 89/89/89 86/86/86 88/88/88
f 90/90/90 87/87/87 89/89/89
f 89/89/89 88/88/88 91/91/91
f 90/90/90 89/89/89 92/92/92
f 91/91/91 92/92/92 89/89/89
f 92/92/92 93/93/93 90/90/90
f 94/94/94 93/93/93 92/92/92
f 95/95/95 92/92/92 91/91/91
f 92/92/92 95/95/95 94/94/94
f 91/91/91 96/96/96 95/95/95
f 95/95/95 97/97/97 94/94/94
f 96/96/96 98/98/98 95/95/95
f 95/95/95 98/98/98 97/97/97
f 96/96/96 99/99/99 98/98/98
f 100/100/100 97/97/97 98/98/98
f 101/101/101 98/98/98 99/99/99
f 98/98/98 101/101/101 100/100/100
f 99/99/99 102/102/102 101/101/101
f 101/101/101 103/103/103 100/100/100
f 102/102/102 104/104/104 101/101/101
f 101/101/101 104/104/104 103/103/103
f 102/102/102 105/105/105 104/104/104
f 106/106/106 103/103/103 104/104/104
f 107/107/107 104/104/104 105/105/105
f 104/104/104 107/107/107 106/106/106
f 105/105/105 108/108/108 107/107/107
f 107/107/107 109/109/109 106/106/106
f 110/110/110 107/107/107 108/108/108
f 107/107/107 110/110/110 109/109/109
f 108/108/108 111/111/111 110/110/110
f 111/111/111 112/112/112 110/110/110
f 110/110/110 113/113/113 109/109/109
f 113/113/113 110/110/110 112/112/112
f 114/114/114 109/109/109 113/113/113
f 113/113/113 112/112/112 115/115/115
f 114/114/114 113/113/113 116/116/116
f 115/115/115 116/116/116 113/113/113
f 116/116/116 117/117/117 114/114/114
f 115/115/115 118/118/118 116/116/116
f 116/116/116 119/119/119 117/117/117
f 119/119/119 116/116/116 118/118/118
f 120/120/120 117/117/117 119/119/119
f 119/119/119 118/118/118 121/121/121
f 120/120/120 119/119/119 122/122/122
f 121/121/121 122/122/122 119/119/119
f 122/122/122 123/123/123 120/120/120
f 121/121/121 124/124/124 122/122/122
f 122/122/122 125/125/125 123/123/123
f 125/125/125 122/122/122 124/124/124
f 126/126/126 123/123/123 125/125/125
f 125/125/125 124/124/124 127/127/127
f 126/126/126 125/125/125 128/128/128
f 127/127/127 128/128/128 125/125/125
f 128/128/128 129/129/129 126/126/126
f 130/130/130 129/129/129 128/128/128
f 131/131/131 128/128/128 127/127/127
f 128/128/128 131/131/131 130/130/130
f 127/127/127 132/132/132 131/131/131
f 131/131/131 133/133/133 130/130/130
f 132/132/132 134/134/134 131/131/131
f 131/131/131 134/134/134 133/133/133
f 132/132/132 135/135/135 134/134/134
f 136/136/136 133/133/133 134/134/134
f 137/137/137 134/134/134 135/135/135
f 134/134/134 137/137/137 136/136/136
f 135/135/135 138/138/138 137/137/137
f 137/137/137 139/139/139 136/136/136
f 138/138/138 140/140/140 137/137/137
f 137/137/137 140/140/140 139/139/139
f 138/138/138 141/141/141 140/140/140
f 142/142/142 139/139/139 140/140/140
f 143/143/143 140/140/140 141/141/141
f 140/140/140 143/143/143 142/142/142
f 143/143/143 144/144/144 142/142/142
f 141/141/141 145/145/145 143/143/143
f 143/143/143 146/146/146 144/144/144
f 146/146/146 143/143/143 145/145/145
f 145/145/145 147/147/147 146/146/146
