g Eff_Model_arc01
v 0.8671572 -0.38242278 1.2096024
v 1.0070119 -0.13403049 0.93538827
v 0.9727196 -0.21193302 1.2096025
v 0.897728 -0.31053075 0.9353883
v 1.0070119 -0.056582067 0.67722726
v 0.7320647 -0.53061265 1.2096024
v 0.897728 -0.23308234 0.6772273
v 0.9727193 0.017774848 0.4439109
v 0.7578733 -0.4639449 0.9353883
v 0.5720429 -0.65145606 1.2096024
v 0.8671572 -0.152715 0.44391087
v 0.90530205 0.08841182 0.24131897
v 0.5922095 -0.5890486 0.9353881
v 0.39254066 -0.740838 1.2096024
v 0.7578733 -0.38649657 0.67722744
v 0.807056 -0.07026161 0.24131893
v 0.8070557 0.1564738 0.07249861
v 0.4063793 -0.6815816 0.93538827
v 0.19967087 -0.7957144 1.2096024
v 0.5922098 -0.51160026 0.67722744
v 0.7320649 -0.30090472 0.44391087
v 0.71947163 0.015020103 0.07249859
v 0.68132603 0.22436054 -0.061919082
v 0.6073865 0.104943804 -0.061919104
v 0.2067102 -0.7383928 0.93538827
v 1.5258788E-06 -0.8142169 1.2096026
v 0.40637946 -0.6041331 0.67722744
v 0.5720429 -0.4217482 0.44391087
v 0.6813267 -0.2081806 0.24131888
v 0.6073867 -0.107931405 0.07249859
v 0.51276326 0.001146469 -0.061919104
v 1.6784668E-06 -0.7575474 0.9353883
v -0.19966774 -0.79571503 1.2096024
v 0.2067102 -0.6609444 0.67722744
v 0.39254066 -0.51113003 0.4439109
v 0.5323957 -0.32064864 0.24131888
v 0.47461843 -0.20819405 0.0724986
v 0.4006783 -0.08349632 -0.061919104
v -0.20670693 -0.73839337 0.935388
v -0.39253765 -0.74083906 1.2096026
v 1.6784668E-06 -0.680099 0.67722744
v 0.19967072 -0.5660066 0.4439109
v 0.3653344 -0.4038356 0.24131897
v 0.32568717 -0.28235334 0.072498575
v 0.2749488 -0.14610244 -0.061919052
v -0.40637624 -0.6815828 0.935388
v -0.57204014 -0.6514577 1.2096025
v -0.20670693 -0.66094494 0.6772273
v 1.7547607E-06 -0.58450896 0.4439109
v 0.1858319 -0.45490873 0.24131888
v 0.16566482 -0.32788378 0.07249863
v 0.13985634 -0.18453982 -0.061919052
v -0.592207 -0.58905035 0.9353884
v -0.7320625 -0.5306148 1.2096026
v -0.40637633 -0.6041344 0.67722744
v -0.19966766 -0.5660072 0.4439108
v 1.5258788E-06 -0.47212878 0.24131888
v 1.2969971E-06 -0.34323508 0.07249864
v 1.0681152E-06 -0.19749957 -0.061919052
v -0.75787085 -0.4639471 0.93538827
v -0.8671552 -0.38242525 1.2096024
v -0.592207 -0.511602 0.67722726
v -0.3925377 -0.5111313 0.4439109
v -0.18582931 -0.45490932 0.24131893
v -0.16566245 -0.3278843 0.07249863
v -0.1398542 -0.18454024 -0.061919052
v -0.8977262 -0.3105334 0.9353883
v -0.9727181 -0.2119358 1.2096024
v -1.0070106 -0.1340334 0.9353883
v -0.7578708 -0.38649872 0.67722726
v -0.8977262 -0.23308498 0.6772273
v -1.0070106 -0.05658493 0.6772273
v -0.57204014 -0.42174983 0.44391087
v -0.36533165 -0.40383667 0.24131888
v -0.32568458 -0.28235424 0.072498575
v -0.2749468 -0.14610328 -0.061919052
v -0.8671552 -0.1527174 0.4439109
v -0.9727181 0.017772026 0.4439108
v -0.7320625 -0.30090684 0.44391087
v -0.5323931 -0.32065013 0.24131888
v -0.474616 -0.20819542 0.07249859
v -0.40067634 -0.0834975 -0.061919104
v -0.6813246 -0.20818256 0.24131888
v -0.8070543 -0.07026386 0.24131893
v -0.9053008 0.088409156 0.24131897
v -0.60738504 -0.10793323 0.07249861
v -0.5127615 0.0011449814 -0.061919104
v -0.71947014 0.015018081 0.0724986
v -0.8070546 0.15647152 0.072498634
v -0.6073851 0.10494198 -0.061919104
v -0.6813249 0.22435856 -0.061919082
vt 0.91493624 0.9958077
vt 0.997775 0.8308049
vt 0.997775 0.9958077
vt 0.91493624 0.8308049
vt 0.997775 0.66580224
vt 0.83209735 0.9958077
vt 0.91493624 0.66580224
vt 0.997775 0.5007995
vt 0.83209735 0.8308049
vt 0.74925876 0.9958077
vt 0.91493624 0.5007995
vt 0.997775 0.33579677
vt 0.74925876 0.8308049
vt 0.6664197 0.9958077
vt 0.83209735 0.66580224
vt 0.91493624 0.33579677
vt 0.997775 0.17079407
vt 0.6664197 0.8308049
vt 0.58358073 0.9958077
vt 0.74925876 0.66580224
vt 0.83209735 0.5007995
vt 0.91493624 0.17079407
vt 0.997775 0.0057911873
vt 0.91493624 0.0057911873
vt 0.58358073 0.8308049
vt 0.5007418 0.9958077
vt 0.6664197 0.66580224
vt 0.74925876 0.5007995
vt 0.83209735 0.33579677
vt 0.83209735 0.17079407
vt 0.83209735 0.0057911873
vt 0.5007418 0.8308049
vt 0.4179029 0.9958077
vt 0.58358073 0.66580224
vt 0.6664197 0.5007995
vt 0.74925876 0.33579677
vt 0.74925876 0.17079407
vt 0.74925876 0.0057911873
vt 0.4179029 0.8308049
vt 0.33506396 0.9958077
vt 0.5007418 0.66580224
vt 0.58358073 0.5007995
vt 0.6664197 0.33579677
vt 0.6664197 0.17079407
vt 0.6664197 0.0057911873
vt 0.33506396 0.8308049
vt 0.252225 0.9958077
vt 0.4179029 0.66580224
vt 0.5007418 0.5007995
vt 0.58358073 0.33579677
vt 0.58358073 0.17079407
vt 0.58358073 0.0057911873
vt 0.252225 0.8308049
vt 0.1693861 0.9958077
vt 0.33506396 0.66580224
vt 0.4179029 0.5007995
vt 0.5007418 0.33579677
vt 0.5007418 0.17079407
vt 0.5007418 0.0057911873
vt 0.1693861 0.8308049
vt 0.08654716 0.9958077
vt 0.252225 0.66580224
vt 0.33506396 0.5007995
vt 0.4179029 0.33579677
vt 0.4179029 0.17079407
vt 0.4179029 0.0057911873
vt 0.08654716 0.8308049
vt 0.0037083041 0.9958077
vt 0.0037083041 0.8308049
vt 0.1693861 0.66580224
vt 0.08654716 0.66580224
vt 0.0037083041 0.66580224
vt 0.252225 0.5007995
vt 0.33506396 0.33579677
vt 0.33506396 0.17079407
vt 0.33506396 0.0057911873
vt 0.08654716 0.5007995
vt 0.0037083041 0.5007995
vt 0.1693861 0.5007995
vt 0.252225 0.33579677
vt 0.252225 0.17079407
vt 0.252225 0.0057911873
vt 0.1693861 0.33579677
vt 0.08654716 0.33579677
vt 0.0037083041 0.33579677
vt 0.1693861 0.17079407
vt 0.1693861 0.0057911873
vt 0.08654716 0.17079407
vt 0.0037083041 0.17079407
vt 0.08654716 0.0057911873
vt 0.0037083041 0.0057911873
vn -0.75847924 0.63206595 -0.15875146
vn -0.83590263 0.54356307 -0.076196894
vn -0.81202924 0.56149393 -0.15916362
vn -0.78397304 0.61632746 -0.07434227
vn -0.8567343 0.51095325 0.07023678
vn -0.63549125 0.755739 -0.15814403
vn -0.8052828 0.58853525 0.07173496
vn -0.8525958 0.48300722 0.19946049
vn -0.6600993 0.7472893 -0.076338015
vn -0.49460095 0.85470515 -0.15763597
vn -0.8023315 0.56202537 0.2009762
vn -0.8273522 0.46808612 0.31045714
vn -0.514724 0.85377043 -0.07832756
vn -0.337306 0.92831224 -0.15640043
vn -0.6825145 0.7273964 0.071192
vn -0.78005207 0.5425053 0.3117801
vn -0.7884885 0.4588473 0.4095668
vn -0.3532908 0.93241936 -0.0760246
vn -0.17184083 0.972806 -0.15530385
vn -0.53379804 0.84259397 0.071379974
vn -0.6809255 0.70408493 0.20150644
vn -0.7427787 0.5284837 0.4110774
vn -0.7626932 0.47392288 0.4401092
vn -0.7148709 0.5425208 0.44116965
vn -0.1780405 0.9810852 -0.075983815
vn -0.0021569117 0.9878654 -0.15529759
vn -0.36532095 0.92807066 0.072286904
vn -0.5323655 0.82166 0.20362183
vn -0.6626159 0.67998934 0.31393448
vn -0.6300072 0.65826607 0.41203967
vn -0.60367286 0.66361505 0.44180778
vn 0.001489666 0.9973314 -0.072993636
vn 0.17112376 0.972817 -0.15602462
vn -0.1860133 0.97987753 0.072381735
vn -0.36867428 0.9069228 0.20388806
vn -0.52120465 0.79317284 0.31499594
vn -0.49154875 0.76574606 0.41474432
vn -0.47366816 0.76228315 0.44109288
vn 0.17946206 0.9807118 -0.07744421
vn 0.3374568 0.9287272 -0.1535861
vn -0 0.99732274 0.07312663
vn -0.1902623 0.9605049 0.20305306
vn -0.3587255 0.87806207 0.31673828
vn -0.34009066 0.84373486 0.41527084
vn -0.3243415 0.8367501 0.44119358
vn 0.35257736 0.93250376 -0.0782677
vn 0.49370727 0.85556614 -0.15575506
vn 0.18738304 0.979679 0.071532115
vn 0.00080044713 0.9789468 0.204114
vn -0.18540615 0.9302978 0.31649727
vn -0.17443034 0.89269763 0.41553
vn -0.16560444 0.8819498 0.4412934
vn 0.51363313 0.8546855 -0.07545738
vn 0.63599837 0.7554758 -0.15736043
vn 0.36675742 0.9273834 0.0738177
vn 0.18800624 0.9608319 0.20360677
vn -0 0.9483965 0.31708682
vn -0 0.90944844 0.41581678
vn -0.002547071 0.897418 0.4411739
vn 0.6597514 0.74774325 -0.07488665
vn 0.75865984 0.63136053 -0.16068327
vn 0.53375363 0.8427484 0.06987319
vn 0.3684928 0.90705913 0.20360924
vn 0.18150379 0.93082005 0.31722283
vn 0.1712393 0.8931304 0.4159268
vn 0.16223697 0.8825353 0.44137374
vn 0.7840932 0.6160732 -0.075176716
vn 0.8120058 0.5611093 -0.16063271
vn 0.8369499 0.54228634 -0.073759966
vn 0.6822413 0.72787875 0.06884294
vn 0.8052388 0.5886812 0.07102778
vn 0.85688186 0.5105074 0.071663685
vn 0.5350805 0.82011235 0.20274226
vn 0.35739577 0.8788019 0.31618917
vn 0.33912447 0.8442525 0.41500884
vn 0.32468745 0.83636767 0.4416642
vn 0.80215424 0.56229436 0.20093179
vn 0.85273254 0.48284906 0.19925857
vn 0.68110585 0.70384896 0.20172127
vn 0.5203835 0.79377776 0.31482998
vn 0.49331015 0.7648187 0.4143638
vn 0.4715609 0.76358056 0.4411068
vn 0.6622518 0.6804234 0.31376198
vn 0.7798822 0.5427884 0.31171218
vn 0.828577 0.46627453 0.3099166
vn 0.6285643 0.6589519 0.41314575
vn 0.60451066 0.66347694 0.44086856
vn 0.74188656 0.52968216 0.4111461
vn 0.7883488 0.45945695 0.4091522
vn 0.7156147 0.5415922 0.44110477
vn 0.7637088 0.47265086 0.4397159
g Eff_Model_arc01_0
f 3/3/3 2/2/2 1/1/1
f 4/4/4 1/1/1 2/2/2
f 2/2/2 5/5/5 4/4/4
f 1/1/1 4/4/4 6/6/6
f 7/7/7 4/4/4 5/5/5
f 5/5/5 8/8/8 7/7/7
f 9/9/9 6/6/6 4/4/4
f 4/4/4 7/7/7 9/9/9
f 6/6/6 9/9/9 10/10/10
f 11/11/11 7/7/7 8/8/8
f 8/8/8 12/12/12 11/11/11
f 13/13/13 10/10/10 9/9/9
f 10/10/10 13/13/13 14/14/14
f 15/15/15 9/9/9 7/7/7
f 7/7/7 11/11/11 15/15/15
f 9/9/9 15/15/15 13/13/13
f 16/16/16 11/11/11 12/12/12
f 12/12/12 17/17/17 16/16/16
f 18/18/18 14/14/14 13/13/13
f 14/14/14 18/18/18 19/19/19
f 20/20/20 13/13/13 15/15/15
f 13/13/13 20/20/20 18/18/18
f 21/21/21 15/15/15 11/11/11
f 11/11/11 16/16/16 21/21/21
f 15/15/15 21/21/21 20/20/20
f 22/22/22 16/16/16 17/17/17
f 17/17/17 23/23/23 22/22/22
f 24/24/24 22/22/22 23/23/23
f 25/25/25 19/19/19 18/18/18
f 19/19/19 25/25/25 26/26/26
f 27/27/27 18/18/18 20/20/20
f 18/18/18 27/27/27 25/25/25
f 28/28/28 20/20/20 21/21/21
f 20/20/20 28/28/28 27/27/27
f 29/29/29 21/21/21 16/16/16
f 16/16/16 22/22/22 29/29/29
f 21/21/21 29/29/29 28/28/28
f 22/22/22 24/24/24 30/30/30
f 30/30/30 29/29/29 22/22/22
f 31/31/31 30/30/30 24/24/24
f 32/32/32 26/26/26 25/25/25
f 26/26/26 32/32/32 33/33/33
f 34/34/34 25/25/25 27/27/27
f 25/25/25 34/34/34 32/32/32
f 35/35/35 27/27/27 28/28/28
f 27/27/27 35/35/35 34/34/34
f 36/36/36 28/28/28 29/29/29
f 29/29/29 30/30/30 36/36/36
f 28/28/28 36/36/36 35/35/35
f 30/30/30 31/31/31 37/37/37
f 37/37/37 36/36/36 30/30/30
f 38/38/38 37/37/37 31/31/31
f 39/39/39 33/33/33 32/32/32
f 33/33/33 39/39/39 40/40/40
f 41/41/41 32/32/32 34/34/34
f 32/32/32 41/41/41 39/39/39
f 42/42/42 34/34/34 35/35/35
f 34/34/34 42/42/42 41/41/41
f 43/43/43 35/35/35 36/36/36
f 36/36/36 37/37/37 43/43/43
f 35/35/35 43/43/43 42/42/42
f 37/37/37 38/38/38 44/44/44
f 44/44/44 43/43/43 37/37/37
f 45/45/45 44/44/44 38/38/38
f 46/46/46 40/40/40 39/39/39
f 40/40/40 46/46/46 47/47/47
f 48/48/48 39/39/39 41/41/41
f 39/39/39 48/48/48 46/46/46
f 49/49/49 41/41/41 42/42/42
f 41/41/41 49/49/49 48/48/48
f 50/50/50 42/42/42 43/43/43
f 43/43/43 44/44/44 50/50/50
f 42/42/42 50/50/50 49/49/49
f 44/44/44 45/45/45 51/51/51
f 51/51/51 50/50/50 44/44/44
f 52/52/52 51/51/51 45/45/45
f 53/53/53 47/47/47 46/46/46
f 47/47/47 53/53/53 54/54/54
f 55/55/55 46/46/46 48/48/48
f 46/46/46 55/55/55 53/53/53
f 56/56/56 48/48/48 49/49/49
f 48/48/48 56/56/56 55/55/55
f 57/57/57 49/49/49 50/50/50
f 50/50/50 51/51/51 57/57/57
f 49/49/49 57/57/57 56/56/56
f 51/51/51 52/52/52 58/58/58
f 58/58/58 57/57/57 51/51/51
f 59/59/59 58/58/58 52/52/52
f 60/60/60 54/54/54 53/53/53
f 54/54/54 60/60/60 61/61/61
f 62/62/62 53/53/53 55/55/55
f 53/53/53 62/62/62 60/60/60
f 63/63/63 55/55/55 56/56/56
f 55/55/55 63/63/63 62/62/62
f 64/64/64 56/56/56 57/57/57
f 57/57/57 58/58/58 64/64/64
f 56/56/56 64/64/64 63/63/63
f 58/58/58 59/59/59 65/65/65
f 65/65/65 64/64/64 58/58/58
f 66/66/66 65/65/65 59/59/59
f 67/67/67 61/61/61 60/60/60
f 61/61/61 67/67/67 68/68/68
f 69/69/69 68/68/68 67/67/67
f 70/70/70 60/60/60 62/62/62
f 60/60/60 70/70/70 67/67/67
f 67/67/67 71/71/71 69/69/69
f 71/71/71 67/67/67 70/70/70
f 72/72/72 69/69/69 71/71/71
f 73/73/73 62/62/62 63/63/63
f 62/62/62 73/73/73 70/70/70
f 74/74/74 63/63/63 64/64/64
f 64/64/64 65/65/65 74/74/74
f 63/63/63 74/74/74 73/73/73
f 65/65/65 66/66/66 75/75/75
f 75/75/75 74/74/74 65/65/65
f 76/76/76 75/75/75 66/66/66
f 71/71/71 77/77/77 72/72/72
f 78/78/78 72/72/72 77/77/77
f 70/70/70 79/79/79 71/71/71
f 79/79/79 70/70/70 73/73/73
f 77/77/77 71/71/71 79/79/79
f 80/80/80 73/73/73 74/74/74
f 74/74/74 75/75/75 80/80/80
f 73/73/73 80/80/80 79/79/79
f 75/75/75 76/76/76 81/81/81
f 81/81/81 80/80/80 75/75/75
f 82/82/82 81/81/81 76/76/76
f 83/83/83 79/79/79 80/80/80
f 79/79/79 83/83/83 77/77/77
f 80/80/80 81/81/81 83/83/83
f 77/77/77 84/84/84 78/78/78
f 84/84/84 77/77/77 83/83/83
f 85/85/85 78/78/78 84/84/84
f 81/81/81 82/82/82 86/86/86
f 86/86/86 83/83/83 81/81/81
f 83/83/83 86/86/86 84/84/84
f 87/87/87 86/86/86 82/82/82
f 84/84/84 88/88/88 85/85/85
f 88/88/88 84/84/84 86/86/86
f 86/86/86 87/87/87 88/88/88
f 89/89/89 85/85/85 88/88/88
f 90/90/90 88/88/88 87/87/87
f 88/88/88 90/90/90 89/89/89
f 91/91/91 89/89/89 90/90/90
