g Eff_Xplane_02
v 0.08143238 -0.7866544 -2.1833973E-08
v -0 -0.7068202 -2.1833973E-08
v 0.089415856 -0.72962964 -2.1833973E-08
v 0.18505849 -0.6242131 -2.1833973E-08
v 0.21201898 -0.64238155 -2.1833971E-08
v 0.31466356 -0.98795164 -2.1833971E-08
v 0.24566357 -0.5574146 -2.1833973E-08
v 0.34545687 -0.65492713 -2.1833971E-08
v -0 -0.49950308 -2.1833973E-08
v 0.23408127 -0.49950308 -2.1833971E-08
v 0.5 -0.49950308 -2.1833971E-08
v 0.48345664 -0.48670375 -2.1833971E-08
v 0.2251346 -0.45476988 -2.1833973E-08
v -0.15351784 -0.62078476 -2.1833975E-08
v 0.13689585 -0.3749344 -2.1833975E-08
v -0.24703074 -0.53574705 -2.1833975E-08
v -0.38788202 -0.49950308 -2.1833975E-08
v -0.25843593 -0.4684582 -2.1833973E-08
v -0.06455123 -0.7016883 -2.1833973E-08
v -0.059989154 -0.79064655 -2.1833973E-08
v -0.23106363 -0.65207714 -2.1833973E-08
v -0.48539406 -0.6589201 -2.1833975E-08
v -0.15465027 -0.73362213 -2.1833975E-08
v -0.16947673 -0.8049031 -2.1833975E-08
v -0.4317905 -0.91895247 -2.1833978E-08
v 0.22570485 -0.3903319 -2.1833973E-08
v 0.29869652 -0.38576996 -2.1833973E-08
v 0.116217576 -0.2922489 -2.1833975E-08
v 0.45152298 0.00049682986 -2.1833975E-08
v 0.045506928 -0.29224876 -2.1833975E-08
v 0.099680424 -0.24377777 -2.1833975E-08
v -0 -0.23750831 -2.1833975E-08
v -0.043452714 -0.30992973 -2.1833975E-08
v -0.17859644 -0.4095846 -2.1833975E-08
v -0.22022931 -0.38862357 -2.1833975E-08
v -0.34967548 -0.20785546 -2.1833978E-08
v -0.32401437 -0.4188467 -2.1833975E-08
v -2.1833973E-08 -0.45676315 0.22631995
v -2.1833973E-08 -0.38819927 0.22209346
v -2.1833973E-08 -0.39336503 0.29911035
v -2.1833975E-08 -0.36649635 0.1230464
v -2.1833973E-08 -0.49950308 0
v -2.1833975E-08 -0.28864098 0.112673126
v -2.1833978E-08 0.00049682974 0.45314422
v -2.1833975E-08 -0.2938068 0.03988279
v -2.1833975E-08 -0.25060216 0.10187204
v -2.1833975E-08 -0.23698331 0
v -2.1833975E-08 -0.34130275 -0.046041813
v -2.1833971E-08 -0.49950308 0.23433252
v -2.1833971E-08 -0.49950308 0.4719036
v -2.1833973E-08 -0.49210167 0.5
v -2.1833971E-08 -0.55914074 0.24551296
v -2.1833975E-08 -0.40616193 -0.14873555
v -2.1833971E-08 -0.5997309 0.18111347
v -2.1833975E-08 -0.47678667 -0.26055804
v -2.1833973E-08 -0.30676752 -0.16691479
v -2.1833973E-08 -0.2622704 -0.17621271
v -2.1833975E-08 -0.4024034 -0.22934362
v -2.1833975E-08 -0.21179605 -0.33626965
v -2.1833975E-08 -0.40838063 -0.3342772
v -2.1833971E-08 -0.6441502 0.21097782
v -2.1833971E-08 -0.6541122 0.3531031
v -2.1833971E-08 -0.6972 0.12565614
v -2.1833971E-08 -0.9881729 0.3105984
v -2.1833971E-08 -0.7238465 0.08279972
v -2.1833971E-08 -0.65256584 0.09728669
v -2.1833971E-08 -0.71388435 0
v -2.1833971E-08 -0.7975656 0.06553212
v -2.1833975E-08 -0.49950308 -0.2522761
v -2.1833975E-08 -0.49950308 -0.39139324
v -2.1833975E-08 -0.54054403 -0.2373134
v -2.1833975E-08 -0.5721268 -0.1986959
v -2.1833973E-08 -0.63285923 -0.30704802
v -2.1833975E-08 -0.6580964 -0.48370832
v -2.1833973E-08 -0.6182482 -0.19215237
v -2.1833973E-08 -0.66673017 -0.33095694
v -2.1833973E-08 -0.60082215 -0.16360903
v -2.1833971E-08 -0.64410186 -0.110689275
v -2.1833971E-08 -0.68067753 -0.06596677
v -2.1833971E-08 -0.7597098 -0.07260813
v -2.1833971E-08 -0.7344726 -0.1589458
v -2.1833975E-08 -0.90847623 -0.43057755
v -2.1833971E-08 -0.7942448 -0.16625129
vt 0.4242941 0.7846932
vt 0.5042635 0.7067454
vt 0.41634333 0.72861356
vt 0.3218253 0.62425494
vt 0.29552948 0.6420941
vt 0.19508809 0.9809723
vt 0.26193282 0.55812687
vt 0.16417998 0.6535263
vt 0.50301385 0.50234413
vt 0.27316558 0.5012467
vt 0.012055578 0.5
vt 0.028299764 0.48751825
vt 0.28168082 0.4571846
vt 0.65477943 0.62286747
vt 0.36784524 0.37888768
vt 0.74601436 0.53940636
vt 0.88388157 0.50416255
vt 0.7565642 0.47292805
vt 0.56798 0.702271
vt 0.564011 0.78993666
vt 0.73110354 0.65407705
vt 0.9815522 0.662542
vt 0.657119 0.7345488
vt 0.67222106 0.80498546
vt 0.9318704 0.9197429
vt 0.28075832 0.3936704
vt 0.20906748 0.38883692
vt 0.3876619 0.29747045
vt 0.059363708 0.009376666
vt 0.45708573 0.2977955
vt 0.4036219 0.24976954
vt 0.50143456 0.24403426
vt 0.544538 0.3156408
vt 0.6778229 0.41451544
vt 0.7185923 0.39405662
vt 0.84322613 0.21536314
vt 0.82061774 0.4242907
vt 0.27913684 0.45806155
vt 0.28326142 0.39078346
vt 0.2081015 0.3958523
vt 0.3799203 0.36948752
vt 0.4999999 0.49999994
vt 0.39004344 0.29309216
vt 0.05778155 0.009376666
vt 0.4610787 0.29816112
vt 0.40058407 0.25576672
vt 0.49999988 0.24240324
vt 0.5449316 0.34476635
vt 0.27131742 0.49999997
vt 0.039474513 0.5
vt 0.012055577 0.49273735
vt 0.26040658 0.55851924
vt 0.64514923 0.40840924
vt 0.32325333 0.59834814
vt 0.75427556 0.4777095
vt 0.6628902 0.31087875
vt 0.6719639 0.2672161
vt 0.7238138 0.40472114
vt 0.82816166 0.21768829
vt 0.8262173 0.41058627
vt 0.29410908 0.6419345
vt 0.15541062 0.6517097
vt 0.37737355 0.69398946
vt 0.1968905 0.97950566
vt 0.41919667 0.7201363
vt 0.40505895 0.65019226
vt 0.49999994 0.7103609
vt 0.4360479 0.79247296
vt 0.7461933 0.49999988
vt 0.88195616 0.49999988
vt 0.7315914 0.5402712
vt 0.69390506 0.57126176
vt 0.79964465 0.6308552
vt 0.9720454 0.6556191
vt 0.68751925 0.61651826
vt 0.82297707 0.664091
vt 0.65966415 0.59941894
vt 0.60802037 0.641887
vt 0.5643762 0.6777768
vt 0.5708574 0.755327
vt 0.65511334 0.73056304
vt 0.9201957 0.9013035
vt 0.6622427 0.7892144
vn -0 0 1
vn -0 0 1
vn -0 0 1
vn -0 0 1
vn -0 0 1
vn -0 0 1
vn -0 0 1
vn -0 0 1
vn -0 0 1
vn -0 0 1
vn -0 0 1
vn -0 0 1
vn -0 0 1
vn -0 0 1
vn -0 0 1
vn -0 0 1
vn -0 0 1
vn -0 0 1
vn -0 0 1
vn -0 0 1
vn -0 0 1
vn -0 0 1
vn -0 0 1
vn -0 0 1
vn -0 0 1
vn -0 0 1
vn -0 0 1
vn -0 0 1
vn -0 0 1
vn -0 0 1
vn -0 0 1
vn -0 0 1
vn -0 0 1
vn -0 0 1
vn -0 0 1
vn -0 0 1
vn -0 0 1
vn -1 0 0
vn -1 0 0
vn -1 0 0
vn -1 0 0
vn -1 0 0
vn -1 0 0
vn -1 0 0
vn -1 0 0
vn -1 0 0
vn -1 0 0
vn -1 0 0
vn -1 0 0
vn -1 0 0
vn -1 0 0
vn -1 0 0
vn -1 0 0
vn -1 0 0
vn -1 0 0
vn -1 0 0
vn -1 0 0
vn -1 0 0
vn -1 0 0
vn -1 0 0
vn -1 0 0
vn -1 0 0
vn -1 0 0
vn -1 0 0
vn -1 0 0
vn -1 0 0
vn -1 0 0
vn -1 0 0
vn -1 0 0
vn -1 0 0
vn -1 0 0
vn -1 0 0
vn -1 0 0
vn -1 0 0
vn -1 0 0
vn -1 0 0
vn -1 0 0
vn -1 0 0
vn -1 0 0
vn -1 0 0
vn -1 0 0
vn -1 0 0
vn -1 0 0
g Eff_Xplane_02_0
f 3/3/3 2/2/2 1/1/1
f 2/2/2 3/3/3 4/4/4
f 5/5/5 4/4/4 3/3/3
f 6/6/6 5/5/5 3/3/3
f 7/7/7 4/4/4 5/5/5
f 8/8/8 7/7/7 5/5/5
f 9/9/9 4/4/4 7/7/7
f 9/9/9 2/2/2 4/4/4
f 10/10/10 9/9/9 7/7/7
f 11/11/11 10/10/10 7/7/7
f 11/11/11 12/12/12 10/10/10
f 12/12/12 13/13/13 10/10/10
f 9/9/9 10/10/10 13/13/13
f 2/2/2 9/9/9 14/14/14
f 15/15/15 9/9/9 13/13/13
f 14/14/14 9/9/9 16/16/16
f 9/9/9 17/17/17 16/16/16
f 17/17/17 9/9/9 18/18/18
f 19/19/19 2/2/2 14/14/14
f 20/20/20 2/2/2 19/19/19
f 21/21/21 14/14/14 16/16/16
f 22/22/22 21/21/21 16/16/16
f 19/19/19 14/14/14 23/23/23
f 23/23/23 14/14/14 21/21/21
f 24/24/24 19/19/19 23/23/23
f 25/25/25 23/23/23 21/21/21
f 26/26/26 15/15/15 13/13/13
f 27/27/27 26/26/26 13/13/13
f 28/28/28 15/15/15 26/26/26
f 29/29/29 28/28/28 26/26/26
f 30/30/30 15/15/15 28/28/28
f 31/31/31 30/30/30 28/28/28
f 9/9/9 15/15/15 30/30/30
f 32/32/32 9/9/9 30/30/30
f 32/32/32 33/33/33 9/9/9
f 33/33/33 34/34/34 9/9/9
f 9/9/9 34/34/34 18/18/18
f 34/34/34 33/33/33 35/35/35
f 18/18/18 34/34/34 35/35/35
f 33/33/33 36/36/36 35/35/35
f 37/37/37 18/18/18 35/35/35
f 40/40/40 39/39/39 38/38/38
f 39/39/39 41/41/41 38/38/38
f 41/41/41 42/42/42 38/38/38
f 43/43/43 41/41/41 39/39/39
f 44/44/44 43/43/43 39/39/39
f 45/45/45 41/41/41 43/43/43
f 42/42/42 41/41/41 45/45/45
f 46/46/46 45/45/45 43/43/43
f 47/47/47 42/42/42 45/45/45
f 47/47/47 48/48/48 42/42/42
f 42/42/42 49/49/49 38/38/38
f 38/38/38 49/49/49 50/50/50
f 51/51/51 38/38/38 50/50/50
f 50/50/50 49/49/49 52/52/52
f 49/49/49 42/42/42 52/52/52
f 48/48/48 53/53/53 42/42/42
f 42/42/42 54/54/54 52/52/52
f 42/42/42 53/53/53 55/55/55
f 56/56/56 53/53/53 48/48/48
f 57/57/57 56/56/56 48/48/48
f 58/58/58 53/53/53 56/56/56
f 55/55/55 53/53/53 58/58/58
f 59/59/59 58/58/58 56/56/56
f 60/60/60 55/55/55 58/58/58
f 52/52/52 54/54/54 61/61/61
f 62/62/62 52/52/52 61/61/61
f 61/61/61 54/54/54 63/63/63
f 61/61/61 63/63/63 64/64/64
f 64/64/64 63/63/63 65/65/65
f 54/54/54 66/66/66 63/63/63
f 54/54/54 42/42/42 66/66/66
f 65/65/65 63/63/63 67/67/67
f 63/63/63 66/66/66 67/67/67
f 67/67/67 66/66/66 42/42/42
f 67/67/67 68/68/68 65/65/65
f 69/69/69 42/42/42 55/55/55
f 70/70/70 69/69/69 55/55/55
f 70/70/70 71/71/71 69/69/69
f 71/71/71 72/72/72 69/69/69
f 72/72/72 42/42/42 69/69/69
f 73/73/73 72/72/72 71/71/71
f 74/74/74 73/73/73 71/71/71
f 75/75/75 72/72/72 73/73/73
f 73/73/73 76/76/76 75/75/75
f 77/77/77 42/42/42 72/72/72
f 75/75/75 77/77/77 72/72/72
f 78/78/78 42/42/42 77/77/77
f 67/67/67 42/42/42 78/78/78
f 78/78/78 77/77/77 75/75/75
f 79/79/79 67/67/67 78/78/78
f 80/80/80 67/67/67 79/79/79
f 81/81/81 78/78/78 75/75/75
f 79/79/79 78/78/78 81/81/81
f 75/75/75 82/82/82 81/81/81
f 83/83/83 79/79/79 81/81/81
