g EFF_Technology_01
v -0 -19.824228 0
v 15.859381 1.9073486E-06 0.14168221
v 19.824228 0 0
v -1.9073486E-06 -15.859383 0.14168222
v 11.894537 1.9073486E-06 0.28336442
v -19.824228 0 0
v 1.9073486E-06 -11.894537 0.28336444
v 7.9296894 -1.9073486E-06 0.42504653
v -15.859383 -3.8146973E-06 0.14168224
v -0 19.824228 0
v -0 -7.9296913 0.42504656
v 3.9648418 -1.9073486E-06 0.56672883
v -1.9073486E-06 15.859385 0.14168222
v 19.824228 0 0
v 15.859381 1.9073486E-06 0.14168221
v -11.894537 -1.9073486E-06 0.28336447
v 1.9073486E-06 11.894535 0.28336442
v 11.894537 1.9073486E-06 0.28336442
v -0 -3.9648466 0.5667289
v -1.9073486E-06 -1.9073486E-06 0.7084111
v -7.9296913 -1.9073486E-06 0.42504662
v -1.9073486E-06 7.9296894 0.42504656
v 7.9296894 -1.9073486E-06 0.42504653
v -3.9648466 -1.9073486E-06 0.5667289
v -1.9073486E-06 -1.9073486E-06 0.7084111
v -1.9073486E-06 3.9648418 0.56672883
v -1.9073486E-06 -1.9073486E-06 0.7084111
v 3.9648418 -1.9073486E-06 0.56672883
v -1.9073486E-06 -1.9073486E-06 0.7084111
vt 0.7518453 0.0018187473
vt 0.99994487 0.20181881
vt 0.99994487 0.0018187473
vt 0.7518453 0.20181881
vt 0.99994487 0.4018188
vt 0.5017041 0.0018187473
vt 0.7518453 0.4018188
vt 0.99994487 0.6018188
vt 0.5017041 0.20181881
vt 0.2508334 0.0018187473
vt 0.7518453 0.6018188
vt 0.99994487 0.80181885
vt 0.2508334 0.20182793
vt 0.0003797028 0.0018187473
vt 0.0003797028 0.20181881
vt 0.5017041 0.4018188
vt 0.2508334 0.40183705
vt 0.0003797028 0.4018188
vt 0.7518453 0.80181885
vt 0.9986079 0.9999095
vt 0.5017041 0.6018188
vt 0.2508334 0.60184616
vt 0.0003797028 0.6018188
vt 0.5017041 0.80181885
vt 0.7518453 0.9999095
vt 0.2508334 0.80185527
vt 0.5017041 0.9999095
vt 0.0003797028 0.80181885
vt 0.2508334 0.9999095
vn -0 -0.035711814 0.9993622
vn 0.035711803 0 0.9993622
vn 0.035711803 0 0.9993622
vn -0 -0.03571182 0.9993622
vn 0.03571182 0 0.9993622
vn -0.03571183 0 0.9993622
vn -0 -0.035711814 0.9993622
vn 0.035711784 0 0.9993622
vn -0.035711825 0 0.9993622
vn -0 0.035711832 0.9993622
vn -0 -0.035711806 0.9993622
vn 0.035711832 0 0.9993622
vn -0 0.035711817 0.9993622
vn 0.035711803 0 0.9993622
vn 0.035711803 0 0.9993622
vn -0.035711817 0 0.9993622
vn -0 0.035711784 0.9993622
vn 0.03571182 0 0.9993622
vn -0 -0.035711847 0.9993622
vn 0.035689097 -0.03568906 0.9987255
vn -0.035711814 0 0.9993622
vn -0 0.035711806 0.9993622
vn 0.035711784 0 0.9993622
vn -0.035711836 0 0.9993622
vn -0.035689075 -0.03568909 0.9987255
vn -0 0.035711825 0.9993622
vn -0.035689067 0.035689093 0.9987255
vn 0.035711832 0 0.9993622
vn 0.035689093 0.035689093 0.9987255
g EFF_Technology_01_0
f 3/3/3 2/2/2 1/1/1
f 4/4/4 1/1/1 2/2/2
f 2/2/2 5/5/5 4/4/4
f 1/1/1 4/4/4 6/6/6
f 7/7/7 4/4/4 5/5/5
f 5/5/5 8/8/8 7/7/7
f 9/9/9 6/6/6 4/4/4
f 4/4/4 7/7/7 9/9/9
f 6/6/6 9/9/9 10/10/10
f 11/11/11 7/7/7 8/8/8
f 8/8/8 12/12/12 11/11/11
f 13/13/13 10/10/10 9/9/9
f 10/10/10 13/13/13 14/14/14
f 15/15/15 14/14/14 13/13/13
f 16/16/16 9/9/9 7/7/7
f 9/9/9 16/16/16 13/13/13
f 7/7/7 11/11/11 16/16/16
f 13/13/13 17/17/17 15/15/15
f 17/17/17 13/13/13 16/16/16
f 18/18/18 15/15/15 17/17/17
f 19/19/19 11/11/11 12/12/12
f 12/12/12 20/20/20 19/19/19
f 21/21/21 16/16/16 11/11/11
f 16/16/16 21/21/21 17/17/17
f 11/11/11 19/19/19 21/21/21
f 17/17/17 22/22/22 18/18/18
f 22/22/22 17/17/17 21/21/21
f 23/23/23 18/18/18 22/22/22
f 24/24/24 21/21/21 19/19/19
f 21/21/21 24/24/24 22/22/22
f 19/19/19 25/25/25 24/24/24
f 22/22/22 26/26/26 23/23/23
f 26/26/26 22/22/22 24/24/24
f 24/24/24 27/27/27 26/26/26
f 28/28/28 23/23/23 26/26/26
f 26/26/26 29/29/29 28/28/28
