g Eff_Cone_01
v 0.11453921 0.57583404 0.243191
v -2.5663612E-08 0.587115 0.243191
v -2.7244345E-08 0.62327796 0.12397772
v 0.12159417 0.61130214 0.12397772
v 0.22467807 0.542424 0.243191
v -2.7778096E-08 0.63548875 4.7978066E-08
v 0.23851696 0.5758343 0.12397772
v 0.32618266 0.48816895 0.243191
v 0.12397635 0.62327826 4.7978066E-08
v -2.7244347E-08 0.623278 -0.123977624
v 0.34627363 0.5182374 0.12397772
v 0.4151522 0.4151538 0.243191
v 0.24318978 0.5871156 4.7978066E-08
v 0.121594176 0.6113022 -0.123977624
v -2.5663613E-08 0.58711505 -0.24319091
v 0.11453921 0.5758341 -0.24319091
v 0.23851697 0.57583433 -0.123977624
v 0.22467808 0.5424241 -0.24319091
v 0.4407232 0.4407249 0.12397772
v 0.48816767 0.32618454 0.243191
v 0.35305756 0.5283903 4.7978066E-08
v 0.34627366 0.5182374 -0.123977624
v 0.3261827 0.488169 -0.24319091
v 0.51823604 0.34627566 0.12397772
v 0.5424231 0.22468014 0.243191
v 0.4493575 0.44935924 4.7978066E-08
v 0.44072327 0.44072497 -0.123977624
v 0.41515222 0.41515386 -0.24319091
v 0.5758333 0.23851916 0.12397772
v 0.57583356 0.11454143 0.243191
v 0.5283889 0.35305962 4.7978066E-08
v 0.5182361 0.3462757 -0.123977624
v 0.48816773 0.32618454 -0.24319091
v 0.61130166 0.12159653 0.12397772
v 0.587115 9.4252925E-07 0.243191
v 0.5871146 0.24319206 4.7978066E-08
v 0.5758334 0.23851918 -0.123977624
v 0.5424232 0.22468017 -0.24319091
v 0.62327796 1.0005837E-06 0.12397772
v 0.5758339 -0.11453958 0.243191
v 0.6232778 0.12397875 4.7978066E-08
v 0.61130166 0.121596545 -0.123977624
v 0.5758336 0.11454144 -0.24319091
v 0.611302 -0.12159456 0.12397772
v 0.54242384 -0.2246784 0.243191
v 0.63548875 1.0201863E-06 4.7978066E-08
v 0.623278 1.0005838E-06 -0.123977624
v 0.58711505 9.425293E-07 -0.24319091
v 0.5758341 -0.2385173 0.12397772
v 0.48816875 -0.32618296 0.243191
v 0.62327814 -0.123976745 4.7978066E-08
v 0.6113021 -0.12159456 -0.123977624
v 0.575834 -0.11453958 -0.24319091
v 0.5182372 -0.346274 0.12397772
v 0.41515353 -0.4151525 0.243191
v 0.5871154 -0.24319015 4.7978066E-08
v 0.57583416 -0.23851733 -0.123977624
v 0.5424239 -0.22467841 -0.24319091
v 0.4407246 -0.44072354 0.12397772
v 0.32618424 -0.4881679 0.243191
v 0.52839005 -0.35305792 4.7978066E-08
v 0.51823723 -0.34627402 -0.123977624
v 0.48816878 -0.326183 -0.24319091
v 0.34627533 -0.5182363 0.12397772
v 0.2246798 -0.5424233 0.243191
v 0.44935897 -0.4493578 4.7978066E-08
v 0.44072464 -0.44072354 -0.123977624
v 0.41515353 -0.4151525 -0.24319091
v 0.23851879 -0.5758335 0.12397772
v 0.11454106 -0.5758337 0.243191
v 0.35305926 -0.52838916 4.7978066E-08
v 0.34627533 -0.51823634 -0.123977624
v 0.32618424 -0.4881679 -0.24319091
v 0.12159614 -0.6113017 0.12397772
v 5.669178E-07 -0.587115 0.243191
v 0.24319167 -0.58711475 4.7978066E-08
v 0.23851882 -0.5758335 -0.123977624
v 0.22467981 -0.5424233 -0.24319091
v 6.018367E-07 -0.62327796 0.12397772
v -0.11453994 -0.57583386 0.243191
v 0.123978354 -0.62327784 4.7978066E-08
v 0.12159614 -0.6113018 -0.123977624
v 0.11454107 -0.5758337 -0.24319091
v -0.121594965 -0.61130196 0.12397772
v -0.22467875 -0.5424237 0.243191
v 6.136274E-07 -0.63548875 4.7978066E-08
v 6.018367E-07 -0.623278 -0.123977624
v 5.669178E-07 -0.58711505 -0.24319091
v -0.23851769 -0.575834 0.12397772
v -0.32618326 -0.48816854 0.243191
v -0.123977154 -0.6232781 4.7978066E-08
v -0.12159497 -0.611302 -0.123977624
v -0.11453996 -0.57583386 -0.24319091
v -0.34627432 -0.51823694 0.12397772
v -0.41515276 -0.41515326 0.243191
v -0.24319053 -0.5871152 4.7978066E-08
v -0.23851769 -0.575834 -0.123977624
v -0.22467877 -0.5424238 -0.24319091
v -0.4407238 -0.44072437 0.12397772
v -0.48816812 -0.32618392 0.243191
v -0.35305825 -0.5283899 4.7978066E-08
v -0.34627432 -0.518237 -0.123977624
v -0.32618332 -0.48816857 -0.24319091
v -0.5182365 -0.346275 0.12397772
v -0.5424234 -0.22467944 0.243191
v -0.4493581 -0.4493587 4.7978066E-08
v -0.44072384 -0.44072437 -0.123977624
v -0.4151528 -0.4151533 -0.24319091
v -0.5758336 -0.23851843 0.12397772
v -0.57583374 -0.114540696 0.243191
v -0.5283894 -0.3530589 4.7978066E-08
v -0.5182365 -0.34627503 -0.123977624
v -0.48816815 -0.32618392 -0.24319091
v -0.6113018 -0.12159575 0.12397772
v -0.587115 -1.9130637E-07 0.243191
v -0.58711493 -0.24319129 4.7978066E-08
v -0.5758337 -0.23851845 -0.123977624
v -0.5424234 -0.22467947 -0.24319091
v -0.62327796 -2.0308974E-07 0.12397772
v -0.5758338 0.114540316 0.243191
v -0.6232779 -0.12397796 4.7978066E-08
v -0.61130184 -0.121595755 -0.123977624
v -0.5758338 -0.1145407 -0.24319091
v -0.6113019 0.12159535 0.12397772
v -0.5424236 0.2246791 0.243191
v -0.63548875 -2.0706852E-07 4.7978066E-08
v -0.623278 -2.0308975E-07 -0.123977624
v -0.58711505 -1.9130637E-07 -0.24319091
v -0.5758338 0.23851806 0.12397772
v -0.4881683 0.32618362 0.243191
v -0.623278 0.12397755 4.7978066E-08
v -0.6113019 0.12159536 -0.123977624
v -0.5758338 0.11454032 -0.24319091
v -0.5182367 0.34627464 0.12397772
v -0.415153 0.415153 0.243191
v -0.5871151 0.24319091 4.7978066E-08
v -0.57583386 0.23851807 -0.123977624
v -0.54242367 0.22467911 -0.24319091
v -0.44072407 0.44072407 0.12397772
v -0.32618362 0.4881683 0.243191
v -0.52838963 0.3530586 4.7978066E-08
v -0.51823676 0.34627467 -0.123977624
v -0.48816836 0.32618362 -0.24319091
v -0.34627464 0.5182367 0.12397772
v -0.22467917 0.54242355 0.243191
v -0.44935837 0.44935837 4.7978066E-08
v -0.4407241 0.4407241 -0.123977624
v -0.41515303 0.41515303 -0.24319091
v -0.23851813 0.5758338 0.12397772
v -0.11454046 0.5758338 0.243191
v -0.3530586 0.52838963 4.7978066E-08
v -0.34627467 0.51823676 -0.123977624
v -0.32618362 0.48816836 -0.24319091
v -0.1215955 0.61130184 0.12397772
v -2.5663612E-08 0.587115 0.243191
v -2.7244345E-08 0.62327796 0.12397772
v -0.24319099 0.58711505 4.7978066E-08
v -0.23851813 0.5758338 -0.123977624
v -0.22467919 0.5424236 -0.24319091
v -0.123977706 0.62327796 4.7978066E-08
v -2.7778096E-08 0.63548875 4.7978066E-08
v -0.1215955 0.6113019 -0.123977624
v -0.11454047 0.5758338 -0.24319091
v -2.7244347E-08 0.623278 -0.123977624
v -2.5663613E-08 0.58711505 -0.24319091
vt 0.96720684 0.9983243
vt 0.99833405 0.9983243
vt 0.99833405 0.74930966
vt 0.96720684 0.74930966
vt 0.9360798 0.9983243
vt 0.99833405 0.50029504
vt 0.9360798 0.74930966
vt 0.9049527 0.9983243
vt 0.96720684 0.50029504
vt 0.99833405 0.25128073
vt 0.9049527 0.74930966
vt 0.87382555 0.9983243
vt 0.9360798 0.50029504
vt 0.96720684 0.25128073
vt 0.99833405 0.0022661272
vt 0.96720684 0.0022661272
vt 0.9360798 0.25128073
vt 0.9360798 0.0022661272
vt 0.87382555 0.74930966
vt 0.8426985 0.9983243
vt 0.9049527 0.50029504
vt 0.9049527 0.25128073
vt 0.9049527 0.0022661272
vt 0.8426985 0.74930966
vt 0.81157136 0.9983243
vt 0.87382555 0.50029504
vt 0.87382555 0.25128073
vt 0.87382555 0.0022661272
vt 0.81157136 0.74930966
vt 0.7804442 0.9983243
vt 0.8426985 0.50029504
vt 0.8426985 0.25128073
vt 0.8426985 0.0022661272
vt 0.7804442 0.74930966
vt 0.74931705 0.9983243
vt 0.81157136 0.50029504
vt 0.81157136 0.25128073
vt 0.81157136 0.0022661272
vt 0.74931705 0.74930966
vt 0.71819 0.9983243
vt 0.7804442 0.50029504
vt 0.7804442 0.25128073
vt 0.7804442 0.0022661272
vt 0.71819 0.74930966
vt 0.68706286 0.9983243
vt 0.74931705 0.50029504
vt 0.74931705 0.25128073
vt 0.74931705 0.0022661272
vt 0.68706286 0.74930966
vt 0.65593565 0.9983243
vt 0.71819 0.50029504
vt 0.71819 0.25128073
vt 0.71819 0.0022661272
vt 0.65593565 0.74930966
vt 0.62480855 0.9983243
vt 0.68706286 0.50029504
vt 0.68706286 0.25128073
vt 0.68706286 0.0022661272
vt 0.62480855 0.74930966
vt 0.5936815 0.9983243
vt 0.65593565 0.50029504
vt 0.65593565 0.25128073
vt 0.65593565 0.0022661272
vt 0.5936815 0.74930966
vt 0.56255436 0.9983243
vt 0.62480855 0.50029504
vt 0.62480855 0.25128073
vt 0.62480855 0.0022661272
vt 0.56255436 0.74930966
vt 0.53142726 0.9983243
vt 0.5936815 0.50029504
vt 0.5936815 0.25128073
vt 0.5936815 0.0022661272
vt 0.53142726 0.74930966
vt 0.5003001 0.9983243
vt 0.56255436 0.50029504
vt 0.56255436 0.25128073
vt 0.56255436 0.0022661272
vt 0.5003001 0.74930966
vt 0.46917298 0.9983243
vt 0.53142726 0.50029504
vt 0.53142726 0.25128073
vt 0.53142726 0.0022661272
vt 0.46917298 0.74930966
vt 0.4380458 0.9983243
vt 0.5003001 0.50029504
vt 0.5003001 0.25128073
vt 0.5003001 0.0022661272
vt 0.4380458 0.74930966
vt 0.40691873 0.9983243
vt 0.46917298 0.50029504
vt 0.46917298 0.25128073
vt 0.46917298 0.0022661272
vt 0.40691873 0.74930966
vt 0.3757916 0.9983243
vt 0.4380458 0.50029504
vt 0.4380458 0.25128073
vt 0.4380458 0.0022661272
vt 0.3757916 0.74930966
vt 0.34466445 0.9983243
vt 0.40691873 0.50029504
vt 0.40691873 0.25128073
vt 0.40691873 0.0022661272
vt 0.34466445 0.74930966
vt 0.31353736 0.9983243
vt 0.3757916 0.50029504
vt 0.3757916 0.25128073
vt 0.3757916 0.0022661272
vt 0.31353736 0.74930966
vt 0.28241026 0.9983243
vt 0.34466445 0.50029504
vt 0.34466445 0.25128073
vt 0.34466445 0.0022661272
vt 0.28241026 0.74930966
vt 0.25128317 0.9983243
vt 0.31353736 0.50029504
vt 0.31353736 0.25128073
vt 0.31353736 0.0022661272
vt 0.25128317 0.74930966
vt 0.22015603 0.9983243
vt 0.28241026 0.50029504
vt 0.28241026 0.25128073
vt 0.28241026 0.0022661272
vt 0.22015603 0.74930966
vt 0.18902892 0.9983243
vt 0.25128317 0.50029504
vt 0.25128317 0.25128073
vt 0.25128317 0.0022661272
vt 0.18902892 0.74930966
vt 0.15790178 0.9983243
vt 0.22015603 0.50029504
vt 0.22015603 0.25128073
vt 0.22015603 0.0022661272
vt 0.15790178 0.74930966
vt 0.12677471 0.9983243
vt 0.18902892 0.50029504
vt 0.18902892 0.25128073
vt 0.18902892 0.0022661272
vt 0.12677471 0.74930966
vt 0.0956476 0.9983243
vt 0.15790178 0.50029504
vt 0.15790178 0.25128073
vt 0.15790178 0.0022661272
vt 0.0956476 0.74930966
vt 0.064520486 0.9983243
vt 0.12677471 0.50029504
vt 0.12677471 0.25128073
vt 0.12677471 0.0022661272
vt 0.064520486 0.74930966
vt 0.033393383 0.9983243
vt 0.0956476 0.50029504
vt 0.0956476 0.25128073
vt 0.0956476 0.0022661272
vt 0.033393383 0.74930966
vt 0.0022662734 0.9983243
vt 0.0022662734 0.74930966
vt 0.064520486 0.50029504
vt 0.064520486 0.25128073
vt 0.064520486 0.0022661272
vt 0.033393383 0.50029504
vt 0.0022662734 0.50029504
vt 0.033393383 0.25128073
vt 0.033393383 0.0022661272
vt 0.0022662734 0.25128073
vt 0.0022662734 0.0022661272
vn 0.18668821 0.9385533 0.2902846
vn -6.878769E-07 0.95694035 0.29028457
vn -7.3700494E-07 0.9810153 0.19393013
vn 0.191385 0.9621657 0.19393012
vn 0.36620346 0.88409835 0.29028472
vn -7.275857E-07 1 1.4937189E-07
vn 0.3754165 0.9063408 0.19393015
vn 0.5316462 0.79566777 0.29028457
vn 0.19508864 0.98078555 1.5659957E-07
vn -7.0328593E-07 0.98101544 -0.19392996
vn 0.5450214 0.81568545 0.19393009
vn 0.6766577 0.67666024 0.29028466
vn 0.3826816 0.92388034 1.7346417E-07
vn 0.19138494 0.96216583 -0.19392997
vn -6.504414E-07 0.95694035 -0.29028463
vn 0.1866882 0.9385533 -0.29028466
vn 0.37541658 0.9063408 -0.19393
vn 0.3662035 0.88409835 -0.2902846
vn 0.6936813 0.6936839 0.19393006
vn 0.79566586 0.531649 0.2902846
vn 0.5555687 0.8314706 0
vn 0.54502136 0.8156856 -0.19392984
vn 0.531646 0.79566795 -0.2902844
vn 0.8156834 0.54502445 0.19393012
vn 0.88409686 0.36620682 0.29028472
vn 0.70710534 0.70710814 2.1080712E-07
vn 0.69368124 0.693684 -0.19392985
vn 0.6766577 0.6766602 -0.29028472
vn 0.9063393 0.37541986 0.1939301
vn 0.9385526 0.18669139 0.29028463
vn 0.8314685 0.5555718 2.2285326E-07
vn 0.8156835 0.54502445 -0.19392999
vn 0.79566586 0.531649 -0.29028478
vn 0.9621652 0.19138822 0.1939301
vn 0.95694035 1.4576437E-06 0.29028463
vn 0.9238788 0.382685 1.7948719E-07
vn 0.9063394 0.3754198 -0.19392999
vn 0.8840969 0.36620674 -0.29028472
vn 0.9810153 1.5498783E-06 0.19393015
vn 0.9385533 -0.18668836 0.29028466
vn 0.9807849 0.19509195 1.7466874E-07
vn 0.9621652 0.19138826 -0.19392999
vn 0.9385526 0.18669148 -0.2902846
vn 0.9621657 -0.19138512 0.19393012
vn 0.88409805 -0.36620387 0.29028475
vn 1 1.5635867E-06 1.5178115E-07
vn 0.98101544 1.5330189E-06 -0.19392997
vn 0.95694035 1.4693425E-06 -0.29028466
vn 0.9063406 -0.37541693 0.19393021
vn 0.7956675 -0.5316465 0.29028475
vn 0.98078555 -0.19508876 1.5900878E-07
vn 0.9621657 -0.19138506 -0.19392997
vn 0.9385533 -0.18668836 -0.29028475
vn 0.81568515 -0.5450219 0.19393012
vn 0.67665994 -0.6766581 0.29028457
vn 0.9238801 -0.38268203 1.6623648E-07
vn 0.9063406 -0.37541693 -0.19393003
vn 0.8840982 -0.36620387 -0.29028472
vn 0.6936835 -0.6936817 0.19393009
vn 0.5316486 -0.7956662 0.29028457
vn 0.83147025 -0.55556923 1.9394257E-07
vn 0.81568515 -0.5450219 -0.19392996
vn 0.7956674 -0.53164655 -0.2902847
vn 0.5450239 -0.8156838 0.19393006
vn 0.36620614 -0.88409716 0.2902847
vn 0.70710766 -0.7071059 1.3612117E-07
vn 0.6936833 -0.6936818 -0.19393004
vn 0.67665976 -0.67665815 -0.29028472
vn 0.37541923 -0.9063396 0.19393006
vn 0.18669079 -0.93855286 0.2902846
vn 0.55557126 -0.83146894 1.02392036E-07
vn 0.5450239 -0.8156838 -0.19393004
vn 0.5316485 -0.79566616 -0.29028478
vn 0.19138758 -0.9621652 0.19393003
vn 8.3059956E-07 -0.95694035 0.29028463
vn 0.38268435 -0.9238791 0
vn 0.37541932 -0.9063396 -0.19392996
vn 0.36620635 -0.88409716 -0.29028448
vn 9.260734E-07 -0.9810153 0.19393012
vn -0.18668887 -0.93855315 0.2902847
vn 0.1950914 -0.980785 1.3853038E-07
vn 0.1913877 -0.96216524 -0.1939299
vn 0.18669085 -0.93855286 -0.29028454
vn -0.19138566 -0.9621656 0.19393012
vn -0.36620447 -0.8840979 0.2902846
vn 9.3959756E-07 -1 1.5780421E-07
vn 9.2005223E-07 -0.98101544 -0.19392996
vn 8.516571E-07 -0.95694035 -0.29028463
vn -0.37541753 -0.9063403 0.19393012
vn -0.531647 -0.79566723 0.29028463
vn -0.19508938 -0.9807854 1.6744107E-07
vn -0.19138567 -0.9621656 -0.19392996
vn -0.1866889 -0.93855315 -0.29028466
vn -0.5450223 -0.81568485 0.19393021
vn -0.6766586 -0.6766595 0.29028472
vn -0.3826826 -0.9238799 1.7707801E-07
vn -0.3754175 -0.90634036 -0.19392999
vn -0.36620435 -0.884098 -0.2902845
vn -0.6936821 -0.6936831 0.19393018
vn -0.7956665 -0.53164804 0.29028466
vn -0.5555696 -0.83147 1.3612117E-07
vn -0.5450224 -0.81568485 -0.19393
vn -0.531647 -0.79566723 -0.29028454
vn -0.81568426 -0.54502326 0.19393009
vn -0.8840975 -0.36620554 0.29028445
vn -0.70710623 -0.70710725 0
vn -0.69368213 -0.69368315 -0.19392997
vn -0.67665863 -0.6766594 -0.29028454
vn -0.9063399 -0.3754187 0.19393004
vn -0.938553 -0.18669021 0.29028445
vn -0.83146936 -0.5555706 0
vn -0.8156842 -0.5450233 -0.19392994
vn -0.79566664 -0.5316479 -0.29028463
vn -0.96216524 -0.19138706 0.19393003
vn -0.95694035 -2.0121566E-07 0.29028457
vn -0.92387944 -0.38268384 1.469627E-07
vn -0.9063399 -0.37541875 -0.19393001
vn -0.8840974 -0.3662056 -0.29028463
vn -0.9810153 -2.998599E-07 0.19393012
vn -0.93855304 0.18668947 0.29028466
vn -0.98078525 -0.19509079 1.5178112E-07
vn -0.96216536 -0.1913871 -0.19392991
vn -0.938553 -0.18669036 -0.29028457
vn -0.9621655 0.19138628 0.19393013
vn -0.8840977 0.36620504 0.29028466
vn -1 -3.0717612E-07 1.565996E-07
vn -0.98101544 -2.8420462E-07 -0.19392997
vn -0.95694035 -2.0121567E-07 -0.2902847
vn -0.90634 0.37541816 0.19393012
vn -0.7956668 0.5316477 0.29028454
vn -0.98078537 0.19509001 1.6744109E-07
vn -0.9621655 0.19138631 -0.19393
vn -0.93855304 0.18668954 -0.29028475
vn -0.81568444 0.54502285 0.19393021
vn -0.67665905 0.676659 0.29028463
vn -0.9238796 0.3826832 2.1442096E-07
vn -0.90634006 0.37541813 -0.19393003
vn -0.8840977 0.36620504 -0.29028466
vn -0.6936826 0.6936826 0.19393015
vn -0.5316476 0.7956668 0.29028457
vn -0.8314696 0.5555702 1.9514717E-07
vn -0.81568444 0.5450229 -0.19393004
vn -0.7956668 0.53164756 -0.29028466
vn -0.5450229 0.81568444 0.19393018
vn -0.3662053 0.8840976 0.29028463
vn -0.70710677 0.7071068 2.2405783E-07
vn -0.6936827 0.6936826 -0.19392999
vn -0.676659 0.676659 -0.2902847
vn -0.37541828 0.90634 0.19393016
vn -0.18668973 0.93855304 0.2902845
vn -0.55557024 0.83146954 2.1923942E-07
vn -0.54502285 0.81568444 -0.19393007
vn -0.53164756 0.7956668 -0.29028463
vn -0.19138655 0.96216536 0.19393004
vn -6.878769E-07 0.95694035 0.29028457
vn -7.3700494E-07 0.9810153 0.19393013
vn -0.3826832 0.9238796 1.12028935E-07
vn -0.37541822 0.90634006 -0.19393
vn -0.36620522 0.8840976 -0.29028457
vn -0.1950903 0.98078525 1.4937191E-07
vn -7.275857E-07 1 1.4937189E-07
vn -0.19138661 0.9621655 -0.19392988
vn -0.18668985 0.93855304 -0.29028454
vn -7.0328593E-07 0.98101544 -0.19392996
vn -6.504414E-07 0.95694035 -0.29028463
g Eff_Cone_01_0
f 3/3/3 2/2/2 1/1/1
f 4/4/4 3/3/3 1/1/1
f 4/4/4 1/1/1 5/5/5
f 6/6/6 3/3/3 4/4/4
f 7/7/7 4/4/4 5/5/5
f 7/7/7 5/5/5 8/8/8
f 9/9/9 6/6/6 4/4/4
f 9/9/9 4/4/4 7/7/7
f 10/10/10 6/6/6 9/9/9
f 11/11/11 7/7/7 8/8/8
f 11/11/11 8/8/8 12/12/12
f 13/13/13 9/9/9 7/7/7
f 13/13/13 7/7/7 11/11/11
f 14/14/14 10/10/10 9/9/9
f 14/14/14 9/9/9 13/13/13
f 15/15/15 10/10/10 14/14/14
f 16/16/16 15/15/15 14/14/14
f 16/16/16 14/14/14 17/17/17
f 17/17/17 14/14/14 13/13/13
f 18/18/18 16/16/16 17/17/17
f 19/19/19 11/11/11 12/12/12
f 19/19/19 12/12/12 20/20/20
f 21/21/21 13/13/13 11/11/11
f 17/17/17 13/13/13 21/21/21
f 21/21/21 11/11/11 19/19/19
f 18/18/18 17/17/17 22/22/22
f 22/22/22 17/17/17 21/21/21
f 23/23/23 18/18/18 22/22/22
f 24/24/24 19/19/19 20/20/20
f 24/24/24 20/20/20 25/25/25
f 26/26/26 21/21/21 19/19/19
f 22/22/22 21/21/21 26/26/26
f 26/26/26 19/19/19 24/24/24
f 23/23/23 22/22/22 27/27/27
f 27/27/27 22/22/22 26/26/26
f 28/28/28 23/23/23 27/27/27
f 29/29/29 24/24/24 25/25/25
f 29/29/29 25/25/25 30/30/30
f 31/31/31 26/26/26 24/24/24
f 27/27/27 26/26/26 31/31/31
f 31/31/31 24/24/24 29/29/29
f 28/28/28 27/27/27 32/32/32
f 32/32/32 27/27/27 31/31/31
f 33/33/33 28/28/28 32/32/32
f 34/34/34 29/29/29 30/30/30
f 34/34/34 30/30/30 35/35/35
f 36/36/36 31/31/31 29/29/29
f 32/32/32 31/31/31 36/36/36
f 36/36/36 29/29/29 34/34/34
f 33/33/33 32/32/32 37/37/37
f 37/37/37 32/32/32 36/36/36
f 38/38/38 33/33/33 37/37/37
f 39/39/39 34/34/34 35/35/35
f 39/39/39 35/35/35 40/40/40
f 41/41/41 36/36/36 34/34/34
f 37/37/37 36/36/36 41/41/41
f 41/41/41 34/34/34 39/39/39
f 38/38/38 37/37/37 42/42/42
f 42/42/42 37/37/37 41/41/41
f 43/43/43 38/38/38 42/42/42
f 44/44/44 39/39/39 40/40/40
f 44/44/44 40/40/40 45/45/45
f 46/46/46 41/41/41 39/39/39
f 42/42/42 41/41/41 46/46/46
f 46/46/46 39/39/39 44/44/44
f 43/43/43 42/42/42 47/47/47
f 47/47/47 42/42/42 46/46/46
f 48/48/48 43/43/43 47/47/47
f 49/49/49 44/44/44 45/45/45
f 49/49/49 45/45/45 50/50/50
f 51/51/51 46/46/46 44/44/44
f 47/47/47 46/46/46 51/51/51
f 51/51/51 44/44/44 49/49/49
f 48/48/48 47/47/47 52/52/52
f 52/52/52 47/47/47 51/51/51
f 53/53/53 48/48/48 52/52/52
f 54/54/54 49/49/49 50/50/50
f 54/54/54 50/50/50 55/55/55
f 56/56/56 51/51/51 49/49/49
f 52/52/52 51/51/51 56/56/56
f 56/56/56 49/49/49 54/54/54
f 53/53/53 52/52/52 57/57/57
f 57/57/57 52/52/52 56/56/56
f 58/58/58 53/53/53 57/57/57
f 59/59/59 54/54/54 55/55/55
f 59/59/59 55/55/55 60/60/60
f 61/61/61 56/56/56 54/54/54
f 57/57/57 56/56/56 61/61/61
f 61/61/61 54/54/54 59/59/59
f 58/58/58 57/57/57 62/62/62
f 62/62/62 57/57/57 61/61/61
f 63/63/63 58/58/58 62/62/62
f 64/64/64 59/59/59 60/60/60
f 64/64/64 60/60/60 65/65/65
f 66/66/66 61/61/61 59/59/59
f 62/62/62 61/61/61 66/66/66
f 66/66/66 59/59/59 64/64/64
f 63/63/63 62/62/62 67/67/67
f 67/67/67 62/62/62 66/66/66
f 68/68/68 63/63/63 67/67/67
f 69/69/69 64/64/64 65/65/65
f 69/69/69 65/65/65 70/70/70
f 71/71/71 66/66/66 64/64/64
f 67/67/67 66/66/66 71/71/71
f 71/71/71 64/64/64 69/69/69
f 68/68/68 67/67/67 72/72/72
f 72/72/72 67/67/67 71/71/71
f 73/73/73 68/68/68 72/72/72
f 74/74/74 69/69/69 70/70/70
f 74/74/74 70/70/70 75/75/75
f 76/76/76 71/71/71 69/69/69
f 72/72/72 71/71/71 76/76/76
f 76/76/76 69/69/69 74/74/74
f 73/73/73 72/72/72 77/77/77
f 77/77/77 72/72/72 76/76/76
f 78/78/78 73/73/73 77/77/77
f 79/79/79 74/74/74 75/75/75
f 79/79/79 75/75/75 80/80/80
f 81/81/81 76/76/76 74/74/74
f 77/77/77 76/76/76 81/81/81
f 81/81/81 74/74/74 79/79/79
f 78/78/78 77/77/77 82/82/82
f 82/82/82 77/77/77 81/81/81
f 83/83/83 78/78/78 82/82/82
f 84/84/84 79/79/79 80/80/80
f 84/84/84 80/80/80 85/85/85
f 86/86/86 81/81/81 79/79/79
f 82/82/82 81/81/81 86/86/86
f 86/86/86 79/79/79 84/84/84
f 83/83/83 82/82/82 87/87/87
f 87/87/87 82/82/82 86/86/86
f 88/88/88 83/83/83 87/87/87
f 89/89/89 84/84/84 85/85/85
f 89/89/89 85/85/85 90/90/90
f 91/91/91 86/86/86 84/84/84
f 87/87/87 86/86/86 91/91/91
f 91/91/91 84/84/84 89/89/89
f 88/88/88 87/87/87 92/92/92
f 92/92/92 87/87/87 91/91/91
f 93/93/93 88/88/88 92/92/92
f 94/94/94 89/89/89 90/90/90
f 94/94/94 90/90/90 95/95/95
f 96/96/96 91/91/91 89/89/89
f 92/92/92 91/91/91 96/96/96
f 96/96/96 89/89/89 94/94/94
f 93/93/93 92/92/92 97/97/97
f 97/97/97 92/92/92 96/96/96
f 98/98/98 93/93/93 97/97/97
f 99/99/99 94/94/94 95/95/95
f 99/99/99 95/95/95 100/100/100
f 101/101/101 96/96/96 94/94/94
f 97/97/97 96/96/96 101/101/101
f 101/101/101 94/94/94 99/99/99
f 98/98/98 97/97/97 102/102/102
f 102/102/102 97/97/97 101/101/101
f 103/103/103 98/98/98 102/102/102
f 104/104/104 99/99/99 100/100/100
f 104/104/104 100/100/100 105/105/105
f 106/106/106 101/101/101 99/99/99
f 102/102/102 101/101/101 106/106/106
f 106/106/106 99/99/99 104/104/104
f 103/103/103 102/102/102 107/107/107
f 107/107/107 102/102/102 106/106/106
f 108/108/108 103/103/103 107/107/107
f 109/109/109 104/104/104 105/105/105
f 109/109/109 105/105/105 110/110/110
f 111/111/111 106/106/106 104/104/104
f 107/107/107 106/106/106 111/111/111
f 111/111/111 104/104/104 109/109/109
f 108/108/108 107/107/107 112/112/112
f 112/112/112 107/107/107 111/111/111
f 113/113/113 108/108/108 112/112/112
f 114/114/114 109/109/109 110/110/110
f 114/114/114 110/110/110 115/115/115
f 116/116/116 111/111/111 109/109/109
f 112/112/112 111/111/111 116/116/116
f 116/116/116 109/109/109 114/114/114
f 113/113/113 112/112/112 117/117/117
f 117/117/117 112/112/112 116/116/116
f 118/118/118 113/113/113 117/117/117
f 119/119/119 114/114/114 115/115/115
f 119/119/119 115/115/115 120/120/120
f 121/121/121 116/116/116 114/114/114
f 117/117/117 116/116/116 121/121/121
f 121/121/121 114/114/114 119/119/119
f 118/118/118 117/117/117 122/122/122
f 122/122/122 117/117/117 121/121/121
f 123/123/123 118/118/118 122/122/122
f 124/124/124 119/119/119 120/120/120
f 124/124/124 120/120/120 125/125/125
f 126/126/126 121/121/121 119/119/119
f 122/122/122 121/121/121 126/126/126
f 126/126/126 119/119/119 124/124/124
f 123/123/123 122/122/122 127/127/127
f 127/127/127 122/122/122 126/126/126
f 128/128/128 123/123/123 127/127/127
f 129/129/129 124/124/124 125/125/125
f 129/129/129 125/125/125 130/130/130
f 131/131/131 126/126/126 124/124/124
f 127/127/127 126/126/126 131/131/131
f 131/131/131 124/124/124 129/129/129
f 128/128/128 127/127/127 132/132/132
f 132/132/132 127/127/127 131/131/131
f 133/133/133 128/128/128 132/132/132
f 134/134/134 129/129/129 130/130/130
f 134/134/134 130/130/130 135/135/135
f 136/136/136 131/131/131 129/129/129
f 132/132/132 131/131/131 136/136/136
f 136/136/136 129/129/129 134/134/134
f 133/133/133 132/132/132 137/137/137
f 137/137/137 132/132/132 136/136/136
f 138/138/138 133/133/133 137/137/137
f 139/139/139 134/134/134 135/135/135
f 139/139/139 135/135/135 140/140/140
f 141/141/141 136/136/136 134/134/134
f 137/137/137 136/136/136 141/141/141
f 141/141/141 134/134/134 139/139/139
f 138/138/138 137/137/137 142/142/142
f 142/142/142 137/137/137 141/141/141
f 143/143/143 138/138/138 142/142/142
f 144/144/144 139/139/139 140/140/140
f 144/144/144 140/140/140 145/145/145
f 146/146/146 141/141/141 139/139/139
f 142/142/142 141/141/141 146/146/146
f 146/146/146 139/139/139 144/144/144
f 143/143/143 142/142/142 147/147/147
f 147/147/147 142/142/142 146/146/146
f 148/148/148 143/143/143 147/147/147
f 149/149/149 144/144/144 145/145/145
f 149/149/149 145/145/145 150/150/150
f 151/151/151 146/146/146 144/144/144
f 147/147/147 146/146/146 151/151/151
f 151/151/151 144/144/144 149/149/149
f 148/148/148 147/147/147 152/152/152
f 152/152/152 147/147/147 151/151/151
f 153/153/153 148/148/148 152/152/152
f 154/154/154 149/149/149 150/150/150
f 154/154/154 150/150/150 155/155/155
f 156/156/156 154/154/154 155/155/155
f 157/157/157 151/151/151 149/149/149
f 152/152/152 151/151/151 157/157/157
f 157/157/157 149/149/149 154/154/154
f 153/153/153 152/152/152 158/158/158
f 158/158/158 152/152/152 157/157/157
f 159/159/159 153/153/153 158/158/158
f 160/160/160 154/154/154 156/156/156
f 160/160/160 157/157/157 154/154/154
f 158/158/158 157/157/157 160/160/160
f 161/161/161 160/160/160 156/156/156
f 159/159/159 158/158/158 162/162/162
f 162/162/162 158/158/158 160/160/160
f 162/162/162 160/160/160 161/161/161
f 163/163/163 159/159/159 162/162/162
f 164/164/164 162/162/162 161/161/161
f 163/163/163 162/162/162 164/164/164
f 165/165/165 163/163/163 164/164/164
