g Eff_MeshLT_Trail_11_2
v -0.11321777 -3.072607 -0.01873841
v -0.26826605 -2.9142003 0.091436654
v -0.113461815 -3.072607 -0.018509159
v -0.25289413 -2.9142003 -0.0031040423
v -0.11297328 -3.072607 -0.01896724
v -0.22369406 -2.7365637 0.2591327
v -0.19027178 -2.9142003 -0.075104766
v -0.11272825 -3.072607 -0.019195762
v -0.11064094 -2.9142003 -0.13902302
v -0.27287164 -2.7365637 0.077803984
v 0.081668496 -2.5428553 0.21769415
v -0.11129003 -2.7365637 -0.05603561
v -0.013032924 -2.7365637 -0.20530766
v -0.18036027 -2.5428553 -0.0035136284
v 0.25765488 -2.3362322 0.08093474
v -0.080601595 -2.5428553 -0.23534968
v 0.008803484 -2.5428553 -0.4689281
v -0.17969371 -2.3362322 -0.07660189
v 0.21004671 -2.1198533 0.012243394
v -0.2898918 -2.3362322 -0.31127012
v -0.24497597 -2.3362322 -0.5709505
v -0.21383268 -2.1198533 -0.08240676
v 0.21989211 -1.8968756 0.0924052
v -0.231466 -2.1198533 -0.37324747
v -0.5345885 -2.1198533 -0.4107357
v -0.05217496 -1.8968756 -0.013930976
v 0.48712656 -1.6704571 0.02253575
v -0.25781506 -1.8968756 -0.14202546
v -0.48230016 -1.8968756 -0.21903197
v 0.19541655 -1.6704571 -0.0061719045
v 0.43419272 -1.4437557 -0.22792497
v -0.11041282 -1.6704571 0.05446523
v -0.36041635 -1.6704571 -0.08361048
v 0.19912292 -1.4437561 -0.07776539
v 0.42897573 -1.2199295 -0.39236546
v -0.034201503 -1.4437561 0.05775597
v -0.27503273 -1.4437557 0.23209254
v 0.25466603 -1.2199295 -0.23228163
v 0.104723416 -1.0021359 -0.63035
v 0.09995201 -1.2199296 -0.06937803
v 0.022419618 -1.2199295 0.23342194
v 0.06858479 -1.0021359 -0.373266
v -0.07052139 -0.79353285 -0.6492977
v 0.08374327 -1.0021358 -0.13548753
v 0.13972081 -1.0021359 0.049410123
v 0.0029367541 -0.793533 -0.33115676
v -0.015246815 -0.5972783 -0.6209946
v 0.10539114 -0.79353255 0.009164756
v 0.05887924 -0.79353285 0.12436089
v 0.1187771 -0.597278 -0.33220416
v -0.17672879 -0.41652954 -0.3721025
v 0.18089779 -0.5972784 -0.07026617
v 0.15374203 -0.5972783 0.06473059
v -0.056868836 -0.41652954 -0.22979832
v -0.29522908 -0.2544452 -0.16546932
v -0.004290762 -0.41652983 -0.15808946
v 0.0050765895 -0.41652954 -0.11782137
v -0.19548737 -0.25444487 -0.15642993
v -0.20460987 -0.114182435 -0.17405033
v -0.10283655 -0.2544452 -0.15501386
v -0.042966373 -0.2544452 -0.14991245
v -0.12997945 -0.114182435 -0.18183906
v 0.0011119174 0.001100769 -0.11119539
v 0.001369586 0.0011004638 -0.11113221
v -0.05529154 -0.114182435 -0.17252834
v 0.015688004 -0.114182435 -0.15440078
v 0.0016273784 0.0011004638 -0.111068904
v 0.0018851853 0.001100769 -0.11100541
vt 1 0.5689302
vt 0.93750006 0.70679045
vt 1.0000001 0.70679045
vt 0.93750006 0.5689302
vt 1 0.4310699
vt 0.87500006 0.70679045
vt 0.9375 0.4310699
vt 1 0.2932096
vt 0.9375 0.2932096
vt 0.87500006 0.5689302
vt 0.81250006 0.70679045
vt 0.875 0.4310699
vt 0.875 0.2932096
vt 0.81250006 0.5689302
vt 0.75000006 0.70679045
vt 0.8125 0.4310699
vt 0.8125 0.2932096
vt 0.75000006 0.5689302
vt 0.6875001 0.70679045
vt 0.75 0.4310699
vt 0.75 0.2932096
vt 0.68750006 0.5689302
vt 0.6250001 0.70679045
vt 0.6875 0.4310699
vt 0.6875 0.2932096
vt 0.62500006 0.5689302
vt 0.5625001 0.70679045
vt 0.625 0.4310699
vt 0.625 0.2932096
vt 0.56250006 0.5689304
vt 0.5000001 0.70679045
vt 0.5625 0.4310699
vt 0.5625 0.2932096
vt 0.50000006 0.5689304
vt 0.43750006 0.70679045
vt 0.5 0.4310699
vt 0.5 0.2932096
vt 0.43750006 0.5689304
vt 0.37500006 0.70679045
vt 0.4375 0.4310699
vt 0.4375 0.2932096
vt 0.37500006 0.5689304
vt 0.31250006 0.70679045
vt 0.375 0.43106997
vt 0.375 0.2932096
vt 0.31250006 0.5689304
vt 0.25000006 0.70679045
vt 0.3125 0.43106997
vt 0.3125 0.2932096
vt 0.25000006 0.5689304
vt 0.18750006 0.7067907
vt 0.25 0.43106997
vt 0.25 0.2932096
vt 0.18750006 0.5689304
vt 0.12500006 0.7067907
vt 0.1875 0.43106997
vt 0.1875 0.2932096
vt 0.12500006 0.5689304
vt 0.06250006 0.7067907
vt 0.125 0.43106997
vt 0.125 0.2932096
vt 0.06250006 0.5689304
vt 5.9604645E-08 0.7067907
vt 5.9604645E-08 0.5689304
vt 0.0625 0.43106997
vt 0.0625 0.2932096
vt 0 0.43106997
vt 0 0.2932096
vn -0.6972197 -0.5719295 -0.43218198
vn -0.9735631 -0.22306886 0.049145058
vn -0.7508026 -0.6488374 -0.12371554
vn -0.88330984 -0.2223192 -0.41272002
vn -0.5923971 -0.50995153 -0.62371075
vn -0.7689256 0.524561 0.36549848
vn -0.70275277 -0.11511301 -0.7020595
vn -0.5412451 -0.5028226 -0.67396086
vn -0.724277 0.007145579 -0.6894721
vn -0.94646627 0.3107556 -0.08736502
vn -0.46404508 0.61449474 0.63801134
vn -0.7872799 0.05034807 -0.61453676
vn -0.850337 -0.16961141 -0.4981555
vn -0.9429477 0.27881914 0.18196025
vn -0.3476601 0.32928738 0.8778965
vn -0.8340424 -0.47493312 -0.28073457
vn -0.7064592 -0.6624311 -0.24919933
vn -0.8009295 0.055385206 0.5961916
vn -0.27908245 -0.04225761 0.95933694
vn -0.8824835 -0.43847573 0.1701822
vn -0.6925761 -0.70416325 0.15650041
vn -0.74233246 0.004495251 0.6700166
vn -0.24774198 0.15324387 0.95662963
vn -0.7115082 -0.37518027 0.5941345
vn -0.36493617 -0.6245103 0.69051313
vn -0.32325113 -0.16106439 0.9325057
vn 0.039527923 0.5188631 0.85394305
vn -0.49039167 -0.37561804 0.7864014
vn -0.23569892 -0.5882583 0.77356195
vn 0.039650217 0.28639805 0.95728993
vn 0.40118307 0.5121354 0.7594534
vn -0.0025837703 -0.3482537 0.93739676
vn -0.25302234 -0.46110874 0.8505048
vn 0.4288289 0.3461516 0.8344369
vn 0.5478677 0.6805533 0.48650596
vn 0.5043235 -0.29341012 0.812138
vn 0.3410766 -0.6099084 0.715317
vn 0.6395145 0.5601075 0.52659345
vn 0.74352413 0.6639041 0.0800203
vn 0.87858826 0.058852244 0.47393999
vn 0.82243466 -0.45231977 0.34497544
vn 0.8191364 0.568896 0.07329988
vn 0.97678953 0.07417225 -0.20094965
vn 0.9769703 0.21231605 0.021237649
vn 0.999302 -0.03629107 0.008852881
vn 0.9749399 -0.040354352 -0.21877766
vn 0.9222709 0.09011808 -0.37589243
vn 0.992811 -0.119669065 -0.0023590187
vn 0.98903334 -0.07789976 0.1254775
vn 0.9196297 0.199122 -0.33857316
vn 0.46614736 0.78516716 -0.40769994
vn 0.98432606 0.16804212 -0.05351752
vn 0.97113705 0.060878877 0.23062232
vn 0.5140538 0.70417804 -0.4897775
vn 0.242259 0.42200154 -0.8736276
vn 0.65545857 0.5679249 -0.49783057
vn 0.7494279 0.59526503 -0.28985748
vn 0.23325251 0.30523315 -0.9232692
vn -0.013864826 0.03797319 -0.9991825
vn 0.29337958 0.11349349 -0.9492353
vn 0.36385664 0.010798885 -0.9313923
vn 0.004602807 0.20571642 -0.9786008
vn -0.08302849 0.5876216 -0.8048646
vn 0.069385625 0.46296838 -0.88365483
vn 0.14670789 0.12853912 -0.9807928
vn 0.21237895 0.150274 -0.9655636
vn 0.1909034 0.3866558 -0.9022489
vn 0.23016587 0.3668669 -0.9013503
g Eff_MeshLT_Trail_11_2_0
f 3/3/3 2/2/2 1/1/1
f 2/2/2 4/4/4 1/1/1
f 1/1/1 4/4/4 5/5/5
f 2/2/2 6/6/6 4/4/4
f 4/4/4 7/7/7 5/5/5
f 5/5/5 7/7/7 8/8/8
f 7/7/7 9/9/9 8/8/8
f 6/6/6 10/10/10 4/4/4
f 4/4/4 10/10/10 7/7/7
f 6/6/6 11/11/11 10/10/10
f 7/7/7 12/12/12 9/9/9
f 10/10/10 12/12/12 7/7/7
f 12/12/12 13/13/13 9/9/9
f 11/11/11 14/14/14 10/10/10
f 10/10/10 14/14/14 12/12/12
f 11/11/11 15/15/15 14/14/14
f 12/12/12 16/16/16 13/13/13
f 14/14/14 16/16/16 12/12/12
f 16/16/16 17/17/17 13/13/13
f 15/15/15 18/18/18 14/14/14
f 14/14/14 18/18/18 16/16/16
f 15/15/15 19/19/19 18/18/18
f 16/16/16 20/20/20 17/17/17
f 18/18/18 20/20/20 16/16/16
f 20/20/20 21/21/21 17/17/17
f 19/19/19 22/22/22 18/18/18
f 18/18/18 22/22/22 20/20/20
f 19/19/19 23/23/23 22/22/22
f 20/20/20 24/24/24 21/21/21
f 22/22/22 24/24/24 20/20/20
f 24/24/24 25/25/25 21/21/21
f 23/23/23 26/26/26 22/22/22
f 22/22/22 26/26/26 24/24/24
f 23/23/23 27/27/27 26/26/26
f 24/24/24 28/28/28 25/25/25
f 26/26/26 28/28/28 24/24/24
f 28/28/28 29/29/29 25/25/25
f 27/27/27 30/30/30 26/26/26
f 26/26/26 30/30/30 28/28/28
f 27/27/27 31/31/31 30/30/30
f 28/28/28 32/32/32 29/29/29
f 30/30/30 32/32/32 28/28/28
f 32/32/32 33/33/33 29/29/29
f 31/31/31 34/34/34 30/30/30
f 30/30/30 34/34/34 32/32/32
f 31/31/31 35/35/35 34/34/34
f 32/32/32 36/36/36 33/33/33
f 34/34/34 36/36/36 32/32/32
f 36/36/36 37/37/37 33/33/33
f 35/35/35 38/38/38 34/34/34
f 34/34/34 38/38/38 36/36/36
f 35/35/35 39/39/39 38/38/38
f 36/36/36 40/40/40 37/37/37
f 38/38/38 40/40/40 36/36/36
f 40/40/40 41/41/41 37/37/37
f 39/39/39 42/42/42 38/38/38
f 38/38/38 42/42/42 40/40/40
f 39/39/39 43/43/43 42/42/42
f 40/40/40 44/44/44 41/41/41
f 42/42/42 44/44/44 40/40/40
f 44/44/44 45/45/45 41/41/41
f 43/43/43 46/46/46 42/42/42
f 42/42/42 46/46/46 44/44/44
f 43/43/43 47/47/47 46/46/46
f 44/44/44 48/48/48 45/45/45
f 46/46/46 48/48/48 44/44/44
f 48/48/48 49/49/49 45/45/45
f 47/47/47 50/50/50 46/46/46
f 46/46/46 50/50/50 48/48/48
f 47/47/47 51/51/51 50/50/50
f 48/48/48 52/52/52 49/49/49
f 50/50/50 52/52/52 48/48/48
f 52/52/52 53/53/53 49/49/49
f 51/51/51 54/54/54 50/50/50
f 50/50/50 54/54/54 52/52/52
f 51/51/51 55/55/55 54/54/54
f 52/52/52 56/56/56 53/53/53
f 54/54/54 56/56/56 52/52/52
f 56/56/56 57/57/57 53/53/53
f 55/55/55 58/58/58 54/54/54
f 54/54/54 58/58/58 56/56/56
f 55/55/55 59/59/59 58/58/58
f 56/56/56 60/60/60 57/57/57
f 58/58/58 60/60/60 56/56/56
f 60/60/60 61/61/61 57/57/57
f 59/59/59 62/62/62 58/58/58
f 58/58/58 62/62/62 60/60/60
f 59/59/59 63/63/63 62/62/62
f 63/63/63 64/64/64 62/62/62
f 60/60/60 65/65/65 61/61/61
f 62/62/62 65/65/65 60/60/60
f 62/62/62 64/64/64 65/65/65
f 65/65/65 66/66/66 61/61/61
f 64/64/64 67/67/67 65/65/65
f 65/65/65 67/67/67 66/66/66
f 67/67/67 68/68/68 66/66/66
