g Eff_Box_001
v -0.01933787 -0.46401155 0.6030129
v -0.01933787 -0.52352285 0.5965055
v -0.019337773 -0.46401155 0.4001478
v 0.09553797 -0.4257196 0.11898397
v 0.081257634 -0.56446445 0.59601843
v 0.09553797 -0.4257196 0.6117561
v -0.01933787 -0.15049382 -0.6343041
v 0.013316822 -0.15008105 -0.6796751
v -0.01933787 -0.13707468 -0.65239125
v -0.022214439 0.20172411 0.67569476
v -0.022214342 -0.39068803 0.16209364
v -0.022214342 -0.39068803 0.6109165
v -0.022214439 0.5137663 0.12739228
v -0.022214439 0.5644643 0.7153592
v -0.022214439 0.3017782 -0.34650666
v -0.022214342 -0.2365434 -0.34650666
v -0.022214439 0.4892585 -0.15683587
v -0.0489911 -0.46401155 0.44011188
v -0.01933787 -0.46401155 0.6030129
v -0.019337773 -0.46401155 0.4001478
v -0.054560237 -0.46401155 0.601616
v -0.095537774 -0.4640115 0.50284344
v -0.09553787 -0.46401155 0.5999907
v -0.022214439 0.20172411 0.67569476
v -0.09553787 0.5534781 0.71124977
v -0.022214439 0.5644643 0.7153592
v -0.022214342 -0.39068803 0.6109165
v -0.054560237 -0.46401155 0.601616
v -0.09553787 0.20360734 0.6729926
v -0.09553787 -0.46401155 0.5999907
v 0.039815497 -0.40914202 0.6113589
v 0.09553797 -0.4257196 0.6117561
v -0.01933787 -0.46401155 0.6030129
v -0.01933787 -0.52352285 0.5965055
v 0.081257634 -0.56446445 0.59601843
v -0.095537774 -0.1843712 -0.41983017
v -0.09553787 -0.46401155 0.5999907
v -0.095537774 -0.4640115 0.50284344
v -0.09553787 0.50648546 0.166254
v -0.09553787 0.20360734 0.6729926
v -0.09553787 0.5534781 0.71124977
v -0.09553787 0.4827058 -0.10952936
v -0.09553787 0.17598858 -0.41983017
v 0.07996508 0.19188868 -0.5328417
v 0.09553797 -0.2740233 -0.38153824
v 0.09553797 0.35276762 -0.38153824
v 0.091359735 -0.26001313 -0.42213345
v 0.061179403 -0.15881608 -0.71535903
v 0.0719241 0.1088202 -0.6109659
v 0.09553797 -0.4257196 0.6117561
v 0.0668589 -0.4171875 0.12948348
v 0.09553797 -0.4257196 0.11898397
v 0.039815497 -0.40914202 0.6113589
v -0.022214342 -0.39068803 0.16209364
v -0.022214342 -0.39068803 0.6109165
v 0.02279512 0.32126826 -0.3598971
v -0.022214342 -0.2365434 -0.34650666
v -0.022214439 0.3017782 -0.34650666
v 0.08029307 -0.26917088 -0.37700275
v 0.09553797 -0.2740233 -0.38153824
v 0.09553797 0.35276762 -0.38153824
v -0.01933787 -0.13707468 -0.65239125
v -0.01933787 -0.20106311 -0.46745062
v -0.01933787 -0.15049382 -0.6343041
v -0.01933787 0.12580879 -0.5266478
v -0.01933787 0.09867353 -0.5541001
v -0.019337773 -0.21549581 -0.41983008
v -0.019337773 0.23139295 -0.41983008
v -0.057842206 0.2033967 -0.41983017
v -0.019337773 -0.21549581 -0.41983008
v -0.019337773 0.23139295 -0.41983008
v -0.034021374 -0.20949821 -0.41983017
v -0.09553787 0.17598858 -0.41983017
v -0.095537774 -0.1843712 -0.41983017
v -0.01933787 -0.13707468 -0.65239125
v 0.0719241 0.1088202 -0.6109659
v -0.01933787 0.09867353 -0.5541001
v 0.061179403 -0.15881608 -0.71535903
v 0.013316822 -0.15008105 -0.6796751
v -0.0489911 -0.46401155 0.44011188
v -0.095537774 -0.1843712 -0.41983017
v -0.095537774 -0.4640115 0.50284344
v -0.019337773 -0.46401155 0.4001478
v -0.034021374 -0.20949821 -0.41983017
v -0.022214342 -0.39068803 0.16209364
v -0.022214342 -0.2365434 -0.34650666
v -0.019337773 -0.21549581 -0.41983008
v 0.081257634 -0.56446445 0.59601843
v -0.01933787 -0.52352285 0.5965055
v 0.0668589 -0.4171875 0.12948348
v 0.09553797 -0.4257196 0.11898397
v 0.013316822 -0.15008105 -0.6796751
v -0.01933787 -0.20106311 -0.46745062
v -0.01933787 -0.15049382 -0.6343041
v 0.08029307 -0.26917088 -0.37700275
v 0.091359735 -0.26001313 -0.42213345
v 0.061179403 -0.15881608 -0.71535903
v 0.09553797 -0.2740233 -0.38153824
v -0.022214439 0.5137663 0.12739228
v -0.09553787 0.4827058 -0.10952936
v -0.022214439 0.4892585 -0.15683587
v -0.022214439 0.5644643 0.7153592
v -0.09553787 0.50648546 0.166254
v -0.09553787 0.5534781 0.71124977
v 0.07996508 0.19188868 -0.5328417
v -0.01933787 0.09867353 -0.5541001
v 0.0719241 0.1088202 -0.6109659
v -0.01933787 0.12580879 -0.5266478
v -0.019337773 0.23139295 -0.41983008
v -0.022214439 0.3017782 -0.34650666
v 0.02279512 0.32126826 -0.3598971
v 0.09553797 0.35276762 -0.38153824
v -0.09553787 0.4827058 -0.10952936
v -0.022214439 0.4892585 -0.15683587
v -0.057842206 0.2033967 -0.41983017
v -0.09553787 0.17598858 -0.41983017
vt 0.31124902 0.47036183
vt 0.3125964 0.4580396
vt 0.35325363 0.47036183
vt 0.41567853 0.47036183
vt 0.30438542 0.44957623
vt 0.30998367 0.47036183
vt 0.13006143 0.5804613
vt 0.086046085 0.5808763
vt 0.118551105 0.5939517
vt 0.29382327 0.6086015
vt 0.4043223 0.47474247
vt 0.30775997 0.47474247
vt 0.41178823 0.6791092
vt 0.28528965 0.69056475
vt 0.5137456 0.6312093
vt 0.5137455 0.5095724
vt 0.47293872 0.6735715
vt 0.18305689 0.85226977
vt 0.21678667 0.85840964
vt 0.17478207 0.8584097
vt 0.21649742 0.8511166
vt 0.19604589 0.84263194
vt 0.21616091 0.84263194
vt 0.8404173 1.5894226
vt 0.5620436 1.5316428
vt 0.5530927 1.5894226
vt 1.309664 1.5894226
vt 1.3678529 1.5639337
vt 0.8391745 1.5316428
vt 1.3679919 1.5316428
vt 1.3240707 1.6383029
vt 1.3370126 1.6822132
vt 1.3677335 1.5916893
vt 1.4148722 1.5916893
vt 1.4469603 1.6709601
vt 0.51374555 0.5309134
vt 0.30889592 0.47474247
vt 0.32840973 0.47474247
vt 0.39601988 0.66968447
vt 0.2942322 0.6088459
vt 0.28654754 0.6791238
vt 0.451416 0.66490793
vt 0.51374555 0.6032982
vt 0.5457027 0.5955234
vt 0.52303565 0.5037049
vt 0.52303565 0.6414745
vt 0.5291173 0.5039431
vt 0.57304597 0.53584504
vt 0.5574066 0.58286893
vt 0.21805203 0.85840964
vt 0.11643925 0.85456693
vt 0.112357154 0.85840964
vt 0.22152254 0.8509433
vt 0.11779446 0.84263194
vt 0.21733181 0.8426319
vt 0.7554887 0.5788265
vt 0.74945784 0.44578356
vt 0.74945784 0.57116807
vt 0.76319283 0.44528714
vt 0.76523554 0.44322366
vt 0.76523554 0.5809934
vt 0.5711891 0.5380564
vt 0.5328958 0.5248071
vt 0.567444 0.53527784
vt 0.545153 0.59248817
vt 0.5508372 0.5868696
vt 0.52303565 0.5218187
vt 0.52303565 0.6143501
vt 0.757263 0.54807204
vt 0.7652355 0.46133748
vt 0.76523554 0.5538689
vt 0.7621953 0.4625793
vt 0.74945784 0.542397
vt 0.74945784 0.46778208
vt 0.043470725 0.07053017
vt 0.2347306 0.15500161
vt 0.24458733 0.0705301
vt 0.008589962 0.14505643
vt 0.025750859 0.10075514
vt 0.124852374 0.12789983
vt 0.24204259 0.8311666
vt 0.158782 0.07659756
vt 0.10323692 0.16058274
vt 0.18971954 0.8311666
vt 0.12716523 0.3552651
vt 0.17306054 0.77120215
vt 0.17723037 0.8311665
vt 0 0.00039829256
vt 0.085517995 0
vt 0.05434639 0.38193393
vt 0.030900726 0.39052054
vt 0.1729039 1.0436696
vt 0.1815277 0.8701109
vt 0.19658428 1.006565
vt 0.08862434 0.79614204
vt 0.08328407 0.83305025
vt 0.1354142 1.0728521
vt 0.07606701 0.7998512
vt 0.77855986 0.46464866
vt 0.71791285 0.6518791
vt 0.7757908 0.6892637
vt 0.78428817 0
vt 0.72059965 0.43393767
vt 0.7259093 0.003247509
vt 0.11913254 0.42674252
vt 0.012727508 0.44817317
vt 0.075546645 0.50549984
vt 0.02529251 0.42049846
vt 0.0741835 0.31281525
vt 0.10494339 0.23889759
vt 0.1426329 0.25239655
vt 0.20354538 0.27421308
vt 0.14202575 0
vt 0.19175644 0.04768986
vt 0.036698 0.3128153
vt 0 0.31281528
vn -1 0 -4.776244E-07
vn -1 0 -4.7762444E-07
vn -1 0 -4.776244E-07
vn 0.994745 -0.10238421 0
vn 0.994745 -0.102384195 0
vn 0.994745 -0.10238422 0
vn -0.6330205 -0.62171245 -0.46125776
vn -0.63302046 -0.62171245 -0.46125773
vn -0.63302046 -0.62171245 -0.4612577
vn 1 0 0
vn 1 0 0
vn 1 0 0
vn 1 0 0
vn 1 0 0
vn 1 0 0
vn 1 0 0
vn 1 0 0
vn -0 -1 0
vn -0 -1 0
vn -0 -1 0
vn -0 -1 0
vn -5.457732E-07 -1 0
vn -0 -1 0
vn -0.03939584 -0.108614355 0.99330306
vn -0.03939584 -0.10861434 0.99330306
vn -0.039395843 -0.108614355 0.99330306
vn -0.039395776 -0.10861434 0.99330306
vn -0.039392766 -0.10862281 0.9933022
vn -0.03939719 -0.10861428 0.99330306
vn -0.039397195 -0.10861428 0.99330306
vn -0.039394397 -0.108616576 0.9933028
vn -0.039396018 -0.10861406 0.99330306
vn -0.039395574 -0.10861459 0.99330306
vn -0.039396018 -0.10861406 0.99330306
vn -0.03939602 -0.10861407 0.99330306
vn -1 -3.290877E-06 -9.973861E-07
vn -1 -3.2908767E-06 -9.97386E-07
vn -1 -3.2908767E-06 -9.97386E-07
vn -1 0 0
vn -1 0 0
vn -1 0 0
vn -1 -2.6887935E-07 2.6577413E-07
vn -1 -2.6887935E-07 2.6577413E-07
vn 0.994745 0 -0.10238398
vn 0.994745 0 -0.102383986
vn 0.994745 0 -0.10238398
vn 0.994745 0 -0.102383405
vn 0.9947449 0 -0.102384426
vn 0.9947449 0 -0.10238499
vn 0.2851515 0.9584825 0
vn 0.28515154 0.9584825 0
vn 0.28515154 0.9584825 0
vn 0.28515097 0.95848256 0
vn 0.2851503 0.9584828 0
vn 0.2851503 0.9584828 0
vn 0.28515103 0 0.95848256
vn 0.28515106 0 0.95848256
vn 0.28515103 0 0.95848256
vn 0.28515008 0 0.9584828
vn 0.2851503 0 0.9584828
vn 0.2851503 0 0.9584828
vn -1 0 0
vn -1 0 0
vn -1 0 0
vn -1 0 0
vn -1 0 0
vn -1 0 9.0709034E-07
vn -1 0 9.0709034E-07
vn 2.5164197E-06 0 -1
vn 2.5164197E-06 0 -1
vn 2.5164197E-06 0 -1
vn 6.7579936E-06 3.8988378E-07 -1
vn -0 0 -1
vn -0 0 -1
vn -0.5256519 0.32737032 -0.78518707
vn -0.5256519 0.32737035 -0.78518707
vn -0.5256519 0.32737038 -0.78518707
vn -0.5256513 0.32737023 -0.7851875
vn -0.52565 0.3273737 -0.785187
vn -0.3640735 -0.89133275 -0.27014163
vn -0.3640735 -0.89133275 -0.27014163
vn -0.36407343 -0.89133275 -0.27014163
vn -0.36407295 -0.89133286 -0.27014172
vn -0.3640739 -0.89133257 -0.27014148
vn -0.3640734 -0.8913327 -0.27014184
vn -0.36406663 -0.89133525 -0.2701425
vn -0.36406884 -0.89133453 -0.27014175
vn -0.36407357 -0.89133257 -0.27014184
vn -0.36407357 -0.89133257 -0.27014184
vn -0.364074 -0.89133245 -0.27014175
vn -0.36407402 -0.89133245 -0.27014175
vn -0.36407414 -0.89133257 -0.27014133
vn -0.36407268 -0.89133304 -0.27014175
vn -0.36407265 -0.89133304 -0.27014172
vn -0.3640779 -0.8913308 -0.27014202
vn -0.3640779 -0.8913308 -0.27014205
vn -0.3640741 -0.89133257 -0.27014133
vn -0.36407793 -0.8913308 -0.27014205
vn -0.14297765 0.986067 -0.085024446
vn -0.14297765 0.986067 -0.085024446
vn -0.14297765 0.986067 -0.085024446
vn -0.14297748 0.9860671 -0.08502452
vn -0.14297858 0.9860669 -0.08502438
vn -0.14297858 0.9860669 -0.08502438
vn -0.45932955 0.6317362 -0.62444025
vn -0.45932955 0.6317362 -0.62444025
vn -0.45932955 0.6317363 -0.6244403
vn -0.45932943 0.6317361 -0.62444043
vn -0.45932955 0.63173616 -0.6244404
vn -0.45932811 0.6317368 -0.62444067
vn -0.45932868 0.6317366 -0.62444067
vn -0.45932865 0.6317365 -0.6244406
vn -0.45933014 0.6317359 -0.6244402
vn -0.45933014 0.6317359 -0.62444013
vn -0.45932877 0.6317364 -0.62444067
vn -0.4593288 0.63173646 -0.62444067
g Eff_Box_001_0
f 3/3/3 2/2/2 1/1/1
f 6/6/6 5/5/5 4/4/4
f 9/9/9 8/8/8 7/7/7
f 12/12/12 11/11/11 10/10/10
f 11/11/11 13/13/13 10/10/10
f 13/13/13 14/14/14 10/10/10
f 15/15/15 13/13/13 11/11/11
f 16/16/16 15/15/15 11/11/11
f 17/17/17 13/13/13 15/15/15
f 20/20/20 19/19/19 18/18/18
f 19/19/19 21/21/21 18/18/18
f 21/21/21 22/22/22 18/18/18
f 23/23/23 22/22/22 21/21/21
f 26/26/26 25/25/25 24/24/24
f 25/25/25 27/27/27 24/24/24
f 28/28/28 27/27/27 25/25/25
f 29/29/29 28/28/28 25/25/25
f 30/30/30 28/28/28 29/29/29
f 31/31/31 27/27/27 28/28/28
f 32/32/32 31/31/31 28/28/28
f 33/33/33 32/32/32 28/28/28
f 34/34/34 32/32/32 33/33/33
f 35/35/35 32/32/32 34/34/34
f 38/38/38 37/37/37 36/36/36
f 37/37/37 39/39/39 36/36/36
f 40/40/40 39/39/39 37/37/37
f 41/41/41 39/39/39 40/40/40
f 39/39/39 42/42/42 36/36/36
f 42/42/42 43/43/43 36/36/36
f 46/46/46 45/45/45 44/44/44
f 45/45/45 47/47/47 44/44/44
f 47/47/47 48/48/48 44/44/44
f 48/48/48 49/49/49 44/44/44
f 52/52/52 51/51/51 50/50/50
f 51/51/51 53/53/53 50/50/50
f 54/54/54 53/53/53 51/51/51
f 55/55/55 53/53/53 54/54/54
f 58/58/58 57/57/57 56/56/56
f 57/57/57 59/59/59 56/56/56
f 59/59/59 60/60/60 56/56/56
f 60/60/60 61/61/61 56/56/56
f 64/64/64 63/63/63 62/62/62
f 63/63/63 65/65/65 62/62/62
f 65/65/65 66/66/66 62/62/62
f 67/67/67 65/65/65 63/63/63
f 68/68/68 65/65/65 67/67/67
f 71/71/71 70/70/70 69/69/69
f 70/70/70 72/72/72 69/69/69
f 72/72/72 73/73/73 69/69/69
f 74/74/74 73/73/73 72/72/72
f 77/77/77 76/76/76 75/75/75
f 76/76/76 78/78/78 75/75/75
f 78/78/78 79/79/79 75/75/75
f 82/82/82 81/81/81 80/80/80
f 81/81/81 83/83/83 80/80/80
f 84/84/84 83/83/83 81/81/81
f 85/85/85 83/83/83 84/84/84
f 86/86/86 85/85/85 84/84/84
f 87/87/87 86/86/86 84/84/84
f 88/88/88 83/83/83 85/85/85
f 89/89/89 83/83/83 88/88/88
f 90/90/90 88/88/88 85/85/85
f 91/91/91 88/88/88 90/90/90
f 92/92/92 86/86/86 87/87/87
f 93/93/93 92/92/92 87/87/87
f 94/94/94 92/92/92 93/93/93
f 95/95/95 86/86/86 92/92/92
f 96/96/96 95/95/95 92/92/92
f 97/97/97 96/96/96 92/92/92
f 98/98/98 95/95/95 96/96/96
f 101/101/101 100/100/100 99/99/99
f 100/100/100 102/102/102 99/99/99
f 103/103/103 102/102/102 100/100/100
f 104/104/104 102/102/102 103/103/103
f 107/107/107 106/106/106 105/105/105
f 106/106/106 108/108/108 105/105/105
f 108/108/108 109/109/109 105/105/105
f 109/109/109 110/110/110 105/105/105
f 110/110/110 111/111/111 105/105/105
f 111/111/111 112/112/112 105/105/105
f 113/113/113 110/110/110 109/109/109
f 114/114/114 110/110/110 113/113/113
f 115/115/115 113/113/113 109/109/109
f 116/116/116 113/113/113 115/115/115
