g Eff_Anbi_Weapon_001_01
v 0.11333238 0.018730503 0.007427675
v 0.1369044 -0.01478069 0.0074276766
v 0.12744409 -0.022714471 0.0074276826
v 0.11333238 0.018730493 -0.007423323
v 0.12744409 -0.022714453 -0.007423312
v 0.1369044 -0.0147807 -0.0074233264
v 0.83013684 0.033065524 1.2767493E-06
v 0.8301371 -0.022714658 -0.007423695
v 0.8301371 -0.022714676 0.007427303
v 0.81048703 0.018670809 0.0074272957
v 0.83013684 0.033065524 1.2767493E-06
v 0.8301371 -0.022714676 0.007427303
v 0.81048703 0.018670827 -0.007423702
v 0.8301371 -0.022714658 -0.007423695
v 0.83013684 0.033065524 1.2767493E-06
v 0.11333238 0.018730503 0.007427675
v 0.11333238 0.018730493 -0.007423323
v 0.12824483 0.03283251 1.6602145E-06
v 0.11333238 0.018730503 0.007427675
v 0.12824483 0.03283251 1.6602145E-06
v 0.83013684 0.033065524 1.2767493E-06
v 0.81048703 0.018670809 0.0074272957
v 0.1369044 -0.01478069 0.0074276766
v 0.15582363 -0.014781456 0.007427663
v 0.14635918 -0.022713989 0.0074276733
v 0.11333238 0.018730503 0.007427675
v 0.28825662 -0.014781315 0.007427593
v 0.81048703 0.018670809 0.0074272957
v 0.8301371 -0.022714676 0.007427303
v 0.804441 -0.022714538 0.0074273143
v 0.8001634 -0.012849904 0.007427312
v 0.78327394 -0.0047641513 0.0074273203
v 0.28825662 -0.014781315 0.007427593
v 0.7663853 -0.012850379 0.007427329
v 0.2977111 -0.022714566 0.0074275895
v 0.762107 -0.022714691 0.0074273404
v 0.26933756 -0.014780748 0.007427603
v 0.27879208 -0.022713989 0.0074276007
v 0.15582363 -0.014781456 0.007427663
v 0.17474273 -0.014780899 0.007427652
v 0.16527905 -0.022714395 0.007427664
v 0.19366153 -0.014781399 0.007427642
v 0.18419826 -0.022714121 0.007427654
v 0.21258055 -0.014780974 0.007427633
v 0.20311625 -0.022713706 0.007427644
v 0.23149948 -0.014780615 0.0074276244
v 0.22203615 -0.022714455 0.0074276337
v 0.2504185 -0.014781202 0.007427612
v 0.24095416 -0.02271403 0.0074276235
v 0.26933756 -0.014780748 0.007427603
v 0.25987303 -0.022714432 0.0074276137
v 0.83013684 0.033065524 1.2767493E-06
v 0.12824483 0.03283251 1.6602145E-06
v 0.11333238 0.018730493 -0.007423323
v 0.81048703 0.018670827 -0.007423702
v 0.1369044 -0.0147807 -0.0074233264
v 0.14635918 -0.022714019 -0.007423324
v 0.15582363 -0.014781438 -0.007423334
v 0.11333238 0.018730493 -0.007423323
v 0.28825662 -0.014781362 -0.0074234074
v 0.81048703 0.018670827 -0.007423702
v 0.804441 -0.02271452 -0.0074236826
v 0.8301371 -0.022714658 -0.007423695
v 0.8001634 -0.012849885 -0.007423688
v 0.78327394 -0.004764161 -0.0074236803
v 0.28825662 -0.014781362 -0.0074234074
v 0.7663853 -0.012850359 -0.0074236705
v 0.762107 -0.02271467 -0.0074236575
v 0.2977111 -0.022714566 -0.007423405
v 0.26933756 -0.014780748 -0.0074234
v 0.27879208 -0.022713998 -0.0074233967
v 0.17474273 -0.014780947 -0.007423348
v 0.15582363 -0.014781438 -0.007423334
v 0.16527905 -0.022714395 -0.007423334
v 0.19366153 -0.014781399 -0.007423355
v 0.18419826 -0.02271413 -0.007423344
v 0.21258055 -0.014780983 -0.007423367
v 0.20311625 -0.022713706 -0.0074233543
v 0.23149948 -0.014780634 -0.0074233785
v 0.22203615 -0.022714455 -0.0074233646
v 0.2504185 -0.0147812115 -0.0074233874
v 0.24095416 -0.022714011 -0.0074233767
v 0.26933756 -0.014780748 -0.0074234
v 0.25987303 -0.022714432 -0.0074233846
v 0.2977111 -0.022714566 0.0074275895
v 0.762107 -0.022714691 0.0074273404
v 0.762107 -0.02271467 -0.0074236575
v 0.2977111 -0.022714566 -0.007423405
v 0.7663853 -0.012850379 0.007427329
v 0.78327394 -0.0047641513 0.0074273203
v 0.78327394 -0.004764161 -0.0074236803
v 0.7663853 -0.012850359 -0.0074236705
v 0.8001634 -0.012849904 0.007427312
v 0.8001634 -0.012849885 -0.007423688
v 0.78327394 -0.004764161 -0.0074236803
v 0.78327394 -0.0047641513 0.0074273203
v 0.762107 -0.02271467 -0.0074236575
v 0.762107 -0.022714691 0.0074273404
v 0.7663853 -0.012850379 0.007427329
v 0.7663853 -0.012850359 -0.0074236705
v 0.15582363 -0.014781456 0.007427663
v 0.16527905 -0.022714395 0.007427664
v 0.16527905 -0.022714395 -0.007423334
v 0.15582363 -0.014781438 -0.007423334
v 0.16527905 -0.022714395 0.007427664
v 0.17474273 -0.014780899 0.007427652
v 0.17474273 -0.014780947 -0.007423348
v 0.16527905 -0.022714395 -0.007423334
v 0.19366153 -0.014781399 -0.007423355
v 0.18419826 -0.02271413 -0.007423344
v 0.18419826 -0.022714121 0.007427654
v 0.19366153 -0.014781399 0.007427642
v 0.804441 -0.02271452 -0.0074236826
v 0.804441 -0.022714538 0.0074273143
v 0.8301371 -0.022714676 0.007427303
v 0.8301371 -0.022714658 -0.007423695
v 0.804441 -0.022714538 0.0074273143
v 0.804441 -0.02271452 -0.0074236826
v 0.8001634 -0.012849885 -0.007423688
v 0.8001634 -0.012849904 0.007427312
v 0.12744409 -0.022714453 -0.007423312
v 0.12744409 -0.022714471 0.0074276826
v 0.1369044 -0.01478069 0.0074276766
v 0.1369044 -0.0147807 -0.0074233264
v 0.1369044 -0.01478069 0.0074276766
v 0.14635918 -0.022713989 0.0074276733
v 0.14635918 -0.022714019 -0.007423324
v 0.1369044 -0.0147807 -0.0074233264
v 0.15582363 -0.014781438 -0.007423334
v 0.14635918 -0.022714019 -0.007423324
v 0.14635918 -0.022713989 0.0074276733
v 0.15582363 -0.014781456 0.007427663
v 0.18419826 -0.02271413 -0.007423344
v 0.17474273 -0.014780947 -0.007423348
v 0.17474273 -0.014780899 0.007427652
v 0.18419826 -0.022714121 0.007427654
v 0.20311625 -0.022713706 -0.0074233543
v 0.19366153 -0.014781399 -0.007423355
v 0.19366153 -0.014781399 0.007427642
v 0.20311625 -0.022713706 0.007427644
v 0.21258055 -0.014780974 0.007427633
v 0.21258055 -0.014780983 -0.007423367
v 0.20311625 -0.022713706 -0.0074233543
v 0.20311625 -0.022713706 0.007427644
v 0.21258055 -0.014780983 -0.007423367
v 0.21258055 -0.014780974 0.007427633
v 0.22203615 -0.022714455 0.0074276337
v 0.22203615 -0.022714455 -0.0074233646
v 0.22203615 -0.022714455 0.0074276337
v 0.23149948 -0.014780615 0.0074276244
v 0.23149948 -0.014780634 -0.0074233785
v 0.22203615 -0.022714455 -0.0074233646
v 0.23149948 -0.014780615 0.0074276244
v 0.24095416 -0.02271403 0.0074276235
v 0.24095416 -0.022714011 -0.0074233767
v 0.23149948 -0.014780634 -0.0074233785
v 0.24095416 -0.022714011 -0.0074233767
v 0.24095416 -0.02271403 0.0074276235
v 0.2504185 -0.014781202 0.007427612
v 0.2504185 -0.0147812115 -0.0074233874
v 0.2504185 -0.014781202 0.007427612
v 0.25987303 -0.022714432 0.0074276137
v 0.25987303 -0.022714432 -0.0074233846
v 0.2504185 -0.0147812115 -0.0074233874
v 0.26933756 -0.014780748 -0.0074234
v 0.25987303 -0.022714432 -0.0074233846
v 0.25987303 -0.022714432 0.0074276137
v 0.26933756 -0.014780748 0.007427603
v 0.26933756 -0.014780748 0.007427603
v 0.27879208 -0.022713989 0.0074276007
v 0.27879208 -0.022713998 -0.0074233967
v 0.26933756 -0.014780748 -0.0074234
v 0.28825662 -0.014781315 0.007427593
v 0.28825662 -0.014781362 -0.0074234074
v 0.27879208 -0.022713998 -0.0074233967
v 0.27879208 -0.022713989 0.0074276007
v 0.2977111 -0.022714566 -0.007423405
v 0.28825662 -0.014781362 -0.0074234074
v 0.28825662 -0.014781315 0.007427593
v 0.2977111 -0.022714566 0.0074275895
vt 0.25601578 0
vt 0.85682 0.03288126
vt 0.99904 0.019682527
vt 0.25601602 0
vt 0.99903977 0.019682527
vt 0.8568202 0.03288126
vt 0 1
vt 0.99999964 0.99999446
vt 0.9999999 0.99999446
vt 0.2580346 0.9725855
vt 0 1
vt 0.9999999 0.99999446
vt 0.25803423 0.9725855
vt 0.99999964 0.99999446
vt 0 1
vt 0.25601578 0
vt 0.25601602 0
vt 0.003222227 0.020805538
vt 0.25601578 0
vt 0.003222227 0.020805538
vt 0 1
vt 0.2580346 0.9725855
vt 0.85682 0.03288126
vt 0.85685956 0.05927509
vt 0.9990572 0.046070576
vt 0.25601578 0
vt 0.8570372 0.24402946
vt 0.2580346 0.9725855
vt 0.9999999 0.99999446
vt 0.99996245 0.9641464
vt 0.8231083 0.9581798
vt 0.678128 0.9346185
vt 0.8570372 0.24402946
vt 0.8230709 0.9110567
vt 0.9992734 0.2572184
vt 0.9999076 0.9050871
vt 0.8570012 0.2176359
vt 0.9992374 0.23082483
vt 0.85685956 0.05927509
vt 0.8568753 0.08566868
vt 0.9990903 0.07246524
vt 0.8569101 0.11206192
vt 0.99911106 0.09885907
vt 0.8569282 0.13845542
vt 0.9991294 0.12525114
vt 0.85694754 0.1648488
vt 0.9991685 0.15164587
vt 0.8569838 0.19124237
vt 0.99918664 0.178038
vt 0.8570012 0.2176359
vt 0.99921954 0.2044313
vt 0 1
vt 0.003222227 0.020805538
vt 0.25601602 0
vt 0.25803423 0.9725855
vt 0.8568202 0.03288126
vt 0.99905765 0.046070576
vt 0.8568593 0.05927509
vt 0.25601602 0
vt 0.85703814 0.24402946
vt 0.25803423 0.9725855
vt 0.9999622 0.9641464
vt 0.99999964 0.99999446
vt 0.8231081 0.9581798
vt 0.6781281 0.9346185
vt 0.85703814 0.24402946
vt 0.82307065 0.9110567
vt 0.9999074 0.9050871
vt 0.9992734 0.2572184
vt 0.8570012 0.2176359
vt 0.99923766 0.23082483
vt 0.85687625 0.08566868
vt 0.8568593 0.05927509
vt 0.9990903 0.07246524
vt 0.8569101 0.11206192
vt 0.9991113 0.09885907
vt 0.8569282 0.13845542
vt 0.9991294 0.12525114
vt 0.8569478 0.1648488
vt 0.9991685 0.15164587
vt 0.8569838 0.19124237
vt 0.9991864 0.178038
vt 0.8570012 0.2176359
vt 0.99921954 0.2044313
vt 0.9992734 0.2572184
vt 0.9999076 0.9050871
vt 0.9999074 0.9050871
vt 0.9992734 0.2572184
vt 0.8230709 0.9110567
vt 0.678128 0.9346185
vt 0.6781281 0.9346185
vt 0.82307065 0.9110567
vt 0.8231083 0.9581798
vt 0.8231081 0.9581798
vt 0.6781281 0.9346185
vt 0.678128 0.9346185
vt 0.9999074 0.9050871
vt 0.9999076 0.9050871
vt 0.8230709 0.9110567
vt 0.82307065 0.9110567
vt 0.85685956 0.05927509
vt 0.9990903 0.07246524
vt 0.9990903 0.07246524
vt 0.8568593 0.05927509
vt 0.9990903 0.07246524
vt 0.8568753 0.08566868
vt 0.85687625 0.08566868
vt 0.9990903 0.07246524
vt 0.8569101 0.11206192
vt 0.9991113 0.09885907
vt 0.99911106 0.09885907
vt 0.8569101 0.11206192
vt 0.9999622 0.9641464
vt 0.99996245 0.9641464
vt 0.9999999 0.99999446
vt 0.99999964 0.99999446
vt 0.99996245 0.9641464
vt 0.9999622 0.9641464
vt 0.8231081 0.9581798
vt 0.8231083 0.9581798
vt 0.99903977 0.019682527
vt 0.99904 0.019682527
vt 0.85682 0.03288126
vt 0.8568202 0.03288126
vt 0.85682 0.03288126
vt 0.9990572 0.046070576
vt 0.99905765 0.046070576
vt 0.8568202 0.03288126
vt 0.8568593 0.05927509
vt 0.99905765 0.046070576
vt 0.9990572 0.046070576
vt 0.85685956 0.05927509
vt 0.9991113 0.09885907
vt 0.85687625 0.08566868
vt 0.8568753 0.08566868
vt 0.99911106 0.09885907
vt 0.9991294 0.12525114
vt 0.8569101 0.11206192
vt 0.8569101 0.11206192
vt 0.9991294 0.12525114
vt 0.8569282 0.13845542
vt 0.8569282 0.13845542
vt 0.9991294 0.12525114
vt 0.9991294 0.12525114
vt 0.8569282 0.13845542
vt 0.8569282 0.13845542
vt 0.9991685 0.15164587
vt 0.9991685 0.15164587
vt 0.9991685 0.15164587
vt 0.85694754 0.1648488
vt 0.8569478 0.1648488
vt 0.9991685 0.15164587
vt 0.85694754 0.1648488
vt 0.99918664 0.178038
vt 0.9991864 0.178038
vt 0.8569478 0.1648488
vt 0.9991864 0.178038
vt 0.99918664 0.178038
vt 0.8569838 0.19124237
vt 0.8569838 0.19124237
vt 0.8569838 0.19124237
vt 0.99921954 0.2044313
vt 0.99921954 0.2044313
vt 0.8569838 0.19124237
vt 0.8570012 0.2176359
vt 0.99921954 0.2044313
vt 0.99921954 0.2044313
vt 0.8570012 0.2176359
vt 0.8570012 0.2176359
vt 0.9992374 0.23082483
vt 0.99923766 0.23082483
vt 0.8570012 0.2176359
vt 0.8570372 0.24402946
vt 0.85703814 0.24402946
vt 0.99923766 0.23082483
vt 0.9992374 0.23082483
vt 0.9992734 0.2572184
vt 0.85703814 0.24402946
vt 0.8570372 0.24402946
vt 0.9992734 0.2572184
vn 3.6813503E-07 3.123085E-07 1
vn 3.681351E-07 3.123085E-07 1
vn 3.6813503E-07 3.1230846E-07 1
vn -9.979851E-07 -6.13058E-07 -1
vn -9.979851E-07 -6.13058E-07 -1
vn -9.979851E-07 -6.13058E-07 -1
vn 1 4.7765434E-06 0
vn 1 4.7765434E-06 0
vn 1 4.7765434E-06 0
vn 0.26778808 0.1271474 0.9550514
vn 0.2677881 0.1271474 0.9550514
vn 0.26778808 0.1271474 0.9550514
vn 0.2677541 0.12713094 -0.95506305
vn 0.2677541 0.12713094 -0.95506305
vn 0.2677541 0.12713094 -0.95506305
vn -0.68708783 0.7265744 -4.666119E-07
vn -0.68708783 0.7265744 -4.6661188E-07
vn -0.68708783 0.7265744 -4.666119E-07
vn -5.6779343E-05 0.46223316 0.88675845
vn -5.6779347E-05 0.46223316 0.88675845
vn -5.6779347E-05 0.46223316 0.88675845
vn -5.6779347E-05 0.46223307 0.8867585
vn 7.246274E-07 4.1280393E-07 1
vn 7.246274E-07 4.1280393E-07 1
vn 7.246274E-07 4.1280393E-07 1
vn 7.246335E-07 5.6307226E-07 1
vn 5.4379547E-07 4.0178745E-07 1
vn 4.2479994E-07 3.8441323E-07 1
vn 4.248E-07 3.8441323E-07 1
vn 4.248E-07 3.8441326E-07 1
vn 4.2479994E-07 3.8441323E-07 1
vn 6.3840116E-07 3.014717E-07 1
vn 5.0409056E-07 3.0022312E-07 1
vn 5.5244857E-07 0 1
vn 5.4327535E-07 5.9338043E-07 1
vn 5.432754E-07 5.9338043E-07 1
vn 5.0409056E-07 3.0022312E-07 1
vn 5.0409056E-07 3.0022312E-07 1
vn 5.985696E-07 8.6371676E-07 1
vn 5.0411194E-07 9.0137723E-07 1
vn 5.9856956E-07 8.637168E-07 1
vn 5.0406413E-07 8.262317E-07 1
vn 5.0411194E-07 9.0137723E-07 1
vn 5.040641E-07 8.262316E-07 1
vn 5.040641E-07 8.262316E-07 1
vn 4.4106125E-07 6.7594425E-07 1
vn 4.4106127E-07 6.759442E-07 1
vn 4.72558E-07 7.885744E-07 1
vn 6.6162914E-07 7.133683E-07 1
vn 4.7255799E-07 7.885743E-07 1
vn 4.72558E-07 7.885743E-07 1
vn -5.774895E-05 0.46218342 -0.8867843
vn -5.774895E-05 0.46218342 -0.8867843
vn -5.774895E-05 0.46218342 -0.8867843
vn -5.774895E-05 0.46218342 -0.8867843
vn -4.0959333E-07 -7.8867265E-07 -1
vn -4.0959333E-07 -7.886727E-07 -1
vn -4.0959333E-07 -7.8867265E-07 -1
vn -4.095703E-07 -1.9916247E-07 -1
vn -5.437893E-07 -3.3061056E-07 -1
vn -3.7692504E-07 -4.202121E-07 -1
vn -3.769251E-07 -4.2021216E-07 -1
vn -3.769251E-07 -4.2021213E-07 -1
vn -3.769251E-07 -4.2021213E-07 -1
vn -5.844159E-07 -2.624239E-07 -1
vn -3.7809048E-07 -9.0138815E-07 -1
vn -5.508912E-07 0 -1
vn -5.4554386E-07 -1.0294168E-06 -1
vn -5.4554386E-07 -1.0294168E-06 -1
vn -3.7809045E-07 -9.0138803E-07 -1
vn -3.7809048E-07 -9.0138803E-07 -1
vn -3.780877E-07 -9.014405E-07 -1
vn -7.245926E-07 -8.636525E-07 -1
vn -7.2459267E-07 -8.6365253E-07 -1
vn -6.3008514E-07 -8.2615605E-07 -1
vn -3.780877E-07 -9.0144056E-07 -1
vn -6.300851E-07 -8.26156E-07 -1
vn -6.30085E-07 -8.2615605E-07 -1
vn -6.3008633E-07 -1.0514979E-06 -1
vn -6.3008633E-07 -1.0514979E-06 -1
vn -6.615792E-07 -1.1641092E-06 -1
vn -4.7260048E-07 -7.886209E-07 -1
vn -6.615792E-07 -1.1641092E-06 -1
vn -6.6157924E-07 -1.1641093E-06 -1
vn -2.4666147E-07 -1 -6.421329E-07
vn -2.4666147E-07 -1 -6.421329E-07
vn -2.4666147E-07 -1 -6.421329E-07
vn -2.4666602E-07 -1 -6.421329E-07
vn 0.43184957 -0.90194565 -2.893646E-07
vn 0.43184957 -0.90194565 -2.8936464E-07
vn 0.4318496 -0.90194565 -2.8936464E-07
vn 0.43184957 -0.90194565 -2.8936464E-07
vn -0.43180972 -0.90196466 -2.8935494E-07
vn -0.4318097 -0.9019648 -2.8935492E-07
vn -0.43180972 -0.9019648 -2.8935494E-07
vn -0.4318097 -0.9019648 -2.8935494E-07
vn 0.91742873 -0.39790016 -5.132544E-07
vn 0.91742873 -0.39790013 -5.132544E-07
vn 0.91742873 -0.39790013 -5.132544E-07
vn 0.91742873 -0.39790013 -5.1325446E-07
vn -0.64273626 -0.7660875 -4.877688E-07
vn -0.64273626 -0.7660875 -4.877688E-07
vn -0.64273626 -0.76608753 -4.877687E-07
vn -0.64273626 -0.7660875 -4.8776866E-07
vn 0.6424305 -0.76634395 1.2268858E-06
vn 0.6424305 -0.76634395 1.2268858E-06
vn 0.6424305 -0.76634395 1.2268858E-06
vn 0.6424305 -0.76634395 1.2268858E-06
vn 0.6424117 -0.7663596 2.4376794E-07
vn 0.6424117 -0.7663596 2.4376797E-07
vn 0.6424117 -0.7663596 2.4376794E-07
vn 0.64241165 -0.7663596 2.4376797E-07
vn -5.378634E-06 -1 -1.2843236E-06
vn -5.3786393E-06 -1 -1.2843236E-06
vn -5.3786416E-06 -1 -1.2843236E-06
vn -5.3786393E-06 -1 -1.2843236E-06
vn -0.91745514 -0.39783916 -5.1325236E-07
vn -0.91745514 -0.3978392 -5.132523E-07
vn -0.91745514 -0.39783913 -5.132523E-07
vn -0.91745514 -0.39783913 -5.1325236E-07
vn 0.6425791 -0.7662194 -2.4379952E-07
vn 0.6425791 -0.7662194 -2.437995E-07
vn 0.64257914 -0.7662194 -2.4379952E-07
vn 0.64257914 -0.7662194 -2.437995E-07
vn -0.6427793 -0.76605135 9.836876E-07
vn -0.64277935 -0.76605135 9.83688E-07
vn -0.6427794 -0.76605135 9.83688E-07
vn -0.64277935 -0.76605135 9.836878E-07
vn 0.6423565 -0.766406 2.4375225E-07
vn 0.64235646 -0.766406 2.437523E-07
vn 0.6423565 -0.766406 2.4375225E-07
vn 0.6423565 -0.766406 2.437523E-07
vn -0.6427439 -0.76608115 1.4714053E-06
vn -0.6427439 -0.7660811 1.4714053E-06
vn -0.6427439 -0.76608115 1.4714054E-06
vn -0.6427439 -0.76608115 1.4714054E-06
vn -0.64273316 -0.76609004 0
vn -0.6427332 -0.76609004 0
vn -0.6427332 -0.76609004 0
vn -0.6427332 -0.76609004 0
vn 0.6423714 -0.7663934 2.4375265E-07
vn 0.6423714 -0.7663934 2.4375268E-07
vn 0.6423714 -0.7663934 2.4375268E-07
vn 0.6423714 -0.7663934 2.4375265E-07
vn -0.64275384 -0.76607275 2.4387472E-07
vn -0.64275384 -0.76607287 2.4387475E-07
vn -0.64275384 -0.76607287 2.4387475E-07
vn -0.64275384 -0.76607275 2.4387472E-07
vn 0.6424619 -0.76631767 4.875062E-07
vn 0.6424619 -0.76631767 4.875062E-07
vn 0.6424619 -0.76631767 4.8750616E-07
vn 0.64246196 -0.7663176 4.875062E-07
vn -0.64278644 -0.76604545 0
vn -0.64278644 -0.76604533 0
vn -0.6427865 -0.76604533 0
vn -0.6427865 -0.76604533 0
vn 0.6423725 -0.76639265 -2.4375043E-07
vn 0.6423725 -0.76639265 -2.437504E-07
vn 0.64237255 -0.7663926 -2.437504E-07
vn 0.6423725 -0.7663926 -2.4375043E-07
vn -0.6427853 -0.76604635 2.4389433E-07
vn -0.6427853 -0.76604635 2.4389433E-07
vn -0.6427853 -0.76604635 2.4389433E-07
vn -0.6427854 -0.76604635 2.4389436E-07
vn 0.64240795 -0.76636285 0
vn 0.64240795 -0.76636285 0
vn 0.64240795 -0.76636285 0
vn 0.64240795 -0.76636285 0
vn -0.64278626 -0.7660456 2.4389408E-07
vn -0.6427863 -0.7660455 2.4389408E-07
vn -0.6427863 -0.7660455 2.4389408E-07
vn -0.64278626 -0.7660456 2.4389408E-07
vn 0.64235824 -0.7664046 1.4868741E-06
vn 0.64235824 -0.7664046 1.4868741E-06
vn 0.6423582 -0.7664046 1.4868739E-06
vn 0.6423582 -0.7664046 1.4868739E-06
vn -0.6427856 -0.7660461 1.536535E-06
vn -0.6427856 -0.7660461 1.5365351E-06
vn -0.6427856 -0.7660461 1.5365351E-06
vn -0.6427856 -0.76604605 1.536535E-06
g Eff_Anbi_Weapon_001_01_0
f 3/3/3 2/2/2 1/1/1
f 6/6/6 5/5/5 4/4/4
f 9/9/9 8/8/8 7/7/7
f 12/12/12 11/11/11 10/10/10
f 15/15/15 14/14/14 13/13/13
f 18/18/18 17/17/17 16/16/16
f 21/21/21 20/20/20 19/19/19
f 22/22/22 21/21/21 19/19/19
f 25/25/25 24/24/24 23/23/23
f 26/26/26 23/23/23 24/24/24
f 28/28/28 26/26/26 27/27/27
f 30/30/30 29/29/29 28/28/28
f 31/31/31 30/30/30 28/28/28
f 32/32/32 31/31/31 28/28/28
f 32/32/32 28/28/28 33/33/33
f 32/32/32 33/33/33 34/34/34
f 34/34/34 33/33/33 35/35/35
f 36/36/36 34/34/34 35/35/35
f 33/33/33 26/26/26 37/37/37
f 38/38/38 33/33/33 37/37/37
f 40/40/40 26/26/26 39/39/39
f 41/41/41 40/40/40 39/39/39
f 42/42/42 26/26/26 40/40/40
f 43/43/43 42/42/42 40/40/40
f 44/44/44 26/26/26 42/42/42
f 45/45/45 44/44/44 42/42/42
f 46/46/46 26/26/26 44/44/44
f 47/47/47 46/46/46 44/44/44
f 48/48/48 26/26/26 46/46/46
f 49/49/49 48/48/48 46/46/46
f 50/50/50 26/26/26 48/48/48
f 51/51/51 50/50/50 48/48/48
f 54/54/54 53/53/53 52/52/52
f 55/55/55 54/54/54 52/52/52
f 58/58/58 57/57/57 56/56/56
f 58/58/58 56/56/56 59/59/59
f 59/59/59 61/61/61 60/60/60
f 63/63/63 62/62/62 61/61/61
f 62/62/62 64/64/64 61/61/61
f 64/64/64 65/65/65 61/61/61
f 66/66/66 61/61/61 65/65/65
f 66/66/66 65/65/65 67/67/67
f 66/66/66 67/67/67 68/68/68
f 69/69/69 66/66/66 68/68/68
f 70/70/70 59/59/59 66/66/66
f 66/66/66 71/71/71 70/70/70
f 73/73/73 59/59/59 72/72/72
f 72/72/72 74/74/74 73/73/73
f 72/72/72 59/59/59 75/75/75
f 75/75/75 76/76/76 72/72/72
f 75/75/75 59/59/59 77/77/77
f 77/77/77 78/78/78 75/75/75
f 77/77/77 59/59/59 79/79/79
f 79/79/79 80/80/80 77/77/77
f 79/79/79 59/59/59 81/81/81
f 81/81/81 82/82/82 79/79/79
f 81/81/81 59/59/59 83/83/83
f 83/83/83 84/84/84 81/81/81
f 87/87/87 86/86/86 85/85/85
f 88/88/88 87/87/87 85/85/85
f 91/91/91 90/90/90 89/89/89
f 92/92/92 91/91/91 89/89/89
f 95/95/95 94/94/94 93/93/93
f 96/96/96 95/95/95 93/93/93
f 99/99/99 98/98/98 97/97/97
f 100/100/100 99/99/99 97/97/97
f 103/103/103 102/102/102 101/101/101
f 104/104/104 103/103/103 101/101/101
f 107/107/107 106/106/106 105/105/105
f 108/108/108 107/107/107 105/105/105
f 111/111/111 110/110/110 109/109/109
f 112/112/112 111/111/111 109/109/109
f 115/115/115 114/114/114 113/113/113
f 116/116/116 115/115/115 113/113/113
f 119/119/119 118/118/118 117/117/117
f 120/120/120 119/119/119 117/117/117
f 123/123/123 122/122/122 121/121/121
f 124/124/124 123/123/123 121/121/121
f 127/127/127 126/126/126 125/125/125
f 128/128/128 127/127/127 125/125/125
f 131/131/131 130/130/130 129/129/129
f 132/132/132 131/131/131 129/129/129
f 135/135/135 134/134/134 133/133/133
f 136/136/136 135/135/135 133/133/133
f 139/139/139 138/138/138 137/137/137
f 140/140/140 139/139/139 137/137/137
f 143/143/143 142/142/142 141/141/141
f 144/144/144 143/143/143 141/141/141
f 147/147/147 146/146/146 145/145/145
f 148/148/148 147/147/147 145/145/145
f 151/151/151 150/150/150 149/149/149
f 152/152/152 151/151/151 149/149/149
f 155/155/155 154/154/154 153/153/153
f 156/156/156 155/155/155 153/153/153
f 159/159/159 158/158/158 157/157/157
f 160/160/160 159/159/159 157/157/157
f 163/163/163 162/162/162 161/161/161
f 164/164/164 163/163/163 161/161/161
f 167/167/167 166/166/166 165/165/165
f 168/168/168 167/167/167 165/165/165
f 171/171/171 170/170/170 169/169/169
f 172/172/172 171/171/171 169/169/169
f 175/175/175 174/174/174 173/173/173
f 176/176/176 175/175/175 173/173/173
f 179/179/179 178/178/178 177/177/177
f 180/180/180 179/179/179 177/177/177
