g Fiery011
v 1.1666965 3.6767776E-08 -0.44563735
v 0.4186986 -0.19666223 -0.16260025
v 0.48080707 -0.096170366 3.0517577E-07
v 0.3592628 -0.10049292 -0.31820542
v 0.48080707 0.09616908 3.0517577E-07
v 1.1666961 -1.0843951E-07 0.44563857
v 0.41869837 -0.19666229 0.16260055
v 0.35926247 -0.10049302 0.3182057
v 0.3592628 0.10049173 -0.31820542
v 0.4186986 0.19666183 -0.16260025
v 0.6064476 1.2403021E-07 -0.98125046
v 0.19666244 -0.16260055 -0.41869843
v 0.09616975 -1.2271755E-07 -0.48080596
v 0.19666244 0.16260026 -0.41869834
v 0.72105885 0.7210564 -0.7210576
v 6.5659384E-07 0.44563812 -1.1666961
v -0.09616886 -1.2271754E-07 -0.4808061
v -0.19666162 0.16260026 -0.41869858
v 0.10049313 0.31820545 -0.35926238
v -0.10049238 0.31820545 -0.35926247
v -0.7210579 0.7210564 -0.7210583
v -0.35926208 0.10049173 -0.31820577
v -0.41869804 0.19666183 -0.16260055
v 0.31820664 0.35926223 -0.1004927
v 0.16260067 0.41869816 -0.19666183
v 3.6937195E-07 0.98125076 -0.60644656
v -0.16260011 0.41869816 -0.19666198
v -0.31820533 0.35926223 -0.10049301
v 2.0320287E-07 0.48080572 -0.09616928
v 0.9812506 0.606445 6.1035155E-07
v 0.44563812 1.1666962 4.5776366E-07
v -0.44563785 1.1666962 0
v -0.98125064 0.606445 -3.0517577E-07
v -0.48080575 0.09616908 -3.0517577E-07
v -0.41869825 0.19666177 0.16260025
v -0.31820542 0.3592622 0.100491636
v 0.31820652 0.3592622 0.10049209
v 0.41869837 0.19666177 0.16260071
v 1.0197292E-07 0.4808057 0.096169434
v -0.72105867 0.72105813 0.7210577
v -0.35926247 0.10049251 0.31820542
v -0.19666208 0.16260013 0.41869825
v -0.16260031 0.41869807 0.19666198
v 0.16260047 0.41869807 0.19666214
v 0.35926247 0.10049163 0.3182057
v 0.721058 0.7210562 0.7210588
v -0.10049275 0.31820533 0.35926238
v -2.7662898E-07 0.9812506 0.6064453
v 0.10049276 0.31820533 0.35926253
v -5.7149504E-07 0.44563773 1.1666962
v -0.096169375 -2.7938404E-07 0.48080596
v 0.09616923 -2.7938404E-07 0.4808061
v 0.19666201 0.16260013 0.41869858
v 0.60644644 -1.957019E-07 0.98125136
v 0.19666201 -0.16260068 0.41869858
v -1.1666965 -1.0843932E-07 0.44563735
v -0.41869825 0.19666177 0.16260025
v -0.35926247 0.10049251 0.31820542
v -0.48080575 0.09616908 -3.0517577E-07
v -0.35926247 -0.10049302 0.31820542
v -0.6064454 -1.9570183E-07 0.9812509
v -0.19666208 0.16260013 0.41869825
v -0.096169375 -2.7938404E-07 0.48080596
v -0.19666208 -0.16260068 0.41869825
v -5.7149504E-07 -0.44563818 1.1666962
v 0.09616923 -2.7938404E-07 0.4808061
v 0.19666201 -0.16260068 0.41869858
v -0.48080575 -0.096170366 -3.0517577E-07
v -0.41869825 -0.19666229 0.16260025
v -0.72105867 -0.72105867 0.7210574
v -0.10049275 -0.3182067 0.35926223
v 0.10049276 -0.3182067 0.35926238
v -1.1666961 3.676798E-08 -0.44563866
v -0.41869804 0.19666183 -0.16260055
v -0.35926208 0.10049173 -0.31820577
v 0.721058 -0.72105867 0.7210585
v 0.35926247 -0.10049302 0.3182057
v 0.41869837 -0.19666229 0.16260055
v -0.31820542 -0.35926273 0.1004927
v -0.16260031 -0.41869858 0.19666183
v -0.98125064 -0.6064469 -4.5776366E-07
v -0.41869804 -0.19666223 -0.16260071
v -0.35926208 -0.10049292 -0.31820586
v -2.7662995E-07 -0.98125064 0.6064467
v 0.16260047 -0.41869858 0.19666214
v 0.31820652 -0.35926273 0.10049301
v -0.31820533 -0.35926268 -0.10049194
v -0.44563785 -1.1666963 -4.5776366E-07
v 1.0197292E-07 -0.4808071 0.09616928
v -0.7210579 -0.7210584 -0.72105867
v 0.44563812 -1.1666963 0
v 0.9812506 -0.6064469 3.814697E-07
v 0.48080707 -0.096170366 3.0517577E-07
v 0.4186986 -0.19666223 -0.16260025
v 0.31820664 -0.35926268 -0.10049171
v 2.0320287E-07 -0.48080707 -0.096169434
v -0.16260011 -0.4186985 -0.19666214
v 0.72105885 -0.7210584 -0.7210578
v 0.3592628 -0.10049292 -0.31820542
v 0.19666244 -0.16260055 -0.41869843
v 0.16260067 -0.4186985 -0.19666198
v 3.6937195E-07 -0.9812505 -0.60644686
v 0.10049313 -0.31820658 -0.35926247
v -0.10049238 -0.31820658 -0.35926253
v 6.5659384E-07 -0.44563782 -1.1666962
v 0.09616975 -1.2271755E-07 -0.48080596
v -0.09616886 -1.2271754E-07 -0.4808061
v -0.19666162 -0.16260055 -0.41869858
v -0.60644436 1.240303E-07 -0.98125106
v -0.19666162 0.16260026 -0.41869858
vt 0.50887823 0.41638634
vt 0.44340977 0.4616919
vt 0.5428086 0.5101601
vt 0.43431023 0.35539386
vt 0.5909118 0.4483936
vt 0.6420413 0.5200832
vt 0.6141527 0.59465426
vt 0.71944815 0.57743394
vt 0.506881 0.32498333
vt 0.57074887 0.37025577
vt 0.45905426 0.2741317
vt 0.39300072 0.2649542
vt 0.4573987 0.18920532
vt 0.51893234 0.23824582
vt 0.5739781 0.290097
vt 0.5457685 0.15086006
vt 0.49511528 0.08942352
vt 0.60393625 0.06986743
vt 0.592722 0.21209262
vt 0.63341093 0.1423977
vt 0.7021216 0.087368116
vt 0.6956064 0.008018516
vt 0.79220295 0.053286057
vt 0.6334412 0.33511722
vt 0.64345926 0.26299098
vt 0.6574324 0.20157827
vt 0.7111579 0.16401853
vt 0.78228027 0.13135298
vt 0.71026164 0.23588106
vt 0.6301513 0.3980117
vt 0.7005079 0.3076766
vt 0.77897006 0.2069063
vt 0.85019594 0.115341306
vt 0.89114773 0.062696114
vt 0.9245511 0.15628938
vt 0.8513778 0.18519199
vt 0.6903303 0.37941498
vt 0.671615 0.44880033
vt 0.7677323 0.28062326
vt 0.91376555 0.25203362
vt 0.99224144 0.23884523
vt 0.9547584 0.34295148
vt 0.8371934 0.26213422
vt 0.7578145 0.35203055
vt 0.73115873 0.4996258
vt 0.74855226 0.42603052
vt 0.87720954 0.33219412
vt 0.8139383 0.32342878
vt 0.819603 0.38874087
vt 0.890494 0.4192455
vt 0.96246266 0.45329067
vt 0.8749399 0.51432747
vt 0.812317 0.4666871
vt 0.7921815 0.5335339
vt 0.8172591 0.5953265
vt 0.08331316 0.7538879
vt 0.0049266787 0.7678405
vt 0.07337113 0.84968585
vt 0.041295826 0.66338295
vt 0.14629376 0.82010806
vt 0.1481913 0.88989896
vt 0.10779134 0.94295955
vt 0.20686176 0.9513294
vt 0.2159633 0.8731692
vt 0.29659042 0.9162804
vt 0.30394796 0.99555665
vt 0.39494792 0.9327294
vt 0.11889697 0.67331666
vt 0.15967079 0.74292827
vt 0.21846618 0.7975773
vt 0.2867432 0.8397341
vt 0.36472672 0.86050856
vt 0.10475569 0.5863799
vt 0.03241116 0.55313224
vt 0.11926482 0.49116588
vt 0.4522817 0.8511361
vt 0.50357664 0.9120262
vt 0.5402347 0.8118336
vt 0.22895592 0.72375613
vt 0.28688475 0.7678724
vt 0.18234982 0.6814393
vt 0.17589056 0.61622
vt 0.18238567 0.5381583
vt 0.34007615 0.8015991
vt 0.4046764 0.7903938
vt 0.47818047 0.7634539
vt 0.23811227 0.65222687
vt 0.29587886 0.6959718
vt 0.353397 0.74004227
vt 0.24655575 0.5781421
vt 0.42258316 0.7121911
vt 0.5376691 0.7269234
vt 0.6038174 0.73539096
vt 0.56154007 0.64539677
vt 0.48930025 0.6765862
vt 0.36264327 0.6678105
vt 0.30528578 0.6241236
vt 0.48632306 0.5852061
vt 0.5513018 0.5392001
vt 0.4513906 0.49180096
vt 0.42495227 0.6319988
vt 0.36525753 0.6048823
vt 0.40395197 0.55408096
vt 0.32325006 0.55454254
vt 0.35206106 0.48294395
vt 0.37915006 0.4080767
vt 0.27405387 0.4264233
vt 0.2631743 0.50435644
vt 0.20180154 0.4710948
vt 0.17606941 0.40956888
vn 0.93417203 1.6939454E-06 -0.35682306
vn 0.85241723 -0.39673972 -0.34056196
vn 0.98250014 -0.18626207 5.1540184E-07
vn 0.7373025 -0.21047847 -0.6419376
vn 0.98250014 0.18626206 6.239081E-07
vn 0.9341715 -2.0426992E-06 0.35682428
vn 0.8524167 -0.39673936 0.3405636
vn 0.7373019 -0.21047863 0.64193827
vn 0.7373024 0.21047896 -0.6419375
vn 0.85241747 0.39673868 -0.34056264
vn 0.5257315 2.5938898E-06 -0.85065055
vn 0.39674067 -0.3405612 -0.8524171
vn 0.18626122 2.8482793E-07 -0.98250026
vn 0.39673987 0.3405615 -0.8524174
vn 0.57734936 0.5773526 -0.5773489
vn -1.9928781E-07 0.3568241 -0.9341716
vn -0.18625923 1.8988537E-07 -0.9825006
vn -0.39673927 0.3405618 -0.8524176
vn 0.21047941 0.6419387 -0.7373013
vn -0.21047872 0.6419386 -0.7373015
vn -0.57735145 0.5773496 -0.5773496
vn -0.7373015 0.2104784 -0.6419387
vn -0.8524174 0.39673904 -0.3405625
vn 0.64193803 0.737302 -0.21047893
vn 0.340562 0.85241693 -0.39674032
vn -1.6211791E-06 0.8506513 -0.5257302
vn -0.34056243 0.8524169 -0.39674005
vn -0.6419384 0.73730177 -0.2104786
vn -0 0.9825004 -0.1862605
vn 0.85065114 0.52573055 2.701959E-07
vn 0.35682234 0.9341723 2.092523E-06
vn -0.35682347 0.93417186 1.3950204E-06
vn -0.8506498 0.52573276 -1.3509823E-06
vn -0.9825005 0.18626006 -5.967828E-07
vn -0.85241747 0.39674014 0.34056088
vn -0.64193857 0.7373016 0.2104787
vn 0.6419379 0.7373014 0.2104812
vn 0.85241723 0.39673886 0.3405632
vn -0 0.9825005 0.18625998
vn -0.57734877 0.5773507 0.57735133
vn -0.7373019 0.21047793 0.64193845
vn -0.39674014 0.34056246 0.8524168
vn -0.34056276 0.8524173 0.39673874
vn 0.3405622 0.8524169 0.39674026
vn 0.73730165 0.21047868 0.6419385
vn 0.5773487 0.5773482 0.5773539
vn -0.21047863 0.64193857 0.73730165
vn -2.3777259E-06 0.85065055 0.5257315
vn 0.21047781 0.64193887 0.7373016
vn -7.131065E-07 0.3568241 0.9341716
vn -0.18626052 0 0.9825004
vn 0.18625993 0 0.9825005
vn 0.39673898 0.34056136 0.8524178
vn 0.52572995 1.0807878E-07 0.8506515
vn 0.39673963 -0.3405617 0.8524174
vn -0.93417317 2.2419904E-06 0.35681987
vn -0.85241747 0.39674014 0.34056088
vn -0.7373019 0.21047793 0.64193845
vn -0.9825005 0.18626006 -5.967828E-07
vn -0.7373018 -0.210478 0.64193845
vn -0.52572995 1.7292574E-06 0.8506515
vn -0.39674014 0.34056246 0.8524168
vn -0.18626052 0 0.9825004
vn -0.3967407 -0.34056202 0.8524167
vn 1.4946556E-07 -0.35682547 0.9341711
vn 0.18625993 0 0.9825005
vn 0.39673963 -0.3405617 0.8524174
vn -0.9825005 -0.18625996 -6.510352E-07
vn -0.8524174 -0.3967398 0.34056142
vn -0.5773546 -0.57734776 0.57734835
vn -0.21048011 -0.64193785 0.73730177
vn 0.21047881 -0.6419379 0.737302
vn -0.9341726 -3.7366592E-06 -0.35682166
vn -0.8524174 0.39673904 -0.3405625
vn -0.7373015 0.2104784 -0.6419387
vn 0.5773492 -0.5773505 0.57735103
vn 0.7373019 -0.21047863 0.64193827
vn 0.8524167 -0.39673936 0.3405636
vn -0.641938 -0.7373022 0.2104779
vn -0.34056312 -0.8524171 0.39673892
vn -0.8506501 -0.52573234 -8.646309E-07
vn -0.8524171 -0.3967404 -0.34056148
vn -0.7373015 -0.21047787 -0.6419389
vn -8.646288E-07 -0.8506503 0.52573186
vn 0.34056187 -0.8524173 0.3967396
vn 0.64193785 -0.7373018 0.21047983
vn -0.6419379 -0.7373017 -0.21048024
vn -0.35682446 -0.93417144 -3.5871863E-06
vn -2.441378E-07 -0.9825001 0.18626258
vn -0.5773511 -0.5773479 -0.5773518
vn 0.3568255 -0.9341711 0
vn 0.8506507 -0.52573127 8.105913E-07
vn 0.98250014 -0.18626207 5.1540184E-07
vn 0.85241723 -0.39673972 -0.34056196
vn 0.6419378 -0.7373017 -0.2104805
vn -0 -0.98249996 -0.18626286
vn -0.34056303 -0.8524174 -0.39673844
vn 0.5773516 -0.57735 -0.57734907
vn 0.7373025 -0.21047847 -0.6419376
vn 0.39674067 -0.3405612 -0.8524171
vn 0.3405627 -0.8524174 -0.3967388
vn -7.565496E-07 -0.85065097 -0.52573085
vn 0.21047997 -0.6419379 -0.7373018
vn -0.21047918 -0.6419378 -0.737302
vn 1.1957251E-06 -0.35682273 -0.93417203
vn 0.18626122 2.8482793E-07 -0.98250026
vn -0.18625923 1.8988537E-07 -0.9825006
vn -0.3967399 -0.34056145 -0.8524173
vn -0.5257282 1.891373E-06 -0.8506525
vn -0.39673927 0.3405618 -0.8524176
g Fiery011_0
f 3/3/3 2/2/2 1/1/1
f 2/2/2 4/4/4 1/1/1
f 5/5/5 3/3/3 1/1/1
f 3/3/3 5/5/5 6/6/6
f 7/7/7 3/3/3 6/6/6
f 8/8/8 7/7/7 6/6/6
f 4/4/4 9/9/9 1/1/1
f 10/10/10 5/5/5 1/1/1
f 9/9/9 10/10/10 1/1/1
f 9/9/9 4/4/4 11/11/11
f 4/4/4 12/12/12 11/11/11
f 11/11/11 12/12/12 13/13/13
f 14/14/14 9/9/9 11/11/11
f 13/13/13 14/14/14 11/11/11
f 10/10/10 9/9/9 15/15/15
f 9/9/9 14/14/14 15/15/15
f 14/14/14 13/13/13 16/16/16
f 13/13/13 17/17/17 16/16/16
f 17/17/17 18/18/18 16/16/16
f 19/19/19 14/14/14 16/16/16
f 14/14/14 19/19/19 15/15/15
f 18/18/18 20/20/20 16/16/16
f 20/20/20 19/19/19 16/16/16
f 20/20/20 18/18/18 21/21/21
f 18/18/18 22/22/22 21/21/21
f 22/22/22 23/23/23 21/21/21
f 24/24/24 10/10/10 15/15/15
f 19/19/19 25/25/25 15/15/15
f 25/25/25 24/24/24 15/15/15
f 19/19/19 20/20/20 26/26/26
f 25/25/25 19/19/19 26/26/26
f 27/27/27 20/20/20 21/21/21
f 20/20/20 27/27/27 26/26/26
f 23/23/23 28/28/28 21/21/21
f 28/28/28 27/27/27 21/21/21
f 29/29/29 25/25/25 26/26/26
f 27/27/27 29/29/29 26/26/26
f 10/10/10 24/24/24 30/30/30
f 5/5/5 10/10/10 30/30/30
f 24/24/24 25/25/25 31/31/31
f 25/25/25 29/29/29 31/31/31
f 29/29/29 27/27/27 32/32/32
f 27/27/27 28/28/28 32/32/32
f 28/28/28 23/23/23 33/33/33
f 23/23/23 34/34/34 33/33/33
f 34/34/34 35/35/35 33/33/33
f 36/36/36 28/28/28 33/33/33
f 35/35/35 36/36/36 33/33/33
f 28/28/28 36/36/36 32/32/32
f 24/24/24 37/37/37 30/30/30
f 37/37/37 24/24/24 31/31/31
f 38/38/38 5/5/5 30/30/30
f 37/37/37 38/38/38 30/30/30
f 5/5/5 38/38/38 6/6/6
f 29/29/29 39/39/39 31/31/31
f 39/39/39 29/29/29 32/32/32
f 36/36/36 35/35/35 40/40/40
f 35/35/35 41/41/41 40/40/40
f 41/41/41 42/42/42 40/40/40
f 36/36/36 43/43/43 32/32/32
f 43/43/43 36/36/36 40/40/40
f 43/43/43 39/39/39 32/32/32
f 44/44/44 37/37/37 31/31/31
f 39/39/39 44/44/44 31/31/31
f 38/38/38 45/45/45 6/6/6
f 45/45/45 8/8/8 6/6/6
f 38/38/38 37/37/37 46/46/46
f 37/37/37 44/44/44 46/46/46
f 45/45/45 38/38/38 46/46/46
f 42/42/42 47/47/47 40/40/40
f 47/47/47 43/43/43 40/40/40
f 39/39/39 43/43/43 48/48/48
f 44/44/44 39/39/39 48/48/48
f 43/43/43 47/47/47 48/48/48
f 49/49/49 44/44/44 48/48/48
f 44/44/44 49/49/49 46/46/46
f 47/47/47 49/49/49 48/48/48
f 47/47/47 42/42/42 50/50/50
f 49/49/49 47/47/47 50/50/50
f 42/42/42 51/51/51 50/50/50
f 51/51/51 52/52/52 50/50/50
f 49/49/49 53/53/53 46/46/46
f 53/53/53 49/49/49 50/50/50
f 53/53/53 45/45/45 46/46/46
f 52/52/52 53/53/53 50/50/50
f 45/45/45 53/53/53 54/54/54
f 53/53/53 52/52/52 54/54/54
f 8/8/8 45/45/45 54/54/54
f 52/52/52 55/55/55 54/54/54
f 55/55/55 8/8/8 54/54/54
f 58/58/58 57/57/57 56/56/56
f 57/57/57 59/59/59 56/56/56
f 60/60/60 58/58/58 56/56/56
f 58/58/58 60/60/60 61/61/61
f 62/62/62 58/58/58 61/61/61
f 63/63/63 62/62/62 61/61/61
f 64/64/64 63/63/63 61/61/61
f 60/60/60 64/64/64 61/61/61
f 63/63/63 64/64/64 65/65/65
f 66/66/66 63/63/63 65/65/65
f 67/67/67 66/66/66 65/65/65
f 59/59/59 68/68/68 56/56/56
f 60/60/60 56/56/56 69/69/69
f 56/56/56 68/68/68 69/69/69
f 64/64/64 60/60/60 70/70/70
f 70/70/70 60/60/60 69/69/69
f 64/64/64 71/71/71 65/65/65
f 71/71/71 64/64/64 70/70/70
f 72/72/72 67/67/67 65/65/65
f 71/71/71 72/72/72 65/65/65
f 68/68/68 59/59/59 73/73/73
f 59/59/59 74/74/74 73/73/73
f 74/74/74 75/75/75 73/73/73
f 67/67/67 72/72/72 76/76/76
f 77/77/77 67/67/67 76/76/76
f 78/78/78 77/77/77 76/76/76
f 79/79/79 70/70/70 69/69/69
f 71/71/71 70/70/70 80/80/80
f 80/80/80 70/70/70 79/79/79
f 68/68/68 81/81/81 69/69/69
f 69/69/69 81/81/81 79/79/79
f 82/82/82 68/68/68 73/73/73
f 68/68/68 82/82/82 81/81/81
f 83/83/83 73/73/73 75/75/75
f 82/82/82 73/73/73 83/83/83
f 72/72/72 71/71/71 84/84/84
f 80/80/80 84/84/84 71/71/71
f 72/72/72 85/85/85 76/76/76
f 85/85/85 72/72/72 84/84/84
f 86/86/86 78/78/78 76/76/76
f 76/76/76 85/85/85 86/86/86
f 87/87/87 79/79/79 81/81/81
f 82/82/82 87/87/87 81/81/81
f 80/80/80 79/79/79 88/88/88
f 88/88/88 79/79/79 87/87/87
f 89/89/89 84/84/84 80/80/80
f 85/85/85 84/84/84 89/89/89
f 89/89/89 80/80/80 88/88/88
f 82/82/82 90/90/90 87/87/87
f 90/90/90 82/82/82 83/83/83
f 89/89/89 91/91/91 85/85/85
f 91/91/91 86/86/86 85/85/85
f 86/86/86 92/92/92 78/78/78
f 78/78/78 92/92/92 93/93/93
f 94/94/94 93/93/93 92/92/92
f 86/86/86 95/95/95 92/92/92
f 95/95/95 94/94/94 92/92/92
f 95/95/95 86/86/86 91/91/91
f 96/96/96 89/89/89 88/88/88
f 89/89/89 96/96/96 91/91/91
f 87/87/87 97/97/97 88/88/88
f 97/97/97 87/87/87 90/90/90
f 97/97/97 96/96/96 88/88/88
f 94/94/94 95/95/95 98/98/98
f 99/99/99 94/94/94 98/98/98
f 100/100/100 99/99/99 98/98/98
f 101/101/101 95/95/95 91/91/91
f 91/91/91 96/96/96 101/101/101
f 95/95/95 101/101/101 98/98/98
f 96/96/96 97/97/97 102/102/102
f 102/102/102 101/101/101 96/96/96
f 101/101/101 103/103/103 98/98/98
f 103/103/103 100/100/100 98/98/98
f 102/102/102 103/103/103 101/101/101
f 97/97/97 104/104/104 102/102/102
f 104/104/104 97/97/97 90/90/90
f 102/102/102 104/104/104 103/103/103
f 103/103/103 105/105/105 100/100/100
f 103/103/103 104/104/104 105/105/105
f 105/105/105 106/106/106 100/100/100
f 107/107/107 106/106/106 105/105/105
f 108/108/108 104/104/104 90/90/90
f 108/108/108 105/105/105 104/104/104
f 108/108/108 107/107/107 105/105/105
f 83/83/83 108/108/108 90/90/90
f 107/107/107 108/108/108 109/109/109
f 109/109/109 108/108/108 83/83/83
f 110/110/110 107/107/107 109/109/109
f 83/83/83 75/75/75 109/109/109
f 75/75/75 110/110/110 109/109/109
