g GeoSphere002
v -0.07084724 -1.2631745E-11 0.20038627
v 0.21254176 -1.2631745E-11 -0.20038629
v -0.21254174 -0.2454221 -0.20038629
v -0.19111305 0.20830646 -0.13977675
v -0.21254174 0.17119087 -0.20038627
v -0.14825563 0.20830646 -0.20038627
v 0.21254176 -1.2631745E-11 -0.20038629
v -0.07084724 -1.2631745E-11 0.20038627
v -0.19111305 0.20830646 -0.13977675
v -0.14825563 0.20830646 -0.20038627
v -0.07084724 -1.2631745E-11 0.20038627
v -0.21254174 -0.2454221 -0.20038629
v -0.21254174 0.17119087 -0.20038627
v -0.19111305 0.20830646 -0.13977675
v -0.21254174 -0.2454221 -0.20038629
v 0.21254176 -1.2631745E-11 -0.20038629
v -0.14825563 0.20830646 -0.20038627
v -0.21254174 0.17119087 -0.20038627
vt 0.3333333 1
vt 0.5 0.39182654
vt 0.16666666 0.39182657
vt 0.7577175 0.5227971
vt 0.9845651 0.3918266
vt 0.75771755 0.26085603
vt 0.5 0.39182654
vt 0.6666667 1
vt 0.80812824 0.4838018
vt 0.78292286 0.3918266
vt 1.4901161E-08 1
vt 0.16666666 0.39182657
vt -0.11625609 0.39182663
vt -0.14146137 0.4838018
vt 0.16666666 0.39182657
vt 0.5 0.39182654
vt -0.065845534 0.3918266
vt -0.11625608 0.39182663
vn 0.47140455 -0.81649655 0.33333334
vn 0.47140455 -0.81649655 0.33333334
vn 0.47140455 -0.81649655 0.33333334
vn -0.47140446 0.81649673 -0.33333322
vn -0.47140446 0.81649673 -0.33333322
vn -0.47140446 0.81649673 -0.33333322
vn 0.4714045 0.81649655 0.3333333
vn 0.4714045 0.81649655 0.3333333
vn 0.4714045 0.81649655 0.3333333
vn 0.4714045 0.81649655 0.3333333
vn -0.9428091 0 0.33333334
vn -0.9428091 0 0.33333334
vn -0.9428091 0 0.33333337
vn -0.9428091 0 0.33333334
vn -0 0 -1
vn -0 0 -1
vn -0 0 -1
vn -0 0 -1
g GeoSphere002_0
f 3/3/3 2/2/2 1/1/1
f 6/6/6 5/5/5 4/4/4
f 9/9/9 8/8/8 7/7/7
f 10/10/10 9/9/9 7/7/7
f 13/13/13 12/12/12 11/11/11
f 14/14/14 13/13/13 11/11/11
f 17/17/17 16/16/16 15/15/15
f 18/18/18 17/17/17 15/15/15
