g lightning_1
v -0.046297986 -0.5459454 0.00906961
v -0.05947624 -0.49514148 0.017569395
v 0.09256836 -0.5190657 1.3449371E-05
v -0.18193245 -0.45267326 0.04942661
v -0.18124554 -0.51152444 0.025181532
v -0.30605024 -0.50600475 0.06896088
v -0.032394636 -0.5972929 0.00034069511
v -0.31621486 -0.54910797 0.034308348
v -0.4746779 -0.56041354 0.08487439
v -0.018708495 -0.649613 -0.008807416
v -0.00630455 -0.70331913 -0.017575664
v -0.18011414 -0.5740222 0.0006068522
v -0.17914894 -0.640694 -0.024427194
v -0.17969993 -0.7112956 -0.049481306
v -0.48215404 -0.5751589 0.04232649
v -0.5665948 -0.4354906 0.09913988
v -0.32707596 -0.5960327 -0.0002454537
v -0.33786678 -0.6424192 -0.03472237
v -0.34827387 -0.6840056 -0.06918194
v -0.5765263 -0.44724712 0.04986137
v -0.6911083 -0.35229912 0.10816323
v -0.49087897 -0.5923624 -0.00022334773
v -0.49863875 -0.6074979 -0.04278888
v -0.5038817 -0.6171813 -0.08538167
v -0.6909834 -0.35293877 0.053945806
v -0.8055963 -0.23707382 0.11498207
v -0.59524703 -0.46857035 0.0005782676
v -0.6115316 -0.48679942 -0.048709396
v -0.61604714 -0.49170774 -0.09800148
v -0.7984103 -0.2352853 0.05748284
v -0.82974035 -0.07898872 0.11785744
v -0.70250463 -0.3608817 -0.00027119243
v -0.7101518 -0.365679 -0.05448775
v -0.70210487 -0.35993084 -0.10870383
v -0.84871316 -0.08236057 0.05877875
v -0.8433239 0.07998935 0.11785709
v -0.77115357 -0.22477143 -9.252268E-06
v -0.72816956 -0.20775947 -0.057494797
v -0.69098705 -0.19347847 -0.11497464
v -0.82706326 0.0770002 0.058714997
v -0.78152335 0.22694105 0.11589352
v -0.8474338 -0.082116775 -0.00028030036
v -0.8205964 -0.07812816 -0.05932519
v -0.7923231 -0.07457627 -0.1183623
v -0.75358325 0.21545759 0.05833302
v -0.6958613 0.3540039 0.10859161
v -0.79730254 0.07351787 -0.00041758118
v -0.7752604 0.071498334 -0.05953895
v -0.773109 0.07131996 -0.118648134
v -0.6742232 0.338352 0.05440009
v -0.5989966 0.46968585 0.0979989
v -0.7289513 0.2062238 0.0007685097
v -0.7234534 0.20470755 -0.056798697
v -0.7320091 0.20805557 -0.11436719
v -0.6188055 0.49157196 0.048702914
v -0.44165406 0.49345455 0.08558662
v -0.67089885 0.33612582 0.00020734627
v -0.6884388 0.34872094 -0.053986706
v -0.7093512 0.36332732 -0.108182125
v -0.4502227 0.5095269 0.042797256
v -0.3081243 0.51138604 0.068867564
v -0.63310784 0.50770867 -0.0005894448
v -0.63656765 0.5119379 -0.04987833
v -0.6323486 0.5074049 -0.09916396
v -0.3153595 0.5400091 0.034383968
v -0.1811943 0.519957 0.049314227
v -0.4564957 0.52116597 3.433502E-05
v -0.4614967 0.5305621 -0.042699676
v -0.46689948 0.5412476 -0.08540641
v -0.18142253 0.5890945 0.02485181
v -0.040334318 0.56812596 0.014563443
v -0.32460406 0.57601225 -9.981794E-05
v -0.33590564 0.62068135 -0.034545083
v -0.3481338 0.6721889 -0.06893199
v -0.028607253 0.616309 0.007224927
v 0.1197303 0.5707529 0.0002010809
v -0.18215042 0.65358955 0.00039640287
v -0.18264785 0.71277714 -0.024233634
v -0.18145713 0.76698256 -0.04900793
v -0.017594604 0.66378033 0.00014650197
v -0.0063673398 0.7103033 -0.0072790734
v 0.006056137 0.75567603 -0.014758368
vt 0.6425564 0.9407353
vt 0.784168 0.9407353
vt 0.50094485 0.9995
vt 0.784168 0.8819706
vt 0.6425564 0.8819706
vt 0.784168 0.82320595
vt 0.50094485 0.9407353
vt 0.6425564 0.82320595
vt 0.784168 0.7644412
vt 0.35933328 0.9407353
vt 0.21772172 0.9407353
vt 0.50094485 0.8819706
vt 0.35933328 0.8819706
vt 0.21772172 0.8819706
vt 0.6425564 0.7644412
vt 0.784168 0.7056765
vt 0.50094485 0.82320595
vt 0.35933328 0.82320595
vt 0.21772172 0.82320595
vt 0.6425564 0.7056765
vt 0.784168 0.6469118
vt 0.50094485 0.7644412
vt 0.35933328 0.7644412
vt 0.21772172 0.7644412
vt 0.6425564 0.6469118
vt 0.784168 0.5881471
vt 0.50094485 0.7056765
vt 0.35933328 0.7056765
vt 0.21772172 0.7056765
vt 0.6425564 0.5881471
vt 0.784168 0.52938235
vt 0.50094485 0.6469118
vt 0.35933328 0.6469118
vt 0.21772172 0.6469118
vt 0.6425564 0.52938235
vt 0.784168 0.47061765
vt 0.50094485 0.5881471
vt 0.35933328 0.5881471
vt 0.21772172 0.5881471
vt 0.6425564 0.47061765
vt 0.784168 0.41185296
vt 0.50094485 0.52938235
vt 0.35933328 0.52938235
vt 0.21772172 0.52938235
vt 0.6425564 0.41185296
vt 0.784168 0.35308826
vt 0.50094485 0.47061765
vt 0.35933328 0.47061765
vt 0.21772172 0.47061765
vt 0.6425564 0.35308826
vt 0.784168 0.29432356
vt 0.50094485 0.41185296
vt 0.35933328 0.41185296
vt 0.21772172 0.41185296
vt 0.6425564 0.29432356
vt 0.784168 0.23555881
vt 0.50094485 0.35308826
vt 0.35933328 0.35308826
vt 0.21772172 0.35308826
vt 0.6425564 0.23555881
vt 0.784168 0.17679411
vt 0.50094485 0.29432356
vt 0.35933328 0.29432356
vt 0.21772172 0.29432356
vt 0.6425564 0.17679411
vt 0.784168 0.118029475
vt 0.50094485 0.23555881
vt 0.35933328 0.23555881
vt 0.21772172 0.23555881
vt 0.6425564 0.118029475
vt 0.784168 0.05926472
vt 0.50094485 0.17679411
vt 0.35933328 0.17679411
vt 0.21772172 0.17679411
vt 0.6425564 0.05926472
vt 0.50094485 0.00049996376
vt 0.50094485 0.118029475
vt 0.35933328 0.118029475
vt 0.21772172 0.118029475
vt 0.50094485 0.05926472
vt 0.35933328 0.05926472
vt 0.21772172 0.05926472
vn 0.06160036 -0.2111331 0.97551435
vn 0.095091455 -0.22827657 0.9689414
vn 0.09171168 -0.14309591 0.9854504
vn 0.187664 -0.3968342 0.89850146
vn 0.13313483 -0.38911596 0.9115174
vn 0.25879815 -0.62896585 0.73309314
vn 0.022415984 -0.21514557 0.9763247
vn 0.17727374 -0.655355 0.7342233
vn -0.31679335 -0.806498 0.49920246
vn -0.010488066 -0.21098667 0.9774327
vn -0.06195187 -0.22993478 0.9712322
vn 0.017464282 -0.38106352 0.9243839
vn -0.08146099 -0.37156653 0.92482567
vn -0.12704074 -0.36635587 0.92176133
vn -0.32621485 -0.7668558 0.552735
vn -0.6716271 -0.70471436 0.22868037
vn 0.022168435 -0.635308 0.7719406
vn -0.13401107 -0.62997407 0.7649665
vn -0.21186563 -0.63436234 0.74343616
vn -0.6727211 -0.66617066 0.32196736
vn -0.662931 -0.7473473 0.044658776
vn -0.38735372 -0.7282226 0.56537503
vn -0.4840981 -0.73870176 0.46900824
vn -0.5441278 -0.7443008 0.3872225
vn -0.70391876 -0.7042887 0.092064805
vn -0.8827511 -0.46905598 0.02714796
vn -0.6820695 -0.6230219 0.38291636
vn -0.745671 -0.62995934 0.21708533
vn -0.77587247 -0.6267615 0.07205453
vn -0.87281585 -0.4807088 -0.08432878
vn -0.9928437 -0.102567755 0.06116498
vn -0.81691504 -0.5734027 0.062121827
vn -0.90219927 -0.41679642 -0.1109835
vn -0.92251474 -0.30878326 -0.23155908
vn -0.98985696 -0.09813438 -0.10272703
vn -0.95879644 0.21944559 -0.18042442
vn -0.84842974 -0.42838898 -0.3108858
vn -0.83697945 -0.3316934 -0.43525285
vn -0.83857435 -0.3122631 -0.4464133
vn -0.92732984 0.2696247 -0.25954148
vn -0.8021294 0.4358511 -0.40819398
vn -0.9258131 -0.09400431 -0.36610568
vn -0.88820654 -0.13475126 -0.43923944
vn -0.89674133 -0.20065503 -0.3944522
vn -0.8134936 0.4403407 -0.37990558
vn -0.83391106 0.49975592 -0.23417188
vn -0.8853915 0.33404595 -0.32325727
vn -0.93149126 0.3091494 -0.19170475
vn -0.9590373 0.2682697 -0.09098845
vn -0.88553923 0.4403954 -0.14789252
vn -0.5385482 0.8064372 0.24418238
vn -0.8905957 0.41009623 -0.19662246
vn -0.9482295 0.31132987 0.062724456
vn -0.9529388 0.25126183 0.16963261
vn -0.59317577 0.7638928 0.25418577
vn -0.09995556 0.8815884 0.46131423
vn -0.940539 0.3347139 0.05790601
vn -0.9381264 0.2748172 0.21069959
vn -0.9320825 0.2806454 0.22904263
vn -0.13171591 0.8852717 0.44603258
vn -0.064105436 0.70567685 0.7056279
vn -0.6243452 0.74076265 0.24791892
vn -0.61986154 0.76203007 0.18730175
vn -0.62532264 0.76657206 0.14607823
vn -0.14070922 0.6847286 0.71508574
vn 0.034203984 0.41020754 0.91135055
vn -0.21355121 0.88661176 0.41026258
vn -0.32967335 0.86680984 0.3741071
vn -0.38703117 0.8549253 0.3454122
vn -0.027537016 0.3824548 0.9235638
vn 0.09967957 0.20505284 0.97366184
vn -0.29137492 0.6248622 0.7243258
vn -0.41692322 0.5448067 0.7275718
vn -0.43467906 0.4950338 0.7523267
vn 0.070138365 0.19562918 0.9781666
vn 0.088648126 0.13158561 0.98733306
vn -0.13612893 0.37615645 0.9165016
vn -0.20531537 0.3780141 0.9027464
vn -0.21481583 0.37336156 0.9024718
vn 0.03339789 0.2095658 0.977224
vn -0.0002532216 0.225784 0.97417736
vn -0.04181368 0.25540274 0.96593016
g lightning_1_0
f 3/3/3 2/2/2 1/1/1
f 2/2/2 4/4/4 1/1/1
f 4/4/4 5/5/5 1/1/1
f 4/4/4 6/6/6 5/5/5
f 3/3/3 1/1/1 7/7/7
f 1/1/1 5/5/5 7/7/7
f 6/6/6 8/8/8 5/5/5
f 6/6/6 9/9/9 8/8/8
f 3/3/3 7/7/7 10/10/10
f 3/3/3 10/10/10 11/11/11
f 5/5/5 12/12/12 7/7/7
f 7/7/7 12/12/12 10/10/10
f 5/5/5 8/8/8 12/12/12
f 10/10/10 13/13/13 11/11/11
f 12/12/12 13/13/13 10/10/10
f 13/13/13 14/14/14 11/11/11
f 9/9/9 15/15/15 8/8/8
f 9/9/9 16/16/16 15/15/15
f 8/8/8 17/17/17 12/12/12
f 12/12/12 17/17/17 13/13/13
f 8/8/8 15/15/15 17/17/17
f 13/13/13 18/18/18 14/14/14
f 17/17/17 18/18/18 13/13/13
f 18/18/18 19/19/19 14/14/14
f 16/16/16 20/20/20 15/15/15
f 16/16/16 21/21/21 20/20/20
f 15/15/15 22/22/22 17/17/17
f 17/17/17 22/22/22 18/18/18
f 15/15/15 20/20/20 22/22/22
f 18/18/18 23/23/23 19/19/19
f 22/22/22 23/23/23 18/18/18
f 23/23/23 24/24/24 19/19/19
f 21/21/21 25/25/25 20/20/20
f 21/21/21 26/26/26 25/25/25
f 20/20/20 27/27/27 22/22/22
f 22/22/22 27/27/27 23/23/23
f 20/20/20 25/25/25 27/27/27
f 23/23/23 28/28/28 24/24/24
f 27/27/27 28/28/28 23/23/23
f 28/28/28 29/29/29 24/24/24
f 26/26/26 30/30/30 25/25/25
f 26/26/26 31/31/31 30/30/30
f 25/25/25 32/32/32 27/27/27
f 27/27/27 32/32/32 28/28/28
f 25/25/25 30/30/30 32/32/32
f 28/28/28 33/33/33 29/29/29
f 32/32/32 33/33/33 28/28/28
f 33/33/33 34/34/34 29/29/29
f 31/31/31 35/35/35 30/30/30
f 31/31/31 36/36/36 35/35/35
f 30/30/30 37/37/37 32/32/32
f 32/32/32 37/37/37 33/33/33
f 30/30/30 35/35/35 37/37/37
f 33/33/33 38/38/38 34/34/34
f 37/37/37 38/38/38 33/33/33
f 38/38/38 39/39/39 34/34/34
f 36/36/36 40/40/40 35/35/35
f 36/36/36 41/41/41 40/40/40
f 35/35/35 42/42/42 37/37/37
f 37/37/37 42/42/42 38/38/38
f 35/35/35 40/40/40 42/42/42
f 38/38/38 43/43/43 39/39/39
f 42/42/42 43/43/43 38/38/38
f 43/43/43 44/44/44 39/39/39
f 41/41/41 45/45/45 40/40/40
f 41/41/41 46/46/46 45/45/45
f 40/40/40 47/47/47 42/42/42
f 42/42/42 47/47/47 43/43/43
f 40/40/40 45/45/45 47/47/47
f 43/43/43 48/48/48 44/44/44
f 47/47/47 48/48/48 43/43/43
f 48/48/48 49/49/49 44/44/44
f 46/46/46 50/50/50 45/45/45
f 46/46/46 51/51/51 50/50/50
f 45/45/45 52/52/52 47/47/47
f 47/47/47 52/52/52 48/48/48
f 45/45/45 50/50/50 52/52/52
f 48/48/48 53/53/53 49/49/49
f 52/52/52 53/53/53 48/48/48
f 53/53/53 54/54/54 49/49/49
f 51/51/51 55/55/55 50/50/50
f 51/51/51 56/56/56 55/55/55
f 50/50/50 57/57/57 52/52/52
f 52/52/52 57/57/57 53/53/53
f 50/50/50 55/55/55 57/57/57
f 53/53/53 58/58/58 54/54/54
f 57/57/57 58/58/58 53/53/53
f 58/58/58 59/59/59 54/54/54
f 56/56/56 60/60/60 55/55/55
f 56/56/56 61/61/61 60/60/60
f 55/55/55 62/62/62 57/57/57
f 57/57/57 62/62/62 58/58/58
f 55/55/55 60/60/60 62/62/62
f 58/58/58 63/63/63 59/59/59
f 62/62/62 63/63/63 58/58/58
f 63/63/63 64/64/64 59/59/59
f 61/61/61 65/65/65 60/60/60
f 61/61/61 66/66/66 65/65/65
f 60/60/60 67/67/67 62/62/62
f 62/62/62 67/67/67 63/63/63
f 60/60/60 65/65/65 67/67/67
f 63/63/63 68/68/68 64/64/64
f 67/67/67 68/68/68 63/63/63
f 68/68/68 69/69/69 64/64/64
f 66/66/66 70/70/70 65/65/65
f 66/66/66 71/71/71 70/70/70
f 65/65/65 72/72/72 67/67/67
f 67/67/67 72/72/72 68/68/68
f 65/65/65 70/70/70 72/72/72
f 68/68/68 73/73/73 69/69/69
f 72/72/72 73/73/73 68/68/68
f 73/73/73 74/74/74 69/69/69
f 71/71/71 75/75/75 70/70/70
f 71/71/71 76/76/76 75/75/75
f 70/70/70 77/77/77 72/72/72
f 72/72/72 77/77/77 73/73/73
f 70/70/70 75/75/75 77/77/77
f 73/73/73 78/78/78 74/74/74
f 77/77/77 78/78/78 73/73/73
f 78/78/78 79/79/79 74/74/74
f 75/75/75 80/80/80 77/77/77
f 75/75/75 76/76/76 80/80/80
f 77/77/77 80/80/80 78/78/78
f 78/78/78 81/81/81 79/79/79
f 80/80/80 81/81/81 78/78/78
f 80/80/80 76/76/76 81/81/81
f 81/81/81 82/82/82 79/79/79
f 81/81/81 76/76/76 82/82/82
