g Line001
v -0.031122085 -0.014294971 0.000104067716
v -0.03119665 -0.014160942 -3.407884E-10
v -0.031122085 -0.014294971 -0.000104068335
v 0.12035261 -0.005857269 -6.156142E-05
v 0.12041343 -0.0059448513 1.3218467E-09
v 0.12035262 -0.005857265 6.156175E-05
v -0.03119665 -0.014160942 -3.407884E-10
v -0.031122085 -0.014294971 0.000104067716
v -0.09674135 -0.04607309 -0.0062209596
v -0.075712495 -0.023321193 -0.0038115792
v -0.031122085 -0.014294971 0.000104067716
v -0.031122085 -0.014294971 -0.000104068335
v -0.09674135 -0.04607309 -0.017373636
v -0.09674135 -0.04607309 -0.0062209596
v -0.031122085 -0.014294971 -0.000104068335
v -0.03119665 -0.014160942 -3.407884E-10
v -0.075712495 -0.023321193 -0.0038115792
v -0.09674135 -0.04607309 -0.017373636
v -0.075712495 -0.023321193 -0.0038115792
v -0.09674135 -0.04607309 -0.0062209596
v -0.09027654 -0.0018399021 0.026637964
v -0.07571433 -0.0021896893 0.02106163
v -0.024241459 0.08529951 0.056932103
v -0.019664088 0.04403441 0.04104816
v -0.09674135 -0.04607309 -0.0062209596
v -0.09674135 -0.04607309 -0.017373636
v -0.0845303 0.002456052 0.015485289
v -0.09027654 -0.0018399021 0.026637964
v -0.024241459 0.08529951 0.025164232
v -0.024241459 0.08529951 0.056932103
v -0.09674135 -0.04607309 -0.017373636
v -0.075712495 -0.023321193 -0.0038115792
v -0.07571433 -0.0021896893 0.02106163
v -0.0845303 0.002456052 0.015485289
v -0.019664088 0.04403441 0.04104816
v -0.024241459 0.08529951 0.025164232
v -0.019664088 0.04403441 0.04104816
v -0.024241459 0.08529951 0.056932103
v 0.088035285 -0.024423236 0.02472278
v 0.08724013 -0.03673438 0.019146444
v 0.12035262 -0.005857265 6.156175E-05
v 0.12041343 -0.0059448513 1.3218467E-09
v -0.024241459 0.08529951 0.056932103
v -0.024241459 0.08529951 0.025164232
v 0.088035285 -0.02442324 0.013570105
v 0.088035285 -0.024423236 0.02472278
v -0.024241459 0.08529951 0.025164232
v -0.019664088 0.04403441 0.04104816
v 0.08724013 -0.03673438 0.019146444
v 0.088035285 -0.02442324 0.013570105
v 0.12041343 -0.0059448513 1.3218467E-09
v 0.12035261 -0.005857269 -6.156142E-05
v 0.088035285 -0.024423236 0.02472278
v 0.088035285 -0.02442324 0.013570105
v 0.12035261 -0.005857269 -6.156142E-05
v 0.12035262 -0.005857265 6.156175E-05
vt 0.0023868536 0.47314316
vt 0.0023868536 0.69894314
vt 0.0023868536 0.24734259
vt 1.0017542 0.24734259
vt 1.0017542 0.69894314
vt 1.0017542 0.47314316
vt 0.0023868536 0.69894314
vt 0.0023868536 0.47314316
vt 0.2022603 0.47314316
vt 0.2022603 0.69894314
vt 0.0023868536 0.47314316
vt 0.0023868536 0.24734259
vt 0.2022603 0.24734259
vt 0.2022603 0.47314316
vt 0.0023868536 0.24734259
vt 0.0023868536 0.69894314
vt 0.2022603 0.69894314
vt 0.2022603 0.24734259
vt 0.2022603 0.69894314
vt 0.2022603 0.47314316
vt 0.40213376 0.47314316
vt 0.40213376 0.69894314
vt 0.60200715 0.47314316
vt 0.60200715 0.69894314
vt 0.2022603 0.47314316
vt 0.2022603 0.24734259
vt 0.40213376 0.24734259
vt 0.40213376 0.47314316
vt 0.60200715 0.24734259
vt 0.60200715 0.47314316
vt 0.2022603 0.24734259
vt 0.2022603 0.69894314
vt 0.40213376 0.69894314
vt 0.40213376 0.24734259
vt 0.60200715 0.69894314
vt 0.60200715 0.24734259
vt 0.60200715 0.69894314
vt 0.60200715 0.47314316
vt 0.80188066 0.47314316
vt 0.80188066 0.69894314
vt 1.0017542 0.47314316
vt 1.0017542 0.69894314
vt 0.60200715 0.47314316
vt 0.60200715 0.24734259
vt 0.80188066 0.24734259
vt 0.80188066 0.47314316
vt 0.60200715 0.24734259
vt 0.60200715 0.69894314
vt 0.80188066 0.69894314
vt 0.80188066 0.24734259
vt 1.0017542 0.69894314
vt 1.0017542 0.24734259
vt 0.80188066 0.47314316
vt 0.80188066 0.24734259
vt 1.0017542 0.24734259
vt 1.0017542 0.47314316
vn 0.87386703 0.486165 0
vn 0.87386703 0.486165 0
vn 0.87386703 0.48616505 0
vn 0.8213859 0.5703729 -9.658029E-05
vn 0.8213859 0.5703729 -9.65803E-05
vn 0.8213859 0.5703729 -9.65803E-05
vn -0.08245496 -0.024860784 0.9962846
vn -0.08245496 -0.024860784 0.9962846
vn -0.08245496 -0.024860784 0.9962846
vn -0.08245495 -0.02486078 0.9962846
vn 0.43585944 -0.9000148 0
vn 0.43585947 -0.90001476 0
vn 0.43585944 -0.9000148 0
vn 0.43585947 -0.90001476 0
vn -0.038987637 0.5383729 -0.84180444
vn -0.038987637 0.5383729 -0.8418043
vn -0.03898764 0.5383729 -0.84180444
vn -0.038987633 0.5383729 -0.8418043
vn 0.44598645 -0.616877 0.64850503
vn 0.44598645 -0.616877 0.648505
vn 0.2992932 -0.54774463 0.78128064
vn 0.26128387 -0.52710694 0.808634
vn 0.090893656 -0.42309576 0.9015144
vn 0.09089364 -0.4230957 0.9015144
vn -0.9320349 0.314799 -0.17947838
vn -0.9320349 0.31479898 -0.17947838
vn -0.8710131 0.47915286 -0.108391725
vn -0.87973017 0.46088517 -0.116875045
vn -0.7965244 0.60283077 -0.04630141
vn -0.7965244 0.60283077 -0.046301406
vn 0.12002571 0.62093693 -0.7746168
vn 0.12002571 0.6209369 -0.7746168
vn 0.37868387 0.12923622 -0.9164587
vn 0.32690427 0.25421447 -0.9102245
vn 0.4887656 -0.24834004 -0.83632255
vn 0.4887656 -0.24834004 -0.8363225
vn -0.0993722 -0.37603232 0.9212627
vn -0.09937221 -0.37603238 0.9212627
vn 0.2650498 -0.39309558 0.8804683
vn 0.34891292 -0.38924804 0.8524938
vn 0.685076 -0.33477238 0.6469918
vn 0.68507594 -0.3347724 0.6469919
vn 0.69892555 0.7151944 0
vn 0.69892555 0.7151944 0
vn 0.69892555 0.7151944 0
vn 0.69892555 0.7151944 0
vn -0.4391567 -0.36060527 -0.82286406
vn -0.43915665 -0.36060524 -0.82286406
vn -0.332549 -0.38048866 -0.86292493
vn -0.29545605 -0.38606808 -0.87387484
vn -0.14923267 -0.40195918 -0.90341485
vn -0.14923269 -0.40195918 -0.90341485
vn -0.49813855 0.8670975 0
vn -0.49813843 0.8670975 0
vn -0.4981385 0.8670975 0
vn -0.4981385 0.8670975 0
g Line001_0
f 3/3/3 2/2/2 1/1/1
f 6/6/6 5/5/5 4/4/4
f 9/9/9 8/8/8 7/7/7
f 10/10/10 9/9/9 7/7/7
f 13/13/13 12/12/12 11/11/11
f 14/14/14 13/13/13 11/11/11
f 17/17/17 16/16/16 15/15/15
f 18/18/18 17/17/17 15/15/15
f 21/21/21 20/20/20 19/19/19
f 22/22/22 21/21/21 19/19/19
f 23/23/23 21/21/21 22/22/22
f 24/24/24 23/23/23 22/22/22
f 27/27/27 26/26/26 25/25/25
f 28/28/28 27/27/27 25/25/25
f 29/29/29 27/27/27 28/28/28
f 30/30/30 29/29/29 28/28/28
f 33/33/33 32/32/32 31/31/31
f 34/34/34 33/33/33 31/31/31
f 35/35/35 33/33/33 34/34/34
f 36/36/36 35/35/35 34/34/34
f 39/39/39 38/38/38 37/37/37
f 40/40/40 39/39/39 37/37/37
f 41/41/41 39/39/39 40/40/40
f 42/42/42 41/41/41 40/40/40
f 45/45/45 44/44/44 43/43/43
f 46/46/46 45/45/45 43/43/43
f 49/49/49 48/48/48 47/47/47
f 50/50/50 49/49/49 47/47/47
f 51/51/51 49/49/49 50/50/50
f 52/52/52 51/51/51 50/50/50
f 55/55/55 54/54/54 53/53/53
f 56/56/56 55/55/55 53/53/53
