g Line002
v -0.21114603 0.030340493 0.035351872
v -0.2096341 -0.0006739914 0.02198605
v -0.21114603 0.030340493 0.008620227
v 0.14751254 0.04384021 -9.8047705E-05
v 0.14756998 0.043818526 0
v 0.14751254 0.04384021 9.8047705E-05
v -0.2096341 -0.0006739914 0.02198605
v -0.21114603 0.030340493 0.035351872
v -0.13924295 -0.026467927 0.0039698333
v -0.1402033 -0.02750032 -1.5340312E-10
v -0.033791002 -0.08904821 -0.023145583
v -0.037758075 -0.131799 -0.052485913
v -0.21114603 0.030340493 0.035351872
v -0.21114603 0.030340493 0.008620227
v -0.13924295 -0.026467927 -0.0039698337
v -0.13924295 -0.026467927 0.0039698333
v -0.033791002 -0.08904821 -0.08182624
v -0.033791002 -0.08904821 -0.023145583
v -0.21114603 0.030340493 0.008620227
v -0.2096341 -0.0006739914 0.02198605
v -0.1402033 -0.02750032 -1.5340312E-10
v -0.13924295 -0.026467927 -0.0039698337
v -0.037758075 -0.131799 -0.052485913
v -0.033791002 -0.08904821 -0.08182624
v -0.037758075 -0.131799 -0.052485913
v -0.033791002 -0.08904821 -0.023145583
v 0.03290801 -0.01439625 -0.012925404
v 0.04109528 -0.019693688 -0.023923928
v 0.06968521 0.0763346 0.005451185
v 0.07544668 0.05047577 -0.0007486577
v -0.033791002 -0.08904821 -0.023145583
v -0.033791002 -0.08904821 -0.08182624
v 0.032908015 -0.01439625 -0.03492245
v 0.03290801 -0.01439625 -0.012925404
v 0.06968522 0.0763346 -0.0069485023
v 0.06968521 0.0763346 0.005451185
v -0.033791002 -0.08904821 -0.08182624
v -0.037758075 -0.131799 -0.052485913
v 0.04109528 -0.019693688 -0.023923928
v 0.032908015 -0.01439625 -0.03492245
v 0.07544668 0.05047577 -0.0007486577
v 0.06968522 0.0763346 -0.0069485023
v 0.07544668 0.05047577 -0.0007486577
v 0.06968521 0.0763346 0.005451185
v 0.10887314 0.040490545 0.044046022
v 0.103981756 0.022648247 0.021666773
v 0.14751254 0.04384021 9.8047705E-05
v 0.14756998 0.043818526 0
v 0.06968521 0.0763346 0.005451185
v 0.06968522 0.0763346 -0.0069485023
v 0.10887314 0.04049054 0.01066825
v 0.10887314 0.040490545 0.044046022
v 0.06968522 0.0763346 -0.0069485023
v 0.07544668 0.05047577 -0.0007486577
v 0.103981756 0.022648247 0.021666773
v 0.10887314 0.04049054 0.01066825
v 0.14756998 0.043818526 0
v 0.14751254 0.04384021 -9.8047705E-05
v 0.10887314 0.040490545 0.044046022
v 0.10887314 0.04049054 0.01066825
v 0.14751254 0.04384021 -9.8047705E-05
v 0.14751254 0.04384021 9.8047705E-05
vt 0.049063638 0.19863313
vt 0.049063638 0.4792329
vt 0.049063638 0.7477608
vt 0.95069736 0.7477608
vt 0.95069736 0.4792329
vt 0.95069736 0.19863313
vt 0.049063638 0.4792329
vt 0.049063638 0.19863313
vt 0.19933589 0.19863313
vt 0.19933589 0.4792329
vt 0.3496082 0.19863313
vt 0.3496082 0.4792329
vt 0.049063638 0.19863313
vt 0.049063638 0.7477608
vt 0.19933589 0.7477608
vt 0.19933589 0.19863313
vt 0.3496082 0.7477608
vt 0.3496082 0.19863313
vt 0.049063638 0.7477608
vt 0.049063638 0.4792329
vt 0.19933589 0.4792329
vt 0.19933589 0.7477608
vt 0.3496082 0.4792329
vt 0.3496082 0.7477608
vt 0.3496082 0.4792329
vt 0.3496082 0.19863313
vt 0.4998805 0.19863313
vt 0.4998805 0.4792329
vt 0.65015274 0.19863313
vt 0.65015274 0.4792329
vt 0.3496082 0.19863313
vt 0.3496082 0.7477608
vt 0.4998805 0.7477608
vt 0.4998805 0.19863313
vt 0.65015274 0.7477608
vt 0.65015274 0.19863313
vt 0.3496082 0.7477608
vt 0.3496082 0.4792329
vt 0.4998805 0.4792329
vt 0.4998805 0.7477608
vt 0.65015274 0.4792329
vt 0.65015274 0.7477608
vt 0.65015274 0.4792329
vt 0.65015274 0.19863313
vt 0.8004251 0.19863313
vt 0.8004251 0.4792329
vt 0.95069736 0.19863313
vt 0.95069736 0.4792329
vt 0.65015274 0.19863313
vt 0.65015274 0.7477608
vt 0.8004251 0.7477608
vt 0.8004251 0.19863313
vt 0.65015274 0.7477608
vt 0.65015274 0.4792329
vt 0.8004251 0.4792329
vt 0.8004251 0.7477608
vt 0.95069736 0.4792329
vt 0.95069736 0.7477608
vt 0.8004251 0.19863313
vt 0.8004251 0.7477608
vt 0.95069736 0.7477608
vt 0.95069736 0.19863313
vn -0.99881387 -0.048691124 0
vn -0.99881387 -0.04869113 0
vn -0.99881387 -0.048691124 0
vn 0.35317618 0.9355569 0
vn 0.35317612 0.9355569 0
vn 0.35317618 0.9355569 0
vn 0.051046133 -0.4744934 0.8787777
vn 0.05104613 -0.47449344 0.8787777
vn -0.043976102 -0.5271491 0.8486342
vn -0.07385695 -0.542381 0.83687997
vn -0.16583638 -0.58521295 0.79374063
vn -0.16583635 -0.5852128 0.79374063
vn 0.61993223 0.7846554 0
vn 0.6199322 0.7846554 0
vn 0.5555454 0.83148617 0
vn 0.5755975 0.8177331 0
vn 0.5103469 0.85996854 0
vn 0.51034695 0.85996854 0
vn -0.44704986 -0.43154195 -0.78352916
vn -0.44704986 -0.43154195 -0.78352916
vn -0.54890215 -0.41838464 -0.7236441
vn -0.6021349 -0.40852273 -0.6859611
vn -0.6921867 -0.38603428 -0.60979927
vn -0.6921867 -0.38603428 -0.60979927
vn 0.49898306 -0.5310969 0.68480074
vn 0.49898297 -0.5310969 0.6848007
vn 0.3942714 -0.44503087 0.8040508
vn 0.41620684 -0.463376 0.7823392
vn 0.29268777 -0.3583299 0.8865289
vn 0.2926877 -0.35832986 0.8865289
vn -0.7457119 0.66626847 0
vn -0.7457119 0.6662685 0
vn -0.8282376 0.56037724 0
vn -0.8568471 0.51557064 0
vn -0.92675906 0.37565628 0
vn -0.92675906 0.37565628 0
vn 0.7594432 -0.3778943 -0.5295676
vn 0.75944316 -0.37789434 -0.52956766
vn 0.7364062 -0.21795532 -0.6404696
vn 0.7441776 -0.25528073 -0.61727744
vn 0.696754 -0.08145805 -0.71267
vn 0.6967539 -0.08145804 -0.71266997
vn -0.78673536 -0.34875095 0.5093332
vn -0.78673536 -0.34875095 0.5093332
vn -0.24329683 -0.7081255 0.66284615
vn -0.21058786 -0.71864027 0.6627283
vn 0.5596272 -0.7032128 0.43853062
vn 0.5596272 -0.7032128 0.43853062
vn 0.67492414 0.7378872 0
vn 0.67492414 0.7378872 0
vn 0.67492414 0.73788714 0
vn 0.67492414 0.73788714 0
vn 0.20551623 -0.3548439 -0.9120574
vn 0.20551623 -0.35484397 -0.9120574
vn 0.024158895 -0.420682 -0.90688646
vn 0.011633259 -0.42464057 -0.9052873
vn -0.19478026 -0.47897956 -0.85594344
vn -0.19478026 -0.47897956 -0.85594344
vn -0.086366594 0.99626344 0
vn -0.0863666 0.99626344 0
vn -0.086366594 0.99626344 0
vn -0.086366594 0.99626344 0
g Line002_0
f 3/3/3 2/2/2 1/1/1
f 6/6/6 5/5/5 4/4/4
f 9/9/9 8/8/8 7/7/7
f 10/10/10 9/9/9 7/7/7
f 11/11/11 9/9/9 10/10/10
f 12/12/12 11/11/11 10/10/10
f 15/15/15 14/14/14 13/13/13
f 16/16/16 15/15/15 13/13/13
f 17/17/17 15/15/15 16/16/16
f 18/18/18 17/17/17 16/16/16
f 21/21/21 20/20/20 19/19/19
f 22/22/22 21/21/21 19/19/19
f 23/23/23 21/21/21 22/22/22
f 24/24/24 23/23/23 22/22/22
f 27/27/27 26/26/26 25/25/25
f 28/28/28 27/27/27 25/25/25
f 29/29/29 27/27/27 28/28/28
f 30/30/30 29/29/29 28/28/28
f 33/33/33 32/32/32 31/31/31
f 34/34/34 33/33/33 31/31/31
f 35/35/35 33/33/33 34/34/34
f 36/36/36 35/35/35 34/34/34
f 39/39/39 38/38/38 37/37/37
f 40/40/40 39/39/39 37/37/37
f 41/41/41 39/39/39 40/40/40
f 42/42/42 41/41/41 40/40/40
f 45/45/45 44/44/44 43/43/43
f 46/46/46 45/45/45 43/43/43
f 47/47/47 45/45/45 46/46/46
f 48/48/48 47/47/47 46/46/46
f 51/51/51 50/50/50 49/49/49
f 52/52/52 51/51/51 49/49/49
f 55/55/55 54/54/54 53/53/53
f 56/56/56 55/55/55 53/53/53
f 57/57/57 55/55/55 56/56/56
f 58/58/58 57/57/57 56/56/56
f 61/61/61 60/60/60 59/59/59
f 62/62/62 61/61/61 59/59/59
