g Object004
v 0.021658476 0 0.00052612304
v 0.0058637997 -4.7683715E-09 -0.0034230042
v 0.020710906 -4.7683715E-09 -0.009218445
v -0.025769882 4.7683715E-09 0.009684295
v -0.011093979 0 0.0032391357
v -0.022638703 4.7683715E-09 0.016004333
v -0.027052611 0 0.0025120543
v -0.012447281 0 0.00040908813
v -0.025769882 4.7683715E-09 0.009684295
v -0.008350677 0 0.0064237975
v -0.01699005 4.7683715E-09 0.021148834
v -0.022638703 4.7683715E-09 0.016004333
v 0.024697112 -4.7683715E-09 0.017609404
v 0.027052611 -9.536743E-09 0.024421386
v 0.021751404 -4.7683715E-09 0.022008514
v 0.016572036 0 0.0070500183
v 0.021226577 0 0.011819305
v 0.016813355 -4.7683715E-09 0.02123352
v 0.021226577 0 0.011819305
v 0.024697112 -4.7683715E-09 0.017609404
v 0.021751404 -4.7683715E-09 0.022008514
v 0.016572036 0 0.0070500183
v 0.016813355 -4.7683715E-09 0.02123352
v 0.013058242 -4.7683715E-09 0.021568604
v 0.002758255 0 0.006766815
v 0.004859009 0 0.0038334655
v 0.013058242 -4.7683715E-09 0.021568604
v -0.00039474486 0 0.008290863
v 0.005344238 0 0.023553466
v -0.0023659514 0 0.025057677
v -0.00039474486 0 0.008290863
v -0.004611282 0 0.008417969
v -0.0101384735 0 0.02425537
v -0.008350677 0 0.0064237975
v -0.004611282 0 0.008417969
v -0.01699005 4.7683715E-09 0.021148834
v 0.010987091 0 0.0032324218
v 0.005422592 0 0.0024830627
v 0.0058637997 -4.7683715E-09 -0.0034230042
v 0.021658476 0 0.00052612304
v 0.017129822 0 0.005362854
v 0.010987091 0 0.0032324218
v 0.021658476 0 0.00052612304
v 0.021047287 0 0.008524627
v 0.017129822 0 0.005362854
v -0.011093979 0 0.0032391357
v -0.008350677 0 0.0064237975
v -0.022638703 4.7683715E-09 0.016004333
v -0.013274612 0 -0.0036779784
v -0.023901824 4.7683715E-09 -0.011509399
v -0.012930603 0 -0.007657623
v -0.026239319 4.7683715E-09 -0.0049093626
v -0.027052611 0 0.0025120543
v -0.013274612 0 -0.0036779784
v -0.012447281 0 0.00040908813
v -0.012930603 0 -0.007657623
v -0.023901824 4.7683715E-09 -0.011509399
v -0.019816207 4.7683715E-09 -0.017084045
v -0.011185226 0 -0.010751037
v -0.019816207 4.7683715E-09 -0.017084045
v -0.01328949 0 -0.022024384
v -0.008464202 0 -0.012944946
v -0.01328949 0 -0.022024384
v -0.0042134854 0 -0.013609466
v -0.008464202 0 -0.012944946
v -0.0051503754 0 -0.02505783
v 0.0030509185 0 -0.024959106
v -0.00075897214 0 -0.012787475
v 0.0030509185 0 -0.024959106
v 0.010907745 -4.7683715E-09 -0.022063904
v 0.0022708892 0 -0.010753173
v 0.017067641 -4.7683715E-09 -0.016522827
v 0.020710906 -4.7683715E-09 -0.009218445
v 0.0058637997 -4.7683715E-09 -0.0034230042
v 0.004618454 0 -0.0073597715
v 0.004618454 0 -0.0073597715
v 0.0022708892 0 -0.010753173
v 0.010907745 -4.7683715E-09 -0.022063904
v 0.004859009 0 0.0038334655
v 0.010580902 0 0.00458374
v 0.013058242 -4.7683715E-09 0.021568604
v 0.016572036 0 0.0070500183
vt 0.010769017 0.058601543
vt 0.99813586 0.07395661
vt 0.010769017 0.08944664
vt 0.010769017 0.6485376
vt 0.99813586 0.6494388
vt 0.010769017 0.6905295
vt 0.010769017 0.5941383
vt 0.99813586 0.5974831
vt 0.010769017 0.6485376
vt 0.99813586 0.724565
vt 0.010769017 0.732853
vt 0.010769017 0.6905295
vt 0.13747746 0.98772883
vt 0.010769017 0.9786653
vt 0.010769017 0.9511808
vt 0.54358786 0.99836093
vt 0.3161968 0.9947163
vt 0.010769017 0.93853337
vt 0.3161968 0.9947163
vt 0.13747746 0.98772883
vt 0.010769017 0.9511808
vt 0.54358786 0.99836093
vt 0.010769017 0.93853337
vt 0.010769017 0.91316867
vt 0.99813586 0.91316867
vt 0.99813586 0.97135574
vt 0.010769017 0.91316867
vt 0.99813586 0.8623039
vt 0.010769017 0.8618898
vt 0.010769017 0.81800324
vt 0.99813586 0.8623039
vt 0.99813586 0.785152
vt 0.010769017 0.7776134
vt 0.99813586 0.724565
vt 0.99813586 0.785152
vt 0.010769017 0.732853
vt 0.68446547 0.011247469
vt 0.99813586 0.011247469
vt 0.99813586 0.07395661
vt 0.010769017 0.058601543
vt 0.28434488 0.011247469
vt 0.68446547 0.011247469
vt 0.010769017 0.058601543
vt 0.010769017 0.011247469
vt 0.28434488 0.011247469
vt 0.99813586 0.6494388
vt 0.99813586 0.724565
vt 0.010769017 0.6905295
vt 0.99813586 0.54778403
vt 0.010769017 0.48476443
vt 0.99813586 0.48452336
vt 0.010769017 0.5483417
vt 0.010769017 0.5941383
vt 0.99813586 0.54778403
vt 0.99813586 0.5974831
vt 0.99813586 0.48452336
vt 0.010769017 0.48476443
vt 0.010769017 0.4231496
vt 0.99813586 0.4228508
vt 0.010769017 0.4231496
vt 0.010769017 0.36456674
vt 0.99813586 0.3652398
vt 0.010769017 0.36456674
vt 0.99813586 0.30424777
vt 0.99813586 0.3652398
vt 0.010769017 0.30485842
vt 0.010769017 0.24882214
vt 0.99813586 0.24779952
vt 0.010769017 0.24882214
vt 0.010769017 0.19073269
vt 0.99813586 0.19252655
vt 0.010769017 0.13802536
vt 0.010769017 0.08944664
vt 0.99813586 0.07395661
vt 0.99813586 0.13744682
vt 0.99813586 0.13744682
vt 0.99813586 0.19252655
vt 0.010769017 0.19073269
vt 0.99813586 0.97135574
vt 0.8269349 0.98867637
vt 0.010769017 0.91316867
vt 0.54358786 0.99836093
vn -1.8402326E-07 1 -4.714418E-07
vn -1.8402326E-07 1 -4.7144187E-07
vn -1.8402326E-07 1 -4.7144187E-07
vn 2.6685052E-07 1 -1.3220759E-07
vn -0 1 -4.825218E-07
vn 2.6685052E-07 1 -1.3220759E-07
vn -0 1 -4.825218E-07
vn -0 1 -4.825218E-07
vn -0 1 -4.825218E-07
vn 1.9221542E-07 1 -2.1105215E-07
vn 1.9221542E-07 1 -2.1105213E-07
vn 1.9221542E-07 1 -2.1105214E-07
vn 6.893795E-07 1 4.6161887E-07
vn 6.893795E-07 1 4.616188E-07
vn 6.893795E-07 1 4.6161884E-07
vn -3.5059136E-07 1 3.4215634E-07
vn -3.5059136E-07 1 3.4215637E-07
vn 2.1015268E-07 1 4.5715794E-07
vn 2.1015268E-07 1 4.57158E-07
vn 2.1015268E-07 1 4.57158E-07
vn 2.1015268E-07 1 4.57158E-07
vn -0 1 3.3568176E-07
vn -0 1 3.3568176E-07
vn 2.2814667E-07 1 1.6338998E-07
vn 2.2814666E-07 1 1.6338998E-07
vn 2.2814666E-07 1 1.6338998E-07
vn 4.180013E-07 1 0
vn 4.180013E-07 1 0
vn -0 1 0
vn -0 1 0
vn -0 1 0
vn -0 1 0
vn 4.294913E-07 1 0
vn 4.2949137E-07 1 0
vn 4.2949134E-07 1 0
vn 4.2949137E-07 1 0
vn 1.07643636E-07 1 -7.9932687E-07
vn 1.0764364E-07 1 -7.993269E-07
vn 1.0764364E-07 1 -7.993269E-07
vn -1.03863194E-07 1 -4.0954987E-07
vn -1.03863194E-07 1 -4.095499E-07
vn -1.03863194E-07 1 -4.0954987E-07
vn -0 1 0
vn -0 1 0
vn -0 1 0
vn 2.1154403E-07 1 -1.8222627E-07
vn 2.1154403E-07 1 -1.8222629E-07
vn 2.1154403E-07 1 -1.8222627E-07
vn 3.7807771E-07 1 0
vn 3.780777E-07 1 0
vn 3.7807771E-07 1 0
vn 3.780777E-07 1 0
vn 1.8604622E-07 1 4.1410848E-07
vn 1.8604622E-07 1 4.1410848E-07
vn 1.8604624E-07 1 4.1410843E-07
vn 3.6050977E-07 1 2.4251446E-07
vn 3.6050972E-07 1 2.4251443E-07
vn 3.6050974E-07 1 2.4251446E-07
vn 3.6050972E-07 1 2.4251446E-07
vn 4.50722E-07 1 0
vn 4.50722E-07 1 0
vn 4.50722E-07 1 0
vn -0 1 0
vn -0 1 0
vn -0 1 0
vn -0 1 0
vn -0 1 0
vn 4.2737452E-07 1 0
vn 4.2737452E-07 1 0
vn 4.2737454E-07 1 0
vn 4.2737452E-07 1 0
vn 3.2878995E-07 1 2.8120309E-07
vn 3.2878995E-07 1 2.8120309E-07
vn 3.2878995E-07 1 2.8120309E-07
vn 3.2878995E-07 1 2.8120309E-07
vn 2.3500341E-07 1 -2.2377158E-07
vn 2.3500338E-07 1 -2.2377156E-07
vn 2.3500338E-07 1 -2.2377156E-07
vn -0 1 2.8621633E-07
vn -0 1 2.8621633E-07
vn -0 1 2.8621636E-07
vn -1.2295119E-07 1 2.9867562E-07
g Object004_0
f 3/3/3 2/2/2 1/1/1
f 6/6/6 5/5/5 4/4/4
f 5/5/5 8/8/8 7/7/7
f 9/9/9 5/5/5 7/7/7
f 12/12/12 11/11/11 10/10/10
f 15/15/15 14/14/14 13/13/13
f 18/18/18 17/17/17 16/16/16
f 20/20/20 19/19/19 18/18/18
f 21/21/21 20/20/20 18/18/18
f 24/24/24 23/23/23 22/22/22
f 24/24/24 26/26/26 25/25/25
f 25/25/25 28/28/28 27/27/27
f 28/28/28 29/29/29 27/27/27
f 29/29/29 31/31/31 30/30/30
f 31/31/31 32/32/32 30/30/30
f 32/32/32 33/33/33 30/30/30
f 33/33/33 35/35/35 34/34/34
f 36/36/36 33/33/33 34/34/34
f 39/39/39 38/38/38 37/37/37
f 41/41/41 40/40/40 39/39/39
f 42/42/42 41/41/41 39/39/39
f 45/45/45 44/44/44 43/43/43
f 48/48/48 47/47/47 46/46/46
f 51/51/51 50/50/50 49/49/49
f 50/50/50 52/52/52 49/49/49
f 54/54/54 52/52/52 53/53/53
f 55/55/55 54/54/54 53/53/53
f 58/58/58 57/57/57 56/56/56
f 59/59/59 58/58/58 56/56/56
f 61/61/61 60/60/60 59/59/59
f 62/62/62 61/61/61 59/59/59
f 65/65/65 64/64/64 63/63/63
f 64/64/64 66/66/66 63/63/63
f 66/66/66 64/64/64 67/67/67
f 64/64/64 68/68/68 67/67/67
f 70/70/70 69/69/69 68/68/68
f 71/71/71 70/70/70 68/68/68
f 74/74/74 73/73/73 72/72/72
f 75/75/75 74/74/74 72/72/72
f 77/77/77 76/76/76 72/72/72
f 78/78/78 77/77/77 72/72/72
f 81/81/81 80/80/80 79/79/79
f 81/81/81 82/82/82 80/80/80
