g Object003
v 0.014441621 0.0014368298 -0.11994624
v 0.00587322 0.005640021 -0.114349045
v 0.0063864444 -0.010989628 -0.10316912
v 0.0063864444 -0.010989628 -0.10316912
v 0.014918261 -0.0140246 -0.10906618
v 0.013560189 -0.016242618 -0.1051601
v 0.0063864444 -0.010989628 -0.10316912
v 0.007916786 -0.014027652 -0.10087875
v 0.005928221 0.00055118836 -0.09368759
v 0.005730197 0.0033853485 -0.07745646
v 0.0063864444 -0.010989628 -0.10316912
v 0.013055027 0.008111251 0.04664163
v 0.011867616 -0.0045151156 0.0799854
v 0.013136495 -0.0012064 0.08190228
v 0.012182657 -0.020155072 0.117404245
v 0.011867616 -0.0045151156 0.0799854
v 0.013136495 -0.0012064 0.08190228
v 0.012182657 -0.020155072 0.117404245
v 0.013464387 -0.017346844 0.12013988
v 0.0048610126 -0.0014908261 0.081816345
v 0.0064048683 -0.0047345394 0.0799331
v 0.004762248 0.007822857 0.046562575
v 0.014112265 0.0036789277 -0.07736312
v 0.014918261 -0.0140246 -0.10906618
v 0.013560189 -0.016242618 -0.1051601
v 0.0051912707 -0.017628826 0.12004791
v 0.006720119 -0.020339398 0.117340885
v 0.0048610126 -0.0014908261 0.081816345
v 0.006720119 -0.020339398 0.117340885
v 0.0064048683 -0.0047345394 0.0799331
v 0.0048610126 -0.0014908261 0.081816345
v 0.00587322 0.005640021 -0.114349045
v 0.005928221 0.00055118836 -0.09368759
v 0.0063864444 -0.010989628 -0.10316912
v 0.005730197 0.0033853485 -0.07745646
v 0.007916786 -0.014027652 -0.10087875
v 0.00587322 0.005640021 -0.114349045
v 0.005615439 0.011735892 -0.106684424
v 0.005928221 0.00055118836 -0.09368759
v 0.013784166 0.014225502 -0.08375864
v 0.013616357 0.021030625 -0.09531411
v 0.014918261 -0.0140246 -0.10906618
v 0.014918261 -0.0140246 -0.10906618
v 0.013616357 0.021030625 -0.09531411
v 0.014441621 0.0014368298 -0.11994624
v 0.013784166 0.014225502 -0.08375864
v 0.014918261 -0.0140246 -0.10906618
v 0.014112265 0.0036789277 -0.07736312
v -0.0056295344 0.005239323 -0.11441877
v -0.013814635 0.00045202533 -0.120117545
v -0.013346866 -0.015010018 -0.10923754
v -0.013346866 -0.015010018 -0.10923754
v -0.00511876 -0.011390628 -0.1032389
v -0.011884087 -0.017129464 -0.1053144
v -0.0064606606 -0.014528751 -0.10096588
v -0.00511876 -0.011390628 -0.1032389
v -0.0055788164 0.00015018503 -0.09375735
v -0.00511876 -0.011390628 -0.1032389
v -0.0057756146 0.0029843547 -0.07752618
v -0.014774695 -0.002179305 0.081732936
v -0.013255141 -0.0053906697 0.07983308
v -0.014914281 0.0071362094 0.046472024
v -0.012933064 -0.021030625 0.11725198
v -0.013255141 -0.0053906697 0.07983308
v -0.007824206 0.0073785405 0.0043650866
v -0.006218708 0.00938386 -0.04005562
v -0.00751966 0.0055026347 -0.040033072
v -0.0057756146 0.0029843547 -0.07752618
v -0.00751966 0.0055026347 -0.040033072
v -0.006218708 0.00938386 -0.04005562
v -0.014440075 -0.018319445 0.11997057
v -0.012933064 -0.021030625 0.11725198
v -0.014774695 -0.002179305 0.081732936
v -0.006621506 0.0074261287 0.04649355
v -0.007789949 -0.005229229 0.079847045
v -0.0064994935 -0.0018866392 0.08174744
v -0.011884087 -0.017129464 -0.1053144
v -0.013346866 -0.015010018 -0.10923754
v -0.014158064 0.0026935223 -0.07753453
v -0.007471034 -0.020834092 0.11725475
v -0.0064994935 -0.0018866392 0.08174744
v -0.007789949 -0.005229229 0.079847045
v -0.0064994935 -0.0018866392 0.08174744
v -0.007471034 -0.020834092 0.11725475
v -0.0061677033 -0.018024644 0.11997906
v -0.0058888476 0.011334891 -0.106754206
v -0.0056295344 0.005239323 -0.11441877
v -0.0055788164 0.00015018503 -0.09375735
v -0.0056295344 0.005239323 -0.11441877
v -0.00511876 -0.011390628 -0.1032389
v -0.0055788164 0.00015018503 -0.09375735
v -0.014487997 0.013240089 -0.083930045
v -0.013346866 -0.015010018 -0.10923754
v -0.014654591 0.020045217 -0.09548563
v -0.00511876 -0.011390628 -0.1032389
v -0.0064606606 -0.014528751 -0.10096588
v -0.0070922556 -0.0007107135 -0.07625081
v -0.013346866 -0.015010018 -0.10923754
v -0.013814635 0.00045202533 -0.120117545
v -0.014654591 0.020045217 -0.09548563
v -0.014487997 0.013240089 -0.083930045
v -0.014158064 0.0026935223 -0.07753453
v -0.013346866 -0.015010018 -0.10923754
v 0.013560189 -0.016242618 -0.1051601
v 0.007916786 -0.014027652 -0.10087875
v 0.012817465 1.255548E-05 -0.07595169
v 0.0072851935 -0.00020961247 -0.07616365
v 0.006839438 0.0060031274 -0.039945964
v 0.012366844 0.006205764 -0.039800584
v 0.0064761625 0.007876897 0.0044519324
v 0.011979448 0.008065191 0.004640976
v 0.0063191615 0.0041464046 0.0455827
v 0.011794274 0.0043786457 0.045622706
v 0.0064048683 -0.0047345394 0.0799331
v 0.011867616 -0.0045151156 0.0799854
v 0.006720119 -0.020339398 0.117340885
v 0.012182657 -0.020155072 0.117404245
v 0.013252093 0.011916506 0.0046157213
v 0.011979448 0.008065191 0.004640976
v 0.011794274 0.0043786457 0.045622706
v 0.013645096 0.010076613 -0.03989607
v 0.011794274 0.0043786457 0.045622706
v 0.013055027 0.008111251 0.04664163
v 0.013252093 0.011916506 0.0046157213
v 0.011867616 -0.0045151156 0.0799854
v 0.004762248 0.007822857 0.046562575
v 0.0063191615 0.0041464046 0.0455827
v 0.0049148137 0.011626284 0.004529381
v 0.0064048683 -0.0047345394 0.0799331
v 0.0063191615 0.0041464046 0.0455827
v 0.0064761625 0.007876897 0.0044519324
v 0.0049148137 0.011626284 0.004529381
v 0.0052730334 0.009784561 -0.039985962
v 0.0064761625 0.007876897 0.0044519324
v 0.006839438 0.0060031274 -0.039945964
v 0.0052730334 0.009784561 -0.039985962
v 0.0072851935 -0.00020961247 -0.07616365
v 0.0072851935 -0.00020961247 -0.07616365
v 0.005730197 0.0033853485 -0.07745646
v 0.0052730334 0.009784561 -0.039985962
v 0.007916786 -0.014027652 -0.10087875
v 0.013645096 0.010076613 -0.03989607
v 0.014112265 0.0036789277 -0.07736312
v 0.012817465 1.255548E-05 -0.07595169
v 0.013560189 -0.016242618 -0.1051601
v 0.012817465 1.255548E-05 -0.07595169
v 0.012366844 0.006205764 -0.039800584
v 0.013645096 0.010076613 -0.03989607
v 0.011979448 0.008065191 0.004640976
v 0.013464387 -0.017346844 0.12013988
v 0.006720119 -0.020339398 0.117340885
v 0.0051912707 -0.017628826 0.12004791
v 0.012182657 -0.020155072 0.117404245
v 0.014441621 0.0014368298 -0.11994624
v 0.005615439 0.011735892 -0.106684424
v 0.00587322 0.005640021 -0.114349045
v 0.013616357 0.021030625 -0.09531411
v -0.012629565 -0.0008745928 -0.076106004
v -0.0064606606 -0.014528751 -0.10096588
v -0.011884087 -0.017129464 -0.1053144
v -0.0070922556 -0.0007107135 -0.07625081
v -0.00751966 0.0055026347 -0.040033072
v -0.013048672 0.005319834 -0.039954655
v -0.007824206 0.0073785405 0.0043650866
v -0.01333053 0.0071829204 0.0044875015
v -0.007905631 0.003650494 0.04549653
v -0.013384153 0.0035012604 0.045470156
v -0.013255141 -0.0053906697 0.07983308
v -0.007789949 -0.005229229 0.079847045
v -0.012933064 -0.021030625 0.11725198
v -0.007471034 -0.020834092 0.11725475
v -0.014914281 0.0071362094 0.046472024
v -0.013384153 0.0035012604 0.045470156
v -0.0148674175 0.010936584 0.0044452343
v -0.013255141 -0.0053906697 0.07983308
v -0.013384153 0.0035012604 0.045470156
v -0.01333053 0.0071829204 0.0044875015
v -0.0148674175 0.010936584 0.0044452343
v -0.013048672 0.005319834 -0.039954655
v -0.006529206 0.011227417 0.004459997
v -0.007905631 0.003650494 0.04549653
v -0.006621506 0.0074261287 0.04649355
v -0.007789949 -0.005229229 0.079847045
v -0.007905631 0.003650494 0.04549653
v -0.006529206 0.011227417 0.004459997
v -0.007824206 0.0073785405 0.0043650866
v -0.006218708 0.00938386 -0.04005562
v -0.0057756146 0.0029843547 -0.07752618
v -0.0070922556 -0.0007107135 -0.07625081
v -0.00751966 0.0055026347 -0.040033072
v -0.00511876 -0.011390628 -0.1032389
v -0.012629565 -0.0008745928 -0.076106004
v -0.014158064 0.0026935223 -0.07753453
v -0.014592196 0.009092418 -0.04006729
v -0.011884087 -0.017129464 -0.1053144
v -0.014592196 0.009092418 -0.04006729
v -0.013048672 0.005319834 -0.039954655
v -0.012629565 -0.0008745928 -0.076106004
v -0.0148674175 0.010936584 0.0044452343
v -0.0061677033 -0.018024644 0.11997906
v -0.007471034 -0.020834092 0.11725475
v -0.012933064 -0.021030625 0.11725198
v -0.014440075 -0.018319445 0.11997057
v -0.013814635 0.00045202533 -0.120117545
v -0.0056295344 0.005239323 -0.11441877
v -0.0058888476 0.011334891 -0.106754206
v -0.014654591 0.020045217 -0.09548563
vt 0.08675281 0.33723903
vt 0.07707628 0.33674324
vt 0.07707628 0.35374478
vt 0.07707628 0.35374478
vt 0.086543426 0.35327837
vt 0.08448932 0.35671172
vt 0.07707628 0.35374478
vt 0.07800835 0.35712078
vt 0.040996853 0.30449945
vt 0.04559721 0.3175739
vt 0.045665406 0.29276675
vt 0.070774235 0.42239273
vt 0.067340866 0.45231548
vt 0.070774235 0.45295116
vt 0.067340866 0.48692468
vt 0.067340866 0.45231548
vt 0.070774235 0.45295116
vt 0.067340866 0.48692468
vt 0.070774235 0.4881655
vt 0.04570121 0.45289326
vt 0.04910619 0.45227316
vt 0.04561263 0.42232275
vt 0.070774235 0.31782055
vt 0.07081115 0.28709048
vt 0.067340866 0.28910536
vt 0.045807768 0.48811382
vt 0.04910619 0.48687878
vt 0.04570121 0.45289326
vt 0.04910619 0.48687878
vt 0.04910619 0.45227316
vt 0.04570121 0.45289326
vt 0.028721433 0.29123697
vt 0.040996853 0.30449945
vt 0.045665406 0.29276675
vt 0.04559721 0.3175739
vt 0.04910619 0.2931983
vt 0.028721433 0.29123697
vt 0.027318057 0.29944003
vt 0.040996853 0.30449945
vt 0.081252754 0.31749618
vt 0.091097884 0.31176987
vt 0.07081115 0.28709048
vt 0.07081115 0.28709048
vt 0.091097884 0.31176987
vt 0.08677741 0.28541443
vt 0.081252754 0.31749618
vt 0.07081115 0.28709048
vt 0.070774235 0.31782055
vt 0.07707626 0.33674324
vt 0.08675283 0.33723903
vt 0.08654344 0.35327837
vt 0.08654344 0.35327837
vt 0.07707626 0.35374478
vt 0.084489346 0.35671172
vt 0.07800835 0.35712078
vt 0.07707626 0.35374478
vt 0.04099685 0.30449945
vt 0.045665383 0.29276675
vt 0.045597196 0.3175739
vt 0.07077426 0.45295116
vt 0.06734085 0.45231548
vt 0.07077426 0.42239273
vt 0.06734085 0.48692468
vt 0.06734085 0.45231548
vt 0.04910618 0.3868476
vt 0.04563117 0.3492185
vt 0.04910618 0.34891808
vt 0.045597196 0.3175739
vt 0.04910618 0.34891808
vt 0.04563117 0.3492185
vt 0.07077426 0.4881655
vt 0.06734085 0.48692468
vt 0.07077426 0.45295116
vt 0.045612633 0.42232275
vt 0.04910618 0.45227316
vt 0.045701206 0.45289326
vt 0.06734085 0.28910536
vt 0.07081115 0.28709048
vt 0.07077426 0.31782055
vt 0.04910618 0.48687878
vt 0.045701206 0.45289326
vt 0.04910618 0.45227316
vt 0.045701206 0.45289326
vt 0.04910618 0.48687878
vt 0.04580778 0.48811382
vt 0.02731806 0.29944003
vt 0.028721452 0.29123697
vt 0.04099685 0.30449945
vt 0.028721452 0.29123697
vt 0.045665383 0.29276675
vt 0.04099685 0.30449945
vt 0.081252754 0.31749618
vt 0.07081115 0.28709048
vt 0.09109789 0.31176987
vt 0.045665383 0.29276675
vt 0.04910618 0.2931983
vt 0.04910618 0.31763324
vt 0.07081115 0.28709048
vt 0.08677739 0.28541443
vt 0.09109789 0.31176987
vt 0.081252754 0.31749618
vt 0.07077426 0.31782055
vt 0.07081115 0.28709048
vt 0.060833603 0.290172
vt 0.055871017 0.2943604
vt 0.060814254 0.3185308
vt 0.05585339 0.3183827
vt 0.055879243 0.34955302
vt 0.060834147 0.34964243
vt 0.055895474 0.3872445
vt 0.0608297 0.38737097
vt 0.055901147 0.42227405
vt 0.0608097 0.42227122
vt 0.055885833 0.4523677
vt 0.060782917 0.452377
vt 0.05585339 0.48674703
vt 0.060748797 0.48677707
vt 0.070774235 0.3869736
vt 0.067340866 0.38707447
vt 0.067340866 0.42207333
vt 0.070774235 0.34935912
vt 0.067340866 0.42207333
vt 0.070774235 0.42239273
vt 0.070774235 0.3869736
vt 0.067340866 0.45231548
vt 0.04561263 0.42232275
vt 0.04910619 0.42202058
vt 0.045636766 0.3868513
vt 0.04910619 0.45227316
vt 0.04910619 0.42202058
vt 0.04910619 0.3868476
vt 0.045636766 0.3868513
vt 0.04563116 0.3492185
vt 0.04910619 0.3868476
vt 0.04910619 0.34891808
vt 0.04563116 0.3492185
vt 0.04910619 0.31763324
vt 0.04910619 0.31763324
vt 0.04559721 0.3175739
vt 0.04563116 0.3492185
vt 0.04910619 0.2931983
vt 0.070774235 0.34935912
vt 0.070774235 0.31782055
vt 0.067340866 0.31794855
vt 0.067340866 0.28910536
vt 0.067340866 0.31794855
vt 0.067340866 0.349124
vt 0.070774235 0.34935912
vt 0.067340866 0.38707447
vt 0.024178915 0.54077977
vt 0.027468055 0.53462464
vt 0.024178915 0.5333647
vt 0.027467504 0.5395202
vt 0.189739 0.3693573
vt 0.19349512 0.37657306
vt 0.1934942 0.37241834
vt 0.189739 0.38270873
vt 0.06081426 0.3185308
vt 0.05587101 0.2943604
vt 0.060833573 0.290172
vt 0.055853367 0.3183827
vt 0.055879235 0.34955302
vt 0.06083417 0.34964243
vt 0.055895448 0.3872445
vt 0.0608297 0.38737097
vt 0.05590117 0.42227405
vt 0.06080973 0.42227122
vt 0.06078291 0.452377
vt 0.05588585 0.4523677
vt 0.060748816 0.48677707
vt 0.055853367 0.48674703
vt 0.07077426 0.42239273
vt 0.06734085 0.42207333
vt 0.07077426 0.3869736
vt 0.06734085 0.45231548
vt 0.06734085 0.42207333
vt 0.06734085 0.38707447
vt 0.07077426 0.3869736
vt 0.06734085 0.349124
vt 0.045636773 0.3868513
vt 0.04910618 0.42202058
vt 0.045612633 0.42232275
vt 0.04910618 0.45227316
vt 0.04910618 0.42202058
vt 0.045636773 0.3868513
vt 0.04910618 0.3868476
vt 0.04563117 0.3492185
vt 0.045597196 0.3175739
vt 0.04910618 0.31763324
vt 0.04910618 0.34891808
vt 0.045665383 0.29276675
vt 0.06734085 0.31794855
vt 0.07077426 0.31782055
vt 0.07077426 0.34935912
vt 0.06734085 0.28910536
vt 0.07077426 0.34935912
vt 0.06734085 0.349124
vt 0.06734085 0.31794855
vt 0.07077426 0.3869736
vt 0.024178922 0.5333647
vt 0.027468085 0.53462464
vt 0.02746749 0.5395202
vt 0.024178922 0.54077977
vt 0.2024517 0.3693573
vt 0.19869675 0.37241834
vt 0.1986956 0.37657306
vt 0.2024517 0.38270873
vn -0.62127876 -0.45679176 -0.6366742
vn -0.62127876 -0.45679176 -0.6366742
vn -0.61255014 -0.53744626 -0.57959795
vn -0.61255014 -0.53744626 -0.57959795
vn -0.61486167 -0.5211831 -0.5918727
vn -0.5958577 -0.620569 -0.5097527
vn -0.61255014 -0.53744626 -0.57959795
vn -0.5958577 -0.620569 -0.5097527
vn -0.99937856 -0.034713224 -0.0061134277
vn -0.9393855 -0.32837564 0.09861179
vn -0.9806004 -0.18067779 0.07601625
vn 0.9491156 -0.31010738 -0.054892063
vn 0.94784355 -0.3012492 -0.10412213
vn 0.94761765 -0.29978624 -0.11022238
vn 0.94656247 -0.29447034 -0.13155515
vn 0.94784355 -0.3012492 -0.10412213
vn 0.94761765 -0.29978624 -0.11022238
vn 0.94656247 -0.29447034 -0.13155515
vn 0.94656247 -0.29447034 -0.13155515
vn -0.92158455 -0.3681503 -0.12307434
vn -0.92183894 -0.36938548 -0.11733383
vn -0.9232697 -0.3780299 -0.06831089
vn 0.98063904 -0.17799033 0.081648044
vn 0.9939475 -0.083297186 0.07162436
vn 0.9470871 -0.269465 0.17439808
vn -0.9203446 -0.36340705 -0.1445724
vn -0.9203446 -0.36340705 -0.1445724
vn -0.92158455 -0.3681503 -0.12307434
vn -0.9203446 -0.36340705 -0.1445724
vn -0.92183894 -0.36938548 -0.11733383
vn -0.92158455 -0.3681503 -0.12307434
vn -0.9993765 -0.034808937 -0.0059231375
vn -0.99937856 -0.034713224 -0.0061134277
vn -0.9806004 -0.18067779 0.07601625
vn -0.9393855 -0.32837564 0.09861179
vn -0.92539114 -0.3403836 0.16670366
vn -0.9993765 -0.034808937 -0.0059231375
vn -0.9993761 -0.034820847 -0.005923134
vn -0.99937856 -0.034713224 -0.0061134277
vn 0.99937683 0.034797035 0.005923144
vn 0.9993761 0.034820847 0.005923134
vn 0.9939475 -0.083297186 0.07162436
vn 0.9939475 -0.083297186 0.07162436
vn 0.9993761 0.034820847 0.005923134
vn 0.9993759 0.034857027 0.005732864
vn 0.99937683 0.034797035 0.005923144
vn 0.9939475 -0.083297186 0.07162436
vn 0.98063904 -0.17799033 0.081648044
vn 0.65931106 -0.4121583 -0.6288358
vn 0.6592598 -0.4121858 -0.62887156
vn 0.6568345 -0.47678122 -0.5841645
vn 0.6568345 -0.47678122 -0.5841645
vn 0.6554735 -0.49311146 -0.57201016
vn 0.6437539 -0.5772824 -0.5023206
vn 0.6437539 -0.5772824 -0.5023206
vn 0.6554735 -0.49311146 -0.57201016
vn 0.99937373 0.034856103 0.006113394
vn 0.98980474 -0.11201934 0.0879674
vn 0.9586937 -0.2623013 0.110019885
vn -0.92303616 -0.36503747 -0.12145782
vn -0.9232417 -0.36650124 -0.11533329
vn -0.9244835 -0.37540856 -0.06632255
vn -0.9220752 -0.35964757 -0.14293712
vn -0.9232417 -0.36650124 -0.11533329
vn 0.9481609 -0.31777227 -0.0034177615
vn 0.94741994 -0.3173336 0.04116707
vn 0.9473531 -0.3171749 0.04384212
vn 0.9586937 -0.2623013 0.110019885
vn 0.9473531 -0.3171749 0.04384212
vn 0.94741994 -0.3173336 0.04116707
vn -0.9220752 -0.35964757 -0.14293712
vn -0.9220752 -0.35964757 -0.14293712
vn -0.92303616 -0.36503747 -0.12145782
vn 0.9481754 -0.31263974 -0.0567436
vn 0.94673663 -0.30407572 -0.1059611
vn 0.9464622 -0.30288208 -0.11167695
vn -0.9281105 -0.33478805 0.16287363
vn -0.98653597 -0.15230711 0.05957608
vn -0.9667991 -0.2458249 0.069782615
vn 0.9451162 -0.29826948 -0.1333818
vn 0.9464622 -0.30288208 -0.11167695
vn 0.94673663 -0.30407572 -0.1059611
vn 0.9464622 -0.30288208 -0.11167695
vn 0.9451162 -0.29826948 -0.1333818
vn 0.9451162 -0.29826948 -0.1333818
vn 0.9993753 0.034808476 0.0061134063
vn 0.9993753 0.034808476 0.0061134063
vn 0.99937373 0.034856103 0.006113394
vn 0.9993753 0.034808476 0.0061134063
vn 0.98980474 -0.11201934 0.0879674
vn 0.99937373 0.034856103 0.006113394
vn -0.99937326 -0.034868006 -0.0061133904
vn -0.98653597 -0.15230711 0.05957608
vn -0.99937457 -0.034832288 -0.0061134
vn 0.98980474 -0.11201934 0.0879674
vn 0.9447785 -0.27517173 0.17797248
vn 0.9473779 -0.29603082 0.12182312
vn -0.98653597 -0.15230711 0.05957608
vn -0.9993747 -0.034759924 -0.006493926
vn -0.99937457 -0.034832288 -0.0061134
vn -0.99937326 -0.034868006 -0.0061133904
vn -0.9667991 -0.2458249 0.069782615
vn -0.98653597 -0.15230711 0.05957608
vn 0.021763867 -0.8729424 0.4873376
vn 0.021763867 -0.8729424 0.4873376
vn 0.027567683 -0.9436324 0.3298453
vn 0.027409244 -0.94134027 0.336344
vn 0.033388354 -0.9937191 0.106806666
vn 0.033279564 -0.9939051 0.10509559
vn 0.037161537 -0.99905294 -0.022633001
vn 0.037205663 -0.9989967 -0.024929127
vn 0.041100405 -0.9845109 -0.17043747
vn 0.041099448 -0.98451173 -0.17043349
vn 0.040227946 -0.9470097 -0.31867582
vn 0.04022887 -0.94700736 -0.31868303
vn 0.038065452 -0.9219558 -0.38541967
vn 0.038065452 -0.9219558 -0.38541967
vn 0.94952196 -0.31369942 -0.00082583464
vn 0.94952995 -0.3136712 -0.0017895724
vn 0.94919074 -0.3104657 -0.0514578
vn 0.94910336 -0.31212577 0.042195227
vn 0.94919074 -0.3104657 -0.0514578
vn 0.9491156 -0.31010738 -0.054892063
vn 0.94952196 -0.31369942 -0.00082583464
vn 0.94784355 -0.3012492 -0.10412213
vn -0.9232697 -0.3780299 -0.06831089
vn -0.92330784 -0.3784764 -0.06525624
vn -0.9236277 -0.38300627 -0.0147708
vn -0.92183894 -0.36938548 -0.11733383
vn -0.92330784 -0.3784764 -0.06525624
vn -0.9236235 -0.38301644 -0.014770729
vn -0.9236277 -0.38300627 -0.0147708
vn -0.92351836 -0.38239884 0.029749228
vn -0.9236235 -0.38301644 -0.014770729
vn -0.92349494 -0.38223773 0.032424714
vn -0.92351836 -0.38239884 0.029749228
vn -0.9258726 -0.36129904 0.110557035
vn -0.9258726 -0.36129904 0.110557035
vn -0.9393855 -0.32837564 0.09861179
vn -0.92351836 -0.38239884 0.029749228
vn -0.92539114 -0.3403836 0.16670366
vn 0.94910336 -0.31212577 0.042195227
vn 0.98063904 -0.17799033 0.081648044
vn 0.9493117 -0.29100686 0.118836835
vn 0.9470871 -0.269465 0.17439808
vn 0.9493117 -0.29100686 0.118836835
vn 0.9490533 -0.31201267 0.04411165
vn 0.94910336 -0.31212577 0.042195227
vn 0.94952995 -0.3136712 -0.0017895724
vn 0.015682267 -0.70172113 0.71227914
vn 0.015682267 -0.70172113 0.71227914
vn 0.015682267 -0.70172113 0.71227914
vn 0.015682267 -0.70172113 0.71227914
vn -0.023341544 0.7820739 -0.62274826
vn -0.023341544 0.7820739 -0.62274826
vn -0.023150684 0.78208077 -0.6227469
vn -0.021795426 0.744426 -0.667349
vn 0.034169506 -0.9433693 0.3299799
vn 0.0330527 -0.8724817 0.48752773
vn 0.033147864 -0.8724815 0.48752156
vn 0.0340968 -0.9411337 0.33631054
vn 0.03472115 -0.9936824 0.106722735
vn 0.034718923 -0.9938455 0.10519348
vn 0.032853775 -0.9992015 -0.022739707
vn 0.032803647 -0.99914837 -0.025030386
vn 0.029509326 -0.9848578 -0.17083381
vn 0.029534852 -0.9849219 -0.1704601
vn 0.0297113 -0.94736445 -0.31877553
vn 0.029614935 -0.94737387 -0.31875655
vn 0.030810282 -0.9222509 -0.38536203
vn 0.030810282 -0.9222509 -0.38536203
vn -0.9244835 -0.37540856 -0.06632255
vn -0.9245498 -0.3758376 -0.0628781
vn -0.9253147 -0.3790043 -0.012181442
vn -0.9232417 -0.36650124 -0.11533329
vn -0.9245498 -0.3758376 -0.0628781
vn -0.9252986 -0.37901178 -0.013139484
vn -0.9253147 -0.3790043 -0.012181442
vn -0.9255234 -0.37727222 0.0327442
vn 0.9481609 -0.31777227 -0.0034177615
vn 0.94818664 -0.31307927 -0.054068353
vn 0.9481754 -0.31263974 -0.0567436
vn 0.94673663 -0.30407572 -0.1059611
vn 0.94818664 -0.31307927 -0.054068353
vn 0.9481609 -0.31777227 -0.0034177615
vn 0.9481609 -0.31777227 -0.0034177615
vn 0.94741994 -0.3173336 0.04116707
vn 0.9586937 -0.2623013 0.110019885
vn 0.9473779 -0.29603082 0.12182312
vn 0.9473531 -0.3171749 0.04384212
vn 0.98980474 -0.11201934 0.0879674
vn -0.92815137 -0.35635507 0.107452154
vn -0.9667991 -0.2458249 0.069782615
vn -0.9255489 -0.3773861 0.030643877
vn -0.9281105 -0.33478805 0.16287363
vn -0.9255489 -0.3773861 0.030643877
vn -0.9255234 -0.37727222 0.0327442
vn -0.92815137 -0.35635507 0.107452154
vn -0.9253147 -0.3790043 -0.012181442
vn 0.024484016 -0.70135075 0.71239567
vn 0.024484016 -0.70135075 0.71239567
vn 0.024484016 -0.70135075 0.71239567
vn 0.024484016 -0.70135075 0.71239567
vn -0.02373219 0.78197664 -0.6228558
vn -0.023722405 0.7820788 -0.6227279
vn -0.023541559 0.78197885 -0.62286025
vn -0.021890646 0.74442756 -0.66734433
g Object003_0
f 3/3/3 2/2/2 1/1/1
f 1/1/1 5/5/5 4/4/4
f 4/4/4 5/5/5 6/6/6
f 6/6/6 8/8/8 7/7/7
f 11/11/11 10/10/10 9/9/9
f 14/14/14 13/13/13 12/12/12
f 16/16/16 14/14/14 15/15/15
f 19/19/19 18/18/18 17/17/17
f 22/22/22 21/21/21 20/20/20
f 25/25/25 24/24/24 23/23/23
f 28/28/28 27/27/27 26/26/26
f 31/31/31 30/30/30 29/29/29
f 34/34/34 33/33/33 32/32/32
f 34/34/34 36/36/36 35/35/35
f 39/39/39 38/38/38 37/37/37
f 42/42/42 41/41/41 40/40/40
f 45/45/45 44/44/44 43/43/43
f 48/48/48 47/47/47 46/46/46
f 51/51/51 50/50/50 49/49/49
f 49/49/49 53/53/53 52/52/52
f 54/54/54 52/52/52 53/53/53
f 56/56/56 55/55/55 54/54/54
f 59/59/59 58/58/58 57/57/57
f 62/62/62 61/61/61 60/60/60
f 60/60/60 64/64/64 63/63/63
f 67/67/67 66/66/66 65/65/65
f 70/70/70 69/69/69 68/68/68
f 73/73/73 72/72/72 71/71/71
f 76/76/76 75/75/75 74/74/74
f 79/79/79 78/78/78 77/77/77
f 82/82/82 81/81/81 80/80/80
f 85/85/85 84/84/84 83/83/83
f 88/88/88 87/87/87 86/86/86
f 91/91/91 90/90/90 89/89/89
f 94/94/94 93/93/93 92/92/92
f 97/97/97 96/96/96 95/95/95
f 100/100/100 99/99/99 98/98/98
f 103/103/103 102/102/102 101/101/101
f 106/106/106 105/105/105 104/104/104
f 106/106/106 107/107/107 105/105/105
f 108/108/108 107/107/107 106/106/106
f 106/106/106 109/109/109 108/108/108
f 110/110/110 108/108/108 109/109/109
f 109/109/109 111/111/111 110/110/110
f 112/112/112 110/110/110 111/111/111
f 111/111/111 113/113/113 112/112/112
f 114/114/114 112/112/112 113/113/113
f 113/113/113 115/115/115 114/114/114
f 116/116/116 114/114/114 115/115/115
f 115/115/115 117/117/117 116/116/116
f 120/120/120 119/119/119 118/118/118
f 121/121/121 118/118/118 119/119/119
f 124/124/124 123/123/123 122/122/122
f 122/122/122 123/123/123 125/125/125
f 128/128/128 127/127/127 126/126/126
f 126/126/126 127/127/127 129/129/129
f 132/132/132 131/131/131 130/130/130
f 133/133/133 131/131/131 132/132/132
f 136/136/136 135/135/135 134/134/134
f 137/137/137 135/135/135 136/136/136
f 140/140/140 139/139/139 138/138/138
f 141/141/141 138/138/138 139/139/139
f 144/144/144 143/143/143 142/142/142
f 143/143/143 144/144/144 145/145/145
f 148/148/148 147/147/147 146/146/146
f 149/149/149 147/147/147 148/148/148
f 152/152/152 151/151/151 150/150/150
f 151/151/151 153/153/153 150/150/150
f 156/156/156 155/155/155 154/154/154
f 154/154/154 155/155/155 157/157/157
f 160/160/160 159/159/159 158/158/158
f 161/161/161 158/158/158 159/159/159
f 158/158/158 161/161/161 162/162/162
f 162/162/162 163/163/163 158/158/158
f 162/162/162 164/164/164 163/163/163
f 163/163/163 164/164/164 165/165/165
f 164/164/164 166/166/166 165/165/165
f 165/165/165 166/166/166 167/167/167
f 167/167/167 166/166/166 168/168/168
f 169/169/169 168/168/168 166/166/166
f 170/170/170 168/168/168 169/169/169
f 169/169/169 171/171/171 170/170/170
f 174/174/174 173/173/173 172/172/172
f 172/172/172 173/173/173 175/175/175
f 178/178/178 177/177/177 176/176/176
f 179/179/179 177/177/177 178/178/178
f 182/182/182 181/181/181 180/180/180
f 181/181/181 182/182/182 183/183/183
f 186/186/186 185/185/185 184/184/184
f 185/185/185 186/186/186 187/187/187
f 190/190/190 189/189/189 188/188/188
f 191/191/191 188/188/188 189/189/189
f 194/194/194 193/193/193 192/192/192
f 195/195/195 192/192/192 193/193/193
f 198/198/198 197/197/197 196/196/196
f 199/199/199 196/196/196 197/197/197
f 202/202/202 201/201/201 200/200/200
f 200/200/200 203/203/203 202/202/202
f 206/206/206 205/205/205 204/204/204
f 206/206/206 204/204/204 207/207/207
