g Plane001
v -0.5918158 0.0012825393 -0.011028488
v -0.85440266 -0.0044205473 -0.003087586
v -0.7539628 0.43087417 -0.00072514405
v -0.5354621 0.259896 -0.008595551
v -0.37308386 0.00535614 -0.016700104
v -0.66106457 0.72445494 0.0027509604
v -0.34698203 0.14434715 -0.015339478
v -0.18334389 0.0078002163 -0.02010327
v -0.47394514 0.4558419 -0.004270066
v -0.5685522 0.8988995 0.006737395
v -0.1755934 0.067339435 -0.019708375
v -0.007758026 0.008590316 -0.02123738
v -0.31253043 0.26016894 -0.012646988
v -0.40786597 0.59279644 0.00038737422
v -0.46914944 1.0112555 0.008347274
v -0.16212837 0.12105617 -0.018908279
v -0.27158126 0.35113528 -0.009497422
v -0.3363275 0.6873568 0.00385234
v -0.36075196 1.1142055 0.004949294
v -0.14382133 0.16733666 -0.017891359
v -0.22529837 0.41947815 -0.006661957
v -0.25902373 0.75741607 0.005091506
v -0.24539168 1.2239058 -0.002304047
v -0.12152458 0.20531145 -0.01685544
v -0.007758026 0.008590316 -0.02123738
v -0.17459853 0.46905524 -0.0046805274
v -0.17678642 0.81218517 0.0041495813
v -0.12596016 1.3163564 -0.008978394
v -0.09606117 0.23468079 -0.015972717
v -0.1204425 0.5031423 -0.003779267
v -0.09113388 0.8499246 0.002017013
v -0.004412613 1.3533337 -0.011445511
v -0.06823295 0.25547907 -0.015362137
v -0.038833845 0.2678641 -0.015085267
v -0.06392227 0.52339566 -0.0038921058
v -0.0037412262 0.86375517 -0.00020047059
v 0.117948756 1.3167986 -0.009793443
v -0.0062364195 0.5301693 -0.0047852024
v 0.0837265 0.8500662 -0.0019913947
v 0.23939133 1.2245485 -0.0066183936
v -0.008655395 0.27197537 -0.01514798
v 0.051370237 0.52342373 -0.0061911475
v 0.1695211 0.8124026 -0.003431977
v 0.3570288 1.1147556 -0.0038855444
v 0.021514663 0.2678658 -0.01551297
v 0.10765457 0.50318694 -0.007887161
v 0.2517874 0.75762284 -0.004724015
v 0.46722534 1.0115657 -0.0017686163
v 0.050898436 0.2554819 -0.016115159
v -0.007758026 0.008590316 -0.02123738
v 0.16144119 0.46910053 -0.009702042
v 0.32886916 0.6874974 -0.0059319767
v 0.567675 0.89900815 -0.000107010506
v 0.07873428 0.23468365 -0.016874969
v 0.21169403 0.41951147 -0.011507462
v 0.39991942 0.59286416 -0.007099732
v 0.66035354 0.72447324 0.00037844785
v 0.10427536 0.20531364 -0.01770848
v 0.12678528 0.16733779 -0.018530777
v 0.25756958 0.35115305 -0.013209809
v 0.46534956 0.45586237 -0.008369187
v 0.7522462 0.43087497 -0.00094654906
v 0.2983435 0.2601749 -0.014729813
v 0.52632856 0.2598984 -0.009790009
v 0.8505926 -0.0044205473 -0.003087586
v 0.5828839 0.0012825393 -0.011028336
v 0.3331381 0.1443479 -0.01595845
v 0.36049315 0.00535614 -0.01670018
v 0.14551987 0.121056594 -0.019258317
v 0.15971084 0.06733947 -0.019809464
v 0.1685585 0.0078002163 -0.020103117
v -0.004466095 0.0012827682 0.57607555
v -0.0019050598 -0.004420166 0.8494103
v -0.00089530944 0.43087512 0.7521444
v -0.004820175 0.25989854 0.52072614
v -0.0062953182 0.0053562545 0.34980753
v -0.0007704162 0.7244734 0.6611675
v -0.0070913695 0.144348 0.32360438
v -0.007392959 0.0078002927 0.15567233
v -0.0052044676 0.4558623 0.46068493
v -0.001746521 0.89900804 0.568056
v -0.007978363 0.06733952 0.14759006
v -0.0077582547 0.008590316 -0.021236999
v -0.007681427 0.26017484 0.28982234
v -0.0057489774 0.5928639 0.3956686
v -0.0031376646 1.0115653 0.4657342
v -0.008432846 0.12105656 0.13417812
v -0.008106384 0.3511529 0.24995112
v -0.0062809754 0.6874968 0.32462534
v -0.0040510558 1.1147553 0.35331446
v -0.008758621 0.16733776 0.116230495
v -0.008339233 0.4195111 0.20499393
v -0.00650238 0.7576222 0.24767086
v -0.00423645 1.2245477 0.23409908
v -0.008957596 0.20531355 0.09452357
v -0.0077582547 0.008590316 -0.021236999
v -0.008312683 0.46910006 0.15589397
v -0.006199875 0.812402 0.16633868
v -0.0042426297 1.3167982 0.11153567
v -0.009032211 0.23468356 0.06981196
v -0.007962418 0.5031866 0.10374812
v -0.0053029633 0.85006577 0.082893014
v -0.0044127656 1.3533337 -0.011445511
v -0.008991546 0.25548184 0.042825498
v -0.008855438 0.26786572 0.014277297
v -0.0072603608 0.5234234 0.049785107
v -0.0037416075 0.86375517 -0.0002001654
v -0.0035919952 1.3163564 -0.12976323
v -0.0062366487 0.5301694 -0.00478505
v -0.0013339233 0.84992534 -0.080497555
v 0.00063171383 1.2239069 -0.23566097
v -0.008655701 0.27197537 -0.01514798
v -0.0049982453 0.5233961 -0.05896649
v 0.0019922638 0.8121873 -0.15622494
v 0.009383163 1.1142105 -0.32443005
v -0.008437348 0.26786417 -0.044791766
v -0.0037669372 0.5031433 -0.11216244
v 0.00566452 0.7574199 -0.22764339
v 0.019650955 1.0112644 -0.40250942
v -0.008248672 0.25547925 -0.07401204
v -0.0077582547 0.008590316 -0.021236999
v -0.0028830718 0.46905673 -0.16424847
v 0.00817688 0.6873621 -0.29796374
v 0.024749527 0.8989114 -0.48805827
v -0.008129196 0.23468089 -0.10214833
v -0.0027220915 0.4194797 -0.21534908
v 0.007718658 0.5928015 -0.37191263
v 0.019490967 0.72446424 -0.5983405
v -0.008089981 0.2053116 -0.12846592
v -0.008097229 0.16733673 -0.15209691
v -0.0034803008 0.3511366 -0.2652062
v 0.0037098692 0.45584548 -0.45150793
v 0.0065998076 0.43087775 -0.7310149
v -0.0049150847 0.2601698 -0.3123111
v -0.0018232727 0.25989705 -0.5314596
v -0.001905136 -0.0044209287 -0.85558534
v -0.0044663236 0.0012823105 -0.5981317
v -0.006232147 0.14434734 -0.35330394
v -0.0062953182 0.0053560254 -0.38320705
v -0.008065033 0.12105625 -0.17200275
v -0.007871475 0.067339435 -0.18700238
v -0.0073928833 0.007800178 -0.19587833
vt 0.06846517 0.45448196
vt -0.082284465 0.45448196
vt -0.07069848 0.57289326
vt 0.07715455 0.54328936
vt 0.2192148 0.45448196
vt -0.036385655 0.6867542
vt 0.22500756 0.5136854
vt 0.36996442 0.45448196
vt 0.10288887 0.628684
vt 0.019335369 0.79168904
vt 0.3728606 0.48408154
vt 0.5207138 0.45447975
vt 0.24216336 0.5706138
vt 0.14467908 0.7073842
vt 0.09432321 0.88366514
vt 0.38143787 0.5125435
vt 0.27002284 0.6230792
vt 0.2009193 0.7763654
vt 0.18569614 0.95914805
vt 0.39536658 0.5387743
vt 0.30751538 0.66906565
vt 0.26944816 0.8329769
vt 0.2899428 1.0152369
vt 0.4141114 0.56176585
vt 0.52070594 0.45446473
vt 0.35320017 0.70680565
vt 0.3476322 0.875043
vt 0.403057 1.0497762
vt 0.43695214 0.58063453
vt 0.40532154 0.7348491
vt 0.43246675 0.9009472
vt 0.52069175 1.0614387
vt 0.46301097 0.5946552
vt 0.49128637 0.603289
vt 0.46187654 0.7521181
vt 0.52069175 0.90969396
vt 0.6383266 1.0497762
vt 0.52069175 0.7579492
vt 0.6089168 0.9009472
vt 0.7514408 1.0152369
vt 0.52069175 0.60620433
vt 0.579507 0.7521181
vt 0.6937514 0.875043
vt 0.8556874 0.95914805
vt 0.5500972 0.603289
vt 0.636062 0.7348491
vt 0.77193534 0.8329769
vt 0.9470604 0.88366514
vt 0.5783727 0.5946552
vt 0.5206814 0.45446238
vt 0.6881834 0.70680565
vt 0.8404643 0.7763654
vt 0.9456477 0.79168904
vt 0.6044314 0.58063453
vt 0.7338682 0.66906565
vt 0.89670455 0.7073842
vt 1.0013688 0.6867542
vt 0.6272721 0.56176585
vt 0.646017 0.5387743
vt 0.7713608 0.6230792
vt 0.93849474 0.628684
vt 1.0229483 0.57289326
vt 0.79922026 0.5706138
vt 0.9642291 0.54328936
vt 1.0345343 0.45448196
vt 0.97291845 0.45448196
vt 0.81637603 0.5136854
vt 0.8221688 0.45448196
vt 0.6599457 0.5125435
vt 0.66852295 0.48408154
vt 0.6714192 0.45448196
vt 0.06846517 0.45448196
vt -0.082284465 0.45448196
vt -0.07069848 0.57289326
vt 0.07715455 0.54328936
vt 0.2192148 0.45448196
vt -0.036385655 0.6867542
vt 0.22500756 0.5136854
vt 0.36996442 0.45448196
vt 0.10288887 0.628684
vt 0.019335369 0.79168904
vt 0.3728606 0.48408154
vt 0.5207138 0.45447975
vt 0.24216336 0.5706138
vt 0.14467908 0.7073842
vt 0.09432321 0.88366514
vt 0.38143787 0.5125435
vt 0.27002284 0.6230792
vt 0.2009193 0.7763654
vt 0.18569614 0.95914805
vt 0.39536658 0.5387743
vt 0.30751538 0.66906565
vt 0.26944816 0.8329769
vt 0.2899428 1.0152369
vt 0.4141114 0.56176585
vt 0.52070594 0.45446473
vt 0.35320017 0.70680565
vt 0.3476322 0.875043
vt 0.403057 1.0497762
vt 0.43695214 0.58063453
vt 0.40532154 0.7348491
vt 0.43246675 0.9009472
vt 0.52069175 1.0614387
vt 0.46301097 0.5946552
vt 0.49128637 0.603289
vt 0.46187654 0.7521181
vt 0.52069175 0.90969396
vt 0.6383266 1.0497762
vt 0.52069175 0.7579492
vt 0.6089168 0.9009472
vt 0.7514408 1.0152369
vt 0.52069175 0.60620433
vt 0.579507 0.7521181
vt 0.6937514 0.875043
vt 0.8556874 0.95914805
vt 0.5500972 0.603289
vt 0.636062 0.7348491
vt 0.77193534 0.8329769
vt 0.9470604 0.88366514
vt 0.5783727 0.5946552
vt 0.5206814 0.45446238
vt 0.6881834 0.70680565
vt 0.8404643 0.7763654
vt 0.9456477 0.79168904
vt 0.6044314 0.58063453
vt 0.7338682 0.66906565
vt 0.89670455 0.7073842
vt 1.0013688 0.6867542
vt 0.6272721 0.56176585
vt 0.646017 0.5387743
vt 0.7713608 0.6230792
vt 0.93849474 0.628684
vt 1.0229483 0.57289326
vt 0.79922026 0.5706138
vt 0.9642291 0.54328936
vt 1.0345343 0.45448196
vt 0.97291845 0.45448196
vt 0.81637603 0.5136854
vt 0.8221688 0.45448196
vt 0.6599457 0.5125435
vt 0.66852295 0.48408154
vt 0.6714192 0.45448196
vn 0.027467083 -0.014024022 0.99952435
vn 0.02828136 -0.013297685 0.9995116
vn 0.019592188 -0.017834563 0.99964905
vn 0.022331297 -0.01930226 0.99956423
vn 0.023163944 -0.013731022 0.99963737
vn 0.0016908292 -0.024091875 0.99970824
vn 0.020328233 -0.019866208 0.99959594
vn 0.013306096 -0.009982644 0.9998616
vn 0.009416179 -0.027930088 0.99956554
vn -0.0051139398 -0.021801682 0.99974924
vn 0.01157696 -0.014963852 0.999821
vn 0.0010327098 -0.017198797 0.9998516
vn 0.013778215 -0.031390827 0.9994122
vn -0.0010823759 -0.030759757 0.99952626
vn 0.006395053 -0.008384513 0.99994445
vn 0.008006791 -0.024326704 0.99967194
vn 0.0069772936 -0.03874293 0.9992249
vn 0.0029286656 -0.023922093 0.99970955
vn 0.023541704 0.009173496 0.99968076
vn 0.004083156 -0.030948134 0.9995127
vn 0.005603731 -0.040323656 0.999171
vn 0.016376272 -0.011284539 0.9998023
vn 0.028447017 0.020553734 0.9993839
vn 0.0021003745 -0.034444887 0.9994043
vn 0.0010327098 -0.017198797 0.9998516
vn 0.010453279 -0.037138898 0.99925536
vn 0.024994768 -0.00048238362 0.99968743
vn 0.020722477 0.023625266 0.9995061
vn 0.0031220315 -0.035321917 0.9993711
vn 0.01662282 -0.0324149 0.9993362
vn 0.023301255 0.005092227 0.9997155
vn 0.010989331 0.021795744 0.99970204
vn 0.006262799 -0.034694627 0.9993783
vn 0.00962907 -0.033563934 0.99939024
vn 0.01967377 -0.028613513 0.9993969
vn 0.015852608 0.005371045 0.9998599
vn 0.0032824464 0.017164461 0.9998473
vn 0.018945549 -0.026506511 0.9994691
vn 0.009423592 0.0015947012 0.99995434
vn -0.0016186603 0.009763775 0.999951
vn 0.0117310975 -0.032402113 0.9994061
vn 0.0159938 -0.025876094 0.9995372
vn 0.0050945263 -0.0041056313 0.99997866
vn -0.00564223 0.0010790781 0.99998355
vn 0.011980181 -0.031228717 0.9994405
vn 0.011911871 -0.02601527 0.9995906
vn 0.00033538582 -0.009742308 0.99995255
vn -0.011177564 -0.006461041 0.9999167
vn 0.010291344 -0.02981193 0.99950254
vn 0.0010327098 -0.017198797 0.9998516
vn 0.006522072 -0.025945816 0.99964213
vn -0.0062421137 -0.013945347 0.9998833
vn -0.017522058 -0.011406572 0.9997814
vn 0.006757266 -0.027791573 0.99959093
vn -0.0005693413 -0.02470422 0.9996947
vn -0.01392821 -0.01601099 0.9997749
vn -0.023488088 -0.013743817 0.9996296
vn 0.0017992642 -0.024826216 0.9996902
vn -0.00364942 -0.020792425 0.99977714
vn -0.008675498 -0.021822156 0.9997242
vn -0.021135997 -0.015625134 0.99965453
vn -0.0282149 -0.013137238 0.99951553
vn -0.015931234 -0.01753617 0.9997193
vn -0.026214985 -0.012860774 0.99957365
vn -0.030104423 -0.011587695 0.9994796
vn -0.028227154 -0.01108244 0.9995401
vn -0.020526964 -0.0122497035 0.9997142
vn -0.022406254 -0.009583818 0.999703
vn -0.008381488 -0.015837947 0.9998394
vn -0.011441208 -0.010174667 0.9998828
vn -0.012863188 -0.0073345727 0.9998903
vn 0.99993885 -0.0016493804 -0.010934647
vn 0.9999254 -0.0035173942 -0.011696974
vn 0.99989665 -0.0039051261 -0.01384025
vn 0.9999236 -0.0019312894 -0.012215137
vn 0.9999598 0.0030261283 -0.008439511
vn 0.999859 -0.0038431727 -0.016346516
vn 0.9999558 0.0024779183 -0.009080822
vn 0.9999616 0.007523558 -0.00448458
vn 0.999894 -0.0027228077 -0.014303519
vn 0.9998659 -0.0036687092 -0.015959375
vn 0.99996674 0.006841504 -0.004455329
vn 0.99998724 0.0049542375 0.0010622449
vn 0.99994814 0.000914543 -0.01014241
vn 0.9998952 -0.0031664006 -0.01412851
vn 0.9999175 -0.0042034644 -0.012143272
vn 0.9999765 0.0052850004 -0.0043728924
vn 0.99995494 -0.0006224446 -0.009469397
vn 0.99993384 -0.004027826 -0.010774919
vn 0.9999714 -0.0048061963 -0.005846875
vn 0.9999869 0.0037614491 -0.0034866917
vn 0.9999753 -0.0024066477 -0.006604114
vn 0.9999752 -0.0051312027 -0.0048228595
vn 0.99999166 -0.0040818076 0.00022730137
vn 0.9999964 0.002147138 -0.0016069314
vn 0.99998724 0.0049542375 0.0010622449
vn 0.99998915 -0.004349649 -0.0016944516
vn 0.99998283 -0.005540816 0.0019210657
vn 0.9999863 -0.0016379175 0.004989735
vn 0.99999917 0.00045977914 0.0012720798
vn 0.99997056 -0.006143561 0.0045940722
vn 0.99995327 -0.0046836752 0.008461875
vn 0.99993825 0.0017782898 0.010976258
vn 0.9999875 -0.001184109 0.004855083
vn 0.999959 -0.002693644 0.008655252
vn 0.9999013 -0.007651177 0.011789172
vn 0.999864 -0.0026963295 0.016274069
vn 0.99973756 0.0058582644 0.022147294
vn 0.99976224 -0.00906415 0.019830951
vn 0.9995664 -0.00048965664 0.029442806
vn 0.9989895 0.01001512 0.04381346
vn 0.9999194 -0.0040487666 0.012031621
vn 0.9995427 -0.010873861 0.028215058
vn 0.99882454 -3.57112E-05 0.048471376
vn 0.9974727 0.009070642 0.07046826
vn 0.9998859 -0.005296946 0.014146997
vn 0.9993098 -0.013785205 0.03449464
vn 0.99803823 -0.0055815093 0.062359426
vn 0.99708503 -0.005776576 0.07607854
vn 0.9998785 -0.0065297284 0.014153349
vn 0.99998724 0.0049542375 0.0010622449
vn 0.9992324 -0.01827592 0.034648776
vn 0.9982894 -0.02028779 0.05483213
vn 0.99829704 -0.0305096 0.04972086
vn 0.9998995 -0.007747521 0.011876884
vn 0.99934644 -0.02329951 0.027635679
vn 0.9988405 -0.035707057 0.032289494
vn 0.99875 -0.044841986 0.022085665
vn 0.99992776 -0.008561634 0.008444939
vn 0.99995124 -0.008039838 0.0057338066
vn 0.99949884 -0.025621673 0.01858752
vn 0.99910384 -0.038474023 0.017639756
vn 0.99927396 -0.0349683 0.015126578
vn 0.9996743 -0.021906987 0.013092558
vn 0.9995784 -0.025025016 0.014723956
vn 0.99965 -0.02062575 0.016567413
vn 0.99975425 -0.016223276 0.015109415
vn 0.99987483 -0.01131623 0.011058376
vn 0.99992645 -0.005469897 0.010823259
vn 0.99997556 -0.005116125 0.0047809375
vn 0.99998784 0.0006168863 0.0049058436
vn 0.99997914 0.0037875143 0.005245666
g Plane001_0
f 3/3/3 2/2/2 1/1/1
f 4/4/4 3/3/3 1/1/1
f 4/4/4 1/1/1 5/5/5
f 6/6/6 3/3/3 4/4/4
f 7/7/7 4/4/4 5/5/5
f 7/7/7 5/5/5 8/8/8
f 9/9/9 6/6/6 4/4/4
f 9/9/9 4/4/4 7/7/7
f 10/10/10 6/6/6 9/9/9
f 11/11/11 7/7/7 8/8/8
f 12/12/12 11/11/11 8/8/8
f 13/13/13 9/9/9 7/7/7
f 13/13/13 7/7/7 11/11/11
f 14/14/14 10/10/10 9/9/9
f 14/14/14 9/9/9 13/13/13
f 15/15/15 10/10/10 14/14/14
f 16/16/16 13/13/13 11/11/11
f 12/12/12 16/16/16 11/11/11
f 17/17/17 14/14/14 13/13/13
f 17/17/17 13/13/13 16/16/16
f 18/18/18 15/15/15 14/14/14
f 18/18/18 14/14/14 17/17/17
f 19/19/19 15/15/15 18/18/18
f 20/20/20 17/17/17 16/16/16
f 12/12/12 20/20/20 16/16/16
f 21/21/21 18/18/18 17/17/17
f 21/21/21 17/17/17 20/20/20
f 22/22/22 19/19/19 18/18/18
f 22/22/22 18/18/18 21/21/21
f 23/23/23 19/19/19 22/22/22
f 24/24/24 21/21/21 20/20/20
f 25/25/25 24/24/24 20/20/20
f 26/26/26 22/22/22 21/21/21
f 26/26/26 21/21/21 24/24/24
f 27/27/27 23/23/23 22/22/22
f 27/27/27 22/22/22 26/26/26
f 28/28/28 23/23/23 27/27/27
f 25/25/25 29/29/29 24/24/24
f 29/29/29 26/26/26 24/24/24
f 30/30/30 27/27/27 26/26/26
f 30/30/30 26/26/26 29/29/29
f 31/31/31 28/28/28 27/27/27
f 31/31/31 27/27/27 30/30/30
f 32/32/32 28/28/28 31/31/31
f 25/25/25 33/33/33 29/29/29
f 33/33/33 30/30/30 29/29/29
f 25/25/25 34/34/34 33/33/33
f 35/35/35 30/30/30 33/33/33
f 35/35/35 31/31/31 30/30/30
f 34/34/34 35/35/35 33/33/33
f 36/36/36 32/32/32 31/31/31
f 36/36/36 31/31/31 35/35/35
f 37/37/37 32/32/32 36/36/36
f 38/38/38 35/35/35 34/34/34
f 38/38/38 36/36/36 35/35/35
f 39/39/39 37/37/37 36/36/36
f 39/39/39 36/36/36 38/38/38
f 40/40/40 37/37/37 39/39/39
f 41/41/41 38/38/38 34/34/34
f 12/12/12 41/41/41 34/34/34
f 42/42/42 39/39/39 38/38/38
f 42/42/42 38/38/38 41/41/41
f 43/43/43 40/40/40 39/39/39
f 43/43/43 39/39/39 42/42/42
f 44/44/44 40/40/40 43/43/43
f 45/45/45 42/42/42 41/41/41
f 12/12/12 45/45/45 41/41/41
f 46/46/46 43/43/43 42/42/42
f 46/46/46 42/42/42 45/45/45
f 47/47/47 44/44/44 43/43/43
f 47/47/47 43/43/43 46/46/46
f 48/48/48 44/44/44 47/47/47
f 49/49/49 46/46/46 45/45/45
f 50/50/50 49/49/49 45/45/45
f 51/51/51 47/47/47 46/46/46
f 51/51/51 46/46/46 49/49/49
f 52/52/52 48/48/48 47/47/47
f 52/52/52 47/47/47 51/51/51
f 53/53/53 48/48/48 52/52/52
f 50/50/50 54/54/54 49/49/49
f 54/54/54 51/51/51 49/49/49
f 55/55/55 52/52/52 51/51/51
f 55/55/55 51/51/51 54/54/54
f 56/56/56 53/53/53 52/52/52
f 56/56/56 52/52/52 55/55/55
f 57/57/57 53/53/53 56/56/56
f 50/50/50 58/58/58 54/54/54
f 58/58/58 55/55/55 54/54/54
f 50/50/50 59/59/59 58/58/58
f 60/60/60 55/55/55 58/58/58
f 60/60/60 56/56/56 55/55/55
f 59/59/59 60/60/60 58/58/58
f 61/61/61 57/57/57 56/56/56
f 61/61/61 56/56/56 60/60/60
f 62/62/62 57/57/57 61/61/61
f 63/63/63 60/60/60 59/59/59
f 63/63/63 61/61/61 60/60/60
f 64/64/64 62/62/62 61/61/61
f 64/64/64 61/61/61 63/63/63
f 65/65/65 62/62/62 64/64/64
f 66/66/66 65/65/65 64/64/64
f 66/66/66 64/64/64 67/67/67
f 67/67/67 64/64/64 63/63/63
f 68/68/68 66/66/66 67/67/67
f 69/69/69 63/63/63 59/59/59
f 67/67/67 63/63/63 69/69/69
f 12/12/12 69/69/69 59/59/59
f 68/68/68 67/67/67 70/70/70
f 70/70/70 67/67/67 69/69/69
f 12/12/12 70/70/70 69/69/69
f 71/71/71 68/68/68 70/70/70
f 12/12/12 71/71/71 70/70/70
f 74/74/74 73/73/73 72/72/72
f 75/75/75 74/74/74 72/72/72
f 75/75/75 72/72/72 76/76/76
f 77/77/77 74/74/74 75/75/75
f 78/78/78 75/75/75 76/76/76
f 78/78/78 76/76/76 79/79/79
f 80/80/80 77/77/77 75/75/75
f 80/80/80 75/75/75 78/78/78
f 81/81/81 77/77/77 80/80/80
f 82/82/82 78/78/78 79/79/79
f 83/83/83 82/82/82 79/79/79
f 84/84/84 80/80/80 78/78/78
f 84/84/84 78/78/78 82/82/82
f 85/85/85 81/81/81 80/80/80
f 85/85/85 80/80/80 84/84/84
f 86/86/86 81/81/81 85/85/85
f 87/87/87 84/84/84 82/82/82
f 83/83/83 87/87/87 82/82/82
f 88/88/88 85/85/85 84/84/84
f 88/88/88 84/84/84 87/87/87
f 89/89/89 86/86/86 85/85/85
f 89/89/89 85/85/85 88/88/88
f 90/90/90 86/86/86 89/89/89
f 91/91/91 88/88/88 87/87/87
f 83/83/83 91/91/91 87/87/87
f 92/92/92 89/89/89 88/88/88
f 92/92/92 88/88/88 91/91/91
f 93/93/93 90/90/90 89/89/89
f 93/93/93 89/89/89 92/92/92
f 94/94/94 90/90/90 93/93/93
f 95/95/95 92/92/92 91/91/91
f 96/96/96 95/95/95 91/91/91
f 97/97/97 93/93/93 92/92/92
f 97/97/97 92/92/92 95/95/95
f 98/98/98 94/94/94 93/93/93
f 98/98/98 93/93/93 97/97/97
f 99/99/99 94/94/94 98/98/98
f 96/96/96 100/100/100 95/95/95
f 100/100/100 97/97/97 95/95/95
f 101/101/101 98/98/98 97/97/97
f 101/101/101 97/97/97 100/100/100
f 102/102/102 99/99/99 98/98/98
f 102/102/102 98/98/98 101/101/101
f 103/103/103 99/99/99 102/102/102
f 96/96/96 104/104/104 100/100/100
f 104/104/104 101/101/101 100/100/100
f 96/96/96 105/105/105 104/104/104
f 106/106/106 101/101/101 104/104/104
f 106/106/106 102/102/102 101/101/101
f 105/105/105 106/106/106 104/104/104
f 107/107/107 103/103/103 102/102/102
f 107/107/107 102/102/102 106/106/106
f 108/108/108 103/103/103 107/107/107
f 109/109/109 106/106/106 105/105/105
f 109/109/109 107/107/107 106/106/106
f 110/110/110 108/108/108 107/107/107
f 110/110/110 107/107/107 109/109/109
f 111/111/111 108/108/108 110/110/110
f 112/112/112 109/109/109 105/105/105
f 83/83/83 112/112/112 105/105/105
f 113/113/113 110/110/110 109/109/109
f 113/113/113 109/109/109 112/112/112
f 114/114/114 111/111/111 110/110/110
f 114/114/114 110/110/110 113/113/113
f 115/115/115 111/111/111 114/114/114
f 116/116/116 113/113/113 112/112/112
f 83/83/83 116/116/116 112/112/112
f 117/117/117 114/114/114 113/113/113
f 117/117/117 113/113/113 116/116/116
f 118/118/118 115/115/115 114/114/114
f 118/118/118 114/114/114 117/117/117
f 119/119/119 115/115/115 118/118/118
f 120/120/120 117/117/117 116/116/116
f 121/121/121 120/120/120 116/116/116
f 122/122/122 118/118/118 117/117/117
f 122/122/122 117/117/117 120/120/120
f 123/123/123 119/119/119 118/118/118
f 123/123/123 118/118/118 122/122/122
f 124/124/124 119/119/119 123/123/123
f 121/121/121 125/125/125 120/120/120
f 125/125/125 122/122/122 120/120/120
f 126/126/126 123/123/123 122/122/122
f 126/126/126 122/122/122 125/125/125
f 127/127/127 124/124/124 123/123/123
f 127/127/127 123/123/123 126/126/126
f 128/128/128 124/124/124 127/127/127
f 121/121/121 129/129/129 125/125/125
f 129/129/129 126/126/126 125/125/125
f 121/121/121 130/130/130 129/129/129
f 131/131/131 126/126/126 129/129/129
f 131/131/131 127/127/127 126/126/126
f 130/130/130 131/131/131 129/129/129
f 132/132/132 128/128/128 127/127/127
f 132/132/132 127/127/127 131/131/131
f 133/133/133 128/128/128 132/132/132
f 134/134/134 131/131/131 130/130/130
f 134/134/134 132/132/132 131/131/131
f 135/135/135 133/133/133 132/132/132
f 135/135/135 132/132/132 134/134/134
f 136/136/136 133/133/133 135/135/135
f 137/137/137 136/136/136 135/135/135
f 137/137/137 135/135/135 138/138/138
f 138/138/138 135/135/135 134/134/134
f 139/139/139 137/137/137 138/138/138
f 140/140/140 134/134/134 130/130/130
f 138/138/138 134/134/134 140/140/140
f 83/83/83 140/140/140 130/130/130
f 139/139/139 138/138/138 141/141/141
f 141/141/141 138/138/138 140/140/140
f 83/83/83 141/141/141 140/140/140
f 142/142/142 139/139/139 141/141/141
f 83/83/83 142/142/142 141/141/141
