g Pyramid001
v -1.8417345E-09 4.628933E-09 0.011212341
v -0.0077816984 0.007857128 5.2600204E-05
v 0.0077816984 0.007857126 5.2600204E-05
v -1.8417345E-09 4.628933E-09 0.011212341
v -0.007781702 -0.007857126 5.2602587E-05
v -0.0077816984 0.007857128 5.2600204E-05
v -1.8417345E-09 4.628933E-09 0.011212341
v 0.007781695 -0.007857128 5.2602587E-05
v -0.007781702 -0.007857126 5.2602587E-05
v -1.8417345E-09 4.628933E-09 0.011212341
v 0.0077816984 0.007857126 5.2600204E-05
v 0.007781695 -0.007857128 5.2602587E-05
v 0.0077816984 0.007857126 5.2600204E-05
v -0.0077816984 0.007857128 5.2600204E-05
v -1.841735E-09 -1.7775775E-10 -0.010028824
v 0.007781695 -0.007857128 5.2602587E-05
v -0.007781702 -0.007857126 5.2602587E-05
vt 0.7781699 3.142044
vt 1.5563397 0
vt 0 0
vt 0.99840647 3.142044
vt 2.2170496 0
vt 0.22023669 0
vt 0.7781699 3.142044
vt 1.5563397 0
vt 0 0
vt 0.99840647 3.142044
vt 2.2170496 0
vt 0.22023669 0
vt 0 1.9968129
vt 1.5563397 1.9968129
vt 0.7781699 0.99840647
vt 0 0
vt 1.5563397 0
vn 1.1224302E-07 0.81766945 0.57568806
vn 1.1224302E-07 0.81766945 0.57568806
vn 1.1224302E-07 0.81766945 0.57568806
vn -0.8202706 2.787978E-07 0.57197565
vn -0.8202706 2.7879784E-07 0.5719756
vn -0.82027066 2.787978E-07 0.5719756
vn -1.12242994E-07 -0.81766903 0.5756886
vn -1.12242994E-07 -0.81766903 0.57568854
vn -1.1224298E-07 -0.81766903 0.57568854
vn 0.8202706 0 0.57197565
vn 0.8202706 0 0.5719756
vn 0.8202706 0 0.5719756
vn 0.47586834 0.4769005 -0.738996
vn -0.47586825 0.4769007 -0.73899597
vn -0 0 -1
vn 0.47586817 -0.47690096 -0.7389959
vn -0.47586834 -0.47690073 -0.73899597
g Pyramid001_0
f 3/3/3 2/2/2 1/1/1
f 6/6/6 5/5/5 4/4/4
f 9/9/9 8/8/8 7/7/7
f 12/12/12 11/11/11 10/10/10
f 15/15/15 14/14/14 13/13/13
f 15/15/15 13/13/13 16/16/16
f 15/15/15 17/17/17 14/14/14
f 15/15/15 16/16/16 17/17/17
