g 对象001
v -0.032098 -0.36645597 -0.02522
v -0.032098 -0.20616 -0.02522
v -0.032098 -0.20617001 -0.001412
v -0.032098 -0.371483 -0.0014129999
v 0.022277998 -0.36548197 0.008932
v -0.022270998 -0.369205 0.022818
v 0.022270998 -0.369205 0.022818
v -0.022277998 -0.36548197 0.008932
v 0.017902 -0.363339 0.00094899995
v -0.017902 -0.363339 0.00094899995
v 0.017893 -0.357175 -0.022674998
v -0.017893 -0.357175 -0.022674998
v 0.025396999 -0.35533 -0.028942
v -0.025396999 -0.35533 -0.028942
v 0.025402 -0.351674 -0.042578
v -0.025402 -0.351674 -0.042578
v 0.032098 -0.36645597 -0.02522
v 0.032098 -0.371483 -0.0014129999
v 0.032098 -0.20617001 -0.001412
v 0.032098 -0.20616 -0.02522
vt 0.9167 0.8453
vt 0.7581 0.8453
vt 0.7581 0.8633
vt 0.9217 0.8631
vt 0.4204 0.1816
vt 0.3804 0.1945
vt 0.4204 0.1945
vt 0.3804 0.1816
vt 0.4165 0.1741
vt 0.3843 0.1741
vt 0.4165 0.1522
vt 0.3843 0.1522
vt 0.4232 0.1463
vt 0.3776 0.1463
vt 0.4232 0.1336
vt 0.3776 0.1336
vt 0.9167 0.8453
vt 0.9217 0.8631
vt 0.7581 0.8633
vt 0.7581 0.8453
vn -1 0 0
vn -1 0 0
vn -1 0 0
vn -1 0 0
vn -0 -0.9658535 -0.25908867
vn -0 -0.965886 -0.2589675
vn -0 -0.965886 -0.2589675
vn -0 -0.9658535 -0.25908867
vn -0 -0.96659076 -0.2563246
vn -0 -0.96659076 -0.2563246
vn -0 -0.9626719 -0.2706713
vn -0 -0.9626719 -0.2706713
vn -0 -0.96388286 -0.2663263
vn -0 -0.96388286 -0.2663263
vn -0 -0.965886 -0.2589678
vn -0 -0.965886 -0.2589678
vn 1 0 0
vn 1 0 0
vn 1 0 0
vn 1 0 0
g 对象001_0
f 3/3/3 2/2/2 1/1/1
f 4/4/4 3/3/3 1/1/1
f 7/7/7 6/6/6 5/5/5
f 6/6/6 8/8/8 5/5/5
f 5/5/5 8/8/8 9/9/9
f 8/8/8 10/10/10 9/9/9
f 9/9/9 10/10/10 11/11/11
f 10/10/10 12/12/12 11/11/11
f 11/11/11 12/12/12 13/13/13
f 12/12/12 14/14/14 13/13/13
f 13/13/13 14/14/14 15/15/15
f 14/14/14 16/16/16 15/15/15
f 19/19/19 18/18/18 17/17/17
f 20/20/20 19/19/19 17/17/17
