g MainCity_Prop_Computer_13
v 0.24134827 0.07346878 -0.16868891
v 0.24134827 0.07346878 0.15701279
v -0.24134856 0.07500976 0.15701279
v -0.24134856 0.075010374 -0.16868891
v 0.24134827 6.2561034E-05 -0.16868891
v 0.24134827 4.1503907E-05 0.15701279
v 0.24134827 0.07346878 0.15701279
v 0.24134827 0.07346878 -0.16868891
v 0.24134827 0.07346878 0.15701279
v 0.24134827 4.1503907E-05 0.15701279
v -0.24134856 0 0.15701279
v -0.24134856 0.07500976 0.15701279
v 0.24134827 4.1503907E-05 0.15701279
v 0.24134827 6.2561034E-05 -0.16868891
v -0.24134856 3.0517577E-07 -0.16868891
v -0.24134856 0 0.15701279
v 0.24134827 0.07346878 -0.16868891
v -0.24134856 0.075010374 -0.16868891
v -0.24134856 3.0517577E-07 -0.16868891
v 0.24134827 6.2561034E-05 -0.16868891
v -0.24134856 0.07500976 0.15701279
v -0.24134856 0 0.15701279
v -0.24134856 3.0517577E-07 -0.16868891
v -0.24134856 0.075010374 -0.16868891
vt 0.9941406 0.31591797
vt 0.9941406 0.19677734
vt 0.8173828 0.19677734
vt 0.8173828 0.31591797
vt 0.74365234 0.12237549
vt 0.74365234 0.0032958984
vt 0.71728516 0.0032958984
vt 0.71728516 0.12237549
vt 0.9941406 0.35009766
vt 0.9941406 0.32299805
vt 0.8173828 0.32299805
vt 0.8173828 0.35009766
vt 0.9941406 0.19677734
vt 0.9941406 0.31591797
vt 0.8173828 0.31591797
vt 0.8173828 0.19677734
vt 0.8173828 0.3852539
vt 0.9941406 0.3852539
vt 0.9941406 0.3581543
vt 0.8173828 0.3581543
vt 0.70996094 0.0032958984
vt 0.6821289 0.0032958984
vt 0.6821289 0.12237549
vt 0.70996094 0.12237549
vn 0.0031929016 1 9.536743E-07
vn 0.0031929016 1 9.536743E-07
vn 0.0031929016 1 9.536743E-07
vn 0.0031929016 1 9.536743E-07
vn 1 0 0
vn 1 0 0
vn 1 0 0
vn 1 0 0
vn -0 0 1
vn -0 0 1
vn -0 0 1
vn -0 0 1
vn 0.000107467175 -1 -3.2782555E-05
vn 0.000107467175 -1 -3.2782555E-05
vn 0.000107467175 -1 -3.2782555E-05
vn 0.000107467175 -1 -3.2782555E-05
vn -0 0 -1
vn -0 0 -1
vn -0 0 -1
vn -0 0 -1
vn -1 0 0
vn -1 0 0
vn -1 0 0
vn -1 0 0
g MainCity_Prop_Computer_13_0
f 3/3/3 2/2/2 1/1/1
f 4/4/4 3/3/3 1/1/1
f 7/7/7 6/6/6 5/5/5
f 8/8/8 7/7/7 5/5/5
f 11/11/11 10/10/10 9/9/9
f 12/12/12 11/11/11 9/9/9
f 15/15/15 14/14/14 13/13/13
f 16/16/16 15/15/15 13/13/13
f 19/19/19 18/18/18 17/17/17
f 20/20/20 19/19/19 17/17/17
f 23/23/23 22/22/22 21/21/21
f 24/24/24 23/23/23 21/21/21
