g MainCity_Prop_Computer_09
v -0.23618957 0.14345253 -0.18494225
v 0.23618957 0.14345253 -0.18494225
v 0.23618957 0.14345253 -0.024950942
v -0.23618957 0.14345253 -0.024951018
v 0.23618957 0.032659836 0.05899254
v 0.23618957 0.14345253 -0.024950942
v 0.23618957 0.14345253 -0.18494225
v 0.23618957 0 -0.18494225
v 0.23618957 0 0.18494225
v 0.23618957 0.010010052 0.18494225
v -0.23618957 0.010010052 0.18494217
v 0.23618957 0.010010052 0.18494225
v 0.23618957 0 0.18494225
v -0.23618957 0 0.18494217
v -0.23618957 0 0.18494217
v 0.23618957 0 0.18494225
v 0.23618957 0 -0.18494225
v -0.23618957 0 -0.18494225
v -0.23618957 0 -0.18494225
v 0.23618957 0 -0.18494225
v 0.23618957 0.14345253 -0.18494225
v -0.23618957 0.14345253 -0.18494225
v -0.23618957 0 -0.18494225
v -0.23618957 0.010010052 0.18494217
v -0.23618957 0 0.18494217
v -0.23618957 0.032659836 0.05899246
v -0.23618957 0.14345253 -0.18494225
v -0.23618957 0.14345253 -0.024951018
v -0.23618957 0.032659836 0.05899246
v 0.23618957 0.032659836 0.05899254
v 0.23618957 0.010010052 0.18494225
v -0.23618957 0.010010052 0.18494217
v -0.16606249 0.124521755 -0.010607917
v -0.024631977 0.12452174 -0.010607835
v -0.024631977 0.044585858 0.049956672
v -0.16606249 0.044585865 0.049956594
v -0.23618957 0.14345253 -0.024951018
v -0.16606249 0.044585865 0.049956594
v -0.23618957 0.032659836 0.05899246
v 0.23618957 0.032659836 0.05899254
v -0.16606249 0.124521755 -0.010607917
v -0.024631977 0.044585858 0.049956672
v 0.23618957 0.14345253 -0.024950942
v -0.024631977 0.12452174 -0.010607835
vt 0.4921875 0.8208008
vt 0.67578125 0.8208008
vt 0.67578125 0.76220703
vt 0.4921875 0.76220703
vt 0.44677734 0.9199219
vt 0.47924805 0.9628906
vt 0.5415039 0.9628906
vt 0.5415039 0.90722656
vt 0.39770508 0.90722656
vt 0.39770508 0.9111328
vt 0.4921875 0.6464844
vt 0.67578125 0.6464844
vt 0.67578125 0.6425781
vt 0.4921875 0.6425781
vt 0.52490234 0.7451172
vt 0.5683594 0.7451172
vt 0.5683594 0.71484375
vt 0.52490234 0.71484375
vt 0.4921875 0.828125
vt 0.67578125 0.828125
vt 0.67578125 0.88427734
vt 0.4921875 0.88427734
vt 0.5415039 0.90722656
vt 0.39770508 0.9111328
vt 0.39770508 0.90722656
vt 0.44677734 0.9199219
vt 0.5415039 0.9628906
vt 0.47924805 0.9628906
vt 0.4921875 0.7001953
vt 0.67578125 0.7001953
vt 0.67578125 0.6503906
vt 0.4921875 0.6503906
vt 0 1
vt 1 1
vt 1 0
vt 0 0
vt 0.4921875 0.7583008
vt 0.51953125 0.70996094
vt 0.4921875 0.70410156
vt 0.67578125 0.70410156
vt 0.51953125 0.74902344
vt 0.57421875 0.70996094
vt 0.67578125 0.7583008
vt 0.57421875 0.74902344
vn -0 1 0
vn -0 1 0
vn -0 1 0
vn -0 1 0
vn 1 -1.1920929E-07 0
vn 1 1.1920929E-07 0
vn 1 1.1920929E-07 0
vn 1 1.1920929E-07 0
vn 1 -4.7683716E-07 0
vn 1 -4.7683716E-07 0
vn -1.7881393E-07 0 1
vn -1.7881393E-07 0 1
vn -1.7881393E-07 0 1
vn -1.7881393E-07 0 1
vn -0 -1 0
vn -0 -1 0
vn -0 -1 0
vn -0 -1 0
vn -0 0 -1
vn -0 0 -1
vn -0 0 -1
vn -0 0 -1
vn -1 0 0
vn -1 -8.940697E-07 0
vn -1 -8.940697E-07 0
vn -1 -2.9802322E-07 0
vn -1 1.1920929E-07 0
vn -1 1.1920929E-07 0
vn -0 0.984375 0.17700195
vn -0 0.984375 0.17700195
vn -0 0.984375 0.17700195
vn -0 0.984375 0.17700195
vn -2.3841858E-07 0.6040039 0.796875
vn -1.1920929E-07 0.6040039 0.796875
vn -1.1920929E-07 0.6040039 0.796875
vn -2.3841858E-07 0.6040039 0.796875
vn -0 0.6040039 0.796875
vn -2.3841858E-07 0.6040039 0.796875
vn -0 0.6040039 0.796875
vn -0 0.6040039 0.796875
vn -2.3841858E-07 0.6040039 0.796875
vn -1.1920929E-07 0.6040039 0.796875
vn -0 0.6040039 0.796875
vn -1.1920929E-07 0.6040039 0.796875
g MainCity_Prop_Computer_09_0
f 3/3/3 2/2/2 1/1/1
f 4/4/4 3/3/3 1/1/1
f 7/7/7 6/6/6 5/5/5
f 8/8/8 7/7/7 5/5/5
f 8/8/8 5/5/5 9/9/9
f 5/5/5 10/10/10 9/9/9
f 13/13/13 12/12/12 11/11/11
f 14/14/14 13/13/13 11/11/11
f 17/17/17 16/16/16 15/15/15
f 18/18/18 17/17/17 15/15/15
f 21/21/21 20/20/20 19/19/19
f 22/22/22 21/21/21 19/19/19
f 25/25/25 24/24/24 23/23/23
f 24/24/24 26/26/26 23/23/23
f 23/23/23 26/26/26 27/27/27
f 26/26/26 28/28/28 27/27/27
f 31/31/31 30/30/30 29/29/29
f 32/32/32 31/31/31 29/29/29
f 35/35/35 34/34/34 33/33/33
f 36/36/36 35/35/35 33/33/33
f 39/39/39 38/38/38 37/37/37
f 39/39/39 40/40/40 38/38/38
f 38/38/38 41/41/41 37/37/37
f 40/40/40 42/42/42 38/38/38
f 37/37/37 41/41/41 43/43/43
f 44/44/44 42/42/42 40/40/40
f 41/41/41 44/44/44 43/43/43
f 43/43/43 44/44/44 40/40/40
