g MainCity_Prop_Computer_11
v 0.14656982 0.28122768 -0.14085694
v 0.14656982 0.28122768 0.13401857
v -0.14656952 0.28122768 0.13401866
v -0.14656982 0.28122768 -0.14085685
v 0.14656982 -2.9802322E-10 -0.14085694
v 0.14656982 -2.9802322E-10 0.13401857
v 0.14656982 0.28122768 0.13401857
v 0.14656982 0.28122768 -0.14085694
v 0.13430908 0.2691501 0.16043182
v 0.13430908 0.012077583 0.16043182
v -0.1343097 0.012077583 0.16043194
v -0.1343097 0.2691501 0.16043194
v 0.14656982 -2.9802322E-10 0.13401857
v 0.14656982 -2.9802322E-10 -0.14085694
v -0.14656982 -2.9802322E-10 -0.14085685
v -0.14656952 -2.9802322E-10 0.13401866
v 0.13430908 0.2691501 -0.16727024
v -0.13430938 0.2691501 -0.16727011
v -0.13430908 0.012077583 -0.16727011
v 0.13430908 0.012077583 -0.16727021
v -0.14656952 0.28122768 0.13401866
v -0.14656952 -2.9802322E-10 0.13401866
v -0.14656982 -2.9802322E-10 -0.14085685
v -0.14656982 0.28122768 -0.14085685
v 0.14656982 0.28122768 0.13401857
v 0.13430908 0.2691501 0.16043182
v -0.1343097 0.2691501 0.16043194
v -0.14656952 0.28122768 0.13401866
v -0.14656952 0.28122768 0.13401866
v -0.1343097 0.2691501 0.16043194
v -0.1343097 0.012077583 0.16043194
v -0.14656952 -2.9802322E-10 0.13401866
v -0.14656952 -2.9802322E-10 0.13401866
v -0.1343097 0.012077583 0.16043194
v 0.13430908 0.012077583 0.16043182
v 0.14656982 -2.9802322E-10 0.13401857
v 0.14656982 -2.9802322E-10 0.13401857
v 0.13430908 0.012077583 0.16043182
v 0.13430908 0.2691501 0.16043182
v 0.14656982 0.28122768 0.13401857
v 0.14656982 0.28122768 -0.14085694
v 0.13430908 0.2691501 -0.16727024
v 0.13430908 0.012077583 -0.16727021
v 0.14656982 -2.9802322E-10 -0.14085694
v 0.14656982 -2.9802322E-10 -0.14085694
v 0.13430908 0.012077583 -0.16727021
v -0.13430908 0.012077583 -0.16727011
v -0.14656982 -2.9802322E-10 -0.14085685
v -0.14656982 -2.9802322E-10 -0.14085685
v -0.13430908 0.012077583 -0.16727011
v -0.13430938 0.2691501 -0.16727011
v -0.14656982 0.28122768 -0.14085685
v -0.14656982 0.28122768 -0.14085685
v -0.13430938 0.2691501 -0.16727011
v 0.13430908 0.2691501 -0.16727024
v 0.14656982 0.28122768 -0.14085694
vt 0.8144531 0.49560547
vt 0.8144531 0.39526367
vt 0.70751953 0.39526367
vt 0.70751953 0.49560547
vt 0.7104492 0.390625
vt 0.7104492 0.29003906
vt 0.8125 0.29003906
vt 0.8125 0.390625
vt 0.7988281 0.7441406
vt 0.7988281 0.6503906
vt 0.7001953 0.6503906
vt 0.7001953 0.7441406
vt 0.8144531 0.39526367
vt 0.8144531 0.49560547
vt 0.70751953 0.49560547
vt 0.70751953 0.39526367
vt 0.70214844 0.61083984
vt 0.80078125 0.61083984
vt 0.80078125 0.51708984
vt 0.70214844 0.51708984
vt 0.8125 0.29003906
vt 0.7104492 0.29003906
vt 0.7104492 0.390625
vt 0.8125 0.390625
vt 0.8022461 0.7602539
vt 0.79785156 0.7495117
vt 0.7011719 0.7495117
vt 0.69677734 0.7602539
vt 0.68359375 0.74853516
vt 0.69384766 0.7441406
vt 0.69384766 0.6503906
vt 0.68359375 0.6459961
vt 0.6958008 0.6328125
vt 0.7001953 0.6435547
vt 0.79833984 0.6435547
vt 0.80322266 0.6328125
vt 0.8173828 0.6459961
vt 0.8066406 0.6503906
vt 0.8066406 0.7441406
vt 0.8173828 0.74853516
vt 0.6850586 0.61572266
vt 0.6958008 0.61083984
vt 0.6958008 0.51660156
vt 0.6850586 0.51220703
vt 0.6977539 0.50146484
vt 0.70214844 0.51171875
vt 0.80029297 0.51171875
vt 0.8046875 0.50146484
vt 0.8178711 0.51220703
vt 0.8071289 0.51660156
vt 0.8071289 0.61083984
vt 0.8178711 0.61572266
vt 0.8046875 0.6274414
vt 0.80029297 0.6166992
vt 0.70214844 0.6166992
vt 0.6977539 0.6274414
vn -0 1 0
vn -0 1 0
vn -0 1 0
vn -0 1 0
vn 1 0 0
vn 1 0 0
vn 1 0 0
vn 1 0 0
vn 4.172325E-07 0 1
vn 4.172325E-07 0 1
vn 4.172325E-07 0 1
vn 4.172325E-07 0 1
vn -0 -1 0
vn -0 -1 0
vn -0 -1 0
vn -0 -1 0
vn -4.7683716E-07 0 -1
vn -4.7683716E-07 0 -1
vn -4.7683716E-07 0 -1
vn -4.7683716E-07 0 -1
vn -1 0 1.1324883E-06
vn -1 0 1.1324883E-06
vn -1 0 1.1324883E-06
vn -1 0 1.1324883E-06
vn 1.7881393E-07 0.90966797 0.41577148
vn 1.7881393E-07 0.90966797 0.41577148
vn 1.7881393E-07 0.90966797 0.41577148
vn 1.7881393E-07 0.90966797 0.41577148
vn -0.90722656 0 0.42089844
vn -0.90722656 0 0.42089844
vn -0.90722656 0 0.42089844
vn -0.90722656 0 0.42089844
vn 1.1920929E-07 -0.90966797 0.41577148
vn 1.1920929E-07 -0.90966797 0.41577148
vn 1.1920929E-07 -0.90966797 0.41577148
vn 1.1920929E-07 -0.90966797 0.41577148
vn 0.90722656 0 0.42114258
vn 0.90722656 0 0.42114258
vn 0.90722656 0 0.42114258
vn 0.90722656 0 0.42114258
vn 0.90722656 0 -0.42114258
vn 0.90722656 0 -0.42114258
vn 0.90722656 0 -0.42114258
vn 0.90722656 0 -0.42114258
vn -1.7881393E-07 -0.90966797 -0.41577148
vn -1.7881393E-07 -0.90966797 -0.41577148
vn -1.7881393E-07 -0.90966797 -0.41577148
vn -1.7881393E-07 -0.90966797 -0.41577148
vn -0.90722656 -5.364418E-07 -0.42114258
vn -0.90722656 -5.364418E-07 -0.42114258
vn -0.90722656 -5.364418E-07 -0.42114258
vn -0.90722656 -5.364418E-07 -0.42114258
vn -1.7881393E-07 0.90966797 -0.41577148
vn -1.7881393E-07 0.90966797 -0.41577148
vn -1.7881393E-07 0.90966797 -0.41577148
vn -1.7881393E-07 0.90966797 -0.41577148
g MainCity_Prop_Computer_11_0
f 3/3/3 2/2/2 1/1/1
f 4/4/4 3/3/3 1/1/1
f 7/7/7 6/6/6 5/5/5
f 8/8/8 7/7/7 5/5/5
f 11/11/11 10/10/10 9/9/9
f 12/12/12 11/11/11 9/9/9
f 15/15/15 14/14/14 13/13/13
f 16/16/16 15/15/15 13/13/13
f 19/19/19 18/18/18 17/17/17
f 20/20/20 19/19/19 17/17/17
f 23/23/23 22/22/22 21/21/21
f 24/24/24 23/23/23 21/21/21
f 27/27/27 26/26/26 25/25/25
f 28/28/28 27/27/27 25/25/25
f 31/31/31 30/30/30 29/29/29
f 32/32/32 31/31/31 29/29/29
f 35/35/35 34/34/34 33/33/33
f 36/36/36 35/35/35 33/33/33
f 39/39/39 38/38/38 37/37/37
f 40/40/40 39/39/39 37/37/37
f 43/43/43 42/42/42 41/41/41
f 44/44/44 43/43/43 41/41/41
f 47/47/47 46/46/46 45/45/45
f 48/48/48 47/47/47 45/45/45
f 51/51/51 50/50/50 49/49/49
f 52/52/52 51/51/51 49/49/49
f 55/55/55 54/54/54 53/53/53
f 56/56/56 55/55/55 53/53/53
