g Eff_DeathXIII_Head_Ring
v 0.5007425 -4.3761855E-11 7.129711E-18
v 0.42722613 0.06554683 -0.012449026
v 0.4323848 -2.065826E-09 -0.012449015
v 0.49474227 0.07624043 -1.24211335E-08
v 0.4323848 1.9905784E-09 0.012449015
v 0.41187721 0.12947968 -0.012449036
v 0.42722613 0.06554683 0.012449005
v 0.4323848 -2.065826E-09 -0.012449015
v 0.42722613 0.06554683 -0.012449026
v 0.47688928 0.15060338 -2.4536398E-08
v 0.38671595 0.19022432 -0.012449046
v 0.41187721 0.12947968 0.0124489935
v 0.41187721 0.12947968 -0.012449036
v 0.44762313 0.22125809 -3.604751E-08
v 0.3523619 0.24628499 -0.012449056
v 0.38671595 0.19022432 0.012448984
v 0.38671595 0.19022432 -0.012449046
v 0.40766448 0.28646466 -4.667102E-08
v 0.30966103 0.2962813 -0.012449062
v 0.3523619 0.24628499 0.012448975
v 0.3523619 0.24628499 -0.012449056
v 0.35799724 0.34461755 -5.6145325E-08
v 0.2596647 0.33898222 -0.01244907
v 0.30966103 0.2962813 0.012448967
v 0.30966103 0.2962813 -0.012449062
v 0.29984438 0.3942848 -6.423714E-08
v 0.20360403 0.37333626 -0.0124490755
v 0.2596647 0.33898222 0.01244896
v 0.2596647 0.33898222 -0.01244907
v 0.23463778 0.4342434 -7.074723E-08
v 0.14285938 0.3984975 -0.012449079
v 0.20360403 0.37333626 0.012448954
v 0.20360403 0.37333626 -0.0124490755
v 0.16398309 0.4635096 -7.551529E-08
v 0.07892654 0.41384637 -0.012449083
v 0.14285938 0.3984975 0.012448951
v 0.14285938 0.3984975 -0.012449079
v 0.089620054 0.48136255 -7.842391E-08
v 0.013379707 0.41900504 -0.012449083
v 0.07892654 0.41384643 0.012448947
v 0.07892654 0.41384637 -0.012449083
v 0.013379707 0.4873628 -7.940149E-08
v -0.05216713 0.41384637 -0.012449083
v 0.013379707 0.41900504 0.012448947
v 0.013379707 0.41900504 -0.012449083
v -0.06286064 0.48136255 -7.842391E-08
v -0.116100006 0.3984975 -0.012449079
v -0.05216713 0.41384637 0.012448947
v -0.05216713 0.41384637 -0.012449083
v -0.1372237 0.46350956 -7.551528E-08
v -0.17684467 0.37333617 -0.0124490755
v -0.116100006 0.3984975 0.012448951
v -0.116100006 0.3984975 -0.012449079
v -0.20787849 0.43424338 -7.074722E-08
v -0.23290527 0.3389822 -0.01244907
v -0.17684467 0.37333617 0.012448954
v -0.17684467 0.37333617 -0.0124490755
v -0.27308494 0.39428478 -6.4237135E-08
v -0.28290161 0.29628128 -0.012449062
v -0.23290527 0.3389822 0.01244896
v -0.23290527 0.3389822 -0.01244907
v -0.33123785 0.34461755 -5.6145325E-08
v -0.32560247 0.24628498 -0.012449056
v -0.28290161 0.29628128 0.012448967
v -0.28290161 0.29628128 -0.012449062
v -0.38090506 0.28646466 -4.6671015E-08
v -0.3599565 0.19022427 -0.012449046
v -0.32560247 0.24628498 0.012448975
v -0.32560247 0.24628498 -0.012449056
v -0.42086372 0.22125804 -3.6047503E-08
v -0.3851178 0.12947957 -0.012449036
v -0.3599565 0.19022427 0.012448984
v -0.3599565 0.19022427 -0.012449046
v -0.45012993 0.15060326 -2.4536385E-08
v -0.40046668 0.065546796 -0.012449026
v -0.3851178 0.12947957 0.0124489935
v -0.3851178 0.12947957 -0.012449036
v -0.46798286 0.0762403 -1.2421113E-08
v -0.40562537 -3.8621163E-08 -0.012449015
v -0.40046668 0.065546796 0.012449005
v -0.40046668 0.065546796 -0.012449026
v -0.47398308 -4.256285E-08 6.9343686E-15
v -0.40046668 -0.06554702 -0.012449005
v -0.40562537 -3.456476E-08 0.012449015
v -0.40562537 -3.8621163E-08 -0.012449015
v -0.46798277 -0.076240554 1.24211725E-08
v -0.3851178 -0.12947972 -0.0124489935
v -0.40046668 -0.06554702 0.012449026
v -0.40046668 -0.06554702 -0.012449005
v -0.45012984 -0.15060343 2.4536416E-08
v -0.3599565 -0.19022436 -0.012448984
v -0.3851178 -0.12947972 0.012449036
v -0.3851178 -0.12947972 -0.0124489935
v -0.42086372 -0.22125812 3.604753E-08
v -0.32560247 -0.24628504 -0.012448975
v -0.3599565 -0.19022436 0.012449046
v -0.3599565 -0.19022436 -0.012448984
v -0.38090506 -0.2864647 4.6671033E-08
v -0.28290153 -0.29628134 -0.012448967
v -0.32560247 -0.24628504 0.012449056
v -0.32560247 -0.24628504 -0.012448975
v -0.3312378 -0.34461758 5.614534E-08
v -0.23290512 -0.3389823 -0.01244896
v -0.28290153 -0.29628134 0.012449062
v -0.28290153 -0.29628134 -0.012448967
v -0.2730848 -0.39428493 6.423718E-08
v -0.17684455 -0.37333626 -0.012448954
v -0.23290512 -0.3389823 0.01244907
v -0.23290512 -0.3389823 -0.01244896
v -0.20787834 -0.43424347 7.074724E-08
v -0.116099924 -0.3984975 -0.012448951
v -0.17684455 -0.37333626 0.0124490755
v -0.17684455 -0.37333626 -0.012448954
v -0.13722362 -0.4635096 7.551531E-08
v -0.05216705 -0.41384643 -0.012448947
v -0.116099924 -0.3984975 0.012449079
v -0.116099924 -0.3984975 -0.012448951
v -0.06286056 -0.48136255 7.842392E-08
v 0.013379783 -0.41900504 -0.012448947
v -0.05216705 -0.41384643 0.012449083
v -0.05216705 -0.41384643 -0.012448947
v 0.013379783 -0.4873628 7.940149E-08
v 0.07892677 -0.41384637 -0.012448947
v 0.013379783 -0.41900504 0.012449083
v 0.013379783 -0.41900504 -0.012448947
v 0.089620285 -0.48136252 7.8423916E-08
v 0.14285946 -0.39849746 -0.012448951
v 0.07892677 -0.41384637 0.012449083
v 0.07892677 -0.41384637 -0.012448947
v 0.16398317 -0.46350956 7.55153E-08
v 0.20360409 -0.37333623 -0.012448954
v 0.14285946 -0.39849746 0.012449079
v 0.14285946 -0.39849746 -0.012448951
v 0.23463787 -0.43424338 7.0747234E-08
v 0.25966474 -0.33898216 -0.01244896
v 0.20360409 -0.37333623 0.0124490755
v 0.20360409 -0.37333623 -0.012448954
v 0.29984444 -0.39428473 6.423715E-08
v 0.3096611 -0.29628128 -0.012448967
v 0.25966474 -0.33898216 0.01244907
v 0.25966474 -0.33898216 -0.01244896
v 0.35799733 -0.3446175 5.6145325E-08
v 0.35236207 -0.24628483 -0.012448975
v 0.3096611 -0.29628128 0.012449062
v 0.3096611 -0.29628128 -0.012448967
v 0.40766463 -0.28646445 4.6670994E-08
v 0.386716 -0.19022426 -0.012448984
v 0.35236207 -0.24628483 0.012449056
v 0.35236207 -0.24628483 -0.012448975
v 0.4476232 -0.221258 3.6047513E-08
v 0.41187721 -0.12947962 -0.0124489935
v 0.386716 -0.19022426 0.012449046
v 0.386716 -0.19022426 -0.012448984
v 0.47688928 -0.15060331 2.4536405E-08
v 0.42722613 -0.06554676 -0.012449005
v 0.41187724 -0.12947962 0.012449036
v 0.41187721 -0.12947962 -0.0124489935
v 0.49474227 -0.07624026 1.2421124E-08
v 0.4323848 7.1195345E-08 -0.012449015
v 0.5007425 8.5169454E-08 -1.3875866E-14
v 0.42722613 -0.06554676 0.012449026
v 0.42722613 -0.06554676 -0.012449005
v 0.4323848 7.525175E-08 0.012449015
v 0.4323848 7.1195345E-08 -0.012449015
vt 0.75 0
vt 1.0833334 0.025000006
vt 1.0833334 0
vt 0.75 0.025000006
vt 0.4166667 0
vt 1.0833334 0.050000012
vt 0.4166667 0.025000006
vt 0.08333335 0
vt 0.08333335 0.025000006
vt 0.75 0.050000012
vt 1.0833334 0.07499999
vt 0.4166667 0.050000012
vt 0.08333335 0.050000012
vt 0.75 0.07499999
vt 1.0833334 0.099999994
vt 0.4166667 0.07499999
vt 0.08333335 0.07499999
vt 0.75 0.099999994
vt 1.0833334 0.125
vt 0.4166667 0.099999994
vt 0.08333335 0.099999994
vt 0.75 0.125
vt 1.0833334 0.15
vt 0.4166667 0.125
vt 0.08333335 0.125
vt 0.75 0.15
vt 1.0833334 0.17500001
vt 0.4166667 0.15
vt 0.08333335 0.15
vt 0.75 0.17500001
vt 1.0833334 0.19999999
vt 0.4166667 0.17500001
vt 0.08333335 0.17500001
vt 0.75 0.19999999
vt 1.0833334 0.22500002
vt 0.4166667 0.19999999
vt 0.08333335 0.19999999
vt 0.75 0.22500002
vt 1.0833334 0.25
vt 0.4166667 0.22500002
vt 0.08333335 0.22500002
vt 0.75 0.25
vt 1.0833334 0.275
vt 0.4166667 0.25
vt 0.08333335 0.25
vt 0.75 0.275
vt 1.0833334 0.3
vt 0.4166667 0.275
vt 0.08333335 0.275
vt 0.75 0.3
vt 1.0833334 0.32500005
vt 0.4166667 0.3
vt 0.08333335 0.3
vt 0.75 0.32500005
vt 1.0833334 0.35
vt 0.4166667 0.32500005
vt 0.08333335 0.32500005
vt 0.75 0.35
vt 1.0833334 0.375
vt 0.4166667 0.35
vt 0.08333335 0.35
vt 0.75 0.375
vt 1.0833334 0.4
vt 0.4166667 0.375
vt 0.08333335 0.375
vt 0.75 0.4
vt 1.0833334 0.425
vt 0.4166667 0.4
vt 0.08333335 0.4
vt 0.75 0.425
vt 1.0833334 0.45000005
vt 0.4166667 0.425
vt 0.08333335 0.425
vt 0.75 0.45000005
vt 1.0833334 0.475
vt 0.4166667 0.45000005
vt 0.08333335 0.45000005
vt 0.75 0.475
vt 1.0833334 0.5
vt 0.4166667 0.475
vt 0.08333335 0.475
vt 0.75 0.5
vt 1.0833334 0.52500004
vt 0.4166667 0.5
vt 0.08333335 0.5
vt 0.75 0.52500004
vt 1.0833334 0.55
vt 0.4166667 0.52500004
vt 0.08333335 0.52500004
vt 0.75 0.55
vt 1.0833334 0.575
vt 0.4166667 0.55
vt 0.08333335 0.55
vt 0.75 0.575
vt 1.0833334 0.6
vt 0.4166667 0.575
vt 0.08333335 0.575
vt 0.75 0.6
vt 1.0833334 0.625
vt 0.4166667 0.6
vt 0.08333335 0.6
vt 0.75 0.625
vt 1.0833334 0.6500001
vt 0.4166667 0.625
vt 0.08333335 0.625
vt 0.75 0.6500001
vt 1.0833334 0.675
vt 0.4166667 0.6500001
vt 0.08333335 0.6500001
vt 0.75 0.675
vt 1.0833334 0.7
vt 0.4166667 0.675
vt 0.08333335 0.675
vt 0.75 0.7
vt 1.0833334 0.725
vt 0.4166667 0.7
vt 0.08333335 0.7
vt 0.75 0.725
vt 1.0833334 0.75
vt 0.4166667 0.725
vt 0.08333335 0.725
vt 0.75 0.75
vt 1.0833334 0.7750001
vt 0.4166667 0.75
vt 0.08333335 0.75
vt 0.75 0.7750001
vt 1.0833334 0.8
vt 0.4166667 0.7750001
vt 0.08333335 0.7750001
vt 0.75 0.8
vt 1.0833334 0.825
vt 0.4166667 0.8
vt 0.08333335 0.8
vt 0.75 0.825
vt 1.0833334 0.85
vt 0.4166667 0.825
vt 0.08333335 0.825
vt 0.75 0.85
vt 1.0833334 0.875
vt 0.4166667 0.85
vt 0.08333335 0.85
vt 0.75 0.875
vt 1.0833334 0.9000001
vt 0.4166667 0.875
vt 0.08333335 0.875
vt 0.75 0.9000001
vt 1.0833334 0.925
vt 0.4166667 0.9000001
vt 0.08333335 0.9000001
vt 0.75 0.925
vt 1.0833334 0.95
vt 0.4166667 0.925
vt 0.08333335 0.925
vt 0.75 0.95
vt 1.0833334 0.975
vt 0.4166667 0.95
vt 0.08333335 0.95
vt 0.75 0.975
vt 1.0833334 1
vt 0.75 1
vt 0.4166667 0.975
vt 0.08333335 0.975
vt 0.4166667 1
vt 0.08333335 1
vn 0.99691737 0.07845912 2.2207838E-07
vn -0.6092885 -0.09650205 -0.78705454
vn -0.6161577 -0.04849285 -0.7861286
vn 0.98768836 0.1564346 1.1138256E-07
vn -0.6161577 -0.04849259 0.7861286
vn -0.5866911 -0.19062762 -0.78705454
vn -0.6092886 -0.09650179 0.78705454
vn -0.6161577 -0.04849285 -0.7861286
vn -0.6092885 -0.09650205 -0.78705454
vn 0.9510565 0.3090171 0
vn -0.54964703 -0.2800594 -0.7870546
vn -0.58669114 -0.19062735 0.78705454
vn -0.5866911 -0.19062762 -0.78705454
vn 0.8910064 0.45399067 1.1138251E-07
vn -0.49906912 -0.3625952 -0.7870544
vn -0.549647 -0.28005913 0.78705466
vn -0.54964703 -0.2800594 -0.7870546
vn 0.8090169 0.5877853 -2.2276505E-07
vn -0.43620262 -0.4362025 -0.78705454
vn -0.49906924 -0.36259496 0.7870544
vn -0.49906912 -0.3625952 -0.7870544
vn 0.7071069 0.70710665 -2.2276505E-07
vn -0.36259496 -0.49906918 -0.78705454
vn -0.43620265 -0.4362023 0.78705454
vn -0.43620262 -0.4362025 -0.78705454
vn 0.58778536 0.809017 -2.2276518E-07
vn -0.28005913 -0.5496473 -0.78705454
vn -0.36259505 -0.49906904 0.78705466
vn -0.36259496 -0.49906918 -0.78705454
vn 0.45399043 0.8910065 -1.113825E-07
vn -0.1906274 -0.5866912 -0.7870544
vn -0.28005916 -0.54964703 0.7870546
vn -0.28005913 -0.5496473 -0.78705454
vn 0.30901703 0.95105654 -2.2276517E-07
vn -0.096501775 -0.60928905 -0.7870541
vn -0.19062735 -0.5866909 0.7870546
vn -0.1906274 -0.5866912 -0.7870544
vn 0.15643443 0.98768836 -3.341477E-07
vn 1.1031875E-07 -0.6168837 -0.7870543
vn -0.09650168 -0.6092881 0.7870549
vn -0.096501775 -0.60928905 -0.7870541
vn -0 1 -1.1138259E-07
vn 0.09650168 -0.6092888 -0.78705436
vn -0 -0.61688334 0.7870546
vn 1.1031875E-07 -0.6168837 -0.7870543
vn -0.15643449 0.98768836 0
vn 0.19062746 -0.58669084 -0.78705466
vn 0.096501686 -0.6092887 0.7870544
vn 0.09650168 -0.6092888 -0.78705436
vn -0.3090171 0.9510565 -1.11382526E-07
vn 0.28005952 -0.5496472 -0.78705436
vn 0.19062753 -0.58669066 0.7870547
vn 0.19062746 -0.58669084 -0.78705466
vn -0.45399085 0.89100635 -1.11382604E-07
vn 0.36259502 -0.49906933 -0.7870544
vn 0.28005958 -0.5496471 0.7870544
vn 0.28005952 -0.5496472 -0.78705436
vn -0.58778524 0.809017 1.1138255E-07
vn 0.4362025 -0.43620262 -0.78705454
vn 0.36259508 -0.49906918 0.78705454
vn 0.36259502 -0.49906933 -0.7870544
vn -0.7071068 0.70710677 0
vn 0.49906918 -0.36259502 -0.78705454
vn 0.43620256 -0.43620238 0.78705454
vn 0.4362025 -0.43620262 -0.78705454
vn -0.8090171 0.5877851 -1.1138255E-07
vn 0.5496472 -0.2800593 -0.78705454
vn 0.4990692 -0.36259475 0.7870546
vn 0.49906918 -0.36259502 -0.78705454
vn -0.8910065 0.45399052 1.11382555E-07
vn 0.5866909 -0.19062755 -0.78705454
vn 0.5496472 -0.28005904 0.78705454
vn 0.5496472 -0.2800593 -0.78705454
vn -0.95105654 0.3090169 0
vn 0.60928863 -0.096502185 -0.7870544
vn 0.586691 -0.19062729 0.7870546
vn 0.5866909 -0.19062755 -0.78705454
vn -0.98768836 0.15643436 0
vn 0.6168833 -2.2606295E-07 -0.78705466
vn 0.6092887 -0.09650192 0.7870544
vn 0.60928863 -0.096502185 -0.7870544
vn -1 -1.7577551E-07 2.22765E-07
vn 0.6092887 0.096501894 -0.78705454
vn 0.6168832 0 0.7870547
vn 0.6168833 -2.2606295E-07 -0.78705466
vn -0.98768836 -0.15643468 3.341474E-07
vn 0.5866909 0.1906275 -0.7870546
vn 0.6092886 0.09650219 0.78705454
vn 0.6092887 0.096501894 -0.78705454
vn -0.95105654 -0.3090171 -1.11382526E-07
vn 0.54964715 0.28005922 -0.78705454
vn 0.58669084 0.19062777 0.7870546
vn 0.5866909 0.1906275 -0.7870546
vn -0.8910065 -0.45399058 0
vn 0.49906898 0.362595 -0.78705466
vn 0.54964715 0.28005952 0.78705454
vn 0.54964715 0.28005922 -0.78705454
vn -0.8090168 -0.5877855 -1.11382576E-07
vn 0.4362024 0.43620262 -0.7870544
vn 0.49906904 0.36259523 0.78705454
vn 0.49906898 0.362595 -0.78705466
vn -0.7071065 -0.707107 1.1138255E-07
vn 0.36259496 0.49906918 -0.78705454
vn 0.43620232 0.43620288 0.78705436
vn 0.4362024 0.43620262 -0.7870544
vn -0.5877851 -0.80901706 2.227652E-07
vn 0.28005922 0.54964715 -0.78705454
vn 0.3625949 0.49906933 0.78705454
vn 0.36259496 0.49906918 -0.78705454
vn -0.45399028 -0.8910066 0
vn 0.19062755 0.586691 -0.78705454
vn 0.28005916 0.54964733 0.78705436
vn 0.28005922 0.54964715 -0.78705454
vn -0.30901688 -0.95105654 1.1138256E-07
vn 0.096501686 0.6092886 -0.7870546
vn 0.19062749 0.5866911 0.7870544
vn 0.19062755 0.586691 -0.78705454
vn -0.15643433 -0.98768836 2.2276508E-07
vn -1.247868E-07 0.6168836 -0.78705454
vn 0.09650167 0.6092886 0.78705454
vn 0.096501686 0.6092886 -0.7870546
vn 1.7055457E-07 -1 1.11382576E-07
vn -0.096502006 0.60928833 -0.78705466
vn -1.2207401E-07 0.6168837 0.78705436
vn -1.247868E-07 0.6168836 -0.78705454
vn 0.15643479 -0.98768836 0
vn -0.19062775 0.5866911 -0.78705454
vn -0.09650199 0.6092885 0.78705454
vn -0.096502006 0.60928833 -0.78705466
vn 0.30901736 -0.9510565 0
vn -0.28005934 0.549647 -0.78705466
vn -0.19062766 0.58669114 0.78705436
vn -0.19062775 0.5866911 -0.78705454
vn 0.45399073 -0.8910064 0
vn -0.36259514 0.49906915 -0.78705454
vn -0.28005928 0.5496471 0.78705454
vn -0.28005934 0.549647 -0.78705466
vn 0.5877853 -0.8090169 1.11382526E-07
vn -0.4362025 0.43620226 -0.7870546
vn -0.36259505 0.49906924 0.7870544
vn -0.36259514 0.49906915 -0.78705454
vn 0.7071069 -0.7071066 0
vn -0.49906936 0.3625948 -0.78705454
vn -0.43620247 0.43620256 0.78705454
vn -0.4362025 0.43620226 -0.7870546
vn 0.8090171 -0.587785 2.2276498E-07
vn -0.5496474 0.28005898 -0.78705454
vn -0.49906924 0.362595 0.78705454
vn -0.49906936 0.3625948 -0.78705454
vn 0.8910067 -0.45399025 0
vn -0.58669156 0.19062734 -0.78705424
vn -0.549647 0.28005907 0.78705466
vn -0.5496474 0.28005898 -0.78705454
vn 0.95105654 -0.3090167 1.11382505E-07
vn -0.60928875 0.09650171 -0.78705436
vn -0.58669066 0.19062732 0.7870548
vn -0.58669156 0.19062734 -0.78705424
vn 0.98768836 -0.15643439 1.11382505E-07
vn -0.6161576 0.04849258 -0.78612864
vn 0.99691737 -0.07845917 2.2207838E-07
vn -0.6092885 0.096501954 0.7870546
vn -0.60928875 0.09650171 -0.78705436
vn -0.6161576 0.048492845 0.7861287
vn -0.6161576 0.04849258 -0.78612864
g Eff_DeathXIII_Head_Ring_0
f 3/3/3 2/2/2 1/1/1
f 2/2/2 4/4/4 1/1/1
f 1/1/1 4/4/4 5/5/5
f 2/2/2 6/6/6 4/4/4
f 4/4/4 7/7/7 5/5/5
f 5/5/5 7/7/7 8/8/8
f 7/7/7 9/9/9 8/8/8
f 6/6/6 10/10/10 4/4/4
f 4/4/4 10/10/10 7/7/7
f 6/6/6 11/11/11 10/10/10
f 7/7/7 12/12/12 9/9/9
f 10/10/10 12/12/12 7/7/7
f 12/12/12 13/13/13 9/9/9
f 11/11/11 14/14/14 10/10/10
f 10/10/10 14/14/14 12/12/12
f 11/11/11 15/15/15 14/14/14
f 12/12/12 16/16/16 13/13/13
f 14/14/14 16/16/16 12/12/12
f 16/16/16 17/17/17 13/13/13
f 15/15/15 18/18/18 14/14/14
f 14/14/14 18/18/18 16/16/16
f 15/15/15 19/19/19 18/18/18
f 16/16/16 20/20/20 17/17/17
f 18/18/18 20/20/20 16/16/16
f 20/20/20 21/21/21 17/17/17
f 19/19/19 22/22/22 18/18/18
f 18/18/18 22/22/22 20/20/20
f 19/19/19 23/23/23 22/22/22
f 20/20/20 24/24/24 21/21/21
f 22/22/22 24/24/24 20/20/20
f 24/24/24 25/25/25 21/21/21
f 23/23/23 26/26/26 22/22/22
f 22/22/22 26/26/26 24/24/24
f 23/23/23 27/27/27 26/26/26
f 24/24/24 28/28/28 25/25/25
f 26/26/26 28/28/28 24/24/24
f 28/28/28 29/29/29 25/25/25
f 27/27/27 30/30/30 26/26/26
f 26/26/26 30/30/30 28/28/28
f 27/27/27 31/31/31 30/30/30
f 28/28/28 32/32/32 29/29/29
f 30/30/30 32/32/32 28/28/28
f 32/32/32 33/33/33 29/29/29
f 31/31/31 34/34/34 30/30/30
f 30/30/30 34/34/34 32/32/32
f 31/31/31 35/35/35 34/34/34
f 32/32/32 36/36/36 33/33/33
f 34/34/34 36/36/36 32/32/32
f 36/36/36 37/37/37 33/33/33
f 35/35/35 38/38/38 34/34/34
f 34/34/34 38/38/38 36/36/36
f 35/35/35 39/39/39 38/38/38
f 36/36/36 40/40/40 37/37/37
f 38/38/38 40/40/40 36/36/36
f 40/40/40 41/41/41 37/37/37
f 39/39/39 42/42/42 38/38/38
f 38/38/38 42/42/42 40/40/40
f 39/39/39 43/43/43 42/42/42
f 40/40/40 44/44/44 41/41/41
f 42/42/42 44/44/44 40/40/40
f 44/44/44 45/45/45 41/41/41
f 43/43/43 46/46/46 42/42/42
f 42/42/42 46/46/46 44/44/44
f 43/43/43 47/47/47 46/46/46
f 44/44/44 48/48/48 45/45/45
f 46/46/46 48/48/48 44/44/44
f 48/48/48 49/49/49 45/45/45
f 47/47/47 50/50/50 46/46/46
f 46/46/46 50/50/50 48/48/48
f 47/47/47 51/51/51 50/50/50
f 48/48/48 52/52/52 49/49/49
f 50/50/50 52/52/52 48/48/48
f 52/52/52 53/53/53 49/49/49
f 51/51/51 54/54/54 50/50/50
f 50/50/50 54/54/54 52/52/52
f 51/51/51 55/55/55 54/54/54
f 52/52/52 56/56/56 53/53/53
f 54/54/54 56/56/56 52/52/52
f 56/56/56 57/57/57 53/53/53
f 55/55/55 58/58/58 54/54/54
f 54/54/54 58/58/58 56/56/56
f 55/55/55 59/59/59 58/58/58
f 56/56/56 60/60/60 57/57/57
f 58/58/58 60/60/60 56/56/56
f 60/60/60 61/61/61 57/57/57
f 59/59/59 62/62/62 58/58/58
f 58/58/58 62/62/62 60/60/60
f 59/59/59 63/63/63 62/62/62
f 60/60/60 64/64/64 61/61/61
f 62/62/62 64/64/64 60/60/60
f 64/64/64 65/65/65 61/61/61
f 63/63/63 66/66/66 62/62/62
f 62/62/62 66/66/66 64/64/64
f 63/63/63 67/67/67 66/66/66
f 64/64/64 68/68/68 65/65/65
f 66/66/66 68/68/68 64/64/64
f 68/68/68 69/69/69 65/65/65
f 67/67/67 70/70/70 66/66/66
f 66/66/66 70/70/70 68/68/68
f 67/67/67 71/71/71 70/70/70
f 68/68/68 72/72/72 69/69/69
f 70/70/70 72/72/72 68/68/68
f 72/72/72 73/73/73 69/69/69
f 71/71/71 74/74/74 70/70/70
f 70/70/70 74/74/74 72/72/72
f 71/71/71 75/75/75 74/74/74
f 72/72/72 76/76/76 73/73/73
f 74/74/74 76/76/76 72/72/72
f 76/76/76 77/77/77 73/73/73
f 75/75/75 78/78/78 74/74/74
f 74/74/74 78/78/78 76/76/76
f 75/75/75 79/79/79 78/78/78
f 76/76/76 80/80/80 77/77/77
f 78/78/78 80/80/80 76/76/76
f 80/80/80 81/81/81 77/77/77
f 79/79/79 82/82/82 78/78/78
f 78/78/78 82/82/82 80/80/80
f 79/79/79 83/83/83 82/82/82
f 80/80/80 84/84/84 81/81/81
f 82/82/82 84/84/84 80/80/80
f 84/84/84 85/85/85 81/81/81
f 83/83/83 86/86/86 82/82/82
f 82/82/82 86/86/86 84/84/84
f 83/83/83 87/87/87 86/86/86
f 84/84/84 88/88/88 85/85/85
f 86/86/86 88/88/88 84/84/84
f 88/88/88 89/89/89 85/85/85
f 87/87/87 90/90/90 86/86/86
f 86/86/86 90/90/90 88/88/88
f 87/87/87 91/91/91 90/90/90
f 88/88/88 92/92/92 89/89/89
f 90/90/90 92/92/92 88/88/88
f 92/92/92 93/93/93 89/89/89
f 91/91/91 94/94/94 90/90/90
f 90/90/90 94/94/94 92/92/92
f 91/91/91 95/95/95 94/94/94
f 92/92/92 96/96/96 93/93/93
f 94/94/94 96/96/96 92/92/92
f 96/96/96 97/97/97 93/93/93
f 95/95/95 98/98/98 94/94/94
f 94/94/94 98/98/98 96/96/96
f 95/95/95 99/99/99 98/98/98
f 96/96/96 100/100/100 97/97/97
f 98/98/98 100/100/100 96/96/96
f 100/100/100 101/101/101 97/97/97
f 99/99/99 102/102/102 98/98/98
f 98/98/98 102/102/102 100/100/100
f 99/99/99 103/103/103 102/102/102
f 100/100/100 104/104/104 101/101/101
f 102/102/102 104/104/104 100/100/100
f 104/104/104 105/105/105 101/101/101
f 103/103/103 106/106/106 102/102/102
f 102/102/102 106/106/106 104/104/104
f 103/103/103 107/107/107 106/106/106
f 104/104/104 108/108/108 105/105/105
f 106/106/106 108/108/108 104/104/104
f 108/108/108 109/109/109 105/105/105
f 107/107/107 110/110/110 106/106/106
f 106/106/106 110/110/110 108/108/108
f 107/107/107 111/111/111 110/110/110
f 108/108/108 112/112/112 109/109/109
f 110/110/110 112/112/112 108/108/108
f 112/112/112 113/113/113 109/109/109
f 111/111/111 114/114/114 110/110/110
f 110/110/110 114/114/114 112/112/112
f 111/111/111 115/115/115 114/114/114
f 112/112/112 116/116/116 113/113/113
f 114/114/114 116/116/116 112/112/112
f 116/116/116 117/117/117 113/113/113
f 115/115/115 118/118/118 114/114/114
f 114/114/114 118/118/118 116/116/116
f 115/115/115 119/119/119 118/118/118
f 116/116/116 120/120/120 117/117/117
f 118/118/118 120/120/120 116/116/116
f 120/120/120 121/121/121 117/117/117
f 119/119/119 122/122/122 118/118/118
f 118/118/118 122/122/122 120/120/120
f 119/119/119 123/123/123 122/122/122
f 120/120/120 124/124/124 121/121/121
f 122/122/122 124/124/124 120/120/120
f 124/124/124 125/125/125 121/121/121
f 123/123/123 126/126/126 122/122/122
f 122/122/122 126/126/126 124/124/124
f 123/123/123 127/127/127 126/126/126
f 124/124/124 128/128/128 125/125/125
f 126/126/126 128/128/128 124/124/124
f 128/128/128 129/129/129 125/125/125
f 127/127/127 130/130/130 126/126/126
f 126/126/126 130/130/130 128/128/128
f 127/127/127 131/131/131 130/130/130
f 128/128/128 132/132/132 129/129/129
f 130/130/130 132/132/132 128/128/128
f 132/132/132 133/133/133 129/129/129
f 131/131/131 134/134/134 130/130/130
f 130/130/130 134/134/134 132/132/132
f 131/131/131 135/135/135 134/134/134
f 132/132/132 136/136/136 133/133/133
f 134/134/134 136/136/136 132/132/132
f 136/136/136 137/137/137 133/133/133
f 135/135/135 138/138/138 134/134/134
f 134/134/134 138/138/138 136/136/136
f 135/135/135 139/139/139 138/138/138
f 136/136/136 140/140/140 137/137/137
f 138/138/138 140/140/140 136/136/136
f 140/140/140 141/141/141 137/137/137
f 139/139/139 142/142/142 138/138/138
f 138/138/138 142/142/142 140/140/140
f 139/139/139 143/143/143 142/142/142
f 140/140/140 144/144/144 141/141/141
f 142/142/142 144/144/144 140/140/140
f 144/144/144 145/145/145 141/141/141
f 143/143/143 146/146/146 142/142/142
f 142/142/142 146/146/146 144/144/144
f 143/143/143 147/147/147 146/146/146
f 144/144/144 148/148/148 145/145/145
f 146/146/146 148/148/148 144/144/144
f 148/148/148 149/149/149 145/145/145
f 147/147/147 150/150/150 146/146/146
f 146/146/146 150/150/150 148/148/148
f 147/147/147 151/151/151 150/150/150
f 148/148/148 152/152/152 149/149/149
f 150/150/150 152/152/152 148/148/148
f 152/152/152 153/153/153 149/149/149
f 151/151/151 154/154/154 150/150/150
f 150/150/150 154/154/154 152/152/152
f 151/151/151 155/155/155 154/154/154
f 152/152/152 156/156/156 153/153/153
f 154/154/154 156/156/156 152/152/152
f 156/156/156 157/157/157 153/153/153
f 155/155/155 158/158/158 154/154/154
f 154/154/154 158/158/158 156/156/156
f 155/155/155 159/159/159 158/158/158
f 159/159/159 160/160/160 158/158/158
f 156/156/156 161/161/161 157/157/157
f 158/158/158 161/161/161 156/156/156
f 158/158/158 160/160/160 161/161/161
f 161/161/161 162/162/162 157/157/157
f 160/160/160 163/163/163 161/161/161
f 161/161/161 163/163/163 162/162/162
f 163/163/163 164/164/164 162/162/162
