g Object002Eff_Anton_Attack_EXQTE_plan_lc_002
v 0.08863643 -0.022943227 0.3466418
v 0.088592805 -0.031385187 0.3490565
v 0.08858021 -0.027133405 0.34882334
v 0.088659756 -0.035285797 0.34769478
v 0.089896016 0.013510933 0.30571806
v 0.090362914 0.030824006 0.29002094
v 0.08876657 -0.03842248 0.34509176
v 0.08990429 0.013922463 0.30542767
v 0.0888988 -0.040382456 0.34160087
v 0.089909196 0.014388871 0.30522385
v 0.08904216 -0.040752966 0.3375758
v 0.08991074 0.014890082 0.3051078
v 0.08918191 -0.03912123 0.3333699
v 0.08990918 0.015406021 0.30508074
v 0.08990449 0.015916606 0.30514362
v 0.0898968 0.016401764 0.30529734
v 0.08988583 0.016841404 0.30554304
v 0.088395424 0.05714668 0.3423491
v 0.08831704 0.06127929 0.344003
v 0.08830643 0.065466315 0.34372106
v 0.08835201 0.06928075 0.341895
v 0.09046304 -0.002018158 0.29174662
v 0.08844195 0.0722956 0.33891654
v 0.09037886 0.03053341 0.28960973
v 0.088861376 0.07227281 0.32698292
v 0.08856461 0.07408391 0.3351773
v 0.08870821 0.07421864 0.3310688
v 0.09047716 -0.001772164 0.29130715
v 0.09039621 0.030329607 0.28914362
v 0.09049349 -0.0016182308 0.29082233
v 0.09041438 0.030213675 0.28864285
v 0.090432614 0.030186629 0.28812712
v 0.09045024 0.030249562 0.28761682
v 0.090466574 0.03040349 0.28713202
v 0.09103454 0.0142424535 0.2732153
v 0.09051112 -0.0015553046 0.290312
v 0.09103945 0.014708862 0.27301148
v 0.091033004 0.013741243 0.27333134
v 0.09048069 0.030649476 0.2866925
v 0.09104773 0.015120392 0.27272108
v 0.09229069 0.051369894 0.23229912
v 0.09103456 0.013225304 0.2733584
v 0.09052936 -0.001582344 0.2897963
v 0.09171555 0.067523025 0.24641912
v 0.090547524 -0.001698289 0.28929552
v 0.091039255 0.0127147185 0.2732955
v 0.091046944 0.012229562 0.27314177
v 0.09056488 -0.0019020857 0.2888294
v 0.09183476 0.06923985 0.2427866
v 0.09105791 0.011789921 0.2728961
v 0.09058083 -0.0021926807 0.2884182
v 0.092047326 -0.042275414 0.25226215
v 0.09198062 0.069093466 0.23865616
v 0.092536815 -0.029441562 0.2365466
v 0.09212969 0.06739694 0.23464955
v 0.09225864 0.06446326 0.23138878
v 0.092344105 0.0606055 0.22949551
v 0.09236257 0.056136694 0.22959165
v 0.092187695 -0.044739477 0.24860987
v 0.0923385 -0.045184363 0.24438156
v 0.0924793 -0.043962076 0.24020404
v 0.09258986 -0.041424647 0.23670463
v 0.092649825 -0.03792407 0.23451059
v 0.09263894 -0.03381237 0.23424876
vt 0.15077758 0.9825723
vt 0.076470315 0.9997222
vt 0.11344808 0.99963737
vt 0.043263167 0.98609126
vt 0.48551917 0.6431782
vt 0.642797 0.51451945
vt 0.017245322 0.9620095
vt 0.48922005 0.64083886
vt 0.0018356144 0.9307412
vt 0.49335742 0.6392793
vt 0.0004528463 0.8955511
vt 0.4977567 0.63849956
vt 0.016515851 0.8597038
vt 0.5022433 0.63849956
vt 0.5066426 0.63927937
vt 0.5107799 0.64083886
vt 0.5144808 0.6431782
vt 0.8472744 0.9818367
vt 0.8823606 0.99811566
vt 0.9187989 0.997577
vt 0.9527083 0.98343325
vt 0.35720298 0.51451945
vt 0.9802077 0.9588968
vt 0.64046395 0.5108087
vt 0.9854365 0.8550572
vt 0.9974164 0.9271804
vt 1.000453 0.89149636
vt 0.35953605 0.5108087
vt 0.6389085 0.5066603
vt 0.36109143 0.5066603
vt 0.63813084 0.5022493
vt 0.6381308 0.49775073
vt 0.63890857 0.49333972
vt 0.64046395 0.4891913
vt 0.5066426 0.3607207
vt 0.3618692 0.50224924
vt 0.5107799 0.35916114
vt 0.5022433 0.36150044
vt 0.642797 0.48548055
vt 0.5144808 0.3568218
vt 0.84721947 0.021699935
vt 0.49775672 0.36150047
vt 0.36186916 0.4977507
vt 0.9808798 0.15193573
vt 0.3610915 0.4933397
vt 0.49335742 0.36072063
vt 0.48922005 0.35916114
vt 0.35953608 0.48919126
vt 0.9974201 0.12111631
vt 0.4855192 0.35682184
vt 0.357203 0.48548052
vt 0.026043802 0.15257922
vt 0.9980288 0.085112214
vt 0.14448589 0.021712124
vt 0.9851382 0.04947716
vt 0.96117985 0.01976481
vt 0.9285861 0.0015284717
vt 0.8897886 0.00032240152
vt 0.0063359737 0.11967656
vt 0.0044006407 0.08268377
vt 0.016899914 0.046896428
vt 0.040495962 0.017609835
vt 0.071850866 0.00011995435
vt 0.107626796 -0.00027781725
vn 0.99937147 0.004884275 0.035113778
vn 0.99937063 0.0048862416 0.035136804
vn 0.9993705 0.0048864787 0.035137672
vn 0.99937123 0.0048877997 0.035118483
vn 0.9993711 0.004891741 0.035121378
vn 0.99936944 0.0048928 0.035169818
vn 0.99937135 0.004887574 0.035114657
vn 0.9994085 0.004015804 0.034155995
vn 0.999371 0.004893582 0.035123114
vn 0.99937445 0.004821253 0.035037354
vn 0.99937075 0.004900141 0.035131324
vn 0.99936396 0.0050622383 0.035299003
vn 0.9993718 0.004880869 0.035102494
vn 0.99937254 0.0048604487 0.035086177
vn 0.99937385 0.004826914 0.035053074
vn 0.9993703 0.0049225623 0.035140626
vn 0.99936575 0.005034762 0.03525211
vn 0.99937147 0.0049029905 0.03510908
vn 0.99937147 0.004899175 0.03511133
vn 0.9993711 0.004883323 0.035121378
vn 0.9993711 0.004878219 0.03512436
vn 0.9993742 0.0048859846 0.035033766
vn 0.99937123 0.004882997 0.03511891
vn 0.99936813 0.004894575 0.03520576
vn 0.99937135 0.004896594 0.03511282
vn 0.99937147 0.0048866956 0.03511261
vn 0.9993717 0.004981481 0.03509165
vn 0.9993766 0.004879006 0.034966763
vn 0.99937207 0.004885807 0.03509356
vn 0.9993691 0.0048946193 0.03517818
vn 0.9993717 0.0048873196 0.035105214
vn 0.9993717 0.0048876912 0.035103936
vn 0.99936897 0.0048953113 0.03518352
vn 0.9993724 0.004958254 0.03507516
vn 0.99936956 0.004912326 0.035164073
vn 0.99937123 0.004893201 0.03511882
vn 0.99936885 0.0048184074 0.03519501
vn 0.9993654 0.005048791 0.03526206
vn 0.99937433 0.0049767643 0.03501905
vn 0.99936897 0.00482994 0.035191353
vn 0.9993711 0.004888577 0.03512023
vn 0.9993723 0.0048606247 0.035092548
vn 0.9993723 0.0048601637 0.035092957
vn 0.99937135 0.0048893183 0.035113584
vn 0.99937147 0.0048824353 0.035111282
vn 0.9993736 0.0048240223 0.035058863
vn 0.99937004 0.004924985 0.03514836
vn 0.9993705 0.004911332 0.03513679
vn 0.99937147 0.0048907185 0.035113037
vn 0.99936587 0.0050360113 0.035249356
vn 0.9993691 0.0049462444 0.035172414
vn 0.99937135 0.0048848265 0.03511667
vn 0.99937135 0.004888333 0.035116274
vn 0.99937123 0.0048861615 0.03511818
vn 0.99937135 0.004889542 0.03511444
vn 0.999371 0.004888797 0.0351269
vn 0.9993703 0.004889659 0.035146397
vn 0.9993709 0.0048841536 0.035128266
vn 0.99937123 0.0048867706 0.03511989
vn 0.999371 0.0048907134 0.035123374
vn 0.99937135 0.0048863036 0.03511509
vn 0.99937135 0.0048871245 0.03511623
vn 0.9993716 0.0048863837 0.035110027
vn 0.9993709 0.0048814784 0.03513043
g Object002Eff_Anton_Attack_EXQTE_plan_lc_002_0
f 3/3/3 2/2/2 1/1/1
f 2/2/2 4/4/4 1/1/1
f 4/4/4 5/5/5 1/1/1
f 6/6/6 5/5/5 4/4/4
f 7/7/7 6/6/6 4/4/4
f 8/8/8 5/5/5 6/6/6
f 9/9/9 6/6/6 7/7/7
f 10/10/10 8/8/8 6/6/6
f 11/11/11 6/6/6 9/9/9
f 12/12/12 10/10/10 6/6/6
f 13/13/13 6/6/6 11/11/11
f 14/14/14 12/12/12 6/6/6
f 15/15/15 14/14/14 6/6/6
f 16/16/16 15/15/15 6/6/6
f 17/17/17 16/16/16 6/6/6
f 18/18/18 17/17/17 6/6/6
f 19/19/19 18/18/18 6/6/6
f 20/20/20 19/19/19 6/6/6
f 21/21/21 20/20/20 6/6/6
f 22/22/22 6/6/6 13/13/13
f 23/23/23 21/21/21 6/6/6
f 24/24/24 6/6/6 22/22/22
f 25/25/25 23/23/23 6/6/6
f 26/26/26 23/23/23 25/25/25
f 27/27/27 26/26/26 25/25/25
f 28/28/28 24/24/24 22/22/22
f 29/29/29 24/24/24 28/28/28
f 30/30/30 29/29/29 28/28/28
f 31/31/31 29/29/29 30/30/30
f 32/32/32 31/31/31 30/30/30
f 33/33/33 32/32/32 30/30/30
f 34/34/34 33/33/33 30/30/30
f 35/35/35 34/34/34 30/30/30
f 36/36/36 35/35/35 30/30/30
f 37/37/37 34/34/34 35/35/35
f 38/38/38 35/35/35 36/36/36
f 39/39/39 34/34/34 37/37/37
f 40/40/40 39/39/39 37/37/37
f 41/41/41 39/39/39 40/40/40
f 42/42/42 38/38/38 36/36/36
f 43/43/43 42/42/42 36/36/36
f 44/44/44 39/39/39 41/41/41
f 45/45/45 42/42/42 43/43/43
f 46/46/46 42/42/42 45/45/45
f 47/47/47 46/46/46 45/45/45
f 48/48/48 47/47/47 45/45/45
f 49/49/49 44/44/44 41/41/41
f 50/50/50 47/47/47 48/48/48
f 51/51/51 50/50/50 48/48/48
f 52/52/52 50/50/50 51/51/51
f 53/53/53 49/49/49 41/41/41
f 54/54/54 50/50/50 52/52/52
f 55/55/55 53/53/53 41/41/41
f 56/56/56 55/55/55 41/41/41
f 57/57/57 56/56/56 41/41/41
f 58/58/58 57/57/57 41/41/41
f 59/59/59 54/54/54 52/52/52
f 60/60/60 54/54/54 59/59/59
f 61/61/61 54/54/54 60/60/60
f 62/62/62 54/54/54 61/61/61
f 63/63/63 54/54/54 62/62/62
f 64/64/64 54/54/54 63/63/63
