g CombinedDecalMesh
v 0.61542475 0.4477333 0.09836458
v -0.61542463 0.8328869 0.09835359
v -0.6154246 -0.4766012 0.09835359
v 0.61542475 0.4477333 0.09836458
v 0.61542475 1.111945 0.09836458
v -0.61542463 1.111945 0.09835359
v 0.61542475 0.4477333 0.09836458
v -0.61542463 1.111945 0.09835359
v -0.61542463 0.8328869 0.09835359
v 0.61542463 0.4477332 0.09836458
v -0.6154247 -0.47660127 0.09835359
v -0.080196396 -1.111945 0.09835836
v 0.61542463 0.4477332 0.09836458
v -0.080196396 -1.111945 0.09835836
v 0.6154246 -1.111945 0.09836458
v -0.6154247 -0.47660127 0.09835359
v -0.61542463 -1.111945 0.09835359
v -0.08019643 -1.111945 0.09835836
vt 0.2467041 0.91552734
vt 0.40063477 0.9638672
vt 0.40063477 0.80029297
vt 0.2467041 0.91552734
vt 0.2467041 0.99853516
vt 0.40063477 0.99853516
vt 0.2467041 0.91552734
vt 0.40063477 0.99853516
vt 0.40063477 0.9638672
vt 0.2467041 0.91552734
vt 0.40063477 0.80029297
vt 0.33374023 0.7207031
vt 0.2467041 0.91552734
vt 0.33374023 0.7207031
vt 0.2467041 0.7207031
vt 0.40063477 0.80029297
vt 0.40063477 0.7207031
vt 0.33374023 0.7207031
vn 8.940697E-06 0 -1
vn 8.940697E-06 0 -1
vn 8.940697E-06 0 -1
vn 8.940697E-06 0 -1
vn 8.940697E-06 0 -1
vn 8.940697E-06 0 -1
vn 8.940697E-06 0 -1
vn 8.940697E-06 0 -1
vn 8.940697E-06 0 -1
vn 8.940697E-06 0 -1
vn 8.940697E-06 0 -1
vn 8.940697E-06 0 -1
vn 8.940697E-06 0 -1
vn 8.940697E-06 0 -1
vn 8.940697E-06 0 -1
vn 8.940697E-06 0 -1
vn 8.940697E-06 0 -1
vn 8.940697E-06 0 -1
g CombinedDecalMesh_0
f 3/3/3 2/2/2 1/1/1
f 6/6/6 5/5/5 4/4/4
f 9/9/9 8/8/8 7/7/7
f 12/12/12 11/11/11 10/10/10
f 15/15/15 14/14/14 13/13/13
f 18/18/18 17/17/17 16/16/16
