g DecalMesh_MetroArea_Decal_Ground_26__109
v 0.8500001 0.8504108 0.0068510333
v -0.85 0.8504108 0.0068510333
v 0.80569947 -0.8495893 -0.008725061
v 0.8500001 0.8504108 0.0068510333
v 0.80569947 -0.8495893 -0.008725061
v 0.8500001 -0.8495893 -0.008725061
v -0.85 0.8504108 0.0068510333
v -0.85 0.8048496 0.006433583
v 0.80451214 -0.8495893 -0.008725061
v -0.85 0.8504108 0.0068510333
v 0.80451214 -0.8495893 -0.008725061
v 0.80569947 -0.8495893 -0.008725061
v -0.84999996 0.776107 0.006170232
v -0.85 -0.84958935 -0.008725061
v 0.61019987 -0.84958935 -0.008725061
v -0.85 0.80484957 0.006433583
v 0.61378694 -0.8495892 -0.008725061
v 0.8045121 -0.8495893 -0.008725061
v -0.85 0.80484957 0.006433583
v -0.85 0.7990681 0.00638061
v 0.61307406 -0.8495893 -0.008725061
v -0.85 0.80484957 0.006433583
v 0.61307406 -0.8495893 -0.008725061
v 0.613787 -0.8495893 -0.008725061
v -0.85 0.7990681 0.00638061
v -0.84999996 0.776107 0.006170232
v 0.6101998 -0.8495893 -0.008725061
v -0.85 0.7990681 0.00638061
v 0.6101998 -0.8495893 -0.008725061
v 0.61307406 -0.8495893 -0.008725061
vt 0.76953125 0.9848633
vt 0.9951172 0.9848633
vt 0.7753906 0.7548828
vt 0.76953125 0.9848633
vt 0.7753906 0.7548828
vt 0.76953125 0.7548828
vt 0.9951172 0.9848633
vt 0.9951172 0.9785156
vt 0.7753906 0.7548828
vt 0.9951172 0.9848633
vt 0.7753906 0.7548828
vt 0.7753906 0.7548828
vt 0.9951172 0.9746094
vt 0.9951172 0.7548828
vt 0.80126953 0.7548828
vt 0.9951172 0.9785156
vt 0.80078125 0.7548828
vt 0.7753906 0.7548828
vt 0.9951172 0.9785156
vt 0.9951172 0.97753906
vt 0.80078125 0.7548828
vt 0.9951172 0.9785156
vt 0.80078125 0.7548828
vt 0.80078125 0.7548828
vt 0.9951172 0.97753906
vt 0.9951172 0.9746094
vt 0.80126953 0.7548828
vt 0.9951172 0.97753906
vt 0.80126953 0.7548828
vt 0.80078125 0.7548828
vn -0 0.009162903 -1
vn -0 0.009162903 -1
vn -0 0.009162903 -1
vn -0 0.009162903 -1
vn -0 0.009162903 -1
vn -0 0.009162903 -1
vn -0 0.009162903 -1
vn -0 0.009162903 -1
vn -0 0.009162903 -1
vn -0 0.009162903 -1
vn -0 0.009162903 -1
vn -0 0.009162903 -1
vn -0 0.009162903 -1
vn -0 0.009162903 -1
vn -0 0.009162903 -1
vn -0 0.009162903 -1
vn -0 0.009162903 -1
vn -0 0.009162903 -1
vn -0 0.009162903 -1
vn -0 0.009162903 -1
vn -0 0.009162903 -1
vn -0 0.009162903 -1
vn -0 0.009162903 -1
vn -0 0.009162903 -1
vn -0 0.009162903 -1
vn -0 0.009162903 -1
vn -0 0.009162903 -1
vn -0 0.009162903 -1
vn -0 0.009162903 -1
vn -0 0.009162903 -1
g DecalMesh_MetroArea_Decal_Ground_26__109_0
f 3/3/3 2/2/2 1/1/1
f 6/6/6 5/5/5 4/4/4
f 9/9/9 8/8/8 7/7/7
f 12/12/12 11/11/11 10/10/10
f 15/15/15 14/14/14 13/13/13
f 18/18/18 17/17/17 16/16/16
f 21/21/21 20/20/20 19/19/19
f 24/24/24 23/23/23 22/22/22
f 27/27/27 26/26/26 25/25/25
f 30/30/30 29/29/29 28/28/28
