g DecalMesh_MetroArea_Decal_Ground_06__28
v -0.5319969 0.81933415 -1.3332291
v -1.7543889 0.5928372 -1.3332291
v -0.556596 -0.8193344 -1.3332293
v -0.5319969 0.81933415 -1.3332291
v -0.556596 -0.8193344 -1.3332293
v -0.53200626 -0.8193344 -1.3332293
v -1.7543889 0.5928372 -1.3332291
v -1.754389 -0.81933445 -1.3332293
v -0.556596 -0.8193343 -1.3332293
v -0.5319969 0.81933415 -1.3332291
v -1.754389 0.81933415 -1.3332291
v -1.754389 0.5928372 -1.3332291
v 1.754389 0.8193344 -1.333229
v -0.4922547 -0.8193344 -1.3332293
v 1.7543889 -0.8193343 -1.3332293
v 1.754389 0.8193344 -1.333229
v 1.3769087 0.8193344 -1.333229
v -0.49881765 -0.8193344 -1.3332293
v 1.754389 0.8193344 -1.333229
v -0.49881765 -0.8193344 -1.3332293
v -0.4922547 -0.8193344 -1.3332293
v 1.3769087 0.8193344 -1.333229
v -0.5319969 0.8193343 -1.3332291
v -0.53200626 -0.8193344 -1.3332293
v 1.3769087 0.8193344 -1.333229
v -0.53200626 -0.8193344 -1.3332293
v -0.49881765 -0.8193344 -1.3332293
vt 0.65625 0.86279297
vt 0.7685547 0.8442383
vt 0.6582031 0.7290039
vt 0.65625 0.86279297
vt 0.6582031 0.7290039
vt 0.65625 0.7290039
vt 0.7685547 0.8442383
vt 0.7685547 0.7290039
vt 0.6582031 0.7290039
vt 0.65625 0.86279297
vt 0.7685547 0.86279297
vt 0.7685547 0.8442383
vt 0.4453125 0.86279297
vt 0.65234375 0.7290039
vt 0.4453125 0.7290039
vt 0.4453125 0.86279297
vt 0.47998047 0.86279297
vt 0.65283203 0.7290039
vt 0.4453125 0.86279297
vt 0.65283203 0.7290039
vt 0.65234375 0.7290039
vt 0.47998047 0.86279297
vt 0.65625 0.86279297
vt 0.65625 0.7290039
vt 0.47998047 0.86279297
vt 0.65625 0.7290039
vt 0.65283203 0.7290039
vn -0 -1.1920929E-07 -1
vn -0 -1.1920929E-07 -1
vn -0 -1.1920929E-07 -1
vn -0 -1.1920929E-07 -1
vn -0 -1.1920929E-07 -1
vn -0 -1.1920929E-07 -1
vn -0 -1.1920929E-07 -1
vn -0 -1.1920929E-07 -1
vn -0 -1.1920929E-07 -1
vn -0 -1.1920929E-07 -1
vn -0 -1.1920929E-07 -1
vn -0 -1.1920929E-07 -1
vn -0 -1.1920929E-07 -1
vn -0 -1.1920929E-07 -1
vn -0 -1.1920929E-07 -1
vn -0 -1.1920929E-07 -1
vn -0 -1.1920929E-07 -1
vn -0 -1.1920929E-07 -1
vn -0 -1.1920929E-07 -1
vn -0 -1.1920929E-07 -1
vn -0 -1.1920929E-07 -1
vn -0 -1.1920929E-07 -1
vn -0 -1.1920929E-07 -1
vn -0 -1.1920929E-07 -1
vn -0 -1.1920929E-07 -1
vn -0 -1.1920929E-07 -1
vn -0 -1.1920929E-07 -1
g DecalMesh_MetroArea_Decal_Ground_06__28_0
f 3/3/3 2/2/2 1/1/1
f 6/6/6 5/5/5 4/4/4
f 9/9/9 8/8/8 7/7/7
f 12/12/12 11/11/11 10/10/10
f 15/15/15 14/14/14 13/13/13
f 18/18/18 17/17/17 16/16/16
f 21/21/21 20/20/20 19/19/19
f 24/24/24 23/23/23 22/22/22
f 27/27/27 26/26/26 25/25/25
