g DecalMesh_MetroArea_Decal_Graffiti_27__20
v 0.42619252 -0.44669 0.1362536
v 0.43571118 -0.4237045 -0.24987529
v 0.2828025 0.50062644 -0.12052708
v 0.42619252 -0.44669 0.1362536
v 0.2828025 0.50062644 -0.12052708
v 0.27221748 0.50062656 0.18884978
v 0.43571118 -0.4237045 -0.24987529
v 0.28547367 0.50062656 -0.19855525
v 0.2828025 0.50062656 -0.12052706
v 0.43571118 -0.4237045 -0.24987529
v 0.36292282 0.50062656 -0.1966445
v 0.28547367 0.50062656 -0.19855525
v 0.43571118 -0.4237045 -0.24987529
v 0.8173477 -0.3624031 -0.23681056
v 0.67707247 0.5006266 -0.1888941
v 0.43571118 -0.4237045 -0.24987529
v 0.67707247 0.5006266 -0.1888941
v 0.36292282 0.5006265 -0.1966445
v 0.408708 -0.42649126 -0.27873474
v 0.41930744 -0.50062656 -0.2404615
v 0.42075765 -0.50062656 -0.28285083
v 0.408708 -0.42649126 -0.27873474
v 0.39781272 -0.45280364 0.16321594
v 0.4055858 -0.50062656 0.16056076
v 0.408708 -0.42649126 -0.27873474
v 0.4055858 -0.50062656 0.16056076
v 0.41930744 -0.50062656 -0.2404615
v 0.408708 -0.42649126 -0.27873474
v 0.42075765 -0.50062656 -0.28285083
v 0.46972036 -0.50062656 -0.28164276
v 0.84572816 -0.3562932 -0.26377308
v 0.408708 -0.42649126 -0.27873474
v 0.46972036 -0.50062656 -0.28164276
v 0.84572816 -0.3562932 -0.26377308
v 0.46972036 -0.50062656 -0.28164276
v 0.8691879 -0.50062656 -0.27178666
v 1.0066693 0.5006266 -0.32679218
v -1.0066693 -0.48396713 -0.43507776
v -0.9485186 -0.50062656 -0.43463486
v 1.0066693 0.5006266 -0.32679218
v -0.9485186 -0.50062656 -0.43463486
v 1.0066693 -0.50062656 -0.38639805
v -1.0066693 -0.48396713 -0.43507776
v -1.0066693 -0.50062656 -0.43606952
v -0.9485185 -0.50062656 -0.43463486
v 1.0066693 0.5006266 -0.32679218
v -0.93849146 0.5006266 -0.37478164
v -1.0066693 0.44420058 -0.3798228
v 1.0066693 0.5006266 -0.32679218
v -1.0066693 0.44420058 -0.3798228
v -1.0066693 -0.48396713 -0.43507776
v -0.9384914 0.50062656 -0.37478164
v -1.0066693 0.50062656 -0.37646368
v -1.0066693 0.4442005 -0.3798228
vt 0.06323242 0.06707764
vt 0.062286377 0.0703125
vt 0.07757568 0.20007324
vt 0.06323242 0.06707764
vt 0.07757568 0.20007324
vt 0.07861328 0.20007324
vt 0.062286377 0.0703125
vt 0.07727051 0.20007324
vt 0.07757568 0.20007324
vt 0.062286377 0.0703125
vt 0.06958008 0.20007324
vt 0.07727051 0.20007324
vt 0.062286377 0.0703125
vt 0.024108887 0.07891846
vt 0.038146973 0.20007324
vt 0.062286377 0.0703125
vt 0.038146973 0.20007324
vt 0.06958008 0.20007324
vt 0.06500244 0.069885254
vt 0.06390381 0.059509277
vt 0.06378174 0.059509277
vt 0.06500244 0.069885254
vt 0.06604004 0.066223145
vt 0.06530762 0.059509277
vt 0.06500244 0.069885254
vt 0.06530762 0.059509277
vt 0.06390381 0.059509277
vt 0.06500244 0.069885254
vt 0.06378174 0.059509277
vt 0.05886841 0.059509277
vt 0.021270752 0.07977295
vt 0.06500244 0.069885254
vt 0.05886841 0.059509277
vt 0.021270752 0.07977295
vt 0.05886841 0.059509277
vt 0.018920898 0.059509277
vt 0.005180359 0.20007324
vt 0.20654297 0.061828613
vt 0.2006836 0.059509277
vt 0.005180359 0.20007324
vt 0.2006836 0.059509277
vt 0.005180359 0.059509277
vt 0.20654297 0.061828613
vt 0.20654297 0.059509277
vt 0.2006836 0.059509277
vt 0.005180359 0.20007324
vt 0.19970703 0.20007324
vt 0.20654297 0.19213867
vt 0.005180359 0.20007324
vt 0.20654297 0.19213867
vt 0.20654297 0.061828613
vt 0.19970703 0.20007324
vt 0.20654297 0.20007324
vt 0.20654297 0.19213867
vn -0.9868164 -0.15856934 -0.03378296
vn -0.9868164 -0.15856934 -0.03378296
vn -0.9868164 -0.15856934 -0.03378296
vn -0.9868164 -0.15856934 -0.03378296
vn -0.9868164 -0.15856934 -0.03378296
vn -0.9868164 -0.15856934 -0.03378296
vn -0.9868164 -0.15856934 -0.03378296
vn -0.9868164 -0.15856934 -0.03378296
vn -0.9868164 -0.15856934 -0.03378296
vn 0.024612427 0.059417725 -0.9980469
vn 0.024612427 0.059417725 -0.9980469
vn 0.024612427 0.059417725 -0.9980469
vn 0.024612427 0.059417725 -0.9980469
vn 0.024612427 0.059417725 -0.9980469
vn 0.024612427 0.059417725 -0.9980469
vn 0.024612427 0.059417725 -0.9980469
vn 0.024612427 0.059417725 -0.9980469
vn 0.024612427 0.059417725 -0.9980469
vn -0.9868164 -0.15856934 -0.03375244
vn -0.9868164 -0.15856934 -0.03375244
vn -0.9868164 -0.15856934 -0.03375244
vn -0.9868164 -0.15856934 -0.03375244
vn -0.9868164 -0.15856934 -0.03375244
vn -0.9868164 -0.15856934 -0.03375244
vn -0.9868164 -0.15856934 -0.03375244
vn -0.9868164 -0.15856934 -0.03375244
vn -0.9868164 -0.15856934 -0.03375244
vn 0.024627686 0.059417725 -0.9980469
vn 0.024627686 0.059417725 -0.9980469
vn 0.024627686 0.059417725 -0.9980469
vn 0.024627686 0.059417725 -0.9980469
vn 0.024627686 0.059417725 -0.9980469
vn 0.024627686 0.059417725 -0.9980469
vn 0.024627686 0.059417725 -0.9980469
vn 0.024627686 0.059417725 -0.9980469
vn 0.024627686 0.059417725 -0.9980469
vn 0.024612427 0.059417725 -0.9980469
vn 0.024612427 0.059417725 -0.9980469
vn 0.024612427 0.059417725 -0.9980469
vn 0.024612427 0.059417725 -0.9980469
vn 0.024612427 0.059417725 -0.9980469
vn 0.024612427 0.059417725 -0.9980469
vn 0.024612427 0.059417725 -0.9980469
vn 0.024612427 0.059417725 -0.9980469
vn 0.024612427 0.059417725 -0.9980469
vn 0.024612427 0.059417725 -0.9980469
vn 0.024612427 0.059417725 -0.9980469
vn 0.024612427 0.059417725 -0.9980469
vn 0.024612427 0.059417725 -0.9980469
vn 0.024612427 0.059417725 -0.9980469
vn 0.024612427 0.059417725 -0.9980469
vn 0.024612427 0.059417725 -0.9980469
vn 0.024612427 0.059417725 -0.9980469
vn 0.024612427 0.059417725 -0.9980469
g DecalMesh_MetroArea_Decal_Graffiti_27__20_0
f 3/3/3 2/2/2 1/1/1
f 6/6/6 5/5/5 4/4/4
f 9/9/9 8/8/8 7/7/7
f 12/12/12 11/11/11 10/10/10
f 15/15/15 14/14/14 13/13/13
f 18/18/18 17/17/17 16/16/16
f 21/21/21 20/20/20 19/19/19
f 24/24/24 23/23/23 22/22/22
f 27/27/27 26/26/26 25/25/25
f 30/30/30 29/29/29 28/28/28
f 33/33/33 32/32/32 31/31/31
f 36/36/36 35/35/35 34/34/34
f 39/39/39 38/38/38 37/37/37
f 42/42/42 41/41/41 40/40/40
f 45/45/45 44/44/44 43/43/43
f 48/48/48 47/47/47 46/46/46
f 51/51/51 50/50/50 49/49/49
f 54/54/54 53/53/53 52/52/52
