g DecalMesh_Common_Decal_Sign_07__1
v 0.13720317 0.24999997 -0.022704028
v 0.07336671 -0.25 -0.022704104
v 0.15577976 -0.25 -0.022704057
v 0.13720317 0.24999997 -0.022704028
v 0.023685167 0.25000003 -0.02270409
v -0.00737375 -0.24999997 -0.022704149
v 0.13720317 0.24999997 -0.022704028
v -0.00737375 -0.24999997 -0.022704149
v 0.07336671 -0.25 -0.022704104
v 0.2 0.25000006 -0.022703992
v 0.13720316 0.25000006 -0.022704028
v 0.15577975 -0.25000003 -0.022704057
v 0.2 0.25000006 -0.022703992
v 0.15577975 -0.25000003 -0.022704057
v 0.2 -0.25000003 -0.022704033
v 0.023685167 0.25000003 -0.02270409
v -0.2 0.25 -0.022704216
v -0.16647136 -0.24999999 -0.022704238
v 0.023685167 0.25000003 -0.02270409
v -0.16647136 -0.24999999 -0.022704238
v -0.00737375 -0.24999997 -0.022704149
v -0.2 0.25 -0.022704216
v -0.2 -0.24999999 -0.022704257
v -0.16647136 -0.24999999 -0.022704238
vt -0.5698242 0.9970703
vt -0.5551758 0.86083984
vt -0.57421875 0.86083984
vt -0.5698242 0.9970703
vt -0.5439453 0.9970703
vt -0.5371094 0.86083984
vt -0.5698242 0.9970703
vt -0.5371094 0.86083984
vt -0.5551758 0.86083984
vt -0.58447266 0.9970703
vt -0.5698242 0.9970703
vt -0.57421875 0.86083984
vt -0.58447266 0.9970703
vt -0.57421875 0.86083984
vt -0.58447266 0.86083984
vt -0.5439453 0.9970703
vt -0.49291992 0.9970703
vt -0.5004883 0.86083984
vt -0.5439453 0.9970703
vt -0.5004883 0.86083984
vt -0.5371094 0.86083984
vt -0.49291992 0.9970703
vt -0.49291992 0.86083984
vt -0.5004883 0.86083984
vn -0.010093689 -0.0014724731 -1
vn -0.0021877289 -0.00031924248 -1
vn -0.0069465637 -0.0010137558 -1
vn -0.010093689 -0.0014724731 -1
vn -0.0035324097 -0.00051546097 -1
vn 0.0024757385 0.00036120415 -1
vn -0.010093689 -0.0014724731 -1
vn 0.0024757385 0.00036120415 -1
vn -0.0021877289 -0.00031924248 -1
vn -0.013717651 -0.002002716 -1
vn -0.010093689 -0.0014724731 -1
vn -0.0069465637 -0.0010137558 -1
vn -0.013717651 -0.002002716 -1
vn -0.0069465637 -0.0010137558 -1
vn -0.009498596 -0.0013866425 -1
vn -0.0035324097 -0.00051546097 -1
vn 0.009384155 0.0013694763 -1
vn 0.011665344 0.0017023087 -1
vn -0.0035324097 -0.00051546097 -1
vn 0.011665344 0.0017023087 -1
vn 0.0024757385 0.00036120415 -1
vn 0.009384155 0.0013694763 -1
vn 0.01360321 0.00198555 -1
vn 0.011665344 0.0017023087 -1
g DecalMesh_Common_Decal_Sign_07__1_0
f 3/3/3 2/2/2 1/1/1
f 6/6/6 5/5/5 4/4/4
f 9/9/9 8/8/8 7/7/7
f 12/12/12 11/11/11 10/10/10
f 15/15/15 14/14/14 13/13/13
f 18/18/18 17/17/17 16/16/16
f 21/21/21 20/20/20 19/19/19
f 24/24/24 23/23/23 22/22/22
