g DecalMesh_MetroArea_Decal_Ground_03__3
v 1.25 0.71200156 -0.49039492
v 0.66071016 1.25 -0.4903948
v -0.7673154 -1.25 -0.4903945
v 1.25 0.71200156 -0.49039492
v -0.7673154 -1.25 -0.4903945
v -0.7120023 -1.25 -0.4903945
v 0.66071016 1.25 -0.4903948
v -0.84100014 1.25 -0.49039447
v -0.8410004 -1.25 -0.49039447
v 0.66071016 1.25 -0.4903948
v -0.8410004 -1.25 -0.49039447
v -0.7673154 -1.25 -0.4903945
v 1.25 0.71200156 -0.49039492
v 1.25 1.25 -0.49039492
v 0.6607102 1.25 -0.4903948
v 1.25 0.71200156 -0.49039492
v -0.7120023 -1.25 -0.4903945
v 1.2499999 -1.25 -0.49039492
v -0.8409992 1.25 -0.49039066
v -1.2499999 0.98118454 -0.49039096
v -0.8633537 -1.25 -0.4903907
v -0.8409992 1.25 -0.49039066
v -0.8633537 -1.25 -0.4903907
v -0.8409994 -1.25 -0.49039066
v -1.2499999 0.98118454 -0.49039096
v -1.2500001 -1.25 -0.49039096
v -0.8633537 -1.25 -0.4903907
v -0.8409992 1.25 -0.49039066
v -1.25 1.25 -0.49039096
v -1.25 0.9811845 -0.49039096
v -0.84099966 1.25 -0.3016051
v -0.8409994 -1.25 -0.48112744
v -0.8409999 -1.25 -0.3016051
v -0.84099966 1.25 -0.3016051
v -0.8409995 1.25 -0.36631146
v -0.8409994 -1.25 -0.48430243
v -0.84099966 1.25 -0.3016051
v -0.8409994 -1.25 -0.48430243
v -0.8409994 -1.25 -0.48112744
v -0.8409995 1.2500001 -0.36631146
v -0.8409992 1.2500001 -0.49039066
v -0.8409994 -1.25 -0.49039066
v -0.8409995 1.2500001 -0.36631146
v -0.8409994 -1.25 -0.49039066
v -0.8409994 -1.25 -0.48430243
vt 0.22473145 0.72509766
vt 0.27685547 0.77197266
vt 0.4033203 0.55322266
vt 0.22473145 0.72509766
vt 0.4033203 0.55322266
vt 0.3984375 0.55322266
vt 0.27685547 0.77197266
vt 0.4099121 0.77197266
vt 0.4099121 0.55322266
vt 0.27685547 0.77197266
vt 0.4099121 0.55322266
vt 0.4033203 0.55322266
vt 0.22473145 0.72509766
vt 0.22473145 0.77197266
vt 0.27685547 0.77197266
vt 0.22473145 0.72509766
vt 0.3984375 0.55322266
vt 0.22473145 0.55322266
vt 0.4099121 0.77197266
vt 0.44604492 0.74853516
vt 0.41186523 0.55322266
vt 0.4099121 0.77197266
vt 0.41186523 0.55322266
vt 0.4099121 0.55322266
vt 0.44604492 0.74853516
vt 0.44604492 0.55322266
vt 0.41186523 0.55322266
vt 0.4099121 0.77197266
vt 0.44604492 0.77197266
vt 0.44604492 0.74853516
vt 0.4099121 0.77197266
vt 0.4099121 0.55322266
vt 0.4099121 0.55322266
vt 0.4099121 0.77197266
vt 0.4099121 0.77197266
vt 0.4099121 0.55322266
vt 0.4099121 0.77197266
vt 0.4099121 0.55322266
vt 0.4099121 0.55322266
vt 0.4099121 0.77197266
vt 0.4099121 0.77197266
vt 0.4099121 0.55322266
vt 0.4099121 0.77197266
vt 0.4099121 0.55322266
vt 0.4099121 0.55322266
vn -1.1920929E-07 -1.1920929E-07 -1
vn -1.1920929E-07 -1.1920929E-07 -1
vn -1.1920929E-07 -1.1920929E-07 -1
vn -1.1920929E-07 -1.1920929E-07 -1
vn -1.1920929E-07 -1.1920929E-07 -1
vn -1.1920929E-07 -1.1920929E-07 -1
vn -1.1920929E-07 -1.1920929E-07 -1
vn -1.1920929E-07 -1.1920929E-07 -1
vn -1.1920929E-07 -1.1920929E-07 -1
vn -1.1920929E-07 -1.1920929E-07 -1
vn -1.1920929E-07 -1.1920929E-07 -1
vn -1.1920929E-07 -1.1920929E-07 -1
vn -1.1920929E-07 -1.1920929E-07 -1
vn -1.1920929E-07 -1.1920929E-07 -1
vn -1.1920929E-07 -1.1920929E-07 -1
vn -1.1920929E-07 -1.1920929E-07 -1
vn -1.1920929E-07 -1.1920929E-07 -1
vn -1.1920929E-07 -1.1920929E-07 -1
vn -1.1920929E-07 -1.1920929E-07 -1
vn -1.1920929E-07 -1.1920929E-07 -1
vn -1.1920929E-07 -1.1920929E-07 -1
vn -1.1920929E-07 -1.1920929E-07 -1
vn -1.1920929E-07 -1.1920929E-07 -1
vn -1.1920929E-07 -1.1920929E-07 -1
vn -1.1920929E-07 -1.1920929E-07 -1
vn -1.1920929E-07 -1.1920929E-07 -1
vn -1.1920929E-07 -1.1920929E-07 -1
vn -1.1920929E-07 -1.1920929E-07 -1
vn -1.1920929E-07 -1.1920929E-07 -1
vn -1.1920929E-07 -1.1920929E-07 -1
vn 1 0 -2.3841858E-07
vn 1 0 -2.3841858E-07
vn 1 0 -2.3841858E-07
vn 1 0 -2.3841858E-07
vn 1 0 -2.3841858E-07
vn 1 0 -2.3841858E-07
vn 1 0 -2.3841858E-07
vn 1 0 -2.3841858E-07
vn 1 0 -2.3841858E-07
vn 1 0 -2.3841858E-07
vn 1 0 -2.3841858E-07
vn 1 0 -2.3841858E-07
vn 1 0 -2.3841858E-07
vn 1 0 -2.3841858E-07
vn 1 0 -2.3841858E-07
g DecalMesh_MetroArea_Decal_Ground_03__3_0
f 3/3/3 2/2/2 1/1/1
f 6/6/6 5/5/5 4/4/4
f 9/9/9 8/8/8 7/7/7
f 12/12/12 11/11/11 10/10/10
f 15/15/15 14/14/14 13/13/13
f 18/18/18 17/17/17 16/16/16
f 21/21/21 20/20/20 19/19/19
f 24/24/24 23/23/23 22/22/22
f 27/27/27 26/26/26 25/25/25
f 30/30/30 29/29/29 28/28/28
f 33/33/33 32/32/32 31/31/31
f 36/36/36 35/35/35 34/34/34
f 39/39/39 38/38/38 37/37/37
f 42/42/42 41/41/41 40/40/40
f 45/45/45 44/44/44 43/43/43
