g DecalMesh_MetroArea_Decal_Ground_16__5
v -0.9532974 1.0029999 -0.03742757
v -1 0.9343666 -0.037427552
v -1 0.9059359 -0.037427545
v -0.9532974 1.0029999 -0.03742757
v -1 1.0029999 -0.03742757
v -1 0.9343666 -0.037427552
v -0.8198964 1.0029999 -0.03742795
v -1 0.66030014 -0.03742781
v -1 0.56814885 -0.03742791
v -0.8198964 1.0029999 -0.03742795
v -0.9532974 1.0029999 -0.03742757
v -0.99999994 0.90593594 -0.037427545
v -0.8198964 1.0029999 -0.03742795
v -0.99999994 0.90593594 -0.037427545
v -1 0.66030014 -0.03742781
v -0.7915332 1.0029999 -0.03742795
v -1 0.51088166 -0.037427902
v -1 0.48174438 -0.037427902
v -0.7915332 1.0029999 -0.03742795
v -0.8198964 1.0029999 -0.03742795
v -1 0.56814885 -0.03742791
v -0.7915332 1.0029999 -0.03742795
v -1 0.56814885 -0.03742791
v -0.99999994 0.5108818 -0.037427902
v -0.59336233 1.0029999 -0.03742795
v -1 0.13015437 -0.03742787
v -1 -0.35050896 -0.03742782
v -0.59336233 1.0029999 -0.03742795
v -0.7915332 1.0029999 -0.03742795
v -1 0.48174432 -0.037427902
v -0.59336233 1.0029999 -0.03742795
v -1 0.48174432 -0.037427902
v -1 0.13015437 -0.03742787
v 0.0049999207 1.0030001 -0.037427902
v -0.99394345 -0.997 -0.037427742
v 0.0050006835 -0.997 -0.037427664
v 0.0049999207 1.0030001 -0.037427902
v -0.59336233 1.0029999 -0.03742795
v -1 -0.35050896 -0.03742782
v 0.0049999207 1.0030001 -0.037427902
v -1 -0.35050896 -0.03742782
v -1 -0.997 -0.037427742
v 0.0049999207 1.0030001 -0.037427902
v -1 -0.997 -0.037427742
v -0.99394345 -0.997 -0.037427742
v 0.2690947 1.003 -0.03742509
v 0.20313999 -0.997 -0.03742484
v 0.53429306 -0.997 -0.0374249
v 0.2690947 1.003 -0.03742509
v 0.005001068 1.0030001 -0.03742504
v 0.005001068 -0.99699986 -0.037424803
v 0.2690947 1.003 -0.03742509
v 0.005001068 -0.99699986 -0.037424803
v 0.20313999 -0.997 -0.03742484
v 0.2703788 1.0029999 -0.03742509
v 0.53511125 -0.997 -0.0374249
v 0.53686655 -0.997 -0.0374249
v 0.2703788 1.0029999 -0.03742509
v 0.2690947 1.003 -0.03742509
v 0.53429306 -0.9970001 -0.0374249
v 0.2703788 1.0029999 -0.03742509
v 0.53429306 -0.9970001 -0.0374249
v 0.5351112 -0.99699986 -0.0374249
v 1 1.0029999 -0.037425123
v 0.27037877 1.0030003 -0.03742509
v 0.53686655 -0.9969999 -0.0374249
v 1 1.0029999 -0.037425123
v 0.53686655 -0.9969999 -0.0374249
v 1 -0.99699986 -0.037424922
vt 0.27612305 0.5517578
vt 0.27929688 0.546875
vt 0.27929688 0.5449219
vt 0.27612305 0.5517578
vt 0.27929688 0.5517578
vt 0.27929688 0.546875
vt 0.2668457 0.5517578
vt 0.27929688 0.52783203
vt 0.27929688 0.5214844
vt 0.2668457 0.5517578
vt 0.27612305 0.5517578
vt 0.27929688 0.5449219
vt 0.2668457 0.5517578
vt 0.27929688 0.5449219
vt 0.27929688 0.52783203
vt 0.26489258 0.5517578
vt 0.27929688 0.5175781
vt 0.27929688 0.515625
vt 0.26489258 0.5517578
vt 0.2668457 0.5517578
vt 0.27929688 0.5214844
vt 0.26489258 0.5517578
vt 0.27929688 0.5214844
vt 0.27929688 0.5175781
vt 0.25097656 0.5517578
vt 0.27929688 0.4909668
vt 0.27929688 0.4572754
vt 0.25097656 0.5517578
vt 0.26489258 0.5517578
vt 0.27929688 0.515625
vt 0.25097656 0.5517578
vt 0.27929688 0.515625
vt 0.27929688 0.4909668
vt 0.20959473 0.5517578
vt 0.2788086 0.41210938
vt 0.20959473 0.41210938
vt 0.20959473 0.5517578
vt 0.25097656 0.5517578
vt 0.27929688 0.4572754
vt 0.20959473 0.5517578
vt 0.27929688 0.4572754
vt 0.27929688 0.41210938
vt 0.20959473 0.5517578
vt 0.27929688 0.41210938
vt 0.2788086 0.41210938
vt 0.19128418 0.5517578
vt 0.19592285 0.41210938
vt 0.17285156 0.41210938
vt 0.19128418 0.5517578
vt 0.20959473 0.5517578
vt 0.20959473 0.41210938
vt 0.19128418 0.5517578
vt 0.20959473 0.41210938
vt 0.19592285 0.41210938
vt 0.19116211 0.5517578
vt 0.17285156 0.41210938
vt 0.17272949 0.41210938
vt 0.19116211 0.5517578
vt 0.19128418 0.5517578
vt 0.17285156 0.41210938
vt 0.19116211 0.5517578
vt 0.17285156 0.41210938
vt 0.17285156 0.41210938
vt 0.140625 0.5517578
vt 0.19116211 0.5517578
vt 0.17272949 0.41210938
vt 0.140625 0.5517578
vt 0.17272949 0.41210938
vt 0.140625 0.41210938
vn -4.7683716E-07 -5.9604645E-08 -1
vn -4.7683716E-07 -5.9604645E-08 -1
vn -4.7683716E-07 -5.9604645E-08 -1
vn -4.7683716E-07 -5.9604645E-08 -1
vn -4.7683716E-07 -0 -1
vn -4.7683716E-07 -5.9604645E-08 -1
vn -1.4305115E-06 4.172325E-07 -1
vn -1.3709068E-06 3.5762787E-07 -1
vn -1.66893E-06 5.364418E-07 -1
vn -1.4305115E-06 4.172325E-07 -1
vn -4.7683716E-07 -5.9604645E-08 -1
vn -4.7683716E-07 -5.9604645E-08 -1
vn -1.4305115E-06 4.172325E-07 -1
vn -4.7683716E-07 -5.9604645E-08 -1
vn -1.3709068E-06 3.5762787E-07 -1
vn -0.0015029907 -1.1920929E-07 -1
vn -0.0012569427 1.1920929E-07 -1
vn -0.0018959045 -1.1920929E-07 -1
vn -0.0015029907 -1.1920929E-07 -1
vn -1.4305115E-06 4.172325E-07 -1
vn -1.66893E-06 5.364418E-07 -1
vn -0.0015029907 -1.1920929E-07 -1
vn -1.66893E-06 5.364418E-07 -1
vn -0.0012569427 1.1920929E-07 -1
vn -1.1920929E-07 -1.1920929E-07 -1
vn -0.0010948181 -1.1920929E-07 -1
vn -5.9604645E-08 -1.1920929E-07 -1
vn -1.1920929E-07 -1.1920929E-07 -1
vn -0.0015029907 -1.1920929E-07 -1
vn -0.0018959045 -1.1920929E-07 -1
vn -1.1920929E-07 -1.1920929E-07 -1
vn -0.0018959045 -1.1920929E-07 -1
vn -0.0010948181 -1.1920929E-07 -1
vn -2.3841858E-07 -5.9604645E-08 -1
vn -5.9604645E-08 -1.1920929E-07 -1
vn -2.3841858E-07 -5.9604645E-08 -1
vn -2.3841858E-07 -5.9604645E-08 -1
vn -1.1920929E-07 -1.1920929E-07 -1
vn -5.9604645E-08 -1.1920929E-07 -1
vn -2.3841858E-07 -5.9604645E-08 -1
vn -5.9604645E-08 -1.1920929E-07 -1
vn -5.9604645E-08 -1.1920929E-07 -1
vn -2.3841858E-07 -5.9604645E-08 -1
vn -5.9604645E-08 -1.1920929E-07 -1
vn -5.9604645E-08 -1.1920929E-07 -1
vn 5.9604645E-08 -0.0001244545 -1
vn 5.9604645E-08 -9.351969E-05 -1
vn 4.172325E-07 -0.00024938583 -1
vn 5.9604645E-08 -0.0001244545 -1
vn -1.7881393E-07 -1.1920929E-07 -1
vn -1.1920929E-07 -2.9802322E-07 -1
vn 5.9604645E-08 -0.0001244545 -1
vn -1.1920929E-07 -2.9802322E-07 -1
vn 5.9604645E-08 -9.351969E-05 -1
vn 5.9604645E-08 -0.00012505054 -1
vn 4.172325E-07 -0.00024986267 -1
vn 4.172325E-07 -0.00025057793 -1
vn 5.9604645E-08 -0.00012505054 -1
vn 5.9604645E-08 -0.0001244545 -1
vn 4.172325E-07 -0.00024938583 -1
vn 5.9604645E-08 -0.00012505054 -1
vn 4.172325E-07 -0.00024938583 -1
vn 4.172325E-07 -0.00024986267 -1
vn -5.9604645E-08 -7.1525574E-07 -1
vn 5.9604645E-08 -0.00012505054 -1
vn 4.172325E-07 -0.00025057793 -1
vn -5.9604645E-08 -7.1525574E-07 -1
vn 4.172325E-07 -0.00025057793 -1
vn 2.9802322E-07 -0.00017166138 -1
g DecalMesh_MetroArea_Decal_Ground_16__5_0
f 3/3/3 2/2/2 1/1/1
f 6/6/6 5/5/5 4/4/4
f 9/9/9 8/8/8 7/7/7
f 12/12/12 11/11/11 10/10/10
f 15/15/15 14/14/14 13/13/13
f 18/18/18 17/17/17 16/16/16
f 21/21/21 20/20/20 19/19/19
f 24/24/24 23/23/23 22/22/22
f 27/27/27 26/26/26 25/25/25
f 30/30/30 29/29/29 28/28/28
f 33/33/33 32/32/32 31/31/31
f 36/36/36 35/35/35 34/34/34
f 39/39/39 38/38/38 37/37/37
f 42/42/42 41/41/41 40/40/40
f 45/45/45 44/44/44 43/43/43
f 48/48/48 47/47/47 46/46/46
f 51/51/51 50/50/50 49/49/49
f 54/54/54 53/53/53 52/52/52
f 57/57/57 56/56/56 55/55/55
f 60/60/60 59/59/59 58/58/58
f 63/63/63 62/62/62 61/61/61
f 66/66/66 65/65/65 64/64/64
f 69/69/69 68/68/68 67/67/67
