g DecalMesh_MetroArea_Decal_Wall_21__7
v 0.62781286 0.5064118 0.03515341
v -0.6278128 0.83480835 0.035145972
v -0.6278128 -0.108622976 0.035146058
v 0.62781286 0.5064118 0.03515341
v 0.62781286 0.83756334 0.03515338
v -0.6278128 0.83756334 0.035145972
v 0.62781286 0.5064118 0.03515341
v -0.6278128 0.83756334 0.035145972
v -0.6278128 0.8348083 0.035145972
v 0.62781286 0.5064118 0.03515341
v -0.6278129 -0.10862301 0.035146058
v -0.15590945 -0.8375634 0.03514891
v 0.62781286 0.5064118 0.03515341
v -0.15590945 -0.8375634 0.03514891
v 0.62781286 -0.83756334 0.035153534
v -0.6278129 -0.10862301 0.035146058
v -0.6278129 -0.83756334 0.035146125
v -0.15590948 -0.83756334 0.03514891
vt 0.4350586 0.63427734
vt 0.55566406 0.66308594
vt 0.55566406 0.5800781
vt 0.4350586 0.63427734
vt 0.4350586 0.66308594
vt 0.55566406 0.66308594
vt 0.4350586 0.63427734
vt 0.55566406 0.66308594
vt 0.55566406 0.66308594
vt 0.4350586 0.63427734
vt 0.55566406 0.5800781
vt 0.5102539 0.515625
vt 0.4350586 0.63427734
vt 0.5102539 0.515625
vt 0.4350586 0.515625
vt 0.55566406 0.5800781
vt 0.55566406 0.515625
vt 0.5102539 0.515625
vn 5.90086E-06 -5.9604645E-08 -1
vn 5.90086E-06 -5.9604645E-08 -1
vn 5.90086E-06 -5.9604645E-08 -1
vn 5.90086E-06 -5.9604645E-08 -1
vn 5.90086E-06 -5.9604645E-08 -1
vn 5.90086E-06 -5.9604645E-08 -1
vn 5.90086E-06 -5.9604645E-08 -1
vn 5.90086E-06 -5.9604645E-08 -1
vn 5.90086E-06 -5.9604645E-08 -1
vn 5.90086E-06 -5.9604645E-08 -1
vn 5.90086E-06 -5.9604645E-08 -1
vn 5.90086E-06 -5.9604645E-08 -1
vn 5.90086E-06 -5.9604645E-08 -1
vn 5.90086E-06 -5.9604645E-08 -1
vn 5.90086E-06 -5.9604645E-08 -1
vn 5.90086E-06 -5.9604645E-08 -1
vn 5.90086E-06 -5.9604645E-08 -1
vn 5.90086E-06 -5.9604645E-08 -1
g DecalMesh_MetroArea_Decal_Wall_21__7_0
f 3/3/3 2/2/2 1/1/1
f 6/6/6 5/5/5 4/4/4
f 9/9/9 8/8/8 7/7/7
f 12/12/12 11/11/11 10/10/10
f 15/15/15 14/14/14 13/13/13
f 18/18/18 17/17/17 16/16/16
