g DecalMesh_MetroArea_Decal_Graffiti_26__83
v 1.2716376 -0.21808718 -0.31185707
v 0.22118135 0.43980384 -0.31186324
v -0.62353456 -0.43980378 -0.31186828
v 1.2716376 -0.21808718 -0.31185707
v -0.62353456 -0.43980378 -0.31186828
v 0.6427143 -0.43980375 -0.3118608
v 1.2716376 -0.21808718 -0.31185707
v 0.6427143 -0.43980378 -0.3118608
v 0.8456817 -0.43980378 -0.3118596
v 0.22118135 0.43980384 -0.31186324
v -1.2716376 0.43980384 -0.31187204
v -1.2716376 -0.43980378 -0.3118721
v 0.22118135 0.43980384 -0.31186324
v -1.2716376 -0.43980378 -0.3118721
v -0.62353456 -0.43980378 -0.31186828
v 1.2716376 -0.21808718 -0.31185707
v 1.2716377 0.43980378 -0.31185704
v 0.22118135 0.43980384 -0.31186324
v 1.2716376 -0.21808718 -0.31185707
v 0.8456817 -0.43980378 -0.3118596
v 1.2716376 -0.43980378 -0.31185707
vt 0.734375 0.16625977
vt 0.83935547 0.23205566
vt 0.9238281 0.14404297
vt 0.734375 0.16625977
vt 0.9238281 0.14404297
vt 0.7973633 0.14404297
vt 0.734375 0.16625977
vt 0.7973633 0.14404297
vt 0.77685547 0.14404297
vt 0.83935547 0.23205566
vt 0.98876953 0.23205566
vt 0.98876953 0.14404297
vt 0.83935547 0.23205566
vt 0.98876953 0.14404297
vt 0.9238281 0.14404297
vt 0.734375 0.16625977
vt 0.734375 0.23205566
vt 0.83935547 0.23205566
vt 0.734375 0.16625977
vt 0.77685547 0.14404297
vt 0.734375 0.14404297
vn 5.90086E-06 1.1920929E-07 -1
vn 5.90086E-06 1.1920929E-07 -1
vn 5.90086E-06 1.1920929E-07 -1
vn 5.90086E-06 1.1920929E-07 -1
vn 5.90086E-06 1.1920929E-07 -1
vn 5.90086E-06 1.1920929E-07 -1
vn 5.90086E-06 1.1920929E-07 -1
vn 5.90086E-06 1.1920929E-07 -1
vn 5.90086E-06 1.1920929E-07 -1
vn 5.90086E-06 1.1920929E-07 -1
vn 5.90086E-06 1.1920929E-07 -1
vn 5.90086E-06 1.1920929E-07 -1
vn 5.90086E-06 1.1920929E-07 -1
vn 5.90086E-06 1.1920929E-07 -1
vn 5.90086E-06 1.1920929E-07 -1
vn 5.90086E-06 1.1920929E-07 -1
vn 5.90086E-06 1.1920929E-07 -1
vn 5.90086E-06 1.1920929E-07 -1
vn 5.90086E-06 1.1920929E-07 -1
vn 5.90086E-06 1.1920929E-07 -1
vn 5.90086E-06 1.1920929E-07 -1
g DecalMesh_MetroArea_Decal_Graffiti_26__83_0
f 3/3/3 2/2/2 1/1/1
f 6/6/6 5/5/5 4/4/4
f 9/9/9 8/8/8 7/7/7
f 12/12/12 11/11/11 10/10/10
f 15/15/15 14/14/14 13/13/13
f 18/18/18 17/17/17 16/16/16
f 21/21/21 20/20/20 19/19/19
