g DecalMesh_MetroArea_Decal_Graffiti_25__49
v -0.47765374 0.6689389 -0.50998604
v -1.2646544 0.58986485 -0.5099764
v -0.42286044 -0.6689389 -0.50998956
v -0.47765374 0.6689389 -0.50998604
v -0.42286044 -0.6689389 -0.50998956
v -0.057624903 -0.6689389 -0.50999415
v -1.2646544 0.58986485 -0.5099764
v -1.2646543 -0.6689388 -0.50997907
v -0.42286038 -0.66893893 -0.50998956
v -0.47765374 0.6689389 -0.50998604
v -1.2646544 0.6689389 -0.5099762
v -1.2646543 0.58986485 -0.5099764
v -0.4776523 0.6689389 -0.3916923
v -0.4776534 0.66893893 -0.4802152
v -0.057623975 -0.6689389 -0.4302057
v -0.4776523 0.6689389 -0.3916923
v -0.057623975 -0.6689389 -0.4302057
v -0.0576235 -0.6689389 -0.39171007
v -0.4776534 0.66893893 -0.4802152
v -0.05762474 -0.66893893 -0.49704778
v -0.057623953 -0.66893893 -0.4302057
v -0.4776534 0.66893893 -0.4802152
v -0.47765374 0.6689389 -0.50998604
v -0.057624903 -0.6689389 -0.50999415
v -0.4776534 0.66893893 -0.4802152
v -0.057624903 -0.6689389 -0.50999415
v -0.05762476 -0.6689389 -0.49704778
v 1.2646544 -0.34497097 -0.5100099
v 0.14855932 0.6689389 -0.50999385
v 0.21454383 -0.6689389 -0.50999755
v 1.2646544 -0.34497097 -0.5100099
v 0.21454383 -0.6689389 -0.50999755
v 1.0254655 -0.6689389 -0.5100076
v 0.14855932 0.6689389 -0.50999385
v -0.47794166 0.66893893 -0.50998604
v -0.057912804 -0.6689389 -0.50999415
v 0.14855932 0.6689389 -0.50999385
v -0.057912804 -0.6689389 -0.50999415
v 0.21454383 -0.6689389 -0.50999755
v 1.2646544 -0.34497097 -0.5100099
v 1.2646544 0.6689389 -0.51000774
v 0.14855926 0.6689389 -0.50999385
v 1.2646544 -0.34497097 -0.5100099
v 1.0254655 -0.6689389 -0.5100076
v 1.2646544 -0.6689389 -0.5100106
vt 0.6333008 0.32666016
vt 0.7373047 0.31762695
vt 0.62597656 0.17541504
vt 0.6333008 0.32666016
vt 0.62597656 0.17541504
vt 0.5776367 0.17541504
vt 0.7373047 0.31762695
vt 0.7373047 0.17541504
vt 0.62597656 0.17541504
vt 0.6333008 0.32666016
vt 0.7373047 0.32666016
vt 0.7373047 0.31762695
vt 0.6333008 0.32666016
vt 0.6333008 0.32666016
vt 0.5776367 0.17541504
vt 0.6333008 0.32666016
vt 0.5776367 0.17541504
vt 0.5776367 0.17541504
vt 0.6333008 0.32666016
vt 0.5776367 0.17541504
vt 0.5776367 0.17541504
vt 0.6333008 0.32666016
vt 0.6333008 0.32666016
vt 0.5776367 0.17541504
vt 0.6333008 0.32666016
vt 0.5776367 0.17541504
vt 0.5776367 0.17541504
vt 0.4020996 0.21203613
vt 0.55029297 0.32666016
vt 0.5415039 0.17541504
vt 0.4020996 0.21203613
vt 0.5415039 0.17541504
vt 0.4338379 0.17541504
vt 0.55029297 0.32666016
vt 0.6333008 0.32666016
vt 0.5776367 0.17541504
vt 0.55029297 0.32666016
vt 0.5776367 0.17541504
vt 0.5415039 0.17541504
vt 0.4020996 0.21203613
vt 0.4020996 0.32666016
vt 0.55029297 0.32666016
vt 0.4020996 0.21203613
vt 0.4338379 0.17541504
vt 0.4020996 0.17541504
vn -1.2516975E-05 2.2649765E-06 -1
vn -1.2516975E-05 2.2649765E-06 -1
vn -1.2516975E-05 2.2649765E-06 -1
vn -1.2516975E-05 2.2649765E-06 -1
vn -1.2516975E-05 2.2649765E-06 -1
vn -1.2516975E-05 2.2649765E-06 -1
vn -1.2516975E-05 2.2649765E-06 -1
vn -1.2516975E-05 2.2649765E-06 -1
vn -1.2516975E-05 2.2649765E-06 -1
vn -1.2516975E-05 2.2649765E-06 -1
vn -1.2516975E-05 2.2649765E-06 -1
vn -1.2516975E-05 2.2649765E-06 -1
vn 0.95410156 0.29956055 -1.0073185E-05
vn 0.95410156 0.29956055 -1.0371208E-05
vn 0.95410156 0.29956055 -1.013279E-05
vn 0.95410156 0.29956055 -1.0073185E-05
vn 0.95410156 0.29956055 -1.013279E-05
vn 0.95410156 0.29956055 -1.001358E-05
vn 0.95410156 0.29956055 -1.0371208E-05
vn 0.95410156 0.29956055 -1.013279E-05
vn 0.95410156 0.29956055 -1.013279E-05
vn 0.95410156 0.29956055 -1.0371208E-05
vn 0.95410156 0.29956055 -1.0371208E-05
vn 0.95410156 0.29956055 -1.013279E-05
vn 0.95410156 0.29956055 -1.0371208E-05
vn 0.95410156 0.29956055 -1.013279E-05
vn 0.95410156 0.29956055 -1.013279E-05
vn -1.2516975E-05 2.2649765E-06 -1
vn -1.2516975E-05 2.2649765E-06 -1
vn -1.2516975E-05 2.2649765E-06 -1
vn -1.2516975E-05 2.2649765E-06 -1
vn -1.2516975E-05 2.2649765E-06 -1
vn -1.2516975E-05 2.2649765E-06 -1
vn -1.2516975E-05 2.2649765E-06 -1
vn -1.2516975E-05 2.2649765E-06 -1
vn -1.2516975E-05 2.2649765E-06 -1
vn -1.2516975E-05 2.2649765E-06 -1
vn -1.2516975E-05 2.2649765E-06 -1
vn -1.2516975E-05 2.2649765E-06 -1
vn -1.2516975E-05 2.2649765E-06 -1
vn -1.2516975E-05 2.2649765E-06 -1
vn -1.2516975E-05 2.2649765E-06 -1
vn -1.2516975E-05 2.2649765E-06 -1
vn -1.2516975E-05 2.2649765E-06 -1
vn -1.2516975E-05 2.2649765E-06 -1
g DecalMesh_MetroArea_Decal_Graffiti_25__49_0
f 3/3/3 2/2/2 1/1/1
f 6/6/6 5/5/5 4/4/4
f 9/9/9 8/8/8 7/7/7
f 12/12/12 11/11/11 10/10/10
f 15/15/15 14/14/14 13/13/13
f 18/18/18 17/17/17 16/16/16
f 21/21/21 20/20/20 19/19/19
f 24/24/24 23/23/23 22/22/22
f 27/27/27 26/26/26 25/25/25
f 30/30/30 29/29/29 28/28/28
f 33/33/33 32/32/32 31/31/31
f 36/36/36 35/35/35 34/34/34
f 39/39/39 38/38/38 37/37/37
f 42/42/42 41/41/41 40/40/40
f 45/45/45 44/44/44 43/43/43
