g DecalMesh_MainCity_Decal_Graffiti_05__52
v 1.5016798 0.2654216 -0.10339313
v 0.609867 0.42046258 -0.13272598
v 1.1410153 -0.6508727 -0.10982246
v 1.5016798 0.2654216 -0.10339313
v 1.1410153 -0.6508727 -0.10982246
v 1.5016798 -0.6508727 -0.098307736
v 0.609867 0.42046258 -0.13272598
v 0.30590916 -0.65087265 -0.1364829
v 1.1002991 -0.65087277 -0.11112231
v 0.609867 0.42046258 -0.13272598
v 1.1002991 -0.65087277 -0.11112231
v 1.1410153 -0.6508727 -0.10982246
v 0.609867 0.42046258 -0.13272598
v 0.5980556 0.65087277 -0.13438194
v 0.2805369 -0.6508727 -0.13729286
v 0.609867 0.42046258 -0.13272598
v 0.2805369 -0.6508727 -0.13729286
v 0.30590916 -0.6508727 -0.1364829
v 0.5980556 0.65087277 -0.13438194
v 0.4621755 0.6508727 -0.13871968
v 0.23586921 -0.6508727 -0.1387188
v 0.5980556 0.65087277 -0.13438194
v 0.23586921 -0.6508727 -0.1387188
v 0.2805369 -0.6508727 -0.13729286
v 0.609867 0.42046258 -0.13272598
v 0.6499219 0.6508727 -0.13272583
v 0.5980556 0.6508727 -0.13438194
v 0.066243075 0.65087277 -0.1513601
v -1.0395395 0.6508727 -0.18666176
v -1.2658465 -0.6508727 -0.18666182
v 0.066243075 0.65087277 -0.1513601
v -1.2658465 -0.6508727 -0.18666182
v -1.0139247 -0.6508727 -0.17861933
v 0.4621755 0.6508727 -0.13871968
v -0.92372257 -0.6508727 -0.17573956
v 0.23586921 -0.6508727 -0.1387188
v 0.4621755 0.6508727 -0.13871968
v 0.06624302 0.6508727 -0.1513601
v -1.0139247 -0.6508727 -0.17861933
v 0.4621755 0.6508727 -0.13871968
v -1.0139247 -0.6508727 -0.17861933
v -0.92372257 -0.6508727 -0.17573956
v -1.0395395 0.6508727 -0.18666176
v -1.5016798 0.27276376 -0.19931746
v -1.3822689 -0.6508727 -0.19037873
v -1.0395395 0.6508727 -0.18666176
v -1.3822689 -0.6508727 -0.19037873
v -1.2658465 -0.6508727 -0.18666182
v -1.5016798 0.27276376 -0.19931746
v -1.5016798 -0.6508727 -0.19419104
v -1.3822689 -0.6508727 -0.19037873
v -1.0395395 0.6508727 -0.18666176
v -1.5016799 0.6508727 -0.20141606
v -1.5016798 0.27276373 -0.19931746
v 0.609867 0.42046258 -0.13272598
v 1.5016798 0.2654216 -0.10339313
v 1.5016798 0.6508727 -0.10553244
v 0.609867 0.42046258 -0.13272598
v 1.5016798 0.6508727 -0.10553244
v 1.2182109 0.6508727 -0.11458257
v 0.609867 0.42046258 -0.13272598
v 1.2182109 0.6508727 -0.11458257
v 0.6499219 0.6508727 -0.13272583
vt -0.5371094 1.8222656
vt -0.43847656 1.8359375
vt -0.49731445 1.7392578
vt -0.5371094 1.8222656
vt -0.49731445 1.7392578
vt -0.5371094 1.7392578
vt -0.43847656 1.8359375
vt -0.40478516 1.7392578
vt -0.49267578 1.7392578
vt -0.43847656 1.8359375
vt -0.49267578 1.7392578
vt -0.49731445 1.7392578
vt -0.43847656 1.8359375
vt -0.43701172 1.8564453
vt -0.40185547 1.7392578
vt -0.43847656 1.8359375
vt -0.40185547 1.7392578
vt -0.40478516 1.7392578
vt -0.43701172 1.8564453
vt -0.42211914 1.8564453
vt -0.39697266 1.7392578
vt -0.43701172 1.8564453
vt -0.39697266 1.7392578
vt -0.40185547 1.7392578
vt -0.43847656 1.8359375
vt -0.4428711 1.8564453
vt -0.43701172 1.8564453
vt -0.37817383 1.8564453
vt -0.25561523 1.8564453
vt -0.23046875 1.7392578
vt -0.37817383 1.8564453
vt -0.23046875 1.7392578
vt -0.25830078 1.7392578
vt -0.42211914 1.8564453
vt -0.26831055 1.7392578
vt -0.39697266 1.7392578
vt -0.42211914 1.8564453
vt -0.37817383 1.8564453
vt -0.25830078 1.7392578
vt -0.42211914 1.8564453
vt -0.25830078 1.7392578
vt -0.26831055 1.7392578
vt -0.25561523 1.8564453
vt -0.2043457 1.8232422
vt -0.2175293 1.7392578
vt -0.25561523 1.8564453
vt -0.2175293 1.7392578
vt -0.23046875 1.7392578
vt -0.2043457 1.8232422
vt -0.2043457 1.7392578
vt -0.2175293 1.7392578
vt -0.25561523 1.8564453
vt -0.2043457 1.8564453
vt -0.2043457 1.8232422
vt -0.43847656 1.8359375
vt -0.5371094 1.8222656
vt -0.5371094 1.8564453
vt -0.43847656 1.8359375
vt -0.5371094 1.8564453
vt -0.5058594 1.8564453
vt -0.43847656 1.8359375
vt -0.5058594 1.8564453
vt -0.4428711 1.8564453
vn 0.031921387 -0.00554657 -0.9995117
vn 0.031921387 -0.00554657 -0.9995117
vn 0.031921387 -0.00554657 -0.9995117
vn 0.031921387 -0.00554657 -0.9995117
vn 0.031921387 -0.00554657 -0.9995117
vn 0.031921387 -0.00554657 -0.9995117
vn 0.031921387 -0.00554657 -0.9995117
vn 0.031921387 -0.00554657 -0.9995117
vn 0.031921387 -0.00554657 -0.9995117
vn 0.031921387 -0.00554657 -0.9995117
vn 0.031921387 -0.00554657 -0.9995117
vn 0.031921387 -0.00554657 -0.9995117
vn 0.031921387 -0.00554657 -0.9995117
vn 0.031921387 -0.00554657 -0.9995117
vn 0.031921387 -0.00554657 -0.9995117
vn 0.031921387 -0.00554657 -0.9995117
vn 0.031921387 -0.00554657 -0.9995117
vn 0.031921387 -0.00554657 -0.9995117
vn 0.031921387 -0.00554657 -0.9995117
vn 0.031921387 -0.00554657 -0.9995117
vn 0.031921387 -0.00554657 -0.9995117
vn 0.031921387 -0.00554657 -0.9995117
vn 0.031921387 -0.00554657 -0.9995117
vn 0.031921387 -0.00554657 -0.9995117
vn 0.031921387 -0.00554657 -0.9995117
vn 0.031921387 -0.00554657 -0.9995117
vn 0.031921387 -0.00554657 -0.9995117
vn 0.031921387 -0.00554657 -0.9995117
vn 0.031921387 -0.00554657 -0.9995117
vn 0.031921387 -0.00554657 -0.9995117
vn 0.031921387 -0.00554657 -0.9995117
vn 0.031921387 -0.00554657 -0.9995117
vn 0.031921387 -0.00554657 -0.9995117
vn 0.031921387 -0.00554657 -0.9995117
vn 0.031921387 -0.00554657 -0.9995117
vn 0.031921387 -0.00554657 -0.9995117
vn 0.031921387 -0.00554657 -0.9995117
vn 0.031921387 -0.00554657 -0.9995117
vn 0.031921387 -0.00554657 -0.9995117
vn 0.031921387 -0.00554657 -0.9995117
vn 0.031921387 -0.00554657 -0.9995117
vn 0.031921387 -0.00554657 -0.9995117
vn 0.031921387 -0.00554657 -0.9995117
vn 0.031921387 -0.00554657 -0.9995117
vn 0.031921387 -0.00554657 -0.9995117
vn 0.031921387 -0.00554657 -0.9995117
vn 0.031921387 -0.00554657 -0.9995117
vn 0.031921387 -0.00554657 -0.9995117
vn 0.031921387 -0.00554657 -0.9995117
vn 0.031921387 -0.00554657 -0.9995117
vn 0.031921387 -0.00554657 -0.9995117
vn 0.031921387 -0.00554657 -0.9995117
vn 0.031921387 -0.00554657 -0.9995117
vn 0.031921387 -0.00554657 -0.9995117
vn 0.031921387 -0.00554657 -0.9995117
vn 0.031921387 -0.00554657 -0.9995117
vn 0.031921387 -0.00554657 -0.9995117
vn 0.031921387 -0.00554657 -0.9995117
vn 0.031921387 -0.00554657 -0.9995117
vn 0.031921387 -0.00554657 -0.9995117
vn 0.031921387 -0.00554657 -0.9995117
vn 0.031921387 -0.00554657 -0.9995117
vn 0.031921387 -0.00554657 -0.9995117
g DecalMesh_MainCity_Decal_Graffiti_05__52_0
f 3/3/3 2/2/2 1/1/1
f 6/6/6 5/5/5 4/4/4
f 9/9/9 8/8/8 7/7/7
f 12/12/12 11/11/11 10/10/10
f 15/15/15 14/14/14 13/13/13
f 18/18/18 17/17/17 16/16/16
f 21/21/21 20/20/20 19/19/19
f 24/24/24 23/23/23 22/22/22
f 27/27/27 26/26/26 25/25/25
f 30/30/30 29/29/29 28/28/28
f 33/33/33 32/32/32 31/31/31
f 36/36/36 35/35/35 34/34/34
f 39/39/39 38/38/38 37/37/37
f 42/42/42 41/41/41 40/40/40
f 45/45/45 44/44/44 43/43/43
f 48/48/48 47/47/47 46/46/46
f 51/51/51 50/50/50 49/49/49
f 54/54/54 53/53/53 52/52/52
f 57/57/57 56/56/56 55/55/55
f 60/60/60 59/59/59 58/58/58
f 63/63/63 62/62/62 61/61/61
