g DecalMesh_MainCity_Decal_Graffiti_15__64
v 0.8334254 0.6663221 -0.13925561
v 0.71356654 -0.6663221 -0.13948725
v 0.9349649 -0.6663221 -0.13738814
v 0.8334254 0.6663221 -0.13925561
v 0.76461226 0.6663221 -0.13990803
v 0.6691841 -0.66632205 -0.13990805
v 0.8334254 0.6663221 -0.13925561
v 0.6691841 -0.66632205 -0.13990805
v 0.71356654 -0.66632205 -0.13948725
v 1.0391569 0.45629764 -0.13716245
v 0.9641731 0.6663221 -0.13801597
v 1.0011816 -0.6663221 -0.13676034
v 1.0391569 0.45629764 -0.13716245
v 1.0011816 -0.6663221 -0.13676034
v 1.0391569 -0.6663221 -0.13640028
v 0.9641731 0.6663221 -0.13801597
v 0.8334254 0.6663221 -0.13925561
v 0.9349649 -0.6663221 -0.13738814
v 0.9641731 0.6663221 -0.13801597
v 0.9349649 -0.6663221 -0.13738814
v 1.0011816 -0.6663221 -0.13676034
v 1.0391569 0.45629758 -0.13716245
v 1.0391569 0.6663221 -0.13730541
v 0.9641731 0.6663221 -0.13801597
v 0.4450605 0.6663221 -0.14293636
v -1.039157 0.6663222 -0.15700197
v -1.0391569 -0.6663221 -0.15609762
v 0.4450605 0.6663221 -0.14293636
v -1.0391569 -0.6663221 -0.15609762
v -0.56503904 -0.6663221 -0.15160452
v 0.76461226 0.6663221 -0.13990803
v -0.3652111 -0.6663222 -0.14971079
v 0.6691841 -0.6663221 -0.13990805
v 0.76461226 0.6663221 -0.13990803
v 0.44506046 0.6663221 -0.14293636
v -0.56503904 -0.6663221 -0.15160452
v 0.76461226 0.6663221 -0.13990803
v -0.56503904 -0.6663221 -0.15160452
v -0.46296152 -0.6663221 -0.15063715
v 0.76461226 0.6663221 -0.13990803
v -0.46296152 -0.6663221 -0.15063715
v -0.3652111 -0.6663222 -0.14971079
v 0.8334254 0.6663221 -0.13925561
v 0.71356654 -0.6663221 -0.13948725
v 0.9349649 -0.6663221 -0.13738814
v 0.8334254 0.6663221 -0.13925561
v 0.76461226 0.6663221 -0.13990803
v 0.6691841 -0.66632205 -0.13990805
v 0.8334254 0.6663221 -0.13925561
v 0.6691841 -0.66632205 -0.13990805
v 0.71356654 -0.66632205 -0.13948725
v 1.0391569 0.45629764 -0.13716245
v 0.9641731 0.6663221 -0.13801597
v 1.0011816 -0.6663221 -0.13676034
v 1.0391569 0.45629764 -0.13716245
v 1.0011816 -0.6663221 -0.13676034
v 1.0391569 -0.6663221 -0.13640028
v 0.9641731 0.6663221 -0.13801597
v 0.8334254 0.6663221 -0.13925561
v 0.9349649 -0.6663221 -0.13738814
v 0.9641731 0.6663221 -0.13801597
v 0.9349649 -0.6663221 -0.13738814
v 1.0011816 -0.6663221 -0.13676034
v 1.0391569 0.45629758 -0.13716245
v 1.0391569 0.6663221 -0.13730541
v 0.9641731 0.6663221 -0.13801597
v 0.4450605 0.6663221 -0.14293636
v -1.039157 0.6663222 -0.15700197
v -1.0391569 -0.6663221 -0.15609762
v 0.4450605 0.6663221 -0.14293636
v -1.0391569 -0.6663221 -0.15609762
v -0.56503904 -0.6663221 -0.15160452
v 0.76461226 0.6663221 -0.13990803
v -0.3652111 -0.6663222 -0.14971079
v 0.6691841 -0.6663221 -0.13990805
v 0.76461226 0.6663221 -0.13990803
v 0.44506046 0.6663221 -0.14293636
v -0.56503904 -0.6663221 -0.15160452
v 0.76461226 0.6663221 -0.13990803
v -0.56503904 -0.6663221 -0.15160452
v -0.46296152 -0.6663221 -0.15063715
v 0.76461226 0.6663221 -0.13990803
v -0.46296152 -0.6663221 -0.15063715
v -0.3652111 -0.6663222 -0.14971079
vt -0.22265625 1.5039062
vt -0.21459961 1.3984375
vt -0.22937012 1.3984375
vt -0.22265625 1.5039062
vt -0.21801758 1.5039062
vt -0.21166992 1.3984375
vt -0.22265625 1.5039062
vt -0.21166992 1.3984375
vt -0.21459961 1.3984375
vt -0.23632812 1.4873047
vt -0.23132324 1.5039062
vt -0.23388672 1.3984375
vt -0.23632812 1.4873047
vt -0.23388672 1.3984375
vt -0.23632812 1.3984375
vt -0.23132324 1.5039062
vt -0.22265625 1.5039062
vt -0.22937012 1.3984375
vt -0.23132324 1.5039062
vt -0.22937012 1.3984375
vt -0.23388672 1.3984375
vt -0.23632812 1.4873047
vt -0.23632812 1.5039062
vt -0.23132324 1.5039062
vt -0.19665527 1.5039062
vt -0.097595215 1.5039062
vt -0.097595215 1.3984375
vt -0.19665527 1.5039062
vt -0.097595215 1.3984375
vt -0.12927246 1.3984375
vt -0.21801758 1.5039062
vt -0.14257812 1.3984375
vt -0.21166992 1.3984375
vt -0.21801758 1.5039062
vt -0.19665527 1.5039062
vt -0.12927246 1.3984375
vt -0.21801758 1.5039062
vt -0.12927246 1.3984375
vt -0.1361084 1.3984375
vt -0.21801758 1.5039062
vt -0.1361084 1.3984375
vt -0.14257812 1.3984375
vt -0.22265625 1.5039062
vt -0.21459961 1.3984375
vt -0.22937012 1.3984375
vt -0.22265625 1.5039062
vt -0.21801758 1.5039062
vt -0.21166992 1.3984375
vt -0.22265625 1.5039062
vt -0.21166992 1.3984375
vt -0.21459961 1.3984375
vt -0.23632812 1.4873047
vt -0.23132324 1.5039062
vt -0.23388672 1.3984375
vt -0.23632812 1.4873047
vt -0.23388672 1.3984375
vt -0.23632812 1.3984375
vt -0.23132324 1.5039062
vt -0.22265625 1.5039062
vt -0.22937012 1.3984375
vt -0.23132324 1.5039062
vt -0.22937012 1.3984375
vt -0.23388672 1.3984375
vt -0.23632812 1.4873047
vt -0.23632812 1.5039062
vt -0.23132324 1.5039062
vt -0.19665527 1.5039062
vt -0.097595215 1.5039062
vt -0.097595215 1.3984375
vt -0.19665527 1.5039062
vt -0.097595215 1.3984375
vt -0.12927246 1.3984375
vt -0.21801758 1.5039062
vt -0.14257812 1.3984375
vt -0.21166992 1.3984375
vt -0.21801758 1.5039062
vt -0.19665527 1.5039062
vt -0.12927246 1.3984375
vt -0.21801758 1.5039062
vt -0.12927246 1.3984375
vt -0.1361084 1.3984375
vt -0.21801758 1.5039062
vt -0.1361084 1.3984375
vt -0.14257812 1.3984375
vn 0.009475708 -0.00067949295 -1
vn 0.009475708 -0.0006785393 -1
vn 0.009475708 -0.0006785393 -1
vn 0.009475708 -0.00067949295 -1
vn 0.009475708 -0.0006790161 -1
vn 0.009475708 -0.0006785393 -1
vn 0.009475708 -0.00067949295 -1
vn 0.009475708 -0.0006785393 -1
vn 0.009475708 -0.0006785393 -1
vn 0.009475708 -0.00067949295 -1
vn 0.009475708 -0.00067949295 -1
vn 0.009475708 -0.0006785393 -1
vn 0.009475708 -0.00067949295 -1
vn 0.009475708 -0.0006785393 -1
vn 0.009475708 -0.0006785393 -1
vn 0.009475708 -0.00067949295 -1
vn 0.009475708 -0.00067949295 -1
vn 0.009475708 -0.0006785393 -1
vn 0.009475708 -0.00067949295 -1
vn 0.009475708 -0.0006785393 -1
vn 0.009475708 -0.0006785393 -1
vn 0.009475708 -0.00067949295 -1
vn 0.009475708 -0.00067949295 -1
vn 0.009475708 -0.00067949295 -1
vn 0.009475708 -0.0006785393 -1
vn 0.009475708 -0.0006785393 -1
vn 0.009475708 -0.0006785393 -1
vn 0.009475708 -0.0006785393 -1
vn 0.009475708 -0.0006785393 -1
vn 0.009475708 -0.0006785393 -1
vn 0.009475708 -0.0006785393 -1
vn 0.009475708 -0.0006785393 -1
vn 0.009475708 -0.0006785393 -1
vn 0.009475708 -0.0006785393 -1
vn 0.009475708 -0.0006785393 -1
vn 0.009475708 -0.0006785393 -1
vn 0.009475708 -0.0006785393 -1
vn 0.009475708 -0.0006785393 -1
vn 0.009475708 -0.0006785393 -1
vn 0.009475708 -0.0006785393 -1
vn 0.009475708 -0.0006785393 -1
vn 0.009475708 -0.0006785393 -1
vn 0.009475708 -0.00067949295 -1
vn 0.009475708 -0.0006785393 -1
vn 0.009475708 -0.0006785393 -1
vn 0.009475708 -0.00067949295 -1
vn 0.009475708 -0.0006790161 -1
vn 0.009475708 -0.0006785393 -1
vn 0.009475708 -0.00067949295 -1
vn 0.009475708 -0.0006785393 -1
vn 0.009475708 -0.0006785393 -1
vn 0.009475708 -0.00067949295 -1
vn 0.009475708 -0.00067949295 -1
vn 0.009475708 -0.0006785393 -1
vn 0.009475708 -0.00067949295 -1
vn 0.009475708 -0.0006785393 -1
vn 0.009475708 -0.0006785393 -1
vn 0.009475708 -0.00067949295 -1
vn 0.009475708 -0.00067949295 -1
vn 0.009475708 -0.0006785393 -1
vn 0.009475708 -0.00067949295 -1
vn 0.009475708 -0.0006785393 -1
vn 0.009475708 -0.0006785393 -1
vn 0.009475708 -0.00067949295 -1
vn 0.009475708 -0.00067949295 -1
vn 0.009475708 -0.00067949295 -1
vn 0.009475708 -0.0006785393 -1
vn 0.009475708 -0.0006785393 -1
vn 0.009475708 -0.0006785393 -1
vn 0.009475708 -0.0006785393 -1
vn 0.009475708 -0.0006785393 -1
vn 0.009475708 -0.0006785393 -1
vn 0.009475708 -0.0006785393 -1
vn 0.009475708 -0.0006785393 -1
vn 0.009475708 -0.0006785393 -1
vn 0.009475708 -0.0006785393 -1
vn 0.009475708 -0.0006785393 -1
vn 0.009475708 -0.0006785393 -1
vn 0.009475708 -0.0006785393 -1
vn 0.009475708 -0.0006785393 -1
vn 0.009475708 -0.0006785393 -1
vn 0.009475708 -0.0006785393 -1
vn 0.009475708 -0.0006785393 -1
vn 0.009475708 -0.0006785393 -1
g DecalMesh_MainCity_Decal_Graffiti_15__64_0
f 3/3/3 2/2/2 1/1/1
f 6/6/6 5/5/5 4/4/4
f 9/9/9 8/8/8 7/7/7
f 12/12/12 11/11/11 10/10/10
f 15/15/15 14/14/14 13/13/13
f 18/18/18 17/17/17 16/16/16
f 21/21/21 20/20/20 19/19/19
f 24/24/24 23/23/23 22/22/22
f 27/27/27 26/26/26 25/25/25
f 30/30/30 29/29/29 28/28/28
f 33/33/33 32/32/32 31/31/31
f 36/36/36 35/35/35 34/34/34
f 39/39/39 38/38/38 37/37/37
f 42/42/42 41/41/41 40/40/40
f 45/45/45 44/44/44 43/43/43
f 48/48/48 47/47/47 46/46/46
f 51/51/51 50/50/50 49/49/49
f 54/54/54 53/53/53 52/52/52
f 57/57/57 56/56/56 55/55/55
f 60/60/60 59/59/59 58/58/58
f 63/63/63 62/62/62 61/61/61
f 66/66/66 65/65/65 64/64/64
f 69/69/69 68/68/68 67/67/67
f 72/72/72 71/71/71 70/70/70
f 75/75/75 74/74/74 73/73/73
f 78/78/78 77/77/77 76/76/76
f 81/81/81 80/80/80 79/79/79
f 84/84/84 83/83/83 82/82/82
