g DecalMesh_MetroArea_Decal_Crack_04__8
v -2.3790877 0.31709096 0.024065495
v -0.9483773 4.003 0.026243227
v -2.1044784 4.003 0.026173828
v -2.3790877 0.31709096 0.024065495
v 0.14482991 4.003 0.026308857
v -0.94837725 4.003 0.026243227
v -2.3790877 0.31709096 0.024065495
v -2.1044784 4.003 0.026173828
v -3.1297019 4.003 0.026112156
v -2.3790877 0.31709096 0.024065495
v 1.6271693 4.003 0.026398163
v 0.14482991 4.003 0.026308857
v -2.3790877 0.31709096 0.024065495
v -3.1297019 4.003 0.026112156
v -4 4.003 0.026059974
v -2.3790877 0.31709096 0.024065495
v -4 4.003 0.026059974
v -4 3.9729705 0.026042933
v -2.3790877 0.31709096 0.024065495
v 3.8078003 4.003 0.026529146
v 1.6271693 4.003 0.026398163
v -2.3790877 0.31709096 0.024065495
v -4 3.9729705 0.026042933
v -4 2.5473118 0.025233854
v -2.3790877 0.31709096 0.024065495
v 4 1.677828 0.025221266
v 4 4.003 0.026540704
v -2.3790877 0.31709096 0.024065495
v 4 4.003 0.026540704
v 3.8078 4.003 0.026529146
v -2.3790877 0.31709096 0.024065495
v -4 2.5473118 0.025233854
v -4 1.8953902 0.024863936
v -2.3790877 0.31709096 0.024065495
v 3.9999998 -0.07228555 0.024227824
v 4 1.677828 0.025221266
v -2.3790877 0.31709096 0.024065495
v -4 1.8953902 0.024863936
v -4 1.4627999 0.024618337
v -2.3790877 0.31709096 0.024065495
v 4 -1.4124516 0.02346756
v 3.9999998 -0.07228555 0.024227824
v -2.3790877 0.31709096 0.024065495
v -4 1.4627999 0.024618337
v -4 1.2041683 0.024471598
v -2.3790877 0.31709096 0.024065495
v 4 -2.86535 0.022642694
v 4 -1.4124516 0.02346756
v -2.3790877 0.31709096 0.024065495
v -4 1.2041683 0.024471598
v -4 0.9912014 0.024350787
v 4 -2.86535 0.022642694
v -2.3790877 0.31709096 0.024065495
v 2.9350467 -3.997 0.021936614
v 4 -2.86535 0.022642694
v 2.9350467 -3.997 0.021936614
v 4 -3.997 0.022000559
v -2.3790877 0.31709096 0.024065495
v -4 0.9912014 0.024350787
v -4 0.8219554 0.024254851
v -2.3790877 0.31709096 0.024065495
v 1.6228739 -3.997 0.0218577
v 2.9350467 -3.997 0.021936614
v -2.3790877 0.31709096 0.024065495
v -4 0.8219554 0.024254851
v -4 0.6468199 0.02415521
v -2.3790877 0.31709096 0.024065495
v 0.5140227 -3.997 0.021791197
v 1.6228739 -3.997 0.0218577
v -2.3790877 0.31709096 0.024065495
v -4 0.6468199 0.02415521
v -4 0.40605003 0.024018638
v -2.3790877 0.31709096 0.024065495
v -0.37046412 -3.9969997 0.021737901
v 0.5140227 -3.997 0.021791197
v -2.3790877 0.31709096 0.024065495
v -4 0.40605003 0.024018638
v -4 0.21690594 0.023911355
v -2.3790877 0.31709096 0.024065495
v -1.2691766 -3.997 0.021683948
v -0.37046412 -3.9969997 0.021737901
v -2.3790877 0.31709096 0.024065495
v -4 0.21690594 0.023911355
v -4 0.026755795 0.023803439
v -2.3790877 0.31709096 0.024065495
v -2.188762 -3.997 0.021628715
v -1.6581678 -3.9969997 0.021660585
v -2.3790877 0.31709096 0.024065495
v -1.6581678 -3.9969997 0.021660585
v -1.2691766 -3.997 0.021683948
v -2.3790877 0.31709096 0.024065495
v -4 0.026755795 0.023803439
v -4 -0.1224479 0.023718758
v -2.3790877 0.31709096 0.024065495
v -3.0952368 -3.997 0.021574276
v -2.188762 -3.997 0.021628715
v -2.3790877 0.31709096 0.024065495
v -4 -0.1224479 0.023718758
v -4 -0.2685109 0.023635847
v -2.3790877 0.31709096 0.024065495
v -4 -3.9886208 0.021524703
v -4 -3.9969997 0.021519948
v -2.3790877 0.31709096 0.024065495
v -4 -3.9969997 0.021519948
v -3.0952368 -3.997 0.021574276
v -2.3790877 0.31709096 0.024065495
v -4 -0.2685109 0.023635847
v -4 -0.42791584 0.023545371
v -2.3790877 0.31709096 0.024065495
v -4 -2.8682377 0.02216047
v -4 -3.9886208 0.021524703
v -2.3790877 0.31709096 0.024065495
v -4 -0.42791584 0.023545371
v -4 -0.6606545 0.023413334
v -2.3790877 0.31709096 0.024065495
v -4 -2.0996935 0.022596763
v -4 -2.8682377 0.02216047
v -2.3790877 0.31709096 0.024065495
v -4 -0.6606545 0.023413334
v -4 -1.0293163 0.023204153
v -2.3790877 0.31709096 0.024065495
v -4 -1.5134706 0.02292927
v -4 -2.0996935 0.022596763
v -2.3790877 0.31709096 0.024065495
v -4 -1.0293163 0.023204153
v -4 -1.5134706 0.02292927
v -3.9640083 -2.0544984 -0.0051202765
v -4 -2.0414844 -0.0035868788
v -4 -2.0542965 -0.002711571
v -3.9489582 -1.9469059 -0.013484
v -3.9640083 -2.0544984 -0.0051202765
v -3.949683 -1.9607337 0.05
v -3.9489582 -1.9469059 -0.013484
v -3.949683 -1.9607337 0.05
v -3.9462602 -1.9365265 0.05
v -3.9640083 -2.0544984 -0.0051202765
v -3.9616644 -2.0454865 0.05
v -3.949683 -1.9607337 0.05
v -3.9640083 -2.0544984 -0.0051202765
v -4 -2.0542965 -0.002711571
v -4 -2.062007 0.005637864
v -3.9640083 -2.0544984 -0.0051202765
v -4 -2.062007 0.005637865
v -3.9744978 -2.0487494 0.05
v -3.9640083 -2.0544984 -0.0051202765
v -3.9744978 -2.0487494 0.05
v -3.9616644 -2.0454865 0.05
v -4 -2.062007 0.005637865
v -4 -2.0552335 0.05
v -3.9744978 -2.0487494 0.05
v -3.9489582 -1.9469059 -0.013484
v -4 -1.92845 -0.011309421
v -4 -1.9301373 -0.020762097
v -3.9489582 -1.9469059 -0.013484
v -3.9462602 -1.9365265 0.05
v -3.9931562 -1.9199264 0.05
v -4 -1.92845 -0.011309421
v -3.9489582 -1.9469059 -0.013484
v -3.9931562 -1.9199264 0.05
v -4 -1.92845 -0.011309421
v -3.9931562 -1.9199264 0.05
v -4 -1.917504 0.05
v -3.9640083 -2.0544984 -0.0051202765
v -3.9489582 -1.9469059 -0.013484
v -4 -1.955306 -0.018411558
v -3.9640083 -2.0544984 -0.0051202765
v -4 -1.955306 -0.018411558
v -4 -2.0426743 -0.010252306
v -3.9489582 -1.9469059 -0.013484
v -4 -1.9301373 -0.020762097
v -4 -1.955306 -0.018411558
vt 0.90771484 0.51708984
vt 0.81884766 0.95751953
vt 0.890625 0.95751953
vt 0.90771484 0.51708984
vt 0.75097656 0.95751953
vt 0.81884766 0.95751953
vt 0.90771484 0.51708984
vt 0.890625 0.95751953
vt 0.95410156 0.95751953
vt 0.90771484 0.51708984
vt 0.6591797 0.95751953
vt 0.75097656 0.95751953
vt 0.90771484 0.51708984
vt 0.95410156 0.95751953
vt 1.0078125 0.95751953
vt 0.90771484 0.51708984
vt 1.0078125 0.95751953
vt 1.0078125 0.95410156
vt 0.90771484 0.51708984
vt 0.5239258 0.95751953
vt 0.6591797 0.95751953
vt 0.90771484 0.51708984
vt 1.0078125 0.95410156
vt 1.0078125 0.7836914
vt 0.90771484 0.51708984
vt 0.51220703 0.6796875
vt 0.51220703 0.95751953
vt 0.90771484 0.51708984
vt 0.51220703 0.95751953
vt 0.5239258 0.95751953
vt 0.90771484 0.51708984
vt 1.0078125 0.7836914
vt 1.0078125 0.7055664
vt 0.90771484 0.51708984
vt 0.51220703 0.47070312
vt 0.51220703 0.6796875
vt 0.90771484 0.51708984
vt 1.0078125 0.7055664
vt 1.0078125 0.6538086
vt 0.90771484 0.51708984
vt 0.51220703 0.31054688
vt 0.51220703 0.47070312
vt 0.90771484 0.51708984
vt 1.0078125 0.6538086
vt 1.0078125 0.6230469
vt 0.90771484 0.51708984
vt 0.51220703 0.13684082
vt 0.51220703 0.31054688
vt 0.90771484 0.51708984
vt 1.0078125 0.6230469
vt 1.0078125 0.59765625
vt 0.51220703 0.13684082
vt 0.90771484 0.51708984
vt 0.578125 0.0016269684
vt 0.51220703 0.13684082
vt 0.578125 0.0016269684
vt 0.51220703 0.0016269684
vt 0.90771484 0.51708984
vt 1.0078125 0.59765625
vt 1.0078125 0.5776367
vt 0.90771484 0.51708984
vt 0.65966797 0.0016269684
vt 0.578125 0.0016269684
vt 0.90771484 0.51708984
vt 1.0078125 0.5776367
vt 1.0078125 0.5566406
vt 0.90771484 0.51708984
vt 0.72802734 0.0016269684
vt 0.65966797 0.0016269684
vt 0.90771484 0.51708984
vt 1.0078125 0.5566406
vt 1.0078125 0.52783203
vt 0.90771484 0.51708984
vt 0.7832031 0.0016269684
vt 0.72802734 0.0016269684
vt 0.90771484 0.51708984
vt 1.0078125 0.52783203
vt 1.0078125 0.5053711
vt 0.90771484 0.51708984
vt 0.8388672 0.0016269684
vt 0.7832031 0.0016269684
vt 0.90771484 0.51708984
vt 1.0078125 0.5053711
vt 1.0078125 0.48242188
vt 0.90771484 0.51708984
vt 0.8959961 0.0016269684
vt 0.86279297 0.0016269684
vt 0.90771484 0.51708984
vt 0.86279297 0.0016269684
vt 0.8388672 0.0016269684
vt 0.90771484 0.51708984
vt 1.0078125 0.48242188
vt 1.0078125 0.4645996
vt 0.90771484 0.51708984
vt 0.95214844 0.0016269684
vt 0.8959961 0.0016269684
vt 0.90771484 0.51708984
vt 1.0078125 0.4645996
vt 1.0078125 0.44726562
vt 0.90771484 0.51708984
vt 1.0078125 0.0026283264
vt 1.0078125 0.0016269684
vt 0.90771484 0.51708984
vt 1.0078125 0.0016269684
vt 0.95214844 0.0016269684
vt 0.90771484 0.51708984
vt 1.0078125 0.44726562
vt 1.0078125 0.42822266
vt 0.90771484 0.51708984
vt 1.0078125 0.13647461
vt 1.0078125 0.0026283264
vt 0.90771484 0.51708984
vt 1.0078125 0.42822266
vt 1.0078125 0.40039062
vt 0.90771484 0.51708984
vt 1.0078125 0.22839355
vt 1.0078125 0.13647461
vt 0.90771484 0.51708984
vt 1.0078125 0.40039062
vt 1.0078125 0.35620117
vt 0.90771484 0.51708984
vt 1.0078125 0.29833984
vt 1.0078125 0.22839355
vt 0.90771484 0.51708984
vt 1.0078125 0.35620117
vt 1.0078125 0.29833984
vt 1.0058594 0.23376465
vt 1.0078125 0.23535156
vt 1.0078125 0.23376465
vt 1.0048828 0.24658203
vt 1.0058594 0.23376465
vt 1.0048828 0.24499512
vt 1.0048828 0.24658203
vt 1.0048828 0.24499512
vt 1.0048828 0.24780273
vt 1.0058594 0.23376465
vt 1.0058594 0.23486328
vt 1.0048828 0.24499512
vt 1.0058594 0.23376465
vt 1.0078125 0.23376465
vt 1.0078125 0.23291016
vt 1.0058594 0.23376465
vt 1.0078125 0.23291016
vt 1.0068359 0.234375
vt 1.0058594 0.23376465
vt 1.0068359 0.234375
vt 1.0058594 0.23486328
vt 1.0078125 0.23291016
vt 1.0078125 0.23364258
vt 1.0068359 0.234375
vt 1.0048828 0.24658203
vt 1.0078125 0.2487793
vt 1.0078125 0.24865723
vt 1.0048828 0.24658203
vt 1.0048828 0.24780273
vt 1.0078125 0.24987793
vt 1.0078125 0.2487793
vt 1.0048828 0.24658203
vt 1.0078125 0.24987793
vt 1.0078125 0.2487793
vt 1.0078125 0.24987793
vt 1.0078125 0.25
vt 1.0058594 0.23376465
vt 1.0048828 0.24658203
vt 1.0078125 0.24560547
vt 1.0058594 0.23376465
vt 1.0078125 0.24560547
vt 1.0078125 0.23510742
vt 1.0048828 0.24658203
vt 1.0078125 0.24865723
vt 1.0078125 0.24560547
vn 6.8843365E-05 0.00056934357 -1
vn -0.0016994476 -0.0047416687 -1
vn -0.00056028366 -0.002357483 -1
vn 6.8843365E-05 0.00056934357 -1
vn -0.0046195984 -0.004863739 -1
vn -0.0016994476 -0.0047416687 -1
vn 6.8843365E-05 0.00056934357 -1
vn -0.00056028366 -0.002357483 -1
vn 3.9994717E-05 -0.0035037994 -1
vn 6.8843365E-05 0.00056934357 -1
vn -0.005695343 -0.002784729 -1
vn -0.0046195984 -0.004863739 -1
vn 6.8843365E-05 0.00056934357 -1
vn 3.9994717E-05 -0.0035037994 -1
vn 0.0017633438 -0.003490448 -1
vn 6.8843365E-05 0.00056934357 -1
vn 0.0017633438 -0.003490448 -1
vn 0.0017757416 -0.003458023 -1
vn 6.8843365E-05 0.00056934357 -1
vn -0.012023926 -0.0018253326 -0.9995117
vn -0.005695343 -0.002784729 -1
vn 6.8843365E-05 0.00056934357 -1
vn 0.0017757416 -0.003458023 -1
vn 0.0021438599 -0.0017061234 -1
vn 6.8843365E-05 0.00056934357 -1
vn -0.008094788 -0.0013828278 -1
vn -0.012199402 -0.0018749237 -0.9995117
vn 6.8843365E-05 0.00056934357 -1
vn -0.012199402 -0.0018749237 -0.9995117
vn -0.012023926 -0.0018253326 -0.9995117
vn 6.8843365E-05 0.00056934357 -1
vn 0.0021438599 -0.0017061234 -1
vn 0.0011968613 -0.0008234978 -1
vn 6.8843365E-05 0.00056934357 -1
vn -0.009147644 -0.0019416809 -1
vn -0.008094788 -0.0013828278 -1
vn 6.8843365E-05 0.00056934357 -1
vn 0.0011968613 -0.0008234978 -1
vn 0.0010719299 -0.0009946823 -1
vn 6.8843365E-05 0.00056934357 -1
vn -0.0065231323 0.00018942356 -1
vn -0.009147644 -0.0019416809 -1
vn 6.8843365E-05 0.00056934357 -1
vn 0.0010719299 -0.0009946823 -1
vn 0.0010080338 -0.00066661835 -1
vn 6.8843365E-05 0.00056934357 -1
vn -0.007698059 0.001004219 -1
vn -0.0065231323 0.00018942356 -1
vn 6.8843365E-05 0.00056934357 -1
vn 0.0010080338 -0.00066661835 -1
vn 0.0012969971 -0.00041341782 -1
vn -0.007698059 0.001004219 -1
vn 6.8843365E-05 0.00056934357 -1
vn -0.007194519 0.0040245056 -1
vn -0.007698059 0.001004219 -1
vn -0.007194519 0.0040245056 -1
vn -0.008239746 0.0031089783 -1
vn 6.8843365E-05 0.00056934357 -1
vn 0.0012969971 -0.00041341782 -1
vn 0.0017871857 0.00048804283 -1
vn 6.8843365E-05 0.00056934357 -1
vn -0.004749298 0.0064849854 -1
vn -0.007194519 0.0040245056 -1
vn 6.8843365E-05 0.00056934357 -1
vn 0.0017871857 0.00048804283 -1
vn 0.0013513565 0.000497818 -1
vn 6.8843365E-05 0.00056934357 -1
vn -0.0020065308 0.0041389465 -1
vn -0.004749298 0.0064849854 -1
vn 6.8843365E-05 0.00056934357 -1
vn 0.0013513565 0.000497818 -1
vn 0.0019187927 0.0004222393 -1
vn 6.8843365E-05 0.00056934357 -1
vn -0.0012950897 0.0036182404 -1
vn -0.0020065308 0.0041389465 -1
vn 6.8843365E-05 0.00056934357 -1
vn 0.0019187927 0.0004222393 -1
vn 0.0016498566 0.0008864403 -1
vn 6.8843365E-05 0.00056934357 -1
vn -0.00052165985 0.002910614 -1
vn -0.0012950897 0.0036182404 -1
vn 6.8843365E-05 0.00056934357 -1
vn 0.0016498566 0.0008864403 -1
vn 0.0017700195 0.0010938644 -1
vn 6.8843365E-05 0.00056934357 -1
vn -0.00035524368 0.00349617 -1
vn -0.00045132637 0.0031585693 -1
vn 6.8843365E-05 0.00056934357 -1
vn -0.00045132637 0.0031585693 -1
vn -0.00052165985 0.002910614 -1
vn 6.8843365E-05 0.00056934357 -1
vn 0.0017700195 0.0010938644 -1
vn 0.0018548965 0.0012359619 -1
vn 6.8843365E-05 0.00056934357 -1
vn 0.00027489662 0.004272461 -1
vn -0.00035524368 0.00349617 -1
vn 6.8843365E-05 0.00056934357 -1
vn 0.0018548965 0.0012359619 -1
vn 0.0015516281 0.0009765625 -1
vn 6.8843365E-05 0.00056934357 -1
vn 0.0015878677 0.0049972534 -1
vn 0.0015859604 0.005004883 -1
vn 6.8843365E-05 0.00056934357 -1
vn 0.0015859604 0.005004883 -1
vn 0.00027489662 0.004272461 -1
vn 6.8843365E-05 0.00056934357 -1
vn 0.0015516281 0.0009765625 -1
vn 0.0015411377 0.0011262894 -1
vn 6.8843365E-05 0.00056934357 -1
vn 0.0014543533 0.0030097961 -1
vn 0.0015878677 0.0049972534 -1
vn 6.8843365E-05 0.00056934357 -1
vn 0.0015411377 0.0011262894 -1
vn 0.0015277863 0.0017967224 -1
vn 6.8843365E-05 0.00056934357 -1
vn 0.001376152 0.0027866364 -1
vn 0.0014543533 0.0030097961 -1
vn 6.8843365E-05 0.00056934357 -1
vn 0.0015277863 0.0017967224 -1
vn 0.0013113022 0.0018253326 -1
vn 6.8843365E-05 0.00056934357 -1
vn 0.0016441345 0.002292633 -1
vn 0.001376152 0.0027866364 -1
vn 6.8843365E-05 0.00056934357 -1
vn 0.0013113022 0.0018253326 -1
vn 0.0016441345 0.002292633 -1
vn -0.040863037 -0.12005615 -0.9916992
vn -0.040863037 -0.12005615 -0.9916992
vn -0.027694702 -0.14282227 -0.98779297
vn 0.9897461 -0.1418457 -0.023605347
vn 0.9897461 -0.1418457 -0.023605347
vn 0.9897461 -0.1418457 -0.023605347
vn 0.9897461 -0.1418457 -0.023605347
vn 0.9897461 -0.1418457 -0.023605347
vn 0.9897461 -0.1418457 -0.023605347
vn 0.9897461 -0.1418457 -0.023605347
vn 0.9897461 -0.1418457 -0.023605347
vn 0.9897461 -0.1418457 -0.023605347
vn 0.1694336 -0.9848633 -0.033721924
vn 0.1784668 -0.9633789 -0.10858154
vn 0.2265625 -0.9628906 -0.06341553
vn 0.1694336 -0.9848633 -0.033721924
vn 0.2265625 -0.9628906 -0.06341553
vn 0.234375 -0.96435547 0.04699707
vn 0.1694336 -0.9848633 -0.033721924
vn 0.234375 -0.96435547 0.04699707
vn 0.21765137 -0.9711914 0.06414795
vn 0.2265625 -0.9628906 -0.06341553
vn 0.26782227 -0.9511719 0.012817383
vn 0.234375 -0.96435547 0.04699707
vn 0.33666992 0.93310547 -0.12683105
vn 0.33666992 0.93310547 -0.12683105
vn 0.33666992 0.93310547 -0.12683105
vn 0.33666992 0.93310547 -0.12683105
vn 0.33447266 0.93847656 -0.080322266
vn 0.33447266 0.93847656 -0.08178711
vn 0.33666992 0.93310547 -0.12683105
vn 0.33666992 0.93310547 -0.12683105
vn 0.33447266 0.93847656 -0.08178711
vn 0.33666992 0.93310547 -0.12683105
vn 0.33447266 0.93847656 -0.08178711
vn 0.33447266 0.93847656 -0.081970215
vn 0.3076172 -0.16210938 -0.9375
vn 0.3076172 -0.16210938 -0.9375
vn 0.27416992 -0.15844727 -0.94628906
vn 0.3076172 -0.16210938 -0.9375
vn 0.27416992 -0.15844727 -0.94628906
vn 0.2824707 -0.15930176 -0.94433594
vn 0.3076172 -0.16210938 -0.9375
vn 0.26123047 -0.15698242 -0.94873047
vn 0.27416992 -0.15844727 -0.94628906
g DecalMesh_MetroArea_Decal_Crack_04__8_0
f 3/3/3 2/2/2 1/1/1
f 6/6/6 5/5/5 4/4/4
f 9/9/9 8/8/8 7/7/7
f 12/12/12 11/11/11 10/10/10
f 15/15/15 14/14/14 13/13/13
f 18/18/18 17/17/17 16/16/16
f 21/21/21 20/20/20 19/19/19
f 24/24/24 23/23/23 22/22/22
f 27/27/27 26/26/26 25/25/25
f 30/30/30 29/29/29 28/28/28
f 33/33/33 32/32/32 31/31/31
f 36/36/36 35/35/35 34/34/34
f 39/39/39 38/38/38 37/37/37
f 42/42/42 41/41/41 40/40/40
f 45/45/45 44/44/44 43/43/43
f 48/48/48 47/47/47 46/46/46
f 51/51/51 50/50/50 49/49/49
f 54/54/54 53/53/53 52/52/52
f 57/57/57 56/56/56 55/55/55
f 60/60/60 59/59/59 58/58/58
f 63/63/63 62/62/62 61/61/61
f 66/66/66 65/65/65 64/64/64
f 69/69/69 68/68/68 67/67/67
f 72/72/72 71/71/71 70/70/70
f 75/75/75 74/74/74 73/73/73
f 78/78/78 77/77/77 76/76/76
f 81/81/81 80/80/80 79/79/79
f 84/84/84 83/83/83 82/82/82
f 87/87/87 86/86/86 85/85/85
f 90/90/90 89/89/89 88/88/88
f 93/93/93 92/92/92 91/91/91
f 96/96/96 95/95/95 94/94/94
f 99/99/99 98/98/98 97/97/97
f 102/102/102 101/101/101 100/100/100
f 105/105/105 104/104/104 103/103/103
f 108/108/108 107/107/107 106/106/106
f 111/111/111 110/110/110 109/109/109
f 114/114/114 113/113/113 112/112/112
f 117/117/117 116/116/116 115/115/115
f 120/120/120 119/119/119 118/118/118
f 123/123/123 122/122/122 121/121/121
f 126/126/126 125/125/125 124/124/124
f 129/129/129 128/128/128 127/127/127
f 132/132/132 131/131/131 130/130/130
f 135/135/135 134/134/134 133/133/133
f 138/138/138 137/137/137 136/136/136
f 141/141/141 140/140/140 139/139/139
f 144/144/144 143/143/143 142/142/142
f 147/147/147 146/146/146 145/145/145
f 150/150/150 149/149/149 148/148/148
f 153/153/153 152/152/152 151/151/151
f 156/156/156 155/155/155 154/154/154
f 159/159/159 158/158/158 157/157/157
f 162/162/162 161/161/161 160/160/160
f 165/165/165 164/164/164 163/163/163
f 168/168/168 167/167/167 166/166/166
f 171/171/171 170/170/170 169/169/169
