g DecalMesh_MetroArea_Decal_Ground_15__30
v 1.0385652 1.0473489 -0.7350999
v -1.0385653 0.32040074 -0.73509985
v 0.7809536 -1.0473487 -0.7350997
v 1.0385652 1.0473489 -0.7350999
v 0.7809536 -1.0473487 -0.7350997
v 1.0385652 -1.0473487 -0.7350997
v -1.0385653 0.32040074 -0.73509985
v -1.0385653 -1.0473487 -0.7350997
v 0.7809535 -1.0473487 -0.7350997
v 1.0385652 1.0473489 -0.7350999
v -1.0385653 1.0473489 -0.7350999
v -1.0385653 0.32040074 -0.73509985
v 0.15540314 0.51651376 -0.7368393
v 0.15973921 0.5219201 -0.74084014
v 0.1514096 0.5167555 -0.74084014
v 0.15807343 0.560625 -0.7368355
v 0.15416048 0.5607993 -0.74084014
v 0.16172686 0.5547314 -0.74084014
v 0.15807343 0.560625 -0.7368355
v 0.15407608 0.560867 -0.74084014
v 0.15416048 0.5607993 -0.74084014
v 0.15807343 0.560625 -0.7368355
v 0.14515305 0.561407 -0.7238922
v 0.1287614 0.5623993 -0.7408402
v 0.15807343 0.560625 -0.7368355
v 0.1287614 0.5623993 -0.7408402
v 0.1540761 0.560867 -0.74084014
v 0.15540314 0.51651376 -0.7368393
v 0.1514096 0.5167555 -0.74084014
v 0.1512816 0.51676327 -0.74084014
v 0.14894295 0.5169048 -0.73036575
v 0.1599224 0.52493256 -0.74084014
v 0.13848777 0.5175377 -0.7408401
v 0.15161324 0.561016 -0.73036575
v 0.14153889 0.5614635 -0.7408401
v 0.16154295 0.55172175 -0.74084014
v 0.15161324 0.561016 -0.73036575
v 0.14115806 0.56164896 -0.7408401
v 0.14153889 0.5614635 -0.7408401
v 0.14894295 0.5169048 -0.73036575
v 0.1599224 0.52493256 -0.74084014
v 0.13848777 0.5175377 -0.7408401
v 0.15161324 0.561016 -0.73036575
v 0.14153889 0.5614635 -0.7408401
v 0.16154295 0.55172175 -0.74084014
v 0.15161324 0.561016 -0.73036575
v 0.14115806 0.56164896 -0.7408401
v 0.14153889 0.5614635 -0.7408401
v -0.038166046 -0.4881878 -0.72209924
v -0.054359436 -0.49672318 -0.72209924
v -0.054359436 -0.49672318 -0.74084014
v -0.038166046 -0.4881878 -0.72209924
v -0.054359436 -0.49672318 -0.74084014
v -0.03830956 -0.48826343 -0.74084014
v -0.038166046 -0.4881878 -0.72209924
v -0.03830956 -0.48826343 -0.74084014
v -0.038166046 -0.4881878 -0.74084014
v -0.038166046 -0.4881878 -0.72209924
v -0.038166046 -0.4881878 -0.74084014
v -0.03801109 -0.48823577 -0.74084014
v -0.020681381 -0.49360275 -0.72209924
v -0.038166046 -0.4881878 -0.72209924
v -0.03801109 -0.48823577 -0.74084014
v -0.020681381 -0.49360275 -0.72209924
v -0.03801109 -0.48823577 -0.74084014
v -0.020681381 -0.49360275 -0.74084014
v -0.012145996 -0.50979614 -0.72209924
v -0.020681381 -0.49360275 -0.72209924
v -0.020681381 -0.49360275 -0.74084014
v -0.012145996 -0.50979614 -0.72209924
v -0.020681381 -0.49360275 -0.74084014
v -0.01222164 -0.5096526 -0.74084014
v -0.012145996 -0.50979614 -0.72209924
v -0.01222164 -0.5096526 -0.74084014
v -0.012145996 -0.50979614 -0.74084014
v -0.054359436 -0.49672318 -0.72209924
v -0.059776306 -0.51420784 -0.72209924
v -0.059776306 -0.51420784 -0.74084014
v -0.054359436 -0.49672318 -0.72209924
v -0.059776306 -0.51420784 -0.74084014
v -0.054407444 -0.49687815 -0.74084014
v -0.054359436 -0.49672318 -0.72209924
v -0.054407444 -0.49687815 -0.74084014
v -0.054359436 -0.49672318 -0.74084014
v -0.02942276 -0.49089622 -0.72209924
v -0.052310944 -0.49735832 -0.72209924
v -0.052310944 -0.49735832 -0.74084014
v -0.02942276 -0.49089622 -0.72209924
v -0.052310944 -0.49735832 -0.74084014
v -0.029625606 -0.49095348 -0.74084014
v -0.02942276 -0.49089622 -0.72209924
v -0.029625606 -0.49095348 -0.74084014
v -0.02942276 -0.49089622 -0.74084014
v -0.0141944885 -0.5091629 -0.72209924
v -0.02942276 -0.49089622 -0.72209924
v -0.02942276 -0.49089622 -0.74084014
v -0.0141944885 -0.5091629 -0.72209924
v -0.02942276 -0.49089622 -0.74084014
v -0.014329448 -0.509001 -0.74084014
v -0.057725906 -0.514843 -0.72209924
v -0.057590947 -0.5150049 -0.74084014
v -0.057725906 -0.514843 -0.74084014
v -0.052310944 -0.49735832 -0.72209924
v -0.057725906 -0.514843 -0.72209924
v -0.057725906 -0.514843 -0.74084014
v -0.052310944 -0.49735832 -0.72209924
v -0.057725906 -0.514843 -0.74084014
v -0.052358933 -0.4975133 -0.74084014
v -0.052310944 -0.49735832 -0.72209924
v -0.052358933 -0.4975133 -0.74084014
v -0.052310944 -0.49735832 -0.74084014
v -0.02942276 -0.49089622 -0.72209924
v -0.052310944 -0.49735832 -0.72209924
v -0.052310944 -0.49735832 -0.74084014
v -0.02942276 -0.49089622 -0.72209924
v -0.052310944 -0.49735832 -0.74084014
v -0.029625606 -0.49095348 -0.74084014
v -0.02942276 -0.49089622 -0.72209924
v -0.029625606 -0.49095348 -0.74084014
v -0.02942276 -0.49089622 -0.74084014
v -0.0141944885 -0.5091629 -0.72209924
v -0.02942276 -0.49089622 -0.72209924
v -0.02942276 -0.49089622 -0.74084014
v -0.0141944885 -0.5091629 -0.72209924
v -0.02942276 -0.49089622 -0.74084014
v -0.014329448 -0.509001 -0.74084014
v -0.057725906 -0.514843 -0.72209924
v -0.057590947 -0.5150049 -0.74084014
v -0.057725906 -0.514843 -0.74084014
v -0.052310944 -0.49735832 -0.72209924
v -0.057725906 -0.514843 -0.72209924
v -0.057725906 -0.514843 -0.74084014
v -0.052310944 -0.49735832 -0.72209924
v -0.057725906 -0.514843 -0.74084014
v -0.052358933 -0.4975133 -0.74084014
v -0.052310944 -0.49735832 -0.72209924
v -0.052358933 -0.4975133 -0.74084014
v -0.052310944 -0.49735832 -0.74084014
vt 0.0018415451 0.5517578
vt 0.14025879 0.5029297
vt 0.019012451 0.41186523
vt 0.0018415451 0.5517578
vt 0.019012451 0.41186523
vt 0.0018415451 0.41186523
vt 0.14025879 0.5029297
vt 0.14025879 0.41186523
vt 0.019012451 0.41186523
vt 0.0018415451 0.5517578
vt 0.14025879 0.5517578
vt 0.14025879 0.5029297
vt 0.06072998 0.5161133
vt 0.060424805 0.51660156
vt 0.06097412 0.5161133
vt 0.060546875 0.51904297
vt 0.060791016 0.51904297
vt 0.060302734 0.5185547
vt 0.060546875 0.51904297
vt 0.060821533 0.51904297
vt 0.060791016 0.51904297
vt 0.060546875 0.51904297
vt 0.061401367 0.51904297
vt 0.0625 0.51904297
vt 0.060546875 0.51904297
vt 0.0625 0.51904297
vt 0.060821533 0.51904297
vt 0.06072998 0.5161133
vt 0.06097412 0.5161133
vt 0.06100464 0.5161133
vt 0.061157227 0.5161133
vt 0.060424805 0.51660156
vt 0.06185913 0.5161133
vt 0.06097412 0.51904297
vt 0.061645508 0.51904297
vt 0.060302734 0.5185547
vt 0.06097412 0.51904297
vt 0.061676025 0.51904297
vt 0.061645508 0.51904297
vt 0.061157227 0.5161133
vt 0.060424805 0.51660156
vt 0.06185913 0.5161133
vt 0.06097412 0.51904297
vt 0.061645508 0.51904297
vt 0.060302734 0.5185547
vt 0.06097412 0.51904297
vt 0.061676025 0.51904297
vt 0.061645508 0.51904297
vt 0.0736084 0.44921875
vt 0.07470703 0.44873047
vt 0.07470703 0.44873047
vt 0.0736084 0.44921875
vt 0.07470703 0.44873047
vt 0.0736084 0.44921875
vt 0.0736084 0.44921875
vt 0.0736084 0.44921875
vt 0.0736084 0.44921875
vt 0.0736084 0.44921875
vt 0.0736084 0.44921875
vt 0.0736084 0.44921875
vt 0.07244873 0.4489746
vt 0.0736084 0.44921875
vt 0.0736084 0.44921875
vt 0.07244873 0.4489746
vt 0.0736084 0.44921875
vt 0.07244873 0.4489746
vt 0.071899414 0.4477539
vt 0.07244873 0.4489746
vt 0.07244873 0.4489746
vt 0.071899414 0.4477539
vt 0.07244873 0.4489746
vt 0.071899414 0.4477539
vt 0.071899414 0.4477539
vt 0.071899414 0.4477539
vt 0.071899414 0.4477539
vt 0.07470703 0.44873047
vt 0.07507324 0.44750977
vt 0.07507324 0.44750977
vt 0.07470703 0.44873047
vt 0.07507324 0.44750977
vt 0.07470703 0.44873047
vt 0.07470703 0.44873047
vt 0.07470703 0.44873047
vt 0.07470703 0.44873047
vt 0.07305908 0.4489746
vt 0.07458496 0.44873047
vt 0.07458496 0.44873047
vt 0.07305908 0.4489746
vt 0.07458496 0.44873047
vt 0.07305908 0.4489746
vt 0.07305908 0.4489746
vt 0.07305908 0.4489746
vt 0.07305908 0.4489746
vt 0.072021484 0.4477539
vt 0.07305908 0.4489746
vt 0.07305908 0.4489746
vt 0.072021484 0.4477539
vt 0.07305908 0.4489746
vt 0.072021484 0.4477539
vt 0.07495117 0.44750977
vt 0.07489014 0.44750977
vt 0.07495117 0.44750977
vt 0.07458496 0.44873047
vt 0.07495117 0.44750977
vt 0.07495117 0.44750977
vt 0.07458496 0.44873047
vt 0.07495117 0.44750977
vt 0.07458496 0.44873047
vt 0.07458496 0.44873047
vt 0.07458496 0.44873047
vt 0.07458496 0.44873047
vt 0.07305908 0.4489746
vt 0.07458496 0.44873047
vt 0.07458496 0.44873047
vt 0.07305908 0.4489746
vt 0.07458496 0.44873047
vt 0.07305908 0.4489746
vt 0.07305908 0.4489746
vt 0.07305908 0.4489746
vt 0.07305908 0.4489746
vt 0.072021484 0.4477539
vt 0.07305908 0.4489746
vt 0.07305908 0.4489746
vt 0.072021484 0.4477539
vt 0.07305908 0.4489746
vt 0.072021484 0.4477539
vt 0.07495117 0.44750977
vt 0.07489014 0.44750977
vt 0.07495117 0.44750977
vt 0.07458496 0.44873047
vt 0.07495117 0.44750977
vt 0.07495117 0.44750977
vt 0.07458496 0.44873047
vt 0.07495117 0.44750977
vt 0.07458496 0.44873047
vt 0.07458496 0.44873047
vt 0.07458496 0.44873047
vt 0.07458496 0.44873047
vn -0 -1.1920929E-07 -1
vn -0 -1.1920929E-07 -1
vn -0 -1.1920929E-07 -1
vn -0 -1.1920929E-07 -1
vn -0 -1.1920929E-07 -1
vn -0 -1.1920929E-07 -1
vn -0 -1.1920929E-07 -1
vn -0 -1.1920929E-07 -1
vn -0 -1.1920929E-07 -1
vn -0 -1.1920929E-07 -1
vn -0 -1.1920929E-07 -1
vn -0 -1.1920929E-07 -1
vn 0.2142334 -0.93847656 -0.2705078
vn 0.3955078 -0.71240234 -0.43798828
vn 0.2142334 -0.93847656 -0.2705078
vn 0.32592773 0.9057617 -0.2705078
vn 0.32763672 0.9033203 -0.27246094
vn 0.47875977 0.65966797 -0.43798828
vn 0.32592773 0.9057617 -0.2705078
vn 0.32592773 0.9057617 -0.2705078
vn 0.32763672 0.9033203 -0.27246094
vn 0.32592773 0.9057617 -0.2705078
vn -0.2142334 0.93847656 0.2705078
vn -0.20324707 0.9379883 0.25952148
vn 0.32592773 0.9057617 -0.2705078
vn -0.20324707 0.9379883 0.25952148
vn 0.32592773 0.9057617 -0.2705078
vn 0.2142334 -0.93847656 -0.2705078
vn 0.2142334 -0.93847656 -0.2705078
vn 0.21154785 -0.93847656 -0.26782227
vn -0.060424805 -0.9980469 -4.5895576E-06
vn 0.37036133 -0.68652344 -0.41137695
vn -0.060424805 -0.9980469 -4.5895576E-06
vn 0.060424805 0.9980469 -5.9604645E-06
vn 0.06774902 0.99121094 -0.0076904297
vn 0.4506836 0.63671875 -0.41137695
vn 0.060424805 0.9980469 -5.9604645E-06
vn 0.060424805 0.9980469 -5.90086E-06
vn 0.06774902 0.99121094 -0.0076904297
vn -0.060424805 -0.9980469 -4.5895576E-06
vn 0.37036133 -0.68652344 -0.41137695
vn -0.060424805 -0.9980469 -4.5895576E-06
vn 0.060424805 0.9980469 -5.9604645E-06
vn 0.06774902 0.99121094 -0.0076904297
vn 0.4506836 0.63671875 -0.41137695
vn 0.060424805 0.9980469 -5.9604645E-06
vn 0.060424805 0.9980469 -5.90086E-06
vn 0.06774902 0.99121094 -0.0076904297
vn -0.09222412 0.99560547 -1.1920929E-07
vn -0.76953125 0.6386719 -1.1920929E-07
vn -0.76953125 0.6386719 -1.1920929E-07
vn -0.09222412 0.99560547 -1.1920929E-07
vn -0.76953125 0.6386719 -1.1920929E-07
vn -0.09820557 0.9926758 -1.1920929E-07
vn -0.09222412 0.99560547 -1.1920929E-07
vn -0.09820557 0.9926758 -1.1920929E-07
vn -0.09222412 0.99560547 -1.1920929E-07
vn -0.09222412 0.99560547 -1.1920929E-07
vn -0.09222412 0.99560547 -1.1920929E-07
vn -0.085754395 0.99365234 -1.1920929E-07
vn 0.6386719 0.76953125 -1.1920929E-07
vn -0.09222412 0.99560547 -1.1920929E-07
vn -0.085754395 0.99365234 -1.1920929E-07
vn 0.6386719 0.76953125 -1.1920929E-07
vn -0.085754395 0.99365234 -1.1920929E-07
vn 0.6386719 0.76953125 -1.1920929E-07
vn 0.99560547 0.09222412 5.9604645E-08
vn 0.6386719 0.76953125 -1.1920929E-07
vn 0.6386719 0.76953125 -1.1920929E-07
vn 0.99560547 0.09222412 5.9604645E-08
vn 0.6386719 0.76953125 -1.1920929E-07
vn 0.9926758 0.09820557 0
vn 0.99560547 0.09222412 5.9604645E-08
vn 0.9926758 0.09820557 0
vn 0.99560547 0.09222412 5.9604645E-08
vn -0.76953125 0.6386719 -1.1920929E-07
vn -0.99560547 -0.09222412 -5.9604645E-08
vn -0.99560547 -0.09222412 -5.9604645E-08
vn -0.76953125 0.6386719 -1.1920929E-07
vn -0.99560547 -0.09222412 -5.9604645E-08
vn -0.7714844 0.6323242 -1.1920929E-07
vn -0.76953125 0.6386719 -1.1920929E-07
vn -0.7714844 0.6323242 -1.1920929E-07
vn -0.76953125 0.6386719 -1.1920929E-07
vn 0.29589844 0.9550781 -1.1920929E-07
vn -0.6982422 0.7158203 -1.7881393E-07
vn -0.6982422 0.7158203 -1.7881393E-07
vn 0.29589844 0.9550781 -1.1920929E-07
vn -0.6982422 0.7158203 -1.7881393E-07
vn 0.28710938 0.953125 -1.1920929E-07
vn 0.29589844 0.9550781 -1.1920929E-07
vn 0.28710938 0.953125 -1.1920929E-07
vn 0.29589844 0.9550781 -1.1920929E-07
vn 0.98046875 0.19604492 1.1920929E-07
vn 0.29589844 0.9550781 -1.1920929E-07
vn 0.29589844 0.9550781 -1.1920929E-07
vn 0.98046875 0.19604492 1.1920929E-07
vn 0.29589844 0.9550781 -1.1920929E-07
vn 0.9746094 0.20275879 5.9604645E-08
vn -0.98046875 -0.19604492 -1.1920929E-07
vn -0.9746094 -0.20275879 -5.9604645E-08
vn -0.98046875 -0.19604492 -1.1920929E-07
vn -0.6982422 0.7158203 -1.7881393E-07
vn -0.98046875 -0.19604492 -1.1920929E-07
vn -0.98046875 -0.19604492 -1.1920929E-07
vn -0.6982422 0.7158203 -1.7881393E-07
vn -0.98046875 -0.19604492 -1.1920929E-07
vn -0.7006836 0.7080078 -1.7881393E-07
vn -0.6982422 0.7158203 -1.7881393E-07
vn -0.7006836 0.7080078 -1.7881393E-07
vn -0.6982422 0.7158203 -1.7881393E-07
vn 0.29589844 0.9550781 -1.1920929E-07
vn -0.6982422 0.7158203 -1.7881393E-07
vn -0.6982422 0.7158203 -1.7881393E-07
vn 0.29589844 0.9550781 -1.1920929E-07
vn -0.6982422 0.7158203 -1.7881393E-07
vn 0.28710938 0.953125 -1.1920929E-07
vn 0.29589844 0.9550781 -1.1920929E-07
vn 0.28710938 0.953125 -1.1920929E-07
vn 0.29589844 0.9550781 -1.1920929E-07
vn 0.98046875 0.19604492 1.1920929E-07
vn 0.29589844 0.9550781 -1.1920929E-07
vn 0.29589844 0.9550781 -1.1920929E-07
vn 0.98046875 0.19604492 1.1920929E-07
vn 0.29589844 0.9550781 -1.1920929E-07
vn 0.9746094 0.20275879 5.9604645E-08
vn -0.98046875 -0.19604492 -1.1920929E-07
vn -0.9746094 -0.20275879 -5.9604645E-08
vn -0.98046875 -0.19604492 -1.1920929E-07
vn -0.6982422 0.7158203 -1.7881393E-07
vn -0.98046875 -0.19604492 -1.1920929E-07
vn -0.98046875 -0.19604492 -1.1920929E-07
vn -0.6982422 0.7158203 -1.7881393E-07
vn -0.98046875 -0.19604492 -1.1920929E-07
vn -0.7006836 0.7080078 -1.7881393E-07
vn -0.6982422 0.7158203 -1.7881393E-07
vn -0.7006836 0.7080078 -1.7881393E-07
vn -0.6982422 0.7158203 -1.7881393E-07
g DecalMesh_MetroArea_Decal_Ground_15__30_0
f 3/3/3 2/2/2 1/1/1
f 6/6/6 5/5/5 4/4/4
f 9/9/9 8/8/8 7/7/7
f 12/12/12 11/11/11 10/10/10
f 15/15/15 14/14/14 13/13/13
f 18/18/18 17/17/17 16/16/16
f 21/21/21 20/20/20 19/19/19
f 24/24/24 23/23/23 22/22/22
f 27/27/27 26/26/26 25/25/25
f 30/30/30 29/29/29 28/28/28
f 33/33/33 32/32/32 31/31/31
f 36/36/36 35/35/35 34/34/34
f 39/39/39 38/38/38 37/37/37
f 42/42/42 41/41/41 40/40/40
f 45/45/45 44/44/44 43/43/43
f 48/48/48 47/47/47 46/46/46
f 51/51/51 50/50/50 49/49/49
f 54/54/54 53/53/53 52/52/52
f 57/57/57 56/56/56 55/55/55
f 60/60/60 59/59/59 58/58/58
f 63/63/63 62/62/62 61/61/61
f 66/66/66 65/65/65 64/64/64
f 69/69/69 68/68/68 67/67/67
f 72/72/72 71/71/71 70/70/70
f 75/75/75 74/74/74 73/73/73
f 78/78/78 77/77/77 76/76/76
f 81/81/81 80/80/80 79/79/79
f 84/84/84 83/83/83 82/82/82
f 87/87/87 86/86/86 85/85/85
f 90/90/90 89/89/89 88/88/88
f 93/93/93 92/92/92 91/91/91
f 96/96/96 95/95/95 94/94/94
f 99/99/99 98/98/98 97/97/97
f 102/102/102 101/101/101 100/100/100
f 105/105/105 104/104/104 103/103/103
f 108/108/108 107/107/107 106/106/106
f 111/111/111 110/110/110 109/109/109
f 114/114/114 113/113/113 112/112/112
f 117/117/117 116/116/116 115/115/115
f 120/120/120 119/119/119 118/118/118
f 123/123/123 122/122/122 121/121/121
f 126/126/126 125/125/125 124/124/124
f 129/129/129 128/128/128 127/127/127
f 132/132/132 131/131/131 130/130/130
f 135/135/135 134/134/134 133/133/133
f 138/138/138 137/137/137 136/136/136
