g DecalMesh_MetroArea_Decal_Ground_26__20
v -0.58627385 1.4999999 0.16138057
v -1.0277139 -1.5 0.16138057
v 0.06574795 -1.5000001 0.16138059
v -0.58627385 1.4999999 0.16138057
v -1.5 1.5 0.16138056
v -1.5 -1.5 0.16138056
v -0.58627385 1.4999999 0.16138057
v -1.5 -1.5 0.16138056
v -1.0277139 -1.5 0.16138057
v 1.4999998 1.4999999 0.1613806
v -0.58627385 1.4999999 0.16138057
v 0.06574795 -1.5000001 0.16138059
v 1.4999998 1.4999999 0.1613806
v 0.06574795 -1.5000001 0.16138059
v 1.4999999 -1.5000001 0.1613806
v -1.4999999 -0.23235235 -1.9105196
v -1.5 -1.5 -1.9105196
v -0.6309821 -1.5 -1.9105195
v -1.5 0.74999756 -1.9105196
v -0.24031788 -1.5 -1.9105195
v 0.7500103 -1.5000001 -1.9105194
v -1.5 0.74999756 -1.9105196
v -1.5 0.27829304 -1.9105196
v -0.4083048 -1.5 -1.9105195
v -1.5 0.74999756 -1.9105196
v -0.4083048 -1.5 -1.9105195
v -0.24031788 -1.5 -1.9105195
v -1.5 0.27829304 -1.9105196
v -1.4999999 -0.23235235 -1.9105196
v -0.6309821 -1.5 -1.9105195
v -1.5 0.27829304 -1.9105196
v -0.6309821 -1.5 -1.9105195
v -0.4083048 -1.5 -1.9105195
v 1.5 1.5 -1.9105192
v -1.5 1.5 -1.9105196
v 0.9000093 -1.5 -1.9105194
v 1.5 1.5 -1.9105192
v 0.9000093 -1.5 -1.9105194
v 1.5000001 -1.5 -1.9105192
v -1.5 1.5 -1.9105196
v -1.5 0.74999756 -1.9105196
v 0.7500102 -1.5 -1.9105194
v -1.5 1.5 -1.9105196
v 0.7500102 -1.5 -1.9105194
v 0.9000093 -1.5 -1.9105194
vt 0.92626953 0.984375
vt 0.95996094 0.7548828
vt 0.8774414 0.7548828
vt 0.92626953 0.984375
vt 0.9951172 0.984375
vt 0.9951172 0.7548828
vt 0.92626953 0.984375
vt 0.9951172 0.7548828
vt 0.95996094 0.7548828
vt 0.76953125 0.984375
vt 0.92626953 0.984375
vt 0.8774414 0.7548828
vt 0.76953125 0.984375
vt 0.8774414 0.7548828
vt 0.76953125 0.7548828
vt 0.9951172 0.8520508
vt 0.9951172 0.7548828
vt 0.9296875 0.7548828
vt 0.9951172 0.9272461
vt 0.9003906 0.7548828
vt 0.8256836 0.7548828
vt 0.9951172 0.9272461
vt 0.9951172 0.8911133
vt 0.91308594 0.7548828
vt 0.9951172 0.9272461
vt 0.91308594 0.7548828
vt 0.9003906 0.7548828
vt 0.9951172 0.8911133
vt 0.9951172 0.8520508
vt 0.9296875 0.7548828
vt 0.9951172 0.8911133
vt 0.9296875 0.7548828
vt 0.91308594 0.7548828
vt 0.76953125 0.984375
vt 0.9951172 0.984375
vt 0.8144531 0.7548828
vt 0.76953125 0.984375
vt 0.8144531 0.7548828
vt 0.76953125 0.7548828
vt 0.9951172 0.984375
vt 0.9951172 0.9272461
vt 0.8256836 0.7548828
vt 0.9951172 0.984375
vt 0.8256836 0.7548828
vt 0.8144531 0.7548828
vn -0 0 -1
vn -0 0 -1
vn -0 0 -1
vn -0 0 -1
vn -0 0 -1
vn -0 0 -1
vn -0 0 -1
vn -0 0 -1
vn -0 0 -1
vn -0 0 -1
vn -0 0 -1
vn -0 0 -1
vn -0 0 -1
vn -0 0 -1
vn -0 0 -1
vn 1.1920929E-07 0 -1
vn 1.1920929E-07 0 -1
vn 1.1920929E-07 0 -1
vn 1.1920929E-07 0 -1
vn 1.1920929E-07 0 -1
vn 1.1920929E-07 0 -1
vn 1.1920929E-07 0 -1
vn 1.1920929E-07 0 -1
vn 1.1920929E-07 0 -1
vn 1.1920929E-07 0 -1
vn 1.1920929E-07 0 -1
vn 1.1920929E-07 0 -1
vn 1.1920929E-07 0 -1
vn 1.1920929E-07 0 -1
vn 1.1920929E-07 0 -1
vn 1.1920929E-07 0 -1
vn 1.1920929E-07 0 -1
vn 1.1920929E-07 0 -1
vn 1.1920929E-07 0 -1
vn 1.1920929E-07 0 -1
vn 1.1920929E-07 0 -1
vn 1.1920929E-07 0 -1
vn 1.1920929E-07 0 -1
vn 1.1920929E-07 0 -1
vn 1.1920929E-07 0 -1
vn 1.1920929E-07 0 -1
vn 1.1920929E-07 0 -1
vn 1.1920929E-07 0 -1
vn 1.1920929E-07 0 -1
vn 1.1920929E-07 0 -1
g DecalMesh_MetroArea_Decal_Ground_26__20_0
f 3/3/3 2/2/2 1/1/1
f 6/6/6 5/5/5 4/4/4
f 9/9/9 8/8/8 7/7/7
f 12/12/12 11/11/11 10/10/10
f 15/15/15 14/14/14 13/13/13
f 18/18/18 17/17/17 16/16/16
f 21/21/21 20/20/20 19/19/19
f 24/24/24 23/23/23 22/22/22
f 27/27/27 26/26/26 25/25/25
f 30/30/30 29/29/29 28/28/28
f 33/33/33 32/32/32 31/31/31
f 36/36/36 35/35/35 34/34/34
f 39/39/39 38/38/38 37/37/37
f 42/42/42 41/41/41 40/40/40
f 45/45/45 44/44/44 43/43/43
