g DecalMesh_Common_Decal_Water_03__36
v 2.2356849 2.064965 -0.079628706
v 2.2185524 2.0535443 -0.08420472
v 2.2147975 2.0227299 -0.08420472
v 2.2356849 2.064965 -0.079628706
v 2.2216787 2.0820975 -0.08420472
v 2.2185524 2.0535443 -0.08420472
v 2.2356849 2.064965 -0.079628706
v 2.1857972 2.181265 -0.06852603
v 2.1671686 2.1847014 -0.08420472
v 2.2356849 2.064965 -0.079628706
v 2.1671686 2.1847014 -0.08420472
v 2.2216787 2.0820975 -0.08420472
v 1.9866693 2.234642 -0.07339847
v 2.014751 2.1688824 -0.08420472
v 2.0261726 2.222849 -0.08420472
v 1.9866693 2.234642 -0.07339847
v 1.9957604 2.07592 -0.08420472
v 2.014751 2.1688824 -0.08420472
v 1.9866693 2.234642 -0.07339847
v 1.9150757 2.1720836 -0.056874156
v 1.9846284 2.0170174 -0.08420472
v 1.9866693 2.234642 -0.07339847
v 1.9846284 2.0170174 -0.08420472
v 1.9957604 2.07592 -0.08420472
v 1.9150757 2.1720836 -0.056874156
v 1.9616116 2.00773 -0.078133464
v 1.9807063 1.9943469 -0.08420472
v 1.9150757 2.1720836 -0.056874156
v 1.9807063 1.9943469 -0.08420472
v 1.9846284 2.0170174 -0.08420472
v 2.3519993 2.7307246 -0.01497817
v 2.382721 2.7503529 -0.01497817
v 2.382721 2.7514691 -0.02028449
v 2.3502839 2.73 -0.050761938
v 2.382721 2.7518427 -0.051355015
v 2.382721 2.762658 -0.07912365
v 2.3502839 2.73 -0.050761938
v 2.3519993 2.7307246 -0.01497817
v 2.382721 2.7514691 -0.02028449
v 2.3502839 2.73 -0.050761938
v 2.382721 2.7514691 -0.02028449
v 2.382721 2.7518427 -0.051355015
v 2.3502839 2.73 -0.050761938
v 2.382721 2.762658 -0.07912365
v 2.3773003 2.7608604 -0.08420472
v 2.3502839 2.73 -0.050761938
v 2.3773003 2.7608604 -0.08420472
v 2.3341656 2.7314873 -0.08420472
v 2.382721 2.762658 -0.07912365
v 2.382721 2.7645516 -0.08420472
v 2.3773003 2.7608604 -0.08420472
v 2.3502839 2.73 -0.050761938
v 2.3341656 2.7314873 -0.08420472
v 2.3264077 2.7317035 -0.08420472
v 2.3519993 2.7307246 -0.01497817
v 2.3502839 2.73 -0.050761938
v 2.2743292 2.7377045 -0.01497829
v 2.2743292 2.7377045 -0.01497829
v 2.3502839 2.73 -0.050761938
v 2.3264077 2.7317035 -0.08420472
v 2.2743292 2.7377045 -0.01497829
v 2.3264077 2.7317035 -0.08420472
v 2.2750483 2.736524 -0.08420472
v 2.2743292 2.7377045 -0.01497829
v 2.2750483 2.736524 -0.08420472
v 2.2380643 2.7942226 -0.08420472
v 2.2129984 2.8273232 -0.01497829
v 2.2743292 2.7377045 -0.01497829
v 2.2380643 2.7942226 -0.08420472
v 2.2129984 2.8273232 -0.01497829
v 2.2380643 2.7942226 -0.08420472
v 2.211874 2.8324926 -0.08420472
v 2.2188187 2.9973025 -0.05710425
v 2.1723852 2.9812803 -0.08420472
v 2.210415 2.9973025 -0.08420472
v 2.1857972 2.181265 -0.06852603
v 1.9866693 2.234642 -0.07339847
v 2.0261726 2.222849 -0.08420472
v 2.1857972 2.181265 -0.06852603
v 2.0261726 2.222849 -0.08420472
v 2.1671686 2.1847014 -0.08420472
v 1.9866693 2.234642 -0.01497829
v 1.9866693 2.234642 -0.07339847
v 2.1857972 2.181265 -0.06852603
v 1.9866693 2.234642 -0.01497829
v 2.1857972 2.181265 -0.06852603
v 2.1857972 2.181265 -0.01497817
v 2.0958762 1.9740382 -0.01497817
v 2.097498 1.9735678 -0.08420472
v 2.0094185 1.9794335 -0.08420472
v 2.382723 2.9973025 0.055935625
v -2.3827207 2.9973023 0.055935044
v -1.0959842 -2.9913023 0.055935055
v 2.382723 2.9973025 0.055935625
v -1.0959842 -2.9913023 0.055935055
v 2.3827233 -2.991302 0.05593548
v -2.3827207 2.9973023 0.055935044
v -2.382721 -2.9913027 0.0559349
v -1.0959842 -2.9913023 0.055935055
v 2.3827214 -1.9397082 -0.0671106
v -2.3827214 -1.8037856 -0.065719835
v 0.17121716 -2.9913025 -0.06592777
v 2.3827214 -1.9397082 -0.0671106
v 0.17121716 -2.9913025 -0.06592777
v 2.3827212 -2.9913025 -0.0666036
v -2.3827214 -1.8037856 -0.065719835
v -2.3827214 -2.9913027 -0.06514731
v 0.17121729 -2.9913025 -0.06592777
v 2.3827214 -1.9397082 -0.0671106
v 2.3827214 0.81714416 -0.068439014
v -2.3827214 0.4186252 -0.06679073
v 2.3827214 -1.9397082 -0.0671106
v -2.3827214 0.4186252 -0.06679073
v -2.3827214 -1.8037856 -0.065719835
v 2.3827214 0.81714416 -0.068439014
v 2.382722 2.9973025 -0.06948925
v -2.382721 2.1761396 -0.06763736
v 2.3827214 0.81714416 -0.068439014
v -2.382721 2.1761396 -0.06763736
v -2.3827214 0.4186252 -0.06679073
v 2.382722 2.9973025 -0.06948925
v -2.382721 2.9973025 -0.068032935
v -2.382721 2.1761396 -0.06763736
vt 0.55371094 0.4182129
vt 0.5551758 0.41723633
vt 0.5551758 0.41479492
vt 0.55371094 0.4182129
vt 0.5546875 0.4194336
vt 0.5551758 0.41723633
vt 0.55371094 0.4182129
vt 0.5576172 0.42749023
vt 0.5595703 0.42773438
vt 0.55371094 0.4182129
vt 0.5595703 0.42773438
vt 0.5546875 0.4194336
vt 0.57470703 0.43164062
vt 0.5722656 0.42651367
vt 0.57128906 0.43066406
vt 0.57470703 0.43164062
vt 0.57421875 0.4189453
vt 0.5722656 0.42651367
vt 0.57470703 0.43164062
vt 0.5810547 0.4267578
vt 0.5751953 0.41430664
vt 0.57470703 0.43164062
vt 0.5751953 0.41430664
vt 0.57421875 0.4189453
vt 0.5810547 0.4267578
vt 0.57714844 0.41357422
vt 0.5751953 0.41259766
vt 0.5810547 0.4267578
vt 0.5751953 0.41259766
vt 0.5751953 0.41430664
vt 0.54345703 0.47094727
vt 0.5410156 0.4724121
vt 0.5410156 0.47265625
vt 0.54345703 0.47094727
vt 0.5410156 0.47265625
vt 0.5410156 0.47338867
vt 0.54345703 0.47094727
vt 0.54345703 0.47094727
vt 0.5410156 0.47265625
vt 0.54345703 0.47094727
vt 0.5410156 0.47265625
vt 0.5410156 0.47265625
vt 0.54345703 0.47094727
vt 0.5410156 0.47338867
vt 0.5415039 0.47338867
vt 0.54345703 0.47094727
vt 0.5415039 0.47338867
vt 0.5449219 0.47094727
vt 0.5410156 0.47338867
vt 0.5410156 0.4736328
vt 0.5415039 0.47338867
vt 0.54345703 0.47094727
vt 0.5449219 0.47094727
vt 0.54589844 0.47094727
vt 0.54345703 0.47094727
vt 0.54345703 0.47094727
vt 0.55029297 0.47143555
vt 0.55029297 0.47143555
vt 0.54345703 0.47094727
vt 0.54589844 0.47094727
vt 0.55029297 0.47143555
vt 0.54589844 0.47094727
vt 0.55029297 0.47143555
vt 0.55029297 0.47143555
vt 0.55029297 0.47143555
vt 0.55322266 0.47607422
vt 0.55566406 0.47851562
vt 0.55029297 0.47143555
vt 0.55322266 0.47607422
vt 0.55566406 0.47851562
vt 0.55322266 0.47607422
vt 0.55566406 0.4790039
vt 0.5551758 0.4921875
vt 0.55908203 0.49072266
vt 0.55566406 0.4921875
vt 0.5576172 0.42749023
vt 0.57470703 0.43164062
vt 0.57128906 0.43066406
vt 0.5576172 0.42749023
vt 0.57128906 0.43066406
vt 0.5595703 0.42773438
vt 0.57470703 0.43164062
vt 0.57470703 0.43164062
vt 0.5576172 0.42749023
vt 0.57470703 0.43164062
vt 0.5576172 0.42749023
vt 0.5576172 0.42749023
vt 0.5654297 0.41088867
vt 0.5654297 0.41088867
vt 0.5727539 0.41137695
vt 0.5410156 0.4921875
vt 0.9501953 0.4921875
vt 0.83935547 0.017349243
vt 0.5410156 0.4921875
vt 0.83935547 0.017349243
vt 0.5410156 0.017349243
vt 0.9501953 0.4921875
vt 0.9501953 0.017349243
vt 0.83935547 0.017349243
vt 0.5410156 0.10070801
vt 0.9501953 0.11151123
vt 0.73095703 0.017349243
vt 0.5410156 0.10070801
vt 0.73095703 0.017349243
vt 0.5410156 0.017349243
vt 0.9501953 0.11151123
vt 0.9501953 0.017349243
vt 0.73095703 0.017349243
vt 0.5410156 0.10070801
vt 0.5410156 0.31933594
vt 0.9501953 0.28759766
vt 0.5410156 0.10070801
vt 0.9501953 0.28759766
vt 0.9501953 0.11151123
vt 0.5410156 0.31933594
vt 0.5410156 0.4921875
vt 0.9501953 0.42700195
vt 0.5410156 0.31933594
vt 0.9501953 0.42700195
vt 0.9501953 0.28759766
vt 0.5410156 0.4921875
vt 0.9501953 0.4921875
vt 0.9501953 0.42700195
vn 0.3479004 0.03286743 -0.9370117
vn 0.30419922 0.030410767 -0.9448242
vn 0.31762695 0.0033931732 -0.94677734
vn 0.3479004 0.03286743 -0.9370117
vn 0.3149414 0.043182373 -0.94384766
vn 0.30419922 0.030410767 -0.9448242
vn 0.3479004 0.03286743 -0.9370117
vn 0.64160156 0.3408203 -0.6875
vn 0.45361328 0.25952148 -0.79296875
vn 0.3479004 0.03286743 -0.9370117
vn 0.45361328 0.25952148 -0.79296875
vn 0.3149414 0.043182373 -0.94384766
vn -0.25683594 0.05142212 -0.96533203
vn -0.1928711 0.041778564 -0.9736328
vn -0.15881348 0.06695557 -0.9711914
vn -0.25683594 0.05142212 -0.96533203
vn -0.25756836 0.05078125 -0.96484375
vn -0.1928711 0.041778564 -0.9736328
vn -0.25683594 0.05142212 -0.96533203
vn -0.26660156 0.050048828 -0.96240234
vn -0.25952148 0.050323486 -0.96435547
vn -0.25683594 0.05142212 -0.96533203
vn -0.25952148 0.050323486 -0.96435547
vn -0.25756836 0.05078125 -0.96484375
vn -0.26660156 0.050048828 -0.96240234
vn -0.27246094 0.04714966 -0.9609375
vn -0.26538086 0.048706055 -0.9628906
vn -0.26660156 0.050048828 -0.96240234
vn -0.26538086 0.048706055 -0.9628906
vn -0.25952148 0.050323486 -0.96435547
vn 0.25830078 -0.9658203 -0.00094795227
vn 0.3491211 -0.8730469 -0.019454956
vn 0.34716797 -0.85791016 -0.04586792
vn 0.28344727 -0.95458984 -0.09320068
vn 0.37304688 -0.84277344 -0.1274414
vn 0.38623047 -0.8286133 -0.20788574
vn 0.28344727 -0.95458984 -0.09320068
vn 0.25830078 -0.9658203 -0.00094795227
vn 0.34716797 -0.85791016 -0.04586792
vn 0.28344727 -0.95458984 -0.09320068
vn 0.34716797 -0.85791016 -0.04586792
vn 0.37304688 -0.84277344 -0.1274414
vn 0.28344727 -0.95458984 -0.09320068
vn 0.38623047 -0.8286133 -0.20788574
vn 0.375 -0.83740234 -0.20385742
vn 0.28344727 -0.95458984 -0.09320068
vn 0.375 -0.83740234 -0.20385742
vn 0.26049805 -0.9584961 -0.109069824
vn 0.38623047 -0.8286133 -0.20788574
vn 0.3894043 -0.8222656 -0.21569824
vn 0.375 -0.83740234 -0.20385742
vn 0.28344727 -0.95458984 -0.09320068
vn 0.26049805 -0.9584961 -0.109069824
vn 0.046203613 -0.93359375 -0.06591797
vn 0.25830078 -0.9658203 -0.00094795227
vn 0.28344727 -0.95458984 -0.09320068
vn -0.5175781 -0.85546875 0.0020999908
vn -0.5175781 -0.85546875 0.0020999908
vn 0.28344727 -0.95458984 -0.09320068
vn 0.046203613 -0.93359375 -0.06591797
vn -0.5175781 -0.85546875 0.0020999908
vn 0.046203613 -0.93359375 -0.06591797
vn -0.48754883 -0.8725586 -0.0029773712
vn -0.5175781 -0.85546875 0.0020999908
vn -0.48754883 -0.8725586 -0.0029773712
vn -0.69970703 -0.6801758 -0.011802673
vn -0.8305664 -0.5566406 -0.023513794
vn -0.5175781 -0.85546875 0.0020999908
vn -0.69970703 -0.6801758 -0.011802673
vn -0.8305664 -0.5566406 -0.023513794
vn -0.69970703 -0.6801758 -0.011802673
vn -0.8330078 -0.5527344 -0.022735596
vn -0.6328125 0.64990234 0.085876465
vn -0.79248047 0.4790039 0.061065674
vn -0.6621094 0.56640625 0.018737793
vn 0.6098633 0.79248047 -0.0035381317
vn -0.16027832 0.9868164 -0.0051078796
vn -0.046539307 0.97998047 -0.030334473
vn 0.6098633 0.79248047 -0.0035381317
vn -0.046539307 0.97998047 -0.030334473
vn 0.4873047 0.8510742 -0.036712646
vn -0.23376465 0.97216797 -1.1920929E-07
vn -0.16027832 0.9868164 -0.0051078796
vn 0.6098633 0.79248047 -0.0035381317
vn -0.23376465 0.97216797 -1.1920929E-07
vn 0.6098633 0.79248047 -0.0035381317
vn 0.67578125 0.7368164 5.9604645E-08
vn -0.05331421 -0.99853516 0.009773254
vn -0.05581665 -0.99853516 0.0068092346
vn -0.24707031 -0.9663086 -0.034362793
vn -0.000333786 0.00015091896 -1
vn -0.00034070015 0.0001540184 -1
vn -0.0003709793 0.00016772747 -1
vn -0.000333786 0.00015091896 -1
vn -0.0003709793 0.00016772747 -1
vn -0.00036597252 0.0001654625 -1
vn -0.00034070015 0.0001540184 -1
vn -0.00037288666 0.00016856194 -1
vn -0.0003709793 0.00016772747 -1
vn -0.021911621 0.0016317368 -0.9995117
vn -0.017715454 0.0012216568 -0.9995117
vn -0.020004272 0.0025577545 -0.9995117
vn -0.021911621 0.0016317368 -0.9995117
vn -0.020004272 0.0025577545 -0.9995117
vn -0.021957397 0.0026836395 -0.9995117
vn -0.017715454 0.0012216568 -0.9995117
vn -0.01777649 0.0024108887 -0.9995117
vn -0.020004272 0.0025577545 -0.9995117
vn -0.021911621 0.0016317368 -0.9995117
vn -0.02444458 -0.0063934326 -0.9995117
vn -0.01977539 -0.0052490234 -0.9995117
vn -0.021911621 0.0016317368 -0.9995117
vn -0.01977539 -0.0052490234 -0.9995117
vn -0.017715454 0.0012216568 -0.9995117
vn -0.02444458 -0.0063934326 -0.9995117
vn -0.022094727 -0.006958008 -0.9995117
vn -0.017868042 -0.0057029724 -0.9995117
vn -0.02444458 -0.0063934326 -0.9995117
vn -0.017868042 -0.0057029724 -0.9995117
vn -0.01977539 -0.0052490234 -0.9995117
vn -0.022094727 -0.006958008 -0.9995117
vn -0.016983032 -0.0059127808 -0.9995117
vn -0.017868042 -0.0057029724 -0.9995117
g DecalMesh_Common_Decal_Water_03__36_0
f 3/3/3 2/2/2 1/1/1
f 6/6/6 5/5/5 4/4/4
f 9/9/9 8/8/8 7/7/7
f 12/12/12 11/11/11 10/10/10
f 15/15/15 14/14/14 13/13/13
f 18/18/18 17/17/17 16/16/16
f 21/21/21 20/20/20 19/19/19
f 24/24/24 23/23/23 22/22/22
f 27/27/27 26/26/26 25/25/25
f 30/30/30 29/29/29 28/28/28
f 33/33/33 32/32/32 31/31/31
f 36/36/36 35/35/35 34/34/34
f 39/39/39 38/38/38 37/37/37
f 42/42/42 41/41/41 40/40/40
f 45/45/45 44/44/44 43/43/43
f 48/48/48 47/47/47 46/46/46
f 51/51/51 50/50/50 49/49/49
f 54/54/54 53/53/53 52/52/52
f 57/57/57 56/56/56 55/55/55
f 60/60/60 59/59/59 58/58/58
f 63/63/63 62/62/62 61/61/61
f 66/66/66 65/65/65 64/64/64
f 69/69/69 68/68/68 67/67/67
f 72/72/72 71/71/71 70/70/70
f 75/75/75 74/74/74 73/73/73
f 78/78/78 77/77/77 76/76/76
f 81/81/81 80/80/80 79/79/79
f 84/84/84 83/83/83 82/82/82
f 87/87/87 86/86/86 85/85/85
f 90/90/90 89/89/89 88/88/88
f 93/93/93 92/92/92 91/91/91
f 96/96/96 95/95/95 94/94/94
f 99/99/99 98/98/98 97/97/97
f 102/102/102 101/101/101 100/100/100
f 105/105/105 104/104/104 103/103/103
f 108/108/108 107/107/107 106/106/106
f 111/111/111 110/110/110 109/109/109
f 114/114/114 113/113/113 112/112/112
f 117/117/117 116/116/116 115/115/115
f 120/120/120 119/119/119 118/118/118
f 123/123/123 122/122/122 121/121/121
