g DecalMesh_MetroArea_Decal_Ground_15__9
v 0.11994425 1.0473487 -0.11383997
v 0.11546748 -1.0473487 -0.11383979
v 0.3396962 -1.0473487 -0.11383981
v 0.11994425 1.0473487 -0.11383997
v 0.09899902 1.0473487 -0.11383997
v 0.09899902 -1.0473487 -0.11383979
v 0.11994425 1.0473487 -0.11383997
v 0.09899902 -1.0473487 -0.11383979
v 0.11546748 -1.0473487 -0.11383979
v 1.038565 1.0473485 -0.11384004
v 0.11994424 1.0473489 -0.11383997
v 0.33969617 -1.0473485 -0.11383981
v 1.038565 1.0473485 -0.11384004
v 0.33969617 -1.0473485 -0.11383981
v 1.038565 -1.0473487 -0.11383987
v -0.08069154 1.0473485 -0.11384067
v -1.0385653 1.0473485 -0.113840595
v -1.0385653 -0.016956007 -0.113840505
v 0.09899715 1.0473487 -0.113840684
v -1.0385655 -0.19137476 -0.11384049
v -0.9248341 -1.0473489 -0.11384045
v 0.09899715 1.0473487 -0.113840684
v -0.9248341 -1.0473489 -0.11384045
v 0.098997556 -1.0473489 -0.11384056
v -1.0385655 -0.19137476 -0.11384049
v -1.0385655 -1.0473487 -0.11384044
v -0.9248341 -1.0473487 -0.11384045
v 0.09899715 1.0473487 -0.113840684
v -0.0806913 1.0473487 -0.11384067
v -1.038565 -0.01695572 -0.113840505
v 0.09899715 1.0473487 -0.113840684
v -1.038565 -0.01695572 -0.113840505
v -1.0385655 -0.19137476 -0.11384049
v 0.94763947 1.0473489 -0.19515786
v 0.94763947 1.0473489 -0.74084014
v 0.94763947 0.20995773 -0.74084014
v 0.94763947 -1.0473487 -0.1951573
v 0.94763947 1.0473489 -0.19515786
v 0.94763947 0.2099578 -0.74084014
v 0.94763947 -1.0473487 -0.1951573
v 0.94763947 0.2099578 -0.74084014
v 0.94763947 -1.0473487 -0.74084014
v 0.9586315 1.0473487 -0.11958167
v 0.9586315 -1.0473487 -0.16004533
v 0.9586315 -1.0473487 -0.11958156
v 0.9586315 1.0473487 -0.11958167
v 0.9586315 1.0473487 -0.12945096
v 0.9586315 -1.0473487 -0.16463053
v 0.9586315 1.0473487 -0.11958167
v 0.9586315 -1.0473487 -0.16463053
v 0.9586315 -1.0473487 -0.16004533
v 0.9586315 1.0473486 -0.12945096
v 0.9586315 1.0473486 -0.19515747
v 0.9586315 -1.0473487 -0.19515724
v 0.9586315 1.0473486 -0.12945096
v 0.9586315 -1.0473487 -0.19515724
v 0.9586315 -1.0473487 -0.16463053
v 0.9586315 1.0473486 -0.19515747
v 0.88276064 1.0473486 -0.19515747
v 0.9233825 -1.0473487 -0.19515724
v 0.9586315 1.0473486 -0.19515747
v 0.9233825 -1.0473487 -0.19515724
v 0.9586315 -1.0473487 -0.19515724
v 0.88276064 1.0473487 -0.19515747
v 0.8766591 -1.0473487 -0.19515724
v 0.9233825 -1.0473487 -0.19515724
v 0.88276064 1.0473487 -0.19515747
v 0.8713646 1.0473487 -0.19515747
v 0.8713646 -1.0473487 -0.19515724
v 0.88276064 1.0473487 -0.19515747
v 0.8713646 -1.0473487 -0.19515724
v 0.8766591 -1.0473487 -0.19515724
vt 0.06311035 0.5517578
vt 0.06335449 0.41186523
vt 0.048431396 0.41186523
vt 0.06311035 0.5517578
vt 0.064453125 0.5517578
vt 0.064453125 0.41186523
vt 0.06311035 0.5517578
vt 0.064453125 0.41186523
vt 0.06335449 0.41186523
vt 0.0018415451 0.5517578
vt 0.06311035 0.5517578
vt 0.048431396 0.41186523
vt 0.0018415451 0.5517578
vt 0.048431396 0.41186523
vt 0.0018415451 0.41186523
vt 0.07647705 0.5517578
vt 0.14025879 0.5517578
vt 0.14025879 0.4807129
vt 0.064453125 0.5517578
vt 0.14025879 0.46899414
vt 0.13269043 0.41186523
vt 0.064453125 0.5517578
vt 0.13269043 0.41186523
vt 0.064453125 0.41186523
vt 0.14025879 0.46899414
vt 0.14025879 0.41186523
vt 0.13269043 0.41186523
vt 0.064453125 0.5517578
vt 0.07647705 0.5517578
vt 0.14025879 0.4807129
vt 0.064453125 0.5517578
vt 0.14025879 0.4807129
vt 0.14025879 0.46899414
vt 0.007904053 0.5517578
vt 0.007904053 0.5517578
vt 0.007904053 0.4958496
vt 0.007904053 0.41186523
vt 0.007904053 0.5517578
vt 0.007904053 0.4958496
vt 0.007904053 0.41186523
vt 0.007904053 0.4958496
vt 0.007904053 0.41186523
vt 0.007171631 0.5517578
vt 0.007171631 0.41186523
vt 0.007171631 0.41186523
vt 0.007171631 0.5517578
vt 0.007171631 0.5517578
vt 0.007171631 0.41186523
vt 0.007171631 0.5517578
vt 0.007171631 0.41186523
vt 0.007171631 0.41186523
vt 0.007171631 0.5517578
vt 0.007171631 0.5517578
vt 0.007171631 0.41186523
vt 0.007171631 0.5517578
vt 0.007171631 0.41186523
vt 0.007171631 0.41186523
vt 0.007171631 0.5517578
vt 0.012229919 0.5517578
vt 0.009521484 0.41186523
vt 0.007171631 0.5517578
vt 0.009521484 0.41186523
vt 0.007171631 0.41186523
vt 0.012229919 0.5517578
vt 0.012634277 0.41186523
vt 0.009521484 0.41186523
vt 0.012229919 0.5517578
vt 0.0129852295 0.5517578
vt 0.0129852295 0.41186523
vt 0.012229919 0.5517578
vt 0.0129852295 0.41186523
vt 0.012634277 0.41186523
vn -0 -1.1920929E-07 -1
vn -0 -1.1920929E-07 -1
vn -0 -1.1920929E-07 -1
vn -0 -1.1920929E-07 -1
vn -0 -1.1920929E-07 -1
vn -0 -1.1920929E-07 -1
vn -0 -1.1920929E-07 -1
vn -0 -1.1920929E-07 -1
vn -0 -1.1920929E-07 -1
vn -0 -1.1920929E-07 -1
vn -0 -1.1920929E-07 -1
vn -0 -1.1920929E-07 -1
vn -0 -1.1920929E-07 -1
vn -0 -1.1920929E-07 -1
vn -0 -1.1920929E-07 -1
vn -0 -1.1920929E-07 -1
vn -0 -1.1920929E-07 -1
vn -0 -1.1920929E-07 -1
vn -0 -1.1920929E-07 -1
vn -0 -1.1920929E-07 -1
vn -0 -1.1920929E-07 -1
vn -0 -1.1920929E-07 -1
vn -0 -1.1920929E-07 -1
vn -0 -1.1920929E-07 -1
vn -0 -1.1920929E-07 -1
vn -0 -1.1920929E-07 -1
vn -0 -1.1920929E-07 -1
vn -0 -1.1920929E-07 -1
vn -0 -1.1920929E-07 -1
vn -0 -1.1920929E-07 -1
vn -0 -1.1920929E-07 -1
vn -0 -1.1920929E-07 -1
vn -0 -1.1920929E-07 -1
vn 1 5.9604645E-08 -0
vn 1 5.9604645E-08 -0
vn 1 5.9604645E-08 -0
vn 1 5.9604645E-08 -0
vn 1 5.9604645E-08 -0
vn 1 5.9604645E-08 -0
vn 1 5.9604645E-08 -0
vn 1 5.9604645E-08 -0
vn 1 5.9604645E-08 -0
vn 1 5.9604645E-08 -0
vn 1 5.9604645E-08 -0
vn 1 5.9604645E-08 -0
vn 1 5.9604645E-08 -0
vn 1 5.9604645E-08 -0
vn 1 5.9604645E-08 -0
vn 1 5.9604645E-08 -0
vn 1 5.9604645E-08 -0
vn 1 5.9604645E-08 -0
vn 1 5.9604645E-08 -0
vn 1 5.9604645E-08 -0
vn 1 5.9604645E-08 -0
vn 1 5.9604645E-08 -0
vn 1 5.9604645E-08 -0
vn 1 5.9604645E-08 -0
vn -2.3841858E-07 -1.1920929E-07 -1
vn -2.3841858E-07 -1.1920929E-07 -1
vn -2.3841858E-07 -1.1920929E-07 -1
vn -2.3841858E-07 -1.1920929E-07 -1
vn -2.3841858E-07 -1.1920929E-07 -1
vn -2.3841858E-07 -1.1920929E-07 -1
vn -2.3841858E-07 -1.1920929E-07 -1
vn -2.3841858E-07 -1.1920929E-07 -1
vn -2.3841858E-07 -1.1920929E-07 -1
vn -2.3841858E-07 -1.1920929E-07 -1
vn -2.3841858E-07 -1.1920929E-07 -1
vn -2.3841858E-07 -1.1920929E-07 -1
vn -2.3841858E-07 -1.1920929E-07 -1
vn -2.3841858E-07 -1.1920929E-07 -1
vn -2.3841858E-07 -1.1920929E-07 -1
g DecalMesh_MetroArea_Decal_Ground_15__9_0
f 3/3/3 2/2/2 1/1/1
f 6/6/6 5/5/5 4/4/4
f 9/9/9 8/8/8 7/7/7
f 12/12/12 11/11/11 10/10/10
f 15/15/15 14/14/14 13/13/13
f 18/18/18 17/17/17 16/16/16
f 21/21/21 20/20/20 19/19/19
f 24/24/24 23/23/23 22/22/22
f 27/27/27 26/26/26 25/25/25
f 30/30/30 29/29/29 28/28/28
f 33/33/33 32/32/32 31/31/31
f 36/36/36 35/35/35 34/34/34
f 39/39/39 38/38/38 37/37/37
f 42/42/42 41/41/41 40/40/40
f 45/45/45 44/44/44 43/43/43
f 48/48/48 47/47/47 46/46/46
f 51/51/51 50/50/50 49/49/49
f 54/54/54 53/53/53 52/52/52
f 57/57/57 56/56/56 55/55/55
f 60/60/60 59/59/59 58/58/58
f 63/63/63 62/62/62 61/61/61
f 66/66/66 65/65/65 64/64/64
f 69/69/69 68/68/68 67/67/67
f 72/72/72 71/71/71 70/70/70
