g DecalMesh_Common_Decal_Crack_01__60
v 1.2470678 1.5245936 -0.47926313
v 1.2470684 -0.9754068 -0.47926313
v 1.2633334 -0.8007196 -0.47926313
v 1.2470678 1.5245936 -0.47926313
v 1.2633334 -0.8007196 -0.47926313
v 1.2633334 1.5245936 -0.47926313
v 1.2470684 -0.9754068 -0.47926313
v 1.2633334 -0.9754068 -0.47926313
v 1.2633334 -0.80071956 -0.47926313
v 1.2633334 -3.3007288 -0.47926313
v 1.2470684 -0.9754068 -0.47926313
v 1.2470692 -3.4377947 -0.47926313
v 1.2633334 -3.3007288 -0.47926313
v 1.2470692 -3.4377947 -0.47926313
v 1.2505714 -3.4377947 -0.47926313
v 1.2470684 -0.9754068 -0.47926313
v 1.2633334 -3.3007288 -0.47926313
v 1.2633334 -0.9754068 -0.47926313
v 1.2633334 -3.3007286 -0.47926313
v 1.2505713 -3.4377947 -0.47926313
v 1.2633334 -3.4377947 -0.47926313
v 1.2470678 1.5245936 -0.33671546
v 1.2633334 1.5245936 -0.3466763
v 1.2633334 1.5245936 -0.33671573
v 1.2470678 1.5245936 -0.33671546
v 1.2470678 1.5245936 -0.47926313
v 1.2633334 1.5245936 -0.47926313
v 1.2470678 1.5245936 -0.33671546
v 1.2633334 1.5245936 -0.47926313
v 1.2633334 1.5245936 -0.3466763
v 1.2470678 1.5245936 -0.47926313
v 1.2470678 1.5245936 -0.33671546
v 1.2470684 -0.97540677 -0.33676887
v 1.2470678 1.5245936 -0.47926313
v 1.2470684 -0.97540677 -0.33676887
v 1.2470684 -0.9754068 -0.47926313
v 1.2470684 -0.9754068 -0.47926313
v 1.2470684 -0.97540677 -0.33676887
v 1.2470692 -3.4377947 -0.33676887
v 1.2470684 -0.9754068 -0.47926313
v 1.2470692 -3.4377947 -0.33676887
v 1.2470692 -3.4377947 -0.3389127
v 1.2470684 -0.9754068 -0.47926313
v 1.2470692 -3.4377947 -0.3389127
v 1.2470692 -3.4377947 -0.47926313
v 1.2470678 1.5245936 -0.47926313
v -1.2529325 1.5245936 -0.498196
v -1.2529324 1.1682748 -0.5
v 1.2470678 1.5245936 -0.47926313
v -1.2529324 1.1682748 -0.5
v -0.39402425 -0.11649913 -0.5
v 1.2470684 -0.9754068 -0.47926313
v 1.2470678 1.5245936 -0.47926313
v -0.39402425 -0.11649913 -0.5
v 1.2470684 -0.9754068 -0.47926313
v -0.39402425 -0.11649913 -0.5
v -0.39402404 -0.9754068 -0.5
v 1.2470684 -0.9754068 -0.47926313
v -1.2153186 -3.4377947 -0.47926378
v 1.2470695 -3.4377947 -0.47926313
v 1.2470684 -0.9754068 -0.47926313
v -1.2529317 -0.9754068 -0.47926366
v -1.252931 -3.4377947 -0.47926378
v 1.2470684 -0.9754068 -0.47926313
v -1.252931 -3.4377947 -0.47926378
v -1.2153186 -3.4377947 -0.47926378
v -1.2529317 -0.9754068 -0.4892658
v -1.2633334 -0.9754068 -0.4892658
v -1.2633334 -1.0847026 -0.4892658
v -1.2529317 -0.9754068 -0.4892658
v -1.2633334 -1.0847025 -0.4892658
v -1.2551388 -2.9680088 -0.5
v -1.2529317 -0.9754068 -0.4892658
v -1.2551388 -2.9680088 -0.5
v -1.253062 -2.9461882 -0.5
v -1.2529317 -0.9754068 -0.4892658
v -1.253062 -2.9461882 -0.5
v -1.252931 -2.9448054 -0.5
v -1.2633334 -1.0847025 -0.4892658
v -1.2633334 -3.054106 -0.5
v -1.2551388 -2.9680088 -0.5
v -1.2529325 1.5245936 -0.47926366
v -1.2633334 1.5245936 -0.47926366
v -1.2633334 1.4153066 -0.47926366
v -1.2529317 -0.9754068 -0.47926366
v -1.2529325 1.5245936 -0.47926366
v -1.2633334 1.4153066 -0.47926366
v -1.2529317 -0.9754068 -0.47926366
v -1.2633334 1.4153066 -0.47926366
v -1.2633334 -0.9754068 -0.47926366
v 1.2470678 1.5245936 -0.47926313
v 1.2470678 1.5245936 -0.33666587
v -1.2529325 1.5245936 -0.33666646
v 1.2470678 1.5245936 -0.47926313
v -1.2529325 1.5245936 -0.33666646
v -1.2529325 1.5245936 -0.47926366
v -1.2529325 1.5245936 -0.47926366
v -1.2529325 1.5245936 -0.498196
v 1.2470678 1.5245936 -0.47926313
v -1.2529325 1.5245936 -0.47926366
v -1.2529325 1.5245936 -0.33666646
v -1.2633334 1.5245936 -0.3366688
v -1.2529325 1.5245936 -0.47926366
v -1.2633334 1.5245936 -0.3366688
v -1.2633334 1.5245936 -0.47303241
v -1.2529325 1.5245936 -0.47926366
v -1.2633334 1.5245936 -0.47303241
v -1.2633334 1.5245936 -0.47926366
v -1.2529325 1.5245936 -0.498196
v -1.2529317 -0.9754068 -0.47926366
v -1.2529316 -0.9754068 -0.5
v -1.2529325 1.5245936 -0.498196
v -1.2529316 -0.9754068 -0.5
v -1.2529324 1.1682748 -0.5
v -1.2529317 -0.9754068 -0.47926366
v -1.2529325 1.5245936 -0.498196
v -1.2529325 1.5245936 -0.47926366
v -1.2529317 -0.9754068 -0.4892658
v -1.2633334 -0.9754068 -0.48882854
v -1.2633334 -0.9754068 -0.4892658
v -1.2529317 -0.9754068 -0.4892658
v -1.2529317 -0.9754068 -0.47926366
v -1.2633334 -0.9754068 -0.47926366
v -1.2529317 -0.9754068 -0.4892658
v -1.2633334 -0.9754068 -0.47926366
v -1.2633334 -0.9754068 -0.48882854
v 1.2469691 1.5245936 -0.47926313
v 1.2633334 1.7003474 -0.47926313
v 1.2511002 3.4377947 -0.47926313
v 1.2469691 1.5245936 -0.47926313
v 1.2511002 3.4377947 -0.47926313
v 1.2469687 3.4377947 -0.47926313
v 1.2633334 1.7003474 -0.47926313
v 1.2633334 3.4377947 -0.47926313
v 1.2511002 3.4377947 -0.47926313
v 1.2469691 1.5245936 -0.47926313
v 1.2633334 1.5245936 -0.47926313
v 1.2633334 1.7003474 -0.47926313
v 1.2469691 1.5245936 -0.47926313
v 1.2469691 1.5245936 -0.33671546
v 1.2633334 1.5245936 -0.33671573
v 1.2469691 1.5245936 -0.47926313
v 1.2633334 1.5245936 -0.33671573
v 1.2633334 1.5245936 -0.4692421
v 1.2469691 1.5245936 -0.47926313
v 1.2633334 1.5245936 -0.4692421
v 1.2633334 1.5245936 -0.47926313
v 1.2469691 1.5245936 -0.33671546
v 1.2469687 3.4377947 -0.4458044
v 1.2469687 3.4377947 -0.33675632
v 1.2469691 1.5245936 -0.33671546
v 1.2469691 1.5245936 -0.47926313
v 1.2469687 3.4377947 -0.47926313
v 1.2469691 1.5245936 -0.33671546
v 1.2469687 3.4377947 -0.47926313
v 1.2469687 3.4377947 -0.4458044
v 1.2428311 1.5245936 -0.47926313
v 1.2428313 3.4377947 -0.47926313
v -0.6703699 3.4377947 -0.47926354
v -1.2571691 1.5245936 -0.47926378
v 1.2428311 1.5245936 -0.47926313
v -0.6703699 3.4377947 -0.47926354
v -1.2571691 1.5245936 -0.47926378
v -0.6703699 3.4377947 -0.47926354
v -1.257169 3.4377947 -0.4792637
v -1.2571691 1.5245936 -0.47926378
v -1.2633334 1.5907985 -0.47952855
v -1.2633334 1.5245936 -0.47926378
v -1.2571691 1.5245936 -0.47926378
v -1.257169 3.4377947 -0.49480903
v -1.2633334 3.4377947 -0.49453586
v -1.2571691 1.5245936 -0.47926378
v -1.2633334 3.4377947 -0.49453586
v -1.2633334 1.5907985 -0.47952855
v 1.2428311 1.5245936 -0.47926313
v -1.2571691 1.5245936 -0.33666646
v 1.2428311 1.5245936 -0.33666205
v 1.2428311 1.5245936 -0.47926313
v -1.2571691 1.5245936 -0.47926378
v -1.2571691 1.5245936 -0.33666646
v -1.2571691 1.5245936 -0.33666646
v -1.2571691 1.5245936 -0.47926378
v -1.2633334 1.5245936 -0.47548893
v -1.2571691 1.5245936 -0.33666646
v -1.2633334 1.5245936 -0.47548893
v -1.2633334 1.5245936 -0.33666787
v -1.2571691 1.5245936 -0.47926378
v -1.2633334 1.5245936 -0.47926378
v -1.2633334 1.5245936 -0.47548893
vt -0.15124512 1.5244141
vt -0.15124512 1.2119141
vt -0.15332031 1.234375
vt -0.15124512 1.5244141
vt -0.15332031 1.234375
vt -0.15332031 1.5244141
vt -0.15124512 1.2119141
vt -0.15332031 1.2119141
vt -0.15332031 1.234375
vt -0.15332031 0.9213867
vt -0.15124512 1.2119141
vt -0.15124512 0.9042969
vt -0.15332031 0.9213867
vt -0.15124512 0.9042969
vt -0.1517334 0.9042969
vt -0.15124512 1.2119141
vt -0.15332031 0.9213867
vt -0.15332031 1.2119141
vt -0.15332031 0.9213867
vt -0.1517334 0.9042969
vt -0.15332031 0.9042969
vt -0.15124512 1.5244141
vt -0.15332031 1.5244141
vt -0.15332031 1.5244141
vt -0.15124512 1.5244141
vt -0.15124512 1.5244141
vt -0.15332031 1.5244141
vt -0.15124512 1.5244141
vt -0.15332031 1.5244141
vt -0.15332031 1.5244141
vt -0.15124512 1.5244141
vt -0.15124512 1.5244141
vt -0.15124512 1.2119141
vt -0.15124512 1.5244141
vt -0.15124512 1.2119141
vt -0.15124512 1.2119141
vt -0.15124512 1.2119141
vt -0.15124512 1.2119141
vt -0.15124512 0.9042969
vt -0.15124512 1.2119141
vt -0.15124512 0.9042969
vt -0.15124512 0.9042969
vt -0.15124512 1.2119141
vt -0.15124512 0.9042969
vt -0.15124512 0.9042969
vt -0.15124512 1.5244141
vt 0.16125488 1.5244141
vt 0.16125488 1.4804688
vt -0.15124512 1.5244141
vt 0.16125488 1.4804688
vt 0.053863525 1.3193359
vt -0.15124512 1.2119141
vt -0.15124512 1.5244141
vt 0.053863525 1.3193359
vt -0.15124512 1.2119141
vt 0.053863525 1.3193359
vt 0.053863525 1.2119141
vt -0.15124512 1.2119141
vt 0.15649414 0.9042969
vt -0.15124512 0.9042969
vt -0.15124512 1.2119141
vt 0.16125488 1.2119141
vt 0.16125488 0.9042969
vt -0.15124512 1.2119141
vt 0.16125488 0.9042969
vt 0.15649414 0.9042969
vt 0.16125488 1.2119141
vt 0.16247559 1.2119141
vt 0.16247559 1.1982422
vt 0.16125488 1.2119141
vt 0.16247559 1.1982422
vt 0.16149902 0.9628906
vt 0.16125488 1.2119141
vt 0.16149902 0.9628906
vt 0.16125488 0.9658203
vt 0.16125488 1.2119141
vt 0.16125488 0.9658203
vt 0.16125488 0.9658203
vt 0.16247559 1.1982422
vt 0.16247559 0.95214844
vt 0.16149902 0.9628906
vt 0.16125488 1.5244141
vt 0.16247559 1.5244141
vt 0.16247559 1.5107422
vt 0.16125488 1.2119141
vt 0.16125488 1.5244141
vt 0.16247559 1.5107422
vt 0.16125488 1.2119141
vt 0.16247559 1.5107422
vt 0.16247559 1.2119141
vt -0.15124512 1.5244141
vt -0.15124512 1.5244141
vt 0.16125488 1.5244141
vt -0.15124512 1.5244141
vt 0.16125488 1.5244141
vt 0.16125488 1.5244141
vt 0.16125488 1.5244141
vt 0.16125488 1.5244141
vt -0.15124512 1.5244141
vt 0.16125488 1.5244141
vt 0.16125488 1.5244141
vt 0.16247559 1.5244141
vt 0.16125488 1.5244141
vt 0.16247559 1.5244141
vt 0.16247559 1.5244141
vt 0.16125488 1.5244141
vt 0.16247559 1.5244141
vt 0.16247559 1.5244141
vt 0.16125488 1.5244141
vt 0.16125488 1.2119141
vt 0.16125488 1.2119141
vt 0.16125488 1.5244141
vt 0.16125488 1.2119141
vt 0.16125488 1.4804688
vt 0.16125488 1.2119141
vt 0.16125488 1.5244141
vt 0.16125488 1.5244141
vt 0.16125488 1.2119141
vt 0.16247559 1.2119141
vt 0.16247559 1.2119141
vt 0.16125488 1.2119141
vt 0.16125488 1.2119141
vt 0.16247559 1.2119141
vt 0.16125488 1.2119141
vt 0.16247559 1.2119141
vt 0.16247559 1.2119141
vt -0.15124512 1.5244141
vt -0.15332031 1.546875
vt -0.1517334 1.7636719
vt -0.15124512 1.5244141
vt -0.1517334 1.7636719
vt -0.15124512 1.7636719
vt -0.15332031 1.546875
vt -0.15332031 1.7636719
vt -0.1517334 1.7636719
vt -0.15124512 1.5244141
vt -0.15332031 1.5244141
vt -0.15332031 1.546875
vt -0.15124512 1.5244141
vt -0.15124512 1.5244141
vt -0.15332031 1.5244141
vt -0.15124512 1.5244141
vt -0.15332031 1.5244141
vt -0.15332031 1.5244141
vt -0.15124512 1.5244141
vt -0.15332031 1.5244141
vt -0.15332031 1.5244141
vt -0.15124512 1.5244141
vt -0.15124512 1.7636719
vt -0.15124512 1.7636719
vt -0.15124512 1.5244141
vt -0.15124512 1.5244141
vt -0.15124512 1.7636719
vt -0.15124512 1.5244141
vt -0.15124512 1.7636719
vt -0.15124512 1.7636719
vt -0.15075684 1.5244141
vt -0.15075684 1.7636719
vt 0.088378906 1.7636719
vt 0.16174316 1.5244141
vt -0.15075684 1.5244141
vt 0.088378906 1.7636719
vt 0.16174316 1.5244141
vt 0.088378906 1.7636719
vt 0.16174316 1.7636719
vt 0.16174316 1.5244141
vt 0.16247559 1.5332031
vt 0.16247559 1.5244141
vt 0.16174316 1.5244141
vt 0.16174316 1.7636719
vt 0.16247559 1.7636719
vt 0.16174316 1.5244141
vt 0.16247559 1.7636719
vt 0.16247559 1.5332031
vt -0.15075684 1.5244141
vt 0.16174316 1.5244141
vt -0.15075684 1.5244141
vt -0.15075684 1.5244141
vt 0.16174316 1.5244141
vt 0.16174316 1.5244141
vt 0.16174316 1.5244141
vt 0.16174316 1.5244141
vt 0.16247559 1.5244141
vt 0.16174316 1.5244141
vt 0.16247559 1.5244141
vt 0.16247559 1.5244141
vt 0.16174316 1.5244141
vt 0.16247559 1.5244141
vt 0.16247559 1.5244141
vn -5.9604645E-08 -1.1920929E-07 -1
vn -5.9604645E-08 -1.1920929E-07 -1
vn -5.9604645E-08 -1.1920929E-07 -1
vn -5.9604645E-08 -1.1920929E-07 -1
vn -5.9604645E-08 -1.1920929E-07 -1
vn -5.9604645E-08 -1.1920929E-07 -1
vn -5.9604645E-08 -1.1920929E-07 -1
vn -5.9604645E-08 -1.1920929E-07 -1
vn -5.9604645E-08 -1.1920929E-07 -1
vn -5.9604645E-08 -1.1920929E-07 -1
vn -5.9604645E-08 -1.1920929E-07 -1
vn -5.9604645E-08 -1.1920929E-07 -1
vn -5.9604645E-08 -1.1920929E-07 -1
vn -5.9604645E-08 -1.1920929E-07 -1
vn -5.9604645E-08 -1.1920929E-07 -1
vn -5.9604645E-08 -1.1920929E-07 -1
vn -5.9604645E-08 -1.1920929E-07 -1
vn -5.9604645E-08 -1.1920929E-07 -1
vn -5.9604645E-08 -1.1920929E-07 -1
vn -5.9604645E-08 -1.1920929E-07 -1
vn -5.9604645E-08 -1.1920929E-07 -1
vn -1.1920929E-07 1 0
vn -1.1920929E-07 1 0
vn -1.1920929E-07 1 0
vn -1.1920929E-07 1 0
vn -1.1920929E-07 1 0
vn -1.1920929E-07 1 0
vn -1.1920929E-07 1 0
vn -1.1920929E-07 1 0
vn -1.1920929E-07 1 0
vn -1 -1.7881393E-07 -2.3841858E-07
vn -1 -1.7881393E-07 -2.3841858E-07
vn -1 -1.7881393E-07 -2.3841858E-07
vn -1 -1.7881393E-07 -2.3841858E-07
vn -1 -1.7881393E-07 -2.3841858E-07
vn -1 -1.7881393E-07 -2.3841858E-07
vn -1 -1.7881393E-07 -2.3841858E-07
vn -1 -1.7881393E-07 -2.3841858E-07
vn -1 -1.7881393E-07 -2.3841858E-07
vn -1 -1.7881393E-07 -2.3841858E-07
vn -1 -1.7881393E-07 -2.3841858E-07
vn -1 -1.7881393E-07 -2.3841858E-07
vn -1 -1.7881393E-07 -2.3841858E-07
vn -1 -1.7881393E-07 -2.3841858E-07
vn -1 -1.7881393E-07 -2.3841858E-07
vn 0.010101318 0.0025310516 -1
vn 0.010101318 0.0025310516 -1
vn 0.010101318 0.0025310516 -1
vn 0.010101318 0.0025310516 -1
vn 0.010101318 0.0025310516 -1
vn 0.010101318 0.0025310516 -1
vn 0.005050659 0.0012655258 -1
vn 0.010101318 0.0025310516 -1
vn 0.010101318 0.0025310516 -1
vn 0.005050659 0.0012655258 -1
vn 0.010101318 0.0025310516 -1
vn 0.008369446 0.0020961761 -1
vn 0.005050659 0.0012655258 -1
vn 7.581711E-05 1.8894672E-05 -1
vn 0.00014925003 0.00010603666 -1
vn 0.005050659 0.0012655258 -1
vn -1.7881393E-07 -1.1920929E-07 -1
vn -1.7881393E-07 -1.1920929E-07 -1
vn 0.005050659 0.0012655258 -1
vn -1.7881393E-07 -1.1920929E-07 -1
vn 7.581711E-05 1.8894672E-05 -1
vn -0.028625488 0.0027236938 -0.9995117
vn -0.028625488 0.0027236938 -0.9995117
vn -0.028625488 0.0027236938 -0.9995117
vn -0.028625488 0.0027236938 -0.9995117
vn -0.028625488 0.0027236938 -0.9995117
vn -0.028625488 0.0027236938 -0.9995117
vn -0.028625488 0.0027236938 -0.9995117
vn -0.028625488 0.0027236938 -0.9995117
vn -0.028625488 0.0027236938 -0.9995117
vn -0.028625488 0.0027236938 -0.9995117
vn -0.028625488 0.0027236938 -0.9995117
vn -0.028625488 0.0027236938 -0.9995117
vn -0.028625488 0.0027236938 -0.9995117
vn -0.028625488 0.0027236938 -0.9995117
vn -0.028625488 0.0027236938 -0.9995117
vn -1.7881393E-07 -1.1920929E-07 -1
vn -1.7881393E-07 -1.1920929E-07 -1
vn -1.7881393E-07 -1.1920929E-07 -1
vn -1.7881393E-07 -1.1920929E-07 -1
vn -1.7881393E-07 -1.1920929E-07 -1
vn -1.7881393E-07 -1.1920929E-07 -1
vn -1.7881393E-07 -1.1920929E-07 -1
vn -1.7881393E-07 -1.1920929E-07 -1
vn -1.7881393E-07 -1.1920929E-07 -1
vn -2.3841858E-07 1 -0
vn -2.3841858E-07 1 -0
vn -2.3841858E-07 1 -0
vn -2.3841858E-07 1 -0
vn -2.3841858E-07 1 -0
vn -2.3841858E-07 1 -0
vn -2.3841858E-07 1 -0
vn -2.3841858E-07 1 -0
vn -2.3841858E-07 1 -0
vn -1.1920929E-07 1 0
vn -2.3841858E-07 1 -0
vn -2.3841858E-07 1 -0
vn -1.1920929E-07 1 0
vn -2.3841858E-07 1 -0
vn -1.1920929E-07 1 0
vn -1.1920929E-07 1 0
vn -1.1920929E-07 1 0
vn -1.1920929E-07 1 0
vn -1 -1.7881393E-07 -1.1920929E-07
vn -1 -1.7881393E-07 -1.1920929E-07
vn -1 -1.7881393E-07 -1.1920929E-07
vn -1 -1.7881393E-07 -1.1920929E-07
vn -1 -1.7881393E-07 -1.1920929E-07
vn -1 -1.7881393E-07 -1.1920929E-07
vn -1 -1.7881393E-07 -1.1920929E-07
vn -1 -1.7881393E-07 -1.1920929E-07
vn -1 -1.7881393E-07 -1.1920929E-07
vn -4.172325E-07 1 -0
vn -4.172325E-07 1 -0
vn -4.172325E-07 1 -0
vn -4.172325E-07 1 -0
vn -4.172325E-07 1 -0
vn -4.172325E-07 1 -0
vn -4.172325E-07 1 -0
vn -4.172325E-07 1 -0
vn -4.172325E-07 1 -0
vn -5.9604645E-08 -1.1920929E-07 -1
vn -5.9604645E-08 -1.1920929E-07 -1
vn -5.9604645E-08 -1.1920929E-07 -1
vn -5.9604645E-08 -1.1920929E-07 -1
vn -5.9604645E-08 -1.1920929E-07 -1
vn -5.9604645E-08 -1.1920929E-07 -1
vn -5.9604645E-08 -1.1920929E-07 -1
vn -5.9604645E-08 -1.1920929E-07 -1
vn -5.9604645E-08 -1.1920929E-07 -1
vn -5.9604645E-08 -1.1920929E-07 -1
vn -5.9604645E-08 -1.1920929E-07 -1
vn -5.9604645E-08 -1.1920929E-07 -1
vn 1.1920929E-07 -1 0
vn 1.1920929E-07 -1 0
vn 1.1920929E-07 -1 0
vn 1.1920929E-07 -1 0
vn 1.1920929E-07 -1 0
vn 1.1920929E-07 -1 0
vn 1.1920929E-07 -1 0
vn 1.1920929E-07 -1 0
vn 1.1920929E-07 -1 0
vn -1 -1.7881393E-07 -2.3841858E-07
vn -1 -1.7881393E-07 -2.3841858E-07
vn -1 -1.7881393E-07 -2.3841858E-07
vn -1 -1.7881393E-07 -2.3841858E-07
vn -1 -1.7881393E-07 -2.3841858E-07
vn -1 -1.7881393E-07 -2.3841858E-07
vn -1 -1.7881393E-07 -2.3841858E-07
vn -1 -1.7881393E-07 -2.3841858E-07
vn -1 -1.7881393E-07 -2.3841858E-07
vn 4.172325E-07 -1.1920929E-07 -1
vn 0.0033454895 0.0018138885 -1
vn 4.172325E-07 -1.1920929E-07 -1
vn -0.011077881 -0.003030777 -1
vn 4.172325E-07 -1.1920929E-07 -1
vn 4.172325E-07 -1.1920929E-07 -1
vn -0.011077881 -0.003030777 -1
vn 4.172325E-07 -1.1920929E-07 -1
vn -0.0025997162 -0.00071144104 -1
vn -0.011077881 -0.003030777 -1
vn -0.011367798 -0.0031108856 -1
vn -0.011367798 -0.0031108856 -1
vn -0.011077881 -0.003030777 -1
vn -0.019546509 -0.0053520203 -1
vn -0.019546509 -0.0053520203 -1
vn -0.011077881 -0.003030777 -1
vn -0.019546509 -0.0053520203 -1
vn -0.011367798 -0.0031108856 -1
vn -0 -1 -0
vn -0 -1 -0
vn -0 -1 -0
vn -0 -1 -0
vn -0 -1 -0
vn -0 -1 -0
vn -0 -1 -0
vn -0 -1 -0
vn 0 -1 -0
vn -0 -1 -0
vn 0 -1 -0
vn 0 -1 -0
vn -0 -1 -0
vn 0 -1 -0
vn 0 -1 -0
g DecalMesh_Common_Decal_Crack_01__60_0
f 3/3/3 2/2/2 1/1/1
f 6/6/6 5/5/5 4/4/4
f 9/9/9 8/8/8 7/7/7
f 12/12/12 11/11/11 10/10/10
f 15/15/15 14/14/14 13/13/13
f 18/18/18 17/17/17 16/16/16
f 21/21/21 20/20/20 19/19/19
f 24/24/24 23/23/23 22/22/22
f 27/27/27 26/26/26 25/25/25
f 30/30/30 29/29/29 28/28/28
f 33/33/33 32/32/32 31/31/31
f 36/36/36 35/35/35 34/34/34
f 39/39/39 38/38/38 37/37/37
f 42/42/42 41/41/41 40/40/40
f 45/45/45 44/44/44 43/43/43
f 48/48/48 47/47/47 46/46/46
f 51/51/51 50/50/50 49/49/49
f 54/54/54 53/53/53 52/52/52
f 57/57/57 56/56/56 55/55/55
f 60/60/60 59/59/59 58/58/58
f 63/63/63 62/62/62 61/61/61
f 66/66/66 65/65/65 64/64/64
f 69/69/69 68/68/68 67/67/67
f 72/72/72 71/71/71 70/70/70
f 75/75/75 74/74/74 73/73/73
f 78/78/78 77/77/77 76/76/76
f 81/81/81 80/80/80 79/79/79
f 84/84/84 83/83/83 82/82/82
f 87/87/87 86/86/86 85/85/85
f 90/90/90 89/89/89 88/88/88
f 93/93/93 92/92/92 91/91/91
f 96/96/96 95/95/95 94/94/94
f 99/99/99 98/98/98 97/97/97
f 102/102/102 101/101/101 100/100/100
f 105/105/105 104/104/104 103/103/103
f 108/108/108 107/107/107 106/106/106
f 111/111/111 110/110/110 109/109/109
f 114/114/114 113/113/113 112/112/112
f 117/117/117 116/116/116 115/115/115
f 120/120/120 119/119/119 118/118/118
f 123/123/123 122/122/122 121/121/121
f 126/126/126 125/125/125 124/124/124
f 129/129/129 128/128/128 127/127/127
f 132/132/132 131/131/131 130/130/130
f 135/135/135 134/134/134 133/133/133
f 138/138/138 137/137/137 136/136/136
f 141/141/141 140/140/140 139/139/139
f 144/144/144 143/143/143 142/142/142
f 147/147/147 146/146/146 145/145/145
f 150/150/150 149/149/149 148/148/148
f 153/153/153 152/152/152 151/151/151
f 156/156/156 155/155/155 154/154/154
f 159/159/159 158/158/158 157/157/157
f 162/162/162 161/161/161 160/160/160
f 165/165/165 164/164/164 163/163/163
f 168/168/168 167/167/167 166/166/166
f 171/171/171 170/170/170 169/169/169
f 174/174/174 173/173/173 172/172/172
f 177/177/177 176/176/176 175/175/175
f 180/180/180 179/179/179 178/178/178
f 183/183/183 182/182/182 181/181/181
f 186/186/186 185/185/185 184/184/184
f 189/189/189 188/188/188 187/187/187
