g DecalMesh_MetroArea_Decal_Crack_04__0
v -2.4999998 -1.8392226 -0.022104003
v -2.4999998 -2.497 -0.021732386
v 2.2886045 -2.497 -0.022108195
v 2.5 -1.2724347 -0.022816611
v -2.4999998 -0.8042842 -0.022688698
v 2.4156733 -2.497 -0.022118166
v 2.5 -1.2724347 -0.022816611
v 2.4156733 -2.497 -0.022118166
v 2.5 -2.497 -0.022124784
v -2.4999998 -0.8042842 -0.022688698
v -2.4999998 -1.8392226 -0.022104003
v 2.2886045 -2.497 -0.022108195
v -2.4999998 -0.8042842 -0.022688698
v 2.2886045 -2.497 -0.022108195
v 2.4156733 -2.497 -0.022118166
v 2.5 -1.2724347 -0.022816611
v -2.5 0.41091862 -0.023375385
v -2.4999998 -0.8042842 -0.022688698
v 2.5 -1.2724347 -0.022816611
v 2.4999998 -0.29727247 -0.023367656
v -2.4999998 1.2338413 -0.023840401
v 2.5 -1.2724347 -0.022816611
v -2.4999998 1.2338413 -0.023840401
v -2.4999998 0.79187155 -0.023590652
v 2.5 -1.2724347 -0.022816611
v -2.4999998 0.79187155 -0.023590652
v -2.5 0.41091862 -0.023375385
v 2.4999998 -0.29727247 -0.023367656
v -2.358287 2.503 -0.024568582
v -2.5 2.503 -0.024557462
v 2.4999998 -0.29727247 -0.023367656
v -2.5 2.503 -0.024557462
v -2.4999998 1.2338413 -0.023840401
v 2.4999998 -0.29727247 -0.023367656
v 2.4999998 0.77516514 -0.023973573
v -0.6995634 2.5030003 -0.024698732
v 2.4999998 -0.29727247 -0.023367656
v -0.6995634 2.5030003 -0.024698732
v -2.3582866 2.5029998 -0.024568582
v 2.4999998 0.77516514 -0.023973573
v 0.63198614 2.503 -0.024803171
v -0.6995627 2.503 -0.024698732
v 2.4999998 0.77516514 -0.023973573
v 2.5 2.2751431 -0.024820963
v 2.2371974 2.5030005 -0.024929075
v 2.4999998 0.77516514 -0.023973573
v 2.2371974 2.5030005 -0.024929075
v 0.63198656 2.5029995 -0.024803171
v 2.5 2.2751431 -0.024820963
v 2.3115492 2.503 -0.024934914
v 2.237198 2.503 -0.024929075
v 2.5 2.2751431 -0.024820963
v 2.5 2.503 -0.024949715
v 2.3115492 2.503 -0.024934914
vt 1.0078125 0.12756348
vt 1.0078125 0.0018415451
vt 0.5332031 0.0018415451
vt 0.51220703 0.23596191
vt 1.0078125 0.32543945
vt 0.5205078 0.0018415451
vt 0.51220703 0.23596191
vt 0.5205078 0.0018415451
vt 0.51220703 0.0018415451
vt 1.0078125 0.32543945
vt 1.0078125 0.12756348
vt 0.5332031 0.0018415451
vt 1.0078125 0.32543945
vt 0.5332031 0.0018415451
vt 0.5205078 0.0018415451
vt 0.51220703 0.23596191
vt 1.0078125 0.5576172
vt 1.0078125 0.32543945
vt 0.51220703 0.23596191
vt 0.51220703 0.42236328
vt 1.0078125 0.71533203
vt 0.51220703 0.23596191
vt 1.0078125 0.71533203
vt 1.0078125 0.6308594
vt 0.51220703 0.23596191
vt 1.0078125 0.6308594
vt 1.0078125 0.5576172
vt 0.51220703 0.42236328
vt 0.9941406 0.9580078
vt 1.0078125 0.9580078
vt 0.51220703 0.42236328
vt 1.0078125 0.9580078
vt 1.0078125 0.71533203
vt 0.51220703 0.42236328
vt 0.51220703 0.6274414
vt 0.82958984 0.9580078
vt 0.51220703 0.42236328
vt 0.82958984 0.9580078
vt 0.9941406 0.9580078
vt 0.51220703 0.6274414
vt 0.6972656 0.9580078
vt 0.82958984 0.9580078
vt 0.51220703 0.6274414
vt 0.51220703 0.9140625
vt 0.53808594 0.9580078
vt 0.51220703 0.6274414
vt 0.53808594 0.9580078
vt 0.6972656 0.9580078
vt 0.51220703 0.9140625
vt 0.5307617 0.9580078
vt 0.53808594 0.9580078
vt 0.51220703 0.9140625
vt 0.51220703 0.9580078
vt 0.5307617 0.9580078
vn 0.0132369995 0.0024433136 -0.9995117
vn 0.012802124 0.0022392273 -0.9995117
vn 0.0061035156 0.00071430206 -1
vn 0.0066108704 0.0010280609 -1
vn 0.013908386 0.0027656555 -0.9995117
vn 0.0059280396 0.00067424774 -1
vn 0.0066108704 0.0010280609 -1
vn 0.0059280396 0.00067424774 -1
vn 0.005809784 0.000647068 -1
vn 0.013908386 0.0027656555 -0.9995117
vn 0.0132369995 0.0024433136 -0.9995117
vn 0.0061035156 0.00071430206 -1
vn 0.013908386 0.0027656555 -0.9995117
vn 0.0061035156 0.00071430206 -1
vn 0.0059280396 0.00067424774 -1
vn 0.0066108704 0.0010280609 -1
vn 0.0115356445 0.0009288788 -0.9995117
vn 0.013908386 0.0027656555 -0.9995117
vn 0.0066108704 0.0010280609 -1
vn 0.0047035217 -0.00044608116 -1
vn 0.009925842 -0.00031495094 -1
vn 0.0066108704 0.0010280609 -1
vn 0.009925842 -0.00031495094 -1
vn 0.010787964 0.00035309792 -1
vn 0.0066108704 0.0010280609 -1
vn 0.010787964 0.00035309792 -1
vn 0.0115356445 0.0009288788 -0.9995117
vn 0.0047035217 -0.00044608116 -1
vn 0.010848999 -0.001080513 -1
vn 0.01096344 -0.0010519028 -1
vn 0.0047035217 -0.00044608116 -1
vn 0.01096344 -0.0010519028 -1
vn 0.009925842 -0.00031495094 -1
vn 0.0047035217 -0.00044608116 -1
vn 0.0055770874 -0.0010690689 -1
vn 0.009529114 -0.0014190674 -1
vn 0.0047035217 -0.00044608116 -1
vn 0.009529114 -0.0014190674 -1
vn 0.010848999 -0.001080513 -1
vn 0.0055770874 -0.0010690689 -1
vn 0.0082092285 -0.0025997162 -1
vn 0.009529114 -0.0014190674 -1
vn 0.0055770874 -0.0010690689 -1
vn 0.006252289 -0.0038375854 -1
vn 0.006614685 -0.0040245056 -1
vn 0.0055770874 -0.0010690689 -1
vn 0.006614685 -0.0040245056 -1
vn 0.0082092285 -0.0025997162 -1
vn 0.006252289 -0.0038375854 -1
vn 0.0064697266 -0.0041656494 -1
vn 0.006614685 -0.0040245056 -1
vn 0.006252289 -0.0038375854 -1
vn 0.0061035156 -0.0045280457 -1
vn 0.0064697266 -0.0041656494 -1
g DecalMesh_MetroArea_Decal_Crack_04__0_0
f 3/3/3 2/2/2 1/1/1
f 6/6/6 5/5/5 4/4/4
f 9/9/9 8/8/8 7/7/7
f 12/12/12 11/11/11 10/10/10
f 15/15/15 14/14/14 13/13/13
f 18/18/18 17/17/17 16/16/16
f 21/21/21 20/20/20 19/19/19
f 24/24/24 23/23/23 22/22/22
f 27/27/27 26/26/26 25/25/25
f 30/30/30 29/29/29 28/28/28
f 33/33/33 32/32/32 31/31/31
f 36/36/36 35/35/35 34/34/34
f 39/39/39 38/38/38 37/37/37
f 42/42/42 41/41/41 40/40/40
f 45/45/45 44/44/44 43/43/43
f 48/48/48 47/47/47 46/46/46
f 51/51/51 50/50/50 49/49/49
f 54/54/54 53/53/53 52/52/52
