g DecalMesh_Common_Decal_Water_04__48
v -0.87254214 1.5029999 0.043113865
v -0.9999916 1.5029999 0.044058926
v -0.9999916 1.1374091 0.044026576
v 1.0000083 1.5030001 0.02922878
v -0.8981756 -1.497 0.04303859
v 1.0000085 -1.4970001 0.028963434
v 1.0000083 1.5030001 0.02922878
v -0.8725421 1.503 0.043113865
v -0.9999916 1.1374091 0.044026576
v 1.0000083 1.5030001 0.02922878
v -0.9999916 1.1374091 0.044026576
v -0.99999154 -1.4970001 0.043793567
v 1.0000083 1.5030001 0.02922878
v -0.99999154 -1.4970001 0.043793567
v -0.89817566 -1.4970001 0.04303859
v 0.5458943 -0.8568139 0.0006595485
v 0.5457038 -0.85681164 -0.02503746
v 0.7976966 -1.4970001 -0.026962625
v 0.5458943 -0.8568139 0.0006595485
v 0.7976966 -1.4970001 -0.026962625
v 0.79778105 -1.4970001 -0.015519157
v 0.5458943 -0.8568139 0.0006595485
v 0.79778105 -1.4970001 -0.015519157
v 0.79783404 -1.4970001 -0.0083374195
v 0.5458943 -0.8568139 0.0006595485
v 0.79783404 -1.4970001 -0.0083374195
v 0.7978862 -1.4970001 -0.0012656089
v 0.5457038 -0.85681164 -0.02503746
v -0.9999916 -1.4652671 -0.0136297485
v -0.9983629 -1.4970001 -0.013644634
v 0.5457038 -0.85681164 -0.02503746
v -0.9983629 -1.4970001 -0.013644634
v 0.2671671 -1.4970001 -0.02302872
v -0.9999916 -1.4652671 -0.0136297485
v -0.9999916 -1.4970001 -0.013632556
v -0.9983629 -1.4970001 -0.013644634
v 0.5457038 -0.85681164 -0.02503746
v 0.26716712 -1.4970001 -0.023028722
v 0.6616746 -1.4970001 -0.025954016
v 0.5457038 -0.85681164 -0.02503746
v 0.6616746 -1.4970001 -0.025954016
v 0.7976966 -1.4970001 -0.026962625
v 1.0000083 1.0529321 -0.039770238
v 0.6513231 1.503 -0.01704687
v 0.65117747 1.5029999 -0.032580424
v 1.0000083 1.0529321 -0.039770238
v 1.0000083 1.053126 -0.023751851
v 0.6513825 1.503 -0.010713971
v 1.0000083 1.0529321 -0.039770238
v 0.6513825 1.503 -0.010713971
v 0.6513231 1.503 -0.01704687
v 1.0000083 1.053126 -0.023751851
v 1.0000083 1.053243 -0.014069102
v 0.6514184 1.503 -0.0068842797
v 1.0000083 1.053126 -0.023751851
v 0.6514184 1.503 -0.0068842797
v 0.6513825 1.503 -0.010713971
v 1.0000083 -0.9181594 -0.038082946
v 0.2531353 -1.4970001 -0.04015933
v 0.25352243 -1.4970001 -0.021377042
v 1.0000083 -0.9181594 -0.038082946
v 1.0000083 -0.9179611 -0.050495926
v 0.25306654 -1.4970001 -0.043496326
v 1.0000083 -0.9181594 -0.038082946
v 0.25306654 -1.4970001 -0.043496326
v 0.2531353 -1.4970001 -0.04015933
v 1.0000083 -0.9183715 -0.024798699
v 1.0000083 -0.9181595 -0.038082946
v 0.25352246 -1.4970001 -0.021377044
v 1.0000083 -0.9183715 -0.024798699
v 0.25352246 -1.4970001 -0.021377044
v 0.253596 -1.4970001 -0.017804107
v 0.38552797 1.5029999 -0.028970312
v -0.9999916 0.6188051 -0.014953312
v -0.11098903 -1.4970001 -0.038548905
v 0.38552797 1.5029999 -0.028970312
v -0.11098903 -1.4970001 -0.038548905
v 0.0054293037 -1.4970001 -0.040131
v -0.9999916 0.6188051 -0.014953312
v -0.9999916 -0.44746846 -0.020756017
v -0.18653838 -1.4970001 -0.03752221
v -0.9999916 0.6188051 -0.014953312
v -0.18653838 -1.4970001 -0.03752221
v -0.11098903 -1.4970001 -0.038548905
v 0.38552797 1.5029999 -0.028970312
v 0.042841658 1.5029999 -0.0243133
v -0.9999916 0.694582 -0.014540931
v 0.38552797 1.5029999 -0.028970312
v -0.9999916 0.694582 -0.014540931
v -0.9999916 0.6188051 -0.014953312
v 1.0000083 -0.9179611 -0.050495926
v 0.4854635 1.5029999 -0.030328412
v 0.012050878 -1.4970001 -0.040220983
v 1.0000083 -0.9179611 -0.050495926
v 0.012050878 -1.4970001 -0.040220983
v 0.25306654 -1.4970001 -0.043496326
v 0.4854635 1.5029999 -0.030328412
v 0.38552797 1.5029999 -0.028970312
v 0.0054293037 -1.4970001 -0.040131
v 0.4854635 1.5029999 -0.030328412
v 0.0054293037 -1.4970001 -0.040131
v 0.012050878 -1.4970001 -0.040220983
v 1.0000083 -0.9179611 -0.050495926
v 1.0000083 1.0529321 -0.039770238
v 0.65117747 1.5029999 -0.032580424
v 1.0000083 -0.9179611 -0.050495926
v 0.65117747 1.5029999 -0.032580424
v 0.4854635 1.5029999 -0.030328412
v -0.018205056 1.2316781 0.013328114
v -0.0180145 1.2316759 0.039025106
v 0.67118794 1.5029999 0.026324103
v -0.018205056 1.2316781 0.013328114
v 0.67118794 1.5029999 0.026324103
v 0.6711245 1.5029999 0.018023986
v -0.018205056 1.2316781 0.013328114
v 0.6711245 1.5029999 0.018023986
v 0.6710495 1.5029998 0.008241228
v -0.0180145 1.2316759 0.039025106
v 0.6712462 1.5029999 0.033938248
v 0.6711879 1.5029999 0.026324105
v -0.018205056 1.2316781 0.013328114
v 0.0998431 1.5029999 0.0124767665
v -0.1250035 1.5029999 0.014144028
v -0.018205056 1.2316781 0.013328114
v 0.6710495 1.5029998 0.008241228
v 0.0998431 1.5029999 0.0124767665
vt 0.95996094 0.9628906
vt 0.98779297 0.9628906
vt 0.98779297 0.90771484
vt 0.5546875 0.9628906
vt 0.9658203 0.50878906
vt 0.5546875 0.50878906
vt 0.5546875 0.9628906
vt 0.95996094 0.9628906
vt 0.98779297 0.90771484
vt 0.5546875 0.9628906
vt 0.98779297 0.90771484
vt 0.98779297 0.50878906
vt 0.5546875 0.9628906
vt 0.98779297 0.50878906
vt 0.9658203 0.50878906
vt 0.65283203 0.60546875
vt 0.65283203 0.60546875
vt 0.59814453 0.50878906
vt 0.65283203 0.60546875
vt 0.59814453 0.50878906
vt 0.59814453 0.50878906
vt 0.65283203 0.60546875
vt 0.59814453 0.50878906
vt 0.59814453 0.50878906
vt 0.65283203 0.60546875
vt 0.59814453 0.50878906
vt 0.59814453 0.50878906
vt 0.65283203 0.60546875
vt 0.98779297 0.5136719
vt 0.9873047 0.50878906
vt 0.65283203 0.60546875
vt 0.9873047 0.50878906
vt 0.7133789 0.50878906
vt 0.98779297 0.5136719
vt 0.98779297 0.50878906
vt 0.9873047 0.50878906
vt 0.65283203 0.60546875
vt 0.7133789 0.50878906
vt 0.6279297 0.50878906
vt 0.65283203 0.60546875
vt 0.6279297 0.50878906
vt 0.59814453 0.50878906
vt 0.5546875 0.89501953
vt 0.6298828 0.9628906
vt 0.6298828 0.9628906
vt 0.5546875 0.89501953
vt 0.5546875 0.89501953
vt 0.6298828 0.9628906
vt 0.5546875 0.89501953
vt 0.6298828 0.9628906
vt 0.6298828 0.9628906
vt 0.5546875 0.89501953
vt 0.5546875 0.89501953
vt 0.6298828 0.9628906
vt 0.5546875 0.89501953
vt 0.6298828 0.9628906
vt 0.6298828 0.9628906
vt 0.5546875 0.5961914
vt 0.7163086 0.50878906
vt 0.7163086 0.50878906
vt 0.5546875 0.5961914
vt 0.5546875 0.5961914
vt 0.7163086 0.50878906
vt 0.5546875 0.5961914
vt 0.7163086 0.50878906
vt 0.7163086 0.50878906
vt 0.5546875 0.5961914
vt 0.5546875 0.5961914
vt 0.7163086 0.50878906
vt 0.5546875 0.5961914
vt 0.7163086 0.50878906
vt 0.7163086 0.50878906
vt 0.6875 0.9628906
vt 0.98779297 0.82910156
vt 0.79541016 0.50878906
vt 0.6875 0.9628906
vt 0.79541016 0.50878906
vt 0.77001953 0.50878906
vt 0.98779297 0.82910156
vt 0.98779297 0.66748047
vt 0.81152344 0.50878906
vt 0.98779297 0.82910156
vt 0.81152344 0.50878906
vt 0.79541016 0.50878906
vt 0.6875 0.9628906
vt 0.76171875 0.9628906
vt 0.98779297 0.84033203
vt 0.6875 0.9628906
vt 0.98779297 0.84033203
vt 0.98779297 0.82910156
vt 0.5546875 0.5961914
vt 0.6660156 0.9628906
vt 0.7685547 0.50878906
vt 0.5546875 0.5961914
vt 0.7685547 0.50878906
vt 0.7163086 0.50878906
vt 0.6660156 0.9628906
vt 0.6875 0.9628906
vt 0.77001953 0.50878906
vt 0.6660156 0.9628906
vt 0.77001953 0.50878906
vt 0.7685547 0.50878906
vt 0.5546875 0.5961914
vt 0.5546875 0.89501953
vt 0.6298828 0.9628906
vt 0.5546875 0.5961914
vt 0.6298828 0.9628906
vt 0.6660156 0.9628906
vt 0.77490234 0.921875
vt 0.77490234 0.921875
vt 0.6254883 0.9628906
vt 0.77490234 0.921875
vt 0.6254883 0.9628906
vt 0.62597656 0.9628906
vt 0.77490234 0.921875
vt 0.62597656 0.9628906
vt 0.62597656 0.9628906
vt 0.77490234 0.921875
vt 0.6254883 0.9628906
vt 0.6254883 0.9628906
vt 0.77490234 0.921875
vt 0.7495117 0.9628906
vt 0.79833984 0.9628906
vt 0.77490234 0.921875
vt 0.62597656 0.9628906
vt 0.7495117 0.9628906
vn -0.0074157715 8.833408E-05 -1
vn -0.0074157715 8.833408E-05 -1
vn -0.0074157715 8.833408E-05 -1
vn -0.0074157715 8.833408E-05 -1
vn -0.0074157715 8.833408E-05 -1
vn -0.0074157715 8.833408E-05 -1
vn -0.0074157715 8.833408E-05 -1
vn -0.0074157715 8.833408E-05 -1
vn -0.0074157715 8.833408E-05 -1
vn -0.0074157715 8.833408E-05 -1
vn -0.0074157715 8.833408E-05 -1
vn -0.0074157715 8.833408E-05 -1
vn -0.0074157715 8.833408E-05 -1
vn -0.0074157715 8.833408E-05 -1
vn -0.0074157715 8.833408E-05 -1
vn 0.93066406 0.36621094 -0.006866455
vn 0.93066406 0.36621094 -0.006866455
vn 0.93066406 0.36621094 -0.006866455
vn 0.93066406 0.36621094 -0.006866455
vn 0.93066406 0.36621094 -0.006866455
vn 0.93066406 0.36621094 -0.006866455
vn 0.93066406 0.36621094 -0.006866455
vn 0.93066406 0.36621094 -0.006866455
vn 0.93066406 0.36621094 -0.006866455
vn 0.93066406 0.36621094 -0.006866455
vn 0.93066406 0.36621094 -0.006866455
vn 0.93066406 0.36621094 -0.006866455
vn -0.0074157715 8.845329E-05 -1
vn -0.0074157715 8.845329E-05 -1
vn -0.0074157715 8.845329E-05 -1
vn -0.0074157715 8.845329E-05 -1
vn -0.0074157715 8.845329E-05 -1
vn -0.0074157715 8.845329E-05 -1
vn -0.0074157715 8.845329E-05 -1
vn -0.0074157715 8.845329E-05 -1
vn -0.0074157715 8.845329E-05 -1
vn -0.0074157715 8.845329E-05 -1
vn -0.0074157715 8.845329E-05 -1
vn -0.0074157715 8.845329E-05 -1
vn -0.0074157715 8.845329E-05 -1
vn -0.0074157715 8.845329E-05 -1
vn -0.0074157715 8.845329E-05 -1
vn 0.79052734 0.61279297 -0.007408142
vn 0.79052734 0.61279297 -0.007408142
vn 0.79052734 0.61279297 -0.007408142
vn 0.79052734 0.61279297 -0.007408142
vn 0.79052734 0.61279297 -0.007408142
vn 0.79052734 0.61279297 -0.007408142
vn 0.79052734 0.61279297 -0.007408142
vn 0.79052734 0.61279297 -0.007408142
vn 0.79052734 0.61279297 -0.007408142
vn 0.79052734 0.61279297 -0.007408142
vn 0.79052734 0.61279297 -0.007408142
vn 0.79052734 0.61279297 -0.007408142
vn 0.79052734 0.61279297 -0.007408142
vn 0.79052734 0.61279297 -0.007408142
vn 0.79052734 0.61279297 -0.007408142
vn 0.61279297 -0.79052734 -0.012626648
vn 0.61279297 -0.79052734 -0.012626648
vn 0.61279297 -0.79052734 -0.012626648
vn 0.61279297 -0.79052734 -0.012626648
vn 0.61279297 -0.79052734 -0.012626648
vn 0.61279297 -0.79052734 -0.012626648
vn 0.61279297 -0.79052734 -0.012626648
vn 0.61279297 -0.79052734 -0.012626648
vn 0.61279297 -0.79052734 -0.012626648
vn 0.61279297 -0.79052734 -0.012626648
vn 0.61279297 -0.79052734 -0.012626648
vn 0.61279297 -0.79052734 -0.012626648
vn 0.61279297 -0.79052734 -0.012626648
vn 0.61279297 -0.79052734 -0.012626648
vn 0.61279297 -0.79052734 -0.012626648
vn -0.013587952 0.0054397583 -1
vn -0.013587952 0.0054397583 -1
vn -0.013587952 0.0054397583 -1
vn -0.013587952 0.0054397583 -1
vn -0.013587952 0.0054397583 -1
vn -0.013587952 0.0054397583 -1
vn -0.013587952 0.0054397583 -1
vn -0.013587952 0.0054397583 -1
vn -0.013587952 0.0054397583 -1
vn -0.013587952 0.0054397583 -1
vn -0.013587952 0.0054397583 -1
vn -0.013587952 0.0054397583 -1
vn -0.013587952 0.0054397583 -1
vn -0.013587952 0.0054397583 -1
vn -0.013587952 0.0054397583 -1
vn -0.013587952 0.0054397583 -1
vn -0.013587952 0.0054397583 -1
vn -0.013587952 0.0054397583 -1
vn -0.013587952 0.0054397583 -1
vn -0.013587952 0.0054397583 -1
vn -0.013587952 0.0054397583 -1
vn -0.013587952 0.0054397583 -1
vn -0.013587952 0.0054397583 -1
vn -0.013587952 0.0054397583 -1
vn -0.013587952 0.0054397583 -1
vn -0.013587952 0.0054397583 -1
vn -0.013587952 0.0054397583 -1
vn -0.013587952 0.0054397583 -1
vn -0.013587952 0.0054397583 -1
vn -0.013587952 0.0054397583 -1
vn -0.013587952 0.0054397583 -1
vn -0.013587952 0.0054397583 -1
vn -0.013587952 0.0054397583 -1
vn -0.013587952 0.0054397583 -1
vn -0.013587952 0.0054397583 -1
vn -0.013587952 0.0054397583 -1
vn 0.36621094 -0.93066406 -0.0027980804
vn 0.36621094 -0.93066406 -0.0027980804
vn 0.36621094 -0.93066406 -0.0027980804
vn 0.36621094 -0.93066406 -0.0027980804
vn 0.36621094 -0.93066406 -0.0027980804
vn 0.36621094 -0.93066406 -0.0027980804
vn 0.36621094 -0.93066406 -0.0027980804
vn 0.36621094 -0.93066406 -0.0027980804
vn 0.36621094 -0.93066406 -0.0027980804
vn 0.36621094 -0.93066406 -0.0027980804
vn 0.36621094 -0.93066406 -0.0027980804
vn 0.36621094 -0.93066406 -0.0027980804
vn -0.0074157715 8.845329E-05 -1
vn -0.0074157715 8.845329E-05 -1
vn -0.0074157715 8.845329E-05 -1
vn -0.0074157715 8.845329E-05 -1
vn -0.0074157715 8.845329E-05 -1
vn -0.0074157715 8.845329E-05 -1
g DecalMesh_Common_Decal_Water_04__48_0
f 3/3/3 2/2/2 1/1/1
f 6/6/6 5/5/5 4/4/4
f 9/9/9 8/8/8 7/7/7
f 12/12/12 11/11/11 10/10/10
f 15/15/15 14/14/14 13/13/13
f 18/18/18 17/17/17 16/16/16
f 21/21/21 20/20/20 19/19/19
f 24/24/24 23/23/23 22/22/22
f 27/27/27 26/26/26 25/25/25
f 30/30/30 29/29/29 28/28/28
f 33/33/33 32/32/32 31/31/31
f 36/36/36 35/35/35 34/34/34
f 39/39/39 38/38/38 37/37/37
f 42/42/42 41/41/41 40/40/40
f 45/45/45 44/44/44 43/43/43
f 48/48/48 47/47/47 46/46/46
f 51/51/51 50/50/50 49/49/49
f 54/54/54 53/53/53 52/52/52
f 57/57/57 56/56/56 55/55/55
f 60/60/60 59/59/59 58/58/58
f 63/63/63 62/62/62 61/61/61
f 66/66/66 65/65/65 64/64/64
f 69/69/69 68/68/68 67/67/67
f 72/72/72 71/71/71 70/70/70
f 75/75/75 74/74/74 73/73/73
f 78/78/78 77/77/77 76/76/76
f 81/81/81 80/80/80 79/79/79
f 84/84/84 83/83/83 82/82/82
f 87/87/87 86/86/86 85/85/85
f 90/90/90 89/89/89 88/88/88
f 93/93/93 92/92/92 91/91/91
f 96/96/96 95/95/95 94/94/94
f 99/99/99 98/98/98 97/97/97
f 102/102/102 101/101/101 100/100/100
f 105/105/105 104/104/104 103/103/103
f 108/108/108 107/107/107 106/106/106
f 111/111/111 110/110/110 109/109/109
f 114/114/114 113/113/113 112/112/112
f 117/117/117 116/116/116 115/115/115
f 120/120/120 119/119/119 118/118/118
f 123/123/123 122/122/122 121/121/121
f 126/126/126 125/125/125 124/124/124
