g DecalMesh_Common_Decal_Sign_11__34
v 0.29999998 0.14105429 -0.0719659
v 0.3 0.3 -0.054450464
v -0.30000004 0.23300321 -0.06183782
v 0.29999998 0.14105429 -0.0719659
v -0.30000004 0.23300321 -0.06183782
v -0.29999998 0.14109609 -0.07196576
v 0.3 0.3 -0.054450464
v -0.3 0.3 -0.05445493
v -0.3 0.23300321 -0.06183782
v 0.3 0.06430392 -0.06312786
v -0.3 0.09671674 -0.06685535
v -0.3 -0.05207666 -0.04972133
v 0.3 0.06430392 -0.06312786
v 0.3 0.14105429 -0.0719659
v -0.30000004 0.14109609 -0.07196576
v 0.3 0.06430392 -0.06312786
v -0.30000004 0.14109609 -0.07196576
v -0.30000004 0.09671674 -0.06685535
v 0.3 -0.21173668 -0.031341236
v 0.30000004 0.06430392 -0.06312786
v -0.29999998 -0.05207666 -0.04972133
v 0.3 -0.21173668 -0.031341236
v -0.29999998 -0.05207666 -0.04972133
v -0.3 -0.21169363 -0.031341117
v 0.3 -0.2845923 -0.005648116
v -0.3 -0.25382146 -0.016484398
v -0.3 -0.3 -0.00019916438
v 0.3 -0.2845923 -0.005648116
v -0.3 -0.3 -0.00019916438
v 0.21632178 -0.3 -0.00021233063
v 0.3 -0.2845923 -0.005648116
v 0.3 -0.21173668 -0.031341236
v -0.3 -0.21169363 -0.031341117
v 0.3 -0.2845923 -0.005648116
v -0.3 -0.21169363 -0.031341117
v -0.3 -0.25382146 -0.016484398
v 0.30000004 -0.2845923 -0.005648118
v 0.21632178 -0.3 -0.00021233107
v 0.30000004 -0.3 -0.00021440502
v 0.29999998 0.14105429 -0.0719659
v 0.3 0.3 -0.054450464
v -0.30000004 0.23300321 -0.06183782
v 0.29999998 0.14105429 -0.0719659
v -0.30000004 0.23300321 -0.06183782
v -0.29999998 0.14109609 -0.07196576
v 0.3 0.3 -0.054450464
v -0.3 0.3 -0.05445493
v -0.3 0.23300321 -0.06183782
v 0.3 0.06430392 -0.06312786
v -0.3 0.09671674 -0.06685535
v -0.3 -0.05207666 -0.04972133
v 0.3 0.06430392 -0.06312786
v 0.3 0.14105429 -0.0719659
v -0.30000004 0.14109609 -0.07196576
v 0.3 0.06430392 -0.06312786
v -0.30000004 0.14109609 -0.07196576
v -0.30000004 0.09671674 -0.06685535
v 0.3 -0.21173668 -0.031341236
v 0.30000004 0.06430392 -0.06312786
v -0.29999998 -0.05207666 -0.04972133
v 0.3 -0.21173668 -0.031341236
v -0.29999998 -0.05207666 -0.04972133
v -0.3 -0.21169363 -0.031341117
v 0.3 -0.2845923 -0.005648116
v -0.3 -0.25382146 -0.016484398
v -0.3 -0.3 -0.00019916438
v 0.3 -0.2845923 -0.005648116
v -0.3 -0.3 -0.00019916438
v 0.21632178 -0.3 -0.00021233063
v 0.3 -0.2845923 -0.005648116
v 0.3 -0.21173668 -0.031341236
v -0.3 -0.21169363 -0.031341117
v 0.3 -0.2845923 -0.005648116
v -0.3 -0.21169363 -0.031341117
v -0.3 -0.25382146 -0.016484398
v 0.30000004 -0.2845923 -0.005648118
v 0.21632178 -0.3 -0.00021233107
v 0.30000004 -0.3 -0.00021440502
v 0.19567595 0.3 -0.03259299
v -0.3 0.3 -0.032592826
v -0.3 0.10762389 -0.03212222
v 0.3 -0.21173668 -0.031341236
v 0.29999998 0.3 -0.032593027
v -0.3 0.08421161 -0.032064952
v 0.3 -0.21173668 -0.031341236
v -0.3 0.08421161 -0.032064952
v -0.3 -0.21169363 -0.031341117
v 0.29999998 0.3 -0.032593027
v 0.1956759 0.3 -0.03259299
v -0.3 0.107623905 -0.03212222
v 0.29999998 0.3 -0.032593027
v -0.3 0.107623905 -0.03212222
v -0.3 0.08421161 -0.032064952
v -0.3 -0.29158613 0.0073737907
v -0.3 -0.3 0.011451053
v -0.21343172 -0.3 0.011448026
v 0.3 -0.21173668 -0.031341236
v -0.3 -0.21169363 -0.031341117
v 0.0833612 -0.3 0.011437651
v 0.3 -0.21173668 -0.031341236
v 0.0833612 -0.3 0.011437651
v 0.3 -0.3 0.011430075
v -0.3 -0.21169363 -0.031341117
v -0.3 -0.29158613 0.0073737907
v -0.21343172 -0.3 0.011448026
v -0.3 -0.21169363 -0.031341117
v -0.21343172 -0.3 0.011448026
v 0.0833612 -0.3 0.011437651
vt -0.29296875 0.93066406
vt -0.29296875 0.9448242
vt -0.23840332 0.93847656
vt -0.29296875 0.93066406
vt -0.23840332 0.93847656
vt -0.23840332 0.93066406
vt -0.29296875 0.9448242
vt -0.23840332 0.9448242
vt -0.23840332 0.93847656
vt -0.29296875 0.9238281
vt -0.23840332 0.9267578
vt -0.23840332 0.9135742
vt -0.29296875 0.9238281
vt -0.29296875 0.93066406
vt -0.23840332 0.93066406
vt -0.29296875 0.9238281
vt -0.23840332 0.93066406
vt -0.23840332 0.9267578
vt -0.29296875 0.89941406
vt -0.29296875 0.9238281
vt -0.23840332 0.9135742
vt -0.29296875 0.89941406
vt -0.23840332 0.9135742
vt -0.23840332 0.89941406
vt -0.29296875 0.8930664
vt -0.23840332 0.8955078
vt -0.23840332 0.89160156
vt -0.29296875 0.8930664
vt -0.23840332 0.89160156
vt -0.2854004 0.89160156
vt -0.29296875 0.8930664
vt -0.29296875 0.89941406
vt -0.23840332 0.89941406
vt -0.29296875 0.8930664
vt -0.23840332 0.89941406
vt -0.23840332 0.8955078
vt -0.29296875 0.8930664
vt -0.2854004 0.89160156
vt -0.29296875 0.89160156
vt -0.29296875 0.93066406
vt -0.29296875 0.9448242
vt -0.23840332 0.93847656
vt -0.29296875 0.93066406
vt -0.23840332 0.93847656
vt -0.23840332 0.93066406
vt -0.29296875 0.9448242
vt -0.23840332 0.9448242
vt -0.23840332 0.93847656
vt -0.29296875 0.9238281
vt -0.23840332 0.9267578
vt -0.23840332 0.9135742
vt -0.29296875 0.9238281
vt -0.29296875 0.93066406
vt -0.23840332 0.93066406
vt -0.29296875 0.9238281
vt -0.23840332 0.93066406
vt -0.23840332 0.9267578
vt -0.29296875 0.89941406
vt -0.29296875 0.9238281
vt -0.23840332 0.9135742
vt -0.29296875 0.89941406
vt -0.23840332 0.9135742
vt -0.23840332 0.89941406
vt -0.29296875 0.8930664
vt -0.23840332 0.8955078
vt -0.23840332 0.89160156
vt -0.29296875 0.8930664
vt -0.23840332 0.89160156
vt -0.2854004 0.89160156
vt -0.29296875 0.8930664
vt -0.29296875 0.89941406
vt -0.23840332 0.89941406
vt -0.29296875 0.8930664
vt -0.23840332 0.89941406
vt -0.23840332 0.8955078
vt -0.29296875 0.8930664
vt -0.2854004 0.89160156
vt -0.29296875 0.89160156
vt -0.28344727 0.9448242
vt -0.23840332 0.9448242
vt -0.23840332 0.9277344
vt -0.29296875 0.89941406
vt -0.29296875 0.9448242
vt -0.23840332 0.92529297
vt -0.29296875 0.89941406
vt -0.23840332 0.92529297
vt -0.23840332 0.89941406
vt -0.29296875 0.9448242
vt -0.28344727 0.9448242
vt -0.23840332 0.9277344
vt -0.29296875 0.9448242
vt -0.23840332 0.9277344
vt -0.23840332 0.92529297
vt -0.23840332 0.89208984
vt -0.23840332 0.89160156
vt -0.24633789 0.89160156
vt -0.29296875 0.89941406
vt -0.23840332 0.89941406
vt -0.27319336 0.89160156
vt -0.29296875 0.89941406
vt -0.27319336 0.89160156
vt -0.29296875 0.89160156
vt -0.23840332 0.89941406
vt -0.23840332 0.89208984
vt -0.24633789 0.89160156
vt -0.23840332 0.89941406
vt -0.24633789 0.89160156
vt -0.27319336 0.89160156
vn -2.9802322E-07 -0.0024433136 -1
vn 6.67572E-06 0.09777832 -0.98876953
vn 3.7550926E-06 0.055511475 -0.99365234
vn -2.9802322E-07 -0.0024433136 -1
vn 3.7550926E-06 0.055511475 -0.99365234
vn -2.9802322E-07 -0.0024433136 -1
vn 6.67572E-06 0.09777832 -0.98876953
vn 6.67572E-06 0.09777832 -0.98876953
vn 3.7550926E-06 0.055511475 -0.99365234
vn -3.695488E-06 -0.050842285 -0.9946289
vn -2.2649765E-06 -0.030426025 -0.99658203
vn -8.761883E-06 -0.12426758 -0.98583984
vn -3.695488E-06 -0.050842285 -0.9946289
vn -2.9802322E-07 -0.0024433136 -1
vn -2.9802322E-07 -0.0024433136 -1
vn -3.695488E-06 -0.050842285 -0.9946289
vn -2.9802322E-07 -0.0024433136 -1
vn -2.2649765E-06 -0.030426025 -0.99658203
vn -1.579523E-05 -0.22485352 -0.9746094
vn -3.695488E-06 -0.050842285 -0.9946289
vn -8.761883E-06 -0.12426758 -0.98583984
vn -1.579523E-05 -0.22485352 -0.9746094
vn -8.761883E-06 -0.12426758 -0.98583984
vn -1.579523E-05 -0.22485352 -0.9746094
vn -1.9013882E-05 -0.27075195 -0.9580078
vn -1.7642975E-05 -0.25146484 -0.96484375
vn -1.9669533E-05 -0.28051758 -0.95458984
vn -1.9013882E-05 -0.27075195 -0.9580078
vn -1.9669533E-05 -0.28051758 -0.95458984
vn -1.9669533E-05 -0.28051758 -0.95458984
vn -1.9013882E-05 -0.27075195 -0.9580078
vn -1.579523E-05 -0.22485352 -0.9746094
vn -1.579523E-05 -0.22485352 -0.9746094
vn -1.9013882E-05 -0.27075195 -0.9580078
vn -1.579523E-05 -0.22485352 -0.9746094
vn -1.7642975E-05 -0.25146484 -0.96484375
vn -1.9013882E-05 -0.27075195 -0.9580078
vn -1.9669533E-05 -0.28051758 -0.95458984
vn -1.9669533E-05 -0.28051758 -0.95458984
vn -2.9802322E-07 -0.0024433136 -1
vn 6.67572E-06 0.09777832 -0.98876953
vn 3.7550926E-06 0.055511475 -0.99365234
vn -2.9802322E-07 -0.0024433136 -1
vn 3.7550926E-06 0.055511475 -0.99365234
vn -2.9802322E-07 -0.0024433136 -1
vn 6.67572E-06 0.09777832 -0.98876953
vn 6.67572E-06 0.09777832 -0.98876953
vn 3.7550926E-06 0.055511475 -0.99365234
vn -3.695488E-06 -0.050842285 -0.9946289
vn -2.2649765E-06 -0.030426025 -0.99658203
vn -8.761883E-06 -0.12426758 -0.98583984
vn -3.695488E-06 -0.050842285 -0.9946289
vn -2.9802322E-07 -0.0024433136 -1
vn -2.9802322E-07 -0.0024433136 -1
vn -3.695488E-06 -0.050842285 -0.9946289
vn -2.9802322E-07 -0.0024433136 -1
vn -2.2649765E-06 -0.030426025 -0.99658203
vn -1.579523E-05 -0.22485352 -0.9746094
vn -3.695488E-06 -0.050842285 -0.9946289
vn -8.761883E-06 -0.12426758 -0.98583984
vn -1.579523E-05 -0.22485352 -0.9746094
vn -8.761883E-06 -0.12426758 -0.98583984
vn -1.579523E-05 -0.22485352 -0.9746094
vn -1.9013882E-05 -0.27075195 -0.9580078
vn -1.7642975E-05 -0.25146484 -0.96484375
vn -1.9669533E-05 -0.28051758 -0.95458984
vn -1.9013882E-05 -0.27075195 -0.9580078
vn -1.9669533E-05 -0.28051758 -0.95458984
vn -1.9669533E-05 -0.28051758 -0.95458984
vn -1.9013882E-05 -0.27075195 -0.9580078
vn -1.579523E-05 -0.22485352 -0.9746094
vn -1.579523E-05 -0.22485352 -0.9746094
vn -1.9013882E-05 -0.27075195 -0.9580078
vn -1.579523E-05 -0.22485352 -0.9746094
vn -1.7642975E-05 -0.25146484 -0.96484375
vn -1.9013882E-05 -0.27075195 -0.9580078
vn -1.9669533E-05 -0.28051758 -0.95458984
vn -1.9669533E-05 -0.28051758 -0.95458984
vn 6.67572E-06 0.09777832 -0.97509766
vn 6.67572E-06 0.09777832 -0.97509766
vn -1.7881393E-06 -0.023544312 -0.97509766
vn -1.579523E-05 -0.22485352 -0.9746094
vn 6.67572E-06 0.09777832 -0.97509766
vn -2.8014183E-06 -0.038330078 -0.9746094
vn -1.579523E-05 -0.22485352 -0.9746094
vn -2.8014183E-06 -0.038330078 -0.9746094
vn -1.579523E-05 -0.22485352 -0.9746094
vn 6.67572E-06 0.09777832 -0.97509766
vn 6.67572E-06 0.09777832 -0.97509766
vn -1.7881393E-06 -0.023544312 -0.97509766
vn 6.67572E-06 0.09777832 -0.97509766
vn -1.7881393E-06 -0.023544312 -0.97509766
vn -2.8014183E-06 -0.038330078 -0.9746094
vn -1.9311905E-05 -0.27539062 -0.9501953
vn -1.9669533E-05 -0.28051758 -0.9472656
vn -1.9669533E-05 -0.28051758 -0.9472656
vn -1.579523E-05 -0.22485352 -0.9746094
vn -1.579523E-05 -0.22485352 -0.9746094
vn -1.9669533E-05 -0.28051758 -0.9472656
vn -1.579523E-05 -0.22485352 -0.9746094
vn -1.9669533E-05 -0.28051758 -0.9472656
vn -1.9669533E-05 -0.28051758 -0.9472656
vn -1.579523E-05 -0.22485352 -0.9746094
vn -1.9311905E-05 -0.27539062 -0.9501953
vn -1.9669533E-05 -0.28051758 -0.9472656
vn -1.579523E-05 -0.22485352 -0.9746094
vn -1.9669533E-05 -0.28051758 -0.9472656
vn -1.9669533E-05 -0.28051758 -0.9472656
g DecalMesh_Common_Decal_Sign_11__34_0
f 3/3/3 2/2/2 1/1/1
f 6/6/6 5/5/5 4/4/4
f 9/9/9 8/8/8 7/7/7
f 12/12/12 11/11/11 10/10/10
f 15/15/15 14/14/14 13/13/13
f 18/18/18 17/17/17 16/16/16
f 21/21/21 20/20/20 19/19/19
f 24/24/24 23/23/23 22/22/22
f 27/27/27 26/26/26 25/25/25
f 30/30/30 29/29/29 28/28/28
f 33/33/33 32/32/32 31/31/31
f 36/36/36 35/35/35 34/34/34
f 39/39/39 38/38/38 37/37/37
f 42/42/42 41/41/41 40/40/40
f 45/45/45 44/44/44 43/43/43
f 48/48/48 47/47/47 46/46/46
f 51/51/51 50/50/50 49/49/49
f 54/54/54 53/53/53 52/52/52
f 57/57/57 56/56/56 55/55/55
f 60/60/60 59/59/59 58/58/58
f 63/63/63 62/62/62 61/61/61
f 66/66/66 65/65/65 64/64/64
f 69/69/69 68/68/68 67/67/67
f 72/72/72 71/71/71 70/70/70
f 75/75/75 74/74/74 73/73/73
f 78/78/78 77/77/77 76/76/76
f 81/81/81 80/80/80 79/79/79
f 84/84/84 83/83/83 82/82/82
f 87/87/87 86/86/86 85/85/85
f 90/90/90 89/89/89 88/88/88
f 93/93/93 92/92/92 91/91/91
f 96/96/96 95/95/95 94/94/94
f 99/99/99 98/98/98 97/97/97
f 102/102/102 101/101/101 100/100/100
f 105/105/105 104/104/104 103/103/103
f 108/108/108 107/107/107 106/106/106
