g DecalMesh_MetroArea_Decal_Ground_26__23
v 0.115463525 0.75 0.042999085
v -0.75000006 -0.3263111 0.08853728
v -0.75000006 -0.3263111 0.04299929
v 0.115463525 0.75 0.042999085
v 0.115463525 0.75 0.06717785
v -0.75 -0.32631105 0.10170535
v 0.115463525 0.75 0.042999085
v -0.75 -0.32631105 0.10170535
v -0.75 -0.32631105 0.088537276
v 0.11546349 0.75 0.06717785
v 0.11546349 0.75 0.14299758
v -0.75000006 -0.32631105 0.14299779
v 0.11546349 0.75 0.06717785
v -0.75000006 -0.32631105 0.14299779
v -0.75000006 -0.32631105 0.10170535
v 0.7290805 0.75 0.042999152
v -0.75000006 -0.6404756 0.04299938
v -0.5145539 -0.75 0.042999435
v 0.7290805 0.75 0.042999152
v -0.5145539 -0.75 0.042999435
v 0.74410695 -0.74999994 0.042999573
v -0.75000006 -0.6404756 0.04299938
v -0.75000006 -0.75 0.04299941
v -0.5145539 -0.75 0.042999435
v 0.7290805 0.75 0.042999152
v 0.115463525 0.75 0.042999085
v -0.75 -0.32631105 0.04299929
v 0.7290805 0.75 0.042999152
v -0.75 -0.32631105 0.04299929
v -0.75000006 -0.6404756 0.04299938
v 0.74999994 0.74999994 0.042999156
v 0.7290805 0.75 0.042999152
v 0.74410695 -0.74999994 0.042999573
v 0.74999994 0.74999994 0.042999156
v 0.74410695 -0.74999994 0.042999573
v 0.7499998 -0.7499999 0.042999573
v 0.11546349 0.75 0.042999085
v -0.74999994 0.75 0.04299904
v -0.75000006 -0.32631105 0.04299929
v -0.75 -0.7417268 -0.01862703
v -0.75 -0.7417268 -0.07213764
v -0.7397113 -0.75 -0.07122212
v -0.75 -0.7417268 -0.01862703
v -0.7397113 -0.75 -0.07122212
v -0.7397113 -0.75 -0.018627027
v -0.75 -0.7417268 -0.07213765
v -0.7397113 -0.75 -0.07233439
v -0.7397113 -0.75 -0.07122213
v -0.75 -0.7417268 -0.07213765
v -0.75 -0.7417268 -0.0836371
v -0.7397113 -0.75 -0.083637096
v -0.75 -0.7417268 -0.07213765
v -0.7397113 -0.75 -0.083637096
v -0.7397113 -0.75 -0.07233439
v -0.75 -0.63028336 0.001823536
v -0.75 -0.7233802 -0.015260324
v -0.7097974 -0.74999994 -0.014212999
v -0.75 -0.63028336 0.001823536
v -0.7097974 -0.74999994 -0.014212999
v -0.6011175 -0.75 0.0018235785
v -0.75 -0.7233802 -0.015260325
v -0.71810514 -0.74999994 -0.015438875
v -0.7097974 -0.74999994 -0.0142129995
v -0.75 -0.7233802 -0.015260325
v -0.75 -0.7417268 -0.01862703
v -0.7397113 -0.75 -0.018627027
v -0.75 -0.7233802 -0.015260325
v -0.7397113 -0.75 -0.018627027
v -0.71810514 -0.74999994 -0.015438875
v -0.75 -0.63028336 0.01789867
v -0.75 -0.63028336 0.0034695598
v -0.6011175 -0.75 0.00674542
v -0.75 -0.63028336 0.01789867
v -0.6011175 -0.75 0.00674542
v -0.6011175 -0.75 0.017898712
v -0.75 -0.63028336 0.0034695598
v -0.60111743 -0.75 0.0030959083
v -0.60111743 -0.75 0.00674542
v -0.75 -0.63028336 0.0034695598
v -0.75 -0.63028336 0.001823536
v -0.6011175 -0.75 0.0018235785
v -0.75 -0.63028336 0.0034695598
v -0.6011175 -0.75 0.0018235785
v -0.6011175 -0.75 0.0030959083
v -0.75000006 -0.7012527 -0.116401546
v -0.75 -0.75 -0.11640152
v -0.6893768 -0.75 -0.11640152
v -0.75000006 -0.7012527 -0.09666812
v -0.75000006 -0.7012527 -0.113444746
v -0.6893768 -0.75 -0.111807294
v -0.75000006 -0.7012527 -0.09666812
v -0.6893768 -0.75 -0.111807294
v -0.6893768 -0.75 -0.096668094
v -0.75000006 -0.7012527 -0.113444746
v -0.6893768 -0.75 -0.113733314
v -0.6893768 -0.75 -0.111807294
v -0.75000006 -0.7012527 -0.113444746
v -0.75000006 -0.7012527 -0.116401546
v -0.6893768 -0.75 -0.11640152
v -0.75000006 -0.7012527 -0.113444746
v -0.6893768 -0.75 -0.11640152
v -0.6893768 -0.75 -0.113733314
v 0.7499999 0.17787339 -0.01609674
v -0.75 -0.28467402 -0.10722036
v -0.10030621 -0.75 -0.1099888
v 0.7499999 0.17787339 -0.01609674
v -0.10030621 -0.75 -0.1099888
v 0.74999994 -0.75 -0.07497039
v -0.75 -0.28467402 -0.10722036
v -0.75 -0.75000006 -0.13674533
v -0.10030617 -0.75 -0.1099888
v 0.7499999 0.17787339 -0.01609674
v 0.26317018 0.74999994 0.00015549558
v -0.75 0.056455713 -0.08557564
v 0.7499999 0.17787339 -0.01609674
v -0.75 0.056455713 -0.08557564
v -0.75 -0.28467402 -0.10722036
v 0.26317018 0.74999994 0.00015549558
v -0.75 0.74999994 -0.041570194
v -0.75000006 0.056455676 -0.08557565
v 0.7499999 0.17787339 -0.01609674
v 0.7499999 0.75 0.020204753
v 0.26317018 0.74999994 0.00015549558
vt 0.8647461 0.984375
vt 0.9951172 0.8198242
vt 0.9951172 0.8198242
vt 0.8647461 0.984375
vt 0.8647461 0.984375
vt 0.9951172 0.8198242
vt 0.8647461 0.984375
vt 0.9951172 0.8198242
vt 0.9951172 0.8198242
vt 0.8647461 0.984375
vt 0.8647461 0.984375
vt 0.9951172 0.8198242
vt 0.8647461 0.984375
vt 0.9951172 0.8198242
vt 0.9951172 0.8198242
vt 0.77246094 0.984375
vt 0.9951172 0.7714844
vt 0.95996094 0.7548828
vt 0.77246094 0.984375
vt 0.95996094 0.7548828
vt 0.7705078 0.7548828
vt 0.9951172 0.7714844
vt 0.9951172 0.7548828
vt 0.95996094 0.7548828
vt 0.77246094 0.984375
vt 0.8647461 0.984375
vt 0.9951172 0.8198242
vt 0.77246094 0.984375
vt 0.9951172 0.8198242
vt 0.9951172 0.7714844
vt 0.76953125 0.984375
vt 0.77246094 0.984375
vt 0.7705078 0.7548828
vt 0.76953125 0.984375
vt 0.7705078 0.7548828
vt 0.76953125 0.7548828
vt 0.8647461 0.984375
vt 0.9951172 0.984375
vt 0.9951172 0.8198242
vt 0.9951172 0.7558594
vt 0.9951172 0.7558594
vt 0.99365234 0.7548828
vt 0.9951172 0.7558594
vt 0.99365234 0.7548828
vt 0.99365234 0.7548828
vt 0.9951172 0.7558594
vt 0.99365234 0.7548828
vt 0.99365234 0.7548828
vt 0.9951172 0.7558594
vt 0.9951172 0.7558594
vt 0.99365234 0.7548828
vt 0.9951172 0.7558594
vt 0.99365234 0.7548828
vt 0.99365234 0.7548828
vt 0.9951172 0.7729492
vt 0.9951172 0.75878906
vt 0.9892578 0.7548828
vt 0.9951172 0.7729492
vt 0.9892578 0.7548828
vt 0.97265625 0.7548828
vt 0.9951172 0.75878906
vt 0.9902344 0.7548828
vt 0.9892578 0.7548828
vt 0.9951172 0.75878906
vt 0.9951172 0.7558594
vt 0.99365234 0.7548828
vt 0.9951172 0.75878906
vt 0.99365234 0.7548828
vt 0.9902344 0.7548828
vt 0.9951172 0.7729492
vt 0.9951172 0.7729492
vt 0.97265625 0.7548828
vt 0.9951172 0.7729492
vt 0.97265625 0.7548828
vt 0.97265625 0.7548828
vt 0.9951172 0.7729492
vt 0.97265625 0.7548828
vt 0.97265625 0.7548828
vt 0.9951172 0.7729492
vt 0.9951172 0.7729492
vt 0.97265625 0.7548828
vt 0.9951172 0.7729492
vt 0.97265625 0.7548828
vt 0.97265625 0.7548828
vt 0.9951172 0.76220703
vt 0.9951172 0.7548828
vt 0.9863281 0.7548828
vt 0.9951172 0.76220703
vt 0.9951172 0.76220703
vt 0.9863281 0.7548828
vt 0.9951172 0.76220703
vt 0.9863281 0.7548828
vt 0.9863281 0.7548828
vt 0.9951172 0.76220703
vt 0.9863281 0.7548828
vt 0.9863281 0.7548828
vt 0.9951172 0.76220703
vt 0.9951172 0.76220703
vt 0.9863281 0.7548828
vt 0.9951172 0.76220703
vt 0.9863281 0.7548828
vt 0.9863281 0.7548828
vt 0.76953125 0.89697266
vt 0.9951172 0.8261719
vt 0.89746094 0.7548828
vt 0.76953125 0.89697266
vt 0.89746094 0.7548828
vt 0.76953125 0.7548828
vt 0.9951172 0.8261719
vt 0.9951172 0.7548828
vt 0.89746094 0.7548828
vt 0.76953125 0.89697266
vt 0.84277344 0.984375
vt 0.9951172 0.87841797
vt 0.76953125 0.89697266
vt 0.9951172 0.87841797
vt 0.9951172 0.8261719
vt 0.84277344 0.984375
vt 0.9951172 0.984375
vt 0.9951172 0.87841797
vt 0.76953125 0.89697266
vt 0.76953125 0.984375
vt 0.84277344 0.984375
vn -0.7792969 0.62646484 -2.3841858E-07
vn -0.7792969 0.62646484 -2.3841858E-07
vn -0.7792969 0.62646484 -2.3841858E-07
vn -0.7792969 0.62646484 -2.3841858E-07
vn -0.7792969 0.62646484 -2.3841858E-07
vn -0.7792969 0.62646484 -2.3841858E-07
vn -0.7792969 0.62646484 -2.3841858E-07
vn -0.7792969 0.62646484 -2.3841858E-07
vn -0.7792969 0.62646484 -2.3841858E-07
vn -0.7792969 0.62646484 -2.3841858E-07
vn -0.7792969 0.62646484 -2.3841858E-07
vn -0.7792969 0.62646484 -2.3841858E-07
vn -0.7792969 0.62646484 -2.3841858E-07
vn -0.7792969 0.62646484 -2.3841858E-07
vn -0.7792969 0.62646484 -2.3841858E-07
vn 1.1920929E-07 -3.5762787E-07 -1
vn 1.1920929E-07 -3.5762787E-07 -1
vn 1.1920929E-07 -3.5762787E-07 -1
vn 1.1920929E-07 -3.5762787E-07 -1
vn 1.1920929E-07 -3.5762787E-07 -1
vn 1.1920929E-07 -3.5762787E-07 -1
vn 1.1920929E-07 -3.5762787E-07 -1
vn 1.1920929E-07 -3.5762787E-07 -1
vn 1.1920929E-07 -3.5762787E-07 -1
vn 1.1920929E-07 -3.5762787E-07 -1
vn 1.1920929E-07 -3.5762787E-07 -1
vn 1.1920929E-07 -3.5762787E-07 -1
vn 1.1920929E-07 -3.5762787E-07 -1
vn 1.1920929E-07 -3.5762787E-07 -1
vn 1.1920929E-07 -3.5762787E-07 -1
vn 1.1920929E-07 -3.5762787E-07 -1
vn 1.1920929E-07 -3.5762787E-07 -1
vn 1.1920929E-07 -3.5762787E-07 -1
vn 1.1920929E-07 -3.5762787E-07 -1
vn 1.1920929E-07 -3.5762787E-07 -1
vn 1.1920929E-07 -3.5762787E-07 -1
vn 1.1920929E-07 -3.5762787E-07 -1
vn 1.1920929E-07 -3.5762787E-07 -1
vn 1.1920929E-07 -3.5762787E-07 -1
vn 0.62646484 0.7792969 -1.7881393E-07
vn 0.62646484 0.7792969 -1.7881393E-07
vn 0.62646484 0.7792969 -1.7881393E-07
vn 0.62646484 0.7792969 -1.7881393E-07
vn 0.62646484 0.7792969 -1.7881393E-07
vn 0.62646484 0.7792969 -1.7881393E-07
vn 0.62646484 0.7792969 -1.7881393E-07
vn 0.62646484 0.7792969 -1.7881393E-07
vn 0.62646484 0.7792969 -1.7881393E-07
vn 0.62646484 0.7792969 -1.7881393E-07
vn 0.62646484 0.7792969 -1.7881393E-07
vn 0.62646484 0.7792969 -1.7881393E-07
vn 0.62646484 0.7792969 -1.7881393E-07
vn 0.62646484 0.7792969 -1.7881393E-07
vn 0.62646484 0.7792969 -1.7881393E-07
vn 0.14367676 0.17858887 -0.97314453
vn 0.14367676 0.17858887 -0.97314453
vn 0.14367676 0.17858887 -0.97314453
vn 0.14367676 0.17858887 -0.97314453
vn 0.14367676 0.17858887 -0.97314453
vn 0.14367676 0.17858887 -0.97314453
vn 0.14367676 0.17858887 -0.97314453
vn 0.14367676 0.17858887 -0.97314453
vn 0.14367676 0.17858887 -0.97314453
vn 0.14367676 0.17858887 -0.97314453
vn 0.14367676 0.17858887 -0.97314453
vn 0.14367676 0.17858887 -0.97314453
vn 0.14367676 0.17858887 -0.97314453
vn 0.14367676 0.17858887 -0.97314453
vn 0.14367676 0.17858887 -0.97314453
vn 0.62646484 0.7792969 -1.7881393E-07
vn 0.62646484 0.7792969 -1.7881393E-07
vn 0.62646484 0.7792969 -1.7881393E-07
vn 0.62646484 0.7792969 -1.7881393E-07
vn 0.62646484 0.7792969 -1.7881393E-07
vn 0.62646484 0.7792969 -1.7881393E-07
vn 0.62646484 0.7792969 -1.7881393E-07
vn 0.62646484 0.7792969 -1.7881393E-07
vn 0.62646484 0.7792969 -1.7881393E-07
vn 0.62646484 0.7792969 -1.7881393E-07
vn 0.62646484 0.7792969 -1.7881393E-07
vn 0.62646484 0.7792969 -1.7881393E-07
vn 0.62646484 0.7792969 -1.7881393E-07
vn 0.62646484 0.7792969 -1.7881393E-07
vn 0.62646484 0.7792969 -1.7881393E-07
vn -1.7881393E-07 -7.1525574E-07 -1
vn -1.7881393E-07 -7.1525574E-07 -1
vn -1.7881393E-07 -7.1525574E-07 -1
vn 0.62646484 0.7792969 -1.7881393E-07
vn 0.62646484 0.7792969 -1.7881393E-07
vn 0.62646484 0.7792969 -1.7881393E-07
vn 0.62646484 0.7792969 -1.7881393E-07
vn 0.62646484 0.7792969 -1.7881393E-07
vn 0.62646484 0.7792969 -1.7881393E-07
vn 0.62646484 0.7792969 -1.7881393E-07
vn 0.62646484 0.7792969 -1.7881393E-07
vn 0.62646484 0.7792969 -1.7881393E-07
vn 0.62646484 0.7792969 -1.7881393E-07
vn 0.62646484 0.7792969 -1.7881393E-07
vn 0.62646484 0.7792969 -1.7881393E-07
vn 0.62646484 0.7792969 -1.7881393E-07
vn 0.62646484 0.7792969 -1.7881393E-07
vn 0.62646484 0.7792969 -1.7881393E-07
vn 0.04107666 0.06329346 -0.9970703
vn 0.04107666 0.06329346 -0.9970703
vn 0.04107666 0.06329346 -0.9970703
vn 0.04107666 0.06329346 -0.9970703
vn 0.04107666 0.06329346 -0.9970703
vn 0.04107666 0.06329346 -0.9970703
vn 0.04107666 0.06329346 -0.9970703
vn 0.04107666 0.06329346 -0.9970703
vn 0.04107666 0.06329346 -0.9970703
vn 0.04107666 0.06329346 -0.9970703
vn 0.04107666 0.06329346 -0.9970703
vn 0.04107666 0.06329346 -0.9970703
vn 0.04107666 0.06329346 -0.9970703
vn 0.04107666 0.06329346 -0.9970703
vn 0.04107666 0.06329346 -0.9970703
vn 0.04107666 0.06329346 -0.9970703
vn 0.04107666 0.06329346 -0.9970703
vn 0.04107666 0.06329346 -0.9970703
vn 0.04107666 0.06329346 -0.9970703
vn 0.04107666 0.06329346 -0.9970703
vn 0.04107666 0.06329346 -0.9970703
g DecalMesh_MetroArea_Decal_Ground_26__23_0
f 3/3/3 2/2/2 1/1/1
f 6/6/6 5/5/5 4/4/4
f 9/9/9 8/8/8 7/7/7
f 12/12/12 11/11/11 10/10/10
f 15/15/15 14/14/14 13/13/13
f 18/18/18 17/17/17 16/16/16
f 21/21/21 20/20/20 19/19/19
f 24/24/24 23/23/23 22/22/22
f 27/27/27 26/26/26 25/25/25
f 30/30/30 29/29/29 28/28/28
f 33/33/33 32/32/32 31/31/31
f 36/36/36 35/35/35 34/34/34
f 39/39/39 38/38/38 37/37/37
f 42/42/42 41/41/41 40/40/40
f 45/45/45 44/44/44 43/43/43
f 48/48/48 47/47/47 46/46/46
f 51/51/51 50/50/50 49/49/49
f 54/54/54 53/53/53 52/52/52
f 57/57/57 56/56/56 55/55/55
f 60/60/60 59/59/59 58/58/58
f 63/63/63 62/62/62 61/61/61
f 66/66/66 65/65/65 64/64/64
f 69/69/69 68/68/68 67/67/67
f 72/72/72 71/71/71 70/70/70
f 75/75/75 74/74/74 73/73/73
f 78/78/78 77/77/77 76/76/76
f 81/81/81 80/80/80 79/79/79
f 84/84/84 83/83/83 82/82/82
f 87/87/87 86/86/86 85/85/85
f 90/90/90 89/89/89 88/88/88
f 93/93/93 92/92/92 91/91/91
f 96/96/96 95/95/95 94/94/94
f 99/99/99 98/98/98 97/97/97
f 102/102/102 101/101/101 100/100/100
f 105/105/105 104/104/104 103/103/103
f 108/108/108 107/107/107 106/106/106
f 111/111/111 110/110/110 109/109/109
f 114/114/114 113/113/113 112/112/112
f 117/117/117 116/116/116 115/115/115
f 120/120/120 119/119/119 118/118/118
f 123/123/123 122/122/122 121/121/121
