g DecalMesh_MetroArea_Decal_Ground_07__33
v 0.27773464 -0.19285181 -0.46010208
v 0.036703266 -1.60064 -0.46010208
v 0.27773464 -1.60064 -0.46010208
v 0.2777346 -0.19285202 -0.46010208
v 0.02794446 1.60064 -0.46010208
v -0.15637454 -1.60064 -0.46010208
v 0.2777346 -0.19285202 -0.46010208
v -0.15637454 -1.60064 -0.46010208
v 0.036703266 -1.60064 -0.46010208
v 0.02794446 1.60064 -0.46010208
v -0.25421587 1.6006399 -0.46010208
v -0.25420704 -1.60064 -0.46010208
v 0.02794446 1.60064 -0.46010208
v -0.25420704 -1.60064 -0.46010208
v -0.15637454 -1.60064 -0.46010208
v 0.2777346 -0.19285202 -0.46010208
v 0.2777346 1.6006399 -0.46010208
v 0.027944477 1.60064 -0.46010208
vt 0.44995117 0.6064453
vt 0.46606445 0.5126953
vt 0.44995117 0.5126953
vt 0.44995117 0.6064453
vt 0.46655273 0.7260742
vt 0.4790039 0.5126953
vt 0.44995117 0.6064453
vt 0.4790039 0.5126953
vt 0.46606445 0.5126953
vt 0.46655273 0.7260742
vt 0.48535156 0.7260742
vt 0.48535156 0.5126953
vt 0.46655273 0.7260742
vt 0.48535156 0.5126953
vt 0.4790039 0.5126953
vt 0.44995117 0.6064453
vt 0.44995117 0.7260742
vt 0.46655273 0.7260742
vn 2.3841858E-07 0 -1
vn 2.3841858E-07 0 -1
vn 2.3841858E-07 0 -1
vn 2.3841858E-07 0 -1
vn 2.3841858E-07 0 -1
vn 2.3841858E-07 0 -1
vn 2.3841858E-07 0 -1
vn 2.3841858E-07 0 -1
vn 2.3841858E-07 0 -1
vn 2.3841858E-07 0 -1
vn 2.3841858E-07 0 -1
vn 2.3841858E-07 0 -1
vn 2.3841858E-07 0 -1
vn 2.3841858E-07 0 -1
vn 2.3841858E-07 0 -1
vn 2.3841858E-07 0 -1
vn 2.3841858E-07 0 -1
vn 2.3841858E-07 0 -1
g DecalMesh_MetroArea_Decal_Ground_07__33_0
f 3/3/3 2/2/2 1/1/1
f 6/6/6 5/5/5 4/4/4
f 9/9/9 8/8/8 7/7/7
f 12/12/12 11/11/11 10/10/10
f 15/15/15 14/14/14 13/13/13
f 18/18/18 17/17/17 16/16/16
