g DecalMesh_Common_Decal_Crack_01__5
v 1.2318846 3.7219183 -0.4419
v -1.231885 1.2581486 -0.4419
v 1.2241611 -3.7397547 -0.4419
v 1.2318846 3.7219183 -0.4419
v 1.2241611 -3.7397547 -0.4419
v 1.2318846 -3.7397547 -0.4419
v -1.231885 1.2581486 -0.4419
v -1.231885 -3.7397544 -0.4419
v 1.224161 -3.7397544 -0.4419
v 1.2318847 3.7219186 -0.4419
v -1.2318847 3.7293687 -0.4419
v -1.2318848 1.2581487 -0.4419
v 1.2318847 3.7219186 -0.4419
v 1.2318847 3.7397547 -0.4419
v -1.2318846 3.7397547 -0.4419
v 1.2318847 3.7219186 -0.4419
v -1.2318846 3.7397547 -0.4419
v -1.2318846 3.7293687 -0.4419
v -1.0512333 3.1835277 -0.47661185
v -0.79943275 3.19267 -0.47661185
v -0.79943275 3.19267 -0.43100023
v -1.0512333 3.1835277 -0.47661185
v -0.79943275 3.19267 -0.43100023
v -1.0512333 3.1835277 -0.43100023
v -0.7227802 3.1213877 -0.47661185
v -0.7136364 2.8695874 -0.4766116
v -0.7136364 2.8695874 -0.43100023
v -0.7227802 3.1213877 -0.47661185
v -0.7136364 2.8695874 -0.43100023
v -0.7227802 3.1213875 -0.43100047
v -0.7227802 3.1213877 -0.47661185
v -0.7227802 3.1213875 -0.43100047
v -0.79943275 3.19267 -0.43100023
v -0.7227802 3.1213877 -0.47661185
v -0.79943275 3.19267 -0.43100023
v -0.79943275 3.19267 -0.47661185
v -1.1225166 3.1068735 -0.43100047
v -1.1225166 3.1068738 -0.47661185
v -1.0512333 3.1835277 -0.47661185
v -1.1225166 3.1068735 -0.43100047
v -1.0512333 3.1835277 -0.47661185
v -1.0512333 3.1835277 -0.43100023
v -0.78951645 3.0688121 -0.47661185
v -0.84703064 3.1222966 -0.47661185
v -0.84897095 3.1186352 -0.5
v -0.78951645 3.0688121 -0.47661185
v -0.84897095 3.1186352 -0.5
v -0.79368126 3.0672193 -0.5
v -0.78951645 3.0688121 -0.47661185
v -0.79368126 3.0672193 -0.5
v -0.7930276 3.0666113 -0.5
v -0.766449 2.9937358 -0.4766116
v -0.78951645 3.0688121 -0.47661185
v -0.7930276 3.0666113 -0.5
v -0.766449 2.9937358 -0.4766116
v -0.7930276 3.0666113 -0.5
v -0.7708524 2.994439 -0.5
v -0.766449 2.9937358 -0.4766116
v -0.7708524 2.994439 -0.5
v -0.7705902 2.9935853 -0.5
v -0.78400993 2.9171844 -0.4766116
v -0.766449 2.9937358 -0.4766116
v -0.7705902 2.9935853 -0.5
v -0.78400993 2.9171844 -0.4766116
v -0.7705902 2.9935853 -0.5
v -0.7874719 2.9199948 -0.5
v -0.78400993 2.9171844 -0.4766116
v -0.7874719 2.9199948 -0.5
v -0.78767145 2.9191248 -0.5
v -0.8374958 2.8596697 -0.4766116
v -0.78400993 2.9171844 -0.4766116
v -0.78767145 2.9191248 -0.5
v -0.8374958 2.8596697 -0.4766116
v -0.78767145 2.9191248 -0.5
v -0.8390886 2.8638346 -0.5
v -0.8374958 2.8596697 -0.4766116
v -0.8390886 2.8638346 -0.5
v -0.8396966 2.8631809 -0.5
v -0.91257095 2.8366027 -0.4766116
v -0.8374958 2.8596697 -0.4766116
v -0.8396966 2.8631809 -0.5
v -0.91257095 2.8366027 -0.4766116
v -0.8396966 2.8631809 -0.5
v -0.911868 2.841006 -0.5
v -0.91257095 2.8366027 -0.4766116
v -0.911868 2.841006 -0.5
v -0.9127213 2.8407438 -0.5
v -0.9891224 2.8541641 -0.4766116
v -0.91257095 2.8366027 -0.4766116
v -0.9127213 2.8407438 -0.5
v -0.9891224 2.8541641 -0.4766116
v -0.9127213 2.8407438 -0.5
v -0.9863119 2.857626 -0.5
v -0.9891224 2.8541641 -0.4766116
v -0.9863119 2.857626 -0.5
v -0.987182 2.8578258 -0.5
v -1.0466366 2.9076486 -0.4766116
v -0.9891224 2.8541641 -0.4766116
v -0.987182 2.8578258 -0.5
v -1.0466366 2.9076486 -0.4766116
v -0.987182 2.8578258 -0.5
v -1.0424716 2.9092414 -0.5
v -1.0466366 2.9076486 -0.4766116
v -1.0424716 2.9092414 -0.5
v -1.0431255 2.9098494 -0.5
v -1.069704 2.9827251 -0.4766116
v -1.0466366 2.9076486 -0.4766116
v -1.0431255 2.9098494 -0.5
v -1.069704 2.9827251 -0.4766116
v -1.0431255 2.9098494 -0.5
v -1.0653007 2.982022 -0.5
v -1.069704 2.9827251 -0.4766116
v -1.0653007 2.982022 -0.5
v -1.065563 2.9828756 -0.5
v -1.0521431 3.0592763 -0.47661185
v -1.069704 2.9827251 -0.4766116
v -1.065563 2.9828756 -0.5
v -1.0521431 3.0592763 -0.47661185
v -1.065563 2.9828756 -0.5
v -1.0486813 3.0564659 -0.5
v -1.0521431 3.0592763 -0.47661185
v -1.0486813 3.0564659 -0.5
v -1.0484816 3.057336 -0.5
v -0.99865913 3.116791 -0.47661185
v -1.0521431 3.0592763 -0.47661185
v -1.0484816 3.057336 -0.5
v -0.99865913 3.116791 -0.47661185
v -1.0484816 3.057336 -0.5
v -0.99706626 3.112626 -0.5
v -0.99865913 3.116791 -0.47661185
v -0.99706626 3.112626 -0.5
v -0.9964583 3.1132798 -0.5
v -0.9235821 3.139858 -0.47661185
v -0.99865913 3.116791 -0.47661185
v -0.9964583 3.1132798 -0.5
v -0.9235821 3.139858 -0.47661185
v -0.9964583 3.1132798 -0.5
v -0.92428505 3.1354547 -0.5
v -0.9235821 3.139858 -0.47661185
v -0.92428505 3.1354547 -0.5
v -0.92343175 3.135717 -0.5
v -0.84703064 3.1222966 -0.47661185
v -0.9235821 3.139858 -0.47661185
v -0.92343175 3.135717 -0.5
v -0.84703064 3.1222966 -0.47661185
v -0.92343175 3.135717 -0.5
v -0.8498411 3.1188347 -0.5
v -0.84703064 3.1222966 -0.47661185
v -0.8498411 3.1188347 -0.5
v -0.84897095 3.1186352 -0.5
v -1.0512333 3.1835277 -0.47661185
v -0.7227802 3.1213877 -0.47661185
v -0.79943275 3.19267 -0.47661185
v -1.0512333 3.1835277 -0.47661185
v -1.1225166 3.1068738 -0.47661185
v -0.7227802 3.1213877 -0.47661185
v -1.1225166 3.1068738 -0.47661185
v -0.7136364 2.8695874 -0.4766116
v -0.7227802 3.1213877 -0.47661185
v -1.1225166 3.1068738 -0.47661185
v -1.1133747 2.8550735 -0.4766116
v -0.7136364 2.8695874 -0.4766116
v -1.1133747 2.8550735 -0.4766116
v -0.78491974 2.7929335 -0.47661185
v -0.7136364 2.8695874 -0.4766116
v -1.1133747 2.8550735 -0.4766116
v -1.0367203 2.7837906 -0.47661185
v -0.78491974 2.7929335 -0.47661185
vt 0.6298828 0.99658203
vt 0.9379883 0.68847656
vt 0.6308594 0.06390381
vt 0.6298828 0.99658203
vt 0.6308594 0.06390381
vt 0.6298828 0.06390381
vt 0.9379883 0.68847656
vt 0.9379883 0.06390381
vt 0.6308594 0.06390381
vt 0.6298828 0.99658203
vt 0.9379883 0.9975586
vt 0.9379883 0.68847656
vt 0.6298828 0.99658203
vt 0.6298828 0.99902344
vt 0.9379883 0.99902344
vt 0.6298828 0.99658203
vt 0.9379883 0.99902344
vt 0.9379883 0.9975586
vt 0.91552734 0.9291992
vt 0.88378906 0.93066406
vt 0.88378906 0.93066406
vt 0.91552734 0.9291992
vt 0.88378906 0.93066406
vt 0.91552734 0.9291992
vt 0.8745117 0.9213867
vt 0.8730469 0.8901367
vt 0.8730469 0.8901367
vt 0.8745117 0.9213867
vt 0.8730469 0.8901367
vt 0.8745117 0.9213867
vt 0.8745117 0.9213867
vt 0.8745117 0.9213867
vt 0.88378906 0.93066406
vt 0.8745117 0.9213867
vt 0.88378906 0.93066406
vt 0.88378906 0.93066406
vt 0.9243164 0.9199219
vt 0.9243164 0.9199219
vt 0.91552734 0.9291992
vt 0.9243164 0.9199219
vt 0.91552734 0.9291992
vt 0.91552734 0.9291992
vt 0.8828125 0.91503906
vt 0.88964844 0.921875
vt 0.8901367 0.9213867
vt 0.8828125 0.91503906
vt 0.8901367 0.9213867
vt 0.8833008 0.9145508
vt 0.8828125 0.91503906
vt 0.8833008 0.9145508
vt 0.8833008 0.9145508
vt 0.8798828 0.9057617
vt 0.8828125 0.91503906
vt 0.8833008 0.9145508
vt 0.8798828 0.9057617
vt 0.8833008 0.9145508
vt 0.8803711 0.9057617
vt 0.8798828 0.9057617
vt 0.8803711 0.9057617
vt 0.8803711 0.9057617
vt 0.88183594 0.8959961
vt 0.8798828 0.9057617
vt 0.8803711 0.9057617
vt 0.88183594 0.8959961
vt 0.8803711 0.9057617
vt 0.8823242 0.8964844
vt 0.88183594 0.8959961
vt 0.8823242 0.8964844
vt 0.8823242 0.8964844
vt 0.8886719 0.8886719
vt 0.88183594 0.8959961
vt 0.8823242 0.8964844
vt 0.8886719 0.8886719
vt 0.8823242 0.8964844
vt 0.8886719 0.88916016
vt 0.8886719 0.8886719
vt 0.8886719 0.88916016
vt 0.88916016 0.88916016
vt 0.8979492 0.8857422
vt 0.8886719 0.8886719
vt 0.88916016 0.88916016
vt 0.8979492 0.8857422
vt 0.88916016 0.88916016
vt 0.8979492 0.88671875
vt 0.8979492 0.8857422
vt 0.8979492 0.88671875
vt 0.8979492 0.88623047
vt 0.90771484 0.8881836
vt 0.8979492 0.8857422
vt 0.8979492 0.88623047
vt 0.90771484 0.8881836
vt 0.8979492 0.88623047
vt 0.90722656 0.8886719
vt 0.90771484 0.8881836
vt 0.90722656 0.8886719
vt 0.90722656 0.8886719
vt 0.91503906 0.89501953
vt 0.90771484 0.8881836
vt 0.90722656 0.8886719
vt 0.91503906 0.89501953
vt 0.90722656 0.8886719
vt 0.9140625 0.89501953
vt 0.91503906 0.89501953
vt 0.9140625 0.89501953
vt 0.9145508 0.89501953
vt 0.91748047 0.9042969
vt 0.91503906 0.89501953
vt 0.9145508 0.89501953
vt 0.91748047 0.9042969
vt 0.9145508 0.89501953
vt 0.9169922 0.9042969
vt 0.91748047 0.9042969
vt 0.9169922 0.9042969
vt 0.9169922 0.9042969
vt 0.91552734 0.9135742
vt 0.91748047 0.9042969
vt 0.9169922 0.9042969
vt 0.91552734 0.9135742
vt 0.9169922 0.9042969
vt 0.91503906 0.9135742
vt 0.91552734 0.9135742
vt 0.91503906 0.9135742
vt 0.91503906 0.9135742
vt 0.9086914 0.92089844
vt 0.91552734 0.9135742
vt 0.91503906 0.9135742
vt 0.9086914 0.92089844
vt 0.91503906 0.9135742
vt 0.9086914 0.92041016
vt 0.9086914 0.92089844
vt 0.9086914 0.92041016
vt 0.9086914 0.92041016
vt 0.89941406 0.9238281
vt 0.9086914 0.92089844
vt 0.9086914 0.92041016
vt 0.89941406 0.9238281
vt 0.9086914 0.92041016
vt 0.89941406 0.92333984
vt 0.89941406 0.9238281
vt 0.89941406 0.92333984
vt 0.89941406 0.92333984
vt 0.88964844 0.921875
vt 0.89941406 0.9238281
vt 0.89941406 0.92333984
vt 0.88964844 0.921875
vt 0.89941406 0.92333984
vt 0.8901367 0.9213867
vt 0.88964844 0.921875
vt 0.8901367 0.9213867
vt 0.8901367 0.9213867
vt 0.91552734 0.9291992
vt 0.8745117 0.9213867
vt 0.88378906 0.93066406
vt 0.91552734 0.9291992
vt 0.9243164 0.9199219
vt 0.8745117 0.9213867
vt 0.9243164 0.9199219
vt 0.8730469 0.8901367
vt 0.8745117 0.9213867
vt 0.9243164 0.9199219
vt 0.92333984 0.8881836
vt 0.8730469 0.8901367
vt 0.92333984 0.8881836
vt 0.8823242 0.8803711
vt 0.8730469 0.8901367
vt 0.92333984 0.8881836
vt 0.9135742 0.87939453
vt 0.8823242 0.8803711
vn -0 0 -1
vn -0 0 -1
vn -0 0 -1
vn -0 0 -1
vn -0 0 -1
vn -0 0 -1
vn -0 0 -1
vn -0 0 -1
vn -0 0 -1
vn -0 0 -1
vn -0 0 -1
vn -0 0 -1
vn -0 0 -1
vn -0 0 -1
vn -0 0 -1
vn -0 0 -1
vn -0 0 -1
vn -0 0 -1
vn -0.0362854 0.9995117 -5.9604645E-08
vn -0.0362854 0.9995117 -5.9604645E-08
vn -0.0362854 0.9995117 -5.9604645E-08
vn -0.0362854 0.9995117 -5.9604645E-08
vn -0.0362854 0.9995117 -5.9604645E-08
vn -0.0362854 0.9995117 -5.9604645E-08
vn 0.9995117 0.0362854 -0
vn 0.9995117 0.0362854 -0
vn 0.9995117 0.0362854 -0
vn 0.9995117 0.0362854 -0
vn 0.9995117 0.0362854 -0
vn 0.9995117 0.0362854 -0
vn 0.68115234 0.7324219 -1.7881393E-07
vn 0.68115234 0.7324219 -1.7881393E-07
vn 0.68115234 0.7324219 -1.7881393E-07
vn 0.68115234 0.7324219 -1.7881393E-07
vn 0.68115234 0.7324219 -1.7881393E-07
vn 0.68115234 0.7324219 -1.7881393E-07
vn -0.7324219 0.68115234 -1.1920929E-07
vn -0.7324219 0.68115234 -1.1920929E-07
vn -0.7324219 0.68115234 -1.1920929E-07
vn -0.7324219 0.68115234 -1.1920929E-07
vn -0.7324219 0.68115234 -1.1920929E-07
vn -0.7324219 0.68115234 -1.1920929E-07
vn 0.83447266 0.5229492 -0.17443848
vn 0.46118164 0.8701172 -0.17443848
vn 0.46118164 0.8701172 -0.17443848
vn 0.83447266 0.5229492 -0.17443848
vn 0.46118164 0.8701172 -0.17443848
vn 0.8198242 0.5361328 -0.17443848
vn 0.83447266 0.5229492 -0.17443848
vn 0.8198242 0.5361328 -0.17443848
vn 0.83447266 0.5229492 -0.17443848
vn 0.9838867 0.035736084 -0.17443848
vn 0.83447266 0.5229492 -0.17443848
vn 0.83447266 0.5229492 -0.17443848
vn 0.9838867 0.035736084 -0.17443848
vn 0.83447266 0.5229492 -0.17443848
vn 0.97802734 0.05456543 -0.17443848
vn 0.9838867 0.035736084 -0.17443848
vn 0.97802734 0.05456543 -0.17443848
vn 0.9838867 0.035736084 -0.17443848
vn 0.8701172 -0.46118164 -0.17443848
vn 0.9838867 0.035736084 -0.17443848
vn 0.9838867 0.035736084 -0.17443848
vn 0.8701172 -0.46118164 -0.17443848
vn 0.9838867 0.035736084 -0.17443848
vn 0.8745117 -0.44189453 -0.17443848
vn 0.8701172 -0.46118164 -0.17443848
vn 0.8745117 -0.44189453 -0.17443848
vn 0.8701172 -0.46118164 -0.17443848
vn 0.5229492 -0.83447266 -0.17443848
vn 0.8701172 -0.46118164 -0.17443848
vn 0.8701172 -0.46118164 -0.17443848
vn 0.5229492 -0.83447266 -0.17443848
vn 0.8701172 -0.46118164 -0.17443848
vn 0.5361328 -0.8198242 -0.17443848
vn 0.5229492 -0.83447266 -0.17443848
vn 0.5361328 -0.8198242 -0.17443848
vn 0.5229492 -0.83447266 -0.17443848
vn 0.035736084 -0.9838867 -0.17443848
vn 0.5229492 -0.83447266 -0.17443848
vn 0.5229492 -0.83447266 -0.17443848
vn 0.035736084 -0.9838867 -0.17443848
vn 0.5229492 -0.83447266 -0.17443848
vn 0.05456543 -0.97802734 -0.17443848
vn 0.035736084 -0.9838867 -0.17443848
vn 0.05456543 -0.97802734 -0.17443848
vn 0.035736084 -0.9838867 -0.17443848
vn -0.46118164 -0.8701172 -0.17443848
vn 0.035736084 -0.9838867 -0.17443848
vn 0.035736084 -0.9838867 -0.17443848
vn -0.46118164 -0.8701172 -0.17443848
vn 0.035736084 -0.9838867 -0.17443848
vn -0.44189453 -0.8745117 -0.17443848
vn -0.46118164 -0.8701172 -0.17443848
vn -0.44189453 -0.8745117 -0.17443848
vn -0.46118164 -0.8701172 -0.17443848
vn -0.83447266 -0.5229492 -0.17443848
vn -0.46118164 -0.8701172 -0.17443848
vn -0.46118164 -0.8701172 -0.17443848
vn -0.83447266 -0.5229492 -0.17443848
vn -0.46118164 -0.8701172 -0.17443848
vn -0.8198242 -0.5361328 -0.17443848
vn -0.83447266 -0.5229492 -0.17443848
vn -0.8198242 -0.5361328 -0.17443848
vn -0.83447266 -0.5229492 -0.17443848
vn -0.9838867 -0.035736084 -0.17443848
vn -0.83447266 -0.5229492 -0.17443848
vn -0.83447266 -0.5229492 -0.17443848
vn -0.9838867 -0.035736084 -0.17443848
vn -0.83447266 -0.5229492 -0.17443848
vn -0.97802734 -0.05456543 -0.17443848
vn -0.9838867 -0.035736084 -0.17443848
vn -0.97802734 -0.05456543 -0.17443848
vn -0.9838867 -0.035736084 -0.17443848
vn -0.8701172 0.46118164 -0.17443848
vn -0.9838867 -0.035736084 -0.17443848
vn -0.9838867 -0.035736084 -0.17443848
vn -0.8701172 0.46118164 -0.17443848
vn -0.9838867 -0.035736084 -0.17443848
vn -0.8745117 0.44189453 -0.17443848
vn -0.8701172 0.46118164 -0.17443848
vn -0.8745117 0.44189453 -0.17443848
vn -0.8701172 0.46118164 -0.17443848
vn -0.5229492 0.83447266 -0.17443848
vn -0.8701172 0.46118164 -0.17443848
vn -0.8701172 0.46118164 -0.17443848
vn -0.5229492 0.83447266 -0.17443848
vn -0.8701172 0.46118164 -0.17443848
vn -0.5361328 0.8198242 -0.17443848
vn -0.5229492 0.83447266 -0.17443848
vn -0.5361328 0.8198242 -0.17443848
vn -0.5229492 0.83447266 -0.17443848
vn -0.035736084 0.9838867 -0.17443848
vn -0.5229492 0.83447266 -0.17443848
vn -0.5229492 0.83447266 -0.17443848
vn -0.035736084 0.9838867 -0.17443848
vn -0.5229492 0.83447266 -0.17443848
vn -0.05456543 0.97802734 -0.17443848
vn -0.035736084 0.9838867 -0.17443848
vn -0.05456543 0.97802734 -0.17443848
vn -0.035736084 0.9838867 -0.17443848
vn 0.46118164 0.8701172 -0.17443848
vn -0.035736084 0.9838867 -0.17443848
vn -0.035736084 0.9838867 -0.17443848
vn 0.46118164 0.8701172 -0.17443848
vn -0.035736084 0.9838867 -0.17443848
vn 0.44189453 0.8745117 -0.17443848
vn 0.46118164 0.8701172 -0.17443848
vn 0.44189453 0.8745117 -0.17443848
vn 0.46118164 0.8701172 -0.17443848
vn -0 0 -1
vn -0 0 -1
vn -0 0 -1
vn -0 0 -1
vn -0 0 -1
vn -0 0 -1
vn -0 0 -1
vn -0 0 -1
vn -0 0 -1
vn -0 0 -1
vn -0 0 -1
vn -0 0 -1
vn -0 0 -1
vn -0 0 -1
vn -0 0 -1
vn -0 0 -1
vn -0 0 -1
vn -0 0 -1
g DecalMesh_Common_Decal_Crack_01__5_0
f 3/3/3 2/2/2 1/1/1
f 6/6/6 5/5/5 4/4/4
f 9/9/9 8/8/8 7/7/7
f 12/12/12 11/11/11 10/10/10
f 15/15/15 14/14/14 13/13/13
f 18/18/18 17/17/17 16/16/16
f 21/21/21 20/20/20 19/19/19
f 24/24/24 23/23/23 22/22/22
f 27/27/27 26/26/26 25/25/25
f 30/30/30 29/29/29 28/28/28
f 33/33/33 32/32/32 31/31/31
f 36/36/36 35/35/35 34/34/34
f 39/39/39 38/38/38 37/37/37
f 42/42/42 41/41/41 40/40/40
f 45/45/45 44/44/44 43/43/43
f 48/48/48 47/47/47 46/46/46
f 51/51/51 50/50/50 49/49/49
f 54/54/54 53/53/53 52/52/52
f 57/57/57 56/56/56 55/55/55
f 60/60/60 59/59/59 58/58/58
f 63/63/63 62/62/62 61/61/61
f 66/66/66 65/65/65 64/64/64
f 69/69/69 68/68/68 67/67/67
f 72/72/72 71/71/71 70/70/70
f 75/75/75 74/74/74 73/73/73
f 78/78/78 77/77/77 76/76/76
f 81/81/81 80/80/80 79/79/79
f 84/84/84 83/83/83 82/82/82
f 87/87/87 86/86/86 85/85/85
f 90/90/90 89/89/89 88/88/88
f 93/93/93 92/92/92 91/91/91
f 96/96/96 95/95/95 94/94/94
f 99/99/99 98/98/98 97/97/97
f 102/102/102 101/101/101 100/100/100
f 105/105/105 104/104/104 103/103/103
f 108/108/108 107/107/107 106/106/106
f 111/111/111 110/110/110 109/109/109
f 114/114/114 113/113/113 112/112/112
f 117/117/117 116/116/116 115/115/115
f 120/120/120 119/119/119 118/118/118
f 123/123/123 122/122/122 121/121/121
f 126/126/126 125/125/125 124/124/124
f 129/129/129 128/128/128 127/127/127
f 132/132/132 131/131/131 130/130/130
f 135/135/135 134/134/134 133/133/133
f 138/138/138 137/137/137 136/136/136
f 141/141/141 140/140/140 139/139/139
f 144/144/144 143/143/143 142/142/142
f 147/147/147 146/146/146 145/145/145
f 150/150/150 149/149/149 148/148/148
f 153/153/153 152/152/152 151/151/151
f 156/156/156 155/155/155 154/154/154
f 159/159/159 158/158/158 157/157/157
f 162/162/162 161/161/161 160/160/160
f 165/165/165 164/164/164 163/163/163
f 168/168/168 167/167/167 166/166/166
