g DecalMesh_MetroArea_Decal_Ground_13__41
v -0.49630642 -0.040130645 -0.3504448
v -0.5 -0.040133197 -0.3504448
v -0.5 -0.041582715 -0.35618782
v -0.49630642 -0.040130645 -0.3504448
v -0.5 -0.041582715 -0.35618782
v -0.49793577 -0.04158129 -0.35618782
v -0.49630642 -0.040130645 -0.3504448
v -0.5 -0.036357462 -0.35044482
v -0.5 -0.040133197 -0.3504448
v -0.49630642 -0.040130645 -0.3504448
v 0.49999994 0.36131513 -0.35044637
v -0.5 0.4292105 -0.35044792
v -0.49630642 -0.040130645 -0.3504448
v -0.5 0.4292105 -0.35044792
v -0.5 -0.036357474 -0.35044482
v 0.49999994 0.36131513 -0.35044637
v 0.49999994 0.5 -0.3504473
v -0.5 0.47470525 -0.35044822
v 0.49999994 0.36131513 -0.35044637
v -0.5 0.47470525 -0.35044822
v -0.5 0.4292105 -0.35044792
v 0.49999994 0.5 -0.3504473
v -0.5 0.5 -0.35044837
v -0.50000006 0.47470525 -0.35044822
v -0.49630642 -0.040130645 -0.3504448
v 0.5 0.16036755 -0.35044482
v 0.5 0.36131516 -0.35044637
v -0.49630642 -0.040130645 -0.3504448
v 0.50000006 0.12629266 -0.35044608
v 0.5 0.16036755 -0.35044482
v -0.49630642 -0.040130645 -0.3504448
v 0.5 -0.4835879 -0.3504456
v 0.50000006 0.12629266 -0.35044608
v -0.49630642 -0.040130645 -0.3504448
v -0.49669912 -0.5 -0.35044473
v 0.05486925 -0.5 -0.3504452
v 0.5 -0.4835879 -0.3504456
v -0.49630642 -0.040130645 -0.3504448
v 0.05486925 -0.5 -0.3504452
v 0.5 -0.4835879 -0.3504456
v 0.05486925 -0.5 -0.3504452
v 0.5 -0.5 -0.3504456
v -0.49630642 -0.040130645 -0.3504448
v -0.49793577 -0.04158129 -0.35618782
v -0.49805823 -0.18275832 -0.35618782
v -0.49736458 -0.5 -0.35278934
v -0.49630642 -0.040130645 -0.3504448
v -0.49805823 -0.1827583 -0.35618782
v -0.49736458 -0.5 -0.35278934
v -0.49805823 -0.1827583 -0.35618782
v -0.49828187 -0.44460717 -0.35618782
v -0.49630642 -0.040130645 -0.3504448
v -0.49736458 -0.5 -0.35278934
v -0.49669912 -0.5 -0.35044473
v -0.49736458 -0.5 -0.35278934
v -0.49828187 -0.44460717 -0.35618782
v -0.49832916 -0.5 -0.35618782
vt 0.8808594 0.5605469
vt 0.88134766 0.5605469
vt 0.88134766 0.5605469
vt 0.8808594 0.5605469
vt 0.88134766 0.5605469
vt 0.8808594 0.5605469
vt 0.8808594 0.5605469
vt 0.88134766 0.56103516
vt 0.88134766 0.5605469
vt 0.8808594 0.5605469
vt 0.76953125 0.60595703
vt 0.88134766 0.61376953
vt 0.8808594 0.5605469
vt 0.88134766 0.61376953
vt 0.88134766 0.56103516
vt 0.76953125 0.60595703
vt 0.76953125 0.6220703
vt 0.88134766 0.6191406
vt 0.76953125 0.60595703
vt 0.88134766 0.6191406
vt 0.88134766 0.61376953
vt 0.76953125 0.6220703
vt 0.88134766 0.6220703
vt 0.88134766 0.6191406
vt 0.8808594 0.5605469
vt 0.76953125 0.5834961
vt 0.76953125 0.60595703
vt 0.8808594 0.5605469
vt 0.76953125 0.57958984
vt 0.76953125 0.5834961
vt 0.8808594 0.5605469
vt 0.76953125 0.5102539
vt 0.76953125 0.57958984
vt 0.8808594 0.5605469
vt 0.8808594 0.5083008
vt 0.81933594 0.5083008
vt 0.76953125 0.5102539
vt 0.8808594 0.5605469
vt 0.81933594 0.5083008
vt 0.76953125 0.5102539
vt 0.81933594 0.5083008
vt 0.76953125 0.5083008
vt 0.8808594 0.5605469
vt 0.8808594 0.5605469
vt 0.8808594 0.5444336
vt 0.8808594 0.5083008
vt 0.8808594 0.5605469
vt 0.8808594 0.5444336
vt 0.8808594 0.5083008
vt 0.8808594 0.5444336
vt 0.8808594 0.51464844
vt 0.8808594 0.5605469
vt 0.8808594 0.5083008
vt 0.8808594 0.5083008
vt 0.8808594 0.5083008
vt 0.8808594 0.51464844
vt 0.8808594 0.5083008
vn -0.0006670952 0.96972656 -0.24475098
vn -0.0006670952 0.96972656 -0.24475098
vn -0.0006670952 0.96972656 -0.24475098
vn -0.0006670952 0.96972656 -0.24475098
vn -0.0006670952 0.96972656 -0.24475098
vn -0.0006670952 0.96972656 -0.24475098
vn -2.3841858E-07 -8.34465E-07 -1
vn -2.3841858E-07 -8.34465E-07 -1
vn -0.00013518333 -1.4305115E-06 -1
vn -2.3841858E-07 -8.34465E-07 -1
vn -2.3841858E-07 -8.940697E-07 -1
vn -5.9604645E-08 -5.9604645E-07 -1
vn -2.3841858E-07 -8.34465E-07 -1
vn -5.9604645E-08 -5.9604645E-07 -1
vn -2.3841858E-07 -8.34465E-07 -1
vn -2.3841858E-07 -8.940697E-07 -1
vn -1.7881393E-07 -8.34465E-07 -1
vn -5.9604645E-08 -5.9604645E-07 -1
vn -2.3841858E-07 -8.940697E-07 -1
vn -5.9604645E-08 -5.9604645E-07 -1
vn -5.9604645E-08 -5.9604645E-07 -1
vn -1.7881393E-07 -8.34465E-07 -1
vn -5.9604645E-08 -5.9604645E-07 -1
vn -5.9604645E-08 -5.9604645E-07 -1
vn -2.3841858E-07 -8.34465E-07 -1
vn 6.556511E-07 0.0015325546 -1
vn -2.3841858E-07 -8.940697E-07 -1
vn -2.3841858E-07 -8.34465E-07 -1
vn -1.0728836E-06 0.00023186207 -1
vn 6.556511E-07 0.0015325546 -1
vn -2.3841858E-07 -8.34465E-07 -1
vn -2.3841858E-07 -6.556511E-07 -1
vn -1.0728836E-06 0.00023186207 -1
vn -2.3841858E-07 -8.34465E-07 -1
vn -1.7881393E-07 5.9604645E-07 -1
vn -1.7881393E-07 -5.9604645E-08 -1
vn -2.3841858E-07 -6.556511E-07 -1
vn -2.3841858E-07 -8.34465E-07 -1
vn -1.7881393E-07 -5.9604645E-08 -1
vn -2.3841858E-07 -6.556511E-07 -1
vn -1.7881393E-07 -5.9604645E-08 -1
vn -2.3841858E-07 -5.9604645E-07 -1
vn 0.96191406 -0.0008368492 -0.27270508
vn 0.96191406 -0.0008368492 -0.27270508
vn 0.96191406 -0.00083208084 -0.27294922
vn 0.96191406 -0.0008215904 -0.27319336
vn 0.96191406 -0.0008368492 -0.27270508
vn 0.96191406 -0.00083208084 -0.27294922
vn 0.96191406 -0.0008215904 -0.27319336
vn 0.96191406 -0.00083208084 -0.27294922
vn 0.96191406 -0.0008234978 -0.27294922
vn 0.96191406 -0.0008368492 -0.27270508
vn 0.96191406 -0.0008215904 -0.27319336
vn 0.96191406 -0.0008215904 -0.27319336
vn 0.96191406 -0.0008215904 -0.27319336
vn 0.96191406 -0.0008234978 -0.27294922
vn 0.96191406 -0.0008215904 -0.27319336
g DecalMesh_MetroArea_Decal_Ground_13__41_0
f 3/3/3 2/2/2 1/1/1
f 6/6/6 5/5/5 4/4/4
f 9/9/9 8/8/8 7/7/7
f 12/12/12 11/11/11 10/10/10
f 15/15/15 14/14/14 13/13/13
f 18/18/18 17/17/17 16/16/16
f 21/21/21 20/20/20 19/19/19
f 24/24/24 23/23/23 22/22/22
f 27/27/27 26/26/26 25/25/25
f 30/30/30 29/29/29 28/28/28
f 33/33/33 32/32/32 31/31/31
f 36/36/36 35/35/35 34/34/34
f 39/39/39 38/38/38 37/37/37
f 42/42/42 41/41/41 40/40/40
f 45/45/45 44/44/44 43/43/43
f 48/48/48 47/47/47 46/46/46
f 51/51/51 50/50/50 49/49/49
f 54/54/54 53/53/53 52/52/52
f 57/57/57 56/56/56 55/55/55
