g DecalMesh_Common_Decal_Crack_07__131
v 5.5467386 3.3093555 -0.02503231
v 5.081186 3.6313565 -0.024725053
v 4.336741 3.6313565 -0.024318093
v 5.5467386 3.3093555 -0.02503231
v 5.5467386 3.6313565 -0.024979554
v 5.081186 3.6313565 -0.024725053
v 5.5467386 1.9261715 -0.025259245
v 0.10250059 3.6313567 -0.022003649
v -5.5467396 3.1914883 -0.018987931
v 5.5467386 1.9261715 -0.025259245
v -5.5467396 3.1914883 -0.018987931
v -5.5467377 1.7578351 -0.019223148
v 0.10250059 3.6313567 -0.022003649
v -5.5467386 3.6313567 -0.018915765
v -5.5467386 3.1914883 -0.018987931
v 5.5467386 1.9261715 -0.025259245
v 5.5467386 3.3093555 -0.02503231
v 4.3367414 3.6313562 -0.024318093
v 5.5467386 1.9261715 -0.025259245
v 4.3367414 3.6313562 -0.024318093
v 0.10250059 3.6313567 -0.022003649
v 5.546739 0.84112024 -0.025437105
v -5.5467386 1.0272008 -0.019342912
v -5.5467386 -1.7751201 -0.019802265
v 5.546739 0.84112024 -0.025437105
v 5.5467386 1.9261715 -0.025259245
v -5.5467377 1.7578351 -0.019223148
v 5.546739 0.84112024 -0.025437105
v -5.5467377 1.7578351 -0.019223148
v -5.5467396 1.0272008 -0.019342912
v 5.546739 -0.33076286 -0.025629224
v -5.5467386 -2.5573223 -0.0199305
v -5.546738 -3.6253567 -0.020105593
v 5.546739 -0.33076286 -0.025629224
v -5.546738 -3.6253567 -0.020105593
v -1.4015934 -3.6253567 -0.022371348
v 5.546739 -0.33076286 -0.025629224
v 5.546739 0.84112024 -0.025437105
v -5.5467396 -1.7751204 -0.019802265
v 5.546739 -0.33076286 -0.025629224
v -5.5467396 -1.7751204 -0.019802265
v -5.5467396 -2.5573225 -0.019930499
v 5.5467386 -1.4579369 -0.025814224
v 0.5962545 -3.6253564 -0.023463558
v 2.4653206 -3.6253564 -0.024485366
v 5.5467386 -1.4579369 -0.025814224
v 5.546739 -0.33076286 -0.025629224
v -1.4015934 -3.6253567 -0.022371348
v 5.5467386 -1.4579369 -0.025814224
v -1.4015934 -3.6253567 -0.022371348
v -0.27107042 -3.6253567 -0.022989398
v 5.5467386 -1.4579369 -0.025814224
v -0.27107042 -3.6253567 -0.022989398
v 0.5962545 -3.6253564 -0.023463558
v 5.5467386 -2.7652054 -0.026028426
v 4.2337556 -3.6253564 -0.025451818
v 4.6592865 -3.6253564 -0.025684372
v 5.5467386 -2.7652054 -0.026028426
v 5.5467386 -1.4579369 -0.025814224
v 2.4653206 -3.6253567 -0.024485366
v 5.5467386 -2.7652054 -0.026028426
v 2.4653206 -3.6253567 -0.024485366
v 4.0777574 -3.6253567 -0.025366565
v 5.5467386 -2.7652054 -0.026028426
v 4.0777574 -3.6253564 -0.025366565
v 4.2337556 -3.6253564 -0.025451818
v 5.5467386 -2.7652054 -0.026028426
v 4.6592865 -3.6253564 -0.025684372
v 5.5467386 -3.6253564 -0.026169524
vt -0.024749756 0.74853516
vt 0.020004272 0.78222656
vt 0.091552734 0.78222656
vt -0.024749756 0.74853516
vt -0.024749756 0.78222656
vt 0.020004272 0.78222656
vt -0.024749756 0.6020508
vt 0.49853516 0.78222656
vt 1.0419922 0.73583984
vt -0.024749756 0.6020508
vt 1.0419922 0.73583984
vt 1.0419922 0.5839844
vt 0.49853516 0.78222656
vt 1.0419922 0.78222656
vt 1.0419922 0.73583984
vt -0.024749756 0.6020508
vt -0.024749756 0.74853516
vt 0.091552734 0.78222656
vt -0.024749756 0.6020508
vt 0.091552734 0.78222656
vt 0.49853516 0.78222656
vt -0.024749756 0.48706055
vt 1.0419922 0.50683594
vt 1.0419922 0.21020508
vt -0.024749756 0.48706055
vt -0.024749756 0.6020508
vt 1.0419922 0.5839844
vt -0.024749756 0.48706055
vt 1.0419922 0.5839844
vt 1.0419922 0.50683594
vt -0.024749756 0.3630371
vt 1.0419922 0.1274414
vt 1.0419922 0.014419556
vt -0.024749756 0.3630371
vt 1.0419922 0.014419556
vt 0.6430664 0.014419556
vt -0.024749756 0.3630371
vt -0.024749756 0.48706055
vt 1.0419922 0.21020508
vt -0.024749756 0.3630371
vt 1.0419922 0.21020508
vt 1.0419922 0.1274414
vt -0.024749756 0.24377441
vt 0.45117188 0.014419556
vt 0.27148438 0.014419556
vt -0.024749756 0.24377441
vt -0.024749756 0.3630371
vt 0.6430664 0.014419556
vt -0.024749756 0.24377441
vt 0.6430664 0.014419556
vt 0.53466797 0.014419556
vt -0.024749756 0.24377441
vt 0.53466797 0.014419556
vt 0.45117188 0.014419556
vt -0.024749756 0.10546875
vt 0.101501465 0.014419556
vt 0.060577393 0.014419556
vt -0.024749756 0.10546875
vt -0.024749756 0.24377441
vt 0.27148438 0.014419556
vt -0.024749756 0.10546875
vt 0.27148438 0.014419556
vt 0.11645508 0.014419556
vt -0.024749756 0.10546875
vt 0.11645508 0.014419556
vt 0.101501465 0.014419556
vt -0.024749756 0.10546875
vt 0.060577393 0.014419556
vt -0.024749756 0.014419556
vn 0.0032539368 -0.0014228821 -1
vn 0.003993988 -0.0018444061 -1
vn 0.0041885376 -0.0018148422 -1
vn 0.0032539368 -0.0014228821 -1
vn 0.003873825 -0.0018625259 -1
vn 0.003993988 -0.0018444061 -1
vn 0.0046806335 -0.00084733963 -1
vn 0.008621216 -0.0027198792 -1
vn 0.01499176 -0.0037460327 -0.9995117
vn 0.0046806335 -0.00084733963 -1
vn 0.01499176 -0.0037460327 -0.9995117
vn 0.016464233 -0.0031490326 -0.9995117
vn 0.008621216 -0.0027198792 -1
vn 0.014533997 -0.003929138 -0.9995117
vn 0.01499176 -0.0037460327 -0.9995117
vn 0.0046806335 -0.00084733963 -1
vn 0.0032539368 -0.0014228821 -1
vn 0.0041885376 -0.0018148422 -1
vn 0.0046806335 -0.00084733963 -1
vn 0.0041885376 -0.0018148422 -1
vn 0.008621216 -0.0027198792 -1
vn 0.00484848 0.0013523102 -1
vn 0.016586304 -0.0016679764 -0.9995117
vn 0.017028809 0.0040130615 -0.9995117
vn 0.00484848 0.0013523102 -1
vn 0.0046806335 -0.00084733963 -1
vn 0.016464233 -0.0031490326 -0.9995117
vn 0.00484848 0.0013523102 -1
vn 0.016464233 -0.0031490326 -0.9995117
vn 0.016586304 -0.0016679764 -0.9995117
vn 0.004623413 0.0033683777 -1
vn 0.01687622 0.0053596497 -0.9995117
vn 0.016662598 0.0071983337 -0.9995117
vn 0.004623413 0.0033683777 -1
vn 0.016662598 0.0071983337 -0.9995117
vn 0.011932373 0.007888794 -0.9995117
vn 0.004623413 0.0033683777 -1
vn 0.00484848 0.0013523102 -1
vn 0.017028809 0.0040130615 -0.9995117
vn 0.004623413 0.0033683777 -1
vn 0.017028809 0.0040130615 -0.9995117
vn 0.01687622 0.0053596497 -0.9995117
vn 0.0036449432 0.0024356842 -1
vn 0.009002686 0.0058021545 -1
vn 0.0062713623 0.0038528442 -1
vn 0.0036449432 0.0024356842 -1
vn 0.004623413 0.0033683777 -1
vn 0.011932373 0.007888794 -0.9995117
vn 0.0036449432 0.0024356842 -1
vn 0.011932373 0.007888794 -0.9995117
vn 0.010276794 0.006706238 -0.9995117
vn 0.0036449432 0.0024356842 -1
vn 0.010276794 0.006706238 -0.9995117
vn 0.009002686 0.0058021545 -1
vn 0.005393982 0.0025787354 -1
vn 0.006427765 0.0031757355 -1
vn 0.006465912 0.0030117035 -1
vn 0.005393982 0.0025787354 -1
vn 0.0036449432 0.0024356842 -1
vn 0.0062713623 0.0038528442 -1
vn 0.005393982 0.0025787354 -1
vn 0.0062713623 0.0038528442 -1
vn 0.006412506 0.0032348633 -1
vn 0.005393982 0.0025787354 -1
vn 0.006412506 0.0032348633 -1
vn 0.006427765 0.0031757355 -1
vn 0.005393982 0.0025787354 -1
vn 0.006465912 0.0030117035 -1
vn 0.0053138733 0.0029335022 -1
g DecalMesh_Common_Decal_Crack_07__131_0
f 3/3/3 2/2/2 1/1/1
f 6/6/6 5/5/5 4/4/4
f 9/9/9 8/8/8 7/7/7
f 12/12/12 11/11/11 10/10/10
f 15/15/15 14/14/14 13/13/13
f 18/18/18 17/17/17 16/16/16
f 21/21/21 20/20/20 19/19/19
f 24/24/24 23/23/23 22/22/22
f 27/27/27 26/26/26 25/25/25
f 30/30/30 29/29/29 28/28/28
f 33/33/33 32/32/32 31/31/31
f 36/36/36 35/35/35 34/34/34
f 39/39/39 38/38/38 37/37/37
f 42/42/42 41/41/41 40/40/40
f 45/45/45 44/44/44 43/43/43
f 48/48/48 47/47/47 46/46/46
f 51/51/51 50/50/50 49/49/49
f 54/54/54 53/53/53 52/52/52
f 57/57/57 56/56/56 55/55/55
f 60/60/60 59/59/59 58/58/58
f 63/63/63 62/62/62 61/61/61
f 66/66/66 65/65/65 64/64/64
f 69/69/69 68/68/68 67/67/67
