g DecalMesh_Common_Decal_Sign_09__76
v 0.29407477 0.2271432 -0.34478965
v 0.29336563 -0.22714317 -0.34415317
v 0.2947293 -0.22714317 -0.34537712
v 0.29407477 0.2271432 -0.34478965
v 0.2919625 0.2271432 -0.34289378
v 0.2919625 -0.22714312 -0.34289378
v 0.29407477 0.2271432 -0.34478965
v 0.2919625 -0.22714312 -0.34289378
v 0.29336563 -0.22714312 -0.34415317
v 0.29602432 0.22714321 -0.3465395
v 0.29407477 0.2271432 -0.34478965
v 0.2947293 -0.22714312 -0.34537712
v 0.29602432 0.22714321 -0.3465395
v 0.2947293 -0.22714312 -0.34537712
v 0.29602432 -0.2271432 -0.3465395
v 0.2919625 0.2271432 -0.34289378
v 0.0932378 -0.22714318 -0.34289494
v 0.2919625 -0.22714317 -0.34289378
v 0.2919625 0.2271432 -0.34289378
v -0.015856162 0.2271432 -0.3428956
v -0.111237854 -0.22714314 -0.34289616
v 0.2919625 0.2271432 -0.34289378
v -0.111237854 -0.22714314 -0.34289616
v 0.091785654 -0.22714314 -0.34289494
v 0.2919625 0.2271432 -0.34289378
v 0.09178564 -0.22714318 -0.34289494
v 0.0932378 -0.22714318 -0.34289494
v -0.015856162 0.2271432 -0.3428956
v -0.29602432 0.2271432 -0.34289724
v -0.29602432 -0.22714314 -0.34289724
v -0.015856162 0.2271432 -0.3428956
v -0.29602432 -0.22714314 -0.34289724
v -0.111237854 -0.22714314 -0.34289616
v 0.29602432 0.079013824 -0.18800339
v 0.29602435 0.079013824 -0.19588532
v -0.29602432 0.079013824 -0.20185778
v 0.29602432 0.079013824 -0.18800339
v -0.29602432 0.079013824 -0.20185778
v -0.29602432 0.079013824 -0.19903581
v 0.29602435 0.079013824 -0.19588532
v -0.2960243 0.0873242 -0.21016899
v -0.2960243 0.079013824 -0.20185778
v 0.29602435 0.079013824 -0.19588532
v 0.29602432 0.08638473 -0.20325698
v -0.29602432 0.08996253 -0.2128076
v 0.29602435 0.079013824 -0.19588532
v -0.29602432 0.08996253 -0.2128076
v -0.29602432 0.0873242 -0.21016899
v 0.29602432 0.08638473 -0.20325698
v 0.29602432 0.09195709 -0.20882991
v -0.29602432 0.09195709 -0.21480235
v 0.29602432 0.08638473 -0.20325698
v -0.29602432 0.09195709 -0.21480235
v -0.29602432 0.08996253 -0.2128076
v 0.29602432 0.09195709 -0.20882991
v -0.29602432 0.10371114 -0.21480235
v -0.29602432 0.09195709 -0.21480235
v 0.29602432 0.09195709 -0.20882991
v 0.29602432 0.10238285 -0.20882991
v -0.29602432 0.10744292 -0.21480235
v 0.29602432 0.09195709 -0.20882991
v -0.29602432 0.10744292 -0.21480235
v -0.29602432 0.10371114 -0.21480235
v 0.29602432 0.10238285 -0.20882991
v 0.29602432 0.110263824 -0.20882991
v -0.29602432 0.110263824 -0.21480235
v 0.29602432 0.10238285 -0.20882991
v -0.29602432 0.110263824 -0.21480235
v -0.29602432 0.10744292 -0.21480235
v 0.29602432 0.110263824 -0.20882991
v -0.29602432 0.118573025 -0.20649232
v -0.29602432 0.110263824 -0.21480235
v 0.29602432 0.110263824 -0.20882991
v 0.29602435 0.117634624 -0.20145835
v -0.29602432 0.12121198 -0.20385309
v 0.29602432 0.110263824 -0.20882991
v -0.29602432 0.12121198 -0.20385309
v -0.29602432 0.118573025 -0.20649232
v 0.29602435 0.117634624 -0.20145835
v 0.29602435 0.12320709 -0.19588532
v -0.29602432 0.12320709 -0.20185778
v 0.29602435 0.117634624 -0.20145835
v -0.29602432 0.12320709 -0.20185778
v -0.29602432 0.12121198 -0.20385309
v 0.29602435 0.12320709 -0.19588532
v -0.29602432 0.12320709 -0.19010898
v -0.2960243 0.12320709 -0.20185778
v 0.29602435 0.12320709 -0.19588532
v 0.29602432 0.12320709 -0.18546268
v -0.29602432 0.12320709 -0.18637605
v 0.29602435 0.12320709 -0.19588532
v -0.29602432 0.12320709 -0.18637605
v -0.29602432 0.12320709 -0.19010898
v 0.29602435 0.12123871 -0.19588532
v -0.29602432 0.12123871 -0.19010898
v -0.2960243 0.12123871 -0.20185778
v 0.29602435 0.12123871 -0.19588532
v 0.29602432 0.12123871 -0.18546268
v -0.29602432 0.12123871 -0.18637605
v 0.29602435 0.12123871 -0.19588532
v -0.29602432 0.12123871 -0.18637605
v -0.29602432 0.12123871 -0.19010898
v 0.29602435 0.11257207 -0.20145835
v 0.29602435 0.12123871 -0.19588532
v -0.29602432 0.12123871 -0.20185778
v 0.29602435 0.11257207 -0.20145835
v -0.29602432 0.12123871 -0.20185778
v -0.29602432 0.118135795 -0.20385309
v 0.29602432 0.10110855 -0.20882991
v -0.29602432 0.11403152 -0.20649232
v -0.29602432 0.10110855 -0.21480235
v 0.29602432 0.10110855 -0.20882991
v 0.29602435 0.11257207 -0.20145835
v -0.29602432 0.118135795 -0.20385309
v 0.29602432 0.10110855 -0.20882991
v -0.29602432 0.118135795 -0.20385309
v -0.29602432 0.11403152 -0.20649232
v 0.29602432 0.09244372 -0.20325698
v 0.29602432 0.10110855 -0.20882991
v -0.29602432 0.10110855 -0.21480235
v 0.29602432 0.09244372 -0.20325698
v -0.29602432 0.10110855 -0.21480235
v -0.29602432 0.098007075 -0.2128076
v 0.29602435 0.08098221 -0.19588532
v -0.2960243 0.09390456 -0.21016899
v -0.2960243 0.08098221 -0.20185778
v 0.29602435 0.08098221 -0.19588532
v 0.29602432 0.09244372 -0.20325698
v -0.29602432 0.098007075 -0.2128076
v 0.29602435 0.08098221 -0.19588532
v -0.29602432 0.098007075 -0.2128076
v -0.29602432 0.09390456 -0.21016899
v 0.29602432 0.08098221 -0.18800339
v 0.29602435 0.08098221 -0.19588532
v -0.29602432 0.08098221 -0.20185778
v 0.29602432 0.08098221 -0.18800339
v -0.29602432 0.08098221 -0.20185778
v -0.29602432 0.08098221 -0.19903581
v 0.29602435 0.12123871 -0.19588532
v -0.29602432 0.12123871 -0.19010898
v -0.2960243 0.12123871 -0.20185778
v 0.29602435 0.12123871 -0.19588532
v 0.29602432 0.12123871 -0.18546268
v -0.29602432 0.12123871 -0.18637605
v 0.29602435 0.12123871 -0.19588532
v -0.29602432 0.12123871 -0.18637605
v -0.29602432 0.12123871 -0.19010898
v 0.29602435 0.11257207 -0.20145835
v 0.29602435 0.12123871 -0.19588532
v -0.29602432 0.12123871 -0.20185778
v 0.29602435 0.11257207 -0.20145835
v -0.29602432 0.12123871 -0.20185778
v -0.29602432 0.118135795 -0.20385309
v 0.29602432 0.10110855 -0.20882991
v -0.29602432 0.11403152 -0.20649232
v -0.29602432 0.10110855 -0.21480235
v 0.29602432 0.10110855 -0.20882991
v 0.29602435 0.11257207 -0.20145835
v -0.29602432 0.118135795 -0.20385309
v 0.29602432 0.10110855 -0.20882991
v -0.29602432 0.118135795 -0.20385309
v -0.29602432 0.11403152 -0.20649232
v 0.29602432 0.09244372 -0.20325698
v 0.29602432 0.10110855 -0.20882991
v -0.29602432 0.10110855 -0.21480235
v 0.29602432 0.09244372 -0.20325698
v -0.29602432 0.10110855 -0.21480235
v -0.29602432 0.098007075 -0.2128076
v 0.29602435 0.08098221 -0.19588532
v -0.2960243 0.09390456 -0.21016899
v -0.2960243 0.08098221 -0.20185778
v 0.29602435 0.08098221 -0.19588532
v 0.29602432 0.09244372 -0.20325698
v -0.29602432 0.098007075 -0.2128076
v 0.29602435 0.08098221 -0.19588532
v -0.29602432 0.098007075 -0.2128076
v -0.29602432 0.09390456 -0.21016899
v 0.29602432 0.08098221 -0.18800339
v 0.29602435 0.08098221 -0.19588532
v -0.29602432 0.08098221 -0.20185778
v 0.29602432 0.08098221 -0.18800339
v -0.29602432 0.08098221 -0.20185778
v -0.29602432 0.08098221 -0.19903581
vt -0.4873047 0.9458008
vt -0.48706055 0.85302734
vt -0.4873047 0.85302734
vt -0.4873047 0.9458008
vt -0.4868164 0.9458008
vt -0.4868164 0.85302734
vt -0.4873047 0.9458008
vt -0.4868164 0.85302734
vt -0.48706055 0.85302734
vt -0.48754883 0.9458008
vt -0.4873047 0.9458008
vt -0.4873047 0.85302734
vt -0.48754883 0.9458008
vt -0.4873047 0.85302734
vt -0.48754883 0.85302734
vt -0.4868164 0.9458008
vt -0.44726562 0.85302734
vt -0.4868164 0.85302734
vt -0.4868164 0.9458008
vt -0.4255371 0.9458008
vt -0.40649414 0.85302734
vt -0.4868164 0.9458008
vt -0.40649414 0.85302734
vt -0.44702148 0.85302734
vt -0.4868164 0.9458008
vt -0.44702148 0.85302734
vt -0.44726562 0.85302734
vt -0.4255371 0.9458008
vt -0.3696289 0.9458008
vt -0.3696289 0.85302734
vt -0.4255371 0.9458008
vt -0.3696289 0.85302734
vt -0.40649414 0.85302734
vt -0.48754883 0.91552734
vt -0.48754883 0.91552734
vt -0.3696289 0.91552734
vt -0.48754883 0.91552734
vt -0.3696289 0.91552734
vt -0.3696289 0.91552734
vt -0.48754883 0.91552734
vt -0.3696289 0.9169922
vt -0.3696289 0.91552734
vt -0.48754883 0.91552734
vt -0.48754883 0.9169922
vt -0.3696289 0.91748047
vt -0.48754883 0.91552734
vt -0.3696289 0.91748047
vt -0.3696289 0.9169922
vt -0.48754883 0.9169922
vt -0.48754883 0.91796875
vt -0.3696289 0.91796875
vt -0.48754883 0.9169922
vt -0.3696289 0.91796875
vt -0.3696289 0.91748047
vt -0.48754883 0.91796875
vt -0.3696289 0.92041016
vt -0.3696289 0.91796875
vt -0.48754883 0.91796875
vt -0.48754883 0.92041016
vt -0.3696289 0.9213867
vt -0.48754883 0.91796875
vt -0.3696289 0.9213867
vt -0.3696289 0.92041016
vt -0.48754883 0.92041016
vt -0.48754883 0.921875
vt -0.3696289 0.921875
vt -0.48754883 0.92041016
vt -0.3696289 0.921875
vt -0.3696289 0.9213867
vt -0.48754883 0.921875
vt -0.3696289 0.92333984
vt -0.3696289 0.921875
vt -0.48754883 0.921875
vt -0.48754883 0.92333984
vt -0.3696289 0.9238281
vt -0.48754883 0.921875
vt -0.3696289 0.9238281
vt -0.3696289 0.92333984
vt -0.48754883 0.92333984
vt -0.48754883 0.9243164
vt -0.3696289 0.9243164
vt -0.48754883 0.92333984
vt -0.3696289 0.9243164
vt -0.3696289 0.9238281
vt -0.48754883 0.9243164
vt -0.3696289 0.9243164
vt -0.3696289 0.9243164
vt -0.48754883 0.9243164
vt -0.48754883 0.9243164
vt -0.3696289 0.9243164
vt -0.48754883 0.9243164
vt -0.3696289 0.9243164
vt -0.3696289 0.9243164
vt -0.48754883 0.9238281
vt -0.3696289 0.9238281
vt -0.3696289 0.9238281
vt -0.48754883 0.9238281
vt -0.48754883 0.9238281
vt -0.3696289 0.9238281
vt -0.48754883 0.9238281
vt -0.3696289 0.9238281
vt -0.3696289 0.9238281
vt -0.48754883 0.9223633
vt -0.48754883 0.9238281
vt -0.3696289 0.9238281
vt -0.48754883 0.9223633
vt -0.3696289 0.9238281
vt -0.3696289 0.92333984
vt -0.48754883 0.9199219
vt -0.3696289 0.9223633
vt -0.3696289 0.9199219
vt -0.48754883 0.9199219
vt -0.48754883 0.9223633
vt -0.3696289 0.92333984
vt -0.48754883 0.9199219
vt -0.3696289 0.92333984
vt -0.3696289 0.9223633
vt -0.48754883 0.91796875
vt -0.48754883 0.9199219
vt -0.3696289 0.9199219
vt -0.48754883 0.91796875
vt -0.3696289 0.9199219
vt -0.3696289 0.9194336
vt -0.48754883 0.9160156
vt -0.3696289 0.91845703
vt -0.3696289 0.9160156
vt -0.48754883 0.9160156
vt -0.48754883 0.91796875
vt -0.3696289 0.9194336
vt -0.48754883 0.9160156
vt -0.3696289 0.9194336
vt -0.3696289 0.91845703
vt -0.48754883 0.9160156
vt -0.48754883 0.9160156
vt -0.3696289 0.9160156
vt -0.48754883 0.9160156
vt -0.3696289 0.9160156
vt -0.3696289 0.9160156
vt -0.48754883 0.9238281
vt -0.3696289 0.9238281
vt -0.3696289 0.9238281
vt -0.48754883 0.9238281
vt -0.48754883 0.9238281
vt -0.3696289 0.9238281
vt -0.48754883 0.9238281
vt -0.3696289 0.9238281
vt -0.3696289 0.9238281
vt -0.48754883 0.9223633
vt -0.48754883 0.9238281
vt -0.3696289 0.9238281
vt -0.48754883 0.9223633
vt -0.3696289 0.9238281
vt -0.3696289 0.92333984
vt -0.48754883 0.9199219
vt -0.3696289 0.9223633
vt -0.3696289 0.9199219
vt -0.48754883 0.9199219
vt -0.48754883 0.9223633
vt -0.3696289 0.92333984
vt -0.48754883 0.9199219
vt -0.3696289 0.92333984
vt -0.3696289 0.9223633
vt -0.48754883 0.91796875
vt -0.48754883 0.9199219
vt -0.3696289 0.9199219
vt -0.48754883 0.91796875
vt -0.3696289 0.9199219
vt -0.3696289 0.9194336
vt -0.48754883 0.9160156
vt -0.3696289 0.91845703
vt -0.3696289 0.9160156
vt -0.48754883 0.9160156
vt -0.48754883 0.91796875
vt -0.3696289 0.9194336
vt -0.48754883 0.9160156
vt -0.3696289 0.9194336
vt -0.3696289 0.91845703
vt -0.48754883 0.9160156
vt -0.48754883 0.9160156
vt -0.3696289 0.9160156
vt -0.48754883 0.9160156
vt -0.3696289 0.9160156
vt -0.3696289 0.9160156
vn -0.05343628 -5.9604645E-08 -0.99560547
vn -0.04135132 -5.9604645E-08 -0.9970703
vn -0.064575195 -5.9604645E-08 -0.9941406
vn -0.05343628 -5.9604645E-08 -0.99560547
vn -0.017456055 -5.9604645E-08 -1
vn -0.017456055 -5.9604645E-08 -1
vn -0.05343628 -5.9604645E-08 -0.99560547
vn -0.017456055 -5.9604645E-08 -1
vn -0.04135132 -5.9604645E-08 -0.9970703
vn -0.08660889 -5.9604645E-08 -0.9916992
vn -0.05343628 -5.9604645E-08 -0.99560547
vn -0.064575195 -5.9604645E-08 -0.9941406
vn -0.08660889 -5.9604645E-08 -0.9916992
vn -0.064575195 -5.9604645E-08 -0.9941406
vn -0.08660889 -5.9604645E-08 -0.9916992
vn -0.017456055 -5.9604645E-08 -1
vn -0.0057296753 -5.9604645E-08 -1
vn -0.017456055 -5.9604645E-08 -1
vn -0.017456055 -5.9604645E-08 -1
vn 0.00070524216 -5.9604645E-08 -1
vn 0.0063323975 -5.9604645E-08 -1
vn -0.017456055 -5.9604645E-08 -1
vn 0.0063323975 -5.9604645E-08 -1
vn -0.005645752 -5.9604645E-08 -1
vn -0.017456055 -5.9604645E-08 -1
vn -0.005645752 -5.9604645E-08 -1
vn -0.0057296753 -5.9604645E-08 -1
vn 0.00070524216 -5.9604645E-08 -1
vn 0.017227173 -5.9604645E-08 -1
vn 0.017227173 -5.9604645E-08 -1
vn 0.00070524216 -5.9604645E-08 -1
vn 0.017227173 -5.9604645E-08 -1
vn 0.0063323975 -5.9604645E-08 -1
vn 0.2722168 -0.83496094 -0.08721924
vn 0.27490234 -0.83496094 -0.34301758
vn 0.10089111 -0.89208984 -0.3684082
vn 0.2722168 -0.83496094 -0.08721924
vn 0.10089111 -0.89208984 -0.3684082
vn 0.099975586 -0.89208984 -0.27685547
vn 0.27490234 -0.83496094 -0.34301758
vn 0.10437012 -0.5444336 -0.7158203
vn 0.10089111 -0.89208984 -0.3684082
vn 0.27490234 -0.83496094 -0.34301758
vn 0.27783203 -0.52685547 -0.6513672
vn 0.10546875 -0.43432617 -0.8261719
vn 0.27490234 -0.83496094 -0.34301758
vn 0.10546875 -0.43432617 -0.8261719
vn 0.10437012 -0.5444336 -0.7158203
vn 0.27783203 -0.52685547 -0.6513672
vn 0.27978516 -0.34594727 -0.83203125
vn 0.10614014 -0.36938477 -0.8911133
vn 0.27783203 -0.52685547 -0.6513672
vn 0.10614014 -0.36938477 -0.8911133
vn 0.10546875 -0.43432617 -0.8261719
vn 0.27978516 -0.34594727 -0.83203125
vn 0.10614014 0.12188721 -0.8911133
vn 0.10614014 -0.36938477 -0.8911133
vn 0.27978516 -0.34594727 -0.83203125
vn 0.27978516 0.090026855 -0.83203125
vn 0.10614014 0.27783203 -0.8911133
vn 0.27978516 -0.34594727 -0.83203125
vn 0.10614014 0.27783203 -0.8911133
vn 0.10614014 0.12188721 -0.8911133
vn 0.27978516 0.090026855 -0.83203125
vn 0.27978516 0.34594727 -0.83203125
vn 0.10614014 0.36938477 -0.8911133
vn 0.27978516 0.090026855 -0.83203125
vn 0.10614014 0.36938477 -0.8911133
vn 0.10614014 0.27783203 -0.8911133
vn 0.27978516 0.34594727 -0.83203125
vn 0.10266113 0.7167969 -0.54345703
vn 0.10614014 0.36938477 -0.8911133
vn 0.27978516 0.34594727 -0.83203125
vn 0.27661133 0.6538086 -0.5239258
vn 0.101501465 0.82714844 -0.4333496
vn 0.27978516 0.34594727 -0.83203125
vn 0.101501465 0.82714844 -0.4333496
vn 0.10266113 0.7167969 -0.54345703
vn 0.27661133 0.6538086 -0.5239258
vn 0.27490234 0.83496094 -0.34301758
vn 0.10089111 0.89208984 -0.3684082
vn 0.27661133 0.6538086 -0.5239258
vn 0.10089111 0.89208984 -0.3684082
vn 0.101501465 0.82714844 -0.4333496
vn 0.27490234 0.83496094 -0.34301758
vn 0.095947266 0.89208984 0.1227417
vn 0.10089111 0.89208984 -0.3684082
vn 0.27490234 0.83496094 -0.34301758
vn 0.2705078 0.83496094 0.0927124
vn 0.09442139 0.89208984 0.2788086
vn 0.27490234 0.83496094 -0.34301758
vn 0.09442139 0.89208984 0.2788086
vn 0.095947266 0.89208984 0.1227417
vn 0.0048332214 0.8779297 -0.4790039
vn -0.0013713837 0.8779297 0.13586426
vn 0.0048332214 0.8779297 -0.4790039
vn 0.0048332214 0.8779297 -0.4790039
vn -0.0006709099 0.8779297 0.066467285
vn -0.0033416748 0.8779297 0.33129883
vn 0.0048332214 0.8779297 -0.4790039
vn -0.0033416748 0.8779297 0.33129883
vn -0.0013713837 0.8779297 0.13586426
vn 0.007095337 0.49975586 -0.703125
vn 0.0048332214 0.8779297 -0.4790039
vn 0.0048332214 0.8779297 -0.4790039
vn 0.007095337 0.49975586 -0.703125
vn 0.0048332214 0.8779297 -0.4790039
vn 0.0056419373 0.7426758 -0.5595703
vn 0.01008606 -1.1920929E-07 -1
vn 0.006713867 0.56347656 -0.66552734
vn 0.01008606 -1.1920929E-07 -1
vn 0.01008606 -1.1920929E-07 -1
vn 0.007095337 0.49975586 -0.703125
vn 0.0056419373 0.7426758 -0.5595703
vn 0.01008606 -1.1920929E-07 -1
vn 0.0056419373 0.7426758 -0.5595703
vn 0.006713867 0.56347656 -0.66552734
vn 0.007827759 -0.3779297 -0.7758789
vn 0.01008606 -1.1920929E-07 -1
vn 0.01008606 -1.1920929E-07 -1
vn 0.007827759 -0.3779297 -0.7758789
vn 0.01008606 -1.1920929E-07 -1
vn 0.009277344 -0.1352539 -0.9199219
vn 0.0048332214 -0.8779297 -0.4790039
vn 0.0082092285 -0.31420898 -0.81347656
vn 0.0048332214 -0.8779297 -0.4790039
vn 0.0048332214 -0.8779297 -0.4790039
vn 0.007827759 -0.3779297 -0.7758789
vn 0.009277344 -0.1352539 -0.9199219
vn 0.0048332214 -0.8779297 -0.4790039
vn 0.009277344 -0.1352539 -0.9199219
vn 0.0082092285 -0.31420898 -0.81347656
vn 0.0006709099 -0.8779297 -0.06652832
vn 0.0048332214 -0.8779297 -0.4790039
vn 0.0048332214 -0.8779297 -0.4790039
vn 0.0006709099 -0.8779297 -0.06652832
vn 0.0048332214 -0.8779297 -0.4790039
vn 0.0033435822 -0.8779297 -0.33129883
vn 0.0048332214 0.8779297 -0.4790039
vn -0.0013713837 0.8779297 0.13586426
vn 0.0048332214 0.8779297 -0.4790039
vn 0.0048332214 0.8779297 -0.4790039
vn -0.0006709099 0.8779297 0.066467285
vn -0.0033416748 0.8779297 0.33129883
vn 0.0048332214 0.8779297 -0.4790039
vn -0.0033416748 0.8779297 0.33129883
vn -0.0013713837 0.8779297 0.13586426
vn 0.007095337 0.49975586 -0.703125
vn 0.0048332214 0.8779297 -0.4790039
vn 0.0048332214 0.8779297 -0.4790039
vn 0.007095337 0.49975586 -0.703125
vn 0.0048332214 0.8779297 -0.4790039
vn 0.0056419373 0.7426758 -0.5595703
vn 0.01008606 -1.1920929E-07 -1
vn 0.006713867 0.56347656 -0.66552734
vn 0.01008606 -1.1920929E-07 -1
vn 0.01008606 -1.1920929E-07 -1
vn 0.007095337 0.49975586 -0.703125
vn 0.0056419373 0.7426758 -0.5595703
vn 0.01008606 -1.1920929E-07 -1
vn 0.0056419373 0.7426758 -0.5595703
vn 0.006713867 0.56347656 -0.66552734
vn 0.007827759 -0.3779297 -0.7758789
vn 0.01008606 -1.1920929E-07 -1
vn 0.01008606 -1.1920929E-07 -1
vn 0.007827759 -0.3779297 -0.7758789
vn 0.01008606 -1.1920929E-07 -1
vn 0.009277344 -0.1352539 -0.9199219
vn 0.0048332214 -0.8779297 -0.4790039
vn 0.0082092285 -0.31420898 -0.81347656
vn 0.0048332214 -0.8779297 -0.4790039
vn 0.0048332214 -0.8779297 -0.4790039
vn 0.007827759 -0.3779297 -0.7758789
vn 0.009277344 -0.1352539 -0.9199219
vn 0.0048332214 -0.8779297 -0.4790039
vn 0.009277344 -0.1352539 -0.9199219
vn 0.0082092285 -0.31420898 -0.81347656
vn 0.0006709099 -0.8779297 -0.06652832
vn 0.0048332214 -0.8779297 -0.4790039
vn 0.0048332214 -0.8779297 -0.4790039
vn 0.0006709099 -0.8779297 -0.06652832
vn 0.0048332214 -0.8779297 -0.4790039
vn 0.0033435822 -0.8779297 -0.33129883
g DecalMesh_Common_Decal_Sign_09__76_0
f 3/3/3 2/2/2 1/1/1
f 6/6/6 5/5/5 4/4/4
f 9/9/9 8/8/8 7/7/7
f 12/12/12 11/11/11 10/10/10
f 15/15/15 14/14/14 13/13/13
f 18/18/18 17/17/17 16/16/16
f 21/21/21 20/20/20 19/19/19
f 24/24/24 23/23/23 22/22/22
f 27/27/27 26/26/26 25/25/25
f 30/30/30 29/29/29 28/28/28
f 33/33/33 32/32/32 31/31/31
f 36/36/36 35/35/35 34/34/34
f 39/39/39 38/38/38 37/37/37
f 42/42/42 41/41/41 40/40/40
f 45/45/45 44/44/44 43/43/43
f 48/48/48 47/47/47 46/46/46
f 51/51/51 50/50/50 49/49/49
f 54/54/54 53/53/53 52/52/52
f 57/57/57 56/56/56 55/55/55
f 60/60/60 59/59/59 58/58/58
f 63/63/63 62/62/62 61/61/61
f 66/66/66 65/65/65 64/64/64
f 69/69/69 68/68/68 67/67/67
f 72/72/72 71/71/71 70/70/70
f 75/75/75 74/74/74 73/73/73
f 78/78/78 77/77/77 76/76/76
f 81/81/81 80/80/80 79/79/79
f 84/84/84 83/83/83 82/82/82
f 87/87/87 86/86/86 85/85/85
f 90/90/90 89/89/89 88/88/88
f 93/93/93 92/92/92 91/91/91
f 96/96/96 95/95/95 94/94/94
f 99/99/99 98/98/98 97/97/97
f 102/102/102 101/101/101 100/100/100
f 105/105/105 104/104/104 103/103/103
f 108/108/108 107/107/107 106/106/106
f 111/111/111 110/110/110 109/109/109
f 114/114/114 113/113/113 112/112/112
f 117/117/117 116/116/116 115/115/115
f 120/120/120 119/119/119 118/118/118
f 123/123/123 122/122/122 121/121/121
f 126/126/126 125/125/125 124/124/124
f 129/129/129 128/128/128 127/127/127
f 132/132/132 131/131/131 130/130/130
f 135/135/135 134/134/134 133/133/133
f 138/138/138 137/137/137 136/136/136
f 141/141/141 140/140/140 139/139/139
f 144/144/144 143/143/143 142/142/142
f 147/147/147 146/146/146 145/145/145
f 150/150/150 149/149/149 148/148/148
f 153/153/153 152/152/152 151/151/151
f 156/156/156 155/155/155 154/154/154
f 159/159/159 158/158/158 157/157/157
f 162/162/162 161/161/161 160/160/160
f 165/165/165 164/164/164 163/163/163
f 168/168/168 167/167/167 166/166/166
f 171/171/171 170/170/170 169/169/169
f 174/174/174 173/173/173 172/172/172
f 177/177/177 176/176/176 175/175/175
f 180/180/180 179/179/179 178/178/178
f 183/183/183 182/182/182 181/181/181
