g DecalMesh_MetroArea_Decal_Ground_15__5
v 0.055238653 1.0473487 -0.7328388
v -1.0385653 0.944995 -0.7328384
v 1.0288072 -1.0473487 -0.7328395
v 0.055238653 1.0473487 -0.7328388
v 1.0288072 -1.0473487 -0.7328395
v 1.0341705 -1.0473487 -0.7328395
v -1.0385653 0.944995 -0.7328384
v -1.0385653 -0.13221972 -0.7328385
v 1.0174376 -1.0473487 -0.7328395
v -1.0385653 0.944995 -0.7328384
v 1.0174376 -1.0473487 -0.7328395
v 1.0288072 -1.0473487 -0.7328395
v 0.055238653 1.0473487 -0.7328388
v -1.0385653 1.0473487 -0.7328384
v -1.0385653 0.944995 -0.7328384
v 1.0385653 -0.5454165 -0.73283947
v 0.08317023 1.0473487 -0.7328388
v 1.0342953 -1.0473487 -0.7328395
v 1.0385653 -0.5454165 -0.73283947
v 1.0342953 -1.0473487 -0.7328395
v 1.0385653 -1.0473487 -0.7328395
v 0.08317023 1.0473487 -0.7328388
v 0.055238653 1.0473487 -0.7328388
v 1.0341705 -1.0473487 -0.7328395
v 0.08317023 1.0473487 -0.7328388
v 1.0341705 -1.0473487 -0.7328395
v 1.0342953 -1.0473487 -0.7328395
v -1.0385654 -0.15496755 -0.7328385
v -1.0385653 -0.4088099 -0.73283845
v 0.8716932 -1.0473487 -0.7328394
v -1.0385654 -0.15496755 -0.7328385
v 0.8716932 -1.0473487 -0.7328394
v 0.91636825 -1.0473487 -0.7328394
v -1.0385653 -0.13221972 -0.7328385
v 0.9192313 -1.0473487 -0.7328394
v 1.0174377 -1.0473487 -0.7328395
v -1.0385653 -0.13221972 -0.7328385
v -1.0385653 -0.1549676 -0.7328385
v 0.91636825 -1.0473487 -0.7328394
v -1.0385653 -0.13221972 -0.7328385
v 0.91636825 -1.0473487 -0.7328394
v 0.9192313 -1.0473487 -0.7328394
v -1.0385653 -0.45664424 -0.7328385
v -1.0385653 -0.9903622 -0.7328391
v -0.475645 -1.0473487 -0.7328392
v -1.0385653 -0.45664424 -0.7328385
v -0.475645 -1.0473487 -0.7328392
v 0.61060214 -1.0473487 -0.73283935
v -1.0385653 -0.4088099 -0.73283845
v 0.63645536 -1.0473487 -0.73283935
v 0.87169313 -1.0473487 -0.7328394
v -1.0385653 -0.4088099 -0.73283845
v -1.0385653 -0.45664424 -0.7328385
v 0.61060214 -1.0473487 -0.73283935
v -1.0385653 -0.4088099 -0.73283845
v 0.61060214 -1.0473487 -0.73283935
v 0.6364554 -1.0473487 -0.73283935
v -1.0385653 -1.0134635 -0.7328391
v -1.0385653 -1.0473487 -0.7328391
v -0.7319265 -1.0473487 -0.73283917
v -1.0385653 -0.9903622 -0.7328391
v -0.57003033 -1.0473487 -0.7328392
v -0.47564507 -1.0473487 -0.7328392
v -1.0385653 -0.9903622 -0.7328391
v -1.0385653 -1.0134635 -0.7328391
v -0.73192644 -1.0473487 -0.73283917
v -1.0385653 -0.9903622 -0.7328391
v -0.73192644 -1.0473487 -0.73283917
v -0.57003033 -1.0473487 -0.7328392
v 1.0385653 -0.5454165 -0.73283947
v 0.2952244 1.0473487 -0.7328399
v 0.08317022 1.0473487 -0.7328388
v 1.0385653 -0.5454165 -0.73283947
v 1.0385653 -0.40201032 -0.7328398
v 0.31743696 1.0473487 -0.73284
v 1.0385653 -0.5454165 -0.73283947
v 0.31743696 1.0473487 -0.73284
v 0.2952244 1.0473487 -0.7328399
v 1.0385653 0.15093042 -0.7328398
v 1.0385653 1.0473487 -0.7328399
v 0.769476 1.0473487 -0.7328399
v 1.0385653 0.0186339 -0.7328399
v 0.740685 1.0473487 -0.73283994
v 0.69738144 1.0473487 -0.73284
v 1.0385653 0.0186339 -0.7328399
v 1.0385653 0.15093042 -0.7328398
v 0.769476 1.0473487 -0.7328399
v 1.0385653 0.0186339 -0.7328399
v 0.769476 1.0473487 -0.7328399
v 0.740685 1.0473487 -0.73283994
v 1.0385653 -0.40201032 -0.7328398
v 0.61308116 1.0473487 -0.73284
v 0.31743696 1.0473487 -0.73284
v 1.0385653 -0.40201032 -0.7328398
v 1.0385653 0.0186339 -0.7328399
v 0.69738144 1.0473487 -0.73284
v 1.0385653 -0.40201032 -0.7328398
v 0.69738144 1.0473487 -0.73284
v 0.61308116 1.0473487 -0.73284
vt 0.06738281 0.5517578
vt 0.14025879 0.5449219
vt 0.0024909973 0.41186523
vt 0.06738281 0.5517578
vt 0.0024909973 0.41186523
vt 0.0021343231 0.41186523
vt 0.14025879 0.5449219
vt 0.14025879 0.4729004
vt 0.003250122 0.41186523
vt 0.14025879 0.5449219
vt 0.003250122 0.41186523
vt 0.0024909973 0.41186523
vt 0.06738281 0.5517578
vt 0.14025879 0.5517578
vt 0.14025879 0.5449219
vt 0.0018415451 0.4453125
vt 0.06555176 0.5517578
vt 0.0021266937 0.41186523
vt 0.0018415451 0.4453125
vt 0.0021266937 0.41186523
vt 0.0018415451 0.41186523
vt 0.06555176 0.5517578
vt 0.06738281 0.5517578
vt 0.0021343231 0.41186523
vt 0.06555176 0.5517578
vt 0.0021343231 0.41186523
vt 0.0021266937 0.41186523
vt 0.14025879 0.47143555
vt 0.14025879 0.45458984
vt 0.012962341 0.41186523
vt 0.14025879 0.47143555
vt 0.012962341 0.41186523
vt 0.009986877 0.41186523
vt 0.14025879 0.4729004
vt 0.009796143 0.41186523
vt 0.003250122 0.41186523
vt 0.14025879 0.4729004
vt 0.14025879 0.47143555
vt 0.009986877 0.41186523
vt 0.14025879 0.4729004
vt 0.009986877 0.41186523
vt 0.009796143 0.41186523
vt 0.14025879 0.45141602
vt 0.14025879 0.41577148
vt 0.1027832 0.41186523
vt 0.14025879 0.45141602
vt 0.1027832 0.41186523
vt 0.03036499 0.41186523
vt 0.14025879 0.45458984
vt 0.028656006 0.41186523
vt 0.012962341 0.41186523
vt 0.14025879 0.45458984
vt 0.14025879 0.45141602
vt 0.03036499 0.41186523
vt 0.14025879 0.45458984
vt 0.03036499 0.41186523
vt 0.028656006 0.41186523
vt 0.14025879 0.41430664
vt 0.14025879 0.41186523
vt 0.11987305 0.41186523
vt 0.14025879 0.41577148
vt 0.109069824 0.41186523
vt 0.1027832 0.41186523
vt 0.14025879 0.41577148
vt 0.14025879 0.41430664
vt 0.11987305 0.41186523
vt 0.14025879 0.41577148
vt 0.11987305 0.41186523
vt 0.109069824 0.41186523
vt 0.0018415451 0.4453125
vt 0.0513916 0.5517578
vt 0.06555176 0.5517578
vt 0.0018415451 0.4453125
vt 0.0018415451 0.45507812
vt 0.049926758 0.5517578
vt 0.0018415451 0.4453125
vt 0.049926758 0.5517578
vt 0.0513916 0.5517578
vt 0.0018415451 0.49194336
vt 0.0018415451 0.5517578
vt 0.01977539 0.5517578
vt 0.0018415451 0.4831543
vt 0.021697998 0.5517578
vt 0.02458191 0.5517578
vt 0.0018415451 0.4831543
vt 0.0018415451 0.49194336
vt 0.01977539 0.5517578
vt 0.0018415451 0.4831543
vt 0.01977539 0.5517578
vt 0.021697998 0.5517578
vt 0.0018415451 0.45507812
vt 0.030212402 0.5517578
vt 0.049926758 0.5517578
vt 0.0018415451 0.45507812
vt 0.0018415451 0.4831543
vt 0.02458191 0.5517578
vt 0.0018415451 0.45507812
vt 0.02458191 0.5517578
vt 0.030212402 0.5517578
vn -2.4437904E-06 0.0006351471 -1
vn -1.66893E-06 0.00041007996 -1
vn -2.3841858E-07 1.9073486E-06 -1
vn -2.4437904E-06 0.0006351471 -1
vn -2.3841858E-07 1.9073486E-06 -1
vn -2.3841858E-07 2.8014183E-06 -1
vn -1.66893E-06 0.00041007996 -1
vn -2.3841858E-07 -4.172325E-07 -1
vn -2.3841858E-07 -0 -1
vn -1.66893E-06 0.00041007996 -1
vn -2.3841858E-07 -0 -1
vn -2.3841858E-07 1.9073486E-06 -1
vn -2.4437904E-06 0.0006351471 -1
vn -1.7881393E-06 0.0004491806 -1
vn -1.66893E-06 0.00041007996 -1
vn -9.536743E-07 0.00019490719 -1
vn -2.503395E-06 0.00063991547 -1
vn -2.3841858E-07 2.861023E-06 -1
vn -9.536743E-07 0.00019490719 -1
vn -2.3841858E-07 2.861023E-06 -1
vn -2.3841858E-07 3.5762787E-06 -1
vn -2.503395E-06 0.00063991547 -1
vn -2.4437904E-06 0.0006351471 -1
vn -2.3841858E-07 2.8014183E-06 -1
vn -2.503395E-06 0.00063991547 -1
vn -2.3841858E-07 2.8014183E-06 -1
vn -2.3841858E-07 2.861023E-06 -1
vn -2.3841858E-07 -3.5762787E-07 -1
vn -1.7881393E-07 4.172325E-07 -1
vn -2.3841858E-07 1.1920929E-07 -1
vn -2.3841858E-07 -3.5762787E-07 -1
vn -2.3841858E-07 1.1920929E-07 -1
vn -2.3841858E-07 1.1920929E-07 -1
vn -2.3841858E-07 -4.172325E-07 -1
vn -2.3841858E-07 5.9604645E-08 -1
vn -2.3841858E-07 -0 -1
vn -2.3841858E-07 -4.172325E-07 -1
vn -2.3841858E-07 -3.5762787E-07 -1
vn -2.3841858E-07 1.1920929E-07 -1
vn -2.3841858E-07 -4.172325E-07 -1
vn -2.3841858E-07 1.1920929E-07 -1
vn -2.3841858E-07 5.9604645E-08 -1
vn -1.7881393E-07 4.172325E-07 -1
vn -2.3841858E-07 1.1920929E-07 -1
vn -2.3841858E-07 5.9604645E-08 -1
vn -1.7881393E-07 4.172325E-07 -1
vn -2.3841858E-07 5.9604645E-08 -1
vn -2.3841858E-07 1.1920929E-07 -1
vn -1.7881393E-07 4.172325E-07 -1
vn -2.3841858E-07 1.1920929E-07 -1
vn -2.3841858E-07 1.1920929E-07 -1
vn -1.7881393E-07 4.172325E-07 -1
vn -1.7881393E-07 4.172325E-07 -1
vn -2.3841858E-07 1.1920929E-07 -1
vn -1.7881393E-07 4.172325E-07 -1
vn -2.3841858E-07 1.1920929E-07 -1
vn -2.3841858E-07 1.1920929E-07 -1
vn -2.3841858E-07 5.9604645E-08 -1
vn -1.7881393E-07 5.9604645E-08 -1
vn -2.3841858E-07 5.9604645E-08 -1
vn -2.3841858E-07 1.1920929E-07 -1
vn -2.3841858E-07 5.9604645E-08 -1
vn -2.3841858E-07 5.9604645E-08 -1
vn -2.3841858E-07 1.1920929E-07 -1
vn -2.3841858E-07 5.9604645E-08 -1
vn -2.3841858E-07 5.9604645E-08 -1
vn -2.3841858E-07 1.1920929E-07 -1
vn -2.3841858E-07 5.9604645E-08 -1
vn -2.3841858E-07 5.9604645E-08 -1
vn -9.536743E-07 0.00019490719 -1
vn -5.9604645E-07 6.043911E-05 -1
vn -2.503395E-06 0.00063991547 -1
vn -9.536743E-07 0.00019490719 -1
vn -2.9802322E-07 -5.9604645E-08 -1
vn -4.172325E-07 -2.3841858E-07 -1
vn -9.536743E-07 0.00019490719 -1
vn -4.172325E-07 -2.3841858E-07 -1
vn -5.9604645E-07 6.043911E-05 -1
vn -1.7881393E-07 0 -1
vn -1.7881393E-07 -0 -1
vn -1.1920929E-07 -0 -1
vn -1.7881393E-07 0 -1
vn -1.1920929E-07 -0 -1
vn -1.1920929E-07 -5.9604645E-08 -1
vn -1.7881393E-07 0 -1
vn -1.7881393E-07 0 -1
vn -1.1920929E-07 -0 -1
vn -1.7881393E-07 0 -1
vn -1.1920929E-07 -0 -1
vn -1.1920929E-07 -0 -1
vn -2.9802322E-07 -5.9604645E-08 -1
vn -1.7881393E-07 -5.9604645E-08 -1
vn -4.172325E-07 -2.3841858E-07 -1
vn -2.9802322E-07 -5.9604645E-08 -1
vn -1.7881393E-07 0 -1
vn -1.1920929E-07 -5.9604645E-08 -1
vn -2.9802322E-07 -5.9604645E-08 -1
vn -1.1920929E-07 -5.9604645E-08 -1
vn -1.7881393E-07 -5.9604645E-08 -1
g DecalMesh_MetroArea_Decal_Ground_15__5_0
f 3/3/3 2/2/2 1/1/1
f 6/6/6 5/5/5 4/4/4
f 9/9/9 8/8/8 7/7/7
f 12/12/12 11/11/11 10/10/10
f 15/15/15 14/14/14 13/13/13
f 18/18/18 17/17/17 16/16/16
f 21/21/21 20/20/20 19/19/19
f 24/24/24 23/23/23 22/22/22
f 27/27/27 26/26/26 25/25/25
f 30/30/30 29/29/29 28/28/28
f 33/33/33 32/32/32 31/31/31
f 36/36/36 35/35/35 34/34/34
f 39/39/39 38/38/38 37/37/37
f 42/42/42 41/41/41 40/40/40
f 45/45/45 44/44/44 43/43/43
f 48/48/48 47/47/47 46/46/46
f 51/51/51 50/50/50 49/49/49
f 54/54/54 53/53/53 52/52/52
f 57/57/57 56/56/56 55/55/55
f 60/60/60 59/59/59 58/58/58
f 63/63/63 62/62/62 61/61/61
f 66/66/66 65/65/65 64/64/64
f 69/69/69 68/68/68 67/67/67
f 72/72/72 71/71/71 70/70/70
f 75/75/75 74/74/74 73/73/73
f 78/78/78 77/77/77 76/76/76
f 81/81/81 80/80/80 79/79/79
f 84/84/84 83/83/83 82/82/82
f 87/87/87 86/86/86 85/85/85
f 90/90/90 89/89/89 88/88/88
f 93/93/93 92/92/92 91/91/91
f 96/96/96 95/95/95 94/94/94
f 99/99/99 98/98/98 97/97/97
