g DecalMesh_Common_Decal_Sign_16__11
v 0.19266376 0.23132913 -0.07212155
v -0.1926637 0.23132901 -0.072123855
v -0.13075034 -0.23132911 -0.07212348
v 0.19266376 0.23132913 -0.07212155
v -0.13075034 -0.23132911 -0.07212348
v 0.19266376 -0.23132919 -0.07212155
v -0.1926637 0.23132901 -0.072123855
v -0.1926637 -0.23132908 -0.072123855
v -0.13075034 -0.23132911 -0.07212348
vt -0.046691895 0.9121094
vt -0.008148193 0.9121094
vt -0.014335632 0.86572266
vt -0.046691895 0.9121094
vt -0.014335632 0.86572266
vt -0.046691895 0.86572266
vt -0.008148193 0.9121094
vt -0.008148193 0.86572266
vt -0.014335632 0.86572266
vn 5.90086E-06 0 -1
vn 5.90086E-06 0 -1
vn 5.90086E-06 0 -1
vn 5.90086E-06 0 -1
vn 5.90086E-06 0 -1
vn 5.90086E-06 0 -1
vn 5.90086E-06 0 -1
vn 5.90086E-06 0 -1
vn 5.90086E-06 0 -1
g DecalMesh_Common_Decal_Sign_16__11_0
f 3/3/3 2/2/2 1/1/1
f 6/6/6 5/5/5 4/4/4
f 9/9/9 8/8/8 7/7/7
