g DecalMesh_MetroArea_Decal_Ground_28__8
v 1 0.22526863 -0.84508145
v 0.71508414 0.26009518 -0.84508145
v -1 0.23264202 -0.84508145
v 1 0.22526863 -0.84508145
v -1 0.23264202 -0.84508145
v -1 0.22504434 -0.84508145
v 0.71508414 0.26009518 -0.84508145
v -0.99999994 0.26009518 -0.84508145
v -0.99999994 0.23264202 -0.84508145
v 1 0.22526863 -0.84508145
v 1 0.2279365 -0.84508145
v 0.7345721 0.26009518 -0.84508145
v 1 0.22526863 -0.84508145
v 0.7345721 0.26009518 -0.84508145
v 0.71508414 0.26009518 -0.84508145
v 1 0.22793649 -0.84508145
v 1 0.26009518 -0.84508145
v 0.73457205 0.26009518 -0.84508145
v 1 0.22526863 -0.84508145
v -1 0.22504434 -0.84508145
v -0.5739951 -0.26009524 -0.8450814
v 1 0.22526863 -0.84508145
v -0.5739951 -0.26009524 -0.8450814
v 1 -0.2600952 -0.8450814
v -1 0.22504434 -0.84508145
v -1 -0.21434747 -0.8450814
v -0.9502264 -0.26009518 -0.8450814
v -1 0.22504434 -0.84508145
v -0.9502264 -0.26009518 -0.8450814
v -0.5739951 -0.26009524 -0.8450814
v -1.0000001 -0.21824802 -0.8450814
v -1.0000001 -0.26009518 -0.8450814
v -0.954871 -0.26009518 -0.8450814
v -1 -0.21434747 -0.8450814
v -0.950768 -0.26009518 -0.8450814
v -0.9502264 -0.26009518 -0.8450814
v -1 -0.21434747 -0.8450814
v -1 -0.2182481 -0.8450814
v -0.95487094 -0.2600952 -0.8450814
v -1 -0.21434747 -0.8450814
v -0.95487094 -0.2600952 -0.8450814
v -0.950768 -0.26009518 -0.8450814
vt 0.65478516 0.39379883
vt 0.7026367 0.3984375
vt 0.99121094 0.3947754
vt 0.65478516 0.39379883
vt 0.99121094 0.3947754
vt 0.99121094 0.39379883
vt 0.7026367 0.3984375
vt 0.99121094 0.3984375
vt 0.99121094 0.3947754
vt 0.65478516 0.39379883
vt 0.65478516 0.39404297
vt 0.69921875 0.3984375
vt 0.65478516 0.39379883
vt 0.69921875 0.3984375
vt 0.7026367 0.3984375
vt 0.65478516 0.39404297
vt 0.65478516 0.3984375
vt 0.69921875 0.3984375
vt 0.65478516 0.39379883
vt 0.99121094 0.39379883
vt 0.9194336 0.33032227
vt 0.65478516 0.39379883
vt 0.9194336 0.33032227
vt 0.65478516 0.33032227
vt 0.99121094 0.39379883
vt 0.99121094 0.33642578
vt 0.98291016 0.33032227
vt 0.99121094 0.39379883
vt 0.98291016 0.33032227
vt 0.9194336 0.33032227
vt 0.99121094 0.33569336
vt 0.99121094 0.33032227
vt 0.98339844 0.33032227
vt 0.99121094 0.33642578
vt 0.98291016 0.33032227
vt 0.98291016 0.33032227
vt 0.99121094 0.33642578
vt 0.99121094 0.33569336
vt 0.98339844 0.33032227
vt 0.99121094 0.33642578
vt 0.98339844 0.33032227
vt 0.98291016 0.33032227
vn 1.1920929E-06 1.3291836E-05 -1
vn 1.013279E-06 1.180172E-05 -1
vn 0.000114023685 0.0011949539 -1
vn 1.1920929E-06 1.3291836E-05 -1
vn 0.000114023685 0.0011949539 -1
vn 0.00011765957 0.0012331009 -1
vn 1.013279E-06 1.180172E-05 -1
vn 0.00010085106 0.0010566711 -1
vn 0.000114023685 0.0011949539 -1
vn 1.1920929E-06 1.3291836E-05 -1
vn -1.1920929E-07 -1.1920929E-07 -1
vn -1.1920929E-07 -1.1920929E-07 -1
vn 1.1920929E-06 1.3291836E-05 -1
vn -1.1920929E-07 -1.1920929E-07 -1
vn 1.013279E-06 1.180172E-05 -1
vn -1.1920929E-07 -1.1920929E-07 -1
vn -1.1920929E-07 -1.1920929E-07 -1
vn -1.1920929E-07 -1.1920929E-07 -1
vn 1.1920929E-06 1.3291836E-05 -1
vn 0.00011765957 0.0012331009 -1
vn 9.286404E-05 0.00097322464 -1
vn 1.1920929E-06 1.3291836E-05 -1
vn 9.286404E-05 0.00097322464 -1
vn 1.1920929E-06 1.335144E-05 -1
vn 0.00011765957 0.0012331009 -1
vn 0.00011765957 0.0012331009 -1
vn 0.00011473894 0.0012025833 -1
vn 0.00011765957 0.0012331009 -1
vn 0.00011473894 0.0012025833 -1
vn 9.286404E-05 0.00097322464 -1
vn 0.00011742115 0.0012302399 -1
vn 0.00011473894 0.0012025833 -1
vn 0.00011473894 0.0012025833 -1
vn 0.00011765957 0.0012331009 -1
vn 0.00011473894 0.0012025833 -1
vn 0.00011473894 0.0012025833 -1
vn 0.00011765957 0.0012331009 -1
vn 0.00011742115 0.0012302399 -1
vn 0.00011473894 0.0012025833 -1
vn 0.00011765957 0.0012331009 -1
vn 0.00011473894 0.0012025833 -1
vn 0.00011473894 0.0012025833 -1
g DecalMesh_MetroArea_Decal_Ground_28__8_0
f 3/3/3 2/2/2 1/1/1
f 6/6/6 5/5/5 4/4/4
f 9/9/9 8/8/8 7/7/7
f 12/12/12 11/11/11 10/10/10
f 15/15/15 14/14/14 13/13/13
f 18/18/18 17/17/17 16/16/16
f 21/21/21 20/20/20 19/19/19
f 24/24/24 23/23/23 22/22/22
f 27/27/27 26/26/26 25/25/25
f 30/30/30 29/29/29 28/28/28
f 33/33/33 32/32/32 31/31/31
f 36/36/36 35/35/35 34/34/34
f 39/39/39 38/38/38 37/37/37
f 42/42/42 41/41/41 40/40/40
