g DecalMesh_Common_Decal_Crack_01__4
v 1.2318847 -3.4455013 -0.44190025
v 1.2318847 -3.3469965 -0.44190025
v -1.2318847 -3.4450114 -0.44190025
v 1.2318847 -3.4455013 -0.44190025
v -1.2318847 -3.4450114 -0.44190025
v -1.2318847 -3.4455013 -0.44190025
v 1.2318845 -3.3469965 -0.44190025
v -1.2318847 -3.148127 -0.44190025
v -1.2318847 -3.4450114 -0.44190025
v 1.2318845 -3.3469965 -0.44190025
v 1.2318845 -3.1471329 -0.44190025
v -1.2318847 -3.1471329 -0.44190025
v 1.2318845 -3.3469965 -0.44190025
v -1.2318847 -3.1471329 -0.44190025
v -1.2318847 -3.148127 -0.44190025
v 1.2318847 -3.1471329 -0.44190025
v 1.2318847 -0.86805564 -0.44190025
v -1.2318847 -3.1357958 -0.44190025
v 1.2318847 -3.1471329 -0.44190025
v -1.2318847 -3.1357958 -0.44190025
v -1.2318847 -3.1471329 -0.44190025
v 1.2318845 -0.8680558 -0.44190025
v -1.2318846 3.733129 -0.44190025
v -1.2318847 -3.1357958 -0.44190025
v 1.2318845 -0.8680558 -0.44190025
v 1.2318845 3.7397544 -0.44190025
v -1.2318847 3.7397544 -0.44190025
v 1.2318845 -0.8680558 -0.44190025
v -1.2318847 3.7397544 -0.44190025
v -1.2318847 3.7331293 -0.44190025
v -0.7878361 -3.5256214 -0.4409995
v -1.2041256 -3.7397547 -0.4409995
v -0.7878361 -3.7397547 -0.4409995
v -0.7878361 -3.5256214 -0.4409995
v -1.2318847 -3.5256214 -0.4409995
v -1.2318847 -3.7397547 -0.4409995
v -0.7878361 -3.5256214 -0.4409995
v -1.2318847 -3.7397547 -0.4409995
v -1.2041256 -3.7397547 -0.4409995
v 1.2318847 -3.5256214 -0.48101282
v 1.2318847 -3.4829118 -0.48101282
v -1.2318847 -3.5072408 -0.48101282
v 1.2318847 -3.5256214 -0.48101282
v -1.2318847 -3.5072408 -0.48101282
v -1.2318847 -3.5256214 -0.48101282
v 1.231885 -3.4829118 -0.48101282
v -1.2318847 -3.4682806 -0.48101282
v -1.2318847 -3.5072408 -0.48101282
v 1.231885 -3.4829118 -0.48101282
v 1.231885 -3.4572265 -0.48101282
v -1.2318847 -3.4572265 -0.48101282
v 1.231885 -3.4829118 -0.48101282
v -1.2318847 -3.4572265 -0.48101282
v -1.2318847 -3.4682806 -0.48101282
v 1.2318847 -3.4572265 -0.48101282
v 1.2318847 -3.4572268 -0.4560263
v -1.2318847 -3.4572265 -0.4702595
v 1.2318847 -3.4572265 -0.48101282
v -1.2318847 -3.4572265 -0.4702595
v -1.2318847 -3.4572265 -0.48101282
v 1.231885 -3.4572268 -0.4560263
v -1.2318847 -3.4572268 -0.44746652
v -1.2318847 -3.4572265 -0.4702595
v 1.231885 -3.4572268 -0.4560263
v 1.231885 -3.4572268 -0.4409995
v -1.2318847 -3.4572268 -0.4409995
v 1.231885 -3.4572268 -0.4560263
v -1.2318847 -3.4572268 -0.4409995
v -1.2318847 -3.4572268 -0.44746652
v 1.2318847 -3.6413012 -0.4043932
v -0.68343925 -3.6413012 -0.4043932
v -0.4661806 -3.7397547 -0.4043932
v 1.2318847 -3.6413012 -0.4043932
v -0.4661806 -3.7397547 -0.4043932
v 1.2318847 -3.7397547 -0.4043932
v -0.68343925 -3.6413012 -0.4043932
v -0.68343925 -3.7397547 -0.4043932
v -0.48588598 -3.7397547 -0.4043932
v -0.68343925 -3.6413012 -0.4043932
v -0.48588598 -3.7397547 -0.4043932
v -0.46618056 -3.7397547 -0.4043932
v -0.675581 -3.7170134 -0.0023536682
v -0.675581 -3.7397547 -0.0022625104
v -0.57400614 -3.7397547 -0.0022625104
v -0.675581 -3.7170134 -0.0023536682
v -0.57400614 -3.7397547 -0.0022625104
v -0.56457186 -3.7397547 -0.0022625104
v 1.2318847 -3.7170134 -0.0023536682
v -0.675581 -3.7170134 -0.0023536682
v -0.5645718 -3.7397547 -0.0022625104
v 1.2318847 -3.7170134 -0.0023536682
v -0.5645718 -3.7397547 -0.0022625104
v 1.2318847 -3.7397547 -0.0022625104
v -0.675581 -3.7170134 -0.0023536682
v -0.7387445 -3.7397547 -0.0022625104
v -0.675581 -3.7397547 -0.0022625104
v -0.675581 -3.7170134 -0.0023536682
v -1.2318847 -3.7170134 -0.0023536682
v -1.2318847 -3.7397547 -0.0022625104
v -0.675581 -3.7170134 -0.0023536682
v -1.2318847 -3.7397547 -0.0022625104
v -0.7387445 -3.7397547 -0.0022625104
v 0.70194435 -3.6461246 -0.39529538
v 0.70194435 -3.7397547 -0.3952954
v 0.70194435 -3.7397547 -0.3970186
v 0.70194435 -3.6461246 -0.41277528
v 0.70194435 -3.6461246 -0.39529538
v 0.70194435 -3.7397547 -0.3970186
v 0.70194435 -3.6461246 -0.41277528
v 0.70194435 -3.7397547 -0.3970186
v 0.70194435 -3.7397547 -0.4127753
v 0.73801994 -3.6461246 -0.41277528
v 0.70194435 -3.6461246 -0.41277528
v 0.7055008 -3.7397547 -0.4127753
v 0.73801994 -3.6461246 -0.41277528
v 0.7055008 -3.7397547 -0.4127753
v 0.73801994 -3.7397547 -0.4127753
v 0.70194435 -3.6461246 -0.41277528
v 0.70194435 -3.7397547 -0.4127753
v 0.7055008 -3.7397547 -0.4127753
v 0.73801994 -3.6461246 -0.39529538
v 0.73801994 -3.7397547 -0.3970186
v 0.73801994 -3.7397547 -0.3952954
v 0.73801994 -3.6461246 -0.39529538
v 0.73801994 -3.6461246 -0.41277528
v 0.73801994 -3.7397547 -0.4127753
v 0.73801994 -3.6461246 -0.39529538
v 0.73801994 -3.7397547 -0.4127753
v 0.73801994 -3.7397547 -0.3970186
v 0.00450325 -3.6461246 -0.39529538
v 0.00450325 -3.7397547 -0.3952954
v 0.00450325 -3.7397547 -0.3970186
v 0.00450325 -3.6461246 -0.41277528
v 0.00450325 -3.6461246 -0.39529538
v 0.00450325 -3.7397547 -0.3970186
v 0.00450325 -3.6461246 -0.41277528
v 0.00450325 -3.7397547 -0.3970186
v 0.00450325 -3.7397547 -0.4127753
v 0.04058075 -3.6461246 -0.41277528
v 0.00450325 -3.6461246 -0.41277528
v 0.00805986 -3.7397547 -0.4127753
v 0.04058075 -3.6461246 -0.41277528
v 0.00805986 -3.7397547 -0.4127753
v 0.04058075 -3.7397547 -0.4127753
v 0.00450325 -3.6461246 -0.41277528
v 0.00450325 -3.7397547 -0.4127753
v 0.008059861 -3.7397547 -0.4127753
v 0.04058075 -3.6461246 -0.39529538
v 0.04058075 -3.7397547 -0.3970186
v 0.04058075 -3.7397547 -0.3952954
v 0.04058075 -3.6461246 -0.39529538
v 0.04058075 -3.6461246 -0.41277528
v 0.04058075 -3.7397547 -0.4127753
v 0.04058075 -3.6461246 -0.39529538
v 0.04058075 -3.7397547 -0.4127753
v 0.04058075 -3.7397547 -0.3970186
v -0.72449684 -3.595983 -0.42368937
v -0.6811466 -3.6461244 -0.42368937
v 1.2318847 -3.6012542 -0.42368937
v -0.72449684 -3.595983 -0.42368937
v 1.2318847 -3.6012542 -0.42368937
v 1.2318847 -3.595983 -0.42368937
v -0.6811466 -3.6461244 -0.42368937
v 1.2318847 -3.6461244 -0.42368937
v 1.2318847 -3.6012542 -0.42368937
v -0.6811466 -3.6461244 -0.42368937
v -0.72449684 -3.595983 -0.42368937
v -0.72449684 -3.7397547 -0.42368937
v -0.6811466 -3.6461244 -0.42368937
v -0.72449684 -3.7397547 -0.42368937
v -0.68522394 -3.7397547 -0.42368937
v -0.6811466 -3.6461244 -0.42368937
v -0.68522394 -3.7397547 -0.42368937
v -0.6811466 -3.7397547 -0.42368937
v -0.6811466 -3.6461244 -0.37888384
v -0.6811466 -3.7397547 -0.3833237
v -0.6811466 -3.7397547 -0.37888384
v -0.6811466 -3.6461244 -0.37888384
v -0.6811466 -3.6461244 -0.42368937
v -0.6811466 -3.7397547 -0.42368937
v -0.6811466 -3.6461244 -0.37888384
v -0.6811466 -3.7397547 -0.42368937
v -0.6811466 -3.7397547 -0.3833237
v -0.72449684 -3.595983 -0.4409995
v -0.7326601 -3.7397547 -0.4409995
v -0.72449684 -3.7397547 -0.4409995
v -0.72449684 -3.595983 -0.4409995
v -0.7878361 -3.5256214 -0.4409995
v -0.7878361 -3.7397547 -0.4409995
v -0.72449684 -3.595983 -0.4409995
v -0.7878361 -3.7397547 -0.4409995
v -0.7326601 -3.7397547 -0.4409995
v -0.7878361 -3.5256214 -0.4409995
v -0.72449684 -3.595983 -0.4409995
v 1.2318847 -3.595983 -0.4409995
v -0.7878361 -3.5256214 -0.4409995
v 1.2318847 -3.595983 -0.4409995
v 1.2318847 -3.5889378 -0.4409995
v -0.7878361 -3.5256214 -0.4409995
v 1.2318847 -3.5889378 -0.4409995
v 1.2318847 -3.5256214 -0.4409995
v -0.72449684 -3.595983 -0.4409995
v -0.72449684 -3.7397547 -0.4409995
v -0.72449684 -3.7397547 -0.436456
v -0.72449684 -3.595983 -0.40795517
v -0.72449684 -3.595983 -0.4409995
v -0.72449684 -3.7397547 -0.436456
v -0.72449684 -3.595983 -0.40795517
v -0.72449684 -3.7397547 -0.436456
v -0.72449684 -3.7397547 -0.40795517
v -0.72449684 -3.595983 -0.4409995
v -0.72449684 -3.595983 -0.40795517
v 1.2318847 -3.595983 -0.4375947
v -0.72449684 -3.595983 -0.4409995
v 1.2318847 -3.595983 -0.4375947
v 1.2318847 -3.595983 -0.4409995
v -0.72449684 -3.595983 -0.40795517
v 1.2318847 -3.595983 -0.40795517
v 1.2318847 -3.595983 -0.4375947
v 1.2318847 -3.6360781 -0.2670051
v -1.2318848 -3.6040635 -0.36591792
v -1.2318846 -3.7096481 -0.03970177
v 1.2318847 -3.6360781 -0.2670051
v 1.2318847 -3.5959835 -0.39088202
v -1.2318847 -3.5959835 -0.39088202
v 1.2318847 -3.6360781 -0.2670051
v -1.2318847 -3.5959835 -0.39088202
v -1.2318847 -3.6040635 -0.36591792
v 1.2318846 -3.7236767 0.0036408901
v 1.2318848 -3.6360781 -0.26700512
v -1.2318846 -3.7096481 -0.03970177
v 1.2318846 -3.7236767 0.0036408901
v -1.2318846 -3.7096481 -0.03970177
v -1.2318846 -3.7236767 0.0036408901
vt 0.6298828 0.10070801
vt 0.6298828 0.112976074
vt 0.9379883 0.10076904
vt 0.6298828 0.10070801
vt 0.9379883 0.10076904
vt 0.9379883 0.10070801
vt 0.6298828 0.112976074
vt 0.9379883 0.13781738
vt 0.9379883 0.10076904
vt 0.6298828 0.112976074
vt 0.6298828 0.13793945
vt 0.9379883 0.13793945
vt 0.6298828 0.112976074
vt 0.9379883 0.13793945
vt 0.9379883 0.13781738
vt 0.6298828 0.13793945
vt 0.6298828 0.42285156
vt 0.9379883 0.1394043
vt 0.6298828 0.13793945
vt 0.9379883 0.1394043
vt 0.9379883 0.13793945
vt 0.6298828 0.42285156
vt 0.9379883 0.9980469
vt 0.9379883 0.1394043
vt 0.6298828 0.42285156
vt 0.6298828 0.99902344
vt 0.9379883 0.99902344
vt 0.6298828 0.42285156
vt 0.9379883 0.99902344
vt 0.9379883 0.9980469
vt 0.8823242 0.09069824
vt 0.9345703 0.06390381
vt 0.8823242 0.06390381
vt 0.8823242 0.09069824
vt 0.9379883 0.09069824
vt 0.9379883 0.06390381
vt 0.8823242 0.09069824
vt 0.9379883 0.06390381
vt 0.9345703 0.06390381
vt 0.6298828 0.09069824
vt 0.6298828 0.0960083
vt 0.9379883 0.09295654
vt 0.6298828 0.09069824
vt 0.9379883 0.09295654
vt 0.9379883 0.09069824
vt 0.6298828 0.0960083
vt 0.9379883 0.097839355
vt 0.9379883 0.09295654
vt 0.6298828 0.0960083
vt 0.6298828 0.099243164
vt 0.9379883 0.099243164
vt 0.6298828 0.0960083
vt 0.9379883 0.099243164
vt 0.9379883 0.097839355
vt 0.6298828 0.099243164
vt 0.6298828 0.099243164
vt 0.9379883 0.099243164
vt 0.6298828 0.099243164
vt 0.9379883 0.099243164
vt 0.9379883 0.099243164
vt 0.6298828 0.099243164
vt 0.9379883 0.099243164
vt 0.9379883 0.099243164
vt 0.6298828 0.099243164
vt 0.6298828 0.099243164
vt 0.9379883 0.099243164
vt 0.6298828 0.099243164
vt 0.9379883 0.099243164
vt 0.9379883 0.099243164
vt 0.6298828 0.07623291
vt 0.8696289 0.07623291
vt 0.84228516 0.06390381
vt 0.6298828 0.07623291
vt 0.84228516 0.06390381
vt 0.6298828 0.06390381
vt 0.8696289 0.07623291
vt 0.8696289 0.06390381
vt 0.84472656 0.06390381
vt 0.8696289 0.07623291
vt 0.84472656 0.06390381
vt 0.84228516 0.06390381
vt 0.86865234 0.06677246
vt 0.86865234 0.06390381
vt 0.85595703 0.06390381
vt 0.86865234 0.06677246
vt 0.85595703 0.06390381
vt 0.8544922 0.06390381
vt 0.6298828 0.06677246
vt 0.86865234 0.06677246
vt 0.8544922 0.06390381
vt 0.6298828 0.06677246
vt 0.8544922 0.06390381
vt 0.6298828 0.06390381
vt 0.86865234 0.06677246
vt 0.87646484 0.06390381
vt 0.86865234 0.06390381
vt 0.86865234 0.06677246
vt 0.9379883 0.06677246
vt 0.9379883 0.06390381
vt 0.86865234 0.06677246
vt 0.9379883 0.06390381
vt 0.87646484 0.06390381
vt 0.69628906 0.07562256
vt 0.69628906 0.06390381
vt 0.69628906 0.06390381
vt 0.69628906 0.07562256
vt 0.69628906 0.07562256
vt 0.69628906 0.06390381
vt 0.69628906 0.07562256
vt 0.69628906 0.06390381
vt 0.69628906 0.06390381
vt 0.69189453 0.07562256
vt 0.69628906 0.07562256
vt 0.6958008 0.06390381
vt 0.69189453 0.07562256
vt 0.6958008 0.06390381
vt 0.69189453 0.06390381
vt 0.69628906 0.07562256
vt 0.69628906 0.06390381
vt 0.6958008 0.06390381
vt 0.69189453 0.07562256
vt 0.69189453 0.06390381
vt 0.69189453 0.06390381
vt 0.69189453 0.07562256
vt 0.69189453 0.07562256
vt 0.69189453 0.06390381
vt 0.69189453 0.07562256
vt 0.69189453 0.06390381
vt 0.69189453 0.06390381
vt 0.7832031 0.07562256
vt 0.7832031 0.06390381
vt 0.7832031 0.06390381
vt 0.7832031 0.07562256
vt 0.7832031 0.07562256
vt 0.7832031 0.06390381
vt 0.7832031 0.07562256
vt 0.7832031 0.06390381
vt 0.7832031 0.06390381
vt 0.7788086 0.07562256
vt 0.7832031 0.07562256
vt 0.7832031 0.06390381
vt 0.7788086 0.07562256
vt 0.7832031 0.06390381
vt 0.7788086 0.06390381
vt 0.7832031 0.07562256
vt 0.7832031 0.06390381
vt 0.7832031 0.06390381
vt 0.7788086 0.07562256
vt 0.7788086 0.06390381
vt 0.7788086 0.06390381
vt 0.7788086 0.07562256
vt 0.7788086 0.07562256
vt 0.7788086 0.06390381
vt 0.7788086 0.07562256
vt 0.7788086 0.06390381
vt 0.7788086 0.06390381
vt 0.8745117 0.081848145
vt 0.8691406 0.07562256
vt 0.6298828 0.08123779
vt 0.8745117 0.081848145
vt 0.6298828 0.08123779
vt 0.6298828 0.081848145
vt 0.8691406 0.07562256
vt 0.6298828 0.07562256
vt 0.6298828 0.08123779
vt 0.8691406 0.07562256
vt 0.8745117 0.081848145
vt 0.8745117 0.06390381
vt 0.8691406 0.07562256
vt 0.8745117 0.06390381
vt 0.8696289 0.06390381
vt 0.8691406 0.07562256
vt 0.8696289 0.06390381
vt 0.8691406 0.06390381
vt 0.8691406 0.07562256
vt 0.8691406 0.06390381
vt 0.8691406 0.06390381
vt 0.8691406 0.07562256
vt 0.8691406 0.07562256
vt 0.8691406 0.06390381
vt 0.8691406 0.07562256
vt 0.8691406 0.06390381
vt 0.8691406 0.06390381
vt 0.8745117 0.081848145
vt 0.8754883 0.06390381
vt 0.8745117 0.06390381
vt 0.8745117 0.081848145
vt 0.8823242 0.09069824
vt 0.8823242 0.06390381
vt 0.8745117 0.081848145
vt 0.8823242 0.06390381
vt 0.8754883 0.06390381
vt 0.8823242 0.09069824
vt 0.8745117 0.081848145
vt 0.6298828 0.081848145
vt 0.8823242 0.09069824
vt 0.6298828 0.081848145
vt 0.6298828 0.08276367
vt 0.8823242 0.09069824
vt 0.6298828 0.08276367
vt 0.6298828 0.09069824
vt 0.8745117 0.081848145
vt 0.8745117 0.06390381
vt 0.8745117 0.06390381
vt 0.8745117 0.081848145
vt 0.8745117 0.081848145
vt 0.8745117 0.06390381
vt 0.8745117 0.081848145
vt 0.8745117 0.06390381
vt 0.8745117 0.06390381
vt 0.8745117 0.081848145
vt 0.8745117 0.081848145
vt 0.6298828 0.081848145
vt 0.8745117 0.081848145
vt 0.6298828 0.081848145
vt 0.6298828 0.081848145
vt 0.8745117 0.081848145
vt 0.6298828 0.081848145
vt 0.6298828 0.081848145
vt 0.6298828 0.07684326
vt 0.9379883 0.08087158
vt 0.9379883 0.06768799
vt 0.6298828 0.07684326
vt 0.6298828 0.081848145
vt 0.9379883 0.081848145
vt 0.6298828 0.07684326
vt 0.9379883 0.081848145
vt 0.9379883 0.08087158
vt 0.6298828 0.06591797
vt 0.6298828 0.07684326
vt 0.9379883 0.06768799
vt 0.6298828 0.06591797
vt 0.9379883 0.06768799
vt 0.9379883 0.06591797
vn -0 0 -1
vn -0 0 -1
vn -0 0 -1
vn -0 0 -1
vn -0 0 -1
vn -0 0 -1
vn -0 0 -1
vn -0 0 -1
vn -0 0 -1
vn -0 0 -1
vn -0 0 -1
vn -0 0 -1
vn -0 0 -1
vn -0 0 -1
vn -0 0 -1
vn -0 0 -1
vn -0 0 -1
vn -0 0 -1
vn -0 0 -1
vn -0 0 -1
vn -0 0 -1
vn -0 0 -1
vn -0 0 -1
vn -0 0 -1
vn -0 0 -1
vn -0 0 -1
vn -0 0 -1
vn -0 0 -1
vn -0 0 -1
vn -0 0 -1
vn -0 -1.1920929E-07 -1
vn -0 -1.1920929E-07 -1
vn -0 -1.1920929E-07 -1
vn -0 -1.1920929E-07 -1
vn -0 -1.1920929E-07 -1
vn -0 -1.1920929E-07 -1
vn -0 -1.1920929E-07 -1
vn -0 -1.1920929E-07 -1
vn -0 -1.1920929E-07 -1
vn -0 -1.1920929E-07 -1
vn -0 -1.1920929E-07 -1
vn -0 -1.1920929E-07 -1
vn -0 -1.1920929E-07 -1
vn -0 -1.1920929E-07 -1
vn -0 -1.1920929E-07 -1
vn -0 -1.1920929E-07 -1
vn -0 -1.1920929E-07 -1
vn -0 -1.1920929E-07 -1
vn -0 -1.1920929E-07 -1
vn -0 -1.1920929E-07 -1
vn -0 -1.1920929E-07 -1
vn -0 -1.1920929E-07 -1
vn -0 -1.1920929E-07 -1
vn -0 -1.1920929E-07 -1
vn -0 1 -1.1920929E-07
vn -0 1 -1.1920929E-07
vn -0 1 -1.1920929E-07
vn -0 1 -1.1920929E-07
vn -0 1 -1.1920929E-07
vn -0 1 -1.1920929E-07
vn -0 1 -1.1920929E-07
vn -0 1 -1.1920929E-07
vn -0 1 -1.1920929E-07
vn -0 1 -1.1920929E-07
vn -0 1 -1.1920929E-07
vn -0 1 -1.1920929E-07
vn -0 1 -1.1920929E-07
vn -0 1 -1.1920929E-07
vn -0 1 -1.1920929E-07
vn -0 -1.1920929E-07 -1
vn -0 -1.1920929E-07 -1
vn -0 -1.1920929E-07 -1
vn -0 -1.1920929E-07 -1
vn -0 -1.1920929E-07 -1
vn -0 -1.1920929E-07 -1
vn -0 -1.1920929E-07 -1
vn -0 -1.1920929E-07 -1
vn -0 -1.1920929E-07 -1
vn -0 -1.1920929E-07 -1
vn -0 -1.1920929E-07 -1
vn -0 -1.1920929E-07 -1
vn -0 -0.0045776367 -1
vn -0 -0.004333496 -1
vn -0 -0.004333496 -1
vn -0 -0.0045776367 -1
vn -0 -0.004333496 -1
vn -0 -0.004333496 -1
vn -0 -0.0045776367 -1
vn -0 -0.0045776367 -1
vn -0 -0.004333496 -1
vn -0 -0.0045776367 -1
vn -0 -0.004333496 -1
vn -0 -0.004333496 -1
vn -0 -0.0045776367 -1
vn -0 -0.004333496 -1
vn -0 -0.004333496 -1
vn -0 -0.0045776367 -1
vn -0 -0.0045776367 -1
vn -0 -0.004333496 -1
vn -0 -0.0045776367 -1
vn -0 -0.004333496 -1
vn -0 -0.004333496 -1
vn -1 0 0
vn -1 0 0
vn -1 0 0
vn -1 0 0
vn -1 0 0
vn -1 0 0
vn -1 0 0
vn -1 0 0
vn -1 0 0
vn -0 -1.1920929E-07 -1
vn -0 -1.1920929E-07 -1
vn -0 -1.1920929E-07 -1
vn -0 -1.1920929E-07 -1
vn -0 -1.1920929E-07 -1
vn -0 -1.1920929E-07 -1
vn -0 -1.1920929E-07 -1
vn -0 -1.1920929E-07 -1
vn -0 -1.1920929E-07 -1
vn 1 0 0
vn 1 0 0
vn 1 0 0
vn 1 0 0
vn 1 0 0
vn 1 0 0
vn 1 0 0
vn 1 0 0
vn 1 0 0
vn -1 0 0
vn -1 0 0
vn -1 0 0
vn -1 0 0
vn -1 0 0
vn -1 0 0
vn -1 0 0
vn -1 0 0
vn -1 0 0
vn -0 -1.1920929E-07 -1
vn -0 -1.1920929E-07 -1
vn -0 -1.1920929E-07 -1
vn -0 -1.1920929E-07 -1
vn -0 -1.1920929E-07 -1
vn -0 -1.1920929E-07 -1
vn -0 -1.1920929E-07 -1
vn -0 -1.1920929E-07 -1
vn -0 -1.1920929E-07 -1
vn 1 0 0
vn 1 0 0
vn 1 0 0
vn 1 0 0
vn 1 0 0
vn 1 0 0
vn 1 0 0
vn 1 0 0
vn 1 0 0
vn -0 0.0061035156 -1
vn -0 0.0061035156 -1
vn -0 0.0061035156 -1
vn -0 0.0061035156 -1
vn -0 0.0061035156 -1
vn -0 0.0061035156 -1
vn -0 0.0061035156 -1
vn -0 0.0061035156 -1
vn -0 0.0061035156 -1
vn -0.006866455 -1.1920929E-07 -1
vn -0.006866455 -1.1920929E-07 -1
vn -0.006866455 -1.1920929E-07 -1
vn -0.006866455 -1.1920929E-07 -1
vn -0.006866455 -1.1920929E-07 -1
vn -0.006866455 -1.1920929E-07 -1
vn -0.006866455 -1.1920929E-07 -1
vn -0.006866455 -1.1920929E-07 -1
vn -0.006866455 -1.1920929E-07 -1
vn 1 0 0
vn 1 0 0
vn 1 0 0
vn 1 0 0
vn 1 0 0
vn 1 0 0
vn 1 0 0
vn 1 0 0
vn 1 0 0
vn -0 -1.1920929E-07 -1
vn -0 -1.1920929E-07 -1
vn -0 -1.1920929E-07 -1
vn -0 -1.1920929E-07 -1
vn -0 -1.1920929E-07 -1
vn -0 -1.1920929E-07 -1
vn -0 -1.1920929E-07 -1
vn -0 -1.1920929E-07 -1
vn -0 -1.1920929E-07 -1
vn -0 -0.0030517578 -1
vn -0 -0.0030517578 -1
vn -0 -0.0030517578 -1
vn -0 -0.0030517578 -1
vn -0 -0.0030517578 -1
vn -0 -0.0030517578 -1
vn -0 -0.0030517578 -1
vn -0 -0.0030517578 -1
vn -0 -0.0030517578 -1
vn 1 0 0
vn 1 0 0
vn 1 0 0
vn 1 0 0
vn 1 0 0
vn 1 0 0
vn 1 0 0
vn 1 0 0
vn 1 0 0
vn -0 -1 -6.556511E-07
vn -0 -1 1.1920929E-07
vn -0 -1 -5.9604645E-07
vn -0 -1 -6.556511E-07
vn -0 -1 -5.9604645E-07
vn -0 -1 -6.556511E-07
vn -0 -1 1.1920929E-07
vn -0 -1 1.1920929E-07
vn -0 -1 -5.9604645E-07
vn -0 -0.95166016 -0.30664062
vn -0 -0.95166016 -0.30639648
vn -0 -0.95166016 -0.3071289
vn -0 -0.95166016 -0.30664062
vn -0 -0.95166016 -0.30639648
vn -0 -0.95166016 -0.30639648
vn -0 -0.95166016 -0.30664062
vn -0 -0.95166016 -0.30639648
vn -0 -0.95166016 -0.30639648
vn -0 -0.95166016 -0.30737305
vn -0 -0.95166016 -0.30664062
vn -0 -0.95166016 -0.3071289
vn -0 -0.95166016 -0.30737305
vn -0 -0.95166016 -0.3071289
vn -0 -0.95166016 -0.30737305
g DecalMesh_Common_Decal_Crack_01__4_0
f 3/3/3 2/2/2 1/1/1
f 6/6/6 5/5/5 4/4/4
f 9/9/9 8/8/8 7/7/7
f 12/12/12 11/11/11 10/10/10
f 15/15/15 14/14/14 13/13/13
f 18/18/18 17/17/17 16/16/16
f 21/21/21 20/20/20 19/19/19
f 24/24/24 23/23/23 22/22/22
f 27/27/27 26/26/26 25/25/25
f 30/30/30 29/29/29 28/28/28
f 33/33/33 32/32/32 31/31/31
f 36/36/36 35/35/35 34/34/34
f 39/39/39 38/38/38 37/37/37
f 42/42/42 41/41/41 40/40/40
f 45/45/45 44/44/44 43/43/43
f 48/48/48 47/47/47 46/46/46
f 51/51/51 50/50/50 49/49/49
f 54/54/54 53/53/53 52/52/52
f 57/57/57 56/56/56 55/55/55
f 60/60/60 59/59/59 58/58/58
f 63/63/63 62/62/62 61/61/61
f 66/66/66 65/65/65 64/64/64
f 69/69/69 68/68/68 67/67/67
f 72/72/72 71/71/71 70/70/70
f 75/75/75 74/74/74 73/73/73
f 78/78/78 77/77/77 76/76/76
f 81/81/81 80/80/80 79/79/79
f 84/84/84 83/83/83 82/82/82
f 87/87/87 86/86/86 85/85/85
f 90/90/90 89/89/89 88/88/88
f 93/93/93 92/92/92 91/91/91
f 96/96/96 95/95/95 94/94/94
f 99/99/99 98/98/98 97/97/97
f 102/102/102 101/101/101 100/100/100
f 105/105/105 104/104/104 103/103/103
f 108/108/108 107/107/107 106/106/106
f 111/111/111 110/110/110 109/109/109
f 114/114/114 113/113/113 112/112/112
f 117/117/117 116/116/116 115/115/115
f 120/120/120 119/119/119 118/118/118
f 123/123/123 122/122/122 121/121/121
f 126/126/126 125/125/125 124/124/124
f 129/129/129 128/128/128 127/127/127
f 132/132/132 131/131/131 130/130/130
f 135/135/135 134/134/134 133/133/133
f 138/138/138 137/137/137 136/136/136
f 141/141/141 140/140/140 139/139/139
f 144/144/144 143/143/143 142/142/142
f 147/147/147 146/146/146 145/145/145
f 150/150/150 149/149/149 148/148/148
f 153/153/153 152/152/152 151/151/151
f 156/156/156 155/155/155 154/154/154
f 159/159/159 158/158/158 157/157/157
f 162/162/162 161/161/161 160/160/160
f 165/165/165 164/164/164 163/163/163
f 168/168/168 167/167/167 166/166/166
f 171/171/171 170/170/170 169/169/169
f 174/174/174 173/173/173 172/172/172
f 177/177/177 176/176/176 175/175/175
f 180/180/180 179/179/179 178/178/178
f 183/183/183 182/182/182 181/181/181
f 186/186/186 185/185/185 184/184/184
f 189/189/189 188/188/188 187/187/187
f 192/192/192 191/191/191 190/190/190
f 195/195/195 194/194/194 193/193/193
f 198/198/198 197/197/197 196/196/196
f 201/201/201 200/200/200 199/199/199
f 204/204/204 203/203/203 202/202/202
f 207/207/207 206/206/206 205/205/205
f 210/210/210 209/209/209 208/208/208
f 213/213/213 212/212/212 211/211/211
f 216/216/216 215/215/215 214/214/214
f 219/219/219 218/218/218 217/217/217
f 222/222/222 221/221/221 220/220/220
f 225/225/225 224/224/224 223/223/223
f 228/228/228 227/227/227 226/226/226
f 231/231/231 230/230/230 229/229/229
f 234/234/234 233/233/233 232/232/232
