g DecalMesh_Common_Decal_Water_01__57
v -2.4074526 1.918242 -0.2284939
v -2.502538 0.74227154 -0.22849394
v -2.4016833 -1.918242 -0.22849415
v -2.4074526 1.918242 -0.2284939
v -2.4016833 -1.918242 -0.22849415
v -2.3918045 -1.918242 -0.22849415
v -2.502538 0.74227154 -0.22849394
v -2.502538 -1.9182419 -0.22849411
v -2.4016833 -1.918242 -0.22849415
v -2.4074526 1.918242 -0.2284939
v -2.502538 1.918242 -0.22849387
v -2.502538 0.74227166 -0.22849394
v -2.3918226 -1.9119039 -0.22849417
v -2.3917968 -1.918242 -0.22849417
v -2.0212524 -1.918242 -0.22849417
v 2.502538 -1.8919408 -0.22849417
v -2.3918226 -1.9119039 -0.22849417
v -2.0212522 -1.918242 -0.22849417
v 2.502538 -1.8919408 -0.22849417
v -2.0212522 -1.918242 -0.22849417
v 2.502538 -1.918242 -0.22849417
v -2.3918226 -1.9119039 -0.22849417
v 2.502538 -1.8919408 -0.22849417
v 2.502538 1.918242 -0.22849417
v -2.3918226 -1.9119039 -0.22849417
v 2.502538 1.918242 -0.22849417
v 1.7354991 1.918242 -0.22849417
v -2.3918226 -1.9119039 -0.22849417
v 1.7354991 1.9182419 -0.22849417
v -2.407445 1.9182421 -0.22849417
vt 0.47338867 0.9765625
vt 0.48168945 0.87353516
vt 0.4729004 0.63964844
vt 0.47338867 0.9765625
vt 0.4729004 0.63964844
vt 0.47216797 0.63964844
vt 0.48168945 0.87353516
vt 0.48168945 0.63964844
vt 0.4729004 0.63964844
vt 0.47338867 0.9765625
vt 0.48168945 0.9765625
vt 0.48168945 0.87353516
vt 0.47216797 0.6401367
vt 0.47216797 0.63964844
vt 0.4399414 0.63964844
vt 0.046691895 0.64160156
vt 0.47216797 0.6401367
vt 0.4399414 0.63964844
vt 0.046691895 0.64160156
vt 0.4399414 0.63964844
vt 0.046691895 0.63964844
vt 0.47216797 0.6401367
vt 0.046691895 0.64160156
vt 0.046691895 0.9765625
vt 0.47216797 0.6401367
vt 0.046691895 0.9765625
vt 0.11340332 0.9765625
vt 0.47216797 0.6401367
vt 0.11340332 0.9765625
vt 0.47338867 0.9765625
vn -4.172325E-07 0 -1
vn -4.172325E-07 0 -1
vn -4.172325E-07 0 -1
vn -4.172325E-07 0 -1
vn -4.172325E-07 0 -1
vn -4.172325E-07 0 -1
vn -4.172325E-07 0 -1
vn -4.172325E-07 0 -1
vn -4.172325E-07 0 -1
vn -4.172325E-07 0 -1
vn -4.172325E-07 0 -1
vn -4.172325E-07 0 -1
vn -0 0 -1
vn -0 0 -1
vn -0 0 -1
vn -0 0 -1
vn -0 0 -1
vn -0 0 -1
vn -0 0 -1
vn -0 0 -1
vn -0 0 -1
vn -0 0 -1
vn -0 0 -1
vn -0 0 -1
vn -0 0 -1
vn -0 0 -1
vn -0 0 -1
vn -0 0 -1
vn -0 0 -1
vn -0 0 -1
g DecalMesh_Common_Decal_Water_01__57_0
f 3/3/3 2/2/2 1/1/1
f 6/6/6 5/5/5 4/4/4
f 9/9/9 8/8/8 7/7/7
f 12/12/12 11/11/11 10/10/10
f 15/15/15 14/14/14 13/13/13
f 18/18/18 17/17/17 16/16/16
f 21/21/21 20/20/20 19/19/19
f 24/24/24 23/23/23 22/22/22
f 27/27/27 26/26/26 25/25/25
f 30/30/30 29/29/29 28/28/28
