g DecalMesh_Common_Decal_Sign_11__28
v 0.24999996 -0.061667606 0.07522372
v 0.25000003 -0.06155324 0.06346403
v -0.25000003 0.0011289635 0.05838365
v 0.24999996 -0.061667606 0.07522372
v -0.25000003 0.0011289635 0.05838365
v -0.24999999 0.0010564721 0.06583651
v 0.25000003 -0.06155324 0.06346403
v -0.25 0.0059584565 0.053676758
v -0.25000003 0.0011289635 0.05838365
v 0.25000003 -0.06155324 0.06346403
v 0.25000003 -0.056839347 0.05886981
v -0.24999997 0.008943725 0.05076727
v 0.25000003 -0.06155324 0.06346403
v -0.24999997 0.008943725 0.05076727
v -0.24999997 0.005958451 0.053676758
v 0.25000003 -0.056839347 0.05886981
v 0.25 -0.04838334 0.050628472
v -0.24999999 0.014298853 0.045548093
v 0.25000003 -0.056839347 0.05886981
v -0.24999999 0.014298853 0.045548093
v -0.24999997 0.008943725 0.05076727
v 0.25 -0.04838334 0.050628472
v -0.24999999 0.0210749 0.045604493
v -0.24999999 0.014298853 0.045548093
v 0.25 -0.04838334 0.050628472
v 0.25000003 -0.04176368 0.050683573
v -0.24999997 0.025263028 0.045639355
v 0.25 -0.04838334 0.050628472
v -0.24999997 0.025263028 0.045639355
v -0.24999999 0.0210749 0.045604493
v 0.24999997 -0.041763667 0.050683573
v 0.24999996 -0.029936086 0.05078202
v -0.25000003 0.032746106 0.04570164
v 0.24999997 -0.041763667 0.050683573
v -0.25000003 0.032746106 0.04570164
v -0.25 0.025263036 0.045639355
v 0.25000003 -0.029936096 0.050782025
v -0.24999999 0.03749663 0.050501335
v -0.25 0.032746106 0.04570164
v 0.25000003 -0.029936096 0.050782025
v 0.25000003 -0.025288126 0.055478096
v -0.24999999 0.04043547 0.053470585
v 0.25000003 -0.029936096 0.050782025
v -0.24999999 0.04043547 0.053470585
v -0.24999999 0.03749663 0.050501335
v 0.25000003 -0.025288126 0.055478096
v 0.24999994 -0.01701707 0.06383475
v -0.24999996 0.045665115 0.058754366
v 0.25000003 -0.025288126 0.055478096
v -0.24999996 0.045665115 0.058754366
v -0.24999999 0.04043547 0.053470585
v 0.25 -0.017017078 0.06383475
v -0.25000003 0.04559965 0.065484434
v -0.25 0.045665123 0.058754366
v 0.25 -0.017017078 0.06383475
v 0.24999997 -0.017081216 0.070427954
v -0.25000003 0.045559093 0.06965358
v 0.25 -0.017017078 0.06383475
v -0.25000003 0.045559093 0.06965358
v -0.25000003 0.04559965 0.065484434
v 0.25 0.24999999 0.016000444
v 0.024345927 -0.25 -0.0047405455
v 0.25 -0.25000003 -0.003630728
v 0.25 0.24999999 0.016000444
v 0.08279963 0.25 0.015178116
v -0.08942799 -0.25 -0.005300111
v 0.25 0.24999999 0.016000444
v -0.08942799 -0.25 -0.005300111
v -0.008755714 -0.24999999 -0.0049033463
v 0.25 0.24999999 0.016000444
v -0.008755714 -0.24999999 -0.0049033463
v 0.024345927 -0.25 -0.0047405455
v 0.08279963 0.25 0.015178116
v -0.25 0.25000006 0.013541334
v -0.24999999 -0.25 -0.006089841
v 0.08279963 0.25 0.015178116
v -0.24999999 -0.25 -0.006089841
v -0.08942799 -0.25 -0.0053001116
vt -0.29296875 0.9116211
vt -0.29296875 0.9116211
vt -0.23840332 0.91796875
vt -0.29296875 0.9116211
vt -0.23840332 0.91796875
vt -0.23840332 0.91796875
vt -0.29296875 0.9116211
vt -0.23840332 0.9189453
vt -0.23840332 0.91796875
vt -0.29296875 0.9116211
vt -0.29296875 0.9121094
vt -0.23840332 0.9189453
vt -0.29296875 0.9116211
vt -0.23840332 0.9189453
vt -0.23840332 0.9189453
vt -0.29296875 0.9121094
vt -0.29296875 0.91308594
vt -0.23840332 0.9194336
vt -0.29296875 0.9121094
vt -0.23840332 0.9194336
vt -0.23840332 0.9189453
vt -0.29296875 0.91308594
vt -0.23840332 0.92041016
vt -0.23840332 0.9194336
vt -0.29296875 0.91308594
vt -0.29296875 0.9135742
vt -0.23840332 0.92089844
vt -0.29296875 0.91308594
vt -0.23840332 0.92089844
vt -0.23840332 0.92041016
vt -0.29296875 0.9135742
vt -0.29296875 0.91503906
vt -0.23840332 0.9213867
vt -0.29296875 0.9135742
vt -0.23840332 0.9213867
vt -0.23840332 0.92089844
vt -0.29296875 0.91503906
vt -0.23840332 0.921875
vt -0.23840332 0.9213867
vt -0.29296875 0.91503906
vt -0.29296875 0.91552734
vt -0.23840332 0.9223633
vt -0.29296875 0.91503906
vt -0.23840332 0.9223633
vt -0.23840332 0.921875
vt -0.29296875 0.91552734
vt -0.29296875 0.9165039
vt -0.23840332 0.92285156
vt -0.29296875 0.91552734
vt -0.23840332 0.92285156
vt -0.23840332 0.9223633
vt -0.29296875 0.9165039
vt -0.23840332 0.92285156
vt -0.23840332 0.92285156
vt -0.29296875 0.9165039
vt -0.29296875 0.9160156
vt -0.23840332 0.92285156
vt -0.29296875 0.9165039
vt -0.23840332 0.92285156
vt -0.23840332 0.92285156
vt -0.29296875 0.9448242
vt -0.26831055 0.89160156
vt -0.29296875 0.89160156
vt -0.29296875 0.9448242
vt -0.2746582 0.9448242
vt -0.25585938 0.89160156
vt -0.29296875 0.9448242
vt -0.25585938 0.89160156
vt -0.26464844 0.89160156
vt -0.29296875 0.9448242
vt -0.26464844 0.89160156
vt -0.26831055 0.89160156
vt -0.2746582 0.9448242
vt -0.23840332 0.9448242
vt -0.23840332 0.89160156
vt -0.2746582 0.9448242
vt -0.23840332 0.89160156
vt -0.25585938 0.89160156
vn 0.30273438 -0.8359375 0.050476074
vn 0.3071289 -0.83251953 -0.33129883
vn 0.15405273 -0.8623047 -0.35327148
vn 0.30273438 -0.8359375 0.050476074
vn 0.15405273 -0.8623047 -0.35327148
vn 0.15136719 -0.8642578 -0.11138916
vn 0.3071289 -0.83251953 -0.33129883
vn 0.18078613 -0.6635742 -0.5498047
vn 0.15405273 -0.8623047 -0.35327148
vn 0.3071289 -0.83251953 -0.33129883
vn 0.3330078 -0.6386719 -0.5229492
vn 0.19726562 -0.5410156 -0.6713867
vn 0.3071289 -0.83251953 -0.33129883
vn 0.19726562 -0.5410156 -0.6713867
vn 0.18078613 -0.6635742 -0.5498047
vn 0.3330078 -0.6386719 -0.5229492
vn 0.36938477 -0.36889648 -0.79052734
vn 0.22021484 -0.3701172 -0.8408203
vn 0.3330078 -0.6386719 -0.5229492
vn 0.22021484 -0.3701172 -0.8408203
vn 0.19726562 -0.5410156 -0.6713867
vn 0.36938477 -0.36889648 -0.79052734
vn 0.2548828 -0.09112549 -0.8378906
vn 0.22021484 -0.3701172 -0.8408203
vn 0.36938477 -0.36889648 -0.79052734
vn 0.40307617 -0.09643555 -0.78759766
vn 0.2763672 0.08129883 -0.8364258
vn 0.36938477 -0.36889648 -0.79052734
vn 0.2763672 0.08129883 -0.8364258
vn 0.2548828 -0.09112549 -0.8378906
vn 0.40307617 -0.09643555 -0.78759766
vn 0.4501953 0.28173828 -0.7841797
vn 0.30615234 0.32055664 -0.8339844
vn 0.40307617 -0.09643555 -0.78759766
vn 0.30615234 0.32055664 -0.8339844
vn 0.2763672 0.08129883 -0.8364258
vn 0.4501953 0.28173828 -0.7841797
vn 0.32836914 0.51660156 -0.6333008
vn 0.30615234 0.32055664 -0.8339844
vn 0.4501953 0.28173828 -0.7841797
vn 0.47192383 0.47338867 -0.5878906
vn 0.34228516 0.6376953 -0.50927734
vn 0.4501953 0.28173828 -0.7841797
vn 0.34228516 0.6376953 -0.50927734
vn 0.32836914 0.51660156 -0.6333008
vn 0.47192383 0.47338867 -0.5878906
vn 0.5019531 0.73828125 -0.3161621
vn 0.36132812 0.8051758 -0.33740234
vn 0.47192383 0.47338867 -0.5878906
vn 0.36132812 0.8051758 -0.33740234
vn 0.34228516 0.6376953 -0.50927734
vn 0.5019531 0.73828125 -0.3161621
vn 0.3581543 0.8027344 -0.05596924
vn 0.36132812 0.8051758 -0.33740234
vn 0.5019531 0.73828125 -0.3161621
vn 0.49902344 0.73583984 -0.04055786
vn 0.35620117 0.80126953 0.11834717
vn 0.5019531 0.73828125 -0.3161621
vn 0.35620117 0.80126953 0.11834717
vn 0.3581543 0.8027344 -0.05596924
vn -0.0073928833 0.040771484 -0.99902344
vn 0.0020751953 0.0395813 -0.99902344
vn -0.0110321045 0.041229248 -0.99902344
vn -0.0073928833 0.040771484 -0.99902344
vn 0.0023174286 0.03955078 -0.99902344
vn 0.008682251 0.038757324 -0.99902344
vn -0.0073928833 0.040771484 -0.99902344
vn 0.008682251 0.038757324 -0.99902344
vn 0.0039978027 0.03933716 -0.99902344
vn -0.0073928833 0.040771484 -0.99902344
vn 0.0039978027 0.03933716 -0.99902344
vn 0.0020751953 0.0395813 -0.99902344
vn 0.0023174286 0.03955078 -0.99902344
vn 0.021652222 0.037139893 -0.99902344
vn 0.018005371 0.037597656 -0.99902344
vn 0.0023174286 0.03955078 -0.99902344
vn 0.018005371 0.037597656 -0.99902344
vn 0.008682251 0.038757324 -0.99902344
g DecalMesh_Common_Decal_Sign_11__28_0
f 3/3/3 2/2/2 1/1/1
f 6/6/6 5/5/5 4/4/4
f 9/9/9 8/8/8 7/7/7
f 12/12/12 11/11/11 10/10/10
f 15/15/15 14/14/14 13/13/13
f 18/18/18 17/17/17 16/16/16
f 21/21/21 20/20/20 19/19/19
f 24/24/24 23/23/23 22/22/22
f 27/27/27 26/26/26 25/25/25
f 30/30/30 29/29/29 28/28/28
f 33/33/33 32/32/32 31/31/31
f 36/36/36 35/35/35 34/34/34
f 39/39/39 38/38/38 37/37/37
f 42/42/42 41/41/41 40/40/40
f 45/45/45 44/44/44 43/43/43
f 48/48/48 47/47/47 46/46/46
f 51/51/51 50/50/50 49/49/49
f 54/54/54 53/53/53 52/52/52
f 57/57/57 56/56/56 55/55/55
f 60/60/60 59/59/59 58/58/58
f 63/63/63 62/62/62 61/61/61
f 66/66/66 65/65/65 64/64/64
f 69/69/69 68/68/68 67/67/67
f 72/72/72 71/71/71 70/70/70
f 75/75/75 74/74/74 73/73/73
f 78/78/78 77/77/77 76/76/76
