g DecalMesh_MetroArea_Decal_Graffiti_26__111
v 1.0902134 0.18825744 -0.0064592366
v 1.0902134 0.1970432 0.031494617
v 0.7279974 0.4101298 0.028078003
v 1.0902134 0.18825744 -0.0064592366
v 0.7279974 0.4101298 0.028078003
v 0.71445787 0.4101298 -0.006458499
v 1.0902133 0.19704328 0.031494617
v 0.7297609 0.4101298 0.032575615
v 0.7279974 0.4101298 0.028078005
v 1.0902133 0.19704328 0.031494617
v 1.0902133 0.19983242 0.04354198
v 0.73406065 0.41012982 0.043542165
v 1.0902133 0.19704328 0.031494617
v 0.73406065 0.41012982 0.043542165
v 0.72976077 0.41012985 0.032575615
v 1.0902132 0.14411634 -0.0064592618
v 1.0902134 0.17769067 -0.006459243
v 0.6909453 0.41012985 -0.0064584618
v 1.0902132 0.14411634 -0.0064592618
v 0.6909453 0.41012985 -0.0064584618
v 0.63970125 0.41012973 -0.006458378
v 1.0902133 0.17769071 -0.006459243
v 0.69830567 0.4101298 -0.006458474
v 0.6909454 0.4101298 -0.0064584618
v 1.0902133 0.17769071 -0.006459243
v 1.0902133 0.18825749 -0.0064592366
v 0.71445775 0.41012982 -0.006458499
v 1.0902133 0.17769071 -0.006459243
v 0.71445775 0.41012982 -0.006458499
v 0.6983058 0.41012973 -0.006458474
v 1.0902133 0.36935654 0.006300564
v 1.0212487 0.4101298 0.006077488
v 1.0209047 0.4101298 0.006954492
v 1.0902133 0.36935654 0.006300564
v 1.0902134 0.3723128 -0.0064591323
v 1.026168 0.41012976 -0.0064590066
v 1.0902133 0.36935654 0.006300564
v 1.026168 0.41012976 -0.0064590066
v 1.0212488 0.41012976 0.006077488
v 1.0902133 0.36073378 0.04354197
v 1.0902133 0.36935654 0.006300564
v 1.0209045 0.41012985 0.006954493
v 1.0902133 0.36073378 0.04354197
v 1.0209045 0.41012985 0.006954493
v 1.0065578 0.4101298 0.043542016
v 1.0902133 0.4050575 -0.0064591137
v 1.081665 0.4101298 -0.006459097
v 1.0815005 0.4101298 -0.006459097
v 1.0902133 0.4050575 -0.0064591137
v 1.0902133 0.4101298 -0.006459111
v 1.081665 0.4101298 -0.006459097
v 1.0902134 0.3723128 -0.0064591323
v 1.0902133 0.4050575 -0.0064591137
v 1.0815005 0.41012976 -0.006459097
v 1.0902134 0.3723128 -0.0064591323
v 1.0815005 0.41012976 -0.006459097
v 1.026168 0.41012976 -0.0064590066
v 1.0902133 0.2391646 0.04354198
v 1.0902133 0.36073378 0.04354197
v 1.0065578 0.4101298 0.043542016
v 1.0902133 0.2391646 0.04354198
v 1.0065578 0.4101298 0.043542016
v 0.8150252 0.41012982 0.04354212
v 1.0902133 0.19983242 0.04354198
v 0.7570589 0.41012976 0.04354215
v 0.7340607 0.4101298 0.043542165
v 1.0902133 0.19983242 0.04354198
v 1.0902133 0.2391646 0.04354198
v 0.8150252 0.41012982 0.04354212
v 1.0902133 0.19983242 0.04354198
v 0.8150252 0.41012982 0.04354212
v 0.7570589 0.41012976 0.04354215
v 0.6397042 0.4101298 0.09529126
v 0.7116817 0.36762935 0.10299999
v 0.911837 0.24944396 0.103
v 0.6397042 0.4101298 0.09529126
v 0.6397042 0.4101298 0.10299999
v 0.7116817 0.36762935 0.10299999
v 1.0902132 0.14411634 -0.0064592618
v 0.63970125 0.41012973 -0.006458378
v 1.0703342 0.1558563 0.103
v 1.0902132 0.14411634 -0.0064592618
v 1.0703342 0.1558563 0.103
v 1.0902133 0.1441183 0.103
v 0.63970125 0.41012973 -0.006458378
v 0.6397042 0.41012985 0.09529125
v 0.91183734 0.24944378 0.103
v 0.63970125 0.41012973 -0.006458378
v 0.91183734 0.24944378 0.103
v 1.0703342 0.1558563 0.103
vt 0.734375 0.20825195
vt 0.734375 0.20922852
vt 0.77685547 0.23205566
vt 0.734375 0.20825195
vt 0.77685547 0.23205566
vt 0.7783203 0.23205566
vt 0.734375 0.20922852
vt 0.7763672 0.23205566
vt 0.77685547 0.23205566
vt 0.734375 0.20922852
vt 0.734375 0.20947266
vt 0.7758789 0.23205566
vt 0.734375 0.20922852
vt 0.7758789 0.23205566
vt 0.7763672 0.23205566
vt 0.734375 0.20349121
vt 0.734375 0.20715332
vt 0.78125 0.23205566
vt 0.734375 0.20349121
vt 0.78125 0.23205566
vt 0.7871094 0.23205566
vt 0.734375 0.20715332
vt 0.78027344 0.23205566
vt 0.78125 0.23205566
vt 0.734375 0.20715332
vt 0.734375 0.20825195
vt 0.7783203 0.23205566
vt 0.734375 0.20715332
vt 0.7783203 0.23205566
vt 0.78027344 0.23205566
vt 0.734375 0.22766113
vt 0.7426758 0.23205566
vt 0.7426758 0.23205566
vt 0.734375 0.22766113
vt 0.734375 0.22802734
vt 0.7421875 0.23205566
vt 0.734375 0.22766113
vt 0.7421875 0.23205566
vt 0.7426758 0.23205566
vt 0.734375 0.22668457
vt 0.734375 0.22766113
vt 0.7426758 0.23205566
vt 0.734375 0.22668457
vt 0.7426758 0.23205566
vt 0.7441406 0.23205566
vt 0.734375 0.23144531
vt 0.73535156 0.23205566
vt 0.73535156 0.23205566
vt 0.734375 0.23144531
vt 0.734375 0.23205566
vt 0.73535156 0.23205566
vt 0.734375 0.22802734
vt 0.734375 0.23144531
vt 0.73535156 0.23205566
vt 0.734375 0.22802734
vt 0.73535156 0.23205566
vt 0.7421875 0.23205566
vt 0.734375 0.21374512
vt 0.734375 0.22668457
vt 0.7441406 0.23205566
vt 0.734375 0.21374512
vt 0.7441406 0.23205566
vt 0.76660156 0.23205566
vt 0.734375 0.20947266
vt 0.7734375 0.23205566
vt 0.7758789 0.23205566
vt 0.734375 0.20947266
vt 0.734375 0.21374512
vt 0.76660156 0.23205566
vt 0.734375 0.20947266
vt 0.76660156 0.23205566
vt 0.7734375 0.23205566
vt 0.7871094 0.23205566
vt 0.7788086 0.22741699
vt 0.7553711 0.21484375
vt 0.7871094 0.23205566
vt 0.7871094 0.23205566
vt 0.7788086 0.22741699
vt 0.734375 0.20349121
vt 0.7871094 0.23205566
vt 0.7368164 0.20471191
vt 0.734375 0.20349121
vt 0.7368164 0.20471191
vt 0.734375 0.20349121
vt 0.7871094 0.23205566
vt 0.7871094 0.23205566
vt 0.7553711 0.21484375
vt 0.7871094 0.23205566
vt 0.7553711 0.21484375
vt 0.7368164 0.20471191
vn 0.49853516 0.8442383 -0.19555664
vn 0.49853516 0.8442383 -0.19555664
vn 0.49853516 0.8442383 -0.19555664
vn 0.49853516 0.8442383 -0.19555664
vn 0.49853516 0.8442383 -0.19555664
vn 0.49853516 0.8442383 -0.19555664
vn 0.49853516 0.8442383 -0.19555664
vn 0.49853516 0.8442383 -0.19555664
vn 0.49853516 0.8442383 -0.19555664
vn 0.49853516 0.8442383 -0.19555664
vn 0.49853516 0.8442383 -0.19555664
vn 0.49853516 0.8442383 -0.19555664
vn 0.49853516 0.8442383 -0.19555664
vn 0.49853516 0.8442383 -0.19555664
vn 0.49853516 0.8442383 -0.19555664
vn -5.9604645E-07 0 -1
vn -5.9604645E-07 0 -1
vn -5.364418E-07 0 -1
vn -5.9604645E-07 0 -1
vn -5.364418E-07 0 -1
vn -5.364418E-07 0 -1
vn -5.9604645E-07 0 -1
vn -5.364418E-07 0 -1
vn -5.364418E-07 0 -1
vn -5.9604645E-07 0 -1
vn -5.9604645E-07 0 -1
vn -5.364418E-07 0 -1
vn -5.9604645E-07 0 -1
vn -5.364418E-07 0 -1
vn -5.364418E-07 0 -1
vn -0.49853516 -0.8442383 -0.19555664
vn -0.49853516 -0.8442383 -0.19555664
vn -0.49853516 -0.8442383 -0.19555664
vn -0.49853516 -0.8442383 -0.19555664
vn -0.49853516 -0.8442383 -0.19555664
vn -0.49853516 -0.8442383 -0.19555664
vn -0.49853516 -0.8442383 -0.19555664
vn -0.49853516 -0.8442383 -0.19555664
vn -0.49853516 -0.8442383 -0.19555664
vn -0.49853516 -0.8442383 -0.19555664
vn -0.49853516 -0.8442383 -0.19555664
vn -0.49853516 -0.8442383 -0.19555664
vn -0.49853516 -0.8442383 -0.19555664
vn -0.49853516 -0.8442383 -0.19555664
vn -0.49853516 -0.8442383 -0.19555664
vn -5.9604645E-07 0 -1
vn -5.9604645E-07 0 -1
vn -5.9604645E-07 0 -1
vn -5.9604645E-07 0 -1
vn -5.9604645E-07 0 -1
vn -5.9604645E-07 0 -1
vn -5.9604645E-07 0 -1
vn -5.9604645E-07 0 -1
vn -5.9604645E-07 0 -1
vn -5.9604645E-07 0 -1
vn -5.9604645E-07 0 -1
vn -5.364418E-07 0 -1
vn -5.9604645E-07 0 -1
vn -5.9604645E-07 0 -1
vn -5.364418E-07 0 -1
vn -5.9604645E-07 0 -1
vn -5.364418E-07 0 -1
vn -5.364418E-07 0 -1
vn -5.9604645E-07 0 -1
vn -5.364418E-07 0 -1
vn -5.364418E-07 0 -1
vn -5.9604645E-07 0 -1
vn -5.9604645E-07 0 -1
vn -5.364418E-07 0 -1
vn -5.9604645E-07 0 -1
vn -5.364418E-07 0 -1
vn -5.364418E-07 0 -1
vn -0.5083008 -0.8613281 -1.847744E-06
vn -0.5083008 -0.8613281 -1.9073486E-06
vn -0.5083008 -0.8613281 -1.9073486E-06
vn -0.5083008 -0.8613281 -1.847744E-06
vn -0.5083008 -0.8613281 -1.847744E-06
vn -0.5083008 -0.8613281 -1.9073486E-06
vn -0.5083008 -0.8613281 -1.9669533E-06
vn -0.5083008 -0.8613281 -1.847744E-06
vn -0.5083008 -0.8613281 -1.9669533E-06
vn -0.5083008 -0.8613281 -1.9669533E-06
vn -0.5083008 -0.8613281 -1.9669533E-06
vn -0.5083008 -0.8613281 -1.9669533E-06
vn -0.5083008 -0.8613281 -1.847744E-06
vn -0.5083008 -0.8613281 -1.847744E-06
vn -0.5083008 -0.8613281 -1.9073486E-06
vn -0.5083008 -0.8613281 -1.847744E-06
vn -0.5083008 -0.8613281 -1.9073486E-06
vn -0.5083008 -0.8613281 -1.9669533E-06
g DecalMesh_MetroArea_Decal_Graffiti_26__111_0
f 3/3/3 2/2/2 1/1/1
f 6/6/6 5/5/5 4/4/4
f 9/9/9 8/8/8 7/7/7
f 12/12/12 11/11/11 10/10/10
f 15/15/15 14/14/14 13/13/13
f 18/18/18 17/17/17 16/16/16
f 21/21/21 20/20/20 19/19/19
f 24/24/24 23/23/23 22/22/22
f 27/27/27 26/26/26 25/25/25
f 30/30/30 29/29/29 28/28/28
f 33/33/33 32/32/32 31/31/31
f 36/36/36 35/35/35 34/34/34
f 39/39/39 38/38/38 37/37/37
f 42/42/42 41/41/41 40/40/40
f 45/45/45 44/44/44 43/43/43
f 48/48/48 47/47/47 46/46/46
f 51/51/51 50/50/50 49/49/49
f 54/54/54 53/53/53 52/52/52
f 57/57/57 56/56/56 55/55/55
f 60/60/60 59/59/59 58/58/58
f 63/63/63 62/62/62 61/61/61
f 66/66/66 65/65/65 64/64/64
f 69/69/69 68/68/68 67/67/67
f 72/72/72 71/71/71 70/70/70
f 75/75/75 74/74/74 73/73/73
f 78/78/78 77/77/77 76/76/76
f 81/81/81 80/80/80 79/79/79
f 84/84/84 83/83/83 82/82/82
f 87/87/87 86/86/86 85/85/85
f 90/90/90 89/89/89 88/88/88
