g DecalMesh_MetroArea_Decal_Ground_22__61
v -0.99999994 0.13018098 0.01948934
v -0.99999994 -0.997 0.019489255
v 0.32240036 -0.997 0.01948917
v 1 1.0030001 0.019489277
v -1 1.003 0.019489406
v 0.5518499 -0.997 0.019489154
v 1 1.0030001 0.019489277
v 0.5518499 -0.997 0.019489154
v 1.0000002 -0.997 0.019489126
v -1 1.003 0.019489406
v -0.99999994 0.13018098 0.01948934
v 0.3224003 -0.997 0.01948917
v -1 1.003 0.019489406
v 0.3224003 -0.997 0.01948917
v 0.5518499 -0.997 0.019489154
v 1 0.7406675 -0.0009365014
v 0.8427807 1.003 0.0057003666
v 0.8427807 1.003 -0.00093647226
v 1 0.7406675 -0.0009365014
v 1 0.7406675 0.012588776
v 0.8427807 1.003 0.015732527
v 1 0.7406675 -0.0009365014
v 0.8427807 1.003 0.015732527
v 0.8427807 1.003 0.0057003666
v 1 0.7406675 0.012588776
v 1 0.7406675 0.024761206
v 0.8427807 1.003 0.024761235
v 1 0.7406675 0.012588776
v 0.8427807 1.003 0.024761235
v 0.8427807 1.003 0.015732527
v 0.99999994 -0.7933481 0.016655205
v 0.99999994 -0.7933481 -0.0009366269
v 0.660191 -0.997 -0.0009366269
v 0.99999994 -0.7933481 0.016655205
v 0.660191 -0.997 -0.0009366269
v 0.660191 -0.997 0.012583027
v 0.99999994 -0.7933481 0.02476108
v 0.66019106 -0.997 0.018812545
v 0.66019106 -0.997 0.02476108
v 0.99999994 -0.7933481 0.02476108
v 0.99999994 -0.7933481 0.016655205
v 0.660191 -0.997 0.012583027
v 0.99999994 -0.7933481 0.02476108
v 0.660191 -0.997 0.012583027
v 0.660191 -0.997 0.018812543
v 1 -0.21850403 -0.0009365799
v 0.6234828 1.003 -0.0009364615
v -1 0.63976276 -0.0009364116
v 1 -0.21850403 -0.0009365799
v -1 0.63976276 -0.0009364116
v -1 0.2825697 -0.00093644083
v 0.6234828 1.003 -0.0009364615
v -0.8658787 1.003 -0.0009363885
v -1 0.92261934 -0.0009363885
v 0.6234828 1.003 -0.0009364615
v -1 0.92261934 -0.0009363885
v -1 0.63976276 -0.0009364116
v 1 -0.21850403 -0.0009365799
v 1 0.7406675 -0.0009365014
v 0.8427807 1.003 -0.00093647226
v 1 -0.21850403 -0.0009365799
v 0.8427807 1.003 -0.00093647226
v 0.6234828 1.003 -0.0009364615
v 0.99999994 -0.7933481 -0.0009366269
v -0.99999994 0.12531835 -0.0009364537
v -0.66799057 -0.997 -0.0009365618
v 0.99999994 -0.7933481 -0.0009366269
v -0.66799057 -0.997 -0.0009365618
v 0.660191 -0.997 -0.0009366269
v -0.99999994 0.12531835 -0.0009364537
v -1 -0.7854025 -0.0009365282
v -0.8731868 -0.997 -0.0009365517
v -0.99999994 0.12531835 -0.0009364537
v -0.8731868 -0.997 -0.0009365517
v -0.66799057 -0.997 -0.0009365618
v 0.99999994 -0.7933481 -0.0009366269
v 1 -0.21850403 -0.0009365799
v -1 0.2825697 -0.00093644083
v 0.99999994 -0.7933481 -0.0009366269
v -1 0.2825697 -0.00093644083
v -0.99999994 0.12531835 -0.0009364537
vt 0.6245117 0.36254883
vt 0.6245117 0.31811523
vt 0.57128906 0.31811523
vt 0.5439453 0.39697266
vt 0.6245117 0.39697266
vt 0.5620117 0.31811523
vt 0.5439453 0.39697266
vt 0.5620117 0.31811523
vt 0.5439453 0.31811523
vt 0.6245117 0.39697266
vt 0.6245117 0.36254883
vt 0.57128906 0.31811523
vt 0.6245117 0.39697266
vt 0.57128906 0.31811523
vt 0.5620117 0.31811523
vt 0.5439453 0.38671875
vt 0.55029297 0.39697266
vt 0.55029297 0.39697266
vt 0.5439453 0.38671875
vt 0.5439453 0.38671875
vt 0.55029297 0.39697266
vt 0.5439453 0.38671875
vt 0.55029297 0.39697266
vt 0.55029297 0.39697266
vt 0.5439453 0.38671875
vt 0.5439453 0.38671875
vt 0.55029297 0.39697266
vt 0.5439453 0.38671875
vt 0.55029297 0.39697266
vt 0.55029297 0.39697266
vt 0.5439453 0.32617188
vt 0.5439453 0.32617188
vt 0.5576172 0.31811523
vt 0.5439453 0.32617188
vt 0.5576172 0.31811523
vt 0.5576172 0.31811523
vt 0.5439453 0.32617188
vt 0.5576172 0.31811523
vt 0.5576172 0.31811523
vt 0.5439453 0.32617188
vt 0.5439453 0.32617188
vt 0.5576172 0.31811523
vt 0.5439453 0.32617188
vt 0.5576172 0.31811523
vt 0.5576172 0.31811523
vt 0.5439453 0.34887695
vt 0.55908203 0.39697266
vt 0.6245117 0.38256836
vt 0.5439453 0.34887695
vt 0.6245117 0.38256836
vt 0.6245117 0.36865234
vt 0.55908203 0.39697266
vt 0.6191406 0.39697266
vt 0.6245117 0.39379883
vt 0.55908203 0.39697266
vt 0.6245117 0.39379883
vt 0.6245117 0.38256836
vt 0.5439453 0.34887695
vt 0.5439453 0.38671875
vt 0.55029297 0.39697266
vt 0.5439453 0.34887695
vt 0.55029297 0.39697266
vt 0.55908203 0.39697266
vt 0.5439453 0.32617188
vt 0.6245117 0.3623047
vt 0.6113281 0.31811523
vt 0.5439453 0.32617188
vt 0.6113281 0.31811523
vt 0.5576172 0.31811523
vt 0.6245117 0.3623047
vt 0.6245117 0.32641602
vt 0.6196289 0.31811523
vt 0.6245117 0.3623047
vt 0.6196289 0.31811523
vt 0.6113281 0.31811523
vt 0.5439453 0.32617188
vt 0.5439453 0.34887695
vt 0.6245117 0.36865234
vt 0.5439453 0.32617188
vt 0.6245117 0.36865234
vt 0.6245117 0.3623047
vn -5.9604645E-08 0 -1
vn -5.9604645E-08 0 -1
vn -5.9604645E-08 0 -1
vn -5.9604645E-08 0 -1
vn -5.9604645E-08 0 -1
vn -5.9604645E-08 0 -1
vn -5.9604645E-08 0 -1
vn -5.9604645E-08 0 -1
vn -5.9604645E-08 0 -1
vn -5.9604645E-08 0 -1
vn -5.9604645E-08 0 -1
vn -5.9604645E-08 0 -1
vn -5.9604645E-08 0 -1
vn -5.9604645E-08 0 -1
vn -5.9604645E-08 0 -1
vn 0.85791016 0.51416016 -0
vn 0.85791016 0.51416016 -0
vn 0.85791016 0.51416016 -0
vn 0.85791016 0.51416016 -0
vn 0.85791016 0.51416016 -0
vn 0.85791016 0.51416016 -0
vn 0.85791016 0.51416016 -0
vn 0.85791016 0.51416016 -0
vn 0.85791016 0.51416016 -0
vn 0.85791016 0.51416016 -0
vn 0.85791016 0.51416016 -0
vn 0.85791016 0.51416016 -0
vn 0.85791016 0.51416016 -0
vn 0.85791016 0.51416016 -0
vn 0.85791016 0.51416016 -0
vn 0.51416016 -0.85791016 -1.1920929E-07
vn 0.51416016 -0.85791016 -1.1920929E-07
vn 0.51416016 -0.85791016 -1.1920929E-07
vn 0.51416016 -0.85791016 -1.1920929E-07
vn 0.51416016 -0.85791016 -1.1920929E-07
vn 0.51416016 -0.85791016 -1.1920929E-07
vn 0.51416016 -0.85791016 -1.1920929E-07
vn 0.51416016 -0.85791016 -1.1920929E-07
vn 0.51416016 -0.85791016 -1.1920929E-07
vn 0.51416016 -0.85791016 -1.1920929E-07
vn 0.51416016 -0.85791016 -1.1920929E-07
vn 0.51416016 -0.85791016 -1.1920929E-07
vn 0.51416016 -0.85791016 -1.1920929E-07
vn 0.51416016 -0.85791016 -1.1920929E-07
vn 0.51416016 -0.85791016 -1.1920929E-07
vn 0 -1.1920929E-07 -1
vn 0 -1.1920929E-07 -1
vn 0 -1.1920929E-07 -1
vn 0 -1.1920929E-07 -1
vn 0 -1.1920929E-07 -1
vn 0 -1.1920929E-07 -1
vn 0 -1.1920929E-07 -1
vn 0 -1.1920929E-07 -1
vn 0 -1.1920929E-07 -1
vn 0 -1.1920929E-07 -1
vn 0 -1.1920929E-07 -1
vn 0 -1.1920929E-07 -1
vn 0 -1.1920929E-07 -1
vn 0 -1.1920929E-07 -1
vn 0 -1.1920929E-07 -1
vn 0 -1.1920929E-07 -1
vn 0 -1.1920929E-07 -1
vn 0 -1.1920929E-07 -1
vn 0 -1.1920929E-07 -1
vn 0 -1.1920929E-07 -1
vn 0 -1.1920929E-07 -1
vn 0 -1.1920929E-07 -1
vn 0 -1.1920929E-07 -1
vn 0 -1.1920929E-07 -1
vn 0 -1.1920929E-07 -1
vn 0 -1.1920929E-07 -1
vn 0 -1.1920929E-07 -1
vn 0 -1.1920929E-07 -1
vn 0 -1.1920929E-07 -1
vn 0 -1.1920929E-07 -1
vn 0 -1.1920929E-07 -1
vn 0 -1.1920929E-07 -1
vn 0 -1.1920929E-07 -1
vn 0 -1.1920929E-07 -1
vn 0 -1.1920929E-07 -1
vn 0 -1.1920929E-07 -1
g DecalMesh_MetroArea_Decal_Ground_22__61_0
f 3/3/3 2/2/2 1/1/1
f 6/6/6 5/5/5 4/4/4
f 9/9/9 8/8/8 7/7/7
f 12/12/12 11/11/11 10/10/10
f 15/15/15 14/14/14 13/13/13
f 18/18/18 17/17/17 16/16/16
f 21/21/21 20/20/20 19/19/19
f 24/24/24 23/23/23 22/22/22
f 27/27/27 26/26/26 25/25/25
f 30/30/30 29/29/29 28/28/28
f 33/33/33 32/32/32 31/31/31
f 36/36/36 35/35/35 34/34/34
f 39/39/39 38/38/38 37/37/37
f 42/42/42 41/41/41 40/40/40
f 45/45/45 44/44/44 43/43/43
f 48/48/48 47/47/47 46/46/46
f 51/51/51 50/50/50 49/49/49
f 54/54/54 53/53/53 52/52/52
f 57/57/57 56/56/56 55/55/55
f 60/60/60 59/59/59 58/58/58
f 63/63/63 62/62/62 61/61/61
f 66/66/66 65/65/65 64/64/64
f 69/69/69 68/68/68 67/67/67
f 72/72/72 71/71/71 70/70/70
f 75/75/75 74/74/74 73/73/73
f 78/78/78 77/77/77 76/76/76
f 81/81/81 80/80/80 79/79/79
