g DecalMesh_MetroArea_Decal_Ground_07__14
v 0.27773458 1.2402589 -0.021079183
v -0.2777346 1.2402589 -0.021079183
v 0.27700084 -1.2495887 -0.021079894
v 0.27773458 1.2402589 -0.021079183
v 0.27700084 -1.2495887 -0.021079894
v 0.27773458 -1.2495887 -0.021079894
v -0.2777346 1.2402589 -0.021079183
v -0.2777346 -0.69741285 -0.021079738
v 0.2744413 -1.2495887 -0.021079894
v -0.2777346 1.2402589 -0.021079183
v 0.2744413 -1.2495887 -0.021079894
v 0.27700084 -1.2495887 -0.021079894
v -0.27773464 -0.70274365 -0.021079738
v -0.27773464 -1.2495887 -0.021079894
v 0.26761013 -1.2495887 -0.021079894
v -0.2777347 -0.6974128 -0.021079738
v 0.26770613 -1.2495887 -0.021079894
v 0.27444124 -1.2495887 -0.021079894
v -0.2777347 -0.6974128 -0.021079738
v -0.2777347 -0.70274353 -0.021079738
v 0.26761016 -1.2495887 -0.021079894
v -0.2777347 -0.6974128 -0.021079738
v 0.26761016 -1.2495887 -0.021079894
v 0.26770613 -1.2495887 -0.021079894
v 0.2777347 1.2468507 -0.005065084
v 0.2777347 1.2555888 -0.0050650854
v 0.26899666 1.2555888 -0.0050650854
v 0.27773464 1.240257 -0.005065083
v 0.26244327 1.2555888 -0.0050650854
v -0.27773464 1.2522467 -0.005065085
v 0.27773464 1.240257 -0.005065083
v -0.27773464 1.2522467 -0.005065085
v -0.27773464 1.240257 -0.005065083
v 0.26244327 1.2555888 -0.0050650854
v -0.27773464 1.2555888 -0.0050650854
v -0.27773464 1.2522467 -0.005065085
v 0.27773464 1.240257 -0.005065083
v 0.27773464 1.2468508 -0.005065084
v 0.26899675 1.2555888 -0.0050650854
v 0.27773464 1.240257 -0.005065083
v 0.26899675 1.2555888 -0.0050650854
v 0.26244327 1.2555888 -0.0050650854
vt 0.44995117 0.72021484
vt 0.48706055 0.72021484
vt 0.44995117 0.5541992
vt 0.44995117 0.72021484
vt 0.44995117 0.5541992
vt 0.44995117 0.5541992
vt 0.48706055 0.72021484
vt 0.48706055 0.5908203
vt 0.4501953 0.5541992
vt 0.48706055 0.72021484
vt 0.4501953 0.5541992
vt 0.44995117 0.5541992
vt 0.48706055 0.59033203
vt 0.48706055 0.5541992
vt 0.4506836 0.5541992
vt 0.48706055 0.5908203
vt 0.4506836 0.5541992
vt 0.4501953 0.5541992
vt 0.48706055 0.5908203
vt 0.48706055 0.59033203
vt 0.4506836 0.5541992
vt 0.48706055 0.5908203
vt 0.4506836 0.5541992
vt 0.4506836 0.5541992
vt 0.44995117 0.72021484
vt 0.44995117 0.7211914
vt 0.45043945 0.7211914
vt 0.44995117 0.72021484
vt 0.45092773 0.7211914
vt 0.48706055 0.7207031
vt 0.44995117 0.72021484
vt 0.48706055 0.7207031
vt 0.48706055 0.72021484
vt 0.45092773 0.7211914
vt 0.48706055 0.7211914
vt 0.48706055 0.7207031
vt 0.44995117 0.72021484
vt 0.44995117 0.72021484
vt 0.45043945 0.7211914
vt 0.44995117 0.72021484
vt 0.45043945 0.7211914
vt 0.45092773 0.7211914
vn 6.4969063E-06 1.21593475E-05 -1
vn 0.00053310394 0.0009832382 -1
vn 7.212162E-06 1.347065E-05 -1
vn 6.4969063E-06 1.21593475E-05 -1
vn 7.212162E-06 1.347065E-05 -1
vn 6.4969063E-06 1.21593475E-05 -1
vn 0.00053310394 0.0009832382 -1
vn 0.00053310394 0.0009832382 -1
vn 9.655952E-06 1.7940998E-05 -1
vn 0.00053310394 0.0009832382 -1
vn 9.655952E-06 1.7940998E-05 -1
vn 7.212162E-06 1.347065E-05 -1
vn 0.0005283356 0.0009737015 -1
vn 9.655952E-06 1.7940998E-05 -1
vn 9.655952E-06 1.7940998E-05 -1
vn 0.00053310394 0.0009832382 -1
vn 9.655952E-06 1.7940998E-05 -1
vn 9.655952E-06 1.7940998E-05 -1
vn 0.00053310394 0.0009832382 -1
vn 0.0005283356 0.0009737015 -1
vn 9.655952E-06 1.7940998E-05 -1
vn 0.00053310394 0.0009832382 -1
vn 9.655952E-06 1.7940998E-05 -1
vn 9.655952E-06 1.7940998E-05 -1
vn -1.2874603E-05 7.5101852E-06 -1
vn -1.2874603E-05 7.5101852E-06 -1
vn -2.9981136E-05 1.758337E-05 -1
vn 3.5762787E-06 -2.270937E-05 -1
vn -2.6404858E-05 -4.827976E-06 -1
vn 0.00027513504 -0.0018692017 -1
vn 3.5762787E-06 -2.270937E-05 -1
vn 0.00027513504 -0.0018692017 -1
vn 0.00030517578 -0.0019245148 -1
vn -2.6404858E-05 -4.827976E-06 -1
vn 0.0002667904 -0.0018539429 -1
vn 0.00027513504 -0.0018692017 -1
vn 3.5762787E-06 -2.270937E-05 -1
vn -1.2874603E-05 7.5101852E-06 -1
vn -2.9981136E-05 1.758337E-05 -1
vn 3.5762787E-06 -2.270937E-05 -1
vn -2.9981136E-05 1.758337E-05 -1
vn -2.6404858E-05 -4.827976E-06 -1
g DecalMesh_MetroArea_Decal_Ground_07__14_0
f 3/3/3 2/2/2 1/1/1
f 6/6/6 5/5/5 4/4/4
f 9/9/9 8/8/8 7/7/7
f 12/12/12 11/11/11 10/10/10
f 15/15/15 14/14/14 13/13/13
f 18/18/18 17/17/17 16/16/16
f 21/21/21 20/20/20 19/19/19
f 24/24/24 23/23/23 22/22/22
f 27/27/27 26/26/26 25/25/25
f 30/30/30 29/29/29 28/28/28
f 33/33/33 32/32/32 31/31/31
f 36/36/36 35/35/35 34/34/34
f 39/39/39 38/38/38 37/37/37
f 42/42/42 41/41/41 40/40/40
