g DecalMesh_MetroArea_Decal_Graffiti_07__0
v 1.9788246 0.96940213 -0.018190643
v -0.8200933 -0.9694022 -0.018190643
v 1.9788247 -0.9694022 -0.018190643
v 1.9788246 0.96940213 -0.018190643
v 1.0187975 0.9694022 -0.018190643
v -1.1132187 -0.9694022 -0.018190643
v 1.9788246 0.96940213 -0.018190643
v -1.1132187 -0.9694022 -0.018190643
v -0.83599716 -0.9694022 -0.018190643
v 1.9788246 0.96940213 -0.018190643
v -0.83599705 -0.96940213 -0.018190643
v -0.8200933 -0.9694022 -0.018190643
v 1.0187974 0.96940213 -0.018190643
v -1.9788245 0.9694022 -0.018190643
v -1.9788246 -0.9694022 -0.018190643
v 1.0187974 0.96940213 -0.018190643
v -1.9788246 -0.9694022 -0.018190643
v -1.1132187 -0.9694022 -0.018190643
vt 0.33398438 0.7895508
vt 0.4711914 0.68847656
vt 0.33398438 0.68847656
vt 0.33398438 0.7895508
vt 0.38110352 0.7895508
vt 0.4855957 0.68847656
vt 0.33398438 0.7895508
vt 0.4855957 0.68847656
vt 0.47216797 0.68847656
vt 0.33398438 0.7895508
vt 0.47216797 0.68847656
vt 0.4711914 0.68847656
vt 0.38110352 0.7895508
vt 0.5283203 0.7895508
vt 0.5283203 0.68847656
vt 0.38110352 0.7895508
vt 0.5283203 0.68847656
vt 0.4855957 0.68847656
vn 1.1920929E-07 0 -1
vn 1.1920929E-07 0 -1
vn 1.1920929E-07 0 -1
vn 1.1920929E-07 0 -1
vn 1.1920929E-07 0 -1
vn 1.1920929E-07 0 -1
vn 1.1920929E-07 0 -1
vn 1.1920929E-07 0 -1
vn 1.1920929E-07 0 -1
vn 1.1920929E-07 0 -1
vn 1.1920929E-07 0 -1
vn 1.1920929E-07 0 -1
vn 1.1920929E-07 0 -1
vn 1.1920929E-07 0 -1
vn 1.1920929E-07 0 -1
vn 1.1920929E-07 0 -1
vn 1.1920929E-07 0 -1
vn 1.1920929E-07 0 -1
g DecalMesh_MetroArea_Decal_Graffiti_07__0_0
f 3/3/3 2/2/2 1/1/1
f 6/6/6 5/5/5 4/4/4
f 9/9/9 8/8/8 7/7/7
f 12/12/12 11/11/11 10/10/10
f 15/15/15 14/14/14 13/13/13
f 18/18/18 17/17/17 16/16/16
