g DecalMesh_Common_Decal_Crack_01__35
v -1.2717676 1.2433853 0.005732418
v -1.2717676 1.2433853 -0.032951497
v -1.2717667 -1.2433853 0.0057062665
v -1.2717676 1.2433853 0.005732418
v -1.2717667 -1.2433853 0.0057062665
v -1.2717667 -1.2433853 0.0057326555
v -1.2832997 1.2433853 -0.032951497
v -3.7345564 1.2433852 -0.004651293
v -3.7345564 -1.2078724 0.005154195
v -1.2717676 1.2433853 -0.032951497
v -3.7345564 -1.208044 0.0051568625
v -1.3846397 -1.2433853 0.005706266
v -1.2717676 1.2433853 -0.032951497
v -1.3846397 -1.2433853 0.005706266
v -1.2717667 -1.2433853 0.0057062665
v -3.7345564 -1.208044 0.0051568625
v -3.7345564 -1.2433853 0.0057062553
v -1.3846397 -1.2433853 0.005706266
v -1.2717676 1.2433853 -0.032951497
v -1.2832997 1.2433853 -0.032951497
v -3.7345564 -1.2078724 0.005154194
v -1.2717676 1.2433853 -0.032951497
v -3.7345564 -1.2078724 0.005154194
v -3.7345564 -1.208044 0.0051568625
v 1.2166996 1.2433853 0.005732418
v -1.2717676 1.2433853 0.005732418
v -1.2717667 -1.2433853 0.0057326555
v 1.2166996 1.2433853 0.005732418
v -1.2717667 -1.2433853 0.0057326555
v -1.2700691 -1.2433853 0.0057326555
v 1.2282324 1.2433853 0.005732418
v -1.2700613 -1.2433853 0.0057326555
v 1.2282343 -1.2433853 0.0057326555
v 1.2282324 1.2433853 0.005732418
v 1.2166996 1.2433853 0.005732418
v -1.2700691 -1.2433853 0.0057326555
v 1.2282324 1.2433853 0.005732418
v -1.2700691 -1.2433853 0.0057326555
v -1.2700613 -1.2433853 0.0057326555
v 1.2282324 1.2433853 0.005732418
v 1.2282343 -1.2433853 0.0057326555
v 1.2282337 -0.47089612 0.050000016
v 1.2282324 1.2433853 0.005732418
v 1.2282337 -0.47089612 0.050000016
v 1.2282324 1.2433853 0.050000012
v 1.2282343 -1.2433853 0.0057326555
v 1.2282343 -1.2433853 0.0058298185
v 1.2282337 -0.47206575 0.050000016
v 1.2282343 -1.2433853 0.0057326555
v 1.2282337 -0.47206575 0.050000016
v 1.2282337 -0.47089612 0.050000016
v 1.2282343 -1.2433853 0.0058302674
v 1.2282343 -1.2433853 0.050000012
v 1.2282337 -0.47563186 0.05000001
v 1.2282343 -1.2433853 0.0058298185
v 1.2282337 -0.47562644 0.050000012
v 1.2282337 -0.47206584 0.050000012
v 1.2282343 -1.2433853 0.0058298185
v 1.2282343 -1.2433853 0.005830269
v 1.2282337 -0.47563186 0.050000012
v 1.2282343 -1.2433853 0.0058298185
v 1.2282337 -0.47563186 0.050000012
v 1.2282337 -0.47562638 0.050000016
v 3.7345564 -1.2387156 0.0056335744
v 3.7282124 1.2433853 -0.004222046
v 3.7281828 -1.2433853 0.005725839
v 3.7345564 -1.2387156 0.0056335744
v 3.7281828 -1.2433853 0.005725839
v 3.7298868 -1.2433853 0.0057061664
v 3.7282124 1.2433853 -0.004222046
v 3.7281828 1.2433853 -0.004221706
v 3.7281828 -1.2433853 0.005725839
v 3.7282124 1.2433853 -0.004222046
v 3.7281828 -1.2433853 0.005725839
v 3.7281828 -1.2433853 0.005725839
v 3.7345564 -1.2387156 0.0056335744
v 3.7345564 1.2433854 -0.004295292
v 3.7282124 1.2433854 -0.0042220466
v 3.7345564 -1.2387156 0.005633575
v 3.7298868 -1.2433853 0.0057061664
v 3.7345564 -1.2433853 0.0057061664
v 3.7281828 1.2433853 0.005732418
v 1.2298952 -1.2433853 0.0057326555
v 3.7281828 -1.2433853 0.0057326555
v 3.7281828 1.2433853 0.005732418
v 3.716657 1.2433853 0.005732418
v 1.2298874 -1.2433853 0.0057326555
v 3.7281828 1.2433853 0.005732418
v 1.2298874 -1.2433853 0.0057326555
v 1.2298952 -1.2433853 0.0057326555
v 3.716657 1.2433853 0.005732418
v 1.2281828 1.2433853 0.005732418
v 1.2281828 -1.2433853 0.0057326555
v 3.716657 1.2433853 0.005732418
v 1.2281828 -1.2433853 0.0057326555
v 1.2298874 -1.2433853 0.0057326555
v 0.06167698 -1.233238 -0.03739345
v 0.06514488 -1.2433853 -0.037348203
v 0.08236074 -1.2433853 -0.037123587
v 0.06167698 -1.233238 -0.03739345
v 0.0566996 -1.2433853 -0.03745839
v 0.06514488 -1.2433853 -0.037348203
v 0.06167698 -1.233238 -0.03739345
v 0.056698084 -1.2433853 -0.037342224
v 0.0566996 -1.2433853 -0.03745839
v 0.06167698 -1.233238 -0.03739345
v 0.06134224 -1.233238 -0.01169765
v 0.056364853 -1.2433853 -0.011762594
v 0.06167698 -1.233238 -0.03739345
v 0.056364853 -1.2433853 -0.011762594
v 0.056698076 -1.2433853 -0.037342224
vt 0.3659668 1.2216797
vt 0.3659668 1.2216797
vt 0.3659668 0.9111328
vt 0.3659668 1.2216797
vt 0.3659668 0.9111328
vt 0.3659668 0.9111328
vt 0.36743164 1.2216797
vt 0.6738281 1.2216797
vt 0.6738281 0.91552734
vt 0.3659668 1.2216797
vt 0.6738281 0.91552734
vt 0.38012695 0.9111328
vt 0.3659668 1.2216797
vt 0.38012695 0.9111328
vt 0.3659668 0.9111328
vt 0.6738281 0.91552734
vt 0.6738281 0.9111328
vt 0.38012695 0.9111328
vt 0.3659668 1.2216797
vt 0.36743164 1.2216797
vt 0.6738281 0.91552734
vt 0.3659668 1.2216797
vt 0.6738281 0.91552734
vt 0.6738281 0.91552734
vt 0.05496216 1.2216797
vt 0.3659668 1.2216797
vt 0.3659668 0.9111328
vt 0.05496216 1.2216797
vt 0.3659668 0.9111328
vt 0.36572266 0.9111328
vt 0.053527832 1.2216797
vt 0.36572266 0.9111328
vt 0.053527832 0.9111328
vt 0.053527832 1.2216797
vt 0.05496216 1.2216797
vt 0.36572266 0.9111328
vt 0.053527832 1.2216797
vt 0.36572266 0.9111328
vt 0.36572266 0.9111328
vt 0.053527832 1.2216797
vt 0.053527832 0.9111328
vt 0.053527832 1.0078125
vt 0.053527832 1.2216797
vt 0.053527832 1.0078125
vt 0.053527832 1.2216797
vt 0.053527832 0.9111328
vt 0.053527832 0.9111328
vt 0.053527832 1.0078125
vt 0.053527832 0.9111328
vt 0.053527832 1.0078125
vt 0.053527832 1.0078125
vt 0.053527832 0.9111328
vt 0.053527832 0.9111328
vt 0.053527832 1.0068359
vt 0.053527832 0.9111328
vt 0.053527832 1.0068359
vt 0.053527832 1.0078125
vt 0.053527832 0.9111328
vt 0.053527832 0.9111328
vt 0.053527832 1.0068359
vt 0.053527832 0.9111328
vt 0.053527832 1.0068359
vt 0.053527832 1.0068359
vt -0.25976562 0.9116211
vt -0.2590332 1.2216797
vt -0.2590332 0.9111328
vt -0.25976562 0.9116211
vt -0.2590332 0.9111328
vt -0.25927734 0.9111328
vt -0.2590332 1.2216797
vt -0.2590332 1.2216797
vt -0.2590332 0.9111328
vt -0.2590332 1.2216797
vt -0.2590332 0.9111328
vt -0.2590332 0.9111328
vt -0.25976562 0.9116211
vt -0.25976562 1.2216797
vt -0.2590332 1.2216797
vt -0.25976562 0.9116211
vt -0.25927734 0.9111328
vt -0.25976562 0.9111328
vt -0.2590332 1.2216797
vt 0.05331421 0.9111328
vt -0.2590332 0.9111328
vt -0.2590332 1.2216797
vt -0.25756836 1.2216797
vt 0.05331421 0.9111328
vt -0.2590332 1.2216797
vt 0.05331421 0.9111328
vt 0.05331421 0.9111328
vt -0.25756836 1.2216797
vt 0.053527832 1.2216797
vt 0.053527832 0.9111328
vt -0.25756836 1.2216797
vt 0.053527832 0.9111328
vt 0.05331421 0.9111328
vt 0.19934082 0.91259766
vt 0.19885254 0.9111328
vt 0.19677734 0.9111328
vt 0.19934082 0.91259766
vt 0.19995117 0.9111328
vt 0.19885254 0.9111328
vt 0.19934082 0.91259766
vt 0.19995117 0.9111328
vt 0.19995117 0.9111328
vt 0.19934082 0.91259766
vt 0.19934082 0.91259766
vt 0.19995117 0.9111328
vt 0.19934082 0.91259766
vt 0.19995117 0.9111328
vt 0.19995117 0.9111328
vn 1 2.9802322E-07 -5.9604645E-08
vn 1 2.9802322E-07 -5.9604645E-08
vn 1 2.9802322E-07 -5.9604645E-08
vn 1 2.9802322E-07 -5.9604645E-08
vn 1 2.9802322E-07 -5.9604645E-08
vn 1 2.9802322E-07 -5.9604645E-08
vn -0.005756378 -0.009742737 -1
vn -0.005756378 -0.009742737 -1
vn -0.0019817352 -0.0033550262 -1
vn -0.005760193 -0.009750366 -1
vn -0.0019817352 -0.0033550262 -1
vn -0.0028438568 -0.004814148 -1
vn -0.005760193 -0.009750366 -1
vn -0.0028438568 -0.004814148 -1
vn -0.0028877258 -0.004890442 -1
vn -0.0019817352 -0.0033550262 -1
vn -0.0019407272 -0.0032844543 -1
vn -0.0028438568 -0.004814148 -1
vn -0.005760193 -0.009750366 -1
vn -0.005756378 -0.009742737 -1
vn -0.0019817352 -0.0033550262 -1
vn -0.005760193 -0.009750366 -1
vn -0.0019817352 -0.0033550262 -1
vn -0.0019817352 -0.0033550262 -1
vn -1.335144E-05 -2.2649765E-05 -1
vn -1.335144E-05 -2.2649765E-05 -1
vn -0.0028839111 -0.0048828125 -1
vn -1.335144E-05 -2.2649765E-05 -1
vn -0.0028839111 -0.0048828125 -1
vn -0.0028839111 -0.0048828125 -1
vn 3.9458275E-05 6.1392784E-06 -1
vn -0.0028839111 -0.0048828125 -1
vn 0.008552551 0.0013561249 -1
vn 3.9458275E-05 6.1392784E-06 -1
vn -1.335144E-05 -2.2649765E-05 -1
vn -0.0028839111 -0.0048828125 -1
vn 3.9458275E-05 6.1392784E-06 -1
vn -0.0028839111 -0.0048828125 -1
vn -0.0028839111 -0.0048828125 -1
vn 1 2.3841858E-07 -5.9604645E-08
vn 1 2.3841858E-07 -5.9604645E-08
vn 1 2.3841858E-07 -5.9604645E-08
vn 1 2.3841858E-07 -5.9604645E-08
vn 1 2.3841858E-07 -5.9604645E-08
vn 1 2.3841858E-07 -5.9604645E-08
vn 1 2.3841858E-07 -5.9604645E-08
vn 1 2.3841858E-07 -5.9604645E-08
vn 1 2.3841858E-07 -5.9604645E-08
vn 1 2.3841858E-07 -5.9604645E-08
vn 1 2.3841858E-07 -5.9604645E-08
vn 1 2.3841858E-07 -5.9604645E-08
vn 1 2.3841858E-07 -5.9604645E-08
vn 1 2.3841858E-07 -5.9604645E-08
vn 1 2.3841858E-07 -5.9604645E-08
vn 1 2.3841858E-07 -5.9604645E-08
vn 1 2.3841858E-07 -5.9604645E-08
vn 1 2.3841858E-07 -5.9604645E-08
vn 1 2.3841858E-07 -5.9604645E-08
vn 1 2.3841858E-07 -5.9604645E-08
vn 1 2.3841858E-07 -5.9604645E-08
vn 1 2.3841858E-07 -5.9604645E-08
vn 1 2.3841858E-07 -5.9604645E-08
vn 1 2.3841858E-07 -5.9604645E-08
vn -0.0019340515 -0.0032749176 -1
vn -0.005756378 -0.009742737 -1
vn -0.0019264221 -0.0032615662 -1
vn -0.0019340515 -0.0032749176 -1
vn -0.0019264221 -0.0032615662 -1
vn -0.0019264221 -0.0032615662 -1
vn -0.005756378 -0.009742737 -1
vn -0.005756378 -0.009742737 -1
vn -0.0019264221 -0.0032615662 -1
vn -0.005756378 -0.009742737 -1
vn -0.0019264221 -0.0032615662 -1
vn -0.0019264221 -0.0032615662 -1
vn -0.0019340515 -0.0032749176 -1
vn -0.005756378 -0.009742737 -1
vn -0.005756378 -0.009742737 -1
vn -0.0019340515 -0.0032749176 -1
vn -0.0019264221 -0.0032615662 -1
vn -0.0019283295 -0.0032653809 -1
vn -8.940697E-06 -1.513958E-05 -1
vn -5.9604645E-08 -1.1920929E-07 -1
vn -0.0019226074 -0.003255844 -1
vn -8.940697E-06 -1.513958E-05 -1
vn -5.9604645E-08 -1.1920929E-07 -1
vn -5.9604645E-08 -1.1920929E-07 -1
vn -8.940697E-06 -1.513958E-05 -1
vn -5.9604645E-08 -1.1920929E-07 -1
vn -5.9604645E-08 -1.1920929E-07 -1
vn -5.9604645E-08 -1.1920929E-07 -1
vn -5.9604645E-08 -1.1920929E-07 -1
vn -5.9604645E-08 -1.1920929E-07 -1
vn -5.9604645E-08 -1.1920929E-07 -1
vn -5.9604645E-08 -1.1920929E-07 -1
vn -5.9604645E-08 -1.1920929E-07 -1
vn 0.013046265 -5.9604645E-08 -1
vn 0.013046265 -5.9604645E-08 -1
vn 0.013046265 -5.9604645E-08 -1
vn 0.013046265 -5.9604645E-08 -1
vn 0.013046265 -5.9604645E-08 -1
vn 0.013046265 -5.9604645E-08 -1
vn -0.8979492 0.4404297 -0.011711121
vn -0.8979492 0.4404297 -0.011711121
vn -0.8979492 0.4404297 -0.011711121
vn -0.8979492 0.4404297 -0.011711121
vn -0.8979492 0.4404297 -0.011711121
vn -0.8979492 0.4404297 -0.011711121
vn -0.8979492 0.4404297 -0.011711121
vn -0.8979492 0.4404297 -0.011711121
vn -0.8979492 0.4404297 -0.011711121
g DecalMesh_Common_Decal_Crack_01__35_0
f 3/3/3 2/2/2 1/1/1
f 6/6/6 5/5/5 4/4/4
f 9/9/9 8/8/8 7/7/7
f 12/12/12 11/11/11 10/10/10
f 15/15/15 14/14/14 13/13/13
f 18/18/18 17/17/17 16/16/16
f 21/21/21 20/20/20 19/19/19
f 24/24/24 23/23/23 22/22/22
f 27/27/27 26/26/26 25/25/25
f 30/30/30 29/29/29 28/28/28
f 33/33/33 32/32/32 31/31/31
f 36/36/36 35/35/35 34/34/34
f 39/39/39 38/38/38 37/37/37
f 42/42/42 41/41/41 40/40/40
f 45/45/45 44/44/44 43/43/43
f 48/48/48 47/47/47 46/46/46
f 51/51/51 50/50/50 49/49/49
f 54/54/54 53/53/53 52/52/52
f 57/57/57 56/56/56 55/55/55
f 60/60/60 59/59/59 58/58/58
f 63/63/63 62/62/62 61/61/61
f 66/66/66 65/65/65 64/64/64
f 69/69/69 68/68/68 67/67/67
f 72/72/72 71/71/71 70/70/70
f 75/75/75 74/74/74 73/73/73
f 78/78/78 77/77/77 76/76/76
f 81/81/81 80/80/80 79/79/79
f 84/84/84 83/83/83 82/82/82
f 87/87/87 86/86/86 85/85/85
f 90/90/90 89/89/89 88/88/88
f 93/93/93 92/92/92 91/91/91
f 96/96/96 95/95/95 94/94/94
f 99/99/99 98/98/98 97/97/97
f 102/102/102 101/101/101 100/100/100
f 105/105/105 104/104/104 103/103/103
f 108/108/108 107/107/107 106/106/106
f 111/111/111 110/110/110 109/109/109
