g DecalMesh_Common_Decal_Sign_16__82
v -0.06779147 0.23132908 -0.43091965
v -0.1896637 0.23132908 -0.43091962
v -0.1896637 0.1337686 -0.43091962
v 0.19566375 0.23132908 -0.43091968
v -0.18966368 -0.010188535 -0.43091962
v -0.066273056 -0.23132908 -0.43091965
v 0.19566375 0.23132908 -0.43091968
v -0.066273056 -0.23132908 -0.43091965
v 0.19566372 -0.23132907 -0.43091968
v -0.18966368 -0.010188535 -0.43091962
v -0.1896637 -0.2313291 -0.43091962
v -0.066273056 -0.23132908 -0.43091965
v 0.19566375 0.23132908 -0.43091968
v -0.067791484 0.23132908 -0.43091965
v -0.18966368 0.13376863 -0.43091962
v 0.19566375 0.23132908 -0.43091968
v -0.18966368 0.13376863 -0.43091962
v -0.18966368 -0.010188535 -0.43091962
vt -0.020629883 0.9121094
vt -0.00844574 0.9121094
vt -0.00844574 0.90234375
vt -0.046966553 0.9121094
vt -0.00844574 0.8876953
vt -0.02078247 0.86572266
vt -0.046966553 0.9121094
vt -0.02078247 0.86572266
vt -0.046966553 0.86572266
vt -0.00844574 0.8876953
vt -0.00844574 0.86572266
vt -0.02078247 0.86572266
vt -0.046966553 0.9121094
vt -0.020629883 0.9121094
vt -0.00844574 0.90234375
vt -0.046966553 0.9121094
vt -0.00844574 0.90234375
vt -0.00844574 0.8876953
vn -1.1920929E-07 0 -1
vn -1.1920929E-07 0 -1
vn -1.1920929E-07 0 -1
vn -1.1920929E-07 0 -1
vn -1.1920929E-07 0 -1
vn -1.1920929E-07 0 -1
vn -1.1920929E-07 0 -1
vn -1.1920929E-07 0 -1
vn -1.1920929E-07 0 -1
vn -1.1920929E-07 0 -1
vn -1.1920929E-07 0 -1
vn -1.1920929E-07 0 -1
vn -1.1920929E-07 0 -1
vn -1.1920929E-07 0 -1
vn -1.1920929E-07 0 -1
vn -1.1920929E-07 0 -1
vn -1.1920929E-07 0 -1
vn -1.1920929E-07 0 -1
g DecalMesh_Common_Decal_Sign_16__82_0
f 3/3/3 2/2/2 1/1/1
f 6/6/6 5/5/5 4/4/4
f 9/9/9 8/8/8 7/7/7
f 12/12/12 11/11/11 10/10/10
f 15/15/15 14/14/14 13/13/13
f 18/18/18 17/17/17 16/16/16
