g DecalMesh_MetroArea_Decal_Ground_15__3
v 1.0385652 1.0473489 -0.7328393
v -1.0385652 0.5004238 -0.7328395
v 0.80124253 -1.0473487 -0.73283947
v 1.0385652 1.0473489 -0.7328393
v 0.80124253 -1.0473487 -0.73283947
v 1.0385652 -1.0473487 -0.73283947
v -1.0385652 0.5004238 -0.7328395
v -1.0385652 -1.0473487 -0.73283964
v 0.8012425 -1.0473487 -0.73283947
v 1.0385652 1.0473489 -0.7328393
v -1.0385653 1.0473487 -0.73283947
v -1.0385653 0.5004237 -0.7328395
vt 0.0018415451 0.5517578
vt 0.14025879 0.5151367
vt 0.017669678 0.41186523
vt 0.0018415451 0.5517578
vt 0.017669678 0.41186523
vt 0.0018415451 0.41186523
vt 0.14025879 0.5151367
vt 0.14025879 0.41186523
vt 0.017669678 0.41186523
vt 0.0018415451 0.5517578
vt 0.14025879 0.5517578
vt 0.14025879 0.5151367
vn -0 5.9604645E-08 -1
vn -0 5.9604645E-08 -1
vn -0 5.9604645E-08 -1
vn -0 5.9604645E-08 -1
vn -0 5.9604645E-08 -1
vn -0 5.9604645E-08 -1
vn -0 5.9604645E-08 -1
vn -0 5.9604645E-08 -1
vn -0 5.9604645E-08 -1
vn -0 5.9604645E-08 -1
vn -0 5.9604645E-08 -1
vn -0 5.9604645E-08 -1
g DecalMesh_MetroArea_Decal_Ground_15__3_0
f 3/3/3 2/2/2 1/1/1
f 6/6/6 5/5/5 4/4/4
f 9/9/9 8/8/8 7/7/7
f 12/12/12 11/11/11 10/10/10
