g DecalMesh_MetroArea_Decal_Ground_24__39
v -0 1 -0.4953929
v -0 -1 -0.4953927
v -0 -1 -0.4953927
v -0 1 -0.4953929
v -0 1 -0.4953929
v -0 -1 -0.4953927
v -0 1 -0.4953929
v -0 -1 -0.4953927
v -0 -1 -0.4953927
v -0 0.99999994 -0.4953929
v -0 0.99999994 -0.4953929
v -0 -1 -0.4953927
v -0 0.99999994 -0.4953929
v -0 -1 -0.4953927
v -0 -1 -0.4953927
v -0 0.99999994 -0.4953929
v -0 1 -0.31746164
v -0 -1 -0.4118547
v -0 0.99999994 -0.4953929
v -0 -1 -0.4118547
v -0 -1 -0.4953927
v -0 1 -0.31746164
v -0 -1 -0.3117032
v -0 -1 -0.4118547
v -0 1 -0.31746164
v -0 1 -0.30660644
v -0 -1 -0.30660674
v -0 1 -0.31746164
v -0 -1 -0.30660674
v -0 -1 -0.3117032
v -0 1 -0.4953929
v -0 -1 -0.4953927
v -0 -1 -0.4953927
v -0 1 -0.4953929
v -0 1 -0.4953929
v -0 -1 -0.4953927
v -0 1 -0.4953929
v -0 -1 -0.4953927
v -0 -1 -0.4953927
v -0 0.99999994 -0.4953929
v -0 0.99999994 -0.4953929
v -0 -1 -0.4953927
v -0 0.99999994 -0.4953929
v -0 -1 -0.4953927
v -0 -1 -0.4953927
v -0 1 -0.30660644
v -0 -1 -0.40675825
v -0 -1 -0.30660674
v -0 1 -0.30660644
v -0 1 -0.31746164
v -0 -1 -0.4118547
v -0 1 -0.30660644
v -0 -1 -0.4118547
v -0 -1 -0.40675825
v -0 1 -0.31746164
v -0 0.99999994 -0.4953929
v -0 -1 -0.4953927
v -0 1 -0.31746164
v -0 -1 -0.4953927
v -0 -1 -0.4118547
v 0 -0.63029575 -0.47443575
v -0 -0.6302956 -0.5
v -0 -0.6302992 -0.5
v 0 -0.63029575 -0.47443575
v -0 -0.6302992 -0.5
v -0 -0.6303012 -0.5
v 0 -0.63029385 -0.22565168
v 0 -0.63029575 -0.47443575
v -0 -0.6303012 -0.5
v 0 -0.63029385 -0.22565168
v -0 -0.6303012 -0.5
v -0 -0.63033235 -0.5
v 0 -0.63029385 -0.22565168
v -0 -0.63033235 -0.5
v -0 -0.63032347 -0.5
vt 0.36743164 0.48486328
vt 0.36743164 0.3112793
vt 0.36743164 0.3112793
vt 0.36743164 0.48486328
vt 0.36743164 0.48486328
vt 0.36743164 0.3112793
vt 0.36743164 0.48486328
vt 0.36743164 0.3112793
vt 0.36743164 0.3112793
vt 0.36743164 0.48486328
vt 0.36743164 0.48486328
vt 0.36743164 0.3112793
vt 0.36743164 0.48486328
vt 0.36743164 0.3112793
vt 0.36743164 0.3112793
vt 0.36743164 0.48486328
vt 0.36743164 0.48486328
vt 0.36743164 0.3112793
vt 0.36743164 0.48486328
vt 0.36743164 0.3112793
vt 0.36743164 0.3112793
vt 0.36743164 0.48486328
vt 0.36743164 0.3112793
vt 0.36743164 0.3112793
vt 0.36743164 0.48486328
vt 0.36743164 0.48486328
vt 0.36743164 0.3112793
vt 0.36743164 0.48486328
vt 0.36743164 0.3112793
vt 0.36743164 0.3112793
vt 0.36743164 0.48486328
vt 0.36743164 0.3112793
vt 0.36743164 0.3112793
vt 0.36743164 0.48486328
vt 0.36743164 0.48486328
vt 0.36743164 0.3112793
vt 0.36743164 0.48486328
vt 0.36743164 0.3112793
vt 0.36743164 0.3112793
vt 0.36743164 0.48486328
vt 0.36743164 0.48486328
vt 0.36743164 0.3112793
vt 0.36743164 0.48486328
vt 0.36743164 0.3112793
vt 0.36743164 0.3112793
vt 0.36743164 0.48486328
vt 0.36743164 0.3112793
vt 0.36743164 0.3112793
vt 0.36743164 0.48486328
vt 0.36743164 0.48486328
vt 0.36743164 0.3112793
vt 0.36743164 0.48486328
vt 0.36743164 0.3112793
vt 0.36743164 0.3112793
vt 0.36743164 0.48486328
vt 0.36743164 0.48486328
vt 0.36743164 0.3112793
vt 0.36743164 0.48486328
vt 0.36743164 0.3112793
vt 0.36743164 0.3112793
vt 0.36743164 0.34326172
vt 0.36743164 0.34326172
vt 0.36743164 0.34326172
vt 0.36743164 0.34326172
vt 0.36743164 0.34326172
vt 0.36743164 0.34326172
vt 0.36743164 0.34326172
vt 0.36743164 0.34326172
vt 0.36743164 0.34326172
vt 0.36743164 0.34326172
vt 0.36743164 0.34326172
vt 0.36743164 0.34326172
vt 0.36743164 0.34326172
vt 0.36743164 0.34326172
vt 0.36743164 0.34326172
vn -0 -1.1920929E-07 -1
vn -0 -1.1920929E-07 -1
vn -0 -1.1920929E-07 -1
vn -0 -1.1920929E-07 -1
vn -0 -1.1920929E-07 -1
vn -0 -1.1920929E-07 -1
vn -0 -1.1920929E-07 -1
vn -0 -1.1920929E-07 -1
vn -0 -1.1920929E-07 -1
vn -0 -1.1920929E-07 -1
vn -0 -1.1920929E-07 -1
vn -0 -1.1920929E-07 -1
vn -0 -1.1920929E-07 -1
vn -0 -1.1920929E-07 -1
vn -0 -1.1920929E-07 -1
vn -1 0 0
vn -1 0 0
vn -1 0 0
vn -1 0 0
vn -1 0 0
vn -1 0 0
vn -1 0 0
vn -1 0 0
vn -1 0 0
vn -1 0 0
vn -1 0 0
vn -1 0 0
vn -1 0 0
vn -1 0 0
vn -1 0 0
vn -0 -1.1920929E-07 -1
vn -0 -1.1920929E-07 -1
vn -0 -1.1920929E-07 -1
vn -0 -1.1920929E-07 -1
vn -0 -1.1920929E-07 -1
vn -0 -1.1920929E-07 -1
vn -0 -1.1920929E-07 -1
vn -0 -1.1920929E-07 -1
vn -0 -1.1920929E-07 -1
vn -0 -1.1920929E-07 -1
vn -0 -1.1920929E-07 -1
vn -0 -1.1920929E-07 -1
vn -0 -1.1920929E-07 -1
vn -0 -1.1920929E-07 -1
vn -0 -1.1920929E-07 -1
vn 1 0 0
vn 1 0 0
vn 1 0 0
vn 1 0 0
vn 1 0 0
vn 1 0 0
vn 1 0 0
vn 1 0 0
vn 1 0 0
vn 1 0 0
vn 1 0 0
vn 1 0 0
vn 1 0 0
vn 1 0 0
vn 1 0 0
vn 1.4483929E-05 1 -0.00021123886
vn 1.4603138E-05 1 -0.00021111965
vn 1.4483929E-05 1 -0.00021123886
vn 1.4483929E-05 1 -0.00021123886
vn 1.4483929E-05 1 -0.00021123886
vn 1.4424324E-05 1 -0.00021100044
vn -4.4107437E-06 1 -0.000115156174
vn 1.4483929E-05 1 -0.00021123886
vn 1.4424324E-05 1 -0.00021100044
vn -4.4107437E-06 1 -0.000115156174
vn 1.4424324E-05 1 -0.00021100044
vn 2.6226044E-06 1 -0.00015091896
vn -4.4107437E-06 1 -0.000115156174
vn 2.6226044E-06 1 -0.00015091896
vn -5.2452087E-06 1 -0.000110566616
g DecalMesh_MetroArea_Decal_Ground_24__39_0
f 3/3/3 2/2/2 1/1/1
f 6/6/6 5/5/5 4/4/4
f 9/9/9 8/8/8 7/7/7
f 12/12/12 11/11/11 10/10/10
f 15/15/15 14/14/14 13/13/13
f 18/18/18 17/17/17 16/16/16
f 21/21/21 20/20/20 19/19/19
f 24/24/24 23/23/23 22/22/22
f 27/27/27 26/26/26 25/25/25
f 30/30/30 29/29/29 28/28/28
f 33/33/33 32/32/32 31/31/31
f 36/36/36 35/35/35 34/34/34
f 39/39/39 38/38/38 37/37/37
f 42/42/42 41/41/41 40/40/40
f 45/45/45 44/44/44 43/43/43
f 48/48/48 47/47/47 46/46/46
f 51/51/51 50/50/50 49/49/49
f 54/54/54 53/53/53 52/52/52
f 57/57/57 56/56/56 55/55/55
f 60/60/60 59/59/59 58/58/58
f 63/63/63 62/62/62 61/61/61
f 66/66/66 65/65/65 64/64/64
f 69/69/69 68/68/68 67/67/67
f 72/72/72 71/71/71 70/70/70
f 75/75/75 74/74/74 73/73/73
