g DecalMesh_Common_Decal_Sign_07__19
v 0.25380084 0.34110928 0.002682931
v 0.0626119 -0.34110928 0.010409037
v 0.25380084 -0.34110928 0.027972678
v 0.25380084 0.34110928 0.002682931
v 0.11408571 0.34110928 -0.010152048
v -0.02782636 -0.34110925 0.0021008942
v 0.25380084 0.34110928 0.002682931
v -0.02782636 -0.34110925 0.0021008942
v 0.057993725 -0.34110925 0.009984787
v 0.25380084 0.34110928 0.002682931
v 0.05799371 -0.3411093 0.009984787
v 0.0626119 -0.34110928 0.010409037
v 0.114085734 0.34110928 -0.010152049
v -0.25380087 0.34110937 -0.043948084
v -0.25380087 -0.3411093 -0.018658334
v 0.114085734 0.34110928 -0.010152049
v -0.25380087 -0.3411093 -0.018658334
v -0.027826346 -0.34110925 0.0021008928
vt -0.58447266 0.9970703
vt -0.5498047 0.86083984
vt -0.58447266 0.86083984
vt -0.58447266 0.9970703
vt -0.55908203 0.9970703
vt -0.5336914 0.86083984
vt -0.58447266 0.9970703
vt -0.5336914 0.86083984
vt -0.5493164 0.86083984
vt -0.58447266 0.9970703
vt -0.5493164 0.86083984
vt -0.5498047 0.86083984
vt -0.55908203 0.9970703
vt -0.49291992 0.9970703
vt -0.49291992 0.86083984
vt -0.55908203 0.9970703
vt -0.49291992 0.86083984
vt -0.5336914 0.86083984
vn 0.07672119 -0.036956787 -0.99609375
vn 0.088012695 -0.036895752 -0.9951172
vn 0.07672119 -0.036956787 -0.99609375
vn 0.07672119 -0.036956787 -0.99609375
vn 0.08496094 -0.03692627 -0.99560547
vn 0.093322754 -0.036865234 -0.9946289
vn 0.07672119 -0.036956787 -0.99609375
vn 0.093322754 -0.036865234 -0.9946289
vn 0.08831787 -0.036895752 -0.9951172
vn 0.07672119 -0.036956787 -0.99609375
vn 0.08831787 -0.036895752 -0.9951172
vn 0.088012695 -0.036895752 -0.9951172
vn 0.08496094 -0.03692627 -0.99560547
vn 0.10662842 -0.0368042 -0.99365234
vn 0.10668945 -0.0368042 -0.99365234
vn 0.08496094 -0.03692627 -0.99560547
vn 0.10668945 -0.0368042 -0.99365234
vn 0.093322754 -0.036865234 -0.9946289
g DecalMesh_Common_Decal_Sign_07__19_0
f 3/3/3 2/2/2 1/1/1
f 6/6/6 5/5/5 4/4/4
f 9/9/9 8/8/8 7/7/7
f 12/12/12 11/11/11 10/10/10
f 15/15/15 14/14/14 13/13/13
f 18/18/18 17/17/17 16/16/16
