g DecalMesh_MetroArea_Decal_Graffiti_21__68
v -0.544286 0.026123788 -0.079404384
v -0.544286 -0.15136869 -0.079001985
v -0.534996 -0.15136869 -0.07896932
v -0.49894 0.15136869 -0.114509
v -0.5342248 -0.1513687 -0.11394727
v -0.48309457 -0.15136868 -0.11376695
v -0.49894 0.15136869 -0.114509
v -0.544286 0.15136865 -0.11466893
v -0.544286 -0.15136869 -0.11398276
v -0.49894 0.15136869 -0.114509
v -0.544286 -0.15136869 -0.11398276
v -0.5342248 -0.15136869 -0.11394727
v -0.544286 0.026123788 -0.079404384
v -0.544286 -0.15136869 -0.079001985
v -0.534996 -0.15136869 -0.07896932
v -0.49894 0.15136869 -0.11450917
v -0.5342248 -0.1513687 -0.11394789
v -0.48309457 -0.15136868 -0.11376703
v -0.49894 0.15136869 -0.11450917
v -0.544286 0.15136865 -0.11466958
v -0.544286 -0.15136869 -0.11398348
v -0.49894 0.15136869 -0.11450917
v -0.544286 -0.15136869 -0.11398348
v -0.5342248 -0.15136869 -0.11394789
v -0.544286 0.026123788 -0.079404384
v -0.544286 -0.15136869 -0.079001985
v -0.534996 -0.15136869 -0.07896932
v -0.49894 0.15136869 -0.11450917
v -0.5342248 -0.1513687 -0.11394789
v -0.48309457 -0.15136868 -0.11376703
v -0.49894 0.15136869 -0.11450917
v -0.544286 0.15136865 -0.11466958
v -0.544286 -0.15136869 -0.11398348
v -0.49894 0.15136869 -0.11450917
v -0.544286 -0.15136869 -0.11398348
v -0.5342248 -0.15136869 -0.11394789
v 0.13044037 0.15136866 -0.07731594
v -0.20648542 -0.15136868 -0.07781426
v 0.39423463 -0.15136869 -0.075702086
v 0.13044037 0.15136866 -0.07731594
v -0.48403898 0.15136869 -0.07947649
v -0.46819356 -0.15136869 -0.07873444
v 0.13044037 0.15136866 -0.07731594
v -0.46819356 -0.15136869 -0.07873444
v -0.20648545 -0.15136869 -0.07781426
v 0.544286 0.15136869 -0.07586083
v 0.13044034 0.15136869 -0.07731594
v 0.39423463 -0.15136869 -0.075702086
v 0.544286 0.15136869 -0.07586083
v 0.39423463 -0.15136869 -0.075702086
v 0.5442861 -0.15136869 -0.075174496
v -0.48403898 0.15136869 -0.07947649
v -0.4768334 -0.15136869 -0.07016586
v -0.46819356 -0.15136869 -0.07873444
v -0.48403898 0.15136869 -0.07947649
v -0.49288407 0.15136866 -0.07070433
v -0.48060775 -0.15136869 -0.06642262
v -0.48403898 0.15136869 -0.07947649
v -0.48060775 -0.15136869 -0.06642262
v -0.4768334 -0.15136869 -0.07016586
v -0.49288407 0.1513687 -0.07070433
v -0.49910977 0.15136868 -0.06452955
v -0.4832644 -0.15136869 -0.063787736
v -0.49288407 0.1513687 -0.07070433
v -0.4832644 -0.15136869 -0.063787736
v -0.48060775 -0.15136869 -0.06642262
v -0.49910977 0.15136868 -0.06452955
v -0.49916717 0.15136865 -0.047640122
v -0.48328888 -0.15136869 -0.056580715
v -0.49910977 0.15136868 -0.06452955
v -0.48328888 -0.15136869 -0.056580715
v -0.4832644 -0.15136869 -0.063787736
v 0.12436503 0.15136868 -0.0773373
v -0.21716443 -0.1513687 -0.0778518
v 0.3920317 -0.15136869 -0.075709835
v 0.12436503 0.15136868 -0.0773373
v -0.49905884 0.15136869 -0.0795293
v -0.48321342 -0.15136869 -0.07878725
v 0.12436503 0.15136868 -0.0773373
v -0.48321342 -0.15136869 -0.07878725
v -0.21716441 -0.15136869 -0.0778518
v 0.544286 0.15136869 -0.075860836
v 0.12436503 0.15136868 -0.0773373
v 0.3920317 -0.15136869 -0.075709835
v 0.544286 0.15136869 -0.075860836
v 0.3920317 -0.15136869 -0.075709835
v 0.54428595 -0.15136869 -0.075174496
v -0.49915832 0.15136869 -0.050240383
v -0.48339394 -0.15136869 -0.025658645
v -0.4832559 -0.15136869 -0.06628807
v -0.49915832 0.15136869 -0.050240383
v -0.4992996 0.15136865 -0.008665797
v -0.4834542 -0.15136869 -0.00792375
v -0.49915832 0.15136869 -0.050240383
v -0.4834542 -0.15136869 -0.00792375
v -0.48339394 -0.15136869 -0.025658645
v -0.49905884 0.15136869 -0.0795293
v -0.49915832 0.15136869 -0.050240383
v -0.4832559 -0.15136869 -0.06628807
v -0.49905884 0.15136869 -0.0795293
v -0.4832559 -0.15136869 -0.06628807
v -0.48321342 -0.15136869 -0.07878725
v 0.12436503 0.15136868 -0.0773373
v -0.21716443 -0.1513687 -0.0778518
v 0.3920317 -0.15136869 -0.075709835
v 0.12436503 0.15136868 -0.0773373
v -0.49905884 0.15136869 -0.0795293
v -0.48321342 -0.15136869 -0.07878725
v 0.12436503 0.15136868 -0.0773373
v -0.48321342 -0.15136869 -0.07878725
v -0.21716441 -0.15136869 -0.0778518
v 0.544286 0.15136869 -0.075860836
v 0.12436503 0.15136868 -0.0773373
v 0.3920317 -0.15136869 -0.075709835
v 0.544286 0.15136869 -0.075860836
v 0.3920317 -0.15136869 -0.075709835
v 0.54428595 -0.15136869 -0.075174496
v -0.49915832 0.15136869 -0.050240383
v -0.48339394 -0.15136869 -0.025658645
v -0.4832559 -0.15136869 -0.06628807
v -0.49915832 0.15136869 -0.050240383
v -0.4992996 0.15136865 -0.008665797
v -0.4834542 -0.15136869 -0.00792375
v -0.49915832 0.15136869 -0.050240383
v -0.4834542 -0.15136869 -0.00792375
v -0.48339394 -0.15136869 -0.025658645
v -0.49905884 0.15136869 -0.0795293
v -0.49915832 0.15136869 -0.050240383
v -0.4832559 -0.15136869 -0.06628807
v -0.49905884 0.15136869 -0.0795293
v -0.4832559 -0.15136869 -0.06628807
v -0.48321342 -0.15136869 -0.07878725
vt 0.9921875 0.07556152
vt 0.9921875 0.007221222
vt 0.9897461 0.007221222
vt 0.98046875 0.12384033
vt 0.9897461 0.007221222
vt 0.9765625 0.007221222
vt 0.98046875 0.12384033
vt 0.9921875 0.12384033
vt 0.9921875 0.007221222
vt 0.98046875 0.12384033
vt 0.9921875 0.007221222
vt 0.9897461 0.007221222
vt 0.9921875 0.07556152
vt 0.9921875 0.007221222
vt 0.9897461 0.007221222
vt 0.98046875 0.12384033
vt 0.9897461 0.007221222
vt 0.9765625 0.007221222
vt 0.98046875 0.12384033
vt 0.9921875 0.12384033
vt 0.9921875 0.007221222
vt 0.98046875 0.12384033
vt 0.9921875 0.007221222
vt 0.9897461 0.007221222
vt 0.9921875 0.07556152
vt 0.9921875 0.007221222
vt 0.9897461 0.007221222
vt 0.98046875 0.12384033
vt 0.9897461 0.007221222
vt 0.9765625 0.007221222
vt 0.98046875 0.12384033
vt 0.9921875 0.12384033
vt 0.9921875 0.007221222
vt 0.98046875 0.12384033
vt 0.9921875 0.007221222
vt 0.9897461 0.007221222
vt 0.81933594 0.12384033
vt 0.9057617 0.007221222
vt 0.7519531 0.007221222
vt 0.81933594 0.12384033
vt 0.9770508 0.12384033
vt 0.97265625 0.007221222
vt 0.81933594 0.12384033
vt 0.97265625 0.007221222
vt 0.9057617 0.007221222
vt 0.7133789 0.12384033
vt 0.81933594 0.12384033
vt 0.7519531 0.007221222
vt 0.7133789 0.12384033
vt 0.7519531 0.007221222
vt 0.7133789 0.007221222
vt 0.9770508 0.12384033
vt 0.97509766 0.007221222
vt 0.97265625 0.007221222
vt 0.9770508 0.12384033
vt 0.9790039 0.12384033
vt 0.9760742 0.007221222
vt 0.9770508 0.12384033
vt 0.9760742 0.007221222
vt 0.97509766 0.007221222
vt 0.9790039 0.12384033
vt 0.98046875 0.12384033
vt 0.9765625 0.007221222
vt 0.9790039 0.12384033
vt 0.9765625 0.007221222
vt 0.9760742 0.007221222
vt 0.98046875 0.12384033
vt 0.98046875 0.12384033
vt 0.9765625 0.007221222
vt 0.98046875 0.12384033
vt 0.9765625 0.007221222
vt 0.9765625 0.007221222
vt 0.8208008 0.12384033
vt 0.9082031 0.007221222
vt 0.7524414 0.007221222
vt 0.8208008 0.12384033
vt 0.98046875 0.12384033
vt 0.9765625 0.007221222
vt 0.8208008 0.12384033
vt 0.9765625 0.007221222
vt 0.9082031 0.007221222
vt 0.7133789 0.12384033
vt 0.8208008 0.12384033
vt 0.7524414 0.007221222
vt 0.7133789 0.12384033
vt 0.7524414 0.007221222
vt 0.7133789 0.007221222
vt 0.98046875 0.12384033
vt 0.9765625 0.007221222
vt 0.9765625 0.007221222
vt 0.98046875 0.12384033
vt 0.98095703 0.12384033
vt 0.9765625 0.007221222
vt 0.98046875 0.12384033
vt 0.9765625 0.007221222
vt 0.9765625 0.007221222
vt 0.98046875 0.12384033
vt 0.98046875 0.12384033
vt 0.9765625 0.007221222
vt 0.98046875 0.12384033
vt 0.9765625 0.007221222
vt 0.9765625 0.007221222
vt 0.8208008 0.12384033
vt 0.9082031 0.007221222
vt 0.7524414 0.007221222
vt 0.8208008 0.12384033
vt 0.98046875 0.12384033
vt 0.9765625 0.007221222
vt 0.8208008 0.12384033
vt 0.9765625 0.007221222
vt 0.9082031 0.007221222
vt 0.7133789 0.12384033
vt 0.8208008 0.12384033
vt 0.7524414 0.007221222
vt 0.7133789 0.12384033
vt 0.7524414 0.007221222
vt 0.7133789 0.007221222
vt 0.98046875 0.12384033
vt 0.9765625 0.007221222
vt 0.9765625 0.007221222
vt 0.98046875 0.12384033
vt 0.98095703 0.12384033
vt 0.9765625 0.007221222
vt 0.98046875 0.12384033
vt 0.9765625 0.007221222
vt 0.9765625 0.007221222
vt 0.98046875 0.12384033
vt 0.98046875 0.12384033
vt 0.9765625 0.007221222
vt 0.98046875 0.12384033
vt 0.9765625 0.007221222
vt 0.9765625 0.007221222
vn 0.0035152435 -0.0022678375 -1
vn 0.0035114288 -0.0022678375 -1
vn 0.0035152435 -0.0022678375 -1
vn 0.0035266876 -0.0022659302 -1
vn 0.0035266876 -0.0022659302 -1
vn 0.0035266876 -0.0022659302 -1
vn 0.0035266876 -0.0022659302 -1
vn 0.0035266876 -0.0022659302 -1
vn 0.0035266876 -0.0022659302 -1
vn 0.0035266876 -0.0022659302 -1
vn 0.0035266876 -0.0022659302 -1
vn 0.0035266876 -0.0022659302 -1
vn 0.0035152435 -0.0022678375 -1
vn 0.0035152435 -0.0022678375 -1
vn 0.0035152435 -0.0022678375 -1
vn 0.0035266876 -0.0022659302 -1
vn 0.0035266876 -0.0022659302 -1
vn 0.0035266876 -0.0022659302 -1
vn 0.0035266876 -0.0022659302 -1
vn 0.0035266876 -0.0022659302 -1
vn 0.0035266876 -0.0022659302 -1
vn 0.0035266876 -0.0022659302 -1
vn 0.0035266876 -0.0022659302 -1
vn 0.0035266876 -0.0022659302 -1
vn 0.0035152435 -0.0022678375 -1
vn 0.0035152435 -0.0022678375 -1
vn 0.0035152435 -0.0022678375 -1
vn 0.0035266876 -0.0022659302 -1
vn 0.0035266876 -0.0022659302 -1
vn 0.0035266876 -0.0022659302 -1
vn 0.0035266876 -0.0022659302 -1
vn 0.0035266876 -0.0022659302 -1
vn 0.0035266876 -0.0022659302 -1
vn 0.0035266876 -0.0022659302 -1
vn 0.0035266876 -0.0022659302 -1
vn 0.0035266876 -0.0022659302 -1
vn 0.001077652 -0.0023937225 -1
vn 0.00089883804 -0.0024032593 -1
vn 0.0012025833 -0.0023880005 -1
vn 0.001077652 -0.0023937225 -1
vn 0.00076675415 -0.0024108887 -1
vn 0.00076675415 -0.0024108887 -1
vn 0.001077652 -0.0023937225 -1
vn 0.00076675415 -0.0024108887 -1
vn 0.00089883804 -0.0024032593 -1
vn 0.0012865067 -0.0023841858 -1
vn 0.001077652 -0.0023937225 -1
vn 0.0012025833 -0.0023880005 -1
vn 0.0012865067 -0.0023841858 -1
vn 0.0012025833 -0.0023880005 -1
vn 0.0012779236 -0.0023841858 -1
vn 0.00076675415 -0.0024108887 -1
vn -0.5522461 -0.030303955 -0.57714844
vn 0.00076675415 -0.0024108887 -1
vn 0.00076675415 -0.0024108887 -1
vn -0.5654297 -0.030975342 -0.5673828
vn -0.79345703 -0.042510986 -0.39257812
vn 0.00076675415 -0.0024108887 -1
vn -0.79345703 -0.042510986 -0.39257812
vn -0.5522461 -0.030303955 -0.57714844
vn -0.5654297 -0.030975342 -0.5673828
vn -0.9633789 -0.051086426 -0.2626953
vn -0.9633789 -0.051086426 -0.2626953
vn -0.5654297 -0.030975342 -0.5673828
vn -0.9633789 -0.051086426 -0.2626953
vn -0.79345703 -0.042510986 -0.39257812
vn -0.9633789 -0.051086426 -0.2626953
vn -0.96435547 -0.050598145 -0.04824829
vn -0.9638672 -0.050872803 -0.17114258
vn -0.9633789 -0.051086426 -0.2626953
vn -0.9638672 -0.050872803 -0.17114258
vn -0.9633789 -0.051086426 -0.2626953
vn 0.0035152435 -0.0022678375 -1
vn 0.0035152435 -0.0022659302 -1
vn 0.0035152435 -0.0022678375 -1
vn 0.0035152435 -0.0022678375 -1
vn 0.0035152435 -0.0022659302 -1
vn 0.0035152435 -0.0022659302 -1
vn 0.0035152435 -0.0022678375 -1
vn 0.0035152435 -0.0022659302 -1
vn 0.0035152435 -0.0022659302 -1
vn 0.0035152435 -0.0022678375 -1
vn 0.0035152435 -0.0022678375 -1
vn 0.0035152435 -0.0022678375 -1
vn 0.0035152435 -0.0022678375 -1
vn 0.0035152435 -0.0022678375 -1
vn 0.0035152435 -0.0022678375 -1
vn -0.99853516 -0.05227661 -0.0033931732
vn -0.99853516 -0.05227661 -0.0033931732
vn -0.99853516 -0.05227661 -0.0033931732
vn -0.99853516 -0.05227661 -0.0033931732
vn -0.99853516 -0.05227661 -0.0033931732
vn -0.99853516 -0.05227661 -0.0033931732
vn -0.99853516 -0.05227661 -0.0033931732
vn -0.99853516 -0.05227661 -0.0033931732
vn -0.99853516 -0.05227661 -0.0033931732
vn -0.99853516 -0.05227661 -0.0033931732
vn -0.99853516 -0.05227661 -0.0033931732
vn -0.99853516 -0.05227661 -0.0033931732
vn -0.99853516 -0.05227661 -0.0033931732
vn -0.99853516 -0.05227661 -0.0033931732
vn -0.99853516 -0.05227661 -0.0033931732
vn 0.0035152435 -0.0022678375 -1
vn 0.0035152435 -0.0022659302 -1
vn 0.0035152435 -0.0022678375 -1
vn 0.0035152435 -0.0022678375 -1
vn 0.0035152435 -0.0022659302 -1
vn 0.0035152435 -0.0022659302 -1
vn 0.0035152435 -0.0022678375 -1
vn 0.0035152435 -0.0022659302 -1
vn 0.0035152435 -0.0022659302 -1
vn 0.0035152435 -0.0022678375 -1
vn 0.0035152435 -0.0022678375 -1
vn 0.0035152435 -0.0022678375 -1
vn 0.0035152435 -0.0022678375 -1
vn 0.0035152435 -0.0022678375 -1
vn 0.0035152435 -0.0022678375 -1
vn -0.99853516 -0.05227661 -0.0033931732
vn -0.99853516 -0.05227661 -0.0033931732
vn -0.99853516 -0.05227661 -0.0033931732
vn -0.99853516 -0.05227661 -0.0033931732
vn -0.99853516 -0.05227661 -0.0033931732
vn -0.99853516 -0.05227661 -0.0033931732
vn -0.99853516 -0.05227661 -0.0033931732
vn -0.99853516 -0.05227661 -0.0033931732
vn -0.99853516 -0.05227661 -0.0033931732
vn -0.99853516 -0.05227661 -0.0033931732
vn -0.99853516 -0.05227661 -0.0033931732
vn -0.99853516 -0.05227661 -0.0033931732
vn -0.99853516 -0.05227661 -0.0033931732
vn -0.99853516 -0.05227661 -0.0033931732
vn -0.99853516 -0.05227661 -0.0033931732
g DecalMesh_MetroArea_Decal_Graffiti_21__68_0
f 3/3/3 2/2/2 1/1/1
f 6/6/6 5/5/5 4/4/4
f 9/9/9 8/8/8 7/7/7
f 12/12/12 11/11/11 10/10/10
f 15/15/15 14/14/14 13/13/13
f 18/18/18 17/17/17 16/16/16
f 21/21/21 20/20/20 19/19/19
f 24/24/24 23/23/23 22/22/22
f 27/27/27 26/26/26 25/25/25
f 30/30/30 29/29/29 28/28/28
f 33/33/33 32/32/32 31/31/31
f 36/36/36 35/35/35 34/34/34
f 39/39/39 38/38/38 37/37/37
f 42/42/42 41/41/41 40/40/40
f 45/45/45 44/44/44 43/43/43
f 48/48/48 47/47/47 46/46/46
f 51/51/51 50/50/50 49/49/49
f 54/54/54 53/53/53 52/52/52
f 57/57/57 56/56/56 55/55/55
f 60/60/60 59/59/59 58/58/58
f 63/63/63 62/62/62 61/61/61
f 66/66/66 65/65/65 64/64/64
f 69/69/69 68/68/68 67/67/67
f 72/72/72 71/71/71 70/70/70
f 75/75/75 74/74/74 73/73/73
f 78/78/78 77/77/77 76/76/76
f 81/81/81 80/80/80 79/79/79
f 84/84/84 83/83/83 82/82/82
f 87/87/87 86/86/86 85/85/85
f 90/90/90 89/89/89 88/88/88
f 93/93/93 92/92/92 91/91/91
f 96/96/96 95/95/95 94/94/94
f 99/99/99 98/98/98 97/97/97
f 102/102/102 101/101/101 100/100/100
f 105/105/105 104/104/104 103/103/103
f 108/108/108 107/107/107 106/106/106
f 111/111/111 110/110/110 109/109/109
f 114/114/114 113/113/113 112/112/112
f 117/117/117 116/116/116 115/115/115
f 120/120/120 119/119/119 118/118/118
f 123/123/123 122/122/122 121/121/121
f 126/126/126 125/125/125 124/124/124
f 129/129/129 128/128/128 127/127/127
f 132/132/132 131/131/131 130/130/130
