g DecalMesh_MetroArea_Decal_Crack_05__9
v -4.9143343 1.7738394 0.0043491353
v -5.739329 1.7738394 0.0047721663
v -5.7393284 -1.2761456 0.005533656
v -3.6720448 1.7738394 0.0037118057
v -4.9143343 1.7738394 0.0043491353
v -5.739329 -1.2761458 0.005533656
v -3.6720448 1.7738394 0.0037118057
v -5.739329 -1.2761458 0.005533656
v -5.739329 -1.7678394 0.0056563825
v -3.6720448 1.7738394 0.0037118057
v -5.739329 -1.7678394 0.0056563825
v -5.259265 -1.7678394 0.005410096
v -2.2613719 1.7738394 0.002988103
v -3.6720448 1.7738394 0.0037118057
v -5.259265 -1.7678394 0.005410096
v -2.2613719 1.7738394 0.002988103
v -5.259265 -1.7678394 0.005410096
v -4.931679 -1.7678394 0.005242038
v -2.2613719 1.7738394 0.002988103
v -4.931679 -1.7678394 0.005242038
v -4.563106 -1.7678393 0.005052953
v -0.1566365 1.7738397 0.0019082195
v -2.2613719 1.7738394 0.002988103
v -4.563106 -1.7678396 0.005052953
v -0.1566365 1.7738397 0.0019082195
v -4.563106 -1.7678396 0.005052953
v -3.8512979 -1.7678394 0.0046877437
v -0.1566365 1.7738397 0.0019082195
v -3.851298 -1.7678396 0.0046877437
v -3.5244315 -1.7678394 0.004520037
v 3.353141 1.7738398 0.0001077566
v -0.1566365 1.7738397 0.0019082195
v -3.5244315 -1.7678394 0.004520037
v 3.353141 1.7738398 0.0001077566
v -3.5244315 -1.7678394 0.004520037
v -2.1319497 -1.7678393 0.0038057151
v 3.353141 1.7738398 0.0001077566
v -2.1319497 -1.7678393 0.0038057151
v -1.7923768 -1.7678396 0.0036315194
v 5.7393284 0.00048214244 -0.00067403406
v 5.7393284 1.7738396 -0.0011165311
v -0.6148069 -1.7678394 0.0030273404
v 5.7393284 0.00048214244 -0.00067403406
v -0.6148069 -1.7678394 0.0030273404
v 1.3502356 -1.7678396 0.0020191306
v 5.7393284 0.00048214244 -0.00067403406
v 1.3502359 -1.7678394 0.0020191304
v 1.488785 -1.7678394 0.0019480446
v 5.7393284 1.7738396 -0.0011165311
v 3.353141 1.7738397 0.00010775673
v -1.7923765 -1.7678394 0.0036315194
v 5.7393284 1.7738396 -0.0011165311
v -1.7923765 -1.7678394 0.0036315194
v -0.7565559 -1.7678396 0.003100068
v 5.7393284 1.7738396 -0.0011165311
v -0.7565556 -1.7678393 0.0031000678
v -0.6148069 -1.7678394 0.0030273404
v 5.7393284 0.00048214244 -0.00067403406
v 1.488785 -1.7678394 0.0019480446
v 5.739328 -1.7678394 -0.00023254614
vt 0.45239258 0.43676758
vt 0.48413086 0.43676758
vt 0.48413086 0.14929199
vt 0.40478516 0.43676758
vt 0.45239258 0.43676758
vt 0.48413086 0.14929199
vt 0.40478516 0.43676758
vt 0.48413086 0.14929199
vt 0.48413086 0.10290527
vt 0.40478516 0.43676758
vt 0.48413086 0.10290527
vt 0.46557617 0.10290527
vt 0.35083008 0.43676758
vt 0.40478516 0.43676758
vt 0.46557617 0.10290527
vt 0.35083008 0.43676758
vt 0.46557617 0.10290527
vt 0.453125 0.10290527
vt 0.35083008 0.43676758
vt 0.453125 0.10290527
vt 0.43896484 0.10290527
vt 0.27001953 0.43676758
vt 0.35083008 0.43676758
vt 0.43896484 0.10290527
vt 0.27001953 0.43676758
vt 0.43896484 0.10290527
vt 0.4116211 0.10290527
vt 0.27001953 0.43676758
vt 0.4116211 0.10290527
vt 0.39916992 0.10290527
vt 0.13537598 0.43676758
vt 0.27001953 0.43676758
vt 0.39916992 0.10290527
vt 0.13537598 0.43676758
vt 0.39916992 0.10290527
vt 0.34570312 0.10290527
vt 0.13537598 0.43676758
vt 0.34570312 0.10290527
vt 0.33276367 0.10290527
vt 0.043823242 0.26953125
vt 0.043823242 0.43676758
vt 0.28759766 0.10290527
vt 0.043823242 0.26953125
vt 0.28759766 0.10290527
vt 0.2121582 0.10290527
vt 0.043823242 0.26953125
vt 0.2121582 0.10290527
vt 0.20690918 0.10290527
vt 0.043823242 0.43676758
vt 0.13537598 0.43676758
vt 0.33276367 0.10290527
vt 0.043823242 0.43676758
vt 0.33276367 0.10290527
vt 0.29296875 0.10290527
vt 0.043823242 0.43676758
vt 0.29296875 0.10290527
vt 0.28759766 0.10290527
vt 0.043823242 0.26953125
vt 0.20690918 0.10290527
vt 0.043823242 0.10290527
vn -0.0035514832 -0.009132385 -0.9995117
vn -0.00034976006 -0.008598328 -1
vn -0.0022277832 -0.005256653 -1
vn -0.0033626556 -0.005630493 -1
vn -0.0035514832 -0.009132385 -0.9995117
vn -0.0022277832 -0.005256653 -1
vn -0.0033626556 -0.005630493 -1
vn -0.0022277832 -0.005256653 -1
vn -0.0019950867 -0.0042533875 -1
vn -0.0033626556 -0.005630493 -1
vn -0.0019950867 -0.0042533875 -1
vn -0.0019216537 -0.0029029846 -1
vn -0.0037822723 -0.0051002502 -1
vn -0.0033626556 -0.005630493 -1
vn -0.0019216537 -0.0029029846 -1
vn -0.0037822723 -0.0051002502 -1
vn -0.0019216537 -0.0029029846 -1
vn -0.0020198822 -0.002779007 -1
vn -0.0037822723 -0.0051002502 -1
vn -0.0020198822 -0.002779007 -1
vn -0.002128601 -0.0026416779 -1
vn -0.004142761 -0.004016876 -1
vn -0.0037822723 -0.0051002502 -1
vn -0.002128601 -0.0026416779 -1
vn -0.004142761 -0.004016876 -1
vn -0.002128601 -0.0026416779 -1
vn -0.0022506714 -0.0022735596 -1
vn -0.004142761 -0.004016876 -1
vn -0.0022506714 -0.0022735596 -1
vn -0.0023078918 -0.002105713 -1
vn -0.006965637 -0.0056991577 -1
vn -0.004142761 -0.004016876 -1
vn -0.0023078918 -0.002105713 -1
vn -0.006965637 -0.0056991577 -1
vn -0.0023078918 -0.002105713 -1
vn -0.0034275055 -0.002773285 -1
vn -0.006965637 -0.0056991577 -1
vn -0.0034275055 -0.002773285 -1
vn -0.0037002563 -0.002937317 -1
vn -0.010620117 -0.0058021545 -1
vn -0.009506226 -0.006416321 -1
vn -0.0049552917 -0.003288269 -1
vn -0.010620117 -0.0058021545 -1
vn -0.0049552917 -0.003288269 -1
vn -0.0070495605 -0.0038776398 -1
vn -0.010620117 -0.0058021545 -1
vn -0.0070495605 -0.0038776398 -1
vn -0.0071983337 -0.003917694 -1
vn -0.009506226 -0.006416321 -1
vn -0.006965637 -0.0056991577 -1
vn -0.0037002563 -0.002937317 -1
vn -0.009506226 -0.006416321 -1
vn -0.0037002563 -0.002937317 -1
vn -0.004802704 -0.0032463074 -1
vn -0.009506226 -0.006416321 -1
vn -0.004802704 -0.0032463074 -1
vn -0.0049552917 -0.003288269 -1
vn -0.010620117 -0.0058021545 -1
vn -0.0071983337 -0.003917694 -1
vn -0.012313843 -0.004085541 -0.9995117
g DecalMesh_MetroArea_Decal_Crack_05__9_0
f 3/3/3 2/2/2 1/1/1
f 6/6/6 5/5/5 4/4/4
f 9/9/9 8/8/8 7/7/7
f 12/12/12 11/11/11 10/10/10
f 15/15/15 14/14/14 13/13/13
f 18/18/18 17/17/17 16/16/16
f 21/21/21 20/20/20 19/19/19
f 24/24/24 23/23/23 22/22/22
f 27/27/27 26/26/26 25/25/25
f 30/30/30 29/29/29 28/28/28
f 33/33/33 32/32/32 31/31/31
f 36/36/36 35/35/35 34/34/34
f 39/39/39 38/38/38 37/37/37
f 42/42/42 41/41/41 40/40/40
f 45/45/45 44/44/44 43/43/43
f 48/48/48 47/47/47 46/46/46
f 51/51/51 50/50/50 49/49/49
f 54/54/54 53/53/53 52/52/52
f 57/57/57 56/56/56 55/55/55
f 60/60/60 59/59/59 58/58/58
