g DecalMesh_MetroArea_Decal_Graffiti_08__69
v 0.7900025 0.18450303 -0.07182632
v 0.7900025 0.33146194 -0.07210258
v -0.7900026 0.33146194 -0.07800778
v 0.7900025 0.18450303 -0.07182632
v -0.7900026 0.33146194 -0.07800778
v -0.7900026 0.2989035 -0.07794658
v -0.79000264 0.08394671 -0.07754249
v -0.79000264 -0.33146194 -0.07676158
v 0.16108567 -0.33146194 -0.073206924
v 0.7900025 0.18450303 -0.07182632
v -0.7900026 0.2989035 -0.07794658
v 0.31045717 -0.33146194 -0.07264865
v 0.7900025 0.18450303 -0.07182632
v 0.31045717 -0.33146194 -0.07264865
v 0.7900026 -0.33146194 -0.07085637
v -0.7900026 0.2989035 -0.07794658
v -0.7900026 0.123734795 -0.07761728
v 0.19536944 -0.33146194 -0.07307879
v -0.7900026 0.2989035 -0.07794658
v 0.19536944 -0.33146194 -0.07307879
v 0.31045717 -0.33146194 -0.07264865
v -0.79000264 0.123734824 -0.07761729
v -0.79000264 0.08394671 -0.07754249
v 0.16108562 -0.33146194 -0.073206924
v -0.79000264 0.123734824 -0.07761729
v 0.16108562 -0.33146194 -0.073206924
v 0.19536947 -0.33146194 -0.07307879
v 0.41736737 0.3314619 -0.108476065
v 0.3877692 0.33146197 -0.108587
v 0.49404734 -0.33146194 -0.106943585
v 0.41736737 0.3314619 -0.108476065
v 0.49404734 -0.33146194 -0.106943585
v 0.50356376 -0.33146194 -0.10690792
v 0.4787945 0.33146188 -0.10824584
v 0.52331394 -0.3314619 -0.1068339
v 0.58507264 -0.33146197 -0.10660243
v 0.4787945 0.33146188 -0.10824584
v 0.41736737 0.3314619 -0.108476065
v 0.50356376 -0.33146194 -0.10690792
v 0.4787945 0.33146188 -0.10824584
v 0.50356376 -0.33146194 -0.10690792
v 0.52331394 -0.33146194 -0.1068339
v 0.3877692 0.33146197 -0.108587
v 0.49371895 -0.3314619 -0.011373782
v 0.49404734 -0.33146194 -0.106943585
v 0.3877692 0.33146197 -0.108587
v 0.3874434 0.33146197 -0.013765455
v 0.49361426 -0.33146194 0.01909598
v 0.3877692 0.33146197 -0.108587
v 0.49361426 -0.33146194 0.01909598
v 0.49371895 -0.33146194 -0.011373777
v 0.3874434 0.33146197 -0.013765455
v 0.38728532 0.33146194 0.032234218
v 0.49356347 -0.33146194 0.033877417
v 0.3874434 0.33146197 -0.013765455
v 0.49356347 -0.33146194 0.033877417
v 0.49361426 -0.33146194 0.01909598
v 0.7900026 0.1824053 -0.071822375
v 0.7900026 0.33146194 -0.072102584
v -0.7900026 0.33146194 -0.07800779
v 0.7900026 0.1824053 -0.071822375
v -0.7900026 0.33146194 -0.07800779
v -0.7900026 0.29583016 -0.07794081
v -0.79000264 0.0775514 -0.07753047
v -0.79000264 -0.33146194 -0.07676158
v 0.15520263 -0.3314619 -0.07322892
v 0.7900026 0.1824053 -0.071822375
v -0.7900026 0.29583016 -0.07794081
v 0.30882305 -0.33146194 -0.07265477
v 0.7900026 0.1824053 -0.071822375
v 0.30882305 -0.33146194 -0.07265477
v 0.7900025 -0.33146194 -0.07085638
v -0.7900026 0.29583016 -0.07794081
v -0.7900026 0.10732583 -0.07758644
v 0.18169366 -0.33146194 -0.07312991
v -0.7900026 0.29583016 -0.07794081
v 0.18169366 -0.33146194 -0.07312991
v 0.30882305 -0.33146194 -0.07265477
v -0.7900025 0.1073258 -0.07758644
v -0.79000264 0.0775514 -0.07753047
v 0.15520267 -0.33146194 -0.07322892
v -0.7900025 0.1073258 -0.07758644
v 0.15520267 -0.33146194 -0.07322892
v 0.18169367 -0.33146194 -0.07312991
v 0.41736737 0.3314619 -0.10847702
v 0.3877692 0.33146197 -0.108587645
v 0.49404734 -0.33146194 -0.10694444
v 0.41736737 0.3314619 -0.10847702
v 0.49404734 -0.33146194 -0.10694444
v 0.50356376 -0.33146194 -0.10690887
v 0.4787945 0.33146188 -0.108246155
v 0.52331394 -0.3314619 -0.10683465
v 0.58507264 -0.33146197 -0.10660253
v 0.4787945 0.33146188 -0.108246155
v 0.41736737 0.3314619 -0.10847702
v 0.50356376 -0.33146194 -0.10690887
v 0.4787945 0.33146188 -0.108246155
v 0.50356376 -0.33146194 -0.10690887
v 0.52331394 -0.33146194 -0.10683465
v 0.3877692 0.33146197 -0.108587645
v 0.49371895 -0.3314619 -0.011373989
v 0.49404734 -0.33146194 -0.10694444
v 0.3877692 0.33146197 -0.108587645
v 0.3874434 0.33146197 -0.013765455
v 0.49361426 -0.33146194 0.01909598
v 0.3877692 0.33146197 -0.108587645
v 0.49361426 -0.33146194 0.01909598
v 0.49371895 -0.33146194 -0.011373986
v 0.3874434 0.33146197 -0.013765455
v 0.38728532 0.33146194 0.032234218
v 0.49356347 -0.33146194 0.033877417
v 0.3874434 0.33146197 -0.013765455
v 0.49356347 -0.33146194 0.033877417
v 0.49361426 -0.33146194 0.01909598
v 0.7900026 0.1824053 -0.071822375
v 0.7900026 0.33146194 -0.072102584
v -0.7900026 0.33146194 -0.07800779
v 0.7900026 0.1824053 -0.071822375
v -0.7900026 0.33146194 -0.07800779
v -0.7900026 0.29583016 -0.07794081
v -0.79000264 0.0775514 -0.07753047
v -0.79000264 -0.33146194 -0.07676158
v 0.15520263 -0.3314619 -0.07322892
v 0.7900026 0.1824053 -0.071822375
v -0.7900026 0.29583016 -0.07794081
v 0.30882305 -0.33146194 -0.07265477
v 0.7900026 0.1824053 -0.071822375
v 0.30882305 -0.33146194 -0.07265477
v 0.7900025 -0.33146194 -0.07085638
v -0.7900026 0.29583016 -0.07794081
v -0.7900026 0.10732583 -0.07758644
v 0.18169366 -0.33146194 -0.07312991
v -0.7900026 0.29583016 -0.07794081
v 0.18169366 -0.33146194 -0.07312991
v 0.30882305 -0.33146194 -0.07265477
v -0.7900025 0.1073258 -0.07758644
v -0.79000264 0.0775514 -0.07753047
v 0.15520267 -0.33146194 -0.07322892
v -0.7900025 0.1073258 -0.07758644
v 0.15520267 -0.33146194 -0.07322892
v 0.18169367 -0.33146194 -0.07312991
v 0.41736737 0.3314619 -0.10847702
v 0.3877692 0.33146197 -0.108587645
v 0.49404734 -0.33146194 -0.10694444
v 0.41736737 0.3314619 -0.10847702
v 0.49404734 -0.33146194 -0.10694444
v 0.50356376 -0.33146194 -0.10690887
v 0.4787945 0.33146188 -0.108246155
v 0.52331394 -0.3314619 -0.10683465
v 0.58507264 -0.33146197 -0.10660253
v 0.4787945 0.33146188 -0.108246155
v 0.41736737 0.3314619 -0.10847702
v 0.50356376 -0.33146194 -0.10690887
v 0.4787945 0.33146188 -0.108246155
v 0.50356376 -0.33146194 -0.10690887
v 0.52331394 -0.33146194 -0.10683465
v 0.3877692 0.33146197 -0.108587645
v 0.49371895 -0.3314619 -0.011373989
v 0.49404734 -0.33146194 -0.10694444
v 0.3877692 0.33146197 -0.108587645
v 0.3874434 0.33146197 -0.013765455
v 0.49361426 -0.33146194 0.01909598
v 0.3877692 0.33146197 -0.108587645
v 0.49361426 -0.33146194 0.01909598
v 0.49371895 -0.33146194 -0.011373986
v 0.3874434 0.33146197 -0.013765455
v 0.38728532 0.33146194 0.032234218
v 0.49356347 -0.33146194 0.033877417
v 0.3874434 0.33146197 -0.013765455
v 0.49356347 -0.33146194 0.033877417
v 0.49361426 -0.33146194 0.01909598
vt 0.32543945 0.66064453
vt 0.32543945 0.6850586
vt 0.4724121 0.6850586
vt 0.32543945 0.66064453
vt 0.4724121 0.6850586
vt 0.4724121 0.6796875
vt 0.4724121 0.64404297
vt 0.4724121 0.57470703
vt 0.3840332 0.57470703
vt 0.32543945 0.66064453
vt 0.4724121 0.6796875
vt 0.3701172 0.57470703
vt 0.32543945 0.66064453
vt 0.3701172 0.57470703
vt 0.32543945 0.57470703
vt 0.4724121 0.6796875
vt 0.4724121 0.6503906
vt 0.38085938 0.57470703
vt 0.4724121 0.6796875
vt 0.38085938 0.57470703
vt 0.3701172 0.57470703
vt 0.4724121 0.6503906
vt 0.4724121 0.64404297
vt 0.3840332 0.57470703
vt 0.4724121 0.6503906
vt 0.3840332 0.57470703
vt 0.38085938 0.57470703
vt 0.36010742 0.6850586
vt 0.36279297 0.6850586
vt 0.35302734 0.57470703
vt 0.36010742 0.6850586
vt 0.35302734 0.57470703
vt 0.35205078 0.57470703
vt 0.3544922 0.6850586
vt 0.3503418 0.57470703
vt 0.34448242 0.57470703
vt 0.3544922 0.6850586
vt 0.36010742 0.6850586
vt 0.35205078 0.57470703
vt 0.3544922 0.6850586
vt 0.35205078 0.57470703
vt 0.3503418 0.57470703
vt 0.36279297 0.6850586
vt 0.35302734 0.57470703
vt 0.35302734 0.57470703
vt 0.36279297 0.6850586
vt 0.36279297 0.6850586
vt 0.35302734 0.57470703
vt 0.36279297 0.6850586
vt 0.35302734 0.57470703
vt 0.35302734 0.57470703
vt 0.36279297 0.6850586
vt 0.36279297 0.6850586
vt 0.35302734 0.57470703
vt 0.36279297 0.6850586
vt 0.35302734 0.57470703
vt 0.35302734 0.57470703
vt 0.32543945 0.66015625
vt 0.32543945 0.6850586
vt 0.4724121 0.6850586
vt 0.32543945 0.66015625
vt 0.4724121 0.6850586
vt 0.4724121 0.6791992
vt 0.4724121 0.6425781
vt 0.4724121 0.57470703
vt 0.38452148 0.57470703
vt 0.32543945 0.66015625
vt 0.4724121 0.6791992
vt 0.3701172 0.57470703
vt 0.32543945 0.66015625
vt 0.3701172 0.57470703
vt 0.32543945 0.57470703
vt 0.4724121 0.6791992
vt 0.4724121 0.6479492
vt 0.38208008 0.57470703
vt 0.4724121 0.6791992
vt 0.38208008 0.57470703
vt 0.3701172 0.57470703
vt 0.4724121 0.6479492
vt 0.4724121 0.6425781
vt 0.38452148 0.57470703
vt 0.4724121 0.6479492
vt 0.38452148 0.57470703
vt 0.38208008 0.57470703
vt 0.36010742 0.6850586
vt 0.36279297 0.6850586
vt 0.35302734 0.57470703
vt 0.36010742 0.6850586
vt 0.35302734 0.57470703
vt 0.35205078 0.57470703
vt 0.3544922 0.6850586
vt 0.3503418 0.57470703
vt 0.34448242 0.57470703
vt 0.3544922 0.6850586
vt 0.36010742 0.6850586
vt 0.35205078 0.57470703
vt 0.3544922 0.6850586
vt 0.35205078 0.57470703
vt 0.3503418 0.57470703
vt 0.36279297 0.6850586
vt 0.35302734 0.57470703
vt 0.35302734 0.57470703
vt 0.36279297 0.6850586
vt 0.36279297 0.6850586
vt 0.35302734 0.57470703
vt 0.36279297 0.6850586
vt 0.35302734 0.57470703
vt 0.35302734 0.57470703
vt 0.36279297 0.6850586
vt 0.36279297 0.6850586
vt 0.35302734 0.57470703
vt 0.36279297 0.6850586
vt 0.35302734 0.57470703
vt 0.35302734 0.57470703
vt 0.32543945 0.66015625
vt 0.32543945 0.6850586
vt 0.4724121 0.6850586
vt 0.32543945 0.66015625
vt 0.4724121 0.6850586
vt 0.4724121 0.6791992
vt 0.4724121 0.6425781
vt 0.4724121 0.57470703
vt 0.38452148 0.57470703
vt 0.32543945 0.66015625
vt 0.4724121 0.6791992
vt 0.3701172 0.57470703
vt 0.32543945 0.66015625
vt 0.3701172 0.57470703
vt 0.32543945 0.57470703
vt 0.4724121 0.6791992
vt 0.4724121 0.6479492
vt 0.38208008 0.57470703
vt 0.4724121 0.6791992
vt 0.38208008 0.57470703
vt 0.3701172 0.57470703
vt 0.4724121 0.6479492
vt 0.4724121 0.6425781
vt 0.38452148 0.57470703
vt 0.4724121 0.6479492
vt 0.38452148 0.57470703
vt 0.38208008 0.57470703
vt 0.36010742 0.6850586
vt 0.36279297 0.6850586
vt 0.35302734 0.57470703
vt 0.36010742 0.6850586
vt 0.35302734 0.57470703
vt 0.35205078 0.57470703
vt 0.3544922 0.6850586
vt 0.3503418 0.57470703
vt 0.34448242 0.57470703
vt 0.3544922 0.6850586
vt 0.36010742 0.6850586
vt 0.35205078 0.57470703
vt 0.3544922 0.6850586
vt 0.35205078 0.57470703
vt 0.3503418 0.57470703
vt 0.36279297 0.6850586
vt 0.35302734 0.57470703
vt 0.35302734 0.57470703
vt 0.36279297 0.6850586
vt 0.36279297 0.6850586
vt 0.35302734 0.57470703
vt 0.36279297 0.6850586
vt 0.35302734 0.57470703
vt 0.35302734 0.57470703
vt 0.36279297 0.6850586
vt 0.36279297 0.6850586
vt 0.35302734 0.57470703
vt 0.36279297 0.6850586
vt 0.35302734 0.57470703
vt 0.35302734 0.57470703
vn 0.00207901 -0.0021457672 -1
vn 0.002090454 -0.0021438599 -1
vn 0.0013093948 -0.0022678375 -1
vn 0.00207901 -0.0021457672 -1
vn 0.0013093948 -0.0022678375 -1
vn 0.0013074875 -0.0022697449 -1
vn 0.0012903214 -0.0022716522 -1
vn 0.0012569427 -0.0022773743 -1
vn 0.0017271042 -0.0022010803 -1
vn 0.00207901 -0.0021457672 -1
vn 0.0013074875 -0.0022697449 -1
vn 0.0018005371 -0.0021896362 -1
vn 0.00207901 -0.0021457672 -1
vn 0.0018005371 -0.0021896362 -1
vn 0.0020370483 -0.0021514893 -1
vn 0.0013074875 -0.0022697449 -1
vn 0.0012931824 -0.0022716522 -1
vn 0.0017442703 -0.002199173 -1
vn 0.0013074875 -0.0022697449 -1
vn 0.0017442703 -0.002199173 -1
vn 0.0018005371 -0.0021896362 -1
vn 0.0012931824 -0.0022716522 -1
vn 0.0012903214 -0.0022716522 -1
vn 0.0017271042 -0.0022010803 -1
vn 0.0012931824 -0.0022716522 -1
vn 0.0017271042 -0.0022010803 -1
vn 0.0017442703 -0.002199173 -1
vn 0.0037460327 -0.0018787384 -1
vn 0.0037460327 -0.0018787384 -1
vn 0.00374794 -0.0018777847 -1
vn 0.0037460327 -0.0018787384 -1
vn 0.00374794 -0.0018777847 -1
vn 0.00374794 -0.0018777847 -1
vn 0.0037460327 -0.0018787384 -1
vn 0.00374794 -0.0018777847 -1
vn 0.00374794 -0.0018777847 -1
vn 0.0037460327 -0.0018787384 -1
vn 0.0037460327 -0.0018787384 -1
vn 0.00374794 -0.0018777847 -1
vn 0.0037460327 -0.0018787384 -1
vn 0.00374794 -0.0018777847 -1
vn 0.00374794 -0.0018777847 -1
vn -0.9873047 -0.1583252 -0.0033931732
vn -0.9873047 -0.1583252 -0.0033931732
vn -0.9873047 -0.1583252 -0.0033931732
vn -0.9873047 -0.1583252 -0.0033931732
vn -0.9873047 -0.1583252 -0.0033931732
vn -0.9873047 -0.1583252 -0.0033931732
vn -0.9873047 -0.1583252 -0.0033931732
vn -0.9873047 -0.1583252 -0.0033931732
vn -0.9873047 -0.1583252 -0.0033931732
vn -0.9873047 -0.1583252 -0.0033931732
vn -0.9873047 -0.1583252 -0.0033931732
vn -0.9873047 -0.1583252 -0.0033931732
vn -0.9873047 -0.1583252 -0.0033931732
vn -0.9873047 -0.1583252 -0.0033931732
vn -0.9873047 -0.1583252 -0.0033931732
vn 0.003736496 -0.0018796921 -1
vn 0.003736496 -0.0018796921 -1
vn 0.003736496 -0.0018796921 -1
vn 0.003736496 -0.0018796921 -1
vn 0.003736496 -0.0018796921 -1
vn 0.003736496 -0.0018796921 -1
vn 0.003736496 -0.0018796921 -1
vn 0.003736496 -0.0018796921 -1
vn 0.003736496 -0.0018796921 -1
vn 0.003736496 -0.0018796921 -1
vn 0.003736496 -0.0018796921 -1
vn 0.003736496 -0.0018796921 -1
vn 0.003736496 -0.0018796921 -1
vn 0.003736496 -0.0018796921 -1
vn 0.003736496 -0.0018796921 -1
vn 0.003736496 -0.0018796921 -1
vn 0.003736496 -0.0018796921 -1
vn 0.003736496 -0.0018796921 -1
vn 0.003736496 -0.0018796921 -1
vn 0.003736496 -0.0018796921 -1
vn 0.003736496 -0.0018796921 -1
vn 0.003736496 -0.0018796921 -1
vn 0.003736496 -0.0018796921 -1
vn 0.003736496 -0.0018796921 -1
vn 0.003736496 -0.0018796921 -1
vn 0.003736496 -0.0018796921 -1
vn 0.003736496 -0.0018796921 -1
vn 0.0037460327 -0.0018787384 -1
vn 0.0037460327 -0.0018787384 -1
vn 0.00374794 -0.0018787384 -1
vn 0.0037460327 -0.0018787384 -1
vn 0.00374794 -0.0018787384 -1
vn 0.00374794 -0.0018787384 -1
vn 0.0037460327 -0.0018787384 -1
vn 0.00374794 -0.0018777847 -1
vn 0.00374794 -0.0018777847 -1
vn 0.0037460327 -0.0018787384 -1
vn 0.0037460327 -0.0018787384 -1
vn 0.00374794 -0.0018787384 -1
vn 0.0037460327 -0.0018787384 -1
vn 0.00374794 -0.0018787384 -1
vn 0.00374794 -0.0018777847 -1
vn -0.9873047 -0.1583252 -0.0033931732
vn -0.9873047 -0.1583252 -0.0033931732
vn -0.9873047 -0.1583252 -0.0033931732
vn -0.9873047 -0.1583252 -0.0033931732
vn -0.9873047 -0.1583252 -0.0033931732
vn -0.9873047 -0.1583252 -0.0033931732
vn -0.9873047 -0.1583252 -0.0033931732
vn -0.9873047 -0.1583252 -0.0033931732
vn -0.9873047 -0.1583252 -0.0033931732
vn -0.9873047 -0.1583252 -0.0033931732
vn -0.9873047 -0.1583252 -0.0033931732
vn -0.9873047 -0.1583252 -0.0033931732
vn -0.9873047 -0.1583252 -0.0033931732
vn -0.9873047 -0.1583252 -0.0033931732
vn -0.9873047 -0.1583252 -0.0033931732
vn 0.003736496 -0.0018796921 -1
vn 0.003736496 -0.0018796921 -1
vn 0.003736496 -0.0018796921 -1
vn 0.003736496 -0.0018796921 -1
vn 0.003736496 -0.0018796921 -1
vn 0.003736496 -0.0018796921 -1
vn 0.003736496 -0.0018796921 -1
vn 0.003736496 -0.0018796921 -1
vn 0.003736496 -0.0018796921 -1
vn 0.003736496 -0.0018796921 -1
vn 0.003736496 -0.0018796921 -1
vn 0.003736496 -0.0018796921 -1
vn 0.003736496 -0.0018796921 -1
vn 0.003736496 -0.0018796921 -1
vn 0.003736496 -0.0018796921 -1
vn 0.003736496 -0.0018796921 -1
vn 0.003736496 -0.0018796921 -1
vn 0.003736496 -0.0018796921 -1
vn 0.003736496 -0.0018796921 -1
vn 0.003736496 -0.0018796921 -1
vn 0.003736496 -0.0018796921 -1
vn 0.003736496 -0.0018796921 -1
vn 0.003736496 -0.0018796921 -1
vn 0.003736496 -0.0018796921 -1
vn 0.003736496 -0.0018796921 -1
vn 0.003736496 -0.0018796921 -1
vn 0.003736496 -0.0018796921 -1
vn 0.0037460327 -0.0018787384 -1
vn 0.0037460327 -0.0018787384 -1
vn 0.00374794 -0.0018787384 -1
vn 0.0037460327 -0.0018787384 -1
vn 0.00374794 -0.0018787384 -1
vn 0.00374794 -0.0018787384 -1
vn 0.0037460327 -0.0018787384 -1
vn 0.00374794 -0.0018777847 -1
vn 0.00374794 -0.0018777847 -1
vn 0.0037460327 -0.0018787384 -1
vn 0.0037460327 -0.0018787384 -1
vn 0.00374794 -0.0018787384 -1
vn 0.0037460327 -0.0018787384 -1
vn 0.00374794 -0.0018787384 -1
vn 0.00374794 -0.0018777847 -1
vn -0.9873047 -0.1583252 -0.0033931732
vn -0.9873047 -0.1583252 -0.0033931732
vn -0.9873047 -0.1583252 -0.0033931732
vn -0.9873047 -0.1583252 -0.0033931732
vn -0.9873047 -0.1583252 -0.0033931732
vn -0.9873047 -0.1583252 -0.0033931732
vn -0.9873047 -0.1583252 -0.0033931732
vn -0.9873047 -0.1583252 -0.0033931732
vn -0.9873047 -0.1583252 -0.0033931732
vn -0.9873047 -0.1583252 -0.0033931732
vn -0.9873047 -0.1583252 -0.0033931732
vn -0.9873047 -0.1583252 -0.0033931732
vn -0.9873047 -0.1583252 -0.0033931732
vn -0.9873047 -0.1583252 -0.0033931732
vn -0.9873047 -0.1583252 -0.0033931732
g DecalMesh_MetroArea_Decal_Graffiti_08__69_0
f 3/3/3 2/2/2 1/1/1
f 6/6/6 5/5/5 4/4/4
f 9/9/9 8/8/8 7/7/7
f 12/12/12 11/11/11 10/10/10
f 15/15/15 14/14/14 13/13/13
f 18/18/18 17/17/17 16/16/16
f 21/21/21 20/20/20 19/19/19
f 24/24/24 23/23/23 22/22/22
f 27/27/27 26/26/26 25/25/25
f 30/30/30 29/29/29 28/28/28
f 33/33/33 32/32/32 31/31/31
f 36/36/36 35/35/35 34/34/34
f 39/39/39 38/38/38 37/37/37
f 42/42/42 41/41/41 40/40/40
f 45/45/45 44/44/44 43/43/43
f 48/48/48 47/47/47 46/46/46
f 51/51/51 50/50/50 49/49/49
f 54/54/54 53/53/53 52/52/52
f 57/57/57 56/56/56 55/55/55
f 60/60/60 59/59/59 58/58/58
f 63/63/63 62/62/62 61/61/61
f 66/66/66 65/65/65 64/64/64
f 69/69/69 68/68/68 67/67/67
f 72/72/72 71/71/71 70/70/70
f 75/75/75 74/74/74 73/73/73
f 78/78/78 77/77/77 76/76/76
f 81/81/81 80/80/80 79/79/79
f 84/84/84 83/83/83 82/82/82
f 87/87/87 86/86/86 85/85/85
f 90/90/90 89/89/89 88/88/88
f 93/93/93 92/92/92 91/91/91
f 96/96/96 95/95/95 94/94/94
f 99/99/99 98/98/98 97/97/97
f 102/102/102 101/101/101 100/100/100
f 105/105/105 104/104/104 103/103/103
f 108/108/108 107/107/107 106/106/106
f 111/111/111 110/110/110 109/109/109
f 114/114/114 113/113/113 112/112/112
f 117/117/117 116/116/116 115/115/115
f 120/120/120 119/119/119 118/118/118
f 123/123/123 122/122/122 121/121/121
f 126/126/126 125/125/125 124/124/124
f 129/129/129 128/128/128 127/127/127
f 132/132/132 131/131/131 130/130/130
f 135/135/135 134/134/134 133/133/133
f 138/138/138 137/137/137 136/136/136
f 141/141/141 140/140/140 139/139/139
f 144/144/144 143/143/143 142/142/142
f 147/147/147 146/146/146 145/145/145
f 150/150/150 149/149/149 148/148/148
f 153/153/153 152/152/152 151/151/151
f 156/156/156 155/155/155 154/154/154
f 159/159/159 158/158/158 157/157/157
f 162/162/162 161/161/161 160/160/160
f 165/165/165 164/164/164 163/163/163
f 168/168/168 167/167/167 166/166/166
f 171/171/171 170/170/170 169/169/169
