g DecalMesh_MetroArea_Decal_Ground_15__62
v 1.2499999 1.2529999 -0.07634906
v -1.25 1.2529999 -0.07634906
v 1.2321652 -1.247 -0.07634936
v 1.2499999 1.2529999 -0.07634906
v 1.2321652 -1.247 -0.07634936
v 1.2499999 -1.247 -0.07634936
v -1.25 1.2529999 -0.07634906
v -1.25 1.179318 -0.076349065
v 1.2316276 -1.247 -0.07634936
v -1.25 1.2529999 -0.07634906
v 1.2316276 -1.247 -0.07634936
v 1.2321652 -1.247 -0.07634936
v -1.2499999 1.0233611 -0.07634909
v -1.25 -1.247 -0.07634936
v 0.42303237 -1.247 -0.07634936
v -1.25 1.179318 -0.076349065
v 0.45937717 -1.247 -0.07634936
v 1.2316276 -1.247 -0.07634936
v -1.25 1.179318 -0.076349065
v -1.25 1.1470045 -0.07634907
v 0.4521115 -1.247 -0.07634936
v -1.25 1.179318 -0.076349065
v 0.4521115 -1.247 -0.07634936
v 0.45937723 -1.247 -0.07634936
v -1.25 1.1470044 -0.07634907
v -1.2499999 1.0233611 -0.07634909
v 0.42303237 -1.247 -0.07634936
v -1.25 1.1470044 -0.07634907
v 0.42303237 -1.247 -0.07634936
v 0.4521115 -1.247 -0.07634936
v -0.5530722 1.2529999 0.030758109
v -1.25 1.2529999 0.030758109
v -0.93470585 -1.2469999 0.0307578
v -0.5530722 1.2529999 0.030758109
v -0.93470585 -1.2469999 0.0307578
v -0.5530722 -1.2469999 0.0307578
v -1.25 1.2529999 0.030758109
v -1.25 -1.2470001 0.0307578
v -0.93470585 -1.247 0.0307578
v 1.25 0.922962 0.030758068
v 0.26579162 1.253 0.030758109
v -0.104667135 -1.2470001 0.0307578
v 1.25 0.922962 0.030758068
v -0.104667135 -1.2470001 0.0307578
v 0.49699432 -1.2470001 0.0307578
v 0.26579162 1.253 0.030758109
v -0.5530722 1.253 0.030758109
v -0.5530722 -1.2470001 0.0307578
v 0.26579162 1.253 0.030758109
v -0.5530722 -1.2470001 0.0307578
v -0.104667135 -1.2470001 0.0307578
v 1.25 0.922962 0.030758068
v 1.25 1.253 0.030758109
v 0.26579157 1.253 0.030758109
v 1.25 0.9229619 0.030758068
v 0.49699438 -1.247 0.0307578
v 1.25 -1.247 0.0307578
v 1.25 0.020620892 -0.077514604
v 1.25 1.253 -0.077514455
v 0.22668701 1.253 -0.077514455
v 0.08717741 1.253 -0.077514455
v -0.062866785 -1.2470001 -0.07751475
v 1.1902106 -1.2470001 -0.07751475
v 0.08717741 1.253 -0.077514455
v -0.07099986 1.253 -0.077514455
v -0.07099986 -1.247 -0.07751475
v 0.08717741 1.253 -0.077514455
v -0.07099986 -1.247 -0.07751475
v -0.062866785 -1.247 -0.07751475
v 1.25 0.020620892 -0.077514604
v 0.22668701 1.253 -0.077514455
v 1.1973838 -1.247 -0.07751475
v 1.25 0.020620892 -0.077514604
v 1.1973838 -1.247 -0.07751475
v 1.25 -1.247 -0.07751475
v 0.22668701 1.253 -0.077514455
v 0.08717741 1.253 -0.077514455
v 1.1902106 -1.247 -0.07751475
v 0.22668701 1.253 -0.077514455
v 1.1902106 -1.247 -0.07751475
v 1.1973838 -1.247 -0.07751475
v -0.36868665 1.2530001 -0.077514455
v -1.25 1.2530001 -0.077514455
v -1.25 0.19163156 -0.07751458
v -0.07099986 1.253 -0.077514455
v -1.25 0.0031427587 -0.077514604
v -0.18630132 -1.247 -0.07751475
v -0.07099986 1.253 -0.077514455
v -0.18630132 -1.247 -0.07751475
v -0.07099986 -1.247 -0.07751475
v -1.25 0.0031427587 -0.077514604
v -1.25 -1.247 -0.07751475
v -0.18630132 -1.247 -0.07751475
v -0.07099986 1.253 -0.077514455
v -0.3686867 1.253 -0.077514455
v -1.25 0.19163148 -0.07751458
v -0.07099986 1.253 -0.077514455
v -1.25 0.19163148 -0.07751458
v -1.25 0.0031427587 -0.077514604
vt 0.0018415451 0.5517578
vt 0.14025879 0.5517578
vt 0.002828598 0.41210938
vt 0.0018415451 0.5517578
vt 0.002828598 0.41210938
vt 0.0018415451 0.41210938
vt 0.14025879 0.5517578
vt 0.14025879 0.54785156
vt 0.0028591156 0.41210938
vt 0.14025879 0.5517578
vt 0.0028591156 0.41210938
vt 0.002828598 0.41210938
vt 0.14025879 0.5390625
vt 0.14025879 0.41210938
vt 0.04763794 0.41210938
vt 0.14025879 0.54785156
vt 0.04562378 0.41210938
vt 0.0028591156 0.41210938
vt 0.14025879 0.54785156
vt 0.14025879 0.54589844
vt 0.046051025 0.41210938
vt 0.14025879 0.54785156
vt 0.046051025 0.41210938
vt 0.04562378 0.41210938
vt 0.14025879 0.54589844
vt 0.14025879 0.5390625
vt 0.04763794 0.41210938
vt 0.14025879 0.54589844
vt 0.04763794 0.41210938
vt 0.046051025 0.41210938
vt 0.10168457 0.5517578
vt 0.14025879 0.5517578
vt 0.12286377 0.41210938
vt 0.10168457 0.5517578
vt 0.12286377 0.41210938
vt 0.10168457 0.41210938
vt 0.14025879 0.5517578
vt 0.14025879 0.41210938
vt 0.12286377 0.41210938
vt 0.0018415451 0.5332031
vt 0.056365967 0.5517578
vt 0.0769043 0.41210938
vt 0.0018415451 0.5332031
vt 0.0769043 0.41210938
vt 0.043548584 0.41210938
vt 0.056365967 0.5517578
vt 0.10168457 0.5517578
vt 0.10168457 0.41210938
vt 0.056365967 0.5517578
vt 0.10168457 0.41210938
vt 0.0769043 0.41210938
vt 0.0018415451 0.5332031
vt 0.0018415451 0.5517578
vt 0.056365967 0.5517578
vt 0.0018415451 0.5332031
vt 0.043548584 0.41210938
vt 0.0018415451 0.41210938
vt 0.0018415451 0.48291016
vt 0.0018415451 0.5517578
vt 0.058532715 0.5517578
vt 0.066223145 0.5517578
vt 0.07458496 0.41210938
vt 0.005153656 0.41210938
vt 0.066223145 0.5517578
vt 0.07501221 0.5517578
vt 0.07501221 0.41210938
vt 0.066223145 0.5517578
vt 0.07501221 0.41210938
vt 0.07458496 0.41210938
vt 0.0018415451 0.48291016
vt 0.058532715 0.5517578
vt 0.0047569275 0.41210938
vt 0.0018415451 0.48291016
vt 0.0047569275 0.41210938
vt 0.0018415451 0.41210938
vt 0.058532715 0.5517578
vt 0.066223145 0.5517578
vt 0.005153656 0.41210938
vt 0.058532715 0.5517578
vt 0.005153656 0.41210938
vt 0.0047569275 0.41210938
vt 0.0914917 0.5517578
vt 0.14025879 0.5517578
vt 0.14025879 0.49243164
vt 0.07501221 0.5517578
vt 0.14025879 0.4819336
vt 0.0814209 0.41210938
vt 0.07501221 0.5517578
vt 0.0814209 0.41210938
vt 0.07501221 0.41210938
vt 0.14025879 0.4819336
vt 0.14025879 0.41210938
vt 0.0814209 0.41210938
vt 0.07501221 0.5517578
vt 0.0914917 0.5517578
vt 0.14025879 0.49243164
vt 0.07501221 0.5517578
vt 0.14025879 0.49243164
vt 0.14025879 0.4819336
vn -0 0 -1
vn -0 0 -1
vn -0 0 -1
vn -0 0 -1
vn -0 0 -1
vn -0 0 -1
vn -0 0 -1
vn -0 0 -1
vn -0 0 -1
vn -0 0 -1
vn -0 0 -1
vn -0 0 -1
vn -0 0 -1
vn -0 0 -1
vn -0 0 -1
vn -0 0 -1
vn -0 0 -1
vn -0 0 -1
vn -0 0 -1
vn -0 0 -1
vn -0 0 -1
vn -0 0 -1
vn -0 0 -1
vn -0 0 -1
vn -0 0 -1
vn -0 0 -1
vn -0 0 -1
vn -0 0 -1
vn -0 0 -1
vn -0 0 -1
vn -0 1.7881393E-07 -1
vn -0 1.7881393E-07 -1
vn -0 1.7881393E-07 -1
vn -0 1.7881393E-07 -1
vn -0 1.7881393E-07 -1
vn -0 1.7881393E-07 -1
vn -0 1.7881393E-07 -1
vn -0 1.7881393E-07 -1
vn -0 1.7881393E-07 -1
vn -0 1.7881393E-07 -1
vn -0 1.7881393E-07 -1
vn -0 1.7881393E-07 -1
vn -0 1.7881393E-07 -1
vn -0 1.7881393E-07 -1
vn -0 1.7881393E-07 -1
vn -0 1.7881393E-07 -1
vn -0 1.7881393E-07 -1
vn -0 1.7881393E-07 -1
vn -0 1.7881393E-07 -1
vn -0 1.7881393E-07 -1
vn -0 1.7881393E-07 -1
vn -0 1.7881393E-07 -1
vn -0 1.7881393E-07 -1
vn -0 1.7881393E-07 -1
vn -0 1.7881393E-07 -1
vn -0 1.7881393E-07 -1
vn -0 1.7881393E-07 -1
vn -0 -1.1920929E-07 -1
vn -0 -1.1920929E-07 -1
vn -0 -1.1920929E-07 -1
vn -0 -1.1920929E-07 -1
vn -0 -1.1920929E-07 -1
vn -0 -1.1920929E-07 -1
vn -0 -1.1920929E-07 -1
vn -0 -1.1920929E-07 -1
vn -0 -1.1920929E-07 -1
vn -0 -1.1920929E-07 -1
vn -0 -1.1920929E-07 -1
vn -0 -1.1920929E-07 -1
vn -0 -1.1920929E-07 -1
vn -0 -1.1920929E-07 -1
vn -0 -1.1920929E-07 -1
vn -0 -1.1920929E-07 -1
vn -0 -1.1920929E-07 -1
vn -0 -1.1920929E-07 -1
vn -0 -1.1920929E-07 -1
vn -0 -1.1920929E-07 -1
vn -0 -1.1920929E-07 -1
vn -0 -1.1920929E-07 -1
vn -0 -1.1920929E-07 -1
vn -0 -1.1920929E-07 -1
vn -0 -1.1920929E-07 -1
vn -0 -1.1920929E-07 -1
vn -0 -1.1920929E-07 -1
vn -0 -1.1920929E-07 -1
vn -0 -1.1920929E-07 -1
vn -0 -1.1920929E-07 -1
vn -0 -1.1920929E-07 -1
vn -0 -1.1920929E-07 -1
vn -0 -1.1920929E-07 -1
vn -0 -1.1920929E-07 -1
vn -0 -1.1920929E-07 -1
vn -0 -1.1920929E-07 -1
vn -0 -1.1920929E-07 -1
vn -0 -1.1920929E-07 -1
vn -0 -1.1920929E-07 -1
vn -0 -1.1920929E-07 -1
vn -0 -1.1920929E-07 -1
vn -0 -1.1920929E-07 -1
g DecalMesh_MetroArea_Decal_Ground_15__62_0
f 3/3/3 2/2/2 1/1/1
f 6/6/6 5/5/5 4/4/4
f 9/9/9 8/8/8 7/7/7
f 12/12/12 11/11/11 10/10/10
f 15/15/15 14/14/14 13/13/13
f 18/18/18 17/17/17 16/16/16
f 21/21/21 20/20/20 19/19/19
f 24/24/24 23/23/23 22/22/22
f 27/27/27 26/26/26 25/25/25
f 30/30/30 29/29/29 28/28/28
f 33/33/33 32/32/32 31/31/31
f 36/36/36 35/35/35 34/34/34
f 39/39/39 38/38/38 37/37/37
f 42/42/42 41/41/41 40/40/40
f 45/45/45 44/44/44 43/43/43
f 48/48/48 47/47/47 46/46/46
f 51/51/51 50/50/50 49/49/49
f 54/54/54 53/53/53 52/52/52
f 57/57/57 56/56/56 55/55/55
f 60/60/60 59/59/59 58/58/58
f 63/63/63 62/62/62 61/61/61
f 66/66/66 65/65/65 64/64/64
f 69/69/69 68/68/68 67/67/67
f 72/72/72 71/71/71 70/70/70
f 75/75/75 74/74/74 73/73/73
f 78/78/78 77/77/77 76/76/76
f 81/81/81 80/80/80 79/79/79
f 84/84/84 83/83/83 82/82/82
f 87/87/87 86/86/86 85/85/85
f 90/90/90 89/89/89 88/88/88
f 93/93/93 92/92/92 91/91/91
f 96/96/96 95/95/95 94/94/94
f 99/99/99 98/98/98 97/97/97
