g DecalMesh_MetroArea_Decal_Ground_23__12
v 0.65 0.2999998 -0.49299935
v -0.65 0.29999986 -0.4929991
v -0.5324947 -0.29999983 -0.49299917
v 0.65 0.2999998 -0.49299935
v -0.5324947 -0.29999983 -0.49299917
v 0.65 -0.2999999 -0.4929994
v -0.65 0.29999986 -0.4929991
v -0.65 -0.3 -0.49299917
v -0.53249466 -0.30000004 -0.49299917
v -0.2960472 -0.28713617 -0.49010086
v -0.3028306 -0.3 -0.4972347
v -0.3028306 -0.3 -0.49010086
v -0.2960472 -0.28713617 -0.49010086
v -0.2960472 -0.28713617 -0.5
v -0.29909417 -0.29291436 -0.5
v -0.3028306 -0.3 -0.4972347
v -0.2960472 -0.28713617 -0.49010086
v -0.29909417 -0.29291436 -0.5
v -0.3028306 -0.3 -0.4972347
v -0.29909417 -0.29291436 -0.5
v -0.3028306 -0.3 -0.5
v -0.2960472 -0.28713617 -0.49010086
v -0.2860911 -0.24332628 -0.49010086
v -0.2905632 -0.2630048 -0.5
v -0.2960472 -0.28713617 -0.49010086
v -0.2905632 -0.2630048 -0.5
v -0.2960472 -0.28713617 -0.5
v -0.2860911 -0.24332628 -0.49010086
v -0.2860911 -0.24332628 -0.5
v -0.2905632 -0.26300484 -0.5
v -0.2860911 -0.24332628 -0.49010086
v -0.2878132 -0.19843301 -0.49010086
v -0.28703967 -0.21859819 -0.5
v -0.2860911 -0.24332628 -0.49010086
v -0.28703967 -0.21859819 -0.5
v -0.2860911 -0.24332628 -0.5
v -0.2878132 -0.19843301 -0.49010086
v -0.2878132 -0.19843301 -0.5
v -0.28703967 -0.21859819 -0.5
v -0.2878132 -0.19843301 -0.49010086
v -0.30109608 -0.15551382 -0.49010086
v -0.29512966 -0.17479229 -0.5
v -0.2878132 -0.19843301 -0.49010086
v -0.29512966 -0.17479229 -0.5
v -0.2878132 -0.19843301 -0.5
v -0.30109608 -0.15551382 -0.49010086
v -0.30109608 -0.15551382 -0.5
v -0.29512966 -0.17479229 -0.5
v -0.30109608 -0.15551382 -0.49010086
v -0.32503438 -0.11749655 -0.49010083
v -0.31428173 -0.13457319 -0.5
v -0.30109608 -0.15551382 -0.49010086
v -0.31428173 -0.13457319 -0.5
v -0.30109608 -0.15551382 -0.5
v -0.32503438 -0.11749655 -0.49010083
v -0.32503438 -0.11749655 -0.5
v -0.31428173 -0.13457319 -0.5
v -0.32503438 -0.11749655 -0.49010083
v -0.3579968 -0.086969435 -0.49010083
v -0.34319052 -0.10068179 -0.5
v -0.32503438 -0.11749655 -0.49010083
v -0.34319052 -0.10068179 -0.5
v -0.32503438 -0.11749655 -0.5
v -0.3579968 -0.086969435 -0.49010083
v -0.3579968 -0.086969435 -0.5
v -0.34319052 -0.10068179 -0.5
v -0.3579968 -0.086969435 -0.49010083
v -0.39773703 -0.066013396 -0.49010083
v -0.37988627 -0.075426556 -0.5
v -0.3579968 -0.086969435 -0.49010083
v -0.37988627 -0.075426556 -0.5
v -0.3579968 -0.086969435 -0.5
v -0.39773703 -0.066013396 -0.49010083
v -0.39773703 -0.066013396 -0.5
v -0.37988627 -0.075426556 -0.5
v -0.39773703 -0.066013396 -0.49010083
v -0.44154692 -0.056057036 -0.4901008
v -0.4218681 -0.060529303 -0.5
v -0.39773703 -0.066013396 -0.49010083
v -0.4218681 -0.060529303 -0.5
v -0.39773703 -0.066013396 -0.5
v -0.44154692 -0.056057036 -0.4901008
v -0.44154692 -0.056057036 -0.5
v -0.4218681 -0.060529303 -0.5
v 0.6371719 0.11082643 -0.49010116
v 0.59336215 0.12078279 -0.49010104
v 0.59336215 0.12078279 -0.5
v 0.6371719 0.11082643 -0.49010116
v 0.59336215 0.12078279 -0.5
v 0.6174937 0.11529858 -0.5
v 0.6371719 0.11082643 -0.49010116
v 0.6174937 0.11529858 -0.5
v 0.6371719 0.11082643 -0.5
v 0.6371719 0.11082643 -0.49010116
v 0.6371719 0.11082643 -0.5
v 0.6456805 0.106339686 -0.5
v 0.65 0.1040619 -0.49010113
v 0.6371719 0.11082643 -0.49010116
v 0.6456805 0.106339686 -0.5
v 0.65 0.1040619 -0.49010113
v 0.6456805 0.106339686 -0.5
v 0.65 0.1040619 -0.5
v 0.649361 -0.20693788 -0.4901011
v 0.65 -0.20653553 -0.4901011
v 0.65 -0.20653553 -0.49047148
v 0.649361 -0.20693788 -0.4901011
v 0.65 -0.20653553 -0.49047148
v 0.649719 -0.20671247 -0.5
v 0.649361 -0.20693788 -0.4901011
v 0.649719 -0.20671247 -0.5
v 0.649361 -0.20693788 -0.5
v 0.65 -0.20653553 -0.49047148
v 0.65 -0.20653553 -0.5
v 0.649719 -0.20671247 -0.5
v 0.6064426 -0.22022066 -0.49010098
v 0.649361 -0.20693788 -0.4901011
v 0.649361 -0.20693788 -0.5
v 0.6064426 -0.22022066 -0.49010098
v 0.649361 -0.20693788 -0.5
v 0.6257204 -0.2142544 -0.5
v 0.6064426 -0.22022066 -0.49010098
v 0.6257204 -0.2142544 -0.5
v 0.6064426 -0.22022066 -0.5
v 0.5615487 -0.22194299 -0.4901011
v 0.6064426 -0.22022066 -0.49010098
v 0.6064426 -0.22022066 -0.5
v 0.5615487 -0.22194299 -0.4901011
v 0.6064426 -0.22022066 -0.5
v 0.5817138 -0.22116937 -0.5
v 0.5615487 -0.22194299 -0.4901011
v 0.5817138 -0.22116937 -0.5
v 0.5615487 -0.22194299 -0.5
vt 0.27856445 0.5527344
vt 0.44873047 0.5527344
vt 0.4333496 0.48657227
vt 0.27856445 0.5527344
vt 0.4333496 0.48657227
vt 0.27856445 0.48657227
vt 0.44873047 0.5527344
vt 0.44873047 0.48657227
vt 0.4333496 0.48657227
vt 0.40234375 0.48779297
vt 0.4033203 0.48657227
vt 0.4033203 0.48657227
vt 0.40234375 0.48779297
vt 0.40234375 0.48779297
vt 0.40283203 0.4873047
vt 0.4033203 0.48657227
vt 0.40234375 0.48779297
vt 0.40283203 0.4873047
vt 0.4033203 0.48657227
vt 0.40283203 0.4873047
vt 0.4033203 0.48657227
vt 0.40234375 0.48779297
vt 0.40112305 0.49267578
vt 0.40161133 0.49047852
vt 0.40234375 0.48779297
vt 0.40161133 0.49047852
vt 0.40234375 0.48779297
vt 0.40112305 0.49267578
vt 0.40112305 0.49267578
vt 0.40161133 0.49047852
vt 0.40112305 0.49267578
vt 0.4013672 0.49780273
vt 0.4013672 0.49536133
vt 0.40112305 0.49267578
vt 0.4013672 0.49536133
vt 0.40112305 0.49267578
vt 0.4013672 0.49780273
vt 0.4013672 0.49780273
vt 0.4013672 0.49536133
vt 0.4013672 0.49780273
vt 0.40307617 0.5024414
vt 0.40234375 0.5004883
vt 0.4013672 0.49780273
vt 0.40234375 0.5004883
vt 0.4013672 0.49780273
vt 0.40307617 0.5024414
vt 0.40307617 0.5024414
vt 0.40234375 0.5004883
vt 0.40307617 0.5024414
vt 0.40625 0.50683594
vt 0.40478516 0.5048828
vt 0.40307617 0.5024414
vt 0.40478516 0.5048828
vt 0.40307617 0.5024414
vt 0.40625 0.50683594
vt 0.40625 0.50683594
vt 0.40478516 0.5048828
vt 0.40625 0.50683594
vt 0.41064453 0.5102539
vt 0.4086914 0.5083008
vt 0.40625 0.50683594
vt 0.4086914 0.5083008
vt 0.40625 0.50683594
vt 0.41064453 0.5102539
vt 0.41064453 0.5102539
vt 0.4086914 0.5083008
vt 0.41064453 0.5102539
vt 0.41577148 0.51220703
vt 0.41333008 0.51123047
vt 0.41064453 0.5102539
vt 0.41333008 0.51123047
vt 0.41064453 0.5102539
vt 0.41577148 0.51220703
vt 0.41577148 0.51220703
vt 0.41333008 0.51123047
vt 0.41577148 0.51220703
vt 0.42138672 0.5136719
vt 0.4189453 0.5131836
vt 0.41577148 0.51220703
vt 0.4189453 0.5131836
vt 0.41577148 0.51220703
vt 0.42138672 0.5136719
vt 0.42138672 0.5136719
vt 0.4189453 0.5131836
vt 0.28027344 0.5317383
vt 0.28588867 0.5332031
vt 0.28588867 0.5332031
vt 0.28027344 0.5317383
vt 0.28588867 0.5332031
vt 0.28271484 0.53222656
vt 0.28027344 0.5317383
vt 0.28271484 0.53222656
vt 0.28027344 0.5317383
vt 0.28027344 0.5317383
vt 0.28027344 0.5317383
vt 0.27905273 0.53125
vt 0.27856445 0.53125
vt 0.28027344 0.5317383
vt 0.27905273 0.53125
vt 0.27856445 0.53125
vt 0.27905273 0.53125
vt 0.27856445 0.53125
vt 0.27856445 0.49682617
vt 0.27856445 0.49682617
vt 0.27856445 0.49682617
vt 0.27856445 0.49682617
vt 0.27856445 0.49682617
vt 0.27856445 0.49682617
vt 0.27856445 0.49682617
vt 0.27856445 0.49682617
vt 0.27856445 0.49682617
vt 0.27856445 0.49682617
vt 0.27856445 0.49682617
vt 0.27856445 0.49682617
vt 0.2841797 0.49536133
vt 0.27856445 0.49682617
vt 0.27856445 0.49682617
vt 0.2841797 0.49536133
vt 0.27856445 0.49682617
vt 0.28173828 0.4958496
vt 0.2841797 0.49536133
vt 0.28173828 0.4958496
vt 0.2841797 0.49536133
vt 0.29003906 0.4951172
vt 0.2841797 0.49536133
vt 0.2841797 0.49536133
vt 0.29003906 0.4951172
vt 0.2841797 0.49536133
vt 0.28759766 0.4951172
vt 0.29003906 0.4951172
vt 0.28759766 0.4951172
vt 0.29003906 0.4951172
vn -1.1920929E-07 -1.1920929E-07 -1
vn -1.1920929E-07 -1.1920929E-07 -1
vn -1.1920929E-07 -1.1920929E-07 -1
vn -1.1920929E-07 -1.1920929E-07 -1
vn -1.1920929E-07 -1.1920929E-07 -1
vn -1.1920929E-07 -1.1920929E-07 -1
vn -1.1920929E-07 -1.1920929E-07 -1
vn -1.1920929E-07 -1.1920929E-07 -1
vn -1.1920929E-07 -1.1920929E-07 -1
vn 0.9379883 -0.34692383 -2.3841858E-07
vn 0.8984375 -0.42163086 -2.3841858E-07
vn 0.8984375 -0.42163086 -2.3841858E-07
vn 0.9379883 -0.34692383 -2.3841858E-07
vn 0.9379883 -0.34692383 -2.3841858E-07
vn 0.9199219 -0.38061523 -2.3841858E-07
vn 0.8984375 -0.42163086 -2.3841858E-07
vn 0.9379883 -0.34692383 -2.3841858E-07
vn 0.9199219 -0.38061523 -2.3841858E-07
vn 0.8984375 -0.42163086 -2.3841858E-07
vn 0.9199219 -0.38061523 -2.3841858E-07
vn 0.8984375 -0.42163086 -2.3841858E-07
vn 0.9379883 -0.34692383 -2.3841858E-07
vn 0.99560547 -0.09240723 -2.3841858E-07
vn 0.96972656 -0.20678711 -2.3841858E-07
vn 0.9379883 -0.34692383 -2.3841858E-07
vn 0.96972656 -0.20678711 -2.3841858E-07
vn 0.9379883 -0.34692383 -2.3841858E-07
vn 0.99560547 -0.09240723 -2.3841858E-07
vn 0.99560547 -0.09240723 -2.3841858E-07
vn 0.96972656 -0.20678711 -2.3841858E-07
vn 0.99560547 -0.09240723 -2.3841858E-07
vn 0.98583984 0.16845703 -2.3841858E-07
vn 0.9902344 0.05126953 -2.3841858E-07
vn 0.99560547 -0.09240723 -2.3841858E-07
vn 0.9902344 0.05126953 -2.3841858E-07
vn 0.99560547 -0.09240723 -2.3841858E-07
vn 0.98583984 0.16845703 -2.3841858E-07
vn 0.98583984 0.16845703 -2.3841858E-07
vn 0.9902344 0.05126953 -2.3841858E-07
vn 0.98583984 0.16845703 -2.3841858E-07
vn 0.9086914 0.4177246 -2.3841858E-07
vn 0.9433594 0.3059082 -2.3841858E-07
vn 0.98583984 0.16845703 -2.3841858E-07
vn 0.9433594 0.3059082 -2.3841858E-07
vn 0.98583984 0.16845703 -2.3841858E-07
vn 0.9086914 0.4177246 -2.3841858E-07
vn 0.9086914 0.4177246 -2.3841858E-07
vn 0.9433594 0.3059082 -2.3841858E-07
vn 0.9086914 0.4177246 -2.3841858E-07
vn 0.76953125 0.6386719 -1.7881393E-07
vn 0.83203125 0.5395508 -1.7881393E-07
vn 0.9086914 0.4177246 -2.3841858E-07
vn 0.83203125 0.5395508 -1.7881393E-07
vn 0.9086914 0.4177246 -2.3841858E-07
vn 0.76953125 0.6386719 -1.7881393E-07
vn 0.76953125 0.6386719 -1.7881393E-07
vn 0.83203125 0.5395508 -1.7881393E-07
vn 0.76953125 0.6386719 -1.7881393E-07
vn 0.578125 0.81591797 -5.9604645E-08
vn 0.6640625 0.7363281 -1.1920929E-07
vn 0.76953125 0.6386719 -1.7881393E-07
vn 0.6640625 0.7363281 -1.1920929E-07
vn 0.76953125 0.6386719 -1.7881393E-07
vn 0.578125 0.81591797 -5.9604645E-08
vn 0.578125 0.81591797 -5.9604645E-08
vn 0.6640625 0.7363281 -1.1920929E-07
vn 0.578125 0.81591797 -5.9604645E-08
vn 0.34692383 0.9379883 -5.9604645E-08
vn 0.4506836 0.8833008 -5.9604645E-08
vn 0.578125 0.81591797 -5.9604645E-08
vn 0.4506836 0.8833008 -5.9604645E-08
vn 0.578125 0.81591797 -5.9604645E-08
vn 0.34692383 0.9379883 -5.9604645E-08
vn 0.34692383 0.9379883 -5.9604645E-08
vn 0.4506836 0.8833008 -5.9604645E-08
vn 0.34692383 0.9379883 -5.9604645E-08
vn 0.09240723 0.99560547 0
vn 0.20678711 0.96972656 -0
vn 0.34692383 0.9379883 -5.9604645E-08
vn 0.20678711 0.96972656 -0
vn 0.34692383 0.9379883 -5.9604645E-08
vn 0.09240723 0.99560547 0
vn 0.09240723 0.99560547 0
vn 0.20678711 0.96972656 -0
vn 0.34692383 0.9379883 -5.9604645E-08
vn 0.09240723 0.99560547 0
vn 0.09240723 0.99560547 0
vn 0.34692383 0.9379883 -5.9604645E-08
vn 0.09240723 0.99560547 0
vn 0.23266602 0.9638672 -0
vn 0.34692383 0.9379883 -5.9604645E-08
vn 0.23266602 0.9638672 -0
vn 0.34692383 0.9379883 -5.9604645E-08
vn 0.34692383 0.9379883 -5.9604645E-08
vn 0.34692383 0.9379883 -5.9604645E-08
vn 0.39648438 0.9116211 -5.9604645E-08
vn 0.42163086 0.8984375 -5.9604645E-08
vn 0.34692383 0.9379883 -5.9604645E-08
vn 0.39648438 0.9116211 -5.9604645E-08
vn 0.42163086 0.8984375 -5.9604645E-08
vn 0.39648438 0.9116211 -5.9604645E-08
vn 0.42163086 0.8984375 -5.9604645E-08
vn 0.4177246 -0.9086914 -1.1920929E-07
vn 0.42163086 -0.90625 -1.1920929E-07
vn 0.42163086 -0.90625 -1.1920929E-07
vn 0.4177246 -0.9086914 -1.1920929E-07
vn 0.42163086 -0.90625 -1.1920929E-07
vn 0.41992188 -0.90722656 -1.1920929E-07
vn 0.4177246 -0.9086914 -1.1920929E-07
vn 0.41992188 -0.90722656 -1.1920929E-07
vn 0.4177246 -0.9086914 -1.1920929E-07
vn 0.42163086 -0.90625 -1.1920929E-07
vn 0.42163086 -0.90625 -1.1920929E-07
vn 0.41992188 -0.90722656 -1.1920929E-07
vn 0.16845703 -0.98583984 -1.1920929E-07
vn 0.4177246 -0.9086914 -1.1920929E-07
vn 0.4177246 -0.9086914 -1.1920929E-07
vn 0.16845703 -0.98583984 -1.1920929E-07
vn 0.4177246 -0.9086914 -1.1920929E-07
vn 0.28051758 -0.9511719 -1.1920929E-07
vn 0.16845703 -0.98583984 -1.1920929E-07
vn 0.28051758 -0.9511719 -1.1920929E-07
vn 0.16845703 -0.98583984 -1.1920929E-07
vn -0.09240723 -0.99560547 -0
vn 0.16845703 -0.98583984 -1.1920929E-07
vn 0.16845703 -0.98583984 -1.1920929E-07
vn -0.09240723 -0.99560547 -0
vn 0.16845703 -0.98583984 -1.1920929E-07
vn 0.024749756 -0.99121094 -5.9604645E-08
vn -0.09240723 -0.99560547 -0
vn 0.024749756 -0.99121094 -5.9604645E-08
vn -0.09240723 -0.99560547 -0
g DecalMesh_MetroArea_Decal_Ground_23__12_0
f 3/3/3 2/2/2 1/1/1
f 6/6/6 5/5/5 4/4/4
f 9/9/9 8/8/8 7/7/7
f 12/12/12 11/11/11 10/10/10
f 15/15/15 14/14/14 13/13/13
f 18/18/18 17/17/17 16/16/16
f 21/21/21 20/20/20 19/19/19
f 24/24/24 23/23/23 22/22/22
f 27/27/27 26/26/26 25/25/25
f 30/30/30 29/29/29 28/28/28
f 33/33/33 32/32/32 31/31/31
f 36/36/36 35/35/35 34/34/34
f 39/39/39 38/38/38 37/37/37
f 42/42/42 41/41/41 40/40/40
f 45/45/45 44/44/44 43/43/43
f 48/48/48 47/47/47 46/46/46
f 51/51/51 50/50/50 49/49/49
f 54/54/54 53/53/53 52/52/52
f 57/57/57 56/56/56 55/55/55
f 60/60/60 59/59/59 58/58/58
f 63/63/63 62/62/62 61/61/61
f 66/66/66 65/65/65 64/64/64
f 69/69/69 68/68/68 67/67/67
f 72/72/72 71/71/71 70/70/70
f 75/75/75 74/74/74 73/73/73
f 78/78/78 77/77/77 76/76/76
f 81/81/81 80/80/80 79/79/79
f 84/84/84 83/83/83 82/82/82
f 87/87/87 86/86/86 85/85/85
f 90/90/90 89/89/89 88/88/88
f 93/93/93 92/92/92 91/91/91
f 96/96/96 95/95/95 94/94/94
f 99/99/99 98/98/98 97/97/97
f 102/102/102 101/101/101 100/100/100
f 105/105/105 104/104/104 103/103/103
f 108/108/108 107/107/107 106/106/106
f 111/111/111 110/110/110 109/109/109
f 114/114/114 113/113/113 112/112/112
f 117/117/117 116/116/116 115/115/115
f 120/120/120 119/119/119 118/118/118
f 123/123/123 122/122/122 121/121/121
f 126/126/126 125/125/125 124/124/124
f 129/129/129 128/128/128 127/127/127
f 132/132/132 131/131/131 130/130/130
