g DecalMesh_MetroArea_Decal_Ground_28__55
v 0.07359516 0.36964023 -0.4819825
v 0.07359516 0.36964023 -0.45226678
v 0.07359572 -0.36364016 -0.452267
v 0.07359516 0.36964023 -0.4819825
v 0.07359572 -0.36364016 -0.452267
v 0.07359572 -0.36364016 -0.4727171
v 1.9019065 0.3696402 -0.4734768
v 0.22188754 0.3696402 -0.4819825
v 0.95516855 -0.36364025 -0.4727171
v 1.9019065 0.3696402 -0.4734768
v 0.95516855 -0.36364025 -0.4727171
v 1.9019065 -0.36364025 -0.4679239
v 0.18204491 0.3696402 -0.4819825
v 0.14823 -0.36364025 -0.4727171
v 0.71831095 -0.36364025 -0.4727171
v 0.18204491 0.3696402 -0.4819825
v 0.07359516 0.3696402 -0.4819825
v 0.07359572 -0.36364016 -0.4727171
v 0.18204491 0.3696402 -0.4819825
v 0.07359572 -0.36364016 -0.4727171
v 0.14823 -0.36364016 -0.4727171
v 0.22188754 0.3696402 -0.4819825
v 0.74573034 -0.36364025 -0.4727171
v 0.95516855 -0.36364025 -0.4727171
v 0.22188754 0.3696402 -0.4819825
v 0.18204491 0.3696402 -0.4819825
v 0.7183109 -0.36364016 -0.4727171
v 0.22188754 0.3696402 -0.4819825
v 0.7183109 -0.36364016 -0.4727171
v 0.7457303 -0.36364016 -0.4727171
v -1.9019065 -0.006567043 -0.45226687
v -1.9019065 -0.36364022 -0.45226696
v -1.5448327 -0.36364022 -0.45226696
v 0.07359516 0.36964023 -0.45226678
v -1.9019065 0.36964023 -0.45226678
v -1.2859294 -0.36364016 -0.452267
v 0.07359516 0.36964023 -0.45226678
v -1.2859294 -0.36364016 -0.452267
v 0.07359572 -0.36364016 -0.452267
v -1.9019065 0.36964023 -0.45226678
v -1.9019065 -0.0065670176 -0.45226687
v -1.5448327 -0.36364028 -0.45226696
v -1.9019065 0.36964023 -0.45226678
v -1.5448327 -0.36364028 -0.45226696
v -1.2859294 -0.36364016 -0.452267
v 1.8964871 0.36964032 -0.34300047
v 1.8878629 -0.3636402 -0.34300035
v 1.8999528 -0.3636402 -0.34300035
v 1.8964871 0.36964032 -0.34300047
v 1.8830013 0.36964032 -0.34300047
v 1.8830013 -0.3636402 -0.34300035
v 1.8964871 0.36964032 -0.34300047
v 1.8830013 -0.3636402 -0.34300035
v 1.8878629 -0.3636402 -0.34300035
v 1.9019065 0.36964035 -0.34300047
v 1.8964871 0.3696402 -0.34300047
v 1.8999528 -0.3636402 -0.34300035
v 1.9019065 0.36964035 -0.34300047
v 1.8999528 -0.3636402 -0.34300035
v 1.9019065 -0.3636402 -0.34300035
v 1.8830013 0.36964032 -0.34300047
v 1.8830013 -0.3636402 -0.2790498
v 1.8830013 -0.3636402 -0.34300035
v 1.8830013 0.36964032 -0.34300047
v 1.8830013 0.36964032 -0.27166623
v 1.8830013 -0.3636402 -0.25333402
v 1.8830013 0.36964032 -0.34300047
v 1.8830013 -0.3636402 -0.25333402
v 1.8830013 -0.3636402 -0.2790498
v 1.8830013 0.3696402 -0.27166623
v 1.8830013 0.3696402 -0.24300008
v 1.8830013 -0.3636402 -0.24299997
v 1.8830013 0.3696402 -0.27166623
v 1.8830013 -0.3636402 -0.24299997
v 1.8830013 -0.3636402 -0.25333402
vt 0.8149414 0.39868164
vt 0.8149414 0.39868164
vt 0.8149414 0.32739258
vt 0.8149414 0.39868164
vt 0.8149414 0.32739258
vt 0.8149414 0.32739258
vt 0.6513672 0.39868164
vt 0.8017578 0.39868164
vt 0.7363281 0.32739258
vt 0.6513672 0.39868164
vt 0.7363281 0.32739258
vt 0.6513672 0.32739258
vt 0.8051758 0.39868164
vt 0.80810547 0.32739258
vt 0.7573242 0.32739258
vt 0.8051758 0.39868164
vt 0.8149414 0.39868164
vt 0.8149414 0.32739258
vt 0.8051758 0.39868164
vt 0.8149414 0.32739258
vt 0.80810547 0.32739258
vt 0.8017578 0.39868164
vt 0.7548828 0.32739258
vt 0.7363281 0.32739258
vt 0.8017578 0.39868164
vt 0.8051758 0.39868164
vt 0.7573242 0.32739258
vt 0.8017578 0.39868164
vt 0.7573242 0.32739258
vt 0.7548828 0.32739258
vt 0.99121094 0.36206055
vt 0.99121094 0.32739258
vt 0.95947266 0.32739258
vt 0.8149414 0.39868164
vt 0.99121094 0.39868164
vt 0.93603516 0.32739258
vt 0.8149414 0.39868164
vt 0.93603516 0.32739258
vt 0.8149414 0.32739258
vt 0.99121094 0.39868164
vt 0.99121094 0.36206055
vt 0.95947266 0.32739258
vt 0.99121094 0.39868164
vt 0.95947266 0.32739258
vt 0.93603516 0.32739258
vt 0.65185547 0.39868164
vt 0.65283203 0.32739258
vt 0.65185547 0.32739258
vt 0.65185547 0.39868164
vt 0.6533203 0.39868164
vt 0.6533203 0.32739258
vt 0.65185547 0.39868164
vt 0.6533203 0.32739258
vt 0.65283203 0.32739258
vt 0.6513672 0.39868164
vt 0.65185547 0.39868164
vt 0.65185547 0.32739258
vt 0.6513672 0.39868164
vt 0.65185547 0.32739258
vt 0.6513672 0.32739258
vt 0.6533203 0.39868164
vt 0.6533203 0.32739258
vt 0.6533203 0.32739258
vt 0.6533203 0.39868164
vt 0.6533203 0.39868164
vt 0.6533203 0.32739258
vt 0.6533203 0.39868164
vt 0.6533203 0.32739258
vt 0.6533203 0.32739258
vt 0.6533203 0.39868164
vt 0.6533203 0.39868164
vt 0.6533203 0.32739258
vt 0.6533203 0.39868164
vt 0.6533203 0.32739258
vt 0.6533203 0.32739258
vn -1 -1.7881393E-07 -0
vn -1 -1.7881393E-07 -0
vn -1 -1.7881393E-07 -0
vn -1 -1.7881393E-07 -0
vn -1 -1.7881393E-07 -0
vn -1 -1.7881393E-07 -0
vn 0.0025310516 -0.010101318 -1
vn 0.0025310516 -0.010101318 -1
vn 0.0025310516 -0.010101318 -1
vn 0.0025310516 -0.010101318 -1
vn 0.0025310516 -0.010101318 -1
vn 0.0025310516 -0.010101318 -1
vn 0.0025119781 -0.010025024 -1
vn 0.002122879 -0.008476257 -1
vn 0.0024108887 -0.009628296 -1
vn 0.0025119781 -0.010025024 -1
vn 0.002456665 -0.009803772 -1
vn 0.002084732 -0.008323669 -1
vn 0.0025119781 -0.010025024 -1
vn 0.002084732 -0.008323669 -1
vn 0.002122879 -0.008476257 -1
vn 0.0025310516 -0.010101318 -1
vn 0.0024261475 -0.009681702 -1
vn 0.0025310516 -0.010101318 -1
vn 0.0025310516 -0.010101318 -1
vn 0.0025119781 -0.010025024 -1
vn 0.0024108887 -0.009628296 -1
vn 0.0025310516 -0.010101318 -1
vn 0.0024108887 -0.009628296 -1
vn 0.0024261475 -0.009681702 -1
vn 0.0002655983 -0.0010595322 -1
vn 0.00027823448 -0.0010700226 -1
vn 0.00044631958 -0.0017814636 -1
vn 7.510185E-05 -0.00029945374 -1
vn 7.510185E-05 -0.00029945374 -1
vn 0.00044631958 -0.0017814636 -1
vn 7.510185E-05 -0.00029945374 -1
vn 0.00044631958 -0.0017814636 -1
vn 0.00044631958 -0.0017814636 -1
vn 7.510185E-05 -0.00029945374 -1
vn 0.0002655983 -0.0010595322 -1
vn 0.00044631958 -0.0017814636 -1
vn 7.510185E-05 -0.00029945374 -1
vn 0.00044631958 -0.0017814636 -1
vn 0.00044631958 -0.0017814636 -1
vn -0 -1.1920929E-07 -1
vn -0 -1.1920929E-07 -1
vn -0 -1.1920929E-07 -1
vn -0 -1.1920929E-07 -1
vn -0 -1.1920929E-07 -1
vn -0 -1.1920929E-07 -1
vn -0 -1.1920929E-07 -1
vn -0 -1.1920929E-07 -1
vn -0 -1.1920929E-07 -1
vn -0 -1.1920929E-07 -1
vn -0 -1.1920929E-07 -1
vn -0 -1.1920929E-07 -1
vn -0 -1.1920929E-07 -1
vn -0 -1.1920929E-07 -1
vn -0 -1.1920929E-07 -1
vn -1 0 0
vn -1 0 0
vn -1 0 0
vn -1 0 0
vn -1 0 0
vn -1 0 0
vn -1 0 0
vn -1 0 0
vn -1 0 0
vn -1 0 0
vn -1 0 0
vn -1 0 0
vn -1 0 0
vn -1 0 0
vn -1 0 0
g DecalMesh_MetroArea_Decal_Ground_28__55_0
f 3/3/3 2/2/2 1/1/1
f 6/6/6 5/5/5 4/4/4
f 9/9/9 8/8/8 7/7/7
f 12/12/12 11/11/11 10/10/10
f 15/15/15 14/14/14 13/13/13
f 18/18/18 17/17/17 16/16/16
f 21/21/21 20/20/20 19/19/19
f 24/24/24 23/23/23 22/22/22
f 27/27/27 26/26/26 25/25/25
f 30/30/30 29/29/29 28/28/28
f 33/33/33 32/32/32 31/31/31
f 36/36/36 35/35/35 34/34/34
f 39/39/39 38/38/38 37/37/37
f 42/42/42 41/41/41 40/40/40
f 45/45/45 44/44/44 43/43/43
f 48/48/48 47/47/47 46/46/46
f 51/51/51 50/50/50 49/49/49
f 54/54/54 53/53/53 52/52/52
f 57/57/57 56/56/56 55/55/55
f 60/60/60 59/59/59 58/58/58
f 63/63/63 62/62/62 61/61/61
f 66/66/66 65/65/65 64/64/64
f 69/69/69 68/68/68 67/67/67
f 72/72/72 71/71/71 70/70/70
f 75/75/75 74/74/74 73/73/73
