g DecalMesh_MetroArea_Decal_Crack_04__132
v -1.9805298 3.0030007 0.019915732
v -2.9999998 0.021557152 0.021705594
v -2.4393613 -2.9970002 0.023148037
v -1.9805298 3.0030007 0.019915732
v -2.4393613 -2.9970002 0.023148037
v -1.3553158 -2.9969995 0.022896422
v -2.9999998 0.021557152 0.021705594
v -2.9999998 -2.997 0.023278166
v -2.4393613 -2.997 0.023148037
v -1.9805298 3.0030007 0.019915732
v -3 3.003001 0.020152356
v -3 0.02155659 0.021705594
v -0.4324877 3.0030007 0.019556299
v -0.28861597 -2.997 0.02264875
v 0.6613497 -2.9969997 0.022428183
v -0.4324877 3.0030007 0.019556299
v -1.9805298 3.0030007 0.019915732
v -1.3553158 -2.9969995 0.022896422
v -0.4324877 3.0030007 0.019556299
v -1.3553158 -2.9969995 0.022896422
v -0.288616 -2.9969995 0.02264875
v 2.9999998 1.1990299 0.019699153
v 2.4122107 3.0030003 0.018895803
v 2.5995226 -2.9969997 0.021978168
v 2.9999998 1.1990299 0.019699153
v 2.5995226 -2.9969997 0.021978168
v 2.9999998 -2.9969997 0.021885183
v 2.4122107 3.0030003 0.018895803
v -0.4324877 3.0030007 0.019556299
v 0.66134983 -2.9970005 0.022428183
v 2.4122107 3.0030003 0.018895803
v 0.66134983 -2.9970005 0.022428183
v 2.5995226 -2.9969997 0.021978168
v 3.0000002 1.1990288 0.019699153
v 3.0000002 3.003 0.01875942
v 2.412211 3.003 0.018895803
vt 0.9238281 0.95751953
vt 1.0078125 0.48266602
vt 0.96191406 0.0017461777
vt 0.9238281 0.95751953
vt 0.96191406 0.0017461777
vt 0.8720703 0.0017461777
vt 1.0078125 0.48266602
vt 1.0078125 0.0017461777
vt 0.96191406 0.0017461777
vt 0.9238281 0.95751953
vt 1.0078125 0.95751953
vt 1.0078125 0.48266602
vt 0.79589844 0.95751953
vt 0.7841797 0.0017461777
vt 0.7055664 0.0017461777
vt 0.79589844 0.95751953
vt 0.9238281 0.95751953
vt 0.8720703 0.0017461777
vt 0.79589844 0.95751953
vt 0.8720703 0.0017461777
vt 0.7841797 0.0017461777
vt 0.51220703 0.67041016
vt 0.5605469 0.95751953
vt 0.5449219 0.0017461777
vt 0.51220703 0.67041016
vt 0.5449219 0.0017461777
vt 0.51220703 0.0017461777
vt 0.5605469 0.95751953
vt 0.79589844 0.95751953
vt 0.7055664 0.0017461777
vt 0.5605469 0.95751953
vt 0.7055664 0.0017461777
vt 0.5449219 0.0017461777
vt 0.51220703 0.67041016
vt 0.51220703 0.95751953
vt 0.5605469 0.95751953
vn -0.0021438599 0.021194458 -0.9995117
vn 0.00025987625 0.02407837 -0.9995117
vn -0.0005273819 0.027450562 -0.9995117
vn -0.0021438599 0.021194458 -0.9995117
vn -0.0005273819 0.027450562 -0.9995117
vn -0.0027198792 0.027755737 -0.9995117
vn 0.00025987625 0.02407837 -0.9995117
vn 0.00060606 0.027297974 -0.9995117
vn -0.0005273819 0.027450562 -0.9995117
vn -0.0021438599 0.021194458 -0.9995117
vn -8.2075596E-05 0.020904541 -0.9995117
vn 0.00025987625 0.02407837 -0.9995117
vn -0.004863739 0.021011353 -0.9995117
vn -0.0045928955 0.027633667 -0.9995117
vn -0.006263733 0.027526855 -0.9995117
vn -0.004863739 0.021011353 -0.9995117
vn -0.0021438599 0.021194458 -0.9995117
vn -0.0027198792 0.027755737 -0.9995117
vn -0.004863739 0.021011353 -0.9995117
vn -0.0027198792 0.027755737 -0.9995117
vn -0.0045928955 0.027633667 -0.9995117
vn -0.010734558 0.022613525 -0.9995117
vn -0.009857178 0.020690918 -0.9995117
vn -0.009666443 0.027313232 -0.9995117
vn -0.010734558 0.022613525 -0.9995117
vn -0.009666443 0.027313232 -0.9995117
vn -0.010368347 0.027267456 -0.9995117
vn -0.009857178 0.020690918 -0.9995117
vn -0.004863739 0.021011353 -0.9995117
vn -0.006263733 0.027526855 -0.9995117
vn -0.009857178 0.020690918 -0.9995117
vn -0.006263733 0.027526855 -0.9995117
vn -0.009666443 0.027313232 -0.9995117
vn -0.010734558 0.022613525 -0.9995117
vn -0.009384155 0.020004272 -0.9995117
vn -0.009857178 0.020690918 -0.9995117
g DecalMesh_MetroArea_Decal_Crack_04__132_0
f 3/3/3 2/2/2 1/1/1
f 6/6/6 5/5/5 4/4/4
f 9/9/9 8/8/8 7/7/7
f 12/12/12 11/11/11 10/10/10
f 15/15/15 14/14/14 13/13/13
f 18/18/18 17/17/17 16/16/16
f 21/21/21 20/20/20 19/19/19
f 24/24/24 23/23/23 22/22/22
f 27/27/27 26/26/26 25/25/25
f 30/30/30 29/29/29 28/28/28
f 33/33/33 32/32/32 31/31/31
f 36/36/36 35/35/35 34/34/34
