g DecalMesh_MetroArea_Decal_Ground_04__52
v 1.25 1.2499999 -0.13786404
v -1.25 1.2499999 -0.13786362
v 0.46275204 -1.25 -0.13786417
v 1.25 1.2499999 -0.13786404
v 0.46275204 -1.25 -0.13786417
v 1.25 -1.25 -0.1378643
v -1.25 1.2499999 -0.13786362
v -1.25 -0.14909801 -0.13786377
v -0.02677545 -1.2500001 -0.1378641
v -1.25 1.2499999 -0.13786362
v -0.02677545 -1.2500001 -0.1378641
v 0.46275204 -1.25 -0.13786417
v -1.2499998 -1.1085091 -0.13786377
v -1.2499998 -1.25 -0.13786377
v -1.1165423 -1.25 -0.1378638
v -1.25 -0.14909808 -0.13786377
v -0.48758125 -1.25 -0.13786396
v -0.026775582 -1.25 -0.1378641
v -1.25 -0.14909808 -0.13786377
v -1.25 -0.6704961 -0.13786377
v -0.7809181 -1.2500001 -0.13786389
v -1.25 -0.14909808 -0.13786377
v -0.7809181 -1.2500001 -0.13786389
v -0.48758134 -1.2499999 -0.13786396
v -1.2499999 -0.6704962 -0.13786377
v -1.2499998 -1.1085091 -0.13786377
v -1.1165423 -1.2500001 -0.1378638
v -1.2499999 -0.6704962 -0.13786377
v -1.1165423 -1.2500001 -0.1378638
v -0.7809182 -1.25 -0.13786389
vt 0.0026340485 0.77490234
vt 0.22680664 0.77490234
vt 0.07324219 0.55126953
vt 0.0026340485 0.77490234
vt 0.07324219 0.55126953
vt 0.0026340485 0.55126953
vt 0.22680664 0.77490234
vt 0.22680664 0.64941406
vt 0.117126465 0.55126953
vt 0.22680664 0.77490234
vt 0.117126465 0.55126953
vt 0.07324219 0.55126953
vt 0.22680664 0.56396484
vt 0.22680664 0.55126953
vt 0.21484375 0.55126953
vt 0.22680664 0.64941406
vt 0.15844727 0.55126953
vt 0.117126465 0.55126953
vt 0.22680664 0.64941406
vt 0.22680664 0.60302734
vt 0.18481445 0.55126953
vt 0.22680664 0.64941406
vt 0.18481445 0.55126953
vt 0.15844727 0.55126953
vt 0.22680664 0.60302734
vt 0.22680664 0.56396484
vt 0.21484375 0.55126953
vt 0.22680664 0.60302734
vt 0.21484375 0.55126953
vt 0.18481445 0.55126953
vn -1.1920929E-07 -1.1920929E-07 -1
vn -1.1920929E-07 -1.1920929E-07 -1
vn -1.1920929E-07 -1.1920929E-07 -1
vn -1.1920929E-07 -1.1920929E-07 -1
vn -1.1920929E-07 -1.1920929E-07 -1
vn -1.1920929E-07 -1.1920929E-07 -1
vn -1.1920929E-07 -1.1920929E-07 -1
vn -1.1920929E-07 -1.1920929E-07 -1
vn -1.1920929E-07 -1.1920929E-07 -1
vn -1.1920929E-07 -1.1920929E-07 -1
vn -1.1920929E-07 -1.1920929E-07 -1
vn -1.1920929E-07 -1.1920929E-07 -1
vn -1.1920929E-07 -1.1920929E-07 -1
vn -1.1920929E-07 -1.1920929E-07 -1
vn -1.1920929E-07 -1.1920929E-07 -1
vn -1.1920929E-07 -1.1920929E-07 -1
vn -1.1920929E-07 -1.1920929E-07 -1
vn -1.1920929E-07 -1.1920929E-07 -1
vn -1.1920929E-07 -1.1920929E-07 -1
vn -1.1920929E-07 -1.1920929E-07 -1
vn -1.1920929E-07 -1.1920929E-07 -1
vn -1.1920929E-07 -1.1920929E-07 -1
vn -1.1920929E-07 -1.1920929E-07 -1
vn -1.1920929E-07 -1.1920929E-07 -1
vn -1.1920929E-07 -1.1920929E-07 -1
vn -1.1920929E-07 -1.1920929E-07 -1
vn -1.1920929E-07 -1.1920929E-07 -1
vn -1.1920929E-07 -1.1920929E-07 -1
vn -1.1920929E-07 -1.1920929E-07 -1
vn -1.1920929E-07 -1.1920929E-07 -1
g DecalMesh_MetroArea_Decal_Ground_04__52_0
f 3/3/3 2/2/2 1/1/1
f 6/6/6 5/5/5 4/4/4
f 9/9/9 8/8/8 7/7/7
f 12/12/12 11/11/11 10/10/10
f 15/15/15 14/14/14 13/13/13
f 18/18/18 17/17/17 16/16/16
f 21/21/21 20/20/20 19/19/19
f 24/24/24 23/23/23 22/22/22
f 27/27/27 26/26/26 25/25/25
f 30/30/30 29/29/29 28/28/28
