g DecalMesh_MetroArea_Decal_Wall_11__51
v -0.37114453 0.6176928 -0.488648
v -0.37880358 0.59079367 -0.48864806
v 0.37458155 -0.6176928 -0.48864168
v -0.37114453 0.6176928 -0.488648
v 0.37458155 -0.6176928 -0.48864168
v 0.37471473 -0.6176928 -0.48864168
v -0.37880358 0.59079367 -0.48864806
v -0.37880355 -0.6176928 -0.48864806
v 0.37458152 -0.61769277 -0.48864168
v -0.37114453 0.6176928 -0.488648
v -0.37880358 0.6176928 -0.48864806
v -0.37880358 0.59079367 -0.48864806
v 0.37880352 0.6176929 -0.48864165
v -0.37114456 0.6176929 -0.488648
v 0.37471473 -0.6176928 -0.48864168
v 0.37880352 0.6176929 -0.48864165
v 0.37471473 -0.6176928 -0.48864168
v 0.37880364 -0.6176928 -0.48864165
vt 0.9975586 0.68652344
vt 0.99853516 0.68310547
vt 0.9042969 0.53222656
vt 0.9975586 0.68652344
vt 0.9042969 0.53222656
vt 0.9042969 0.53222656
vt 0.99853516 0.68310547
vt 0.99853516 0.53222656
vt 0.9042969 0.53222656
vt 0.9975586 0.68652344
vt 0.99853516 0.68652344
vt 0.99853516 0.68310547
vt 0.9038086 0.68652344
vt 0.9975586 0.68652344
vt 0.9042969 0.53222656
vt 0.9038086 0.68652344
vt 0.9042969 0.53222656
vt 0.9038086 0.53222656
vn 8.821487E-06 0 -1
vn 8.821487E-06 0 -1
vn 8.821487E-06 0 -1
vn 8.821487E-06 0 -1
vn 8.821487E-06 0 -1
vn 8.821487E-06 0 -1
vn 8.821487E-06 0 -1
vn 8.821487E-06 0 -1
vn 8.821487E-06 0 -1
vn 8.821487E-06 0 -1
vn 8.821487E-06 0 -1
vn 8.821487E-06 0 -1
vn 8.821487E-06 0 -1
vn 8.821487E-06 0 -1
vn 8.821487E-06 0 -1
vn 8.821487E-06 0 -1
vn 8.821487E-06 0 -1
vn 8.821487E-06 0 -1
g DecalMesh_MetroArea_Decal_Wall_11__51_0
f 3/3/3 2/2/2 1/1/1
f 6/6/6 5/5/5 4/4/4
f 9/9/9 8/8/8 7/7/7
f 12/12/12 11/11/11 10/10/10
f 15/15/15 14/14/14 13/13/13
f 18/18/18 17/17/17 16/16/16
