g DecalMesh_MetroArea_Decal_Ground_06__38
v -0.8412362 0.5482542 -0.11999884
v -1.2942486 0.5482542 -0.11999865
v -1.2942486 0.35998088 -0.11999887
v -0.75203425 0.54825413 -0.11999884
v -1.2942486 0.32652462 -0.11999887
v -1.2942486 0.27743083 -0.11999887
v -0.75203425 0.54825413 -0.11999884
v -0.84123623 0.54825413 -0.11999884
v -1.2942487 0.35998082 -0.11999887
v -0.75203425 0.54825413 -0.11999884
v -1.2942487 0.35998082 -0.11999887
v -1.2942487 0.3265246 -0.11999887
v -0.68859977 0.54825413 -0.119998835
v -1.2942486 0.24916016 -0.11999887
v -1.2942486 0.19505788 -0.11999887
v -0.68859977 0.54825413 -0.119998835
v -0.75203425 0.54825413 -0.11999884
v -1.2942486 0.2774308 -0.11999887
v -0.68859977 0.54825413 -0.119998835
v -1.2942486 0.2774308 -0.11999887
v -1.2942485 0.24916022 -0.11999887
v -0.5307642 0.54825413 -0.119998835
v -1.2942486 0.11517184 -0.11999888
v -1.2942486 -0.21535307 -0.11999891
v -0.5307642 0.54825413 -0.119998835
v -0.68859977 0.54825413 -0.119998835
v -1.2942487 0.19505781 -0.11999887
v -0.5307642 0.54825413 -0.119998835
v -1.2942487 0.19505781 -0.11999887
v -1.2942487 0.115171745 -0.11999888
v -0.5037406 0.54825413 -0.119998634
v -1.2942486 -0.23591343 -0.11999876
v -1.2942487 -0.35267767 -0.1199979
v -0.5037406 0.54825413 -0.119998634
v -0.5307642 0.54825413 -0.119998835
v -1.2942486 -0.21535303 -0.11999891
v -0.5037406 0.54825413 -0.119998634
v -1.2942486 -0.21535303 -0.11999891
v -1.2942485 -0.23591332 -0.11999876
v -0.4427148 0.54825413 -0.11999884
v -1.2942487 -0.40464768 -0.11999802
v -1.2942487 -0.54825413 -0.11999833
v -0.4427148 0.54825413 -0.11999884
v -1.2942487 -0.54825413 -0.11999833
v -1.101731 -0.54825413 -0.11999898
v -0.4427148 0.54825413 -0.11999884
v -0.5037406 0.54825413 -0.119998634
v -1.2942487 -0.35267773 -0.1199979
v -0.4427148 0.54825413 -0.11999884
v -1.2942487 -0.35267773 -0.1199979
v -1.2942486 -0.40464756 -0.11999802
v -0.41625124 0.54825413 -0.11999884
v -1.0813429 -0.54825413 -0.11999897
v -0.94383067 -0.5482542 -0.11999897
v -0.41625124 0.54825413 -0.11999884
v -0.4427148 0.54825413 -0.11999884
v -1.101731 -0.54825413 -0.11999898
v -0.41625124 0.54825413 -0.11999884
v -1.101731 -0.54825413 -0.11999898
v -1.095748 -0.54825413 -0.11999898
v -0.41625124 0.54825413 -0.11999884
v -1.095748 -0.54825413 -0.11999898
v -1.0813429 -0.5482541 -0.11999897
v -0.40146425 0.54825413 -0.11999884
v -0.9324386 -0.5482542 -0.11999897
v -0.855601 -0.5482542 -0.11999897
v -0.40146425 0.54825413 -0.11999884
v -0.41625124 0.54825413 -0.11999884
v -0.94383067 -0.54825413 -0.11999897
v -0.40146425 0.54825413 -0.11999884
v -0.94383067 -0.54825413 -0.11999897
v -0.93792903 -0.54825413 -0.11999897
v -0.40146425 0.54825413 -0.11999884
v -0.93792903 -0.5482542 -0.11999897
v -0.9324386 -0.5482542 -0.11999897
v -0.39832026 0.54825413 -0.11999884
v -0.85317874 -0.54825413 -0.11999897
v -0.8368417 -0.54825413 -0.11999898
v -0.39832026 0.54825413 -0.11999884
v -0.40146425 0.54825413 -0.11999884
v -0.85560095 -0.54825413 -0.11999897
v -0.39832026 0.54825413 -0.11999884
v -0.85560095 -0.54825413 -0.11999897
v -0.85405624 -0.54825413 -0.11999897
v -0.39832026 0.54825413 -0.11999884
v -0.85405624 -0.5482542 -0.11999897
v -0.85317874 -0.5482542 -0.11999897
v -0.37635362 0.54825413 -0.11999884
v -0.8199183 -0.54825413 -0.11999897
v -0.7057733 -0.54825413 -0.11999898
v -0.37635362 0.54825413 -0.11999884
v -0.39832026 0.54825413 -0.11999884
v -0.8368417 -0.54825413 -0.11999898
v -0.37635362 0.54825413 -0.11999884
v -0.8368417 -0.54825413 -0.11999898
v -0.82562685 -0.54825413 -0.11999898
v -0.37635362 0.54825413 -0.11999884
v -0.82562685 -0.54825413 -0.11999898
v -0.8199183 -0.54825413 -0.11999897
v -0.31002674 0.54825413 -0.119998835
v -0.65467054 -0.54825413 -0.11999897
v -0.31002003 -0.54825413 -0.119998954
v -0.31002674 0.54825413 -0.119998835
v -0.37635362 0.54825413 -0.11999884
v -0.70577323 -0.5482541 -0.11999898
v -0.31002674 0.54825413 -0.119998835
v -0.70577323 -0.5482541 -0.11999898
v -0.66325015 -0.5482541 -0.11999897
v -0.31002674 0.54825413 -0.119998835
v -0.6632502 -0.54825413 -0.11999897
v -0.65467054 -0.54825413 -0.11999897
v -0.16742139 0.54825413 -0.119998835
v 0.48541322 -0.54825413 -0.119999
v 0.54079837 -0.54825413 -0.11999893
v -0.16742139 0.54825413 -0.119998835
v -0.17758726 0.54825413 -0.11999884
v 0.4801355 -0.54825413 -0.119999
v -0.16742139 0.54825413 -0.119998835
v 0.4801355 -0.54825413 -0.119999
v 0.48541322 -0.54825413 -0.119999
v 1.2942486 0.05494732 -0.11999754
v 0.18594582 0.54825413 -0.11999842
v 0.7229493 -0.54825413 -0.119998716
v 1.2942486 0.05494732 -0.11999754
v 0.7229493 -0.54825413 -0.119998716
v 1.2942486 -0.5482541 -0.11999805
v 0.18594582 0.54825413 -0.11999842
v -0.16742139 0.54825413 -0.119998835
v 0.54079837 -0.54825413 -0.11999893
v 0.18594582 0.54825413 -0.11999842
v 0.54079837 -0.54825413 -0.11999893
v 0.7229493 -0.54825413 -0.119998716
v 1.2942486 0.05494732 -0.11999754
v 1.2942486 0.23275055 -0.119997516
v 0.35038516 0.54825413 -0.119998276
v 1.2942486 0.05494732 -0.11999754
v 0.35038516 0.54825413 -0.119998276
v 0.18594582 0.54825413 -0.11999842
v 1.2942486 0.23275055 -0.119997516
v 1.2942486 0.54825413 -0.119998634
v 0.3503851 0.54825413 -0.119998276
v -0.17758726 0.54825413 -0.11999884
v 0.35910392 -0.54825413 -0.11999897
v 0.4801355 -0.54825413 -0.119999
v -0.17758726 0.54825413 -0.11999884
v -0.20016618 0.54825413 -0.11999884
v 0.34540018 -0.5482542 -0.11999897
v -0.17758726 0.54825413 -0.11999884
v 0.34540018 -0.5482542 -0.11999897
v 0.35910398 -0.5482542 -0.11999897
v -0.24373381 0.54825413 -0.11999884
v -0.2511637 -0.54825413 -0.11999896
v 0.08541864 -0.54825413 -0.11999897
v -0.24373381 0.54825413 -0.11999884
v -0.30999756 0.54825413 -0.119998835
v -0.30999756 -0.54825395 -0.119998954
v -0.24373381 0.54825413 -0.11999884
v -0.30999756 -0.54825395 -0.119998954
v -0.2511637 -0.54825395 -0.11999896
v -0.23678531 0.54825413 -0.11999884
v 0.090773635 -0.54825413 -0.11999897
v 0.12688254 -0.54825413 -0.119998984
v -0.23678531 0.54825413 -0.11999884
v -0.24373381 0.54825413 -0.11999884
v 0.0854186 -0.548254 -0.11999897
v -0.23678531 0.54825413 -0.11999884
v 0.0854186 -0.548254 -0.11999897
v 0.09077359 -0.548254 -0.11999897
v -0.20016618 0.54825413 -0.11999884
v 0.15412578 -0.54825413 -0.119998984
v 0.34540012 -0.54825413 -0.11999897
v -0.20016618 0.54825413 -0.11999884
v -0.23678531 0.54825413 -0.11999884
v 0.12688254 -0.54825413 -0.119998984
v -0.20016618 0.54825413 -0.11999884
v 0.12688254 -0.54825413 -0.119998984
v 0.15412578 -0.54825413 -0.119998984
vt 0.71191406 0.86279297
vt 0.7685547 0.86279297
vt 0.7685547 0.83984375
vt 0.7011719 0.86279297
vt 0.7685547 0.8359375
vt 0.7685547 0.82958984
vt 0.7011719 0.86279297
vt 0.71191406 0.86279297
vt 0.7685547 0.83984375
vt 0.7011719 0.86279297
vt 0.7685547 0.83984375
vt 0.7685547 0.8359375
vt 0.6928711 0.86279297
vt 0.7685547 0.8261719
vt 0.7685547 0.8198242
vt 0.6928711 0.86279297
vt 0.7011719 0.86279297
vt 0.7685547 0.82958984
vt 0.6928711 0.86279297
vt 0.7685547 0.82958984
vt 0.7685547 0.8261719
vt 0.67333984 0.86279297
vt 0.7685547 0.8100586
vt 0.7685547 0.76953125
vt 0.67333984 0.86279297
vt 0.6928711 0.86279297
vt 0.7685547 0.8198242
vt 0.67333984 0.86279297
vt 0.7685547 0.8198242
vt 0.7685547 0.8100586
vt 0.6699219 0.86279297
vt 0.7685547 0.76708984
vt 0.7685547 0.7529297
vt 0.6699219 0.86279297
vt 0.67333984 0.86279297
vt 0.7685547 0.76953125
vt 0.6699219 0.86279297
vt 0.7685547 0.76953125
vt 0.7685547 0.76708984
vt 0.6621094 0.86279297
vt 0.7685547 0.74658203
vt 0.7685547 0.7290039
vt 0.6621094 0.86279297
vt 0.7685547 0.7290039
vt 0.7446289 0.7290039
vt 0.6621094 0.86279297
vt 0.6699219 0.86279297
vt 0.7685547 0.7529297
vt 0.6621094 0.86279297
vt 0.7685547 0.7529297
vt 0.7685547 0.74658203
vt 0.6591797 0.86279297
vt 0.7421875 0.7290039
vt 0.72509766 0.7290039
vt 0.6591797 0.86279297
vt 0.6621094 0.86279297
vt 0.7446289 0.7290039
vt 0.6591797 0.86279297
vt 0.7446289 0.7290039
vt 0.7441406 0.7290039
vt 0.6591797 0.86279297
vt 0.7441406 0.7290039
vt 0.7421875 0.7290039
vt 0.65722656 0.86279297
vt 0.7236328 0.7290039
vt 0.7138672 0.7290039
vt 0.65722656 0.86279297
vt 0.6591797 0.86279297
vt 0.72509766 0.7290039
vt 0.65722656 0.86279297
vt 0.72509766 0.7290039
vt 0.7241211 0.7290039
vt 0.65722656 0.86279297
vt 0.7241211 0.7290039
vt 0.7236328 0.7290039
vt 0.6567383 0.86279297
vt 0.7138672 0.7290039
vt 0.7114258 0.7290039
vt 0.6567383 0.86279297
vt 0.65722656 0.86279297
vt 0.7138672 0.7290039
vt 0.6567383 0.86279297
vt 0.7138672 0.7290039
vt 0.7138672 0.7290039
vt 0.6567383 0.86279297
vt 0.7138672 0.7290039
vt 0.7138672 0.7290039
vt 0.6538086 0.86279297
vt 0.70947266 0.7290039
vt 0.6953125 0.7290039
vt 0.6538086 0.86279297
vt 0.6567383 0.86279297
vt 0.7114258 0.7290039
vt 0.6538086 0.86279297
vt 0.7114258 0.7290039
vt 0.70996094 0.7290039
vt 0.6538086 0.86279297
vt 0.70996094 0.7290039
vt 0.70947266 0.7290039
vt 0.6459961 0.86279297
vt 0.68896484 0.7290039
vt 0.6459961 0.7290039
vt 0.6459961 0.86279297
vt 0.6538086 0.86279297
vt 0.6953125 0.7290039
vt 0.6459961 0.86279297
vt 0.6953125 0.7290039
vt 0.6899414 0.7290039
vt 0.6459961 0.86279297
vt 0.6899414 0.7290039
vt 0.68896484 0.7290039
vt 0.6279297 0.86279297
vt 0.5463867 0.7290039
vt 0.5395508 0.7290039
vt 0.6279297 0.86279297
vt 0.62939453 0.86279297
vt 0.546875 0.7290039
vt 0.6279297 0.86279297
vt 0.546875 0.7290039
vt 0.5463867 0.7290039
vt 0.4453125 0.8027344
vt 0.5839844 0.86279297
vt 0.51660156 0.7290039
vt 0.4453125 0.8027344
vt 0.51660156 0.7290039
vt 0.4453125 0.7290039
vt 0.5839844 0.86279297
vt 0.6279297 0.86279297
vt 0.5395508 0.7290039
vt 0.5839844 0.86279297
vt 0.5395508 0.7290039
vt 0.51660156 0.7290039
vt 0.4453125 0.8027344
vt 0.4453125 0.82421875
vt 0.5629883 0.86279297
vt 0.4453125 0.8027344
vt 0.5629883 0.86279297
vt 0.5839844 0.86279297
vt 0.4453125 0.82421875
vt 0.4453125 0.86279297
vt 0.5629883 0.86279297
vt 0.62939453 0.86279297
vt 0.5620117 0.7290039
vt 0.546875 0.7290039
vt 0.62939453 0.86279297
vt 0.63183594 0.86279297
vt 0.56396484 0.7290039
vt 0.62939453 0.86279297
vt 0.56396484 0.7290039
vt 0.5620117 0.7290039
vt 0.6376953 0.86279297
vt 0.6381836 0.7290039
vt 0.5961914 0.7290039
vt 0.6376953 0.86279297
vt 0.6459961 0.86279297
vt 0.6459961 0.7290039
vt 0.6376953 0.86279297
vt 0.6459961 0.7290039
vt 0.6381836 0.7290039
vt 0.63671875 0.86279297
vt 0.5957031 0.7290039
vt 0.5913086 0.7290039
vt 0.63671875 0.86279297
vt 0.6376953 0.86279297
vt 0.5961914 0.7290039
vt 0.63671875 0.86279297
vt 0.5961914 0.7290039
vt 0.5957031 0.7290039
vt 0.63183594 0.86279297
vt 0.5878906 0.7290039
vt 0.56396484 0.7290039
vt 0.63183594 0.86279297
vt 0.63671875 0.86279297
vt 0.5913086 0.7290039
vt 0.63183594 0.86279297
vt 0.5913086 0.7290039
vt 0.5878906 0.7290039
vn -2.3841858E-07 5.9604645E-08 -1
vn -2.3841858E-07 5.9604645E-08 -1
vn -2.3841858E-07 5.9604645E-08 -1
vn -2.3841858E-07 5.9604645E-08 -1
vn -2.3841858E-07 5.9604645E-08 -1
vn -2.3841858E-07 5.9604645E-08 -1
vn -2.3841858E-07 5.9604645E-08 -1
vn -2.3841858E-07 5.9604645E-08 -1
vn -2.3841858E-07 5.9604645E-08 -1
vn -2.3841858E-07 5.9604645E-08 -1
vn -2.3841858E-07 5.9604645E-08 -1
vn -2.3841858E-07 5.9604645E-08 -1
vn -2.3841858E-07 -9.930134E-05 -1
vn -2.3841858E-07 -8.85725E-05 -1
vn -2.9802322E-07 -0.00025820732 -1
vn -2.3841858E-07 -9.930134E-05 -1
vn -2.3841858E-07 5.9604645E-08 -1
vn -2.3841858E-07 5.9604645E-08 -1
vn -2.3841858E-07 -9.930134E-05 -1
vn -2.3841858E-07 5.9604645E-08 -1
vn -2.3841858E-07 -8.85725E-05 -1
vn -1.7881393E-07 0 -1
vn -2.3841858E-07 -0.00020802021 -1
vn -5.9604645E-08 -1.1920929E-07 -1
vn -1.7881393E-07 0 -1
vn -2.3841858E-07 -9.930134E-05 -1
vn -2.9802322E-07 -0.00025820732 -1
vn -1.7881393E-07 0 -1
vn -2.9802322E-07 -0.00025820732 -1
vn -2.3841858E-07 -0.00020802021 -1
vn -4.172325E-07 5.185604E-05 -1
vn -2.3841858E-07 3.927946E-05 -1
vn -1.0728836E-06 0.0002632141 -1
vn -4.172325E-07 5.185604E-05 -1
vn -1.7881393E-07 0 -1
vn -5.9604645E-08 -1.1920929E-07 -1
vn -4.172325E-07 5.185604E-05 -1
vn -5.9604645E-08 -1.1920929E-07 -1
vn -2.3841858E-07 3.927946E-05 -1
vn -2.3841858E-07 5.9604645E-08 -1
vn -1.013279E-06 0.00023663044 -1
vn -7.748604E-07 0.00016343594 -1
vn -2.3841858E-07 5.9604645E-08 -1
vn -7.748604E-07 0.00016343594 -1
vn -2.9802322E-07 1.7881393E-07 -1
vn -2.3841858E-07 5.9604645E-08 -1
vn -4.172325E-07 5.185604E-05 -1
vn -1.0728836E-06 0.0002632141 -1
vn -2.3841858E-07 5.9604645E-08 -1
vn -1.0728836E-06 0.0002632141 -1
vn -1.013279E-06 0.00023663044 -1
vn -2.3841858E-07 5.9604645E-08 -1
vn -2.9802322E-07 1.7881393E-07 -1
vn -4.172325E-07 1.1920929E-07 -1
vn -2.3841858E-07 5.9604645E-08 -1
vn -2.3841858E-07 5.9604645E-08 -1
vn -2.9802322E-07 1.7881393E-07 -1
vn -2.3841858E-07 5.9604645E-08 -1
vn -2.9802322E-07 1.7881393E-07 -1
vn -2.9802322E-07 1.7881393E-07 -1
vn -2.3841858E-07 5.9604645E-08 -1
vn -2.9802322E-07 1.7881393E-07 -1
vn -2.9802322E-07 1.7881393E-07 -1
vn -3.5762787E-07 1.1920929E-07 -1
vn -4.7683716E-07 1.1920929E-07 -1
vn -1.013279E-06 4.172325E-07 -1
vn -3.5762787E-07 1.1920929E-07 -1
vn -2.3841858E-07 5.9604645E-08 -1
vn -4.172325E-07 1.1920929E-07 -1
vn -3.5762787E-07 1.1920929E-07 -1
vn -4.172325E-07 1.1920929E-07 -1
vn -4.172325E-07 1.1920929E-07 -1
vn -3.5762787E-07 1.1920929E-07 -1
vn -4.172325E-07 1.1920929E-07 -1
vn -4.7683716E-07 1.1920929E-07 -1
vn -0.0001667738 5.9604645E-08 -1
vn -0.00012922287 3.5762787E-07 -1
vn -0.0009937286 5.9604645E-08 -1
vn -0.0001667738 5.9604645E-08 -1
vn -3.5762787E-07 1.1920929E-07 -1
vn -1.013279E-06 4.172325E-07 -1
vn -0.0001667738 5.9604645E-08 -1
vn -1.013279E-06 4.172325E-07 -1
vn -8.279085E-05 4.172325E-07 -1
vn -0.0001667738 5.9604645E-08 -1
vn -8.279085E-05 4.172325E-07 -1
vn -0.00012922287 3.5762787E-07 -1
vn -2.3841858E-07 5.9604645E-08 -1
vn -0.0008659363 5.9604645E-08 -1
vn -1.7881393E-07 5.9604645E-08 -1
vn -2.3841858E-07 5.9604645E-08 -1
vn -0.0001667738 5.9604645E-08 -1
vn -0.0009937286 5.9604645E-08 -1
vn -2.3841858E-07 5.9604645E-08 -1
vn -0.0009937286 5.9604645E-08 -1
vn -0.00090932846 5.9604645E-08 -1
vn -2.3841858E-07 5.9604645E-08 -1
vn -0.00090932846 5.9604645E-08 -1
vn -0.0008659363 5.9604645E-08 -1
vn -2.3841858E-07 5.9604645E-08 -1
vn -1.7881393E-07 5.9604645E-08 -1
vn -2.3841858E-07 5.9604645E-08 -1
vn -2.3841858E-07 5.9604645E-08 -1
vn -2.3841858E-07 5.9604645E-08 -1
vn -1.7881393E-07 5.9604645E-08 -1
vn -2.3841858E-07 5.9604645E-08 -1
vn -1.7881393E-07 5.9604645E-08 -1
vn -1.7881393E-07 5.9604645E-08 -1
vn -2.3841858E-07 5.9604645E-08 -1
vn -1.7881393E-07 5.9604645E-08 -1
vn -1.7881393E-07 5.9604645E-08 -1
vn 4.7683716E-07 -6.0021877E-05 -1
vn 1.5497208E-06 -0.0003671646 -1
vn 1.4901161E-06 -0.00035762787 -1
vn 4.7683716E-07 -6.0021877E-05 -1
vn 4.7683716E-07 -6.175041E-05 -1
vn 1.5497208E-06 -0.0003681183 -1
vn 4.7683716E-07 -6.0021877E-05 -1
vn 1.5497208E-06 -0.0003681183 -1
vn 1.5497208E-06 -0.0003671646 -1
vn 2.3841858E-07 1.7881393E-07 -1
vn 2.3841858E-07 -0 -1
vn 1.3709068E-06 -0.00032687187 -1
vn 2.3841858E-07 1.7881393E-07 -1
vn 1.3709068E-06 -0.00032687187 -1
vn 1.0728836E-06 -0.0002297163 -1
vn 2.3841858E-07 -0 -1
vn 4.7683716E-07 -6.0021877E-05 -1
vn 1.4901161E-06 -0.00035762787 -1
vn 2.3841858E-07 -0 -1
vn 1.4901161E-06 -0.00035762787 -1
vn 1.3709068E-06 -0.00032687187 -1
vn 2.3841858E-07 1.7881393E-07 -1
vn 2.3841858E-07 -3.5762787E-07 -1
vn 2.3841858E-07 -1.7881393E-07 -1
vn 2.3841858E-07 1.7881393E-07 -1
vn 2.3841858E-07 -1.7881393E-07 -1
vn 2.3841858E-07 -0 -1
vn 2.3841858E-07 -3.5762787E-07 -1
vn 2.3841858E-07 -1.7881393E-07 -1
vn 2.3841858E-07 -1.7881393E-07 -1
vn 4.7683716E-07 -6.175041E-05 -1
vn 4.7683716E-07 -3.7372112E-05 -1
vn 1.5497208E-06 -0.0003681183 -1
vn 4.7683716E-07 -6.175041E-05 -1
vn 2.3841858E-07 -5.9604645E-08 -1
vn 3.5762787E-07 5.9604645E-08 -1
vn 4.7683716E-07 -6.175041E-05 -1
vn 3.5762787E-07 5.9604645E-08 -1
vn 4.7683716E-07 -3.7372112E-05 -1
vn 2.3841858E-07 -1.1920929E-07 -1
vn 2.3841858E-07 -1.1920929E-07 -1
vn 1.7881393E-07 -5.9604645E-08 -1
vn 2.3841858E-07 -1.1920929E-07 -1
vn 2.3841858E-07 -1.1920929E-07 -1
vn 2.3841858E-07 -1.1920929E-07 -1
vn 2.3841858E-07 -1.1920929E-07 -1
vn 2.3841858E-07 -1.1920929E-07 -1
vn 2.3841858E-07 -1.1920929E-07 -1
vn 2.3841858E-07 -1.1920929E-07 -1
vn 1.7881393E-07 -5.9604645E-08 -1
vn 1.7881393E-07 -5.9604645E-08 -1
vn 2.3841858E-07 -1.1920929E-07 -1
vn 2.3841858E-07 -1.1920929E-07 -1
vn 1.7881393E-07 -5.9604645E-08 -1
vn 2.3841858E-07 -1.1920929E-07 -1
vn 1.7881393E-07 -5.9604645E-08 -1
vn 1.7881393E-07 -5.9604645E-08 -1
vn 2.3841858E-07 -5.9604645E-08 -1
vn 1.7881393E-07 -5.9604645E-08 -1
vn 3.5762787E-07 5.9604645E-08 -1
vn 2.3841858E-07 -5.9604645E-08 -1
vn 2.3841858E-07 -1.1920929E-07 -1
vn 1.7881393E-07 -5.9604645E-08 -1
vn 2.3841858E-07 -5.9604645E-08 -1
vn 1.7881393E-07 -5.9604645E-08 -1
vn 1.7881393E-07 -5.9604645E-08 -1
g DecalMesh_MetroArea_Decal_Ground_06__38_0
f 3/3/3 2/2/2 1/1/1
f 6/6/6 5/5/5 4/4/4
f 9/9/9 8/8/8 7/7/7
f 12/12/12 11/11/11 10/10/10
f 15/15/15 14/14/14 13/13/13
f 18/18/18 17/17/17 16/16/16
f 21/21/21 20/20/20 19/19/19
f 24/24/24 23/23/23 22/22/22
f 27/27/27 26/26/26 25/25/25
f 30/30/30 29/29/29 28/28/28
f 33/33/33 32/32/32 31/31/31
f 36/36/36 35/35/35 34/34/34
f 39/39/39 38/38/38 37/37/37
f 42/42/42 41/41/41 40/40/40
f 45/45/45 44/44/44 43/43/43
f 48/48/48 47/47/47 46/46/46
f 51/51/51 50/50/50 49/49/49
f 54/54/54 53/53/53 52/52/52
f 57/57/57 56/56/56 55/55/55
f 60/60/60 59/59/59 58/58/58
f 63/63/63 62/62/62 61/61/61
f 66/66/66 65/65/65 64/64/64
f 69/69/69 68/68/68 67/67/67
f 72/72/72 71/71/71 70/70/70
f 75/75/75 74/74/74 73/73/73
f 78/78/78 77/77/77 76/76/76
f 81/81/81 80/80/80 79/79/79
f 84/84/84 83/83/83 82/82/82
f 87/87/87 86/86/86 85/85/85
f 90/90/90 89/89/89 88/88/88
f 93/93/93 92/92/92 91/91/91
f 96/96/96 95/95/95 94/94/94
f 99/99/99 98/98/98 97/97/97
f 102/102/102 101/101/101 100/100/100
f 105/105/105 104/104/104 103/103/103
f 108/108/108 107/107/107 106/106/106
f 111/111/111 110/110/110 109/109/109
f 114/114/114 113/113/113 112/112/112
f 117/117/117 116/116/116 115/115/115
f 120/120/120 119/119/119 118/118/118
f 123/123/123 122/122/122 121/121/121
f 126/126/126 125/125/125 124/124/124
f 129/129/129 128/128/128 127/127/127
f 132/132/132 131/131/131 130/130/130
f 135/135/135 134/134/134 133/133/133
f 138/138/138 137/137/137 136/136/136
f 141/141/141 140/140/140 139/139/139
f 144/144/144 143/143/143 142/142/142
f 147/147/147 146/146/146 145/145/145
f 150/150/150 149/149/149 148/148/148
f 153/153/153 152/152/152 151/151/151
f 156/156/156 155/155/155 154/154/154
f 159/159/159 158/158/158 157/157/157
f 162/162/162 161/161/161 160/160/160
f 165/165/165 164/164/164 163/163/163
f 168/168/168 167/167/167 166/166/166
f 171/171/171 170/170/170 169/169/169
f 174/174/174 173/173/173 172/172/172
f 177/177/177 176/176/176 175/175/175
