g DecalMesh_MetroArea_Decal_Crack_03__134
v 2.5015514 1.2057022 0.09494041
v -2.501555 1.205702 0.094935715
v -2.4467788 -1.1996996 0.0949332
v 2.5015514 1.2057022 0.09494041
v -2.4467788 -1.1996996 0.0949332
v 2.5015514 -1.1996994 0.09493784
v -2.501555 1.205702 0.094935715
v -2.501555 -1.1996987 0.094933145
v -2.446779 -1.1996988 0.0949332
v -1.6335523 1.2056984 -0.012914679
v -0.8208524 -1.1996986 -0.011468344
v 0.9203235 -1.1996987 -0.011180564
v -1.6335523 1.2056984 -0.012914679
v -2.5015535 1.2056985 -0.013058142
v -1.5182595 -1.1996986 -0.011583611
v -1.6335523 1.2056984 -0.012914679
v -1.5182595 -1.1996986 -0.011583611
v -0.8208524 -1.1996986 -0.011468344
v -2.5015535 1.2056985 -0.013058142
v -2.5015535 -1.1996987 -0.01174613
v -1.5182595 -1.1996987 -0.011583611
v 2.5015533 1.2056986 -0.012231342
v -1.6335528 1.2056988 -0.012914679
v 0.92032355 -1.1996987 -0.011180564
v 2.5015533 1.2056986 -0.012231342
v 0.92032355 -1.1996987 -0.011180564
v 2.5015533 -1.1996987 -0.010919261
vt 0.34716797 0.7373047
vt 0.47680664 0.7373047
vt 0.4753418 0.5283203
vt 0.34716797 0.7373047
vt 0.4753418 0.5283203
vt 0.34716797 0.5283203
vt 0.47680664 0.7373047
vt 0.47680664 0.5283203
vt 0.4753418 0.5283203
vt 0.45410156 0.7373047
vt 0.43310547 0.5283203
vt 0.3881836 0.5283203
vt 0.45410156 0.7373047
vt 0.47680664 0.7373047
vt 0.45117188 0.5283203
vt 0.45410156 0.7373047
vt 0.45117188 0.5283203
vt 0.43310547 0.5283203
vt 0.47680664 0.7373047
vt 0.47680664 0.5283203
vt 0.45117188 0.5283203
vt 0.34716797 0.7373047
vt 0.45410156 0.7373047
vt 0.3881836 0.5283203
vt 0.34716797 0.7373047
vt 0.3881836 0.5283203
vt 0.34716797 0.5283203
vn -0.00049066544 -0.0002259016 -1
vn -0.0004749298 -0.00021874905 -1
vn -0.00048613548 -0.00022399426 -1
vn -0.00049066544 -0.0002259016 -1
vn -0.00048613548 -0.00022399426 -1
vn -0.0005016327 -0.0002310276 -1
vn -0.0004749298 -0.00021874905 -1
vn -0.00048613548 -0.00022387505 -1
vn -0.00048613548 -0.00022399426 -1
vn -0.012557983 0.0118255615 -0.9995117
vn -0.01235199 0.014953613 -0.9995117
vn -0.015304565 0.01449585 -0.9995117
vn -0.012557983 0.0118255615 -0.9995117
vn -0.01108551 0.012054443 -0.9995117
vn -0.011169434 0.015136719 -0.9995117
vn -0.012557983 0.0118255615 -0.9995117
vn -0.011169434 0.015136719 -0.9995117
vn -0.01235199 0.014953613 -0.9995117
vn -0.01108551 0.012054443 -0.9995117
vn -0.009498596 0.015396118 -0.9995117
vn -0.011169434 0.015136719 -0.9995117
vn -0.01826477 0.010375977 -0.9995117
vn -0.012557983 0.0118255615 -0.9995117
vn -0.015304565 0.01449585 -0.9995117
vn -0.01826477 0.010375977 -0.9995117
vn -0.015304565 0.01449585 -0.9995117
vn -0.017486572 0.013946533 -0.9995117
g DecalMesh_MetroArea_Decal_Crack_03__134_0
f 3/3/3 2/2/2 1/1/1
f 6/6/6 5/5/5 4/4/4
f 9/9/9 8/8/8 7/7/7
f 12/12/12 11/11/11 10/10/10
f 15/15/15 14/14/14 13/13/13
f 18/18/18 17/17/17 16/16/16
f 21/21/21 20/20/20 19/19/19
f 24/24/24 23/23/23 22/22/22
f 27/27/27 26/26/26 25/25/25
