g DecalMesh_Common_Decal_Crack_01__34
v 0.7010056 -0.825947 -0.33700174
v -0.7010056 0.4858233 -0.33700192
v -0.70100564 -0.8159525 -0.33700183
v 0.7010056 -0.825947 -0.33700174
v 0.7010056 -0.81841403 -0.33700174
v -0.7010056 0.48908982 -0.33700192
v 0.7010056 -0.825947 -0.33700174
v -0.7010056 0.48908982 -0.33700192
v -0.7010056 0.48585516 -0.33700192
v 0.7010056 -0.825947 -0.33700174
v -0.70100564 0.48585525 -0.33700192
v -0.7010056 0.4858233 -0.33700192
v 0.7010056 -0.81841403 -0.33700174
v 0.7010056 1.4721432 -0.33700192
v 0.57718366 1.4730451 -0.33700192
v 0.7010056 -0.81841403 -0.33700174
v 0.57718366 1.4730451 -0.33700192
v -0.7010056 1.4730451 -0.33700198
v 0.7010056 -0.81841403 -0.33700174
v -0.7010056 1.4730451 -0.33700198
v -0.7010056 0.48908982 -0.33700192
v 0.7010056 1.4721432 -0.33700192
v 0.70004773 1.4730451 -0.33700192
v 0.5771837 1.4730451 -0.33700192
v 0.7010056 1.4721432 -0.33700192
v 0.7010056 1.4730451 -0.33700192
v 0.70004773 1.4730451 -0.33700192
v -0.7010055 -1.3166476 -0.34745926
v -0.58038193 -1.4730451 -0.34655422
v -0.3658 -1.4730451 -0.3468143
v -0.7010055 -1.3166476 -0.34745926
v -0.7010056 -1.4730451 -0.34640804
v -0.58038193 -1.4730451 -0.34655422
v 0.7010056 -0.8259013 -0.35245705
v -0.7010055 -0.81593275 -0.35082483
v 0.09673943 -1.4730451 -0.34737492
v 0.7010056 -0.8259013 -0.35245705
v 0.09673943 -1.4730451 -0.34737492
v 0.7010056 -1.4730451 -0.34810728
v -0.7010055 -0.81593275 -0.35082483
v -0.7010055 -1.3166476 -0.34745926
v -0.3658 -1.4730451 -0.3468143
v -0.7010055 -0.81593275 -0.35082483
v -0.3658 -1.4730451 -0.3468143
v 0.09673943 -1.4730451 -0.34737492
vt 0.33007812 0.042510986
vt 0.45263672 0.15734863
vt 0.45263672 0.043395996
vt 0.33007812 0.042510986
vt 0.33007812 0.043182373
vt 0.45263672 0.15759277
vt 0.33007812 0.042510986
vt 0.45263672 0.15759277
vt 0.45263672 0.15734863
vt 0.33007812 0.042510986
vt 0.45263672 0.15734863
vt 0.45263672 0.15734863
vt 0.33007812 0.043182373
vt 0.33007812 0.24365234
vt 0.3408203 0.24365234
vt 0.33007812 0.043182373
vt 0.3408203 0.24365234
vt 0.45263672 0.24365234
vt 0.33007812 0.043182373
vt 0.45263672 0.24365234
vt 0.45263672 0.15759277
vt 0.33007812 0.24365234
vt 0.33007812 0.24365234
vt 0.3408203 0.24365234
vt 0.33007812 0.24365234
vt 0.33007812 0.24365234
vt 0.33007812 0.24365234
vt 0.45263672 -0.00042009354
vt 0.44213867 -0.0141067505
vt 0.42333984 -0.0141067505
vt 0.45263672 -0.00042009354
vt 0.45263672 -0.0141067505
vt 0.44213867 -0.0141067505
vt 0.33007812 0.042510986
vt 0.45263672 0.043395996
vt 0.3828125 -0.0141067505
vt 0.33007812 0.042510986
vt 0.3828125 -0.0141067505
vt 0.33007812 -0.0141067505
vt 0.45263672 0.043395996
vt 0.45263672 -0.00042009354
vt 0.42333984 -0.0141067505
vt 0.45263672 0.043395996
vt 0.42333984 -0.0141067505
vt 0.3828125 -0.0141067505
vn 5.9604645E-08 -1.1920929E-07 -1
vn 0.00016105175 0.00093984604 -1
vn 5.9604645E-08 -1.1920929E-07 -1
vn 5.9604645E-08 -1.1920929E-07 -1
vn 1.013279E-06 5.3048134E-06 -1
vn 0.00016152859 0.0009422302 -1
vn 5.9604645E-08 -1.1920929E-07 -1
vn 0.00016152859 0.0009422302 -1
vn 0.00016117096 0.00093984604 -1
vn 5.9604645E-08 -1.1920929E-07 -1
vn 0.00016117096 0.00093984604 -1
vn 0.00016105175 0.00093984604 -1
vn 1.013279E-06 5.3048134E-06 -1
vn 2.861023E-06 1.6152859E-05 -1
vn 1.692772E-05 9.8347664E-05 -1
vn 1.013279E-06 5.3048134E-06 -1
vn 1.692772E-05 9.8347664E-05 -1
vn 0.00016236305 0.0009469986 -1
vn 1.013279E-06 5.3048134E-06 -1
vn 0.00016236305 0.0009469986 -1
vn 0.00016152859 0.0009422302 -1
vn 2.861023E-06 1.6152859E-05 -1
vn 2.861023E-06 1.6152859E-05 -1
vn 1.692772E-05 9.8347664E-05 -1
vn 2.861023E-06 1.6152859E-05 -1
vn 2.7418137E-06 1.5497208E-05 -1
vn 2.861023E-06 1.6152859E-05 -1
vn -0.00052309036 -0.0050964355 -1
vn -0.0004916191 -0.004787445 -1
vn -0.0004916191 -0.0047912598 -1
vn -0.00052309036 -0.0050964355 -1
vn -0.0004911423 -0.004787445 -1
vn -0.0004916191 -0.004787445 -1
vn -0.00062561035 -0.0060920715 -1
vn -0.00062561035 -0.0060920715 -1
vn -0.0004925728 -0.004798889 -1
vn -0.00062561035 -0.0060920715 -1
vn -0.0004925728 -0.004798889 -1
vn -0.00049352646 -0.0048065186 -1
vn -0.00062561035 -0.0060920715 -1
vn -0.00052309036 -0.0050964355 -1
vn -0.0004916191 -0.0047912598 -1
vn -0.00062561035 -0.0060920715 -1
vn -0.0004916191 -0.0047912598 -1
vn -0.0004925728 -0.004798889 -1
g DecalMesh_Common_Decal_Crack_01__34_0
f 3/3/3 2/2/2 1/1/1
f 6/6/6 5/5/5 4/4/4
f 9/9/9 8/8/8 7/7/7
f 12/12/12 11/11/11 10/10/10
f 15/15/15 14/14/14 13/13/13
f 18/18/18 17/17/17 16/16/16
f 21/21/21 20/20/20 19/19/19
f 24/24/24 23/23/23 22/22/22
f 27/27/27 26/26/26 25/25/25
f 30/30/30 29/29/29 28/28/28
f 33/33/33 32/32/32 31/31/31
f 36/36/36 35/35/35 34/34/34
f 39/39/39 38/38/38 37/37/37
f 42/42/42 41/41/41 40/40/40
f 45/45/45 44/44/44 43/43/43
