g DecalMesh_MetroArea_Decal_Ground_27__15
v 0.6117466 -0.013295947 -0.78343207
v 0.6117466 0.8565592 -0.78343207
v -0.6117467 0.14917246 -0.7834322
v 0.6117466 -0.013295947 -0.78343207
v -0.6117467 0.14917246 -0.7834322
v -0.6117467 -0.013292506 -0.7834322
v 0.6117466 0.8565592 -0.78343207
v -0.61174667 0.8565589 -0.78343225
v -0.61174667 0.14917248 -0.7834322
v 0.61174667 -0.012712299 -0.7843316
v -0.6117466 -0.012708859 -0.78433186
v -0.43744957 -0.856559 -0.7843318
v 0.61174667 -0.012712299 -0.7843316
v -0.43744957 -0.856559 -0.7843318
v 0.61174667 -0.8565591 -0.7843316
v -0.6117466 -0.012708859 -0.78433186
v -0.6117466 -0.8565591 -0.78433186
v -0.43744957 -0.85655904 -0.7843318
v -0.500907 0.32460165 -0.79179657
v -0.61174667 0.28527334 -0.79177916
v -0.6108521 0.2851664 -0.7927856
v -0.500907 0.32460165 -0.79179657
v -0.6108521 0.2851664 -0.7927856
v -0.50091344 0.3241823 -0.7927856
v -0.61174667 0.28527334 -0.79177916
v -0.61174667 0.28484896 -0.7927856
v -0.6108521 0.2851664 -0.7927856
v -0.2659858 0.2334221 -0.7919123
v -0.500907 0.32460165 -0.79179657
v -0.50091344 0.3241823 -0.7927856
v -0.2659858 0.2334221 -0.7919123
v -0.50091344 0.3241823 -0.7927856
v -0.26765043 0.23369537 -0.7927856
v -0.2659858 0.2334221 -0.7919123
v -0.26765043 0.23369537 -0.7927856
v -0.26608586 0.23308845 -0.7927856
v 0.022552013 0.17181009 -0.79203165
v -0.2659858 0.2334221 -0.7919123
v -0.26608586 0.23308845 -0.7927856
v 0.022552013 0.17181009 -0.79203165
v -0.26608586 0.23308845 -0.7927856
v 0.020706246 0.17189741 -0.7927856
v 0.022552013 0.17181009 -0.79203165
v 0.02070625 0.17189741 -0.7927856
v 0.022437802 0.17152795 -0.7927856
v 0.23770438 0.03792888 -0.7921605
v 0.022552013 0.17181009 -0.79203165
v 0.022437802 0.17152795 -0.7927856
v 0.23770438 0.03792888 -0.7921605
v 0.022437802 0.17152795 -0.7927856
v 0.23652188 0.03837156 -0.7927856
v 0.23770438 0.03792888 -0.7921605
v 0.23652188 0.03837156 -0.7927856
v 0.23759249 0.037705667 -0.7927856
v 0.41636935 -0.031415224 -0.7922485
v 0.23770438 0.03792888 -0.7921605
v 0.23759249 0.037705667 -0.7927856
v 0.41636935 -0.031415224 -0.7922485
v 0.23759249 0.037705667 -0.7927856
v 0.41549727 -0.03130602 -0.7927856
v 0.41636935 -0.031415224 -0.7922485
v 0.41549727 -0.03130602 -0.7927856
v 0.41618878 -0.03157427 -0.7927856
v 0.41636935 -0.031415224 -0.7922485
v 0.41618878 -0.03157427 -0.7927856
v 0.41640255 -0.03242463 -0.7927856
v 0.478882 -0.28030914 -0.7923809
v 0.41636935 -0.031415224 -0.7922485
v 0.41640255 -0.032424632 -0.7927856
v 0.478882 -0.28030914 -0.7923809
v 0.41640255 -0.032424632 -0.7927856
v 0.4787026 -0.28025645 -0.7927856
v 0.029507637 -0.70311743 -0.79242945
v 0.478882 -0.28030914 -0.7923809
v 0.4773727 -0.28150782 -0.7927856
v 0.029507637 -0.70311743 -0.79242945
v 0.4773727 -0.28150782 -0.7927856
v 0.029472273 -0.7029558 -0.7927856
v 0.478882 -0.28030914 -0.7923809
v 0.4787026 -0.28025645 -0.7927856
v 0.4773727 -0.28150782 -0.7927856
v 0.029507637 -0.70311743 -0.79242945
v 0.029472273 -0.7029558 -0.7927856
v 0.023094557 -0.7008046 -0.7927856
v -0.61174667 -0.4869531 -0.79212826
v 0.029507637 -0.70311743 -0.79242945
v 0.023094565 -0.7008046 -0.7927856
v -0.61174667 -0.4869531 -0.79212826
v 0.023094565 -0.7008046 -0.7927856
v -0.61174667 -0.48667675 -0.7927856
vt 0.006801605 0.17932129
vt 0.006801605 0.27172852
vt 0.1394043 0.19665527
vt 0.006801605 0.17932129
vt 0.1394043 0.19665527
vt 0.1394043 0.17932129
vt 0.006801605 0.27172852
vt 0.1394043 0.27172852
vt 0.1394043 0.19665527
vt 0.006801605 0.17944336
vt 0.1394043 0.17944336
vt 0.1204834 0.089782715
vt 0.006801605 0.17944336
vt 0.1204834 0.089782715
vt 0.006801605 0.089782715
vt 0.1394043 0.17944336
vt 0.1394043 0.089782715
vt 0.1204834 0.089782715
vt 0.12731934 0.21520996
vt 0.1394043 0.21105957
vt 0.13928223 0.21105957
vt 0.12731934 0.21520996
vt 0.13928223 0.21105957
vt 0.12731934 0.21520996
vt 0.1394043 0.21105957
vt 0.1394043 0.21105957
vt 0.13928223 0.21105957
vt 0.101867676 0.2055664
vt 0.12731934 0.21520996
vt 0.12731934 0.21520996
vt 0.101867676 0.2055664
vt 0.12731934 0.21520996
vt 0.10205078 0.2055664
vt 0.101867676 0.2055664
vt 0.10205078 0.2055664
vt 0.10192871 0.2055664
vt 0.070617676 0.19897461
vt 0.101867676 0.2055664
vt 0.10192871 0.2055664
vt 0.070617676 0.19897461
vt 0.10192871 0.2055664
vt 0.07086182 0.19897461
vt 0.070617676 0.19897461
vt 0.07086182 0.19897461
vt 0.07067871 0.19897461
vt 0.047332764 0.18481445
vt 0.070617676 0.19897461
vt 0.07067871 0.19897461
vt 0.047332764 0.18481445
vt 0.07067871 0.19897461
vt 0.047454834 0.18481445
vt 0.047332764 0.18481445
vt 0.047454834 0.18481445
vt 0.047332764 0.18481445
vt 0.02796936 0.17749023
vt 0.047332764 0.18481445
vt 0.047332764 0.18481445
vt 0.02796936 0.17749023
vt 0.047332764 0.18481445
vt 0.028060913 0.17749023
vt 0.02796936 0.17749023
vt 0.028060913 0.17749023
vt 0.02798462 0.17736816
vt 0.02796936 0.17749023
vt 0.02798462 0.17736816
vt 0.02796936 0.17736816
vt 0.021194458 0.15100098
vt 0.02796936 0.17749023
vt 0.02796936 0.17736816
vt 0.021194458 0.15100098
vt 0.02796936 0.17736816
vt 0.021209717 0.15100098
vt 0.069885254 0.1060791
vt 0.021194458 0.15100098
vt 0.021362305 0.1508789
vt 0.069885254 0.1060791
vt 0.021362305 0.1508789
vt 0.069885254 0.10614014
vt 0.021194458 0.15100098
vt 0.021209717 0.15100098
vt 0.021362305 0.1508789
vt 0.069885254 0.1060791
vt 0.069885254 0.10614014
vt 0.07055664 0.10632324
vt 0.1394043 0.12902832
vt 0.069885254 0.1060791
vt 0.07055664 0.10632324
vt 0.1394043 0.12902832
vt 0.07055664 0.10632324
vt 0.1394043 0.12902832
vn 1.1920929E-07 0 -1
vn 1.1920929E-07 0 -1
vn 1.1920929E-07 0 -1
vn 1.1920929E-07 0 -1
vn 1.1920929E-07 0 -1
vn 1.1920929E-07 0 -1
vn 1.1920929E-07 0 -1
vn 1.1920929E-07 0 -1
vn 1.1920929E-07 0 -1
vn 2.3841858E-07 0 -1
vn 2.3841858E-07 0 -1
vn 2.3841858E-07 0 -1
vn 2.3841858E-07 0 -1
vn 2.3841858E-07 0 -1
vn 2.3841858E-07 0 -1
vn 2.3841858E-07 0 -1
vn 2.3841858E-07 0 -1
vn 2.3841858E-07 0 -1
vn 0.013343811 0.92041016 -0.39038086
vn -0.119384766 0.90234375 -0.38183594
vn -0.11828613 0.90234375 -0.38183594
vn 0.013343811 0.92041016 -0.39038086
vn -0.11828613 0.90234375 -0.38183594
vn 0.013343811 0.92041016 -0.39038086
vn -0.119384766 0.90234375 -0.38183594
vn -0.119384766 0.90234375 -0.38183594
vn -0.11828613 0.90234375 -0.38183594
vn 0.265625 0.8901367 -0.37060547
vn 0.013343811 0.92041016 -0.39038086
vn 0.013343811 0.92041016 -0.39038086
vn 0.265625 0.8901367 -0.37060547
vn 0.013343811 0.92041016 -0.39038086
vn 0.26391602 0.8901367 -0.37060547
vn 0.265625 0.8901367 -0.37060547
vn 0.26391602 0.8901367 -0.37060547
vn 0.265625 0.8901367 -0.37060547
vn 0.3466797 0.8598633 -0.37426758
vn 0.265625 0.8901367 -0.37060547
vn 0.265625 0.8901367 -0.37060547
vn 0.3466797 0.8598633 -0.37426758
vn 0.265625 0.8901367 -0.37060547
vn 0.3461914 0.86035156 -0.37426758
vn 0.3466797 0.8598633 -0.37426758
vn 0.3461914 0.86035156 -0.37426758
vn 0.3466797 0.8598633 -0.37426758
vn 0.41503906 0.8305664 -0.3708496
vn 0.3466797 0.8598633 -0.37426758
vn 0.3466797 0.8598633 -0.37426758
vn 0.41503906 0.8305664 -0.3708496
vn 0.3466797 0.8598633 -0.37426758
vn 0.41455078 0.8310547 -0.3708496
vn 0.41503906 0.8305664 -0.3708496
vn 0.41455078 0.8310547 -0.3708496
vn 0.41503906 0.8305664 -0.3708496
vn 0.68408203 0.6040039 -0.40893555
vn 0.41503906 0.8305664 -0.3708496
vn 0.41503906 0.8305664 -0.3708496
vn 0.68408203 0.6040039 -0.40893555
vn 0.41503906 0.8305664 -0.3708496
vn 0.6826172 0.60498047 -0.4086914
vn 0.68408203 0.6040039 -0.40893555
vn 0.6826172 0.60498047 -0.4086914
vn 0.68408203 0.6040039 -0.40893555
vn 0.68408203 0.6040039 -0.40893555
vn 0.68408203 0.6040039 -0.40893555
vn 0.6850586 0.60253906 -0.4086914
vn 0.9008789 0.22644043 -0.36987305
vn 0.68408203 0.6040039 -0.40893555
vn 0.6850586 0.60253906 -0.4086914
vn 0.9008789 0.22644043 -0.36987305
vn 0.6850586 0.60253906 -0.4086914
vn 0.9008789 0.22644043 -0.36987305
vn 0.63671875 -0.67626953 -0.37036133
vn 0.63671875 -0.67626953 -0.37036133
vn 0.63671875 -0.67626953 -0.37036133
vn 0.63671875 -0.67626953 -0.37036133
vn 0.63671875 -0.67626953 -0.37036133
vn 0.63671875 -0.67626953 -0.37036133
vn 0.63671875 -0.67626953 -0.37036133
vn 0.63671875 -0.67626953 -0.37036133
vn 0.63671875 -0.67626953 -0.37036133
vn -0.296875 -0.8803711 -0.3701172
vn -0.296875 -0.8803711 -0.3701172
vn -0.296875 -0.8803711 -0.3701172
vn -0.296875 -0.8803711 -0.3701172
vn -0.296875 -0.8803711 -0.3701172
vn -0.296875 -0.8803711 -0.3701172
vn -0.296875 -0.8803711 -0.3701172
vn -0.296875 -0.8803711 -0.3701172
vn -0.296875 -0.8803711 -0.3701172
g DecalMesh_MetroArea_Decal_Ground_27__15_0
f 3/3/3 2/2/2 1/1/1
f 6/6/6 5/5/5 4/4/4
f 9/9/9 8/8/8 7/7/7
f 12/12/12 11/11/11 10/10/10
f 15/15/15 14/14/14 13/13/13
f 18/18/18 17/17/17 16/16/16
f 21/21/21 20/20/20 19/19/19
f 24/24/24 23/23/23 22/22/22
f 27/27/27 26/26/26 25/25/25
f 30/30/30 29/29/29 28/28/28
f 33/33/33 32/32/32 31/31/31
f 36/36/36 35/35/35 34/34/34
f 39/39/39 38/38/38 37/37/37
f 42/42/42 41/41/41 40/40/40
f 45/45/45 44/44/44 43/43/43
f 48/48/48 47/47/47 46/46/46
f 51/51/51 50/50/50 49/49/49
f 54/54/54 53/53/53 52/52/52
f 57/57/57 56/56/56 55/55/55
f 60/60/60 59/59/59 58/58/58
f 63/63/63 62/62/62 61/61/61
f 66/66/66 65/65/65 64/64/64
f 69/69/69 68/68/68 67/67/67
f 72/72/72 71/71/71 70/70/70
f 75/75/75 74/74/74 73/73/73
f 78/78/78 77/77/77 76/76/76
f 81/81/81 80/80/80 79/79/79
f 84/84/84 83/83/83 82/82/82
f 87/87/87 86/86/86 85/85/85
f 90/90/90 89/89/89 88/88/88
