g DecalMesh_MetroArea_Decal_Ground_25__64
v -0.99999994 -0.6690081 0.0026512465
v -0.99999994 -0.997 0.0026512763
v -0.71307987 -0.997 0.0026512763
v -1 -0.42816213 0.0026512248
v -0.54981697 -0.997 0.0026512763
v -0.4181949 -0.997 0.0026512763
v -1 -0.42816213 0.0026512248
v -1 -0.66900796 0.0026512465
v -0.7130798 -0.997 0.0026512763
v -1 -0.42816213 0.0026512248
v -0.7130798 -0.997 0.0026512763
v -0.54981697 -0.997 0.0026512763
v 1 0.99522185 0.0026510959
v -1 0.99522185 0.0026510959
v 0.17924532 -0.997 0.0026512763
v 1 0.99522185 0.0026510959
v 0.17924532 -0.997 0.0026512763
v 0.99999994 -0.997 0.0026512763
v -1 0.99522185 0.0026510959
v -0.99999994 -0.42816222 0.0026512248
v -0.41819486 -0.997 0.0026512763
v -1 0.99522185 0.0026510959
v -0.41819486 -0.997 0.0026512763
v 0.17924532 -0.997 0.0026512763
v 1 0.99522185 0.0026510959
v 0.98639166 1.003 0.0026510954
v -0.99999994 0.9985115 0.0026510956
v 1 0.99522185 0.0026510959
v -0.99999994 0.9985115 0.0026510956
v -1 0.99522185 0.0026510959
v 0.98639166 1.003 0.0026510954
v -0.99999994 1.003 0.0026510954
v -0.99999994 0.9985115 0.0026510956
v 1 0.99522185 0.0026510959
v 1 1.003 0.0026510954
v 0.98639166 1.003 0.0026510954
v 0.027999878 0.013511399 0.001485824
v 0.027999878 1.0029999 0.0014856667
v -0.99999994 0.59384733 0.0014857318
v 0.027999878 0.013511399 0.001485824
v -0.99999994 0.59384733 0.0014857318
v -0.99999994 0.013511399 0.001485824
v 0.027999878 1.0029999 0.0014856667
v -1 1.0029999 0.0014856667
v -0.99999994 0.59384733 0.0014857318
v 0.027999878 0.013511399 0.001485824
v -0.99999994 0.013511399 0.001485824
v -0.65303946 -0.997 0.0014859048
v 0.027999878 0.013511399 0.001485824
v -0.65303946 -0.997 0.0014859048
v 0.027999878 -0.997 0.0014859048
v -0.99999994 0.013511399 0.001485824
v -0.99999994 -0.997 0.0014859048
v -0.65303946 -0.997 0.0014859048
v 0.027999878 0.013511399 0.001485824
v 0.027999878 -0.997 0.0014859048
v 0.56666327 -0.9969999 0.0014859048
v 1 0.013511399 0.001485824
v 0.027999878 0.013511399 0.001485824
v 0.5666633 -0.997 0.0014859048
v 1 0.013511399 0.001485824
v 0.5666633 -0.997 0.0014859048
v 1 -0.997 0.0014859048
v 0.027999878 0.013511399 0.001485824
v 1 0.013511399 0.001485824
v 0.67886984 1.0029999 0.0014856667
v 0.027999878 0.013511399 0.001485824
v 0.67886984 1.0029999 0.0014856667
v 0.027999878 1.0029999 0.0014856667
v 1 0.013511399 0.001485824
v 1 1.003 0.0014856667
v 0.67886984 1.0029999 0.0014856667
vt 0.2783203 0.15759277
vt 0.2783203 0.13513184
vt 0.25854492 0.13513184
vt 0.2783203 0.17419434
vt 0.24731445 0.13513184
vt 0.23828125 0.13513184
vt 0.2783203 0.17419434
vt 0.2783203 0.15759277
vt 0.25854492 0.13513184
vt 0.2783203 0.17419434
vt 0.25854492 0.13513184
vt 0.24731445 0.13513184
vt 0.14038086 0.27172852
vt 0.2783203 0.27172852
vt 0.19702148 0.13513184
vt 0.14038086 0.27172852
vt 0.19702148 0.13513184
vt 0.14038086 0.13513184
vt 0.2783203 0.27172852
vt 0.2783203 0.17419434
vt 0.23828125 0.13513184
vt 0.2783203 0.27172852
vt 0.23828125 0.13513184
vt 0.19702148 0.13513184
vt 0.14038086 0.27172852
vt 0.14135742 0.2722168
vt 0.2783203 0.27197266
vt 0.14038086 0.27172852
vt 0.2783203 0.27197266
vt 0.2783203 0.27172852
vt 0.14135742 0.2722168
vt 0.2783203 0.2722168
vt 0.2783203 0.27197266
vt 0.14038086 0.27172852
vt 0.14038086 0.2722168
vt 0.14135742 0.2722168
vt 0.20751953 0.2043457
vt 0.20751953 0.2722168
vt 0.2783203 0.24414062
vt 0.20751953 0.2043457
vt 0.2783203 0.24414062
vt 0.2783203 0.2043457
vt 0.20751953 0.2722168
vt 0.2783203 0.2722168
vt 0.2783203 0.24414062
vt 0.20751953 0.2043457
vt 0.2783203 0.2043457
vt 0.25439453 0.13513184
vt 0.20751953 0.2043457
vt 0.25439453 0.13513184
vt 0.20751953 0.13513184
vt 0.2783203 0.2043457
vt 0.2783203 0.13513184
vt 0.25439453 0.13513184
vt 0.20751953 0.2043457
vt 0.20751953 0.13513184
vt 0.17028809 0.13513184
vt 0.14038086 0.2043457
vt 0.20751953 0.2043457
vt 0.17028809 0.13513184
vt 0.14038086 0.2043457
vt 0.17028809 0.13513184
vt 0.14038086 0.13513184
vt 0.20751953 0.2043457
vt 0.14038086 0.2043457
vt 0.16259766 0.2722168
vt 0.20751953 0.2043457
vt 0.16259766 0.2722168
vt 0.20751953 0.2722168
vt 0.14038086 0.2043457
vt 0.14038086 0.2722168
vt 0.16259766 0.2722168
vn -0 -1.1920929E-07 -1
vn -0 -1.1920929E-07 -1
vn -0 -1.1920929E-07 -1
vn -0 -1.1920929E-07 -1
vn -0 -1.1920929E-07 -1
vn -0 -1.1920929E-07 -1
vn -0 -1.1920929E-07 -1
vn -0 -1.1920929E-07 -1
vn -0 -1.1920929E-07 -1
vn -0 -1.1920929E-07 -1
vn -0 -1.1920929E-07 -1
vn -0 -1.1920929E-07 -1
vn -0 -1.1920929E-07 -1
vn -0 -1.1920929E-07 -1
vn -0 -1.1920929E-07 -1
vn -0 -1.1920929E-07 -1
vn -0 -1.1920929E-07 -1
vn -0 -1.1920929E-07 -1
vn -0 -1.1920929E-07 -1
vn -0 -1.1920929E-07 -1
vn -0 -1.1920929E-07 -1
vn -0 -1.1920929E-07 -1
vn -0 -1.1920929E-07 -1
vn -0 -1.1920929E-07 -1
vn -0 -1.1920929E-07 -1
vn -0 -1.1920929E-07 -1
vn -0 -1.1920929E-07 -1
vn -0 -1.1920929E-07 -1
vn -0 -1.1920929E-07 -1
vn -0 -1.1920929E-07 -1
vn -0 -1.1920929E-07 -1
vn -0 -1.1920929E-07 -1
vn -0 -1.1920929E-07 -1
vn -0 -1.1920929E-07 -1
vn -0 -1.1920929E-07 -1
vn -0 -1.1920929E-07 -1
vn -0 5.9604645E-08 -1
vn -0 5.9604645E-08 -1
vn -0 5.9604645E-08 -1
vn -0 5.9604645E-08 -1
vn -0 5.9604645E-08 -1
vn -0 5.9604645E-08 -1
vn -0 5.9604645E-08 -1
vn -0 5.9604645E-08 -1
vn -0 5.9604645E-08 -1
vn -0 5.9604645E-08 -1
vn -0 5.9604645E-08 -1
vn -0 5.9604645E-08 -1
vn -0 5.9604645E-08 -1
vn -0 5.9604645E-08 -1
vn -0 5.9604645E-08 -1
vn -0 5.9604645E-08 -1
vn -0 5.9604645E-08 -1
vn -0 5.9604645E-08 -1
vn -0 5.9604645E-08 -1
vn -0 5.9604645E-08 -1
vn -0 5.9604645E-08 -1
vn -0 5.9604645E-08 -1
vn -0 5.9604645E-08 -1
vn -0 5.9604645E-08 -1
vn -0 5.9604645E-08 -1
vn -0 5.9604645E-08 -1
vn -0 5.9604645E-08 -1
vn -0 5.9604645E-08 -1
vn -0 5.9604645E-08 -1
vn -0 5.9604645E-08 -1
vn -0 5.9604645E-08 -1
vn -0 5.9604645E-08 -1
vn -0 5.9604645E-08 -1
vn -0 5.9604645E-08 -1
vn -0 5.9604645E-08 -1
vn -0 5.9604645E-08 -1
g DecalMesh_MetroArea_Decal_Ground_25__64_0
f 3/3/3 2/2/2 1/1/1
f 6/6/6 5/5/5 4/4/4
f 9/9/9 8/8/8 7/7/7
f 12/12/12 11/11/11 10/10/10
f 15/15/15 14/14/14 13/13/13
f 18/18/18 17/17/17 16/16/16
f 21/21/21 20/20/20 19/19/19
f 24/24/24 23/23/23 22/22/22
f 27/27/27 26/26/26 25/25/25
f 30/30/30 29/29/29 28/28/28
f 33/33/33 32/32/32 31/31/31
f 36/36/36 35/35/35 34/34/34
f 39/39/39 38/38/38 37/37/37
f 42/42/42 41/41/41 40/40/40
f 45/45/45 44/44/44 43/43/43
f 48/48/48 47/47/47 46/46/46
f 51/51/51 50/50/50 49/49/49
f 54/54/54 53/53/53 52/52/52
f 57/57/57 56/56/56 55/55/55
f 60/60/60 59/59/59 58/58/58
f 63/63/63 62/62/62 61/61/61
f 66/66/66 65/65/65 64/64/64
f 69/69/69 68/68/68 67/67/67
f 72/72/72 71/71/71 70/70/70
