g DecalMesh_Common_Decal_Sign_01__59
v -0.012754721 0.3411093 -0.012915878
v 0.033609707 -0.3411093 0.014569844
v 0.18289326 -0.34110928 0.01532786
v -0.012754721 0.3411093 -0.012915878
v -0.12214318 0.34110925 -0.013471317
v -0.042056035 -0.34110937 0.014185638
v -0.012754721 0.3411093 -0.012915878
v -0.042056035 -0.34110937 0.014185638
v 0.033609707 -0.3411093 0.014569844
v 0.25380087 0.3411093 -0.011562388
v -0.012754721 0.3411093 -0.012915878
v 0.18289325 -0.34110928 0.015327859
v 0.25380087 0.3411093 -0.011562388
v 0.18289325 -0.34110928 0.015327859
v 0.25380087 -0.34110928 0.015687905
v -0.12214318 0.34110925 -0.013471317
v -0.22629395 -0.34110928 0.013250115
v -0.042056046 -0.34110928 0.014185635
v -0.12214318 0.34110925 -0.013471317
v -0.25380087 0.3411093 -0.014139848
v -0.25380087 -0.34110928 0.013110442
v -0.12214318 0.34110925 -0.013471317
v -0.25380087 -0.34110928 0.013110442
v -0.22629395 -0.34110928 0.013250116
vt -0.9399414 0.99658203
vt -0.94970703 0.83691406
vt -0.9824219 0.83691406
vt -0.9399414 0.99658203
vt -0.9160156 0.99658203
vt -0.93359375 0.83691406
vt -0.9399414 0.99658203
vt -0.93359375 0.83691406
vt -0.94970703 0.83691406
vt -0.9975586 0.99658203
vt -0.9399414 0.99658203
vt -0.9824219 0.83691406
vt -0.9975586 0.99658203
vt -0.9824219 0.83691406
vt -0.9975586 0.83691406
vt -0.9160156 0.99658203
vt -0.8935547 0.83691406
vt -0.93359375 0.83691406
vt -0.9160156 0.99658203
vt -0.8876953 0.99658203
vt -0.8876953 0.83691406
vt -0.9160156 0.99658203
vt -0.8876953 0.83691406
vt -0.8935547 0.83691406
vn 0.008201599 -0.04019165 -0.99902344
vn 0.0018787384 -0.039611816 -0.99902344
vn -0.006855011 -0.03881836 -0.99902344
vn 0.008201599 -0.04019165 -0.99902344
vn 0.014602661 -0.040771484 -0.99902344
vn 0.0063056946 -0.040008545 -0.99902344
vn 0.008201599 -0.04019165 -0.99902344
vn 0.0063056946 -0.040008545 -0.99902344
vn 0.0018787384 -0.039611816 -0.99902344
vn -0.0073928833 -0.03878784 -0.99902344
vn 0.008201599 -0.04019165 -0.99902344
vn -0.006855011 -0.03881836 -0.99902344
vn -0.0073928833 -0.03878784 -0.99902344
vn -0.006855011 -0.03881836 -0.99902344
vn -0.011001587 -0.03845215 -0.99902344
vn 0.014602661 -0.040771484 -0.99902344
vn 0.017089844 -0.040985107 -0.99902344
vn 0.0063056946 -0.040008545 -0.99902344
vn 0.014602661 -0.040771484 -0.99902344
vn 0.02230835 -0.04144287 -0.99902344
vn 0.018692017 -0.041137695 -0.99902344
vn 0.014602661 -0.040771484 -0.99902344
vn 0.018692017 -0.041137695 -0.99902344
vn 0.017089844 -0.040985107 -0.99902344
g DecalMesh_Common_Decal_Sign_01__59_0
f 3/3/3 2/2/2 1/1/1
f 6/6/6 5/5/5 4/4/4
f 9/9/9 8/8/8 7/7/7
f 12/12/12 11/11/11 10/10/10
f 15/15/15 14/14/14 13/13/13
f 18/18/18 17/17/17 16/16/16
f 21/21/21 20/20/20 19/19/19
f 24/24/24 23/23/23 22/22/22
