g DecalMesh_Common_Decal_Water_03__27
v 2.0457006 2.2729454 -0.07826791
v 2.0457006 2.3736732 -0.07848477
v 1.9382849 2.3736732 -0.07826785
v 2.0457006 2.2729454 0.05333037
v 2.0457006 2.2729454 -0.06826782
v 1.9382849 2.3736732 -0.06826782
v 2.0457006 2.2729454 0.05333037
v 1.9382849 2.3736732 -0.06826782
v 1.9382849 2.3736732 0.04489765
v 2.0457006 2.2729454 0.074896954
v 1.9382849 2.3736732 0.064968616
v 1.9382849 2.3736732 0.07489701
v 2.0457006 2.2729454 0.074896954
v 2.0457006 2.2729454 0.05333037
v 1.9382849 2.3736732 0.04489765
v 2.0457006 2.2729454 0.074896954
v 1.9382849 2.3736732 0.04489765
v 1.9382849 2.3736732 0.064968616
v 2.0457006 2.2729454 -0.06977412
v 2.0457006 2.2729454 -0.07826791
v 1.9382849 2.3736732 -0.07826785
v 2.0457006 2.2729454 -0.06977412
v 1.9382849 2.3736732 -0.07826785
v 1.9382849 2.3736732 -0.070363104
v 2.0457006 2.2729454 -0.06826782
v 1.9382849 2.3736732 -0.06896126
v 1.9382849 2.3736732 -0.06826782
v 2.0457006 2.2729454 -0.06826782
v 2.0457006 2.2729454 -0.06977412
v 1.9382849 2.3736732 -0.070363104
v 2.0457006 2.2729454 -0.06826782
v 1.9382849 2.3736732 -0.070363104
v 1.9382849 2.3736732 -0.06896126
v -1.2132969 1.9017954 -0.06826782
v -1.716505 2.3736732 -0.06826782
v -1.716505 2.3736732 -0.078205615
v -1.2132969 1.9017954 -0.06826782
v -0.77079886 2.3736732 -0.06826782
v -1.716505 2.3736732 -0.06826782
v -1.2132969 1.9017954 -0.06826782
v -1.7165052 2.3736732 -0.07820562
v -2.0457006 2.3100808 -0.08251284
v -1.2132969 1.9017954 -0.06826782
v -2.0457006 2.3100808 -0.08251284
v -2.0457006 1.8750495 -0.07994908
v -1.7165052 2.3736732 -0.07820562
v -2.0457006 2.3736732 -0.08288761
v -2.0457006 2.3100808 -0.08251284
v -1.2132969 1.9017954 -0.06826782
v -2.0457006 1.8750495 -0.07994908
v -2.0457006 1.0141242 -0.06826782
v -1.2132969 1.9017954 -0.06826782
v -0.77079886 2.3736732 -0.031222822
v -0.77079886 2.3736732 -0.06826782
v -1.2132969 1.9017954 -0.06826782
v -1.2132969 1.9017954 0.07489681
v -0.7707989 2.3736732 0.07489681
v -1.2132969 1.9017954 -0.06826782
v -0.7707989 2.3736732 0.07489681
v -0.7707989 2.3736732 -0.031222826
v -1.2132969 1.9017954 0.07489681
v -1.2132969 1.9017954 -0.06826782
v -2.0457006 1.014124 -0.06826782
v -1.2132969 1.9017954 0.07489681
v -2.0457006 1.014124 -0.06826782
v -2.0457006 1.014124 0.0052097444
v -1.2132969 1.9017954 0.07489681
v -2.0457006 1.0141242 0.0052097486
v -2.0457006 1.0141242 0.07489681
v 0.6103275 0.19171226 -0.07826805
v -1.0997555 -1.631915 -0.09462547
v 2.0457006 -1.5308725 -0.08006551
v 0.6103275 0.19171226 -0.07826805
v 2.0457006 -1.5308725 -0.08006551
v 2.0457006 -1.1542679 -0.07826805
v 2.0457006 -1.9324957 -0.07935775
v -1.0997555 -1.631915 -0.09462547
v -0.3087335 -2.3736732 -0.08961198
v 2.0457006 -1.9324957 -0.07935775
v -0.3087335 -2.3736732 -0.08961198
v 1.6319921 -2.3736732 -0.080518715
v -1.0997555 -1.631915 -0.09462547
v 2.0457006 -1.9324957 -0.07935775
v 2.0457006 -1.5308725 -0.08006551
v 0.6103275 0.19171226 -0.06826782
v 2.0457006 0.23783217 -0.08405383
v 2.0457006 1.7223873 -0.076661594
v 0.6103275 0.19171226 -0.06826782
v 2.0457006 -1.1542925 -0.06826782
v 2.0457006 0.23783217 -0.08405383
v -1.0997555 -1.631915 -0.06826782
v 0.6103275 0.19171226 -0.06826782
v -2.0457006 0.10637052 -0.06826782
v -1.0997555 -1.631915 -0.06826782
v -2.0457006 0.10637052 -0.06826782
v -2.0457006 -0.7448657 -0.06826782
v 0.6103275 0.19171226 -0.06826782
v -1.2132983 1.9017967 -0.06826782
v -2.0457006 1.0141256 -0.06826782
v 0.6103275 0.19171226 -0.06826782
v -2.0457006 1.0141256 -0.06826782
v -2.0457006 0.10637052 -0.06826782
v -1.2132983 1.9017967 -0.06826782
v 0.6103275 0.19171226 -0.06826782
v 2.0457006 1.7223873 -0.06826782
v -1.2132983 1.9017967 -0.06826782
v 2.0457006 1.7223873 -0.06826782
v 2.0457006 2.0065112 -0.06826782
v -1.2132983 1.9017967 -0.06826782
v 2.0457006 2.0065112 -0.06826782
v 1.7148501 2.3736732 -0.06826782
v -1.2132983 1.9017967 -0.06826782
v 1.7148501 2.3736732 -0.06826782
v -0.77080166 2.373673 -0.06826782
v 2.0457006 2.0065112 -0.06826782
v 2.0457006 2.2729452 -0.06826782
v 1.9382848 2.3736732 -0.06826782
v 2.0457006 2.0065112 -0.06826782
v 1.9382848 2.3736732 -0.06826782
v 1.7148501 2.3736732 -0.06826782
v -1.0997555 -1.631915 -0.06826782
v -1.7953306 -2.3736732 -0.06826782
v -0.3087481 -2.3736732 -0.06826782
v -1.0999434 -1.6317389 -0.08564758
v -2.0457006 -1.6621758 -0.08367217
v -2.0457006 -2.3736732 -0.082140364
v -1.0999434 -1.6317389 -0.08564758
v -2.0457006 -2.3736732 -0.082140364
v -1.7955401 -2.3736732 -0.08264554
v -1.0999434 -1.6317389 -0.08564758
v -2.0457006 -0.7448658 -0.08181957
v -2.0457006 -1.6621758 -0.08367217
v 2.0457006 2.2729452 -0.06826782
v 1.9382846 2.3736732 -0.058339413
v 1.9382846 2.3736732 -0.06826782
v 2.0457006 2.2729452 -0.06826782
v 2.0457006 2.2729452 -0.04670135
v 1.9382848 2.3736732 -0.03826856
v 2.0457006 2.2729452 -0.06826782
v 1.9382848 2.3736732 -0.03826856
v 1.9382848 2.3736732 -0.058339417
v 2.0457006 2.2729452 -0.04670135
v 2.0457006 2.2729454 0.074896954
v 1.9382849 2.3736732 0.07489701
v 2.0457006 2.2729452 -0.04670135
v 1.9382849 2.3736732 0.07489701
v 1.9382848 2.3736732 -0.03826856
v -1.0997555 -1.631915 -0.09462547
v -1.0997555 -1.631915 -0.06826782
v -0.3087481 -2.3736732 -0.06826782
v -1.0997555 -1.631915 -0.09462547
v -0.3087481 -2.3736732 -0.06826782
v -0.3087481 -2.3736732 -0.0831927
v -1.0997555 -1.631915 -0.09462547
v -0.3087481 -2.3736732 -0.0831927
v -0.30873355 -2.3736732 -0.08961198
v -1.0999434 -1.6317389 -0.08564758
v -2.0457006 -0.7448658 -0.076633275
v -2.0457006 -0.7448658 -0.08181957
v -1.0999434 -1.6317389 -0.08564758
v -1.0997555 -1.631915 -0.06826782
v -2.0457006 -0.7448657 -0.06826782
v -1.0999434 -1.6317389 -0.08564758
v -2.0457006 -0.7448657 -0.06826782
v -2.0457006 -0.7448658 -0.076633275
v -1.0997555 -1.631915 -0.06826782
v -1.0999434 -1.6317389 -0.08564758
v -1.7955401 -2.3736732 -0.08264554
v -1.0997555 -1.631915 -0.06826782
v -1.7955401 -2.3736732 -0.08264554
v -1.7954468 -2.3736732 -0.07804784
v -1.0997555 -1.631915 -0.06826782
v -1.7954468 -2.3736732 -0.07804784
v -1.7953306 -2.3736732 -0.07233541
v -1.0997555 -1.631915 -0.06826782
v -1.7953306 -2.3736732 -0.07233541
v -1.7953306 -2.3736732 -0.06826782
v 2.0457003 0.88240576 -0.028000832
v 2.0457003 0.88240576 -0.09562856
v 0.93758625 1.9215271 -0.09562855
v 0.45541987 2.3736732 -0.028000832
v 2.0457003 0.88240576 -0.028000832
v 0.93758625 1.9215271 -0.09562855
v 0.45541987 2.3736732 -0.028000832
v 0.93758625 1.9215271 -0.09562855
v 0.45541987 2.3736732 -0.09562855
v 2.0457006 -0.26626608 -0.08004412
v 2.0457006 -0.2663799 -0.09562855
v 2.0317655 -0.25262278 -0.09562855
vt 0.5410156 0.48168945
vt 0.5410156 0.49194336
vt 0.5517578 0.49194336
vt 0.5410156 0.48168945
vt 0.5410156 0.48168945
vt 0.5517578 0.49194336
vt 0.5410156 0.48168945
vt 0.5517578 0.49194336
vt 0.5517578 0.49194336
vt 0.5410156 0.48168945
vt 0.5517578 0.49194336
vt 0.5517578 0.49194336
vt 0.5410156 0.48168945
vt 0.5410156 0.48168945
vt 0.5517578 0.49194336
vt 0.5410156 0.48168945
vt 0.5517578 0.49194336
vt 0.5517578 0.49194336
vt 0.5410156 0.48168945
vt 0.5410156 0.48168945
vt 0.5517578 0.49194336
vt 0.5410156 0.48168945
vt 0.5517578 0.49194336
vt 0.5517578 0.49194336
vt 0.5410156 0.48168945
vt 0.5517578 0.49194336
vt 0.5517578 0.49194336
vt 0.5410156 0.48168945
vt 0.5410156 0.48168945
vt 0.5517578 0.49194336
vt 0.5410156 0.48168945
vt 0.5517578 0.49194336
vt 0.5517578 0.49194336
vt 0.8666992 0.44458008
vt 0.9169922 0.49194336
vt 0.9169922 0.49194336
vt 0.8666992 0.44458008
vt 0.8227539 0.49194336
vt 0.9169922 0.49194336
vt 0.8666992 0.44458008
vt 0.9169922 0.49194336
vt 0.9501953 0.4855957
vt 0.8666992 0.44458008
vt 0.9501953 0.4855957
vt 0.9501953 0.44189453
vt 0.9169922 0.49194336
vt 0.9501953 0.49194336
vt 0.9501953 0.4855957
vt 0.8666992 0.44458008
vt 0.9501953 0.44189453
vt 0.9501953 0.35595703
vt 0.8666992 0.44458008
vt 0.8227539 0.49194336
vt 0.8227539 0.49194336
vt 0.8666992 0.44458008
vt 0.8666992 0.44458008
vt 0.8227539 0.49194336
vt 0.8666992 0.44458008
vt 0.8227539 0.49194336
vt 0.8227539 0.49194336
vt 0.8666992 0.44458008
vt 0.8666992 0.44458008
vt 0.9501953 0.35595703
vt 0.8666992 0.44458008
vt 0.9501953 0.35595703
vt 0.9501953 0.35595703
vt 0.8666992 0.44458008
vt 0.9501953 0.35595703
vt 0.9501953 0.35595703
vt 0.6845703 0.27368164
vt 0.85546875 0.091308594
vt 0.5410156 0.101379395
vt 0.6845703 0.27368164
vt 0.5410156 0.101379395
vt 0.5410156 0.13903809
vt 0.5410156 0.06124878
vt 0.85546875 0.091308594
vt 0.7763672 0.017120361
vt 0.5410156 0.06124878
vt 0.7763672 0.017120361
vt 0.58203125 0.017120361
vt 0.85546875 0.091308594
vt 0.5410156 0.06124878
vt 0.5410156 0.101379395
vt 0.6845703 0.27368164
vt 0.5410156 0.2783203
vt 0.5410156 0.4267578
vt 0.6845703 0.27368164
vt 0.5410156 0.13903809
vt 0.5410156 0.2783203
vt 0.85546875 0.091308594
vt 0.6845703 0.27368164
vt 0.9501953 0.26513672
vt 0.85546875 0.091308594
vt 0.9501953 0.26513672
vt 0.9501953 0.18005371
vt 0.6845703 0.27368164
vt 0.8666992 0.44458008
vt 0.9501953 0.35595703
vt 0.6845703 0.27368164
vt 0.9501953 0.35595703
vt 0.9501953 0.26513672
vt 0.8666992 0.44458008
vt 0.6845703 0.27368164
vt 0.5410156 0.4267578
vt 0.8666992 0.44458008
vt 0.5410156 0.4267578
vt 0.5410156 0.45507812
vt 0.8666992 0.44458008
vt 0.5410156 0.45507812
vt 0.57421875 0.49194336
vt 0.8666992 0.44458008
vt 0.57421875 0.49194336
vt 0.8227539 0.49194336
vt 0.5410156 0.45507812
vt 0.5410156 0.48168945
vt 0.5517578 0.49194336
vt 0.5410156 0.45507812
vt 0.5517578 0.49194336
vt 0.57421875 0.49194336
vt 0.85546875 0.091308594
vt 0.9248047 0.017120361
vt 0.7763672 0.017120361
vt 0.85546875 0.091308594
vt 0.9501953 0.088256836
vt 0.9501953 0.017120361
vt 0.85546875 0.091308594
vt 0.9501953 0.017120361
vt 0.9248047 0.017120361
vt 0.85546875 0.091308594
vt 0.9501953 0.18005371
vt 0.9501953 0.088256836
vt 0.5410156 0.48168945
vt 0.5517578 0.49194336
vt 0.5517578 0.49194336
vt 0.5410156 0.48168945
vt 0.5410156 0.48168945
vt 0.5517578 0.49194336
vt 0.5410156 0.48168945
vt 0.5517578 0.49194336
vt 0.5517578 0.49194336
vt 0.5410156 0.48168945
vt 0.5410156 0.48168945
vt 0.5517578 0.49194336
vt 0.5410156 0.48168945
vt 0.5517578 0.49194336
vt 0.5517578 0.49194336
vt 0.85546875 0.091308594
vt 0.85546875 0.091308594
vt 0.7763672 0.017120361
vt 0.85546875 0.091308594
vt 0.7763672 0.017120361
vt 0.7763672 0.017120361
vt 0.85546875 0.091308594
vt 0.7763672 0.017120361
vt 0.7763672 0.017120361
vt 0.85546875 0.091308594
vt 0.9501953 0.18005371
vt 0.9501953 0.18005371
vt 0.85546875 0.091308594
vt 0.85546875 0.091308594
vt 0.9501953 0.18005371
vt 0.85546875 0.091308594
vt 0.9501953 0.18005371
vt 0.9501953 0.18005371
vt 0.85546875 0.091308594
vt 0.85546875 0.091308594
vt 0.9248047 0.017120361
vt 0.85546875 0.091308594
vt 0.9248047 0.017120361
vt 0.9248047 0.017120361
vt 0.85546875 0.091308594
vt 0.9248047 0.017120361
vt 0.9248047 0.017120361
vt 0.85546875 0.091308594
vt 0.9248047 0.017120361
vt 0.9248047 0.017120361
vt 0.5410156 0.34277344
vt 0.5410156 0.34277344
vt 0.65185547 0.4465332
vt 0.69970703 0.49194336
vt 0.5410156 0.34277344
vt 0.65185547 0.4465332
vt 0.69970703 0.49194336
vt 0.65185547 0.4465332
vt 0.69970703 0.49194336
vt 0.5410156 0.22790527
vt 0.5410156 0.22790527
vt 0.54248047 0.22924805
vn -0.0020866394 -6.6936016E-05 -1
vn -0.0020866394 -6.6936016E-05 -1
vn -0.0020866394 -6.6936016E-05 -1
vn -0.68408203 -0.7294922 0
vn -0.68408203 -0.7294922 0
vn -0.68408203 -0.7294922 0
vn -0.68408203 -0.7294922 0
vn -0.68408203 -0.7294922 0
vn -0.68408203 -0.7294922 0
vn -0.68408203 -0.7294922 0
vn -0.68408203 -0.7294922 0
vn -0.68408203 -0.7294922 0
vn -0.68408203 -0.7294922 0
vn -0.68408203 -0.7294922 0
vn -0.68408203 -0.7294922 0
vn -0.68408203 -0.7294922 0
vn -0.68408203 -0.7294922 0
vn -0.68408203 -0.7294922 0
vn -0.68408203 -0.7294922 0
vn -0.68408203 -0.7294922 0
vn -0.68408203 -0.7294922 0
vn -0.68408203 -0.7294922 0
vn -0.68408203 -0.7294922 0
vn -0.68408203 -0.7294922 0
vn -0.68408203 -0.7294922 0
vn -0.68408203 -0.7294922 0
vn -0.68408203 -0.7294922 0
vn -0.68408203 -0.7294922 0
vn -0.68408203 -0.7294922 0
vn -0.68408203 -0.7294922 0
vn -0.68408203 -0.7294922 0
vn -0.68408203 -0.7294922 0
vn -0.68408203 -0.7294922 0
vn 0.68408203 0.7294922 0
vn 0.68408203 0.7294922 0
vn 0.68408203 0.7294922 0
vn 0.007171631 -0.004863739 -1
vn 0.005317688 -0.0036067963 -1
vn 0.0036907196 -0.0039596558 -1
vn 0.007171631 -0.004863739 -1
vn 0.009147644 -0.0062065125 -1
vn 0.009712219 -0.006587982 -1
vn 0.007171631 -0.004863739 -1
vn 0.009712219 -0.006587982 -1
vn 0.008857727 -0.006011963 -1
vn 0.009147644 -0.0062065125 -1
vn 0.009841919 -0.00667572 -1
vn 0.009712219 -0.006587982 -1
vn 0.007171631 -0.004863739 -1
vn 0.008857727 -0.006011963 -1
vn 0.010665894 -0.007232666 -1
vn 0.7294922 -0.68408203 -5.9604645E-08
vn 0.7294922 -0.68408203 -5.9604645E-08
vn 0.7294922 -0.68408203 -5.9604645E-08
vn 0.7294922 -0.68408203 -5.9604645E-08
vn 0.7294922 -0.68408203 -5.9604645E-08
vn 0.7294922 -0.68408203 -5.9604645E-08
vn 0.7294922 -0.68408203 -5.9604645E-08
vn 0.7294922 -0.68408203 -5.9604645E-08
vn 0.7294922 -0.68408203 -5.9604645E-08
vn 0.7294922 -0.68408203 -5.9604645E-08
vn 0.7294922 -0.68408203 -5.9604645E-08
vn 0.7294922 -0.68408203 -5.9604645E-08
vn 0.7294922 -0.68408203 -5.9604645E-08
vn 0.7294922 -0.68408203 -5.9604645E-08
vn 0.7294922 -0.68408203 -5.9604645E-08
vn 0.7294922 -0.68408203 -5.9604645E-08
vn 0.7294922 -0.68408203 -5.9604645E-08
vn 0.7294922 -0.68408203 -5.9604645E-08
vn 0.0045814514 0.0015058517 -1
vn 0.0045814514 0.0015058517 -1
vn 0.0045814514 0.0015058517 -1
vn 0.0045814514 0.0015058517 -1
vn 0.0045814514 0.0015058517 -1
vn 0.0045814514 0.0015058517 -1
vn 0.0045814514 0.0015058517 -1
vn 0.0045814514 0.0015058517 -1
vn 0.0045814514 0.0015058517 -1
vn 0.0045814514 0.0015058517 -1
vn 0.0045814514 0.0015058517 -1
vn 0.0045814514 0.0015058517 -1
vn 0.0045814514 0.0015058517 -1
vn 0.0045814514 0.0015058517 -1
vn 0.0045814514 0.0015058517 -1
vn -0.0036315918 -0.0010595322 -1
vn -0.006580353 -0.0019207001 -1
vn -0.009727478 -0.002840042 -1
vn -0.0036315918 -0.0010595322 -1
vn -0.0050621033 -0.0014772415 -1
vn -0.006580353 -0.0019207001 -1
vn -5.9604645E-08 5.9604645E-08 -1
vn -0.0036315918 -0.0010595322 -1
vn -0.0009021759 -0.0002632141 -1
vn -5.9604645E-08 5.9604645E-08 -1
vn -0.0009021759 -0.0002632141 -1
vn -5.9604645E-08 5.9604645E-08 -1
vn -0.0036315918 -0.0010595322 -1
vn -5.9604645E-08 5.9604645E-08 -1
vn -5.9604645E-08 5.9604645E-08 -1
vn -0.0036315918 -0.0010595322 -1
vn -5.9604645E-08 5.9604645E-08 -1
vn -0.0009021759 -0.0002632141 -1
vn -5.9604645E-08 5.9604645E-08 -1
vn -0.0036315918 -0.0010595322 -1
vn -0.0005836487 -0.00017023087 -1
vn -5.9604645E-08 5.9604645E-08 -1
vn -0.0005836487 -0.00017023087 -1
vn -5.9604645E-08 5.9604645E-08 -1
vn -5.9604645E-08 5.9604645E-08 -1
vn -5.9604645E-08 5.9604645E-08 -1
vn -5.9604645E-08 5.9604645E-08 -1
vn -5.9604645E-08 5.9604645E-08 -1
vn -5.9604645E-08 5.9604645E-08 -1
vn -5.9604645E-08 5.9604645E-08 -1
vn -5.9604645E-08 5.9604645E-08 -1
vn -5.9604645E-08 5.9604645E-08 -1
vn -5.9604645E-08 5.9604645E-08 -1
vn -5.9604645E-08 5.9604645E-08 -1
vn -5.9604645E-08 5.9604645E-08 -1
vn -5.9604645E-08 5.9604645E-08 -1
vn -5.9604645E-08 5.9604645E-08 -1
vn -5.9604645E-08 5.9604645E-08 -1
vn -5.9604645E-08 5.9604645E-08 -1
vn -0.0020866394 -6.6936016E-05 -1
vn -0.0020866394 -6.6936016E-05 -1
vn -0.0020866394 -6.6936016E-05 -1
vn -0.0020866394 -6.6936016E-05 -1
vn -0.0020866394 -6.6936016E-05 -1
vn -0.0020866394 -6.6936016E-05 -1
vn -0.0020866394 -6.6936016E-05 -1
vn -0.0020866394 -6.6936016E-05 -1
vn -0.0020866394 -6.6936016E-05 -1
vn 0.68408203 0.7294922 0
vn 0.68408203 0.7294922 0
vn 0.68408203 0.7294922 0
vn 0.68408203 0.7294922 0
vn 0.68408203 0.7294922 0
vn 0.68408203 0.7294922 0
vn 0.68408203 0.7294922 0
vn 0.68408203 0.7294922 0
vn 0.68408203 0.7294922 0
vn 0.68408203 0.7294922 0
vn 0.68408203 0.7294922 0
vn 0.68408203 0.7294922 0
vn 0.68408203 0.7294922 0
vn 0.68408203 0.7294922 0
vn 0.68408203 0.7294922 0
vn -0.68408203 -0.7294922 -0
vn -0.68408203 -0.7294922 -0
vn -0.68408203 -0.7294922 -0
vn -0.68408203 -0.7294922 -0
vn -0.68408203 -0.7294922 -0
vn -0.68408203 -0.7294922 -0
vn -0.68408203 -0.7294922 -0
vn -0.68408203 -0.7294922 -0
vn -0.68408203 -0.7294922 -0.0006752014
vn 0.68408203 0.7294922 0
vn 0.68408203 0.7294922 0
vn 0.68408203 0.7294922 0
vn 0.68408203 0.7294922 0
vn 0.68408203 0.7294922 0
vn 0.68408203 0.7294922 0
vn 0.68408203 0.7294922 0
vn 0.68408203 0.7294922 0
vn 0.68408203 0.7294922 0
vn 0.7294922 -0.68408203 -0.009346008
vn 0.7294922 -0.68408203 -0.009346008
vn 0.7294922 -0.68408203 -0.009346008
vn 0.7294922 -0.68408203 -0.009346008
vn 0.7294922 -0.68408203 -0.009346008
vn 0.7294922 -0.68408203 -0.009346008
vn 0.7294922 -0.68408203 -0.009346008
vn 0.7294922 -0.68408203 -0.009346008
vn 0.7294922 -0.68408203 -0.009346008
vn 0.7294922 -0.68408203 -0.009346008
vn 0.7294922 -0.68408203 -0.009346008
vn 0.7294922 -0.68408203 -0.009346008
vn -0.6826172 -0.73046875 0
vn -0.6826172 -0.73046875 0
vn -0.68359375 -0.72998047 0
vn -0.68408203 -0.7294922 0
vn -0.6826172 -0.73046875 0
vn -0.68359375 -0.72998047 0
vn -0.68408203 -0.7294922 0
vn -0.68359375 -0.72998047 0
vn -0.68408203 -0.7294922 0
vn -0.7475586 -0.65527344 -0.0093307495
vn -0.7480469 -0.65478516 -0.009994507
vn -0.7705078 -0.6274414 -0.017471313
g DecalMesh_Common_Decal_Water_03__27_0
f 3/3/3 2/2/2 1/1/1
f 6/6/6 5/5/5 4/4/4
f 9/9/9 8/8/8 7/7/7
f 12/12/12 11/11/11 10/10/10
f 15/15/15 14/14/14 13/13/13
f 18/18/18 17/17/17 16/16/16
f 21/21/21 20/20/20 19/19/19
f 24/24/24 23/23/23 22/22/22
f 27/27/27 26/26/26 25/25/25
f 30/30/30 29/29/29 28/28/28
f 33/33/33 32/32/32 31/31/31
f 36/36/36 35/35/35 34/34/34
f 39/39/39 38/38/38 37/37/37
f 42/42/42 41/41/41 40/40/40
f 45/45/45 44/44/44 43/43/43
f 48/48/48 47/47/47 46/46/46
f 51/51/51 50/50/50 49/49/49
f 54/54/54 53/53/53 52/52/52
f 57/57/57 56/56/56 55/55/55
f 60/60/60 59/59/59 58/58/58
f 63/63/63 62/62/62 61/61/61
f 66/66/66 65/65/65 64/64/64
f 69/69/69 68/68/68 67/67/67
f 72/72/72 71/71/71 70/70/70
f 75/75/75 74/74/74 73/73/73
f 78/78/78 77/77/77 76/76/76
f 81/81/81 80/80/80 79/79/79
f 84/84/84 83/83/83 82/82/82
f 87/87/87 86/86/86 85/85/85
f 90/90/90 89/89/89 88/88/88
f 93/93/93 92/92/92 91/91/91
f 96/96/96 95/95/95 94/94/94
f 99/99/99 98/98/98 97/97/97
f 102/102/102 101/101/101 100/100/100
f 105/105/105 104/104/104 103/103/103
f 108/108/108 107/107/107 106/106/106
f 111/111/111 110/110/110 109/109/109
f 114/114/114 113/113/113 112/112/112
f 117/117/117 116/116/116 115/115/115
f 120/120/120 119/119/119 118/118/118
f 123/123/123 122/122/122 121/121/121
f 126/126/126 125/125/125 124/124/124
f 129/129/129 128/128/128 127/127/127
f 132/132/132 131/131/131 130/130/130
f 135/135/135 134/134/134 133/133/133
f 138/138/138 137/137/137 136/136/136
f 141/141/141 140/140/140 139/139/139
f 144/144/144 143/143/143 142/142/142
f 147/147/147 146/146/146 145/145/145
f 150/150/150 149/149/149 148/148/148
f 153/153/153 152/152/152 151/151/151
f 156/156/156 155/155/155 154/154/154
f 159/159/159 158/158/158 157/157/157
f 162/162/162 161/161/161 160/160/160
f 165/165/165 164/164/164 163/163/163
f 168/168/168 167/167/167 166/166/166
f 171/171/171 170/170/170 169/169/169
f 174/174/174 173/173/173 172/172/172
f 177/177/177 176/176/176 175/175/175
f 180/180/180 179/179/179 178/178/178
f 183/183/183 182/182/182 181/181/181
f 186/186/186 185/185/185 184/184/184
f 189/189/189 188/188/188 187/187/187
