g DecalMesh_MetroArea_Decal_Ground_22__43
v 1.0000001 -0.9921861 0.022063915
v 0.99999994 1.003 0.022062583
v -0.95879185 1.0029999 0.022062596
v -0.98566484 1.003 0.022062596
v -1 0.87716866 0.02206268
v 0.7587651 -0.997 0.02206392
v -0.98566484 1.003 0.022062596
v 0.7587651 -0.997 0.02206392
v 0.77384657 -0.997 0.02206392
v -1 0.87716866 0.02206268
v -1 -0.997 0.02206393
v 0.7587651 -0.997 0.02206392
v -0.98566484 1.003 0.022062596
v -1 1.003 0.022062596
v -1 0.87716866 0.02206268
v 1 -0.99218607 0.022063915
v -0.9587919 1.003 0.022062596
v 0.77690727 -0.997 0.02206392
v 1 -0.99218607 0.022063915
v 0.77690727 -0.997 0.02206392
v 1 -0.997 0.022063918
v -0.9587919 1.003 0.022062596
v -0.98566484 1.003 0.022062596
v 0.77384657 -0.997 0.02206392
v -0.9587919 1.003 0.022062596
v 0.77384657 -0.997 0.02206392
v 0.77690727 -0.997 0.02206392
vt 0.5439453 0.31835938
vt 0.5439453 0.39697266
vt 0.6230469 0.39697266
vt 0.62402344 0.39697266
vt 0.6245117 0.39208984
vt 0.55371094 0.31811523
vt 0.62402344 0.39697266
vt 0.55371094 0.31811523
vt 0.55322266 0.31811523
vt 0.6245117 0.39208984
vt 0.6245117 0.31811523
vt 0.55371094 0.31811523
vt 0.62402344 0.39697266
vt 0.6245117 0.39697266
vt 0.6245117 0.39208984
vt 0.5439453 0.31835938
vt 0.6230469 0.39697266
vt 0.55322266 0.31811523
vt 0.5439453 0.31835938
vt 0.55322266 0.31811523
vt 0.5439453 0.31811523
vt 0.6230469 0.39697266
vt 0.62402344 0.39697266
vt 0.55322266 0.31811523
vt 0.6230469 0.39697266
vt 0.55322266 0.31811523
vt 0.55322266 0.31811523
vn -0 -4.7683716E-07 -1
vn -0 -4.7683716E-07 -1
vn -0 -4.7683716E-07 -1
vn -0 -4.7683716E-07 -1
vn -0 -4.7683716E-07 -1
vn -0 -4.7683716E-07 -1
vn -0 -4.7683716E-07 -1
vn -0 -4.7683716E-07 -1
vn -0 -4.7683716E-07 -1
vn -0 -4.7683716E-07 -1
vn -0 -4.7683716E-07 -1
vn -0 -4.7683716E-07 -1
vn -0 -4.7683716E-07 -1
vn -0 -4.7683716E-07 -1
vn -0 -4.7683716E-07 -1
vn -0 -4.7683716E-07 -1
vn -0 -4.7683716E-07 -1
vn -0 -4.7683716E-07 -1
vn -0 -4.7683716E-07 -1
vn -0 -4.7683716E-07 -1
vn -0 -4.7683716E-07 -1
vn -0 -4.7683716E-07 -1
vn -0 -4.7683716E-07 -1
vn -0 -4.7683716E-07 -1
vn -0 -4.7683716E-07 -1
vn -0 -4.7683716E-07 -1
vn -0 -4.7683716E-07 -1
g DecalMesh_MetroArea_Decal_Ground_22__43_0
f 3/3/3 2/2/2 1/1/1
f 6/6/6 5/5/5 4/4/4
f 9/9/9 8/8/8 7/7/7
f 12/12/12 11/11/11 10/10/10
f 15/15/15 14/14/14 13/13/13
f 18/18/18 17/17/17 16/16/16
f 21/21/21 20/20/20 19/19/19
f 24/24/24 23/23/23 22/22/22
f 27/27/27 26/26/26 25/25/25
