g DecalMesh_MetroArea_Decal_Graffiti_23__26
v 0.7866758 -0.18017401 0.006484956
v 1.4522939 -0.4849894 0.0064849667
v 1.4522939 0.6205692 0.0064846827
v 0.7866758 -0.18017401 0.006484956
v 1.4522939 0.6205692 0.0064846827
v 1.1533709 0.6205692 0.006484713
v 0.7866758 -0.18017401 0.006484956
v 1.1533709 0.6205692 0.006484713
v -0.961888 0.6205692 0.006484927
v -1.4522938 0.061986655 0.006485069
v -1.4522939 -0.6145692 0.0064852056
v -1.1268321 -0.61456925 0.0064851753
v 0.7866758 -0.18017401 0.006484956
v -0.9618881 0.6205692 0.006484927
v -0.6740158 -0.6145691 0.006485143
v 0.7866758 -0.18017401 0.006484956
v -0.6740158 -0.6145691 0.006485143
v 0.58774745 -0.6145692 0.0064850533
v -0.9618881 0.6205692 0.006484927
v -1.4522938 0.6205692 0.0064849625
v -0.9665454 -0.6145691 0.006485164
v -0.9618881 0.6205692 0.006484927
v -0.9665454 -0.6145691 0.006485164
v -0.6740158 -0.6145691 0.006485143
v -1.4522938 0.6205692 0.0064849625
v -1.4522938 0.061986655 0.006485069
v -1.1268322 -0.6145691 0.0064851753
v -1.4522938 0.6205692 0.0064849625
v -1.1268322 -0.6145691 0.0064851753
v -0.9665454 -0.6145691 0.006485164
v 0.7866758 -0.18017401 0.006484956
v 0.58774745 -0.6145692 0.0064850533
v 0.9471521 -0.6145692 0.0064850277
v 1.4522938 -0.48498937 0.0064849667
v 0.7866758 -0.18017401 0.006484956
v 0.9471521 -0.6145692 0.0064850277
v 1.4522938 -0.48498937 0.0064849667
v 0.9471521 -0.6145692 0.0064850277
v 1.4522938 -0.6145692 0.0064849914
v 0.16829045 0.6205693 0.00664882
v -1.4522939 0.6205692 0.006648999
v -1.4522939 -0.0028315233 0.0066491496
v 1.4522939 0.6205692 0.006648678
v -1.4522939 -0.13944227 0.0066491826
v -0.08743775 -0.6145692 0.0066491463
v 1.4522939 0.6205692 0.006648678
v -0.08743775 -0.6145692 0.0066491463
v 1.4522939 -0.6145692 0.006648976
v -1.4522939 -0.13944227 0.0066491826
v -1.4522939 -0.6145692 0.006649297
v -0.08743775 -0.6145692 0.0066491463
v 1.4522939 0.6205692 0.006648678
v 0.16829033 0.6205692 0.00664882
v -1.4522939 -0.0028315163 0.0066491496
v 1.4522939 0.6205692 0.006648678
v -1.4522939 -0.0028315163 0.0066491496
v -1.4522939 -0.13944227 0.0066491826
vt 0.06555176 0.25170898
vt 0.009399414 0.21838379
vt 0.009399414 0.33935547
vt 0.06555176 0.25170898
vt 0.009399414 0.33935547
vt 0.034606934 0.33935547
vt 0.06555176 0.25170898
vt 0.034606934 0.33935547
vt 0.2130127 0.33935547
vt 0.25439453 0.2783203
vt 0.25439453 0.20422363
vt 0.22692871 0.20422363
vt 0.06555176 0.25170898
vt 0.2130127 0.33935547
vt 0.1887207 0.20422363
vt 0.06555176 0.25170898
vt 0.1887207 0.20422363
vt 0.082336426 0.20422363
vt 0.2130127 0.33935547
vt 0.25439453 0.33935547
vt 0.21350098 0.20422363
vt 0.2130127 0.33935547
vt 0.21350098 0.20422363
vt 0.1887207 0.20422363
vt 0.25439453 0.33935547
vt 0.25439453 0.2783203
vt 0.22692871 0.20422363
vt 0.25439453 0.33935547
vt 0.22692871 0.20422363
vt 0.21350098 0.20422363
vt 0.06555176 0.25170898
vt 0.082336426 0.20422363
vt 0.052001953 0.20422363
vt 0.009399414 0.21838379
vt 0.06555176 0.25170898
vt 0.052001953 0.20422363
vt 0.009399414 0.21838379
vt 0.052001953 0.20422363
vt 0.009399414 0.20422363
vt 0.11773682 0.33935547
vt 0.25439453 0.33935547
vt 0.25439453 0.27124023
vt 0.009399414 0.33935547
vt 0.25439453 0.25610352
vt 0.13928223 0.20422363
vt 0.009399414 0.33935547
vt 0.13928223 0.20422363
vt 0.009399414 0.20422363
vt 0.25439453 0.25610352
vt 0.25439453 0.20422363
vt 0.13928223 0.20422363
vt 0.009399414 0.33935547
vt 0.11773682 0.33935547
vt 0.25439453 0.27124023
vt 0.009399414 0.33935547
vt 0.25439453 0.27124023
vt 0.25439453 0.25610352
vn 1.1920929E-07 -2.9802322E-07 -1
vn 1.1920929E-07 -2.9802322E-07 -1
vn 1.1920929E-07 -2.9802322E-07 -1
vn 1.1920929E-07 -2.9802322E-07 -1
vn 1.1920929E-07 -2.9802322E-07 -1
vn 1.1920929E-07 -2.9802322E-07 -1
vn 1.1920929E-07 -2.9802322E-07 -1
vn 1.1920929E-07 -2.9802322E-07 -1
vn 1.1920929E-07 -2.9802322E-07 -1
vn 1.1920929E-07 -2.9802322E-07 -1
vn 1.1920929E-07 -2.9802322E-07 -1
vn 1.1920929E-07 -2.9802322E-07 -1
vn 1.1920929E-07 -2.9802322E-07 -1
vn 1.1920929E-07 -2.9802322E-07 -1
vn 1.1920929E-07 -2.9802322E-07 -1
vn 1.1920929E-07 -2.9802322E-07 -1
vn 1.1920929E-07 -2.9802322E-07 -1
vn 1.1920929E-07 -2.9802322E-07 -1
vn 1.1920929E-07 -2.9802322E-07 -1
vn 1.1920929E-07 -2.9802322E-07 -1
vn 1.1920929E-07 -2.9802322E-07 -1
vn 1.1920929E-07 -2.9802322E-07 -1
vn 1.1920929E-07 -2.9802322E-07 -1
vn 1.1920929E-07 -2.9802322E-07 -1
vn 1.1920929E-07 -2.9802322E-07 -1
vn 1.1920929E-07 -2.9802322E-07 -1
vn 1.1920929E-07 -2.9802322E-07 -1
vn 1.1920929E-07 -2.9802322E-07 -1
vn 1.1920929E-07 -2.9802322E-07 -1
vn 1.1920929E-07 -2.9802322E-07 -1
vn 1.1920929E-07 -2.9802322E-07 -1
vn 1.1920929E-07 -2.9802322E-07 -1
vn 1.1920929E-07 -2.9802322E-07 -1
vn 1.1920929E-07 -2.9802322E-07 -1
vn 1.1920929E-07 -2.9802322E-07 -1
vn 1.1920929E-07 -2.9802322E-07 -1
vn 1.1920929E-07 -2.9802322E-07 -1
vn 1.1920929E-07 -2.9802322E-07 -1
vn 1.1920929E-07 -2.9802322E-07 -1
vn -0 -2.3841858E-07 -1
vn -0 -2.3841858E-07 -1
vn -0 -2.3841858E-07 -1
vn -0 -2.3841858E-07 -1
vn -0 -2.3841858E-07 -1
vn -0 -2.3841858E-07 -1
vn -0 -2.3841858E-07 -1
vn -0 -2.3841858E-07 -1
vn -0 -2.3841858E-07 -1
vn -0 -2.3841858E-07 -1
vn -0 -2.3841858E-07 -1
vn -0 -2.3841858E-07 -1
vn -0 -2.3841858E-07 -1
vn -0 -2.3841858E-07 -1
vn -0 -2.3841858E-07 -1
vn -0 -2.3841858E-07 -1
vn -0 -2.3841858E-07 -1
vn -0 -2.3841858E-07 -1
g DecalMesh_MetroArea_Decal_Graffiti_23__26_0
f 3/3/3 2/2/2 1/1/1
f 6/6/6 5/5/5 4/4/4
f 9/9/9 8/8/8 7/7/7
f 12/12/12 11/11/11 10/10/10
f 15/15/15 14/14/14 13/13/13
f 18/18/18 17/17/17 16/16/16
f 21/21/21 20/20/20 19/19/19
f 24/24/24 23/23/23 22/22/22
f 27/27/27 26/26/26 25/25/25
f 30/30/30 29/29/29 28/28/28
f 33/33/33 32/32/32 31/31/31
f 36/36/36 35/35/35 34/34/34
f 39/39/39 38/38/38 37/37/37
f 42/42/42 41/41/41 40/40/40
f 45/45/45 44/44/44 43/43/43
f 48/48/48 47/47/47 46/46/46
f 51/51/51 50/50/50 49/49/49
f 54/54/54 53/53/53 52/52/52
f 57/57/57 56/56/56 55/55/55
