g DecalMesh_MetroArea_Decal_Ground_18__22
v 0.987304 0.0061342474 -0.037425045
v 1 0.006142986 -0.03742502
v 0.99466395 0.009926368 -0.052427914
v 0.987304 0.0061342474 -0.037425045
v 0.99466395 0.009926368 -0.052427914
v 0.99156016 0.009924229 -0.052427914
v 1 0.006142986 -0.03742502
v 1 0.0099300435 -0.052427914
v 0.99466395 0.009926368 -0.052427914
v 0.98772836 0.50421983 -0.03742498
v 0.99198455 0.5005292 -0.052427914
v 0.9971284 0.5005636 -0.052427918
v 1 0.50430185 -0.03742503
v 0.98772836 0.50421983 -0.03742498
v 0.9971284 0.5005636 -0.052427918
v 1 0.50430185 -0.03742503
v 0.9971284 0.5005636 -0.052427918
v 1 0.5005828 -0.052427918
v 0.987304 0.0061342474 -0.037425045
v 1 -0.006835416 -0.037425097
v 1 0.006142986 -0.03742502
v 1 -0.57714134 -0.03742702
v 0.987304 0.0061342474 -0.037425045
v -1 -0.794618 -0.037426654
v 1 -0.57714134 -0.03742702
v -1 -0.794618 -0.037426654
v -1 -0.9143219 -0.037427057
v 0.987304 0.0061342474 -0.037425045
v 1 -0.57714134 -0.03742702
v 1 -0.0068354057 -0.037425097
v 0.987304 0.0061342474 -0.037425045
v -1 -0.39379352 -0.03742509
v -1 -0.79461807 -0.037426654
v 0.987304 0.0061342474 -0.037425045
v -0.99999994 -0.3258271 -0.03742635
v -1 -0.39379352 -0.03742509
v 0.987304 0.0061342474 -0.037425045
v -1 0.89068484 -0.037426203
v -0.99999994 -0.3258271 -0.03742635
v 0.987304 0.0061342474 -0.037425045
v 0.98772836 0.50421983 -0.03742498
v -0.50442827 1.003 -0.037425872
v 0.987304 0.0061342474 -0.037425045
v -0.50442827 1.003 -0.037425872
v -1 1.003 -0.03742619
v 0.987304 0.0061342474 -0.037425045
v -1 1.003 -0.03742619
v -1 0.8906848 -0.037426203
v 0.98772836 0.50421983 -0.03742498
v 1 0.50430185 -0.03742503
v 1 0.52913725 -0.037425026
v 0.98772836 0.50421983 -0.03742498
v 1 0.52913725 -0.037425026
v -0.44544977 1.003 -0.037425872
v 0.98772836 0.50421983 -0.03742498
v -0.44544977 1.003 -0.037425872
v -0.50442827 1.003 -0.037425872
v 1 0.52913725 -0.037425026
v 1 1.003 -0.0374259
v -0.44544977 1.003 -0.037425872
v 1 -0.8562715 -0.037427053
v -1 -0.97110885 -0.037427064
v -0.98746186 -0.997 -0.037427068
v 1 -0.8562715 -0.037427053
v -0.98746186 -0.997 -0.037427068
v 0.81263506 -0.997 -0.037427068
v -1 -0.97110885 -0.037427064
v -1 -0.997 -0.037427068
v -0.9874619 -0.997 -0.037427068
v 1 -0.8562715 -0.037427053
v 1 -0.57714134 -0.03742702
v -1 -0.9143219 -0.037427057
v 1 -0.8562715 -0.037427053
v -1 -0.9143219 -0.037427057
v -1 -0.97110885 -0.037427064
v 1 -0.98008025 -0.037427053
v 0.97470725 -0.997 -0.037427057
v 0.9832389 -0.997 -0.037427053
v 1 -0.98008025 -0.037427053
v 1 -0.8562715 -0.037427053
v 0.81263506 -0.997 -0.037427068
v 1 -0.98008025 -0.037427053
v 0.81263506 -0.997 -0.037427068
v 0.9747073 -0.997 -0.037427057
v 0.99999994 -0.98008025 -0.037427053
v 0.9832388 -0.997 -0.037427053
v 0.99999994 -0.997 -0.037427057
v 0.987304 0.0061342474 -0.037425045
v 0.99156016 0.009924229 -0.052427914
v 0.9918808 0.3787635 -0.052427914
v 0.98772836 0.50421983 -0.03742498
v 0.987304 0.0061342474 -0.037425045
v 0.9918808 0.3787635 -0.052427914
v 0.98772836 0.50421983 -0.03742498
v 0.9918808 0.3787635 -0.052427914
v 0.99198455 0.5005292 -0.052427914
vt 0.14025879 0.34301758
vt 0.1394043 0.34301758
vt 0.13977051 0.34326172
vt 0.14025879 0.34301758
vt 0.13977051 0.34326172
vt 0.14001465 0.34326172
vt 0.1394043 0.34301758
vt 0.1394043 0.34326172
vt 0.13977051 0.34326172
vt 0.14025879 0.37719727
vt 0.14001465 0.37695312
vt 0.13964844 0.37695312
vt 0.1394043 0.37719727
vt 0.14025879 0.37719727
vt 0.13964844 0.37695312
vt 0.1394043 0.37719727
vt 0.13964844 0.37695312
vt 0.1394043 0.37695312
vt 0.14025879 0.34301758
vt 0.1394043 0.34204102
vt 0.1394043 0.34301758
vt 0.1394043 0.30322266
vt 0.14025879 0.34301758
vt 0.28076172 0.28833008
vt 0.1394043 0.30322266
vt 0.28076172 0.28833008
vt 0.28076172 0.2800293
vt 0.14025879 0.34301758
vt 0.1394043 0.30322266
vt 0.1394043 0.34204102
vt 0.14025879 0.34301758
vt 0.28076172 0.31567383
vt 0.28076172 0.28833008
vt 0.14025879 0.34301758
vt 0.28076172 0.3203125
vt 0.28076172 0.31567383
vt 0.14025879 0.34301758
vt 0.28076172 0.40356445
vt 0.28076172 0.3203125
vt 0.14025879 0.34301758
vt 0.14025879 0.37719727
vt 0.24584961 0.4111328
vt 0.14025879 0.34301758
vt 0.24584961 0.4111328
vt 0.28076172 0.4111328
vt 0.14025879 0.34301758
vt 0.28076172 0.4111328
vt 0.28076172 0.40356445
vt 0.14025879 0.37719727
vt 0.1394043 0.37719727
vt 0.1394043 0.37890625
vt 0.14025879 0.37719727
vt 0.1394043 0.37890625
vt 0.24157715 0.4111328
vt 0.14025879 0.37719727
vt 0.24157715 0.4111328
vt 0.24584961 0.4111328
vt 0.1394043 0.37890625
vt 0.1394043 0.4111328
vt 0.24157715 0.4111328
vt 0.1394043 0.28393555
vt 0.28076172 0.27612305
vt 0.2800293 0.27441406
vt 0.1394043 0.28393555
vt 0.2800293 0.27441406
vt 0.15270996 0.27441406
vt 0.28076172 0.27612305
vt 0.28076172 0.27441406
vt 0.2800293 0.27441406
vt 0.1394043 0.28393555
vt 0.1394043 0.30322266
vt 0.28076172 0.2800293
vt 0.1394043 0.28393555
vt 0.28076172 0.2800293
vt 0.28076172 0.27612305
vt 0.1394043 0.27563477
vt 0.14123535 0.27441406
vt 0.140625 0.27441406
vt 0.1394043 0.27563477
vt 0.1394043 0.28393555
vt 0.15270996 0.27441406
vt 0.1394043 0.27563477
vt 0.15270996 0.27441406
vt 0.14123535 0.27441406
vt 0.1394043 0.27563477
vt 0.140625 0.27441406
vt 0.1394043 0.27441406
vt 0.14025879 0.34301758
vt 0.14001465 0.34326172
vt 0.14001465 0.3684082
vt 0.14025879 0.37719727
vt 0.14025879 0.34301758
vt 0.14001465 0.3684082
vt 0.14025879 0.37719727
vt 0.14001465 0.3684082
vt 0.14001465 0.37695312
vn 0.0006670952 -0.96972656 -0.24475098
vn 0.0006670952 -0.96972656 -0.24475098
vn 0.0006670952 -0.96972656 -0.24475098
vn 0.0006670952 -0.96972656 -0.24475098
vn 0.0006670952 -0.96972656 -0.24475098
vn 0.0006670952 -0.96972656 -0.24475098
vn 0.0006670952 -0.96972656 -0.24475098
vn 0.0006670952 -0.96972656 -0.24475098
vn 0.0006670952 -0.96972656 -0.24475098
vn -0.0064849854 0.9707031 -0.24060059
vn -0.0064849854 0.9707031 -0.24060059
vn -0.0064849854 0.9707031 -0.24060059
vn -0.0064849854 0.9707031 -0.24060059
vn -0.0064849854 0.9707031 -0.24060059
vn -0.0064849854 0.9707031 -0.24060059
vn -0.0064849854 0.9707031 -0.24060059
vn -0.0064849854 0.9707031 -0.24060059
vn -0.0064849854 0.9707031 -0.24060059
vn 2.3841858E-07 5.364418E-07 -1
vn 2.3841858E-07 5.364418E-07 -1
vn 0.00046396255 2.6226044E-06 -1
vn 5.9604645E-08 2.9802322E-07 -1
vn 2.3841858E-07 5.364418E-07 -1
vn 2.3841858E-07 7.1525574E-07 -1
vn 5.9604645E-08 2.9802322E-07 -1
vn 2.3841858E-07 7.1525574E-07 -1
vn 2.3841858E-07 6.556511E-07 -1
vn 2.3841858E-07 5.364418E-07 -1
vn 5.9604645E-08 2.9802322E-07 -1
vn 2.3841858E-07 5.364418E-07 -1
vn 2.3841858E-07 5.364418E-07 -1
vn -1.5497208E-06 -0.0030574799 -1
vn 2.3841858E-07 7.1525574E-07 -1
vn 2.3841858E-07 5.364418E-07 -1
vn 1.847744E-06 -0.00046348572 -1
vn -1.5497208E-06 -0.0030574799 -1
vn 2.3841858E-07 5.364418E-07 -1
vn 2.3841858E-07 1.1920929E-07 -1
vn 1.847744E-06 -0.00046348572 -1
vn 2.3841858E-07 5.364418E-07 -1
vn 1.1920929E-07 -9.536743E-07 -1
vn 1.7881393E-07 -7.748604E-07 -1
vn 2.3841858E-07 5.364418E-07 -1
vn 1.7881393E-07 -7.748604E-07 -1
vn 2.3841858E-07 -1.7881393E-07 -1
vn 2.3841858E-07 5.364418E-07 -1
vn 2.3841858E-07 -1.7881393E-07 -1
vn 2.3841858E-07 1.1920929E-07 -1
vn 1.1920929E-07 -9.536743E-07 -1
vn 0.00025558472 1.4901161E-06 -1
vn 1.1920929E-07 -9.536743E-07 -1
vn 1.1920929E-07 -9.536743E-07 -1
vn 1.1920929E-07 -9.536743E-07 -1
vn 1.7881393E-07 -7.748604E-07 -1
vn 1.1920929E-07 -9.536743E-07 -1
vn 1.7881393E-07 -7.748604E-07 -1
vn 1.7881393E-07 -7.748604E-07 -1
vn 1.1920929E-07 -9.536743E-07 -1
vn 1.7881393E-07 -6.556511E-07 -1
vn 1.7881393E-07 -7.748604E-07 -1
vn -0 1.7881393E-07 -1
vn 1.7881393E-07 6.556511E-07 -1
vn 1.7881393E-07 6.556511E-07 -1
vn -0 1.7881393E-07 -1
vn 1.7881393E-07 6.556511E-07 -1
vn -0 1.1920929E-07 -1
vn 1.7881393E-07 6.556511E-07 -1
vn 1.7881393E-07 6.556511E-07 -1
vn 1.7881393E-07 6.556511E-07 -1
vn -0 1.7881393E-07 -1
vn 5.9604645E-08 2.9802322E-07 -1
vn 2.3841858E-07 6.556511E-07 -1
vn -0 1.7881393E-07 -1
vn 2.3841858E-07 6.556511E-07 -1
vn 1.7881393E-07 6.556511E-07 -1
vn -0 -0.0002632141 -1
vn -0 -0.00025868416 -1
vn -0 -0.00027227402 -1
vn -0 -0.0002632141 -1
vn -0 1.7881393E-07 -1
vn -0 1.1920929E-07 -1
vn -0 -0.0002632141 -1
vn -0 1.1920929E-07 -1
vn -0 -0.00025868416 -1
vn -0 -0.0002632141 -1
vn -0 -0.00027227402 -1
vn -0 -0.00026512146 -1
vn -0.96191406 0.0008368492 -0.27270508
vn -0.96191406 0.0008368492 -0.27270508
vn -0.96191406 0.00082445145 -0.27294922
vn -0.96191406 0.00082063675 -0.27319336
vn -0.96191406 0.0008368492 -0.27270508
vn -0.96191406 0.00082445145 -0.27294922
vn -0.96191406 0.00082063675 -0.27319336
vn -0.96191406 0.00082445145 -0.27294922
vn -0.96191406 0.00082063675 -0.27319336
g DecalMesh_MetroArea_Decal_Ground_18__22_0
f 3/3/3 2/2/2 1/1/1
f 6/6/6 5/5/5 4/4/4
f 9/9/9 8/8/8 7/7/7
f 12/12/12 11/11/11 10/10/10
f 15/15/15 14/14/14 13/13/13
f 18/18/18 17/17/17 16/16/16
f 21/21/21 20/20/20 19/19/19
f 24/24/24 23/23/23 22/22/22
f 27/27/27 26/26/26 25/25/25
f 30/30/30 29/29/29 28/28/28
f 33/33/33 32/32/32 31/31/31
f 36/36/36 35/35/35 34/34/34
f 39/39/39 38/38/38 37/37/37
f 42/42/42 41/41/41 40/40/40
f 45/45/45 44/44/44 43/43/43
f 48/48/48 47/47/47 46/46/46
f 51/51/51 50/50/50 49/49/49
f 54/54/54 53/53/53 52/52/52
f 57/57/57 56/56/56 55/55/55
f 60/60/60 59/59/59 58/58/58
f 63/63/63 62/62/62 61/61/61
f 66/66/66 65/65/65 64/64/64
f 69/69/69 68/68/68 67/67/67
f 72/72/72 71/71/71 70/70/70
f 75/75/75 74/74/74 73/73/73
f 78/78/78 77/77/77 76/76/76
f 81/81/81 80/80/80 79/79/79
f 84/84/84 83/83/83 82/82/82
f 87/87/87 86/86/86 85/85/85
f 90/90/90 89/89/89 88/88/88
f 93/93/93 92/92/92 91/91/91
f 96/96/96 95/95/95 94/94/94
