g DecalMesh_Common_Decal_Crack_01__72
v 0.6978806 -0.9931411 -0.3370018
v 0.69783485 -0.9931411 -0.35246658
v 0.70100564 -0.9931411 -0.35244524
v 0.6978806 -0.9931411 -0.3370018
v 0.70100564 -0.9931411 -0.35244524
v 0.7010056 -0.9931411 -0.3370018
v 0.6978806 -0.9931411 -0.3370018
v 0.2566667 -1.4730451 -0.3370018
v 0.69787276 -1.4730451 -0.3370018
v 0.6978806 -0.9931411 -0.3370018
v -0.7010055 -0.99314505 -0.3370018
v -0.7010055 -1.4730451 -0.3370018
v 0.6978806 -0.9931411 -0.3370018
v -0.7010055 -1.4730451 -0.3370018
v 0.2566666 -1.4730451 -0.3370018
v 0.6978806 -0.9931411 -0.3370018
v 0.7010056 -0.9897417 -0.3370018
v 0.69800645 1.4730451 -0.3370018
v 0.6978806 -0.9931411 -0.3370018
v 0.69800645 1.4730451 -0.3370018
v 0.69796413 1.4730451 -0.3370018
v 0.7010056 -0.9897417 -0.3370018
v 0.7010056 1.4730451 -0.3370018
v 0.69800645 1.4730451 -0.3370018
v 0.6978806 -0.9931411 -0.3370018
v 0.7010056 -0.9931411 -0.3370018
v 0.7010056 -0.9897417 -0.3370018
v 0.69783485 -0.9931411 -0.35246658
v 0.69783616 -1.4730451 -0.35190785
v 0.69844437 -1.4730451 -0.35190377
v 0.70100564 -0.9931411 -0.35244524
v 0.69783485 -0.9931411 -0.35246658
v 0.69844437 -1.4730451 -0.35190377
v 0.70100564 -0.9931411 -0.35244524
v 0.69844437 -1.4730451 -0.35190377
v 0.70100564 -1.4730451 -0.35188654
v 0.6979722 -0.9931411 -0.35246658
v 0.6979654 1.4730451 -0.33721098
v -0.7010056 -0.028277125 -0.3568668
v 0.6979722 -0.9931411 -0.35246658
v -0.7010056 -0.028277125 -0.3568668
v -0.7010056 -0.99314505 -0.3628354
v 0.6979654 1.4730451 -0.33721098
v 0.66688293 1.4730451 -0.33744135
v -0.7010056 -0.015047878 -0.35678497
v 0.6979654 1.4730451 -0.33721098
v -0.7010056 -0.015047878 -0.35678497
v -0.7010056 -0.028277125 -0.3568668
v 0.666883 1.4730452 -0.33744135
v -0.70100564 1.4730451 -0.3374413
v -0.7010056 -0.015047831 -0.35678497
vt 0.33032227 0.027893066
vt 0.33032227 0.027893066
vt 0.33007812 0.027893066
vt 0.33032227 0.027893066
vt 0.33007812 0.027893066
vt 0.33007812 0.027893066
vt 0.33032227 0.027893066
vt 0.36889648 -0.0141067505
vt 0.33032227 -0.0141067505
vt 0.33032227 0.027893066
vt 0.45263672 0.027893066
vt 0.45263672 -0.0141067505
vt 0.33032227 0.027893066
vt 0.45263672 -0.0141067505
vt 0.36889648 -0.0141067505
vt 0.33032227 0.027893066
vt 0.33007812 0.028182983
vt 0.33032227 0.24365234
vt 0.33032227 0.027893066
vt 0.33032227 0.24365234
vt 0.33032227 0.24365234
vt 0.33007812 0.028182983
vt 0.33007812 0.24365234
vt 0.33032227 0.24365234
vt 0.33032227 0.027893066
vt 0.33007812 0.027893066
vt 0.33007812 0.028182983
vt 0.33032227 0.027893066
vt 0.33032227 -0.0141067505
vt 0.33032227 -0.0141067505
vt 0.33007812 0.027893066
vt 0.33032227 0.027893066
vt 0.33032227 -0.0141067505
vt 0.33007812 0.027893066
vt 0.33032227 -0.0141067505
vt 0.33007812 -0.0141067505
vt 0.33032227 0.027893066
vt 0.33032227 0.24365234
vt 0.45263672 0.11230469
vt 0.33032227 0.027893066
vt 0.45263672 0.11230469
vt 0.45263672 0.027893066
vt 0.33032227 0.24365234
vt 0.3330078 0.24365234
vt 0.45263672 0.113464355
vt 0.33032227 0.24365234
vt 0.45263672 0.113464355
vt 0.45263672 0.11230469
vt 0.3330078 0.24365234
vt 0.45263672 0.24365234
vt 0.45263672 0.113464355
vn -2.9802322E-06 1 -0
vn -2.9802322E-06 1 -0
vn -2.9802322E-06 1 -0
vn -2.9802322E-06 1 -0
vn -2.9802322E-06 1 -0
vn -2.9802322E-06 1 -0
vn 5.9604645E-08 0 -1
vn -0.00031900406 5.2332878E-05 -1
vn 5.9604645E-08 0 -1
vn 5.9604645E-08 0 -1
vn 5.9604645E-08 0 -1
vn -0.00031900406 5.2332878E-05 -1
vn 5.9604645E-08 0 -1
vn -0.00031900406 5.2332878E-05 -1
vn -0.00031900406 5.2332878E-05 -1
vn 1.7881393E-07 0 -1
vn 1.7881393E-07 0 -1
vn 1.7881393E-07 0 -1
vn 1.7881393E-07 0 -1
vn 1.7881393E-07 0 -1
vn 1.7881393E-07 0 -1
vn 1.7881393E-07 0 -1
vn 1.7881393E-07 0 -1
vn 1.7881393E-07 0 -1
vn 1.7881393E-07 0 -1
vn 2.2649765E-06 -1.7881393E-07 -1
vn 1.7881393E-07 0 -1
vn 0.006095886 -0.00058221817 -1
vn 0.006095886 -0.00058221817 -1
vn 0.006095886 -0.00058221817 -1
vn 0.006088257 -0.00058174133 -1
vn 0.006095886 -0.00058221817 -1
vn 0.006095886 -0.00058221817 -1
vn 0.006088257 -0.00058174133 -1
vn 0.006095886 -0.00058221817 -1
vn 0.006088257 -0.00058174133 -1
vn 0.0037059784 0.009590149 -1
vn 0.0037059784 0.009590149 -1
vn 0.0037059784 0.009590149 -1
vn 0.0037059784 0.009590149 -1
vn 0.0037059784 0.009590149 -1
vn 0.0037059784 0.009590149 -1
vn 0.0037059784 0.009590149 -1
vn 0.0037059784 0.009590149 -1
vn 0.0037059784 0.009590149 -1
vn 0.0037059784 0.009590149 -1
vn 0.0037059784 0.009590149 -1
vn 0.0037059784 0.009590149 -1
vn 0.0037059784 0.009590149 -1
vn 0.0037059784 0.009590149 -1
vn 0.0037059784 0.009590149 -1
g DecalMesh_Common_Decal_Crack_01__72_0
f 3/3/3 2/2/2 1/1/1
f 6/6/6 5/5/5 4/4/4
f 9/9/9 8/8/8 7/7/7
f 12/12/12 11/11/11 10/10/10
f 15/15/15 14/14/14 13/13/13
f 18/18/18 17/17/17 16/16/16
f 21/21/21 20/20/20 19/19/19
f 24/24/24 23/23/23 22/22/22
f 27/27/27 26/26/26 25/25/25
f 30/30/30 29/29/29 28/28/28
f 33/33/33 32/32/32 31/31/31
f 36/36/36 35/35/35 34/34/34
f 39/39/39 38/38/38 37/37/37
f 42/42/42 41/41/41 40/40/40
f 45/45/45 44/44/44 43/43/43
f 48/48/48 47/47/47 46/46/46
f 51/51/51 50/50/50 49/49/49
