g DecalMesh_MetroArea_Decal_Crack_01_(10)__156
v 4.2993913 0.7107287 0.092931904
v -4.299394 0.71072876 0.09293622
v -4.1418386 -0.7047305 0.0929358
v 4.2993913 0.7107287 0.092931904
v -4.1418386 -0.7047305 0.0929358
v 4.2993913 -0.7047306 0.09293157
v -4.299394 0.71072876 0.09293622
v -4.299394 -0.70473146 0.09293588
v -4.1418386 -0.7047315 0.0929358
v 4.299396 0.057290178 -0.032672808
v 3.2282996 -0.7047316 -0.033414204
v 4.299396 -0.7047315 -0.03286933
v 4.299396 0.057290178 -0.032672808
v 1.4519631 -0.7047316 -0.034318015
v 3.2282996 -0.7047316 -0.033414204
v 4.299396 0.057290178 -0.032672808
v 4.299396 0.7107316 -0.03250438
v -0.48928607 -0.70473164 -0.035305735
v 4.299396 0.057290178 -0.032672808
v -0.48928607 -0.70473164 -0.035305735
v 0.82923883 -0.70473164 -0.034634862
v 4.299396 0.057290178 -0.032672808
v 0.8292391 -0.7047316 -0.034634862
v 1.4519631 -0.7047316 -0.034318015
v 4.299396 0.7107316 -0.03250438
v -3.165217 0.7107314 -0.03630243
v -4.299395 0.21808901 -0.037006486
v 4.299396 0.7107316 -0.03250438
v -4.299395 0.21808901 -0.037006486
v -4.299395 -0.7047316 -0.037244346
v 4.299396 0.7107316 -0.03250438
v -4.299395 -0.7047316 -0.037244346
v -0.48928607 -0.70473164 -0.035305735
v -3.165217 0.7107314 -0.03630243
v -4.2993956 0.7107314 -0.036879465
v -4.2993956 0.21808887 -0.037006486
vt 0.037628174 0.9633789
vt 0.48754883 0.9633789
vt 0.4794922 0.79785156
vt 0.037628174 0.9633789
vt 0.4794922 0.79785156
vt 0.037628174 0.79785156
vt 0.48754883 0.9633789
vt 0.48754883 0.79785156
vt 0.4794922 0.79785156
vt 0.037628174 0.88671875
vt 0.093688965 0.79785156
vt 0.037628174 0.79785156
vt 0.037628174 0.88671875
vt 0.18664551 0.79785156
vt 0.093688965 0.79785156
vt 0.037628174 0.88671875
vt 0.037628174 0.9633789
vt 0.28833008 0.79785156
vt 0.037628174 0.88671875
vt 0.28833008 0.79785156
vt 0.21923828 0.79785156
vt 0.037628174 0.88671875
vt 0.21923828 0.79785156
vt 0.18664551 0.79785156
vt 0.037628174 0.9633789
vt 0.42822266 0.9633789
vt 0.48754883 0.9057617
vt 0.037628174 0.9633789
vt 0.48754883 0.9057617
vt 0.48754883 0.79785156
vt 0.037628174 0.9633789
vt 0.48754883 0.79785156
vt 0.28833008 0.79785156
vt 0.42822266 0.9633789
vt 0.48754883 0.9633789
vt 0.48754883 0.9057617
vn 0.00018775463 -0.0002696514 -1
vn 0.00016617775 -0.000238657 -1
vn 0.00016319752 -0.00023436546 -1
vn 0.00018775463 -0.0002696514 -1
vn 0.00016319752 -0.00023436546 -1
vn 0.00018429756 -0.00026464462 -1
vn 0.00016617775 -0.000238657 -1
vn 0.00016272068 -0.00023376942 -1
vn 0.00016319752 -0.00023436546 -1
vn 0.009414673 0.008026123 -1
vn 0.010093689 0.008621216 -1
vn 0.009231567 0.008094788 -1
vn 0.009414673 0.008026123 -1
vn 0.011993408 0.009170532 -1
vn 0.010093689 0.008621216 -1
vn 0.009414673 0.008026123 -1
vn 0.009819031 0.0078048706 -1
vn 0.0140686035 0.009773254 -0.9995117
vn 0.009414673 0.008026123 -1
vn 0.0140686035 0.009773254 -0.9995117
vn 0.0126571655 0.009361267 -1
vn 0.009414673 0.008026123 -1
vn 0.0126571655 0.009361267 -1
vn 0.011993408 0.009170532 -1
vn 0.009819031 0.0078048706 -1
vn 0.017807007 0.010124207 -0.9995117
vn 0.018722534 0.010643005 -0.9995117
vn 0.009819031 0.0078048706 -1
vn 0.018722534 0.010643005 -0.9995117
vn 0.018157959 0.010955811 -0.9995117
vn 0.009819031 0.0078048706 -1
vn 0.018157959 0.010955811 -0.9995117
vn 0.0140686035 0.009773254 -0.9995117
vn 0.017807007 0.010124207 -0.9995117
vn 0.019195557 0.010169983 -0.9995117
vn 0.018722534 0.010643005 -0.9995117
g DecalMesh_MetroArea_Decal_Crack_01_(10)__156_0
f 3/3/3 2/2/2 1/1/1
f 6/6/6 5/5/5 4/4/4
f 9/9/9 8/8/8 7/7/7
f 12/12/12 11/11/11 10/10/10
f 15/15/15 14/14/14 13/13/13
f 18/18/18 17/17/17 16/16/16
f 21/21/21 20/20/20 19/19/19
f 24/24/24 23/23/23 22/22/22
f 27/27/27 26/26/26 25/25/25
f 30/30/30 29/29/29 28/28/28
f 33/33/33 32/32/32 31/31/31
f 36/36/36 35/35/35 34/34/34
