g DecalMesh_Common_Decal_Sign_16__39
v -0.13834712 0.2183993 -0.26998898
v -0.16438395 -0.2183993 -0.2699906
v -0.06968667 -0.21839932 -0.26999113
v -0.13834712 0.2183993 -0.26998898
v -0.17994577 0.2183993 -0.26998875
v -0.17994577 -0.21839932 -0.2699905
v -0.13834712 0.2183993 -0.26998898
v -0.17994577 -0.21839932 -0.2699905
v -0.16438395 -0.21839932 -0.2699906
v 0.17994581 0.2183993 -0.26999077
v -0.13834712 0.2183993 -0.26998898
v -0.06968667 -0.21839932 -0.26999113
v 0.17994581 0.2183993 -0.26999077
v -0.06968667 -0.21839932 -0.26999113
v 0.1799458 -0.21839932 -0.26999253
vt -0.01260376 0.9121094
vt -0.009811401 0.86572266
vt -0.019958496 0.86572266
vt -0.01260376 0.9121094
vt -0.008148193 0.9121094
vt -0.008148193 0.86572266
vt -0.01260376 0.9121094
vt -0.008148193 0.86572266
vt -0.009811401 0.86572266
vt -0.046691895 0.9121094
vt -0.01260376 0.9121094
vt -0.019958496 0.86572266
vt -0.046691895 0.9121094
vt -0.019958496 0.86572266
vt -0.046691895 0.86572266
vn -5.90086E-06 4.172325E-06 -1
vn -5.90086E-06 4.172325E-06 -1
vn -5.90086E-06 4.172325E-06 -1
vn -5.90086E-06 4.172325E-06 -1
vn -5.90086E-06 4.172325E-06 -1
vn -5.90086E-06 4.172325E-06 -1
vn -5.90086E-06 4.172325E-06 -1
vn -5.90086E-06 4.172325E-06 -1
vn -5.90086E-06 4.172325E-06 -1
vn -5.90086E-06 4.172325E-06 -1
vn -5.90086E-06 4.172325E-06 -1
vn -5.90086E-06 4.172325E-06 -1
vn -5.90086E-06 4.172325E-06 -1
vn -5.90086E-06 4.172325E-06 -1
vn -5.90086E-06 4.172325E-06 -1
g DecalMesh_Common_Decal_Sign_16__39_0
f 3/3/3 2/2/2 1/1/1
f 6/6/6 5/5/5 4/4/4
f 9/9/9 8/8/8 7/7/7
f 12/12/12 11/11/11 10/10/10
f 15/15/15 14/14/14 13/13/13
