g DecalMesh_Common_Decal_Sign_06__3
v -0.22232898 0.15851958 0.06425151
v -0.2476122 0.15923917 0.059060007
v -0.25380087 0.07120611 0.0854979
v -0.22232898 0.15851958 0.06425151
v -0.25380087 0.07120611 0.0854979
v -0.25380087 0.02503935 0.099999994
v -0.22232898 0.15851958 0.06425151
v -0.25380087 0.02503935 0.099999994
v -0.23309998 0.03798177 0.099999994
v -0.2476122 0.15923917 0.059060007
v -0.25380087 0.08998188 0.07959998
v -0.25380087 0.07120611 0.0854979
v -0.22232898 0.15851958 0.06425151
v -0.23309998 0.03798177 0.099999994
v -0.23336685 0.028605144 0.1
v -0.21718544 0.15029271 0.03806164
v -0.22232898 0.15851958 0.06425151
v -0.23336685 0.028605144 0.1
v -0.21718544 0.15029271 0.03806164
v -0.23336685 0.028605144 0.1
v -0.23488706 -0.024808561 0.1
v -0.21718544 0.15029271 0.03806164
v -0.23488706 -0.024808573 0.1
v -0.23584744 -0.0585529 0.099999994
v -0.13198456 0.1559483 0.082802325
v -0.13716622 0.09796065 0.1
v -0.13601026 0.09868337 0.1
v -0.10670136 0.15522872 0.087993845
v -0.13198456 0.1559483 0.082802325
v -0.13601026 0.098683365 0.1
v -0.10670136 0.15522872 0.087993845
v -0.13601026 0.098683365 0.1
v -0.11171986 0.11387004 0.1
v -0.10670136 0.15522872 0.087993845
v -0.11171986 0.11387004 0.1
v -0.11031881 0.114746 0.1
v -0.21718544 0.15029271 0.03806164
v -0.23584744 -0.0585529 0.099999994
v -0.23227617 -0.056320842 0.1
v -0.21718544 0.15029271 0.03806164
v -0.23227617 -0.056320842 0.1
v -0.22145236 -0.049555875 0.1
v -0.12683998 0.14771974 0.056607094
v -0.21718544 0.15029271 0.03806164
v -0.22145236 -0.049555875 0.1
v -0.12683998 0.14771974 0.056607094
v -0.22145236 -0.049555875 0.1
v -0.15955417 -0.010868915 0.099999994
v -0.12683998 0.14771974 0.056607094
v -0.15955417 -0.010868929 0.1
v -0.13991426 0.0014062072 0.1
v -0.2476122 0.15923917 0.059060007
v -0.25380087 0.16913772 0.090571575
v -0.25380087 0.08998188 0.07959998
v -0.10670136 0.15522872 0.087993845
v -0.1090593 0.15900014 0.1
v -0.112145044 0.15927587 0.1
v -0.13198456 0.1559483 0.082802325
v -0.10670136 0.15522872 0.087993845
v -0.112145044 0.15927587 0.1
v -0.13198456 0.1559483 0.082802325
v -0.112145044 0.15927587 0.1
v -0.13536209 0.1613505 0.1
v -0.13198456 0.1559483 0.082802325
v -0.13536209 0.1613505 0.1
v -0.15352744 0.16297372 0.1
v -0.22232898 0.15851958 0.06425151
v -0.13198456 0.1559483 0.082802325
v -0.15352744 0.16297372 0.1
v -0.22232898 0.15851958 0.06425151
v -0.15352744 0.16297372 0.1
v -0.22934976 0.16974905 0.1
v -0.22232898 0.15851958 0.06425151
v -0.22934976 0.16974905 0.1
v -0.23300269 0.17007546 0.1
v -0.22232898 0.15851958 0.06425151
v -0.23300269 0.17007546 0.1
v -0.23853761 0.17057006 0.1
v -0.2476122 0.15923917 0.059060007
v -0.22232898 0.15851958 0.06425151
v -0.23853761 0.17057006 0.1
v -0.2476122 0.15923917 0.059060007
v -0.23853761 0.17057006 0.1
v -0.25100833 0.17168441 0.1
v -0.25380087 0.16913772 0.090571575
v -0.2476122 0.15923917 0.059060007
v -0.25100833 0.17168441 0.1
v -0.25380087 0.16913772 0.090571575
v -0.25100833 0.17168441 0.1
v -0.25380087 0.17193395 0.1
v -0.21718544 0.15029271 0.03806164
v -0.13198456 0.1559483 0.082802325
v -0.22232898 0.15851958 0.06425151
v -0.21718544 0.15029271 0.03806164
v -0.12683998 0.14771974 0.056607094
v -0.13198456 0.1559483 0.082802325
v -0.018339865 0.34110925 -0.050442923
v 0.06552279 -0.34110922 -0.0006662487
v 0.14901379 -0.3411093 0.0007018212
v -0.018339865 0.34110925 -0.050442923
v -0.09454803 0.34110934 -0.05169166
v 0.01650021 -0.34110922 -0.0014695214
v -0.018339865 0.34110925 -0.050442923
v 0.01650021 -0.34110922 -0.0014695214
v 0.06552279 -0.34110928 -0.00066624454
v 0.25380087 0.34110934 -0.045983694
v -0.018339865 0.34110925 -0.050442923
v 0.14901379 -0.34110928 0.00070181873
v 0.25380087 0.34110934 -0.045983694
v 0.14901379 -0.34110928 0.00070181873
v 0.25380087 -0.34110928 0.0024188354
v -0.09454803 0.34110934 -0.05169166
v -0.19580539 -0.34110925 -0.004948318
v 0.01650021 -0.34110922 -0.0014695214
v -0.09454803 0.34110934 -0.05169166
v -0.25380087 0.3411093 -0.054301143
v -0.25380087 -0.34110928 -0.00589862
v -0.09454803 0.34110934 -0.05169166
v -0.25380087 -0.34110928 -0.00589862
v -0.19580539 -0.34110928 -0.0049483157
vt -0.59277344 0.921875
vt -0.58984375 0.921875
vt -0.58935547 0.9121094
vt -0.59277344 0.921875
vt -0.58935547 0.9121094
vt -0.58935547 0.90722656
vt -0.59277344 0.921875
vt -0.58935547 0.90722656
vt -0.5917969 0.9086914
vt -0.58984375 0.921875
vt -0.58935547 0.9140625
vt -0.58935547 0.9121094
vt -0.59277344 0.921875
vt -0.5917969 0.9086914
vt -0.5917969 0.90771484
vt -0.5932617 0.92089844
vt -0.59277344 0.921875
vt -0.5917969 0.90771484
vt -0.5932617 0.92089844
vt -0.5917969 0.90771484
vt -0.5913086 0.90185547
vt -0.5932617 0.92089844
vt -0.5913086 0.90185547
vt -0.5913086 0.8979492
vt -0.6035156 0.9213867
vt -0.60253906 0.91503906
vt -0.60302734 0.91503906
vt -0.6064453 0.9213867
vt -0.6035156 0.9213867
vt -0.60302734 0.91503906
vt -0.6064453 0.9213867
vt -0.60302734 0.91503906
vt -0.60546875 0.9169922
vt -0.6064453 0.9213867
vt -0.60546875 0.9169922
vt -0.60595703 0.9169922
vt -0.5932617 0.92089844
vt -0.5913086 0.8979492
vt -0.5917969 0.8984375
vt -0.5932617 0.92089844
vt -0.5917969 0.8984375
vt -0.59277344 0.8989258
vt -0.6040039 0.92041016
vt -0.5932617 0.92089844
vt -0.59277344 0.8989258
vt -0.6040039 0.92041016
vt -0.59277344 0.8989258
vt -0.60009766 0.9033203
vt -0.6040039 0.92041016
vt -0.60009766 0.9033203
vt -0.60253906 0.90478516
vt -0.58984375 0.921875
vt -0.58935547 0.92285156
vt -0.58935547 0.9140625
vt -0.6064453 0.9213867
vt -0.60595703 0.921875
vt -0.60546875 0.921875
vt -0.6035156 0.9213867
vt -0.6064453 0.9213867
vt -0.60546875 0.921875
vt -0.6035156 0.9213867
vt -0.60546875 0.921875
vt -0.60302734 0.921875
vt -0.6035156 0.9213867
vt -0.60302734 0.921875
vt -0.60058594 0.9223633
vt -0.59277344 0.921875
vt -0.6035156 0.9213867
vt -0.60058594 0.9223633
vt -0.59277344 0.921875
vt -0.60058594 0.9223633
vt -0.59228516 0.92285156
vt -0.59277344 0.921875
vt -0.59228516 0.92285156
vt -0.5917969 0.92285156
vt -0.59277344 0.921875
vt -0.5917969 0.92285156
vt -0.5908203 0.92285156
vt -0.58984375 0.921875
vt -0.59277344 0.921875
vt -0.5908203 0.92285156
vt -0.58984375 0.921875
vt -0.5908203 0.92285156
vt -0.58984375 0.92333984
vt -0.58935547 0.92285156
vt -0.58984375 0.921875
vt -0.58984375 0.92333984
vt -0.58935547 0.92285156
vt -0.58984375 0.92333984
vt -0.58935547 0.92333984
vt -0.5932617 0.92089844
vt -0.6035156 0.9213867
vt -0.59277344 0.921875
vt -0.5932617 0.92089844
vt -0.6040039 0.92041016
vt -0.6035156 0.9213867
vt -0.61621094 0.94189453
vt -0.62597656 0.8671875
vt -0.6357422 0.8671875
vt -0.61621094 0.94189453
vt -0.6074219 0.94189453
vt -0.62060547 0.8671875
vt -0.61621094 0.94189453
vt -0.62060547 0.8671875
vt -0.62597656 0.8671875
vt -0.64746094 0.94189453
vt -0.61621094 0.94189453
vt -0.6357422 0.8671875
vt -0.64746094 0.94189453
vt -0.6357422 0.8671875
vt -0.64746094 0.8671875
vt -0.6074219 0.94189453
vt -0.5961914 0.8671875
vt -0.62060547 0.8671875
vt -0.6074219 0.94189453
vt -0.58935547 0.94189453
vt -0.58935547 0.8671875
vt -0.6074219 0.94189453
vt -0.58935547 0.8671875
vt -0.5961914 0.8671875
vn 0.1842041 -0.29467773 -0.9375
vn 0.1842041 -0.29467773 -0.9375
vn 0.1842041 -0.29467773 -0.9375
vn 0.1842041 -0.29467773 -0.9375
vn 0.1842041 -0.29467773 -0.9375
vn 0.1842041 -0.29467773 -0.9375
vn 0.1842041 -0.29467773 -0.9375
vn 0.1842041 -0.29467773 -0.9375
vn 0.1842041 -0.29467773 -0.9375
vn 0.1842041 -0.29467773 -0.9375
vn 0.1842041 -0.29467773 -0.9375
vn 0.1842041 -0.29467773 -0.9375
vn -0.9790039 0.027862549 -0.2010498
vn -0.9790039 0.027862549 -0.2010498
vn -0.9790039 0.027862549 -0.2010498
vn -0.9790039 0.027862549 -0.2010498
vn -0.9790039 0.027862549 -0.2010498
vn -0.9790039 0.027862549 -0.2010498
vn -0.9790039 0.027862549 -0.2010498
vn -0.9790039 0.027862549 -0.2010498
vn -0.9790039 0.027862549 -0.2010498
vn -0.9790039 0.027862549 -0.2010498
vn -0.9790039 0.027862549 -0.2010498
vn -0.9790039 0.027862549 -0.2010498
vn 0.1842041 -0.29467773 -0.9375
vn 0.1842041 -0.29467773 -0.9375
vn 0.1842041 -0.29467773 -0.9375
vn 0.1842041 -0.29467773 -0.9375
vn 0.1842041 -0.29467773 -0.9375
vn 0.1842041 -0.29467773 -0.9375
vn 0.1842041 -0.29467773 -0.9375
vn 0.1842041 -0.29467773 -0.9375
vn 0.1842041 -0.29467773 -0.9375
vn 0.1842041 -0.29467773 -0.9375
vn 0.1842041 -0.29467773 -0.9375
vn 0.1842041 -0.29467773 -0.9375
vn 0.18408203 -0.29467773 -0.9375
vn 0.18408203 -0.29467773 -0.9375
vn 0.18408203 -0.29467773 -0.9375
vn 0.18408203 -0.29467773 -0.9375
vn 0.18408203 -0.29467773 -0.9375
vn 0.18408203 -0.29467773 -0.9375
vn 0.18408203 -0.29467773 -0.9375
vn 0.18408203 -0.29467773 -0.9375
vn 0.18408203 -0.29467773 -0.9375
vn 0.18408203 -0.29467773 -0.9375
vn 0.18408203 -0.29467773 -0.9375
vn 0.18408203 -0.29467773 -0.9375
vn 0.18408203 -0.29467773 -0.9375
vn 0.18408203 -0.29467773 -0.9375
vn 0.18408203 -0.29467773 -0.9375
vn -0.9790039 0.027862549 -0.2010498
vn -0.9790039 0.027862549 -0.2010498
vn -0.9790039 0.027862549 -0.2010498
vn 0.08532715 0.9550781 -0.28320312
vn 0.08532715 0.9550781 -0.28320312
vn 0.08532715 0.9550781 -0.28320312
vn 0.08532715 0.9550781 -0.28320312
vn 0.08532715 0.9550781 -0.28320312
vn 0.08532715 0.9550781 -0.28320312
vn 0.08532715 0.9550781 -0.28320312
vn 0.08532715 0.9550781 -0.28320312
vn 0.08532715 0.9550781 -0.28320312
vn 0.08532715 0.9550781 -0.28320312
vn 0.08532715 0.9550781 -0.28320312
vn 0.08532715 0.9550781 -0.28320312
vn 0.08532715 0.9550781 -0.28320312
vn 0.08532715 0.9550781 -0.28320312
vn 0.08532715 0.9550781 -0.28320312
vn 0.08532715 0.9550781 -0.28320312
vn 0.08532715 0.9550781 -0.28320312
vn 0.08532715 0.9550781 -0.28320312
vn 0.08532715 0.9550781 -0.28320312
vn 0.08532715 0.9550781 -0.28320312
vn 0.08532715 0.9550781 -0.28320312
vn 0.08532715 0.9550781 -0.28320312
vn 0.08532715 0.9550781 -0.28320312
vn 0.08532715 0.9550781 -0.28320312
vn 0.08532715 0.9550781 -0.28320312
vn 0.08532715 0.9550781 -0.28320312
vn 0.08532715 0.9550781 -0.28320312
vn 0.08532715 0.9550781 -0.28320312
vn 0.08532715 0.9550781 -0.28320312
vn 0.08532715 0.9550781 -0.28320312
vn 0.08532715 0.9550781 -0.28320312
vn 0.08532715 0.9550781 -0.28320312
vn 0.08532715 0.9550781 -0.28320312
vn 0.08532715 0.9550781 -0.28320312
vn 0.08532715 0.9550781 -0.28320312
vn 0.08532715 0.9550781 -0.28320312
vn 0.08532715 0.9550781 -0.28320312
vn 0.08532715 0.9550781 -0.28320312
vn 0.08532715 0.9550781 -0.28320312
vn 0.08532715 0.9550781 -0.28320312
vn 0.08532715 0.9550781 -0.28320312
vn 0.08532715 0.9550781 -0.28320312
vn 0.017944336 -0.07080078 -0.9970703
vn 0.011146545 -0.070495605 -0.9970703
vn 0.0062332153 -0.0703125 -0.9975586
vn 0.017944336 -0.07080078 -0.9970703
vn 0.02243042 -0.07104492 -0.9970703
vn 0.014030457 -0.070617676 -0.9970703
vn 0.017944336 -0.07080078 -0.9970703
vn 0.014030457 -0.070617676 -0.9970703
vn 0.011146545 -0.070495605 -0.9970703
vn 0.0019168854 -0.070129395 -0.9975586
vn 0.017944336 -0.07080078 -0.9970703
vn 0.0062332153 -0.0703125 -0.9975586
vn 0.0019168854 -0.070129395 -0.9975586
vn 0.0062332153 -0.0703125 -0.9975586
vn 6.377697E-05 -0.070007324 -0.9975586
vn 0.02243042 -0.07104492 -0.9970703
vn 0.026535034 -0.07122803 -0.9970703
vn 0.014030457 -0.070617676 -0.9970703
vn 0.02243042 -0.07104492 -0.9970703
vn 0.031799316 -0.07147217 -0.9970703
vn 0.029937744 -0.0713501 -0.9970703
vn 0.02243042 -0.07104492 -0.9970703
vn 0.029937744 -0.0713501 -0.9970703
vn 0.026535034 -0.07122803 -0.9970703
g DecalMesh_Common_Decal_Sign_06__3_0
f 3/3/3 2/2/2 1/1/1
f 6/6/6 5/5/5 4/4/4
f 9/9/9 8/8/8 7/7/7
f 12/12/12 11/11/11 10/10/10
f 15/15/15 14/14/14 13/13/13
f 18/18/18 17/17/17 16/16/16
f 21/21/21 20/20/20 19/19/19
f 24/24/24 23/23/23 22/22/22
f 27/27/27 26/26/26 25/25/25
f 30/30/30 29/29/29 28/28/28
f 33/33/33 32/32/32 31/31/31
f 36/36/36 35/35/35 34/34/34
f 39/39/39 38/38/38 37/37/37
f 42/42/42 41/41/41 40/40/40
f 45/45/45 44/44/44 43/43/43
f 48/48/48 47/47/47 46/46/46
f 51/51/51 50/50/50 49/49/49
f 54/54/54 53/53/53 52/52/52
f 57/57/57 56/56/56 55/55/55
f 60/60/60 59/59/59 58/58/58
f 63/63/63 62/62/62 61/61/61
f 66/66/66 65/65/65 64/64/64
f 69/69/69 68/68/68 67/67/67
f 72/72/72 71/71/71 70/70/70
f 75/75/75 74/74/74 73/73/73
f 78/78/78 77/77/77 76/76/76
f 81/81/81 80/80/80 79/79/79
f 84/84/84 83/83/83 82/82/82
f 87/87/87 86/86/86 85/85/85
f 90/90/90 89/89/89 88/88/88
f 93/93/93 92/92/92 91/91/91
f 96/96/96 95/95/95 94/94/94
f 99/99/99 98/98/98 97/97/97
f 102/102/102 101/101/101 100/100/100
f 105/105/105 104/104/104 103/103/103
f 108/108/108 107/107/107 106/106/106
f 111/111/111 110/110/110 109/109/109
f 114/114/114 113/113/113 112/112/112
f 117/117/117 116/116/116 115/115/115
f 120/120/120 119/119/119 118/118/118
