g DecalMesh_MetroArea_Decal_Ground_14__50
v 0.49999976 0.50000006 -0.10209745
v -0.49999997 0.50000006 -0.10209745
v -0.3363458 -0.5000001 -0.102097556
v 0.49999976 0.50000006 -0.10209745
v -0.3363458 -0.5000001 -0.102097556
v 0.49999976 -0.5000001 -0.102097556
v -0.49999997 0.50000006 -0.10209745
v -0.49999997 -0.5 -0.102097556
v -0.33634582 -0.49999997 -0.102097556
v 0.48000145 0.48900127 -0.0990991
v 0.5 0.48900142 -0.09953062
v 0.4881131 0.48900133 -0.11209973
v 0.48000145 0.48900127 -0.0990991
v 0.4881131 0.48900133 -0.11209973
v 0.48000145 0.48900127 -0.11209973
v 0.5 0.48900142 -0.09953062
v 0.5 0.48900142 -0.11209973
v 0.4881131 0.48900133 -0.11209973
v 0.48000145 0.48900127 -0.0990991
v 0.5 0.48900142 -0.0990991
v 0.5 0.48900142 -0.09953062
v -0.5 0.4889938 -0.0990991
v 0.48000145 0.48900127 -0.0990991
v -0.12249795 0.48899668 -0.11209974
v -0.5 0.4889938 -0.0990991
v -0.12249795 0.48899668 -0.11209974
v -0.5 0.4889938 -0.11209974
v 0.48000145 0.48900127 -0.0990991
v 0.48000145 0.48900127 -0.11209973
v -0.11044869 0.48899677 -0.11209973
v 0.48000145 0.48900127 -0.0990991
v -0.11044869 0.48899677 -0.11209973
v -0.12249793 0.48899668 -0.11209974
vt 0.8823242 0.62109375
vt 0.9970703 0.62109375
vt 0.97802734 0.5083008
vt 0.8823242 0.62109375
vt 0.97802734 0.5083008
vt 0.8823242 0.5083008
vt 0.9970703 0.62109375
vt 0.9970703 0.5083008
vt 0.97802734 0.5083008
vt 0.8847656 0.6201172
vt 0.8823242 0.6201172
vt 0.88378906 0.6201172
vt 0.8847656 0.6201172
vt 0.88378906 0.6201172
vt 0.8847656 0.6201172
vt 0.8823242 0.6201172
vt 0.8823242 0.6201172
vt 0.88378906 0.6201172
vt 0.8847656 0.6201172
vt 0.8823242 0.6201172
vt 0.8823242 0.6201172
vt 0.9970703 0.6201172
vt 0.8847656 0.6201172
vt 0.9536133 0.6201172
vt 0.9970703 0.6201172
vt 0.9536133 0.6201172
vt 0.9970703 0.6201172
vt 0.8847656 0.6201172
vt 0.8847656 0.6201172
vt 0.95214844 0.6201172
vt 0.8847656 0.6201172
vt 0.95214844 0.6201172
vt 0.9536133 0.6201172
vn -0 5.9604645E-08 -1
vn -0 5.9604645E-08 -1
vn -0 5.9604645E-08 -1
vn -0 5.9604645E-08 -1
vn -0 5.9604645E-08 -1
vn -0 5.9604645E-08 -1
vn -0 5.9604645E-08 -1
vn -0 5.9604645E-08 -1
vn -0 5.9604645E-08 -1
vn 7.5101852E-06 -1 -1.1920929E-07
vn 7.5101852E-06 -1 -1.1920929E-07
vn 7.5101852E-06 -1 -1.1920929E-07
vn 7.5101852E-06 -1 -1.1920929E-07
vn 7.5101852E-06 -1 -1.1920929E-07
vn 7.5101852E-06 -1 -1.1920929E-07
vn 7.5101852E-06 -1 -1.1920929E-07
vn 7.5101852E-06 -1 -1.1920929E-07
vn 7.5101852E-06 -1 -1.1920929E-07
vn 7.5101852E-06 -1 -1.1920929E-07
vn 7.5101852E-06 -1 -1.1920929E-07
vn 7.5101852E-06 -1 -1.1920929E-07
vn 7.5101852E-06 -1 -1.1920929E-07
vn 7.5101852E-06 -1 -1.1920929E-07
vn 7.5101852E-06 -1 -1.1920929E-07
vn 7.5101852E-06 -1 -1.1920929E-07
vn 7.5101852E-06 -1 -1.1920929E-07
vn 7.5101852E-06 -1 -1.1920929E-07
vn 7.5101852E-06 -1 -1.1920929E-07
vn 7.5101852E-06 -1 -1.1920929E-07
vn 7.5101852E-06 -1 -1.1920929E-07
vn 7.5101852E-06 -1 -1.1920929E-07
vn 7.5101852E-06 -1 -1.1920929E-07
vn 7.5101852E-06 -1 -1.1920929E-07
g DecalMesh_MetroArea_Decal_Ground_14__50_0
f 3/3/3 2/2/2 1/1/1
f 6/6/6 5/5/5 4/4/4
f 9/9/9 8/8/8 7/7/7
f 12/12/12 11/11/11 10/10/10
f 15/15/15 14/14/14 13/13/13
f 18/18/18 17/17/17 16/16/16
f 21/21/21 20/20/20 19/19/19
f 24/24/24 23/23/23 22/22/22
f 27/27/27 26/26/26 25/25/25
f 30/30/30 29/29/29 28/28/28
f 33/33/33 32/32/32 31/31/31
