g DecalMesh_MetroArea_Decal_Crack_05_(5)__155
v -2.131637 1.3103459 -0.005893948
v -4.5047674 1.3103461 -0.0054651937
v -4.5047674 -1.3043463 -0.00404956
v -2.131637 1.3103459 -0.005893948
v -4.5047674 -1.3043463 -0.00404956
v -2.589701 -1.3043466 -0.0043955557
v 2.9936311 1.3103468 -0.006821257
v -2.131637 1.3103459 -0.005893948
v -2.589701 -1.3043467 -0.0043955557
v 2.9936311 1.3103468 -0.006821257
v -2.589701 -1.3043467 -0.0043955557
v 1.5462828 -1.3043467 -0.0051438743
v 2.9936311 1.3103468 -0.006821257
v 1.5462828 -1.3043467 -0.0051438743
v 1.9431622 -1.3043463 -0.005215681
v 4.5047674 1.3103464 -0.007094167
v 3.2796338 -1.3043464 -0.0054570474
v 4.5047674 -1.3043466 -0.005678306
v 4.5047674 1.3103464 -0.007094167
v 2.993631 1.3103465 -0.006821257
v 1.9431621 -1.3043467 -0.005215681
v 4.5047674 1.3103464 -0.007094167
v 1.9431621 -1.3043467 -0.005215681
v 3.2425997 -1.3043468 -0.0054503586
v 4.5047674 1.3103464 -0.007094167
v 3.2426 -1.3043464 -0.005450359
v 3.2796338 -1.3043464 -0.0054570474
vt 0.36816406 0.43676758
vt 0.48413086 0.43676758
vt 0.48413086 0.103027344
vt 0.36816406 0.43676758
vt 0.48413086 0.103027344
vt 0.390625 0.103027344
vt 0.11767578 0.43676758
vt 0.36816406 0.43676758
vt 0.390625 0.103027344
vt 0.11767578 0.43676758
vt 0.390625 0.103027344
vt 0.18835449 0.103027344
vt 0.11767578 0.43676758
vt 0.18835449 0.103027344
vt 0.16906738 0.103027344
vt 0.043823242 0.43676758
vt 0.10369873 0.103027344
vt 0.043823242 0.103027344
vt 0.043823242 0.43676758
vt 0.11767578 0.43676758
vt 0.16906738 0.103027344
vt 0.043823242 0.43676758
vt 0.16906738 0.103027344
vt 0.105529785 0.103027344
vt 0.043823242 0.43676758
vt 0.105529785 0.103027344
vt 0.10369873 0.103027344
vn -0.0013465881 -0.016220093 -1
vn -0.0005865097 -0.014518738 -1
vn -0.0005993843 -0.013031006 -1
vn -0.0013465881 -0.016220093 -1
vn -0.0005993843 -0.013031006 -1
vn -0.0012130737 -0.014411926 -1
vn -0.0057678223 -0.020462036 -0.9995117
vn -0.0013465881 -0.016220093 -1
vn -0.0012130737 -0.014411926 -1
vn -0.0057678223 -0.020462036 -0.9995117
vn -0.0012130737 -0.014411926 -1
vn -0.0047798157 -0.017822266 -0.9995117
vn -0.0057678223 -0.020462036 -0.9995117
vn -0.0047798157 -0.017822266 -0.9995117
vn -0.0051231384 -0.018157959 -0.9995117
vn -0.008102417 -0.021408081 -0.9995117
vn -0.0071868896 -0.018997192 -0.9995117
vn -0.0090789795 -0.019760132 -0.9995117
vn -0.008102417 -0.021408081 -0.9995117
vn -0.0057678223 -0.020462036 -0.9995117
vn -0.0051231384 -0.018157959 -0.9995117
vn -0.008102417 -0.021408081 -0.9995117
vn -0.0051231384 -0.018157959 -0.9995117
vn -0.007129669 -0.018966675 -0.9995117
vn -0.008102417 -0.021408081 -0.9995117
vn -0.007129669 -0.018966675 -0.9995117
vn -0.0071868896 -0.018997192 -0.9995117
g DecalMesh_MetroArea_Decal_Crack_05_(5)__155_0
f 3/3/3 2/2/2 1/1/1
f 6/6/6 5/5/5 4/4/4
f 9/9/9 8/8/8 7/7/7
f 12/12/12 11/11/11 10/10/10
f 15/15/15 14/14/14 13/13/13
f 18/18/18 17/17/17 16/16/16
f 21/21/21 20/20/20 19/19/19
f 24/24/24 23/23/23 22/22/22
f 27/27/27 26/26/26 25/25/25
