g DecalMesh_Common_Decal_Sign_11__35
v 0.27263498 0.26559922 -0.009772786
v -0.27263483 0.16331485 -0.009775994
v -0.096323326 -0.26559913 -0.009774915
v 0.27263498 0.26559922 -0.009772786
v -0.096323326 -0.26559913 -0.009774915
v 0.27263498 -0.2655992 -0.0097727375
v -0.27263483 0.16331485 -0.009775994
v -0.27263483 -0.26559916 -0.009775955
v -0.09632331 -0.26559916 -0.009774915
v 0.27263498 0.26559922 -0.009772786
v -0.27263498 0.26559922 -0.009776004
v -0.27263498 0.1633148 -0.009775994
vt -0.29296875 0.9448242
vt -0.23840332 0.9345703
vt -0.25610352 0.89160156
vt -0.29296875 0.9448242
vt -0.25610352 0.89160156
vt -0.29296875 0.89160156
vt -0.23840332 0.9345703
vt -0.23840332 0.89160156
vt -0.25610352 0.89160156
vt -0.29296875 0.9448242
vt -0.23840332 0.9448242
vt -0.23840332 0.9345703
vn 5.90086E-06 -5.9604645E-08 -1
vn 5.90086E-06 -5.9604645E-08 -1
vn 5.90086E-06 -5.9604645E-08 -1
vn 5.90086E-06 -5.9604645E-08 -1
vn 5.90086E-06 -5.9604645E-08 -1
vn 5.90086E-06 -5.9604645E-08 -1
vn 5.90086E-06 -5.9604645E-08 -1
vn 5.90086E-06 -5.9604645E-08 -1
vn 5.90086E-06 -5.9604645E-08 -1
vn 5.90086E-06 -5.9604645E-08 -1
vn 5.90086E-06 -5.9604645E-08 -1
vn 5.90086E-06 -5.9604645E-08 -1
g DecalMesh_Common_Decal_Sign_11__35_0
f 3/3/3 2/2/2 1/1/1
f 6/6/6 5/5/5 4/4/4
f 9/9/9 8/8/8 7/7/7
f 12/12/12 11/11/11 10/10/10
