g DecalMesh_Common_Decal_Sign_11__31
v 0.09545056 0.21839932 -0.29892433
v -0.17139713 -0.21839932 -0.29892296
v 0.19202296 -0.21839932 -0.2989244
v 0.09545056 0.21839932 -0.29892433
v -0.21965495 0.21839932 -0.29892308
v -0.21965495 -0.21839932 -0.29892278
v 0.09545056 0.21839932 -0.29892433
v -0.21965495 -0.21839932 -0.29892278
v -0.17139713 -0.21839932 -0.29892296
v 0.2196548 0.21839933 -0.2989248
v 0.09545056 0.21839932 -0.29892433
v 0.19202296 -0.21839932 -0.2989244
v 0.2196548 0.21839933 -0.2989248
v 0.19202296 -0.21839932 -0.2989244
v 0.2196548 -0.21839932 -0.2989245
vt -0.2775879 0.9448242
vt -0.24438477 0.89160156
vt -0.28955078 0.89160156
vt -0.2775879 0.9448242
vt -0.23840332 0.9448242
vt -0.23840332 0.89160156
vt -0.2775879 0.9448242
vt -0.23840332 0.89160156
vt -0.24438477 0.89160156
vt -0.29296875 0.9448242
vt -0.2775879 0.9448242
vt -0.28955078 0.89160156
vt -0.29296875 0.9448242
vt -0.28955078 0.89160156
vt -0.29296875 0.89160156
vn -3.874302E-06 -8.940697E-07 -1
vn -3.874302E-06 -8.940697E-07 -1
vn -3.874302E-06 -8.940697E-07 -1
vn -3.874302E-06 -8.940697E-07 -1
vn -3.874302E-06 -8.940697E-07 -1
vn -3.874302E-06 -8.940697E-07 -1
vn -3.874302E-06 -8.940697E-07 -1
vn -3.874302E-06 -8.940697E-07 -1
vn -3.874302E-06 -8.940697E-07 -1
vn -3.874302E-06 -8.940697E-07 -1
vn -3.874302E-06 -8.940697E-07 -1
vn -3.874302E-06 -8.940697E-07 -1
vn -3.874302E-06 -8.940697E-07 -1
vn -3.874302E-06 -8.940697E-07 -1
vn -3.874302E-06 -8.940697E-07 -1
g DecalMesh_Common_Decal_Sign_11__31_0
f 3/3/3 2/2/2 1/1/1
f 6/6/6 5/5/5 4/4/4
f 9/9/9 8/8/8 7/7/7
f 12/12/12 11/11/11 10/10/10
f 15/15/15 14/14/14 13/13/13
