g DecalMesh_Common_Decal_Sign_14__78
v 0.25380087 0.3411093 0.015301675
v 0.076403625 -0.3411093 0.042673342
v 0.23115295 -0.3411093 0.05
v 0.25380087 0.3411093 0.015301675
v 0.23115295 -0.3411093 0.05
v 0.25380087 -0.32065886 0.05
v 0.25380087 0.3411093 0.015301675
v 0.17929845 0.34110928 0.011774332
v 0.024760315 -0.3411093 0.04022827
v 0.25380087 0.3411093 0.015301675
v 0.024760315 -0.3411093 0.04022827
v 0.07267885 -0.3411093 0.04249699
v 0.25380087 0.3411093 0.015301675
v 0.07267885 -0.3411093 0.04249699
v 0.076403625 -0.3411093 0.042673342
v 0.17929845 0.3411093 0.01177433
v -0.25380087 0.34110928 -0.008730576
v -0.25380087 -0.34110925 0.027039902
v 0.17929845 0.3411093 0.01177433
v -0.25380087 -0.34110925 0.027039902
v 0.02476033 -0.34110922 0.040228266
vt -0.118896484 0.9970703
vt -0.09790039 0.9160156
vt -0.11621094 0.9160156
vt -0.118896484 0.9970703
vt -0.11621094 0.9160156
vt -0.118896484 0.91845703
vt -0.118896484 0.9970703
vt -0.11010742 0.9970703
vt -0.091796875 0.9160156
vt -0.118896484 0.9970703
vt -0.091796875 0.9160156
vt -0.097473145 0.9160156
vt -0.118896484 0.9970703
vt -0.097473145 0.9160156
vt -0.09790039 0.9160156
vt -0.11010742 0.9970703
vt -0.05886841 0.9970703
vt -0.05886841 0.9160156
vt -0.11010742 0.9970703
vt -0.05886841 0.9160156
vt -0.091796875 0.9160156
vn 0.03265381 -0.052093506 -0.9980469
vn 0.04244995 -0.052215576 -0.9975586
vn 0.033325195 -0.052093506 -0.9980469
vn 0.03265381 -0.052093506 -0.9980469
vn 0.033325195 -0.052093506 -0.9980469
vn 0.03201294 -0.052093506 -0.9980469
vn 0.03265381 -0.052093506 -0.9980469
vn 0.03704834 -0.05215454 -0.9980469
vn 0.04550171 -0.05227661 -0.9975586
vn 0.03265381 -0.052093506 -0.9980469
vn 0.04550171 -0.05227661 -0.9975586
vn 0.04269409 -0.052246094 -0.9975586
vn 0.03265381 -0.052093506 -0.9980469
vn 0.04269409 -0.052246094 -0.9975586
vn 0.04244995 -0.052215576 -0.9975586
vn 0.03704834 -0.05215454 -0.9980469
vn 0.062561035 -0.052490234 -0.99658203
vn 0.061950684 -0.052490234 -0.99658203
vn 0.03704834 -0.05215454 -0.9980469
vn 0.061950684 -0.052490234 -0.99658203
vn 0.04550171 -0.05227661 -0.9975586
g DecalMesh_Common_Decal_Sign_14__78_0
f 3/3/3 2/2/2 1/1/1
f 6/6/6 5/5/5 4/4/4
f 9/9/9 8/8/8 7/7/7
f 12/12/12 11/11/11 10/10/10
f 15/15/15 14/14/14 13/13/13
f 18/18/18 17/17/17 16/16/16
f 21/21/21 20/20/20 19/19/19
