g DecalMesh_MetroArea_Decal_Ground_13__42
v 0.5000001 0.5000001 -0.09670987
v -0.5 0.5 -0.096709765
v -0.21936372 -0.49999997 -0.09670977
v 0.5000001 0.5000001 -0.09670987
v -0.21936372 -0.49999997 -0.09670977
v 0.5000001 -0.50000006 -0.09670985
v -0.5 0.5 -0.096709765
v -0.5 -0.5 -0.096709736
v -0.21936372 -0.49999997 -0.09670977
vt 0.76953125 0.6220703
vt 0.88134766 0.6220703
vt 0.8496094 0.5083008
vt 0.76953125 0.6220703
vt 0.8496094 0.5083008
vt 0.76953125 0.5083008
vt 0.88134766 0.6220703
vt 0.88134766 0.5083008
vt 0.8496094 0.5083008
vn -0 -1.1920929E-07 -1
vn -0 -1.1920929E-07 -1
vn -0 -1.1920929E-07 -1
vn -0 -1.1920929E-07 -1
vn -0 -1.1920929E-07 -1
vn -0 -1.1920929E-07 -1
vn -0 -1.1920929E-07 -1
vn -0 -1.1920929E-07 -1
vn -0 -1.1920929E-07 -1
g DecalMesh_MetroArea_Decal_Ground_13__42_0
f 3/3/3 2/2/2 1/1/1
f 6/6/6 5/5/5 4/4/4
f 9/9/9 8/8/8 7/7/7
