g DecalMesh_Common_Decal_Sign_13__126
v 0.5405259 0.49442956 0.01527977
v 0.28578365 0.6013298 0.01527977
v -0.5405259 -0.3952133 0.01527977
v 0.5405259 0.49442956 0.01527977
v -0.5405259 -0.3952133 0.01527977
v -0.5405259 -0.56066346 0.01527977
v 0.28578365 0.6013298 0.01527977
v -0.5405259 0.60132986 0.01527977
v -0.5405259 -0.3952133 0.01527977
v 0.5405259 0.49442956 0.01527977
v 0.5405259 0.6013298 0.01527977
v 0.28578365 0.6013298 0.01527977
v 0.5405259 0.49442956 0.01527977
v -0.5405259 -0.56066346 0.01527977
v -0.48875356 -0.59532976 0.01527977
v 0.5405259 0.49442956 0.01527977
v -0.48875356 -0.59532976 0.01527977
v 0.5405259 -0.59532976 0.01527977
v -0.5405259 -0.56066346 0.01527977
v -0.5405259 -0.59532976 0.01527977
v -0.48875356 -0.59532976 0.01527977
vt -0.23413086 0.9863281
vt -0.20861816 0.9970703
vt -0.12597656 0.89697266
vt -0.23413086 0.9863281
vt -0.12597656 0.89697266
vt -0.12597656 0.8808594
vt -0.20861816 0.9970703
vt -0.12597656 0.9970703
vt -0.12597656 0.89697266
vt -0.23413086 0.9863281
vt -0.23413086 0.9970703
vt -0.20861816 0.9970703
vt -0.23413086 0.9863281
vt -0.12597656 0.8808594
vt -0.13122559 0.8769531
vt -0.23413086 0.9863281
vt -0.13122559 0.8769531
vt -0.23413086 0.8769531
vt -0.12597656 0.8808594
vt -0.12597656 0.8769531
vt -0.13122559 0.8769531
vn 1.7881393E-07 0 -1
vn 1.7881393E-07 0 -1
vn 1.7881393E-07 0 -1
vn 1.7881393E-07 0 -1
vn 1.7881393E-07 0 -1
vn 1.7881393E-07 0 -1
vn 1.7881393E-07 0 -1
vn 1.7881393E-07 0 -1
vn 1.7881393E-07 0 -1
vn 1.7881393E-07 0 -1
vn 1.7881393E-07 0 -1
vn 1.7881393E-07 0 -1
vn 1.7881393E-07 0 -1
vn 1.7881393E-07 0 -1
vn 1.7881393E-07 0 -1
vn 1.7881393E-07 0 -1
vn 1.7881393E-07 0 -1
vn 1.7881393E-07 0 -1
vn 1.7881393E-07 0 -1
vn 1.7881393E-07 0 -1
vn 1.7881393E-07 0 -1
g DecalMesh_Common_Decal_Sign_13__126_0
f 3/3/3 2/2/2 1/1/1
f 6/6/6 5/5/5 4/4/4
f 9/9/9 8/8/8 7/7/7
f 12/12/12 11/11/11 10/10/10
f 15/15/15 14/14/14 13/13/13
f 18/18/18 17/17/17 16/16/16
f 21/21/21 20/20/20 19/19/19
