g DecalMesh_Common_Decal_Sign_13__14
v 0.08633834 -0.26488692 -0.05293137
v 0.26072586 -0.26488692 -0.053662214
v 0.25511158 0.22087169 -0.05708696
v 0.08633834 -0.26488692 -0.05293137
v 0.25511158 0.22087169 -0.05708696
v 0.24254414 0.22829124 -0.05708696
v 0.024868898 0.26631144 -0.05644459
v -0.06652881 -0.26488692 -0.052290708
v 0.23448059 0.23305182 -0.05708696
v 0.024868898 0.26631144 -0.05644459
v 0.23448059 0.23305182 -0.05708696
v 0.17814456 0.26631144 -0.05708696
v -0.06652881 -0.26488692 -0.052290708
v 0.08633834 -0.26488692 -0.05293137
v 0.24254414 0.22829124 -0.05708696
v -0.06652881 -0.26488692 -0.052290708
v 0.24254414 0.22829124 -0.05708696
v 0.23448059 0.23305182 -0.05708696
v 0.26072586 -0.26488692 -0.053662214
v 0.27147412 0.21121162 -0.05708696
v 0.25511158 0.22087167 -0.05708696
v 0.26072586 -0.26488692 -0.053662214
v 0.27271804 -0.2648869 -0.053712472
v 0.27271804 0.21047732 -0.05708696
v 0.26072586 -0.26488692 -0.053662214
v 0.27271804 0.21047732 -0.05708696
v 0.27147412 0.21121164 -0.05708696
v 0.024868883 0.26631135 -0.05644459
v -0.27255192 0.2663114 -0.0551981
v -0.26444963 -0.26488695 -0.051461224
v 0.024868883 0.26631135 -0.05644459
v -0.26444963 -0.26488695 -0.051461224
v -0.066528805 -0.2648869 -0.052290708
v -0.27255192 0.2663114 -0.0551981
v -0.27255192 -0.2648869 -0.051427267
v -0.26444963 -0.2648869 -0.051461224
vt -0.19714355 0.8769531
vt -0.23168945 0.8769531
vt -0.23059082 0.9863281
vt -0.19714355 0.8769531
vt -0.23059082 0.9863281
vt -0.22814941 0.98828125
vt -0.18493652 0.99658203
vt -0.16687012 0.8769531
vt -0.2265625 0.9892578
vt -0.18493652 0.99658203
vt -0.2265625 0.9892578
vt -0.21533203 0.99658203
vt -0.16687012 0.8769531
vt -0.19714355 0.8769531
vt -0.22814941 0.98828125
vt -0.16687012 0.8769531
vt -0.22814941 0.98828125
vt -0.2265625 0.9892578
vt -0.23168945 0.8769531
vt -0.23388672 0.984375
vt -0.23059082 0.9863281
vt -0.23168945 0.8769531
vt -0.23413086 0.8769531
vt -0.23413086 0.9838867
vt -0.23168945 0.8769531
vt -0.23413086 0.9838867
vt -0.23388672 0.984375
vt -0.18493652 0.99658203
vt -0.12597656 0.99658203
vt -0.12768555 0.8769531
vt -0.18493652 0.99658203
vt -0.12768555 0.8769531
vt -0.16687012 0.8769531
vt -0.12597656 0.99658203
vt -0.12597656 0.8769531
vt -0.12768555 0.8769531
vn -0.008735657 -0.0072631836 -1
vn -0.019012451 -0.0076408386 -0.9995117
vn -0.019729614 -0.007663727 -0.9995117
vn -0.008735657 -0.0072631836 -1
vn -0.019729614 -0.007663727 -0.9995117
vn -0.018997192 -0.007637024 -0.9995117
vn -0.006259918 -0.007171631 -1
vn 0.00026750565 -0.0069351196 -1
vn -0.018539429 -0.007621765 -0.9995117
vn -0.006259918 -0.007171631 -1
vn -0.018539429 -0.007621765 -0.9995117
vn -0.015289307 -0.0075035095 -1
vn 0.00026750565 -0.0069351196 -1
vn -0.008735657 -0.0072631836 -1
vn -0.018997192 -0.007637024 -0.9995117
vn 0.00026750565 -0.0069351196 -1
vn -0.018997192 -0.007637024 -0.9995117
vn -0.018539429 -0.007621765 -0.9995117
vn -0.019012451 -0.0076408386 -0.9995117
vn -0.02067566 -0.007698059 -0.9995117
vn -0.019729614 -0.007663727 -0.9995117
vn -0.019012451 -0.0076408386 -0.9995117
vn -0.019714355 -0.007663727 -0.9995117
vn -0.020736694 -0.007701874 -0.9995117
vn -0.019012451 -0.0076408386 -0.9995117
vn -0.020736694 -0.007701874 -0.9995117
vn -0.02067566 -0.007698059 -0.9995117
vn -0.006259918 -0.007171631 -1
vn 0.011260986 -0.0065307617 -1
vn 0.011924744 -0.0065078735 -1
vn -0.006259918 -0.007171631 -1
vn 0.011924744 -0.0065078735 -1
vn 0.00026750565 -0.0069351196 -1
vn 0.011260986 -0.0065307617 -1
vn 0.0124053955 -0.0064926147 -1
vn 0.011924744 -0.0065078735 -1
g DecalMesh_Common_Decal_Sign_13__14_0
f 3/3/3 2/2/2 1/1/1
f 6/6/6 5/5/5 4/4/4
f 9/9/9 8/8/8 7/7/7
f 12/12/12 11/11/11 10/10/10
f 15/15/15 14/14/14 13/13/13
f 18/18/18 17/17/17 16/16/16
f 21/21/21 20/20/20 19/19/19
f 24/24/24 23/23/23 22/22/22
f 27/27/27 26/26/26 25/25/25
f 30/30/30 29/29/29 28/28/28
f 33/33/33 32/32/32 31/31/31
f 36/36/36 35/35/35 34/34/34
