g DecalMesh_MainCity_Decal_Graffiti_18__53
v 0.6075736 0.47812122 -0.12747677
v 0.45564786 0.47812116 -0.10192452
v 0.5657726 -0.47812116 -0.12654552
v 0.6075736 0.47812122 -0.12747677
v 0.5657726 -0.47812116 -0.12654552
v 0.6075736 -0.4781212 -0.13357599
v 0.44550633 0.4781212 -0.100218706
v 0.18404123 -0.4781212 -0.06233777
v 0.54846716 -0.47812122 -0.12363472
v 0.44550633 0.4781212 -0.100218706
v 0.17832923 0.47812122 -0.055279147
v 0.09255666 -0.47812116 -0.046949938
v 0.44550633 0.4781212 -0.100218706
v 0.09255666 -0.47812116 -0.046949938
v 0.18404123 -0.4781212 -0.06233777
v 0.45564786 0.47812122 -0.10192452
v 0.5521658 -0.47812122 -0.124256834
v 0.5657726 -0.47812116 -0.12654552
v 0.45564786 0.47812122 -0.10192452
v 0.44550633 0.4781212 -0.100218706
v 0.54846716 -0.47812116 -0.12363471
v 0.45564786 0.47812122 -0.10192452
v 0.54846716 -0.47812116 -0.12363471
v 0.5521658 -0.47812122 -0.124256834
v 0.17832923 0.47812122 -0.055279147
v 0.08374774 -0.47812122 -0.05249987
v 0.09255666 -0.47812116 -0.046949938
v 0.17832923 0.47812122 -0.055279147
v 0.17187342 0.47812122 -0.059346545
v 0.081540465 -0.47812122 -0.053890537
v 0.17832923 0.47812122 -0.055279147
v 0.081540465 -0.47812122 -0.053890537
v 0.08374774 -0.47812122 -0.05249987
v 0.1718734 0.47812113 -0.05934654
v 0.16494375 0.47812122 -0.06371248
v 0.07917118 -0.47812122 -0.05538327
v 0.1718734 0.47812113 -0.05934654
v 0.07917118 -0.47812122 -0.05538327
v 0.081540465 -0.4781212 -0.053890537
v 0.16494375 0.47812122 -0.06371248
v 0.055958807 -0.47812122 -0.05148094
v 0.07917118 -0.47812122 -0.05538327
v 0.16494375 0.47812122 -0.06371248
v 0.14794277 0.47812122 -0.06085437
v 0.05017065 -0.4781212 -0.05050787
v 0.16494375 0.47812122 -0.06371248
v 0.05017065 -0.4781212 -0.05050787
v 0.05595881 -0.4781212 -0.05148094
v 0.14794277 0.47812122 -0.06085437
v 0.12974894 0.47812113 -0.057795748
v 0.04397637 -0.47812122 -0.049466528
v 0.14794277 0.47812122 -0.06085437
v 0.04397637 -0.47812122 -0.049466528
v 0.05017065 -0.4781212 -0.05050787
v 0.12974894 0.47812113 -0.057795748
v 0.12507145 0.4781211 -0.0512497
v 0.042383876 -0.4781212 -0.04723786
v 0.12974894 0.47812113 -0.057795748
v 0.042383876 -0.4781212 -0.04723786
v 0.04397637 -0.47812122 -0.049466528
v 0.12507145 0.4781212 -0.0512497
v 0.036406234 -0.4781212 -0.038871378
v 0.042383876 -0.47812116 -0.04723786
v 0.12507145 0.4781212 -0.0512497
v 0.12068787 0.47812122 -0.04511431
v 0.03491563 -0.4781212 -0.036785077
v 0.12507145 0.4781212 -0.0512497
v 0.03491563 -0.4781212 -0.036785077
v 0.036406234 -0.4781212 -0.038871378
v -0.5932053 0.47812122 -0.0792068
v -0.5932336 0.47812116 -0.09339854
v -0.6075736 0.31687453 -0.09257293
v -0.5932053 0.47812122 -0.0792068
v -0.6075736 0.31687453 -0.09257293
v -0.6075736 0.31659293 -0.08001863
v -0.5932336 0.47812116 -0.09339854
v -0.5987433 0.47812116 -0.09886099
v -0.6075736 0.37422696 -0.09792329
v -0.5932336 0.47812116 -0.09339854
v -0.6075736 0.37422696 -0.09792329
v -0.6075736 0.31687453 -0.09257293
v -0.5987433 0.47812122 -0.09886099
v -0.6075736 0.3830769 -0.09874933
v -0.6075736 0.374227 -0.09792329
v -0.5987433 0.47812122 -0.09886099
v -0.60429907 0.47812125 -0.10437229
v -0.6075736 0.44130057 -0.10418386
v -0.5987433 0.47812122 -0.09886099
v -0.6075736 0.44130057 -0.10418386
v -0.6075736 0.3830769 -0.09874933
v -0.60429907 0.4781212 -0.10437229
v -0.6075736 0.4781212 -0.10436433
v -0.6075736 0.44130054 -0.10418386
v 0.11837316 0.47812116 -0.0853486
v 0.11279075 0.4781212 -0.091275714
v 0.031413537 -0.47812113 -0.06875106
v 0.11837316 0.47812116 -0.0853486
v 0.031413537 -0.47812113 -0.06875106
v 0.03335944 -0.47812113 -0.066685
v 0.11279075 0.4781212 -0.091275714
v 0.024455382 -0.47812116 -0.07613475
v 0.031413537 -0.47812113 -0.06875106
v 0.11279075 0.4781212 -0.091275714
v 0.10769371 0.47812116 -0.09668448
v 0.022680301 -0.4781212 -0.07801838
v 0.11279075 0.4781212 -0.091275714
v 0.022680301 -0.4781212 -0.07801838
v 0.024455378 -0.4781212 -0.07613475
v 0.10769372 0.47812125 -0.09668448
v 0.08907566 0.47812113 -0.09725367
v 0.016196454 -0.47812116 -0.07821661
v 0.10769372 0.47812125 -0.09668448
v 0.016196454 -0.47812116 -0.07821661
v 0.022680305 -0.47812116 -0.07801838
v 0.08907567 0.47812122 -0.09725367
v -0.007072869 -0.4781212 -0.078932784
v 0.01619645 -0.47812122 -0.07821661
v 0.08907567 0.47812122 -0.09725367
v 0.07202687 0.47812122 -0.097778395
v -0.012986535 -0.4781212 -0.079114795
v 0.08907567 0.47812122 -0.09725367
v -0.012986535 -0.4781212 -0.079114795
v -0.007072869 -0.4781212 -0.078932784
v 0.07202686 0.47812113 -0.097778395
v 0.0657035 0.47812125 -0.092477545
v -0.015179905 -0.4781212 -0.0772761
v 0.07202686 0.47812113 -0.097778395
v -0.015179905 -0.4781212 -0.0772761
v -0.012986533 -0.4781212 -0.079114795
v 0.0657035 0.47812116 -0.092477545
v -0.023106705 -0.47812116 -0.07062629
v -0.015179905 -0.47812122 -0.0772761
v 0.0657035 0.47812116 -0.092477545
v 0.059895303 0.4781212 -0.08760504
v -0.02511809 -0.4781212 -0.06893893
v 0.0657035 0.47812116 -0.092477545
v -0.02511809 -0.4781212 -0.06893893
v -0.02310671 -0.4781212 -0.07062629
v 0.059895303 0.4781212 -0.08760504
v -0.4276947 -0.4781212 -0.08129843
v -0.025118094 -0.47812122 -0.06893893
v 0.059895303 0.4781212 -0.08760504
v -0.22996493 0.47812122 -0.096504025
v -0.5210872 -0.4781212 -0.08416567
v 0.059895303 0.4781212 -0.08760504
v -0.5210872 -0.4781212 -0.08416567
v -0.45469844 -0.4781212 -0.082127474
v 0.059895303 0.4781212 -0.08760504
v -0.45469844 -0.47812116 -0.082127474
v -0.4276947 -0.4781212 -0.08129843
v -0.22996496 0.47812113 -0.096504025
v -0.5340488 0.47812125 -0.10583974
v -0.6075736 -0.34889284 -0.08969619
v -0.22996496 0.47812113 -0.096504025
v -0.6075736 -0.34889284 -0.08969619
v -0.6075736 -0.4781212 -0.0868209
v -0.22996496 0.47812113 -0.096504025
v -0.6075736 -0.4781212 -0.0868209
v -0.5210872 -0.4781212 -0.08416567
v -0.5340488 0.4781212 -0.10583973
v -0.6075736 -0.27971366 -0.09690806
v -0.6075736 -0.34889293 -0.08969619
v -0.5340488 0.4781212 -0.10583973
v -0.5397435 0.47812122 -0.11126696
v -0.6075736 -0.25138566 -0.09986122
v -0.5340488 0.4781212 -0.10583973
v -0.6075736 -0.25138566 -0.09986122
v -0.6075736 -0.27971366 -0.09690806
v -0.5397435 0.47812122 -0.11126696
v -0.5454919 0.47812128 -0.11674166
v -0.6075736 -0.22018017 -0.103112474
v -0.5397435 0.47812122 -0.11126696
v -0.6075736 -0.22018017 -0.103112474
v -0.6075736 -0.25138566 -0.09986122
v -0.5454919 0.4781212 -0.11674166
v -0.6075736 -0.06523674 -0.106557764
v -0.6075736 -0.22018021 -0.103112474
v -0.5454919 0.4781212 -0.11674166
v -0.56326646 0.4781212 -0.117285095
v -0.6075736 0.042119928 -0.108944915
v -0.5454919 0.4781212 -0.11674166
v -0.6075736 0.042119928 -0.108944915
v -0.6075736 -0.06523674 -0.106557764
v -0.56326646 0.47812113 -0.117285095
v -0.58115876 0.47812125 -0.117835864
v -0.6075736 0.18100424 -0.11203606
v -0.56326646 0.47812113 -0.117285095
v -0.6075736 0.18100424 -0.11203606
v -0.6075736 0.042119887 -0.108944915
v -0.58115876 0.47812125 -0.117835864
v -0.58686733 0.47812113 -0.11249551
v -0.6075736 0.23407641 -0.10865806
v -0.58115876 0.47812125 -0.117835864
v -0.6075736 0.23407641 -0.10865806
v -0.6075736 0.18100424 -0.11203606
v -0.58686733 0.47812122 -0.11249551
v -0.6075736 0.25535515 -0.10730485
v -0.6075736 0.23407649 -0.10865806
v -0.58686733 0.47812122 -0.11249551
v -0.59255594 0.47812116 -0.10717747
v -0.6075736 0.3092008 -0.10388054
v -0.58686733 0.47812122 -0.11249551
v -0.6075736 0.3092008 -0.10388054
v -0.6075736 0.25535518 -0.10730485
v -0.59255594 0.47812125 -0.10717748
v -0.59302163 0.47812122 -0.092923604
v -0.6075736 0.31382674 -0.09138295
v -0.59255594 0.47812125 -0.10717748
v -0.6075736 0.31382674 -0.09138295
v -0.6075736 0.30920088 -0.10388055
v 0.11792916 0.47812122 -0.0717541
v 0.033204667 -0.47812113 -0.061946265
v 0.032598503 -0.47812122 -0.04338708
v 0.11792916 0.47812122 -0.0717541
v 0.11837317 0.47812125 -0.0853486
v 0.033359434 -0.47812116 -0.066685
v 0.11792916 0.47812122 -0.0717541
v 0.033359434 -0.47812116 -0.066685
v 0.033204664 -0.47812116 -0.061946265
vt -0.9399414 1.3671875
vt -0.9291992 1.3671875
vt -0.9370117 1.3144531
vt -0.9399414 1.3671875
vt -0.9370117 1.3144531
vt -0.9399414 1.3144531
vt -0.92871094 1.3671875
vt -0.91015625 1.3144531
vt -0.93603516 1.3144531
vt -0.92871094 1.3671875
vt -0.90966797 1.3671875
vt -0.9038086 1.3144531
vt -0.92871094 1.3671875
vt -0.9038086 1.3144531
vt -0.91015625 1.3144531
vt -0.9291992 1.3671875
vt -0.93603516 1.3144531
vt -0.9370117 1.3144531
vt -0.9291992 1.3671875
vt -0.92871094 1.3671875
vt -0.93603516 1.3144531
vt -0.9291992 1.3671875
vt -0.93603516 1.3144531
vt -0.93603516 1.3144531
vt -0.90966797 1.3671875
vt -0.90283203 1.3144531
vt -0.9038086 1.3144531
vt -0.90966797 1.3671875
vt -0.9091797 1.3671875
vt -0.90283203 1.3144531
vt -0.90966797 1.3671875
vt -0.90283203 1.3144531
vt -0.90283203 1.3144531
vt -0.9091797 1.3671875
vt -0.9086914 1.3671875
vt -0.90283203 1.3144531
vt -0.9091797 1.3671875
vt -0.90283203 1.3144531
vt -0.90283203 1.3144531
vt -0.9086914 1.3671875
vt -0.9008789 1.3144531
vt -0.90283203 1.3144531
vt -0.9086914 1.3671875
vt -0.90771484 1.3671875
vt -0.9008789 1.3144531
vt -0.9086914 1.3671875
vt -0.9008789 1.3144531
vt -0.9008789 1.3144531
vt -0.90771484 1.3671875
vt -0.90625 1.3671875
vt -0.9003906 1.3144531
vt -0.90771484 1.3671875
vt -0.9003906 1.3144531
vt -0.9008789 1.3144531
vt -0.90625 1.3671875
vt -0.9057617 1.3671875
vt -0.89990234 1.3144531
vt -0.90625 1.3671875
vt -0.89990234 1.3144531
vt -0.9003906 1.3144531
vt -0.9057617 1.3671875
vt -0.89990234 1.3144531
vt -0.89990234 1.3144531
vt -0.9057617 1.3671875
vt -0.9057617 1.3671875
vt -0.89941406 1.3144531
vt -0.9057617 1.3671875
vt -0.89941406 1.3144531
vt -0.89990234 1.3144531
vt -0.85498047 1.3671875
vt -0.85498047 1.3671875
vt -0.8540039 1.3583984
vt -0.85498047 1.3671875
vt -0.8540039 1.3583984
vt -0.8540039 1.3583984
vt -0.85498047 1.3671875
vt -0.8544922 1.3671875
vt -0.8540039 1.3613281
vt -0.85498047 1.3671875
vt -0.8540039 1.3613281
vt -0.8540039 1.3583984
vt -0.8544922 1.3671875
vt -0.8540039 1.3613281
vt -0.8540039 1.3613281
vt -0.8544922 1.3671875
vt -0.8544922 1.3671875
vt -0.8540039 1.3652344
vt -0.8544922 1.3671875
vt -0.8540039 1.3652344
vt -0.8540039 1.3613281
vt -0.8544922 1.3671875
vt -0.8540039 1.3671875
vt -0.8540039 1.3652344
vt -0.90527344 1.3671875
vt -0.90527344 1.3671875
vt -0.89941406 1.3144531
vt -0.90527344 1.3671875
vt -0.89941406 1.3144531
vt -0.89941406 1.3144531
vt -0.90527344 1.3671875
vt -0.8989258 1.3144531
vt -0.89941406 1.3144531
vt -0.90527344 1.3671875
vt -0.90478516 1.3671875
vt -0.8989258 1.3144531
vt -0.90527344 1.3671875
vt -0.8989258 1.3144531
vt -0.8989258 1.3144531
vt -0.90478516 1.3671875
vt -0.9033203 1.3671875
vt -0.8984375 1.3144531
vt -0.90478516 1.3671875
vt -0.8984375 1.3144531
vt -0.8989258 1.3144531
vt -0.9033203 1.3671875
vt -0.8964844 1.3144531
vt -0.8984375 1.3144531
vt -0.9033203 1.3671875
vt -0.90234375 1.3671875
vt -0.8959961 1.3144531
vt -0.9033203 1.3671875
vt -0.8959961 1.3144531
vt -0.8964844 1.3144531
vt -0.90234375 1.3671875
vt -0.90185547 1.3671875
vt -0.8959961 1.3144531
vt -0.90234375 1.3671875
vt -0.8959961 1.3144531
vt -0.8959961 1.3144531
vt -0.90185547 1.3671875
vt -0.8955078 1.3144531
vt -0.8959961 1.3144531
vt -0.90185547 1.3671875
vt -0.9013672 1.3671875
vt -0.8955078 1.3144531
vt -0.90185547 1.3671875
vt -0.8955078 1.3144531
vt -0.8955078 1.3144531
vt -0.9013672 1.3671875
vt -0.8666992 1.3144531
vt -0.8955078 1.3144531
vt -0.9013672 1.3671875
vt -0.8808594 1.3671875
vt -0.86035156 1.3144531
vt -0.9013672 1.3671875
vt -0.86035156 1.3144531
vt -0.8647461 1.3144531
vt -0.9013672 1.3671875
vt -0.8647461 1.3144531
vt -0.8666992 1.3144531
vt -0.8808594 1.3671875
vt -0.859375 1.3671875
vt -0.8540039 1.3212891
vt -0.8808594 1.3671875
vt -0.8540039 1.3212891
vt -0.8540039 1.3144531
vt -0.8808594 1.3671875
vt -0.8540039 1.3144531
vt -0.86035156 1.3144531
vt -0.859375 1.3671875
vt -0.8540039 1.3251953
vt -0.8540039 1.3212891
vt -0.859375 1.3671875
vt -0.8588867 1.3671875
vt -0.8540039 1.3271484
vt -0.859375 1.3671875
vt -0.8540039 1.3271484
vt -0.8540039 1.3251953
vt -0.8588867 1.3671875
vt -0.85839844 1.3671875
vt -0.8540039 1.328125
vt -0.8588867 1.3671875
vt -0.8540039 1.328125
vt -0.8540039 1.3271484
vt -0.85839844 1.3671875
vt -0.8540039 1.3369141
vt -0.8540039 1.328125
vt -0.85839844 1.3671875
vt -0.8574219 1.3671875
vt -0.8540039 1.3427734
vt -0.85839844 1.3671875
vt -0.8540039 1.3427734
vt -0.8540039 1.3369141
vt -0.8574219 1.3671875
vt -0.85595703 1.3671875
vt -0.8540039 1.3505859
vt -0.8574219 1.3671875
vt -0.8540039 1.3505859
vt -0.8540039 1.3427734
vt -0.85595703 1.3671875
vt -0.85546875 1.3671875
vt -0.8540039 1.3535156
vt -0.85595703 1.3671875
vt -0.8540039 1.3535156
vt -0.8540039 1.3505859
vt -0.85546875 1.3671875
vt -0.8540039 1.3544922
vt -0.8540039 1.3535156
vt -0.85546875 1.3671875
vt -0.85498047 1.3671875
vt -0.8540039 1.3574219
vt -0.85546875 1.3671875
vt -0.8540039 1.3574219
vt -0.8540039 1.3544922
vt -0.85498047 1.3671875
vt -0.85498047 1.3671875
vt -0.8540039 1.3574219
vt -0.85498047 1.3671875
vt -0.8540039 1.3574219
vt -0.8540039 1.3574219
vt -0.90527344 1.3671875
vt -0.89941406 1.3144531
vt -0.89941406 1.3144531
vt -0.90527344 1.3671875
vt -0.90527344 1.3671875
vt -0.89941406 1.3144531
vt -0.90527344 1.3671875
vt -0.89941406 1.3144531
vt -0.89941406 1.3144531
vn -0.17382812 0.0070152283 -0.9848633
vn -0.16491699 0.0062026978 -0.9863281
vn -0.1763916 0.007247925 -0.984375
vn -0.17382812 0.0070152283 -0.9848633
vn -0.1763916 0.007247925 -0.984375
vn -0.17883301 0.007472992 -0.9838867
vn -0.16430664 0.006149292 -0.9863281
vn -0.15405273 0.005214691 -0.98779297
vn -0.17541504 0.007156372 -0.984375
vn -0.16430664 0.006149292 -0.9863281
vn -0.14868164 0.00472641 -0.98876953
vn -0.14868164 0.00472641 -0.98876953
vn -0.16430664 0.006149292 -0.9863281
vn -0.14868164 0.00472641 -0.98876953
vn -0.15405273 0.005214691 -0.98779297
vn -0.16491699 0.0062026978 -0.9863281
vn -0.17553711 0.0071754456 -0.984375
vn -0.1763916 0.007247925 -0.984375
vn -0.16491699 0.0062026978 -0.9863281
vn -0.16430664 0.006149292 -0.9863281
vn -0.17541504 0.007156372 -0.984375
vn -0.16491699 0.0062026978 -0.9863281
vn -0.17541504 0.007156372 -0.984375
vn -0.17553711 0.0071754456 -0.984375
vn -0.14868164 0.00472641 -0.98876953
vn -0.016784668 -0.0071640015 -0.9951172
vn -0.14868164 0.00472641 -0.98876953
vn -0.14868164 0.00472641 -0.98876953
vn -0.05203247 -0.0039863586 -0.99365234
vn 0.016281128 -0.010139465 -0.9970703
vn -0.14868164 0.00472641 -0.98876953
vn 0.016281128 -0.010139465 -0.9970703
vn -0.016784668 -0.0071640015 -0.9951172
vn -0.05203247 -0.0039863586 -0.99365234
vn 0.051757812 -0.013336182 -0.99853516
vn 0.051757812 -0.013336182 -0.99853516
vn -0.05203247 -0.0039863586 -0.99365234
vn 0.051757812 -0.013336182 -0.99853516
vn 0.016281128 -0.010139465 -0.9970703
vn 0.051757812 -0.013336182 -0.99853516
vn -0.23779297 0.013076782 -0.9477539
vn 0.051757812 -0.013336182 -0.99853516
vn 0.051757812 -0.013336182 -0.99853516
vn -0.16027832 0.006008148 -0.9614258
vn -0.3100586 0.01966858 -0.9350586
vn 0.051757812 -0.013336182 -0.99853516
vn -0.3100586 0.01966858 -0.9350586
vn -0.23779297 0.013076782 -0.9477539
vn -0.16027832 0.006008148 -0.9614258
vn -0.38720703 0.02671814 -0.9213867
vn -0.38720703 0.02671814 -0.9213867
vn -0.16027832 0.006008148 -0.9614258
vn -0.38720703 0.02671814 -0.9213867
vn -0.3100586 0.01966858 -0.9350586
vn -0.38720703 0.02671814 -0.9213867
vn -0.69873047 0.05831909 -0.5
vn -0.4934082 0.037475586 -0.77783203
vn -0.38720703 0.02671814 -0.9213867
vn -0.4934082 0.037475586 -0.77783203
vn -0.38720703 0.02671814 -0.9213867
vn -0.69873047 0.05831909 -0.5
vn -0.8911133 0.07788086 -0.23925781
vn -0.4934082 0.037475586 -0.77783203
vn -0.69873047 0.05831909 -0.5
vn -0.99072266 0.08795166 -0.10491943
vn -0.99072266 0.08795166 -0.10491943
vn -0.69873047 0.05831909 -0.5
vn -0.99072266 0.08795166 -0.10491943
vn -0.8911133 0.07788086 -0.23925781
vn 0.95947266 -0.08532715 -0.0029449463
vn 0.9589844 -0.08666992 -0.27026367
vn 0.9589844 -0.08666992 -0.27026367
vn 0.95947266 -0.08532715 -0.0029449463
vn 0.9589844 -0.08666992 -0.27026367
vn 0.95947266 -0.085510254 -0.033813477
vn 0.9589844 -0.08666992 -0.27026367
vn 0.5942383 -0.056030273 -0.62060547
vn 0.62158203 -0.05831909 -0.59472656
vn 0.9589844 -0.08666992 -0.27026367
vn 0.62158203 -0.05831909 -0.59472656
vn 0.9589844 -0.08666992 -0.27026367
vn 0.5942383 -0.056030273 -0.62060547
vn 0.56933594 -0.05392456 -0.64453125
vn 0.62158203 -0.05831909 -0.59472656
vn 0.5942383 -0.056030273 -0.62060547
vn 0.22668457 -0.025146484 -0.9736328
vn 0.22668457 -0.025146484 -0.9736328
vn 0.5942383 -0.056030273 -0.62060547
vn 0.22668457 -0.025146484 -0.9736328
vn 0.56933594 -0.05392456 -0.64453125
vn 0.22668457 -0.025146484 -0.9736328
vn 0.18579102 -0.021514893 -0.9736328
vn 0.22668457 -0.025146484 -0.9736328
vn 0.96728516 -0.09063721 -0.2368164
vn 0.59716797 -0.06512451 -0.6176758
vn 0.8383789 -0.081726074 -0.3696289
vn 0.96728516 -0.09063721 -0.2368164
vn 0.8383789 -0.081726074 -0.3696289
vn 0.96728516 -0.09063721 -0.2368164
vn 0.59716797 -0.06512451 -0.6176758
vn 0.37670898 -0.049957275 -0.84375
vn 0.8383789 -0.081726074 -0.3696289
vn 0.59716797 -0.06512451 -0.6176758
vn 0.25878906 -0.0418396 -0.96484375
vn 0.25878906 -0.0418396 -0.96484375
vn 0.59716797 -0.06512451 -0.6176758
vn 0.25878906 -0.0418396 -0.96484375
vn 0.37670898 -0.049957275 -0.84375
vn 0.25878906 -0.0418396 -0.96484375
vn 0.026290894 -0.021347046 -0.9741211
vn 0.17785645 -0.034698486 -0.9682617
vn 0.25878906 -0.0418396 -0.96484375
vn 0.17785645 -0.034698486 -0.9682617
vn 0.25878906 -0.0418396 -0.96484375
vn 0.026290894 -0.021347046 -0.9741211
vn -0.11279297 -0.009094238 -0.9794922
vn 0.17785645 -0.034698486 -0.9682617
vn 0.026290894 -0.021347046 -0.9741211
vn -0.18664551 -0.00258255 -0.9824219
vn -0.18664551 -0.00258255 -0.9824219
vn 0.026290894 -0.021347046 -0.9741211
vn -0.18664551 -0.00258255 -0.9824219
vn -0.11279297 -0.009094238 -0.9794922
vn -0.18664551 -0.00258255 -0.9824219
vn -0.08239746 -0.012023926 -0.99121094
vn -0.1505127 -0.0058555603 -0.98535156
vn -0.18664551 -0.00258255 -0.9824219
vn -0.1505127 -0.0058555603 -0.98535156
vn -0.18664551 -0.00258255 -0.9824219
vn -0.08239746 -0.012023926 -0.99121094
vn -0.019851685 -0.017684937 -0.9970703
vn -0.1505127 -0.0058555603 -0.98535156
vn -0.08239746 -0.012023926 -0.99121094
vn 0.013298035 -0.020690918 -0.9995117
vn 0.013298035 -0.020690918 -0.9995117
vn -0.08239746 -0.012023926 -0.99121094
vn 0.013298035 -0.020690918 -0.9995117
vn -0.019851685 -0.017684937 -0.9970703
vn 0.013298035 -0.020690918 -0.9995117
vn 0.036865234 -0.022781372 -0.99902344
vn 0.013298035 -0.020690918 -0.9995117
vn 0.013298035 -0.020690918 -0.9995117
vn 0.030258179 -0.02218628 -0.99902344
vn 0.04232788 -0.023254395 -0.99853516
vn 0.013298035 -0.020690918 -0.9995117
vn 0.04232788 -0.023254395 -0.99853516
vn 0.03845215 -0.022918701 -0.99902344
vn 0.013298035 -0.020690918 -0.9995117
vn 0.03845215 -0.022918701 -0.99902344
vn 0.036865234 -0.022781372 -0.99902344
vn 0.030258179 -0.02218628 -0.99902344
vn 0.048065186 -0.023757935 -0.99853516
vn 0.048065186 -0.023757935 -0.99853516
vn 0.030258179 -0.02218628 -0.99902344
vn 0.048065186 -0.023757935 -0.99853516
vn 0.0473938 -0.0236969 -0.99853516
vn 0.030258179 -0.02218628 -0.99902344
vn 0.0473938 -0.0236969 -0.99853516
vn 0.04232788 -0.023254395 -0.99853516
vn 0.048065186 -0.023757935 -0.99853516
vn 0.15478516 -0.032928467 -0.9824219
vn 0.048065186 -0.023757935 -0.99853516
vn 0.048065186 -0.023757935 -0.99853516
vn 0.14685059 -0.03225708 -0.98339844
vn 0.19836426 -0.03668213 -0.97558594
vn 0.048065186 -0.023757935 -0.99853516
vn 0.19836426 -0.03668213 -0.97558594
vn 0.15478516 -0.032928467 -0.9824219
vn 0.14685059 -0.03225708 -0.98339844
vn 0.24658203 -0.04083252 -0.9682617
vn 0.24658203 -0.04083252 -0.9682617
vn 0.14685059 -0.03225708 -0.98339844
vn 0.24658203 -0.04083252 -0.9682617
vn 0.19836426 -0.03668213 -0.97558594
vn 0.24658203 -0.04083252 -0.9682617
vn 0.074401855 -0.025604248 -0.97265625
vn 0.24658203 -0.04083252 -0.9682617
vn 0.24658203 -0.04083252 -0.9682617
vn 0.02444458 -0.0211792 -0.9741211
vn -0.044830322 -0.015060425 -0.9760742
vn 0.24658203 -0.04083252 -0.9682617
vn -0.044830322 -0.015060425 -0.9760742
vn 0.074401855 -0.025604248 -0.97265625
vn 0.02444458 -0.0211792 -0.9741211
vn -0.19909668 -0.0014257431 -0.97998047
vn -0.19909668 -0.0014257431 -0.97998047
vn 0.02444458 -0.0211792 -0.9741211
vn -0.19909668 -0.0014257431 -0.97998047
vn -0.044830322 -0.015060425 -0.9760742
vn -0.19909668 -0.0014257431 -0.97998047
vn -0.5756836 0.03869629 -0.63916016
vn -0.5102539 0.03173828 -0.6982422
vn -0.19909668 -0.0014257431 -0.97998047
vn -0.5102539 0.03173828 -0.6982422
vn -0.19909668 -0.0014257431 -0.97998047
vn -0.5756836 0.03869629 -0.63916016
vn -0.6352539 0.045043945 -0.5854492
vn -0.5102539 0.03173828 -0.6982422
vn -0.5756836 0.03869629 -0.63916016
vn -0.9506836 0.07867432 -0.29956055
vn -0.9506836 0.07867432 -0.29956055
vn -0.5756836 0.03869629 -0.63916016
vn -0.9506836 0.07867432 -0.29956055
vn -0.6352539 0.045043945 -0.5854492
vn -0.9506836 0.07867432 -0.29956055
vn -0.9589844 0.08465576 -0.031036377
vn -0.9580078 0.083984375 -0.062408447
vn -0.9506836 0.07867432 -0.29956055
vn -0.9580078 0.083984375 -0.062408447
vn -0.9506836 0.07867432 -0.29956055
vn 0.95947266 -0.0848999 0.019134521
vn 0.96435547 -0.08862305 -0.14758301
vn 0.9536133 -0.08087158 0.20178223
vn 0.95947266 -0.0848999 0.019134521
vn 0.96728516 -0.09063721 -0.2368164
vn 0.96728516 -0.09063721 -0.2368164
vn 0.95947266 -0.0848999 0.019134521
vn 0.96728516 -0.09063721 -0.2368164
vn 0.96435547 -0.08862305 -0.14758301
g DecalMesh_MainCity_Decal_Graffiti_18__53_0
f 3/3/3 2/2/2 1/1/1
f 6/6/6 5/5/5 4/4/4
f 9/9/9 8/8/8 7/7/7
f 12/12/12 11/11/11 10/10/10
f 15/15/15 14/14/14 13/13/13
f 18/18/18 17/17/17 16/16/16
f 21/21/21 20/20/20 19/19/19
f 24/24/24 23/23/23 22/22/22
f 27/27/27 26/26/26 25/25/25
f 30/30/30 29/29/29 28/28/28
f 33/33/33 32/32/32 31/31/31
f 36/36/36 35/35/35 34/34/34
f 39/39/39 38/38/38 37/37/37
f 42/42/42 41/41/41 40/40/40
f 45/45/45 44/44/44 43/43/43
f 48/48/48 47/47/47 46/46/46
f 51/51/51 50/50/50 49/49/49
f 54/54/54 53/53/53 52/52/52
f 57/57/57 56/56/56 55/55/55
f 60/60/60 59/59/59 58/58/58
f 63/63/63 62/62/62 61/61/61
f 66/66/66 65/65/65 64/64/64
f 69/69/69 68/68/68 67/67/67
f 72/72/72 71/71/71 70/70/70
f 75/75/75 74/74/74 73/73/73
f 78/78/78 77/77/77 76/76/76
f 81/81/81 80/80/80 79/79/79
f 84/84/84 83/83/83 82/82/82
f 87/87/87 86/86/86 85/85/85
f 90/90/90 89/89/89 88/88/88
f 93/93/93 92/92/92 91/91/91
f 96/96/96 95/95/95 94/94/94
f 99/99/99 98/98/98 97/97/97
f 102/102/102 101/101/101 100/100/100
f 105/105/105 104/104/104 103/103/103
f 108/108/108 107/107/107 106/106/106
f 111/111/111 110/110/110 109/109/109
f 114/114/114 113/113/113 112/112/112
f 117/117/117 116/116/116 115/115/115
f 120/120/120 119/119/119 118/118/118
f 123/123/123 122/122/122 121/121/121
f 126/126/126 125/125/125 124/124/124
f 129/129/129 128/128/128 127/127/127
f 132/132/132 131/131/131 130/130/130
f 135/135/135 134/134/134 133/133/133
f 138/138/138 137/137/137 136/136/136
f 141/141/141 140/140/140 139/139/139
f 144/144/144 143/143/143 142/142/142
f 147/147/147 146/146/146 145/145/145
f 150/150/150 149/149/149 148/148/148
f 153/153/153 152/152/152 151/151/151
f 156/156/156 155/155/155 154/154/154
f 159/159/159 158/158/158 157/157/157
f 162/162/162 161/161/161 160/160/160
f 165/165/165 164/164/164 163/163/163
f 168/168/168 167/167/167 166/166/166
f 171/171/171 170/170/170 169/169/169
f 174/174/174 173/173/173 172/172/172
f 177/177/177 176/176/176 175/175/175
f 180/180/180 179/179/179 178/178/178
f 183/183/183 182/182/182 181/181/181
f 186/186/186 185/185/185 184/184/184
f 189/189/189 188/188/188 187/187/187
f 192/192/192 191/191/191 190/190/190
f 195/195/195 194/194/194 193/193/193
f 198/198/198 197/197/197 196/196/196
f 201/201/201 200/200/200 199/199/199
f 204/204/204 203/203/203 202/202/202
f 207/207/207 206/206/206 205/205/205
f 210/210/210 209/209/209 208/208/208
f 213/213/213 212/212/212 211/211/211
f 216/216/216 215/215/215 214/214/214
f 219/219/219 218/218/218 217/217/217
