g DecalMesh_MetroArea_Decal_Ground_14__49
v 0.5000001 0.4999999 -0.12874857
v -0.50000006 0.4999999 -0.12874842
v -0.1786427 -0.4999999 -0.12874857
v 0.5000001 0.4999999 -0.12874857
v -0.1786427 -0.4999999 -0.12874857
v 0.50000006 -0.4999999 -0.12874867
v -0.50000006 0.4999999 -0.12874842
v -0.50000006 -0.49999997 -0.12874852
v -0.17864268 -0.5 -0.12874857
vt 0.8823242 0.62109375
vt 0.9970703 0.62109375
vt 0.95996094 0.5083008
vt 0.8823242 0.62109375
vt 0.95996094 0.5083008
vt 0.8823242 0.5083008
vt 0.9970703 0.62109375
vt 0.9970703 0.5083008
vt 0.95996094 0.5083008
vn -1.1920929E-07 -1.1920929E-07 -1
vn -1.1920929E-07 -1.1920929E-07 -1
vn -1.1920929E-07 -1.1920929E-07 -1
vn -1.1920929E-07 -1.1920929E-07 -1
vn -1.1920929E-07 -1.1920929E-07 -1
vn -1.1920929E-07 -1.1920929E-07 -1
vn -1.1920929E-07 -1.1920929E-07 -1
vn -1.1920929E-07 -1.1920929E-07 -1
vn -1.1920929E-07 -1.1920929E-07 -1
g DecalMesh_MetroArea_Decal_Ground_14__49_0
f 3/3/3 2/2/2 1/1/1
f 6/6/6 5/5/5 4/4/4
f 9/9/9 8/8/8 7/7/7
