g DecalMesh_Common_Decal_Sign_11__26
v -0.014890601 0.26559916 -0.43529996
v -0.27263498 -0.025406865 -0.4700265
v -0.04018988 -0.26559916 -0.45907733
v -0.014890601 0.26559916 -0.43529996
v -0.04018988 -0.26559916 -0.45907733
v 0.16385974 -0.26559916 -0.44092125
v -0.27263498 -0.025406865 -0.4700265
v -0.27263498 -0.26559916 -0.47976005
v -0.04018988 -0.26559916 -0.45907733
v -0.014890601 0.26559916 -0.43529996
v -0.27263498 0.26559916 -0.45823374
v -0.27263498 -0.025406865 -0.4700265
v 0.00051810034 0.26559916 -0.4339289
v 0.16968907 -0.26559916 -0.44040254
v 0.20264606 -0.2655992 -0.43747008
v 0.00051810034 0.26559916 -0.4339289
v -0.014890601 0.26559916 -0.43529996
v 0.16385974 -0.26559916 -0.44092125
v 0.00051810034 0.26559916 -0.4339289
v 0.16385974 -0.26559916 -0.44092125
v 0.16968907 -0.26559916 -0.44040254
v 0.27263498 0.19831122 -0.41908067
v 0.20729251 0.26559916 -0.421098
v 0.2558288 -0.26559916 -0.43416995
v 0.27263498 0.19831122 -0.41908067
v 0.2558288 -0.26559916 -0.43416995
v 0.27263498 -0.26559916 -0.43312708
v 0.20729251 0.26559916 -0.421098
v 0.00051810034 0.26559916 -0.4339289
v 0.20264606 -0.26559916 -0.43747008
v 0.20729251 0.26559916 -0.421098
v 0.20264606 -0.26559916 -0.43747008
v 0.2558288 -0.26559916 -0.43416995
v 0.27263498 0.19831122 -0.41908067
v 0.27263498 0.26559916 -0.4188339
v 0.20729251 0.26559916 -0.421098
vt -0.26416016 0.9448242
vt -0.23840332 0.91552734
vt -0.26171875 0.89160156
vt -0.26416016 0.9448242
vt -0.26171875 0.89160156
vt -0.28198242 0.89160156
vt -0.23840332 0.91552734
vt -0.23840332 0.89160156
vt -0.26171875 0.89160156
vt -0.26416016 0.9448242
vt -0.23840332 0.9448242
vt -0.23840332 0.91552734
vt -0.26586914 0.9448242
vt -0.28271484 0.89160156
vt -0.28588867 0.89160156
vt -0.26586914 0.9448242
vt -0.26416016 0.9448242
vt -0.28198242 0.89160156
vt -0.26586914 0.9448242
vt -0.28198242 0.89160156
vt -0.28271484 0.89160156
vt -0.29296875 0.9379883
vt -0.28637695 0.9448242
vt -0.29125977 0.89160156
vt -0.29296875 0.9379883
vt -0.29125977 0.89160156
vt -0.29296875 0.89160156
vt -0.28637695 0.9448242
vt -0.26586914 0.9448242
vt -0.28588867 0.89160156
vt -0.28637695 0.9448242
vt -0.28588867 0.89160156
vt -0.29125977 0.89160156
vt -0.29296875 0.9379883
vt -0.29296875 0.9448242
vt -0.28637695 0.9448242
vn 0.078552246 0.060180664 -0.9951172
vn 0.09686279 0.055145264 -0.99365234
vn 0.08862305 0.058380127 -0.9941406
vn 0.078552246 0.060180664 -0.9951172
vn 0.08862305 0.058380127 -0.9941406
vn 0.077941895 0.06173706 -0.9951172
vn 0.09686279 0.055145264 -0.99365234
vn 0.10083008 0.054534912 -0.99316406
vn 0.08862305 0.058380127 -0.9941406
vn 0.078552246 0.060180664 -0.9951172
vn 0.09210205 0.055908203 -0.9941406
vn 0.09686279 0.055145264 -0.99365234
vn 0.07775879 0.060424805 -0.9951172
vn 0.07757568 0.06185913 -0.9951172
vn 0.0758667 0.062408447 -0.9951172
vn 0.07775879 0.060424805 -0.9951172
vn 0.078552246 0.060180664 -0.9951172
vn 0.077941895 0.06173706 -0.9951172
vn 0.07775879 0.060424805 -0.9951172
vn 0.077941895 0.06173706 -0.9951172
vn 0.07757568 0.06185913 -0.9951172
vn 0.030303955 0.022521973 -0.99902344
vn 0.038146973 0.028427124 -0.9980469
vn 0.06567383 0.0541687 -0.99609375
vn 0.030303955 0.022521973 -0.99902344
vn 0.06567383 0.0541687 -0.99609375
vn 0.062469482 0.051574707 -0.99609375
vn 0.038146973 0.028427124 -0.9980469
vn 0.07775879 0.060424805 -0.9951172
vn 0.0758667 0.062408447 -0.9951172
vn 0.038146973 0.028427124 -0.9980469
vn 0.0758667 0.062408447 -0.9951172
vn 0.06567383 0.0541687 -0.99609375
vn 0.030303955 0.022521973 -0.99902344
vn 0.028289795 0.027938843 -0.99853516
vn 0.038146973 0.028427124 -0.9980469
g DecalMesh_Common_Decal_Sign_11__26_0
f 3/3/3 2/2/2 1/1/1
f 6/6/6 5/5/5 4/4/4
f 9/9/9 8/8/8 7/7/7
f 12/12/12 11/11/11 10/10/10
f 15/15/15 14/14/14 13/13/13
f 18/18/18 17/17/17 16/16/16
f 21/21/21 20/20/20 19/19/19
f 24/24/24 23/23/23 22/22/22
f 27/27/27 26/26/26 25/25/25
f 30/30/30 29/29/29 28/28/28
f 33/33/33 32/32/32 31/31/31
f 36/36/36 35/35/35 34/34/34
