g DecalMesh_MetroArea_Decal_Ground_16__4
v 0.0093688965 -0.99597394 -0.037424922
v 0.017642975 -0.5118049 -0.016410768
v 0.011882782 -0.5060485 -0.03742689
v 0.5157604 -0.5030921 -0.03742689
v 0.5099201 -0.50891715 -0.016410768
v 0.5114994 -0.99589765 -0.037424922
v -0.7793213 1.003 -0.037427235
v -1 1.003 -0.037427165
v -1 0.91128683 -0.037427194
v 0.025426323 1.003 -0.03742735
v -1 0.747216 -0.037427176
v -1 0.49083132 -0.037427146
v 0.025426323 1.003 -0.03742735
v -0.47057596 1.003 -0.03742728
v -1 0.8277575 -0.037427187
v 0.025426323 1.003 -0.03742735
v -1 0.8277575 -0.037427187
v -1 0.747216 -0.037427176
v -0.47057596 1.003 -0.03742728
v -0.7793213 1.003 -0.037427235
v -1 0.91128683 -0.037427194
v -0.47057596 1.003 -0.03742728
v -1 0.91128683 -0.037427194
v -1 0.8277575 -0.037427187
v 0.5977069 1.003 -0.03742743
v -1 0.38164985 -0.037427135
v -1 0.07127772 -0.037427094
v 0.5977069 1.003 -0.03742743
v 0.43477598 1.003 -0.037427407
v -1 0.40748116 -0.03742714
v 0.5977069 1.003 -0.03742743
v -1 0.40748116 -0.03742714
v -1 0.38164985 -0.037427135
v 0.4347759 1.0029999 -0.037427407
v 0.025426323 1.003 -0.03742735
v -1 0.49083132 -0.037427146
v 0.4347759 1.0029999 -0.037427407
v -1 0.49083132 -0.037427146
v -1 0.40748113 -0.03742714
v 0.5157604 -0.5030921 -0.03742689
v 1 -0.018780109 -0.037427064
v -1 -0.34400085 -0.03742695
v 0.5157604 -0.5030921 -0.03742689
v -1 -0.34400085 -0.03742695
v -1 -0.5039883 -0.03742689
v 1 -0.018780109 -0.037427064
v 1.0000001 1.003 -0.03742743
v -1 -0.006266539 -0.037427068
v 1 -0.018780109 -0.037427064
v -1 -0.006266539 -0.037427068
v -1 -0.34400085 -0.03742695
v 1.0000001 1.003 -0.03742743
v 0.5977069 1.003 -0.03742743
v -1 0.07127772 -0.037427094
v 1.0000001 1.003 -0.03742743
v -1 0.07127772 -0.037427094
v -1 -0.006266539 -0.037427068
v 0.011882782 -0.5060485 -0.03742689
v 0.5157604 -0.5030921 -0.03742689
v -1 -0.5039883 -0.03742689
v 0.011882782 -0.5060485 -0.03742689
v -1 -0.5039883 -0.03742689
v -1 -0.50530136 -0.03742689
v 0.011882782 -0.5060485 -0.03742689
v -1 -0.50530136 -0.03742689
v -1 -0.7607124 -0.03742686
v 0.0093688965 -0.99597394 -0.037424922
v 0.011882782 -0.5060485 -0.03742689
v -1 -0.7607124 -0.03742686
v 0.0093688965 -0.99597394 -0.037424922
v -1 -0.7607124 -0.03742686
v -1 -0.997 -0.03742591
v 0.0093688965 -0.99597394 -0.037424922
v -1 -0.997 -0.03742591
v -0.14518793 -0.997 -0.03742507
v 0.5157604 -0.5030921 -0.03742689
v 0.5114994 -0.99589765 -0.037424922
v 0.99999994 -0.43916646 -0.037425373
v 0.5157604 -0.5030921 -0.03742689
v 0.99999994 -0.43916646 -0.037425373
v 1 -0.018780109 -0.037427064
v 0.5114994 -0.99589765 -0.037424922
v 0.0093688965 -0.99597394 -0.037424922
v -0.14518793 -0.997 -0.03742507
v 0.5114994 -0.99589765 -0.037424922
v -0.14518793 -0.997 -0.03742507
v 0.26564476 -0.997 -0.03742508
v 0.5114994 -0.99589765 -0.037424922
v 0.2656448 -0.997 -0.03742508
v 0.30488515 -0.997 -0.03742508
v 0.5114994 -0.99589765 -0.037424922
v 0.017642975 -0.5118049 -0.016410768
v 0.0093688965 -0.99597394 -0.037424922
v 0.5114994 -0.99589765 -0.037424922
v 0.5099201 -0.50891715 -0.016410768
v 0.017642975 -0.5118049 -0.016410768
v 1 -0.4391664 -0.037425373
v 0.5114994 -0.99589765 -0.037424922
v 0.51204526 -0.997 -0.037424926
v 1 -0.4391664 -0.037425373
v 0.51204526 -0.997 -0.037424926
v 1 -0.9969999 -0.037425846
v 0.5114994 -0.99589765 -0.037424922
v 0.30488515 -0.997 -0.03742508
v 0.51203626 -0.997 -0.037424926
v 0.5114994 -0.99589765 -0.037424922
v 0.51203626 -0.997 -0.037424926
v 0.51204526 -0.997 -0.037424926
v 0.5099201 -0.50891715 -0.016410768
v 0.5157604 -0.5030921 -0.03742689
v 0.011882782 -0.5060485 -0.03742689
v 0.5099201 -0.50891715 -0.016410768
v 0.011882782 -0.5060485 -0.03742689
v 0.017642975 -0.5118049 -0.016410768
vt 0.20935059 0.41235352
vt 0.20874023 0.44604492
vt 0.20910645 0.4465332
vt 0.17419434 0.44677734
vt 0.17456055 0.44628906
vt 0.17443848 0.41235352
vt 0.26391602 0.5517578
vt 0.27929688 0.5517578
vt 0.27929688 0.54541016
vt 0.20812988 0.5517578
vt 0.27929688 0.5341797
vt 0.27929688 0.5161133
vt 0.20812988 0.5517578
vt 0.24255371 0.5517578
vt 0.27929688 0.5395508
vt 0.20812988 0.5517578
vt 0.27929688 0.5395508
vt 0.27929688 0.5341797
vt 0.24255371 0.5517578
vt 0.26391602 0.5517578
vt 0.27929688 0.54541016
vt 0.24255371 0.5517578
vt 0.27929688 0.54541016
vt 0.27929688 0.5395508
vt 0.16845703 0.5517578
vt 0.27929688 0.5083008
vt 0.27929688 0.4868164
vt 0.16845703 0.5517578
vt 0.17980957 0.5517578
vt 0.27929688 0.5102539
vt 0.16845703 0.5517578
vt 0.27929688 0.5102539
vt 0.27929688 0.5083008
vt 0.17980957 0.5517578
vt 0.20812988 0.5517578
vt 0.27929688 0.5161133
vt 0.17980957 0.5517578
vt 0.27929688 0.5161133
vt 0.27929688 0.5102539
vt 0.17419434 0.44677734
vt 0.140625 0.48046875
vt 0.27929688 0.45776367
vt 0.17419434 0.44677734
vt 0.27929688 0.45776367
vt 0.27929688 0.4465332
vt 0.140625 0.48046875
vt 0.140625 0.5517578
vt 0.27929688 0.4814453
vt 0.140625 0.48046875
vt 0.27929688 0.4814453
vt 0.27929688 0.45776367
vt 0.140625 0.5517578
vt 0.16845703 0.5517578
vt 0.27929688 0.4868164
vt 0.140625 0.5517578
vt 0.27929688 0.4868164
vt 0.27929688 0.4814453
vt 0.20910645 0.4465332
vt 0.17419434 0.44677734
vt 0.27929688 0.4465332
vt 0.20910645 0.4465332
vt 0.27929688 0.4465332
vt 0.27929688 0.4465332
vt 0.20910645 0.4465332
vt 0.27929688 0.4465332
vt 0.27929688 0.42871094
vt 0.20935059 0.41235352
vt 0.20910645 0.4465332
vt 0.27929688 0.42871094
vt 0.20935059 0.41235352
vt 0.27929688 0.42871094
vt 0.27929688 0.41210938
vt 0.20935059 0.41235352
vt 0.27929688 0.41210938
vt 0.2199707 0.41210938
vt 0.17419434 0.44677734
vt 0.17443848 0.41235352
vt 0.140625 0.45117188
vt 0.17419434 0.44677734
vt 0.140625 0.45117188
vt 0.140625 0.48046875
vt 0.17443848 0.41235352
vt 0.20935059 0.41235352
vt 0.2199707 0.41210938
vt 0.17443848 0.41235352
vt 0.2199707 0.41210938
vt 0.19152832 0.41210938
vt 0.17443848 0.41235352
vt 0.19152832 0.41210938
vt 0.18884277 0.41210938
vt 0.17443848 0.41235352
vt 0.20874023 0.44604492
vt 0.20935059 0.41235352
vt 0.17443848 0.41235352
vt 0.17456055 0.44628906
vt 0.20874023 0.44604492
vt 0.140625 0.45117188
vt 0.17443848 0.41235352
vt 0.17443848 0.41210938
vt 0.140625 0.45117188
vt 0.17443848 0.41210938
vt 0.140625 0.41210938
vt 0.17443848 0.41235352
vt 0.18884277 0.41210938
vt 0.17443848 0.41210938
vt 0.17443848 0.41235352
vt 0.17443848 0.41210938
vt 0.17443848 0.41210938
vt 0.17456055 0.44628906
vt 0.17419434 0.44677734
vt 0.20910645 0.4465332
vt 0.17456055 0.44628906
vt 0.20910645 0.4465332
vt 0.20874023 0.44604492
vn 0.9638672 -0.0049476624 -0.265625
vn 0.9638672 -0.0049476624 -0.265625
vn 0.9638672 -0.0049476624 -0.265625
vn -0.9638672 0.008331299 -0.265625
vn -0.9638672 0.008331299 -0.265625
vn -0.9638672 0.008331299 -0.265625
vn -2.9802322E-07 -0 -1
vn -2.9802322E-07 -0 -1
vn -2.9802322E-07 -0 -1
vn -2.9802322E-07 -1.1920929E-07 -1
vn -2.9802322E-07 -5.9604645E-08 -1
vn -2.9802322E-07 -1.1920929E-07 -1
vn -2.9802322E-07 -1.1920929E-07 -1
vn -2.9802322E-07 -5.9604645E-08 -1
vn -2.9802322E-07 -5.9604645E-08 -1
vn -2.9802322E-07 -1.1920929E-07 -1
vn -2.9802322E-07 -5.9604645E-08 -1
vn -2.9802322E-07 -5.9604645E-08 -1
vn -2.9802322E-07 -5.9604645E-08 -1
vn -2.9802322E-07 -0 -1
vn -2.9802322E-07 -0 -1
vn -2.9802322E-07 -5.9604645E-08 -1
vn -2.9802322E-07 -0 -1
vn -2.9802322E-07 -5.9604645E-08 -1
vn -5.364418E-07 -0.00089645386 -1
vn -3.5762787E-07 -0.0003426075 -1
vn -6.556511E-07 -0.0013160706 -1
vn -5.364418E-07 -0.00089645386 -1
vn -4.7683716E-07 -0.000641346 -1
vn -3.5762787E-07 -0.00026154518 -1
vn -5.364418E-07 -0.00089645386 -1
vn -3.5762787E-07 -0.00026154518 -1
vn -3.5762787E-07 -0.0003426075 -1
vn -4.7683716E-07 -0.000641346 -1
vn -2.9802322E-07 -1.1920929E-07 -1
vn -2.9802322E-07 -1.1920929E-07 -1
vn -4.7683716E-07 -0.000641346 -1
vn -2.9802322E-07 -1.1920929E-07 -1
vn -3.5762787E-07 -0.00026154518 -1
vn 3.5762787E-07 -8.34465E-07 -1
vn 2.9802322E-07 -7.1525574E-07 -1
vn -4.172325E-07 -0.0010547638 -1
vn 3.5762787E-07 -8.34465E-07 -1
vn -4.172325E-07 -0.0010547638 -1
vn -2.9802322E-07 -0.00095415115 -1
vn 2.9802322E-07 -7.1525574E-07 -1
vn -3.5762787E-07 -0.0006432533 -1
vn -5.9604645E-07 -0.0012674332 -1
vn 2.9802322E-07 -7.1525574E-07 -1
vn -5.9604645E-07 -0.0012674332 -1
vn -4.172325E-07 -0.0010547638 -1
vn -3.5762787E-07 -0.0006432533 -1
vn -5.364418E-07 -0.00089645386 -1
vn -6.556511E-07 -0.0013160706 -1
vn -3.5762787E-07 -0.0006432533 -1
vn -6.556511E-07 -0.0013160706 -1
vn -5.9604645E-07 -0.0012674332 -1
vn 5.364418E-07 -2.1457672E-06 -1
vn 3.5762787E-07 -8.34465E-07 -1
vn -2.9802322E-07 -0.00095415115 -1
vn 5.364418E-07 -2.1457672E-06 -1
vn -2.9802322E-07 -0.00095415115 -1
vn -1.1920929E-07 -0.0007982254 -1
vn 5.364418E-07 -2.1457672E-06 -1
vn -1.1920929E-07 -0.0007982254 -1
vn 2.3841858E-07 -1.1324883E-06 -1
vn -7.748604E-07 0.008422852 -1
vn 5.364418E-07 -2.1457672E-06 -1
vn 2.3841858E-07 -1.1324883E-06 -1
vn -7.748604E-07 0.008422852 -1
vn 2.3841858E-07 -1.1324883E-06 -1
vn -3.5762787E-07 0.0040664673 -1
vn -7.748604E-07 0.008422852 -1
vn -3.5762787E-07 0.0040664673 -1
vn -7.1525574E-07 0.0077705383 -1
vn 3.5762787E-07 -8.34465E-07 -1
vn -3.33786E-06 0.0009355545 -1
vn -2.9206276E-06 0.00080537796 -1
vn 3.5762787E-07 -8.34465E-07 -1
vn -2.9206276E-06 0.00080537796 -1
vn 2.9802322E-07 -7.1525574E-07 -1
vn -3.33786E-06 0.0009355545 -1
vn -7.748604E-07 0.008422852 -1
vn -7.1525574E-07 0.0077705383 -1
vn -3.33786E-06 0.0009355545 -1
vn -7.1525574E-07 0.0077705383 -1
vn -2.861023E-06 0.001461029 -1
vn -3.33786E-06 0.0009355545 -1
vn -2.861023E-06 0.001461029 -1
vn -3.0994415E-06 0.0008583069 -1
vn -3.33786E-06 0.0009355545 -1
vn -0.00012671947 0.04324341 -0.99902344
vn -7.748604E-07 0.008422852 -1
vn -3.33786E-06 0.0009355545 -1
vn -0.0002529621 0.043121338 -0.99902344
vn -0.00012671947 0.04324341 -0.99902344
vn -2.9206276E-06 0.00080537796 -1
vn -3.33786E-06 0.0009355545 -1
vn -3.33786E-06 0.00093460083 -1
vn -2.9206276E-06 0.00080537796 -1
vn -3.33786E-06 0.00093460083 -1
vn -2.026558E-06 0.0005207062 -1
vn -3.33786E-06 0.0009355545 -1
vn -3.0994415E-06 0.0008583069 -1
vn -3.33786E-06 0.00093460083 -1
vn -3.33786E-06 0.0009355545 -1
vn -3.33786E-06 0.00093460083 -1
vn -3.33786E-06 0.00093460083 -1
vn 0.005657196 -0.9638672 -0.265625
vn 0.005657196 -0.9638672 -0.265625
vn 0.005657196 -0.9638672 -0.265625
vn 0.005657196 -0.9638672 -0.265625
vn 0.005657196 -0.9638672 -0.265625
vn 0.005657196 -0.9638672 -0.265625
g DecalMesh_MetroArea_Decal_Ground_16__4_0
f 3/3/3 2/2/2 1/1/1
f 6/6/6 5/5/5 4/4/4
f 9/9/9 8/8/8 7/7/7
f 12/12/12 11/11/11 10/10/10
f 15/15/15 14/14/14 13/13/13
f 18/18/18 17/17/17 16/16/16
f 21/21/21 20/20/20 19/19/19
f 24/24/24 23/23/23 22/22/22
f 27/27/27 26/26/26 25/25/25
f 30/30/30 29/29/29 28/28/28
f 33/33/33 32/32/32 31/31/31
f 36/36/36 35/35/35 34/34/34
f 39/39/39 38/38/38 37/37/37
f 42/42/42 41/41/41 40/40/40
f 45/45/45 44/44/44 43/43/43
f 48/48/48 47/47/47 46/46/46
f 51/51/51 50/50/50 49/49/49
f 54/54/54 53/53/53 52/52/52
f 57/57/57 56/56/56 55/55/55
f 60/60/60 59/59/59 58/58/58
f 63/63/63 62/62/62 61/61/61
f 66/66/66 65/65/65 64/64/64
f 69/69/69 68/68/68 67/67/67
f 72/72/72 71/71/71 70/70/70
f 75/75/75 74/74/74 73/73/73
f 78/78/78 77/77/77 76/76/76
f 81/81/81 80/80/80 79/79/79
f 84/84/84 83/83/83 82/82/82
f 87/87/87 86/86/86 85/85/85
f 90/90/90 89/89/89 88/88/88
f 93/93/93 92/92/92 91/91/91
f 96/96/96 95/95/95 94/94/94
f 99/99/99 98/98/98 97/97/97
f 102/102/102 101/101/101 100/100/100
f 105/105/105 104/104/104 103/103/103
f 108/108/108 107/107/107 106/106/106
f 111/111/111 110/110/110 109/109/109
f 114/114/114 113/113/113 112/112/112
