g DecalMesh_MetroArea_Decal_Graffiti_20__25
v 1.1140422 0.81 -0.08745601
v -1.595 0.81000006 -0.087456584
v -1.5949999 -0.81 -0.08745656
v 1.1140422 0.81 -0.08745601
v -1.5949999 -0.81 -0.08745656
v -1.3370441 -0.81 -0.08745651
v 1.595 0.81 -0.087455906
v -1.2028003 -0.81000006 -0.08745648
v 1.595 -0.81000006 -0.08745588
v 1.595 0.81 -0.087455906
v 1.1140422 0.81 -0.08745601
v -1.3370441 -0.81 -0.08745651
v 1.595 0.81 -0.087455906
v -1.3370441 -0.81 -0.08745651
v -1.2912471 -0.81 -0.0874565
v 1.595 0.81 -0.087455906
v -1.2912471 -0.81 -0.0874565
v -1.2028003 -0.81000006 -0.08745648
vt 0.4555664 0.4621582
vt 0.65966797 0.4621582
vt 0.65966797 0.3251953
vt 0.4555664 0.4621582
vt 0.65966797 0.3251953
vt 0.640625 0.3251953
vt 0.4194336 0.4621582
vt 0.6303711 0.3251953
vt 0.4194336 0.3251953
vt 0.4194336 0.4621582
vt 0.4555664 0.4621582
vt 0.640625 0.3251953
vt 0.4194336 0.4621582
vt 0.640625 0.3251953
vt 0.63720703 0.3251953
vt 0.4194336 0.4621582
vt 0.63720703 0.3251953
vt 0.6303711 0.3251953
vn 1.1920929E-07 -0 -1
vn 1.1920929E-07 -0 -1
vn 1.1920929E-07 -0 -1
vn 1.1920929E-07 -0 -1
vn 1.1920929E-07 -0 -1
vn 1.1920929E-07 -0 -1
vn 1.1920929E-07 -0 -1
vn 1.1920929E-07 -0 -1
vn 1.1920929E-07 -0 -1
vn 1.1920929E-07 -0 -1
vn 1.1920929E-07 -0 -1
vn 1.1920929E-07 -0 -1
vn 1.1920929E-07 -0 -1
vn 1.1920929E-07 -0 -1
vn 1.1920929E-07 -0 -1
vn 1.1920929E-07 -0 -1
vn 1.1920929E-07 -0 -1
vn 1.1920929E-07 -0 -1
g DecalMesh_MetroArea_Decal_Graffiti_20__25_0
f 3/3/3 2/2/2 1/1/1
f 6/6/6 5/5/5 4/4/4
f 9/9/9 8/8/8 7/7/7
f 12/12/12 11/11/11 10/10/10
f 15/15/15 14/14/14 13/13/13
f 18/18/18 17/17/17 16/16/16
