g DecalMesh_MetroArea_Decal_Crack_05__5
v -5.739329 1.6900681 -0.007792192
v -5.739329 -1.7678393 -0.006490963
v -2.628181 -1.7678394 -0.0051562986
v -4.5832043 1.7738396 -0.0073277447
v -1.7363234 -1.7678392 -0.004773697
v -0.9971786 -1.7678394 -0.0044566076
v -4.5832043 1.7738396 -0.0073277447
v -5.7393284 1.7738392 -0.007823716
v -2.573597 -1.7678391 -0.0051328824
v -4.5832043 1.7738396 -0.0073277447
v -2.573597 -1.7678391 -0.0051328824
v -1.7363231 -1.7678397 -0.0047736964
v -5.7393284 1.7738392 -0.007823716
v -5.7393284 1.6900679 -0.007792192
v -2.628181 -1.7678392 -0.0051562986
v -5.7393284 1.7738392 -0.007823716
v -2.628181 -1.7678392 -0.0051562986
v -2.573597 -1.7678391 -0.0051328824
v -0.22958699 1.7738395 -0.005459759
v -4.5832043 1.7738396 -0.0073277447
v -0.9971789 -1.7678391 -0.004456608
v -0.22958699 1.7738395 -0.005459759
v -0.9971789 -1.7678391 -0.004456608
v 1.8440013 -1.7678392 -0.0032375567
v 1.3489205 1.7738395 -0.004782476
v 2.8741388 -1.7678396 -0.00279556
v 3.7515612 -1.7678393 -0.0024190887
v 1.3489205 1.7738395 -0.004782476
v -0.22958699 1.7738395 -0.005459759
v 1.8440013 -1.7678392 -0.0032375567
v 1.3489205 1.7738395 -0.004782476
v 1.8440013 -1.7678392 -0.0032375567
v 2.8741386 -1.7678392 -0.0027955603
v 2.7631588 1.7738392 -0.0041761673
v 1.3489205 1.7738395 -0.004782476
v 3.7515612 -1.7678396 -0.0024190885
v 2.7631588 1.7738392 -0.0041761673
v 3.7515612 -1.7678396 -0.0024190885
v 4.391861 -1.7678394 -0.002144581
v 5.7393284 -1.470753 -0.0016787421
v 4.027805 1.773839 -0.0036339916
v 4.9644322 -1.7678393 -0.0018991097
v 5.7393284 -1.470753 -0.0016787421
v 4.9644322 -1.7678393 -0.0018991097
v 5.7393284 -1.7678394 -0.0015668982
v 4.027805 1.773839 -0.0036339916
v 2.7631588 1.7738392 -0.0041761673
v 4.391861 -1.7678394 -0.002144581
v 4.027805 1.773839 -0.0036339916
v 4.391861 -1.7678394 -0.002144581
v 4.9644322 -1.7678393 -0.0018991097
v 5.7393284 -1.470753 -0.0016787421
v 4.777381 1.7738396 -0.003312162
v 4.027805 1.7738394 -0.0036339916
v 5.7393284 -1.470753 -0.0016787421
v 5.7393284 1.7738394 -0.0028991504
v 4.777381 1.7738396 -0.003312162
vt 0.48413086 0.42871094
vt 0.48413086 0.10290527
vt 0.3647461 0.10290527
vt 0.43969727 0.43676758
vt 0.3305664 0.10290527
vt 0.3022461 0.10290527
vt 0.43969727 0.43676758
vt 0.48413086 0.43676758
vt 0.36279297 0.10290527
vt 0.43969727 0.43676758
vt 0.36279297 0.10290527
vt 0.3305664 0.10290527
vt 0.48413086 0.43676758
vt 0.48413086 0.42871094
vt 0.3647461 0.10290527
vt 0.48413086 0.43676758
vt 0.3647461 0.10290527
vt 0.36279297 0.10290527
vt 0.27270508 0.43676758
vt 0.43969727 0.43676758
vt 0.3022461 0.10290527
vt 0.27270508 0.43676758
vt 0.3022461 0.10290527
vt 0.1932373 0.10290527
vt 0.21228027 0.43676758
vt 0.15368652 0.10290527
vt 0.12005615 0.10290527
vt 0.21228027 0.43676758
vt 0.27270508 0.43676758
vt 0.1932373 0.10290527
vt 0.21228027 0.43676758
vt 0.1932373 0.10290527
vt 0.15368652 0.10290527
vt 0.15795898 0.43676758
vt 0.21228027 0.43676758
vt 0.12005615 0.10290527
vt 0.15795898 0.43676758
vt 0.12005615 0.10290527
vt 0.09552002 0.10290527
vt 0.043823242 0.13085938
vt 0.10949707 0.43676758
vt 0.07354736 0.10290527
vt 0.043823242 0.13085938
vt 0.07354736 0.10290527
vt 0.043823242 0.10290527
vt 0.10949707 0.43676758
vt 0.15795898 0.43676758
vt 0.09552002 0.10290527
vt 0.10949707 0.43676758
vt 0.09552002 0.10290527
vt 0.07354736 0.10290527
vt 0.043823242 0.13085938
vt 0.08074951 0.43676758
vt 0.10949707 0.43676758
vt 0.043823242 0.13085938
vt 0.043823242 0.43676758
vt 0.08074951 0.43676758
vn 0.017562866 -0.0132369995 -0.9995117
vn 0.015472412 -0.009521484 -0.9995117
vn 0.014419556 -0.010520935 -0.9995117
vn 0.017227173 -0.013702393 -0.9995117
vn 0.014122009 -0.010810852 -0.9995117
vn 0.013870239 -0.011047363 -0.9995117
vn 0.017227173 -0.013702393 -0.9995117
vn 0.017608643 -0.013328552 -0.9995117
vn 0.014404297 -0.010536194 -0.9995117
vn 0.017227173 -0.013702393 -0.9995117
vn 0.014404297 -0.010536194 -0.9995117
vn 0.014122009 -0.010810852 -0.9995117
vn 0.017608643 -0.013328552 -0.9995117
vn 0.017562866 -0.0132369995 -0.9995117
vn 0.014419556 -0.010520935 -0.9995117
vn 0.017608643 -0.013328552 -0.9995117
vn 0.014419556 -0.010520935 -0.9995117
vn 0.014404297 -0.010536194 -0.9995117
vn 0.014282227 -0.016921997 -0.9995117
vn 0.017227173 -0.013702393 -0.9995117
vn 0.013870239 -0.011047363 -0.9995117
vn 0.014282227 -0.016921997 -0.9995117
vn 0.013870239 -0.011047363 -0.9995117
vn 0.011947632 -0.013145447 -0.9995117
vn 0.013214111 -0.018081665 -0.9995117
vn 0.011253357 -0.013900757 -0.9995117
vn 0.010658264 -0.014549255 -0.9995117
vn 0.013214111 -0.018081665 -0.9995117
vn 0.014282227 -0.016921997 -0.9995117
vn 0.011947632 -0.013145447 -0.9995117
vn 0.013214111 -0.018081665 -0.9995117
vn 0.011947632 -0.013145447 -0.9995117
vn 0.011253357 -0.013900757 -0.9995117
vn 0.010002136 -0.01626587 -0.9995117
vn 0.013214111 -0.018081665 -0.9995117
vn 0.010658264 -0.014549255 -0.9995117
vn 0.010002136 -0.01626587 -0.9995117
vn 0.010658264 -0.014549255 -0.9995117
vn 0.009208679 -0.013725281 -0.9995117
vn 0.005908966 -0.012039185 -1
vn 0.007133484 -0.014640808 -0.9995117
vn 0.007911682 -0.012992859 -0.9995117
vn 0.005908966 -0.012039185 -1
vn 0.007911682 -0.012992859 -0.9995117
vn 0.0061531067 -0.012001038 -1
vn 0.007133484 -0.014640808 -0.9995117
vn 0.010002136 -0.01626587 -0.9995117
vn 0.009208679 -0.013725281 -0.9995117
vn 0.007133484 -0.014640808 -0.9995117
vn 0.009208679 -0.013725281 -0.9995117
vn 0.007911682 -0.012992859 -0.9995117
vn 0.005908966 -0.012039185 -1
vn 0.007194519 -0.014953613 -0.9995117
vn 0.007133484 -0.014640808 -0.9995117
vn 0.005908966 -0.012039185 -1
vn 0.0072669983 -0.015357971 -0.9995117
vn 0.007194519 -0.014953613 -0.9995117
g DecalMesh_MetroArea_Decal_Crack_05__5_0
f 3/3/3 2/2/2 1/1/1
f 6/6/6 5/5/5 4/4/4
f 9/9/9 8/8/8 7/7/7
f 12/12/12 11/11/11 10/10/10
f 15/15/15 14/14/14 13/13/13
f 18/18/18 17/17/17 16/16/16
f 21/21/21 20/20/20 19/19/19
f 24/24/24 23/23/23 22/22/22
f 27/27/27 26/26/26 25/25/25
f 30/30/30 29/29/29 28/28/28
f 33/33/33 32/32/32 31/31/31
f 36/36/36 35/35/35 34/34/34
f 39/39/39 38/38/38 37/37/37
f 42/42/42 41/41/41 40/40/40
f 45/45/45 44/44/44 43/43/43
f 48/48/48 47/47/47 46/46/46
f 51/51/51 50/50/50 49/49/49
f 54/54/54 53/53/53 52/52/52
f 57/57/57 56/56/56 55/55/55
