g DecalMesh_MetroArea_Decal_Graffiti_06__71
v 0.5909766 -0.13034365 -0.046283722
v -0.5909766 0.5985777 -0.046283722
v -0.5909766 -0.45787585 -0.046283722
v 0.5909766 -0.13034365 -0.046283722
v 0.5909766 0.44789937 -0.046283722
v -0.5909766 0.9794896 -0.046283722
v 0.5909766 -0.13034365 -0.046283722
v -0.5909766 0.9794896 -0.046283722
v -0.5909766 0.8236417 -0.046283722
v 0.5909766 -0.13034365 -0.046283722
v -0.5909766 0.8236417 -0.046283722
v -0.5909766 0.5985777 -0.046283722
v 0.5909766 0.44789937 -0.046283722
v 0.5906416 1.1756265 -0.046283722
v -0.5909766 1.1756265 -0.046283722
v 0.5909766 0.44789937 -0.046283722
v -0.5909766 1.1756265 -0.046283722
v -0.5909766 0.9794896 -0.046283722
v 0.5909766 0.44789937 -0.046283722
v 0.5909766 1.1756265 -0.046283722
v 0.5906416 1.1756265 -0.046283722
v 0.5909766 -0.13034365 -0.033298552
v -0.5909766 -0.45787585 -0.039053686
v -0.5909766 -0.45787585 -0.014005886
v 0.5909766 -0.13034365 -0.033298552
v 0.5909766 -0.13034365 -0.046283722
v -0.5909766 -0.45787585 -0.046283722
v 0.5909766 -0.13034365 -0.033298552
v -0.5909766 -0.45787585 -0.046283722
v -0.5909766 -0.45787585 -0.039053686
v 0.59097654 -0.13034366 0.010231018
v 0.59097654 -0.13034366 -0.033298552
v -0.5909766 -0.45787585 -0.014005886
v 0.59097654 -0.13034366 0.010231018
v -0.5909766 -0.45787585 -0.014005886
v -0.5909766 -0.45787585 0.010231018
v 0.5909766 -1.0547154 -0.046283722
v -0.5909766 -0.9727102 -0.046283722
v -0.5909766 -1.1696264 -0.046283722
v 0.5909766 -1.0547154 -0.046283722
v -0.5909766 -1.1696264 -0.046283722
v 0.51109165 -1.1696265 -0.046283722
v 0.5909766 -1.0547154 -0.046283722
v 0.5909766 -0.13071968 -0.046283722
v -0.5909766 -0.4582519 -0.046283722
v 0.5909766 -1.0547154 -0.046283722
v -0.5909766 -0.4582519 -0.046283722
v -0.5909766 -0.9727102 -0.046283722
v 0.59097666 -1.0547153 -0.046283722
v 0.5110916 -1.1696265 -0.046283722
v 0.59097666 -1.1696265 -0.046283722
v 0.5909766 -0.13071968 -0.046283722
v -0.5909766 -0.4582519 -0.021235012
v -0.5909766 -0.4582519 -0.046283722
v 0.5909766 -0.13071968 -0.046283722
v 0.5909766 -0.13071968 -0.033296973
v -0.5909766 -0.4582519 -0.014004306
v 0.5909766 -0.13071968 -0.046283722
v -0.5909766 -0.4582519 -0.014004306
v -0.5909766 -0.4582519 -0.021235012
v 0.59097666 -0.13071965 -0.033296976
v 0.59097666 -0.13071965 0.010231018
v -0.59097654 -0.45825186 0.010231018
v 0.59097666 -0.13071965 -0.033296976
v -0.59097654 -0.45825186 0.010231018
v -0.59097654 -0.45825186 -0.014004309
v 0.5909766 0.7995132 0.0033950806
v 0.49929032 1.1756265 0.0033950806
v -0.59097654 0.7214821 0.0033950806
v 0.5909766 0.7995132 0.0033950806
v -0.59097654 0.7214821 0.0033950806
v -0.5909766 0.471981 0.0033950806
v 0.49929032 1.1756265 0.0033950806
v -0.5909766 1.1756265 0.0033950806
v -0.5909766 0.7214821 0.0033950806
v 0.5909766 0.7995132 0.0033950806
v 0.5909766 1.1756265 0.0033950806
v 0.49929032 1.1756265 0.0033950806
v 0.5909766 0.7995132 0.07513046
v 0.5181016 1.1756265 0.07513046
v -0.59097666 0.7166446 0.07513046
v 0.5909766 0.7995132 0.07513046
v -0.59097666 0.7166446 0.07513046
v -0.5909766 0.471981 0.07513046
v 0.5181016 1.1756265 0.07513046
v -0.59097666 1.1756265 0.07513046
v -0.5909766 0.71664464 0.07513046
v 0.5909766 0.7995132 0.07513046
v 0.5909766 1.1756265 0.07513046
v 0.5181016 1.1756265 0.07513046
v 0.5909766 0.6277128 0.0033950806
v -0.59097666 0.3687521 0.0033950806
v -0.59097654 -1.1696265 0.0033950806
v 0.5909766 0.6277128 0.0033950806
v -0.59097654 -1.1696265 0.0033950806
v -0.34464893 -1.1696265 0.0033950806
v 0.5909766 0.6277128 0.0033950806
v 0.5909766 0.7999922 0.0033950806
v -0.59097654 0.47245997 0.0033950806
v 0.5909766 0.6277128 0.0033950806
v -0.59097654 0.47245997 0.0033950806
v -0.59097654 0.3687521 0.0033950806
v 0.5909766 0.6277127 0.0033950806
v -0.34464896 -1.1696265 0.0033950806
v 0.5909766 -1.1696265 0.0033950806
v -0.5909766 -0.9425856 0.07513046
v -0.5909766 -1.1696265 0.07513046
v 0.06859263 -1.1696265 0.07513046
v 0.5909766 -1.016739 0.07513046
v -0.59097654 -0.7465976 0.07513046
v 0.23842178 -1.1696265 0.07513046
v 0.5909766 -1.016739 0.07513046
v 0.23842178 -1.1696265 0.07513046
v 0.5909766 -1.1696265 0.07513046
v -0.59097654 -0.7465976 0.07513046
v -0.59097654 -0.94258565 0.07513046
v 0.06859265 -1.1696265 0.07513046
v -0.59097654 -0.7465976 0.07513046
v 0.06859265 -1.1696265 0.07513046
v 0.23842178 -1.1696265 0.07513046
v 0.59097666 -1.0167391 0.07513046
v 0.59097654 0.4377144 0.07513046
v -0.59097654 0.110182226 0.07513046
v 0.59097666 -1.0167391 0.07513046
v -0.59097654 0.110182226 0.07513046
v -0.59097666 -0.74659765 0.07513046
v 0.5909766 0.4377144 0.07513046
v -0.59097666 0.25437787 0.07513046
v -0.5909766 0.1101822 0.07513046
v 0.5909766 0.4377144 0.07513046
v 0.5909766 0.4603634 0.07513046
v -0.59097654 0.268012 0.07513046
v 0.5909766 0.4377144 0.07513046
v -0.59097654 0.268012 0.07513046
v -0.59097654 0.25437787 0.07513046
v 0.59097654 0.4603634 0.07513046
v 0.5909766 0.7999922 0.07513046
v -0.59097654 0.47245997 0.07513046
v 0.59097654 0.4603634 0.07513046
v -0.59097654 0.47245997 0.07513046
v -0.5909766 0.268012 0.07513046
vt 0.2590332 0.68115234
vt 0.31811523 0.7363281
vt 0.31811523 0.65625
vt 0.2590332 0.68115234
vt 0.2590332 0.7246094
vt 0.31811523 0.7651367
vt 0.2590332 0.68115234
vt 0.31811523 0.7651367
vt 0.31811523 0.75341797
vt 0.2590332 0.68115234
vt 0.31811523 0.75341797
vt 0.31811523 0.7363281
vt 0.2590332 0.7246094
vt 0.2590332 0.77978516
vt 0.31811523 0.77978516
vt 0.2590332 0.7246094
vt 0.31811523 0.77978516
vt 0.31811523 0.7651367
vt 0.2590332 0.7246094
vt 0.2590332 0.77978516
vt 0.2590332 0.77978516
vt 0.2590332 0.68115234
vt 0.31811523 0.65625
vt 0.31811523 0.65625
vt 0.2590332 0.68115234
vt 0.2590332 0.68115234
vt 0.31811523 0.65625
vt 0.2590332 0.68115234
vt 0.31811523 0.65625
vt 0.31811523 0.65625
vt 0.2590332 0.68115234
vt 0.2590332 0.68115234
vt 0.31811523 0.65625
vt 0.2590332 0.68115234
vt 0.31811523 0.65625
vt 0.31811523 0.65625
vt 0.2590332 0.6113281
vt 0.31811523 0.6176758
vt 0.31811523 0.60253906
vt 0.2590332 0.6113281
vt 0.31811523 0.60253906
vt 0.2631836 0.60253906
vt 0.2590332 0.6113281
vt 0.2590332 0.68115234
vt 0.31811523 0.65625
vt 0.2590332 0.6113281
vt 0.31811523 0.65625
vt 0.31811523 0.6176758
vt 0.2590332 0.6113281
vt 0.2631836 0.60253906
vt 0.2590332 0.60253906
vt 0.2590332 0.68115234
vt 0.31811523 0.65625
vt 0.31811523 0.65625
vt 0.2590332 0.68115234
vt 0.2590332 0.68115234
vt 0.31811523 0.65625
vt 0.2590332 0.68115234
vt 0.31811523 0.65625
vt 0.31811523 0.65625
vt 0.2590332 0.68115234
vt 0.2590332 0.68115234
vt 0.31811523 0.65625
vt 0.2590332 0.68115234
vt 0.31811523 0.65625
vt 0.31811523 0.65625
vt 0.2590332 0.75146484
vt 0.26367188 0.77978516
vt 0.31811523 0.74560547
vt 0.2590332 0.75146484
vt 0.31811523 0.74560547
vt 0.31811523 0.7265625
vt 0.26367188 0.77978516
vt 0.31811523 0.77978516
vt 0.31811523 0.74560547
vt 0.2590332 0.75146484
vt 0.2590332 0.77978516
vt 0.26367188 0.77978516
vt 0.2590332 0.75146484
vt 0.2626953 0.77978516
vt 0.31811523 0.7451172
vt 0.2590332 0.75146484
vt 0.31811523 0.7451172
vt 0.31811523 0.7265625
vt 0.2626953 0.77978516
vt 0.31811523 0.77978516
vt 0.31811523 0.7451172
vt 0.2590332 0.75146484
vt 0.2590332 0.77978516
vt 0.2626953 0.77978516
vt 0.2590332 0.73828125
vt 0.31811523 0.71875
vt 0.31811523 0.60253906
vt 0.2590332 0.73828125
vt 0.31811523 0.60253906
vt 0.3059082 0.60253906
vt 0.2590332 0.73828125
vt 0.2590332 0.75146484
vt 0.31811523 0.7265625
vt 0.2590332 0.73828125
vt 0.31811523 0.7265625
vt 0.31811523 0.71875
vt 0.2590332 0.73828125
vt 0.3059082 0.60253906
vt 0.2590332 0.60253906
vt 0.31811523 0.6196289
vt 0.31811523 0.60253906
vt 0.28515625 0.60253906
vt 0.2590332 0.6142578
vt 0.31811523 0.6347656
vt 0.27685547 0.60253906
vt 0.2590332 0.6142578
vt 0.27685547 0.60253906
vt 0.2590332 0.60253906
vt 0.31811523 0.6347656
vt 0.31811523 0.6196289
vt 0.28515625 0.60253906
vt 0.31811523 0.6347656
vt 0.28515625 0.60253906
vt 0.27685547 0.60253906
vt 0.2590332 0.6142578
vt 0.2590332 0.7241211
vt 0.31811523 0.69921875
vt 0.2590332 0.6142578
vt 0.31811523 0.69921875
vt 0.31811523 0.6347656
vt 0.2590332 0.7241211
vt 0.31811523 0.7104492
vt 0.31811523 0.69921875
vt 0.2590332 0.7241211
vt 0.2590332 0.72558594
vt 0.31811523 0.7114258
vt 0.2590332 0.7241211
vt 0.31811523 0.7114258
vt 0.31811523 0.7104492
vt 0.2590332 0.72558594
vt 0.2590332 0.75146484
vt 0.31811523 0.7265625
vt 0.2590332 0.72558594
vt 0.31811523 0.7265625
vt 0.31811523 0.7114258
vn 1.7881393E-07 5.9604645E-08 -1
vn 1.7881393E-07 5.9604645E-08 -1
vn 1.7881393E-07 5.9604645E-08 -1
vn 1.7881393E-07 5.9604645E-08 -1
vn 1.7881393E-07 5.9604645E-08 -1
vn 1.7881393E-07 5.9604645E-08 -1
vn 1.7881393E-07 5.9604645E-08 -1
vn 1.7881393E-07 5.9604645E-08 -1
vn 1.7881393E-07 5.9604645E-08 -1
vn 1.7881393E-07 5.9604645E-08 -1
vn 1.7881393E-07 5.9604645E-08 -1
vn 1.7881393E-07 5.9604645E-08 -1
vn 1.7881393E-07 5.9604645E-08 -1
vn 1.7881393E-07 5.9604645E-08 -1
vn 1.7881393E-07 5.9604645E-08 -1
vn 1.7881393E-07 5.9604645E-08 -1
vn 1.7881393E-07 5.9604645E-08 -1
vn 1.7881393E-07 5.9604645E-08 -1
vn 1.7881393E-07 5.9604645E-08 -1
vn 1.7881393E-07 5.9604645E-08 -1
vn 1.7881393E-07 5.9604645E-08 -1
vn 0.26708984 -0.9638672 0
vn 0.26708984 -0.9638672 0
vn 0.26708984 -0.9638672 0
vn 0.26708984 -0.9638672 0
vn 0.26708984 -0.9638672 0
vn 0.26708984 -0.9638672 0
vn 0.26708984 -0.9638672 0
vn 0.26708984 -0.9638672 0
vn 0.26708984 -0.9638672 0
vn 0.26708984 -0.9638672 0
vn 0.26708984 -0.9638672 0
vn 0.26708984 -0.9638672 0
vn 0.26708984 -0.9638672 0
vn 0.26708984 -0.9638672 0
vn 0.26708984 -0.9638672 0
vn 1.7881393E-07 5.9604645E-08 -1
vn 1.7881393E-07 5.9604645E-08 -1
vn 1.7881393E-07 5.9604645E-08 -1
vn 1.7881393E-07 5.9604645E-08 -1
vn 1.7881393E-07 5.9604645E-08 -1
vn 1.7881393E-07 5.9604645E-08 -1
vn 1.7881393E-07 5.9604645E-08 -1
vn 1.7881393E-07 5.9604645E-08 -1
vn 1.7881393E-07 5.9604645E-08 -1
vn 1.7881393E-07 5.9604645E-08 -1
vn 1.7881393E-07 5.9604645E-08 -1
vn 1.7881393E-07 5.9604645E-08 -1
vn 1.7881393E-07 5.9604645E-08 -1
vn 1.7881393E-07 5.9604645E-08 -1
vn 1.7881393E-07 5.9604645E-08 -1
vn -0.26708984 0.9638672 0
vn -0.26708984 0.9638672 0
vn -0.26708984 0.9638672 0
vn -0.26708984 0.9638672 0
vn -0.26708984 0.9638672 0
vn -0.26708984 0.9638672 0
vn -0.26708984 0.9638672 0
vn -0.26708984 0.9638672 0
vn -0.26708984 0.9638672 0
vn -0.26708984 0.9638672 0
vn -0.26708984 0.9638672 0
vn -0.26708984 0.9638672 0
vn -0.26708984 0.9638672 0
vn -0.26708984 0.9638672 0
vn -0.26708984 0.9638672 0
vn -0 0 -1
vn -0 0 -1
vn -0 0 -1
vn -0 0 -1
vn -0 0 -1
vn -0 0 -1
vn -0 0 -1
vn -0 0 -1
vn -0 0 -1
vn -0 0 -1
vn -0 0 -1
vn -0 0 -1
vn -0 0 -1
vn -0 0 -1
vn -0 0 -1
vn -0 0 -1
vn -0 0 -1
vn -0 0 -1
vn -0 0 -1
vn -0 0 -1
vn -0 0 -1
vn -0 0 -1
vn -0 0 -1
vn -0 0 -1
vn -0 0 -1
vn -0 0 -1
vn -0 0 -1
vn -0 0 -1
vn -0 0 -1
vn -0 0 -1
vn -0 0 -1
vn -0 0 -1
vn -0 0 -1
vn -0 0 -1
vn -0 0 -1
vn -0 0 -1
vn -0 0 -1
vn -0 0 -1
vn -0 0 -1
vn -0 0 -1
vn -0 0 -1
vn -0 0 -1
vn -0 0 -1
vn -0 0 -1
vn -0 0 -1
vn -0 0 -1
vn -0 0 -1
vn -0 0 -1
vn -0 0 -1
vn -0 0 -1
vn -0 0 -1
vn -0 0 -1
vn -0 0 -1
vn -0 0 -1
vn -0 0 -1
vn -0 0 -1
vn -0 0 -1
vn -0 0 -1
vn -0 0 -1
vn -0 0 -1
vn -0 0 -1
vn -0 0 -1
vn -0 0 -1
vn -0 0 -1
vn -0 0 -1
vn -0 0 -1
vn -0 0 -1
vn -0 0 -1
vn -0 0 -1
vn -0 0 -1
vn -0 0 -1
vn -0 0 -1
vn -0 0 -1
vn -0 0 -1
vn -0 0 -1
g DecalMesh_MetroArea_Decal_Graffiti_06__71_0
f 3/3/3 2/2/2 1/1/1
f 6/6/6 5/5/5 4/4/4
f 9/9/9 8/8/8 7/7/7
f 12/12/12 11/11/11 10/10/10
f 15/15/15 14/14/14 13/13/13
f 18/18/18 17/17/17 16/16/16
f 21/21/21 20/20/20 19/19/19
f 24/24/24 23/23/23 22/22/22
f 27/27/27 26/26/26 25/25/25
f 30/30/30 29/29/29 28/28/28
f 33/33/33 32/32/32 31/31/31
f 36/36/36 35/35/35 34/34/34
f 39/39/39 38/38/38 37/37/37
f 42/42/42 41/41/41 40/40/40
f 45/45/45 44/44/44 43/43/43
f 48/48/48 47/47/47 46/46/46
f 51/51/51 50/50/50 49/49/49
f 54/54/54 53/53/53 52/52/52
f 57/57/57 56/56/56 55/55/55
f 60/60/60 59/59/59 58/58/58
f 63/63/63 62/62/62 61/61/61
f 66/66/66 65/65/65 64/64/64
f 69/69/69 68/68/68 67/67/67
f 72/72/72 71/71/71 70/70/70
f 75/75/75 74/74/74 73/73/73
f 78/78/78 77/77/77 76/76/76
f 81/81/81 80/80/80 79/79/79
f 84/84/84 83/83/83 82/82/82
f 87/87/87 86/86/86 85/85/85
f 90/90/90 89/89/89 88/88/88
f 93/93/93 92/92/92 91/91/91
f 96/96/96 95/95/95 94/94/94
f 99/99/99 98/98/98 97/97/97
f 102/102/102 101/101/101 100/100/100
f 105/105/105 104/104/104 103/103/103
f 108/108/108 107/107/107 106/106/106
f 111/111/111 110/110/110 109/109/109
f 114/114/114 113/113/113 112/112/112
f 117/117/117 116/116/116 115/115/115
f 120/120/120 119/119/119 118/118/118
f 123/123/123 122/122/122 121/121/121
f 126/126/126 125/125/125 124/124/124
f 129/129/129 128/128/128 127/127/127
f 132/132/132 131/131/131 130/130/130
f 135/135/135 134/134/134 133/133/133
f 138/138/138 137/137/137 136/136/136
f 141/141/141 140/140/140 139/139/139
