g DecalMesh_MetroArea_Decal_Ground_07__28
v 0.2777346 0.97098434 -0.4650533
v 0.032353684 1.6036402 -0.46091384
v -0.27773464 0.69290286 -0.46687272
v 0.2777346 0.97098434 -0.4650533
v -0.27773464 0.69290286 -0.46687272
v -0.27773464 0.41552395 -0.46868762
v 0.032353684 1.6036402 -0.46091384
v -0.27773464 1.6036402 -0.4609138
v -0.27773464 0.69290286 -0.46687272
v 0.2777346 0.97098434 -0.4650533
v 0.2777346 1.6036401 -0.46091384
v 0.032353703 1.6036402 -0.46091384
v 0.2777346 0.27233547 -0.46639436
v 0.2777346 0.97098434 -0.4650533
v -0.27773464 0.41552395 -0.46868762
v 0.2777346 0.27233547 -0.46639436
v -0.27773464 0.41552395 -0.46868762
v -0.27773464 0.27233037 -0.46896246
v 0.2777347 -1.529005 -0.44326687
v -0.27773464 -0.09686849 -0.44326687
v -0.27773464 -1.59764 -0.44326687
v 0.2777347 -1.529005 -0.44326687
v -0.27773464 -1.59764 -0.44326687
v 0.20909974 -1.59764 -0.44326687
v 0.2777347 -1.529005 -0.44326687
v 0.2777346 0.27232906 -0.44326687
v -0.27773464 0.27232906 -0.44326687
v 0.2777347 -1.529005 -0.44326687
v -0.27773464 0.27232906 -0.44326687
v -0.27773464 -0.09686849 -0.44326687
v 0.27773464 -1.5290052 -0.44326687
v 0.20909978 -1.59764 -0.44326687
v 0.27773464 -1.59764 -0.44326687
v 0.2777346 0.27232906 -0.44326687
v -0.27773467 0.27232906 -0.4642223
v -0.27773467 0.27232906 -0.44326687
v 0.2777346 0.27232906 -0.44326687
v 0.2777346 0.27232906 -0.46225843
v -0.27773464 0.27232906 -0.4681148
v 0.2777346 0.27232906 -0.44326687
v -0.27773464 0.27232906 -0.4681148
v -0.27773464 0.27232906 -0.4642223
v 0.2777346 0.27232906 -0.46225843
v 0.2777346 0.27233547 -0.46639436
v -0.27773464 0.27233037 -0.46896246
v 0.2777346 0.27232906 -0.46225843
v -0.27773464 0.27233037 -0.46896246
v -0.27773464 0.27232906 -0.4681148
vt 0.44995117 0.68408203
vt 0.4663086 0.7260742
vt 0.48706055 0.66552734
vt 0.44995117 0.68408203
vt 0.48706055 0.66552734
vt 0.48706055 0.64697266
vt 0.4663086 0.7260742
vt 0.48706055 0.7260742
vt 0.48706055 0.66552734
vt 0.44995117 0.68408203
vt 0.44995117 0.7260742
vt 0.4663086 0.7260742
vt 0.44995117 0.63720703
vt 0.44995117 0.68408203
vt 0.48706055 0.64697266
vt 0.44995117 0.63720703
vt 0.48706055 0.64697266
vt 0.48706055 0.63720703
vt 0.44995117 0.51708984
vt 0.48706055 0.61279297
vt 0.48706055 0.5126953
vt 0.44995117 0.51708984
vt 0.48706055 0.5126953
vt 0.45458984 0.5126953
vt 0.44995117 0.51708984
vt 0.44995117 0.63720703
vt 0.48706055 0.63720703
vt 0.44995117 0.51708984
vt 0.48706055 0.63720703
vt 0.48706055 0.61279297
vt 0.44995117 0.51708984
vt 0.45458984 0.5126953
vt 0.44995117 0.5126953
vt 0.44995117 0.63720703
vt 0.48706055 0.63720703
vt 0.48706055 0.63720703
vt 0.44995117 0.63720703
vt 0.44995117 0.63720703
vt 0.48706055 0.63720703
vt 0.44995117 0.63720703
vt 0.48706055 0.63720703
vt 0.48706055 0.63720703
vt 0.44995117 0.63720703
vt 0.44995117 0.63720703
vt 0.48706055 0.63720703
vt 0.44995117 0.63720703
vt 0.48706055 0.63720703
vt 0.48706055 0.63720703
vn 0.0023117065 0.0042304993 -1
vn 0.0023117065 0.0042304993 -1
vn 0.0023117065 0.0042304993 -1
vn 0.0023117065 0.0042304993 -1
vn 0.0023117065 0.0042304993 -1
vn 0.0023117065 0.0042304993 -1
vn 0.0023117065 0.0042304993 -1
vn 0.0023117065 0.0042304993 -1
vn 0.0023117065 0.0042304993 -1
vn 0.0023117065 0.0042304993 -1
vn 0.0023117065 0.0042304993 -1
vn 0.0023117065 0.0042304993 -1
vn 0.0023117065 0.0042304993 -1
vn 0.0023117065 0.0042304993 -1
vn 0.0023117065 0.0042304993 -1
vn 0.0023117065 0.0042304993 -1
vn 0.0023117065 0.0042304993 -1
vn 0.0023117065 0.0042304993 -1
vn -5.9604645E-08 0 -1
vn -5.9604645E-08 0 -1
vn -5.9604645E-08 0 -1
vn -5.9604645E-08 0 -1
vn -5.9604645E-08 0 -1
vn -5.9604645E-08 0 -1
vn -5.9604645E-08 0 -1
vn -5.9604645E-08 0 -1
vn -5.9604645E-08 0 -1
vn -5.9604645E-08 0 -1
vn -5.9604645E-08 0 -1
vn -5.9604645E-08 0 -1
vn -5.9604645E-08 0 -1
vn -5.9604645E-08 0 -1
vn -5.9604645E-08 0 -1
vn 1.7881393E-07 -1 -0
vn 1.7881393E-07 -1 -0
vn 1.7881393E-07 -1 -0
vn 1.7881393E-07 -1 -0
vn 1.7881393E-07 -1 -0
vn 1.7881393E-07 -1 -0
vn 1.7881393E-07 -1 -0
vn 1.7881393E-07 -1 -0
vn 1.7881393E-07 -1 -0
vn 1.7881393E-07 -1 -0
vn 4.7683716E-06 -1 -0.0004351139
vn 1.1324883E-06 -1 -8.916855E-05
vn 1.7881393E-07 -1 -0
vn 1.1324883E-06 -1 -8.916855E-05
vn 1.7881393E-07 -1 -0
g DecalMesh_MetroArea_Decal_Ground_07__28_0
f 3/3/3 2/2/2 1/1/1
f 6/6/6 5/5/5 4/4/4
f 9/9/9 8/8/8 7/7/7
f 12/12/12 11/11/11 10/10/10
f 15/15/15 14/14/14 13/13/13
f 18/18/18 17/17/17 16/16/16
f 21/21/21 20/20/20 19/19/19
f 24/24/24 23/23/23 22/22/22
f 27/27/27 26/26/26 25/25/25
f 30/30/30 29/29/29 28/28/28
f 33/33/33 32/32/32 31/31/31
f 36/36/36 35/35/35 34/34/34
f 39/39/39 38/38/38 37/37/37
f 42/42/42 41/41/41 40/40/40
f 45/45/45 44/44/44 43/43/43
f 48/48/48 47/47/47 46/46/46
