g DecalMesh_Common_Decal_Water_03__55
v -1.5350784 2.1508284 -0.49494627
v -2.3757997 2.1508284 -0.49494627
v -2.3757997 1.3050202 -0.4949462
v 1.6799225 -2.137443 -0.494946
v 1.6669881 2.1508281 -0.49494627
v -2.3757997 -0.17693307 -0.49494612
v 1.6799225 -2.137443 -0.494946
v -2.3757997 -0.17693307 -0.49494612
v -2.3757997 -2.1496758 -0.494946
v 1.6669881 2.1508281 -0.49494627
v -1.5350786 2.1508281 -0.49494627
v -2.3757997 1.3050201 -0.4949462
v 1.6669881 2.1508281 -0.49494627
v -2.3757997 1.3050201 -0.4949462
v -2.3757997 -0.17693307 -0.49494612
v 1.6795334 -2.1374443 -0.494946
v 2.0303082 -2.1363862 -0.494946
v 2.0173771 2.1508281 -0.49494627
v 1.6795334 -2.1374443 -0.494946
v 2.0173771 2.1508281 -0.49494627
v 1.867136 2.1508281 -0.49494627
v 1.6795334 -2.1374443 -0.494946
v 1.867136 2.1508281 -0.49494627
v 1.666599 2.1508281 -0.49494627
v 2.0297213 -1.8380182 -0.49494624
v 2.030621 -2.1363852 -0.49494624
v 2.3758 -2.1216102 -0.49494624
v 2.0297213 -1.8380182 -0.49494624
v 2.3758 -2.1216102 -0.49494624
v 2.3758 -1.8369744 -0.49494624
v 2.030621 -2.1363852 -0.49494624
v 2.3757997 -2.135344 -0.49494624
v 2.3757997 -2.1216102 -0.49494624
v 2.0297213 -1.8380182 -0.49494624
v 2.3757997 -1.5175419 -0.49494624
v 2.1713374 2.1508281 -0.49494636
v 2.0297213 -1.8380182 -0.49494624
v 2.1713374 2.1508281 -0.49494636
v 2.0176902 2.1508281 -0.4949464
v 2.3757997 -1.5175419 -0.49494624
v 2.3757997 2.1508284 -0.49494636
v 2.1713374 2.1508281 -0.49494636
v 2.0297213 -1.8380182 -0.49494624
v 2.3757997 -1.8369744 -0.49494624
v 2.3757997 -1.5175419 -0.49494624
vt 0.8774414 0.49194336
vt 0.9501953 0.49194336
vt 0.9501953 0.42089844
vt 0.60058594 0.13146973
vt 0.6020508 0.49194336
vt 0.9501953 0.29614258
vt 0.60058594 0.13146973
vt 0.9501953 0.29614258
vt 0.9501953 0.13049316
vt 0.6020508 0.49194336
vt 0.8774414 0.49194336
vt 0.9501953 0.42089844
vt 0.6020508 0.49194336
vt 0.9501953 0.42089844
vt 0.9501953 0.29614258
vt 0.6010742 0.13146973
vt 0.5708008 0.1315918
vt 0.57177734 0.49194336
vt 0.6010742 0.13146973
vt 0.57177734 0.49194336
vt 0.58447266 0.49194336
vt 0.6010742 0.13146973
vt 0.58447266 0.49194336
vt 0.6020508 0.49194336
vt 0.5708008 0.15673828
vt 0.5708008 0.1315918
vt 0.5410156 0.1328125
vt 0.5708008 0.15673828
vt 0.5410156 0.1328125
vt 0.5410156 0.15673828
vt 0.5708008 0.1315918
vt 0.5410156 0.13171387
vt 0.5410156 0.1328125
vt 0.5708008 0.15673828
vt 0.5410156 0.18359375
vt 0.55859375 0.49194336
vt 0.5708008 0.15673828
vt 0.55859375 0.49194336
vt 0.57177734 0.49194336
vt 0.5410156 0.18359375
vt 0.5410156 0.49194336
vt 0.55859375 0.49194336
vt 0.5708008 0.15673828
vt 0.5410156 0.15673828
vt 0.5410156 0.18359375
vn 0 -2.3841858E-07 -1
vn 0 -2.3841858E-07 -1
vn 0 -2.3841858E-07 -1
vn 0 -2.3841858E-07 -1
vn 0 -2.3841858E-07 -1
vn 0 -2.3841858E-07 -1
vn 0 -2.3841858E-07 -1
vn 0 -2.3841858E-07 -1
vn 0 -2.3841858E-07 -1
vn 0 -2.3841858E-07 -1
vn 0 -2.3841858E-07 -1
vn 0 -2.3841858E-07 -1
vn 0 -2.3841858E-07 -1
vn 0 -2.3841858E-07 -1
vn 0 -2.3841858E-07 -1
vn 4.172325E-07 -2.3841858E-07 -1
vn 4.172325E-07 -2.3841858E-07 -1
vn 4.172325E-07 -2.3841858E-07 -1
vn 4.172325E-07 -2.3841858E-07 -1
vn 4.172325E-07 -2.3841858E-07 -1
vn 4.172325E-07 -2.3841858E-07 -1
vn 4.172325E-07 -2.3841858E-07 -1
vn 4.172325E-07 -2.3841858E-07 -1
vn 4.172325E-07 -2.3841858E-07 -1
vn 0 -2.3841858E-07 -1
vn 0 -2.3841858E-07 -1
vn 0 -2.3841858E-07 -1
vn 0 -2.3841858E-07 -1
vn 0 -2.3841858E-07 -1
vn 0 -2.3841858E-07 -1
vn 0 -2.3841858E-07 -1
vn 0 -2.3841858E-07 -1
vn 0 -2.3841858E-07 -1
vn 0 -2.3841858E-07 -1
vn 0 -2.3841858E-07 -1
vn 0 -2.3841858E-07 -1
vn 0 -2.3841858E-07 -1
vn 0 -2.3841858E-07 -1
vn 0 -2.3841858E-07 -1
vn 0 -2.3841858E-07 -1
vn 0 -2.3841858E-07 -1
vn 0 -2.3841858E-07 -1
vn 0 -2.3841858E-07 -1
vn 0 -2.3841858E-07 -1
vn 0 -2.3841858E-07 -1
g DecalMesh_Common_Decal_Water_03__55_0
f 3/3/3 2/2/2 1/1/1
f 6/6/6 5/5/5 4/4/4
f 9/9/9 8/8/8 7/7/7
f 12/12/12 11/11/11 10/10/10
f 15/15/15 14/14/14 13/13/13
f 18/18/18 17/17/17 16/16/16
f 21/21/21 20/20/20 19/19/19
f 24/24/24 23/23/23 22/22/22
f 27/27/27 26/26/26 25/25/25
f 30/30/30 29/29/29 28/28/28
f 33/33/33 32/32/32 31/31/31
f 36/36/36 35/35/35 34/34/34
f 39/39/39 38/38/38 37/37/37
f 42/42/42 41/41/41 40/40/40
f 45/45/45 44/44/44 43/43/43
