g DecalMesh_Common_Decal_Sign_11__13
v 0.25903553 0.26633745 -0.12677477
v 0.09984582 -0.26486084 -0.10729825
v 0.263236 -0.2648608 -0.13266604
v 0.25903553 0.26633745 -0.12677477
v 0.052012935 0.26633745 -0.09463268
v -0.043786846 -0.26486084 -0.08499801
v 0.25903553 0.26633745 -0.12677477
v -0.043786846 -0.26486084 -0.08499801
v 0.09984582 -0.26486084 -0.10729825
v 0.27263445 0.26633742 -0.12888613
v 0.25903553 0.26633745 -0.12677477
v 0.263236 -0.2648608 -0.13266604
v 0.27263445 0.26633742 -0.12888613
v 0.263236 -0.2648608 -0.13266604
v 0.27263445 -0.26486084 -0.13412523
v 0.052012954 0.2663375 -0.09463268
v -0.27263552 0.26633748 -0.04422607
v -0.26902854 -0.2648608 -0.05002581
v 0.052012954 0.2663375 -0.09463268
v -0.26902854 -0.2648608 -0.05002581
v -0.043786835 -0.2648608 -0.08499801
v -0.27263552 0.26633748 -0.04422607
v -0.27263552 -0.26486084 -0.049465775
v -0.26902854 -0.2648608 -0.05002581
vt -0.2915039 0.9448242
vt -0.27563477 0.89160156
vt -0.2919922 0.89160156
vt -0.2915039 0.9448242
vt -0.2709961 0.9448242
vt -0.26123047 0.89160156
vt -0.2915039 0.9448242
vt -0.26123047 0.89160156
vt -0.27563477 0.89160156
vt -0.29296875 0.9448242
vt -0.2915039 0.9448242
vt -0.2919922 0.89160156
vt -0.29296875 0.9448242
vt -0.2919922 0.89160156
vt -0.29296875 0.89160156
vt -0.2709961 0.9448242
vt -0.23840332 0.9448242
vt -0.23876953 0.89160156
vt -0.2709961 0.9448242
vt -0.23876953 0.89160156
vt -0.26123047 0.89160156
vt -0.23840332 0.9448242
vt -0.23840332 0.89160156
vt -0.23876953 0.89160156
vn -0.1694336 0.009292603 -0.98535156
vn -0.15930176 0.0095825195 -0.9868164
vn -0.16894531 0.009307861 -0.98535156
vn -0.1694336 0.009292603 -0.98535156
vn -0.15722656 0.009635925 -0.9873047
vn -0.15075684 0.009819031 -0.98828125
vn -0.1694336 0.009292603 -0.98535156
vn -0.15075684 0.009819031 -0.98828125
vn -0.15930176 0.0095825195 -0.9868164
vn -0.17028809 0.009269714 -0.98535156
vn -0.1694336 0.009292603 -0.98535156
vn -0.16894531 0.009307861 -0.98535156
vn -0.17028809 0.009269714 -0.98535156
vn -0.16894531 0.009307861 -0.98535156
vn -0.1694336 0.009292603 -0.98535156
vn -0.15722656 0.009635925 -0.9873047
vn -0.13806152 0.010177612 -0.9902344
vn -0.13757324 0.010192871 -0.9902344
vn -0.15722656 0.009635925 -0.9873047
vn -0.13757324 0.010192871 -0.9902344
vn -0.15075684 0.009819031 -0.98828125
vn -0.13806152 0.010177612 -0.9902344
vn -0.1373291 0.0102005005 -0.9902344
vn -0.13757324 0.010192871 -0.9902344
g DecalMesh_Common_Decal_Sign_11__13_0
f 3/3/3 2/2/2 1/1/1
f 6/6/6 5/5/5 4/4/4
f 9/9/9 8/8/8 7/7/7
f 12/12/12 11/11/11 10/10/10
f 15/15/15 14/14/14 13/13/13
f 18/18/18 17/17/17 16/16/16
f 21/21/21 20/20/20 19/19/19
f 24/24/24 23/23/23 22/22/22
