g DecalMesh_MetroArea_Decal_Graffiti_28__80
v -0.4231278 0.46272758 -0.043994904
v -0.9758934 0.46272758 -0.043994915
v -0.9758934 0.09288112 -0.043994904
v 0.96989334 0.46272755 -0.043994904
v -0.9758933 -0.22202773 -0.043994904
v -0.5568131 -0.46272755 -0.043994904
v 0.96989334 0.46272755 -0.043994904
v -0.5568131 -0.46272755 -0.043994904
v 0.9698934 -0.46272755 -0.043994904
v -0.9758933 -0.22202773 -0.043994904
v -0.9758934 -0.46272758 -0.043994904
v -0.55681306 -0.46272758 -0.043994904
v 0.96989334 0.46272755 -0.043994904
v -0.4231278 0.46272758 -0.043994904
v -0.9758934 0.09288112 -0.043994904
v 0.96989334 0.46272755 -0.043994904
v -0.9758934 0.09288112 -0.043994904
v -0.9758933 -0.22202773 -0.043994904
v -0.8958827 0.46272758 -0.0032837042
v -0.9758934 0.42982984 -0.01368092
v -0.9758934 0.42982984 -0.0013328831
v -0.8958827 0.46272758 -0.0032837042
v -0.8958827 0.46272758 -0.0968768
v -0.9758934 0.42982984 -0.09893956
v -0.8958827 0.46272758 -0.0032837042
v -0.9758934 0.42982984 -0.09893956
v -0.9758934 0.42982984 -0.013680917
v -0.89588267 0.46272764 -0.0968768
v -0.89588267 0.46272764 -0.1
v -0.90667045 0.45829204 -0.1
v -0.9758934 0.42982987 -0.09893956
v -0.89588267 0.46272764 -0.0968768
v -0.90667045 0.45829204 -0.1
v -0.9758934 0.42982987 -0.09893956
v -0.90667045 0.45829204 -0.1
v -0.9758934 0.42982987 -0.099999994
v -0.89588267 0.46272764 0.018623352
v -0.89588267 0.46272764 -0.0032837063
v -0.9758934 0.42982987 -0.0013328842
v -0.89588267 0.46272764 0.018623352
v -0.9758934 0.42982987 -0.0013328842
v -0.9758934 0.42982987 0.018623352
vt 1.4091797 0.17504883
vt 1.4863281 0.17504883
vt 1.4863281 0.1430664
vt 1.2167969 0.17504883
vt 1.4863281 0.1159668
vt 1.4277344 0.095214844
vt 1.2167969 0.17504883
vt 1.4277344 0.095214844
vt 1.2167969 0.095214844
vt 1.4863281 0.1159668
vt 1.4863281 0.095214844
vt 1.4277344 0.095214844
vt 1.2167969 0.17504883
vt 1.4091797 0.17504883
vt 1.4863281 0.1430664
vt 1.2167969 0.17504883
vt 1.4863281 0.1430664
vt 1.4863281 0.1159668
vt 1.4746094 0.17504883
vt 1.4863281 0.17211914
vt 1.4863281 0.17211914
vt 1.4746094 0.17504883
vt 1.4746094 0.17504883
vt 1.4863281 0.17211914
vt 1.4746094 0.17504883
vt 1.4863281 0.17211914
vt 1.4863281 0.17211914
vt 1.4746094 0.17504883
vt 1.4746094 0.17504883
vt 1.4765625 0.17456055
vt 1.4863281 0.17211914
vt 1.4746094 0.17504883
vt 1.4765625 0.17456055
vt 1.4863281 0.17211914
vt 1.4765625 0.17456055
vt 1.4863281 0.17211914
vt 1.4746094 0.17504883
vt 1.4746094 0.17504883
vt 1.4863281 0.17211914
vt 1.4746094 0.17504883
vt 1.4863281 0.17211914
vt 1.4863281 0.17211914
vn -0 -5.9604645E-08 -1
vn -0 -5.9604645E-08 -1
vn -0 -5.9604645E-08 -1
vn -0 -5.9604645E-08 -1
vn -0 -5.9604645E-08 -1
vn -0 -5.9604645E-08 -1
vn -0 -5.9604645E-08 -1
vn -0 -5.9604645E-08 -1
vn -0 -5.9604645E-08 -1
vn -0 -5.9604645E-08 -1
vn -0 -5.9604645E-08 -1
vn -0 -5.9604645E-08 -1
vn -0 -5.9604645E-08 -1
vn -0 -5.9604645E-08 -1
vn -0 -5.9604645E-08 -1
vn -0 -5.9604645E-08 -1
vn -0 -5.9604645E-08 -1
vn -0 -5.9604645E-08 -1
vn 0.3803711 -0.9248047 -2.9206276E-06
vn 0.3803711 -0.9248047 -2.9206276E-06
vn 0.3803711 -0.9248047 -2.9206276E-06
vn 0.3803711 -0.9248047 -2.9206276E-06
vn 0.3803711 -0.9248047 -2.9206276E-06
vn 0.3803711 -0.9248047 -2.9206276E-06
vn 0.3803711 -0.9248047 -2.9206276E-06
vn 0.3803711 -0.9248047 -2.9206276E-06
vn 0.3803711 -0.9248047 -2.9206276E-06
vn 0.3803711 -0.9248047 -2.9206276E-06
vn 0.3803711 -0.9248047 -2.9206276E-06
vn 0.3803711 -0.9248047 -2.9206276E-06
vn 0.3803711 -0.9248047 -2.9206276E-06
vn 0.3803711 -0.9248047 -2.9206276E-06
vn 0.3803711 -0.9248047 -2.9206276E-06
vn 0.3803711 -0.9248047 -2.9206276E-06
vn 0.3803711 -0.9248047 -2.9206276E-06
vn 0.3803711 -0.9248047 -2.9206276E-06
vn 0.3803711 -0.9248047 -2.9206276E-06
vn 0.3803711 -0.9248047 -2.9206276E-06
vn 0.3803711 -0.9248047 -2.9206276E-06
vn 0.3803711 -0.9248047 -2.9206276E-06
vn 0.3803711 -0.9248047 -2.9206276E-06
vn 0.3803711 -0.9248047 -2.9206276E-06
g DecalMesh_MetroArea_Decal_Graffiti_28__80_0
f 3/3/3 2/2/2 1/1/1
f 6/6/6 5/5/5 4/4/4
f 9/9/9 8/8/8 7/7/7
f 12/12/12 11/11/11 10/10/10
f 15/15/15 14/14/14 13/13/13
f 18/18/18 17/17/17 16/16/16
f 21/21/21 20/20/20 19/19/19
f 24/24/24 23/23/23 22/22/22
f 27/27/27 26/26/26 25/25/25
f 30/30/30 29/29/29 28/28/28
f 33/33/33 32/32/32 31/31/31
f 36/36/36 35/35/35 34/34/34
f 39/39/39 38/38/38 37/37/37
f 42/42/42 41/41/41 40/40/40
