g DecalMesh_MetroArea_Decal_Ground_26__18
v 0.8999999 0.7880286 0.080650985
v 0.9 0.7887055 0.07594788
v 0.75550985 0.9 0.08004187
v 0.8999999 0.7880286 0.080650985
v 0.75550985 0.9 0.08004187
v 0.7549801 0.9 0.082891874
v 0.7526687 0.9 0.09532608
v 0.7517998 0.9 0.1
v 0.8653401 0.81208175 0.099999994
v 0.8999999 0.7880286 0.080650985
v 0.7549801 0.9 0.082891874
v 0.88875717 0.7939491 0.099999994
v 0.8999999 0.7880286 0.080650985
v 0.88875717 0.7939491 0.099999994
v 0.8999999 0.78524345 0.099999994
v 0.7549801 0.9 0.082891874
v 0.7526687 0.9 0.09532608
v 0.8653401 0.81208175 0.099999994
v 0.7549801 0.9 0.082891874
v 0.8653401 0.81208175 0.099999994
v 0.88875717 0.7939491 0.099999994
v 0.9 0.7887055 0.07594788
v 0.9 0.9 0.08751421
v 0.75550985 0.9 0.08004187
v -0.9 -0.75080526 0.08571202
v -0.6338273 -0.90000004 0.079953425
v -0.33031237 -0.90000004 0.073871806
v -0.9 -0.75080526 0.08571202
v -0.9 -0.89036363 0.08531426
v -0.87963754 -0.9 0.08487879
v -0.9 -0.75080526 0.08571202
v -0.87963754 -0.9 0.08487879
v -0.6338273 -0.90000004 0.079953425
v 0.9 0.30220902 0.052646127
v -0.9 -0.34167337 0.0868781
v 0.24134226 -0.9 0.0624174
v 0.9 0.30220902 0.052646127
v 0.24134226 -0.9 0.0624174
v 0.9 -0.9 0.049219687
v -0.9 -0.34167337 0.0868781
v -0.9 -0.75080526 0.08571202
v -0.3303123 -0.90000004 0.073871806
v -0.9 -0.34167337 0.0868781
v -0.3303123 -0.90000004 0.073871806
v 0.24134226 -0.9 0.0624174
v 0.9 0.30220902 0.052646127
v 0.2972401 0.9 0.06642919
v -0.9 -0.05252772 0.087702766
v 0.9 0.30220902 0.052646127
v -0.9 -0.05252772 0.087702766
v -0.9 -0.34167337 0.0868781
v 0.2972401 0.9 0.06642919
v -0.861134 0.9 0.089640684
v -0.9 0.81784797 0.09018517
v 0.2972401 0.9 0.06642919
v -0.9 0.81784797 0.09018517
v -0.9 -0.05252772 0.087702766
v 0.9 0.30220902 0.052646127
v 0.9 0.9 0.054351088
v 0.2972401 0.9 0.06642919
v 0.9 -0.90000004 0.096957855
v 0.9 -0.6786376 0.099999994
v 0.86353946 -0.90000004 0.099999994
v 0.16798371 0.27400535 0.07518686
v 0.46173137 0.4200164 0.1
v 0.34792328 0.5122596 0.1
v -0.14520589 0.9 0.09922813
v 0.16798371 0.27400535 0.07518686
v 0.3479233 0.5122596 0.1
v -0.14520589 0.9 0.09922813
v 0.3479233 0.5122596 0.1
v -0.13046427 0.9 0.1
v 0.16798371 0.27400535 0.07518686
v -0.14520586 0.8999999 0.09922812
v -0.14527105 0.8999999 0.099999994
v 0.16798371 0.27400535 0.07518686
v -0.14527105 0.8999999 0.099999994
v -0.08126905 0.7712398 0.099999994
v 0.16798371 0.27400535 0.07518686
v -0.081269085 0.7712399 0.099999994
v 0.16668475 0.2724026 0.099999994
v 0.16798371 0.27400535 0.07518686
v 0.16668475 0.2724026 0.099999994
v 0.39757437 0.3879182 0.1
v 0.16798371 0.27400535 0.07518686
v 0.39757437 0.3879182 0.1
v 0.46173137 0.4200164 0.1
vt 0.76953125 0.97021484
vt 0.76953125 0.97021484
vt 0.78759766 0.984375
vt 0.76953125 0.97021484
vt 0.78759766 0.984375
vt 0.78759766 0.984375
vt 0.78808594 0.984375
vt 0.78808594 0.984375
vt 0.7739258 0.97314453
vt 0.76953125 0.97021484
vt 0.78759766 0.984375
vt 0.7709961 0.9711914
vt 0.76953125 0.97021484
vt 0.7709961 0.9711914
vt 0.76953125 0.96972656
vt 0.78759766 0.984375
vt 0.78808594 0.984375
vt 0.7739258 0.97314453
vt 0.78759766 0.984375
vt 0.7739258 0.97314453
vt 0.7709961 0.9711914
vt 0.76953125 0.97021484
vt 0.76953125 0.984375
vt 0.78759766 0.984375
vt 0.9951172 0.7739258
vt 0.96191406 0.7548828
vt 0.9238281 0.7548828
vt 0.9951172 0.7739258
vt 0.9951172 0.7558594
vt 0.9926758 0.7548828
vt 0.9951172 0.7739258
vt 0.9926758 0.7548828
vt 0.96191406 0.7548828
vt 0.76953125 0.9082031
vt 0.9951172 0.8261719
vt 0.8520508 0.7548828
vt 0.76953125 0.9082031
vt 0.8520508 0.7548828
vt 0.76953125 0.7548828
vt 0.9951172 0.8261719
vt 0.9951172 0.7739258
vt 0.9238281 0.7548828
vt 0.9951172 0.8261719
vt 0.9238281 0.7548828
vt 0.8520508 0.7548828
vt 0.76953125 0.9082031
vt 0.84521484 0.984375
vt 0.9951172 0.86279297
vt 0.76953125 0.9082031
vt 0.9951172 0.86279297
vt 0.9951172 0.8261719
vt 0.84521484 0.984375
vt 0.9902344 0.984375
vt 0.9951172 0.9741211
vt 0.84521484 0.984375
vt 0.9951172 0.9741211
vt 0.9951172 0.86279297
vt 0.76953125 0.9082031
vt 0.76953125 0.984375
vt 0.84521484 0.984375
vt 0.76953125 0.7548828
vt 0.76953125 0.7832031
vt 0.7739258 0.7548828
vt 0.8613281 0.90478516
vt 0.82421875 0.92333984
vt 0.8388672 0.9350586
vt 0.9003906 0.984375
vt 0.8613281 0.90478516
vt 0.8388672 0.9350586
vt 0.9003906 0.984375
vt 0.8388672 0.9350586
vt 0.8989258 0.984375
vt 0.8613281 0.90478516
vt 0.9003906 0.984375
vt 0.9003906 0.984375
vt 0.8613281 0.90478516
vt 0.9003906 0.984375
vt 0.8925781 0.9682617
vt 0.8613281 0.90478516
vt 0.8925781 0.9682617
vt 0.8613281 0.9042969
vt 0.8613281 0.90478516
vt 0.8613281 0.9042969
vt 0.83251953 0.9189453
vt 0.8613281 0.90478516
vt 0.83251953 0.9189453
vt 0.82421875 0.92333984
vn -0.60839844 -0.78564453 -0.113098145
vn -0.60839844 -0.78564453 -0.113098145
vn -0.60839844 -0.78564453 -0.113098145
vn -0.60839844 -0.78564453 -0.113098145
vn -0.60839844 -0.78564453 -0.113098145
vn -0.60839844 -0.78564453 -0.113098145
vn -0.60839844 -0.78564453 -0.113098145
vn -0.60839844 -0.78564453 -0.113098145
vn -0.60839844 -0.78564453 -0.113098145
vn -0.60839844 -0.78564453 -0.113098145
vn -0.60839844 -0.78564453 -0.113098145
vn -0.60839844 -0.78564453 -0.113098145
vn -0.60839844 -0.78564453 -0.113098145
vn -0.60839844 -0.78564453 -0.113098145
vn -0.60839844 -0.78564453 -0.113098145
vn -0.60839844 -0.78564453 -0.113098145
vn -0.60839844 -0.78564453 -0.113098145
vn -0.60839844 -0.78564453 -0.113098145
vn -0.60839844 -0.78564453 -0.113098145
vn -0.60839844 -0.78564453 -0.113098145
vn -0.60839844 -0.78564453 -0.113098145
vn 0.051361084 0.10321045 -0.99316406
vn 0.051361084 0.10321045 -0.99316406
vn 0.051361084 0.10321045 -0.99316406
vn -0.02003479 0.0028514862 -1
vn -0.02003479 0.0028514862 -1
vn -0.02003479 0.0028514862 -1
vn -0.02003479 0.0028514862 -1
vn -0.02003479 0.0028514862 -1
vn -0.02003479 0.0028514862 -1
vn -0.02003479 0.0028514862 -1
vn -0.02003479 0.0028514862 -1
vn -0.02003479 0.0028514862 -1
vn -0.02003479 0.0028514862 -1
vn -0.02003479 0.0028514862 -1
vn -0.02003479 0.0028514862 -1
vn -0.02003479 0.0028514862 -1
vn -0.02003479 0.0028514862 -1
vn -0.02003479 0.0028514862 -1
vn -0.02003479 0.0028514862 -1
vn -0.02003479 0.0028514862 -1
vn -0.02003479 0.0028514862 -1
vn -0.02003479 0.0028514862 -1
vn -0.02003479 0.0028514862 -1
vn -0.02003479 0.0028514862 -1
vn -0.02003479 0.0028514862 -1
vn -0.02003479 0.0028514862 -1
vn -0.02003479 0.0028514862 -1
vn -0.02003479 0.0028514862 -1
vn -0.02003479 0.0028514862 -1
vn -0.02003479 0.0028514862 -1
vn -0.02003479 0.0028514862 -1
vn -0.02003479 0.0028514862 -1
vn -0.02003479 0.0028514862 -1
vn -0.02003479 0.0028514862 -1
vn -0.02003479 0.0028514862 -1
vn -0.02003479 0.0028514862 -1
vn -0.02003479 0.0028514862 -1
vn -0.02003479 0.0028514862 -1
vn -0.02003479 0.0028514862 -1
vn -0.08312988 0.013694763 -0.99658203
vn -0.08312988 0.013694763 -0.99658203
vn -0.08312988 0.013694763 -0.99658203
vn 0.05218506 0.06439209 -0.99658203
vn 0.05218506 0.06439209 -0.99658203
vn 0.05218506 0.06439209 -0.99658203
vn 0.05218506 0.06439209 -0.99658203
vn 0.05218506 0.06439209 -0.99658203
vn 0.05218506 0.06439209 -0.99658203
vn 0.05218506 0.06439209 -0.99658203
vn 0.05218506 0.06439209 -0.99658203
vn 0.05218506 0.06439209 -0.99658203
vn -0.8930664 -0.44384766 -0.07543945
vn -0.8930664 -0.44384766 -0.07543945
vn -0.8930664 -0.44384766 -0.07543945
vn -0.8930664 -0.44384766 -0.07543945
vn -0.8930664 -0.44384766 -0.07543945
vn -0.8930664 -0.44384766 -0.07543945
vn -0.8930664 -0.44384766 -0.07543945
vn -0.8930664 -0.44384766 -0.07543945
vn -0.8930664 -0.44384766 -0.07543945
vn 0.44726562 -0.8935547 -0.034332275
vn 0.44726562 -0.8935547 -0.034332275
vn 0.44726562 -0.8935547 -0.034332275
vn 0.44726562 -0.8935547 -0.034332275
vn 0.44726562 -0.8935547 -0.034332275
vn 0.44726562 -0.8935547 -0.034332275
g DecalMesh_MetroArea_Decal_Ground_26__18_0
f 3/3/3 2/2/2 1/1/1
f 6/6/6 5/5/5 4/4/4
f 9/9/9 8/8/8 7/7/7
f 12/12/12 11/11/11 10/10/10
f 15/15/15 14/14/14 13/13/13
f 18/18/18 17/17/17 16/16/16
f 21/21/21 20/20/20 19/19/19
f 24/24/24 23/23/23 22/22/22
f 27/27/27 26/26/26 25/25/25
f 30/30/30 29/29/29 28/28/28
f 33/33/33 32/32/32 31/31/31
f 36/36/36 35/35/35 34/34/34
f 39/39/39 38/38/38 37/37/37
f 42/42/42 41/41/41 40/40/40
f 45/45/45 44/44/44 43/43/43
f 48/48/48 47/47/47 46/46/46
f 51/51/51 50/50/50 49/49/49
f 54/54/54 53/53/53 52/52/52
f 57/57/57 56/56/56 55/55/55
f 60/60/60 59/59/59 58/58/58
f 63/63/63 62/62/62 61/61/61
f 66/66/66 65/65/65 64/64/64
f 69/69/69 68/68/68 67/67/67
f 72/72/72 71/71/71 70/70/70
f 75/75/75 74/74/74 73/73/73
f 78/78/78 77/77/77 76/76/76
f 81/81/81 80/80/80 79/79/79
f 84/84/84 83/83/83 82/82/82
f 87/87/87 86/86/86 85/85/85
