g DecalMesh_MetroArea_Decal_Ground_26__51
v -0.8234459 1.0000001 0.03259928
v -0.8234459 1.0000001 0.059490204
v -0.91428065 -1 0.059490204
v -0.8234459 1.0000001 0.03259928
v -0.91428065 -1 0.059490204
v -0.91428065 -1 0.052986827
v -0.8234459 0.99999994 0.01083374
v -0.9142806 -0.99999994 0.047722984
v -0.9142806 -0.99999994 0.01083374
v -0.8234459 0.99999994 0.01083374
v -0.8234459 0.99999994 0.032599285
v -0.91428065 -1 0.052986827
v -0.8234459 0.99999994 0.01083374
v -0.91428065 -1 0.052986827
v -0.91428065 -1 0.047722988
v -0.88712066 -1 0.0753212
v -0.796286 0.99999994 0.0753212
v -0.82044965 0.4679645 0.1
v -0.88712066 -1 0.0753212
v -0.82044965 0.4679645 0.1
v -0.88712066 -1 0.1
v -0.796286 0.99999994 0.0753212
v -0.796286 0.99999994 0.1
v -0.81742865 0.5344807 0.1
v -0.796286 0.99999994 0.0753212
v -0.81742865 0.5344807 0.1
v -0.82044965 0.46796444 0.1
v -0.78793806 1 0.01083374
v -0.9056933 -1.0000001 0.01083374
v -0.8455129 -1 0.01083374
v -0.78793806 1 0.01083374
v -0.8234459 0.99999994 0.01083374
v -0.91428065 -1 0.01083374
v -0.78793806 1 0.01083374
v -0.91428065 -1 0.01083374
v -0.9056933 -1 0.01083374
v -0.74400884 1.0000001 0.01083374
v -0.78793806 0.9999999 0.01083374
v -0.8455129 -1 0.01083374
v -0.74400884 1.0000001 0.01083374
v -0.8455129 -1 0.01083374
v -0.8348436 -1 0.01083374
v 0.9822374 0.99999994 0.009063721
v -0.99999994 1 0.009063721
v -1 -1 0.009063721
v 0.9822374 0.99999994 0.009063721
v -1 -1 0.009063721
v -0.98201174 -1 0.009063721
v 1 1 0.009063721
v -0.9797754 -1 0.009063721
v 1 -0.99999994 0.009063721
v 1 1 0.009063721
v 0.98223746 1 0.009063721
v -0.98201174 -1 0.009063721
v 1 1 0.009063721
v -0.98201174 -1 0.009063721
v -0.98185056 -1 0.009063721
v 1 1 0.009063721
v -0.9818505 -0.99999994 0.009063721
v -0.9797754 -1 0.009063721
vt 0.97509766 0.984375
vt 0.97509766 0.984375
vt 0.98535156 0.7548828
vt 0.97509766 0.984375
vt 0.98535156 0.7548828
vt 0.98535156 0.7548828
vt 0.97509766 0.984375
vt 0.98535156 0.7548828
vt 0.98535156 0.7548828
vt 0.97509766 0.984375
vt 0.97509766 0.984375
vt 0.98535156 0.7548828
vt 0.97509766 0.984375
vt 0.98535156 0.7548828
vt 0.98535156 0.7548828
vt 0.9824219 0.7548828
vt 0.97216797 0.984375
vt 0.97509766 0.92333984
vt 0.9824219 0.7548828
vt 0.97509766 0.92333984
vt 0.9824219 0.7548828
vt 0.97216797 0.984375
vt 0.97216797 0.984375
vt 0.9746094 0.93115234
vt 0.97216797 0.984375
vt 0.9746094 0.93115234
vt 0.97509766 0.92333984
vt 0.9711914 0.984375
vt 0.9848633 0.7548828
vt 0.97802734 0.7548828
vt 0.9711914 0.984375
vt 0.97509766 0.984375
vt 0.98535156 0.7548828
vt 0.9711914 0.984375
vt 0.98535156 0.7548828
vt 0.9848633 0.7548828
vt 0.9663086 0.984375
vt 0.9711914 0.984375
vt 0.97802734 0.7548828
vt 0.9663086 0.984375
vt 0.97802734 0.7548828
vt 0.9765625 0.7548828
vt 0.7714844 0.984375
vt 0.9951172 0.984375
vt 0.9951172 0.7548828
vt 0.7714844 0.984375
vt 0.9951172 0.7548828
vt 0.99316406 0.7548828
vt 0.76953125 0.984375
vt 0.99316406 0.7548828
vt 0.76953125 0.7548828
vt 0.76953125 0.984375
vt 0.7714844 0.984375
vt 0.99316406 0.7548828
vt 0.76953125 0.984375
vt 0.99316406 0.7548828
vt 0.99316406 0.7548828
vt 0.76953125 0.984375
vt 0.99316406 0.7548828
vt 0.99316406 0.7548828
vn -0.99902344 0.04537964 -2.3841858E-07
vn -0.99902344 0.04537964 -2.3841858E-07
vn -0.99902344 0.04537964 -2.3841858E-07
vn -0.99902344 0.04537964 -2.3841858E-07
vn -0.99902344 0.04537964 -2.3841858E-07
vn -0.99902344 0.04537964 -2.3841858E-07
vn -0.99902344 0.04537964 -2.3841858E-07
vn -0.99902344 0.04537964 -2.3841858E-07
vn -0.99902344 0.04537964 -2.3841858E-07
vn -0.99902344 0.04537964 -2.3841858E-07
vn -0.99902344 0.04537964 -2.3841858E-07
vn -0.99902344 0.04537964 -2.3841858E-07
vn -0.99902344 0.04537964 -2.3841858E-07
vn -0.99902344 0.04537964 -2.3841858E-07
vn -0.99902344 0.04537964 -2.3841858E-07
vn -0.99902344 0.04537964 -2.3841858E-07
vn -0.99902344 0.04537964 -2.3841858E-07
vn -0.99902344 0.04537964 -2.3841858E-07
vn -0.99902344 0.04537964 -2.3841858E-07
vn -0.99902344 0.04537964 -2.3841858E-07
vn -0.99902344 0.04537964 -2.3841858E-07
vn -0.99902344 0.04537964 -2.3841858E-07
vn -0.99902344 0.04537964 -2.3841858E-07
vn -0.99902344 0.04537964 -2.3841858E-07
vn -0.99902344 0.04537964 -2.3841858E-07
vn -0.99902344 0.04537964 -2.3841858E-07
vn -0.99902344 0.04537964 -2.3841858E-07
vn 2.9802322E-07 1.1920929E-07 -1
vn 2.9802322E-07 1.1920929E-07 -1
vn 2.9802322E-07 1.1920929E-07 -1
vn 2.9802322E-07 1.1920929E-07 -1
vn 2.9802322E-07 1.1920929E-07 -1
vn 2.9802322E-07 1.1920929E-07 -1
vn 2.9802322E-07 1.1920929E-07 -1
vn 2.9802322E-07 1.1920929E-07 -1
vn 2.9802322E-07 1.1920929E-07 -1
vn 2.9802322E-07 1.1920929E-07 -1
vn 2.9802322E-07 1.1920929E-07 -1
vn 2.9802322E-07 1.1920929E-07 -1
vn 2.9802322E-07 1.1920929E-07 -1
vn 2.9802322E-07 1.1920929E-07 -1
vn 2.9802322E-07 1.1920929E-07 -1
vn 1.7881393E-07 0 -1
vn 1.7881393E-07 0 -1
vn 1.7881393E-07 0 -1
vn 1.7881393E-07 0 -1
vn 1.7881393E-07 0 -1
vn 1.7881393E-07 0 -1
vn 1.7881393E-07 0 -1
vn 1.7881393E-07 0 -1
vn 1.7881393E-07 0 -1
vn 1.7881393E-07 0 -1
vn 1.7881393E-07 0 -1
vn 1.7881393E-07 0 -1
vn 1.7881393E-07 0 -1
vn 1.7881393E-07 0 -1
vn 1.7881393E-07 0 -1
vn 1.7881393E-07 0 -1
vn 1.7881393E-07 0 -1
vn 1.7881393E-07 0 -1
g DecalMesh_MetroArea_Decal_Ground_26__51_0
f 3/3/3 2/2/2 1/1/1
f 6/6/6 5/5/5 4/4/4
f 9/9/9 8/8/8 7/7/7
f 12/12/12 11/11/11 10/10/10
f 15/15/15 14/14/14 13/13/13
f 18/18/18 17/17/17 16/16/16
f 21/21/21 20/20/20 19/19/19
f 24/24/24 23/23/23 22/22/22
f 27/27/27 26/26/26 25/25/25
f 30/30/30 29/29/29 28/28/28
f 33/33/33 32/32/32 31/31/31
f 36/36/36 35/35/35 34/34/34
f 39/39/39 38/38/38 37/37/37
f 42/42/42 41/41/41 40/40/40
f 45/45/45 44/44/44 43/43/43
f 48/48/48 47/47/47 46/46/46
f 51/51/51 50/50/50 49/49/49
f 54/54/54 53/53/53 52/52/52
f 57/57/57 56/56/56 55/55/55
f 60/60/60 59/59/59 58/58/58
