g DecalMesh_MetroArea_Decal_Graffiti_26__26
v 1.5183125 0.75043154 -0.23272054
v -0.70619255 -0.75043154 -0.23272033
v 1.5183123 -0.7504316 -0.23272052
v 1.5183125 0.75043154 -0.23272054
v 1.0220381 0.75043154 -0.2327205
v -0.9432407 -0.75043154 -0.23272032
v 1.5183125 0.75043154 -0.23272054
v -0.9432407 -0.75043154 -0.23272032
v -0.8308966 -0.75043154 -0.23272032
v 1.5183125 0.75043154 -0.23272054
v -0.83089674 -0.7504316 -0.23272032
v -0.70619255 -0.75043154 -0.23272033
v 1.022038 0.7504314 -0.2327205
v -1.5183125 0.7504315 -0.23272027
v -1.5183126 -0.75043154 -0.23272026
v 1.022038 0.7504314 -0.2327205
v -1.5183126 -0.75043154 -0.23272026
v -0.9432407 -0.75043154 -0.23272032
vt 0.734375 0.23205566
vt 0.92089844 0.14404297
vt 0.734375 0.14404297
vt 0.734375 0.23205566
vt 0.7758789 0.23205566
vt 0.9404297 0.14404297
vt 0.734375 0.23205566
vt 0.9404297 0.14404297
vt 0.93115234 0.14404297
vt 0.734375 0.23205566
vt 0.93115234 0.14404297
vt 0.92089844 0.14404297
vt 0.7758789 0.23205566
vt 0.98876953 0.23205566
vt 0.98876953 0.14404297
vt 0.7758789 0.23205566
vt 0.98876953 0.14404297
vt 0.9404297 0.14404297
vn -1.1920929E-07 0 -1
vn -1.1920929E-07 0 -1
vn -1.1920929E-07 0 -1
vn -1.1920929E-07 0 -1
vn -1.1920929E-07 0 -1
vn -1.1920929E-07 0 -1
vn -1.1920929E-07 0 -1
vn -1.1920929E-07 0 -1
vn -1.1920929E-07 0 -1
vn -1.1920929E-07 0 -1
vn -1.1920929E-07 0 -1
vn -1.1920929E-07 0 -1
vn -1.1920929E-07 0 -1
vn -1.1920929E-07 0 -1
vn -1.1920929E-07 0 -1
vn -1.1920929E-07 0 -1
vn -1.1920929E-07 0 -1
vn -1.1920929E-07 0 -1
g DecalMesh_MetroArea_Decal_Graffiti_26__26_0
f 3/3/3 2/2/2 1/1/1
f 6/6/6 5/5/5 4/4/4
f 9/9/9 8/8/8 7/7/7
f 12/12/12 11/11/11 10/10/10
f 15/15/15 14/14/14 13/13/13
f 18/18/18 17/17/17 16/16/16
