g DecalMesh_MetroArea_Decal_Graffiti_26__47
v 1.182737 -0.2913917 -0.021158205
v 1.182737 0.6159184 -0.022486199
v -1.1827371 0.6159184 -0.020617949
v 1.182737 -0.2913917 -0.021158205
v -1.1827371 0.6159184 -0.020617949
v -1.1827371 0.53184044 -0.020494888
v -1.1827372 0.25262073 -0.020086208
v -1.1827371 -0.6159184 -0.01881498
v 0.8011232 -0.6159184 -0.02038182
v 1.1827371 -0.29139176 -0.021158205
v -1.1827371 0.5318404 -0.020494888
v 0.8821634 -0.6159184 -0.020445824
v 1.1827371 -0.29139176 -0.021158205
v 0.8821634 -0.6159184 -0.020445824
v 1.1827371 -0.6159184 -0.020683214
v -1.1827371 0.5318404 -0.020494888
v -1.1827371 0.4862853 -0.02042821
v 0.8713757 -0.6159184 -0.020437304
v -1.1827371 0.5318404 -0.020494888
v 0.8713757 -0.6159184 -0.020437304
v 0.8821634 -0.6159184 -0.020445824
v -1.1827371 0.48628527 -0.02042821
v -1.1827372 0.25262073 -0.020086208
v 0.80112326 -0.6159184 -0.02038182
v -1.1827371 0.48628527 -0.02042821
v 0.80112326 -0.6159184 -0.02038182
v 0.8713757 -0.6159184 -0.020437304
vt 0.734375 0.16723633
vt 0.734375 0.23205566
vt 0.98876953 0.23205566
vt 0.734375 0.16723633
vt 0.98876953 0.23205566
vt 0.98876953 0.22607422
vt 0.98876953 0.20605469
vt 0.98876953 0.14404297
vt 0.7753906 0.14404297
vt 0.734375 0.16723633
vt 0.98876953 0.22607422
vt 0.76660156 0.14404297
vt 0.734375 0.16723633
vt 0.76660156 0.14404297
vt 0.734375 0.14404297
vt 0.98876953 0.22607422
vt 0.98876953 0.22277832
vt 0.7680664 0.14404297
vt 0.98876953 0.22607422
vt 0.7680664 0.14404297
vt 0.76660156 0.14404297
vt 0.98876953 0.22277832
vt 0.98876953 0.20605469
vt 0.7753906 0.14404297
vt 0.98876953 0.22277832
vt 0.7753906 0.14404297
vt 0.7680664 0.14404297
vn -0.00078964233 -0.0014638901 -1
vn -0.00078964233 -0.0014638901 -1
vn -0.00078964233 -0.0014638901 -1
vn -0.00078964233 -0.0014638901 -1
vn -0.00078964233 -0.0014638901 -1
vn -0.00078964233 -0.0014638901 -1
vn -0.00078964233 -0.0014638901 -1
vn -0.00078964233 -0.0014638901 -1
vn -0.00078964233 -0.0014638901 -1
vn -0.00078964233 -0.0014638901 -1
vn -0.00078964233 -0.0014638901 -1
vn -0.00078964233 -0.0014638901 -1
vn -0.00078964233 -0.0014638901 -1
vn -0.00078964233 -0.0014638901 -1
vn -0.00078964233 -0.0014638901 -1
vn -0.00078964233 -0.0014638901 -1
vn -0.00078964233 -0.0014638901 -1
vn -0.00078964233 -0.0014638901 -1
vn -0.00078964233 -0.0014638901 -1
vn -0.00078964233 -0.0014638901 -1
vn -0.00078964233 -0.0014638901 -1
vn -0.00078964233 -0.0014638901 -1
vn -0.00078964233 -0.0014638901 -1
vn -0.00078964233 -0.0014638901 -1
vn -0.00078964233 -0.0014638901 -1
vn -0.00078964233 -0.0014638901 -1
vn -0.00078964233 -0.0014638901 -1
g DecalMesh_MetroArea_Decal_Graffiti_26__47_0
f 3/3/3 2/2/2 1/1/1
f 6/6/6 5/5/5 4/4/4
f 9/9/9 8/8/8 7/7/7
f 12/12/12 11/11/11 10/10/10
f 15/15/15 14/14/14 13/13/13
f 18/18/18 17/17/17 16/16/16
f 21/21/21 20/20/20 19/19/19
f 24/24/24 23/23/23 22/22/22
f 27/27/27 26/26/26 25/25/25
