g DecalMesh_MetroArea_Decal_Ground_26__106
v 0.99899703 -0.90153676 -0.0019423432
v 0.99899715 -0.9013058 -0.020002032
v 0.77712846 -0.99717265 -0.01873569
v 0.99899703 -0.90153676 -0.0019423432
v 0.77712846 -0.99717265 -0.01873569
v 0.77758956 -0.99717265 -0.003157596
v 0.99899703 -0.90162665 0.005120471
v 0.7777691 -0.99717265 0.002937513
v 0.7778705 -0.99717265 0.0063825115
v 0.99899703 -0.90162665 0.005120471
v 0.99899703 -0.90153676 -0.0019423432
v 0.77758956 -0.99717265 -0.003157596
v 0.99899703 -0.90162665 0.005120471
v 0.77758956 -0.99717265 -0.003157596
v 0.777769 -0.99717265 0.0029375127
v 0.99899703 0.8308153 -0.004991468
v 0.92471665 1.0028274 0.0027163653
v 0.9246852 1.0028274 -0.0027984094
v 0.99899703 0.8308153 -0.004991468
v 0.99899703 0.83103156 0.011361296
v 0.9247896 1.0028274 0.015475653
v 0.99899703 0.8308153 -0.004991468
v 0.9247896 1.0028274 0.015475653
v 0.92471665 1.0028274 0.0027163657
v 0.99899703 0.8310315 0.011361294
v 0.99899703 0.8311473 0.02013696
v 0.9248286 1.0028274 0.022325795
v 0.99899703 0.8310315 0.011361294
v 0.9248286 1.0028274 0.022325795
v 0.92478955 1.0028274 0.015475652
v 0.99899703 -0.9013058 -0.020002032
v 0.74270666 1.0028274 -0.0010783316
v -0.30047467 -0.99717265 -0.008550087
v 0.99899703 -0.9013058 -0.020002032
v -0.30047467 -0.99717265 -0.008550087
v 0.77712834 -0.99717265 -0.01873569
v 0.74270666 1.0028274 -0.0010783316
v 0.41767073 1.0028274 0.0019939379
v -0.37558764 -0.99717265 -0.007840113
v 0.74270666 1.0028274 -0.0010783316
v -0.37558764 -0.99717265 -0.007840113
v -0.30047467 -0.99717265 -0.008550087
v 0.99899703 -0.9013058 -0.020002032
v 0.99899703 0.8308153 -0.004991468
v 0.9246852 1.0028274 -0.002798409
v 0.99899703 -0.9013058 -0.020002032
v 0.9246852 1.0028274 -0.002798409
v 0.74270666 1.0028274 -0.0010783316
v 0.41767073 1.0028274 0.0019939379
v -1.0010029 0.7493066 0.013206407
v -0.713089 -0.99717265 -0.004650007
v 0.41767073 1.0028274 0.0019939379
v -0.713089 -0.99717265 -0.004650007
v -0.37558764 -0.99717265 -0.007840113
v -1.0010029 0.7493066 0.013206407
v -1.0010029 -0.7024458 0.0006254988
v -0.87367654 -0.99717265 -0.0031321135
v -1.0010029 0.7493066 0.013206407
v -0.87367654 -0.99717265 -0.0031321135
v -0.713089 -0.99717265 -0.004650007
v 0.41767073 1.0028274 0.0019939379
v -0.7557009 1.0028274 0.013084795
v -1.0010029 0.8968352 0.014484893
v 0.41767073 1.0028274 0.0019939379
v -1.0010029 0.8968352 0.014484893
v -1.0010029 0.7493066 0.013206407
v -0.4658406 -0.99717265 0.026630227
v 0.020160658 -0.99717265 0.023749089
v -0.94160753 -0.66474676 0.030036272
v -0.4658406 -0.99717265 0.026630227
v -0.94160753 -0.66474676 0.030036272
v -0.9462396 -0.68033534 0.030036272
v -1.0010029 -0.99717265 0.029802805
v -0.4658406 -0.99717265 0.026630227
v -0.9462396 -0.68033534 0.030036272
v -1.0010029 -0.99717265 0.029802805
v -0.9462396 -0.68033534 0.030036272
v -1.0010029 -0.8646358 0.030036272
v 0.68115693 -0.99717265 0.019830534
v 0.2114274 1.0028274 0.02613827
v -0.4816758 0.88310826 0.030036272
v 0.68115693 -0.99717265 0.019830534
v -0.4816758 0.88310826 0.030036272
v -0.62671494 0.39499366 0.030036272
v 0.2114274 1.0028274 0.02613827
v 0.68115693 -0.99717265 0.019830534
v 0.8850459 -0.99717265 0.018621828
v 0.020160658 -0.99717265 0.023749089
v -0.6770953 0.22544335 0.030036272
v -0.94160753 -0.66474676 0.030036272
v 0.020160658 -0.99717265 0.023749089
v 0.68115693 -0.99717265 0.019830534
v -0.62671494 0.39499366 0.030036272
v 0.020160658 -0.99717265 0.023749089
v -0.62671494 0.39499366 0.030036272
v -0.6770953 0.22544335 0.030036272
v 0.2114274 1.0028274 0.02613827
v -0.4461021 1.0028274 0.030036272
v -0.48167568 0.88310826 0.030036272
v 0.99899703 -0.15107231 0.019436728
v 0.4103539 1.0028274 0.024958983
v 0.913828 -0.99717265 0.0184512
v 0.99899703 -0.15107231 0.019436728
v 0.913828 -0.99717265 0.0184512
v 0.99899703 -0.99717265 0.017946297
v 0.4103539 1.0028274 0.024958983
v 0.2114274 1.0028274 0.02613827
v 0.8850459 -0.99717265 0.018621828
v 0.4103539 1.0028274 0.024958983
v 0.8850459 -0.99717265 0.018621828
v 0.913828 -0.99717265 0.0184512
v 0.99899703 -0.15107241 0.019436728
v 0.99899703 0.68598497 0.020910455
v 0.7449853 1.0028273 0.022974597
v 0.99899703 -0.15107241 0.019436728
v 0.7449853 1.0028273 0.022974597
v 0.4103539 1.0028273 0.024958983
v 0.998997 0.6859851 0.020910455
v 0.9307839 1.0028274 0.0218731
v 0.7449853 1.0028274 0.022974595
v 0.998997 0.6859851 0.020910455
v 0.998997 1.0028274 0.021468703
v 0.9307839 1.0028274 0.0218731
vt 0.76953125 0.7661133
vt 0.76953125 0.7661133
vt 0.7944336 0.7548828
vt 0.76953125 0.7661133
vt 0.7944336 0.7548828
vt 0.7944336 0.7548828
vt 0.76953125 0.7661133
vt 0.7944336 0.7548828
vt 0.7944336 0.7548828
vt 0.76953125 0.7661133
vt 0.76953125 0.7661133
vt 0.7944336 0.7548828
vt 0.76953125 0.7661133
vt 0.7944336 0.7548828
vt 0.7944336 0.7548828
vt 0.76953125 0.96533203
vt 0.77783203 0.9848633
vt 0.77783203 0.9848633
vt 0.76953125 0.96533203
vt 0.76953125 0.96533203
vt 0.77783203 0.9848633
vt 0.76953125 0.96533203
vt 0.77783203 0.9848633
vt 0.77783203 0.9848633
vt 0.76953125 0.96533203
vt 0.76953125 0.96533203
vt 0.77783203 0.9848633
vt 0.76953125 0.96533203
vt 0.77783203 0.9848633
vt 0.77783203 0.9848633
vt 0.76953125 0.7661133
vt 0.79833984 0.9848633
vt 0.9165039 0.7548828
vt 0.76953125 0.7661133
vt 0.9165039 0.7548828
vt 0.7944336 0.7548828
vt 0.79833984 0.9848633
vt 0.83496094 0.9848633
vt 0.9248047 0.7548828
vt 0.79833984 0.9848633
vt 0.9248047 0.7548828
vt 0.9165039 0.7548828
vt 0.76953125 0.7661133
vt 0.76953125 0.96533203
vt 0.77783203 0.9848633
vt 0.76953125 0.7661133
vt 0.77783203 0.9848633
vt 0.79833984 0.9848633
vt 0.83496094 0.9848633
vt 0.99560547 0.9555664
vt 0.9628906 0.7548828
vt 0.83496094 0.9848633
vt 0.9628906 0.7548828
vt 0.9248047 0.7548828
vt 0.99560547 0.9555664
vt 0.99560547 0.7890625
vt 0.98095703 0.7548828
vt 0.99560547 0.9555664
vt 0.98095703 0.7548828
vt 0.9628906 0.7548828
vt 0.83496094 0.9848633
vt 0.96777344 0.9848633
vt 0.99560547 0.97265625
vt 0.83496094 0.9848633
vt 0.99560547 0.97265625
vt 0.99560547 0.9555664
vt 0.9350586 0.7548828
vt 0.8798828 0.7548828
vt 0.98876953 0.79345703
vt 0.9350586 0.7548828
vt 0.98876953 0.79345703
vt 0.9892578 0.7915039
vt 0.99560547 0.7548828
vt 0.9350586 0.7548828
vt 0.9892578 0.7915039
vt 0.99560547 0.7548828
vt 0.9892578 0.7915039
vt 0.99560547 0.77001953
vt 0.80566406 0.7548828
vt 0.85839844 0.9848633
vt 0.93652344 0.9711914
vt 0.80566406 0.7548828
vt 0.93652344 0.9711914
vt 0.953125 0.91503906
vt 0.85839844 0.9848633
vt 0.80566406 0.7548828
vt 0.78222656 0.7548828
vt 0.8798828 0.7548828
vt 0.9589844 0.8955078
vt 0.98876953 0.79345703
vt 0.8798828 0.7548828
vt 0.80566406 0.7548828
vt 0.953125 0.91503906
vt 0.8798828 0.7548828
vt 0.953125 0.91503906
vt 0.9589844 0.8955078
vt 0.85839844 0.9848633
vt 0.9326172 0.9848633
vt 0.93652344 0.9711914
vt 0.76953125 0.8520508
vt 0.8359375 0.9848633
vt 0.7792969 0.7548828
vt 0.76953125 0.8520508
vt 0.7792969 0.7548828
vt 0.76953125 0.7548828
vt 0.8359375 0.9848633
vt 0.85839844 0.9848633
vt 0.78222656 0.7548828
vt 0.8359375 0.9848633
vt 0.78222656 0.7548828
vt 0.7792969 0.7548828
vt 0.76953125 0.8520508
vt 0.76953125 0.9482422
vt 0.79833984 0.9848633
vt 0.76953125 0.8520508
vt 0.79833984 0.9848633
vt 0.8359375 0.9848633
vt 0.76953125 0.9482422
vt 0.77734375 0.9848633
vt 0.79833984 0.9848633
vt 0.76953125 0.9482422
vt 0.76953125 0.9848633
vt 0.77734375 0.9848633
vn 0.39648438 -0.91796875 -0.011703491
vn 0.39648438 -0.91796875 -0.011703491
vn 0.39648438 -0.91796875 -0.011703491
vn 0.39648438 -0.91796875 -0.011703491
vn 0.39648438 -0.91796875 -0.011703491
vn 0.39648438 -0.91796875 -0.011703491
vn 0.39648438 -0.91796875 -0.011703491
vn 0.39648438 -0.91796875 -0.011703491
vn 0.39648438 -0.91796875 -0.011703491
vn 0.39648438 -0.91796875 -0.011703491
vn 0.39648438 -0.91796875 -0.011703491
vn 0.39648438 -0.91796875 -0.011703491
vn 0.39648438 -0.91796875 -0.011703491
vn 0.39648438 -0.91796875 -0.011703491
vn 0.39648438 -0.91796875 -0.011703491
vn 0.91796875 0.39672852 -0.0052375793
vn 0.91796875 0.39672852 -0.0052375793
vn 0.91796875 0.39672852 -0.0052375793
vn 0.91796875 0.39672852 -0.0052375793
vn 0.91796875 0.39672852 -0.0052375793
vn 0.91796875 0.39672852 -0.0052375793
vn 0.91796875 0.39672852 -0.0052375793
vn 0.91796875 0.39672852 -0.0052375793
vn 0.91796875 0.39672852 -0.0052375793
vn 0.91796875 0.39672852 -0.0052375793
vn 0.91796875 0.39672852 -0.0052375793
vn 0.91796875 0.39672852 -0.0052375793
vn 0.91796875 0.39672852 -0.0052375793
vn 0.91796875 0.39672852 -0.0052375793
vn 0.91796875 0.39672852 -0.0052375793
vn -0.00945282 0.008666992 -1
vn -0.00945282 0.008666992 -1
vn -0.00945282 0.008666992 -1
vn -0.00945282 0.008666992 -1
vn -0.00945282 0.008666992 -1
vn -0.00945282 0.008666992 -1
vn -0.00945282 0.008666992 -1
vn -0.00945282 0.008666992 -1
vn -0.00945282 0.008666992 -1
vn -0.00945282 0.008666992 -1
vn -0.00945282 0.008666992 -1
vn -0.00945282 0.008666992 -1
vn -0.00945282 0.008666992 -1
vn -0.00945282 0.008666992 -1
vn -0.00945282 0.008666992 -1
vn -0.00945282 0.008666992 -1
vn -0.00945282 0.008666992 -1
vn -0.00945282 0.008666992 -1
vn -0.00945282 0.008666992 -1
vn -0.00945282 0.008666992 -1
vn -0.00945282 0.008666992 -1
vn -0.00945282 0.008666992 -1
vn -0.00945282 0.008666992 -1
vn -0.00945282 0.008666992 -1
vn -0.00945282 0.008666992 -1
vn -0.00945282 0.008666992 -1
vn -0.00945282 0.008666992 -1
vn -0.00945282 0.008666992 -1
vn -0.00945282 0.008666992 -1
vn -0.00945282 0.008666992 -1
vn -0.00945282 0.008666992 -1
vn -0.00945282 0.008666992 -1
vn -0.00945282 0.008666992 -1
vn -0.00945282 0.008666992 -1
vn -0.00945282 0.008666992 -1
vn -0.00945282 0.008666992 -1
vn -0.0059280396 0.0017614365 -1
vn -0.0059280396 0.0017614365 -1
vn -0.0059280396 0.0017614365 -1
vn -0.0059280396 0.0017614365 -1
vn -0.0059280396 0.0017614365 -1
vn -0.0059280396 0.0017614365 -1
vn -0.0059280396 0.0017614365 -1
vn -0.0059280396 0.0017614365 -1
vn -0.0059280396 0.0017614365 -1
vn -0.0059280396 0.0017614365 -1
vn -0.0059280396 0.0017614365 -1
vn -0.0059280396 0.0017614365 -1
vn -0.0059280396 0.0017614365 -1
vn -0.0059280396 0.0017614365 -1
vn -0.0059280396 0.0017614365 -1
vn -0.0059280396 0.0017614365 -1
vn -0.0059280396 0.0017614365 -1
vn -0.0059280396 0.0017614365 -1
vn -0.0059280396 0.0017614365 -1
vn -0.0059280396 0.0017614365 -1
vn -0.0059280396 0.0017614365 -1
vn -0.0059280396 0.0017614365 -1
vn -0.0059280396 0.0017614365 -1
vn -0.0059280396 0.0017614365 -1
vn -0.0059280396 0.0017614365 -1
vn -0.0059280396 0.0017614365 -1
vn -0.0059280396 0.0017614365 -1
vn -0.0059280396 0.0017614365 -1
vn -0.0059280396 0.0017614365 -1
vn -0.0059280396 0.0017614365 -1
vn -0.0059280396 0.0017614365 -1
vn -0.0059280396 0.0017614365 -1
vn -0.0059280396 0.0017614365 -1
vn -0.0059280396 0.0017614365 -1
vn -0.0059280396 0.0017614365 -1
vn -0.0059280396 0.0017614365 -1
vn -0.0059280396 0.0017614365 -1
vn -0.0059280396 0.0017614365 -1
vn -0.0059280396 0.0017614365 -1
vn -0.0059280396 0.0017614365 -1
vn -0.0059280396 0.0017614365 -1
vn -0.0059280396 0.0017614365 -1
vn -0.0059280396 0.0017614365 -1
vn -0.0059280396 0.0017614365 -1
vn -0.0059280396 0.0017614365 -1
vn -0.0059280396 0.0017614365 -1
vn -0.0059280396 0.0017614365 -1
vn -0.0059280396 0.0017614365 -1
vn -0.0059280396 0.0017614365 -1
vn -0.0059280396 0.0017614365 -1
vn -0.0059280396 0.0017614365 -1
vn -0.0059280396 0.0017614365 -1
vn -0.0059280396 0.0017614365 -1
vn -0.0059280396 0.0017614365 -1
vn -0.0059280396 0.0017614365 -1
vn -0.0059280396 0.0017614365 -1
vn -0.0059280396 0.0017614365 -1
g DecalMesh_MetroArea_Decal_Ground_26__106_0
f 3/3/3 2/2/2 1/1/1
f 6/6/6 5/5/5 4/4/4
f 9/9/9 8/8/8 7/7/7
f 12/12/12 11/11/11 10/10/10
f 15/15/15 14/14/14 13/13/13
f 18/18/18 17/17/17 16/16/16
f 21/21/21 20/20/20 19/19/19
f 24/24/24 23/23/23 22/22/22
f 27/27/27 26/26/26 25/25/25
f 30/30/30 29/29/29 28/28/28
f 33/33/33 32/32/32 31/31/31
f 36/36/36 35/35/35 34/34/34
f 39/39/39 38/38/38 37/37/37
f 42/42/42 41/41/41 40/40/40
f 45/45/45 44/44/44 43/43/43
f 48/48/48 47/47/47 46/46/46
f 51/51/51 50/50/50 49/49/49
f 54/54/54 53/53/53 52/52/52
f 57/57/57 56/56/56 55/55/55
f 60/60/60 59/59/59 58/58/58
f 63/63/63 62/62/62 61/61/61
f 66/66/66 65/65/65 64/64/64
f 69/69/69 68/68/68 67/67/67
f 72/72/72 71/71/71 70/70/70
f 75/75/75 74/74/74 73/73/73
f 78/78/78 77/77/77 76/76/76
f 81/81/81 80/80/80 79/79/79
f 84/84/84 83/83/83 82/82/82
f 87/87/87 86/86/86 85/85/85
f 90/90/90 89/89/89 88/88/88
f 93/93/93 92/92/92 91/91/91
f 96/96/96 95/95/95 94/94/94
f 99/99/99 98/98/98 97/97/97
f 102/102/102 101/101/101 100/100/100
f 105/105/105 104/104/104 103/103/103
f 108/108/108 107/107/107 106/106/106
f 111/111/111 110/110/110 109/109/109
f 114/114/114 113/113/113 112/112/112
f 117/117/117 116/116/116 115/115/115
f 120/120/120 119/119/119 118/118/118
f 123/123/123 122/122/122 121/121/121
