g DecalMesh_MetroArea_Decal_Graffiti_08__49
v 0.26444417 0.38757566 0.0019488427
v -0.8224573 0.02036421 0.0029310354
v -0.17133418 -0.38757563 -0.012410001
v 0.26444417 0.38757566 0.0019488427
v -0.17133418 -0.38757563 -0.012410001
v 0.5738955 -0.3875756 -0.018998777
v -0.8224573 0.02036421 0.0029310354
v -0.8224573 -0.38757563 -0.006653247
v -0.17133418 -0.38757563 -0.012410001
v 0.26444417 0.38757566 0.0019488427
v -0.8224573 0.38757566 0.01155843
v -0.82245725 0.020364229 0.0029310354
v 0.8224572 0.3875757 -0.0029846977
v 0.26444417 0.38757566 0.0019488427
v 0.5738955 -0.3875756 -0.018998777
v 0.8224572 0.3875757 -0.0029846977
v 0.5738955 -0.3875756 -0.018998777
v 0.8224572 -0.38757563 -0.021196377
vt 0.37524414 0.6850586
vt 0.4724121 0.6328125
vt 0.41430664 0.57470703
vt 0.37524414 0.6850586
vt 0.41430664 0.57470703
vt 0.34765625 0.57470703
vt 0.4724121 0.6328125
vt 0.4724121 0.57470703
vt 0.41430664 0.57470703
vt 0.37524414 0.6850586
vt 0.4724121 0.6850586
vt 0.4724121 0.6328125
vt 0.32543945 0.6850586
vt 0.37524414 0.6850586
vt 0.34765625 0.57470703
vt 0.32543945 0.6850586
vt 0.34765625 0.57470703
vt 0.32543945 0.57470703
vn -0.008834839 0.023483276 -0.9995117
vn -0.008834839 0.023483276 -0.9995117
vn -0.008834839 0.023483276 -0.9995117
vn -0.008834839 0.023483276 -0.9995117
vn -0.008834839 0.023483276 -0.9995117
vn -0.008834839 0.023483276 -0.9995117
vn -0.008834839 0.023483276 -0.9995117
vn -0.008834839 0.023483276 -0.9995117
vn -0.008834839 0.023483276 -0.9995117
vn -0.008834839 0.023483276 -0.9995117
vn -0.008834839 0.023483276 -0.9995117
vn -0.008834839 0.023483276 -0.9995117
vn -0.008834839 0.023483276 -0.9995117
vn -0.008834839 0.023483276 -0.9995117
vn -0.008834839 0.023483276 -0.9995117
vn -0.008834839 0.023483276 -0.9995117
vn -0.008834839 0.023483276 -0.9995117
vn -0.008834839 0.023483276 -0.9995117
g DecalMesh_MetroArea_Decal_Graffiti_08__49_0
f 3/3/3 2/2/2 1/1/1
f 6/6/6 5/5/5 4/4/4
f 9/9/9 8/8/8 7/7/7
f 12/12/12 11/11/11 10/10/10
f 15/15/15 14/14/14 13/13/13
f 18/18/18 17/17/17 16/16/16
