g DecalMesh_Common_Decal_Sign_14__23
v 0.19999999 0.2500001 -0.09555435
v -0.19999997 0.018935032 -0.09555435
v -0.112165146 -0.24999999 -0.09555435
v 0.19999999 0.2500001 -0.09555435
v -0.112165146 -0.24999999 -0.09555435
v 0.19999999 -0.24999996 -0.09555435
v -0.19999997 0.018935032 -0.09555435
v -0.19999997 -0.25 -0.09555435
v -0.11216514 -0.25 -0.09555435
v 0.19999999 0.2500001 -0.09555435
v -0.20000002 0.25000006 -0.09555435
v -0.20000002 0.01893501 -0.09555435
vt -0.118896484 0.9970703
vt -0.05886841 0.95947266
vt -0.072021484 0.9160156
vt -0.118896484 0.9970703
vt -0.072021484 0.9160156
vt -0.118896484 0.9160156
vt -0.05886841 0.95947266
vt -0.05886841 0.9160156
vt -0.072021484 0.9160156
vt -0.118896484 0.9970703
vt -0.05886841 0.9970703
vt -0.05886841 0.95947266
vn -0 0 -1
vn -0 0 -1
vn -0 0 -1
vn -0 0 -1
vn -0 0 -1
vn -0 0 -1
vn -0 0 -1
vn -0 0 -1
vn -0 0 -1
vn -0 0 -1
vn -0 0 -1
vn -0 0 -1
g DecalMesh_Common_Decal_Sign_14__23_0
f 3/3/3 2/2/2 1/1/1
f 6/6/6 5/5/5 4/4/4
f 9/9/9 8/8/8 7/7/7
f 12/12/12 11/11/11 10/10/10
