g DecalMesh_MetroArea_Decal_Ground_15__4
v 1.0385653 -0.2593134 -0.7328398
v -0.8575923 -1.0473487 -0.7328403
v 1.0385653 -1.0473487 -0.73283976
v 1.0385653 -0.2593134 -0.7328398
v 1.0385653 -0.059983604 -0.7328398
v -0.93826383 -1.0473487 -0.73284036
v 1.0385653 -0.2593134 -0.7328398
v -0.93826383 -1.0473487 -0.73284036
v -0.9144096 -1.0473487 -0.7328403
v 1.0385653 -0.2593134 -0.7328398
v -0.9144095 -1.0473487 -0.7328403
v -0.8575923 -1.0473487 -0.7328403
v 1.0385653 -0.059983604 -0.7328398
v 1.0385653 0.13891786 -0.7328398
v -0.9956318 -1.0473487 -0.73284036
v 1.0385653 -0.059983604 -0.7328398
v -0.9956318 -1.0473487 -0.73284036
v -0.9871969 -1.0473487 -0.73284036
v 1.0385653 -0.059983604 -0.7328398
v -0.9871969 -1.0473487 -0.73284036
v -0.93826383 -1.0473487 -0.73284036
v 1.0385653 0.13891786 -0.7328398
v 1.0385652 1.0473487 -0.7328394
v -1.0385653 -0.95792973 -0.7328403
v 1.0385653 0.13891786 -0.7328398
v -1.0385653 -0.95792973 -0.7328403
v -1.0385653 -1.0473487 -0.73284036
v 1.0385653 0.13891786 -0.7328398
v -1.0385653 -1.0473487 -0.73284036
v -0.9956318 -1.0473487 -0.73284036
v 1.0385652 1.0473487 -0.7328394
v 0.9560128 1.0473487 -0.7328394
v -1.0385653 -0.94752717 -0.7328403
v 1.0385652 1.0473487 -0.7328394
v -1.0385653 -0.94752717 -0.7328403
v -1.0385653 -0.95792973 -0.7328403
v 0.95601285 1.0473489 -0.7328394
v 0.67516905 1.0473489 -0.73283887
v -1.0385653 -0.90574926 -0.7328402
v 0.95601285 1.0473489 -0.7328394
v -1.0385653 -0.90574926 -0.7328402
v -1.0385653 -0.94752717 -0.7328403
v 0.67516905 1.0473489 -0.73283887
v 0.04095869 1.0473487 -0.7328396
v -1.0385653 -0.7487997 -0.73284024
v 0.67516905 1.0473489 -0.73283887
v -1.0385653 -0.7487997 -0.73284024
v -1.0385653 -0.90574926 -0.7328402
v 0.04095869 1.0473487 -0.7328396
v -0.23406336 1.0473486 -0.7328396
v -1.0385653 -0.6246827 -0.7328402
v 0.04095869 1.0473487 -0.7328396
v -1.0385653 -0.6246827 -0.7328402
v -1.0385653 -0.7487997 -0.73284024
v -0.2340633 1.0473487 -0.7328396
v -0.38773754 1.0473487 -0.7328401
v -1.0385653 -0.5240421 -0.7328403
v -0.2340633 1.0473487 -0.7328396
v -1.0385653 -0.5240421 -0.7328403
v -1.0385653 -0.62468266 -0.7328402
v -0.38773754 1.0473487 -0.7328401
v -0.42041135 1.0473487 -0.7328401
v -1.0385653 -0.49829862 -0.7328403
v -0.38773754 1.0473487 -0.7328401
v -1.0385653 -0.49829862 -0.7328403
v -1.0385653 -0.5240421 -0.7328403
v -0.42041135 1.0473487 -0.7328401
v -0.6486982 1.0473487 -0.7328401
v -1.0385653 -0.25033715 -0.7328403
v -0.42041135 1.0473487 -0.7328401
v -1.0385653 -0.25033715 -0.7328403
v -1.0385653 -0.49829862 -0.7328403
v -0.6486982 1.0473487 -0.7328401
v -1.0385653 1.0473487 -0.7328402
v -1.0385653 -0.25033715 -0.7328403
vt 0.0018415451 0.4645996
vt 0.1282959 0.41186523
vt 0.0018415451 0.41186523
vt 0.0018415451 0.4645996
vt 0.0018415451 0.4777832
vt 0.13366699 0.41186523
vt 0.0018415451 0.4645996
vt 0.13366699 0.41186523
vt 0.13208008 0.41186523
vt 0.0018415451 0.4645996
vt 0.13208008 0.41186523
vt 0.1282959 0.41186523
vt 0.0018415451 0.4777832
vt 0.0018415451 0.4909668
vt 0.13745117 0.41186523
vt 0.0018415451 0.4777832
vt 0.13745117 0.41186523
vt 0.13684082 0.41186523
vt 0.0018415451 0.4777832
vt 0.13684082 0.41186523
vt 0.13366699 0.41186523
vt 0.0018415451 0.4909668
vt 0.0018415451 0.5517578
vt 0.14025879 0.41796875
vt 0.0018415451 0.4909668
vt 0.14025879 0.41796875
vt 0.14025879 0.41186523
vt 0.0018415451 0.4909668
vt 0.14025879 0.41186523
vt 0.13745117 0.41186523
vt 0.0018415451 0.5517578
vt 0.0073432922 0.5517578
vt 0.14025879 0.41870117
vt 0.0018415451 0.5517578
vt 0.14025879 0.41870117
vt 0.14025879 0.41796875
vt 0.0073432922 0.5517578
vt 0.026062012 0.5517578
vt 0.14025879 0.42138672
vt 0.0073432922 0.5517578
vt 0.14025879 0.42138672
vt 0.14025879 0.41870117
vt 0.026062012 0.5517578
vt 0.068359375 0.5517578
vt 0.14025879 0.43188477
vt 0.026062012 0.5517578
vt 0.14025879 0.43188477
vt 0.14025879 0.42138672
vt 0.068359375 0.5517578
vt 0.08666992 0.5517578
vt 0.14025879 0.44018555
vt 0.068359375 0.5517578
vt 0.14025879 0.44018555
vt 0.14025879 0.43188477
vt 0.08666992 0.5517578
vt 0.09692383 0.5517578
vt 0.14025879 0.44677734
vt 0.08666992 0.5517578
vt 0.14025879 0.44677734
vt 0.14025879 0.44018555
vt 0.09692383 0.5517578
vt 0.099121094 0.5517578
vt 0.14025879 0.44848633
vt 0.09692383 0.5517578
vt 0.14025879 0.44848633
vt 0.14025879 0.44677734
vt 0.099121094 0.5517578
vt 0.11431885 0.5517578
vt 0.14025879 0.4650879
vt 0.099121094 0.5517578
vt 0.14025879 0.4650879
vt 0.14025879 0.44848633
vt 0.11431885 0.5517578
vt 0.14025879 0.5517578
vt 0.14025879 0.4650879
vn 2.3841858E-07 5.9604645E-08 -1
vn 2.3841858E-07 5.9604645E-08 -1
vn 2.3841858E-07 5.9604645E-08 -1
vn 2.3841858E-07 5.9604645E-08 -1
vn 2.3841858E-07 5.9604645E-08 -1
vn 2.3841858E-07 5.9604645E-08 -1
vn 2.3841858E-07 5.9604645E-08 -1
vn 2.3841858E-07 5.9604645E-08 -1
vn 2.3841858E-07 5.9604645E-08 -1
vn 2.3841858E-07 5.9604645E-08 -1
vn 2.3841858E-07 5.9604645E-08 -1
vn 2.3841858E-07 5.9604645E-08 -1
vn 2.3841858E-07 5.9604645E-08 -1
vn 4.172325E-07 0.000623703 -1
vn 2.3841858E-07 8.994341E-05 -1
vn 2.3841858E-07 5.9604645E-08 -1
vn 2.3841858E-07 8.994341E-05 -1
vn 2.3841858E-07 7.671118E-05 -1
vn 2.3841858E-07 5.9604645E-08 -1
vn 2.3841858E-07 7.671118E-05 -1
vn 2.3841858E-07 5.9604645E-08 -1
vn 4.172325E-07 0.000623703 -1
vn -1.1920929E-07 5.2452087E-05 -1
vn 1.7881393E-07 6.67572E-06 -1
vn 4.172325E-07 0.000623703 -1
vn 1.7881393E-07 6.67572E-06 -1
vn 2.3841858E-07 6.28829E-05 -1
vn 4.172325E-07 0.000623703 -1
vn 2.3841858E-07 6.28829E-05 -1
vn 2.3841858E-07 8.994341E-05 -1
vn -1.1920929E-07 5.2452087E-05 -1
vn -1.7881393E-07 5.364418E-07 -1
vn 1.7881393E-07 1.1920929E-07 -1
vn -1.1920929E-07 5.2452087E-05 -1
vn 1.7881393E-07 1.1920929E-07 -1
vn 1.7881393E-07 6.67572E-06 -1
vn -1.7881393E-07 5.364418E-07 -1
vn 2.026558E-06 -0.0005378723 -1
vn 4.7683716E-07 -7.998943E-05 -1
vn -1.7881393E-07 5.364418E-07 -1
vn 4.7683716E-07 -7.998943E-05 -1
vn 1.7881393E-07 1.1920929E-07 -1
vn 2.026558E-06 -0.0005378723 -1
vn 3.5762787E-07 -1.1920929E-07 -1
vn 2.3841858E-07 0 -1
vn 2.026558E-06 -0.0005378723 -1
vn 2.3841858E-07 0 -1
vn 4.7683716E-07 -7.998943E-05 -1
vn 3.5762787E-07 -1.1920929E-07 -1
vn 5.364418E-07 -0 -1
vn 2.9802322E-07 5.9604645E-08 -1
vn 3.5762787E-07 -1.1920929E-07 -1
vn 2.9802322E-07 5.9604645E-08 -1
vn 2.3841858E-07 0 -1
vn 5.364418E-07 -0 -1
vn 1.6093254E-06 -5.9604645E-07 -1
vn 6.556511E-07 -1.1920929E-07 -1
vn 5.364418E-07 -0 -1
vn 6.556511E-07 -1.1920929E-07 -1
vn 2.9802322E-07 5.9604645E-08 -1
vn 1.6093254E-06 -5.9604645E-07 -1
vn 0.0017309189 5.9604645E-08 -1
vn 0.00056505203 5.9604645E-08 -1
vn 1.6093254E-06 -5.9604645E-07 -1
vn 0.00056505203 5.9604645E-08 -1
vn 6.556511E-07 -1.1920929E-07 -1
vn 0.0017309189 5.9604645E-08 -1
vn 1.1920929E-07 5.9604645E-08 -1
vn 1.7881393E-07 5.9604645E-08 -1
vn 0.0017309189 5.9604645E-08 -1
vn 1.7881393E-07 5.9604645E-08 -1
vn 0.00056505203 5.9604645E-08 -1
vn 1.1920929E-07 5.9604645E-08 -1
vn 1.7881393E-07 5.9604645E-08 -1
vn 1.7881393E-07 5.9604645E-08 -1
g DecalMesh_MetroArea_Decal_Ground_15__4_0
f 3/3/3 2/2/2 1/1/1
f 6/6/6 5/5/5 4/4/4
f 9/9/9 8/8/8 7/7/7
f 12/12/12 11/11/11 10/10/10
f 15/15/15 14/14/14 13/13/13
f 18/18/18 17/17/17 16/16/16
f 21/21/21 20/20/20 19/19/19
f 24/24/24 23/23/23 22/22/22
f 27/27/27 26/26/26 25/25/25
f 30/30/30 29/29/29 28/28/28
f 33/33/33 32/32/32 31/31/31
f 36/36/36 35/35/35 34/34/34
f 39/39/39 38/38/38 37/37/37
f 42/42/42 41/41/41 40/40/40
f 45/45/45 44/44/44 43/43/43
f 48/48/48 47/47/47 46/46/46
f 51/51/51 50/50/50 49/49/49
f 54/54/54 53/53/53 52/52/52
f 57/57/57 56/56/56 55/55/55
f 60/60/60 59/59/59 58/58/58
f 63/63/63 62/62/62 61/61/61
f 66/66/66 65/65/65 64/64/64
f 69/69/69 68/68/68 67/67/67
f 72/72/72 71/71/71 70/70/70
f 75/75/75 74/74/74 73/73/73
