g DecalMesh_MetroArea_Decal_Wall_47__57
v 0.5167118 0.17500001 0.036907453
v -0.0161441 -0.17499998 0.036904324
v 0.5167118 -0.17500003 0.036907453
v 0.5167118 0.17500001 0.036907453
v -0.5167118 0.17499997 0.036901385
v -0.5167118 -0.17499998 0.036901385
v 0.5167118 0.17500001 0.036907453
v -0.5167118 -0.17499998 0.036901385
v -0.0161441 -0.17499998 0.036904324
vt 0.50341797 0.27172852
vt 0.5859375 0.21911621
vt 0.50341797 0.21911621
vt 0.50341797 0.27172852
vt 0.6635742 0.27172852
vt 0.6635742 0.21911621
vt 0.50341797 0.27172852
vt 0.6635742 0.21911621
vt 0.5859375 0.21911621
vn 5.90086E-06 0 -1
vn 5.90086E-06 0 -1
vn 5.90086E-06 0 -1
vn 5.90086E-06 0 -1
vn 5.90086E-06 0 -1
vn 5.90086E-06 0 -1
vn 5.90086E-06 0 -1
vn 5.90086E-06 0 -1
vn 5.90086E-06 0 -1
g DecalMesh_MetroArea_Decal_Wall_47__57_0
f 3/3/3 2/2/2 1/1/1
f 6/6/6 5/5/5 4/4/4
f 9/9/9 8/8/8 7/7/7
