g DecalMesh_Common_Decal_Crack_01__7
v 1.243227 0.70837486 -0.44190034
v -1.2432269 0.23048317 -0.44190034
v 1.1869631 -0.70837486 -0.44190037
v 1.243227 0.70837486 -0.44190034
v 1.1869631 -0.70837486 -0.44190037
v 1.243227 -0.70837486 -0.44190037
v -1.2432269 0.23048317 -0.44190034
v -1.2432269 -0.70837486 -0.44190037
v 1.1869631 -0.70837486 -0.44190037
v 1.243227 0.70837486 -0.44190034
v -1.243227 0.70837486 -0.44190034
v -1.2432269 0.23048317 -0.44190034
vt 2.046875 1.1347656
vt 2.3574219 1.0751953
vt 2.0527344 0.9580078
vt 2.046875 1.1347656
vt 2.0527344 0.9580078
vt 2.046875 0.9580078
vt 2.3574219 1.0751953
vt 2.3574219 0.9580078
vt 2.0527344 0.9580078
vt 2.046875 1.1347656
vt 2.3574219 1.1347656
vt 2.3574219 1.0751953
vn -0 0 -1
vn -0 0 -1
vn -0 0 -1
vn -0 0 -1
vn -0 0 -1
vn -0 0 -1
vn -0 0 -1
vn -0 0 -1
vn -0 0 -1
vn -0 0 -1
vn -0 0 -1
vn -0 0 -1
g DecalMesh_Common_Decal_Crack_01__7_0
f 3/3/3 2/2/2 1/1/1
f 6/6/6 5/5/5 4/4/4
f 9/9/9 8/8/8 7/7/7
f 12/12/12 11/11/11 10/10/10
