g DecalMesh_MetroArea_Decal_Ground_27__16
v 0.61174667 0.005026048 -0.78683215
v -0.61174667 0.0050294884 -0.78683203
v -0.43359178 -0.8565592 -0.78683203
v 0.61174667 0.005026048 -0.78683215
v -0.43359178 -0.8565592 -0.78683203
v 0.61174667 -0.856559 -0.78683215
v -0.61174667 0.0050294884 -0.78683203
v -0.61174667 -0.8565591 -0.78683203
v -0.4335918 -0.8565591 -0.78683203
v 0.61174667 -0.0032938062 -0.7877318
v 0.4251826 0.8565589 -0.78773177
v -0.6117466 0.17919059 -0.7877316
v 0.61174667 -0.0032938062 -0.7877318
v -0.6117466 0.17919059 -0.7877316
v -0.6117466 -0.003290366 -0.7877316
v 0.4251826 0.8565589 -0.78773177
v -0.61174667 0.8565589 -0.7877316
v -0.6117466 0.1791906 -0.7877316
v 0.61174667 -0.0032938062 -0.7877318
v 0.61174667 0.8565591 -0.7877318
v 0.42518258 0.8565591 -0.78773177
vt 0.006801605 0.18127441
vt 0.1394043 0.18127441
vt 0.12005615 0.089782715
vt 0.006801605 0.18127441
vt 0.12005615 0.089782715
vt 0.006801605 0.089782715
vt 0.1394043 0.18127441
vt 0.1394043 0.089782715
vt 0.12005615 0.089782715
vt 0.006801605 0.18041992
vt 0.027008057 0.27172852
vt 0.1394043 0.1998291
vt 0.006801605 0.18041992
vt 0.1394043 0.1998291
vt 0.1394043 0.18041992
vt 0.027008057 0.27172852
vt 0.1394043 0.27172852
vt 0.1394043 0.1998291
vt 0.006801605 0.18041992
vt 0.006801605 0.27172852
vt 0.027008057 0.27172852
vn -1.1920929E-07 0 -1
vn -1.1920929E-07 0 -1
vn -1.1920929E-07 0 -1
vn -1.1920929E-07 0 -1
vn -1.1920929E-07 0 -1
vn -1.1920929E-07 0 -1
vn -1.1920929E-07 0 -1
vn -1.1920929E-07 0 -1
vn -1.1920929E-07 0 -1
vn -2.3841858E-07 0 -1
vn -2.3841858E-07 0 -1
vn -2.3841858E-07 0 -1
vn -2.3841858E-07 0 -1
vn -2.3841858E-07 0 -1
vn -2.3841858E-07 0 -1
vn -2.3841858E-07 0 -1
vn -2.3841858E-07 0 -1
vn -2.3841858E-07 0 -1
vn -2.3841858E-07 0 -1
vn -2.3841858E-07 0 -1
vn -2.3841858E-07 0 -1
g DecalMesh_MetroArea_Decal_Ground_27__16_0
f 3/3/3 2/2/2 1/1/1
f 6/6/6 5/5/5 4/4/4
f 9/9/9 8/8/8 7/7/7
f 12/12/12 11/11/11 10/10/10
f 15/15/15 14/14/14 13/13/13
f 18/18/18 17/17/17 16/16/16
f 21/21/21 20/20/20 19/19/19
