g DecalMesh_Common_Decal_Sign_16__74
v -0.1926637 -0.14992018 -0.072123855
v -0.1926637 -0.23132908 -0.072123855
v -0.17960508 -0.23132908 -0.07212378
v 0.19266376 0.23132902 -0.07212155
v -0.1926637 0.23132907 -0.072123855
v -0.12861493 -0.23132911 -0.072123475
v 0.19266376 0.23132902 -0.07212155
v -0.12861493 -0.23132911 -0.072123475
v 0.19266376 -0.23132916 -0.07212155
v -0.1926637 0.23132907 -0.072123855
v -0.1926637 -0.14992014 -0.072123855
v -0.17960508 -0.23132902 -0.07212378
v -0.1926637 0.23132907 -0.072123855
v -0.17960508 -0.23132902 -0.07212378
v -0.12861493 -0.23132911 -0.072123475
vt -0.008148193 0.87402344
vt -0.008148193 0.86572266
vt -0.00945282 0.86572266
vt -0.046691895 0.9121094
vt -0.008148193 0.9121094
vt -0.014549255 0.86572266
vt -0.046691895 0.9121094
vt -0.014549255 0.86572266
vt -0.046691895 0.86572266
vt -0.008148193 0.9121094
vt -0.008148193 0.87402344
vt -0.00945282 0.86572266
vt -0.008148193 0.9121094
vt -0.00945282 0.86572266
vt -0.014549255 0.86572266
vn 5.90086E-06 0 -1
vn 5.90086E-06 0 -1
vn 5.90086E-06 0 -1
vn 5.90086E-06 0 -1
vn 5.90086E-06 0 -1
vn 5.90086E-06 0 -1
vn 5.90086E-06 0 -1
vn 5.90086E-06 0 -1
vn 5.90086E-06 0 -1
vn 5.90086E-06 0 -1
vn 5.90086E-06 0 -1
vn 5.90086E-06 0 -1
vn 5.90086E-06 0 -1
vn 5.90086E-06 0 -1
vn 5.90086E-06 0 -1
g DecalMesh_Common_Decal_Sign_16__74_0
f 3/3/3 2/2/2 1/1/1
f 6/6/6 5/5/5 4/4/4
f 9/9/9 8/8/8 7/7/7
f 12/12/12 11/11/11 10/10/10
f 15/15/15 14/14/14 13/13/13
