g DecalMesh_MetroArea_Decal_Lamp_01__62
v 1.1707677 0.1162384 -0.081069656
v 1.229626 0.107658386 -0.081109226
v 1.2032051 0.11151327 -0.1
v 1.1707677 0.1162384 -0.081069656
v 1.2032051 0.11151327 -0.1
v 1.170791 0.1162384 -0.1
v 1.229626 0.107658386 -0.081109226
v 1.2296149 0.1076636 -0.1
v 1.2074479 0.110894814 -0.1
v 1.229626 0.107658386 -0.081109226
v 1.2074479 0.110894814 -0.1
v 1.2032051 0.111513264 -0.1
v -1.2311887 0.10765791 -0.07964568
v -1.1711278 0.1162384 -0.07967628
v -1.1711805 0.1162384 -0.1
v -1.2311887 0.10765791 -0.07964568
v -1.1711805 0.1162384 -0.1
v -1.2022154 0.11180465 -0.1
v -1.2311887 0.10765791 -0.07964568
v -1.2022154 0.11180465 -0.1
v -1.2312008 0.10766372 -0.1
v -1.2822073 0.077046394 -0.07963508
v -1.2311887 0.10765791 -0.07964568
v -1.2312008 0.10766372 -0.1
v -1.2822073 0.077046394 -0.07963508
v -1.2312008 0.10766372 -0.1
v -1.261493 0.08948823 -0.1
v -1.2822073 0.077046394 -0.07963508
v -1.261493 0.08948823 -0.1
v -1.2822193 0.07705201 -0.1
v -1.3128206 0.026027203 -0.079647414
v -1.2822073 0.077046394 -0.07963508
v -1.2822193 0.07705201 -0.1
v -1.3128206 0.026027203 -0.079647414
v -1.2822193 0.07705201 -0.1
v -1.3003953 0.046760414 -0.1
v -1.3128206 0.026027203 -0.079647414
v -1.3003953 0.046760414 -0.1
v -1.3128326 0.026032627 -0.1
v -1.3128206 0.026027203 -0.079647414
v -1.3128326 0.026032627 -0.1
v -1.3169758 -0.0029790625 -0.1
v -1.3230214 -0.045401096 -0.07968365
v -1.3128206 0.026027203 -0.079647414
v -1.3169758 -0.0029790625 -0.1
v -1.3230214 -0.045401096 -0.07968365
v -1.3169758 -0.0029790625 -0.1
v -1.3230333 -0.045395292 -0.099999994
v -1.3230214 -0.045401096 -0.07968365
v -1.3230333 -0.045395292 -0.1
v -1.3230336 -0.07848762 -0.099999994
v -1.3230219 -0.11623841 -0.07968389
v -1.3230214 -0.045401096 -0.07968365
v -1.3230336 -0.07848763 -0.099999994
v -1.3230219 -0.11623841 -0.07968389
v -1.3230336 -0.07848763 -0.099999994
v -1.3230338 -0.1162384 -0.1
v 1.3214949 0.1162384 -0.09529092
v 0.6102616 -0.1162384 -0.09486795
v 1.3214949 -0.1162384 -0.09529092
v 1.3214949 0.1162384 -0.09529092
v 1.316564 0.1162384 -0.095287986
v 0.6066568 -0.11623842 -0.09486581
v 1.3214949 0.1162384 -0.09529092
v 0.6066568 -0.11623842 -0.09486581
v 0.61026156 -0.11623842 -0.09486795
v 1.316564 0.1162384 -0.095287986
v -1.3229958 0.11623839 -0.093718246
v -1.3229958 -0.11623843 -0.093718246
v 1.316564 0.1162384 -0.095287986
v -1.3229958 -0.11623843 -0.093718246
v 0.6066568 -0.11623842 -0.09486581
v 0.013959857 0.1162384 -0.087302335
v 0.013952009 0.1162384 -0.1
v 0.013952009 -0.008150814 -0.1
v 0.013959857 0.1162384 -0.087302335
v 0.013952009 -0.008150814 -0.1
v 0.013952009 -0.00962306 -0.1
v 0.0139599955 -0.11623839 -0.087078
v 0.0139599955 0.1162384 -0.087078
v 0.013952009 -0.010647239 -0.1
v 0.0139599955 -0.11623839 -0.087078
v 0.013952009 -0.010647239 -0.1
v 0.013952009 -0.11623839 -0.1
v 0.0139599955 0.1162384 -0.087078
v 0.013959857 0.1162384 -0.087302335
v 0.013952009 -0.009623067 -0.1
v 0.0139599955 0.1162384 -0.087078
v 0.013952009 -0.009623067 -0.1
v 0.013952009 -0.010633193 -0.1
v 0.0139599955 0.1162384 -0.087078
v 0.013952009 -0.0106331855 -0.1
v 0.013952009 -0.01064725 -0.1
vt -0.049438477 0.9941406
vt -0.075683594 0.99072266
vt -0.06390381 0.9921875
vt -0.049438477 0.9941406
vt -0.06390381 0.9921875
vt -0.049438477 0.9941406
vt -0.075683594 0.99072266
vt -0.07562256 0.99072266
vt -0.0657959 0.9916992
vt -0.075683594 0.99072266
vt -0.0657959 0.9916992
vt -0.06390381 0.9921875
vt 1.0205078 0.99072266
vt 0.99365234 0.9941406
vt 0.99365234 0.9941406
vt 1.0205078 0.99072266
vt 0.99365234 0.9941406
vt 1.0078125 0.9921875
vt 1.0205078 0.99072266
vt 1.0078125 0.9921875
vt 1.0205078 0.99072266
vt 1.0429688 0.9785156
vt 1.0205078 0.99072266
vt 1.0205078 0.99072266
vt 1.0429688 0.9785156
vt 1.0205078 0.99072266
vt 1.0341797 0.98339844
vt 1.0429688 0.9785156
vt 1.0341797 0.98339844
vt 1.0429688 0.9785156
vt 1.0566406 0.9589844
vt 1.0429688 0.9785156
vt 1.0429688 0.9785156
vt 1.0566406 0.9589844
vt 1.0429688 0.9785156
vt 1.0517578 0.9667969
vt 1.0566406 0.9589844
vt 1.0517578 0.9667969
vt 1.0566406 0.9589844
vt 1.0566406 0.9589844
vt 1.0566406 0.9589844
vt 1.0585938 0.9477539
vt 1.0615234 0.93115234
vt 1.0566406 0.9589844
vt 1.0585938 0.9477539
vt 1.0615234 0.93115234
vt 1.0585938 0.9477539
vt 1.0615234 0.93115234
vt 1.0615234 0.93115234
vt 1.0615234 0.93115234
vt 1.0615234 0.91796875
vt 1.0615234 0.9033203
vt 1.0615234 0.93115234
vt 1.0615234 0.91796875
vt 1.0615234 0.9033203
vt 1.0615234 0.91796875
vt 1.0615234 0.9033203
vt -0.11657715 0.9941406
vt 0.20031738 0.9033203
vt -0.11657715 0.9033203
vt -0.11657715 0.9941406
vt -0.11437988 0.9941406
vt 0.2019043 0.9033203
vt -0.11657715 0.9941406
vt 0.2019043 0.9033203
vt 0.20031738 0.9033203
vt -0.11437988 0.9941406
vt 1.0615234 0.9941406
vt 1.0615234 0.9033203
vt -0.11437988 0.9941406
vt 1.0615234 0.9033203
vt 0.2019043 0.9033203
vt 0.4658203 0.9941406
vt 0.4658203 0.9941406
vt 0.4658203 0.9458008
vt 0.4658203 0.9941406
vt 0.4658203 0.9458008
vt 0.4658203 0.9448242
vt 0.4658203 0.9033203
vt 0.4658203 0.9941406
vt 0.4658203 0.9448242
vt 0.4658203 0.9033203
vt 0.4658203 0.9448242
vt 0.4658203 0.9033203
vt 0.4658203 0.9941406
vt 0.4658203 0.9941406
vt 0.4658203 0.9448242
vt 0.4658203 0.9941406
vt 0.4658203 0.9448242
vt 0.4658203 0.9448242
vt 0.4658203 0.9941406
vt 0.4658203 0.9448242
vt 0.4658203 0.9448242
vn -0.11425781 -0.98876953 -0.00020289421
vn -0.3359375 -0.94189453 -5.8293343E-05
vn -0.2364502 -0.9628906 -0.0001231432
vn -0.11425781 -0.98876953 -0.00020289421
vn -0.2364502 -0.9628906 -0.0001231432
vn -0.11437988 -0.98828125 -0.000202775
vn -0.3359375 -0.94189453 -5.8293343E-05
vn -0.3359375 -0.94189453 -5.8293343E-05
vn -0.2524414 -0.95947266 -0.00011277199
vn -0.3359375 -0.94189453 -5.8293343E-05
vn -0.2524414 -0.95947266 -0.00011277199
vn -0.2364502 -0.9628906 -0.0001231432
vn 0.33447266 -0.9423828 -0.00046300888
vn 0.112854004 -0.98876953 -0.0003414154
vn 0.112976074 -0.98876953 -0.00034165382
vn 0.33447266 -0.9423828 -0.00046300888
vn 0.112976074 -0.98876953 -0.00034165382
vn 0.22753906 -0.96484375 -0.0004043579
vn 0.33447266 -0.9423828 -0.00046300888
vn 0.22753906 -0.96484375 -0.0004043579
vn 0.33447266 -0.9423828 -0.00046300888
vn 0.70703125 -0.70703125 -0.0006170273
vn 0.33447266 -0.9423828 -0.00046300888
vn 0.33447266 -0.9423828 -0.00046300888
vn 0.70703125 -0.70703125 -0.0006170273
vn 0.33447266 -0.9423828 -0.00046300888
vn 0.55566406 -0.8027344 -0.0005545616
vn 0.70703125 -0.70703125 -0.0006170273
vn 0.55566406 -0.8027344 -0.0005545616
vn 0.70703125 -0.70703125 -0.0006170273
vn 0.9423828 -0.3347168 -0.00065231323
vn 0.70703125 -0.70703125 -0.0006170273
vn 0.70703125 -0.70703125 -0.0006170273
vn 0.9423828 -0.3347168 -0.00065231323
vn 0.70703125 -0.70703125 -0.0006170273
vn 0.8466797 -0.48583984 -0.0006380081
vn 0.9423828 -0.3347168 -0.00065231323
vn 0.8466797 -0.48583984 -0.0006380081
vn 0.9423828 -0.33447266 -0.00065231323
vn 0.9423828 -0.3347168 -0.00065231323
vn 0.9423828 -0.33447266 -0.00065231323
vn 0.96484375 -0.22753906 -0.00063610077
vn 0.9975586 -0.07086182 -0.00061273575
vn 0.9423828 -0.3347168 -0.00065231323
vn 0.96484375 -0.22753906 -0.00063610077
vn 0.9975586 -0.07086182 -0.00061273575
vn 0.96484375 -0.22753906 -0.00063610077
vn 0.9975586 -0.07092285 -0.00061273575
vn 0.9975586 -0.07086182 -0.00061273575
vn 0.9975586 -0.07092285 -0.00061273575
vn 0.9975586 -0.062194824 -0.00061273575
vn 0.9975586 -0.05227661 -0.00061273575
vn 0.9975586 -0.07086182 -0.00061273575
vn 0.9975586 -0.062194824 -0.00061273575
vn 0.9975586 -0.05227661 -0.00061273575
vn 0.9975586 -0.062194824 -0.00061273575
vn 0.9975586 -0.05227661 -0.00061273575
vn -0.00059461594 0 -1
vn -0.00059461594 0 -1
vn -0.00059461594 0 -1
vn -0.00059461594 0 -1
vn -0.00059461594 0 -1
vn -0.00059461594 0 -1
vn -0.00059461594 0 -1
vn -0.00059461594 0 -1
vn -0.00059461594 0 -1
vn -0.00059461594 0 -1
vn -0.00059461594 0 -1
vn -0.00059461594 0 -1
vn -0.00059461594 0 -1
vn -0.00059461594 0 -1
vn -0.00059461594 0 -1
vn 1 -5.9604645E-08 -0.00059461594
vn 1 -5.9604645E-08 -0.00059461594
vn 1 -5.9604645E-08 -0.00059461594
vn 1 -5.9604645E-08 -0.00059461594
vn 1 -5.9604645E-08 -0.00059461594
vn 1 -5.9604645E-08 -0.00059461594
vn 1 -5.9604645E-08 -0.00059461594
vn 1 -5.9604645E-08 -0.00059461594
vn 1 -5.9604645E-08 -0.00059461594
vn 1 -5.9604645E-08 -0.00059461594
vn 1 -5.9604645E-08 -0.00059461594
vn 1 -5.9604645E-08 -0.00059461594
vn 1 -5.9604645E-08 -0.00059461594
vn 1 -5.9604645E-08 -0.00059461594
vn 1 -5.9604645E-08 -0.00059461594
vn 1 -5.9604645E-08 -0.00059461594
vn 1 -5.9604645E-08 -0.00059461594
vn 1 -5.9604645E-08 -0.00059461594
vn 1 -5.9604645E-08 -0.00059461594
vn 1 -5.9604645E-08 -0.00059461594
vn 1 -5.9604645E-08 -0.00059461594
g DecalMesh_MetroArea_Decal_Lamp_01__62_0
f 3/3/3 2/2/2 1/1/1
f 6/6/6 5/5/5 4/4/4
f 9/9/9 8/8/8 7/7/7
f 12/12/12 11/11/11 10/10/10
f 15/15/15 14/14/14 13/13/13
f 18/18/18 17/17/17 16/16/16
f 21/21/21 20/20/20 19/19/19
f 24/24/24 23/23/23 22/22/22
f 27/27/27 26/26/26 25/25/25
f 30/30/30 29/29/29 28/28/28
f 33/33/33 32/32/32 31/31/31
f 36/36/36 35/35/35 34/34/34
f 39/39/39 38/38/38 37/37/37
f 42/42/42 41/41/41 40/40/40
f 45/45/45 44/44/44 43/43/43
f 48/48/48 47/47/47 46/46/46
f 51/51/51 50/50/50 49/49/49
f 54/54/54 53/53/53 52/52/52
f 57/57/57 56/56/56 55/55/55
f 60/60/60 59/59/59 58/58/58
f 63/63/63 62/62/62 61/61/61
f 66/66/66 65/65/65 64/64/64
f 69/69/69 68/68/68 67/67/67
f 72/72/72 71/71/71 70/70/70
f 75/75/75 74/74/74 73/73/73
f 78/78/78 77/77/77 76/76/76
f 81/81/81 80/80/80 79/79/79
f 84/84/84 83/83/83 82/82/82
f 87/87/87 86/86/86 85/85/85
f 90/90/90 89/89/89 88/88/88
f 93/93/93 92/92/92 91/91/91
