g DecalMesh_MetroArea_Decal_Crack_03__128
v 1.5048016 0.8630106 0.03293272
v -1.5048004 0.8630101 0.032933928
v -1.4486624 -0.8570084 0.03293458
v 1.5048016 0.8630106 0.03293272
v -1.4486624 -0.8570084 0.03293458
v 1.5048016 -0.8570079 0.032933395
v -1.5048004 0.8630101 0.032933928
v -1.5048004 -0.8570071 0.032934602
v -1.4486624 -0.857007 0.03293458
v -1.3438814 0.4141267 -0.07899922
v -1.3742257 0.4181448 -0.09801257
v -1.3810693 0.40420762 -0.07899916
v -1.3742257 0.4181448 -0.09801257
v -1.3768694 0.43991455 -0.09720296
v -1.3801353 0.43176618 -0.09839314
v -1.3561579 0.4396002 -0.08503026
v -1.3532932 0.44198486 -0.07899922
v -1.3817949 0.45716846 -0.07899922
v -1.3561579 0.4396002 -0.08503026
v -1.3817949 0.45716846 -0.07899922
v -1.3768694 0.43991455 -0.09720296
v -1.3810693 0.40420762 -0.07899916
v -1.3801353 0.43176618 -0.09839314
v -1.3927345 0.43182406 -0.07899916
v -1.3810693 0.40420762 -0.07899916
v -1.3742257 0.4181448 -0.09801257
v -1.3801353 0.43176618 -0.09839314
v -1.3768694 0.43991455 -0.09720296
v -1.3817949 0.45716846 -0.07899922
v -1.3927345 0.43182406 -0.07899916
v -1.3801353 0.43176618 -0.09839314
v -1.3768694 0.43991455 -0.09720296
v -1.3927345 0.43182406 -0.07899916
v -1.3768694 0.43991455 -0.09720296
v -1.3742257 0.4181448 -0.09801257
v -1.3438814 0.4141267 -0.07899922
v -1.3438814 0.4141267 -0.07899922
v -1.3561579 0.4396002 -0.08503026
v -1.3768694 0.43991455 -0.09720296
v -1.3561579 0.4396002 -0.08503026
v -1.3438814 0.4141267 -0.07899922
v -1.3532932 0.44198486 -0.07899922
v 1.0834726 0.8630071 -0.08198952
v -1.5048004 0.17188099 -0.08152312
v -1.5048003 -0.15328044 -0.08167918
v 1.0834726 0.8630071 -0.08198952
v 0.88860667 0.8630071 -0.08192943
v -1.5047994 0.2204294 -0.081499815
v 1.0834726 0.8630071 -0.08198952
v -1.5047994 0.2204294 -0.081499815
v -1.5048004 0.17188099 -0.08152312
v 0.88860595 0.86300695 -0.08192943
v -1.5048003 0.86300725 -0.08119142
v -1.5048002 0.22042917 -0.081499815
v 1.5048001 0.11345985 -0.08247952
v -1.1400851 -0.8570071 -0.0821297
v -0.38033628 -0.8570071 -0.08236409
v 1.5048001 0.11345985 -0.08247952
v 1.5048003 0.8630071 -0.082119495
v -1.5048003 -0.3047147 -0.08175191
v 1.5048001 0.11345985 -0.08247952
v -1.5048003 -0.3047147 -0.08175191
v -1.5048006 -0.8570071 -0.08201719
v 1.5048001 0.11345985 -0.08247952
v -1.5048006 -0.8570071 -0.08201719
v -1.1400851 -0.8570071 -0.0821297
v 1.5048003 0.8630071 -0.082119495
v 1.0834726 0.8630071 -0.08198952
v -1.5047992 -0.15328003 -0.08167918
v 1.5048003 0.8630071 -0.082119495
v -1.5047992 -0.15328003 -0.08167918
v -1.5048003 -0.3047147 -0.08175191
v 1.5048001 0.11345985 -0.08247952
v -0.3803364 -0.85700715 -0.08236409
v 1.5047998 -0.85700715 -0.082945794
vt 0.34716797 0.7373047
vt 0.47680664 0.7373047
vt 0.47436523 0.5288086
vt 0.34716797 0.7373047
vt 0.47436523 0.5288086
vt 0.34716797 0.5288086
vt 0.47680664 0.7373047
vt 0.47680664 0.5288086
vt 0.47436523 0.5288086
vt 0.46972656 0.68310547
vt 0.47094727 0.68359375
vt 0.47143555 0.6816406
vt 0.47094727 0.68359375
vt 0.4711914 0.68603516
vt 0.47143555 0.6850586
vt 0.47021484 0.68603516
vt 0.47021484 0.68652344
vt 0.47143555 0.68847656
vt 0.47021484 0.68603516
vt 0.47143555 0.68847656
vt 0.4711914 0.68603516
vt 0.47143555 0.6816406
vt 0.47143555 0.6850586
vt 0.47192383 0.6850586
vt 0.47143555 0.6816406
vt 0.47094727 0.68359375
vt 0.47143555 0.6850586
vt 0.4711914 0.68603516
vt 0.47143555 0.68847656
vt 0.47192383 0.6850586
vt 0.47143555 0.6850586
vt 0.4711914 0.68603516
vt 0.47192383 0.6850586
vt 0.4711914 0.68603516
vt 0.47094727 0.68359375
vt 0.46972656 0.68310547
vt 0.46972656 0.68310547
vt 0.47021484 0.68603516
vt 0.4711914 0.68603516
vt 0.47021484 0.68603516
vt 0.46972656 0.68310547
vt 0.47021484 0.68652344
vt 0.36523438 0.7373047
vt 0.47680664 0.6538086
vt 0.47680664 0.6142578
vt 0.36523438 0.7373047
vt 0.3737793 0.7373047
vt 0.47680664 0.65966797
vt 0.36523438 0.7373047
vt 0.47680664 0.65966797
vt 0.47680664 0.6538086
vt 0.3737793 0.7373047
vt 0.47680664 0.7373047
vt 0.47680664 0.65966797
vt 0.34716797 0.6464844
vt 0.4609375 0.5288086
vt 0.42822266 0.5288086
vt 0.34716797 0.6464844
vt 0.34716797 0.7373047
vt 0.47680664 0.5957031
vt 0.34716797 0.6464844
vt 0.47680664 0.5957031
vt 0.47680664 0.5288086
vt 0.34716797 0.6464844
vt 0.47680664 0.5288086
vt 0.4609375 0.5288086
vt 0.34716797 0.7373047
vt 0.36523438 0.7373047
vt 0.47680664 0.6142578
vt 0.34716797 0.7373047
vt 0.47680664 0.6142578
vt 0.47680664 0.5957031
vt 0.34716797 0.6464844
vt 0.42822266 0.5288086
vt 0.34716797 0.5288086
vn 0.00034332275 0.00029540062 -1
vn 0.0003540516 0.00030446053 -1
vn 0.00034856796 0.00029993057 -1
vn 0.00034332275 0.00029540062 -1
vn 0.00034856796 0.00029993057 -1
vn 0.00033807755 0.00029087067 -1
vn 0.0003540516 0.00030446053 -1
vn 0.00034880638 0.000300169 -1
vn 0.00034856796 0.00029993057 -1
vn 0.24633789 -0.9238281 -0.29345703
vn 0.24633789 -0.9238281 -0.29345703
vn 0.24633789 -0.9238281 -0.29345703
vn 0.25830078 0.07745361 -0.9628906
vn 0.25830078 0.07745361 -0.9628906
vn 0.25830078 0.07745361 -0.9628906
vn 0.4411621 0.8354492 -0.32714844
vn 0.44580078 0.83691406 -0.31762695
vn 0.4404297 0.8354492 -0.32910156
vn 0.4411621 0.8354492 -0.32714844
vn 0.4404297 0.8354492 -0.32910156
vn 0.43969727 0.83496094 -0.33032227
vn -0.8808594 -0.37475586 -0.28881836
vn -0.8779297 -0.37939453 -0.2919922
vn -0.8823242 -0.37280273 -0.28735352
vn -0.8808594 -0.37475586 -0.28881836
vn -0.87158203 -0.38891602 -0.29858398
vn -0.8779297 -0.37939453 -0.2919922
vn -0.875 0.38842773 -0.28955078
vn -0.8779297 0.37890625 -0.29296875
vn -0.8774414 0.38012695 -0.29248047
vn -0.8701172 0.4020996 -0.28466797
vn -0.875 0.38842773 -0.28955078
vn -0.8774414 0.38012695 -0.29248047
vn 0.7832031 0.12670898 -0.6088867
vn 0.78271484 0.12432861 -0.6098633
vn 0.8022461 0.15039062 -0.5776367
vn 0.8022461 0.15039062 -0.5776367
vn 0.81347656 0.16662598 -0.5571289
vn 0.7832031 0.12670898 -0.6088867
vn 0.81347656 0.16662598 -0.5571289
vn 0.8022461 0.15039062 -0.5776367
vn 0.89746094 0.30322266 -0.31958008
vn 0.0066604614 0.005554199 -1
vn 0.009101868 0.005191803 -0.9995117
vn 0.00894165 0.007209778 -0.9995117
vn 0.0066604614 0.005554199 -1
vn 0.00687027 0.005203247 -1
vn 0.009132385 0.004890442 -1
vn 0.0066604614 0.005554199 -1
vn 0.009132385 0.004890442 -1
vn 0.009101868 0.005191803 -0.9995117
vn 0.00687027 0.005203247 -1
vn 0.009460449 0.0009012222 -1
vn 0.009132385 0.004890442 -1
vn 0.0050201416 0.0042915344 -1
vn 0.0074424744 0.0060577393 -1
vn 0.0063591003 0.0052490234 -1
vn 0.0050201416 0.0042915344 -1
vn 0.006061554 0.005104065 -1
vn 0.008728027 0.007045746 -0.9995117
vn 0.0050201416 0.0042915344 -1
vn 0.008728027 0.007045746 -0.9995117
vn 0.0079574585 0.0064468384 -1
vn 0.0050201416 0.0042915344 -1
vn 0.0079574585 0.0064468384 -1
vn 0.0074424744 0.0060577393 -1
vn 0.006061554 0.005104065 -1
vn 0.0066604614 0.005554199 -1
vn 0.00894165 0.007209778 -0.9995117
vn 0.006061554 0.005104065 -1
vn 0.00894165 0.007209778 -0.9995117
vn 0.008728027 0.007045746 -0.9995117
vn 0.0050201416 0.0042915344 -1
vn 0.0063591003 0.0052490234 -1
vn 0.0072021484 0.0056533813 -1
g DecalMesh_MetroArea_Decal_Crack_03__128_0
f 3/3/3 2/2/2 1/1/1
f 6/6/6 5/5/5 4/4/4
f 9/9/9 8/8/8 7/7/7
f 12/12/12 11/11/11 10/10/10
f 15/15/15 14/14/14 13/13/13
f 18/18/18 17/17/17 16/16/16
f 21/21/21 20/20/20 19/19/19
f 24/24/24 23/23/23 22/22/22
f 27/27/27 26/26/26 25/25/25
f 30/30/30 29/29/29 28/28/28
f 33/33/33 32/32/32 31/31/31
f 36/36/36 35/35/35 34/34/34
f 39/39/39 38/38/38 37/37/37
f 42/42/42 41/41/41 40/40/40
f 45/45/45 44/44/44 43/43/43
f 48/48/48 47/47/47 46/46/46
f 51/51/51 50/50/50 49/49/49
f 54/54/54 53/53/53 52/52/52
f 57/57/57 56/56/56 55/55/55
f 60/60/60 59/59/59 58/58/58
f 63/63/63 62/62/62 61/61/61
f 66/66/66 65/65/65 64/64/64
f 69/69/69 68/68/68 67/67/67
f 72/72/72 71/71/71 70/70/70
f 75/75/75 74/74/74 73/73/73
