g DecalMesh_MetroArea_Decal_Graffiti_28__31
v 2.09 1.049684 -0.11669237
v -2.09 1.049684 -0.11669332
v 1.9976169 -1.049684 -0.1166855
v 2.09 1.049684 -0.11669237
v 1.9976169 -1.049684 -0.1166855
v 2.0899997 -1.049684 -0.11668548
v -2.09 1.049684 -0.11669332
v -2.09 0.95429516 -0.116693005
v 1.9933212 -1.049684 -0.1166855
v -2.09 1.049684 -0.11669332
v 1.9933212 -1.049684 -0.1166855
v 1.9976169 -1.049684 -0.1166855
v -2.09 0.9294346 -0.11669292
v -2.0899997 -1.049684 -0.11668642
v 1.2996625 -1.049684 -0.11668565
v -2.09 0.95429516 -0.116693005
v 1.307632 -1.049684 -0.11668565
v 1.9933213 -1.049684 -0.1166855
v -2.09 0.95429516 -0.116693005
v -2.09 0.93589973 -0.116692945
v 1.3017504 -1.049684 -0.11668565
v -2.09 0.95429516 -0.116693005
v 1.3017504 -1.049684 -0.11668565
v 1.3076319 -1.049684 -0.11668565
v -2.09 0.9358997 -0.116692945
v -2.09 0.9294346 -0.11669292
v 1.2996624 -1.049684 -0.11668565
v -2.09 0.9358997 -0.116692945
v 1.2996624 -1.049684 -0.11668565
v 1.3017504 -1.049684 -0.11668565
vt 1.2167969 0.17504883
vt 1.4853516 0.17504883
vt 1.2226562 0.095214844
vt 1.2167969 0.17504883
vt 1.2226562 0.095214844
vt 1.2167969 0.095214844
vt 1.4853516 0.17504883
vt 1.4853516 0.17138672
vt 1.2226562 0.095214844
vt 1.4853516 0.17504883
vt 1.2226562 0.095214844
vt 1.2226562 0.095214844
vt 1.4853516 0.17041016
vt 1.4853516 0.095214844
vt 1.2675781 0.095214844
vt 1.4853516 0.17138672
vt 1.2666016 0.095214844
vt 1.2226562 0.095214844
vt 1.4853516 0.17138672
vt 1.4853516 0.1706543
vt 1.2675781 0.095214844
vt 1.4853516 0.17138672
vt 1.2675781 0.095214844
vt 1.2666016 0.095214844
vt 1.4853516 0.1706543
vt 1.4853516 0.17041016
vt 1.2675781 0.095214844
vt 1.4853516 0.1706543
vt 1.2675781 0.095214844
vt 1.2675781 0.095214844
vn 1.7881393E-07 -2.9206276E-06 -1
vn 1.7881393E-07 -2.9206276E-06 -1
vn 1.7881393E-07 -2.9206276E-06 -1
vn 1.7881393E-07 -2.9206276E-06 -1
vn 1.7881393E-07 -2.9206276E-06 -1
vn 1.7881393E-07 -2.9206276E-06 -1
vn 1.7881393E-07 -2.9206276E-06 -1
vn 1.7881393E-07 -2.9206276E-06 -1
vn 1.7881393E-07 -2.9206276E-06 -1
vn 1.7881393E-07 -2.9206276E-06 -1
vn 1.7881393E-07 -2.9206276E-06 -1
vn 1.7881393E-07 -2.9206276E-06 -1
vn 1.7881393E-07 -2.9206276E-06 -1
vn 1.7881393E-07 -2.9206276E-06 -1
vn 1.7881393E-07 -2.9206276E-06 -1
vn 1.7881393E-07 -2.9206276E-06 -1
vn 1.7881393E-07 -2.9206276E-06 -1
vn 1.7881393E-07 -2.9206276E-06 -1
vn 1.7881393E-07 -2.9206276E-06 -1
vn 1.7881393E-07 -2.9206276E-06 -1
vn 1.7881393E-07 -2.9206276E-06 -1
vn 1.7881393E-07 -2.9206276E-06 -1
vn 1.7881393E-07 -2.9206276E-06 -1
vn 1.7881393E-07 -2.9206276E-06 -1
vn 1.7881393E-07 -2.9206276E-06 -1
vn 1.7881393E-07 -2.9206276E-06 -1
vn 1.7881393E-07 -2.9206276E-06 -1
vn 1.7881393E-07 -2.9206276E-06 -1
vn 1.7881393E-07 -2.9206276E-06 -1
vn 1.7881393E-07 -2.9206276E-06 -1
g DecalMesh_MetroArea_Decal_Graffiti_28__31_0
f 3/3/3 2/2/2 1/1/1
f 6/6/6 5/5/5 4/4/4
f 9/9/9 8/8/8 7/7/7
f 12/12/12 11/11/11 10/10/10
f 15/15/15 14/14/14 13/13/13
f 18/18/18 17/17/17 16/16/16
f 21/21/21 20/20/20 19/19/19
f 24/24/24 23/23/23 22/22/22
f 27/27/27 26/26/26 25/25/25
f 30/30/30 29/29/29 28/28/28
