g DecalMesh_MetroArea_Decal_Graffiti_28__36
v 0.4128593 0.16871424 -0.013644712
v 0.17408581 -0.16871421 -0.011904843
v 0.4128593 -0.16871423 -0.013644711
v 0.4128593 0.16871424 -0.013644712
v 0.14953315 0.16871424 -0.011725937
v -0.01846152 -0.16871426 -0.010501811
v 0.4128593 0.16871424 -0.013644712
v -0.01846152 -0.16871426 -0.010501811
v 0.16620535 -0.16871426 -0.0118474215
v 0.4128593 0.16871424 -0.013644712
v 0.16620536 -0.16871421 -0.0118474215
v 0.17408581 -0.16871421 -0.011904843
v 0.14953317 0.16871424 -0.011725937
v -0.4128593 0.16871423 -0.0076270215
v -0.41285932 -0.16871426 -0.007627301
v 0.14953317 0.16871424 -0.011725937
v -0.41285932 -0.16871426 -0.007627301
v -0.018461509 -0.16871426 -0.010501811
v -0.3500343 0.16871412 0.0685558
v -0.3716967 -0.16871424 0.068555795
v -0.35003406 -0.16871424 0.0685558
v -0.3500343 0.16871412 0.0685558
v -0.40184447 0.16871412 0.06855578
v -0.40747276 -0.16871421 0.06855577
v -0.3500343 0.16871412 0.0685558
v -0.40747276 -0.16871421 0.06855577
v -0.38213623 -0.16871421 0.06855579
v -0.3500343 0.16871412 0.0685558
v -0.38213623 -0.16871424 0.06855579
v -0.3716967 -0.16871424 0.068555795
v -0.40184447 0.16871424 0.06855578
v -0.41285932 0.16871424 0.06855577
v -0.41285932 -0.16871421 0.06855577
v -0.40184447 0.16871424 0.06855578
v -0.41285932 -0.16871421 0.06855577
v -0.40747276 -0.16871421 0.06855577
vt 1.2167969 0.17504883
vt 1.2949219 0.095214844
vt 1.2167969 0.095214844
vt 1.2167969 0.17504883
vt 1.3027344 0.17504883
vt 1.3574219 0.095214844
vt 1.2167969 0.17504883
vt 1.3574219 0.095214844
vt 1.296875 0.095214844
vt 1.2167969 0.17504883
vt 1.296875 0.095214844
vt 1.2949219 0.095214844
vt 1.3027344 0.17504883
vt 1.4853516 0.17504883
vt 1.4853516 0.095214844
vt 1.3027344 0.17504883
vt 1.4853516 0.095214844
vt 1.3574219 0.095214844
vt 1.4648438 0.17504883
vt 1.4726562 0.095214844
vt 1.4648438 0.095214844
vt 1.4648438 0.17504883
vt 1.4824219 0.17504883
vt 1.4833984 0.095214844
vt 1.4648438 0.17504883
vt 1.4833984 0.095214844
vt 1.4755859 0.095214844
vt 1.4648438 0.17504883
vt 1.4755859 0.095214844
vt 1.4726562 0.095214844
vt 1.4824219 0.17504883
vt 1.4853516 0.17504883
vt 1.4853516 0.095214844
vt 1.4824219 0.17504883
vt 1.4853516 0.095214844
vt 1.4833984 0.095214844
vn -0.007286072 2.9802322E-07 -1
vn -0.007286072 2.9802322E-07 -1
vn -0.007286072 2.9802322E-07 -1
vn -0.007286072 2.9802322E-07 -1
vn -0.007286072 2.9802322E-07 -1
vn -0.007286072 2.9802322E-07 -1
vn -0.007286072 2.9802322E-07 -1
vn -0.007286072 2.9802322E-07 -1
vn -0.007286072 2.9802322E-07 -1
vn -0.007286072 2.9802322E-07 -1
vn -0.007286072 2.9802322E-07 -1
vn -0.007286072 2.9802322E-07 -1
vn -0.007286072 2.9802322E-07 -1
vn -0.007286072 2.9802322E-07 -1
vn -0.007286072 2.9802322E-07 -1
vn -0.007286072 2.9802322E-07 -1
vn -0.007286072 2.9802322E-07 -1
vn -0.007286072 2.9802322E-07 -1
vn -2.9802322E-06 0 -1
vn -2.9802322E-06 0 -1
vn -2.9802322E-06 0 -1
vn -2.9802322E-06 0 -1
vn -2.9802322E-06 0 -1
vn -2.9802322E-06 0 -1
vn -2.9802322E-06 0 -1
vn -2.9802322E-06 0 -1
vn -2.9802322E-06 0 -1
vn -2.9802322E-06 0 -1
vn -2.9802322E-06 0 -1
vn -2.9802322E-06 0 -1
vn -2.9802322E-06 0 -1
vn -2.9802322E-06 0 -1
vn -2.9802322E-06 0 -1
vn -2.9802322E-06 0 -1
vn -2.9802322E-06 0 -1
vn -2.9802322E-06 0 -1
g DecalMesh_MetroArea_Decal_Graffiti_28__36_0
f 3/3/3 2/2/2 1/1/1
f 6/6/6 5/5/5 4/4/4
f 9/9/9 8/8/8 7/7/7
f 12/12/12 11/11/11 10/10/10
f 15/15/15 14/14/14 13/13/13
f 18/18/18 17/17/17 16/16/16
f 21/21/21 20/20/20 19/19/19
f 24/24/24 23/23/23 22/22/22
f 27/27/27 26/26/26 25/25/25
f 30/30/30 29/29/29 28/28/28
f 33/33/33 32/32/32 31/31/31
f 36/36/36 35/35/35 34/34/34
