g DecalMesh_MetroArea_Decal_Graffiti_25__9
v -0.37443337 0.7561153 -0.12033914
v 0.7980692 0.619684 -0.15278447
v -0.37443337 0.7561153 -0.15278447
v -0.37443322 0.7561153 -0.12033914
v 1.6769965 0.5174128 -0.058998123
v 1.6769965 0.5174128 -0.15278447
v -0.37443322 0.7561153 -0.12033914
v 1.6769965 0.5174128 -0.15278447
v 0.7980693 0.619684 -0.15278447
v 1.6769965 0.5174128 -0.058998123
v -0.37443322 0.7561153 -0.12033914
v -0.37443322 0.7561153 -0.058998123
v 1.6769965 0.31914902 -0.10405353
v -1.0068915 0.7561153 -0.10405353
v -1.6769965 0.30463588 -0.10405353
v 1.6769965 0.31914902 -0.10405353
v -1.6769965 0.30463588 -0.10405353
v -1.6769965 -0.24281245 -0.10405353
v -1.0068915 0.7561153 -0.10405353
v -1.6769966 0.7561153 -0.10405353
v -1.6769965 0.30463588 -0.10405353
v 1.6769965 0.31914902 -0.10405353
v 1.6769965 0.5174128 -0.10405353
v -0.37443322 0.7561153 -0.10405353
v 1.6769965 0.31914902 -0.10405353
v -0.37443322 0.7561153 -0.10405353
v -1.0068915 0.7561153 -0.10405353
v 1.6769966 0.31914905 -0.10405353
v -1.6769965 -0.24281245 -0.10405353
v 0.79192317 -0.7561153 -0.10405353
v 1.6769966 0.31914905 -0.10405353
v 0.79192317 -0.7561153 -0.10405353
v 1.6769965 -0.7561153 -0.10405353
v -1.6769965 -0.24281245 -0.10405353
v -1.6769965 -0.54985964 -0.10405353
v 0.09558227 -0.7561153 -0.10405353
v -1.6769965 -0.24281245 -0.10405353
v 0.09558227 -0.7561153 -0.10405353
v 0.79192317 -0.7561153 -0.10405353
v 0.71513057 -0.059960052 -0.114341766
v 0.71456534 -0.059894275 -0.15278447
v 1.3388642 -0.13253744 -0.15278447
v 1.6769965 -0.17188236 -0.12867285
v 0.71513057 -0.059960052 -0.114341766
v 1.3388642 -0.13253744 -0.15278447
v 1.6769965 -0.17188236 -0.12867285
v 1.3388642 -0.13253744 -0.15278447
v 1.6769965 -0.17188236 -0.15278447
v 1.5369419 -0.14905366 -0.14727405
v 1.5441028 -0.14991012 -0.15278447
v 1.5367863 -0.14530356 -0.15278447
v 1.5258722 -0.14520596 -0.1350098
v 1.5369419 -0.14905366 -0.14727405
v 1.5367863 -0.14530356 -0.15278447
v 1.5258722 -0.14520596 -0.1350098
v 1.5367863 -0.14530356 -0.15278447
v 1.5326561 -0.14089178 -0.15278447
v 1.5369419 -0.14905366 -0.14727405
v 1.5258722 -0.14520596 -0.1350098
v 1.534929 -0.14839701 -0.12796786
v 1.5271122 -0.13378957 -0.15022281
v 1.5258722 -0.14520596 -0.1350098
v 1.5326561 -0.14089178 -0.15278447
v 1.5271122 -0.13378957 -0.15022281
v 1.5326561 -0.14089178 -0.15278447
v 1.5290154 -0.13473341 -0.15278447
v 0.6446466 0.115689166 -0.1246033
v 0.64330584 0.103138015 -0.15278447
v 0.6447645 0.11567545 -0.15278447
v 0.6446466 0.115689166 -0.1246033
v 0.6392766 0.068895206 -0.1422005
v 0.63930315 0.06873717 -0.15278447
v 0.6446466 0.115689166 -0.1246033
v 0.63930315 0.06873717 -0.15278447
v 0.64330584 0.103138015 -0.15278447
v 0.6446466 0.115689166 -0.1246033
v 0.64001 0.0758417 -0.124607116
v 0.6392766 0.068895206 -0.1422005
v 0.6392766 0.068895206 -0.1422005
v 0.63909966 0.06698896 -0.15278447
v 0.63930315 0.06873717 -0.15278447
v 0.6392766 0.068895206 -0.1422005
v 0.63872594 0.06377774 -0.15278447
v 0.63909966 0.06698896 -0.15278447
v 0.6392766 0.068895206 -0.1422005
v 0.6316796 0.0036056142 -0.1422005
v 0.6323186 0.008712645 -0.15278447
v 0.6392766 0.068895206 -0.1422005
v 0.6323186 0.008712645 -0.15278447
v 0.63872594 0.06377774 -0.15278447
v 0.6316796 0.0036056142 -0.1422005
v 0.6308966 -0.0035097783 -0.15278447
v 0.6317417 0.0037532235 -0.15278447
v 0.6316796 0.0036056142 -0.1422005
v 0.631945 0.0055015716 -0.15278447
v 0.6323186 0.008712645 -0.15278447
v 0.6316796 0.0036056142 -0.1422005
v 0.6317417 0.0037532235 -0.15278447
v 0.631945 0.0055015716 -0.15278447
v 0.6316796 0.0036056142 -0.1422005
v 0.62616175 -0.04317115 -0.124607116
v 0.62627995 -0.043184586 -0.15278447
v 0.6316796 0.0036056142 -0.1422005
v 0.62627995 -0.043184586 -0.15278447
v 0.6308966 -0.003509779 -0.15278447
v 0.6316796 0.0036056142 -0.1422005
v 0.6307984 -0.0033236889 -0.124607116
v 0.62616175 -0.04317115 -0.124607116
v -1.4536537 -0.5331672 -0.15278442
v -1.0009073 -0.5858483 0.15278447
v -1.5504873 -0.52189964 0.15278447
v -1.4536537 -0.5331672 -0.15278442
v -0.4094119 -0.65467423 -0.15278442
v -0.4094119 -0.6546742 0.15278448
v -1.4536537 -0.5331672 -0.15278442
v -0.4094119 -0.6546742 0.15278448
v -1.0009073 -0.5858483 0.15278448
v -1.6769965 -0.5071792 -0.15278444
v -1.4536537 -0.5331672 -0.15278448
v -1.5504873 -0.52189964 0.15278445
v -1.6769965 -0.5071792 -0.15278444
v -1.5504873 -0.52189964 0.15278445
v -1.6769965 -0.50717914 0.15278448
v -0.4094119 -0.65467423 -0.15278448
v -0.41149163 -0.6725476 -0.15278448
v -0.41058993 -0.66479826 0.15278445
v -0.4094119 -0.65467423 -0.15278448
v -0.41058993 -0.66479826 0.15278445
v -0.4094119 -0.6546742 0.15278445
v -0.41149163 -0.6725476 -0.15278448
v -0.41325644 -0.68771446 -0.15278447
v -0.41158956 -0.6733893 0.15278447
v -0.41149163 -0.6725476 -0.15278448
v -0.41158956 -0.6733893 0.15278447
v -0.41058993 -0.66479826 0.15278445
v -0.41325644 -0.68771446 -0.15278444
v -0.4167072 -0.7173706 0.15278448
v -0.41158956 -0.6733893 0.15278448
v -0.41325644 -0.68771446 -0.15278444
v -0.42121547 -0.7561153 -0.15278444
v -0.42121547 -0.7561153 0.15278448
v -0.41325644 -0.68771446 -0.15278444
v -0.42121547 -0.7561153 0.15278448
v -0.4167072 -0.7173706 0.15278448
v 0.29064748 -0.7361325 -0.15278447
v 0.36510596 -0.74479634 0.15278447
v -0.012873563 -0.700815 0.15278447
v 0.29064748 -0.7361325 -0.15278447
v 0.46238163 -0.7561153 -0.15278447
v 0.46238223 -0.7561153 0.15278447
v 0.29064748 -0.7361325 -0.15278447
v 0.46238223 -0.7561153 0.15278447
v 0.36510596 -0.74479634 0.15278447
v -0.4094119 -0.65467423 -0.15278448
v -0.25580683 -0.6725476 -0.15278448
v -0.32240456 -0.66479826 0.15278445
v -0.4094119 -0.65467423 -0.15278448
v -0.32240456 -0.66479826 0.15278445
v -0.4094119 -0.6546742 0.15278445
v -0.25580683 -0.6725476 -0.15278448
v -0.041795842 -0.6974497 -0.15278448
v -0.20118119 -0.6789037 0.15278445
v -0.25580683 -0.6725476 -0.15278448
v -0.20118119 -0.6789037 0.15278445
v -0.32240456 -0.66479826 0.15278445
v -0.041795842 -0.6974497 -0.15278448
v 0.2906475 -0.7361325 -0.1527845
v -0.012873587 -0.70081496 0.15278448
v -0.041795842 -0.6974497 -0.15278448
v -0.012873587 -0.70081496 0.15278448
v -0.20118119 -0.6789037 0.15278445
v -0.42121547 -0.7561153 -0.15278444
v -0.41609785 -0.71213394 0.15278448
v -0.42121547 -0.7561153 0.15278448
v -0.42121547 -0.7561153 -0.15278444
v -0.41325644 -0.68771446 -0.15278444
v -0.41158956 -0.6733893 0.15278448
v -0.42121547 -0.7561153 -0.15278444
v -0.41158956 -0.6733893 0.15278448
v -0.41609785 -0.71213394 0.15278448
v -0.41325644 -0.68771446 -0.15278447
v -0.4094119 -0.65467423 -0.15278448
v -0.4094119 -0.6546742 0.15278445
v -0.41325644 -0.68771446 -0.15278447
v -0.4094119 -0.6546742 0.15278445
v -0.41158956 -0.6733893 0.15278447
vt 0.6074219 0.32666016
vt 0.48999023 0.31298828
vt 0.6074219 0.32666016
vt 0.6074219 0.32666016
vt 0.4020996 0.30273438
vt 0.4020996 0.30273438
vt 0.6074219 0.32666016
vt 0.4020996 0.30273438
vt 0.48999023 0.31298828
vt 0.4020996 0.30273438
vt 0.6074219 0.32666016
vt 0.6074219 0.32666016
vt 0.4020996 0.28295898
vt 0.67041016 0.32666016
vt 0.7373047 0.28149414
vt 0.4020996 0.28295898
vt 0.7373047 0.28149414
vt 0.7373047 0.22668457
vt 0.67041016 0.32666016
vt 0.7373047 0.32666016
vt 0.7373047 0.28149414
vt 0.4020996 0.28295898
vt 0.4020996 0.30273438
vt 0.6074219 0.32666016
vt 0.4020996 0.28295898
vt 0.6074219 0.32666016
vt 0.67041016 0.32666016
vt 0.4020996 0.28295898
vt 0.7373047 0.22668457
vt 0.49047852 0.17541504
vt 0.4020996 0.28295898
vt 0.49047852 0.17541504
vt 0.4020996 0.17541504
vt 0.7373047 0.22668457
vt 0.7373047 0.19604492
vt 0.5600586 0.17541504
vt 0.7373047 0.22668457
vt 0.5600586 0.17541504
vt 0.49047852 0.17541504
vt 0.49829102 0.24499512
vt 0.49829102 0.24499512
vt 0.43579102 0.23779297
vt 0.4020996 0.23376465
vt 0.49829102 0.24499512
vt 0.43579102 0.23779297
vt 0.4020996 0.23376465
vt 0.43579102 0.23779297
vt 0.4020996 0.23376465
vt 0.41601562 0.23608398
vt 0.4152832 0.23596191
vt 0.41601562 0.2364502
vt 0.41723633 0.2364502
vt 0.41601562 0.23608398
vt 0.41601562 0.2364502
vt 0.41723633 0.2364502
vt 0.41601562 0.2364502
vt 0.4165039 0.23693848
vt 0.41601562 0.23608398
vt 0.41723633 0.2364502
vt 0.41625977 0.23620605
vt 0.4169922 0.2376709
vt 0.41723633 0.2364502
vt 0.4165039 0.23693848
vt 0.4169922 0.2376709
vt 0.4165039 0.23693848
vt 0.4169922 0.23754883
vt 0.5053711 0.26245117
vt 0.5053711 0.26123047
vt 0.5053711 0.26245117
vt 0.5053711 0.26245117
vt 0.5058594 0.2578125
vt 0.5058594 0.2578125
vt 0.5053711 0.26245117
vt 0.5058594 0.2578125
vt 0.5053711 0.26123047
vt 0.5053711 0.26245117
vt 0.5058594 0.25854492
vt 0.5058594 0.2578125
vt 0.5058594 0.2578125
vt 0.5058594 0.2578125
vt 0.5058594 0.2578125
vt 0.5058594 0.2578125
vt 0.5058594 0.25732422
vt 0.5058594 0.2578125
vt 0.5058594 0.2578125
vt 0.50683594 0.25146484
vt 0.50634766 0.25195312
vt 0.5058594 0.2578125
vt 0.50634766 0.25195312
vt 0.5058594 0.25732422
vt 0.50683594 0.25146484
vt 0.50683594 0.25073242
vt 0.50683594 0.25146484
vt 0.50683594 0.25146484
vt 0.50634766 0.25146484
vt 0.50634766 0.25195312
vt 0.50683594 0.25146484
vt 0.50683594 0.25146484
vt 0.50634766 0.25146484
vt 0.50683594 0.25146484
vt 0.5073242 0.2467041
vt 0.5073242 0.2467041
vt 0.50683594 0.25146484
vt 0.5073242 0.2467041
vt 0.50683594 0.25073242
vt 0.50683594 0.25146484
vt 0.50683594 0.25073242
vt 0.5073242 0.2467041
vt 0.71533203 0.19763184
vt 0.6699219 0.19238281
vt 0.7246094 0.19885254
vt 0.71533203 0.19763184
vt 0.61083984 0.18554688
vt 0.61083984 0.18554688
vt 0.71533203 0.19763184
vt 0.61083984 0.18554688
vt 0.6699219 0.19238281
vt 0.7373047 0.20031738
vt 0.71533203 0.19763184
vt 0.7246094 0.19885254
vt 0.7373047 0.20031738
vt 0.7246094 0.19885254
vt 0.7373047 0.20031738
vt 0.61083984 0.18554688
vt 0.61083984 0.18371582
vt 0.61083984 0.18457031
vt 0.61083984 0.18554688
vt 0.61083984 0.18457031
vt 0.61083984 0.18554688
vt 0.61083984 0.18371582
vt 0.6113281 0.18225098
vt 0.61083984 0.18359375
vt 0.61083984 0.18371582
vt 0.61083984 0.18359375
vt 0.61083984 0.18457031
vt 0.6113281 0.18225098
vt 0.6113281 0.17919922
vt 0.61083984 0.18359375
vt 0.6113281 0.18225098
vt 0.6118164 0.17541504
vt 0.6118164 0.17541504
vt 0.6113281 0.18225098
vt 0.6118164 0.17541504
vt 0.6113281 0.17919922
vt 0.54052734 0.17736816
vt 0.5332031 0.17651367
vt 0.57128906 0.1809082
vt 0.54052734 0.17736816
vt 0.5234375 0.17541504
vt 0.5234375 0.17541504
vt 0.54052734 0.17736816
vt 0.5234375 0.17541504
vt 0.5332031 0.17651367
vt 0.61083984 0.18554688
vt 0.59521484 0.18371582
vt 0.6020508 0.18457031
vt 0.61083984 0.18554688
vt 0.6020508 0.18457031
vt 0.61083984 0.18554688
vt 0.59521484 0.18371582
vt 0.57373047 0.18127441
vt 0.58984375 0.18310547
vt 0.59521484 0.18371582
vt 0.58984375 0.18310547
vt 0.6020508 0.18457031
vt 0.57373047 0.18127441
vt 0.54052734 0.17736816
vt 0.57128906 0.1809082
vt 0.57373047 0.18127441
vt 0.57128906 0.1809082
vt 0.58984375 0.18310547
vt 0.6118164 0.17541504
vt 0.6113281 0.17980957
vt 0.6118164 0.17541504
vt 0.6118164 0.17541504
vt 0.6113281 0.18225098
vt 0.61083984 0.18359375
vt 0.6118164 0.17541504
vt 0.61083984 0.18359375
vt 0.6113281 0.17980957
vt 0.6113281 0.18225098
vt 0.61083984 0.18554688
vt 0.61083984 0.18554688
vt 0.6113281 0.18225098
vt 0.61083984 0.18554688
vt 0.61083984 0.18359375
vn -0.115600586 -0.99316406 -7.1525574E-07
vn -0.115600586 -0.99316406 -8.34465E-07
vn -0.115600586 -0.99316406 -7.1525574E-07
vn -0.115600586 -0.99316406 -7.1525574E-07
vn -0.115600586 -0.99316406 -8.940697E-07
vn -0.115600586 -0.99316406 -8.940697E-07
vn -0.115600586 -0.99316406 -7.1525574E-07
vn -0.115600586 -0.99316406 -8.940697E-07
vn -0.115600586 -0.99316406 -8.34465E-07
vn -0.115600586 -0.99316406 -8.940697E-07
vn -0.115600586 -0.99316406 -7.1525574E-07
vn -0.115600586 -0.99316406 -7.1525574E-07
vn -3.5762787E-07 -2.9206276E-06 -1
vn -3.5762787E-07 -2.9206276E-06 -1
vn -3.5762787E-07 -2.9206276E-06 -1
vn -3.5762787E-07 -2.9206276E-06 -1
vn -3.5762787E-07 -2.9206276E-06 -1
vn -3.5762787E-07 -2.9206276E-06 -1
vn -3.5762787E-07 -2.9206276E-06 -1
vn -3.5762787E-07 -2.9206276E-06 -1
vn -3.5762787E-07 -2.9206276E-06 -1
vn -3.5762787E-07 -2.9206276E-06 -1
vn -3.5762787E-07 -2.9206276E-06 -1
vn -3.5762787E-07 -2.9206276E-06 -1
vn -3.5762787E-07 -2.9206276E-06 -1
vn -3.5762787E-07 -2.9206276E-06 -1
vn -3.5762787E-07 -2.9206276E-06 -1
vn -3.5762787E-07 -2.9206276E-06 -1
vn -3.5762787E-07 -2.9206276E-06 -1
vn -3.5762787E-07 -2.9206276E-06 -1
vn -3.5762787E-07 -2.9206276E-06 -1
vn -3.5762787E-07 -2.9206276E-06 -1
vn -3.5762787E-07 -2.9206276E-06 -1
vn -3.5762787E-07 -2.9206276E-06 -1
vn -3.5762787E-07 -2.9206276E-06 -1
vn -3.5762787E-07 -2.9206276E-06 -1
vn -3.5762787E-07 -2.9206276E-06 -1
vn -3.5762787E-07 -2.9206276E-06 -1
vn -3.5762787E-07 -2.9206276E-06 -1
vn 0.115600586 0.99316406 -7.1525574E-07
vn 0.115600586 0.99316406 -5.364418E-07
vn 0.115600586 0.99316406 -5.9604645E-07
vn 0.115600586 0.99316406 -7.1525574E-07
vn 0.115600586 0.99316406 -7.1525574E-07
vn 0.115600586 0.99316406 -5.9604645E-07
vn 0.115600586 0.99316406 -7.1525574E-07
vn 0.115600586 0.99316406 -5.9604645E-07
vn 0.115600586 0.99316406 -5.9604645E-07
vn -0.5161133 -0.7739258 -0.36694336
vn -0.5102539 -0.77783203 -0.36743164
vn -0.5307617 -0.7602539 -0.37402344
vn -0.76464844 -0.6010742 -0.23254395
vn -0.5161133 -0.7739258 -0.36694336
vn -0.5307617 -0.7602539 -0.37402344
vn -0.76464844 -0.6010742 -0.23254395
vn -0.5307617 -0.7602539 -0.37402344
vn -0.63183594 -0.68652344 -0.33129883
vn -0.5161133 -0.7739258 -0.36694336
vn -0.76464844 -0.6010742 -0.23254395
vn -0.42138672 -0.86279297 0.27954102
vn -0.5395508 -0.8417969 0.022445679
vn -0.76464844 -0.6010742 -0.23254395
vn -0.63183594 -0.68652344 -0.33129883
vn -0.5395508 -0.8417969 0.022445679
vn -0.63183594 -0.68652344 -0.33129883
vn -0.54296875 -0.8203125 -0.060577393
vn -0.99316406 0.115600586 -0.004211426
vn -0.99316406 0.115600586 -0.004211426
vn -0.99316406 0.115600586 -0.004211426
vn -0.99316406 0.115600586 -0.004211426
vn -0.99316406 0.115600586 -0.004211426
vn -0.99316406 0.115600586 -0.004211426
vn -0.99316406 0.115600586 -0.004211426
vn -0.99316406 0.115600586 -0.004211426
vn -0.99316406 0.115600586 -0.004211426
vn -0.99316406 0.115600586 -0.004211426
vn -0.99316406 0.115600586 -0.004211426
vn -0.99316406 0.115600586 -0.004211426
vn -0.99316406 0.115600586 -0.004211426
vn -0.99316406 0.115600586 -0.004211426
vn -0.99316406 0.115600586 -0.004211426
vn -0.99316406 0.115600586 -0.004211426
vn -0.99316406 0.115600586 -0.004211426
vn -0.99316406 0.115600586 -0.004211426
vn -0.99316406 0.115600586 -0.004211426
vn -0.99316406 0.115600586 -0.004211426
vn -0.99316406 0.115600586 -0.004211426
vn -0.99316406 0.115600586 -0.004211426
vn -0.99316406 0.115600586 -0.004211426
vn -0.99316406 0.115600586 -0.004211426
vn -0.99316406 0.115600586 -0.004211426
vn -0.99316406 0.115600586 -0.004211426
vn -0.99316406 0.115600586 -0.004211426
vn -0.99316406 0.115600586 -0.004211426
vn -0.99316406 0.115600586 -0.004211426
vn -0.99316406 0.115600586 -0.004211426
vn -0.99316406 0.115600586 -0.004211426
vn -0.99316406 0.115600586 -0.004211426
vn -0.99316406 0.115600586 -0.004211426
vn -0.99316406 0.115600586 -0.004211426
vn -0.99316406 0.115600586 -0.004211426
vn -0.99316406 0.115600586 -0.004211426
vn -0.99316406 0.115600586 -0.004211426
vn -0.99316406 0.115600586 -0.004211426
vn -0.99316406 0.115600586 -0.004211426
vn -0.99316406 0.115600586 -0.004211426
vn -0.99316406 0.115600586 -0.004211426
vn -0.99316406 0.115600586 -0.004211426
vn 0.115600586 0.99316406 0
vn 0.115600586 0.99316406 0
vn 0.115600586 0.99316406 0
vn 0.115600586 0.99316406 0
vn 0.115600586 0.99316406 0
vn 0.115600586 0.99316406 0
vn 0.115600586 0.99316406 0
vn 0.115600586 0.99316406 0
vn 0.115600586 0.99316406 0
vn 0.115600586 0.99316406 0
vn 0.115600586 0.99316406 0
vn 0.115600586 0.99316406 0
vn 0.115600586 0.99316406 0
vn 0.115600586 0.99316406 0
vn 0.115600586 0.99316406 0
vn 0.99316406 -0.115600586 0
vn 0.99316406 -0.115600586 0
vn 0.99316406 -0.115600586 0
vn 0.99316406 -0.115600586 0
vn 0.99316406 -0.115600586 0
vn 0.99316406 -0.115600586 0
vn 0.99316406 -0.115600586 0
vn 0.99316406 -0.115600586 0
vn 0.99316406 -0.115600586 0
vn 0.99316406 -0.115600586 0
vn 0.99316406 -0.115600586 0
vn 0.99316406 -0.115600586 0
vn 0.99316406 -0.115600586 0
vn 0.99316406 -0.115600586 0
vn 0.99316406 -0.115600586 0
vn 0.99316406 -0.115600586 0
vn 0.99316406 -0.115600586 0
vn 0.99316406 -0.115600586 0
vn 0.99316406 -0.115600586 0
vn 0.99316406 -0.115600586 0
vn 0.99316406 -0.115600586 0
vn 0.115600586 0.99316406 0
vn 0.115600586 0.99316406 0
vn 0.115600586 0.99316406 0
vn 0.115600586 0.99316406 0
vn 0.115600586 0.99316406 0
vn 0.115600586 0.99316406 0
vn 0.115600586 0.99316406 0
vn 0.115600586 0.99316406 0
vn 0.115600586 0.99316406 0
vn 0.115600586 0.99316406 0
vn 0.115600586 0.99316406 0
vn 0.115600586 0.99316406 0
vn 0.115600586 0.99316406 0
vn 0.115600586 0.99316406 0
vn 0.115600586 0.99316406 0
vn 0.115600586 0.99316406 0
vn 0.115600586 0.99316406 0
vn 0.115600586 0.99316406 0
vn 0.115600586 0.99316406 0
vn 0.115600586 0.99316406 0
vn 0.115600586 0.99316406 0
vn 0.115600586 0.99316406 0
vn 0.115600586 0.99316406 0
vn 0.115600586 0.99316406 0
vn 0.115600586 0.99316406 0
vn 0.115600586 0.99316406 0
vn 0.115600586 0.99316406 0
vn -0.99316406 0.115600586 0
vn -0.99316406 0.115600586 0
vn -0.99316406 0.115600586 0
vn -0.99316406 0.115600586 0
vn -0.99316406 0.115600586 0
vn -0.99316406 0.115600586 0
vn -0.99316406 0.115600586 0
vn -0.99316406 0.115600586 0
vn -0.99316406 0.115600586 0
vn -0.99316406 0.115600586 0
vn -0.99316406 0.115600586 0
vn -0.99316406 0.115600586 0
vn -0.99316406 0.115600586 0
vn -0.99316406 0.115600586 0
vn -0.99316406 0.115600586 0
g DecalMesh_MetroArea_Decal_Graffiti_25__9_0
f 3/3/3 2/2/2 1/1/1
f 6/6/6 5/5/5 4/4/4
f 9/9/9 8/8/8 7/7/7
f 12/12/12 11/11/11 10/10/10
f 15/15/15 14/14/14 13/13/13
f 18/18/18 17/17/17 16/16/16
f 21/21/21 20/20/20 19/19/19
f 24/24/24 23/23/23 22/22/22
f 27/27/27 26/26/26 25/25/25
f 30/30/30 29/29/29 28/28/28
f 33/33/33 32/32/32 31/31/31
f 36/36/36 35/35/35 34/34/34
f 39/39/39 38/38/38 37/37/37
f 42/42/42 41/41/41 40/40/40
f 45/45/45 44/44/44 43/43/43
f 48/48/48 47/47/47 46/46/46
f 51/51/51 50/50/50 49/49/49
f 54/54/54 53/53/53 52/52/52
f 57/57/57 56/56/56 55/55/55
f 60/60/60 59/59/59 58/58/58
f 63/63/63 62/62/62 61/61/61
f 66/66/66 65/65/65 64/64/64
f 69/69/69 68/68/68 67/67/67
f 72/72/72 71/71/71 70/70/70
f 75/75/75 74/74/74 73/73/73
f 78/78/78 77/77/77 76/76/76
f 81/81/81 80/80/80 79/79/79
f 84/84/84 83/83/83 82/82/82
f 87/87/87 86/86/86 85/85/85
f 90/90/90 89/89/89 88/88/88
f 93/93/93 92/92/92 91/91/91
f 96/96/96 95/95/95 94/94/94
f 99/99/99 98/98/98 97/97/97
f 102/102/102 101/101/101 100/100/100
f 105/105/105 104/104/104 103/103/103
f 108/108/108 107/107/107 106/106/106
f 111/111/111 110/110/110 109/109/109
f 114/114/114 113/113/113 112/112/112
f 117/117/117 116/116/116 115/115/115
f 120/120/120 119/119/119 118/118/118
f 123/123/123 122/122/122 121/121/121
f 126/126/126 125/125/125 124/124/124
f 129/129/129 128/128/128 127/127/127
f 132/132/132 131/131/131 130/130/130
f 135/135/135 134/134/134 133/133/133
f 138/138/138 137/137/137 136/136/136
f 141/141/141 140/140/140 139/139/139
f 144/144/144 143/143/143 142/142/142
f 147/147/147 146/146/146 145/145/145
f 150/150/150 149/149/149 148/148/148
f 153/153/153 152/152/152 151/151/151
f 156/156/156 155/155/155 154/154/154
f 159/159/159 158/158/158 157/157/157
f 162/162/162 161/161/161 160/160/160
f 165/165/165 164/164/164 163/163/163
f 168/168/168 167/167/167 166/166/166
f 171/171/171 170/170/170 169/169/169
f 174/174/174 173/173/173 172/172/172
f 177/177/177 176/176/176 175/175/175
f 180/180/180 179/179/179 178/178/178
f 183/183/183 182/182/182 181/181/181
f 186/186/186 185/185/185 184/184/184
