g DecalMesh_MetroArea_Decal_Ground_26__8
v -0.9821619 0.99999994 -0.05893723
v -0.9821619 0.99999994 -0.039009716
v -1 0.9352557 -0.03969999
v -0.9821619 0.99999994 -0.05893723
v -1 0.9352557 -0.03969999
v -1 0.9352557 -0.058937218
v -0.9821619 1 -0.039009716
v -1 0.93525577 -0.03880983
v -1 0.93525577 -0.03969999
v -0.9821619 1 -0.039009716
v -0.9821619 1 -0.033240262
v -1 0.93525577 -0.03324023
v -0.9821619 1 -0.039009716
v -1 0.93525577 -0.03324023
v -1 0.93525577 -0.03880983
v -0.4735218 1 -0.058937225
v 0.62124884 -0.99999994 -0.058936916
v 0.8554022 -0.99999994 -0.058936916
v -0.4735218 1 -0.058937225
v -0.5257231 1 -0.058937225
v 0.6102625 -1 -0.058936916
v -0.4735218 1 -0.058937225
v 0.6102625 -1 -0.058936916
v 0.62124884 -1 -0.058936916
v 1 1 -0.058937218
v -0.4735218 1 -0.058937225
v 0.85540223 -1 -0.058936916
v 1 1 -0.058937218
v 0.85540223 -1 -0.058936916
v 1 -1 -0.058936916
v -0.5257231 1 -0.058937225
v -1 0.08744199 -0.05893709
v 0.28372234 -1 -0.05893692
v -0.5257231 1 -0.058937225
v 0.28372234 -1 -0.05893692
v 0.6102625 -1 -0.058936916
v -1 0.08744199 -0.05893709
v -1 -1 -0.058936927
v 0.28372234 -1 -0.05893692
v -0.5257231 1 -0.058937225
v -0.9821619 1 -0.05893723
v -1 0.93525577 -0.058937218
v -0.5257231 1 -0.058937225
v -1 0.93525577 -0.058937218
v -1 0.08744199 -0.05893709
v -0.9566661 1 -0.03499809
v -1 1 -0.03499809
v -1 0.9515213 -0.03499808
v -0.37833136 1 -0.03499952
v -0.9566661 1 -0.03499809
v -1 0.9515213 -0.03499808
v -0.37833136 1 -0.03499952
v -1 0.9515213 -0.03499808
v -1 0.48315492 -0.03499905
v 1.0000001 -0.87199783 -0.034998976
v 0.526733 1 -0.03499981
v -0.99999994 0.09461991 -0.03499885
v 1.0000001 -0.87199783 -0.034998976
v -0.99999994 0.09461991 -0.03499885
v -1 -0.87199783 -0.03499834
v 0.526733 1 -0.03499981
v -0.37833142 1 -0.03499952
v -0.99999994 0.48315504 -0.03499905
v 0.526733 1 -0.03499981
v -0.99999994 0.48315504 -0.03499905
v -0.99999994 0.09461991 -0.03499885
v 1.0000001 -0.87199783 -0.034998976
v 1.0000001 1 -0.03499996
v 0.526733 1 -0.03499981
v 1 -0.87199783 -0.033999532
v -0.99999994 -0.87199783 -0.033998895
v -0.8847533 -1 -0.033998962
v 1 -0.87199783 -0.033999532
v -0.8847533 -1 -0.033998962
v 1 -1 -0.033999562
v -0.99999994 -0.87199783 -0.033998895
v -0.99999994 -1 -0.033998925
v -0.8847533 -1 -0.033998962
vt 0.99316406 0.984375
vt 0.99316406 0.984375
vt 0.9951172 0.9770508
vt 0.99316406 0.984375
vt 0.9951172 0.9770508
vt 0.9951172 0.9770508
vt 0.99316406 0.984375
vt 0.9951172 0.9770508
vt 0.9951172 0.9770508
vt 0.99316406 0.984375
vt 0.99316406 0.984375
vt 0.9951172 0.9770508
vt 0.99316406 0.984375
vt 0.9951172 0.9770508
vt 0.9951172 0.9770508
vt 0.93603516 0.984375
vt 0.8120117 0.7548828
vt 0.78564453 0.7548828
vt 0.93603516 0.984375
vt 0.94189453 0.984375
vt 0.81347656 0.7548828
vt 0.93603516 0.984375
vt 0.81347656 0.7548828
vt 0.8120117 0.7548828
vt 0.76953125 0.984375
vt 0.93603516 0.984375
vt 0.78564453 0.7548828
vt 0.76953125 0.984375
vt 0.78564453 0.7548828
vt 0.76953125 0.7548828
vt 0.94189453 0.984375
vt 0.9951172 0.8798828
vt 0.85009766 0.7548828
vt 0.94189453 0.984375
vt 0.85009766 0.7548828
vt 0.81347656 0.7548828
vt 0.9951172 0.8798828
vt 0.9951172 0.7548828
vt 0.85009766 0.7548828
vt 0.94189453 0.984375
vt 0.99316406 0.984375
vt 0.9951172 0.9770508
vt 0.94189453 0.984375
vt 0.9951172 0.9770508
vt 0.9951172 0.8798828
vt 0.9902344 0.984375
vt 0.9951172 0.984375
vt 0.9951172 0.9790039
vt 0.92529297 0.984375
vt 0.9902344 0.984375
vt 0.9951172 0.9790039
vt 0.92529297 0.984375
vt 0.9951172 0.9790039
vt 0.9951172 0.92529297
vt 0.76953125 0.76953125
vt 0.8227539 0.984375
vt 0.9951172 0.8803711
vt 0.76953125 0.76953125
vt 0.9951172 0.8803711
vt 0.9951172 0.76953125
vt 0.8227539 0.984375
vt 0.92529297 0.984375
vt 0.9951172 0.92529297
vt 0.8227539 0.984375
vt 0.9951172 0.92529297
vt 0.9951172 0.8803711
vt 0.76953125 0.76953125
vt 0.76953125 0.984375
vt 0.8227539 0.984375
vt 0.76953125 0.76953125
vt 0.9951172 0.76953125
vt 0.9824219 0.7548828
vt 0.76953125 0.76953125
vt 0.9824219 0.7548828
vt 0.76953125 0.7548828
vt 0.9951172 0.76953125
vt 0.9951172 0.7548828
vt 0.9824219 0.7548828
vn -0.9638672 0.265625 -5.9604645E-08
vn -0.9638672 0.265625 -5.9604645E-08
vn -0.9638672 0.265625 -5.9604645E-08
vn -0.9638672 0.265625 -5.9604645E-08
vn -0.9638672 0.265625 -5.9604645E-08
vn -0.9638672 0.265625 -5.9604645E-08
vn -0.9638672 0.265625 -5.9604645E-08
vn -0.9638672 0.265625 -5.9604645E-08
vn -0.9638672 0.265625 -5.9604645E-08
vn -0.9638672 0.265625 -5.9604645E-08
vn -0.9638672 0.265625 -5.9604645E-08
vn -0.9638672 0.265625 -5.9604645E-08
vn -0.9638672 0.265625 -5.9604645E-08
vn -0.9638672 0.265625 -5.9604645E-08
vn -0.9638672 0.265625 -5.9604645E-08
vn -5.9604645E-08 -2.3841858E-07 -1
vn -5.9604645E-08 -2.3841858E-07 -1
vn -5.9604645E-08 -2.3841858E-07 -1
vn -5.9604645E-08 -2.3841858E-07 -1
vn -5.9604645E-08 -2.3841858E-07 -1
vn -5.9604645E-08 -2.3841858E-07 -1
vn -5.9604645E-08 -2.3841858E-07 -1
vn -5.9604645E-08 -2.3841858E-07 -1
vn -5.9604645E-08 -2.3841858E-07 -1
vn -5.9604645E-08 -2.3841858E-07 -1
vn -5.9604645E-08 -2.3841858E-07 -1
vn -5.9604645E-08 -2.3841858E-07 -1
vn -5.9604645E-08 -2.3841858E-07 -1
vn -5.9604645E-08 -2.3841858E-07 -1
vn -5.9604645E-08 -2.3841858E-07 -1
vn -5.9604645E-08 -2.3841858E-07 -1
vn -5.9604645E-08 -2.3841858E-07 -1
vn -5.9604645E-08 -2.3841858E-07 -1
vn -5.9604645E-08 -2.3841858E-07 -1
vn -5.9604645E-08 -2.3841858E-07 -1
vn -5.9604645E-08 -2.3841858E-07 -1
vn -5.9604645E-08 -2.3841858E-07 -1
vn -5.9604645E-08 -2.3841858E-07 -1
vn -5.9604645E-08 -2.3841858E-07 -1
vn -5.9604645E-08 -2.3841858E-07 -1
vn -5.9604645E-08 -2.3841858E-07 -1
vn -5.9604645E-08 -2.3841858E-07 -1
vn -5.9604645E-08 -2.3841858E-07 -1
vn -5.9604645E-08 -2.3841858E-07 -1
vn -5.9604645E-08 -2.3841858E-07 -1
vn -1.1324883E-06 7.748604E-07 -1
vn 0.0010251999 5.364418E-07 -1
vn -1.1324883E-06 7.748604E-07 -1
vn -2.9802322E-07 -2.3841858E-07 -1
vn -1.1324883E-06 7.748604E-07 -1
vn -1.1324883E-06 7.748604E-07 -1
vn -2.9802322E-07 -2.3841858E-07 -1
vn -1.1324883E-06 7.748604E-07 -1
vn -2.9802322E-07 -2.3841858E-07 -1
vn -2.3841858E-07 -1.7881393E-07 -1
vn -2.9802322E-07 -2.3841858E-07 -1
vn -2.3841858E-07 -2.3841858E-07 -1
vn -2.3841858E-07 -1.7881393E-07 -1
vn -2.3841858E-07 -2.3841858E-07 -1
vn -2.3841858E-07 -2.3841858E-07 -1
vn -2.9802322E-07 -2.3841858E-07 -1
vn -2.9802322E-07 -2.3841858E-07 -1
vn -2.9802322E-07 -2.3841858E-07 -1
vn -2.9802322E-07 -2.3841858E-07 -1
vn -2.9802322E-07 -2.3841858E-07 -1
vn -2.3841858E-07 -2.3841858E-07 -1
vn -2.3841858E-07 -1.7881393E-07 -1
vn -2.9802322E-07 -2.3841858E-07 -1
vn -2.9802322E-07 -2.3841858E-07 -1
vn -2.3841858E-07 -5.9604645E-08 -1
vn -2.3841858E-07 -0 -1
vn -2.3841858E-07 -0 -1
vn -2.3841858E-07 -5.9604645E-08 -1
vn -2.3841858E-07 -0 -1
vn -2.3841858E-07 -5.9604645E-08 -1
vn -2.3841858E-07 -0 -1
vn -2.3841858E-07 -0 -1
vn -2.3841858E-07 -0 -1
g DecalMesh_MetroArea_Decal_Ground_26__8_0
f 3/3/3 2/2/2 1/1/1
f 6/6/6 5/5/5 4/4/4
f 9/9/9 8/8/8 7/7/7
f 12/12/12 11/11/11 10/10/10
f 15/15/15 14/14/14 13/13/13
f 18/18/18 17/17/17 16/16/16
f 21/21/21 20/20/20 19/19/19
f 24/24/24 23/23/23 22/22/22
f 27/27/27 26/26/26 25/25/25
f 30/30/30 29/29/29 28/28/28
f 33/33/33 32/32/32 31/31/31
f 36/36/36 35/35/35 34/34/34
f 39/39/39 38/38/38 37/37/37
f 42/42/42 41/41/41 40/40/40
f 45/45/45 44/44/44 43/43/43
f 48/48/48 47/47/47 46/46/46
f 51/51/51 50/50/50 49/49/49
f 54/54/54 53/53/53 52/52/52
f 57/57/57 56/56/56 55/55/55
f 60/60/60 59/59/59 58/58/58
f 63/63/63 62/62/62 61/61/61
f 66/66/66 65/65/65 64/64/64
f 69/69/69 68/68/68 67/67/67
f 72/72/72 71/71/71 70/70/70
f 75/75/75 74/74/74 73/73/73
f 78/78/78 77/77/77 76/76/76
