g DecalMesh_MetroArea_Decal_Wall_28__2
v 0.99679387 0.43743125 0.020340838
v -0.5239374 -0.4374312 0.020353679
v 0.99679387 -0.43743122 0.020340838
v 0.99679387 0.43743125 0.020340838
v 0.03909004 0.43743125 0.020348925
v -0.9967939 -0.340491 0.020357672
v 0.99679387 0.43743125 0.020340838
v -0.9967939 -0.340491 0.020357672
v -0.9967939 -0.4374312 0.020357672
v 0.99679387 0.43743125 0.020340838
v -0.9967939 -0.4374312 0.020357672
v -0.5239374 -0.43743122 0.020353679
v 0.03908989 0.43743116 0.020348925
v -0.996794 0.43743116 0.020357672
v -0.99679404 -0.34049106 0.020357672
vt 0.34716797 0.4423828
vt 0.5371094 0.3330078
vt 0.34716797 0.3330078
vt 0.34716797 0.4423828
vt 0.46679688 0.4423828
vt 0.5961914 0.34521484
vt 0.34716797 0.4423828
vt 0.5961914 0.34521484
vt 0.5961914 0.3330078
vt 0.34716797 0.4423828
vt 0.5961914 0.3330078
vt 0.5371094 0.3330078
vt 0.46679688 0.4423828
vt 0.5961914 0.4423828
vt 0.5961914 0.34521484
vn -8.6426735E-06 0 -1
vn -8.6426735E-06 0 -1
vn -8.6426735E-06 0 -1
vn -8.6426735E-06 0 -1
vn -8.6426735E-06 0 -1
vn -8.6426735E-06 0 -1
vn -8.6426735E-06 0 -1
vn -8.6426735E-06 0 -1
vn -8.6426735E-06 0 -1
vn -8.6426735E-06 0 -1
vn -8.6426735E-06 0 -1
vn -8.6426735E-06 0 -1
vn -8.6426735E-06 0 -1
vn -8.6426735E-06 0 -1
vn -8.6426735E-06 0 -1
g DecalMesh_MetroArea_Decal_Wall_28__2_0
f 3/3/3 2/2/2 1/1/1
f 6/6/6 5/5/5 4/4/4
f 9/9/9 8/8/8 7/7/7
f 12/12/12 11/11/11 10/10/10
f 15/15/15 14/14/14 13/13/13
