g DecalMesh_MetroArea_Decal_Graffiti_09__5
v 0.07485825 0.7444419 -0.029691393
v -1.7398922 0.7444419 -0.029691176
v -1.7398922 -0.30649605 -0.029688407
v 1.4910011 0.7444419 -0.029691562
v -1.7398922 -0.5966652 -0.029687643
v -1.0897115 -0.74444205 -0.029687332
v 1.4910011 0.7444419 -0.029691562
v -1.0897115 -0.74444205 -0.029687332
v 1.4910011 -0.74444205 -0.02968764
v -1.7398922 -0.5966652 -0.029687643
v -1.7398922 -0.74444205 -0.029687254
v -1.0897114 -0.74444205 -0.029687332
v 1.4910011 0.7444419 -0.029691562
v 0.07485825 0.7444419 -0.029691393
v -1.7398922 -0.30649605 -0.029688407
v 1.4910011 0.7444419 -0.029691562
v -1.7398922 -0.30649605 -0.029688407
v -1.7398922 -0.5966652 -0.029687643
v 1.4910011 0.7444419 -0.029691562
v 1.4910011 -0.74444205 -0.02968764
v 1.4910011 -0.21728761 0.07674135
v 1.4910011 0.7444419 -0.029691562
v 1.4910011 -0.21728761 0.07674135
v 1.4910011 0.7444419 0.07674136
v 1.4910011 -0.74444205 -0.02968764
v 1.4910011 -0.74444205 0.055267494
v 1.4910011 -0.5961765 0.07674135
v 1.4910011 -0.74444205 -0.02968764
v 1.4910011 -0.5961765 0.07674135
v 1.4910011 -0.21728761 0.07674135
v 1.4910011 -0.74444205 0.055267494
v 1.4910011 -0.6488378 0.07674135
v 1.4910011 -0.5961765 0.07674135
v 1.4910011 -0.74444205 0.055267494
v 1.4910011 -0.74444205 0.07674135
v 1.4910011 -0.6488378 0.07674135
v 1.5651844 0.7444419 -0.029691573
v 1.511964 -0.7444421 -0.029687641
v 1.6998702 -0.744442 -0.029687673
v 1.5651844 0.7444419 -0.029691573
v 1.4909973 0.7444419 -0.029691562
v 1.4909973 -0.74444205 -0.02968764
v 1.5651844 0.7444419 -0.029691573
v 1.4909973 -0.74444205 -0.02968764
v 1.511964 -0.74444205 -0.029687641
v 1.7398921 0.74444205 -0.029691603
v 1.5651844 0.74444205 -0.029691573
v 1.6998702 -0.74444205 -0.029687673
v 1.7398921 0.74444205 -0.029691603
v 1.6998702 -0.74444205 -0.029687673
v 1.7398921 -0.74444205 -0.02968768
vt 0.22521973 0.56591797
vt 0.46777344 0.56591797
vt 0.46777344 0.49047852
vt 0.035949707 0.56591797
vt 0.46777344 0.46948242
vt 0.38085938 0.45898438
vt 0.035949707 0.56591797
vt 0.38085938 0.45898438
vt 0.035949707 0.45898438
vt 0.46777344 0.46948242
vt 0.46777344 0.45898438
vt 0.38085938 0.45898438
vt 0.035949707 0.56591797
vt 0.22521973 0.56591797
vt 0.46777344 0.49047852
vt 0.035949707 0.56591797
vt 0.46777344 0.49047852
vt 0.46777344 0.46948242
vt 0.035949707 0.56591797
vt 0.035949707 0.45898438
vt 0.035949707 0.49682617
vt 0.035949707 0.56591797
vt 0.035949707 0.49682617
vt 0.035949707 0.56591797
vt 0.035949707 0.45898438
vt 0.035949707 0.45898438
vt 0.035949707 0.46972656
vt 0.035949707 0.45898438
vt 0.035949707 0.46972656
vt 0.035949707 0.49682617
vt 0.035949707 0.45898438
vt 0.035949707 0.4658203
vt 0.035949707 0.46972656
vt 0.035949707 0.45898438
vt 0.035949707 0.45898438
vt 0.035949707 0.4658203
vt 0.026031494 0.56591797
vt 0.03314209 0.45898438
vt 0.008026123 0.45898438
vt 0.026031494 0.56591797
vt 0.035949707 0.56591797
vt 0.035949707 0.45898438
vt 0.026031494 0.56591797
vt 0.035949707 0.45898438
vt 0.03314209 0.45898438
vt 0.0026779175 0.56591797
vt 0.026031494 0.56591797
vt 0.008026123 0.45898438
vt 0.0026779175 0.56591797
vt 0.008026123 0.45898438
vt 0.0026779175 0.45898438
vn -2.3841858E-07 -2.9802322E-06 -1
vn -2.3841858E-07 -2.9802322E-06 -1
vn -2.3841858E-07 -2.9802322E-06 -1
vn -2.3841858E-07 -2.9802322E-06 -1
vn -2.3841858E-07 -2.9802322E-06 -1
vn -2.3841858E-07 -2.9802322E-06 -1
vn -2.3841858E-07 -2.9802322E-06 -1
vn -2.3841858E-07 -2.9802322E-06 -1
vn -2.3841858E-07 -2.9802322E-06 -1
vn -2.3841858E-07 -2.9802322E-06 -1
vn -2.3841858E-07 -2.9802322E-06 -1
vn -2.3841858E-07 -2.9802322E-06 -1
vn -2.3841858E-07 -2.9802322E-06 -1
vn -2.3841858E-07 -2.9802322E-06 -1
vn -2.3841858E-07 -2.9802322E-06 -1
vn -2.3841858E-07 -2.9802322E-06 -1
vn -2.3841858E-07 -2.9802322E-06 -1
vn -2.3841858E-07 -2.9802322E-06 -1
vn 1 0 -2.3841858E-07
vn 1 0 -2.3841858E-07
vn 1 0 -2.3841858E-07
vn 1 0 -2.3841858E-07
vn 1 0 -2.3841858E-07
vn 1 0 -2.3841858E-07
vn 1 0 -2.3841858E-07
vn 1 0 -2.3841858E-07
vn 1 0 -2.3841858E-07
vn 1 0 -2.3841858E-07
vn 1 0 -2.3841858E-07
vn 1 0 -2.3841858E-07
vn 1 0 -2.3841858E-07
vn 1 0 -2.3841858E-07
vn 1 0 -2.3841858E-07
vn 1 0 -2.3841858E-07
vn 1 0 -2.3841858E-07
vn 1 0 -2.3841858E-07
vn -2.3841858E-07 -2.9802322E-06 -1
vn -2.3841858E-07 -2.9802322E-06 -1
vn -2.3841858E-07 -2.9802322E-06 -1
vn -2.3841858E-07 -2.9802322E-06 -1
vn -2.3841858E-07 -2.9802322E-06 -1
vn -2.3841858E-07 -2.9802322E-06 -1
vn -2.3841858E-07 -2.9802322E-06 -1
vn -2.3841858E-07 -2.9802322E-06 -1
vn -2.3841858E-07 -2.9802322E-06 -1
vn -2.3841858E-07 -2.9802322E-06 -1
vn -2.3841858E-07 -2.9802322E-06 -1
vn -2.3841858E-07 -2.9802322E-06 -1
vn -2.3841858E-07 -2.9802322E-06 -1
vn -2.3841858E-07 -2.9802322E-06 -1
vn -2.3841858E-07 -2.9802322E-06 -1
g DecalMesh_MetroArea_Decal_Graffiti_09__5_0
f 3/3/3 2/2/2 1/1/1
f 6/6/6 5/5/5 4/4/4
f 9/9/9 8/8/8 7/7/7
f 12/12/12 11/11/11 10/10/10
f 15/15/15 14/14/14 13/13/13
f 18/18/18 17/17/17 16/16/16
f 21/21/21 20/20/20 19/19/19
f 24/24/24 23/23/23 22/22/22
f 27/27/27 26/26/26 25/25/25
f 30/30/30 29/29/29 28/28/28
f 33/33/33 32/32/32 31/31/31
f 36/36/36 35/35/35 34/34/34
f 39/39/39 38/38/38 37/37/37
f 42/42/42 41/41/41 40/40/40
f 45/45/45 44/44/44 43/43/43
f 48/48/48 47/47/47 46/46/46
f 51/51/51 50/50/50 49/49/49
