g DecalMesh_MetroArea_Decal_Graffiti_25__62
v 1.9024403 0.9661644 0.037524216
v -0.6511186 -0.96616435 0.11790329
v 1.9024402 -0.96616447 0.03752419
v 1.9024403 0.9661644 0.037524216
v 1.1034356 0.9661644 0.062674716
v -0.95654553 -0.96616447 0.1275173
v 1.9024403 0.9661644 0.037524216
v -0.95654553 -0.96616447 0.1275173
v -0.7051132 -0.96616447 0.11960289
v 1.9024403 0.9661644 0.037524216
v -0.70511305 -0.96616435 0.11960289
v -0.6511186 -0.96616435 0.11790329
v 1.1034358 0.9661645 0.06267471
v -1.9024403 0.9661644 0.15729153
v -1.9024404 -0.96616447 0.1572915
v 1.1034358 0.9661645 0.06267471
v -1.9024404 -0.96616447 0.1572915
v -0.9565455 -0.9661644 0.1275173
vt 0.4020996 0.32666016
vt 0.6269531 0.17541504
vt 0.4020996 0.17541504
vt 0.4020996 0.32666016
vt 0.4724121 0.32666016
vt 0.6542969 0.17541504
vt 0.4020996 0.32666016
vt 0.6542969 0.17541504
vt 0.63183594 0.17541504
vt 0.4020996 0.32666016
vt 0.63183594 0.17541504
vt 0.6269531 0.17541504
vt 0.4724121 0.32666016
vt 0.7373047 0.32666016
vt 0.7373047 0.17541504
vt 0.4724121 0.32666016
vt 0.7373047 0.17541504
vt 0.6542969 0.17541504
vn -0.031463623 0 -0.9995117
vn -0.031463623 0 -0.9995117
vn -0.031463623 0 -0.9995117
vn -0.031463623 0 -0.9995117
vn -0.031463623 0 -0.9995117
vn -0.031463623 0 -0.9995117
vn -0.031463623 0 -0.9995117
vn -0.031463623 0 -0.9995117
vn -0.031463623 0 -0.9995117
vn -0.031463623 0 -0.9995117
vn -0.031463623 0 -0.9995117
vn -0.031463623 0 -0.9995117
vn -0.031463623 0 -0.9995117
vn -0.031463623 0 -0.9995117
vn -0.031463623 0 -0.9995117
vn -0.031463623 0 -0.9995117
vn -0.031463623 0 -0.9995117
vn -0.031463623 0 -0.9995117
g DecalMesh_MetroArea_Decal_Graffiti_25__62_0
f 3/3/3 2/2/2 1/1/1
f 6/6/6 5/5/5 4/4/4
f 9/9/9 8/8/8 7/7/7
f 12/12/12 11/11/11 10/10/10
f 15/15/15 14/14/14 13/13/13
f 18/18/18 17/17/17 16/16/16
