g DecalMesh_Common_Decal_Sign_10__41
v 0.110057555 0.2223009 0.20599869
v -0.029491361 -0.22230092 0.2059989
v -0.006968212 -0.2223009 0.2059989
v 0.110057555 0.2223009 0.20599869
v 0.098714426 0.22230089 0.20599869
v -0.03730506 -0.2223009 0.2059989
v 0.110057555 0.2223009 0.20599869
v -0.03730506 -0.2223009 0.2059989
v -0.031498734 -0.22230089 0.2059989
v 0.110057555 0.2223009 0.20599869
v -0.031498734 -0.22230089 0.2059989
v -0.029491363 -0.22230092 0.2059989
v 0.09871444 0.22230095 0.20599869
v 0.0632714 0.22230089 0.2059987
v -0.061719976 -0.22230092 0.20599891
v 0.09871444 0.22230095 0.20599869
v -0.061719976 -0.22230092 0.20599891
v -0.044491425 -0.2223009 0.2059989
v 0.09871444 0.22230095 0.20599869
v -0.044491425 -0.2223009 0.2059989
v -0.03730506 -0.2223009 0.2059989
v 0.063271396 0.2223009 0.2059987
v 0.03767176 0.22230099 0.2059987
v -0.0793543 -0.2223009 0.20599891
v 0.063271396 0.2223009 0.2059987
v -0.0793543 -0.2223009 0.20599891
v -0.06752111 -0.2223009 0.20599891
v 0.063271396 0.2223009 0.2059987
v -0.06752111 -0.2223009 0.20599891
v -0.061719973 -0.22230087 0.20599891
v 0.110057555 0.2223009 0.2510422
v -0.006968212 -0.2223009 0.23719971
v -0.006968212 -0.2223009 0.2587113
v 0.110057555 0.2223009 0.2510422
v 0.110057555 0.2223009 0.24018754
v -0.006968212 -0.22230089 0.2296809
v 0.110057555 0.2223009 0.2510422
v -0.006968212 -0.22230089 0.2296809
v -0.006968212 -0.22230089 0.23615533
v 0.110057555 0.2223009 0.2510422
v -0.0069682207 -0.22230092 0.23615533
v -0.0069682207 -0.22230092 0.23719971
v 0.110057555 0.2223009 0.24018754
v 0.110057555 0.2223009 0.20599869
v -0.006968212 -0.22230089 0.2059989
v 0.110057555 0.2223009 0.24018754
v -0.006968212 -0.22230089 0.2059989
v -0.006968212 -0.22230089 0.22639143
v 0.110057555 0.2223009 0.24018754
v -0.0069682207 -0.22230092 0.22639143
v -0.0069682207 -0.22230092 0.2296809
v 0.110057734 0.22230089 0.27599648
v 0.110057555 0.2223009 0.2510422
v -0.006968212 -0.22230089 0.2587113
v 0.110057734 0.22230089 0.27599648
v -0.006968212 -0.22230089 0.2587113
v -0.006968105 -0.22230089 0.27359572
v 0.110057734 0.22230089 0.27599648
v -0.006968114 -0.22230093 0.27359572
v -0.006968088 -0.2223009 0.27599669
v 0.14537548 0.22230087 0.26744843
v 0.006522024 -0.2223009 0.26744843
v 0.028349403 -0.22230092 0.26744843
v 0.14537548 0.22230087 0.26744843
v 0.13945493 0.22230087 0.26744843
v 0.0023868675 -0.22230093 0.26744843
v 0.14537548 0.22230087 0.26744843
v 0.0023868675 -0.22230093 0.26744843
v 0.0057666614 -0.22230093 0.26744843
v 0.14537548 0.22230087 0.26744843
v 0.005766671 -0.2223009 0.26744843
v 0.006522034 -0.22230089 0.26744843
v 0.13945495 0.22230089 0.26744843
v 0.09940671 0.2223009 0.26744843
v -0.025584422 -0.2223009 0.26744843
v 0.13945495 0.22230089 0.26744843
v -0.025584422 -0.2223009 0.26744843
v -0.0034550338 -0.22230092 0.26744843
v 0.13945495 0.22230089 0.26744843
v -0.0034550338 -0.22230092 0.26744843
v 0.0023868761 -0.22230092 0.26744843
v 0.09940671 0.2223009 0.26744843
v 0.07299396 0.22230089 0.26744843
v -0.04403215 -0.2223009 0.26744843
v 0.09940671 0.2223009 0.26744843
v -0.04403215 -0.2223009 0.26744843
v -0.029839626 -0.22230089 0.26744843
v 0.09940671 0.2223009 0.26744843
v -0.029839626 -0.22230089 0.26744843
v -0.025584422 -0.2223009 0.26744843
v 0.07299396 0.22230089 0.26744843
v 0.07299388 0.22230093 0.29288062
v -0.044032205 -0.22230087 0.2852113
v 0.07299396 0.22230089 0.26744843
v -0.044032205 -0.22230087 0.2852113
v -0.044032164 -0.2223009 0.27154568
v 0.07299396 0.22230089 0.26744843
v -0.044032164 -0.2223009 0.27154568
v -0.04403215 -0.2223009 0.26744843
v 0.072993875 0.22230092 0.29288062
v -0.044032246 -0.22230089 0.30632097
v -0.044032224 -0.22230092 0.2852113
v 0.072993875 0.22230092 0.29288062
v 0.07299385 0.22230092 0.30800483
v -0.044032265 -0.22230089 0.3168843
v 0.072993875 0.22230092 0.29288062
v -0.044032265 -0.22230089 0.3168843
v -0.044032253 -0.22230089 0.30875754
v 0.072993875 0.22230092 0.29288062
v -0.044032253 -0.22230089 0.30875754
v -0.044032246 -0.22230089 0.30632097
v 0.07299386 0.22230093 0.30800483
v 0.0729938 0.2223009 0.33745003
v -0.044032294 -0.2223009 0.33745003
v 0.07299386 0.22230093 0.30800483
v -0.044032294 -0.2223009 0.33745003
v -0.04403226 -0.22230089 0.32162806
v 0.07299386 0.22230093 0.30800483
v -0.04403227 -0.22230092 0.32162806
v -0.04403227 -0.22230092 0.3168843
v 0.17994575 0.22230089 -0.20163536
v -0.17994578 -0.14007723 -0.20163536
v -0.05773533 -0.2223009 -0.20163536
v 0.17994575 0.22230089 -0.20163536
v -0.05773533 -0.2223009 -0.20163536
v 0.17994577 -0.2223009 -0.20163536
v -0.17994578 -0.14007723 -0.20163536
v -0.17994578 -0.2223009 -0.20163536
v -0.05773533 -0.2223009 -0.20163536
v 0.17994575 0.22230089 -0.20163536
v -0.029418886 0.2223009 -0.20163536
v -0.17994577 0.043913994 -0.20163536
v 0.17994575 0.22230089 -0.20163536
v -0.17994577 0.043913994 -0.20163536
v -0.17994578 -0.14007723 -0.20163536
v -0.029418906 0.22230087 -0.20163536
v -0.17994577 0.22230089 -0.20163536
v -0.17994577 0.043913987 -0.20163536
vt -0.35302734 0.9448242
vt -0.32666016 0.85791016
vt -0.3310547 0.85791016
vt -0.35302734 0.9448242
vt -0.35083008 0.9448242
vt -0.3251953 0.85791016
vt -0.35302734 0.9448242
vt -0.3251953 0.85791016
vt -0.32641602 0.85791016
vt -0.35302734 0.9448242
vt -0.32641602 0.85791016
vt -0.32666016 0.85791016
vt -0.35083008 0.9448242
vt -0.34423828 0.9448242
vt -0.32055664 0.85791016
vt -0.35083008 0.9448242
vt -0.32055664 0.85791016
vt -0.3239746 0.85791016
vt -0.35083008 0.9448242
vt -0.3239746 0.85791016
vt -0.3251953 0.85791016
vt -0.34423828 0.9448242
vt -0.33935547 0.9448242
vt -0.3173828 0.85791016
vt -0.34423828 0.9448242
vt -0.3173828 0.85791016
vt -0.31958008 0.85791016
vt -0.34423828 0.9448242
vt -0.31958008 0.85791016
vt -0.32055664 0.85791016
vt -0.35302734 0.9448242
vt -0.3310547 0.85791016
vt -0.3310547 0.85791016
vt -0.35302734 0.9448242
vt -0.35302734 0.9448242
vt -0.3310547 0.85791016
vt -0.35302734 0.9448242
vt -0.3310547 0.85791016
vt -0.3310547 0.85791016
vt -0.35302734 0.9448242
vt -0.3310547 0.85791016
vt -0.3310547 0.85791016
vt -0.35302734 0.9448242
vt -0.35302734 0.9448242
vt -0.3310547 0.85791016
vt -0.35302734 0.9448242
vt -0.3310547 0.85791016
vt -0.3310547 0.85791016
vt -0.35302734 0.9448242
vt -0.3310547 0.85791016
vt -0.3310547 0.85791016
vt -0.35302734 0.9448242
vt -0.35302734 0.9448242
vt -0.3310547 0.85791016
vt -0.35302734 0.9448242
vt -0.3310547 0.85791016
vt -0.3310547 0.85791016
vt -0.35302734 0.9448242
vt -0.3310547 0.85791016
vt -0.3310547 0.85791016
vt -0.35961914 0.9448242
vt -0.3334961 0.85791016
vt -0.33764648 0.85791016
vt -0.35961914 0.9448242
vt -0.35864258 0.9448242
vt -0.33276367 0.85791016
vt -0.35961914 0.9448242
vt -0.33276367 0.85791016
vt -0.3334961 0.85791016
vt -0.35961914 0.9448242
vt -0.3334961 0.85791016
vt -0.3334961 0.85791016
vt -0.35864258 0.9448242
vt -0.35107422 0.9448242
vt -0.32739258 0.85791016
vt -0.35864258 0.9448242
vt -0.32739258 0.85791016
vt -0.33154297 0.85791016
vt -0.35864258 0.9448242
vt -0.33154297 0.85791016
vt -0.33276367 0.85791016
vt -0.35107422 0.9448242
vt -0.34594727 0.9448242
vt -0.3239746 0.85791016
vt -0.35107422 0.9448242
vt -0.3239746 0.85791016
vt -0.32666016 0.85791016
vt -0.35107422 0.9448242
vt -0.32666016 0.85791016
vt -0.32739258 0.85791016
vt -0.34594727 0.9448242
vt -0.34594727 0.9448242
vt -0.3239746 0.85791016
vt -0.34594727 0.9448242
vt -0.3239746 0.85791016
vt -0.3239746 0.85791016
vt -0.34594727 0.9448242
vt -0.3239746 0.85791016
vt -0.3239746 0.85791016
vt -0.34594727 0.9448242
vt -0.3239746 0.85791016
vt -0.3239746 0.85791016
vt -0.34594727 0.9448242
vt -0.34594727 0.9448242
vt -0.3239746 0.85791016
vt -0.34594727 0.9448242
vt -0.3239746 0.85791016
vt -0.3239746 0.85791016
vt -0.34594727 0.9448242
vt -0.3239746 0.85791016
vt -0.3239746 0.85791016
vt -0.34594727 0.9448242
vt -0.34594727 0.9448242
vt -0.3239746 0.85791016
vt -0.34594727 0.9448242
vt -0.3239746 0.85791016
vt -0.3239746 0.85791016
vt -0.34594727 0.9448242
vt -0.3239746 0.85791016
vt -0.3239746 0.85791016
vt -0.36621094 0.9448242
vt -0.29833984 0.87402344
vt -0.3215332 0.85791016
vt -0.36621094 0.9448242
vt -0.3215332 0.85791016
vt -0.36621094 0.85791016
vt -0.29833984 0.87402344
vt -0.29833984 0.85791016
vt -0.3215332 0.85791016
vt -0.36621094 0.9448242
vt -0.32666016 0.9448242
vt -0.29833984 0.90966797
vt -0.36621094 0.9448242
vt -0.29833984 0.90966797
vt -0.29833984 0.87402344
vt -0.32666016 0.9448242
vt -0.29833984 0.9448242
vt -0.29833984 0.90966797
vn -4.172325E-07 -3.5762787E-07 -1
vn -4.172325E-07 -3.5762787E-07 -1
vn -4.172325E-07 -3.5762787E-07 -1
vn -4.172325E-07 -3.5762787E-07 -1
vn -4.172325E-07 -3.5762787E-07 -1
vn -4.172325E-07 -3.5762787E-07 -1
vn -4.172325E-07 -3.5762787E-07 -1
vn -4.172325E-07 -3.5762787E-07 -1
vn -4.172325E-07 -3.5762787E-07 -1
vn -4.172325E-07 -3.5762787E-07 -1
vn -4.172325E-07 -3.5762787E-07 -1
vn -4.172325E-07 -3.5762787E-07 -1
vn -4.172325E-07 -3.5762787E-07 -1
vn -4.172325E-07 -3.5762787E-07 -1
vn -4.172325E-07 -3.5762787E-07 -1
vn -4.172325E-07 -3.5762787E-07 -1
vn -4.172325E-07 -3.5762787E-07 -1
vn -4.172325E-07 -3.5762787E-07 -1
vn -4.172325E-07 -3.5762787E-07 -1
vn -4.172325E-07 -3.5762787E-07 -1
vn -4.172325E-07 -3.5762787E-07 -1
vn -4.172325E-07 -3.5762787E-07 -1
vn -4.172325E-07 -3.5762787E-07 -1
vn -4.172325E-07 -3.5762787E-07 -1
vn -4.172325E-07 -3.5762787E-07 -1
vn -4.172325E-07 -3.5762787E-07 -1
vn -4.172325E-07 -3.5762787E-07 -1
vn -4.172325E-07 -3.5762787E-07 -1
vn -4.172325E-07 -3.5762787E-07 -1
vn -4.172325E-07 -3.5762787E-07 -1
vn 0.96728516 -0.25463867 -3.0994415E-06
vn 0.96728516 -0.25463867 -3.0994415E-06
vn 0.96728516 -0.25463867 -3.0994415E-06
vn 0.96728516 -0.25463867 -3.0994415E-06
vn 0.96728516 -0.25463867 -3.0994415E-06
vn 0.96728516 -0.25463867 -3.0994415E-06
vn 0.96728516 -0.25463867 -3.0994415E-06
vn 0.96728516 -0.25463867 -3.0994415E-06
vn 0.96728516 -0.25463867 -3.0994415E-06
vn 0.96728516 -0.25463867 -3.0994415E-06
vn 0.96728516 -0.25463867 -3.0994415E-06
vn 0.96728516 -0.25463867 -3.0994415E-06
vn 0.96728516 -0.25463867 -3.0994415E-06
vn 0.96728516 -0.25463867 -3.0994415E-06
vn 0.96728516 -0.25463867 -3.0994415E-06
vn 0.96728516 -0.25463867 -3.0994415E-06
vn 0.96728516 -0.25463867 -3.0994415E-06
vn 0.96728516 -0.25463867 -3.0994415E-06
vn 0.96728516 -0.25463867 -3.0994415E-06
vn 0.96728516 -0.25463867 -3.0994415E-06
vn 0.96728516 -0.25463867 -3.0994415E-06
vn 0.96728516 -0.25463867 -3.0994415E-06
vn 0.96728516 -0.25463867 -3.0994415E-06
vn 0.96728516 -0.25463867 -3.0994415E-06
vn 0.96728516 -0.25463867 -3.0994415E-06
vn 0.96728516 -0.25463867 -3.0994415E-06
vn 0.96728516 -0.25463867 -3.0994415E-06
vn 0.96728516 -0.25463867 -3.0994415E-06
vn 0.96728516 -0.25463867 -3.0994415E-06
vn 0.96728516 -0.25463867 -3.0994415E-06
vn -2.861023E-06 7.748604E-07 -1
vn -2.861023E-06 7.748604E-07 -1
vn -2.861023E-06 7.748604E-07 -1
vn -2.861023E-06 7.748604E-07 -1
vn -2.861023E-06 7.748604E-07 -1
vn -2.861023E-06 7.748604E-07 -1
vn -2.861023E-06 7.748604E-07 -1
vn -2.861023E-06 7.748604E-07 -1
vn -2.861023E-06 7.748604E-07 -1
vn -2.861023E-06 7.748604E-07 -1
vn -2.861023E-06 7.748604E-07 -1
vn -2.861023E-06 7.748604E-07 -1
vn -2.861023E-06 7.748604E-07 -1
vn -2.861023E-06 7.748604E-07 -1
vn -2.861023E-06 7.748604E-07 -1
vn -2.861023E-06 7.748604E-07 -1
vn -2.861023E-06 7.748604E-07 -1
vn -2.861023E-06 7.748604E-07 -1
vn -2.861023E-06 7.748604E-07 -1
vn -2.861023E-06 7.748604E-07 -1
vn -2.861023E-06 7.748604E-07 -1
vn -2.861023E-06 7.748604E-07 -1
vn -2.861023E-06 7.748604E-07 -1
vn -2.861023E-06 7.748604E-07 -1
vn -2.861023E-06 7.748604E-07 -1
vn -2.861023E-06 7.748604E-07 -1
vn -2.861023E-06 7.748604E-07 -1
vn -2.861023E-06 7.748604E-07 -1
vn -2.861023E-06 7.748604E-07 -1
vn -2.861023E-06 7.748604E-07 -1
vn -0.96728516 0.25463867 -1.0728836E-06
vn -0.96728516 0.25463867 -1.0728836E-06
vn -0.96728516 0.25463867 -1.0728836E-06
vn -0.96728516 0.25463867 -1.0728836E-06
vn -0.96728516 0.25463867 -1.0728836E-06
vn -0.96728516 0.25463867 -1.0728836E-06
vn -0.96728516 0.25463867 -1.0728836E-06
vn -0.96728516 0.25463867 -1.0728836E-06
vn -0.96728516 0.25463867 -1.0728836E-06
vn -0.96728516 0.25463867 -1.0728836E-06
vn -0.96728516 0.25463867 -1.0728836E-06
vn -0.96728516 0.25463867 -1.0728836E-06
vn -0.96728516 0.25463867 -1.0728836E-06
vn -0.96728516 0.25463867 -1.0728836E-06
vn -0.96728516 0.25463867 -1.0728836E-06
vn -0.96728516 0.25463867 -1.0728836E-06
vn -0.96728516 0.25463867 -1.0728836E-06
vn -0.96728516 0.25463867 -1.0728836E-06
vn -0.96728516 0.25463867 -1.0728836E-06
vn -0.96728516 0.25463867 -1.0728836E-06
vn -0.96728516 0.25463867 -1.0728836E-06
vn -0.96728516 0.25463867 -1.0728836E-06
vn -0.96728516 0.25463867 -1.0728836E-06
vn -0.96728516 0.25463867 -1.0728836E-06
vn -0.96728516 0.25463867 -1.0728836E-06
vn -0.96728516 0.25463867 -1.0728836E-06
vn -0.96728516 0.25463867 -1.0728836E-06
vn -0.96728516 0.25463867 -1.0728836E-06
vn -0.96728516 0.25463867 -1.0728836E-06
vn -0.96728516 0.25463867 -1.0728836E-06
vn 5.9604645E-08 2.3841858E-07 -1
vn 5.9604645E-08 2.3841858E-07 -1
vn 5.9604645E-08 2.3841858E-07 -1
vn 5.9604645E-08 2.3841858E-07 -1
vn 5.9604645E-08 2.3841858E-07 -1
vn 5.9604645E-08 2.3841858E-07 -1
vn 5.9604645E-08 2.3841858E-07 -1
vn 5.9604645E-08 2.3841858E-07 -1
vn 5.9604645E-08 2.3841858E-07 -1
vn 5.9604645E-08 2.3841858E-07 -1
vn 5.9604645E-08 2.3841858E-07 -1
vn 5.9604645E-08 2.3841858E-07 -1
vn 5.9604645E-08 2.3841858E-07 -1
vn 5.9604645E-08 2.3841858E-07 -1
vn 5.9604645E-08 2.3841858E-07 -1
vn 5.9604645E-08 2.3841858E-07 -1
vn 5.9604645E-08 2.3841858E-07 -1
vn 5.9604645E-08 2.3841858E-07 -1
g DecalMesh_Common_Decal_Sign_10__41_0
f 3/3/3 2/2/2 1/1/1
f 6/6/6 5/5/5 4/4/4
f 9/9/9 8/8/8 7/7/7
f 12/12/12 11/11/11 10/10/10
f 15/15/15 14/14/14 13/13/13
f 18/18/18 17/17/17 16/16/16
f 21/21/21 20/20/20 19/19/19
f 24/24/24 23/23/23 22/22/22
f 27/27/27 26/26/26 25/25/25
f 30/30/30 29/29/29 28/28/28
f 33/33/33 32/32/32 31/31/31
f 36/36/36 35/35/35 34/34/34
f 39/39/39 38/38/38 37/37/37
f 42/42/42 41/41/41 40/40/40
f 45/45/45 44/44/44 43/43/43
f 48/48/48 47/47/47 46/46/46
f 51/51/51 50/50/50 49/49/49
f 54/54/54 53/53/53 52/52/52
f 57/57/57 56/56/56 55/55/55
f 60/60/60 59/59/59 58/58/58
f 63/63/63 62/62/62 61/61/61
f 66/66/66 65/65/65 64/64/64
f 69/69/69 68/68/68 67/67/67
f 72/72/72 71/71/71 70/70/70
f 75/75/75 74/74/74 73/73/73
f 78/78/78 77/77/77 76/76/76
f 81/81/81 80/80/80 79/79/79
f 84/84/84 83/83/83 82/82/82
f 87/87/87 86/86/86 85/85/85
f 90/90/90 89/89/89 88/88/88
f 93/93/93 92/92/92 91/91/91
f 96/96/96 95/95/95 94/94/94
f 99/99/99 98/98/98 97/97/97
f 102/102/102 101/101/101 100/100/100
f 105/105/105 104/104/104 103/103/103
f 108/108/108 107/107/107 106/106/106
f 111/111/111 110/110/110 109/109/109
f 114/114/114 113/113/113 112/112/112
f 117/117/117 116/116/116 115/115/115
f 120/120/120 119/119/119 118/118/118
f 123/123/123 122/122/122 121/121/121
f 126/126/126 125/125/125 124/124/124
f 129/129/129 128/128/128 127/127/127
f 132/132/132 131/131/131 130/130/130
f 135/135/135 134/134/134 133/133/133
f 138/138/138 137/137/137 136/136/136
