g DecalMesh_MetroArea_Decal_Ground_26__115
v 1 -0.8266338 0.0020674164
v 0.7780451 -0.997 0.0066436287
v 0.7780451 -0.997 0.0020674432
v 1 -0.8266338 0.0020674164
v 1 -0.8266338 0.011614801
v 0.77804506 -0.997 0.014490712
v 1 -0.8266338 0.0020674164
v 0.77804506 -0.997 0.014490712
v 0.77804506 -0.997 0.006643629
v 1 -0.8266338 0.011614801
v 1 -0.8266338 0.027763218
v 0.77804506 -0.997 0.027763244
v 1 -0.8266338 0.011614801
v 0.77804506 -0.997 0.027763244
v 0.77804506 -0.997 0.014490712
v 1 -0.8266338 0.0020674164
v 0.7780451 -0.997 0.0020674432
v 1 -0.997 0.0020674134
v 1 0.82703096 0.0070647043
v 0.8649312 1.003 0.011766958
v 0.8649312 1.003 0.0070647253
v 1 0.82703096 0.0070647043
v 1 0.82703096 0.020300996
v 0.8649312 1.003 0.02258106
v 1 0.82703096 0.0070647043
v 0.8649312 1.003 0.02258106
v 0.8649312 1.003 0.011766958
v 1 0.82703096 0.020300996
v 1 0.82703096 0.030022832
v 0.89460945 0.96433485 0.030022832
v 0.8649312 1.003 0.02258106
v 1 0.82703096 0.020300996
v 0.8946095 0.96433485 0.030022832
v 0.8649312 1.003 0.02258106
v 0.8946095 0.96433485 0.030022832
v 0.8649312 1.003 0.030022832
v 1 -0.7963811 0.02260068
v 1 -0.7963811 0.0070646754
v 0.73863155 -0.997 0.007064707
v 1 -0.7963811 0.02260068
v 0.73863155 -0.997 0.007064707
v 0.73863155 -0.997 0.019214144
v 0.73863155 -0.997 0.027159289
v 0.73863155 -0.997 0.030022832
v 0.87225324 -0.8944359 0.030022832
v 1 -0.7963811 0.02260068
v 0.73863155 -0.997 0.019214144
v 0.9471788 -0.83692515 0.030022832
v 1 -0.7963811 0.02260068
v 0.9471788 -0.83692515 0.030022832
v 1 -0.7963811 0.030022832
v 0.73863155 -0.997 0.019214144
v 0.73863155 -0.997 0.027159289
v 0.87225324 -0.8944359 0.030022832
v 0.73863155 -0.997 0.019214144
v 0.87225324 -0.8944359 0.030022832
v 0.9471788 -0.83692515 0.030022832
v 1 -0.09141137 0.007064688
v 0.5703389 1.003 0.007064765
v -0.99999994 0.49825025 0.007064966
v 1 -0.09141137 0.007064688
v -0.99999994 0.49825025 0.007064966
v -1 0.17158091 0.00706496
v 0.5703389 1.003 0.007064765
v -0.7616244 1.003 0.0070649427
v -1 0.8200298 0.0070649716
v 0.5703389 1.003 0.007064765
v -1 0.8200298 0.0070649716
v -0.99999994 0.49825025 0.007064966
v 1 -0.09141137 0.007064688
v 1 0.82703096 0.0070647043
v 0.8649312 1.003 0.0070647253
v 1 -0.09141137 0.007064688
v 0.8649312 1.003 0.0070647253
v 0.5703389 1.003 0.007064765
v 1 -0.7963811 0.0070646754
v -1 -0.015266132 0.0070649567
v -0.5378491 -0.997 0.0070648775
v 1 -0.7963811 0.0070646754
v -0.5378491 -0.997 0.0070648775
v 0.73863155 -0.997 0.007064707
v -1 -0.015266132 0.0070649567
v -1 -0.6732253 0.007064945
v -0.75147986 -0.997 0.0070649064
v -1 -0.015266132 0.0070649567
v -0.75147986 -0.997 0.0070649064
v -0.5378491 -0.997 0.0070648775
v 1 -0.7963811 0.0070646754
v 1 -0.09141137 0.007064688
v -1 0.17158091 0.00706496
v 1 -0.7963811 0.0070646754
v -1 0.17158091 0.00706496
v -1 -0.015266132 0.0070649567
v -0.8954024 1.003 0.0058774743
v -1 0.93102443 0.005877405
v -1 0.9227139 0.0058773984
v -0.8954024 1.003 0.0058774743
v -1 1.003 0.00587746
v -1 0.93102443 0.005877405
v -0.8329834 1.003 -0.030022832
v -0.97132546 0.89681256 -0.03002283
v -0.8492049 0.99054885 0.030022832
v -0.8329834 1.003 -0.030022832
v -0.8492049 0.99054885 0.030022832
v -0.8329834 1.003 0.030022832
v -0.97132546 0.89681256 -0.030022832
v -0.9982057 0.87618005 0.030022833
v -0.8492049 0.99054885 0.030022833
v -0.97132546 0.89681256 -0.030022832
v -1 0.8748028 -0.030022832
v -1 0.8748028 0.030022832
v -0.97132546 0.89681256 -0.030022832
v -1 0.8748028 0.030022832
v -0.9982057 0.87618005 0.030022832
v -0.7579029 1.0029999 0.025474641
v -0.81289667 1.0030001 0.025474643
v -1 0.85707074 0.025474658
v -0.7579029 1.0029999 0.025474641
v -1 0.85707074 0.025474658
v -0.9999999 0.8171733 0.02547466
v -0.8128968 1.003 0.025474643
v -1 0.8602235 0.025474658
v -1 0.85707074 0.025474658
v -0.8128968 1.003 0.025474643
v -0.8329834 1.003 0.025474645
v -1 0.8748029 0.025474658
v -0.8128968 1.003 0.025474643
v -1 0.8748029 0.025474658
v -1 0.8602234 0.025474658
v -0.7579029 1.0029999 0.025474641
v -0.9999999 0.8171733 0.02547466
v -0.97022706 0.840026 0.030022832
v -0.7579029 1.0029999 0.025474641
v -0.97022706 0.840026 0.030022832
v -0.7579029 1.0029999 0.030022832
v -0.9999999 0.8171733 0.02547466
v -0.9999999 0.8171733 0.030022832
v -0.97022706 0.840026 0.030022832
vt 0.76953125 0.77441406
vt 0.7944336 0.7548828
vt 0.7944336 0.7548828
vt 0.76953125 0.77441406
vt 0.76953125 0.77441406
vt 0.7944336 0.7548828
vt 0.76953125 0.77441406
vt 0.7944336 0.7548828
vt 0.7944336 0.7548828
vt 0.76953125 0.77441406
vt 0.76953125 0.77441406
vt 0.7944336 0.7548828
vt 0.76953125 0.77441406
vt 0.7944336 0.7548828
vt 0.7944336 0.7548828
vt 0.76953125 0.77441406
vt 0.7944336 0.7548828
vt 0.76953125 0.7548828
vt 0.76953125 0.96484375
vt 0.78466797 0.9848633
vt 0.78466797 0.9848633
vt 0.76953125 0.96484375
vt 0.76953125 0.96484375
vt 0.78466797 0.9848633
vt 0.76953125 0.96484375
vt 0.78466797 0.9848633
vt 0.78466797 0.9848633
vt 0.76953125 0.96484375
vt 0.76953125 0.96484375
vt 0.78125 0.98046875
vt 0.78466797 0.9848633
vt 0.76953125 0.96484375
vt 0.78125 0.98046875
vt 0.78466797 0.9848633
vt 0.78125 0.98046875
vt 0.78466797 0.9848633
vt 0.76953125 0.7783203
vt 0.76953125 0.7783203
vt 0.7988281 0.7548828
vt 0.76953125 0.7783203
vt 0.7988281 0.7548828
vt 0.7988281 0.7548828
vt 0.7988281 0.7548828
vt 0.7988281 0.7548828
vt 0.7836914 0.76660156
vt 0.76953125 0.7783203
vt 0.7988281 0.7548828
vt 0.7753906 0.7734375
vt 0.76953125 0.7783203
vt 0.7753906 0.7734375
vt 0.76953125 0.7783203
vt 0.7988281 0.7548828
vt 0.7988281 0.7548828
vt 0.7836914 0.76660156
vt 0.7988281 0.7548828
vt 0.7836914 0.76660156
vt 0.7753906 0.7734375
vt 0.76953125 0.8588867
vt 0.8178711 0.9848633
vt 0.9951172 0.9267578
vt 0.76953125 0.8588867
vt 0.9951172 0.9267578
vt 0.9951172 0.88916016
vt 0.8178711 0.9848633
vt 0.9682617 0.9848633
vt 0.9951172 0.9638672
vt 0.8178711 0.9848633
vt 0.9951172 0.9638672
vt 0.9951172 0.9267578
vt 0.76953125 0.8588867
vt 0.76953125 0.96484375
vt 0.78466797 0.9848633
vt 0.76953125 0.8588867
vt 0.78466797 0.9848633
vt 0.8178711 0.9848633
vt 0.76953125 0.7783203
vt 0.9951172 0.8676758
vt 0.9428711 0.7548828
vt 0.76953125 0.7783203
vt 0.9428711 0.7548828
vt 0.7988281 0.7548828
vt 0.9951172 0.8676758
vt 0.9951172 0.79248047
vt 0.96728516 0.7548828
vt 0.9951172 0.8676758
vt 0.96728516 0.7548828
vt 0.9428711 0.7548828
vt 0.76953125 0.7783203
vt 0.76953125 0.8588867
vt 0.9951172 0.88916016
vt 0.76953125 0.7783203
vt 0.9951172 0.88916016
vt 0.9951172 0.8676758
vt 0.98339844 0.9848633
vt 0.9951172 0.9765625
vt 0.9951172 0.97558594
vt 0.98339844 0.9848633
vt 0.9951172 0.9848633
vt 0.9951172 0.9765625
vt 0.9765625 0.9848633
vt 0.9921875 0.97265625
vt 0.97802734 0.98339844
vt 0.9765625 0.9848633
vt 0.97802734 0.98339844
vt 0.9765625 0.9848633
vt 0.9921875 0.97265625
vt 0.9951172 0.97021484
vt 0.97802734 0.98339844
vt 0.9921875 0.97265625
vt 0.9951172 0.97021484
vt 0.9951172 0.97021484
vt 0.9921875 0.97265625
vt 0.9951172 0.97021484
vt 0.9951172 0.97021484
vt 0.96777344 0.9848633
vt 0.9741211 0.9848633
vt 0.9951172 0.9682617
vt 0.96777344 0.9848633
vt 0.9951172 0.9682617
vt 0.9951172 0.9633789
vt 0.9741211 0.9848633
vt 0.9951172 0.9682617
vt 0.9951172 0.9682617
vt 0.9741211 0.9848633
vt 0.9765625 0.9848633
vt 0.9951172 0.97021484
vt 0.9741211 0.9848633
vt 0.9951172 0.97021484
vt 0.9951172 0.9682617
vt 0.96777344 0.9848633
vt 0.9951172 0.9633789
vt 0.9916992 0.9663086
vt 0.96777344 0.9848633
vt 0.9916992 0.9663086
vt 0.96777344 0.9848633
vt 0.9951172 0.9633789
vt 0.9951172 0.9633789
vt 0.9916992 0.9663086
vn -0.6088867 0.79345703 -5.9604645E-08
vn -0.6088867 0.79345703 -5.9604645E-08
vn -0.6088867 0.79345703 -5.9604645E-08
vn -0.6088867 0.79345703 -5.9604645E-08
vn -0.6088867 0.79345703 -5.9604645E-08
vn -0.6088867 0.79345703 -5.9604645E-08
vn -0.6088867 0.79345703 -5.9604645E-08
vn -0.6088867 0.79345703 -5.9604645E-08
vn -0.6088867 0.79345703 -5.9604645E-08
vn -0.6088867 0.79345703 -5.9604645E-08
vn -0.6088867 0.79345703 -5.9604645E-08
vn -0.6088867 0.79345703 -5.9604645E-08
vn -0.6088867 0.79345703 -5.9604645E-08
vn -0.6088867 0.79345703 -5.9604645E-08
vn -0.6088867 0.79345703 -5.9604645E-08
vn 1.1920929E-07 -3.5762787E-07 -1
vn 1.1920929E-07 -3.5762787E-07 -1
vn 1.1920929E-07 -3.5762787E-07 -1
vn 0.79345703 0.6088867 -5.9604645E-08
vn 0.79345703 0.6088867 -5.9604645E-08
vn 0.79345703 0.6088867 -5.9604645E-08
vn 0.79345703 0.6088867 -5.9604645E-08
vn 0.79345703 0.6088867 -5.9604645E-08
vn 0.79345703 0.6088867 -5.9604645E-08
vn 0.79345703 0.6088867 -5.9604645E-08
vn 0.79345703 0.6088867 -5.9604645E-08
vn 0.79345703 0.6088867 -5.9604645E-08
vn 0.79345703 0.6088867 -5.9604645E-08
vn 0.79345703 0.6088867 -5.9604645E-08
vn 0.79345703 0.6088867 -5.9604645E-08
vn 0.79345703 0.6088867 -5.9604645E-08
vn 0.79345703 0.6088867 -5.9604645E-08
vn 0.79345703 0.6088867 -5.9604645E-08
vn 0.79345703 0.6088867 -5.9604645E-08
vn 0.79345703 0.6088867 -5.9604645E-08
vn 0.79345703 0.6088867 -5.9604645E-08
vn 0.6088867 -0.79345703 -1.1920929E-07
vn 0.6088867 -0.79345703 -1.1920929E-07
vn 0.6088867 -0.79345703 -1.1920929E-07
vn 0.6088867 -0.79345703 -1.1920929E-07
vn 0.6088867 -0.79345703 -1.1920929E-07
vn 0.6088867 -0.79345703 -1.1920929E-07
vn 0.6088867 -0.79345703 -1.1920929E-07
vn 0.6088867 -0.79345703 -1.1920929E-07
vn 0.6088867 -0.79345703 -1.1920929E-07
vn 0.6088867 -0.79345703 -1.1920929E-07
vn 0.6088867 -0.79345703 -1.1920929E-07
vn 0.6088867 -0.79345703 -1.1920929E-07
vn 0.6088867 -0.79345703 -1.1920929E-07
vn 0.6088867 -0.79345703 -1.1920929E-07
vn 0.6088867 -0.79345703 -1.1920929E-07
vn 0.6088867 -0.79345703 -1.1920929E-07
vn 0.6088867 -0.79345703 -1.1920929E-07
vn 0.6088867 -0.79345703 -1.1920929E-07
vn 0.6088867 -0.79345703 -1.1920929E-07
vn 0.6088867 -0.79345703 -1.1920929E-07
vn 0.6088867 -0.79345703 -1.1920929E-07
vn 5.9604645E-08 -2.3841858E-07 -1
vn 5.9604645E-08 -2.3841858E-07 -1
vn 5.9604645E-08 -2.3841858E-07 -1
vn 5.9604645E-08 -2.3841858E-07 -1
vn 5.9604645E-08 -2.3841858E-07 -1
vn 5.9604645E-08 -2.3841858E-07 -1
vn 5.9604645E-08 -2.3841858E-07 -1
vn 5.9604645E-08 -2.3841858E-07 -1
vn 5.9604645E-08 -2.3841858E-07 -1
vn 5.9604645E-08 -2.3841858E-07 -1
vn 5.9604645E-08 -2.3841858E-07 -1
vn 5.9604645E-08 -2.3841858E-07 -1
vn 5.9604645E-08 -2.3841858E-07 -1
vn 5.9604645E-08 -2.3841858E-07 -1
vn 5.9604645E-08 -2.3841858E-07 -1
vn 5.9604645E-08 -2.3841858E-07 -1
vn 5.9604645E-08 -2.3841858E-07 -1
vn 5.9604645E-08 -2.3841858E-07 -1
vn 5.9604645E-08 -2.3841858E-07 -1
vn 5.9604645E-08 -2.3841858E-07 -1
vn 5.9604645E-08 -2.3841858E-07 -1
vn 5.9604645E-08 -2.3841858E-07 -1
vn 5.9604645E-08 -2.3841858E-07 -1
vn 5.9604645E-08 -2.3841858E-07 -1
vn 5.9604645E-08 -2.3841858E-07 -1
vn 5.9604645E-08 -2.3841858E-07 -1
vn 5.9604645E-08 -2.3841858E-07 -1
vn 5.9604645E-08 -2.3841858E-07 -1
vn 5.9604645E-08 -2.3841858E-07 -1
vn 5.9604645E-08 -2.3841858E-07 -1
vn 5.9604645E-08 -2.3841858E-07 -1
vn 5.9604645E-08 -2.3841858E-07 -1
vn 5.9604645E-08 -2.3841858E-07 -1
vn 5.9604645E-08 -2.3841858E-07 -1
vn 5.9604645E-08 -2.3841858E-07 -1
vn 5.9604645E-08 -2.3841858E-07 -1
vn 1.1920929E-07 0 -1
vn 1.1920929E-07 0 -1
vn 1.1920929E-07 0 -1
vn 1.1920929E-07 0 -1
vn 1.1920929E-07 0 -1
vn 1.1920929E-07 0 -1
vn 0.6088867 -0.79345703 -1.1920929E-07
vn 0.6088867 -0.79345703 -1.1920929E-07
vn 0.6088867 -0.79345703 -1.1920929E-07
vn 0.6088867 -0.79345703 -1.1920929E-07
vn 0.6088867 -0.79345703 -1.1920929E-07
vn 0.6088867 -0.79345703 -1.1920929E-07
vn 0.6088867 -0.79345703 -1.1920929E-07
vn 0.6088867 -0.79345703 -1.1920929E-07
vn 0.6088867 -0.79345703 -1.1920929E-07
vn 0.6088867 -0.79345703 -1.1920929E-07
vn 0.6088867 -0.79345703 -1.1920929E-07
vn 0.6088867 -0.79345703 -1.1920929E-07
vn 0.6088867 -0.79345703 -1.1920929E-07
vn 0.6088867 -0.79345703 -1.1920929E-07
vn 0.6088867 -0.79345703 -1.1920929E-07
vn 3.516674E-06 -4.7683716E-06 -1
vn 3.516674E-06 -4.7683716E-06 -1
vn 3.516674E-06 -4.7683716E-06 -1
vn 3.516674E-06 -4.7683716E-06 -1
vn 3.516674E-06 -4.7683716E-06 -1
vn 3.516674E-06 -4.7683716E-06 -1
vn 3.516674E-06 -4.7683716E-06 -1
vn 3.516674E-06 -4.7683716E-06 -1
vn 3.516674E-06 -4.7683716E-06 -1
vn 3.516674E-06 -4.7683716E-06 -1
vn 3.516674E-06 -4.7683716E-06 -1
vn 3.516674E-06 -4.7683716E-06 -1
vn 3.516674E-06 -4.7683716E-06 -1
vn 3.516674E-06 -4.7683716E-06 -1
vn 3.516674E-06 -4.7683716E-06 -1
vn 0.6088867 -0.79345703 -1.1920929E-07
vn 0.6088867 -0.79345703 -1.1920929E-07
vn 0.6088867 -0.79345703 -1.1920929E-07
vn 0.6088867 -0.79345703 -1.1920929E-07
vn 0.6088867 -0.79345703 -1.1920929E-07
vn 0.6088867 -0.79345703 -1.1920929E-07
vn 0.6088867 -0.79345703 -1.1920929E-07
vn 0.6088867 -0.79345703 -1.1920929E-07
vn 0.6088867 -0.79345703 -1.1920929E-07
g DecalMesh_MetroArea_Decal_Ground_26__115_0
f 3/3/3 2/2/2 1/1/1
f 6/6/6 5/5/5 4/4/4
f 9/9/9 8/8/8 7/7/7
f 12/12/12 11/11/11 10/10/10
f 15/15/15 14/14/14 13/13/13
f 18/18/18 17/17/17 16/16/16
f 21/21/21 20/20/20 19/19/19
f 24/24/24 23/23/23 22/22/22
f 27/27/27 26/26/26 25/25/25
f 30/30/30 29/29/29 28/28/28
f 33/33/33 32/32/32 31/31/31
f 36/36/36 35/35/35 34/34/34
f 39/39/39 38/38/38 37/37/37
f 42/42/42 41/41/41 40/40/40
f 45/45/45 44/44/44 43/43/43
f 48/48/48 47/47/47 46/46/46
f 51/51/51 50/50/50 49/49/49
f 54/54/54 53/53/53 52/52/52
f 57/57/57 56/56/56 55/55/55
f 60/60/60 59/59/59 58/58/58
f 63/63/63 62/62/62 61/61/61
f 66/66/66 65/65/65 64/64/64
f 69/69/69 68/68/68 67/67/67
f 72/72/72 71/71/71 70/70/70
f 75/75/75 74/74/74 73/73/73
f 78/78/78 77/77/77 76/76/76
f 81/81/81 80/80/80 79/79/79
f 84/84/84 83/83/83 82/82/82
f 87/87/87 86/86/86 85/85/85
f 90/90/90 89/89/89 88/88/88
f 93/93/93 92/92/92 91/91/91
f 96/96/96 95/95/95 94/94/94
f 99/99/99 98/98/98 97/97/97
f 102/102/102 101/101/101 100/100/100
f 105/105/105 104/104/104 103/103/103
f 108/108/108 107/107/107 106/106/106
f 111/111/111 110/110/110 109/109/109
f 114/114/114 113/113/113 112/112/112
f 117/117/117 116/116/116 115/115/115
f 120/120/120 119/119/119 118/118/118
f 123/123/123 122/122/122 121/121/121
f 126/126/126 125/125/125 124/124/124
f 129/129/129 128/128/128 127/127/127
f 132/132/132 131/131/131 130/130/130
f 135/135/135 134/134/134 133/133/133
f 138/138/138 137/137/137 136/136/136
