g DecalMesh_MetroArea_Decal_Ground_14__75
v -0.49754843 0.5 -0.10209745
v -0.49759334 -0.50000006 -0.102097556
v -0.3853018 -0.5 -0.102097556
v -0.49754843 0.5 -0.10209745
v -0.49799728 0.5 -0.10209745
v -0.49799728 -0.49999997 -0.102097556
v -0.49754843 0.5 -0.10209745
v -0.49799728 -0.49999997 -0.102097556
v -0.49759334 -0.49999997 -0.102097556
v 0.5000001 0.50000006 -0.10209745
v -0.4975484 0.49999973 -0.10209745
v -0.38530183 -0.4999998 -0.102097556
v 0.5000001 0.50000006 -0.10209745
v -0.38530183 -0.4999998 -0.102097556
v 0.5000001 -0.50000006 -0.102097556
v -0.49799728 0.5 -0.10209745
v -0.49999982 0.49777585 -0.10209745
v -0.49979988 -0.49999994 -0.10209746
v -0.49799728 0.5 -0.10209745
v -0.49979988 -0.49999994 -0.10209746
v -0.49799728 -0.49999976 -0.10209746
v -0.49999982 0.49777585 -0.10209745
v -0.49999982 -0.5 -0.10209746
v -0.49979988 -0.5 -0.10209746
v -0.49799728 0.5 -0.10209745
v -0.5 0.5 -0.10209745
v -0.5 0.49777564 -0.10209745
v -0.020998001 0.48899364 -0.0990991
v -0.020998085 0.5 -0.09957408
v -0.020998085 0.5 -0.0990991
v -0.020998001 0.48899364 -0.0990991
v -0.020998001 0.48899364 -0.11209973
v -0.020998051 0.49562496 -0.11209973
v -0.020998085 0.5 -0.09957408
v -0.020998001 0.48899364 -0.0990991
v -0.020998051 0.49562496 -0.11209973
v -0.020998085 0.5 -0.09957408
v -0.020998051 0.49562496 -0.11209973
v -0.020998085 0.5 -0.11209973
v -0.020998001 0.48899364 -0.0990991
v 0.5 0.4889976 -0.0990991
v 0.18609908 0.48899522 -0.11209973
v -0.020998001 0.48899364 -0.0990991
v 0.18609908 0.48899522 -0.11209973
v -0.020998001 0.48899364 -0.11209973
v 0.5 0.4889976 -0.0990991
v 0.5 0.4889976 -0.109434925
v 0.3765027 0.48899665 -0.11209973
v 0.5 0.4889976 -0.0990991
v 0.3765027 0.48899665 -0.11209973
v 0.18609908 0.48899522 -0.11209973
v 0.5 0.4889976 -0.109434925
v 0.5 0.4889976 -0.11209973
v 0.3765027 0.48899665 -0.11209973
v -0.5 0.48900524 -0.11034111
v -0.41849905 0.48900586 -0.11209972
v -0.5 0.48900524 -0.11209972
v -0.5 0.48900524 -0.11034111
v -0.020998001 0.4890089 -0.0990991
v -0.020998001 0.4890089 -0.11209973
v -0.5 0.48900524 -0.11034111
v -0.020998001 0.4890089 -0.11209973
v -0.41849905 0.48900586 -0.11209972
v -0.020998001 0.4890089 -0.0990991
v -0.5 0.48900524 -0.11034111
v -0.5 0.48900524 -0.0990991
vt 0.99658203 0.62109375
vt 0.99658203 0.5083008
vt 0.9838867 0.5083008
vt 0.99658203 0.62109375
vt 0.99658203 0.62109375
vt 0.99658203 0.5083008
vt 0.99658203 0.62109375
vt 0.99658203 0.5083008
vt 0.99658203 0.5083008
vt 0.8823242 0.62109375
vt 0.99658203 0.62109375
vt 0.9838867 0.5083008
vt 0.8823242 0.62109375
vt 0.9838867 0.5083008
vt 0.8823242 0.5083008
vt 0.99658203 0.62109375
vt 0.9970703 0.62109375
vt 0.99658203 0.5083008
vt 0.99658203 0.62109375
vt 0.99658203 0.5083008
vt 0.99658203 0.5083008
vt 0.9970703 0.62109375
vt 0.9970703 0.5083008
vt 0.99658203 0.5083008
vt 0.99658203 0.62109375
vt 0.9970703 0.62109375
vt 0.9970703 0.62109375
vt 0.94189453 0.6201172
vt 0.94189453 0.62109375
vt 0.94189453 0.62109375
vt 0.94189453 0.6201172
vt 0.94189453 0.6201172
vt 0.94189453 0.62060547
vt 0.94189453 0.62109375
vt 0.94189453 0.6201172
vt 0.94189453 0.62060547
vt 0.94189453 0.62109375
vt 0.94189453 0.62060547
vt 0.94189453 0.62109375
vt 0.94189453 0.6201172
vt 0.8823242 0.6201172
vt 0.91845703 0.6201172
vt 0.94189453 0.6201172
vt 0.91845703 0.6201172
vt 0.94189453 0.6201172
vt 0.8823242 0.6201172
vt 0.8823242 0.6201172
vt 0.8964844 0.6201172
vt 0.8823242 0.6201172
vt 0.8964844 0.6201172
vt 0.91845703 0.6201172
vt 0.8823242 0.6201172
vt 0.8823242 0.6201172
vt 0.8964844 0.6201172
vt 0.9970703 0.6201172
vt 0.9873047 0.6201172
vt 0.9970703 0.6201172
vt 0.9970703 0.6201172
vt 0.94189453 0.6201172
vt 0.94189453 0.6201172
vt 0.9970703 0.6201172
vt 0.94189453 0.6201172
vt 0.9873047 0.6201172
vt 0.94189453 0.6201172
vt 0.9970703 0.6201172
vt 0.9970703 0.6201172
vn -0 5.9604645E-08 -1
vn -0 5.9604645E-08 -1
vn -0 5.9604645E-08 -1
vn -0 5.9604645E-08 -1
vn -0 5.9604645E-08 -1
vn -0 5.9604645E-08 -1
vn -0 5.9604645E-08 -1
vn -0 5.9604645E-08 -1
vn -0 5.9604645E-08 -1
vn -0 5.9604645E-08 -1
vn -0 5.9604645E-08 -1
vn -0 5.9604645E-08 -1
vn -0 5.9604645E-08 -1
vn -0 5.9604645E-08 -1
vn -0 5.9604645E-08 -1
vn -0 5.9604645E-08 -1
vn -0 5.9604645E-08 -1
vn -0 5.9604645E-08 -1
vn -0 5.9604645E-08 -1
vn -0 5.9604645E-08 -1
vn -0 5.9604645E-08 -1
vn -0 5.9604645E-08 -1
vn -0 5.9604645E-08 -1
vn -0 5.9604645E-08 -1
vn -0 5.9604645E-08 -1
vn -0 5.9604645E-08 -1
vn -0 5.9604645E-08 -1
vn -1 -7.5101852E-06 -0
vn -1 -7.5101852E-06 -0
vn -1 -7.5101852E-06 -0
vn -1 -7.5101852E-06 -0
vn -1 -7.5101852E-06 -0
vn -1 -7.5101852E-06 -0
vn -1 -7.5101852E-06 -0
vn -1 -7.5101852E-06 -0
vn -1 -7.5101852E-06 -0
vn -1 -7.5101852E-06 -0
vn -1 -7.5101852E-06 -0
vn -1 -7.5101852E-06 -0
vn 7.5101852E-06 -1 -1.1920929E-07
vn 7.5101852E-06 -1 -1.1920929E-07
vn 7.5101852E-06 -1 -1.1920929E-07
vn 7.5101852E-06 -1 -1.1920929E-07
vn 7.5101852E-06 -1 -1.1920929E-07
vn 7.5101852E-06 -1 -1.1920929E-07
vn 7.5101852E-06 -1 -1.1920929E-07
vn 7.5101852E-06 -1 -1.1920929E-07
vn 7.5101852E-06 -1 -1.1920929E-07
vn 7.5101852E-06 -1 -1.1920929E-07
vn 7.5101852E-06 -1 -1.1920929E-07
vn 7.5101852E-06 -1 -1.1920929E-07
vn 7.5101852E-06 -1 -1.1920929E-07
vn 7.5101852E-06 -1 -1.1920929E-07
vn 7.5101852E-06 -1 -1.1920929E-07
vn 7.5101852E-06 -1 -1.1920929E-07
vn 7.5101852E-06 -1 -1.1920929E-07
vn 7.5101852E-06 -1 -1.1920929E-07
vn 7.5101852E-06 -1 -1.1920929E-07
vn 7.5101852E-06 -1 -1.1920929E-07
vn 7.5101852E-06 -1 -1.1920929E-07
vn 7.5101852E-06 -1 -1.1920929E-07
vn 7.5101852E-06 -1 -1.1920929E-07
vn 7.5101852E-06 -1 -1.1920929E-07
vn 7.5101852E-06 -1 -1.1920929E-07
vn 7.5101852E-06 -1 -1.1920929E-07
vn 7.5101852E-06 -1 -1.1920929E-07
g DecalMesh_MetroArea_Decal_Ground_14__75_0
f 3/3/3 2/2/2 1/1/1
f 6/6/6 5/5/5 4/4/4
f 9/9/9 8/8/8 7/7/7
f 12/12/12 11/11/11 10/10/10
f 15/15/15 14/14/14 13/13/13
f 18/18/18 17/17/17 16/16/16
f 21/21/21 20/20/20 19/19/19
f 24/24/24 23/23/23 22/22/22
f 27/27/27 26/26/26 25/25/25
f 30/30/30 29/29/29 28/28/28
f 33/33/33 32/32/32 31/31/31
f 36/36/36 35/35/35 34/34/34
f 39/39/39 38/38/38 37/37/37
f 42/42/42 41/41/41 40/40/40
f 45/45/45 44/44/44 43/43/43
f 48/48/48 47/47/47 46/46/46
f 51/51/51 50/50/50 49/49/49
f 54/54/54 53/53/53 52/52/52
f 57/57/57 56/56/56 55/55/55
f 60/60/60 59/59/59 58/58/58
f 63/63/63 62/62/62 61/61/61
f 66/66/66 65/65/65 64/64/64
