g DecalMesh_MetroArea_Decal_Graffiti_23__45
v 1.4107559 0.6622391 -0.0035133103
v 0.4427751 0.48277327 -0.0035136975
v 0.9310962 -0.65623903 -0.003517545
v 1.4107559 0.6622391 -0.0035133103
v 0.9310962 -0.65623903 -0.003517545
v 1.4107559 -0.65623903 -0.0035176456
v 0.4427751 0.48277327 -0.0035136975
v 1.4107559 0.6622391 -0.0035133103
v 0.86138034 0.6622391 -0.003513195
v 0.4427751 0.48277327 -0.0035136975
v 0.8613803 0.6622391 -0.003513195
v 0.36583394 0.6622391 -0.003513091
v 0.4427751 0.48277327 -0.0035136975
v 0.36583397 0.662239 -0.003513091
v -1.4107559 -0.27036712 -0.003515977
v 0.4427751 0.48277327 -0.0035136975
v -1.4107559 -0.27036712 -0.003515977
v -1.4107559 -0.31187856 -0.003516115
v 0.36583397 0.662239 -0.003513091
v -1.4107559 0.662239 -0.0035128745
v -1.4107559 -0.27036712 -0.003515977
v 0.4427751 0.48277327 -0.0035136975
v -1.4107559 -0.31187856 -0.003516115
v -0.8854073 -0.65623903 -0.003517324
v 0.4427751 0.48277327 -0.0035136975
v -0.8854073 -0.65623903 -0.003517324
v 0.85975343 -0.6562391 -0.0035175364
v -1.4107559 -0.31187856 -0.003516115
v -1.4107559 -0.65623903 -0.0035172603
v -0.8854073 -0.65623903 -0.003517324
v 0.4427751 0.48277327 -0.0035136975
v 0.8597534 -0.65623903 -0.0035175364
v 0.93109614 -0.6562389 -0.003517545
v 1.4107559 -0.23556127 0.023163753
v -0.76164705 0.6622391 0.023166984
v -0.31306762 -0.65623903 0.023162551
v 1.4107559 -0.23556127 0.023163753
v -0.31306762 -0.65623903 0.023162551
v 1.2543583 -0.6562391 0.023162372
v -0.76164705 0.6622391 0.023166984
v -1.0731531 0.6622391 0.02316702
v -0.5078909 -0.65623903 0.023162574
v -0.76164705 0.6622391 0.023166984
v -0.5078909 -0.65623903 0.023162574
v -0.31306762 -0.65623903 0.023162551
v 1.4107559 -0.23556127 0.023163753
v 1.4107559 0.662239 0.023166737
v -0.7616471 0.6622391 0.023166984
v 1.4107559 -0.23556112 0.023163753
v 1.2543583 -0.65623903 0.023162372
v 1.4107559 -0.65623903 0.023162354
v -1.1983014 0.6622391 0.023167044
v -1.4107559 0.57927376 0.023166813
v -1.4107559 0.09077935 0.02316521
v -1.1983014 0.6622391 0.023167044
v -1.4107559 0.6622391 0.023167087
v -1.4107559 0.57927376 0.023166813
v -1.0730162 0.6622391 0.02316702
v -1.4107559 -0.18907347 0.02316429
v -1.0874513 -0.656239 0.023162689
v -1.0730162 0.6622391 0.02316702
v -1.0874513 -0.656239 0.023162689
v -0.50775397 -0.656239 0.023162574
v -1.4107559 -0.18907347 0.02316429
v -1.4107559 -0.65623903 0.023162754
v -1.0874513 -0.65623903 0.023162689
v -1.0730162 0.6622391 0.02316702
v -1.1983014 0.6622391 0.023167044
v -1.4107559 0.09077931 0.02316521
v -1.0730162 0.6622391 0.02316702
v -1.4107559 0.09077931 0.02316521
v -1.4107559 -0.18907347 0.02316429
vt 0.009399414 0.33935547
vt 0.093444824 0.32104492
vt 0.05105591 0.20422363
vt 0.009399414 0.33935547
vt 0.05105591 0.20422363
vt 0.009399414 0.20422363
vt 0.093444824 0.32104492
vt 0.009399414 0.33935547
vt 0.05709839 0.33935547
vt 0.093444824 0.32104492
vt 0.05709839 0.33935547
vt 0.10015869 0.33935547
vt 0.093444824 0.32104492
vt 0.10015869 0.33935547
vt 0.25439453 0.24377441
vt 0.093444824 0.32104492
vt 0.25439453 0.24377441
vt 0.25439453 0.23950195
vt 0.10015869 0.33935547
vt 0.25439453 0.33935547
vt 0.25439453 0.24377441
vt 0.093444824 0.32104492
vt 0.25439453 0.23950195
vt 0.2088623 0.20422363
vt 0.093444824 0.32104492
vt 0.2088623 0.20422363
vt 0.057250977 0.20422363
vt 0.25439453 0.23950195
vt 0.25439453 0.20422363
vt 0.2088623 0.20422363
vt 0.093444824 0.32104492
vt 0.057250977 0.20422363
vt 0.05105591 0.20422363
vt 0.009399414 0.24731445
vt 0.19812012 0.33935547
vt 0.15905762 0.20422363
vt 0.009399414 0.24731445
vt 0.15905762 0.20422363
vt 0.022979736 0.20422363
vt 0.19812012 0.33935547
vt 0.22509766 0.33935547
vt 0.17602539 0.20422363
vt 0.19812012 0.33935547
vt 0.17602539 0.20422363
vt 0.15905762 0.20422363
vt 0.009399414 0.24731445
vt 0.009399414 0.33935547
vt 0.19812012 0.33935547
vt 0.009399414 0.24731445
vt 0.022979736 0.20422363
vt 0.009399414 0.20422363
vt 0.23596191 0.33935547
vt 0.25439453 0.33081055
vt 0.25439453 0.28076172
vt 0.23596191 0.33935547
vt 0.25439453 0.33935547
vt 0.25439453 0.33081055
vt 0.22509766 0.33935547
vt 0.25439453 0.25219727
vt 0.22631836 0.20422363
vt 0.22509766 0.33935547
vt 0.22631836 0.20422363
vt 0.17602539 0.20422363
vt 0.25439453 0.25219727
vt 0.25439453 0.20422363
vt 0.22631836 0.20422363
vt 0.22509766 0.33935547
vt 0.23596191 0.33935547
vt 0.25439453 0.28076172
vt 0.22509766 0.33935547
vt 0.25439453 0.28076172
vt 0.25439453 0.25219727
vn -5.9604645E-08 3.1590462E-06 -1
vn -5.9604645E-08 3.1590462E-06 -1
vn -5.9604645E-08 3.1590462E-06 -1
vn -5.9604645E-08 3.1590462E-06 -1
vn -5.9604645E-08 3.1590462E-06 -1
vn -5.9604645E-08 3.1590462E-06 -1
vn -5.9604645E-08 3.1590462E-06 -1
vn -5.9604645E-08 3.1590462E-06 -1
vn -5.9604645E-08 3.1590462E-06 -1
vn -5.9604645E-08 3.1590462E-06 -1
vn -5.9604645E-08 3.1590462E-06 -1
vn -5.9604645E-08 3.1590462E-06 -1
vn -5.9604645E-08 3.1590462E-06 -1
vn -5.9604645E-08 3.1590462E-06 -1
vn -5.9604645E-08 3.1590462E-06 -1
vn -5.9604645E-08 3.1590462E-06 -1
vn -5.9604645E-08 3.1590462E-06 -1
vn -5.9604645E-08 3.1590462E-06 -1
vn -5.9604645E-08 3.1590462E-06 -1
vn -5.9604645E-08 3.1590462E-06 -1
vn -5.9604645E-08 3.1590462E-06 -1
vn -5.9604645E-08 3.1590462E-06 -1
vn -5.9604645E-08 3.1590462E-06 -1
vn -5.9604645E-08 3.1590462E-06 -1
vn -5.9604645E-08 3.1590462E-06 -1
vn -5.9604645E-08 3.1590462E-06 -1
vn -5.9604645E-08 3.1590462E-06 -1
vn -5.9604645E-08 3.1590462E-06 -1
vn -5.9604645E-08 3.1590462E-06 -1
vn -5.9604645E-08 3.1590462E-06 -1
vn -5.9604645E-08 3.1590462E-06 -1
vn -5.9604645E-08 3.1590462E-06 -1
vn -5.9604645E-08 3.1590462E-06 -1
vn -1.7881393E-07 3.33786E-06 -1
vn -1.7881393E-07 3.33786E-06 -1
vn -1.7881393E-07 3.33786E-06 -1
vn -1.7881393E-07 3.33786E-06 -1
vn -1.7881393E-07 3.33786E-06 -1
vn -1.7881393E-07 3.33786E-06 -1
vn -1.7881393E-07 3.33786E-06 -1
vn -1.7881393E-07 3.33786E-06 -1
vn -1.7881393E-07 3.33786E-06 -1
vn -1.7881393E-07 3.33786E-06 -1
vn -1.7881393E-07 3.33786E-06 -1
vn -1.7881393E-07 3.33786E-06 -1
vn -1.7881393E-07 3.33786E-06 -1
vn -1.7881393E-07 3.33786E-06 -1
vn -1.7881393E-07 3.33786E-06 -1
vn -1.7881393E-07 3.33786E-06 -1
vn -1.7881393E-07 3.33786E-06 -1
vn -1.7881393E-07 3.33786E-06 -1
vn -1.7881393E-07 3.33786E-06 -1
vn -1.7881393E-07 3.33786E-06 -1
vn -1.7881393E-07 3.33786E-06 -1
vn -1.7881393E-07 3.33786E-06 -1
vn -1.7881393E-07 3.33786E-06 -1
vn -1.7881393E-07 3.33786E-06 -1
vn -1.7881393E-07 3.33786E-06 -1
vn -1.7881393E-07 3.33786E-06 -1
vn -1.7881393E-07 3.33786E-06 -1
vn -1.7881393E-07 3.33786E-06 -1
vn -1.7881393E-07 3.33786E-06 -1
vn -1.7881393E-07 3.33786E-06 -1
vn -1.7881393E-07 3.33786E-06 -1
vn -1.7881393E-07 3.33786E-06 -1
vn -1.7881393E-07 3.33786E-06 -1
vn -1.7881393E-07 3.33786E-06 -1
vn -1.7881393E-07 3.33786E-06 -1
vn -1.7881393E-07 3.33786E-06 -1
vn -1.7881393E-07 3.33786E-06 -1
vn -1.7881393E-07 3.33786E-06 -1
vn -1.7881393E-07 3.33786E-06 -1
g DecalMesh_MetroArea_Decal_Graffiti_23__45_0
f 3/3/3 2/2/2 1/1/1
f 6/6/6 5/5/5 4/4/4
f 9/9/9 8/8/8 7/7/7
f 12/12/12 11/11/11 10/10/10
f 15/15/15 14/14/14 13/13/13
f 18/18/18 17/17/17 16/16/16
f 21/21/21 20/20/20 19/19/19
f 24/24/24 23/23/23 22/22/22
f 27/27/27 26/26/26 25/25/25
f 30/30/30 29/29/29 28/28/28
f 33/33/33 32/32/32 31/31/31
f 36/36/36 35/35/35 34/34/34
f 39/39/39 38/38/38 37/37/37
f 42/42/42 41/41/41 40/40/40
f 45/45/45 44/44/44 43/43/43
f 48/48/48 47/47/47 46/46/46
f 51/51/51 50/50/50 49/49/49
f 54/54/54 53/53/53 52/52/52
f 57/57/57 56/56/56 55/55/55
f 60/60/60 59/59/59 58/58/58
f 63/63/63 62/62/62 61/61/61
f 66/66/66 65/65/65 64/64/64
f 69/69/69 68/68/68 67/67/67
f 72/72/72 71/71/71 70/70/70
