g DecalMesh_Common_Decal_Crack_06__85
v 5.9999948 1.5029956 -0.32706344
v -5.9999995 1.5029967 -0.32706344
v -5.7390904 -1.4969964 -0.32706425
v 5.9999948 1.5029956 -0.32706344
v -5.7390904 -1.4969964 -0.32706425
v 5.999995 -1.4969975 -0.32706425
v -5.9999995 1.5029967 -0.32706344
v -5.9999995 -1.497 -0.32706425
v -5.7390904 -1.497 -0.32706425
v 6.0000005 1.5030001 -0.444427
v 5.4106946 1.5030001 -0.44476202
v 5.6236715 -1.4969997 -0.44447634
v 6.0000005 1.5030001 -0.444427
v 5.6236715 -1.4969997 -0.44447634
v 6.0000005 -1.4969997 -0.44426242
v 5.1090927 1.503 -0.44493324
v 3.1606984 1.5029998 -0.44603935
v 3.7264132 -1.4969997 -0.44555342
v 5.1090927 1.503 -0.44493324
v 3.7264132 -1.4969997 -0.44555342
v 5.286601 -1.4970005 -0.4446677
v 5.4106946 1.5030009 -0.44476202
v 5.5281105 -1.497 -0.44453058
v 5.6236715 -1.497 -0.44447634
v 5.4106946 1.5030009 -0.44476202
v 5.1090927 1.503 -0.44493324
v 5.286601 -1.4970005 -0.4446677
v 5.4106946 1.5030009 -0.44476202
v 5.286601 -1.4970005 -0.4446677
v 5.5281105 -1.4969997 -0.44453058
v 3.0095253 1.5030005 -0.4461252
v 1.3918219 1.5029999 -0.44704422
v 2.2348485 -1.4970005 -0.44640076
v 3.0095253 1.5030005 -0.4461252
v 2.2348485 -1.4970005 -0.44640076
v 3.556607 -1.497 -0.44564986
v 3.1606982 1.503001 -0.44603935
v 3.680124 -1.4970001 -0.4455797
v 3.7264132 -1.4969999 -0.44555342
v 3.1606982 1.503001 -0.44603935
v 3.0095255 1.5029993 -0.4461252
v 3.556607 -1.497 -0.44564986
v 3.1606982 1.503001 -0.44603935
v 3.556607 -1.497 -0.44564986
v 3.680124 -1.4969996 -0.4455797
v 1.2838881 1.5030005 -0.4471055
v -0.34271318 1.5029994 -0.44802883
v 0.77224076 -1.4969999 -0.447231
v 1.2838881 1.5030005 -0.4471055
v 0.77224076 -1.4969999 -0.447231
v 2.1129103 -1.497 -0.44647
v 1.3918219 1.5029999 -0.44704422
v 2.2018707 -1.497 -0.44641948
v 2.2348483 -1.497 -0.44640076
v 1.3918219 1.5029999 -0.44704422
v 1.2838885 1.5029993 -0.4471055
v 2.1129103 -1.497 -0.44647
v 1.3918219 1.5029999 -0.44704422
v 2.1129103 -1.497 -0.44647
v 2.201871 -1.4970005 -0.44641948
v -0.43219963 1.5029992 -0.44807968
v -2.2389631 1.5029993 -0.44910613
v -0.82672906 -1.4969997 -0.4481394
v -0.43219963 1.5029992 -0.44807968
v -0.82672906 -1.4969997 -0.4481394
v 0.6703386 -1.4969999 -0.4472889
v -0.34271276 1.5029982 -0.44802883
v 0.7444863 -1.4969999 -0.44724676
v 0.7722408 -1.4970001 -0.447231
v -0.34271276 1.5029982 -0.44802883
v -0.43219918 1.502998 -0.44807968
v 0.6703386 -1.4969999 -0.4472889
v -0.34271276 1.5029982 -0.44802883
v 0.6703386 -1.4969999 -0.4472889
v 0.7444862 -1.4969996 -0.44724676
v -2.3358111 1.502999 -0.4491611
v -5.0137367 1.5030003 -0.45068175
v -3.1664934 -1.4969999 -0.44946802
v -2.3358111 1.502999 -0.4491611
v -3.1664934 -1.4969999 -0.44946802
v -0.93771476 -1.4969999 -0.44820243
v -2.2389627 1.5029981 -0.44910613
v -0.8571101 -1.497 -0.44815665
v -0.826729 -1.497 -0.4481394
v -2.2389627 1.5029981 -0.44910613
v -2.3358111 1.502999 -0.4491611
v -0.93771476 -1.4969999 -0.44820243
v -2.2389627 1.5029981 -0.44910613
v -0.93771476 -1.4969999 -0.44820243
v -0.8571103 -1.4969995 -0.44815665
v -5.1183996 1.5029995 -0.45074126
v -6 1.5029995 -0.4512424
v -4.0249085 -1.4969996 -0.44995597
v -5.1183996 1.5029995 -0.45074126
v -4.0249085 -1.4969996 -0.44995597
v -3.2884116 -1.4969996 -0.44953734
v -6 1.5029995 -0.4512424
v -6 -1.497 -0.4510787
v -4.024908 -1.4969999 -0.44995597
v -5.0137367 1.5030003 -0.45068175
v -3.2009745 -1.4970001 -0.44948763
v -3.1664934 -1.4970001 -0.44946802
v -5.0137367 1.5030003 -0.45068175
v -5.1183996 1.5029995 -0.45074126
v -3.2884116 -1.4969996 -0.44953734
v -5.0137367 1.5030003 -0.45068175
v -3.2884116 -1.4969996 -0.44953734
v -3.2009745 -1.4970001 -0.44948763
vt 1.0068359 -0.023803711
vt 1.9023438 -0.023803711
vt 1.8828125 -0.24511719
vt 1.0068359 -0.023803711
vt 1.8828125 -0.24511719
vt 1.0068359 -0.24511719
vt 1.9023438 -0.023803711
vt 1.9023438 -0.24511719
vt 1.8828125 -0.24511719
vt 1.0068359 -0.023803711
vt 1.0507812 -0.023803711
vt 1.0351562 -0.24511719
vt 1.0068359 -0.023803711
vt 1.0351562 -0.24511719
vt 1.0068359 -0.24511719
vt 1.0732422 -0.023803711
vt 1.21875 -0.023803711
vt 1.1767578 -0.24511719
vt 1.0732422 -0.023803711
vt 1.1767578 -0.24511719
vt 1.0605469 -0.24511719
vt 1.0507812 -0.023803711
vt 1.0419922 -0.24511719
vt 1.0351562 -0.24511719
vt 1.0507812 -0.023803711
vt 1.0732422 -0.023803711
vt 1.0605469 -0.24511719
vt 1.0507812 -0.023803711
vt 1.0605469 -0.24511719
vt 1.0419922 -0.24511719
vt 1.2304688 -0.023803711
vt 1.3505859 -0.023803711
vt 1.2880859 -0.24511719
vt 1.2304688 -0.023803711
vt 1.2880859 -0.24511719
vt 1.1894531 -0.24511719
vt 1.21875 -0.023803711
vt 1.1806641 -0.24511719
vt 1.1767578 -0.24511719
vt 1.21875 -0.023803711
vt 1.2304688 -0.023803711
vt 1.1894531 -0.24511719
vt 1.21875 -0.023803711
vt 1.1894531 -0.24511719
vt 1.1806641 -0.24511719
vt 1.359375 -0.023803711
vt 1.4804688 -0.023803711
vt 1.3974609 -0.24511719
vt 1.359375 -0.023803711
vt 1.3974609 -0.24511719
vt 1.296875 -0.24511719
vt 1.3505859 -0.023803711
vt 1.2900391 -0.24511719
vt 1.2880859 -0.24511719
vt 1.3505859 -0.023803711
vt 1.359375 -0.023803711
vt 1.296875 -0.24511719
vt 1.3505859 -0.023803711
vt 1.296875 -0.24511719
vt 1.2900391 -0.24511719
vt 1.4873047 -0.023803711
vt 1.6210938 -0.023803711
vt 1.5166016 -0.24511719
vt 1.4873047 -0.023803711
vt 1.5166016 -0.24511719
vt 1.4042969 -0.24511719
vt 1.4804688 -0.023803711
vt 1.3994141 -0.24511719
vt 1.3974609 -0.24511719
vt 1.4804688 -0.023803711
vt 1.4873047 -0.023803711
vt 1.4042969 -0.24511719
vt 1.4804688 -0.023803711
vt 1.4042969 -0.24511719
vt 1.3994141 -0.24511719
vt 1.6289062 -0.023803711
vt 1.828125 -0.023803711
vt 1.6904297 -0.24511719
vt 1.6289062 -0.023803711
vt 1.6904297 -0.24511719
vt 1.5244141 -0.24511719
vt 1.6210938 -0.023803711
vt 1.5185547 -0.24511719
vt 1.5166016 -0.24511719
vt 1.6210938 -0.023803711
vt 1.6289062 -0.023803711
vt 1.5244141 -0.24511719
vt 1.6210938 -0.023803711
vt 1.5244141 -0.24511719
vt 1.5185547 -0.24511719
vt 1.8359375 -0.023803711
vt 1.9023438 -0.023803711
vt 1.7548828 -0.24511719
vt 1.8359375 -0.023803711
vt 1.7548828 -0.24511719
vt 1.7001953 -0.24511719
vt 1.9023438 -0.023803711
vt 1.9023438 -0.24511719
vt 1.7548828 -0.24511719
vt 1.828125 -0.023803711
vt 1.6933594 -0.24511719
vt 1.6904297 -0.24511719
vt 1.828125 -0.023803711
vt 1.8359375 -0.023803711
vt 1.7001953 -0.24511719
vt 1.828125 -0.023803711
vt 1.7001953 -0.24511719
vt 1.6933594 -0.24511719
vn 1.9669533E-05 -0.0004491806 -1
vn 1.6510487E-05 -0.0003774166 -1
vn 1.6450882E-05 -0.00037527084 -1
vn 1.9669533E-05 -0.0004491806 -1
vn 1.6450882E-05 -0.00037527084 -1
vn 1.9490719E-05 -0.0004453659 -1
vn 1.6510487E-05 -0.0003774166 -1
vn 1.6391277E-05 -0.0003736019 -1
vn 1.6450882E-05 -0.00037527084 -1
vn 0.0030498505 -0.019546509 -0.9995117
vn 0.0044898987 -0.018707275 -0.9995117
vn 0.003873825 -0.015777588 -0.9995117
vn 0.0030498505 -0.019546509 -0.9995117
vn 0.003873825 -0.015777588 -0.9995117
vn 0.002954483 -0.016326904 -0.9995117
vn 0.0048217773 -0.01889038 -0.9995117
vn 0.006965637 -0.020126343 -0.9995117
vn 0.005962372 -0.016983032 -0.9995117
vn 0.0048217773 -0.01889038 -0.9995117
vn 0.005962372 -0.016983032 -0.9995117
vn 0.004245758 -0.015991211 -0.9995117
vn 0.0044898987 -0.018707275 -0.9995117
vn 0.0039787292 -0.015838623 -0.9995117
vn 0.003873825 -0.015777588 -0.9995117
vn 0.0044898987 -0.018707275 -0.9995117
vn 0.0048217773 -0.01889038 -0.9995117
vn 0.004245758 -0.015991211 -0.9995117
vn 0.0044898987 -0.018707275 -0.9995117
vn 0.004245758 -0.015991211 -0.9995117
vn 0.0039787292 -0.015838623 -0.9995117
vn 0.007106781 -0.020217896 -0.9995117
vn 0.008651733 -0.021133423 -0.9995117
vn 0.007385254 -0.017822266 -0.9995117
vn 0.007106781 -0.020217896 -0.9995117
vn 0.007385254 -0.017822266 -0.9995117
vn 0.006122589 -0.017074585 -0.9995117
vn 0.006965637 -0.020126343 -0.9995117
vn 0.0060043335 -0.01701355 -0.9995117
vn 0.005962372 -0.016983032 -0.9995117
vn 0.006965637 -0.020126343 -0.9995117
vn 0.007106781 -0.020217896 -0.9995117
vn 0.006122589 -0.017074585 -0.9995117
vn 0.006965637 -0.020126343 -0.9995117
vn 0.006122589 -0.017074585 -0.9995117
vn 0.0060043335 -0.01701355 -0.9995117
vn 0.008460999 -0.020904541 -0.9995117
vn 0.0055618286 -0.017593384 -0.9995117
vn 0.0047798157 -0.014839172 -0.9995117
vn 0.008460999 -0.020904541 -0.9995117
vn 0.0047798157 -0.014839172 -0.9995117
vn 0.007167816 -0.017578125 -0.9995117
vn 0.008651733 -0.021133423 -0.9995117
vn 0.0073242188 -0.01776123 -0.9995117
vn 0.007385254 -0.017822266 -0.9995117
vn 0.008651733 -0.021133423 -0.9995117
vn 0.008460999 -0.020904541 -0.9995117
vn 0.007167816 -0.017578125 -0.9995117
vn 0.008651733 -0.021133423 -0.9995117
vn 0.007167816 -0.017578125 -0.9995117
vn 0.0073242188 -0.01776123 -0.9995117
vn 0.005645752 -0.017578125 -0.9995117
vn 0.007335663 -0.017456055 -0.9995117
vn 0.006275177 -0.014724731 -0.9995117
vn 0.005645752 -0.017578125 -0.9995117
vn 0.006275177 -0.014724731 -0.9995117
vn 0.004875183 -0.014831543 -0.9995117
vn 0.0055618286 -0.017593384 -0.9995117
vn 0.004802704 -0.014839172 -0.9995117
vn 0.0047798157 -0.014839172 -0.9995117
vn 0.0055618286 -0.017593384 -0.9995117
vn 0.005645752 -0.017578125 -0.9995117
vn 0.004875183 -0.014831543 -0.9995117
vn 0.0055618286 -0.017593384 -0.9995117
vn 0.004875183 -0.014831543 -0.9995117
vn 0.004802704 -0.014839172 -0.9995117
vn 0.0076141357 -0.017440796 -0.9995117
vn 0.015304565 -0.017242432 -0.9995117
vn 0.012992859 -0.014556885 -0.9995117
vn 0.0076141357 -0.017440796 -0.9995117
vn 0.012992859 -0.014556885 -0.9995117
vn 0.006591797 -0.014717102 -0.9995117
vn 0.007335663 -0.017456055 -0.9995117
vn 0.006362915 -0.014724731 -0.9995117
vn 0.006275177 -0.014724731 -0.9995117
vn 0.007335663 -0.017456055 -0.9995117
vn 0.0076141357 -0.017440796 -0.9995117
vn 0.006591797 -0.014717102 -0.9995117
vn 0.007335663 -0.017456055 -0.9995117
vn 0.006591797 -0.014717102 -0.9995117
vn 0.006362915 -0.014724731 -0.9995117
vn 0.015312195 -0.017181396 -0.9995117
vn 0.015380859 -0.016677856 -0.9995117
vn 0.013061523 -0.014060974 -0.9995117
vn 0.015312195 -0.017181396 -0.9995117
vn 0.013061523 -0.014060974 -0.9995117
vn 0.013000488 -0.014480591 -0.9995117
vn 0.015380859 -0.016677856 -0.9995117
vn 0.013214111 -0.012924194 -0.9995117
vn 0.013061523 -0.014060974 -0.9995117
vn 0.015304565 -0.017242432 -0.9995117
vn 0.013000488 -0.014533997 -0.9995117
vn 0.012992859 -0.014556885 -0.9995117
vn 0.015304565 -0.017242432 -0.9995117
vn 0.015312195 -0.017181396 -0.9995117
vn 0.013000488 -0.014480591 -0.9995117
vn 0.015304565 -0.017242432 -0.9995117
vn 0.013000488 -0.014480591 -0.9995117
vn 0.013000488 -0.014533997 -0.9995117
g DecalMesh_Common_Decal_Crack_06__85_0
f 3/3/3 2/2/2 1/1/1
f 6/6/6 5/5/5 4/4/4
f 9/9/9 8/8/8 7/7/7
f 12/12/12 11/11/11 10/10/10
f 15/15/15 14/14/14 13/13/13
f 18/18/18 17/17/17 16/16/16
f 21/21/21 20/20/20 19/19/19
f 24/24/24 23/23/23 22/22/22
f 27/27/27 26/26/26 25/25/25
f 30/30/30 29/29/29 28/28/28
f 33/33/33 32/32/32 31/31/31
f 36/36/36 35/35/35 34/34/34
f 39/39/39 38/38/38 37/37/37
f 42/42/42 41/41/41 40/40/40
f 45/45/45 44/44/44 43/43/43
f 48/48/48 47/47/47 46/46/46
f 51/51/51 50/50/50 49/49/49
f 54/54/54 53/53/53 52/52/52
f 57/57/57 56/56/56 55/55/55
f 60/60/60 59/59/59 58/58/58
f 63/63/63 62/62/62 61/61/61
f 66/66/66 65/65/65 64/64/64
f 69/69/69 68/68/68 67/67/67
f 72/72/72 71/71/71 70/70/70
f 75/75/75 74/74/74 73/73/73
f 78/78/78 77/77/77 76/76/76
f 81/81/81 80/80/80 79/79/79
f 84/84/84 83/83/83 82/82/82
f 87/87/87 86/86/86 85/85/85
f 90/90/90 89/89/89 88/88/88
f 93/93/93 92/92/92 91/91/91
f 96/96/96 95/95/95 94/94/94
f 99/99/99 98/98/98 97/97/97
f 102/102/102 101/101/101 100/100/100
f 105/105/105 104/104/104 103/103/103
f 108/108/108 107/107/107 106/106/106
