g DecalMesh_MetroArea_Decal_Ground_07__41
v 0.24999985 1.9411049 -0.09051347
v -0.2500001 1.9411049 -0.09051347
v -0.22270998 1.9411049 -0.093772784
v 0.24999985 1.9411049 -0.09051347
v -0.22270998 1.9411049 -0.093772784
v 0.24999985 1.9411049 -0.093772784
v -0.2500001 1.9411049 -0.09051347
v -0.2500001 1.9411049 -0.093772784
v -0.22270998 1.9411049 -0.093772784
v 0.020240784 -1.5104313 -0.087827444
v 0.025959015 -1.5153255 -0.08541274
v 0.02022717 -1.5084645 -0.093772784
v 0.020240784 -1.5104313 -0.087827444
v 0.02022717 -1.5084645 -0.093772784
v 0.01949879 -1.5079423 -0.093772784
v 0.025959015 -1.5153255 -0.08541274
v 0.05909729 -1.5390644 -0.08541274
v 0.024683103 -1.5116565 -0.093772784
v 0.025959015 -1.5153255 -0.08541274
v 0.024683103 -1.5116565 -0.093772784
v 0.02022717 -1.5084645 -0.093772784
v 0.05909729 -1.5390644 -0.08541274
v 0.06207346 -1.538441 -0.09377278
v 0.024683105 -1.5116565 -0.093772784
v 0.025959015 -1.5153255 -0.08541274
v 0.05909729 -1.5390644 -0.08541274
v 0.024683103 -1.5116565 -0.093772784
v 0.025959015 -1.5153255 -0.08541274
v 0.024683103 -1.5116565 -0.093772784
v 0.02022717 -1.5084645 -0.093772784
v 0.05909729 -1.5390644 -0.08541274
v 0.062314283 -1.5386132 -0.09377278
v 0.024683105 -1.5116565 -0.093772784
v 0.018585205 -1.5084496 -0.09024215
v 0.05909729 -1.5390644 -0.08541274
v 0.062314283 -1.5386132 -0.09377278
v 0.018585205 -1.5084496 -0.09024215
v 0.062314283 -1.5386132 -0.09377278
v 0.021269757 -1.5092089 -0.093772784
v 0.018585205 -1.5084496 -0.09024215
v 0.021269757 -1.5092089 -0.093772784
v 0.019347986 -1.5078964 -0.093772784
v 0.018585205 -1.5084496 -0.09024215
v 0.019347986 -1.5078964 -0.093772784
v 0.019136094 -1.5076805 -0.093772784
v 0.24999988 1.9506614 -0.08477239
v -0.2500001 1.6362162 -0.084772356
v 0.19165292 -1.9506614 -0.08477193
v 0.24999988 1.9506614 -0.08477239
v 0.19165292 -1.9506614 -0.08477193
v 0.24999988 -1.9506614 -0.08477193
v -0.2500001 1.6362162 -0.084772356
v -0.2500001 -1.9506614 -0.08477193
v 0.19165292 -1.9506614 -0.08477193
v 0.24999988 1.9506614 -0.08477239
v -0.25 1.9506614 -0.08477239
v -0.24999999 1.6362163 -0.084772356
v 0.013618469 -1.9251137 -0.06177306
v 0.013618469 -1.9251137 -0.093772784
v 0.0548411 -1.9471475 -0.093772784
v 0.0614153 -1.9506614 -0.06177306
v 0.013618469 -1.9251137 -0.06177306
v 0.0548411 -1.9471475 -0.093772784
v 0.0614153 -1.9506614 -0.06177306
v 0.0548411 -1.9471475 -0.093772784
v 0.0614153 -1.9506614 -0.093772784
v 0.013618469 -1.9251137 -0.06177306
v -0.015154012 -1.9163853 -0.093772784
v 0.013618469 -1.9251137 -0.093772784
v 0.013618469 -1.9251137 -0.06177306
v -0.07160187 -1.8992615 -0.06177306
v -0.07160187 -1.8992615 -0.093772784
v 0.013618469 -1.9251137 -0.06177306
v -0.07160187 -1.8992615 -0.093772784
v -0.015154009 -1.9163853 -0.093772784
v -0.07160187 -1.8992615 -0.06177306
v -0.101076275 -1.8963256 -0.093772784
v -0.07160187 -1.8992615 -0.093772784
v -0.07160187 -1.8992615 -0.06177306
v -0.15890121 -1.8905659 -0.06177306
v -0.15890121 -1.8905659 -0.093772784
v -0.07160187 -1.8992615 -0.06177306
v -0.15890121 -1.8905659 -0.093772784
v -0.10107627 -1.8963256 -0.093772784
v -0.15890121 -1.8905659 -0.06177306
v -0.25 -1.8905659 -0.06703081
v -0.22278678 -1.8905659 -0.093772784
v -0.15890121 -1.8905659 -0.06177306
v -0.22278678 -1.8905659 -0.093772784
v -0.15890121 -1.8905659 -0.093772784
v -0.25 -1.8905659 -0.06703081
v -0.25 -1.8905659 -0.093772784
v -0.22278678 -1.8905659 -0.093772784
v -0.15890121 -1.8905659 -0.06177306
v -0.25 -1.8905659 -0.06177306
v -0.25 -1.8905659 -0.06703081
vt 0.44995117 0.72558594
vt 0.48706055 0.72558594
vt 0.48486328 0.72558594
vt 0.44995117 0.72558594
vt 0.48486328 0.72558594
vt 0.44995117 0.72558594
vt 0.48706055 0.72558594
vt 0.48706055 0.72558594
vt 0.48486328 0.72558594
vt 0.46704102 0.54052734
vt 0.46655273 0.54003906
vt 0.46704102 0.54052734
vt 0.46704102 0.54052734
vt 0.46704102 0.54052734
vt 0.46704102 0.54052734
vt 0.46655273 0.54003906
vt 0.46411133 0.5390625
vt 0.46655273 0.54052734
vt 0.46655273 0.54003906
vt 0.46655273 0.54052734
vt 0.46704102 0.54052734
vt 0.46411133 0.5390625
vt 0.4638672 0.5390625
vt 0.46655273 0.54052734
vt 0.46655273 0.54003906
vt 0.46411133 0.5390625
vt 0.46655273 0.54052734
vt 0.46655273 0.54003906
vt 0.46655273 0.54052734
vt 0.46704102 0.54052734
vt 0.46411133 0.5390625
vt 0.4638672 0.5390625
vt 0.46655273 0.54052734
vt 0.46704102 0.54052734
vt 0.46411133 0.5390625
vt 0.4638672 0.5390625
vt 0.46704102 0.54052734
vt 0.4638672 0.5390625
vt 0.46679688 0.54052734
vt 0.46704102 0.54052734
vt 0.46679688 0.54052734
vt 0.46704102 0.54052734
vt 0.46704102 0.54052734
vt 0.46704102 0.54052734
vt 0.46704102 0.54052734
vt 0.44995117 0.7260742
vt 0.48706055 0.7089844
vt 0.4543457 0.51708984
vt 0.44995117 0.7260742
vt 0.4543457 0.51708984
vt 0.44995117 0.51708984
vt 0.48706055 0.7089844
vt 0.48706055 0.51708984
vt 0.4543457 0.51708984
vt 0.44995117 0.7260742
vt 0.48706055 0.7260742
vt 0.48706055 0.7089844
vt 0.4675293 0.5180664
vt 0.4675293 0.5180664
vt 0.46435547 0.51708984
vt 0.4638672 0.51708984
vt 0.4675293 0.5180664
vt 0.46435547 0.51708984
vt 0.4638672 0.51708984
vt 0.46435547 0.51708984
vt 0.4638672 0.51708984
vt 0.4675293 0.5180664
vt 0.46948242 0.5185547
vt 0.4675293 0.5180664
vt 0.4675293 0.5180664
vt 0.47387695 0.51953125
vt 0.47387695 0.51953125
vt 0.4675293 0.5180664
vt 0.47387695 0.51953125
vt 0.46948242 0.5185547
vt 0.47387695 0.51953125
vt 0.47607422 0.52001953
vt 0.47387695 0.51953125
vt 0.47387695 0.51953125
vt 0.4802246 0.52001953
vt 0.4802246 0.52001953
vt 0.47387695 0.51953125
vt 0.4802246 0.52001953
vt 0.47607422 0.52001953
vt 0.4802246 0.52001953
vt 0.48706055 0.52001953
vt 0.48486328 0.52001953
vt 0.4802246 0.52001953
vt 0.48486328 0.52001953
vt 0.4802246 0.52001953
vt 0.48706055 0.52001953
vt 0.48706055 0.52001953
vt 0.48486328 0.52001953
vt 0.4802246 0.52001953
vt 0.48706055 0.52001953
vt 0.48706055 0.52001953
vn -1.1920929E-07 1 -1.1920929E-07
vn -1.1920929E-07 1 -1.1920929E-07
vn -1.1920929E-07 1 -1.1920929E-07
vn -1.1920929E-07 1 -1.1920929E-07
vn -1.1920929E-07 1 -1.1920929E-07
vn -1.1920929E-07 1 -1.1920929E-07
vn -1.1920929E-07 1 -1.1920929E-07
vn -1.1920929E-07 1 -1.1920929E-07
vn -1.1920929E-07 1 -1.1920929E-07
vn -0.5625 -0.78515625 -0.25878906
vn -0.5625 -0.78515625 -0.25878906
vn -0.5625 -0.78515625 -0.25878906
vn -0.5625 -0.78515625 -0.25878906
vn -0.5625 -0.78515625 -0.25878906
vn -0.5625 -0.78515625 -0.25878906
vn -0.5625 -0.78515625 -0.25878906
vn -0.5625 -0.78515625 -0.25878906
vn -0.5625 -0.78515625 -0.25878906
vn -0.5625 -0.78515625 -0.25878906
vn -0.5625 -0.78515625 -0.25878906
vn -0.5625 -0.78515625 -0.25878906
vn -0.5625 -0.78515625 -0.25878906
vn -0.5625 -0.78515625 -0.25878906
vn -0.5625 -0.78515625 -0.25878906
vn -0.5625 -0.78515625 -0.25878906
vn -0.5625 -0.78515625 -0.25878906
vn -0.5625 -0.78515625 -0.25878906
vn -0.5625 -0.78515625 -0.25878906
vn -0.5625 -0.78515625 -0.25878906
vn -0.5625 -0.78515625 -0.25878906
vn -0.5625 -0.78515625 -0.25878906
vn -0.5625 -0.78515625 -0.25878906
vn -0.5625 -0.78515625 -0.25878906
vn -0.5673828 -0.7832031 -0.2541504
vn -0.5625 -0.78515625 -0.25878906
vn -0.5629883 -0.78515625 -0.25732422
vn -0.5673828 -0.7832031 -0.2541504
vn -0.5629883 -0.78515625 -0.25732422
vn -0.5673828 -0.7832031 -0.2536621
vn -0.5673828 -0.7832031 -0.2541504
vn -0.5673828 -0.7832031 -0.2536621
vn -0.5678711 -0.78271484 -0.2541504
vn -0.5673828 -0.7832031 -0.2541504
vn -0.5678711 -0.78271484 -0.2541504
vn -0.5678711 -0.78271484 -0.2541504
vn -0 -1.1920929E-07 -1
vn -0 -1.1920929E-07 -1
vn -0 -1.1920929E-07 -1
vn -0 -1.1920929E-07 -1
vn -0 -1.1920929E-07 -1
vn -0 -1.1920929E-07 -1
vn -0 -1.1920929E-07 -1
vn -0 -1.1920929E-07 -1
vn -0 -1.1920929E-07 -1
vn -0 -1.1920929E-07 -1
vn -0 -1.1920929E-07 -1
vn -0 -1.1920929E-07 -1
vn 0.38378906 0.92333984 -1.1920929E-07
vn 0.38378906 0.92333984 -1.1920929E-07
vn 0.47509766 0.8745117 -1.1920929E-07
vn 0.4897461 0.8666992 -1.1920929E-07
vn 0.38378906 0.92333984 -1.1920929E-07
vn 0.47509766 0.8745117 -1.1920929E-07
vn 0.4897461 0.8666992 -1.1920929E-07
vn 0.47509766 0.8745117 -1.1920929E-07
vn 0.4897461 0.8666992 -1.1920929E-07
vn 0.38378906 0.92333984 -1.1920929E-07
vn 0.31982422 0.9428711 -1.1920929E-07
vn 0.38378906 0.92333984 -1.1920929E-07
vn 0.38378906 0.92333984 -1.1920929E-07
vn 0.19445801 0.98095703 -1.1920929E-07
vn 0.19445801 0.98095703 -1.1920929E-07
vn 0.38378906 0.92333984 -1.1920929E-07
vn 0.19445801 0.98095703 -1.1920929E-07
vn 0.31982422 0.9428711 -1.1920929E-07
vn 0.19445801 0.98095703 -1.1920929E-07
vn 0.12878418 0.9873047 -1.1920929E-07
vn 0.19445801 0.98095703 -1.1920929E-07
vn 0.19445801 0.98095703 -1.1920929E-07
vn -0 1 -1.1920929E-07
vn -0 1 -1.1920929E-07
vn 0.19445801 0.98095703 -1.1920929E-07
vn -0 1 -1.1920929E-07
vn 0.12878418 0.9873047 -1.1920929E-07
vn -0 1 -1.1920929E-07
vn -0.0001693964 1 -1.1920929E-07
vn -0.00011879206 1 -1.1920929E-07
vn -0 1 -1.1920929E-07
vn -0.00011879206 1 -1.1920929E-07
vn -0 1 -1.1920929E-07
vn -0.0001693964 1 -1.1920929E-07
vn -0.0001693964 1 -1.1920929E-07
vn -0.00011879206 1 -1.1920929E-07
vn -0 1 -1.1920929E-07
vn -0.0001693964 1 -1.1920929E-07
vn -0.0001693964 1 -1.1920929E-07
g DecalMesh_MetroArea_Decal_Ground_07__41_0
f 3/3/3 2/2/2 1/1/1
f 6/6/6 5/5/5 4/4/4
f 9/9/9 8/8/8 7/7/7
f 12/12/12 11/11/11 10/10/10
f 15/15/15 14/14/14 13/13/13
f 18/18/18 17/17/17 16/16/16
f 21/21/21 20/20/20 19/19/19
f 24/24/24 23/23/23 22/22/22
f 27/27/27 26/26/26 25/25/25
f 30/30/30 29/29/29 28/28/28
f 33/33/33 32/32/32 31/31/31
f 36/36/36 35/35/35 34/34/34
f 39/39/39 38/38/38 37/37/37
f 42/42/42 41/41/41 40/40/40
f 45/45/45 44/44/44 43/43/43
f 48/48/48 47/47/47 46/46/46
f 51/51/51 50/50/50 49/49/49
f 54/54/54 53/53/53 52/52/52
f 57/57/57 56/56/56 55/55/55
f 60/60/60 59/59/59 58/58/58
f 63/63/63 62/62/62 61/61/61
f 66/66/66 65/65/65 64/64/64
f 69/69/69 68/68/68 67/67/67
f 72/72/72 71/71/71 70/70/70
f 75/75/75 74/74/74 73/73/73
f 78/78/78 77/77/77 76/76/76
f 81/81/81 80/80/80 79/79/79
f 84/84/84 83/83/83 82/82/82
f 87/87/87 86/86/86 85/85/85
f 90/90/90 89/89/89 88/88/88
f 93/93/93 92/92/92 91/91/91
f 96/96/96 95/95/95 94/94/94
