g DecalMesh_MetroArea_Decal_Crack_03__4
v -1.5209184 1.2056997 -0.0012968982
v -2.0341327 -1.1996987 -0.0018519978
v -1.7189848 -1.1996986 -0.0019984678
v -1.5209184 1.2056997 -0.0012968982
v -2.5015535 1.2056981 -0.0008411323
v -2.5015535 -1.1996986 -0.0016347561
v -1.5209184 1.2056997 -0.0012968982
v -2.5015535 -1.1996986 -0.0016347561
v -2.0341327 -1.1996986 -0.0018519977
v 0.14962453 1.2056974 -0.0020733734
v -0.1878698 -1.1996988 -0.002710136
v 0.22130351 -1.1996989 -0.0029003213
v 0.14962453 1.2056974 -0.0020733734
v -1.5209184 1.2056997 -0.0012968982
v -1.7189848 -1.1996989 -0.001998468
v 0.14962453 1.2056974 -0.0020733734
v -1.7189848 -1.1996989 -0.001998468
v -0.38585404 -1.1996987 -0.0026181121
v 0.14962453 1.2056974 -0.0020733734
v -0.38585404 -1.1996987 -0.0026181121
v -0.1878698 -1.1996988 -0.002710136
v 0.66842616 1.2056985 -0.0023147
v 0.696965 -1.1996988 -0.003121581
v 0.823877 -1.1996989 -0.0031806156
v 0.66842616 1.2056985 -0.0023147
v 0.14962453 1.2056974 -0.0020733734
v 0.22130351 -1.1996984 -0.002900321
v 0.66842616 1.2056985 -0.0023147
v 0.22130351 -1.1996984 -0.002900321
v 0.696965 -1.1996993 -0.0031215812
v 2.5015538 0.7526834 -0.0033168644
v 2.4190402 1.205699 -0.00312902
v 2.4260373 -1.1996993 -0.003925881
v 2.5015538 0.7526834 -0.0033168644
v 2.4260373 -1.1996993 -0.003925881
v 2.5015538 -1.1996984 -0.003961008
v 2.4190402 1.205699 -0.00312902
v 0.66842616 1.2056985 -0.0023147
v 0.8238769 -1.1996981 -0.0031806154
v 2.4190402 1.205699 -0.00312902
v 0.8238769 -1.1996981 -0.0031806154
v 2.4260373 -1.1996993 -0.003925881
v 2.5015538 0.7526834 -0.0033168644
v 2.5015538 1.2056987 -0.003167376
v 2.4190404 1.2056987 -0.00312902
vt 0.45141602 0.7373047
vt 0.4645996 0.5283203
vt 0.45654297 0.5283203
vt 0.45141602 0.7373047
vt 0.47680664 0.7373047
vt 0.47680664 0.5283203
vt 0.45141602 0.7373047
vt 0.47680664 0.5283203
vt 0.4645996 0.5283203
vt 0.40795898 0.7373047
vt 0.41674805 0.5283203
vt 0.40625 0.5283203
vt 0.40795898 0.7373047
vt 0.45141602 0.7373047
vt 0.45654297 0.5283203
vt 0.40795898 0.7373047
vt 0.45654297 0.5283203
vt 0.421875 0.5283203
vt 0.40795898 0.7373047
vt 0.421875 0.5283203
vt 0.41674805 0.5283203
vt 0.39453125 0.7373047
vt 0.39379883 0.5283203
vt 0.390625 0.5283203
vt 0.39453125 0.7373047
vt 0.40795898 0.7373047
vt 0.40625 0.5283203
vt 0.39453125 0.7373047
vt 0.40625 0.5283203
vt 0.39379883 0.5283203
vt 0.34716797 0.6982422
vt 0.34936523 0.7373047
vt 0.3491211 0.5283203
vt 0.34716797 0.6982422
vt 0.3491211 0.5283203
vt 0.34716797 0.5283203
vt 0.34936523 0.7373047
vt 0.39453125 0.7373047
vt 0.390625 0.5283203
vt 0.34936523 0.7373047
vt 0.390625 0.5283203
vt 0.3491211 0.5283203
vt 0.34716797 0.6982422
vt 0.34716797 0.7373047
vt 0.34936523 0.7373047
vn 0.0015230179 0.013374329 -0.9995117
vn 0.002161026 0.015487671 -0.9995117
vn 0.0018434525 0.0154800415 -0.9995117
vn 0.0015230179 0.013374329 -0.9995117
vn 0.0025100708 0.013412476 -0.9995117
vn 0.0026302338 0.015510559 -0.9995117
vn 0.0015230179 0.013374329 -0.9995117
vn 0.0026302338 0.015510559 -0.9995117
vn 0.002161026 0.015487671 -0.9995117
vn -0.0032482147 0.015090942 -0.9995117
vn -0.0025291443 0.017044067 -0.9995117
vn -0.003698349 0.017471313 -0.9995117
vn -0.0032482147 0.015090942 -0.9995117
vn 0.0015230179 0.013374329 -0.9995117
vn 0.0018434525 0.0154800415 -0.9995117
vn -0.0032482147 0.015090942 -0.9995117
vn 0.0018434525 0.0154800415 -0.9995117
vn -0.001964569 0.016845703 -0.9995117
vn -0.0032482147 0.015090942 -0.9995117
vn -0.001964569 0.016845703 -0.9995117
vn -0.0025291443 0.017044067 -0.9995117
vn -0.0034065247 0.014511108 -0.9995117
vn -0.0038433075 0.016937256 -0.9995117
vn -0.0038833618 0.016799927 -0.9995117
vn -0.0034065247 0.014511108 -0.9995117
vn -0.0032482147 0.015090942 -0.9995117
vn -0.003698349 0.017471313 -0.9995117
vn -0.0034065247 0.014511108 -0.9995117
vn -0.003698349 0.017471313 -0.9995117
vn -0.0038433075 0.016937256 -0.9995117
vn -0.0040512085 0.012924194 -1
vn -0.003944397 0.012550354 -1
vn -0.0043754578 0.015007019 -0.9995117
vn -0.0040512085 0.012924194 -1
vn -0.0043754578 0.015007019 -0.9995117
vn -0.004398346 0.014923096 -0.9995117
vn -0.003944397 0.012550354 -1
vn -0.0034065247 0.014511108 -0.9995117
vn -0.0038833618 0.016799927 -0.9995117
vn -0.003944397 0.012550354 -1
vn -0.0038833618 0.016799927 -0.9995117
vn -0.0043754578 0.015007019 -0.9995117
vn -0.0040512085 0.012924194 -1
vn -0.0039863586 0.012619019 -1
vn -0.003944397 0.012550354 -1
g DecalMesh_MetroArea_Decal_Crack_03__4_0
f 3/3/3 2/2/2 1/1/1
f 6/6/6 5/5/5 4/4/4
f 9/9/9 8/8/8 7/7/7
f 12/12/12 11/11/11 10/10/10
f 15/15/15 14/14/14 13/13/13
f 18/18/18 17/17/17 16/16/16
f 21/21/21 20/20/20 19/19/19
f 24/24/24 23/23/23 22/22/22
f 27/27/27 26/26/26 25/25/25
f 30/30/30 29/29/29 28/28/28
f 33/33/33 32/32/32 31/31/31
f 36/36/36 35/35/35 34/34/34
f 39/39/39 38/38/38 37/37/37
f 42/42/42 41/41/41 40/40/40
f 45/45/45 44/44/44 43/43/43
