g DecalMesh_MetroArea_Decal_Ground_21__41
v -0.9925206 1.003 -0.012935763
v -1 0.9400944 -0.012935817
v 0.794377 -0.997 -0.012937475
v -0.9925206 1.003 -0.012935763
v 0.794377 -0.997 -0.012937475
v 0.8009456 -0.997 -0.012937475
v -1 0.9400944 -0.012935817
v -1 -0.9969999 -0.01293748
v 0.7943771 -0.997 -0.012937475
v -0.9925206 1.003 -0.012935763
v -1 1.003 -0.012935763
v -1 0.9400945 -0.012935817
v 1 -0.9741045 -0.0129374545
v -0.96485335 1.003 -0.012935763
v 0.80370957 -0.997 -0.012937475
v 1 -0.9741045 -0.0129374545
v 0.80370957 -0.997 -0.012937475
v 1 -0.997 -0.012937474
v -0.96485335 1.003 -0.012935763
v -0.9925206 1.003 -0.012935763
v 0.8009456 -0.997 -0.012937475
v -0.96485335 1.003 -0.012935763
v 0.8009456 -0.997 -0.012937475
v 0.80370957 -0.997 -0.012937475
v 1 -0.9741046 -0.0129374545
v 1 1.003 -0.012935758
v -0.9648534 1.003 -0.012935763
v -1 -0.07043304 0.0076484736
v -1 -0.997 0.00764839
v -0.052311033 -0.997 0.00764839
v 0.40825033 1.0029999 0.007648571
v -1 1.0029999 0.007648571
v 0.14945325 -0.997 0.00764839
v 0.40825033 1.0029999 0.007648571
v 0.14945325 -0.997 0.00764839
v 0.4082508 -0.997 0.00764839
v -1 1.0029999 0.007648571
v -0.99999994 -0.07043311 0.0076484736
v -0.052311055 -0.997 0.00764839
v -1 1.0029999 0.007648571
v -0.052311055 -0.997 0.00764839
v 0.14945325 -0.997 0.00764839
v 0.63296944 1.0029999 0.007648571
v 0.449548 -0.9969999 0.00764839
v 0.9325499 -0.9969999 0.00764839
v 0.63296944 1.0029999 0.007648571
v 0.40825033 1.0029999 0.007648571
v 0.4082508 -0.997 0.00764839
v 0.63296944 1.0029999 0.007648571
v 0.4082508 -0.997 0.00764839
v 0.449548 -0.997 0.00764839
v 1 -0.18775135 0.0076484634
v 0.7381521 1.003 0.007648571
v 0.95187956 -0.997 0.00764839
v 1 -0.18775135 0.0076484634
v 0.95187956 -0.997 0.00764839
v 1 -0.997 0.0076483903
v 0.7381521 1.003 0.007648571
v 0.63296944 1.0029999 0.007648571
v 0.9325499 -0.997 0.00764839
v 0.7381521 1.003 0.007648571
v 0.9325499 -0.997 0.00764839
v 0.95187956 -0.997 0.00764839
v 1 -0.18775123 0.0076484634
v 1 1.003 0.007648571
v 0.7381521 1.003 0.007648571
vt 0.5385742 0.39697266
vt 0.5390625 0.39453125
vt 0.46606445 0.31811523
vt 0.5385742 0.39697266
vt 0.46606445 0.31811523
vt 0.4658203 0.31811523
vt 0.5390625 0.39453125
vt 0.5390625 0.31811523
vt 0.46606445 0.31811523
vt 0.5385742 0.39697266
vt 0.5390625 0.39697266
vt 0.5390625 0.39453125
vt 0.45776367 0.3190918
vt 0.53759766 0.39697266
vt 0.4658203 0.31811523
vt 0.45776367 0.3190918
vt 0.4658203 0.31811523
vt 0.45776367 0.31811523
vt 0.53759766 0.39697266
vt 0.5385742 0.39697266
vt 0.4658203 0.31811523
vt 0.53759766 0.39697266
vt 0.4658203 0.31811523
vt 0.4658203 0.31811523
vt 0.45776367 0.3190918
vt 0.45776367 0.39697266
vt 0.53759766 0.39697266
vt 0.5390625 0.35473633
vt 0.5390625 0.31811523
vt 0.5004883 0.31811523
vt 0.4819336 0.39697266
vt 0.5390625 0.39697266
vt 0.49243164 0.31811523
vt 0.4819336 0.39697266
vt 0.49243164 0.31811523
vt 0.4819336 0.31811523
vt 0.5390625 0.39697266
vt 0.5390625 0.35473633
vt 0.5004883 0.31811523
vt 0.5390625 0.39697266
vt 0.5004883 0.31811523
vt 0.49243164 0.31811523
vt 0.47265625 0.39697266
vt 0.4802246 0.31811523
vt 0.46069336 0.31811523
vt 0.47265625 0.39697266
vt 0.4819336 0.39697266
vt 0.4819336 0.31811523
vt 0.47265625 0.39697266
vt 0.4819336 0.31811523
vt 0.4802246 0.31811523
vt 0.45776367 0.35009766
vt 0.46850586 0.39697266
vt 0.4597168 0.31811523
vt 0.45776367 0.35009766
vt 0.4597168 0.31811523
vt 0.45776367 0.31811523
vt 0.46850586 0.39697266
vt 0.47265625 0.39697266
vt 0.46069336 0.31811523
vt 0.46850586 0.39697266
vt 0.46069336 0.31811523
vt 0.4597168 0.31811523
vt 0.45776367 0.35009766
vt 0.45776367 0.39697266
vt 0.46850586 0.39697266
vn 0 1.7881393E-07 -1
vn 0 1.7881393E-07 -1
vn 0 1.7881393E-07 -1
vn 0 1.7881393E-07 -1
vn 0 1.7881393E-07 -1
vn 0 1.7881393E-07 -1
vn 0 1.7881393E-07 -1
vn 0 1.7881393E-07 -1
vn 0 1.7881393E-07 -1
vn 0 1.7881393E-07 -1
vn 0 1.7881393E-07 -1
vn 0 1.7881393E-07 -1
vn 0 1.7881393E-07 -1
vn 0 1.7881393E-07 -1
vn 0 1.7881393E-07 -1
vn 0 1.7881393E-07 -1
vn 0 1.7881393E-07 -1
vn 0 1.7881393E-07 -1
vn 0 1.7881393E-07 -1
vn 0 1.7881393E-07 -1
vn 0 1.7881393E-07 -1
vn 0 1.7881393E-07 -1
vn 0 1.7881393E-07 -1
vn 0 1.7881393E-07 -1
vn 0 1.7881393E-07 -1
vn 0 1.7881393E-07 -1
vn 0 1.7881393E-07 -1
vn -0 -1.1920929E-07 -1
vn -0 -1.1920929E-07 -1
vn -0 -1.1920929E-07 -1
vn -0 -1.1920929E-07 -1
vn -0 -1.1920929E-07 -1
vn -0 -1.1920929E-07 -1
vn -0 -1.1920929E-07 -1
vn -0 -1.1920929E-07 -1
vn -0 -1.1920929E-07 -1
vn -0 -1.1920929E-07 -1
vn -0 -1.1920929E-07 -1
vn -0 -1.1920929E-07 -1
vn -0 -1.1920929E-07 -1
vn -0 -1.1920929E-07 -1
vn -0 -1.1920929E-07 -1
vn -0 -1.1920929E-07 -1
vn -0 -1.1920929E-07 -1
vn -0 -1.1920929E-07 -1
vn -0 -1.1920929E-07 -1
vn -0 -1.1920929E-07 -1
vn -0 -1.1920929E-07 -1
vn -0 -1.1920929E-07 -1
vn -0 -1.1920929E-07 -1
vn -0 -1.1920929E-07 -1
vn -0 -1.1920929E-07 -1
vn -0 -1.1920929E-07 -1
vn -0 -1.1920929E-07 -1
vn -0 -1.1920929E-07 -1
vn -0 -1.1920929E-07 -1
vn -0 -1.1920929E-07 -1
vn -0 -1.1920929E-07 -1
vn -0 -1.1920929E-07 -1
vn -0 -1.1920929E-07 -1
vn -0 -1.1920929E-07 -1
vn -0 -1.1920929E-07 -1
vn -0 -1.1920929E-07 -1
vn -0 -1.1920929E-07 -1
vn -0 -1.1920929E-07 -1
vn -0 -1.1920929E-07 -1
g DecalMesh_MetroArea_Decal_Ground_21__41_0
f 3/3/3 2/2/2 1/1/1
f 6/6/6 5/5/5 4/4/4
f 9/9/9 8/8/8 7/7/7
f 12/12/12 11/11/11 10/10/10
f 15/15/15 14/14/14 13/13/13
f 18/18/18 17/17/17 16/16/16
f 21/21/21 20/20/20 19/19/19
f 24/24/24 23/23/23 22/22/22
f 27/27/27 26/26/26 25/25/25
f 30/30/30 29/29/29 28/28/28
f 33/33/33 32/32/32 31/31/31
f 36/36/36 35/35/35 34/34/34
f 39/39/39 38/38/38 37/37/37
f 42/42/42 41/41/41 40/40/40
f 45/45/45 44/44/44 43/43/43
f 48/48/48 47/47/47 46/46/46
f 51/51/51 50/50/50 49/49/49
f 54/54/54 53/53/53 52/52/52
f 57/57/57 56/56/56 55/55/55
f 60/60/60 59/59/59 58/58/58
f 63/63/63 62/62/62 61/61/61
f 66/66/66 65/65/65 64/64/64
