g DecalMesh_Common_Decal_Sign_09__59
v 0.27656913 0.23102625 -0.011641034
v 0.15686388 -0.23026514 0.0012647676
v 0.27656913 -0.23026513 0.0036332873
v 0.27656913 0.23102625 -0.011641034
v 0.14061105 0.23102625 -0.014331137
v 0.050579377 -0.23026511 -0.0008382068
v 0.27656913 0.23102625 -0.011641034
v 0.050579377 -0.23026511 -0.0008382068
v 0.15686388 -0.23026511 0.0012647668
v 0.14061108 0.23102629 -0.01433114
v -0.28251955 0.2310263 -0.02270331
v -0.2802007 -0.23026519 -0.0073831035
v 0.14061108 0.23102629 -0.01433114
v -0.2802007 -0.23026519 -0.0073831035
v 0.050579403 -0.23026508 -0.000838209
v -0.28251955 0.2310263 -0.02270331
v -0.28251955 -0.23026514 -0.0074289865
v -0.2802007 -0.23026513 -0.007383106
vt -0.48706055 0.9458008
vt -0.46166992 0.85302734
vt -0.48706055 0.85302734
vt -0.48706055 0.9458008
vt -0.45825195 0.9458008
vt -0.43920898 0.85302734
vt -0.48706055 0.9458008
vt -0.43920898 0.85302734
vt -0.46166992 0.85302734
vt -0.45825195 0.9458008
vt -0.36889648 0.9458008
vt -0.36938477 0.85302734
vt -0.45825195 0.9458008
vt -0.36938477 0.85302734
vt -0.43920898 0.85302734
vt -0.36889648 0.9458008
vt -0.36889648 0.85302734
vt -0.36938477 0.85302734
vn 0.0030994415 -0.033325195 -0.9995117
vn 0.010543823 -0.033233643 -0.9995117
vn 0.0034866333 -0.033325195 -0.9995117
vn 0.0030994415 -0.033325195 -0.9995117
vn 0.011116028 -0.033203125 -0.9995117
vn 0.016815186 -0.033111572 -0.99902344
vn 0.0030994415 -0.033325195 -0.9995117
vn 0.016815186 -0.033111572 -0.99902344
vn 0.010543823 -0.033233643 -0.9995117
vn 0.011116028 -0.033203125 -0.9995117
vn 0.036071777 -0.032836914 -0.99902344
vn 0.036315918 -0.032836914 -0.99902344
vn 0.011116028 -0.033203125 -0.9995117
vn 0.036315918 -0.032836914 -0.99902344
vn 0.016815186 -0.033111572 -0.99902344
vn 0.036071777 -0.032836914 -0.99902344
vn 0.036468506 -0.032836914 -0.99902344
vn 0.036315918 -0.032836914 -0.99902344
g DecalMesh_Common_Decal_Sign_09__59_0
f 3/3/3 2/2/2 1/1/1
f 6/6/6 5/5/5 4/4/4
f 9/9/9 8/8/8 7/7/7
f 12/12/12 11/11/11 10/10/10
f 15/15/15 14/14/14 13/13/13
f 18/18/18 17/17/17 16/16/16
