g DecalMesh_MetroArea_Decal_Ground_06__62
v 1.3700027 0.99100286 -0.48161435
v 2.4263911 0.99100286 -0.48161435
v 2.4153352 1.0062941 -0.48161435
v 1.3700027 0.99100286 -0.48161435
v 2.4153352 1.0062941 -0.48161435
v 1.3700027 1.0062941 -0.48161435
v 2.4263911 0.99100286 -0.48161435
v 2.4263911 1.0062941 -0.48161435
v 2.4153352 1.0062941 -0.48161435
v 1.3699951 0.99100286 -0.48161435
v 1.2862693 1.0062941 -0.48161435
v -2.4263911 0.9991227 -0.48161435
v 1.3699951 0.99100286 -0.48161435
v -2.4263911 0.9991227 -0.48161435
v -2.4263914 0.99100286 -0.48161435
v 1.2862693 1.0062941 -0.48161435
v -2.4263914 1.0062941 -0.48161435
v -2.4263914 0.9991227 -0.48161435
v 1.3699951 0.99100286 -0.48161435
v 1.3699951 1.0062941 -0.48161435
v 1.2862694 1.0062941 -0.48161435
v 1.3699989 0.99100286 -0.4813931
v -2.4263911 0.99100286 -0.4813931
v -2.4263911 -0.90719247 -0.48139283
v 1.3699989 0.99100286 -0.4813931
v -2.4263911 -0.90719247 -0.48139283
v 1.0454439 -1.0002941 -0.4813928
v 1.3699989 0.99100286 -0.4813931
v 1.0454439 -1.0002941 -0.4813928
v 1.3699989 -1.0002941 -0.4813928
v -2.4263911 -0.90719247 -0.48139283
v -2.4263911 -1.0002941 -0.4813928
v 1.045444 -1.0002941 -0.4813928
v 1.3699989 0.99100286 -0.4813931
v 1.3699989 0.9910029 -0.29260647
v -2.4263911 0.9910029 -0.29260647
v 1.3699989 0.99100286 -0.4813931
v -2.4263911 0.9910029 -0.29260647
v -2.4263911 0.9910029 -0.30221617
v 1.3699989 0.99100286 -0.4813931
v -2.4263911 0.9910029 -0.30221617
v -2.4263911 0.99100286 -0.4813931
v 2.4263911 -0.48080128 -0.4813929
v 1.3699989 0.99100286 -0.4813931
v 1.3699989 -1.0002941 -0.4813928
v 2.4263911 -0.48080128 -0.4813929
v 1.3699989 -1.0002941 -0.4813928
v 1.3874056 -1.0002941 -0.4813928
v 1.3699989 0.99100286 -0.4813931
v 2.4263911 -0.48080128 -0.4813929
v 2.4263911 0.99100286 -0.4813931
v 2.4263911 -0.48080128 -0.4813929
v 1.3874056 -1.0002941 -0.4813928
v 2.4263911 -1.0002941 -0.4813928
v 1.3699989 0.9910029 -0.29260647
v 2.4263911 0.9910029 -0.34246466
v 2.4263911 0.9910029 -0.29260647
v 1.3699989 0.9910029 -0.29260647
v 1.3699989 0.99100286 -0.4813931
v 2.4263911 0.99100286 -0.4813931
v 1.3699989 0.9910029 -0.29260647
v 2.4263911 0.99100286 -0.4813931
v 2.4263911 0.9910029 -0.34246466
vt 0.515625 0.8618164
vt 0.4453125 0.8618164
vt 0.44604492 0.86279297
vt 0.515625 0.8618164
vt 0.44604492 0.86279297
vt 0.515625 0.86279297
vt 0.4453125 0.8618164
vt 0.4453125 0.86279297
vt 0.44604492 0.86279297
vt 0.515625 0.8618164
vt 0.5214844 0.86279297
vt 0.7685547 0.8623047
vt 0.515625 0.8618164
vt 0.7685547 0.8623047
vt 0.7685547 0.8618164
vt 0.5214844 0.86279297
vt 0.7685547 0.86279297
vt 0.7685547 0.8623047
vt 0.515625 0.8618164
vt 0.515625 0.86279297
vt 0.5214844 0.86279297
vt 0.515625 0.8618164
vt 0.7685547 0.8618164
vt 0.7685547 0.73535156
vt 0.515625 0.8618164
vt 0.7685547 0.73535156
vt 0.5371094 0.7290039
vt 0.515625 0.8618164
vt 0.5371094 0.7290039
vt 0.515625 0.7290039
vt 0.7685547 0.73535156
vt 0.7685547 0.7290039
vt 0.5371094 0.7290039
vt 0.515625 0.8618164
vt 0.515625 0.8618164
vt 0.7685547 0.8618164
vt 0.515625 0.8618164
vt 0.7685547 0.8618164
vt 0.7685547 0.8618164
vt 0.515625 0.8618164
vt 0.7685547 0.8618164
vt 0.7685547 0.8618164
vt 0.4453125 0.7636719
vt 0.515625 0.8618164
vt 0.515625 0.7290039
vt 0.4453125 0.7636719
vt 0.515625 0.7290039
vt 0.51464844 0.7290039
vt 0.515625 0.8618164
vt 0.4453125 0.7636719
vt 0.4453125 0.8618164
vt 0.4453125 0.7636719
vt 0.51464844 0.7290039
vt 0.4453125 0.7290039
vt 0.515625 0.8618164
vt 0.4453125 0.8618164
vt 0.4453125 0.8618164
vt 0.515625 0.8618164
vt 0.515625 0.8618164
vt 0.4453125 0.8618164
vt 0.515625 0.8618164
vt 0.4453125 0.8618164
vt 0.4453125 0.8618164
vn -0 5.9604645E-08 -1
vn -0 5.9604645E-08 -1
vn -0 5.9604645E-08 -1
vn -0 5.9604645E-08 -1
vn -0 5.9604645E-08 -1
vn -0 5.9604645E-08 -1
vn -0 5.9604645E-08 -1
vn -0 5.9604645E-08 -1
vn -0 5.9604645E-08 -1
vn -0 5.9604645E-08 -1
vn -0 5.9604645E-08 -1
vn -0 5.9604645E-08 -1
vn -0 5.9604645E-08 -1
vn -0 5.9604645E-08 -1
vn -0 5.9604645E-08 -1
vn -0 5.9604645E-08 -1
vn -0 5.9604645E-08 -1
vn -0 5.9604645E-08 -1
vn -0 5.9604645E-08 -1
vn -0 5.9604645E-08 -1
vn -0 5.9604645E-08 -1
vn -0 -1.1920929E-07 -1
vn -0 -1.1920929E-07 -1
vn -0 -1.1920929E-07 -1
vn -0 -1.1920929E-07 -1
vn -0 -1.1920929E-07 -1
vn -0 -1.1920929E-07 -1
vn -0 -1.1920929E-07 -1
vn -0 -1.1920929E-07 -1
vn -0 -1.1920929E-07 -1
vn -0 -1.1920929E-07 -1
vn -0 -1.1920929E-07 -1
vn -0 -1.1920929E-07 -1
vn -0 1 -1.1920929E-07
vn -0 1 -1.1920929E-07
vn -0 1 -1.1920929E-07
vn -0 1 -1.1920929E-07
vn -0 1 -1.1920929E-07
vn -0 1 -1.1920929E-07
vn -0 1 -1.1920929E-07
vn -0 1 -1.1920929E-07
vn -0 1 -1.1920929E-07
vn -0 -1.1920929E-07 -1
vn -0 -1.1920929E-07 -1
vn -0 -1.1920929E-07 -1
vn -0 -1.1920929E-07 -1
vn -0 -1.1920929E-07 -1
vn -0 -1.1920929E-07 -1
vn -0 -1.1920929E-07 -1
vn -0 -1.1920929E-07 -1
vn -0 -1.1920929E-07 -1
vn -0 -1.1920929E-07 -1
vn -0 -1.1920929E-07 -1
vn -0 -1.1920929E-07 -1
vn -0 1 -1.1920929E-07
vn -0 1 -1.1920929E-07
vn -0 1 -1.1920929E-07
vn -0 1 -1.1920929E-07
vn -0 1 -1.1920929E-07
vn -0 1 -1.1920929E-07
vn -0 1 -1.1920929E-07
vn -0 1 -1.1920929E-07
vn -0 1 -1.1920929E-07
g DecalMesh_MetroArea_Decal_Ground_06__62_0
f 3/3/3 2/2/2 1/1/1
f 6/6/6 5/5/5 4/4/4
f 9/9/9 8/8/8 7/7/7
f 12/12/12 11/11/11 10/10/10
f 15/15/15 14/14/14 13/13/13
f 18/18/18 17/17/17 16/16/16
f 21/21/21 20/20/20 19/19/19
f 24/24/24 23/23/23 22/22/22
f 27/27/27 26/26/26 25/25/25
f 30/30/30 29/29/29 28/28/28
f 33/33/33 32/32/32 31/31/31
f 36/36/36 35/35/35 34/34/34
f 39/39/39 38/38/38 37/37/37
f 42/42/42 41/41/41 40/40/40
f 45/45/45 44/44/44 43/43/43
f 48/48/48 47/47/47 46/46/46
f 51/51/51 50/50/50 49/49/49
f 54/54/54 53/53/53 52/52/52
f 57/57/57 56/56/56 55/55/55
f 60/60/60 59/59/59 58/58/58
f 63/63/63 62/62/62 61/61/61
