g DecalMesh_MetroArea_Decal_Crack_01__7
v 2.501558 0.8630034 0.032938804
v -2.501552 0.86300397 0.032939553
v -2.4400191 -0.85700333 0.03293829
v 2.501558 0.8630034 0.032938804
v -2.4400191 -0.85700333 0.03293829
v 2.501558 -0.8570039 0.032937553
v -2.501552 0.86300397 0.032939553
v -2.501552 -0.857007 0.0329383
v -2.4400191 -0.85700697 0.03293829
v 2.5015535 0.8630072 -0.07821052
v 1.7183493 -0.857007 -0.078558095
v 2.5015535 -0.857007 -0.07811349
v 2.5015535 0.8630072 -0.07821052
v 1.4214135 0.8630072 -0.07882369
v 0.7174444 -0.857007 -0.07912628
v 2.5015535 0.8630072 -0.07821052
v 0.7174444 -0.857007 -0.07912628
v 1.6037554 -0.857007 -0.078623146
v 2.5015535 0.8630072 -0.07821052
v 1.6037554 -0.857007 -0.078623146
v 1.7183493 -0.857007 -0.078558095
v 1.4214138 0.8630077 -0.07882369
v -1.0168854 0.8630061 -0.08020799
v -1.5419897 -0.85700715 -0.080409035
v 1.4214138 0.8630077 -0.07882369
v -1.5419897 -0.85700715 -0.080409035
v 0.033919785 -0.85700697 -0.07951435
v 1.4214138 0.8630077 -0.07882369
v 0.03391967 -0.85700715 -0.07951435
v 0.7174445 -0.857007 -0.07912628
v -1.0168849 0.8630076 -0.08020799
v -2.5015533 0.863008 -0.08105071
v -2.5015533 -0.85700697 -0.080953695
v -1.0168849 0.8630076 -0.08020799
v -2.5015533 -0.85700697 -0.080953695
v -1.5419897 -0.8570072 -0.080409035
vt 0.037628174 0.9633789
vt 0.48754883 0.9633789
vt 0.48217773 0.79785156
vt 0.037628174 0.9633789
vt 0.48217773 0.79785156
vt 0.037628174 0.79785156
vt 0.48754883 0.9633789
vt 0.48754883 0.79785156
vt 0.48217773 0.79785156
vt 0.037628174 0.9633789
vt 0.10809326 0.79785156
vt 0.037628174 0.79785156
vt 0.037628174 0.9633789
vt 0.13476562 0.9633789
vt 0.19812012 0.79785156
vt 0.037628174 0.9633789
vt 0.19812012 0.79785156
vt 0.1184082 0.79785156
vt 0.037628174 0.9633789
vt 0.1184082 0.79785156
vt 0.10809326 0.79785156
vt 0.13476562 0.9633789
vt 0.3540039 0.9633789
vt 0.4013672 0.79785156
vt 0.13476562 0.9633789
vt 0.4013672 0.79785156
vt 0.25952148 0.79785156
vt 0.13476562 0.9633789
vt 0.25952148 0.79785156
vt 0.19812012 0.79785156
vt 0.3540039 0.9633789
vt 0.48754883 0.9633789
vt 0.48754883 0.79785156
vt 0.3540039 0.9633789
vt 0.48754883 0.79785156
vt 0.4013672 0.79785156
vn 2.0861626E-05 -0.0005221367 -1
vn 1.9669533E-05 -0.00049209595 -1
vn 1.9550323E-05 -0.0004901886 -1
vn 2.0861626E-05 -0.0005221367 -1
vn 1.9550323E-05 -0.0004901886 -1
vn 2.0742416E-05 -0.0005197525 -1
vn 1.9669533E-05 -0.00049209595 -1
vn 1.9550323E-05 -0.0004901886 -1
vn 1.9550323E-05 -0.0004901886 -1
vn -0.014801025 -0.016403198 -0.9995117
vn -0.013679504 -0.015205383 -0.9995117
vn -0.0146102905 -0.014137268 -0.9995117
vn -0.014801025 -0.016403198 -0.9995117
vn -0.013511658 -0.017868042 -0.9995117
vn -0.012481689 -0.016555786 -0.9995117
vn -0.014801025 -0.016403198 -0.9995117
vn -0.012481689 -0.016555786 -0.9995117
vn -0.013542175 -0.015357971 -0.9995117
vn -0.014801025 -0.016403198 -0.9995117
vn -0.013542175 -0.015357971 -0.9995117
vn -0.013679504 -0.015205383 -0.9995117
vn -0.013511658 -0.017868042 -0.9995117
vn -0.00046014786 -0.024887085 -0.9995117
vn -0.00038456917 -0.02305603 -0.9995117
vn -0.013511658 -0.017868042 -0.9995117
vn -0.00038456917 -0.02305603 -0.9995117
vn -0.00881958 -0.01852417 -0.9995117
vn -0.013511658 -0.017868042 -0.9995117
vn -0.00881958 -0.01852417 -0.9995117
vn -0.012481689 -0.016555786 -0.9995117
vn -0.00046014786 -0.024887085 -0.9995117
vn -0.00039815903 -0.021194458 -0.9995117
vn -0.00034451485 -0.02067566 -0.9995117
vn -0.00046014786 -0.024887085 -0.9995117
vn -0.00034451485 -0.02067566 -0.9995117
vn -0.00038456917 -0.02305603 -0.9995117
g DecalMesh_MetroArea_Decal_Crack_01__7_0
f 3/3/3 2/2/2 1/1/1
f 6/6/6 5/5/5 4/4/4
f 9/9/9 8/8/8 7/7/7
f 12/12/12 11/11/11 10/10/10
f 15/15/15 14/14/14 13/13/13
f 18/18/18 17/17/17 16/16/16
f 21/21/21 20/20/20 19/19/19
f 24/24/24 23/23/23 22/22/22
f 27/27/27 26/26/26 25/25/25
f 30/30/30 29/29/29 28/28/28
f 33/33/33 32/32/32 31/31/31
f 36/36/36 35/35/35 34/34/34
