g DecalMesh_MetroArea_Decal_Graffiti_14__6
v -0.8979176 -0.55785483 -0.13533047
v -0.8096954 -0.5995425 -0.13533047
v -0.84892946 -0.58100325 0.14133047
v -0.8979176 -0.55785483 -0.13533047
v -0.84892946 -0.58100325 0.14133047
v -0.8979176 -0.55785483 0.14133047
v -0.8096954 -0.5995425 -0.13533045
v -0.79617065 -0.60593337 0.14133047
v -0.84892946 -0.58100325 0.14133047
v -0.8096954 -0.5995425 -0.13533045
v -0.7818686 -0.6126915 -0.13533045
v -0.7818686 -0.6126915 0.14133047
v -0.8096954 -0.5995425 -0.13533045
v -0.7818686 -0.6126915 0.14133047
v -0.79617065 -0.60593337 0.14133047
v 0.8979175 0.31606695 -0.09552048
v -0.8979175 -0.05300445 -0.095521726
v -0.12786393 -0.6126915 -0.09552093
v 0.8979175 0.31606695 -0.09552048
v -0.12786393 -0.6126915 -0.09552093
v 0.89791745 -0.6126915 -0.095520146
v -0.8979175 -0.05300445 -0.095521726
v -0.8979175 -0.5096595 -0.095521554
v -0.67987424 -0.6126915 -0.09552135
v -0.8979175 -0.05300445 -0.095521726
v -0.67987424 -0.6126915 -0.09552135
v -0.12786393 -0.6126915 -0.09552093
v 0.8979175 0.31606695 -0.09552048
v 0.77852774 0.61269146 -0.09552068
v -0.8979175 0.039039843 -0.095521756
v 0.8979175 0.31606695 -0.09552048
v -0.8979175 0.039039843 -0.095521756
v -0.8979175 -0.05300445 -0.095521726
v 0.77852774 0.61269146 -0.09552068
v -0.8979175 0.6126915 -0.095521964
v -0.89791757 0.039039817 -0.095521756
v 0.8979175 0.31606695 -0.09552048
v 0.8979175 0.6126915 -0.095520586
v 0.7785277 0.6126915 -0.09552068
v -0.89791757 -0.53245664 -0.10651233
v -0.89791745 -0.5932472 -0.10651233
v -0.856768 -0.6126915 -0.10651233
v -0.89791757 -0.53245664 -0.10651233
v -0.856768 -0.6126915 -0.10651233
v -0.73946995 -0.6126915 -0.10651233
v -0.8979175 -0.5236059 -0.10651233
v -0.72368723 -0.6126915 -0.10651233
v -0.7173041 -0.6126915 -0.10651233
v -0.8979175 -0.5236059 -0.10651233
v -0.89791757 -0.53245664 -0.10651233
v -0.73946995 -0.6126915 -0.10651233
v -0.8979175 -0.5236059 -0.10651233
v -0.73946995 -0.6126915 -0.10651233
v -0.72368723 -0.6126915 -0.10651233
v -0.8979175 -0.50965875 -0.10651233
v -0.6922657 -0.6126915 -0.10651233
v -0.67987293 -0.6126915 -0.10651233
v -0.8979175 -0.50965875 -0.10651233
v -0.8979175 -0.5236059 -0.10651233
v -0.7173041 -0.6126915 -0.10651233
v -0.8979175 -0.50965875 -0.10651233
v -0.7173041 -0.6126915 -0.10651233
v -0.6922656 -0.6126915 -0.10651233
vt 0.6538086 0.68359375
vt 0.6484375 0.6801758
vt 0.6508789 0.6816406
vt 0.6538086 0.68359375
vt 0.6508789 0.6816406
vt 0.6538086 0.68359375
vt 0.6484375 0.6801758
vt 0.64746094 0.6796875
vt 0.6508789 0.6816406
vt 0.6484375 0.6801758
vt 0.6464844 0.6791992
vt 0.6464844 0.6791992
vt 0.6484375 0.6801758
vt 0.6464844 0.6791992
vt 0.64746094 0.6796875
vt 0.54541016 0.7578125
vt 0.6538086 0.7265625
vt 0.6074219 0.6791992
vt 0.54541016 0.7578125
vt 0.6074219 0.6791992
vt 0.54541016 0.6791992
vt 0.6538086 0.7265625
vt 0.6538086 0.6879883
vt 0.640625 0.6791992
vt 0.6538086 0.7265625
vt 0.640625 0.6791992
vt 0.6074219 0.6791992
vt 0.54541016 0.7578125
vt 0.5527344 0.78271484
vt 0.6538086 0.734375
vt 0.54541016 0.7578125
vt 0.6538086 0.734375
vt 0.6538086 0.7265625
vt 0.5527344 0.78271484
vt 0.6538086 0.78271484
vt 0.6538086 0.734375
vt 0.54541016 0.7578125
vt 0.54541016 0.78271484
vt 0.5527344 0.78271484
vt 0.6538086 0.68603516
vt 0.6538086 0.68066406
vt 0.6513672 0.6791992
vt 0.6538086 0.68603516
vt 0.6513672 0.6791992
vt 0.64404297 0.6791992
vt 0.6538086 0.68652344
vt 0.6430664 0.6791992
vt 0.6425781 0.6791992
vt 0.6538086 0.68652344
vt 0.6538086 0.68603516
vt 0.64404297 0.6791992
vt 0.6538086 0.68652344
vt 0.64404297 0.6791992
vt 0.6430664 0.6791992
vt 0.6538086 0.6879883
vt 0.6411133 0.6791992
vt 0.640625 0.6791992
vt 0.6538086 0.6879883
vt 0.6538086 0.68652344
vt 0.6425781 0.6791992
vt 0.6538086 0.6879883
vt 0.6425781 0.6791992
vt 0.6411133 0.6791992
vn 0.4272461 0.9042969 0
vn 0.4272461 0.9042969 0
vn 0.4272461 0.9042969 0
vn 0.4272461 0.9042969 0
vn 0.4272461 0.9042969 0
vn 0.4272461 0.9042969 0
vn 0.4272461 0.9042969 0
vn 0.4272461 0.9042969 0
vn 0.4272461 0.9042969 0
vn 0.4272461 0.9042969 0
vn 0.4272461 0.9042969 0
vn 0.4272461 0.9042969 0
vn 0.4272461 0.9042969 0
vn 0.4272461 0.9042969 0
vn 0.4272461 0.9042969 0
vn 1.1920929E-07 -5.9604645E-08 -1
vn 1.1920929E-07 -5.9604645E-08 -1
vn 1.1920929E-07 -5.9604645E-08 -1
vn 1.1920929E-07 -5.9604645E-08 -1
vn 1.1920929E-07 -5.9604645E-08 -1
vn 1.1920929E-07 -5.9604645E-08 -1
vn 1.1920929E-07 -5.9604645E-08 -1
vn 1.1920929E-07 -5.9604645E-08 -1
vn 1.1920929E-07 -5.9604645E-08 -1
vn 1.1920929E-07 -5.9604645E-08 -1
vn 1.1920929E-07 -5.9604645E-08 -1
vn 1.1920929E-07 -5.9604645E-08 -1
vn 1.1920929E-07 -5.9604645E-08 -1
vn 1.1920929E-07 -5.9604645E-08 -1
vn 1.1920929E-07 -5.9604645E-08 -1
vn 1.1920929E-07 -5.9604645E-08 -1
vn 1.1920929E-07 -5.9604645E-08 -1
vn 1.1920929E-07 -5.9604645E-08 -1
vn 1.1920929E-07 -5.9604645E-08 -1
vn 1.1920929E-07 -5.9604645E-08 -1
vn 1.1920929E-07 -5.9604645E-08 -1
vn 1.1920929E-07 -5.9604645E-08 -1
vn 1.1920929E-07 -5.9604645E-08 -1
vn 1.1920929E-07 -5.9604645E-08 -1
vn 1.1920929E-07 -5.9604645E-08 -1
vn 1.1920929E-07 -5.9604645E-08 -1
vn 1.1920929E-07 -5.9604645E-08 -1
vn 1.1920929E-07 -5.9604645E-08 -1
vn 1.1920929E-07 -5.9604645E-08 -1
vn 1.1920929E-07 -5.9604645E-08 -1
vn 1.1920929E-07 -5.9604645E-08 -1
vn 1.1920929E-07 -5.9604645E-08 -1
vn 1.1920929E-07 -5.9604645E-08 -1
vn 1.1920929E-07 -5.9604645E-08 -1
vn 1.1920929E-07 -5.9604645E-08 -1
vn 1.1920929E-07 -5.9604645E-08 -1
vn 1.1920929E-07 -5.9604645E-08 -1
vn 1.1920929E-07 -5.9604645E-08 -1
vn 1.1920929E-07 -5.9604645E-08 -1
vn 1.1920929E-07 -5.9604645E-08 -1
vn 1.1920929E-07 -5.9604645E-08 -1
vn 1.1920929E-07 -5.9604645E-08 -1
vn 1.1920929E-07 -5.9604645E-08 -1
vn 1.1920929E-07 -5.9604645E-08 -1
vn 1.1920929E-07 -5.9604645E-08 -1
vn 1.1920929E-07 -5.9604645E-08 -1
vn 1.1920929E-07 -5.9604645E-08 -1
vn 1.1920929E-07 -5.9604645E-08 -1
g DecalMesh_MetroArea_Decal_Graffiti_14__6_0
f 3/3/3 2/2/2 1/1/1
f 6/6/6 5/5/5 4/4/4
f 9/9/9 8/8/8 7/7/7
f 12/12/12 11/11/11 10/10/10
f 15/15/15 14/14/14 13/13/13
f 18/18/18 17/17/17 16/16/16
f 21/21/21 20/20/20 19/19/19
f 24/24/24 23/23/23 22/22/22
f 27/27/27 26/26/26 25/25/25
f 30/30/30 29/29/29 28/28/28
f 33/33/33 32/32/32 31/31/31
f 36/36/36 35/35/35 34/34/34
f 39/39/39 38/38/38 37/37/37
f 42/42/42 41/41/41 40/40/40
f 45/45/45 44/44/44 43/43/43
f 48/48/48 47/47/47 46/46/46
f 51/51/51 50/50/50 49/49/49
f 54/54/54 53/53/53 52/52/52
f 57/57/57 56/56/56 55/55/55
f 60/60/60 59/59/59 58/58/58
f 63/63/63 62/62/62 61/61/61
