g DecalMesh_MetroArea_Decal_Ground_07__20
v 0.2777346 0.61393076 -0.12757212
v -0.27773464 0.6139307 -0.12757212
v 0.21626426 -1.6006402 -0.1275727
v 0.2777346 0.61393076 -0.12757212
v 0.21626426 -1.6006402 -0.1275727
v 0.2777346 -1.6006402 -0.1275727
v -0.27773464 0.6139307 -0.12757212
v -0.27773464 -1.3207392 -0.12757263
v 0.0021663103 -1.60064 -0.1275727
v -0.27773464 0.6139307 -0.12757212
v 0.0021663103 -1.60064 -0.1275727
v 0.21626426 -1.6006402 -0.1275727
v -0.27773464 -1.3284006 -0.12757263
v -0.27773464 -1.60064 -0.1275727
v -0.006569001 -1.60064 -0.1275727
v -0.27773464 -1.3207392 -0.12757263
v -0.0027160598 -1.60064 -0.1275727
v 0.0021663255 -1.60064 -0.1275727
v -0.27773464 -1.3207392 -0.12757263
v -0.27773464 -1.3284006 -0.12757263
v -0.006569001 -1.60064 -0.1275727
v -0.27773464 -1.3207392 -0.12757263
v -0.006569001 -1.60064 -0.1275727
v -0.0027160598 -1.60064 -0.1275727
v 0.27773458 0.6235268 -0.12757307
v 0.27773458 1.60064 -0.12757324
v -0.27773464 1.6006402 -0.12757324
v 0.27773458 0.6235268 -0.12757307
v -0.27773464 1.6006402 -0.12757324
v -0.27773464 1.1789961 -0.12757316
v 0.27773464 0.61393076 -0.12757307
v -0.2777346 1.1715404 -0.12757316
v -0.27773464 0.6139307 -0.12757307
v 0.27773464 0.61393076 -0.12757307
v 0.27773464 0.62352675 -0.12757307
v -0.27773464 1.178996 -0.12757316
v 0.27773464 0.61393076 -0.12757307
v -0.27773464 1.178996 -0.12757316
v -0.27773464 1.1748551 -0.12757316
v 0.27773464 0.61393076 -0.12757307
v -0.2777346 1.1748551 -0.12757316
v -0.2777346 1.1715404 -0.12757316
v 0.27773476 0.47600013 -0.043305457
v -0.016002383 1.6006402 -0.043305572
v -0.27773464 1.2086879 -0.04330553
v 0.27773476 0.47600013 -0.043305457
v -0.27773464 1.2086879 -0.04330553
v -0.27773464 0.47600013 -0.043305457
v -0.016002383 1.6006402 -0.043305572
v -0.27773464 1.6006402 -0.043305572
v -0.27773464 1.2086879 -0.04330553
v 0.27773476 0.47600013 -0.043305457
v 0.27773476 1.60064 -0.043305576
v -0.016002353 1.60064 -0.043305572
v 0.27773476 0.4759999 -0.043305457
v -0.27773464 0.4759999 0.009863294
v -0.27773464 0.4759999 -0.043305457
v 0.27773476 0.4759999 -0.043305457
v 0.27773476 0.4759999 0.0305765
v -0.27773464 0.4759999 0.044463288
v 0.27773476 0.4759999 -0.043305457
v -0.27773464 0.4759999 0.044463288
v -0.27773464 0.4759999 0.009863294
v 0.27773464 0.4759999 0.030576503
v 0.27773464 0.4759999 0.056694925
v -0.27773464 0.4759999 0.056694925
v 0.27773464 0.4759999 0.030576503
v -0.27773464 0.4759999 0.056694925
v -0.27773464 0.4759999 0.044463288
v -0.27773464 -1.3972585 -0.043305207
v -0.27773464 -1.60064 -0.04330518
v -0.22461478 -1.60064 -0.04330518
v 0.27773476 -0.5687333 -0.043305315
v -0.27773464 -0.013263828 -0.04330539
v -0.026579687 -1.60064 -0.043305177
v 0.27773476 -0.5687333 -0.043305315
v -0.026579687 -1.60064 -0.043305177
v 0.27773476 -1.60064 -0.043305177
v -0.27773464 -0.013263828 -0.04330539
v -0.27773464 -1.3972585 -0.043305207
v -0.22461477 -1.60064 -0.04330518
v -0.27773464 -0.013263828 -0.04330539
v -0.22461477 -1.60064 -0.04330518
v -0.026579687 -1.60064 -0.043305177
v 0.27773464 -0.56873316 -0.043305315
v 0.27773464 0.4759999 -0.043305457
v -0.27773464 0.4759999 -0.043305457
v 0.27773464 -0.56873316 -0.043305315
v -0.27773464 0.4759999 -0.043305457
v -0.27773464 -0.013263804 -0.04330539
v 0.27773467 -0.040695224 -0.1162533
v 0.10887603 0.0951685 -0.12760548
v -0.08054479 0.24725235 -0.12760548
v 0.27773467 -0.040695224 -0.1162533
v 0.27773464 -0.040406182 -0.12760548
v 0.12428638 0.082795694 -0.12760548
v 0.27773467 -0.040695224 -0.1162533
v 0.12428638 0.082795694 -0.12760548
v 0.10887603 0.0951685 -0.12760548
v 0.27773464 1.4432409 -0.11625368
v -0.080538765 0.9970112 -0.12760548
v 0.27773464 1.442794 -0.12760548
vt 0.44995117 0.66015625
vt 0.48706055 0.66015625
vt 0.45410156 0.5126953
vt 0.44995117 0.66015625
vt 0.45410156 0.5126953
vt 0.44995117 0.5126953
vt 0.48706055 0.66015625
vt 0.48706055 0.53125
vt 0.46826172 0.5126953
vt 0.48706055 0.66015625
vt 0.46826172 0.5126953
vt 0.45410156 0.5126953
vt 0.48706055 0.5307617
vt 0.48706055 0.5126953
vt 0.46899414 0.5126953
vt 0.48706055 0.53125
vt 0.46875 0.5126953
vt 0.46826172 0.5126953
vt 0.48706055 0.53125
vt 0.48706055 0.5307617
vt 0.46899414 0.5126953
vt 0.48706055 0.53125
vt 0.46899414 0.5126953
vt 0.46875 0.5126953
vt 0.44995117 0.66064453
vt 0.44995117 0.7260742
vt 0.48706055 0.7260742
vt 0.44995117 0.66064453
vt 0.48706055 0.7260742
vt 0.48706055 0.6977539
vt 0.44995117 0.66015625
vt 0.48706055 0.6972656
vt 0.48706055 0.66015625
vt 0.44995117 0.66015625
vt 0.44995117 0.66064453
vt 0.48706055 0.6977539
vt 0.44995117 0.66015625
vt 0.48706055 0.6977539
vt 0.48706055 0.6977539
vt 0.44995117 0.66015625
vt 0.48706055 0.6977539
vt 0.48706055 0.6972656
vt 0.44995117 0.6508789
vt 0.46948242 0.7260742
vt 0.48706055 0.69970703
vt 0.44995117 0.6508789
vt 0.48706055 0.69970703
vt 0.48706055 0.6508789
vt 0.46948242 0.7260742
vt 0.48706055 0.7260742
vt 0.48706055 0.69970703
vt 0.44995117 0.6508789
vt 0.44995117 0.7260742
vt 0.46948242 0.7260742
vt 0.44995117 0.6508789
vt 0.48706055 0.6508789
vt 0.48706055 0.6508789
vt 0.44995117 0.6508789
vt 0.44995117 0.6508789
vt 0.48706055 0.6508789
vt 0.44995117 0.6508789
vt 0.48706055 0.6508789
vt 0.48706055 0.6508789
vt 0.44995117 0.6508789
vt 0.44995117 0.6508789
vt 0.48706055 0.6508789
vt 0.44995117 0.6508789
vt 0.48706055 0.6508789
vt 0.48706055 0.6508789
vt 0.48706055 0.5258789
vt 0.48706055 0.5126953
vt 0.48339844 0.5126953
vt 0.44995117 0.58154297
vt 0.48706055 0.61816406
vt 0.47021484 0.5126953
vt 0.44995117 0.58154297
vt 0.47021484 0.5126953
vt 0.44995117 0.5126953
vt 0.48706055 0.61816406
vt 0.48706055 0.5258789
vt 0.48339844 0.5126953
vt 0.48706055 0.61816406
vt 0.48339844 0.5126953
vt 0.47021484 0.5126953
vt 0.44995117 0.58154297
vt 0.44995117 0.6508789
vt 0.48706055 0.6508789
vt 0.44995117 0.58154297
vt 0.48706055 0.6508789
vt 0.48706055 0.61816406
vt 0.44995117 0.6166992
vt 0.46118164 0.6254883
vt 0.47387695 0.6357422
vt 0.44995117 0.6166992
vt 0.44995117 0.6166992
vt 0.46020508 0.625
vt 0.44995117 0.6166992
vt 0.46020508 0.625
vt 0.46118164 0.6254883
vt 0.44995117 0.71533203
vt 0.47387695 0.6855469
vt 0.44995117 0.71533203
vn 9.357929E-06 1.7404556E-05 -1
vn 0.00053596497 0.0009889603 -1
vn 6.765127E-05 0.00012493134 -1
vn 9.357929E-06 1.7404556E-05 -1
vn 6.765127E-05 0.00012493134 -1
vn 9.357929E-06 1.7404556E-05 -1
vn 0.00053596497 0.0009889603 -1
vn 0.00053596497 0.0009889603 -1
vn 0.0002706051 0.0004992485 -1
vn 0.00053596497 0.0009889603 -1
vn 0.0002706051 0.0004992485 -1
vn 6.765127E-05 0.00012493134 -1
vn 0.0005288124 0.000975132 -1
vn 0.0002706051 0.0004992485 -1
vn 0.0002706051 0.0004992485 -1
vn 0.00053596497 0.0009889603 -1
vn 0.0002706051 0.0004992485 -1
vn 0.0002706051 0.0004992485 -1
vn 0.00053596497 0.0009889603 -1
vn 0.0005288124 0.000975132 -1
vn 0.0002706051 0.0004992485 -1
vn 0.00053596497 0.0009889603 -1
vn 0.0002706051 0.0004992485 -1
vn 0.0002706051 0.0004992485 -1
vn -1.8775463E-05 1.0967255E-05 -1
vn -1.8775463E-05 1.0967255E-05 -1
vn -0.0011043549 0.00065231323 -1
vn -1.8775463E-05 1.0967255E-05 -1
vn -0.0011043549 0.00065231323 -1
vn -0.0011043549 0.00065231323 -1
vn 5.185604E-06 -3.296137E-05 -1
vn -0.0010852814 0.00061798096 -1
vn 0.0003068447 -0.0019350052 -1
vn 5.185604E-06 -3.296137E-05 -1
vn -1.8775463E-05 1.0967255E-05 -1
vn -0.0011043549 0.00065231323 -1
vn 5.185604E-06 -3.296137E-05 -1
vn -0.0011043549 0.00065231323 -1
vn -0.0010938644 0.00063323975 -1
vn 5.185604E-06 -3.296137E-05 -1
vn -0.0010938644 0.00063323975 -1
vn -0.0010852814 0.00061798096 -1
vn -0 -1.1920929E-07 -1
vn -0 -1.1920929E-07 -1
vn -0 -1.1920929E-07 -1
vn -0 -1.1920929E-07 -1
vn -0 -1.1920929E-07 -1
vn -0 -1.1920929E-07 -1
vn -0 -1.1920929E-07 -1
vn -0 -1.1920929E-07 -1
vn -0 -1.1920929E-07 -1
vn -0 -1.1920929E-07 -1
vn -0 -1.1920929E-07 -1
vn -0 -1.1920929E-07 -1
vn -0 1 -1.1920929E-07
vn -0 1 -1.1920929E-07
vn -0 1 -1.1920929E-07
vn -0 1 -1.1920929E-07
vn -0 1 -1.1920929E-07
vn -0 1 -1.1920929E-07
vn -0 1 -1.1920929E-07
vn -0 1 -1.1920929E-07
vn -0 1 -1.1920929E-07
vn -0 1 -1.1920929E-07
vn -0 1 -1.1920929E-07
vn -0 1 -1.1920929E-07
vn -0 1 -1.1920929E-07
vn -0 1 -1.1920929E-07
vn -0 1 -1.1920929E-07
vn -0 -1.1920929E-07 -1
vn -0 -1.1920929E-07 -1
vn -0 -1.1920929E-07 -1
vn -0 -1.1920929E-07 -1
vn -0 -1.1920929E-07 -1
vn -0 -1.1920929E-07 -1
vn -0 -1.1920929E-07 -1
vn -0 -1.1920929E-07 -1
vn -0 -1.1920929E-07 -1
vn -0 -1.1920929E-07 -1
vn -0 -1.1920929E-07 -1
vn -0 -1.1920929E-07 -1
vn -0 -1.1920929E-07 -1
vn -0 -1.1920929E-07 -1
vn -0 -1.1920929E-07 -1
vn -0 -1.1920929E-07 -1
vn -0 -1.1920929E-07 -1
vn -0 -1.1920929E-07 -1
vn -0 -1.1920929E-07 -1
vn -0 -1.1920929E-07 -1
vn -0 -1.1920929E-07 -1
vn -0.62597656 -0.77978516 -0.019836426
vn -0.62597656 -0.77978516 -0.019836426
vn -0.62597656 -0.77978516 -0.019836426
vn -0.62597656 -0.77978516 -0.019836426
vn -0.62597656 -0.77978516 -0.019836426
vn -0.62597656 -0.77978516 -0.019836426
vn -0.62597656 -0.77978516 -0.019836426
vn -0.62597656 -0.77978516 -0.019836426
vn -0.62597656 -0.77978516 -0.019836426
vn -0.7792969 0.62646484 -0.02468872
vn -0.7792969 0.62646484 -0.02468872
vn -0.7792969 0.62646484 -0.02468872
g DecalMesh_MetroArea_Decal_Ground_07__20_0
f 3/3/3 2/2/2 1/1/1
f 6/6/6 5/5/5 4/4/4
f 9/9/9 8/8/8 7/7/7
f 12/12/12 11/11/11 10/10/10
f 15/15/15 14/14/14 13/13/13
f 18/18/18 17/17/17 16/16/16
f 21/21/21 20/20/20 19/19/19
f 24/24/24 23/23/23 22/22/22
f 27/27/27 26/26/26 25/25/25
f 30/30/30 29/29/29 28/28/28
f 33/33/33 32/32/32 31/31/31
f 36/36/36 35/35/35 34/34/34
f 39/39/39 38/38/38 37/37/37
f 42/42/42 41/41/41 40/40/40
f 45/45/45 44/44/44 43/43/43
f 48/48/48 47/47/47 46/46/46
f 51/51/51 50/50/50 49/49/49
f 54/54/54 53/53/53 52/52/52
f 57/57/57 56/56/56 55/55/55
f 60/60/60 59/59/59 58/58/58
f 63/63/63 62/62/62 61/61/61
f 66/66/66 65/65/65 64/64/64
f 69/69/69 68/68/68 67/67/67
f 72/72/72 71/71/71 70/70/70
f 75/75/75 74/74/74 73/73/73
f 78/78/78 77/77/77 76/76/76
f 81/81/81 80/80/80 79/79/79
f 84/84/84 83/83/83 82/82/82
f 87/87/87 86/86/86 85/85/85
f 90/90/90 89/89/89 88/88/88
f 93/93/93 92/92/92 91/91/91
f 96/96/96 95/95/95 94/94/94
f 99/99/99 98/98/98 97/97/97
f 102/102/102 101/101/101 100/100/100
