g DecalMesh_MetroArea_Decal_Ground_27__34
v -0.5 0.6744081 -0.47056973
v -0.5 -0.70849526 -0.47056973
v 0.15914655 -0.70849514 -0.47056964
v -0.5 0.6895386 -0.47056973
v 0.16158712 -0.70849514 -0.47056964
v 0.21690023 -0.70849514 -0.47056964
v -0.5 0.6895386 -0.47056973
v -0.5 0.6879689 -0.47056973
v 0.16133556 -0.7084952 -0.47056964
v -0.5 0.6895386 -0.47056973
v 0.16133556 -0.7084952 -0.47056964
v 0.16158712 -0.70849514 -0.47056964
v -0.5 0.6879689 -0.47056973
v -0.5 0.6744081 -0.47056973
v 0.15914658 -0.7084952 -0.47056964
v -0.5 0.6879689 -0.47056973
v 0.15914658 -0.7084952 -0.47056964
v 0.16133556 -0.7084952 -0.47056964
v 0.49999997 0.7084952 -0.4705696
v -0.5 0.7084952 -0.47056973
v 0.21962565 -0.7084952 -0.47056964
v 0.49999997 0.7084952 -0.4705696
v 0.21962565 -0.7084952 -0.47056964
v 0.5 -0.7084952 -0.4705696
v -0.5 0.7084952 -0.47056973
v -0.5 0.6895386 -0.47056973
v 0.2169002 -0.7084952 -0.47056964
v -0.5 0.7084952 -0.47056973
v 0.2169002 -0.7084952 -0.47056964
v 0.21962565 -0.7084952 -0.47056964
v 0.3922095 -0.19687392 -0.03192514
v 0.39220777 0.7084952 -0.03192514
v 0.069260284 0.7084952 -0.030629948
v -0.034845922 -0.1968755 -0.03021241
v 0.3922095 -0.19687392 -0.03192514
v 0.06926029 0.7084952 -0.030629948
v -0.034845922 -0.1968755 -0.03021241
v 0.06926029 0.7084952 -0.030629948
v -0.0348491 0.7084952 -0.03021241
v -0.12131749 -0.19687524 -0.031925216
v -0.034845922 -0.1968755 -0.03021241
v -0.0348491 0.7084952 -0.03021241
v -0.12131749 -0.19687524 -0.031925216
v -0.0348491 0.7084952 -0.03021241
v -0.055929486 0.7084952 -0.030629965
v -0.12131749 -0.19687524 -0.031925216
v -0.055929486 0.7084952 -0.030629965
v -0.12131923 0.7084952 -0.031925216
v -0.13210545 -0.19687521 -0.055145293
v -0.12131749 -0.19687524 -0.031925216
v -0.12131923 0.7084952 -0.031925216
v -0.13210545 -0.19687521 -0.055145293
v -0.12131923 0.7084952 -0.031925216
v -0.123949155 0.7084952 -0.037585888
v -0.13210545 -0.19687521 -0.055145293
v -0.123949155 0.7084952 -0.037585888
v -0.13210863 0.7084952 -0.055145293
v -0.15540372 -0.19687515 -0.08734134
v -0.13210545 -0.19687521 -0.055145293
v -0.13210863 0.7084952 -0.055145293
v -0.15540372 -0.19687515 -0.08734134
v -0.13210863 0.7084952 -0.055145293
v -0.13778837 0.7084952 -0.06299416
v -0.15540372 -0.19687515 -0.08734134
v -0.13778837 0.70849526 -0.06299416
v -0.15540689 0.7084952 -0.08734134
v -0.1918379 -0.19687599 -0.11109167
v -0.15540372 -0.19687515 -0.08734134
v -0.15540689 0.7084952 -0.08734134
v -0.1918379 -0.19687599 -0.11109167
v -0.15540689 0.7084952 -0.08734134
v -0.16428895 0.7084952 -0.093131274
v -0.1918379 -0.19687599 -0.11109167
v -0.16428895 0.7084952 -0.093131274
v -0.19184108 0.7084952 -0.11109167
v -0.24587691 -0.19687584 -0.11902243
v -0.1918379 -0.19687599 -0.11109167
v -0.19184108 0.7084952 -0.11109167
v -0.24587691 -0.19687584 -0.11902243
v -0.19184108 0.7084952 -0.11109167
v -0.2050149 0.7084952 -0.11302506
v -0.24587691 -0.19687584 -0.11902243
v -0.2050149 0.7084952 -0.11302506
v -0.24588008 0.7084952 -0.11902243
v -0.20887244 -0.19687596 -0.3007775
v -0.20528556 0.7084952 -0.23875566
v -0.20887561 0.7084952 -0.3007775
v -0.25815642 -0.19687581 -0.35695273
v -0.20887244 -0.19687596 -0.3007775
v -0.20887561 0.7084952 -0.3007775
v -0.25815642 -0.19687581 -0.35695273
v -0.20887561 0.7084952 -0.3007775
v -0.22089024 0.7084952 -0.31447208
v -0.25815642 -0.19687581 -0.35695273
v -0.22089024 0.7084952 -0.3144721
v -0.2581596 0.7084952 -0.35695273
v -0.3311888 -0.19687659 -0.38256466
v -0.25815642 -0.19687581 -0.35695273
v -0.2581596 0.7084952 -0.35695273
v -0.3311888 -0.19687659 -0.38256466
v -0.2581596 0.7084952 -0.35695273
v -0.27596363 0.7084952 -0.3631965
v -0.3311888 -0.19687659 -0.38256466
v -0.27596363 0.7084952 -0.3631965
v -0.33119053 0.7084952 -0.38256466
v -0.41500345 -0.19687629 -0.35268414
v -0.3311888 -0.19687659 -0.38256466
v -0.33119053 0.7084952 -0.38256466
v -0.41500345 -0.19687629 -0.35268414
v -0.33119053 0.7084952 -0.38256466
v -0.35162312 0.7084952 -0.3752803
v -0.41500345 -0.19687629 -0.35268414
v -0.35162312 0.7084952 -0.3752803
v -0.41500518 0.7084952 -0.35268414
v -0.4660937 -0.19687614 -0.27609646
v -0.41500345 -0.19687629 -0.35268414
v -0.41500518 0.7084952 -0.35268414
v -0.4660937 -0.19687614 -0.27609646
v -0.41500518 0.7084952 -0.35268414
v -0.4274601 0.7084952 -0.3340134
v -0.4660937 -0.19687614 -0.27609646
v -0.4274601 0.7084952 -0.3340134
v -0.46609542 0.7084952 -0.27609646
v 0.5 0.27817163 -0.37954828
v 0.5 0.7084952 -0.37955242
v 0.48714894 0.7084952 -0.33984727
v 0.38554576 -0.014331065 -0.025928438
v 0.5 -0.14954722 -0.37954476
v 0.47694808 0.7084953 -0.30833063
v 0.38554576 -0.014331065 -0.025928438
v 0.47694808 0.7084953 -0.30833063
v 0.38554385 0.70849526 -0.025928438
v 0.5 -0.14954722 -0.37954476
v 0.5 0.27817172 -0.37954825
v 0.48714894 0.70849526 -0.33984724
v 0.5 -0.14954722 -0.37954476
v 0.48714894 0.70849526 -0.33984724
v 0.47694808 0.7084953 -0.30833063
v 0.38554576 -0.014331065 -0.025928438
v -0.40423593 -0.014333479 -0.025928557
v 0.5 -0.16301237 -0.41475862
v 0.38554576 -0.014331065 -0.025928438
v 0.5 -0.16301237 -0.41475862
v 0.5 -0.14954722 -0.37954476
v 0.5 -0.16518945 -0.42045212
v -0.40423593 -0.014333479 -0.025928557
v -0.5 -0.12706433 -0.32074106
v 0.5 -0.16518945 -0.42045212
v -0.5 -0.12706433 -0.32074106
v -0.5 -0.16519196 -0.42045224
v -0.40423593 -0.014333479 -0.025928557
v 0.5 -0.16518945 -0.42045212
v 0.5 -0.16301237 -0.41475862
v -0.40423593 -0.014333479 -0.025928557
v -0.4042382 0.70849526 -0.025928557
v -0.5 0.055625953 -0.3207393
v -0.40423593 -0.014333479 -0.025928557
v -0.5 0.055625953 -0.3207393
v -0.5 -0.12706433 -0.32074106
v -0.4042382 0.70849526 -0.025928557
v -0.5 0.7084952 -0.3207331
v -0.5 0.055625953 -0.3207393
vt 0.1394043 0.26733398
vt 0.1394043 0.089782715
vt 0.051971436 0.089782715
vt 0.1394043 0.2692871
vt 0.05166626 0.089782715
vt 0.04434204 0.089782715
vt 0.1394043 0.2692871
vt 0.1394043 0.26904297
vt 0.051696777 0.089782715
vt 0.1394043 0.2692871
vt 0.051696777 0.089782715
vt 0.05166626 0.089782715
vt 0.1394043 0.26904297
vt 0.1394043 0.26733398
vt 0.051971436 0.089782715
vt 0.1394043 0.26904297
vt 0.051971436 0.089782715
vt 0.051696777 0.089782715
vt 0.006801605 0.27172852
vt 0.1394043 0.27172852
vt 0.04397583 0.089782715
vt 0.006801605 0.27172852
vt 0.04397583 0.089782715
vt 0.006801605 0.089782715
vt 0.1394043 0.27172852
vt 0.1394043 0.2692871
vt 0.04434204 0.089782715
vt 0.1394043 0.27172852
vt 0.04434204 0.089782715
vt 0.04397583 0.089782715
vt 0.021087646 0.15551758
vt 0.021087646 0.27172852
vt 0.06390381 0.27172852
vt 0.077697754 0.15551758
vt 0.021087646 0.15551758
vt 0.06390381 0.27172852
vt 0.077697754 0.15551758
vt 0.06390381 0.27172852
vt 0.077697754 0.27172852
vt 0.08917236 0.15551758
vt 0.077697754 0.15551758
vt 0.077697754 0.27172852
vt 0.08917236 0.15551758
vt 0.077697754 0.27172852
vt 0.08050537 0.27172852
vt 0.08917236 0.15551758
vt 0.08050537 0.27172852
vt 0.08917236 0.27172852
vt 0.09057617 0.15551758
vt 0.08917236 0.15551758
vt 0.08917236 0.27172852
vt 0.09057617 0.15551758
vt 0.08917236 0.27172852
vt 0.089538574 0.27172852
vt 0.09057617 0.15551758
vt 0.089538574 0.27172852
vt 0.09057617 0.27172852
vt 0.093688965 0.15551758
vt 0.09057617 0.15551758
vt 0.09057617 0.27172852
vt 0.093688965 0.15551758
vt 0.09057617 0.27172852
vt 0.09136963 0.27172852
vt 0.093688965 0.15551758
vt 0.09136963 0.27172852
vt 0.093688965 0.27172852
vt 0.09851074 0.15551758
vt 0.093688965 0.15551758
vt 0.093688965 0.27172852
vt 0.09851074 0.15551758
vt 0.093688965 0.27172852
vt 0.09484863 0.27172852
vt 0.09851074 0.15551758
vt 0.09484863 0.27172852
vt 0.09851074 0.27172852
vt 0.105651855 0.15551758
vt 0.09851074 0.15551758
vt 0.09851074 0.27172852
vt 0.105651855 0.15551758
vt 0.09851074 0.27172852
vt 0.10028076 0.27172852
vt 0.105651855 0.15551758
vt 0.10028076 0.27172852
vt 0.105651855 0.27172852
vt 0.10076904 0.15551758
vt 0.10028076 0.27172852
vt 0.10076904 0.27172852
vt 0.107299805 0.15551758
vt 0.10076904 0.15551758
vt 0.10076904 0.27172852
vt 0.107299805 0.15551758
vt 0.10076904 0.27172852
vt 0.10235596 0.27172852
vt 0.107299805 0.15551758
vt 0.10235596 0.27172852
vt 0.107299805 0.27172852
vt 0.117004395 0.15551758
vt 0.107299805 0.15551758
vt 0.107299805 0.27172852
vt 0.117004395 0.15551758
vt 0.107299805 0.27172852
vt 0.109680176 0.27172852
vt 0.117004395 0.15551758
vt 0.109680176 0.27172852
vt 0.117004395 0.27172852
vt 0.12805176 0.15551758
vt 0.117004395 0.15551758
vt 0.117004395 0.27172852
vt 0.12805176 0.15551758
vt 0.117004395 0.27172852
vt 0.11968994 0.27172852
vt 0.12805176 0.15551758
vt 0.11968994 0.27172852
vt 0.12805176 0.27172852
vt 0.1348877 0.15551758
vt 0.12805176 0.15551758
vt 0.12805176 0.27172852
vt 0.1348877 0.15551758
vt 0.12805176 0.27172852
vt 0.12976074 0.27172852
vt 0.1348877 0.15551758
vt 0.12976074 0.27172852
vt 0.1348877 0.27172852
vt 0.006801605 0.21643066
vt 0.006801605 0.27172852
vt 0.008506775 0.27172852
vt 0.021972656 0.17895508
vt 0.006801605 0.1616211
vt 0.009857178 0.27172852
vt 0.021972656 0.17895508
vt 0.009857178 0.27172852
vt 0.021972656 0.27172852
vt 0.006801605 0.1616211
vt 0.006801605 0.21643066
vt 0.008506775 0.27172852
vt 0.006801605 0.1616211
vt 0.008506775 0.27172852
vt 0.009857178 0.27172852
vt 0.021972656 0.17895508
vt 0.12670898 0.17895508
vt 0.006801605 0.15979004
vt 0.021972656 0.17895508
vt 0.006801605 0.15979004
vt 0.006801605 0.1616211
vt 0.006801605 0.1595459
vt 0.12670898 0.17895508
vt 0.1394043 0.16442871
vt 0.006801605 0.1595459
vt 0.1394043 0.16442871
vt 0.1394043 0.1595459
vt 0.12670898 0.17895508
vt 0.006801605 0.1595459
vt 0.006801605 0.15979004
vt 0.12670898 0.17895508
vt 0.12670898 0.27172852
vt 0.1394043 0.18786621
vt 0.12670898 0.17895508
vt 0.1394043 0.18786621
vt 0.1394043 0.16442871
vt 0.12670898 0.27172852
vt 0.1394043 0.27172852
vt 0.1394043 0.18786621
vn -0 -1.1920929E-07 -1
vn -0 -1.1920929E-07 -1
vn -0 -1.1920929E-07 -1
vn -0 -1.1920929E-07 -1
vn -0 -1.1920929E-07 -1
vn -0 -1.1920929E-07 -1
vn -0 -1.1920929E-07 -1
vn -0 -1.1920929E-07 -1
vn -0 -1.1920929E-07 -1
vn -0 -1.1920929E-07 -1
vn -0 -1.1920929E-07 -1
vn -0 -1.1920929E-07 -1
vn -0 -1.1920929E-07 -1
vn -0 -1.1920929E-07 -1
vn -0 -1.1920929E-07 -1
vn -0 -1.1920929E-07 -1
vn -0 -1.1920929E-07 -1
vn -0 -1.1920929E-07 -1
vn -0 -1.1920929E-07 -1
vn -0 -1.1920929E-07 -1
vn -0 -1.1920929E-07 -1
vn -0 -1.1920929E-07 -1
vn -0 -1.1920929E-07 -1
vn -0 -1.1920929E-07 -1
vn -0 -1.1920929E-07 -1
vn -0 -1.1920929E-07 -1
vn -0 -1.1920929E-07 -1
vn -0 -1.1920929E-07 -1
vn -0 -1.1920929E-07 -1
vn -0 -1.1920929E-07 -1
vn -0.0045776367 -1.1920929E-07 -1
vn -0.0045776367 -1.1920929E-07 -1
vn -0.001115799 -1.1920929E-07 -1
vn -0 -1.1920929E-07 -1
vn -0.0045776367 -1.1920929E-07 -1
vn -0.001115799 -1.1920929E-07 -1
vn -0 -1.1920929E-07 -1
vn -0.001115799 -1.1920929E-07 -1
vn -0 -1.1920929E-07 -1
vn 0.019836426 -5.9604645E-08 -1
vn -0 -1.1920929E-07 -1
vn -0 -1.1920929E-07 -1
vn 0.019836426 -5.9604645E-08 -1
vn -0 -1.1920929E-07 -1
vn 0.004837036 -1.1920929E-07 -1
vn 0.019836426 -5.9604645E-08 -1
vn 0.004837036 -1.1920929E-07 -1
vn 0.019836426 -5.9604645E-08 -1
vn 0.8515625 2.3841858E-06 -0.5239258
vn 0.9067383 2.6226044E-06 -0.42163086
vn 0.9067383 2.6226044E-06 -0.42163086
vn 0.8515625 2.3841858E-06 -0.5239258
vn 0.9067383 2.6226044E-06 -0.42163086
vn 0.8935547 2.5629997E-06 -0.4465332
vn 0.8515625 2.3841858E-06 -0.5239258
vn 0.8935547 2.5629997E-06 -0.4465332
vn 0.8515625 2.3841858E-06 -0.5239258
vn 0.68359375 1.9669533E-06 -0.72998047
vn 0.8515625 2.3841858E-06 -0.5239258
vn 0.8515625 2.3841858E-06 -0.5239258
vn 0.68359375 1.9669533E-06 -0.72998047
vn 0.8515625 2.3841858E-06 -0.5239258
vn 0.8105469 2.2649765E-06 -0.57421875
vn 0.68359375 1.9669533E-06 -0.72998047
vn 0.8105469 2.2649765E-06 -0.57421875
vn 0.68359375 1.9669533E-06 -0.72998047
vn 0.3310547 8.34465E-07 -0.94384766
vn 0.68359375 1.9669533E-06 -0.72998047
vn 0.68359375 1.9669533E-06 -0.72998047
vn 0.3310547 8.34465E-07 -0.94384766
vn 0.68359375 1.9669533E-06 -0.72998047
vn 0.59765625 1.66893E-06 -0.7817383
vn 0.3310547 8.34465E-07 -0.94384766
vn 0.59765625 1.66893E-06 -0.7817383
vn 0.3310547 8.34465E-07 -0.94384766
vn 0.14489746 2.9802322E-07 -0.9892578
vn 0.3310547 8.34465E-07 -0.94384766
vn 0.3310547 8.34465E-07 -0.94384766
vn 0.14489746 2.9802322E-07 -0.9892578
vn 0.3310547 8.34465E-07 -0.94384766
vn 0.28564453 7.1525574E-07 -0.95458984
vn 0.14489746 2.9802322E-07 -0.9892578
vn 0.28564453 7.1525574E-07 -0.95458984
vn 0.14489746 2.9802322E-07 -0.9892578
vn 0.93115234 2.682209E-06 -0.36499023
vn 0.96240234 2.8014183E-06 0.087768555
vn 0.93115234 2.682209E-06 -0.36499023
vn 0.55566406 1.4901161E-06 -0.83154297
vn 0.93115234 2.682209E-06 -0.36499023
vn 0.93115234 2.682209E-06 -0.36499023
vn 0.55566406 1.4901161E-06 -0.83154297
vn 0.93115234 2.682209E-06 -0.36499023
vn 0.83935547 2.3841858E-06 -0.47875977
vn 0.55566406 1.4901161E-06 -0.83154297
vn 0.83935547 2.3841858E-06 -0.47875977
vn 0.55566406 1.4901161E-06 -0.83154297
vn -0.02746582 -2.3841858E-07 -0.9995117
vn 0.55566406 1.4901161E-06 -0.83154297
vn 0.55566406 1.4901161E-06 -0.83154297
vn -0.02746582 -2.3841858E-07 -0.9995117
vn 0.55566406 1.4901161E-06 -0.83154297
vn 0.41333008 1.0728836E-06 -0.8725586
vn -0.02746582 -2.3841858E-07 -0.9995117
vn 0.41333008 1.0728836E-06 -0.8725586
vn -0.02746582 -2.3841858E-07 -0.9995117
vn -0.6196289 -1.9073486E-06 -0.78515625
vn -0.02746582 -2.3841858E-07 -0.9995117
vn -0.02746582 -2.3841858E-07 -0.9995117
vn -0.6196289 -1.9073486E-06 -0.78515625
vn -0.02746582 -2.3841858E-07 -0.9995117
vn -0.17175293 -6.556511E-07 -0.9472656
vn -0.6196289 -1.9073486E-06 -0.78515625
vn -0.17175293 -6.556511E-07 -0.9472656
vn -0.6196289 -1.9073486E-06 -0.78515625
vn -0.83154297 -2.4437904E-06 -0.5551758
vn -0.6196289 -1.9073486E-06 -0.78515625
vn -0.6196289 -1.9073486E-06 -0.78515625
vn -0.83154297 -2.4437904E-06 -0.5551758
vn -0.6196289 -1.9073486E-06 -0.78515625
vn -0.6713867 -2.026558E-06 -0.7290039
vn -0.83154297 -2.4437904E-06 -0.5551758
vn -0.6713867 -2.026558E-06 -0.7290039
vn -0.83154297 -2.4437904E-06 -0.5551758
vn -0.95166016 -2.8014183E-06 -0.30664062
vn -0.95166016 -2.8014183E-06 -0.30664062
vn -0.95166016 -2.8014183E-06 -0.30664062
vn -0.95166016 -2.8014183E-06 -0.30737305
vn -0.95166016 -2.8014183E-06 -0.30664062
vn -0.95166016 -2.8014183E-06 -0.30664062
vn -0.95166016 -2.8014183E-06 -0.30737305
vn -0.95166016 -2.8014183E-06 -0.30664062
vn -0.95166016 -2.8014183E-06 -0.30737305
vn -0.95166016 -2.8014183E-06 -0.30664062
vn -0.95166016 -2.8014183E-06 -0.30664062
vn -0.95166016 -2.8014183E-06 -0.30664062
vn -0.95166016 -2.8014183E-06 -0.30664062
vn -0.95166016 -2.8014183E-06 -0.30664062
vn -0.95166016 -2.8014183E-06 -0.30664062
vn -2.8014183E-06 0.93408203 -0.35717773
vn -2.8014183E-06 0.93408203 -0.35717773
vn -2.8014183E-06 0.93408203 -0.35766602
vn -2.8014183E-06 0.93408203 -0.35717773
vn -2.8014183E-06 0.93408203 -0.35766602
vn -2.8014183E-06 0.93408203 -0.35742188
vn -2.8014183E-06 0.93408203 -0.35766602
vn -2.8014183E-06 0.93408203 -0.35717773
vn -2.8014183E-06 0.93408203 -0.35742188
vn -2.8014183E-06 0.93408203 -0.35766602
vn -2.8014183E-06 0.93408203 -0.35742188
vn -2.8014183E-06 0.93408203 -0.35766602
vn -2.8014183E-06 0.93408203 -0.35717773
vn -2.8014183E-06 0.93408203 -0.35766602
vn -2.8014183E-06 0.93408203 -0.35766602
vn 0.9511719 2.7418137E-06 -0.30908203
vn 0.9511719 2.7418137E-06 -0.30908203
vn 0.9511719 2.7418137E-06 -0.30859375
vn 0.9511719 2.7418137E-06 -0.30908203
vn 0.9511719 2.7418137E-06 -0.30859375
vn 0.9511719 2.7418137E-06 -0.30859375
vn 0.9511719 2.7418137E-06 -0.30908203
vn 0.9511719 2.7418137E-06 -0.30859375
vn 0.9511719 2.7418137E-06 -0.30859375
g DecalMesh_MetroArea_Decal_Ground_27__34_0
f 3/3/3 2/2/2 1/1/1
f 6/6/6 5/5/5 4/4/4
f 9/9/9 8/8/8 7/7/7
f 12/12/12 11/11/11 10/10/10
f 15/15/15 14/14/14 13/13/13
f 18/18/18 17/17/17 16/16/16
f 21/21/21 20/20/20 19/19/19
f 24/24/24 23/23/23 22/22/22
f 27/27/27 26/26/26 25/25/25
f 30/30/30 29/29/29 28/28/28
f 33/33/33 32/32/32 31/31/31
f 36/36/36 35/35/35 34/34/34
f 39/39/39 38/38/38 37/37/37
f 42/42/42 41/41/41 40/40/40
f 45/45/45 44/44/44 43/43/43
f 48/48/48 47/47/47 46/46/46
f 51/51/51 50/50/50 49/49/49
f 54/54/54 53/53/53 52/52/52
f 57/57/57 56/56/56 55/55/55
f 60/60/60 59/59/59 58/58/58
f 63/63/63 62/62/62 61/61/61
f 66/66/66 65/65/65 64/64/64
f 69/69/69 68/68/68 67/67/67
f 72/72/72 71/71/71 70/70/70
f 75/75/75 74/74/74 73/73/73
f 78/78/78 77/77/77 76/76/76
f 81/81/81 80/80/80 79/79/79
f 84/84/84 83/83/83 82/82/82
f 87/87/87 86/86/86 85/85/85
f 90/90/90 89/89/89 88/88/88
f 93/93/93 92/92/92 91/91/91
f 96/96/96 95/95/95 94/94/94
f 99/99/99 98/98/98 97/97/97
f 102/102/102 101/101/101 100/100/100
f 105/105/105 104/104/104 103/103/103
f 108/108/108 107/107/107 106/106/106
f 111/111/111 110/110/110 109/109/109
f 114/114/114 113/113/113 112/112/112
f 117/117/117 116/116/116 115/115/115
f 120/120/120 119/119/119 118/118/118
f 123/123/123 122/122/122 121/121/121
f 126/126/126 125/125/125 124/124/124
f 129/129/129 128/128/128 127/127/127
f 132/132/132 131/131/131 130/130/130
f 135/135/135 134/134/134 133/133/133
f 138/138/138 137/137/137 136/136/136
f 141/141/141 140/140/140 139/139/139
f 144/144/144 143/143/143 142/142/142
f 147/147/147 146/146/146 145/145/145
f 150/150/150 149/149/149 148/148/148
f 153/153/153 152/152/152 151/151/151
f 156/156/156 155/155/155 154/154/154
f 159/159/159 158/158/158 157/157/157
f 162/162/162 161/161/161 160/160/160
