g DecalMesh_Common_Decal_Sign_11__19
v 0.26967752 0.2661013 0.0062033786
v 0.09145587 -0.26509705 -0.02674088
v 0.26967752 -0.26509708 -0.028457206
v 0.26967752 0.2661013 0.0062033786
v 0.053105824 0.26610124 0.008289019
v -0.05850053 -0.26509708 -0.025296763
v 0.26967752 0.2661013 0.0062033786
v -0.05850053 -0.26509708 -0.025296763
v 0.08453633 -0.26509702 -0.026674243
v 0.26967752 0.2661013 0.0062033786
v 0.08453633 -0.26509702 -0.026674243
v 0.09145587 -0.26509705 -0.02674088
v 0.053105824 0.26610133 0.008289019
v -0.27559245 0.26610124 0.011453891
v -0.27559245 -0.26509708 -0.023206493
v 0.053105824 0.26610133 0.008289019
v -0.27559245 -0.26509708 -0.023206493
v -0.05850053 -0.26509702 -0.025296763
vt -0.2927246 0.9448242
vt -0.27490234 0.89160156
vt -0.2927246 0.89160156
vt -0.2927246 0.9448242
vt -0.2709961 0.9448242
vt -0.25976562 0.89160156
vt -0.2927246 0.9448242
vt -0.25976562 0.89160156
vt -0.27416992 0.89160156
vt -0.2927246 0.9448242
vt -0.27416992 0.89160156
vt -0.27490234 0.89160156
vt -0.2709961 0.9448242
vt -0.23815918 0.9448242
vt -0.23815918 0.89160156
vt -0.2709961 0.9448242
vt -0.23815918 0.89160156
vt -0.25976562 0.89160156
vn -0.026351929 0.06506348 -0.9975586
vn -0.015838623 0.06506348 -0.9975586
vn -0.026351929 0.06506348 -0.9975586
vn -0.026351929 0.06506348 -0.9975586
vn -0.013580322 0.06512451 -0.9975586
vn -0.0069885254 0.06512451 -0.9975586
vn -0.026351929 0.06506348 -0.9975586
vn -0.0069885254 0.06512451 -0.9975586
vn -0.015426636 0.06506348 -0.9975586
vn -0.026351929 0.06506348 -0.9975586
vn -0.015426636 0.06506348 -0.9975586
vn -0.015838623 0.06506348 -0.9975586
vn -0.013580322 0.06512451 -0.9975586
vn 0.005809784 0.06512451 -0.9980469
vn 0.0058174133 0.06512451 -0.9980469
vn -0.013580322 0.06512451 -0.9975586
vn 0.0058174133 0.06512451 -0.9980469
vn -0.0069885254 0.06512451 -0.9975586
g DecalMesh_Common_Decal_Sign_11__19_0
f 3/3/3 2/2/2 1/1/1
f 6/6/6 5/5/5 4/4/4
f 9/9/9 8/8/8 7/7/7
f 12/12/12 11/11/11 10/10/10
f 15/15/15 14/14/14 13/13/13
f 18/18/18 17/17/17 16/16/16
