g DecalMesh_Common_Decal_Sign_08__73
v 0.75909233 0.2326023 -0.25177076
v -0.75909215 -0.020125927 -0.2517797
v -0.45706356 -0.23260236 -0.25177792
v 0.75909233 0.2326023 -0.25177076
v -0.45706356 -0.23260236 -0.25177792
v 0.75909233 -0.23260231 -0.25177073
v -0.75909215 -0.020125927 -0.2517797
v -0.75909215 -0.23260233 -0.25177968
v -0.45706362 -0.23260233 -0.25177792
v 0.75909233 0.2326023 -0.25177076
v -0.75909245 0.2326023 -0.25177974
v -0.7590924 -0.020125967 -0.2517797
vt -0.48754883 0.99658203
vt -0.3359375 0.9711914
vt -0.3659668 0.94970703
vt -0.48754883 0.99658203
vt -0.3659668 0.94970703
vt -0.48754883 0.94970703
vt -0.3359375 0.9711914
vt -0.3359375 0.94970703
vt -0.3659668 0.94970703
vt -0.48754883 0.99658203
vt -0.3359375 0.99658203
vt -0.3359375 0.9711914
vn 5.90086E-06 -5.9604645E-08 -1
vn 5.90086E-06 -5.9604645E-08 -1
vn 5.90086E-06 -5.9604645E-08 -1
vn 5.90086E-06 -5.9604645E-08 -1
vn 5.90086E-06 -5.9604645E-08 -1
vn 5.90086E-06 -5.9604645E-08 -1
vn 5.90086E-06 -5.9604645E-08 -1
vn 5.90086E-06 -5.9604645E-08 -1
vn 5.90086E-06 -5.9604645E-08 -1
vn 5.90086E-06 -5.9604645E-08 -1
vn 5.90086E-06 -5.9604645E-08 -1
vn 5.90086E-06 -5.9604645E-08 -1
g DecalMesh_Common_Decal_Sign_08__73_0
f 3/3/3 2/2/2 1/1/1
f 6/6/6 5/5/5 4/4/4
f 9/9/9 8/8/8 7/7/7
f 12/12/12 11/11/11 10/10/10
