g DecalMesh_MetroArea_Decal_Ground_28__16
v 0.075933516 0.49803352 -0.0632706
v 0.07593341 -0.4980336 -0.0721223
v 0.07593341 -0.4980336 -0.0632706
v 0.075933516 0.49803352 -0.0632706
v 0.075933516 0.49803352 -0.06917835
v 0.07593341 -0.49803358 -0.07279981
v 0.075933516 0.49803352 -0.0632706
v 0.07593341 -0.49803358 -0.07279981
v 0.07593341 -0.49803358 -0.0721223
v 0.075933516 0.49803352 -0.06917835
v -1.750484 -0.32392433 -0.09325483
v -0.7014664 -0.49803358 -0.08177576
v 0.075933516 0.49803352 -0.06917835
v -0.7014664 -0.49803358 -0.08177576
v 0.07593341 -0.49803358 -0.07279981
v -1.750484 -0.32392433 -0.09325483
v -1.750484 -0.49803358 -0.09388784
v -0.7014664 -0.49803358 -0.08177576
v 0.075933516 0.49803352 -0.06917835
v -1.4012525 0.4980336 -0.08623412
v -1.750484 0.11387887 -0.091663085
v 0.075933516 0.49803352 -0.06917835
v -1.750484 0.11387887 -0.091663085
v -1.750484 -0.32392433 -0.09325483
v -1.4012525 0.4980336 -0.08623412
v -1.750484 0.4980336 -0.08623405
v -1.750484 0.11387887 -0.091663085
v 1.0987469 0.49803355 -0.06327088
v 0.075933516 0.49803358 -0.0632706
v 0.07593341 -0.49803358 -0.0632706
v 1.0987469 0.49803355 -0.06327088
v 0.07593341 -0.49803358 -0.0632706
v 0.19323142 -0.49803358 -0.06327063
v 1.7504841 0.4980336 -0.06327106
v 0.26797375 -0.49803358 -0.06327065
v 1.7504842 -0.49803358 -0.06327106
v 1.7504841 0.4980336 -0.06327106
v 1.098747 0.4980336 -0.06327088
v 0.19323143 -0.49803358 -0.06327063
v 1.7504841 0.4980336 -0.06327106
v 0.19323143 -0.49803358 -0.06327063
v 0.26797378 -0.49803358 -0.06327065
vt 0.81396484 0.3984375
vt 0.81396484 0.32714844
vt 0.81396484 0.32714844
vt 0.81396484 0.3984375
vt 0.81396484 0.3984375
vt 0.81396484 0.32714844
vt 0.81396484 0.3984375
vt 0.81396484 0.32714844
vt 0.81396484 0.32714844
vt 0.81396484 0.3984375
vt 0.99121094 0.3395996
vt 0.88964844 0.32714844
vt 0.81396484 0.3984375
vt 0.88964844 0.32714844
vt 0.81396484 0.32714844
vt 0.99121094 0.3395996
vt 0.99121094 0.32714844
vt 0.88964844 0.32714844
vt 0.81396484 0.3984375
vt 0.95751953 0.3984375
vt 0.99121094 0.3708496
vt 0.81396484 0.3984375
vt 0.99121094 0.3708496
vt 0.99121094 0.3395996
vt 0.95751953 0.3984375
vt 0.99121094 0.3984375
vt 0.99121094 0.3708496
vt 0.71484375 0.3984375
vt 0.81396484 0.3984375
vt 0.81396484 0.32714844
vt 0.71484375 0.3984375
vt 0.81396484 0.32714844
vt 0.8027344 0.32714844
vt 0.6513672 0.3984375
vt 0.79541016 0.32714844
vt 0.6513672 0.32714844
vt 0.6513672 0.3984375
vt 0.71484375 0.3984375
vt 0.8027344 0.32714844
vt 0.6513672 0.3984375
vt 0.8027344 0.32714844
vt 0.79541016 0.32714844
vn 1 1.7881393E-07 -2.3841858E-07
vn 1 1.7881393E-07 -2.3841858E-07
vn 1 1.7881393E-07 -2.3841858E-07
vn 1 1.7881393E-07 -2.3841858E-07
vn 1 1.7881393E-07 -2.3841858E-07
vn 1 1.7881393E-07 -2.3841858E-07
vn 1 1.7881393E-07 -2.3841858E-07
vn 1 1.7881393E-07 -2.3841858E-07
vn 1 1.7881393E-07 -2.3841858E-07
vn 0.004196167 0.007106781 -1
vn 0.0053482056 0.009056091 -1
vn 0.005592346 0.009468079 -1
vn 0.004196167 0.007106781 -1
vn 0.005592346 0.009468079 -1
vn 0.005592346 0.009468079 -1
vn 0.0053482056 0.009056091 -1
vn 0.005592346 0.009468079 -1
vn 0.005592346 0.009468079 -1
vn 0.004196167 0.007106781 -1
vn 0.004196167 0.007106781 -1
vn 0.0047340393 0.008018494 -1
vn 0.004196167 0.007106781 -1
vn 0.0047340393 0.008018494 -1
vn 0.0053482056 0.009056091 -1
vn 0.004196167 0.007106781 -1
vn 0.004333496 0.007335663 -1
vn 0.0047340393 0.008018494 -1
vn -5.9604645E-08 -1.1920929E-07 -1
vn 0.00078725815 0.001332283 -1
vn 9.018183E-05 0.0001527071 -1
vn -5.9604645E-08 -1.1920929E-07 -1
vn 9.018183E-05 0.0001527071 -1
vn -5.9604645E-08 -1.1920929E-07 -1
vn -5.9604645E-08 -1.1920929E-07 -1
vn -5.9604645E-08 -1.1920929E-07 -1
vn -5.9604645E-08 -1.1920929E-07 -1
vn -5.9604645E-08 -1.1920929E-07 -1
vn -5.9604645E-08 -1.1920929E-07 -1
vn -5.9604645E-08 -1.1920929E-07 -1
vn -5.9604645E-08 -1.1920929E-07 -1
vn -5.9604645E-08 -1.1920929E-07 -1
vn -5.9604645E-08 -1.1920929E-07 -1
g DecalMesh_MetroArea_Decal_Ground_28__16_0
f 3/3/3 2/2/2 1/1/1
f 6/6/6 5/5/5 4/4/4
f 9/9/9 8/8/8 7/7/7
f 12/12/12 11/11/11 10/10/10
f 15/15/15 14/14/14 13/13/13
f 18/18/18 17/17/17 16/16/16
f 21/21/21 20/20/20 19/19/19
f 24/24/24 23/23/23 22/22/22
f 27/27/27 26/26/26 25/25/25
f 30/30/30 29/29/29 28/28/28
f 33/33/33 32/32/32 31/31/31
f 36/36/36 35/35/35 34/34/34
f 39/39/39 38/38/38 37/37/37
f 42/42/42 41/41/41 40/40/40
