g DecalMesh_MetroArea_Decal_Wall_15__48
v 0.002522006 0.44924945 0.32136637
v -0.6935615 0.44924948 0.32136023
v -0.69356155 -0.073490426 0.32136023
v 0.6935615 0.4492495 0.32137248
v -0.69356143 -0.41594595 0.32136023
v -0.66604304 -0.44924954 0.32136047
v 0.6935615 0.4492495 0.32137248
v -0.66604304 -0.44924954 0.32136047
v 0.69356155 -0.44924957 0.32137248
v -0.69356143 -0.41594595 0.32136023
v -0.69356143 -0.4492495 0.32136023
v -0.6660431 -0.4492495 0.32136047
v 0.6935615 0.4492495 0.32137248
v 0.002522078 0.4492495 0.32136637
v -0.6935616 -0.073490456 0.32136023
v 0.6935615 0.4492495 0.32137248
v -0.6935616 -0.073490456 0.32136023
v -0.69356143 -0.41594595 0.32136023
vt 0.6411133 0.64404297
vt 0.7285156 0.64404297
vt 0.7285156 0.5786133
vt 0.5551758 0.64404297
vt 0.7285156 0.5361328
vt 0.72509766 0.5317383
vt 0.5551758 0.64404297
vt 0.72509766 0.5317383
vt 0.5551758 0.5317383
vt 0.7285156 0.5361328
vt 0.7285156 0.5317383
vt 0.72509766 0.5317383
vt 0.5551758 0.64404297
vt 0.6411133 0.64404297
vt 0.7285156 0.5786133
vt 0.5551758 0.64404297
vt 0.7285156 0.5786133
vt 0.7285156 0.5361328
vn 8.6426735E-06 0 -1
vn 8.6426735E-06 0 -1
vn 8.6426735E-06 0 -1
vn 8.6426735E-06 0 -1
vn 8.6426735E-06 0 -1
vn 8.6426735E-06 0 -1
vn 8.6426735E-06 0 -1
vn 8.6426735E-06 0 -1
vn 8.6426735E-06 0 -1
vn 8.6426735E-06 0 -1
vn 8.6426735E-06 0 -1
vn 8.6426735E-06 0 -1
vn 8.6426735E-06 0 -1
vn 8.6426735E-06 0 -1
vn 8.6426735E-06 0 -1
vn 8.6426735E-06 0 -1
vn 8.6426735E-06 0 -1
vn 8.6426735E-06 0 -1
g DecalMesh_MetroArea_Decal_Wall_15__48_0
f 3/3/3 2/2/2 1/1/1
f 6/6/6 5/5/5 4/4/4
f 9/9/9 8/8/8 7/7/7
f 12/12/12 11/11/11 10/10/10
f 15/15/15 14/14/14 13/13/13
f 18/18/18 17/17/17 16/16/16
