g DecalMesh_MetroArea_Decal_Ground_28__45
v 1 0.22527108 -0.84508145
v 0.71809113 0.26009518 -0.84508145
v -1 0.23252296 -0.84508145
v 1 0.22527108 -0.84508145
v -1 0.23252296 -0.84508145
v -1 0.22526954 -0.84508145
v 0.71809113 0.26009518 -0.84508145
v -1 0.26009518 -0.84508145
v -1 0.23252296 -0.84508145
v 1 0.22527108 -0.84508145
v 1 0.23108661 -0.84508145
v 0.76057214 0.26009518 -0.84508145
v 1 0.22527108 -0.84508145
v 0.76057214 0.26009518 -0.84508145
v 0.71809113 0.26009518 -0.84508145
v 1.0000001 0.2310866 -0.84508145
v 1.0000001 0.26009518 -0.84508145
v 0.7605722 0.26009518 -0.84508145
v -1 -0.19830333 -0.8450814
v -1 -0.26009518 -0.8450814
v -0.93406105 -0.26009518 -0.8450814
v -1 -0.19016981 -0.8450814
v -0.9257041 -0.26009518 -0.8450814
v -0.92392075 -0.26009518 -0.8450814
v -1 -0.19016981 -0.8450814
v -1 -0.19830336 -0.8450814
v -0.93406105 -0.2600952 -0.8450814
v -1 -0.19016981 -0.8450814
v -0.93406105 -0.2600952 -0.8450814
v -0.9257041 -0.26009515 -0.8450814
v 1.0000001 0.22527108 -0.84508145
v -1 0.22526954 -0.84508145
v -0.5692662 -0.26009518 -0.8450814
v 1.0000001 0.22527108 -0.84508145
v -0.5692662 -0.26009518 -0.8450814
v 1.0000001 -0.2600952 -0.8450814
v -1 0.22526954 -0.84508145
v -1 -0.19016981 -0.8450814
v -0.92392075 -0.2600952 -0.8450814
v -1 0.22526954 -0.84508145
v -0.92392075 -0.2600952 -0.8450814
v -0.5692662 -0.26009518 -0.8450814
vt 0.65478516 0.39379883
vt 0.70214844 0.3984375
vt 0.99121094 0.3947754
vt 0.65478516 0.39379883
vt 0.99121094 0.3947754
vt 0.99121094 0.39379883
vt 0.70214844 0.3984375
vt 0.99121094 0.3984375
vt 0.99121094 0.3947754
vt 0.65478516 0.39379883
vt 0.65478516 0.39453125
vt 0.6953125 0.3984375
vt 0.65478516 0.39379883
vt 0.6953125 0.3984375
vt 0.70214844 0.3984375
vt 0.65478516 0.39453125
vt 0.65478516 0.3984375
vt 0.6953125 0.3984375
vt 0.99121094 0.3383789
vt 0.99121094 0.33032227
vt 0.97998047 0.33032227
vt 0.99121094 0.33935547
vt 0.9785156 0.33032227
vt 0.9785156 0.33032227
vt 0.99121094 0.33935547
vt 0.99121094 0.3383789
vt 0.97998047 0.33032227
vt 0.99121094 0.33935547
vt 0.97998047 0.33032227
vt 0.9785156 0.33032227
vt 0.65478516 0.39379883
vt 0.99121094 0.39379883
vt 0.9189453 0.33032227
vt 0.65478516 0.39379883
vt 0.9189453 0.33032227
vt 0.65478516 0.33032227
vt 0.99121094 0.39379883
vt 0.99121094 0.33935547
vt 0.9785156 0.33032227
vt 0.99121094 0.39379883
vt 0.9785156 0.33032227
vt 0.9189453 0.33032227
vn -0 1.1920929E-07 -1
vn -0 1.7881393E-07 -1
vn -0 2.3841858E-07 -1
vn -0 1.1920929E-07 -1
vn -0 2.3841858E-07 -1
vn -0 2.3841858E-07 -1
vn -0 1.7881393E-07 -1
vn -0 2.9802322E-07 -1
vn -0 2.3841858E-07 -1
vn -0 1.1920929E-07 -1
vn -0 1.1920929E-07 -1
vn -0 1.1920929E-07 -1
vn -0 1.1920929E-07 -1
vn -0 1.1920929E-07 -1
vn -0 1.7881393E-07 -1
vn -0 1.1920929E-07 -1
vn -0 1.1920929E-07 -1
vn -0 1.1920929E-07 -1
vn 7.6293945E-06 0.0012350082 -1
vn 6.6161156E-05 0.0012159348 -1
vn 8.702278E-06 0.0014152527 -1
vn -5.9604645E-08 0.0012378693 -1
vn 1.4305115E-06 0.0014410019 -1
vn -1.1920929E-07 0.0014467239 -1
vn -5.9604645E-08 0.0012378693 -1
vn 7.6293945E-06 0.0012350082 -1
vn 8.702278E-06 0.0014152527 -1
vn -5.9604645E-08 0.0012378693 -1
vn 8.702278E-06 0.0014152527 -1
vn 1.4305115E-06 0.0014410019 -1
vn -0 1.1920929E-07 -1
vn -0 2.3841858E-07 -1
vn -1.1920929E-07 0.0014467239 -1
vn -0 1.1920929E-07 -1
vn -1.1920929E-07 0.0014467239 -1
vn -1.1920929E-07 0.0014457703 -1
vn -0 2.3841858E-07 -1
vn -5.9604645E-08 0.0012378693 -1
vn -1.1920929E-07 0.0014467239 -1
vn -0 2.3841858E-07 -1
vn -1.1920929E-07 0.0014467239 -1
vn -1.1920929E-07 0.0014467239 -1
g DecalMesh_MetroArea_Decal_Ground_28__45_0
f 3/3/3 2/2/2 1/1/1
f 6/6/6 5/5/5 4/4/4
f 9/9/9 8/8/8 7/7/7
f 12/12/12 11/11/11 10/10/10
f 15/15/15 14/14/14 13/13/13
f 18/18/18 17/17/17 16/16/16
f 21/21/21 20/20/20 19/19/19
f 24/24/24 23/23/23 22/22/22
f 27/27/27 26/26/26 25/25/25
f 30/30/30 29/29/29 28/28/28
f 33/33/33 32/32/32 31/31/31
f 36/36/36 35/35/35 34/34/34
f 39/39/39 38/38/38 37/37/37
f 42/42/42 41/41/41 40/40/40
