g DecalMesh_MetroArea_Decal_Ground_06__8
v -0.40600017 0.6000001 -0.4903947
v -1.4212029 0.0017908146 -0.49039492
v -1.0738401 -0.59999996 -0.49039486
v -0.40600017 0.6000001 -0.4903947
v -1.0738401 -0.59999996 -0.49039486
v -0.40600002 -0.6 -0.4903947
v -1.4212029 0.0017908146 -0.49039492
v -1.4212029 -0.6 -0.49039492
v -1.0738401 -0.6 -0.49039486
v -0.40600017 0.6000001 -0.4903947
v -1.4212029 0.6000001 -0.49039492
v -1.4212029 0.0017908146 -0.49039492
v 1.4212029 0.06919954 -0.49039215
v 0.7520035 -0.59999996 -0.4903917
v 1.4212029 -0.59999996 -0.49039215
v 1.4212029 0.06919954 -0.49039215
v 0.9748289 0.59999996 -0.49039185
v 0.2721181 -0.59999996 -0.49039137
v 1.4212029 0.06919954 -0.49039215
v 0.2721181 -0.59999996 -0.49039137
v 0.75200343 -0.6 -0.4903917
v 0.9748289 0.59999996 -0.49039185
v -0.40600017 0.6000001 -0.4903909
v -0.40600002 -0.59999996 -0.4903909
v 0.9748289 0.59999996 -0.49039185
v -0.40600002 -0.59999996 -0.4903909
v 0.2721181 -0.59999996 -0.49039137
v 1.4212029 0.06919954 -0.49039215
v 1.4212029 0.6 -0.49039215
v 0.97482884 0.6 -0.49039185
v -0.4060002 0.6000002 -0.41289458
v -0.4060002 0.6000002 -0.30160534
v -0.40600005 -0.6 -0.30160534
v -0.4060002 0.6000002 -0.41289458
v -0.40600005 -0.6 -0.30160534
v -0.40600005 -0.6 -0.3562589
v -0.40600017 0.6000001 -0.4903909
v -0.40600005 -0.59999996 -0.39431697
v -0.40600002 -0.59999996 -0.4903909
v -0.40600017 0.6000001 -0.4903909
v -0.4060002 0.6000001 -0.41289458
v -0.40600005 -0.59999996 -0.35625893
v -0.40600017 0.6000001 -0.4903909
v -0.40600005 -0.59999996 -0.35625893
v -0.40600005 -0.59999996 -0.39431697
v 0.5489503 -0.28461465 -0.45846552
v 0.5720204 -0.6 -0.45841947
v 0.58394873 -0.5366147 -0.5
v 0.5489503 -0.28461465 -0.45846552
v 0.58394873 -0.5366147 -0.5
v 0.565861 -0.28953826 -0.5
v 0.5720204 -0.6 -0.45841947
v 0.58858895 -0.6 -0.5
v 0.58394873 -0.5366147 -0.5
v 0.7817194 0.029212892 -0.45864475
v 0.5489503 -0.28461465 -0.45846552
v 0.565861 -0.28953826 -0.5
v 0.7817194 0.029212892 -0.45864475
v 0.565861 -0.28953826 -0.5
v 0.74836874 -0.04338096 -0.5
v 0.7817194 0.029212892 -0.45864475
v 0.74836874 -0.04338095 -0.5
v 0.7957016 0.02045997 -0.5
v 0.9922887 0.43534088 -0.4588316
v 0.7817194 0.029212892 -0.45864475
v 0.7957016 0.02045997 -0.5
v 0.9922887 0.43534088 -0.4588316
v 0.7957016 0.02045997 -0.5
v 0.961007 0.33941346 -0.5
v 0.9922887 0.43534088 -0.4588316
v 0.961007 0.33941346 -0.5
v 1.0054933 0.42524925 -0.5
v 0.9922887 0.43534088 -0.4588316
v 1.0054933 0.42524925 -0.5
v 1.1335421 0.5436865 -0.5
v 1.1703821 0.6 -0.45895398
v 0.9922887 0.43534088 -0.4588316
v 1.1335421 0.5436865 -0.5
v 1.1703821 0.6 -0.45895398
v 1.1335421 0.5436865 -0.5
v 1.1944256 0.6 -0.5
v 0.5489503 -0.28461465 -0.45846552
v 0.5720204 -0.6 -0.45841947
v 0.58394873 -0.5366147 -0.5
v 0.5489503 -0.28461465 -0.45846552
v 0.58394873 -0.5366147 -0.5
v 0.565861 -0.28953826 -0.5
v 0.5720204 -0.6 -0.45841947
v 0.58858895 -0.6 -0.5
v 0.58394873 -0.5366147 -0.5
v 0.7817194 0.029212892 -0.45864475
v 0.5489503 -0.28461465 -0.45846552
v 0.565861 -0.28953826 -0.5
v 0.7817194 0.029212892 -0.45864475
v 0.565861 -0.28953826 -0.5
v 0.74836874 -0.04338096 -0.5
v 0.7817194 0.029212892 -0.45864475
v 0.74836874 -0.04338095 -0.5
v 0.7957016 0.02045997 -0.5
v 0.9922887 0.43534088 -0.4588316
v 0.7817194 0.029212892 -0.45864475
v 0.7957016 0.02045997 -0.5
v 0.9922887 0.43534088 -0.4588316
v 0.7957016 0.02045997 -0.5
v 0.961007 0.33941346 -0.5
v 0.9922887 0.43534088 -0.4588316
v 0.961007 0.33941346 -0.5
v 1.0054933 0.42524925 -0.5
v 0.9922887 0.43534088 -0.4588316
v 1.0054933 0.42524925 -0.5
v 1.1335421 0.5436865 -0.5
v 1.1703821 0.6 -0.45895398
v 0.9922887 0.43534088 -0.4588316
v 1.1335421 0.5436865 -0.5
v 1.1703821 0.6 -0.45895398
v 1.1335421 0.5436865 -0.5
v 1.1944256 0.6 -0.5
v 0.5489503 -0.28461465 -0.45846552
v 0.5720204 -0.6 -0.45841947
v 0.58394873 -0.5366147 -0.5
v 0.5489503 -0.28461465 -0.45846552
v 0.58394873 -0.5366147 -0.5
v 0.565861 -0.28953826 -0.5
v 0.5720204 -0.6 -0.45841947
v 0.58858895 -0.6 -0.5
v 0.58394873 -0.5366147 -0.5
v 1.0182648 0.38887787 -0.45883542
v 0.5489503 -0.28461465 -0.45846552
v 0.565861 -0.28953826 -0.5
v 1.0182648 0.38887787 -0.45883542
v 0.565861 -0.28953826 -0.5
v 0.934201 0.23925442 -0.5
v 1.0182648 0.38887787 -0.45883542
v 0.934201 0.23925442 -0.5
v 1.0313802 0.37894428 -0.5
v 1.0182648 0.38887787 -0.45883542
v 1.0313802 0.37894428 -0.5
v 1.1024988 0.46827176 -0.5
v 1.1904695 0.59999996 -0.46689934
v 1.0182648 0.38887787 -0.45883542
v 1.1024988 0.46827173 -0.5
v 1.1904695 0.59999996 -0.46689934
v 1.1024988 0.46827173 -0.5
v 1.207375 0.59999996 -0.5
v 1.0182648 0.38887787 -0.45883542
v 1.1904695 0.59999996 -0.46689934
v 1.1864159 0.6 -0.45896235
vt 0.6533203 0.86279297
vt 0.7685547 0.79589844
vt 0.7290039 0.7290039
vt 0.6533203 0.86279297
vt 0.7290039 0.7290039
vt 0.6533203 0.7290039
vt 0.7685547 0.79589844
vt 0.7685547 0.7290039
vt 0.7290039 0.7290039
vt 0.6533203 0.86279297
vt 0.7685547 0.86279297
vt 0.7685547 0.79589844
vt 0.4453125 0.80371094
vt 0.5214844 0.7290039
vt 0.4453125 0.7290039
vt 0.4453125 0.80371094
vt 0.49609375 0.86279297
vt 0.5761719 0.7290039
vt 0.4453125 0.80371094
vt 0.5761719 0.7290039
vt 0.5214844 0.7290039
vt 0.49609375 0.86279297
vt 0.6533203 0.86279297
vt 0.6533203 0.7290039
vt 0.49609375 0.86279297
vt 0.6533203 0.7290039
vt 0.5761719 0.7290039
vt 0.4453125 0.80371094
vt 0.4453125 0.86279297
vt 0.49609375 0.86279297
vt 0.6533203 0.86279297
vt 0.6533203 0.86279297
vt 0.6533203 0.7290039
vt 0.6533203 0.86279297
vt 0.6533203 0.7290039
vt 0.6533203 0.7290039
vt 0.6533203 0.86279297
vt 0.6533203 0.7290039
vt 0.6533203 0.7290039
vt 0.6533203 0.86279297
vt 0.6533203 0.86279297
vt 0.6533203 0.7290039
vt 0.6533203 0.86279297
vt 0.6533203 0.7290039
vt 0.6533203 0.7290039
vt 0.5444336 0.76416016
vt 0.5419922 0.7290039
vt 0.54052734 0.73583984
vt 0.5444336 0.76416016
vt 0.54052734 0.73583984
vt 0.54248047 0.7636719
vt 0.5419922 0.7290039
vt 0.54003906 0.7290039
vt 0.54052734 0.73583984
vt 0.5180664 0.7993164
vt 0.5444336 0.76416016
vt 0.54248047 0.7636719
vt 0.5180664 0.7993164
vt 0.54248047 0.7636719
vt 0.52197266 0.7910156
vt 0.5180664 0.7993164
vt 0.52197266 0.7910156
vt 0.51660156 0.79833984
vt 0.49414062 0.8442383
vt 0.5180664 0.7993164
vt 0.51660156 0.79833984
vt 0.49414062 0.8442383
vt 0.51660156 0.79833984
vt 0.4975586 0.8334961
vt 0.49414062 0.8442383
vt 0.4975586 0.8334961
vt 0.49267578 0.8432617
vt 0.49414062 0.8442383
vt 0.49267578 0.8432617
vt 0.47802734 0.8564453
vt 0.47387695 0.86279297
vt 0.49414062 0.8442383
vt 0.47802734 0.8564453
vt 0.47387695 0.86279297
vt 0.47802734 0.8564453
vt 0.47094727 0.86279297
vt 0.5444336 0.76416016
vt 0.5419922 0.7290039
vt 0.54052734 0.73583984
vt 0.5444336 0.76416016
vt 0.54052734 0.73583984
vt 0.54248047 0.7636719
vt 0.5419922 0.7290039
vt 0.54003906 0.7290039
vt 0.54052734 0.73583984
vt 0.5180664 0.7993164
vt 0.5444336 0.76416016
vt 0.54248047 0.7636719
vt 0.5180664 0.7993164
vt 0.54248047 0.7636719
vt 0.52197266 0.7910156
vt 0.5180664 0.7993164
vt 0.52197266 0.7910156
vt 0.51660156 0.79833984
vt 0.49414062 0.8442383
vt 0.5180664 0.7993164
vt 0.51660156 0.79833984
vt 0.49414062 0.8442383
vt 0.51660156 0.79833984
vt 0.4975586 0.8334961
vt 0.49414062 0.8442383
vt 0.4975586 0.8334961
vt 0.49267578 0.8432617
vt 0.49414062 0.8442383
vt 0.49267578 0.8432617
vt 0.47802734 0.8564453
vt 0.47387695 0.86279297
vt 0.49414062 0.8442383
vt 0.47802734 0.8564453
vt 0.47387695 0.86279297
vt 0.47802734 0.8564453
vt 0.47094727 0.86279297
vt 0.5444336 0.76416016
vt 0.5419922 0.7290039
vt 0.54052734 0.73583984
vt 0.5444336 0.76416016
vt 0.54052734 0.73583984
vt 0.54248047 0.7636719
vt 0.5419922 0.7290039
vt 0.54003906 0.7290039
vt 0.54052734 0.73583984
vt 0.49121094 0.83935547
vt 0.5444336 0.76416016
vt 0.54248047 0.7636719
vt 0.49121094 0.83935547
vt 0.54248047 0.7636719
vt 0.5004883 0.8227539
vt 0.49121094 0.83935547
vt 0.5004883 0.8227539
vt 0.48950195 0.8383789
vt 0.49121094 0.83935547
vt 0.48950195 0.8383789
vt 0.4814453 0.84814453
vt 0.47143555 0.86279297
vt 0.49121094 0.83935547
vt 0.4814453 0.84814453
vt 0.47143555 0.86279297
vt 0.4814453 0.84814453
vt 0.46948242 0.86279297
vt 0.49121094 0.83935547
vt 0.47143555 0.86279297
vt 0.47192383 0.86279297
vn 1.1920929E-07 -1.1920929E-07 -1
vn 1.1920929E-07 -1.1920929E-07 -1
vn 1.1920929E-07 -1.1920929E-07 -1
vn 1.1920929E-07 -1.1920929E-07 -1
vn 1.1920929E-07 -1.1920929E-07 -1
vn 1.1920929E-07 -1.1920929E-07 -1
vn 1.1920929E-07 -1.1920929E-07 -1
vn 1.1920929E-07 -1.1920929E-07 -1
vn 1.1920929E-07 -1.1920929E-07 -1
vn 1.1920929E-07 -1.1920929E-07 -1
vn 1.1920929E-07 -1.1920929E-07 -1
vn 1.1920929E-07 -1.1920929E-07 -1
vn 1.1920929E-07 -1.1920929E-07 -1
vn 1.1920929E-07 -1.1920929E-07 -1
vn 1.1920929E-07 -1.1920929E-07 -1
vn 1.1920929E-07 -1.1920929E-07 -1
vn 1.1920929E-07 -1.1920929E-07 -1
vn 1.1920929E-07 -1.1920929E-07 -1
vn 1.1920929E-07 -1.1920929E-07 -1
vn 1.1920929E-07 -1.1920929E-07 -1
vn 1.1920929E-07 -1.1920929E-07 -1
vn 1.1920929E-07 -1.1920929E-07 -1
vn 1.1920929E-07 -1.1920929E-07 -1
vn 1.1920929E-07 -1.1920929E-07 -1
vn 1.1920929E-07 -1.1920929E-07 -1
vn 1.1920929E-07 -1.1920929E-07 -1
vn 1.1920929E-07 -1.1920929E-07 -1
vn 1.1920929E-07 -1.1920929E-07 -1
vn 1.1920929E-07 -1.1920929E-07 -1
vn 1.1920929E-07 -1.1920929E-07 -1
vn -1 0 -2.3841858E-07
vn -1 0 -2.3841858E-07
vn -1 0 -2.3841858E-07
vn -1 0 -2.3841858E-07
vn -1 0 -2.3841858E-07
vn -1 0 -2.3841858E-07
vn -1 0 -2.3841858E-07
vn -1 0 -2.3841858E-07
vn -1 0 -2.3841858E-07
vn -1 0 -2.3841858E-07
vn -1 0 -2.3841858E-07
vn -1 0 -2.3841858E-07
vn -1 0 -2.3841858E-07
vn -1 0 -2.3841858E-07
vn -1 0 -2.3841858E-07
vn -0.88427734 0.2565918 -0.39038086
vn -0.9145508 0.0262146 -0.37548828
vn -0.90771484 0.07611084 -0.3786621
vn -0.88427734 0.2565918 -0.39038086
vn -0.90771484 0.07611084 -0.3786621
vn -0.88427734 0.2565918 -0.39038086
vn -0.9145508 0.0262146 -0.37548828
vn -0.9140625 0.029815674 -0.37573242
vn -0.90771484 0.07611084 -0.3786621
vn -0.78808594 0.49194336 -0.37060547
vn -0.88427734 0.2565918 -0.39038086
vn -0.88427734 0.2565918 -0.39038086
vn -0.78808594 0.49194336 -0.37060547
vn -0.88427734 0.2565918 -0.39038086
vn -0.80859375 0.4411621 -0.37475586
vn -0.78808594 0.49194336 -0.37060547
vn -0.80859375 0.4411621 -0.37475586
vn -0.78808594 0.49194336 -0.37060547
vn -0.7373047 0.5620117 -0.37426758
vn -0.78808594 0.49194336 -0.37060547
vn -0.78808594 0.49194336 -0.37060547
vn -0.7373047 0.5620117 -0.37426758
vn -0.78808594 0.49194336 -0.37060547
vn -0.74853516 0.546875 -0.37353516
vn -0.7373047 0.5620117 -0.37426758
vn -0.74853516 0.546875 -0.37353516
vn -0.7373047 0.5620117 -0.37426758
vn -0.7373047 0.5620117 -0.37426758
vn -0.7373047 0.5620117 -0.37426758
vn -0.7167969 0.5878906 -0.37280273
vn -0.7089844 0.59814453 -0.37231445
vn -0.7373047 0.5620117 -0.37426758
vn -0.7167969 0.5878906 -0.37280273
vn -0.7089844 0.59814453 -0.37231445
vn -0.7167969 0.5878906 -0.37280273
vn -0.70703125 0.60009766 -0.3720703
vn -0.88427734 0.2565918 -0.39038086
vn -0.9145508 0.0262146 -0.37548828
vn -0.90771484 0.07611084 -0.3786621
vn -0.88427734 0.2565918 -0.39038086
vn -0.90771484 0.07611084 -0.3786621
vn -0.88427734 0.2565918 -0.39038086
vn -0.9145508 0.0262146 -0.37548828
vn -0.9140625 0.029815674 -0.37573242
vn -0.90771484 0.07611084 -0.3786621
vn -0.78808594 0.49194336 -0.37060547
vn -0.88427734 0.2565918 -0.39038086
vn -0.88427734 0.2565918 -0.39038086
vn -0.78808594 0.49194336 -0.37060547
vn -0.88427734 0.2565918 -0.39038086
vn -0.80859375 0.4411621 -0.37475586
vn -0.78808594 0.49194336 -0.37060547
vn -0.80859375 0.4411621 -0.37475586
vn -0.78808594 0.49194336 -0.37060547
vn -0.7373047 0.5620117 -0.37426758
vn -0.78808594 0.49194336 -0.37060547
vn -0.78808594 0.49194336 -0.37060547
vn -0.7373047 0.5620117 -0.37426758
vn -0.78808594 0.49194336 -0.37060547
vn -0.74853516 0.546875 -0.37353516
vn -0.7373047 0.5620117 -0.37426758
vn -0.74853516 0.546875 -0.37353516
vn -0.7373047 0.5620117 -0.37426758
vn -0.7373047 0.5620117 -0.37426758
vn -0.7373047 0.5620117 -0.37426758
vn -0.7167969 0.5878906 -0.37280273
vn -0.7089844 0.59814453 -0.37231445
vn -0.7373047 0.5620117 -0.37426758
vn -0.7167969 0.5878906 -0.37280273
vn -0.7089844 0.59814453 -0.37231445
vn -0.7167969 0.5878906 -0.37280273
vn -0.70703125 0.60009766 -0.3720703
vn -0.8876953 0.24450684 -0.39038086
vn -0.91552734 0.022705078 -0.37548828
vn -0.90966797 0.070251465 -0.3786621
vn -0.8876953 0.24450684 -0.39038086
vn -0.90966797 0.070251465 -0.3786621
vn -0.8876953 0.24401855 -0.39038086
vn -0.91552734 0.022705078 -0.37548828
vn -0.91503906 0.025680542 -0.37548828
vn -0.90966797 0.070251465 -0.3786621
vn -0.7446289 0.5546875 -0.3713379
vn -0.8876953 0.24450684 -0.39038086
vn -0.8876953 0.24401855 -0.39038086
vn -0.7446289 0.5546875 -0.3713379
vn -0.8876953 0.24401855 -0.39038086
vn -0.7753906 0.48754883 -0.37524414
vn -0.7446289 0.5546875 -0.3713379
vn -0.7753906 0.48754883 -0.37524414
vn -0.7446289 0.5546875 -0.3713379
vn -0.7446289 0.5546875 -0.3713379
vn -0.7446289 0.5546875 -0.3713379
vn -0.6870117 0.5986328 -0.3774414
vn -0.6069336 0.6591797 -0.38549805
vn -0.7446289 0.5546875 -0.3713379
vn -0.6870117 0.5986328 -0.3774414
vn -0.6069336 0.6591797 -0.38549805
vn -0.6870117 0.5986328 -0.3774414
vn -0.6020508 0.66308594 -0.38623047
vn -0.7446289 0.5546875 -0.3713379
vn -0.6069336 0.6591797 -0.38549805
vn -0.60839844 0.6586914 -0.38549805
g DecalMesh_MetroArea_Decal_Ground_06__8_0
f 3/3/3 2/2/2 1/1/1
f 6/6/6 5/5/5 4/4/4
f 9/9/9 8/8/8 7/7/7
f 12/12/12 11/11/11 10/10/10
f 15/15/15 14/14/14 13/13/13
f 18/18/18 17/17/17 16/16/16
f 21/21/21 20/20/20 19/19/19
f 24/24/24 23/23/23 22/22/22
f 27/27/27 26/26/26 25/25/25
f 30/30/30 29/29/29 28/28/28
f 33/33/33 32/32/32 31/31/31
f 36/36/36 35/35/35 34/34/34
f 39/39/39 38/38/38 37/37/37
f 42/42/42 41/41/41 40/40/40
f 45/45/45 44/44/44 43/43/43
f 48/48/48 47/47/47 46/46/46
f 51/51/51 50/50/50 49/49/49
f 54/54/54 53/53/53 52/52/52
f 57/57/57 56/56/56 55/55/55
f 60/60/60 59/59/59 58/58/58
f 63/63/63 62/62/62 61/61/61
f 66/66/66 65/65/65 64/64/64
f 69/69/69 68/68/68 67/67/67
f 72/72/72 71/71/71 70/70/70
f 75/75/75 74/74/74 73/73/73
f 78/78/78 77/77/77 76/76/76
f 81/81/81 80/80/80 79/79/79
f 84/84/84 83/83/83 82/82/82
f 87/87/87 86/86/86 85/85/85
f 90/90/90 89/89/89 88/88/88
f 93/93/93 92/92/92 91/91/91
f 96/96/96 95/95/95 94/94/94
f 99/99/99 98/98/98 97/97/97
f 102/102/102 101/101/101 100/100/100
f 105/105/105 104/104/104 103/103/103
f 108/108/108 107/107/107 106/106/106
f 111/111/111 110/110/110 109/109/109
f 114/114/114 113/113/113 112/112/112
f 117/117/117 116/116/116 115/115/115
f 120/120/120 119/119/119 118/118/118
f 123/123/123 122/122/122 121/121/121
f 126/126/126 125/125/125 124/124/124
f 129/129/129 128/128/128 127/127/127
f 132/132/132 131/131/131 130/130/130
f 135/135/135 134/134/134 133/133/133
f 138/138/138 137/137/137 136/136/136
f 141/141/141 140/140/140 139/139/139
f 144/144/144 143/143/143 142/142/142
f 147/147/147 146/146/146 145/145/145
