g DecalMesh_MetroArea_Decal_Ground_15__122
v 0.15285505 0.95143306 -0.0079365065
v 0.7844954 1.003 -0.00793668
v 0.14864515 1.003 -0.007936506
v 0.15285505 0.95143306 -0.0079365065
v 0.7844954 1.003 -0.0014223983
v 0.7844954 1.003 -0.00793668
v 0.15285505 0.95143306 -0.0079365065
v 0.15285505 0.95143306 0.0177612
v 0.7844954 1.003 0.017761027
v 0.15285505 0.95143306 -0.0079365065
v 0.7844954 1.003 0.017761027
v 0.7844954 1.003 0.011223806
v 0.15285505 0.95143306 -0.0079365065
v 0.7844954 1.003 0.011223806
v 0.7844954 1.003 -0.0014223977
v 1 1.0029999 0.013539633
v -0.9273001 1.003 0.013831857
v 0.9870891 -0.997 -0.004212813
v 1 1.0029999 0.013539633
v 0.9870891 -0.997 -0.004212813
v 1 -0.997 -0.0042147706
v -0.9537065 1.003 0.0138358595
v -1 0.68592376 0.011028127
v 0.7467713 -0.997 -0.004176377
v -0.9537065 1.003 0.0138358595
v 0.7467713 -0.997 -0.004176377
v 0.78758603 -0.997 -0.004182565
v -1 0.68592376 0.011028127
v -1 -0.9969999 -0.0039115376
v 0.7467712 -0.9969999 -0.004176376
v -0.9537065 1.003 0.0138358595
v -1 1.003 0.013842878
v -1 0.68592376 0.011028126
v -0.92730004 1.003 0.013831857
v 0.790457 -0.997 -0.0041830004
v 0.9870891 -0.997 -0.004212813
v -0.92730004 1.003 0.013831857
v -0.9537065 1.003 0.0138358595
v 0.78758603 -0.997 -0.004182565
v -0.92730004 1.003 0.013831857
v 0.78758603 -0.997 -0.004182565
v 0.790457 -0.997 -0.004183
vt 0.06048584 0.54833984
vt 0.01676941 0.5517578
vt 0.060791016 0.5517578
vt 0.06048584 0.54833984
vt 0.01676941 0.5517578
vt 0.01676941 0.5517578
vt 0.06048584 0.54833984
vt 0.06048584 0.54833984
vt 0.01676941 0.5517578
vt 0.06048584 0.54833984
vt 0.01676941 0.5517578
vt 0.01676941 0.5517578
vt 0.06048584 0.54833984
vt 0.01676941 0.5517578
vt 0.01676941 0.5517578
vt 0.0018415451 0.5517578
vt 0.1352539 0.5517578
vt 0.002735138 0.41210938
vt 0.0018415451 0.5517578
vt 0.002735138 0.41210938
vt 0.0018415451 0.41210938
vt 0.13708496 0.5517578
vt 0.14025879 0.52978516
vt 0.019378662 0.41210938
vt 0.13708496 0.5517578
vt 0.019378662 0.41210938
vt 0.016555786 0.41210938
vt 0.14025879 0.52978516
vt 0.14025879 0.41210938
vt 0.019378662 0.41210938
vt 0.13708496 0.5517578
vt 0.14025879 0.5517578
vt 0.14025879 0.52978516
vt 0.1352539 0.5517578
vt 0.016342163 0.41210938
vt 0.002735138 0.41210938
vt 0.1352539 0.5517578
vt 0.13708496 0.5517578
vt 0.016555786 0.41210938
vt 0.1352539 0.5517578
vt 0.016555786 0.41210938
vt 0.016342163 0.41210938
vn -2.3841858E-07 -1.1920929E-07 -1
vn -2.3841858E-07 -1.1920929E-07 -1
vn -2.3841858E-07 -1.1920929E-07 -1
vn 0.08135986 -0.99658203 -0
vn 0.08135986 -0.99658203 -0
vn 0.08135986 -0.99658203 -0
vn 0.08135986 -0.99658203 -0
vn 0.08135986 -0.99658203 -0
vn 0.08135986 -0.99658203 -0
vn 0.08135986 -0.99658203 -0
vn 0.08135986 -0.99658203 -0
vn 0.08135986 -0.99658203 -0
vn 0.08135986 -0.99658203 -0
vn 0.08135986 -0.99658203 -0
vn 0.08135986 -0.99658203 -0
vn -0.00015163422 0.008872986 -1
vn -0.00015163422 0.008872986 -1
vn -0.00015163422 0.008872986 -1
vn -0.00015163422 0.008872986 -1
vn -0.00015163422 0.008872986 -1
vn -0.00015163422 0.008872986 -1
vn -0.00015163422 0.008872986 -1
vn -0.00015163422 0.008872986 -1
vn -0.00015163422 0.008872986 -1
vn -0.00015163422 0.008872986 -1
vn -0.00015163422 0.008872986 -1
vn -0.00015163422 0.008872986 -1
vn -0.00015163422 0.008872986 -1
vn -0.00015163422 0.008872986 -1
vn -0.00015163422 0.008872986 -1
vn -0.00015163422 0.008872986 -1
vn -0.00015163422 0.008872986 -1
vn -0.00015163422 0.008872986 -1
vn -0.00015163422 0.008872986 -1
vn -0.00015163422 0.008872986 -1
vn -0.00015163422 0.008872986 -1
vn -0.00015163422 0.008872986 -1
vn -0.00015163422 0.008872986 -1
vn -0.00015163422 0.008872986 -1
vn -0.00015163422 0.008872986 -1
vn -0.00015163422 0.008872986 -1
vn -0.00015163422 0.008872986 -1
g DecalMesh_MetroArea_Decal_Ground_15__122_0
f 3/3/3 2/2/2 1/1/1
f 6/6/6 5/5/5 4/4/4
f 9/9/9 8/8/8 7/7/7
f 12/12/12 11/11/11 10/10/10
f 15/15/15 14/14/14 13/13/13
f 18/18/18 17/17/17 16/16/16
f 21/21/21 20/20/20 19/19/19
f 24/24/24 23/23/23 22/22/22
f 27/27/27 26/26/26 25/25/25
f 30/30/30 29/29/29 28/28/28
f 33/33/33 32/32/32 31/31/31
f 36/36/36 35/35/35 34/34/34
f 39/39/39 38/38/38 37/37/37
f 42/42/42 41/41/41 40/40/40
