g DecalMesh_MetroArea_Decal_Ground_15__19
v -1.0385653 0.3033133 -0.7350999
v -1.0385653 -1.0473487 -0.73509973
v -0.6083584 -1.0473487 -0.73509973
v 1.0385654 1.0473487 -0.73510003
v -1.0385653 1.0473486 -0.73510003
v -0.43969825 -1.047349 -0.7350998
v 1.0385654 1.0473487 -0.73510003
v -0.43969825 -1.047349 -0.7350998
v 1.0385654 -1.0473489 -0.7350998
v -1.0385653 1.0473486 -0.73510003
v -1.0385653 0.30331317 -0.7350999
v -0.60835844 -1.0473487 -0.73509973
v -1.0385653 1.0473486 -0.73510003
v -0.60835844 -1.0473487 -0.73509973
v -0.43969825 -1.047349 -0.7350998
vt 0.14025879 0.5019531
vt 0.14025879 0.41186523
vt 0.1116333 0.41186523
vt 0.0018415451 0.5517578
vt 0.14025879 0.5517578
vt 0.10040283 0.41186523
vt 0.0018415451 0.5517578
vt 0.10040283 0.41186523
vt 0.0018415451 0.41186523
vt 0.14025879 0.5517578
vt 0.14025879 0.5019531
vt 0.1116333 0.41186523
vt 0.14025879 0.5517578
vt 0.1116333 0.41186523
vt 0.10040283 0.41186523
vn -0 -1.1920929E-07 -1
vn -0 -1.1920929E-07 -1
vn -0 -1.1920929E-07 -1
vn -0 -1.1920929E-07 -1
vn -0 -1.1920929E-07 -1
vn -0 -1.1920929E-07 -1
vn -0 -1.1920929E-07 -1
vn -0 -1.1920929E-07 -1
vn -0 -1.1920929E-07 -1
vn -0 -1.1920929E-07 -1
vn -0 -1.1920929E-07 -1
vn -0 -1.1920929E-07 -1
vn -0 -1.1920929E-07 -1
vn -0 -1.1920929E-07 -1
vn -0 -1.1920929E-07 -1
g DecalMesh_MetroArea_Decal_Ground_15__19_0
f 3/3/3 2/2/2 1/1/1
f 6/6/6 5/5/5 4/4/4
f 9/9/9 8/8/8 7/7/7
f 12/12/12 11/11/11 10/10/10
f 15/15/15 14/14/14 13/13/13
