g DecalMesh_MainCity_Decal_Graffiti_62__32
v 0.98667014 -0.4740089 -0.027640771
v -0.9866701 -0.90343374 -0.02764106
v -0.8791165 -0.98667 -0.02764104
v 0.98667014 -0.4740089 -0.027640771
v -0.8791165 -0.98667 -0.02764104
v 0.98667014 -0.98667 -0.027640745
v -0.9866701 -0.90343374 -0.02764106
v -0.9866701 -0.98667 -0.027641056
v -0.8791165 -0.98667 -0.02764104
v 0.98666996 -0.47400892 -0.027640771
v -0.53009576 0.98667 -0.027641086
v -0.98666996 0.49108428 -0.027641132
v 0.98666996 -0.47400892 -0.027640771
v -0.98666996 0.49108428 -0.027641132
v -0.98667 -0.90343374 -0.02764106
v -0.53009576 0.98667 -0.027641086
v -0.98667 0.98667 -0.027641159
v -0.98667 0.49108422 -0.027641132
v 0.98666996 -0.47400892 -0.027640771
v 0.98667014 0.98667 -0.027640847
v -0.53009576 0.98667 -0.027641086
vt -0.76123047 1.015625
vt -0.7163086 1.0048828
vt -0.71875 1.0029297
vt -0.76123047 1.015625
vt -0.71875 1.0029297
vt -0.76123047 1.0029297
vt -0.7163086 1.0048828
vt -0.7163086 1.0029297
vt -0.71875 1.0029297
vt -0.76123047 1.015625
vt -0.7265625 1.0517578
vt -0.7163086 1.0390625
vt -0.76123047 1.015625
vt -0.7163086 1.0390625
vt -0.7163086 1.0048828
vt -0.7265625 1.0517578
vt -0.7163086 1.0517578
vt -0.7163086 1.0390625
vt -0.76123047 1.015625
vt -0.76123047 1.0517578
vt -0.7265625 1.0517578
vn 0 0 -1
vn 0 0 -1
vn 0 0 -1
vn 0 0 -1
vn 0 0 -1
vn 0 0 -1
vn 0 0 -1
vn 0 0 -1
vn 0 0 -1
vn 0 0 -1
vn 0 0 -1
vn 0 0 -1
vn 0 0 -1
vn 0 0 -1
vn 0 0 -1
vn 0 0 -1
vn 0 0 -1
vn 0 0 -1
vn 0 0 -1
vn 0 0 -1
vn 0 0 -1
g DecalMesh_MainCity_Decal_Graffiti_62__32_0
f 3/3/3 2/2/2 1/1/1
f 6/6/6 5/5/5 4/4/4
f 9/9/9 8/8/8 7/7/7
f 12/12/12 11/11/11 10/10/10
f 15/15/15 14/14/14 13/13/13
f 18/18/18 17/17/17 16/16/16
f 21/21/21 20/20/20 19/19/19
