g DecalMesh_Common_Decal_Sign_07__24
v 0.23863985 0.34110925 0.010932154
v 0.08712943 -0.34110934 0.010301163
v 0.24386497 -0.34110934 -0.0035265237
v 0.23863985 0.34110925 0.010932154
v 0.10240954 0.34110922 0.022950808
v -0.0027484023 -0.3411093 0.018230462
v 0.23863985 0.34110925 0.010932154
v -0.0027484023 -0.3411093 0.018230462
v 0.087129444 -0.34110928 0.010301163
v 0.25380087 0.34110922 0.009594603
v 0.23863985 0.34110925 0.010932154
v 0.24386497 -0.34110928 -0.0035265223
v 0.25380087 0.34110922 0.009594603
v 0.24386497 -0.34110928 -0.0035265223
v 0.25380087 -0.3411093 -0.0044030976
v 0.10240954 0.34110922 0.022950808
v -0.25380087 0.34110928 0.054375663
v -0.23775795 -0.34110937 0.038962986
v 0.10240954 0.34110922 0.022950808
v -0.23775795 -0.34110937 0.038962986
v -0.0027484023 -0.3411093 0.018230462
v -0.25380087 0.34110928 0.054375663
v -0.25380087 -0.3411093 0.04037829
v -0.23775797 -0.3411093 0.038962986
vt -0.58154297 0.9970703
vt -0.5541992 0.86083984
vt -0.58251953 0.86083984
vt -0.58154297 0.9970703
vt -0.5571289 0.9970703
vt -0.53808594 0.86083984
vt -0.58154297 0.9970703
vt -0.53808594 0.86083984
vt -0.5541992 0.86083984
vt -0.58447266 0.9970703
vt -0.58154297 0.9970703
vt -0.58251953 0.86083984
vt -0.58447266 0.9970703
vt -0.58251953 0.86083984
vt -0.58447266 0.86083984
vt -0.5571289 0.9970703
vt -0.49291992 0.9970703
vt -0.4958496 0.86083984
vt -0.5571289 0.9970703
vt -0.4958496 0.86083984
vt -0.53808594 0.86083984
vt -0.49291992 0.9970703
vt -0.49291992 0.86083984
vt -0.4958496 0.86083984
vn -0.10296631 0.019592285 -0.9946289
vn -0.091918945 0.020202637 -0.99560547
vn -0.101135254 0.019699097 -0.9946289
vn -0.10296631 0.019592285 -0.9946289
vn -0.0949707 0.02003479 -0.9951172
vn -0.08660889 0.020492554 -0.99609375
vn -0.10296631 0.019592285 -0.9946289
vn -0.08660889 0.020492554 -0.99609375
vn -0.091918945 0.020202637 -0.99560547
vn -0.1038208 0.019546509 -0.9941406
vn -0.10296631 0.019592285 -0.9946289
vn -0.101135254 0.019699097 -0.9946289
vn -0.1038208 0.019546509 -0.9941406
vn -0.101135254 0.019699097 -0.9946289
vn -0.10168457 0.01966858 -0.9946289
vn -0.0949707 0.02003479 -0.9951172
vn -0.07397461 0.021194458 -0.9970703
vn -0.07281494 0.021270752 -0.9970703
vn -0.0949707 0.02003479 -0.9951172
vn -0.07281494 0.021270752 -0.9970703
vn -0.08660889 0.020492554 -0.99609375
vn -0.07397461 0.021194458 -0.9970703
vn -0.07183838 0.021316528 -0.9970703
vn -0.07281494 0.021270752 -0.9970703
g DecalMesh_Common_Decal_Sign_07__24_0
f 3/3/3 2/2/2 1/1/1
f 6/6/6 5/5/5 4/4/4
f 9/9/9 8/8/8 7/7/7
f 12/12/12 11/11/11 10/10/10
f 15/15/15 14/14/14 13/13/13
f 18/18/18 17/17/17 16/16/16
f 21/21/21 20/20/20 19/19/19
f 24/24/24 23/23/23 22/22/22
