g DecalMesh_MetroArea_Decal_Lamp_02__59
v -0.0014260709 -0.11360672 -0.085478514
v -1.292308 -0.11488964 -0.0862391
v -0.5907115 -0.11427218 -0.1
v -0.0014260709 -0.11360672 -0.085478514
v -0.5907115 -0.11427218 -0.1
v -0.0014168528 -0.11368848 -0.1
v -1.292308 -0.11488964 -0.0862391
v -1.2922992 -0.114967115 -0.1
v -0.5907115 -0.11427218 -0.1
v -0.0014260709 -0.11360672 -0.085478514
v -0.0014168528 -0.11368848 -0.1
v 0.27822515 -0.116569236 -0.1
v 0.3671921 -0.117402725 -0.08523801
v -0.0014260709 -0.11360672 -0.085478514
v 0.27822515 -0.116569236 -0.1
v 0.3671921 -0.117402725 -0.08523801
v 0.27822515 -0.116569236 -0.1
v 0.35913384 -0.117402725 -0.1
v -0.015960313 0.117402725 -0.08221941
v -0.015730876 -0.1140339 -0.080309995
v -0.015720045 -0.11414467 -0.1
v -0.015960313 0.117402725 -0.08221941
v -0.015720045 -0.11414467 -0.1
v -0.01576463 -0.06937465 -0.1
v -0.015730876 -0.1140339 -0.080309995
v -0.015960313 0.117402725 -0.08221941
v -0.015960643 0.117402725 -0.08161318
v -0.015960313 0.11740273 -0.08221941
v -0.01576463 -0.06937464 -0.1
v -0.01595063 0.11740273 -0.1
v 1.2822413 -0.039118674 -0.073360324
v 1.2823186 -0.11740271 -0.072919704
v 1.2822943 -0.075577535 -0.1
v 1.2822413 -0.039118674 -0.073360324
v 1.2822943 -0.075577535 -0.1
v 1.2822584 -0.03926151 -0.1
v 1.2823186 -0.11740271 -0.072919704
v 1.2823358 -0.11740272 -0.1
v 1.2822943 -0.075577535 -0.1
v -1.2424854 0.11740273 -0.092513174
v -1.2835772 -0.11740272 -0.09121505
v 1.2198483 -0.11740272 -0.08972847
v -1.2424854 0.11740273 -0.092513174
v -1.2853065 0.11740273 -0.092538595
v -1.2850736 -0.117402725 -0.09121594
v -1.2424854 0.11740273 -0.092513174
v -1.2850736 -0.117402725 -0.09121594
v -1.2835772 -0.117402725 -0.09121505
v 1.2820048 0.11740273 -0.09101356
v -1.2424854 0.11740273 -0.092513174
v 1.2198483 -0.117402725 -0.08972847
v 1.2820048 0.11740273 -0.09101356
v 1.2198483 -0.117402725 -0.08972847
v 1.2822376 -0.117402725 -0.08969141
vt 0.4416504 0.69921875
vt 0.9970703 0.69873047
vt 0.6953125 0.69873047
vt 0.4416504 0.69921875
vt 0.6953125 0.69873047
vt 0.4416504 0.69921875
vt 0.9970703 0.69873047
vt 0.9970703 0.69873047
vt 0.6953125 0.69873047
vt 0.4416504 0.69921875
vt 0.4416504 0.69921875
vt 0.3215332 0.6982422
vt 0.28320312 0.6977539
vt 0.4416504 0.69921875
vt 0.3215332 0.6982422
vt 0.28320312 0.6977539
vt 0.3215332 0.6982422
vt 0.2866211 0.6977539
vt 0.44799805 0.79003906
vt 0.44799805 0.69921875
vt 0.44799805 0.69921875
vt 0.44799805 0.79003906
vt 0.44799805 0.69921875
vt 0.44799805 0.7167969
vt 0.44799805 0.69921875
vt 0.44799805 0.79003906
vt 0.44799805 0.79003906
vt 0.44799805 0.79003906
vt 0.44799805 0.7167969
vt 0.44799805 0.79003906
vt -0.11047363 0.7285156
vt -0.11047363 0.6977539
vt -0.11047363 0.71435547
vt -0.11047363 0.7285156
vt -0.11047363 0.71435547
vt -0.11047363 0.7285156
vt -0.11047363 0.6977539
vt -0.11047363 0.6977539
vt -0.11047363 0.71435547
vt 0.97558594 0.79003906
vt 0.99316406 0.6977539
vt -0.083618164 0.6977539
vt 0.97558594 0.79003906
vt 0.9941406 0.79003906
vt 0.9941406 0.6977539
vt 0.97558594 0.79003906
vt 0.9941406 0.6977539
vt 0.99316406 0.6977539
vt -0.11035156 0.79003906
vt 0.97558594 0.79003906
vt -0.083618164 0.6977539
vt -0.11035156 0.79003906
vt -0.083618164 0.6977539
vt -0.11047363 0.6977539
vn 0.0044898987 1 -0.005630493
vn -0.0009908676 1 -0.005630493
vn 0.0019874573 1 -0.005630493
vn 0.0044898987 1 -0.005630493
vn 0.0019874573 1 -0.005630493
vn 0.0044898987 1 -0.005630493
vn -0.0009908676 1 -0.005630493
vn -0.0009908676 1 -0.005630493
vn 0.0019874573 1 -0.005630493
vn 0.0044898987 1 -0.005630493
vn 0.0044898987 1 -0.005630493
vn 0.0056762695 1 -0.0056266785
vn 0.0060539246 1 -0.0056266785
vn 0.0044898987 1 -0.005630493
vn 0.0056762695 1 -0.0056266785
vn 0.0060539246 1 -0.0056266785
vn 0.0056762695 1 -0.0056266785
vn 0.0060195923 1 -0.0056266785
vn -1 -0.0009937286 -0.0005888939
vn -1 -0.0009937286 -0.0005888939
vn -1 -0.0009937286 -0.0005888939
vn -1 -0.0009937286 -0.0005888939
vn -1 -0.0009937286 -0.0005888939
vn -1 -0.0009937286 -0.0005888939
vn -1 -0.0009937286 -0.0005888939
vn -1 -0.0009937286 -0.0005888939
vn -1 -0.0009937286 -0.0005888939
vn -1 -0.0009937286 -0.0005888939
vn -1 -0.0009937286 -0.0005888939
vn -1 -0.0009937286 -0.0005888939
vn -0.9975586 -0.071899414 -0.00020694733
vn -0.9975586 -0.051330566 -0.00032281876
vn -0.9975586 -0.062347412 -0.00026082993
vn -0.9975586 -0.071899414 -0.00020694733
vn -0.9975586 -0.062347412 -0.00026082993
vn -0.9975586 -0.071899414 -0.00020706654
vn -0.9975586 -0.051330566 -0.00032281876
vn -0.9975586 -0.051361084 -0.00032281876
vn -0.9975586 -0.062347412 -0.00026082993
vn 0.0005941391 -0.005630493 -1
vn 0.0005941391 -0.005630493 -1
vn 0.0005941391 -0.005630493 -1
vn 0.0005941391 -0.005630493 -1
vn 0.0005941391 -0.005630493 -1
vn 0.0005941391 -0.005630493 -1
vn 0.0005941391 -0.005630493 -1
vn 0.0005941391 -0.005630493 -1
vn 0.0005941391 -0.005630493 -1
vn 0.0005941391 -0.005630493 -1
vn 0.0005941391 -0.005630493 -1
vn 0.0005941391 -0.005630493 -1
vn 0.0005941391 -0.005630493 -1
vn 0.0005941391 -0.005630493 -1
vn 0.0005941391 -0.005630493 -1
g DecalMesh_MetroArea_Decal_Lamp_02__59_0
f 3/3/3 2/2/2 1/1/1
f 6/6/6 5/5/5 4/4/4
f 9/9/9 8/8/8 7/7/7
f 12/12/12 11/11/11 10/10/10
f 15/15/15 14/14/14 13/13/13
f 18/18/18 17/17/17 16/16/16
f 21/21/21 20/20/20 19/19/19
f 24/24/24 23/23/23 22/22/22
f 27/27/27 26/26/26 25/25/25
f 30/30/30 29/29/29 28/28/28
f 33/33/33 32/32/32 31/31/31
f 36/36/36 35/35/35 34/34/34
f 39/39/39 38/38/38 37/37/37
f 42/42/42 41/41/41 40/40/40
f 45/45/45 44/44/44 43/43/43
f 48/48/48 47/47/47 46/46/46
f 51/51/51 50/50/50 49/49/49
f 54/54/54 53/53/53 52/52/52
