g DecalMesh_MetroArea_Decal_Ground_14__36
v -0.5 0.43670133 -0.037433643
v -0.5 -0.5 -0.037433524
v -0.029226901 -0.5 -0.037433524
v 0.50000006 -0.31664526 -0.037433546
v -0.3883683 0.5 -0.03743365
v 0.044347297 -0.5 -0.03743352
v 0.50000006 -0.31664526 -0.037433546
v 0.044347297 -0.5 -0.03743352
v 0.50000006 -0.49999997 -0.037433524
v -0.3883683 0.5 -0.03743365
v -0.5 0.5 -0.03743365
v -0.012909682 -0.5 -0.03743352
v -0.3883683 0.5 -0.03743365
v -0.012909682 -0.5 -0.03743352
v 0.044347297 -0.5 -0.03743352
v -0.5 0.5 -0.03743365
v -0.5 0.43670136 -0.037433643
v -0.029226871 -0.50000006 -0.037433524
v -0.5 0.5 -0.03743365
v -0.029226871 -0.50000006 -0.037433524
v -0.012909682 -0.5 -0.03743352
v 0.5 -0.3166452 -0.037433546
v 0.5 0.5 -0.03743365
v -0.3883683 0.49999997 -0.03743365
vt 0.9970703 0.6142578
vt 0.9970703 0.5083008
vt 0.9428711 0.5083008
vt 0.8823242 0.5292969
vt 0.9838867 0.62109375
vt 0.9345703 0.5083008
vt 0.8823242 0.5292969
vt 0.9345703 0.5083008
vt 0.8823242 0.5083008
vt 0.9838867 0.62109375
vt 0.9970703 0.62109375
vt 0.94091797 0.5083008
vt 0.9838867 0.62109375
vt 0.94091797 0.5083008
vt 0.9345703 0.5083008
vt 0.9970703 0.62109375
vt 0.9970703 0.6142578
vt 0.9428711 0.5083008
vt 0.9970703 0.62109375
vt 0.9428711 0.5083008
vt 0.94091797 0.5083008
vt 0.8823242 0.5292969
vt 0.8823242 0.62109375
vt 0.9838867 0.62109375
vn -0 3.5762787E-07 -1
vn -0 2.3841858E-07 -1
vn -0 2.3841858E-07 -1
vn -0 2.3841858E-07 -1
vn -0 3.5762787E-07 -1
vn -0 2.3841858E-07 -1
vn -0 2.3841858E-07 -1
vn -0 2.3841858E-07 -1
vn -0 2.3841858E-07 -1
vn -0 3.5762787E-07 -1
vn -0 3.5762787E-07 -1
vn -0 2.3841858E-07 -1
vn -0 3.5762787E-07 -1
vn -0 2.3841858E-07 -1
vn -0 2.3841858E-07 -1
vn -0 3.5762787E-07 -1
vn -0 3.5762787E-07 -1
vn -0 2.3841858E-07 -1
vn -0 3.5762787E-07 -1
vn -0 2.3841858E-07 -1
vn -0 2.3841858E-07 -1
vn -0 2.3841858E-07 -1
vn 5.173683E-05 0.00054216385 -1
vn -0 3.5762787E-07 -1
g DecalMesh_MetroArea_Decal_Ground_14__36_0
f 3/3/3 2/2/2 1/1/1
f 6/6/6 5/5/5 4/4/4
f 9/9/9 8/8/8 7/7/7
f 12/12/12 11/11/11 10/10/10
f 15/15/15 14/14/14 13/13/13
f 18/18/18 17/17/17 16/16/16
f 21/21/21 20/20/20 19/19/19
f 24/24/24 23/23/23 22/22/22
