g DecalMesh_MetroArea_Decal_Ground_27__31
v 0.5 0.6603298 -0.46957016
v 0.22703548 0.7084952 -0.46957016
v -0.30666742 -0.7084952 -0.46957016
v 0.5 0.6603298 -0.46957016
v -0.30666742 -0.7084952 -0.46957016
v -0.22727585 -0.7084952 -0.46957016
v 0.5 0.6603298 -0.46957016
v -0.22727585 -0.7084952 -0.46957016
v -0.20408821 -0.7084952 -0.46957016
v 0.22703548 0.7084952 -0.46957016
v -0.5 0.70849526 -0.46957016
v -0.5 -0.7084952 -0.46957016
v 0.22703548 0.7084952 -0.46957016
v -0.5 -0.7084952 -0.46957016
v -0.30666742 -0.7084952 -0.46957016
v 0.5 0.6603298 -0.46957016
v 0.5 0.7084952 -0.46957016
v 0.22703548 0.7084952 -0.46957016
v 0.5 0.6603298 -0.46957016
v -0.20408821 -0.7084952 -0.46957016
v 0.50000006 -0.70849514 -0.46957016
v -0.45100248 -0.22171527 -0.2750969
v -0.39991176 -0.22171515 -0.35168457
v -0.43998685 0.7084952 -0.29162207
v -0.45100248 -0.22171527 -0.2750969
v -0.43998685 0.7084952 -0.29162207
v -0.4510106 0.7084952 -0.2750969
v -0.39991176 -0.22171515 -0.35168457
v -0.3999199 0.70849514 -0.35168457
v -0.43998685 0.7084952 -0.29162207
v -0.39991176 -0.22171515 -0.35168457
v -0.31609786 -0.22171491 -0.3815651
v -0.38183552 0.70849514 -0.35813183
v -0.39991176 -0.22171515 -0.35168457
v -0.38183552 0.70849514 -0.35813183
v -0.3999199 0.70849514 -0.35168457
v -0.31609786 -0.22171491 -0.3815651
v -0.3161058 0.70849526 -0.3815651
v -0.38183552 0.70849514 -0.35813183
v -0.31609786 -0.22171491 -0.3815651
v -0.24306618 -0.2217147 -0.35595322
v -0.3003479 0.70849526 -0.37603885
v -0.31609786 -0.22171491 -0.3815651
v -0.3003479 0.70849526 -0.37603885
v -0.3161058 0.70849526 -0.3815651
v -0.24306618 -0.2217147 -0.35595322
v -0.24307433 0.70849514 -0.35595322
v -0.30034786 0.7084952 -0.37603885
v -0.24306618 -0.2217147 -0.35595322
v -0.1937822 -0.22171456 -0.29977798
v -0.23244038 0.70849514 -0.34383237
v -0.24306618 -0.2217147 -0.35595322
v -0.23244038 0.70849514 -0.34383237
v -0.24307433 0.70849514 -0.35595322
v -0.1937822 -0.22171456 -0.29977798
v -0.19379015 0.7084952 -0.29977798
v -0.2324404 0.7084952 -0.34383237
v -0.1937822 -0.22171456 -0.29977798
v -0.18903528 -0.22171456 -0.217762
v -0.19276592 0.7084952 -0.2820815
v -0.1937822 -0.22171456 -0.29977798
v -0.19276592 0.7084952 -0.2820815
v -0.19379015 0.7084952 -0.29977798
v -0.23078714 -0.22171468 -0.11802292
v -0.17674719 -0.22171451 -0.11009216
v -0.21913517 0.7084952 -0.116311714
v -0.23078714 -0.22171468 -0.11802292
v -0.21913517 0.7084952 -0.116311714
v -0.2307953 0.7084952 -0.11802292
v -0.17674719 -0.22171451 -0.11009216
v -0.17675534 0.70849526 -0.11009216
v -0.21913517 0.70849514 -0.116311714
v -0.17674719 -0.22171451 -0.11009216
v -0.14031301 -0.2217144 -0.08634186
v -0.16889398 0.70849526 -0.104967594
v -0.17674719 -0.22171451 -0.11009216
v -0.16889398 0.70849526 -0.104967594
v -0.17675534 0.70849526 -0.11009216
v -0.14031301 -0.2217144 -0.08634186
v -0.14032097 0.70849526 -0.08634186
v -0.16889398 0.70849526 -0.104967594
v -0.14031301 -0.2217144 -0.08634186
v -0.117015705 -0.22171435 -0.054145813
v -0.13529408 0.70849526 -0.07939488
v -0.14031301 -0.2217144 -0.08634186
v -0.13529408 0.70849526 -0.07939488
v -0.14032097 0.70849526 -0.08634186
v -0.117015705 -0.22171435 -0.054145813
v -0.11702385 0.7084952 -0.054145813
v -0.13529408 0.70849526 -0.07939488
v -0.117015705 -0.22171435 -0.054145813
v -0.10622583 -0.2217105 -0.03092575
v -0.1146957 0.7084952 -0.049135573
v -0.117015705 -0.22171435 -0.054145813
v -0.1146957 0.7084952 -0.049135573
v -0.11702385 0.7084952 -0.054145813
v -0.10622583 -0.2217105 -0.03092575
v -0.10623398 0.7084952 -0.03092575
v -0.1146957 0.7084952 -0.049135573
v -0.10622583 -0.2217105 -0.03092575
v -0.019756183 -0.22171026 -0.029212952
v -0.08757624 0.7084952 -0.030556176
v -0.10622583 -0.2217105 -0.03092575
v -0.08757624 0.7084952 -0.030556176
v -0.10623398 0.7084952 -0.03092575
v -0.019756183 -0.22171026 -0.029212952
v -0.019764235 0.7084952 -0.029212952
v -0.08757624 0.7084952 -0.030556176
v -0.019756183 -0.22171026 -0.029212952
v 0.3151455 0.7084952 -0.030556174
v -0.019764235 0.7084952 -0.029212952
v -0.019756183 -0.22171026 -0.029212952
v 0.40730083 -0.22170906 -0.03092575
v 0.40729287 0.7084952 -0.03092575
v -0.019756183 -0.22171026 -0.029212952
v 0.40729287 0.7084952 -0.03092575
v 0.3151455 0.7084952 -0.030556174
v 0.5 -0.21368669 -0.41945267
v -0.3891459 -0.0616733 -0.024929047
v -0.5 -0.19317693 -0.36620015
v 0.5 -0.21368669 -0.41945267
v -0.5 -0.19317693 -0.36620015
v -0.5 -0.21369681 -0.41945267
v -0.3891459 -0.0616733 -0.024929047
v 0.5 -0.21368669 -0.41945267
v 0.5 -0.20899236 -0.4072701
v 0.40063614 -0.06166727 -0.024929047
v -0.3891459 -0.0616733 -0.024929047
v 0.5 -0.20899236 -0.4072701
v 0.40063614 -0.06166727 -0.024929047
v 0.5 -0.20899236 -0.4072701
v 0.5 -0.17995878 -0.33192194
v 0.40063614 -0.06166727 -0.024929047
v 0.5 -0.17995878 -0.33192194
v 0.5 0.7084952 -0.3319455
v 0.40063614 -0.06166727 -0.024929047
v 0.5 0.7084952 -0.3319455
v 0.42362723 0.70849514 -0.095983095
v 0.40063614 -0.06166727 -0.024929047
v 0.42362723 0.7084952 -0.0959831
v 0.40062946 0.7084952 -0.024929047
v -0.3891459 -0.0616733 -0.024929047
v -0.38915253 0.7084952 -0.024929047
v -0.41223326 0.70849526 -0.09598367
v -0.3891459 -0.0616733 -0.024929047
v -0.41223326 0.7084953 -0.09598368
v -0.5 -0.061867002 -0.36619666
v -0.3891459 -0.0616733 -0.024929047
v -0.5 -0.061867002 -0.36619666
v -0.5 -0.19317693 -0.36620015
v -0.41223326 0.7084953 -0.09598368
v -0.5 0.70849514 -0.3661761
v -0.5 -0.061867017 -0.36619666
vt 0.006801605 0.265625
vt 0.042999268 0.27172852
vt 0.113708496 0.089782715
vt 0.006801605 0.265625
vt 0.113708496 0.089782715
vt 0.10321045 0.089782715
vt 0.006801605 0.265625
vt 0.10321045 0.089782715
vt 0.10015869 0.089782715
vt 0.042999268 0.27172852
vt 0.1394043 0.27172852
vt 0.1394043 0.089782715
vt 0.042999268 0.27172852
vt 0.1394043 0.089782715
vt 0.113708496 0.089782715
vt 0.006801605 0.265625
vt 0.006801605 0.27172852
vt 0.042999268 0.27172852
vt 0.006801605 0.265625
vt 0.10015869 0.089782715
vt 0.006801605 0.089782715
vt 0.1328125 0.15234375
vt 0.12609863 0.15234375
vt 0.13134766 0.27172852
vt 0.1328125 0.15234375
vt 0.13134766 0.27172852
vt 0.1328125 0.27172852
vt 0.12609863 0.15234375
vt 0.12609863 0.27172852
vt 0.13134766 0.27172852
vt 0.12609863 0.15234375
vt 0.114990234 0.15234375
vt 0.12371826 0.27172852
vt 0.12609863 0.15234375
vt 0.12371826 0.27172852
vt 0.12609863 0.27172852
vt 0.114990234 0.15234375
vt 0.114990234 0.27172852
vt 0.12371826 0.27172852
vt 0.114990234 0.15234375
vt 0.105285645 0.15234375
vt 0.11291504 0.27172852
vt 0.114990234 0.15234375
vt 0.11291504 0.27172852
vt 0.114990234 0.27172852
vt 0.105285645 0.15234375
vt 0.105285645 0.27172852
vt 0.11291504 0.27172852
vt 0.105285645 0.15234375
vt 0.09875488 0.15234375
vt 0.103881836 0.27172852
vt 0.105285645 0.15234375
vt 0.103881836 0.27172852
vt 0.105285645 0.27172852
vt 0.09875488 0.15234375
vt 0.09875488 0.27172852
vt 0.103881836 0.27172852
vt 0.09875488 0.15234375
vt 0.09814453 0.15234375
vt 0.09863281 0.27172852
vt 0.09875488 0.15234375
vt 0.09863281 0.27172852
vt 0.09875488 0.27172852
vt 0.10369873 0.15234375
vt 0.09649658 0.15234375
vt 0.10211182 0.27172852
vt 0.10369873 0.15234375
vt 0.10211182 0.27172852
vt 0.10369873 0.27172852
vt 0.09649658 0.15234375
vt 0.09649658 0.27172852
vt 0.10211182 0.27172852
vt 0.09649658 0.15234375
vt 0.091674805 0.15234375
vt 0.095458984 0.27172852
vt 0.09649658 0.15234375
vt 0.095458984 0.27172852
vt 0.09649658 0.27172852
vt 0.091674805 0.15234375
vt 0.091674805 0.27172852
vt 0.095458984 0.27172852
vt 0.091674805 0.15234375
vt 0.08856201 0.15234375
vt 0.09100342 0.27172852
vt 0.091674805 0.15234375
vt 0.09100342 0.27172852
vt 0.091674805 0.27172852
vt 0.08856201 0.15234375
vt 0.08862305 0.27172852
vt 0.09100342 0.27172852
vt 0.08856201 0.15234375
vt 0.0871582 0.15234375
vt 0.088256836 0.27172852
vt 0.08856201 0.15234375
vt 0.088256836 0.27172852
vt 0.08862305 0.27172852
vt 0.0871582 0.15234375
vt 0.0871582 0.27172852
vt 0.088256836 0.27172852
vt 0.0871582 0.15234375
vt 0.075683594 0.15234375
vt 0.0847168 0.27172852
vt 0.0871582 0.15234375
vt 0.0847168 0.27172852
vt 0.0871582 0.27172852
vt 0.075683594 0.15234375
vt 0.075683594 0.27172852
vt 0.0847168 0.27172852
vt 0.075683594 0.15234375
vt 0.031311035 0.27172852
vt 0.075683594 0.27172852
vt 0.075683594 0.15234375
vt 0.019088745 0.15234375
vt 0.019088745 0.27172852
vt 0.075683594 0.15234375
vt 0.019088745 0.27172852
vt 0.031311035 0.27172852
vt 0.006801605 0.15332031
vt 0.12463379 0.17285156
vt 0.1394043 0.15600586
vt 0.006801605 0.15332031
vt 0.1394043 0.15600586
vt 0.1394043 0.15332031
vt 0.12463379 0.17285156
vt 0.006801605 0.15332031
vt 0.006801605 0.15393066
vt 0.019973755 0.17285156
vt 0.12463379 0.17285156
vt 0.006801605 0.15393066
vt 0.019973755 0.17285156
vt 0.006801605 0.15393066
vt 0.006801605 0.15771484
vt 0.019973755 0.17285156
vt 0.006801605 0.15771484
vt 0.006801605 0.27172852
vt 0.019973755 0.17285156
vt 0.006801605 0.27172852
vt 0.016921997 0.27172852
vt 0.019973755 0.17285156
vt 0.016921997 0.27172852
vt 0.019973755 0.27172852
vt 0.12463379 0.17285156
vt 0.124694824 0.27172852
vt 0.12768555 0.27172852
vt 0.12463379 0.17285156
vt 0.12768555 0.27172852
vt 0.1394043 0.17285156
vt 0.12463379 0.17285156
vt 0.1394043 0.17285156
vt 0.1394043 0.15600586
vt 0.12768555 0.27172852
vt 0.1394043 0.27172852
vt 0.1394043 0.17285156
vn -0 0 -1
vn -0 0 -1
vn -0 0 -1
vn -0 0 -1
vn -0 0 -1
vn -0 0 -1
vn -0 0 -1
vn -0 0 -1
vn -0 0 -1
vn -0 0 -1
vn -0 0 -1
vn -0 0 -1
vn -0 0 -1
vn -0 0 -1
vn -0 0 -1
vn -0 0 -1
vn -0 0 -1
vn -0 0 -1
vn -0 0 -1
vn -0 0 -1
vn -0 0 -1
vn -0.83154297 -7.212162E-06 -0.5551758
vn -0.6196289 -5.364418E-06 -0.78515625
vn -0.7861328 -6.7949295E-06 -0.60498047
vn -0.83154297 -7.212162E-06 -0.5551758
vn -0.7861328 -6.7949295E-06 -0.60498047
vn -0.83154297 -7.212162E-06 -0.5551758
vn -0.6196289 -5.364418E-06 -0.78515625
vn -0.6196289 -5.364418E-06 -0.78515625
vn -0.7861328 -6.7949295E-06 -0.60498047
vn -0.6196289 -5.364418E-06 -0.78515625
vn -0.02746582 -2.3841858E-07 -0.9995117
vn -0.49169922 -4.23193E-06 -0.8310547
vn -0.6196289 -5.364418E-06 -0.78515625
vn -0.49169922 -4.23193E-06 -0.8310547
vn -0.6196289 -5.364418E-06 -0.78515625
vn -0.02746582 -2.3841858E-07 -0.9995117
vn -0.02746582 -2.3841858E-07 -0.9995117
vn -0.49169922 -4.23193E-06 -0.8310547
vn -0.02746582 -2.3841858E-07 -0.9995117
vn 0.55566406 4.827976E-06 -0.83154297
vn 0.09832764 8.34465E-07 -0.9633789
vn -0.02746582 -2.3841858E-07 -0.9995117
vn 0.09832764 8.34465E-07 -0.9633789
vn -0.02746582 -2.3841858E-07 -0.9995117
vn 0.55566406 4.827976E-06 -0.83154297
vn 0.55566406 4.827976E-06 -0.83154297
vn 0.09832764 8.34465E-07 -0.9633789
vn 0.55566406 4.827976E-06 -0.83154297
vn 0.93115234 8.106232E-06 -0.36499023
vn 0.63671875 5.543232E-06 -0.73095703
vn 0.55566406 4.827976E-06 -0.83154297
vn 0.63671875 5.543232E-06 -0.73095703
vn 0.55566406 4.827976E-06 -0.83154297
vn 0.93115234 8.106232E-06 -0.36499023
vn 0.93115234 8.106232E-06 -0.36499023
vn 0.63671875 5.543232E-06 -0.73095703
vn 0.93115234 8.106232E-06 -0.36499023
vn 0.97216797 8.46386E-06 0.23376465
vn 0.9399414 8.165836E-06 -0.23583984
vn 0.93115234 8.106232E-06 -0.36499023
vn 0.9399414 8.165836E-06 -0.23583984
vn 0.93115234 8.106232E-06 -0.36499023
vn 0.14489746 1.2516975E-06 -0.9892578
vn 0.3310547 2.9206276E-06 -0.94384766
vn 0.1850586 1.6093254E-06 -0.9794922
vn 0.14489746 1.2516975E-06 -0.9892578
vn 0.1850586 1.6093254E-06 -0.9794922
vn 0.14489746 1.2516975E-06 -0.9892578
vn 0.3310547 2.9206276E-06 -0.94384766
vn 0.3310547 2.9206276E-06 -0.94384766
vn 0.1850586 1.6093254E-06 -0.9794922
vn 0.3310547 2.9206276E-06 -0.94384766
vn 0.68359375 5.9604645E-06 -0.72998047
vn 0.40722656 3.5762787E-06 -0.89746094
vn 0.3310547 2.9206276E-06 -0.94384766
vn 0.40722656 3.5762787E-06 -0.89746094
vn 0.3310547 2.9206276E-06 -0.94384766
vn 0.68359375 5.9604645E-06 -0.72998047
vn 0.68359375 5.9604645E-06 -0.72998047
vn 0.40722656 3.5762787E-06 -0.89746094
vn 0.68359375 5.9604645E-06 -0.72998047
vn 0.8515625 7.390976E-06 -0.5239258
vn 0.71972656 6.2584877E-06 -0.6855469
vn 0.68359375 5.9604645E-06 -0.72998047
vn 0.71972656 6.2584877E-06 -0.6855469
vn 0.68359375 5.9604645E-06 -0.72998047
vn 0.8515625 7.390976E-06 -0.5239258
vn 0.8515625 7.390976E-06 -0.5239258
vn 0.71972656 6.2584877E-06 -0.6855469
vn 0.8515625 7.390976E-06 -0.5239258
vn 0.9067383 7.927418E-06 -0.42163086
vn 0.86376953 7.5101852E-06 -0.5019531
vn 0.8515625 7.390976E-06 -0.5239258
vn 0.86376953 7.5101852E-06 -0.5019531
vn 0.8515625 7.390976E-06 -0.5239258
vn 0.9067383 7.927418E-06 -0.42163086
vn 0.9067383 7.927418E-06 -0.42163086
vn 0.86376953 7.5101852E-06 -0.5019531
vn 0.019836426 1.7881393E-07 -1
vn -0 0 -1
vn 0.015556335 1.1920929E-07 -1
vn 0.019836426 1.7881393E-07 -1
vn 0.015556335 1.1920929E-07 -1
vn 0.019836426 1.7881393E-07 -1
vn -0 0 -1
vn -0 0 -1
vn 0.015556335 1.1920929E-07 -1
vn -0 0 -1
vn -0.0035896301 0 -1
vn -0 0 -1
vn -0 0 -1
vn -0.0045776367 0 -1
vn -0.0045776367 0 -1
vn -0 0 -1
vn -0.0045776367 0 -1
vn -0.0035896301 0 -1
vn -8.046627E-06 0.93359375 -0.3581543
vn -8.046627E-06 0.93359375 -0.35888672
vn -8.046627E-06 0.93359375 -0.3581543
vn -8.046627E-06 0.93359375 -0.3581543
vn -8.046627E-06 0.93359375 -0.3581543
vn -8.046627E-06 0.93359375 -0.3581543
vn -8.046627E-06 0.93359375 -0.35888672
vn -8.046627E-06 0.93359375 -0.3581543
vn -8.046627E-06 0.93359375 -0.3581543
vn -8.046627E-06 0.93359375 -0.35888672
vn -8.046627E-06 0.93359375 -0.35888672
vn -8.046627E-06 0.93359375 -0.3581543
vn -8.046627E-06 0.93359375 -0.35888672
vn -8.046627E-06 0.93359375 -0.3581543
vn -8.046627E-06 0.93359375 -0.35839844
vn -0.95166016 -8.285046E-06 -0.30737305
vn -0.95166016 -8.285046E-06 -0.30664062
vn -0.95166016 -8.285046E-06 -0.30664062
vn -0.95166016 -8.285046E-06 -0.30737305
vn -0.95166016 -8.285046E-06 -0.30664062
vn -0.95166016 -8.285046E-06 -0.3071289
vn -0.95166016 -8.285046E-06 -0.30737305
vn -0.95166016 -8.285046E-06 -0.3071289
vn -0.95166016 -8.285046E-06 -0.30737305
vn 0.9511719 8.285046E-06 -0.30908203
vn 0.9511719 8.285046E-06 -0.30908203
vn 0.9511719 8.285046E-06 -0.30908203
vn 0.9511719 8.285046E-06 -0.30908203
vn 0.9511719 8.285046E-06 -0.30908203
vn 0.9511719 8.285046E-06 -0.3083496
vn 0.9511719 8.285046E-06 -0.30908203
vn 0.9511719 8.285046E-06 -0.3083496
vn 0.9511719 8.285046E-06 -0.3083496
vn 0.9511719 8.285046E-06 -0.30908203
vn 0.9511719 8.285046E-06 -0.3083496
vn 0.9511719 8.285046E-06 -0.3083496
g DecalMesh_MetroArea_Decal_Ground_27__31_0
f 3/3/3 2/2/2 1/1/1
f 6/6/6 5/5/5 4/4/4
f 9/9/9 8/8/8 7/7/7
f 12/12/12 11/11/11 10/10/10
f 15/15/15 14/14/14 13/13/13
f 18/18/18 17/17/17 16/16/16
f 21/21/21 20/20/20 19/19/19
f 24/24/24 23/23/23 22/22/22
f 27/27/27 26/26/26 25/25/25
f 30/30/30 29/29/29 28/28/28
f 33/33/33 32/32/32 31/31/31
f 36/36/36 35/35/35 34/34/34
f 39/39/39 38/38/38 37/37/37
f 42/42/42 41/41/41 40/40/40
f 45/45/45 44/44/44 43/43/43
f 48/48/48 47/47/47 46/46/46
f 51/51/51 50/50/50 49/49/49
f 54/54/54 53/53/53 52/52/52
f 57/57/57 56/56/56 55/55/55
f 60/60/60 59/59/59 58/58/58
f 63/63/63 62/62/62 61/61/61
f 66/66/66 65/65/65 64/64/64
f 69/69/69 68/68/68 67/67/67
f 72/72/72 71/71/71 70/70/70
f 75/75/75 74/74/74 73/73/73
f 78/78/78 77/77/77 76/76/76
f 81/81/81 80/80/80 79/79/79
f 84/84/84 83/83/83 82/82/82
f 87/87/87 86/86/86 85/85/85
f 90/90/90 89/89/89 88/88/88
f 93/93/93 92/92/92 91/91/91
f 96/96/96 95/95/95 94/94/94
f 99/99/99 98/98/98 97/97/97
f 102/102/102 101/101/101 100/100/100
f 105/105/105 104/104/104 103/103/103
f 108/108/108 107/107/107 106/106/106
f 111/111/111 110/110/110 109/109/109
f 114/114/114 113/113/113 112/112/112
f 117/117/117 116/116/116 115/115/115
f 120/120/120 119/119/119 118/118/118
f 123/123/123 122/122/122 121/121/121
f 126/126/126 125/125/125 124/124/124
f 129/129/129 128/128/128 127/127/127
f 132/132/132 131/131/131 130/130/130
f 135/135/135 134/134/134 133/133/133
f 138/138/138 137/137/137 136/136/136
f 141/141/141 140/140/140 139/139/139
f 144/144/144 143/143/143 142/142/142
f 147/147/147 146/146/146 145/145/145
f 150/150/150 149/149/149 148/148/148
f 153/153/153 152/152/152 151/151/151
