g DecalMesh_Common_Decal_Sign_13__15
v 0.26974866 0.2663642 -0.008458691
v 0.06383176 -0.2648342 0.009433633
v 0.26974866 -0.26483417 0.0049890433
v 0.26974866 0.2663642 -0.008458691
v 0.019567888 0.26636416 -0.0030586915
v -0.100436404 -0.2648342 0.012979261
v 0.26974866 0.2663642 -0.008458691
v -0.100436404 -0.2648342 0.012979261
v 0.048003044 -0.26483417 0.009775286
v 0.26974866 0.2663642 -0.008458691
v 0.048003044 -0.26483417 0.009775286
v 0.06383176 -0.2648342 0.009433633
v 0.019567888 0.26636416 -0.0030586915
v -0.2755213 0.2663642 0.0033106627
v -0.2755213 -0.26483417 0.016758382
v 0.019567888 0.26636416 -0.0030586915
v -0.2755213 -0.26483417 0.016758382
v -0.100436404 -0.2648342 0.012979261
vt -0.23352051 0.99658203
vt -0.19274902 0.8769531
vt -0.23352051 0.8769531
vt -0.23352051 0.99658203
vt -0.18395996 0.99658203
vt -0.16015625 0.8769531
vt -0.23352051 0.99658203
vt -0.16015625 0.8769531
vt -0.1895752 0.8769531
vt -0.23352051 0.99658203
vt -0.1895752 0.8769531
vt -0.19274902 0.8769531
vt -0.18395996 0.99658203
vt -0.12548828 0.99658203
vt -0.12548828 0.8769531
vt -0.18395996 0.99658203
vt -0.12548828 0.8769531
vt -0.16015625 0.8769531
vn -0.038085938 -0.025039673 -0.99902344
vn -0.026428223 -0.025222778 -0.99902344
vn -0.03857422 -0.025024414 -0.99902344
vn -0.038085938 -0.025039673 -0.99902344
vn -0.023345947 -0.025268555 -0.99902344
vn -0.016738892 -0.025375366 -0.9995117
vn -0.038085938 -0.025039673 -0.99902344
vn -0.016738892 -0.025375366 -0.9995117
vn -0.025497437 -0.025238037 -0.99902344
vn -0.038085938 -0.025039673 -0.99902344
vn -0.025497437 -0.025238037 -0.99902344
vn -0.026428223 -0.025222778 -0.99902344
vn -0.023345947 -0.025268555 -0.99902344
vn -0.005935669 -0.025543213 -0.9995117
vn -0.006412506 -0.025543213 -0.9995117
vn -0.023345947 -0.025268555 -0.99902344
vn -0.006412506 -0.025543213 -0.9995117
vn -0.016738892 -0.025375366 -0.9995117
g DecalMesh_Common_Decal_Sign_13__15_0
f 3/3/3 2/2/2 1/1/1
f 6/6/6 5/5/5 4/4/4
f 9/9/9 8/8/8 7/7/7
f 12/12/12 11/11/11 10/10/10
f 15/15/15 14/14/14 13/13/13
f 18/18/18 17/17/17 16/16/16
