g DecalMesh_Common_Decal_Sign_13__32
v 0.25380087 0.2538008 0.005929975
v 0.08283037 -0.25380084 0.047879837
v 0.25380087 -0.2538008 0.049785037
v 0.25380087 0.2538008 0.005929975
v 0.099921085 0.2538008 0.0042152246
v -0.025211975 -0.25380084 0.046675876
v 0.25380087 0.2538008 0.005929975
v -0.025211975 -0.25380084 0.046675876
v 0.07423113 -0.25380084 0.047784016
v 0.25380087 0.2538008 0.005929975
v 0.07423113 -0.25380084 0.047784016
v 0.08283037 -0.25380084 0.047879837
v 0.09992107 0.25380078 0.004215228
v -0.25380087 0.2538009 0.00027067124
v -0.25380087 -0.25380087 0.04412676
v 0.09992107 0.25380078 0.004215228
v -0.25380087 -0.25380087 0.04412676
v -0.025211984 -0.25380084 0.04667588
vt -0.23413086 0.99658203
vt -0.1977539 0.8769531
vt -0.23413086 0.8769531
vt -0.23413086 0.99658203
vt -0.20129395 0.99658203
vt -0.17468262 0.8769531
vt -0.23413086 0.99658203
vt -0.17468262 0.8769531
vt -0.19592285 0.8769531
vt -0.23413086 0.99658203
vt -0.19592285 0.8769531
vt -0.1977539 0.8769531
vt -0.20129395 0.99658203
vt -0.12597656 0.99658203
vt -0.12597656 0.8769531
vt -0.20129395 0.99658203
vt -0.12597656 0.8769531
vt -0.17468262 0.8769531
vn -0.0018472672 -0.085632324 -0.99609375
vn 0.007205963 -0.0859375 -0.99609375
vn -0.002866745 -0.08557129 -0.99609375
vn -0.0018472672 -0.085632324 -0.99609375
vn 0.007221222 -0.0859375 -0.99609375
vn 0.013572693 -0.086120605 -0.99609375
vn -0.0018472672 -0.085632324 -0.99609375
vn 0.013572693 -0.086120605 -0.99609375
vn 0.007713318 -0.0859375 -0.99609375
vn -0.0018472672 -0.085632324 -0.99609375
vn 0.007713318 -0.0859375 -0.99609375
vn 0.007205963 -0.0859375 -0.99609375
vn 0.007221222 -0.0859375 -0.99609375
vn 0.028060913 -0.08660889 -0.99560547
vn 0.027038574 -0.08660889 -0.99609375
vn 0.007221222 -0.0859375 -0.99609375
vn 0.027038574 -0.08660889 -0.99609375
vn 0.013572693 -0.086120605 -0.99609375
g DecalMesh_Common_Decal_Sign_13__32_0
f 3/3/3 2/2/2 1/1/1
f 6/6/6 5/5/5 4/4/4
f 9/9/9 8/8/8 7/7/7
f 12/12/12 11/11/11 10/10/10
f 15/15/15 14/14/14 13/13/13
f 18/18/18 17/17/17 16/16/16
