g DecalMesh_Common_Decal_Sign_13__66
v 0.54052585 0.28877914 0.023157079
v -0.5405259 -0.4407172 0.023157166
v -0.3702141 -0.59532976 0.023157192
v 0.54052585 0.28877914 0.023157079
v -0.3702141 -0.59532976 0.023157192
v 0.54052585 -0.59532976 0.023157211
v -0.5405259 -0.4407172 0.023157166
v -0.5405259 -0.59532976 0.023157189
v -0.37021407 -0.59532976 0.023157192
v 0.5405259 0.2887792 0.023157079
v 0.12612793 0.6013298 0.023157056
v -0.540526 -0.102496214 0.023157135
v 0.5405259 0.2887792 0.023157079
v -0.540526 -0.102496214 0.023157135
v -0.5405259 -0.4407172 0.023157166
v 0.12612793 0.6013298 0.023157056
v -0.5405259 0.6013298 0.023157068
v -0.5405259 -0.10249617 0.023157135
v 0.5405259 0.2887792 0.023157079
v 0.5405259 0.6013298 0.023157049
v 0.12612797 0.6013298 0.023157056
v 0.4955513 0.60132974 0.0534858
v -0.540526 0.6013298 0.0534858
v -0.540526 -0.59532976 0.05348594
v 0.4955513 0.60132974 0.0534858
v -0.540526 -0.59532976 0.05348594
v -0.5176433 -0.59532976 0.05348594
v 0.540526 0.6013298 0.0534858
v -0.4934658 -0.59532976 0.05348594
v 0.540526 -0.5953298 0.05348594
v 0.540526 0.6013298 0.0534858
v 0.49555132 0.6013298 0.0534858
v -0.5176433 -0.59532976 0.05348594
v 0.540526 0.6013298 0.0534858
v -0.5176433 -0.59532976 0.05348594
v -0.51664996 -0.59532976 0.05348594
v 0.540526 0.6013298 0.0534858
v -0.51664996 -0.59532976 0.05348594
v -0.4934658 -0.59532976 0.05348594
vt -0.23413086 0.9658203
vt -0.12597656 0.8925781
vt -0.1430664 0.8769531
vt -0.23413086 0.9658203
vt -0.1430664 0.8769531
vt -0.23413086 0.8769531
vt -0.12597656 0.8925781
vt -0.12597656 0.8769531
vt -0.1430664 0.8769531
vt -0.23413086 0.9658203
vt -0.19262695 0.9970703
vt -0.12597656 0.92626953
vt -0.23413086 0.9658203
vt -0.12597656 0.92626953
vt -0.12597656 0.8925781
vt -0.19262695 0.9970703
vt -0.12597656 0.9970703
vt -0.12597656 0.92626953
vt -0.23413086 0.9658203
vt -0.23413086 0.9970703
vt -0.19262695 0.9970703
vt -0.22961426 0.9970703
vt -0.12597656 0.9970703
vt -0.12597656 0.8769531
vt -0.22961426 0.9970703
vt -0.12597656 0.8769531
vt -0.1282959 0.8769531
vt -0.23413086 0.9970703
vt -0.1307373 0.8769531
vt -0.23413086 0.8769531
vt -0.23413086 0.9970703
vt -0.22961426 0.9970703
vt -0.1282959 0.8769531
vt -0.23413086 0.9970703
vt -0.1282959 0.8769531
vt -0.12841797 0.8769531
vt -0.23413086 0.9970703
vt -0.12841797 0.8769531
vt -0.1307373 0.8769531
vn 0 0 -1
vn 0 0 -1
vn 0 0 -1
vn 0 0 -1
vn 0 0 -1
vn 0 0 -1
vn 0 0 -1
vn 0 0 -1
vn 0 0 -1
vn 0 0 -1
vn 0 0 -1
vn 0 0 -1
vn 0 0 -1
vn 0 0 -1
vn 0 0 -1
vn 0 0 -1
vn 0 0 -1
vn 0 0 -1
vn 0 0 -1
vn 0 0 -1
vn 0 0 -1
vn -0 5.9604645E-08 -1
vn -0 5.9604645E-08 -1
vn -0 5.9604645E-08 -1
vn -0 5.9604645E-08 -1
vn -0 5.9604645E-08 -1
vn -0 5.9604645E-08 -1
vn -0 5.9604645E-08 -1
vn -0 5.9604645E-08 -1
vn -0 5.9604645E-08 -1
vn -0 5.9604645E-08 -1
vn -0 5.9604645E-08 -1
vn -0 5.9604645E-08 -1
vn -0 5.9604645E-08 -1
vn -0 5.9604645E-08 -1
vn -0 5.9604645E-08 -1
vn -0 5.9604645E-08 -1
vn -0 5.9604645E-08 -1
vn -0 5.9604645E-08 -1
g DecalMesh_Common_Decal_Sign_13__66_0
f 3/3/3 2/2/2 1/1/1
f 6/6/6 5/5/5 4/4/4
f 9/9/9 8/8/8 7/7/7
f 12/12/12 11/11/11 10/10/10
f 15/15/15 14/14/14 13/13/13
f 18/18/18 17/17/17 16/16/16
f 21/21/21 20/20/20 19/19/19
f 24/24/24 23/23/23 22/22/22
f 27/27/27 26/26/26 25/25/25
f 30/30/30 29/29/29 28/28/28
f 33/33/33 32/32/32 31/31/31
f 36/36/36 35/35/35 34/34/34
f 39/39/39 38/38/38 37/37/37
