g DecalMesh_MetroArea_Decal_Graffiti_17__42
v -1.1686066 -0.5650005 0.03349495
v -1.1686066 -0.9100335 0.03349495
v -0.029297806 -0.9100335 0.03349495
v 1.1686065 -0.62952304 0.03349495
v -1.1686066 -0.23326501 0.03349495
v 0.35297197 -0.9100335 0.03349495
v 1.1686065 -0.62952304 0.03349495
v 0.35297197 -0.9100335 0.03349495
v 1.1686065 -0.9100335 0.03349495
v -1.1686066 -0.23326501 0.03349495
v -1.1686066 -0.5650005 0.03349495
v -0.029297806 -0.9100335 0.03349495
v -1.1686066 -0.23326501 0.03349495
v -0.029297806 -0.9100335 0.03349495
v 0.35297197 -0.9100335 0.03349495
v 1.1686065 -0.62952304 0.03349495
v 0.4230499 0.9160336 0.03349495
v -1.1686066 0.6322963 0.03349495
v 1.1686065 -0.62952304 0.03349495
v -1.1686066 0.6322963 0.03349495
v -1.1686066 -0.23326501 0.03349495
v 0.4230499 0.9160336 0.03349495
v -1.1686066 0.9160336 0.03349495
v -1.1686066 0.6322963 0.03349495
v 1.1686065 -0.62952304 0.03349495
v 1.1686065 0.3195579 0.03349495
v 0.75509787 0.91603357 0.03349495
v 1.1686065 -0.62952304 0.03349495
v 0.75509787 0.91603357 0.03349495
v 0.4230499 0.9160336 0.03349495
v 1.1686065 0.31955802 0.03349495
v 1.1686066 0.91603357 0.03349495
v 0.755098 0.91603357 0.03349495
v -1.0702932 0.81670725 -0.006668091
v -1.1391515 0.9160336 -0.006668091
v -1.1686066 0.8934196 -0.006668091
v -1.0702932 0.81670725 -0.006668091
v -1.1686066 0.8934196 -0.006668091
v -1.1686066 0.7485512 -0.006668091
v -1.1391515 0.9160336 -0.006668091
v -1.1686066 0.9160336 -0.006668091
v -1.1686066 0.8934197 -0.006668091
v -1.0702932 0.81670725 -0.006668091
v -1.1686066 0.7485512 -0.006668091
v 0.08212528 -0.9100335 -0.006668091
v -1.0702932 0.81670725 -0.006668091
v 0.08212528 -0.9100335 -0.006668091
v 0.12677403 -0.9100335 -0.006668091
v -1.1686066 0.7485512 -0.006668091
v -1.1686068 -0.9100336 -0.006668091
v 0.08212533 -0.9100336 -0.006668091
v 1.0463625 0.91603357 -0.006668091
v 0.7532817 -0.9100335 -0.006668091
v 1.1482773 -0.9100336 -0.006668091
v 1.0463625 0.91603357 -0.006668091
v 0.85824937 0.9160336 -0.006668091
v 0.6993565 -0.9100335 -0.006668091
v 1.0463625 0.91603357 -0.006668091
v 0.6993565 -0.9100335 -0.006668091
v 0.7532817 -0.9100335 -0.006668091
v 1.1686066 0.9160337 -0.006668091
v 1.0463625 0.91603357 -0.006668091
v 1.1482772 -0.9100335 -0.006668091
v 1.1686066 0.9160337 -0.006668091
v 1.1482772 -0.9100335 -0.006668091
v 1.1686066 -0.9100335 -0.006668091
v 0.85824937 0.9160336 -0.006668091
v -1.0702932 0.81670725 -0.006668091
v 0.12677403 -0.9100335 -0.006668091
v 0.85824937 0.9160336 -0.006668091
v 0.12677403 -0.9100335 -0.006668091
v 0.6993565 -0.9100335 -0.006668091
v -1.0702932 0.81670725 -0.006668091
v 0.85824937 0.9160336 -0.006668091
v -0.9270174 0.91603357 -0.006668091
v -1.0702932 0.81670725 -0.006668091
v -0.9270174 0.91603357 -0.006668091
v -1.1391513 0.91603357 -0.006668091
vt 0.7709961 0.7128906
vt 0.7709961 0.6972656
vt 0.7211914 0.6972656
vt 0.6689453 0.70996094
vt 0.7709961 0.72802734
vt 0.70458984 0.6972656
vt 0.6689453 0.70996094
vt 0.70458984 0.6972656
vt 0.6689453 0.6972656
vt 0.7709961 0.72802734
vt 0.7709961 0.7128906
vt 0.7211914 0.6972656
vt 0.7709961 0.72802734
vt 0.7211914 0.6972656
vt 0.70458984 0.6972656
vt 0.6689453 0.70996094
vt 0.70166016 0.77978516
vt 0.7709961 0.76708984
vt 0.6689453 0.70996094
vt 0.7709961 0.76708984
vt 0.7709961 0.72802734
vt 0.70166016 0.77978516
vt 0.7709961 0.77978516
vt 0.7709961 0.76708984
vt 0.6689453 0.70996094
vt 0.6689453 0.7529297
vt 0.6870117 0.77978516
vt 0.6689453 0.70996094
vt 0.6870117 0.77978516
vt 0.70166016 0.77978516
vt 0.6689453 0.7529297
vt 0.6689453 0.77978516
vt 0.6870117 0.77978516
vt 0.76708984 0.7753906
vt 0.77001953 0.77978516
vt 0.7709961 0.7788086
vt 0.76708984 0.7753906
vt 0.7709961 0.7788086
vt 0.7709961 0.77246094
vt 0.77001953 0.77978516
vt 0.7709961 0.77978516
vt 0.7709961 0.7788086
vt 0.76708984 0.7753906
vt 0.7709961 0.77246094
vt 0.7163086 0.6972656
vt 0.76708984 0.7753906
vt 0.7163086 0.6972656
vt 0.71435547 0.6972656
vt 0.7709961 0.77246094
vt 0.7709961 0.6972656
vt 0.7163086 0.6972656
vt 0.6743164 0.77978516
vt 0.6870117 0.6972656
vt 0.6699219 0.6972656
vt 0.6743164 0.77978516
vt 0.6826172 0.77978516
vt 0.6894531 0.6972656
vt 0.6743164 0.77978516
vt 0.6894531 0.6972656
vt 0.6870117 0.6972656
vt 0.6689453 0.77978516
vt 0.6743164 0.77978516
vt 0.6699219 0.6972656
vt 0.6689453 0.77978516
vt 0.6699219 0.6972656
vt 0.6689453 0.6972656
vt 0.6826172 0.77978516
vt 0.76708984 0.7753906
vt 0.71435547 0.6972656
vt 0.6826172 0.77978516
vt 0.71435547 0.6972656
vt 0.6894531 0.6972656
vt 0.76708984 0.7753906
vt 0.6826172 0.77978516
vt 0.7607422 0.77978516
vt 0.76708984 0.7753906
vt 0.7607422 0.77978516
vt 0.77001953 0.77978516
vn -0 0 -1
vn -0 0 -1
vn -0 0 -1
vn -0 0 -1
vn -0 0 -1
vn -0 0 -1
vn -0 0 -1
vn -0 0 -1
vn -0 0 -1
vn -0 0 -1
vn -0 0 -1
vn -0 0 -1
vn -0 0 -1
vn -0 0 -1
vn -0 0 -1
vn -0 0 -1
vn -0 0 -1
vn -0 0 -1
vn -0 0 -1
vn -0 0 -1
vn -0 0 -1
vn -0 0 -1
vn -0 0 -1
vn -0 0 -1
vn -0 0 -1
vn -0 0 -1
vn -0 0 -1
vn -0 0 -1
vn -0 0 -1
vn -0 0 -1
vn -0 0 -1
vn -0 0 -1
vn -0 0 -1
vn -1.1920929E-07 1.1920929E-07 -1
vn -1.1920929E-07 1.1920929E-07 -1
vn -1.1920929E-07 1.1920929E-07 -1
vn -1.1920929E-07 1.1920929E-07 -1
vn -1.1920929E-07 1.1920929E-07 -1
vn -1.1920929E-07 1.1920929E-07 -1
vn -1.1920929E-07 1.1920929E-07 -1
vn -1.1920929E-07 1.1920929E-07 -1
vn -1.1920929E-07 1.1920929E-07 -1
vn -1.1920929E-07 1.1920929E-07 -1
vn -1.1920929E-07 1.1920929E-07 -1
vn -1.1920929E-07 1.1920929E-07 -1
vn -1.1920929E-07 1.1920929E-07 -1
vn -1.1920929E-07 1.1920929E-07 -1
vn -1.1920929E-07 1.1920929E-07 -1
vn -1.1920929E-07 1.1920929E-07 -1
vn -1.1920929E-07 1.1920929E-07 -1
vn -1.1920929E-07 1.1920929E-07 -1
vn -1.1920929E-07 1.1920929E-07 -1
vn -1.1920929E-07 1.1920929E-07 -1
vn -1.1920929E-07 1.1920929E-07 -1
vn -1.1920929E-07 1.1920929E-07 -1
vn -1.1920929E-07 1.1920929E-07 -1
vn -1.1920929E-07 1.1920929E-07 -1
vn -1.1920929E-07 1.1920929E-07 -1
vn -1.1920929E-07 1.1920929E-07 -1
vn -1.1920929E-07 1.1920929E-07 -1
vn -1.1920929E-07 1.1920929E-07 -1
vn -1.1920929E-07 1.1920929E-07 -1
vn -1.1920929E-07 1.1920929E-07 -1
vn -1.1920929E-07 1.1920929E-07 -1
vn -1.1920929E-07 1.1920929E-07 -1
vn -1.1920929E-07 1.1920929E-07 -1
vn -1.1920929E-07 1.1920929E-07 -1
vn -1.1920929E-07 1.1920929E-07 -1
vn -1.1920929E-07 1.1920929E-07 -1
vn -1.1920929E-07 1.1920929E-07 -1
vn -1.1920929E-07 1.1920929E-07 -1
vn -1.1920929E-07 1.1920929E-07 -1
vn -1.1920929E-07 1.1920929E-07 -1
vn -1.1920929E-07 1.1920929E-07 -1
vn -1.1920929E-07 1.1920929E-07 -1
vn -1.1920929E-07 1.1920929E-07 -1
vn -1.1920929E-07 1.1920929E-07 -1
vn -1.1920929E-07 1.1920929E-07 -1
g DecalMesh_MetroArea_Decal_Graffiti_17__42_0
f 3/3/3 2/2/2 1/1/1
f 6/6/6 5/5/5 4/4/4
f 9/9/9 8/8/8 7/7/7
f 12/12/12 11/11/11 10/10/10
f 15/15/15 14/14/14 13/13/13
f 18/18/18 17/17/17 16/16/16
f 21/21/21 20/20/20 19/19/19
f 24/24/24 23/23/23 22/22/22
f 27/27/27 26/26/26 25/25/25
f 30/30/30 29/29/29 28/28/28
f 33/33/33 32/32/32 31/31/31
f 36/36/36 35/35/35 34/34/34
f 39/39/39 38/38/38 37/37/37
f 42/42/42 41/41/41 40/40/40
f 45/45/45 44/44/44 43/43/43
f 48/48/48 47/47/47 46/46/46
f 51/51/51 50/50/50 49/49/49
f 54/54/54 53/53/53 52/52/52
f 57/57/57 56/56/56 55/55/55
f 60/60/60 59/59/59 58/58/58
f 63/63/63 62/62/62 61/61/61
f 66/66/66 65/65/65 64/64/64
f 69/69/69 68/68/68 67/67/67
f 72/72/72 71/71/71 70/70/70
f 75/75/75 74/74/74 73/73/73
f 78/78/78 77/77/77 76/76/76
