g DecalMesh_MetroArea_Decal_Ground_13__43
v 0.12644331 0.49999994 -0.35044867
v 0.021661758 -0.5 -0.35044867
v 0.21632695 -0.5 -0.35044867
v 0.12644331 0.49999994 -0.35044867
v -0.30899388 0.4999998 -0.3504486
v -0.30900225 -0.49999994 -0.3504486
v 0.12644331 0.49999994 -0.35044867
v -0.30900225 -0.49999994 -0.3504486
v 0.021661753 -0.50000006 -0.35044867
v 0.50000024 0.5000002 -0.3504487
v 0.12644331 0.49999994 -0.35044867
v 0.21632695 -0.49999994 -0.35044867
v 0.50000024 0.5000002 -0.3504487
v 0.21632695 -0.49999994 -0.35044867
v 0.50000024 -0.5 -0.3504487
v -0.30899388 0.50000006 -0.3504486
v -0.49999994 0.50000006 -0.35044858
v -0.45404917 -0.49999997 -0.35044858
v -0.30899388 0.50000006 -0.3504486
v -0.45404917 -0.49999997 -0.35044858
v -0.30900225 -0.49999997 -0.3504486
v -0.49999994 0.50000006 -0.35044858
v -0.49999994 -0.50000006 -0.35044858
v -0.45404917 -0.49999997 -0.35044858
vt 0.81103516 0.6220703
vt 0.8227539 0.5083008
vt 0.80126953 0.5083008
vt 0.81103516 0.6220703
vt 0.8598633 0.6220703
vt 0.8598633 0.5083008
vt 0.81103516 0.6220703
vt 0.8598633 0.5083008
vt 0.8227539 0.5083008
vt 0.76953125 0.6220703
vt 0.81103516 0.6220703
vt 0.80126953 0.5083008
vt 0.76953125 0.6220703
vt 0.80126953 0.5083008
vt 0.76953125 0.5083008
vt 0.8598633 0.6220703
vt 0.88134766 0.6220703
vt 0.87597656 0.5083008
vt 0.8598633 0.6220703
vt 0.87597656 0.5083008
vt 0.8598633 0.5083008
vt 0.88134766 0.6220703
vt 0.88134766 0.5083008
vt 0.87597656 0.5083008
vn -0 -1.1920929E-07 -1
vn -0 -1.1920929E-07 -1
vn -0 -1.1920929E-07 -1
vn -0 -1.1920929E-07 -1
vn -0 -1.1920929E-07 -1
vn -0 -1.1920929E-07 -1
vn -0 -1.1920929E-07 -1
vn -0 -1.1920929E-07 -1
vn -0 -1.1920929E-07 -1
vn -0 -1.1920929E-07 -1
vn -0 -1.1920929E-07 -1
vn -0 -1.1920929E-07 -1
vn -0 -1.1920929E-07 -1
vn -0 -1.1920929E-07 -1
vn -0 -1.1920929E-07 -1
vn -0 -1.1920929E-07 -1
vn -0 -1.1920929E-07 -1
vn -0 -1.1920929E-07 -1
vn -0 -1.1920929E-07 -1
vn -0 -1.1920929E-07 -1
vn -0 -1.1920929E-07 -1
vn -0 -1.1920929E-07 -1
vn -0 -1.1920929E-07 -1
vn -0 -1.1920929E-07 -1
g DecalMesh_MetroArea_Decal_Ground_13__43_0
f 3/3/3 2/2/2 1/1/1
f 6/6/6 5/5/5 4/4/4
f 9/9/9 8/8/8 7/7/7
f 12/12/12 11/11/11 10/10/10
f 15/15/15 14/14/14 13/13/13
f 18/18/18 17/17/17 16/16/16
f 21/21/21 20/20/20 19/19/19
f 24/24/24 23/23/23 22/22/22
