g DecalMesh_MetroArea_Decal_Ground_28__15
v -0.4462123 0.40066606 -0.091266684
v -0.46826497 -0.4006661 -0.09126659
v 0.24529268 -0.4006661 -0.09126659
v -0.4462123 0.40066606 -0.091266684
v -0.51288605 0.40066606 -0.091266684
v -0.51288605 -0.4006661 -0.09126659
v -0.4462123 0.40066606 -0.091266684
v -0.51288605 -0.4006661 -0.09126659
v -0.46826497 -0.4006661 -0.09126659
v -0.43562296 0.40066606 -0.091266684
v 0.25237954 -0.4006661 -0.09126659
v 0.365709 -0.400666 -0.09126659
v -0.43562296 0.40066606 -0.091266684
v -0.4462123 0.40066606 -0.091266684
v 0.24529268 -0.4006661 -0.09126659
v -0.43562296 0.40066606 -0.091266684
v 0.24529268 -0.4006661 -0.09126659
v 0.25237954 -0.4006661 -0.09126659
v -0.51288605 0.40066606 -0.091266684
v -1.6444749 0.2540208 -0.09126666
v -1.3189887 -0.4006661 -0.09126659
v -0.51288605 0.40066606 -0.091266684
v -1.3189887 -0.4006661 -0.09126659
v -0.51288605 -0.4006661 -0.09126659
v -1.6444749 0.2540208 -0.09126666
v -1.6444749 -0.025332201 -0.09126663
v -1.4317663 -0.4006661 -0.09126659
v -1.6444749 0.2540208 -0.09126666
v -1.4317663 -0.4006661 -0.09126659
v -1.3189887 -0.4006661 -0.09126659
v -0.51288605 0.40066606 -0.091266684
v -0.9195384 0.40066606 -0.091266684
v -1.6444749 0.26292962 -0.09126667
v -0.51288605 0.40066606 -0.091266684
v -1.6444749 0.26292962 -0.09126667
v -1.6444749 0.2540208 -0.09126666
v 1.6444749 0.40066612 -0.091266684
v -0.435623 0.40066612 -0.091266684
v 0.36570898 -0.40066597 -0.09126659
v 1.6444749 0.40066612 -0.091266684
v 0.36570898 -0.40066597 -0.09126659
v 1.6444749 -0.40066597 -0.09126659
v -0.9195384 0.40066606 -0.091266684
v -1.6444747 0.40066606 -0.091266684
v -1.6444749 0.26292962 -0.09126667
v -1.6444749 -0.025332201 -0.09126663
v -1.6444747 -0.40066606 -0.09126659
v -1.4317663 -0.40066606 -0.09126659
vt 0.8676758 0.3984375
vt 0.8696289 0.32714844
vt 0.79589844 0.32714844
vt 0.8676758 0.3984375
vt 0.8745117 0.3984375
vt 0.8745117 0.32714844
vt 0.8676758 0.3984375
vt 0.8745117 0.32714844
vt 0.8696289 0.32714844
vt 0.86621094 0.3984375
vt 0.79541016 0.32714844
vt 0.7836914 0.32714844
vt 0.86621094 0.3984375
vt 0.8676758 0.3984375
vt 0.79589844 0.32714844
vt 0.86621094 0.3984375
vt 0.79589844 0.32714844
vt 0.79541016 0.32714844
vt 0.8745117 0.3984375
vt 0.99121094 0.3852539
vt 0.95751953 0.32714844
vt 0.8745117 0.3984375
vt 0.95751953 0.32714844
vt 0.8745117 0.32714844
vt 0.99121094 0.3852539
vt 0.99121094 0.36035156
vt 0.9692383 0.32714844
vt 0.99121094 0.3852539
vt 0.9692383 0.32714844
vt 0.95751953 0.32714844
vt 0.8745117 0.3984375
vt 0.9165039 0.3984375
vt 0.99121094 0.38598633
vt 0.8745117 0.3984375
vt 0.99121094 0.38598633
vt 0.99121094 0.3852539
vt 0.6513672 0.3984375
vt 0.86621094 0.3984375
vt 0.7836914 0.32714844
vt 0.6513672 0.3984375
vt 0.7836914 0.32714844
vt 0.6513672 0.32714844
vt 0.9165039 0.3984375
vt 0.99121094 0.3984375
vt 0.99121094 0.38598633
vt 0.99121094 0.36035156
vt 0.99121094 0.32714844
vt 0.9692383 0.32714844
vn 3.415346E-05 -0.0001348257 -1
vn 5.209446E-05 -0.00011485815 -1
vn 0.00038814545 -0.0015354156 -1
vn 3.415346E-05 -0.0001348257 -1
vn 2.7418137E-06 -2.1457672E-06 -1
vn 3.105402E-05 -2.604723E-05 -1
vn 3.415346E-05 -0.0001348257 -1
vn 3.105402E-05 -2.604723E-05 -1
vn 5.209446E-05 -0.00011485815 -1
vn 3.9100647E-05 -0.00015592575 -1
vn 0.0003914833 -0.0015497208 -1
vn 0.00044488907 -0.0017747879 -1
vn 3.9100647E-05 -0.00015592575 -1
vn 3.415346E-05 -0.0001348257 -1
vn 0.00038814545 -0.0015354156 -1
vn 3.9100647E-05 -0.00015592575 -1
vn 0.00038814545 -0.0015354156 -1
vn 0.0003914833 -0.0015497208 -1
vn 2.7418137E-06 -2.1457672E-06 -1
vn 2.9802322E-07 -5.9604645E-08 -1
vn 2.5629997E-05 -2.1457672E-05 -1
vn 2.7418137E-06 -2.1457672E-06 -1
vn 2.5629997E-05 -2.1457672E-05 -1
vn 3.105402E-05 -2.604723E-05 -1
vn 2.9802322E-07 -5.9604645E-08 -1
vn 1.0192394E-05 -8.404255E-06 -1
vn 2.4914742E-05 -2.0802021E-05 -1
vn 2.9802322E-07 -5.9604645E-08 -1
vn 2.4914742E-05 -2.0802021E-05 -1
vn 2.5629997E-05 -2.1457672E-05 -1
vn 2.7418137E-06 -2.1457672E-06 -1
vn -0 1.7881393E-07 -1
vn -0 1.7881393E-07 -1
vn 2.7418137E-06 -2.1457672E-06 -1
vn -0 1.7881393E-07 -1
vn 2.9802322E-07 -5.9604645E-08 -1
vn 3.9100647E-05 -0.00015592575 -1
vn 3.9100647E-05 -0.00015592575 -1
vn 0.00044488907 -0.0017747879 -1
vn 3.9100647E-05 -0.00015592575 -1
vn 0.00044488907 -0.0017747879 -1
vn 0.00044488907 -0.0017747879 -1
vn -0 1.7881393E-07 -1
vn -0 1.7881393E-07 -1
vn -0 1.7881393E-07 -1
vn 1.0192394E-05 -8.404255E-06 -1
vn -0.0028438568 -0.005542755 -1
vn 2.4914742E-05 -2.0802021E-05 -1
g DecalMesh_MetroArea_Decal_Ground_28__15_0
f 3/3/3 2/2/2 1/1/1
f 6/6/6 5/5/5 4/4/4
f 9/9/9 8/8/8 7/7/7
f 12/12/12 11/11/11 10/10/10
f 15/15/15 14/14/14 13/13/13
f 18/18/18 17/17/17 16/16/16
f 21/21/21 20/20/20 19/19/19
f 24/24/24 23/23/23 22/22/22
f 27/27/27 26/26/26 25/25/25
f 30/30/30 29/29/29 28/28/28
f 33/33/33 32/32/32 31/31/31
f 36/36/36 35/35/35 34/34/34
f 39/39/39 38/38/38 37/37/37
f 42/42/42 41/41/41 40/40/40
f 45/45/45 44/44/44 43/43/43
f 48/48/48 47/47/47 46/46/46
