g DecalMesh_MetroArea_Decal_Graffiti_07__51
v 0.92576534 1.0426666 -0.040419705
v -1.9338791 0.88130116 -0.025656193
v -1.9338793 -1.0426741 -0.02565624
v 0.92576534 1.0426666 -0.040419705
v -1.9338793 -1.0426741 -0.02565624
v -0.86979425 -1.0426741 -0.0311498
v 0.92576534 1.0426666 -0.040419705
v -1.9338793 1.0426667 -0.025656188
v -1.9338791 0.88130116 -0.025656193
v 1.7637721 1.0426667 -0.044746093
v -0.53129333 -1.0426741 -0.032897387
v 1.9045972 -1.0426742 -0.04547319
v 1.7637721 1.0426667 -0.044746093
v 0.92576534 1.0426666 -0.040419705
v -0.86979425 -1.0426741 -0.0311498
v 1.7637721 1.0426667 -0.044746093
v -0.86979425 -1.0426741 -0.0311498
v -0.5579686 -1.0426741 -0.03275967
v 1.7637721 1.0426667 -0.044746093
v -0.5579686 -1.0426741 -0.03275967
v -0.53129333 -1.0426741 -0.032897387
v 1.9339093 0.99620616 -0.04562446
v 1.9225953 1.0426667 -0.04556605
v 1.9319601 -1.0426741 -0.04561445
v 1.9339093 0.99620616 -0.04562446
v 1.9319601 -1.0426741 -0.04561445
v 1.9339093 -1.0426741 -0.045624517
v 1.9225953 1.0426667 -0.04556605
v 1.7637721 1.0426667 -0.044746093
v 1.9045972 -1.0426741 -0.04547319
v 1.9225953 1.0426667 -0.04556605
v 1.9045972 -1.0426741 -0.04547319
v 1.9319601 -1.0426741 -0.04561445
vt 0.38452148 0.7895508
vt 0.5283203 0.7817383
vt 0.5283203 0.68847656
vt 0.38452148 0.7895508
vt 0.5283203 0.68847656
vt 0.47485352 0.68847656
vt 0.38452148 0.7895508
vt 0.5283203 0.7895508
vt 0.5283203 0.7817383
vt 0.3425293 0.7895508
vt 0.45776367 0.68847656
vt 0.33544922 0.68847656
vt 0.3425293 0.7895508
vt 0.38452148 0.7895508
vt 0.47485352 0.68847656
vt 0.3425293 0.7895508
vt 0.47485352 0.68847656
vt 0.45898438 0.68847656
vt 0.3425293 0.7895508
vt 0.45898438 0.68847656
vt 0.45776367 0.68847656
vt 0.33398438 0.7871094
vt 0.33447266 0.7895508
vt 0.33398438 0.68847656
vt 0.33398438 0.7871094
vt 0.33398438 0.68847656
vt 0.33398438 0.68847656
vt 0.33447266 0.7895508
vt 0.3425293 0.7895508
vt 0.33544922 0.68847656
vt 0.33447266 0.7895508
vt 0.33544922 0.68847656
vt 0.33398438 0.68847656
vn -0.0051612854 0 -1
vn -0.0051612854 0 -1
vn -0.0051612854 0 -1
vn -0.0051612854 0 -1
vn -0.0051612854 0 -1
vn -0.0051612854 0 -1
vn -0.0051612854 0 -1
vn -0.0051612854 0 -1
vn -0.0051612854 0 -1
vn -0.0051612854 0 -1
vn -0.0051612854 0 -1
vn -0.0051612854 0 -1
vn -0.0051612854 0 -1
vn -0.0051612854 0 -1
vn -0.0051612854 0 -1
vn -0.0051612854 0 -1
vn -0.0051612854 0 -1
vn -0.0051612854 0 -1
vn -0.0051612854 0 -1
vn -0.0051612854 0 -1
vn -0.0051612854 0 -1
vn -0.0051612854 0 -1
vn -0.0051612854 0 -1
vn -0.0051612854 0 -1
vn -0.0051612854 0 -1
vn -0.0051612854 0 -1
vn -0.0051612854 0 -1
vn -0.0051612854 0 -1
vn -0.0051612854 0 -1
vn -0.0051612854 0 -1
vn -0.0051612854 0 -1
vn -0.0051612854 0 -1
vn -0.0051612854 0 -1
g DecalMesh_MetroArea_Decal_Graffiti_07__51_0
f 3/3/3 2/2/2 1/1/1
f 6/6/6 5/5/5 4/4/4
f 9/9/9 8/8/8 7/7/7
f 12/12/12 11/11/11 10/10/10
f 15/15/15 14/14/14 13/13/13
f 18/18/18 17/17/17 16/16/16
f 21/21/21 20/20/20 19/19/19
f 24/24/24 23/23/23 22/22/22
f 27/27/27 26/26/26 25/25/25
f 30/30/30 29/29/29 28/28/28
f 33/33/33 32/32/32 31/31/31
