g DecalMesh_MetroArea_Decal_Ground_27__23
v -0.5 0.6024505 -0.4705696
v -0.5 -0.7084952 -0.4705696
v 0.12650466 -0.7084952 -0.4705696
v -0.5 0.6174295 -0.4705696
v 0.12915933 -0.7084952 -0.4705696
v 0.17992306 -0.70849514 -0.4705696
v -0.5 0.6174295 -0.4705696
v -0.5 0.6104097 -0.4705696
v 0.12791994 -0.7084952 -0.4705696
v -0.5 0.6174295 -0.4705696
v 0.12791994 -0.7084952 -0.4705696
v 0.12915933 -0.7084952 -0.4705696
v -0.49999997 0.6104096 -0.4705696
v -0.5 0.6024505 -0.4705696
v 0.12650466 -0.7084952 -0.4705696
v -0.49999997 0.6104096 -0.4705696
v 0.12650466 -0.7084952 -0.4705696
v 0.12791996 -0.7084952 -0.4705696
v 0.5 0.70849514 -0.4705696
v -0.5 0.70849514 -0.4705696
v 0.1942031 -0.7084952 -0.4705696
v 0.5 0.70849514 -0.4705696
v 0.1942031 -0.7084952 -0.4705696
v 0.49999997 -0.7084952 -0.4705696
v -0.5 0.70849514 -0.4705696
v -0.5 0.61742944 -0.4705696
v 0.17992307 -0.7084952 -0.4705696
v -0.5 0.70849514 -0.4705696
v 0.17992307 -0.7084952 -0.4705696
v 0.1942031 -0.7084952 -0.4705696
v 0.38928676 -0.2632855 -0.0319252
v 0.3892841 0.70849526 -0.0319252
v 0.042648815 0.70849526 -0.030534945
v -0.037768602 -0.2632867 -0.030212402
v 0.38928676 -0.2632855 -0.0319252
v 0.04264883 0.7084952 -0.030534945
v -0.037768602 -0.2632867 -0.030212402
v 0.04264883 0.7084952 -0.030534945
v -0.037771262 0.7084952 -0.030212402
v -0.12424016 -0.26328695 -0.0319252
v -0.037768602 -0.2632867 -0.030212402
v -0.037771262 0.7084952 -0.030212402
v -0.12424016 -0.26328695 -0.0319252
v -0.037771262 0.7084952 -0.030212402
v -0.054054964 0.7084952 -0.030534944
v -0.12424016 -0.26328695 -0.0319252
v -0.054054968 0.7084952 -0.030534944
v -0.12424282 0.70849526 -0.0319252
v -0.13502812 -0.26328698 -0.055145264
v -0.12424016 -0.26328695 -0.0319252
v -0.12424282 0.70849526 -0.0319252
v -0.13502812 -0.26328698 -0.055145264
v -0.12424282 0.70849526 -0.0319252
v -0.12627433 0.70849526 -0.03629783
v -0.13502812 -0.26328698 -0.055145264
v -0.12627433 0.70849526 -0.03629783
v -0.13503079 0.70849526 -0.055145264
v -0.15832448 -0.26328704 -0.08734131
v -0.13502812 -0.26328698 -0.055145264
v -0.13503079 0.70849526 -0.055145264
v -0.15832448 -0.26328704 -0.08734131
v -0.13503079 0.70849526 -0.055145264
v -0.13941778 0.70849526 -0.061208185
v -0.15832448 -0.26328704 -0.08734131
v -0.13941778 0.70849526 -0.061208185
v -0.15832715 0.7084952 -0.08734131
v -0.19475865 -0.26328713 -0.111091614
v -0.15832448 -0.26328704 -0.08734131
v -0.15832715 0.7084952 -0.08734131
v -0.19475865 -0.26328713 -0.111091614
v -0.15832715 0.7084952 -0.08734131
v -0.16518815 0.7084952 -0.09181379
v -0.19475865 -0.26328713 -0.111091614
v -0.16518815 0.7084952 -0.09181379
v -0.19476132 0.7084952 -0.111091614
v -0.24880147 -0.2632873 -0.11902237
v -0.19475865 -0.26328713 -0.111091614
v -0.19476132 0.7084952 -0.111091614
v -0.24880147 -0.2632873 -0.11902237
v -0.19476132 0.7084952 -0.111091614
v -0.20493825 0.7084952 -0.112585075
v -0.24880147 -0.2632873 -0.11902237
v -0.20493825 0.7084952 -0.112585075
v -0.24880414 0.7084952 -0.11902237
v -0.21179509 -0.2632872 -0.30077744
v -0.2079459 0.70849514 -0.23420608
v -0.21179776 0.70849514 -0.30077744
v -0.26108098 -0.26328734 -0.35695267
v -0.21179509 -0.2632872 -0.30077744
v -0.21179776 0.70849514 -0.30077744
v -0.26108098 -0.26328734 -0.35695267
v -0.21179776 0.70849514 -0.30077744
v -0.2210789 0.70849514 -0.31135592
v -0.26108098 -0.26328734 -0.35695267
v -0.2210789 0.70849514 -0.31135592
v -0.26108363 0.7084952 -0.35695267
v -0.33410954 -0.2632875 -0.38256454
v -0.26108098 -0.26328734 -0.35695267
v -0.26108363 0.7084952 -0.35695267
v -0.33410954 -0.2632875 -0.38256454
v -0.26108363 0.7084952 -0.35695267
v -0.27483582 0.7084952 -0.3617757
v -0.33410954 -0.2632875 -0.38256454
v -0.27483582 0.7084952 -0.3617757
v -0.3341122 0.7084952 -0.38256454
v -0.41792607 -0.26328775 -0.35268402
v -0.33410954 -0.2632875 -0.38256454
v -0.3341122 0.7084952 -0.38256454
v -0.41792607 -0.26328775 -0.35268402
v -0.3341122 0.7084952 -0.38256454
v -0.34989586 0.7084952 -0.3769377
v -0.41792607 -0.26328775 -0.35268402
v -0.34989586 0.7084952 -0.3769377
v -0.41792873 0.7084952 -0.35268402
v -0.4690163 -0.2632879 -0.27609634
v -0.41792607 -0.26328775 -0.35268402
v -0.41792873 0.70849526 -0.35268402
v -0.4690163 -0.2632879 -0.27609634
v -0.41792873 0.70849526 -0.35268402
v -0.42754963 0.70849526 -0.33826166
v -0.4690163 -0.2632879 -0.27609634
v -0.42754963 0.70849526 -0.33826166
v -0.46901897 0.70849514 -0.27609634
v 0.5 0.11395058 -0.38857192
v 0.5 0.7084952 -0.38857695
v 0.48224482 0.7084952 -0.33372012
v 0.38262582 -0.08074272 -0.025928497
v 0.5 -0.21941066 -0.38856915
v 0.47445586 0.70849514 -0.3096552
v 0.38262582 -0.08074272 -0.025928497
v 0.47445586 0.70849514 -0.3096552
v 0.38262367 0.7084951 -0.025928497
v 0.5 -0.21941066 -0.38856915
v 0.5 0.11395045 -0.38857195
v 0.48224482 0.7084951 -0.33372015
v 0.5 -0.21941066 -0.38856915
v 0.48224482 0.7084951 -0.33372015
v 0.47445586 0.70849514 -0.3096552
v 0.38262582 -0.08074272 -0.025928497
v -0.40715766 -0.08074493 -0.025928497
v 0.5 -0.22990541 -0.41601467
v 0.38262582 -0.08074272 -0.025928497
v 0.5 -0.22990541 -0.41601467
v 0.5 -0.21941066 -0.38856915
v 0.5 -0.23160222 -0.42045212
v -0.40715766 -0.08074493 -0.025928497
v -0.5 -0.19003668 -0.311744
v 0.5 -0.23160222 -0.42045212
v -0.5 -0.19003668 -0.311744
v -0.5 -0.23160501 -0.42045212
v -0.40715766 -0.08074493 -0.025928497
v 0.5 -0.23160222 -0.42045212
v 0.5 -0.22990541 -0.41601467
v -0.40715766 -0.08074493 -0.025928497
v -0.4071598 0.70849514 -0.025928497
v -0.5 0.027437026 -0.3117422
v -0.40715766 -0.08074493 -0.025928497
v -0.5 0.027437026 -0.3117422
v -0.5 -0.19003668 -0.311744
v -0.4071598 0.70849514 -0.025928497
v -0.5 0.7084953 -0.31173652
v -0.5 0.027436998 -0.3117422
vt 0.1394043 0.25805664
vt 0.1394043 0.089782715
vt 0.05630493 0.089782715
vt 0.1394043 0.26000977
vt 0.05596924 0.089782715
vt 0.049224854 0.089782715
vt 0.1394043 0.26000977
vt 0.1394043 0.2590332
vt 0.056121826 0.089782715
vt 0.1394043 0.26000977
vt 0.056121826 0.089782715
vt 0.05596924 0.089782715
vt 0.1394043 0.2590332
vt 0.1394043 0.25805664
vt 0.05630493 0.089782715
vt 0.1394043 0.2590332
vt 0.05630493 0.089782715
vt 0.056121826 0.089782715
vt 0.006801605 0.27172852
vt 0.1394043 0.27172852
vt 0.047332764 0.089782715
vt 0.006801605 0.27172852
vt 0.047332764 0.089782715
vt 0.006801605 0.089782715
vt 0.1394043 0.27172852
vt 0.1394043 0.26000977
vt 0.049224854 0.089782715
vt 0.1394043 0.27172852
vt 0.049224854 0.089782715
vt 0.047332764 0.089782715
vt 0.021484375 0.14697266
vt 0.021484375 0.27172852
vt 0.06744385 0.27172852
vt 0.078063965 0.14697266
vt 0.021484375 0.14697266
vt 0.06744385 0.27172852
vt 0.078063965 0.14697266
vt 0.06744385 0.27172852
vt 0.078063965 0.27172852
vt 0.089538574 0.14697266
vt 0.078063965 0.14697266
vt 0.078063965 0.27172852
vt 0.089538574 0.14697266
vt 0.078063965 0.27172852
vt 0.08026123 0.27172852
vt 0.089538574 0.14697266
vt 0.08026123 0.27172852
vt 0.089538574 0.27172852
vt 0.09100342 0.14697266
vt 0.089538574 0.14697266
vt 0.089538574 0.27172852
vt 0.09100342 0.14697266
vt 0.089538574 0.27172852
vt 0.08984375 0.27172852
vt 0.09100342 0.14697266
vt 0.08984375 0.27172852
vt 0.09100342 0.27172852
vt 0.094055176 0.14697266
vt 0.09100342 0.14697266
vt 0.09100342 0.27172852
vt 0.094055176 0.14697266
vt 0.09100342 0.27172852
vt 0.091552734 0.27172852
vt 0.094055176 0.14697266
vt 0.091552734 0.27172852
vt 0.094055176 0.27172852
vt 0.09887695 0.14697266
vt 0.094055176 0.14697266
vt 0.094055176 0.27172852
vt 0.09887695 0.14697266
vt 0.094055176 0.27172852
vt 0.0949707 0.27172852
vt 0.09887695 0.14697266
vt 0.0949707 0.27172852
vt 0.09887695 0.27172852
vt 0.1060791 0.14697266
vt 0.09887695 0.14697266
vt 0.09887695 0.27172852
vt 0.1060791 0.14697266
vt 0.09887695 0.27172852
vt 0.10021973 0.27172852
vt 0.1060791 0.14697266
vt 0.10021973 0.27172852
vt 0.1060791 0.27172852
vt 0.101135254 0.14697266
vt 0.10064697 0.27172852
vt 0.101135254 0.27172852
vt 0.107666016 0.14697266
vt 0.101135254 0.14697266
vt 0.101135254 0.27172852
vt 0.107666016 0.14697266
vt 0.101135254 0.27172852
vt 0.10235596 0.27172852
vt 0.107666016 0.14697266
vt 0.10235596 0.27172852
vt 0.107666016 0.27172852
vt 0.117370605 0.14697266
vt 0.107666016 0.14697266
vt 0.107666016 0.27172852
vt 0.117370605 0.14697266
vt 0.107666016 0.27172852
vt 0.10949707 0.27172852
vt 0.117370605 0.14697266
vt 0.10949707 0.27172852
vt 0.117370605 0.27172852
vt 0.12841797 0.14697266
vt 0.117370605 0.14697266
vt 0.117370605 0.27172852
vt 0.12841797 0.14697266
vt 0.117370605 0.27172852
vt 0.1194458 0.27172852
vt 0.12841797 0.14697266
vt 0.1194458 0.27172852
vt 0.12854004 0.27172852
vt 0.1352539 0.14697266
vt 0.12841797 0.14697266
vt 0.12854004 0.27172852
vt 0.1352539 0.14697266
vt 0.12854004 0.27172852
vt 0.12976074 0.27172852
vt 0.1352539 0.14697266
vt 0.12976074 0.27172852
vt 0.1352539 0.27172852
vt 0.006801605 0.19543457
vt 0.006801605 0.27172852
vt 0.009155273 0.27172852
vt 0.022354126 0.17041016
vt 0.006801605 0.15258789
vt 0.010185242 0.27172852
vt 0.022354126 0.17041016
vt 0.010185242 0.27172852
vt 0.022354126 0.27172852
vt 0.006801605 0.15258789
vt 0.006801605 0.19543457
vt 0.009155273 0.27172852
vt 0.006801605 0.15258789
vt 0.009155273 0.27172852
vt 0.010185242 0.27172852
vt 0.022354126 0.17041016
vt 0.1270752 0.17041016
vt 0.006801605 0.15124512
vt 0.022354126 0.17041016
vt 0.006801605 0.15124512
vt 0.006801605 0.15258789
vt 0.006801605 0.15100098
vt 0.1270752 0.17041016
vt 0.1394043 0.15637207
vt 0.006801605 0.15100098
vt 0.1394043 0.15637207
vt 0.1394043 0.15100098
vt 0.1270752 0.17041016
vt 0.006801605 0.15100098
vt 0.006801605 0.15124512
vt 0.1270752 0.17041016
vt 0.1270752 0.27172852
vt 0.1394043 0.18432617
vt 0.1270752 0.17041016
vt 0.1394043 0.18432617
vt 0.1394043 0.15637207
vt 0.1270752 0.27172852
vt 0.1394043 0.27172852
vt 0.1394043 0.18432617
vn -0 0 -1
vn -0 0 -1
vn -0 0 -1
vn -0 0 -1
vn -0 0 -1
vn -0 0 -1
vn -0 0 -1
vn -0 0 -1
vn -0 0 -1
vn -0 0 -1
vn -0 0 -1
vn -0 0 -1
vn -0 0 -1
vn -0 0 -1
vn -0 0 -1
vn -0 0 -1
vn -0 0 -1
vn -0 0 -1
vn -0 0 -1
vn -0 0 -1
vn -0 0 -1
vn -0 0 -1
vn -0 0 -1
vn -0 0 -1
vn -0 0 -1
vn -0 0 -1
vn -0 0 -1
vn -0 0 -1
vn -0 0 -1
vn -0 0 -1
vn -0.0045776367 0 -1
vn -0.0045776367 0 -1
vn -0.0008621216 0 -1
vn -0 0 -1
vn -0.0045776367 0 -1
vn -0.0008621216 0 -1
vn -0 0 -1
vn -0.0008621216 0 -1
vn -0 0 -1
vn 0.019836426 5.9604645E-08 -1
vn -0 0 -1
vn -0 0 -1
vn 0.019836426 5.9604645E-08 -1
vn -0 0 -1
vn 0.0037345886 0 -1
vn 0.019836426 5.9604645E-08 -1
vn 0.0037345886 0 -1
vn 0.019836426 5.9604645E-08 -1
vn 0.8515625 2.3841858E-06 -0.5239258
vn 0.9067383 2.5629997E-06 -0.42163086
vn 0.9067383 2.5629997E-06 -0.42163086
vn 0.8515625 2.3841858E-06 -0.5239258
vn 0.9067383 2.5629997E-06 -0.42163086
vn 0.8964844 2.503395E-06 -0.44091797
vn 0.8515625 2.3841858E-06 -0.5239258
vn 0.8964844 2.503395E-06 -0.44091797
vn 0.8515625 2.3841858E-06 -0.5239258
vn 0.68359375 1.9073486E-06 -0.72998047
vn 0.8515625 2.3841858E-06 -0.5239258
vn 0.8515625 2.3841858E-06 -0.5239258
vn 0.68359375 1.9073486E-06 -0.72998047
vn 0.8515625 2.3841858E-06 -0.5239258
vn 0.8203125 2.2649765E-06 -0.5625
vn 0.68359375 1.9073486E-06 -0.72998047
vn 0.8203125 2.2649765E-06 -0.5625
vn 0.68359375 1.9073486E-06 -0.72998047
vn 0.3310547 9.536743E-07 -0.94384766
vn 0.68359375 1.9073486E-06 -0.72998047
vn 0.68359375 1.9073486E-06 -0.72998047
vn 0.3310547 9.536743E-07 -0.94384766
vn 0.68359375 1.9073486E-06 -0.72998047
vn 0.6171875 1.7285347E-06 -0.77001953
vn 0.3310547 9.536743E-07 -0.94384766
vn 0.6171875 1.7285347E-06 -0.77001953
vn 0.3310547 9.536743E-07 -0.94384766
vn 0.14489746 4.172325E-07 -0.9892578
vn 0.3310547 9.536743E-07 -0.94384766
vn 0.3310547 9.536743E-07 -0.94384766
vn 0.14489746 4.172325E-07 -0.9892578
vn 0.3310547 9.536743E-07 -0.94384766
vn 0.29589844 8.34465E-07 -0.95214844
vn 0.14489746 4.172325E-07 -0.9892578
vn 0.29589844 8.34465E-07 -0.95214844
vn 0.14489746 4.172325E-07 -0.9892578
vn 0.93115234 2.6226044E-06 -0.36499023
vn 0.96435547 2.682209E-06 0.12097168
vn 0.93115234 2.6226044E-06 -0.36499023
vn 0.55566406 1.5497208E-06 -0.83154297
vn 0.93115234 2.6226044E-06 -0.36499023
vn 0.93115234 2.6226044E-06 -0.36499023
vn 0.55566406 1.5497208E-06 -0.83154297
vn 0.93115234 2.6226044E-06 -0.36499023
vn 0.86035156 2.4437904E-06 -0.45288086
vn 0.55566406 1.5497208E-06 -0.83154297
vn 0.86035156 2.4437904E-06 -0.45288086
vn 0.55566406 1.5497208E-06 -0.83154297
vn -0.02746582 -5.9604645E-08 -0.9995117
vn 0.55566406 1.5497208E-06 -0.83154297
vn 0.55566406 1.5497208E-06 -0.83154297
vn -0.02746582 -5.9604645E-08 -0.9995117
vn 0.55566406 1.5497208E-06 -0.83154297
vn 0.44555664 1.2516975E-06 -0.86328125
vn -0.02746582 -5.9604645E-08 -0.9995117
vn 0.44555664 1.2516975E-06 -0.86328125
vn -0.02746582 -5.9604645E-08 -0.9995117
vn -0.6196289 -1.7285347E-06 -0.78515625
vn -0.02746582 -5.9604645E-08 -0.9995117
vn -0.02746582 -5.9604645E-08 -0.9995117
vn -0.6196289 -1.7285347E-06 -0.78515625
vn -0.02746582 -5.9604645E-08 -0.9995117
vn -0.13891602 -3.5762787E-07 -0.9589844
vn -0.6196289 -1.7285347E-06 -0.78515625
vn -0.13891602 -3.5762787E-07 -0.9589844
vn -0.6196289 -1.7285347E-06 -0.78515625
vn -0.83154297 -2.3245811E-06 -0.5551758
vn -0.6196289 -1.7285347E-06 -0.78515625
vn -0.6196289 -1.7285347E-06 -0.78515625
vn -0.83154297 -2.3245811E-06 -0.5551758
vn -0.6196289 -1.7285347E-06 -0.78515625
vn -0.65966797 -1.847744E-06 -0.7416992
vn -0.83154297 -2.3245811E-06 -0.5551758
vn -0.65966797 -1.847744E-06 -0.7416992
vn -0.83154297 -2.3245811E-06 -0.5551758
vn -0.95166016 -2.682209E-06 -0.30639648
vn -0.95166016 -2.682209E-06 -0.30639648
vn -0.95166016 -2.682209E-06 -0.30664062
vn -0.95166016 -2.682209E-06 -0.30737305
vn -0.95166016 -2.682209E-06 -0.30639648
vn -0.95166016 -2.682209E-06 -0.30664062
vn -0.95166016 -2.682209E-06 -0.30737305
vn -0.95166016 -2.682209E-06 -0.30664062
vn -0.95166016 -2.682209E-06 -0.30737305
vn -0.95166016 -2.682209E-06 -0.30639648
vn -0.95166016 -2.682209E-06 -0.30639648
vn -0.95166016 -2.682209E-06 -0.30664062
vn -0.95166016 -2.682209E-06 -0.30639648
vn -0.95166016 -2.682209E-06 -0.30664062
vn -0.95166016 -2.682209E-06 -0.30664062
vn -2.5629997E-06 0.93408203 -0.35717773
vn -2.5629997E-06 0.93408203 -0.35717773
vn -2.5629997E-06 0.93408203 -0.35766602
vn -2.5629997E-06 0.93408203 -0.35717773
vn -2.5629997E-06 0.93408203 -0.35766602
vn -2.5629997E-06 0.93408203 -0.35742188
vn -2.5629997E-06 0.93408203 -0.35766602
vn -2.5629997E-06 0.93408203 -0.35717773
vn -2.5629997E-06 0.93408203 -0.35742188
vn -2.5629997E-06 0.93408203 -0.35766602
vn -2.5629997E-06 0.93408203 -0.35742188
vn -2.5629997E-06 0.93408203 -0.35766602
vn -2.5629997E-06 0.93408203 -0.35717773
vn -2.5629997E-06 0.93408203 -0.35766602
vn -2.5629997E-06 0.93408203 -0.35766602
vn 0.9511719 2.682209E-06 -0.30908203
vn 0.9511719 2.682209E-06 -0.30908203
vn 0.9511719 2.682209E-06 -0.30859375
vn 0.9511719 2.682209E-06 -0.30908203
vn 0.9511719 2.682209E-06 -0.30859375
vn 0.9511719 2.682209E-06 -0.30859375
vn 0.9511719 2.682209E-06 -0.30908203
vn 0.9511719 2.682209E-06 -0.30859375
vn 0.9511719 2.682209E-06 -0.30859375
g DecalMesh_MetroArea_Decal_Ground_27__23_0
f 3/3/3 2/2/2 1/1/1
f 6/6/6 5/5/5 4/4/4
f 9/9/9 8/8/8 7/7/7
f 12/12/12 11/11/11 10/10/10
f 15/15/15 14/14/14 13/13/13
f 18/18/18 17/17/17 16/16/16
f 21/21/21 20/20/20 19/19/19
f 24/24/24 23/23/23 22/22/22
f 27/27/27 26/26/26 25/25/25
f 30/30/30 29/29/29 28/28/28
f 33/33/33 32/32/32 31/31/31
f 36/36/36 35/35/35 34/34/34
f 39/39/39 38/38/38 37/37/37
f 42/42/42 41/41/41 40/40/40
f 45/45/45 44/44/44 43/43/43
f 48/48/48 47/47/47 46/46/46
f 51/51/51 50/50/50 49/49/49
f 54/54/54 53/53/53 52/52/52
f 57/57/57 56/56/56 55/55/55
f 60/60/60 59/59/59 58/58/58
f 63/63/63 62/62/62 61/61/61
f 66/66/66 65/65/65 64/64/64
f 69/69/69 68/68/68 67/67/67
f 72/72/72 71/71/71 70/70/70
f 75/75/75 74/74/74 73/73/73
f 78/78/78 77/77/77 76/76/76
f 81/81/81 80/80/80 79/79/79
f 84/84/84 83/83/83 82/82/82
f 87/87/87 86/86/86 85/85/85
f 90/90/90 89/89/89 88/88/88
f 93/93/93 92/92/92 91/91/91
f 96/96/96 95/95/95 94/94/94
f 99/99/99 98/98/98 97/97/97
f 102/102/102 101/101/101 100/100/100
f 105/105/105 104/104/104 103/103/103
f 108/108/108 107/107/107 106/106/106
f 111/111/111 110/110/110 109/109/109
f 114/114/114 113/113/113 112/112/112
f 117/117/117 116/116/116 115/115/115
f 120/120/120 119/119/119 118/118/118
f 123/123/123 122/122/122 121/121/121
f 126/126/126 125/125/125 124/124/124
f 129/129/129 128/128/128 127/127/127
f 132/132/132 131/131/131 130/130/130
f 135/135/135 134/134/134 133/133/133
f 138/138/138 137/137/137 136/136/136
f 141/141/141 140/140/140 139/139/139
f 144/144/144 143/143/143 142/142/142
f 147/147/147 146/146/146 145/145/145
f 150/150/150 149/149/149 148/148/148
f 153/153/153 152/152/152 151/151/151
f 156/156/156 155/155/155 154/154/154
f 159/159/159 158/158/158 157/157/157
f 162/162/162 161/161/161 160/160/160
