g DecalMesh_Common_Decal_Sign_06__40
v 0.17994577 0.22230092 -0.20163536
v -0.17994577 0.22230095 -0.20163536
v -0.060172148 -0.22230092 -0.20163536
v 0.17994577 0.22230092 -0.20163536
v -0.060172148 -0.22230092 -0.20163536
v 0.17994575 -0.22230086 -0.20163536
v -0.17994577 0.22230095 -0.20163536
v -0.17994577 -0.2223009 -0.20163536
v -0.06017216 -0.22230089 -0.20163536
vt -0.64746094 0.94189453
vt -0.58935547 0.94189453
vt -0.6088867 0.8671875
vt -0.64746094 0.94189453
vt -0.6088867 0.8671875
vt -0.64746094 0.8671875
vt -0.58935547 0.94189453
vt -0.58935547 0.8671875
vt -0.6088867 0.8671875
vn -1.1920929E-07 2.3841858E-07 -1
vn -1.1920929E-07 2.3841858E-07 -1
vn -1.1920929E-07 2.3841858E-07 -1
vn -1.1920929E-07 2.3841858E-07 -1
vn -1.1920929E-07 2.3841858E-07 -1
vn -1.1920929E-07 2.3841858E-07 -1
vn -1.1920929E-07 2.3841858E-07 -1
vn -1.1920929E-07 2.3841858E-07 -1
vn -1.1920929E-07 2.3841858E-07 -1
g DecalMesh_Common_Decal_Sign_06__40_0
f 3/3/3 2/2/2 1/1/1
f 6/6/6 5/5/5 4/4/4
f 9/9/9 8/8/8 7/7/7
