g DecalMesh_Common_Decal_Water_02__0
v 0.03634423 0.69448054 0.2840004
v 0.15924276 0.41763815 0.2840004
v 1.882721 1.1825112 0.2840004
v 0.03634423 0.69448054 0.2840004
v 1.882721 1.1825112 0.2840004
v 1.882721 1.2597983 0.2840004
v 0.03634423 0.69448054 0.2840004
v 1.882721 1.2597983 0.2840004
v 1.882721 1.5141422 0.2840004
v 0.15924276 0.41763815 0.2840004
v 1.0916743 -1.6827651 0.2840004
v 1.882721 -1.331631 0.2840004
v 0.15924276 0.41763815 0.2840004
v 1.882721 -1.331631 0.2840004
v 1.882721 -0.16416408 0.2840004
v 0.15924276 0.41763815 0.2840004
v 1.882721 -0.16416408 0.2840004
v 1.882721 1.1825112 0.2840004
v 1.0916743 -1.6827651 0.2840004
v 1.882721 -1.9497848 0.2760104
v 1.882721 -1.3315959 0.27864656
v 1.882721 -1.9497848 0.2760104
v 1.0916743 -1.6827651 0.2840004
v 1.4519398 -2.4943023 0.2840004
v 1.882721 -1.9497848 0.2760104
v 1.4519398 -2.4943023 0.2840004
v 1.882721 -2.4943023 0.27888232
v 0.45085326 -1.9669302 0.2840004
v 0.6849694 -2.4943023 0.27609903
v 0.6849694 -2.4943023 0.2840004
v -0.48146182 0.13321084 0.2840004
v -1.882721 -0.2959908 0.2840004
v -1.882721 -0.48885018 0.2840004
v -0.48146182 0.13321084 0.2840004
v -0.6043606 0.41005355 0.2840004
v -1.882721 -0.15744895 0.2840004
v -0.48146182 0.13321084 0.2840004
v -1.882721 -0.15744895 0.2840004
v -1.882721 -0.29599082 0.2840004
v 0.45085326 -1.9669302 0.2840004
v -1.882721 -1.1793891 0.2840004
v -1.8471694 -2.4943023 0.2840004
v 0.45085326 -1.9669302 0.2840004
v -1.8471694 -2.4943023 0.2840004
v -0.73674154 -2.4943023 0.2840004
v -1.882721 -1.1793891 0.2840004
v -1.882721 -2.4943023 0.2840004
v -1.8471694 -2.4943023 0.2840004
v 0.45085326 -1.9669302 0.2840004
v -0.48146182 0.13321084 0.2840004
v -1.882721 -0.48885015 0.2840004
v 0.45085326 -1.9669302 0.2840004
v -1.882721 -0.48885015 0.2840004
v -1.882721 -1.1793891 0.2840004
v 0.45085326 -1.9669302 0.2840004
v -0.7367416 -2.4943023 0.2840004
v 0.6849694 -2.4943023 0.27609903
v -0.28410947 0.5522226 0.2840004
v -0.60471445 0.40989646 0.2840004
v 0.68454576 -2.4943023 0.2840004
v -0.28410947 0.5522226 0.2840004
v 0.68454576 -2.4943023 0.2840004
v 0.8648334 -2.4943023 0.2840004
v -0.28410947 0.5522226 0.2840004
v 0.8648334 -2.4943023 0.2840004
v 0.9012359 -2.494302 0.2840004
v -0.28410947 0.5522226 0.2840004
v 0.9012359 -2.494302 0.2840004
v 1.0683336 -2.4943023 0.2840004
v 0.036697745 0.69463843 0.2840004
v -0.28390723 0.5523124 0.2840004
v 1.0685756 -2.4943023 0.2840004
v 0.036697745 0.69463843 0.2840004
v 1.0685756 -2.4943023 0.2840004
v 1.2087036 -2.4943023 0.2840004
v 0.036697745 0.69463843 0.2840004
v 1.2087036 -2.4943023 0.2840004
v 1.2774545 -2.4943023 0.2840004
v 0.036697745 0.69463843 0.2840004
v 1.2774545 -2.4943023 0.2840004
v 1.4523635 -2.4943025 0.2840004
v -0.08646572 0.9711232 0.2840004
v 1.882721 1.5744656 0.2840004
v 1.882721 1.8453038 0.2840004
v -0.08646572 0.9711232 0.2840004
v 0.03634402 0.6944809 0.2840004
v 1.882721 1.514143 0.2840004
v -0.08646572 0.9711232 0.2840004
v 1.882721 1.514143 0.2840004
v 1.882721 1.5744656 0.2840004
v -0.08646572 0.9711232 0.2840004
v 1.882721 1.8453038 0.2840004
v 0.3468781 2.4943023 0.26679704
v -0.08646572 0.9711232 0.2840004
v 0.3468781 2.4943023 0.26679704
v -0.7626503 2.4943023 0.26042977
v 1.882721 1.8453038 0.2840004
v 1.882721 2.0920696 0.28081045
v 0.69100046 2.4943023 0.26877183
v 1.882721 1.8453038 0.2840004
v 0.69100046 2.4943023 0.26877183
v 0.3468781 2.4943023 0.26679704
v 1.882721 2.0920696 0.28081045
v 1.7583206 2.4943023 0.27489763
v 0.69100046 2.4943023 0.26877183
v 1.882721 2.0920696 0.28081045
v 1.882721 2.4943023 0.2756116
v 1.7583206 2.4943023 0.27489763
v -0.60436094 0.41005445 0.2840004
v -1.882721 0.018496444 0.2840004
v -1.8827208 -0.15744787 0.2840004
v -0.60436094 0.41005445 0.2840004
v -0.7272595 0.68689674 0.2840004
v -1.882721 0.17395301 0.2840004
v -0.60436094 0.41005445 0.2840004
v -1.882721 0.17395301 0.2840004
v -1.882721 0.018496444 0.2840004
v -0.7272595 0.68689674 0.2840004
v -1.5296206 2.4943023 0.2840004
v -1.882721 2.3887584 0.2840004
v -0.7272595 0.68689674 0.2840004
v -1.882721 2.3887584 0.2840004
v -1.882721 1.0767897 0.2840004
v -1.5296206 2.4943023 0.2840004
v -1.882721 2.4943023 0.2840004
v -1.8827211 2.3887584 0.2840004
v -0.7272595 0.68689674 0.2840004
v -1.882721 1.0767897 0.2840004
v -1.882721 0.17395304 0.2840004
v -0.60471445 0.40989646 0.2840004
v -1.4157175 2.4943023 0.2840004
v -1.5300443 2.4943025 0.2840004
v -0.60471445 0.40989646 0.2840004
v -0.28411064 0.55222523 0.2840004
v -1.1462563 2.494302 0.2840004
v -0.60471445 0.40989646 0.2840004
v -1.1462563 2.494302 0.2840004
v -1.4157175 2.4943023 0.2840004
v -0.28390723 0.5523124 0.2840004
v -1.0394989 2.4943023 0.2840004
v -1.1460143 2.4943023 0.2840004
v -0.28390723 0.5523124 0.2840004
v 0.036696583 0.69464105 0.2840004
v -0.76222646 2.494302 0.2840004
v -0.28390723 0.5523124 0.2840004
v -0.76222646 2.494302 0.2840004
v -1.0394989 2.4943023 0.2840004
vt 0.25878906 0.3232422
vt 0.24645996 0.2956543
vt 0.07409668 0.3720703
vt 0.25878906 0.3232422
vt 0.07409668 0.3720703
vt 0.07409668 0.37963867
vt 0.25878906 0.3232422
vt 0.07409668 0.37963867
vt 0.07409668 0.40527344
vt 0.24645996 0.2956543
vt 0.15319824 0.085510254
vt 0.07409668 0.12060547
vt 0.24645996 0.2956543
vt 0.07409668 0.12060547
vt 0.07409668 0.23730469
vt 0.24645996 0.2956543
vt 0.07409668 0.23730469
vt 0.07409668 0.3720703
vt 0.15319824 0.085510254
vt 0.07409668 0.058807373
vt 0.07409668 0.12060547
vt 0.07409668 0.058807373
vt 0.15319824 0.085510254
vt 0.117126465 0.004348755
vt 0.07409668 0.058807373
vt 0.117126465 0.004348755
vt 0.07409668 0.004348755
vt 0.21728516 0.05709839
vt 0.19384766 0.004348755
vt 0.19384766 0.004348755
vt 0.31054688 0.26708984
vt 0.4506836 0.2241211
vt 0.4506836 0.20483398
vt 0.31054688 0.26708984
vt 0.3227539 0.29467773
vt 0.4506836 0.23803711
vt 0.31054688 0.26708984
vt 0.4506836 0.23803711
vt 0.4506836 0.2241211
vt 0.21728516 0.05709839
vt 0.4506836 0.13586426
vt 0.44702148 0.004348755
vt 0.21728516 0.05709839
vt 0.44702148 0.004348755
vt 0.3359375 0.004348755
vt 0.4506836 0.13586426
vt 0.4506836 0.004348755
vt 0.44702148 0.004348755
vt 0.21728516 0.05709839
vt 0.31054688 0.26708984
vt 0.4506836 0.20483398
vt 0.21728516 0.05709839
vt 0.4506836 0.20483398
vt 0.4506836 0.13586426
vt 0.21728516 0.05709839
vt 0.3359375 0.004348755
vt 0.19384766 0.004348755
vt 0.29077148 0.30908203
vt 0.3227539 0.29467773
vt 0.19384766 0.004348755
vt 0.29077148 0.30908203
vt 0.19384766 0.004348755
vt 0.17590332 0.004348755
vt 0.29077148 0.30908203
vt 0.17590332 0.004348755
vt 0.17224121 0.004348755
vt 0.29077148 0.30908203
vt 0.17224121 0.004348755
vt 0.15551758 0.004348755
vt 0.25878906 0.3232422
vt 0.29077148 0.30908203
vt 0.15551758 0.004348755
vt 0.25878906 0.3232422
vt 0.15551758 0.004348755
vt 0.14147949 0.004348755
vt 0.25878906 0.3232422
vt 0.14147949 0.004348755
vt 0.13464355 0.004348755
vt 0.25878906 0.3232422
vt 0.13464355 0.004348755
vt 0.117126465 0.004348755
vt 0.2709961 0.35083008
vt 0.07409668 0.4111328
vt 0.07409668 0.43823242
vt 0.2709961 0.35083008
vt 0.25878906 0.3232422
vt 0.07409668 0.40527344
vt 0.2709961 0.35083008
vt 0.07409668 0.40527344
vt 0.07409668 0.4111328
vt 0.2709961 0.35083008
vt 0.07409668 0.43823242
vt 0.22766113 0.50341797
vt 0.2709961 0.35083008
vt 0.22766113 0.50341797
vt 0.33862305 0.50341797
vt 0.07409668 0.43823242
vt 0.07409668 0.46289062
vt 0.1932373 0.50341797
vt 0.07409668 0.43823242
vt 0.1932373 0.50341797
vt 0.22766113 0.50341797
vt 0.07409668 0.46289062
vt 0.08648682 0.50341797
vt 0.1932373 0.50341797
vt 0.07409668 0.46289062
vt 0.07409668 0.50341797
vt 0.08648682 0.50341797
vt 0.3227539 0.29467773
vt 0.4506836 0.25561523
vt 0.4506836 0.23803711
vt 0.3227539 0.29467773
vt 0.33496094 0.32250977
vt 0.4506836 0.27124023
vt 0.3227539 0.29467773
vt 0.4506836 0.27124023
vt 0.4506836 0.25561523
vt 0.33496094 0.32250977
vt 0.4152832 0.50341797
vt 0.4506836 0.49267578
vt 0.33496094 0.32250977
vt 0.4506836 0.49267578
vt 0.4506836 0.36157227
vt 0.4152832 0.50341797
vt 0.4506836 0.50341797
vt 0.4506836 0.49267578
vt 0.33496094 0.32250977
vt 0.4506836 0.36157227
vt 0.4506836 0.27124023
vt 0.3227539 0.29467773
vt 0.4038086 0.50341797
vt 0.4152832 0.50341797
vt 0.3227539 0.29467773
vt 0.29077148 0.30908203
vt 0.37695312 0.50341797
vt 0.3227539 0.29467773
vt 0.37695312 0.50341797
vt 0.4038086 0.50341797
vt 0.29077148 0.30908203
vt 0.36621094 0.50341797
vt 0.37695312 0.50341797
vt 0.29077148 0.30908203
vt 0.25878906 0.3232422
vt 0.33862305 0.50341797
vt 0.29077148 0.30908203
vt 0.33862305 0.50341797
vt 0.36621094 0.50341797
vn -3.5762787E-07 8.34465E-07 -1
vn -2.3841858E-07 4.7683716E-07 -1
vn -0.00036621094 0.0010957718 -1
vn -3.5762787E-07 8.34465E-07 -1
vn -0.00036621094 0.0010957718 -1
vn -0.00037240982 0.0011138916 -1
vn -3.5762787E-07 8.34465E-07 -1
vn -0.00037240982 0.0011138916 -1
vn -2.9802322E-07 6.556511E-07 -1
vn -2.3841858E-07 4.7683716E-07 -1
vn -5.9604645E-08 1.7881393E-07 -1
vn -5.9604645E-08 1.7881393E-07 -1
vn -2.3841858E-07 4.7683716E-07 -1
vn -5.9604645E-08 1.7881393E-07 -1
vn -1.1920929E-07 2.9802322E-07 -1
vn -2.3841858E-07 4.7683716E-07 -1
vn -1.1920929E-07 2.9802322E-07 -1
vn -0.00036621094 0.0010957718 -1
vn -0.010269165 -0.00050497055 -1
vn -0.010269165 -0.00050497055 -1
vn -0.010269165 -0.00050497055 -1
vn -0.010269165 -0.00050497055 -1
vn -0.010269165 -0.00050497055 -1
vn -0.010269165 -0.00050497055 -1
vn -0.010269165 -0.00050497055 -1
vn -0.010269165 -0.00050497055 -1
vn -0.010269165 -0.00050497055 -1
vn 0.9140625 0.40576172 0
vn 0.9140625 0.40576172 0
vn 0.9140625 0.40576172 0
vn -1.1920929E-07 1.7881393E-07 -1
vn -1.7881393E-07 2.9802322E-07 -1
vn -1.1920929E-07 2.9802322E-07 -1
vn -1.1920929E-07 1.7881393E-07 -1
vn -5.9604645E-08 1.7881393E-07 -1
vn -1.7881393E-07 2.9802322E-07 -1
vn -1.1920929E-07 1.7881393E-07 -1
vn -1.7881393E-07 2.9802322E-07 -1
vn -1.7881393E-07 2.9802322E-07 -1
vn -0.002779007 0.0062561035 -1
vn -0.0007634163 0.0017185211 -1
vn 0.001455307 0.00063610077 -1
vn -0.002779007 0.0062561035 -1
vn 0.001455307 0.00063610077 -1
vn -0.00015056133 0.0031261444 -1
vn -0.0007634163 0.0017185211 -1
vn 0.0015068054 0.00055646896 -1
vn 0.001455307 0.00063610077 -1
vn -0.002779007 0.0062561035 -1
vn -1.1920929E-07 1.7881393E-07 -1
vn -1.1920929E-07 2.9802322E-07 -1
vn -0.002779007 0.0062561035 -1
vn -1.1920929E-07 2.9802322E-07 -1
vn -0.0007634163 0.0017185211 -1
vn -0.002779007 0.0062561035 -1
vn -0.00015056133 0.0031261444 -1
vn -0.0034751892 0.007827759 -1
vn -4.7683716E-07 5.9604645E-08 -1
vn -4.7683716E-07 5.9604645E-08 -1
vn -4.7683716E-07 5.9604645E-08 -1
vn -4.7683716E-07 5.9604645E-08 -1
vn -4.7683716E-07 5.9604645E-08 -1
vn -4.7683716E-07 5.9604645E-08 -1
vn -4.7683716E-07 5.9604645E-08 -1
vn -4.7683716E-07 5.9604645E-08 -1
vn -4.7683716E-07 5.9604645E-08 -1
vn -4.7683716E-07 5.9604645E-08 -1
vn -4.7683716E-07 5.9604645E-08 -1
vn -4.7683716E-07 5.9604645E-08 -1
vn -4.7683716E-07 5.9604645E-08 -1
vn -4.7683716E-07 5.9604645E-08 -1
vn -4.7683716E-07 5.9604645E-08 -1
vn -4.7683716E-07 5.9604645E-08 -1
vn -4.7683716E-07 5.9604645E-08 -1
vn -4.7683716E-07 5.9604645E-08 -1
vn -4.7683716E-07 5.9604645E-08 -1
vn -4.7683716E-07 5.9604645E-08 -1
vn -4.7683716E-07 5.9604645E-08 -1
vn -4.7683716E-07 5.9604645E-08 -1
vn -4.7683716E-07 5.9604645E-08 -1
vn -4.7683716E-07 5.9604645E-08 -1
vn 0.0028686523 -0.006462097 -1
vn 0.0005226135 -0.0011768341 -1
vn 0.0016326904 -0.0036773682 -1
vn 0.0028686523 -0.006462097 -1
vn -1.7881393E-07 4.172325E-07 -1
vn -1.7881393E-07 4.172325E-07 -1
vn 0.0028686523 -0.006462097 -1
vn -1.7881393E-07 4.172325E-07 -1
vn 0.0005226135 -0.0011768341 -1
vn 0.0028686523 -0.006462097 -1
vn 0.0016326904 -0.0036773682 -1
vn 0.0038051605 -0.008575439 -1
vn 0.0028686523 -0.006462097 -1
vn 0.0038051605 -0.008575439 -1
vn 0.0049476624 -0.011146545 -1
vn 0.0016326904 -0.0036773682 -1
vn 0.0018568039 -0.004180908 -1
vn 0.0034503937 -0.007774353 -1
vn 0.0016326904 -0.0036773682 -1
vn 0.0034503937 -0.007774353 -1
vn 0.0038051605 -0.008575439 -1
vn 0.0018568039 -0.004180908 -1
vn 0.0026397705 -0.005947113 -1
vn 0.0034503937 -0.007774353 -1
vn 0.0018568039 -0.004180908 -1
vn 0.002544403 -0.00573349 -1
vn 0.0026397705 -0.005947113 -1
vn -5.9604645E-08 1.7881393E-07 -1
vn -1.1920929E-07 1.7881393E-07 -1
vn -1.7881393E-07 2.3841858E-07 -1
vn -5.9604645E-08 1.7881393E-07 -1
vn -5.9604645E-08 1.7881393E-07 -1
vn -1.1920929E-07 1.7881393E-07 -1
vn -5.9604645E-08 1.7881393E-07 -1
vn -1.1920929E-07 1.7881393E-07 -1
vn -1.1920929E-07 1.7881393E-07 -1
vn -5.9604645E-08 1.7881393E-07 -1
vn 0.00073194504 -0.0028038025 -1
vn 0.00068712234 -0.002632141 -1
vn -5.9604645E-08 1.7881393E-07 -1
vn 0.00068712234 -0.002632141 -1
vn 0.00015258789 -0.0005850792 -1
vn 0.00073194504 -0.0028038025 -1
vn 0.0007300377 -0.0027980804 -1
vn 0.00068712234 -0.002632141 -1
vn -5.9604645E-08 1.7881393E-07 -1
vn 0.00015258789 -0.0005850792 -1
vn -1.1920929E-07 1.7881393E-07 -1
vn -4.7683716E-07 5.9604645E-08 -1
vn -4.7683716E-07 5.9604645E-08 -1
vn -4.7683716E-07 5.9604645E-08 -1
vn -4.7683716E-07 5.9604645E-08 -1
vn -4.7683716E-07 5.9604645E-08 -1
vn -4.7683716E-07 5.9604645E-08 -1
vn -4.7683716E-07 5.9604645E-08 -1
vn -4.7683716E-07 5.9604645E-08 -1
vn -4.7683716E-07 5.9604645E-08 -1
vn -4.7683716E-07 5.9604645E-08 -1
vn -4.7683716E-07 5.9604645E-08 -1
vn -4.7683716E-07 5.9604645E-08 -1
vn -4.7683716E-07 5.9604645E-08 -1
vn -4.7683716E-07 5.9604645E-08 -1
vn -4.7683716E-07 5.9604645E-08 -1
vn -4.7683716E-07 5.9604645E-08 -1
vn -4.7683716E-07 5.9604645E-08 -1
vn -4.7683716E-07 5.9604645E-08 -1
g DecalMesh_Common_Decal_Water_02__0_0
f 3/3/3 2/2/2 1/1/1
f 6/6/6 5/5/5 4/4/4
f 9/9/9 8/8/8 7/7/7
f 12/12/12 11/11/11 10/10/10
f 15/15/15 14/14/14 13/13/13
f 18/18/18 17/17/17 16/16/16
f 21/21/21 20/20/20 19/19/19
f 24/24/24 23/23/23 22/22/22
f 27/27/27 26/26/26 25/25/25
f 30/30/30 29/29/29 28/28/28
f 33/33/33 32/32/32 31/31/31
f 36/36/36 35/35/35 34/34/34
f 39/39/39 38/38/38 37/37/37
f 42/42/42 41/41/41 40/40/40
f 45/45/45 44/44/44 43/43/43
f 48/48/48 47/47/47 46/46/46
f 51/51/51 50/50/50 49/49/49
f 54/54/54 53/53/53 52/52/52
f 57/57/57 56/56/56 55/55/55
f 60/60/60 59/59/59 58/58/58
f 63/63/63 62/62/62 61/61/61
f 66/66/66 65/65/65 64/64/64
f 69/69/69 68/68/68 67/67/67
f 72/72/72 71/71/71 70/70/70
f 75/75/75 74/74/74 73/73/73
f 78/78/78 77/77/77 76/76/76
f 81/81/81 80/80/80 79/79/79
f 84/84/84 83/83/83 82/82/82
f 87/87/87 86/86/86 85/85/85
f 90/90/90 89/89/89 88/88/88
f 93/93/93 92/92/92 91/91/91
f 96/96/96 95/95/95 94/94/94
f 99/99/99 98/98/98 97/97/97
f 102/102/102 101/101/101 100/100/100
f 105/105/105 104/104/104 103/103/103
f 108/108/108 107/107/107 106/106/106
f 111/111/111 110/110/110 109/109/109
f 114/114/114 113/113/113 112/112/112
f 117/117/117 116/116/116 115/115/115
f 120/120/120 119/119/119 118/118/118
f 123/123/123 122/122/122 121/121/121
f 126/126/126 125/125/125 124/124/124
f 129/129/129 128/128/128 127/127/127
f 132/132/132 131/131/131 130/130/130
f 135/135/135 134/134/134 133/133/133
f 138/138/138 137/137/137 136/136/136
f 141/141/141 140/140/140 139/139/139
f 144/144/144 143/143/143 142/142/142
f 147/147/147 146/146/146 145/145/145
