g DecalMesh_MetroArea_Decal_Ground_07__26
v -0.2616439 -1.0979311 -0.008080363
v 0.26476246 -1.0979314 -0.008080363
v 0.26476246 -0.5715251 -0.008080414
v -0.2616439 -1.0979311 -0.008080363
v 0.26476252 -0.57152504 -0.008080414
v -0.21939187 1.24366 -0.008080587
v -0.2616439 -1.0979311 -0.008080363
v -0.21939187 1.24366 -0.008080587
v -0.26164344 1.24366 -0.008080587
v 0.26476252 -0.57152504 -0.008080414
v 0.26476246 1.24366 -0.008080587
v -0.21939188 1.24366 -0.008080587
v -0.2616439 -1.0979311 -0.018080592
v -0.2616439 -1.2376599 -0.01808052
v -0.22437578 -1.2376599 -0.018190527
v 0.26476243 -1.0979851 -0.019634444
v -0.2616439 -1.0979311 -0.018080592
v -0.2243758 -1.2376599 -0.018190527
v 0.26476243 -1.0979851 -0.019634444
v -0.2243758 -1.2376599 -0.018190527
v 0.26476243 -1.2376599 -0.019634372
v -0.2616439 -1.0979311 -0.008080363
v -0.26164344 1.24366 -0.008080587
v -0.26164344 1.24366 0.04081349
v -0.2616439 -1.0979311 -0.008080363
v -0.26164344 1.24366 0.04081349
v -0.26164374 -0.24412492 0.0408135
v -0.2616439 -1.0979311 -0.008080363
v -0.26164374 -0.244125 0.040813494
v -0.2616439 -1.0979311 0.040813494
v -0.2616439 -1.0979311 -0.008080363
v -0.2616439 -1.0979311 0.040813494
v -0.2616439 -1.1484766 0.040813494
v -0.2616439 -1.2376599 -0.008080344
v -0.2616439 -1.0979311 -0.008080363
v -0.2616439 -1.1484766 0.040813494
v -0.2616439 -1.2376599 -0.008080344
v -0.2616439 -1.1484766 0.040813494
v -0.2616439 -1.2376599 0.04081349
v -0.2616439 -1.0979311 -0.018080592
v 0.26476246 -1.0979851 -0.019634444
v 0.26476246 -1.0979314 -0.015974918
v -0.2616439 -1.0979311 -0.008080363
v -0.2616439 -1.0979311 -0.018080592
v 0.26476243 -1.0979314 -0.015974918
v -0.2616439 -1.0979311 -0.008080363
v 0.26476243 -1.0979314 -0.015974918
v 0.26476243 -1.0979314 -0.008080363
v -0.2616439 -1.0979311 -0.018080592
v -0.2616439 -1.0979311 -0.008080363
v -0.2616439 -1.2376599 -0.008639218
v -0.2616439 -1.0979311 -0.018080592
v -0.2616439 -1.2376599 -0.008639218
v -0.2616439 -1.2376599 -0.01808052
v -0.2616439 -1.0979311 -0.008080363
v -0.2616439 -1.2376599 -0.008080344
v -0.2616439 -1.2376599 -0.008639218
vt 0.48510742 0.5698242
vt 0.44995117 0.5698242
vt 0.44995117 0.60498047
vt 0.48510742 0.5698242
vt 0.44995117 0.60498047
vt 0.48217773 0.7260742
vt 0.48510742 0.5698242
vt 0.48217773 0.7260742
vt 0.48510742 0.7260742
vt 0.44995117 0.60498047
vt 0.44995117 0.7260742
vt 0.48217773 0.7260742
vt 0.48510742 0.5698242
vt 0.48510742 0.5605469
vt 0.48266602 0.5605469
vt 0.44995117 0.5698242
vt 0.48510742 0.5698242
vt 0.48266602 0.5605469
vt 0.44995117 0.5698242
vt 0.48266602 0.5605469
vt 0.44995117 0.5605469
vt 0.48510742 0.5698242
vt 0.48510742 0.7260742
vt 0.48510742 0.7260742
vt 0.48510742 0.5698242
vt 0.48510742 0.7260742
vt 0.48510742 0.6269531
vt 0.48510742 0.5698242
vt 0.48510742 0.6269531
vt 0.48510742 0.5698242
vt 0.48510742 0.5698242
vt 0.48510742 0.5698242
vt 0.48510742 0.56689453
vt 0.48510742 0.5605469
vt 0.48510742 0.5698242
vt 0.48510742 0.56689453
vt 0.48510742 0.5605469
vt 0.48510742 0.56689453
vt 0.48510742 0.5605469
vt 0.48510742 0.5698242
vt 0.44995117 0.5698242
vt 0.44995117 0.5698242
vt 0.48510742 0.5698242
vt 0.48510742 0.5698242
vt 0.44995117 0.5698242
vt 0.48510742 0.5698242
vt 0.44995117 0.5698242
vt 0.44995117 0.5698242
vt 0.48510742 0.5698242
vt 0.48510742 0.5698242
vt 0.48510742 0.5605469
vt 0.48510742 0.5698242
vt 0.48510742 0.5605469
vt 0.48510742 0.5605469
vt 0.48510742 0.5698242
vt 0.48510742 0.5605469
vt 0.48510742 0.5605469
vn -0 -1.1920929E-07 -1
vn -0 -1.1920929E-07 -1
vn -0 -1.1920929E-07 -1
vn -0 -1.1920929E-07 -1
vn -0 -1.1920929E-07 -1
vn -0 -1.1920929E-07 -1
vn -0 -1.1920929E-07 -1
vn -0 -1.1920929E-07 -1
vn -0 -1.1920929E-07 -1
vn -0 -1.1920929E-07 -1
vn -0 -1.1920929E-07 -1
vn -0 -1.1920929E-07 -1
vn -0.0014762878 -0.0014762878 -1
vn -0.0014762878 -0.0014762878 -1
vn -0.0014762878 -0.0014762878 -1
vn -0.0014762878 -0.0014762878 -1
vn -0.0014762878 -0.0014762878 -1
vn -0.0014762878 -0.0014762878 -1
vn -0.0014762878 -0.0014762878 -1
vn -0.0014762878 -0.0014762878 -1
vn -0.0014762878 -0.0014762878 -1
vn -1 2.3841858E-07 -0
vn -1 1.1920929E-07 -0
vn -1 1.1920929E-07 -0
vn -1 2.3841858E-07 -0
vn -1 1.1920929E-07 -0
vn -1 1.7881393E-07 -0
vn -1 2.3841858E-07 -0
vn -1 1.7881393E-07 -0
vn -1 2.3841858E-07 -0
vn -1 2.3841858E-07 -0
vn -1 2.3841858E-07 -0
vn -1 2.3841858E-07 -0
vn -1 2.3841858E-07 -0
vn -1 2.3841858E-07 -0
vn -1 2.3841858E-07 -0
vn -1 2.3841858E-07 -0
vn -1 2.3841858E-07 -0
vn -1 2.3841858E-07 -0
vn 3.7550926E-05 1 -0.009346008
vn 3.7550926E-05 1 -0.009346008
vn 3.7550926E-05 1 -0.009346008
vn 3.7550926E-05 1 -0.009346008
vn 3.7550926E-05 1 -0.009346008
vn 3.7550926E-05 1 -0.009346008
vn 3.7550926E-05 1 -0.009346008
vn 3.7550926E-05 1 -0.009346008
vn 3.7550926E-05 1 -0.009346008
vn -1 1.1920929E-07 -0
vn -1 1.1920929E-07 -0
vn -1 1.1920929E-07 -0
vn -1 1.1920929E-07 -0
vn -1 1.1920929E-07 -0
vn -1 1.1920929E-07 -0
vn -1 1.1920929E-07 -0
vn -1 1.1920929E-07 -0
vn -1 1.1920929E-07 -0
g DecalMesh_MetroArea_Decal_Ground_07__26_0
f 3/3/3 2/2/2 1/1/1
f 6/6/6 5/5/5 4/4/4
f 9/9/9 8/8/8 7/7/7
f 12/12/12 11/11/11 10/10/10
f 15/15/15 14/14/14 13/13/13
f 18/18/18 17/17/17 16/16/16
f 21/21/21 20/20/20 19/19/19
f 24/24/24 23/23/23 22/22/22
f 27/27/27 26/26/26 25/25/25
f 30/30/30 29/29/29 28/28/28
f 33/33/33 32/32/32 31/31/31
f 36/36/36 35/35/35 34/34/34
f 39/39/39 38/38/38 37/37/37
f 42/42/42 41/41/41 40/40/40
f 45/45/45 44/44/44 43/43/43
f 48/48/48 47/47/47 46/46/46
f 51/51/51 50/50/50 49/49/49
f 54/54/54 53/53/53 52/52/52
f 57/57/57 56/56/56 55/55/55
