g DecalMesh_MetroArea_Decal_Graffiti_20__22
v 1.7023021 0.99458575 -0.052640688
v -0.9721851 -0.9945858 -0.052640993
v 1.732032 -0.9945858 -0.05264071
v 1.7023021 0.99458575 -0.052640688
v 0.77264726 0.9945858 -0.052640785
v -1.2900531 -0.9945858 -0.052641027
v 1.7023021 0.99458575 -0.052640688
v -1.2900531 -0.9945858 -0.052641027
v -1.12361 -0.9945858 -0.052641008
v 1.7023021 0.99458575 -0.052640688
v -1.1236099 -0.9945858 -0.052641008
v -0.9721851 -0.9945858 -0.052640993
v 1.7398922 0.9945859 -0.052640684
v 1.7023021 0.99458575 -0.052640688
v 1.732032 -0.9945858 -0.05264071
v 1.7398922 0.9945859 -0.052640684
v 1.732032 -0.9945858 -0.05264071
v 1.7398922 -0.9945858 -0.052640706
v 0.77264726 0.9945858 -0.052640785
v -1.7398924 0.9945859 -0.05264105
v -1.7398922 -0.9945858 -0.052641075
v 0.77264726 0.9945858 -0.052640785
v -1.7398922 -0.9945858 -0.052641075
v -1.290053 -0.9945858 -0.052641027
vt 0.421875 0.4621582
vt 0.6069336 0.3251953
vt 0.41992188 0.3251953
vt 0.421875 0.4621582
vt 0.48632812 0.4621582
vt 0.62890625 0.3251953
vt 0.421875 0.4621582
vt 0.62890625 0.3251953
vt 0.6171875 0.3251953
vt 0.421875 0.4621582
vt 0.6171875 0.3251953
vt 0.6069336 0.3251953
vt 0.4194336 0.4621582
vt 0.421875 0.4621582
vt 0.41992188 0.3251953
vt 0.4194336 0.4621582
vt 0.41992188 0.3251953
vt 0.4194336 0.3251953
vt 0.48632812 0.4621582
vt 0.65966797 0.4621582
vt 0.65966797 0.3251953
vt 0.48632812 0.4621582
vt 0.65966797 0.3251953
vt 0.62890625 0.3251953
vn 1.1920929E-07 -0 -1
vn 1.1920929E-07 -0 -1
vn 1.1920929E-07 -0 -1
vn 1.1920929E-07 -0 -1
vn 1.1920929E-07 -0 -1
vn 1.1920929E-07 -0 -1
vn 1.1920929E-07 -0 -1
vn 1.1920929E-07 -0 -1
vn 1.1920929E-07 -0 -1
vn 1.1920929E-07 -0 -1
vn 1.1920929E-07 -0 -1
vn 1.1920929E-07 -0 -1
vn 1.1920929E-07 -0 -1
vn 1.1920929E-07 -0 -1
vn 1.1920929E-07 -0 -1
vn 1.1920929E-07 -0 -1
vn 1.1920929E-07 -0 -1
vn 1.1920929E-07 -0 -1
vn 1.1920929E-07 -0 -1
vn 1.1920929E-07 -0 -1
vn 1.1920929E-07 -0 -1
vn 1.1920929E-07 -0 -1
vn 1.1920929E-07 -0 -1
vn 1.1920929E-07 -0 -1
g DecalMesh_MetroArea_Decal_Graffiti_20__22_0
f 3/3/3 2/2/2 1/1/1
f 6/6/6 5/5/5 4/4/4
f 9/9/9 8/8/8 7/7/7
f 12/12/12 11/11/11 10/10/10
f 15/15/15 14/14/14 13/13/13
f 18/18/18 17/17/17 16/16/16
f 21/21/21 20/20/20 19/19/19
f 24/24/24 23/23/23 22/22/22
