g DecalMesh_MetroArea_Decal_Ground_07__3
v 0.27773452 1.60064 -0.40223712
v -0.27773467 1.082602 -0.40223706
v 0.20592876 -1.60064 -0.40223676
v 0.27773452 1.60064 -0.40223712
v 0.20592876 -1.60064 -0.40223676
v 0.27773452 -1.60064 -0.40223676
v -0.27773467 1.082602 -0.40223706
v -0.27773467 -1.6006398 -0.40223676
v 0.20592877 -1.6006402 -0.40223676
v 0.27773452 1.60064 -0.40223712
v -0.27773464 1.60064 -0.40223712
v -0.2777346 1.082602 -0.40223706
v -0.023391724 1.3289281 -0.36654294
v -0.012045756 1.3165466 -0.4079789
v -0.010296818 1.3403028 -0.4079789
v 0.22517395 1.3244139 -0.36654294
v 0.27773464 1.3937544 -0.36654294
v 0.27773464 1.4106624 -0.4079789
v 0.22517395 1.3244139 -0.36654294
v 0.27773464 1.4106624 -0.4079789
v 0.24282208 1.3646042 -0.4079789
vt 0.44995117 0.7260742
vt 0.48706055 0.69140625
vt 0.45483398 0.5126953
vt 0.44995117 0.7260742
vt 0.45483398 0.5126953
vt 0.44995117 0.5126953
vt 0.48706055 0.69140625
vt 0.48706055 0.5126953
vt 0.45483398 0.5126953
vt 0.44995117 0.7260742
vt 0.48706055 0.7260742
vt 0.48706055 0.69140625
vt 0.4699707 0.7080078
vt 0.46923828 0.70703125
vt 0.46923828 0.7084961
vt 0.45336914 0.70751953
vt 0.44995117 0.71240234
vt 0.44995117 0.7133789
vt 0.45336914 0.70751953
vt 0.44995117 0.7133789
vt 0.45239258 0.7104492
vn -0 -1.1920929E-07 -1
vn -0 -1.1920929E-07 -1
vn -0 -1.1920929E-07 -1
vn -0 -1.1920929E-07 -1
vn -0 -1.1920929E-07 -1
vn -0 -1.1920929E-07 -1
vn -0 -1.1920929E-07 -1
vn -0 -1.1920929E-07 -1
vn -0 -1.1920929E-07 -1
vn -0 -1.1920929E-07 -1
vn -0 -1.1920929E-07 -1
vn -0 -1.1920929E-07 -1
vn -0.6230469 -0.77978516 0.062469482
vn -0.6904297 -0.703125 -0.036712646
vn -0.70458984 -0.5595703 -0.03253174
vn 0.7739258 -0.5864258 -0.23937988
vn 0.6665039 -0.67578125 -0.29418945
vn 0.6743164 -0.67822266 -0.27563477
vn 0.7739258 -0.5864258 -0.23937988
vn 0.6743164 -0.67822266 -0.27563477
vn 0.74560547 -0.61865234 -0.23925781
g DecalMesh_MetroArea_Decal_Ground_07__3_0
f 3/3/3 2/2/2 1/1/1
f 6/6/6 5/5/5 4/4/4
f 9/9/9 8/8/8 7/7/7
f 12/12/12 11/11/11 10/10/10
f 15/15/15 14/14/14 13/13/13
f 18/18/18 17/17/17 16/16/16
f 21/21/21 20/20/20 19/19/19
