g DecalMesh_MetroArea_Decal_Ground_25__55
v 0.5 0.49199724 -0.7965889
v -0.49999997 0.49200004 -0.7965889
v -0.12699889 -0.49999997 -0.7965889
v 0.5 0.49199724 -0.7965889
v -0.12699889 -0.49999997 -0.7965889
v 0.5 -0.49999997 -0.7965889
v -0.49999997 0.49200004 -0.7965889
v -0.5 -0.5 -0.7965889
v -0.12699886 -0.50000006 -0.7965889
v 0.5 0.49199533 -0.7965851
v 0.5 0.5 -0.7965851
v -0.49999997 0.49729395 -0.7965851
v 0.5 0.49199533 -0.7965851
v -0.49999997 0.49729395 -0.7965851
v -0.49999997 0.49199814 -0.7965851
v 0.5 0.5 -0.7965851
v -0.5 0.5 -0.7965851
v -0.49999997 0.49729395 -0.7965851
vt 0.14038086 0.2709961
vt 0.2783203 0.2709961
vt 0.22692871 0.13500977
vt 0.14038086 0.2709961
vt 0.22692871 0.13500977
vt 0.14038086 0.13500977
vt 0.2783203 0.2709961
vt 0.2783203 0.13500977
vt 0.22692871 0.13500977
vt 0.14038086 0.2709961
vt 0.14038086 0.27197266
vt 0.2783203 0.27172852
vt 0.14038086 0.2709961
vt 0.2783203 0.27172852
vt 0.2783203 0.2709961
vt 0.14038086 0.27197266
vt 0.2783203 0.27197266
vt 0.2783203 0.27172852
vn -0 0 -1
vn -0 0 -1
vn -0 0 -1
vn -0 0 -1
vn -0 0 -1
vn -0 0 -1
vn -0 0 -1
vn -0 0 -1
vn -0 0 -1
vn 5.9604645E-08 -1.7881393E-07 -1
vn 3.874302E-06 -1.7881393E-07 -1
vn 2.503395E-06 -1.7881393E-07 -1
vn 5.9604645E-08 -1.7881393E-07 -1
vn 2.503395E-06 -1.7881393E-07 -1
vn 0 -1.7881393E-07 -1
vn 3.874302E-06 -1.7881393E-07 -1
vn 3.8146973E-06 -1.7881393E-07 -1
vn 2.503395E-06 -1.7881393E-07 -1
g DecalMesh_MetroArea_Decal_Ground_25__55_0
f 3/3/3 2/2/2 1/1/1
f 6/6/6 5/5/5 4/4/4
f 9/9/9 8/8/8 7/7/7
f 12/12/12 11/11/11 10/10/10
f 15/15/15 14/14/14 13/13/13
f 18/18/18 17/17/17 16/16/16
