g DecalMesh_MetroArea_Decal_Ground_16_(2)__69
v -0.5043831 1.0030001 -0.037427966
v -1 1.0030001 -0.037427913
v -1 0.4523146 -0.0374279
v 0.81201935 1.0030001 -0.037427966
v -1 -0.7158677 -0.03742776
v -0.92528856 -0.997 -0.037427727
v 0.81201935 1.0030001 -0.037427966
v -0.92528856 -0.997 -0.037427727
v 0.81201935 -0.9970001 -0.037427727
v -1 -0.7158677 -0.03742776
v -1 -0.997 -0.037427727
v -0.92528856 -0.997 -0.037427727
v 0.81201935 1.0030001 -0.037427966
v -0.5043831 1.0030001 -0.037427966
v -1.0000001 0.45231444 -0.0374279
v 0.81201935 1.0030001 -0.037427966
v -1.0000001 0.45231444 -0.0374279
v -1 -0.7158677 -0.03742776
v 0.84010124 1.003 -0.037427153
v 0.8335226 -0.997 -0.037427105
v 0.8784993 -0.997 -0.03742711
v 0.84010124 1.003 -0.037427153
v 0.81201935 1.0030001 -0.037427153
v 0.81201935 -0.9970001 -0.037427105
v 0.84010124 1.003 -0.037427153
v 0.81201935 -0.9970001 -0.037427105
v 0.8335226 -0.99699974 -0.037427105
v 0.9999998 1.0030003 -0.037427172
v 0.8401012 1.0030003 -0.037427153
v 0.87849927 -0.9969999 -0.03742711
v 0.9999998 1.0030003 -0.037427172
v 0.87849927 -0.9969999 -0.03742711
v 0.9999998 -0.9969999 -0.037427124
vt 0.24487305 0.5517578
vt 0.27929688 0.5517578
vt 0.27929688 0.5131836
vt 0.15368652 0.5517578
vt 0.27929688 0.43188477
vt 0.27416992 0.41210938
vt 0.15368652 0.5517578
vt 0.27416992 0.41210938
vt 0.15368652 0.41210938
vt 0.27929688 0.43188477
vt 0.27929688 0.41210938
vt 0.27416992 0.41210938
vt 0.15368652 0.5517578
vt 0.24487305 0.5517578
vt 0.27929688 0.5131836
vt 0.15368652 0.5517578
vt 0.27929688 0.5131836
vt 0.27929688 0.43188477
vt 0.1517334 0.5517578
vt 0.15209961 0.41210938
vt 0.14904785 0.41210938
vt 0.1517334 0.5517578
vt 0.15368652 0.5517578
vt 0.15368652 0.41210938
vt 0.1517334 0.5517578
vt 0.15368652 0.41210938
vt 0.15209961 0.41210938
vt 0.140625 0.5517578
vt 0.1517334 0.5517578
vt 0.14904785 0.41210938
vt 0.140625 0.5517578
vt 0.14904785 0.41210938
vt 0.140625 0.41210938
vn -0 -1.1920929E-07 -1
vn -0 -1.1920929E-07 -1
vn -0 -1.1920929E-07 -1
vn -0 -1.1920929E-07 -1
vn -0 -1.1920929E-07 -1
vn -0 -1.1920929E-07 -1
vn -0 -1.1920929E-07 -1
vn -0 -1.1920929E-07 -1
vn -0 -1.1920929E-07 -1
vn -0 -1.1920929E-07 -1
vn -0 -1.1920929E-07 -1
vn -0 -1.1920929E-07 -1
vn -0 -1.1920929E-07 -1
vn -0 -1.1920929E-07 -1
vn -0 -1.1920929E-07 -1
vn -0 -1.1920929E-07 -1
vn -0 -1.1920929E-07 -1
vn -0 -1.1920929E-07 -1
vn -0 -1.1920929E-07 -1
vn -0 -1.1920929E-07 -1
vn -0 -1.1920929E-07 -1
vn -0 -1.1920929E-07 -1
vn -0 -1.1920929E-07 -1
vn -0 -1.1920929E-07 -1
vn -0 -1.1920929E-07 -1
vn -0 -1.1920929E-07 -1
vn -0 -1.1920929E-07 -1
vn -0 -1.1920929E-07 -1
vn -0 -1.1920929E-07 -1
vn -0 -1.1920929E-07 -1
vn -0 -1.1920929E-07 -1
vn -0 -1.1920929E-07 -1
vn -0 -1.1920929E-07 -1
g DecalMesh_MetroArea_Decal_Ground_16_(2)__69_0
f 3/3/3 2/2/2 1/1/1
f 6/6/6 5/5/5 4/4/4
f 9/9/9 8/8/8 7/7/7
f 12/12/12 11/11/11 10/10/10
f 15/15/15 14/14/14 13/13/13
f 18/18/18 17/17/17 16/16/16
f 21/21/21 20/20/20 19/19/19
f 24/24/24 23/23/23 22/22/22
f 27/27/27 26/26/26 25/25/25
f 30/30/30 29/29/29 28/28/28
f 33/33/33 32/32/32 31/31/31
