g DecalMesh_MetroArea_Decal_Ground_06__11
v 0.32386068 1.003294 -0.4850001
v -2.4263911 1.003294 -0.4849999
v -2.4263911 -1.0032941 -0.48499975
v 0.32386068 1.003294 -0.4850001
v -2.4263911 -1.0032941 -0.48499975
v -1.4820678 -1.0032941 -0.4849998
v 0.49999812 1.0032941 -0.48500013
v -1.3419796 -1.0032941 -0.48499984
v 0.4999985 -1.0032941 -0.48500004
v 0.49999812 1.0032941 -0.48500013
v 0.32386082 1.0032941 -0.4850001
v -1.4820678 -1.0032941 -0.4849998
v 0.49999812 1.0032941 -0.48500013
v -1.4820678 -1.0032941 -0.4849998
v -1.4215895 -1.0032941 -0.4849998
v 0.49999812 1.0032941 -0.48500013
v -1.4215896 -1.0032941 -0.4849998
v -1.3419796 -1.0032941 -0.48499984
v 0.5260738 1.0032941 -0.48499796
v 0.5207369 -1.0032941 -0.48499772
v 0.79343975 -1.0032942 -0.48499763
v 0.5260738 1.0032941 -0.48499796
v 0.49999714 1.0032941 -0.48499796
v 0.49999714 -1.0032941 -0.48499772
v 0.5260738 1.0032941 -0.48499796
v 0.49999714 -1.0032941 -0.48499772
v 0.5207369 -1.0032941 -0.48499772
v 0.5981233 1.0032941 -0.48499796
v 0.8456819 -1.0032942 -0.48499763
v 1.6042167 -1.0032941 -0.48499763
v 0.5981233 1.0032941 -0.48499796
v 0.5260738 1.0032941 -0.48499796
v 0.7934397 -1.003294 -0.48499763
v 0.5981233 1.0032941 -0.48499796
v 0.7934397 -1.003294 -0.48499763
v 0.8456819 -1.003294 -0.48499763
v 0.61734563 1.0032941 -0.48499796
v 1.6096826 -1.0032941 -0.48499763
v 1.8205267 -1.0032941 -0.48499772
v 0.61734563 1.0032941 -0.48499796
v 0.5981233 1.0032941 -0.48499796
v 1.6042167 -1.0032941 -0.48499763
v 0.61734563 1.0032941 -0.48499796
v 1.6042167 -1.0032941 -0.48499763
v 1.6096826 -1.0032941 -0.48499763
v 0.6512177 1.0032941 -0.48499796
v 1.824758 -1.0032941 -0.48499772
v 2.2016914 -1.0032941 -0.48499772
v 0.6512177 1.0032941 -0.48499796
v 0.61734563 1.0032941 -0.48499796
v 1.8205267 -1.0032941 -0.48499772
v 0.6512177 1.0032941 -0.48499796
v 1.8205267 -1.0032941 -0.48499772
v 1.824758 -1.0032941 -0.48499772
v 0.6564118 1.0032941 -0.48499796
v 2.202349 -1.0032941 -0.48499772
v 2.260141 -1.0032941 -0.48499772
v 0.6564118 1.0032941 -0.48499796
v 0.6512177 1.0032941 -0.48499796
v 2.2016916 -1.0032941 -0.48499772
v 0.6564118 1.0032941 -0.48499796
v 2.2016916 -1.0032941 -0.48499772
v 2.202349 -1.0032941 -0.48499772
v 2.4263911 -0.95610476 -0.48499772
v 0.674934 1.0032941 -0.48499796
v 2.2618806 -1.0032941 -0.48499772
v 2.4263911 -0.95610476 -0.48499772
v 2.2618806 -1.0032941 -0.48499772
v 2.4263911 -1.0032941 -0.48499772
v 0.674934 1.0032941 -0.48499796
v 0.6564118 1.0032941 -0.48499796
v 2.260141 -1.0032941 -0.48499772
v 0.674934 1.0032941 -0.48499796
v 2.260141 -1.0032941 -0.48499772
v 2.2618806 -1.0032941 -0.48499772
v 2.4263911 -0.95610476 -0.48499772
v 2.426391 -0.40257064 -0.48499855
v 0.73539555 1.0032941 -0.48499805
v 2.4263911 -0.95610476 -0.48499772
v 0.73539555 1.0032941 -0.48499805
v 0.674934 1.0032941 -0.48499796
v 2.426391 -0.40257064 -0.48499855
v 2.4263911 1.0032941 -0.4849985
v 0.7353956 1.0032941 -0.48499805
v -1.0948486 0.25785825 -0.4902407
v -1.0948486 0.25785825 -0.5
v -0.65848094 -0.22109279 -0.5
v -1.0948486 0.25785825 -0.4902407
v -0.65848094 -0.22109279 -0.5
v -0.4554255 -0.4439636 -0.5
v 0.054175142 -1.0032941 -0.49024078
v -1.0948486 0.25785825 -0.4902407
v -0.45542553 -0.44396356 -0.5
v 0.054175142 -1.0032941 -0.49024078
v -0.45542553 -0.44396356 -0.5
v 0.054175142 -1.0032941 -0.5
vt 0.5854492 0.86279297
vt 0.7685547 0.86279297
vt 0.7685547 0.7290039
vt 0.5854492 0.86279297
vt 0.7685547 0.7290039
vt 0.7060547 0.7290039
vt 0.57373047 0.86279297
vt 0.69628906 0.7290039
vt 0.57373047 0.7290039
vt 0.57373047 0.86279297
vt 0.5854492 0.86279297
vt 0.7060547 0.7290039
vt 0.57373047 0.86279297
vt 0.7060547 0.7290039
vt 0.70166016 0.7290039
vt 0.57373047 0.86279297
vt 0.70166016 0.7290039
vt 0.69628906 0.7290039
vt 0.57177734 0.86279297
vt 0.5722656 0.7290039
vt 0.5541992 0.7290039
vt 0.57177734 0.86279297
vt 0.57373047 0.86279297
vt 0.57373047 0.7290039
vt 0.57177734 0.86279297
vt 0.57373047 0.7290039
vt 0.5722656 0.7290039
vt 0.56689453 0.86279297
vt 0.55078125 0.7290039
vt 0.5 0.7290039
vt 0.56689453 0.86279297
vt 0.57177734 0.86279297
vt 0.5541992 0.7290039
vt 0.56689453 0.86279297
vt 0.5541992 0.7290039
vt 0.55078125 0.7290039
vt 0.56591797 0.86279297
vt 0.49975586 0.7290039
vt 0.4855957 0.7290039
vt 0.56591797 0.86279297
vt 0.56689453 0.86279297
vt 0.5 0.7290039
vt 0.56591797 0.86279297
vt 0.5 0.7290039
vt 0.49975586 0.7290039
vt 0.56347656 0.86279297
vt 0.48535156 0.7290039
vt 0.46020508 0.7290039
vt 0.56347656 0.86279297
vt 0.56591797 0.86279297
vt 0.4855957 0.7290039
vt 0.56347656 0.86279297
vt 0.4855957 0.7290039
vt 0.48535156 0.7290039
vt 0.56347656 0.86279297
vt 0.46020508 0.7290039
vt 0.45629883 0.7290039
vt 0.56347656 0.86279297
vt 0.56347656 0.86279297
vt 0.46020508 0.7290039
vt 0.56347656 0.86279297
vt 0.46020508 0.7290039
vt 0.46020508 0.7290039
vt 0.4453125 0.7319336
vt 0.5620117 0.86279297
vt 0.45629883 0.7290039
vt 0.4453125 0.7319336
vt 0.45629883 0.7290039
vt 0.4453125 0.7290039
vt 0.5620117 0.86279297
vt 0.56347656 0.86279297
vt 0.45629883 0.7290039
vt 0.5620117 0.86279297
vt 0.45629883 0.7290039
vt 0.45629883 0.7290039
vt 0.4453125 0.7319336
vt 0.4453125 0.76904297
vt 0.55810547 0.86279297
vt 0.4453125 0.7319336
vt 0.55810547 0.86279297
vt 0.5620117 0.86279297
vt 0.4453125 0.76904297
vt 0.4453125 0.86279297
vt 0.55810547 0.86279297
vt 0.6801758 0.8129883
vt 0.6801758 0.8129883
vt 0.6508789 0.78125
vt 0.6801758 0.8129883
vt 0.6508789 0.78125
vt 0.63720703 0.7661133
vt 0.6035156 0.7290039
vt 0.6801758 0.8129883
vt 0.63720703 0.7661133
vt 0.6035156 0.7290039
vt 0.63720703 0.7661133
vt 0.6035156 0.7290039
vn -0 -1.1920929E-07 -1
vn -0 -1.1920929E-07 -1
vn -0 -1.1920929E-07 -1
vn -0 -1.1920929E-07 -1
vn -0 -1.1920929E-07 -1
vn -0 -1.1920929E-07 -1
vn -0 -1.1920929E-07 -1
vn -0 -1.1920929E-07 -1
vn -0 -1.1920929E-07 -1
vn -0 -1.1920929E-07 -1
vn -0 -1.1920929E-07 -1
vn -0 -1.1920929E-07 -1
vn -0 -1.1920929E-07 -1
vn -0 -1.1920929E-07 -1
vn -0 -1.1920929E-07 -1
vn -0 -1.1920929E-07 -1
vn -0 -1.1920929E-07 -1
vn -0 -1.1920929E-07 -1
vn -1.7881393E-07 -1.2278557E-05 -1
vn -1.7881393E-07 -9.894371E-06 -1
vn 1.1920929E-07 -0.00013828278 -1
vn -1.7881393E-07 -1.2278557E-05 -1
vn -2.3841858E-07 -0 -1
vn -1.7881393E-07 -1.7881393E-07 -1
vn -1.7881393E-07 -1.2278557E-05 -1
vn -1.7881393E-07 -1.7881393E-07 -1
vn -1.7881393E-07 -9.894371E-06 -1
vn -2.3841858E-07 -0 -1
vn 1.1920929E-07 -0.00012934208 -1
vn -5.9604645E-08 -5.9604645E-08 -1
vn -2.3841858E-07 -0 -1
vn -1.7881393E-07 -1.2278557E-05 -1
vn 1.1920929E-07 -0.00013828278 -1
vn -2.3841858E-07 -0 -1
vn 1.1920929E-07 -0.00013828278 -1
vn 1.1920929E-07 -0.00012934208 -1
vn -2.3841858E-07 -0 -1
vn -5.9604645E-08 -5.9604645E-08 -1
vn -0 -1.1920929E-07 -1
vn -2.3841858E-07 -0 -1
vn -2.3841858E-07 -0 -1
vn -5.9604645E-08 -5.9604645E-08 -1
vn -2.3841858E-07 -0 -1
vn -5.9604645E-08 -5.9604645E-08 -1
vn -5.9604645E-08 -5.9604645E-08 -1
vn 0.00038003922 -0 -1
vn 4.7504902E-05 -1.1920929E-07 -1
vn 0.0042800903 -1.1920929E-07 -1
vn 0.00038003922 -0 -1
vn -2.3841858E-07 -0 -1
vn -0 -1.1920929E-07 -1
vn 0.00038003922 -0 -1
vn -0 -1.1920929E-07 -1
vn 4.7504902E-05 -1.1920929E-07 -1
vn 0.00043845177 -0 -1
vn 0.0042877197 -1.1920929E-07 -1
vn 0.0049362183 -1.1920929E-07 -1
vn 0.00043845177 -0 -1
vn 0.00038003922 -0 -1
vn 0.0042800903 -1.1920929E-07 -1
vn 0.00043845177 -0 -1
vn 0.0042800903 -1.1920929E-07 -1
vn 0.0042877197 -1.1920929E-07 -1
vn -1.2516975E-06 -1.2516975E-06 -1
vn -2.9802322E-07 -1.1920929E-07 -1
vn 0.0048942566 -1.1920929E-07 -1
vn -1.2516975E-06 -1.2516975E-06 -1
vn 0.0048942566 -1.1920929E-07 -1
vn 0.0009975433 -1.013279E-06 -1
vn -2.9802322E-07 -1.1920929E-07 -1
vn 0.00043845177 -0 -1
vn 0.0049362183 -1.1920929E-07 -1
vn -2.9802322E-07 -1.1920929E-07 -1
vn 0.0049362183 -1.1920929E-07 -1
vn 0.0048942566 -1.1920929E-07 -1
vn -1.2516975E-06 -1.2516975E-06 -1
vn -2.9802322E-07 0 -1
vn -2.3841858E-07 0 -1
vn -1.2516975E-06 -1.2516975E-06 -1
vn -2.3841858E-07 0 -1
vn -2.9802322E-07 -1.1920929E-07 -1
vn -2.9802322E-07 0 -1
vn -2.3841858E-07 -0 -1
vn -2.3841858E-07 0 -1
vn 0.7392578 0.67333984 -5.9604645E-08
vn 0.7392578 0.67333984 -5.9604645E-08
vn 0.7392578 0.67333984 -5.9604645E-08
vn 0.7392578 0.67333984 -5.9604645E-08
vn 0.7392578 0.67333984 -5.9604645E-08
vn 0.7392578 0.67333984 -5.9604645E-08
vn 0.7392578 0.67333984 -5.9604645E-08
vn 0.7392578 0.67333984 -5.9604645E-08
vn 0.7392578 0.67333984 -5.9604645E-08
vn 0.7392578 0.67333984 -5.9604645E-08
vn 0.7392578 0.67333984 -5.9604645E-08
vn 0.7392578 0.67333984 -5.9604645E-08
g DecalMesh_MetroArea_Decal_Ground_06__11_0
f 3/3/3 2/2/2 1/1/1
f 6/6/6 5/5/5 4/4/4
f 9/9/9 8/8/8 7/7/7
f 12/12/12 11/11/11 10/10/10
f 15/15/15 14/14/14 13/13/13
f 18/18/18 17/17/17 16/16/16
f 21/21/21 20/20/20 19/19/19
f 24/24/24 23/23/23 22/22/22
f 27/27/27 26/26/26 25/25/25
f 30/30/30 29/29/29 28/28/28
f 33/33/33 32/32/32 31/31/31
f 36/36/36 35/35/35 34/34/34
f 39/39/39 38/38/38 37/37/37
f 42/42/42 41/41/41 40/40/40
f 45/45/45 44/44/44 43/43/43
f 48/48/48 47/47/47 46/46/46
f 51/51/51 50/50/50 49/49/49
f 54/54/54 53/53/53 52/52/52
f 57/57/57 56/56/56 55/55/55
f 60/60/60 59/59/59 58/58/58
f 63/63/63 62/62/62 61/61/61
f 66/66/66 65/65/65 64/64/64
f 69/69/69 68/68/68 67/67/67
f 72/72/72 71/71/71 70/70/70
f 75/75/75 74/74/74 73/73/73
f 78/78/78 77/77/77 76/76/76
f 81/81/81 80/80/80 79/79/79
f 84/84/84 83/83/83 82/82/82
f 87/87/87 86/86/86 85/85/85
f 90/90/90 89/89/89 88/88/88
f 93/93/93 92/92/92 91/91/91
f 96/96/96 95/95/95 94/94/94
