g MainCity_Prop_Fence_02
v -1.4999987 1.1000001 -1.8450073E-07
v -1.499999 -1.907346E-08 -1.9262272E-07
v 1.5000018 4.5474732E-14 -3.2613713E-07
v 1.5000019 1.1 -2.220766E-07
v -1.4999987 1.1000001 -1.8450073E-07
v 1.5000019 1.1 -2.220766E-07
v 1.5000018 1.1000001 0.2985993
v -1.499999 1.1 0.29859942
v -1.499999 -4.538494E-08 0.29859915
v -1.499999 1.1 0.29859942
v 1.5000018 -3.97491E-09 0.29859915
v 1.5000018 1.1000001 0.2985993
v 1.5000019 1.1 -2.220766E-07
v 1.5000018 4.5474732E-14 -3.2613713E-07
v 1.5000018 -3.97491E-09 0.29859915
v 1.5000018 1.1000001 0.2985993
v -1.499999 1.1 0.29859942
v -1.499999 -4.538494E-08 0.29859915
v -1.499999 -1.907346E-08 -1.9262272E-07
v -1.4999987 1.1000001 -1.8450073E-07
vt 1.0615234 0.3515625
vt 1.0615234 0.086364746
vt 1.7832031 0.086364746
vt 1.7832031 0.3515625
vt 0.060943604 0.08001709
vt 0.7836914 0.08001709
vt 0.7836914 0.008010864
vt 0.060943604 0.008010864
vt 0.061035156 0.086364746
vt 0.061035156 0.3515625
vt 0.7836914 0.086364746
vt 0.7836914 0.3515625
vt 0.25048828 0.99072266
vt 0.25048828 0.72558594
vt 0.13061523 0.72558594
vt 0.13061523 0.99072266
vt 0.13061523 0.99072266
vt 0.13061523 0.72558594
vt 0.010147095 0.72558594
vt 0.010147095 0.99072266
vn -0 0 -1
vn -0 0 -1
vn -0 0 -1
vn -0 0 -1
vn -0 1 -1.1920929E-07
vn -0 1 -1.1920929E-07
vn -0 1 -1.1920929E-07
vn -0 1 -1.1920929E-07
vn -0 -1.7881393E-07 1
vn -0 -1.7881393E-07 1
vn -0 -1.7881393E-07 1
vn -0 -1.7881393E-07 1
vn 1 0 2.3841858E-07
vn 1 0 2.3841858E-07
vn 1 0 2.3841858E-07
vn 1 0 2.3841858E-07
vn -1 1.1920929E-07 -5.364418E-07
vn -1 1.1920929E-07 -5.364418E-07
vn -1 1.1920929E-07 -5.364418E-07
vn -1 1.1920929E-07 -5.364418E-07
g MainCity_Prop_Fence_02_0
f 3/3/3 2/2/2 1/1/1
f 1/1/1 4/4/4 3/3/3
f 7/7/7 6/6/6 5/5/5
f 5/5/5 8/8/8 7/7/7
f 11/11/11 10/10/10 9/9/9
f 10/10/10 11/11/11 12/12/12
f 15/15/15 14/14/14 13/13/13
f 13/13/13 16/16/16 15/15/15
f 19/19/19 18/18/18 17/17/17
f 17/17/17 20/20/20 19/19/19
