g MainCity_Prop_Fence_05
v -1.2207031E-06 1.0999999 -1.4404388E-07
v -0.49999946 1.1000001 0.29859954
v -0.49999937 1.1000001 -1.9242329E-07
v -1.2207031E-06 1.1 0.29859975
v -1.2207031E-06 1.1 0.29859975
v -1.2207031E-06 1.0999999 -1.4404388E-07
v -1.2207031E-06 0.27500004 0.2985996
v -1.2207031E-06 0.27500004 -2.8756804E-07
v -0.49999937 1.1000001 -1.9242329E-07
v -1.2207031E-06 0.27500004 -2.8756804E-07
v -1.2207031E-06 1.0999999 -1.4404388E-07
v -0.4999994 8.106984E-08 -3.452106E-07
v -1.2207031E-06 -8.106226E-08 -3.4471427E-07
v 0.49999878 0.9908359 0.11618504
v -3.0517576E-06 0.9908358 0.1820385
v -3.0517576E-06 0.9908359 0.11618504
v 0.49999878 0.9908358 0.1820385
v 0.49999878 0.9908358 0.1820385
v -3.0517576E-06 0.9273055 0.1820385
v -3.0517576E-06 0.9908358 0.1820385
v 0.49999878 0.9273055 0.1820385
v 0.49999878 0.9273055 0.11618503
v 0.49999878 0.9908359 0.11618504
v -3.0517576E-06 0.9273055 0.11618503
v -3.0517576E-06 0.9908359 0.11618504
v 0.060317382 0.39467826 0.17603837
v 0.060317382 0.44090477 0.17603837
v 0.4396759 0.39467826 0.17603841
v 0.4396759 0.44090477 0.17603837
v 0.060317382 0.39467824 0.12218497
v 0.060317382 0.39467826 0.17603837
v 0.4396759 0.39467824 0.12218497
v 0.4396759 0.39467826 0.17603841
v 0.4396759 0.44090465 0.12218498
v 0.060317382 0.44090465 0.12218498
v 0.060317382 0.39467824 0.12218497
v 0.4396759 0.39467824 0.12218497
v 0.060317382 0.44090465 0.12218498
v 0.4396759 0.44090465 0.12218498
v 0.4396759 0.44090477 0.17603837
v 0.060317382 0.44090477 0.17603837
v 0.49999967 0.27499992 0.29859945
v 0.4999996 3.3949735E-08 0.29859936
v -1.2207031E-06 0.27500004 0.2985996
v -1.2207031E-06 -5.601905E-08 0.2985995
v -0.4999994 9.616834E-08 0.2985993
v -0.49999946 1.1000001 0.29859954
v -1.2207031E-06 1.1 0.29859975
v -1.2207031E-06 0.27500004 -2.8756804E-07
v 0.49999967 0.2749999 -2.4102033E-07
v 0.49999967 0.27499992 0.29859945
v -1.2207031E-06 0.27500004 0.2985996
v 0.4999996 9.544278E-09 -3.833576E-07
v 0.49999967 0.2749999 -2.4102033E-07
v -1.2207031E-06 0.27500004 -2.8756804E-07
v -1.2207031E-06 -8.106226E-08 -3.4471427E-07
v -3.0517576E-06 0.92730564 0.1790384
v 0.06031921 0.92730564 0.1790384
v 0.060317382 0.27500013 0.17903829
v -3.0517576E-06 0.27500013 0.17903829
v 0.06031921 0.92730564 0.1790384
v 0.0603186 0.92730564 0.11918489
v 0.060317382 0.27500013 0.17903829
v 0.060317382 0.27500015 0.119184755
v -3.0517576E-06 0.92730564 0.11918481
v -3.0517576E-06 0.27500015 0.11918471
v 0.060317382 0.27500015 0.119184755
v 0.0603186 0.92730564 0.11918489
v 0.43967405 0.92730564 0.1790384
v 0.49999633 0.92730564 0.1790384
v 0.4396759 0.27500007 0.17903827
v 0.49999633 0.27500007 0.17903827
v 0.49999633 0.27500013 0.119184874
v 0.49999633 0.92730564 0.1790384
v 0.49999663 0.92730564 0.11918493
v 0.49999633 0.27500007 0.17903827
v 0.43967405 0.92730564 0.1790384
v 0.4396759 0.27500007 0.17903827
v 0.4396759 0.27500013 0.119184874
v 0.43967468 0.92730564 0.11918493
v 0.49999663 0.92730564 0.11918493
v 0.43967468 0.92730564 0.11918493
v 0.4396759 0.27500013 0.119184874
v 0.49999633 0.27500013 0.119184874
v 0.3054596 0.9273055 0.1636664
v 0.33572325 0.9273055 0.1636664
v 0.3054596 0.440904 0.16366626
v 0.33572325 0.440904 0.16366626
v 0.33572325 0.9273055 0.13493268
v 0.33572325 0.44090393 0.13493267
v 0.33572325 0.440904 0.16366626
v 0.33572325 0.9273055 0.1636664
v 0.3054596 0.9273055 0.13493271
v 0.3054596 0.9273055 0.1636664
v 0.3054596 0.440904 0.16366626
v 0.3054596 0.440904 0.13493267
v 0.3054596 0.440904 0.13493267
v 0.33572325 0.9273055 0.13493268
v 0.3054596 0.9273055 0.13493271
v 0.33572325 0.44090393 0.13493267
v 0.50899655 0.2870677 0.18796857
v 0.4306738 0.27471635 0.18796836
v 0.4306738 0.28706774 0.18796857
v 0.50899655 0.27471635 0.18796836
v 0.50899655 0.27471635 0.18796836
v 0.50899655 0.2870677 0.18796857
v 0.50899655 0.28706786 0.11025439
v 0.50899655 0.27471638 0.11025403
v 0.4306738 0.28706786 0.1102544
v 0.4306738 0.28706774 0.18796857
v 0.4306738 0.27471635 0.18796836
v 0.4306738 0.27471662 0.11025401
v 0.50899655 0.28706786 0.11025439
v 0.4306738 0.28706786 0.1102544
v 0.4306738 0.27471662 0.11025401
v 0.50899655 0.27471638 0.11025403
v 0.4306738 0.28706786 0.1102544
v 0.50899655 0.28706786 0.11025439
v 0.50899655 0.2870677 0.18796857
v 0.4306738 0.28706774 0.18796857
v 0.16427124 0.9273055 0.1636664
v 0.19453491 0.9273055 0.1636664
v 0.16427124 0.44090396 0.16366626
v 0.19453491 0.44090396 0.16366626
v 0.19453491 0.9273055 0.13493271
v 0.19453491 0.44090384 0.13493267
v 0.19453491 0.44090396 0.16366626
v 0.19453491 0.9273055 0.1636664
v 0.16427124 0.9273055 0.13493271
v 0.16427124 0.9273055 0.1636664
v 0.16427124 0.44090396 0.16366626
v 0.16427124 0.44090393 0.13493267
v 0.16427124 0.44090393 0.13493267
v 0.19453491 0.9273055 0.13493271
v 0.16427124 0.9273055 0.13493271
v 0.19453491 0.44090384 0.13493267
v -3.0517576E-06 0.9273055 0.11618503
v -3.0517576E-06 0.9273055 0.1820385
v 0.49999878 0.9273055 0.11618503
v 0.49999878 0.9273055 0.1820385
v 0.49999967 0.2749999 -2.4102033E-07
v 0.4999996 9.544278E-09 -3.833576E-07
v 0.4999996 3.3949735E-08 0.29859936
v 0.49999967 0.27499992 0.29859945
v -0.4999994 9.616834E-08 0.2985993
v -0.49999937 1.1000001 -1.9242329E-07
v -0.49999946 1.1000001 0.29859954
v -0.4999994 8.106984E-08 -3.452106E-07
vt 0.90771484 0.08013916
vt 0.79296875 0.008125305
vt 0.79296875 0.08013916
vt 0.90771484 0.008125305
vt 0.9169922 0.99365234
vt 0.98876953 0.99365234
vt 0.9169922 0.7866211
vt 0.98876953 0.7866211
vt 1.0097656 0.62353516
vt 1.1298828 0.42504883
vt 1.1298828 0.62353516
vt 1.0097656 0.35888672
vt 1.1298828 0.35888672
vt 0.5488281 0.76416016
vt 0.42944336 0.7475586
vt 0.42944336 0.76416016
vt 0.5488281 0.7475586
vt 0.5488281 0.72216797
vt 0.42919922 0.7055664
vt 0.42919922 0.72216797
vt 0.5488281 0.7055664
vt 1.5488281 0.7055664
vt 1.5488281 0.72216797
vt 1.4296875 0.7055664
vt 1.4296875 0.72216797
vt 1.3046875 0.52978516
vt 1.3164062 0.52978516
vt 1.3046875 0.4387207
vt 1.3164062 0.4387207
vt 1.2880859 0.5292969
vt 1.3007812 0.5292969
vt 1.2880859 0.43847656
vt 1.3007812 0.43847656
vt 1.3164062 0.4387207
vt 1.3164062 0.52978516
vt 1.3046875 0.52978516
vt 1.3046875 0.4387207
vt 1.3330078 0.52978516
vt 1.3330078 0.4387207
vt 1.3203125 0.4387207
vt 1.3203125 0.52978516
vt 0.25024414 0.42504883
vt 0.25024414 0.35888672
vt 0.13012695 0.42504883
vt 0.13012695 0.35888672
vt 0.009635925 0.35888672
vt 0.009635925 0.62353516
vt 0.13012695 0.62353516
vt 0.41674805 0.7011719
vt 0.5361328 0.7011719
vt 0.5361328 0.62939453
vt 0.41674805 0.62939453
vt 1.25 0.35888672
vt 1.25 0.42504883
vt 1.1298828 0.42504883
vt 1.1298828 0.35888672
vt 1.4814453 0.92578125
vt 1.4667969 0.92578125
vt 1.4667969 0.7685547
vt 1.4814453 0.7685547
vt 1.4619141 0.92578125
vt 1.4472656 0.92578125
vt 1.4619141 0.7685547
vt 1.4472656 0.7685547
vt 1.4814453 0.92578125
vt 1.4814453 0.7685547
vt 1.4667969 0.7685547
vt 1.4667969 0.92578125
vt 1.4287109 0.92578125
vt 1.4433594 0.92578125
vt 1.4287109 0.7685547
vt 1.4433594 0.7685547
vt 1.3847656 0.7680664
vt 1.3701172 0.92529297
vt 1.3847656 0.92529297
vt 1.3701172 0.7680664
vt 1.4238281 0.92578125
vt 1.4238281 0.7685547
vt 1.4091797 0.7685547
vt 1.4091797 0.92578125
vt 1.4433594 0.92578125
vt 1.4287109 0.92578125
vt 1.4287109 0.7685547
vt 1.4433594 0.7685547
vt 1.4814453 0.9848633
vt 1.4814453 0.97753906
vt 1.3701172 0.9848633
vt 1.3701172 0.97753906
vt 1.4814453 0.9892578
vt 1.3701172 0.9892578
vt 1.3701172 0.99609375
vt 1.4814453 0.99609375
vt 1.4814453 0.9736328
vt 1.4814453 0.9667969
vt 1.3701172 0.9667969
vt 1.3701172 0.9736328
vt 1.3701172 0.9848633
vt 1.4814453 0.97753906
vt 1.4814453 0.9848633
vt 1.3701172 0.97753906
vt 1.5498047 0.91259766
vt 1.5302734 0.90966797
vt 1.5302734 0.91259766
vt 1.5498047 0.90966797
vt 1.5546875 0.93310547
vt 1.5546875 0.93603516
vt 1.5732422 0.93603516
vt 1.5732422 0.93310547
vt 1.5732422 0.9399414
vt 1.5546875 0.9399414
vt 1.5546875 0.9433594
vt 1.5732422 0.9433594
vt 1.5498047 0.9169922
vt 1.5302734 0.9169922
vt 1.5302734 0.9199219
vt 1.5498047 0.9199219
vt 1.5537109 0.9472656
vt 1.5537109 0.9663086
vt 1.5732422 0.9663086
vt 1.5732422 0.9472656
vt 1.4814453 0.96240234
vt 1.4814453 0.9550781
vt 1.3701172 0.96240234
vt 1.3701172 0.9550781
vt 1.4814453 0.94433594
vt 1.3701172 0.94433594
vt 1.3701172 0.9511719
vt 1.4814453 0.9511719
vt 1.4814453 0.9399414
vt 1.4814453 0.93310547
vt 1.3701172 0.93310547
vt 1.3701172 0.9399414
vt 1.3701172 0.96240234
vt 1.4814453 0.9550781
vt 1.4814453 0.96240234
vt 1.3701172 0.9550781
vt 0.42919922 0.7260742
vt 0.42919922 0.74316406
vt 0.5488281 0.7260742
vt 0.5488281 0.74316406
vt 0.25048828 0.7919922
vt 0.25048828 0.72558594
vt 0.13061523 0.72558594
vt 0.13061523 0.7919922
vt 0.13061523 0.72558594
vt 0.010147095 0.99072266
vt 0.13061523 0.99072266
vt 0.010147095 0.72558594
vn 3.5762787E-07 1 -1.1920929E-07
vn 3.5762787E-07 1 -1.1920929E-07
vn 3.5762787E-07 1 -1.1920929E-07
vn 3.5762787E-07 1 -1.1920929E-07
vn 1 0 0
vn 1 0 0
vn 1 0 0
vn 1 0 0
vn -0 1.7881393E-07 -1
vn -0 1.7881393E-07 -1
vn -0 1.7881393E-07 -1
vn -0 1.7881393E-07 -1
vn -0 1.7881393E-07 -1
vn -0 1 2.3245811E-06
vn -0 1 2.3245811E-06
vn -0 1 2.3245811E-06
vn -0 1 2.3245811E-06
vn -0 0 1
vn -0 0 1
vn -0 0 1
vn -0 0 1
vn -0 1.7881393E-07 -1
vn -0 1.7881393E-07 -1
vn -0 1.7881393E-07 -1
vn -0 1.7881393E-07 -1
vn -0 4.172325E-07 1
vn -0 4.172325E-07 1
vn -0 4.172325E-07 1
vn -0 4.172325E-07 1
vn -0 -1 7.1525574E-07
vn -0 -1 7.1525574E-07
vn -0 -1 7.1525574E-07
vn -0 -1 7.1525574E-07
vn -0 1.7881393E-07 -1
vn -0 1.7881393E-07 -1
vn -0 1.7881393E-07 -1
vn -0 1.7881393E-07 -1
vn -0 1 -2.1457672E-06
vn -0 1 -2.1457672E-06
vn -0 1 -2.1457672E-06
vn -0 1 -2.1457672E-06
vn 2.9802322E-07 -3.5762787E-07 1
vn 2.9802322E-07 -3.5762787E-07 1
vn -1.7881393E-07 -2.9802322E-07 1
vn -0 -3.5762787E-07 1
vn -4.172325E-07 -2.3841858E-07 1
vn -4.172325E-07 -1.7881393E-07 1
vn -4.172325E-07 -1.7881393E-07 1
vn 2.3841858E-07 1 0
vn 2.3841858E-07 1 0
vn 2.3841858E-07 1 0
vn 2.3841858E-07 1 0
vn -0 3.5762787E-07 -1
vn -0 3.5762787E-07 -1
vn -0 3.5762787E-07 -1
vn -0 3.5762787E-07 -1
vn -0 -1.7881393E-07 1
vn -0 -1.7881393E-07 1
vn -0 -1.7881393E-07 1
vn -0 -1.7881393E-07 1
vn 1 -2.3245811E-06 -5.1259995E-06
vn 1 -2.3245811E-06 -5.1259995E-06
vn 1 -2.3245811E-06 -5.1259995E-06
vn 1 -2.3245811E-06 -5.1259995E-06
vn 1.1324883E-06 1.7881393E-07 -1
vn 1.1324883E-06 1.7881393E-07 -1
vn 1.1324883E-06 1.7881393E-07 -1
vn 1.1324883E-06 1.7881393E-07 -1
vn -0 -1.7881393E-07 1
vn -0 -1.7881393E-07 1
vn -0 -1.7881393E-07 1
vn -0 -1.7881393E-07 1
vn 1 -2.3841858E-07 2.5629997E-06
vn 1 -2.3841858E-07 2.5629997E-06
vn 1 -2.3841858E-07 2.5629997E-06
vn 1 -2.3841858E-07 2.5629997E-06
vn -1 -2.3245811E-06 -5.1259995E-06
vn -1 -2.3245811E-06 -5.1259995E-06
vn -1 -2.3245811E-06 -5.1259995E-06
vn -1 -2.3245811E-06 -5.1259995E-06
vn -0 0 -1
vn -0 0 -1
vn -0 0 -1
vn -0 0 -1
vn -0 -2.9802322E-07 1
vn -0 -2.9802322E-07 1
vn -0 -2.9802322E-07 1
vn -0 -2.9802322E-07 1
vn 1 0 0
vn 1 0 0
vn 1 0 0
vn 1 0 0
vn -1 0 0
vn -1 0 0
vn -1 0 0
vn -1 0 0
vn -2.9802322E-07 0 -1
vn -2.9802322E-07 0 -1
vn -2.9802322E-07 0 -1
vn -2.9802322E-07 0 -1
vn -0 -1.6987324E-05 1
vn -0 -1.6987324E-05 1
vn -0 -1.6987324E-05 1
vn -0 -1.6987324E-05 1
vn 1 0 0
vn 1 0 0
vn 1 0 0
vn 1 0 0
vn -1 0 0
vn -1 0 0
vn -1 0 0
vn -1 0 0
vn -0 3.0517578E-05 -1
vn -0 3.0517578E-05 -1
vn -0 3.0517578E-05 -1
vn -0 3.0517578E-05 -1
vn 2.3841858E-07 1 1.4901161E-06
vn 2.3841858E-07 1 1.4901161E-06
vn 2.3841858E-07 1 1.4901161E-06
vn 2.3841858E-07 1 1.4901161E-06
vn -0 -2.9802322E-07 1
vn -0 -2.9802322E-07 1
vn -0 -2.9802322E-07 1
vn -0 -2.9802322E-07 1
vn 1 0 0
vn 1 0 0
vn 1 0 0
vn 1 0 0
vn -1 0 0
vn -1 0 0
vn -1 0 0
vn -1 0 0
vn -0 0 -1
vn -0 0 -1
vn -0 0 -1
vn -0 0 -1
vn -0 -1 0
vn -0 -1 0
vn -0 -1 0
vn -0 -1 0
vn 1 -2.9802322E-07 0
vn 1 -2.9802322E-07 0
vn 1 -2.9802322E-07 0
vn 1 -2.9802322E-07 0
vn -1 0 -1.1920929E-07
vn -1 0 -1.1920929E-07
vn -1 0 -1.1920929E-07
vn -1 0 -1.1920929E-07
g MainCity_Prop_Fence_05_0
f 3/3/3 2/2/2 1/1/1
f 2/2/2 4/4/4 1/1/1
f 7/7/7 6/6/6 5/5/5
f 7/7/7 8/8/8 6/6/6
f 11/11/11 10/10/10 9/9/9
f 10/10/10 12/12/12 9/9/9
f 13/13/13 12/12/12 10/10/10
f 16/16/16 15/15/15 14/14/14
f 15/15/15 17/17/17 14/14/14
f 20/20/20 19/19/19 18/18/18
f 19/19/19 21/21/21 18/18/18
f 24/24/24 23/23/23 22/22/22
f 23/23/23 24/24/24 25/25/25
f 28/28/28 27/27/27 26/26/26
f 27/27/27 28/28/28 29/29/29
f 32/32/32 31/31/31 30/30/30
f 31/31/31 32/32/32 33/33/33
f 36/36/36 35/35/35 34/34/34
f 34/34/34 37/37/37 36/36/36
f 40/40/40 39/39/39 38/38/38
f 38/38/38 41/41/41 40/40/40
f 44/44/44 43/43/43 42/42/42
f 43/43/43 44/44/44 45/45/45
f 46/46/46 45/45/45 44/44/44
f 47/47/47 46/46/46 44/44/44
f 44/44/44 48/48/48 47/47/47
f 51/51/51 50/50/50 49/49/49
f 49/49/49 52/52/52 51/51/51
f 55/55/55 54/54/54 53/53/53
f 53/53/53 56/56/56 55/55/55
f 59/59/59 58/58/58 57/57/57
f 57/57/57 60/60/60 59/59/59
f 63/63/63 62/62/62 61/61/61
f 63/63/63 64/64/64 62/62/62
f 67/67/67 66/66/66 65/65/65
f 65/65/65 68/68/68 67/67/67
f 71/71/71 70/70/70 69/69/69
f 71/71/71 72/72/72 70/70/70
f 75/75/75 74/74/74 73/73/73
f 76/76/76 73/73/73 74/74/74
f 79/79/79 78/78/78 77/77/77
f 77/77/77 80/80/80 79/79/79
f 83/83/83 82/82/82 81/81/81
f 81/81/81 84/84/84 83/83/83
f 87/87/87 86/86/86 85/85/85
f 87/87/87 88/88/88 86/86/86
f 91/91/91 90/90/90 89/89/89
f 89/89/89 92/92/92 91/91/91
f 95/95/95 94/94/94 93/93/93
f 93/93/93 96/96/96 95/95/95
f 99/99/99 98/98/98 97/97/97
f 100/100/100 97/97/97 98/98/98
f 103/103/103 102/102/102 101/101/101
f 102/102/102 104/104/104 101/101/101
f 107/107/107 106/106/106 105/105/105
f 105/105/105 108/108/108 107/107/107
f 111/111/111 110/110/110 109/109/109
f 109/109/109 112/112/112 111/111/111
f 115/115/115 114/114/114 113/113/113
f 113/113/113 116/116/116 115/115/115
f 119/119/119 118/118/118 117/117/117
f 117/117/117 120/120/120 119/119/119
f 123/123/123 122/122/122 121/121/121
f 123/123/123 124/124/124 122/122/122
f 127/127/127 126/126/126 125/125/125
f 125/125/125 128/128/128 127/127/127
f 131/131/131 130/130/130 129/129/129
f 129/129/129 132/132/132 131/131/131
f 135/135/135 134/134/134 133/133/133
f 136/136/136 133/133/133 134/134/134
f 139/139/139 138/138/138 137/137/137
f 138/138/138 139/139/139 140/140/140
f 143/143/143 142/142/142 141/141/141
f 141/141/141 144/144/144 143/143/143
f 147/147/147 146/146/146 145/145/145
f 148/148/148 145/145/145 146/146/146
